<svg xmlns="http://www.w3.org/2000/svg" width="973.429" height="834.963" viewBox="0 0 973.429 834.963"><title>2T Législatives 2017 Provence-Alpes-Côte d&amp;apos;Azur</title><path d="M700.854,524.7l2.091,3.3,4.926,1.656.76,6.624,1.158.678-6.327,1.432-3.386,8.339,9.016,2.254,2.895,2.816-.249,2.621-5.993,2.656-12.837,3.3-1.694,1.93.1.475-2.352-1.06-1.233-4.907-10.177-.341-1.6,2.768-7.534,5.666L666.2,567.93l-1.266-.059.933-2.542-1-3.922-.791-1.119-5.022-4.446-9.212,5.656-4.806-2-3.647,1.681-5.015-1.776-1.021,2.261-5.362.7-.85,10.7L621,583.77l-1.285-1.9-2.077-1.259-4.708,2.358-7.033-3.739-4.564-4.841-12.523-7.6-2.964-7.341-2.083-1.535-7.073.665-3.755.844-6.2,8.286-1.174,4.056-4.184,5.33-7.923,5.45-3.337.314-4.94-3.452-4.331,6.209-1.387.242.422,1.227L538.26,590.6l-4.332,4.5-2.293.307-1.561,1.567-1.387.906-4.714,1.93,1.162,5.041-4.741,4.345-2.931-2.715-1.956-4.973-4.564-2.748-.9-7.334-2.581-.154-2.67-2.977-3.834.422-2.172-1.534-1.24-2.293.6-2.6-.971-3.89-3.432-1.589-.065-1.335-.838-.609-4.907,1.829-.517,6.65-4.036,3.521-3.795,1.292-5.349-.069-1.858,1.93-1.675-6.422-3.118-4.275L453.551,575.6l.589-.831,6.742-6.5,4.574-11.476.6-2.569,7.207-9.123,2.218-4.7,5.182-10.639,2.26-6.012.736-7.655-4.1-4.7-2.614-5.66-.389-3.386-3.049-8.93-3.853-3.828,3.265-3.88,3.909,3.431,1.73-4.7,4.574-2.326.356-7.943,1.3-2.28-2.339-6.209.058-.3,1.047-2.473,4.691-2.48,5.221-.511,1.42-2.25L494.625,455l1.688-2.07-2.535-3.144-9.66-4.691-3.1-7.348,6.5-1.577,2.2-1.151,1.885-1.705,1.112-3.647-.913-2.385,1.158-3.634,3.988-4.826,5.061.053-.39,1.432,9.471-7.73,9.987,3.955,1.937-3.379,2.607.249,4.806-2.071,8.387,3.48,2.186-3.2.778-8.372,1.2-2.057-.4-2.467,5.08-3.406,7.7-4.714,5,4.122.824-3.873,6.408.785,1.407,2.179,6.288-5.578,4.171,2.895,6.375-.765,6.376,1.151,4.148-3.206,2.113-3.31,2.569.644.192.082,7.348,3.062,2.613-.563,4.292-3.271,8.561-.811,3.017-2.114,7.756-10.209,9.4-7.188,2.453,1.034,2.051,3.386,3.5,1.923,10.217-1.285,3.54-13.694,10.854,5.784,2.836,6.166,2.225,1.528,6.127-2.768,3.821,1.489,10.805-.851,6.677,1.643,2.166,3.31-.966,5.375,4.806,2.153,1.534,3.654-.965.85-.791,6.275.811,2.254-3,3.942.913,3.72-5.251,7.174,1.162,2.319-.4,2.568-3.89,3.586,4.927,9.1.837,7.91,3.092,2.358,1.553,2.843,4.5,4.842,2.493,4.586,1.851,2.709-2.447,6.241-.556,7.979,7.073,6.32,4.972,2.018,1.829,5.094,12,7.118-1.112,2.48,3,2.192.717,4.793.229,3.916,6.637.644,2.568,6,2.7,2.95,2.211,1.348,2.569-.85,1.138.729,4.678,6.556,3.258,2.352.2,2.594-1.295.357-5.257,1.06-7.253,1.386-2.535-.333-2.294-3.245-7.047-5.732-3.873-.51L745.8,512.8l-8.594,3.131-5.5,10.337-9.33,4.518-8.78-2.983Z" transform="translate(-20.14 -38.731)" fill="#ffeb00" stroke="#000"/><path d="M411.778,423.058l2.127-6.081-2.513-3.03-3.565-1.756-2.12-4.691-2.018-.308-2.166,1.554-4.05-.321-1.079.824-3.183,5.928,4.557,4.773.121,1.328-3,2.529-5.31-.4v.16l-2.548,6.193-8.64,3.611-.965,2.395-2.453.792-.181,16.5,1.247,3.732,4.03.007,7.635-2.5-.477,17.577-6.474,11.771-1.79,7.978-1.436,6.013,1.3,4.786,4.708-.235,4.275,2.689,6.3-1.387,4.384,10.324,6.447-.068-4.531,11.129-4.874,9.156-3.176,2.326-3.527,3.667-1.073,11.7,1.7.068,3.578-1.279,2.205-3.3,7.695.831,7.87-1.414,1.021.864,4.318.945,2.1.383,1.489,3.615,4.083,3.219,2.728,6.9,2.97,2.018,2.882,1.757,2.28-.569.753,9.317,8.822,5.941,2.6,4.652,6.676-10.1.583-.831,6.745-6.5,4.573-11.476.6-2.568,7.207-9.124,2.218-4.7,5.188-10.638,2.254-6.013.743-7.655-4.1-4.7-2.62-5.659-.389-3.386-3.043-8.931-3.86-3.828,3.271-3.886,3.9,3.438,1.737-4.7,4.567-2.326.363-7.942,1.292-2.281-2.339-6.208.065-.3,1.041-2.473,4.7-2.48,5.221-.51,1.42-2.251-.255-2.653,1.681-2.071-2.535-3.144-9.66-4.691-3.1-7.347,6.5-1.577L489.7,435l1.885-1.7,1.112-3.647-.906-2.385,1.158-3.635,3.988-4.825,5.06.052-.389,1.433,9.471-7.73,9.981,3.955,1.943-3.379,2.607.249,4.8-2.071,8.388,3.48,2.185-3.2.779-8.372,1.2-2.058-.4-2.466,5.081-3.406,7.71-4.72,5,4.128.818-3.873,6.415.785L569,393.791l6.287-5.578,4.165,2.895,6.375-.765,6.383,1.151,4.148-3.206,2.113-3.31,2.568.644.187.082,7.347,3.062,2.614-.563,4.3-3.271,8.561-.811,3.016-2.114,7.756-10.21,9.392-7.187,2.454,1.034,2.058,3.386,3.494,1.923,10.216-1.285,3.54-13.694,10.861,5.784,2.829,6.166,2.231,1.521,6.128-2.761,3.814,1.489,10.812-.851,6.677,1.643,2.159,3.31-.965,5.375,4.806,2.153,1.54,3.654,2.575-.281,1.642-2.091,3.749-1.393,1.7-6.288,7.577,2.365-1.08-6.376,2.663-4.432.222-6.422,2.14-1.6,1.5-3.674L743.3,351.9l4.855-4.619,3.8.749,2.339-1.086,2.385-2.427,4.43-3.206L761,339.932l2.473-3.137-.154-17.845,4.874-2.388,4.1-.134,3.788-1.656.249-1.253-1.6-2.25-5.522-4.089-.887-1.06-2.548-6.4-6.886-4.472-1.106-3.847-1.24-.608-2.7-4.564-1.7-10.848,4.1-3.539,2.568-4.881,7.969-2.113,2.889-4.512,3.438-2.25,2.237-10.714,4.282-6.824,3.661-1.315-3.726-5.826-1.515-6.638-2.339,1.04-6.863-2.99-2.126,1.328-1.7,3.612-5.342,6.186-6.543,1.335-1.776,5.093-2.012,1.839-6.7.824-3.34,2.366-2.519-.877-1.629,3.733-3.853.614-3.069,2.749-.019,4.023-3.707,1.763-4.806,6.638-9.31,5.692-6.8-.716.67,3.834-4.036,12.228-4.136,2.254-3.323,3.494-2.607,15.055-8.12-.4-3.955.926-.906-.174-2.575-.8-5.247.8-6.222-2.293-3.707,1.482-2.594-.742-3.755.215-4.806-1.8-3.768.645-2.529-4.665-3.853-1.067-1.845-1.969L630,299.217l-1.829-1.864L627.9,294.8l-2.657-5.329-3.451-1.757-4.433-4.567-2.352-4.563-1.285-.223-2.709,2.81-3.566,1.57-.67.544,3.88,3.873-1.7,7.864-.723,3.54-2.267.749-.658,2.12-3.86-1.162-4.23-3.251-1.266-2.4L590,297.833l-2.754,2.735-7.969.749-.21.344,2.091,5.892,1.7,1.783,4.479,12.045-4.953,9.526-4.849,2.352-4.5-8.447-3.111-4.511-4.164-3.546-3.049-6.019-3.219,2-1.7-2.99-.174-7.73-6.631-2.408-2.231-.448-2.345-2.454-1.567.02-2.045,1.334-3.055-2.044-2.415-.02-1.616,3.164,1.407,1.979-2.133,7.475-.844.971-4.158-2.695-6.608,4.913-2.152,1.649-1.515,5.241-7.554,2.908-4.043,1.75-1.694,1.482-5,3.252-3.385,8.7-1.087,4.966-3.176,4-2.434,4.357-1.207.4-2.568.1.019,3.961-1.858,3.38,3.036,2.473,3.612-1.266,1.158.677-.442,4.256.255,1.213.357,2.473L490.29,369.6l.752,2.555-.618,5.123,2.588.595.409,1.273-1.145,2.385.334,3.546-2.663-.429-8.931-8.4-1.407-2.319.115-5.381-7.354-3.762L468.778,366l-.066,2.575-3.585,5.61,1.034,5.143,1.24,1.514,7.815,5.4.7,3.988,2.113,1.718.906,2.522,2.091,4.76,8.875,2.78-.615,5.107-2.669.288-11.47-1.675-7.871-2.038-5.522-4.008-5.276-.428-4.351,2.44-6.039-1.649-4.318,3.131-6.7,1.26-4.721,2.541-1.547,2.2-4.551-2-.785.925-6.013-.2-2.139,7.386.543,1.194,10.256,1.535-1.145,6.745-9.3-.978Z" transform="translate(-20.14 -38.731)" fill="#ffeb00" stroke="#000"/><text transform="translate(576.324 444.443)" font-size="48" font-family="DejaVuSansCondensed-Bold, DejaVu Sans" font-weight="700">1</text><text transform="translate(576.324 323.172)" font-size="48" font-family="DejaVuSansCondensed-Bold, DejaVu Sans" font-weight="700">2</text><path d="M410.807,273.838l-3.521.615-4.933-4.095,2.568-9.124.187-.658,1.871-1.354,1.266-4.74,2.192-1.04.327-3.252,2.653-5.565,2.522-.274.939-3.694-1.838-1.91-.825-3.91.511-6.568,2.735-1.617,2.152,1.63,6.729.415,11.679,3.867,6.575-4.292,1.293-3.694,4.825,2.447,5.417.376,2.9-8.414L462.438,217l4.639-4.43-1.253-3.808-3.559-1.576-3.112-.691,2.735-2.836,2.1-6.5,2.921-4.613-.632-6.758,3.88,1.3,1.937,1.9,10.423,1.662,2.133-3.245,2.522-.946,4.832,2.032,5.041-4.165,3.733,1.495.134,9.84,3.886,7.5,7.295,5.054-4.249,6.69,3.611,8.479,3.2-.068,3.33,1.963,3.111-1.944,2.529.334,3.746,6.791-.638,5.143,3.225,2.319,7.7-1.02,2.153-1.567-.229,4.122,1.554,2.217,2.561.985,3.988-.883,3.942.971,1.553.563,4.587-.716,3.337,2.191,1.442,3.749-1.033.844,6.153,2.709,17.384-3.17,3.621-1.9.5,2.587-4.7,10.645.167,2.64L584,266.814l3.078,2.48-.2,1.322-5.611,8.816-4.678-.082-1.266,4.567-5.008.235-2.231-1.187-1.823,1.541-3.048,7.086-2.166,1.066-1.943.906-1.328-.013L551,299.685l-2.231-.448-2.352-2.454-1.561.02-2.051,1.334-3.049-2.044-2.42-.02-1.616,3.157,1.413,1.986L535,308.691l-.837.971L530,306.967l-6.612,4.913-2.146,1.649-1.521,5.234-7.553,2.915-4.043,1.75-1.688,1.482-5,3.245-3.386,8.7-1.086,4.966-3.183,4-2.434,4.357-1.207.4-2.561.094.013,3.962-1.852,3.373,3.036,2.48,3.612-1.267,1.158.671-.448,4.256.261,1.22.35,2.473-3.4,1.829.749,2.555-.615,5.123,2.581.595.415,1.273-1.152,2.385.334,3.539-2.662-.422-8.928-8.4L479.625,374l.115-5.381-7.361-3.769-3.585,1.214-.069,2.581-3.585,5.6,1.04,5.149,1.24,1.514,7.816,5.4.7,3.981,2.113,1.724.9,2.522,2.1,4.754,8.876,2.787-.615,5.106-2.67.282L475.164,405.8l-7.871-2.038-5.525-4.007-5.27-.428-4.358,2.434-6.039-1.649-4.318,3.13-6.69,1.26-4.72,2.548-1.554,2.2-4.544-2,2.555-.877.193-1.354-2.555-6.294,1.22-6.71L423.33,386.2l.448-3.955,3.451-3.961-3.068-3.815-8.018,3.419-.328-2.647-3.614-3.808.108-2.62,2-1.266-1.783-2.794-2.359-.677-2.574-2.627-2.152,1.273,1.36-3.756,4.721-4.691.288-1.309-2.071-1.56-2.237,1.1-7.669.082-.35.059-4.338-.563-2.519-.422-3.647,1.547-2.549-.709-.85-3.756-4.43-2.78-4.926,1.93-2.876,2.774-4-5.4-2.7-.121-1.688-6.18-5.247-.2-2.5-.537-1-2.414,3.137-2.306-.255-4.05-2.467-7.783-4.02-5.106,5.617-3.419,9.493,4.914,2.44-.749,1.266-2.379,2.1.3,1.174-3.2-.651-.926-7.5-2.95-1.3-2.212-1.011-6.441,1.839-1.924-1.8-4.913-.4-.933-.295-3.749,3.612-.723,1.138,2.245,2.281,1.181,7.756-.108,10.759,4.524,2.977,2.179,1.181-.37,1.227-.517,9.605,4.318,3.922-3.559,2.385-9.022,1.91-1.688,5.022,1.079,3.686-1-5.054-7.086Z" transform="translate(-20.14 -38.731)" fill="#ffeb00" stroke="#000"/><path d="M759.994,151.114l-5.162-1-3.092-2.656-3.886-1.3L738.831,140l-2.217-4.881-4.037-.288-2.928-4.632-6.468-1.61-.2-6.8,2.1-4.818-2.46-1.086,3.814-7.214.422-4.03L721.905,96.9,719.52,95.7l-.14-1.394,3.605-1.95-.468-2.741-1.482-3.9-1.059-.893-3.867-1.567-13.864-.02-.965-1-1.744-3.788.618-4.07-1.816-3.7.2-5.551-.53-1.293-3.66-1.943-.864-4.037-4.8-6.765.831-2.653-4.573-4.58-6.563.691L674.657,43l-3.513,3.654L669.59,50.3l-6.435,2.211-2.607-.615-4.282-3.34-7.979,7.309,1.956,7.978-.467,5.424-9.444,1.584-5.074-4.178-4.037.7-3.949-1.194-2.574.886-8.9-3.219,2.7-4.773-2.647-7.756-8.581-8.254-.376,1.309-4.41,3.029L595.9,48.7l-4.573-2.486-4.538-4.7-8.708,7.9,3.9,14.518-6.461,1.8-2.928,9.084-.242,5.49-1.6,2.126.066,4.129,3.123,2.656,11.624,3.726,11.871-2.951,5.382-.059,1.246,2.454-1.8,3.7-.065,2.767,3.4,5.827-1.208,5.214,1.724,2.1,7.816,2.427L612.81,121.2l1.053,6.677-.913,4.007,1.08,3.841-1.829,2.077-.422,2.7,1.361,7.969-5.3,2.536-4.7-2.657-4.191-6.925-2.722-.475-7.642,1.924-5.067,6.484-5.5.216-9.1-2.742-2.146,1.731-5.283.857-3.271-2.313-7.635-1.662-4.812,6.664-4.4,2.862-11.349,8.794-7.308-8.741-3.9,1.106-3.553,5.852-6.743.69-8.247,5.516,3.2,3.176,4.671,2.133.691,3.841L501.3,181.21l-.569,4.58.134,9.841,3.886,7.494,7.3,5.054-4.249,6.684,3.612,8.479,3.2-.065,3.33,1.962,3.112-1.943,2.522.334,3.749,6.785-.645,5.149,3.232,2.319,7.7-1.021,2.153-1.567-.223,4.122,1.554,2.212,2.561.991,3.988-.887,3.942.972,1.554.569,4.586-.723,3.33,2.2,1.449,3.748-1.04.844,6.153,2.709,17.391-3.17,3.622-1.9.5,2.587-4.7,10.646.167,2.633-.658,3.935,3.085,2.473-.2,1.329L581.21,279.4l-4.671-.082-1.266,4.564-5.008.235-2.231-1.181-1.823,1.541-3.049,7.086L561,292.632l-1.943.9-1.329-.007-6.778,6.134,6.631,2.4.18,7.737,1.7,2.99,3.219-2,3.049,6.019,4.165,3.546,3.1,4.5,4.5,8.447,4.855-2.346,4.953-9.533-4.479-12.045-1.7-1.776-2.084-5.9.209-.341,7.963-.749,2.754-2.741,5.961-3.206,1.259,2.388,4.23,3.252,3.861,1.161.657-2.12,2.274-.749.716-3.539,1.7-7.858-3.886-3.88.677-.543,3.566-1.567,2.7-2.81,1.293.216,2.352,4.566,4.432,4.567,3.452,1.75,2.656,5.336.262,2.555,1.835,1.858,6.274-1.158,1.852,1.969,3.847,1.067,2.529,4.665,3.768-.651,4.806,1.8,3.762-.222,2.594.742,3.707-1.475,6.222,2.287,5.247-.792,2.575.792.9.173,3.955-.919,8.12.4,2.607-15.061,3.33-3.494,4.135-2.25,4.037-12.229-.67-3.84,6.8.716,9.317-5.692,4.8-6.631,3.713-1.763.019-4.03,3.062-2.742,3.861-.618,1.622-3.733,2.519.884,3.34-2.366,6.7-.831,2.012-1.835,1.776-5.093,6.543-1.341,5.342-6.18,1.705-3.615,2.126-1.328,6.863,3,2.333-1.047,2.568-2.944.2-3.9,1.367-2.254,2.594-.193,3.815-3.8,2.548-.752,2.542,1.034,6.736-1.381,8.652,4.165,1.374.14,2.676-.467.436-1.315-.448-2.735-2.676-7.858-6.167-2.944-3.291-4.43-2.326-7.89.282-6.837-3.337-6.059-3.347-2.358,5.532-9.52.442-2.722-.389-1.328-2.467-1.181-2.018-5.087-9.189-2.8-9.6-5.385-1.381-.013-5.283,6.215Z" transform="translate(-20.14 -38.731)" fill="#ffeb00" stroke="#000"/><text transform="translate(624.86 173.659)" font-size="48" font-family="DejaVuSansCondensed-Bold, DejaVu Sans" font-weight="700">2</text><text transform="translate(403.193 249.659)" font-size="48" font-family="DejaVuSansCondensed-Bold, DejaVu Sans" font-weight="700">1</text><path d="M871.908,599.145l-6.7.217-3.846,1.232-.236-8.661,2.216,1.407.58,2.359,3.821-2.36,1.352-1.194,2.417.474-.745-1.674.322-.869,1.406-.739.237-1.477-1.717-1.811.806-2.189,3.338-1.667-.736,2.56,2.3,3.111,4.93.146.714.2-2.309,1.022-3.634,5.025-.214,2.533,2.081,3.159-.746,3.108-3.363-.425Z" transform="translate(-20.14 -38.731)" fill="#06c" stroke="#000"/><path d="M752.869,572.166l2.836,5.637,1.106,6.058-1.636,3.507,5.208,4.318,4.014.383,2.863,5.679,6.7,1.092,7.386,3.432,2.542,2.755-2.4,3.15.906,3.886.883,1.7-1.442,1.688-3.072-.082-2.863-1.24-3.5.759,1.139,1.469-1.06.562-1.57-.844-1.943,1.469-1.3,2.064-4.832-1.937.422,7.273,2.058,1.527-2.231,4.754-2.99,1.737-5.263.51-2.212-1.227-1.021.753-4.023-2.843-.831-2.091-3.079-1.521-3.068-2.5-3.815.523-2.81-5.771-4.089-6.241-2.512-.344-1.361-2.071.651-6.588,1.017-2.523,2.11-1.642-2.365-10.069-2.486-3.016-.864-3.847-11.6-.959-.229-2.574-1.924-1.809-4.874-2-1.3-.255-6.965,3.419-1.053-5.385-3.278-2.113.887-3.474-2.012-1.436-.39-3.079-.1-.474,1.695-1.93,12.83-3.3,6-2.657.248-2.62-2.9-2.823-9.01-2.251,3.386-8.339,6.327-1.432-1.161-.678-.753-6.624-4.933-1.662-2.084-3.3,12.742,3.15,8.774,2.977,9.336-4.511,5.5-10.337,8.594-3.131L746.844,514l3.88.5,7.046,5.738,2.287,3.245,2.535.334,7.259-1.387,5.251-1.067,1.3-.356-.2-2.6-3.265-2.352-4.672-6.556-1.144-.722-2.569.844-2.2-1.341-2.7-2.951-2.568-6-6.631-.644-.235-3.923-.717-4.786-3-2.192,1.119-2.479L735.61,478.2l-1.829-5.093-4.966-2.019-7.079-6.32.563-7.985,2.447-6.236-1.852-2.715-2.5-4.58-4.5-4.848-1.554-2.836-3.091-2.359-.844-7.91-4.927-9.11,3.9-3.579.39-2.575-1.162-2.319,5.258-7.168-.92-3.719,3-3.949-.8-2.25.785-6.281.971-.851,2.575-.275,1.642-2.09,3.746-1.394,1.71-6.287,7.577,2.365,2.787,5.784-.631,3.821,2.581,2.823-.53,2.6,1.139,3.808,1.308,2.28,2.408.978,1.4,3.648,3.54,4.007,8.446,4.063,1.816,5.047.1.007,3.91-5.149,3.487-1.836,2.614.321,4.076.5,6.081-3.1,3.2,7.563.121,5.49,3.539,1.6,1.279-.422,3.521,4.02.886,6.611,2.192,1.567,1.286,3.808,5.234,4.171-1.623,5.055.1,6.69,1.724,3.641L805.7,457.9l1.757,1.943-.583,3.686,1.93,3.239-1.71,5.98,4.848,7.475,2.682,3.452,3.707.886,1.838-4.894,8.7-3.647.1.088,1.347,3.585-.045,7.724,1.616,4.684,1.119.187,1.547,3,6.274-1.872,2.683-6.229,3.526-1.917,2.715-4.625,5.277-.864,1.273,2.378,2.44,16.007-4.184,3.232-2.493,6.033-7.481,2.944.307,3.189-1.053,1.885,2.682,2.414L844.71,522.2l.557,6.1,2.044,3.379-.321,3.887-.088,3.9-.281,2-1.315,4.178-1.541,3.471-.088,3.726,2.548,4.223,2.166,1.521,1.3,1.623,2.669,4.148-.965,4.759-2.293,2.97-1.152,1.63-4.03,5.335-.671,2.1.461,8.683-3.821.952-1.851,8.927-2.339-.474-1.413-1.957-2.385-.294.356,3.245-2.338-1.119-1.316-3.647-2.682-2.8-2.555-.216-4.325,2.836-2.28.824-2.192-1.119-.461-7.674-3.474-5.391-2.434-.825-1.309-2.057,1-1.751-4.606-4.678-5.778-3.232-6.2,1.59-2.231-1.354-1.194.3,1.9,5.617-1.213.53-2.205,4.566-5.215-.722-.863-1.018Z" transform="translate(-20.14 -38.731)" fill="#ffeb00" stroke="#000"/><path d="M854.111,580.043l.38,5.117,1.57-.187.565,1.2,1.568,3.64,2.931,2.122,2.215,1.407.581,2.359,3.821-2.36,1.352-1.194,2.416.474-.744-1.674.322-.869,1.406-.739.237-1.477-1.716-1.811.8-2.189,3.338-1.667-.736,2.56,2.3,3.111,4.93.146,6.967-5.486,6.466-.767,1.8-1.758,2.8-2.06,1.238-3.028-1.388-1.613-5.285.6-2,1.8-2.149,1.419-7.755,1.21-1.281-.247-.2-3.8-2.184.092-.838,2.116-2.486-.8-.552-1.223.089,1.408-4.55.123-2.977-4.008-1.225.308-.733-1.031-1.929,1.777.266,2.62L861.6,577.2l-1.715.109Z" transform="translate(-20.14 -38.731)" fill="#ffeb00" stroke="#000"/><path d="M907.368,583.711l-.153,1.106-.92.716,1.7,1.583-2.957,2.977-4.037-.65-2-1.113-3.513,1.509-3.579-1.018-2.633,2.788-1.554.2-3.707,4.646,1.4,4.05,4.008,1.923-3.654.524-.18,3.232-2.683.415-1.308-5.5,1.354-2.528-1.361-2.166-1.394-1.717-.857.863-1.227,2.065.167,2.345L876.2,596.8l.209-2.536,3.634-5.034,2.313-1.021-.716-.2,6.978-5.5,6.477-.765,1.809-1.763,2.8-2.064,1.24-3.03-1.394-1.616-5.29.6-2,1.8-2.153,1.419-7.763,1.214-1.285-.249-.2-3.808-2.185.089-.844,2.119-2.493-.8-.549-1.227.4-5.2-1.541-2.1-5.482-14.76L866.765,550l2.319-1-.991-8.76.14-9.239,3-2.466,1.021-2.4,4.887-1.092,1.449-3.367,1.26-.34-1.77-1.8.779-6.121-1.132-.563-3.834-6.49-.006-2.4,6.2.249,2.823-2.7,2.614-.242,9.706,3.412-.167-2.467,1.944-3.2,1.059-4.953,3.118-2.408.34-2.62,2.454-3.124,2.931-2.519,3.782-.926,2.244-1.5-2.823-5.577-3.069-2.172,2.876-4.446-.766-3.88.887-2.519,1.1-.811.877-13.462-.887-10.429-.134-2.709,1.757-3.667,8.152.753,10.818-5.745,5.162,1.42,4.345-3,5.436-.288,3.426-2.237,13.615,1.174,2.071-1.694,1.207-3.887,1.5-3.641,2.166-1.5,10.824.569.831,2.313-3.183,5.865L980.939,425l-.377,1.315-2.5,4.485,1.91,4.907,4.158,3.553,2.548,4.874,4.024,3.661.831,2.568-.883,6.791-3.144,7.528-10.671,5.577-.115,5.424,1.669,6.562-4.479,8.346-11.342,7.547-5.437.327-5.771,3.265L951.068,508l-3.318,5.6.736,6.517-13.066,6.045-1.468,1.986-2.824,2.46L930.5,538.9l3.056,4.237,3.085,14.4,3.084,7.125-4.861,1.436-1.292,2.339-5.4,3.54-1.279,2.339.716,2.548-.965.913-6.837-3.579-5.27,3.929-.524-1Z" transform="translate(-20.14 -38.731)" fill="#ffeb00" stroke="#000"/><path d="M863.457,573l.268,2.627-2.166,1.548-1.717.107-5.777,2.742.376,5.123,1.57-.193,2.133,4.842,2.931,2.126.236,8.669-3.982,3.566-2.077,7.782-3.749,5.405-3.572.461.677-2.231-.8-1.2.127-2.594-3.3-11.417-.965-10.536-.461-8.683.677-2.1,4.031-5.336,1.151-1.629,2.287-2.964.965-4.759-2.67-4.155-1.3-1.623-2.16-1.514-2.548-4.23.088-3.719,1.541-3.475,1.315-4.171.274-2,.089-3.9.32-3.886-2.038-3.38-.556-6.1,1.809-4.338-2.676-2.414,1.053-1.884-.313-3.19,7.487-2.944,2.493-6.033,4.178-3.232-2.434-16.006L855,479.777l-5.277.864L847,485.266l-3.526,1.918-2.676,6.222-6.281,1.877-1.548-3-1.112-.187-1.616-4.684.039-7.731-1.348-3.585-.095-.082-8.708,3.648-1.839,4.894-3.7-.887-2.683-3.451-4.848-7.475,1.711-5.981-1.93-3.238.582-3.687-1.757-1.943-5.564-2.676-1.724-3.641-.1-6.69,1.616-5.054-5.234-4.172-1.279-3.807-2.2-1.567-.886-6.612-3.514-4.02-1.279.415-3.539-1.6-.128-5.483-3.2-7.563-6.082,3.091-4.076-.5-2.613-.321-3.488,1.836-3.915,5.149-.1-.007-1.816-5.047-8.44-4.063-3.539-4.014-1.4-3.641-2.408-.978-1.309-2.28-1.138-3.808.53-2.6-2.588-2.823.638-3.821-2.788-5.784-1.086-6.376L735.7,365l.216-6.415,2.146-1.6,1.5-3.674,3.749-1.373,4.855-4.62,3.8.75,2.339-1.086,2.385-2.421,4.423-3.206,5.283,1.354,3.445,2.2,2.875,7.57,7.8,7.635,1.021,6.588,3.559,3.815,5.048,1.809,1.125,2.479,1.073,10.842,2.019,3.585,3.4,2.186,1.286-.485,4.177,3.331,10.439-2.663,5.355,4.069,6.327,2.555,6.523,5,5.107-1.534,4.74,2.561,2.695-.448,1.836,5.11,2.512.913,5.175,6.045,4.874-1.6,3.092,5.905,3.578,3.886,5.994,2.293,2.4-1.1,13.34-.069,5.015,10.874,2.7-.006,4.779-2.555,2.522-.066,8.895,4.243.887,10.423-.877,13.468-1.1.811-.887,2.519.766,3.88-2.876,4.44,3.072,2.172,2.816,5.584-2.244,1.5-3.775.933-2.938,2.519-2.447,3.124-.343,2.62-3.118,2.4-1.053,4.96-1.95,3.2.174,2.467-9.707-3.412-2.62.242-2.817,2.689-6.2-.249.006,2.408,3.828,6.49,1.138.563-.778,6.114,1.77,1.809-1.26.334-1.449,3.373-4.894,1.092-1.021,2.4-3,2.466-.134,9.238.991,8.761-2.32,1,1.4,2.372,5.49,14.767,1.534,2.1-.4,5.2.089,1.414-4.557.121-2.977-4.015-1.227.308-.743-1.027Z" transform="translate(-20.14 -38.731)" fill="#06c" stroke="#000"/><path d="M831.885,596.992l2.388.3,1.407,1.956,2.339.474,1.851-8.927,3.821-.952.959,10.537,3.3,11.417-.121,2.594-.883-.893-4.966.435-5,.468-4.109,4.989-4.289,9.238-3.359-1.829-2-4.72-3.3-4.158-6.314,1.577-6.644.121-.2-1.214.812-1.053,5.034-.883,3.782-9.54,2.466-.441-1.783-1.885-3.614-1.017-.825-2.294L814.544,595l2.192,1.112,2.286-.818,4.325-2.836,2.555.216,2.682,2.8,1.315,3.641,2.339,1.125Z" transform="translate(-20.14 -38.731)" fill="#06c" stroke="#000"/><path d="M827.426,637.106l1.162-8.493-3.36-1.822-2-4.727-3.3-4.158-6.314,1.577-6.644.121-.2-1.213.812-1.054,5.034-.883,3.782-9.539,2.467-.436-1.784-1.89-3.614-1.018-.825-2.293,1.911-6.288-.455-7.674-3.481-5.4-2.427-.818-1.308-2.064,1-1.744-4.606-4.678-5.777-3.232-6.2,1.59-2.225-1.354-1.194.3,1.9,5.61-1.221.536-2.2,4.567-5.215-.723-.863-1.017-27.4-6.743,2.843,5.643,1.1,6.052-1.635,3.507,5.208,4.318,4.014.383,2.862,5.686,6.71,1.086,7.38,3.431,2.542,2.755-2.4,3.157.906,3.886,2.388,4.72,4.452,2.856.563,3.867,3.438,5.215,5,2.064,5.322.7,3.982,3.546,3.673-2.11-.408,6.248,2.211,2.529-2.1,3.183-1.413,2.434-3.776,3.935.461,2.192L808.5,654.5l2.695-4.236,5.277-3.245,4.593-.569,4.05,2.555,1.119,7.975,5.784-2.928-.684-6.984-3.579-.838.543-4.171-1.694-1.54,2.332-1.5Z" transform="translate(-20.14 -38.731)" fill="#06c" stroke="#000"/><path d="M811.256,632.876l-3.68,2.146-4.7,7.668-1.227,2.251.51,2.453-4.907,1.534-3.988-.919-3.987.409-5.009,1.737-1.328-.51-.1-1.329,1.226-.5-1.838-2.254-5.215,1.02-.818.1-3.781-.2-3.681,3.373-2.25-.615-1.328-.1-4.09,4.806-2.25,7.462,4.292,2.656.2,1.328-3.068,7.456,5.417,2.862,2.352.92.92,3.68,5.008,1.125.1-1.226,3.578-1.322,2.251-4.812-.919-2.251-3.474-1.737-.2-2.555,3.68-6.742,3.988-3.579,5.11-1.737,12.467-.308,2.555,4.7,5.417-5.316-2.352-1.125-.409-2.146,3.782-3.988,1.433-2.453,2.045-3.17-2.147-2.454Zm-5.421,32-3.886.409-.511.51.717,1.125,1.838.717,6.033.2,1.02.716.717-1.021-.308-.615Z" transform="translate(-20.14 -38.731)" fill="#06c" stroke="#000"/><path d="M763.072,631.214l2.238-4.753-2.064-1.528-.416-7.272,4.832,1.937,1.292-2.065,1.95-1.468,1.567.844,1.06-.563-1.132-1.469,3.494-.759,2.862,1.24,3.072.082,1.443-1.688,1.514,3.036,4.446,2.856.569,3.873,3.439,5.208,5,2.071,5.322.691,3.975,3.546-4.679,7.661-1.226,2.231.562,2.48-4.972,1.5-3.922-.877-4,.4-5.048,1.694-1.279-.441-.127-1.342,1.22-.562-1.891-2.225-5.182.991-.778.108-3.782-.134-3.707,3.346-2.273-.644.34-2.608-2.1-4.684,3.245-5.827Z" transform="translate(-20.14 -38.731)" fill="#06c" stroke="#000"/><text transform="translate(918.193 425.492)" font-size="48" font-family="DejaVuSansCondensed-Bold, DejaVu Sans" font-weight="700">4</text><text transform="translate(782.026 401.659)" font-size="48" font-family="DejaVuSansCondensed-Bold, DejaVu Sans" font-weight="700">5</text><text transform="translate(724.304 419.159)" font-size="48" font-family="DejaVuSansCondensed-Bold, DejaVu Sans" font-weight="700">2</text><text transform="translate(749.69 557.812)" font-size="21.076" font-family="DejaVuSansCondensed-Bold, DejaVu Sans" font-weight="700">7</text><text transform="translate(769.61 607.017)" font-size="20.63" font-family="DejaVuSansCondensed-Bold, DejaVu Sans" font-weight="700">9</text><text transform="translate(742.69 634.915)" font-size="22.26" font-family="DejaVuSansCondensed-Bold, DejaVu Sans" font-weight="700">8</text><text transform="translate(814.253 573.188)" font-size="16.269" font-family="DejaVuSansCondensed-Bold, DejaVu Sans" font-weight="700">6</text><text transform="translate(852.438 555.021)" font-size="7.11" font-family="DejaVuSansCondensed-Bold, DejaVu Sans" font-weight="700">1</text><text transform="translate(839.609 552.283)" font-size="16.861" font-family="DejaVuSansCondensed-Bold, DejaVu Sans" font-weight="700">3</text><path d="M362.125,766.426l5.032,1.407,3.771-.906.315-2.438,1.8-1.753,5.882,1.42.385-1.613-2.295-2.731-.109-2.462,2.285-2.738,1.219.219,3.279-4.045-2.065-8.387-2.5-.316-4.4,2.372-6.274.236-2.338-3.143-1.928,1.707-4.29-.98-4.385,3.371-4.9-1.052-.43,7.323-.836,1.966.506,1.943,5.05-.5,2.186,2.882,2.257-1.221,1.027,2.221,2.577.518L362.621,761l.134,2.139.988,1.523Z" transform="translate(-20.14 -38.731)" fill="#06c" stroke="#000"/><path d="M333.286,757.032l2.6-4.417,3.8.1.315,1,.462,4.468,4.122-1.5,3.067,3.235-1.153,3.7.032,6.487-1.735,5-2.481,3,.28,6.484-5.213.675-6.115-2.506,2.655-6.089,6.407-6.737.105-3.967-1.582-3.65Z" transform="translate(-20.14 -38.731)" fill="#ffeb00" stroke="#000"/><path d="M343.059,741.894l-.19,1.477,2.938.68.127-.02,4.665.563,4.9,1.052,4.384-3.371,4.289.98,1.93-1.707-3.229-4.831-.761-3.7,3.172-5.92-4.47-9.852L358.69,716l-4.212,2.593-2.6,1.8-6.5,2.5,1.2.553-.42,1.26-3.893,3.456-.689,4.078,2.51,1.731.2,1.043,1.687.829,1.414.936,1.418,1.11.186.72-2.681,1.5-.878,1.816-1.518-.613Z" transform="translate(-20.14 -38.731)" fill="#ffeb00" stroke="#000"/><path d="M344.673,750.164l1.1-1.487-.7-1.963.741-2.664-5.968-1.393-.676,1.275-3.967-6.87-2.559-.551,4.052,6.605.816,3.927-.64,3.961.155,1.112,3.382.068,1.051-.359.121,1.3,1.048-.381,2.611.97Z" transform="translate(-20.14 -38.731)" fill="#cc2443" stroke="#000"/><path d="M344.673,750.164l1.1-1.487-.7-1.963.741-2.664.127-.02,4.665.563-.431,7.323-.834,1.967.112.45-3.982,1.733-.884.612-4.122,1.5L340,753.711l-.315-1,.72-.532,1.05-.359.123,1.3,1.046-.381,1.448.533,1.165.437Z" transform="translate(-20.14 -38.731)" fill="#ffeb00" stroke="#000"/><path d="M363.875,784.353l-2.433.64-.316,1.287-5.049-1.15-1.957,1.1-7.342-2.7-4.19,1.054-.28-6.484,2.481-3,1.735-5-.032-6.488,1.153-3.694-3.067-3.236.886-.611,3.981-1.734.392,1.493,5.051-.5,2.186,2.881,2.257-1.22,1.026,2.221,2.576.518L362.617,761l.134,2.139.987,1.523-1.614,1.762,5.03,1.407,3.771-.906.315-2.438,1.8-1.753,5.883,1.42,1.82,7.252,1.23,2.152-.519,1.192-2.576.341-1.53,1.893,2.669,5.862-1.885,6.162-.323-1.283-3.928.107Z" transform="translate(-20.14 -38.731)" fill="#06c" stroke="#000"/><path d="M329.454,734.471l.49-2.133-6.153-4.675-2.631-.34-6,2.581-.94-4.722,1.232-3.382-1.247-2.085,5.9-2.507,5.265,5.717,3.616.22,1.414-1.932,4.538-.067-.953-2.2,5.831-2.319,1.557,1.833.239,5.025,3.775-.576,1.2.553-.42,1.26-3.893,3.456-.69,4.078,2.511,1.731.2,1.043,1.688.829,1.413.936,1.418,1.11.187.72-2.682,1.5-.878,1.816-1.517-.613-.855.572-.189,1.477-3.03-.714-.675,1.275-3.967-6.87-2.559-.551-2.154-1.22Z" transform="translate(-20.14 -38.731)" fill="#ffeb00" stroke="#000"/><path d="M282.056,685.129l-2.267,4.632-2.473.154-6.37-10.1-3.055-8.855,1.214-2.212-.37-2.67-3.347-2.1-12.153-.618-3.775,1.433-3.337-4.2-.844-3.935-2.889-4.364,2.519-.429,2.683-4.39,3.611,3.3,2.487.637-1.456-5.047-2.728-2.863-1.08-5.074-1.347.075-6.268-5.074L238.148,633l-5.035-4.485-9.136-8.159,3.628-7.314,8.682,3.867,16.255-9.942,3.968-3.726,9.252.046,1.979-1.655.736,1.125,2.849-2.11,3.386-1.188,3.317,1.348,1.279,4.913,5.961,2.69,1.724,3.493-.344,1.407.436,6.216,1.187.6,7.649-1.711,5.4,5.764,2.1,7.694,2.581.6,2.3-1.3-1.341,7.322-.73,2.172,1.188,1.917,2.594,2.669,3.706-.16,7.246,3.425,6.343,4.679,3.942.677.919,5.142,1.011.884-3.955,6.529-7.648,1.623-3.507-1.737-.658,2.594-6.186,6.65.582,3.749-3.726.959-2.287,3.071-7.4-1.521-1.387-3.156-4.351-1.463Z" transform="translate(-20.14 -38.731)" fill="#ffeb00" stroke="#000"/><path d="M378.937,764.325l.389-1.622-2.313-2.748-.108-2.486,2.3-2.755,1.227.222,3.3-4.076-2.078-8.439,7.138-5.758,4.983.242,12.025,4.338,3.733.334,3.3-1.777,3.31,1.705,3.969,2.339,2.25-.9,3.488.141,2.587,2.319,9.889-1.682,2.889,5.912,4.007,5.221,3.17,2.244-.516,5.738-6.307,2-10.292,5.705.913,2.1-6.147,2.372-1.119,7.144-.677,9.955-1.139,4.338-7.18-3.346-6.517.945-2.708,2.856-.645,3.867-1.6,2.119-9.552-4.652-4.135-5.263-1.7-2.064-.575-5.258L386.2,784.3l-6.094,1.731-1.957,3.317,1.9-6.2-2.682-5.9,1.541-1.9L381.5,775l.523-1.2-1.24-2.166Z" transform="translate(-20.14 -38.731)" fill="#06c" stroke="#000"/><path d="M366.735,678.024l-3.265,3.88-4.344,2.829-2.281-.8-7.426,1.175-5.384,3.31,1.161,10.1-4.685,5.934,1.227,2.064,3.739-.71,1.5,6.088,3.144,3.8,4.217,2.774,4.243-2.613,2.132,1.246,4.5,9.915-3.2,5.961.766,3.726,3.252,4.861,2.352,3.164,6.314-.236,4.432-2.385,2.519.321,7.138-5.758,4.982.242,12.026,4.338,3.733.327,3.3-1.77,3.31,1.7,3.968,2.345,2.251-.906,3.834-.932,1.943-3.425-.5-3.9,4.3-4.972-2.626-4.4-1.361-9.291-1.8-3.592-.926-.906-2.522.589-6.523-.18-2.192-1.387-3.036-2.139-4.92-.845-1.635-7.553-4.754-4.249-6.752,3.686-1.246-.35-2.889-2.588-5.241.236-9.271-8.849,10.158-7.54,1.181-8.238-1.463-.415-7.475-1.433-3.746.753-3.284-2.039-2.251.256-1.845,3.245.128,2.42,1.567,1.95Z" transform="translate(-20.14 -38.731)" fill="#ffeb00" stroke="#000"/><path d="M306.234,640.665l1.188,1.917,2.594,2.67,3.707-.161,7.246,3.419,6.343,4.685,3.942.67.919,5.143,1.011.886-3.955,6.53-7.649,1.622-3.507-1.737-.658,2.594-6.186,6.651.583,3.749,4.907,4.8.173,2.575,2.385,2.794.7,4.982,2.728,5.577-3.807.014-1.1,3.726-5.074,1.112-.772,5.129-1.962,1.688,1.723,3.788,2.084,4.1,5.934-2.522,5.3,5.757,3.634.223,1.433-1.95,4.563-.068-.958-2.218,5.865-2.333,1.571,1.839.235,5.06,3.795-.582,6.543-2.522,2.62-1.816-4.216-2.774-3.151-3.8-1.495-6.088-3.732.71-1.227-2.064,4.678-5.934-1.158-10.1,5.385-3.31,7.426-1.175,2.28.8,4.344-2.829,3.258-3.873.484-1.158-1.57-1.957-.127-2.421.743-1.292-2.231-.255-1.159-.8.033-.428-.249-1.436-1.092-.7-.8-1.7-.53-.637-.939-.357-.939-.052-1.24,3.245-3.029,1.138.876-1.328-.068-3.661,2.613-3.183.831,1.073,1.9-1.034-.34-5.672,2.81,1.962v-1.622l4.43-10.445-1.534-.76.088-3.091-1.361-.314-2.951,2.166-4.959.716L353,646.008l-4.927-.4-1.053,3.016-1.93-2.748-5.565-.736-1.354-2.267.563-1.89-5.778-5.679-1.985,1-1.688,1.91-3.533-1.3-3.265,2.006-7.776.7-7.756-1.119Z" transform="translate(-20.14 -38.731)" fill="#f90" stroke="#000"/><path d="M251.335,692.732l.068,2.869,1.93,7.975-.34,6.778,3.54,1.865,6.595-.511,1.845,4.914-.87,2.493.857,7.547-.249,6.32-3.788,5.074,2.339,1.246,10.658.026,3.6,1.034,4.934-.53,2.983-2.1,2.273.34,10.946,1.609,3.628-1.315,5.751-2.542,6.785-5.839-.952-4.753,1.24-3.406-1.253-2.1-2.084-4.1-1.731-3.788,1.97-1.688.772-5.123,5.067-1.119,1.106-3.726,3.807-.013-2.728-5.578-.7-4.976-2.388-2.8-.167-2.575-4.907-4.806-3.726.959-2.287,3.072-7.406-1.522-1.361-3.091-4.377-1.488-10.5,7.929-2.378,4.639-2.627-.019-6.075-9.654-3.258-9.252,1.285-2.083-.461-2.716-3.17-2.057-12.179-.618-3.873,1.374-3.252-3.982-.864-3.889-2.928-4.587-2.172.135.475,10.72-3.566,5.476-1.112,3.889,1.22,7.956-.69,2.774,1.315,2.019h9.526l2.25,1.341,1.509,2.28.052,1.911Z" transform="translate(-20.14 -38.731)" fill="#06c" stroke="#000"/><path d="M251.452,740.166l-5.021-1.577-5.552-4.72,2.441-4.6-2.621-1.027-4.625-8.466-3.452-5.094,3.9-2.319-1.5-1.567-3.1-.236-.32,2.4-2.114-1.42-.945-7.789-1.891-1.789-9.372-2.64-6.235,2.574-.16,3.062-5.369,3.17-.932-1.145,2.339-3.889,2.689-1.858-4.586.529L204,704.8l-3.163-5.309-1.214.294-1.9-4.312.108-4.671-2.767,1.7,7.272,14.908-3.278,2.9-10.2-9.739-1.662,2.46,9.9,8.6-1.443,1.073-3.559-1.97-1.207,2.427,4.612,1.649-.765,5.29-4.913,1.011,9.163,2.541,4.612,4.855,8.676-7.75-.154-3.54,1.348,3.727-15.9,14.907-1.033,4.21-2.722.033-3.3-5.892-.887-9.411-21.666-16.269-5.411-7.789,4.135-11.4,4.063-5.457,2.313-1.4,7.871-.167,4.171,3.069,2.4-1.159,3.756,3.936,4.887-1.871,5.751-10.371,10.638-5.362,3.9-.831,7.635,9.6,2.319-1.508,1.656-8.486L232.89,668l-2.038-5.591,1.845-2.568,2.646,2.657.877-7.7-1.979-.959-2.588-3.86,2.928-5.257,2.876,3.974-.02,5.136L239,652.25l1.3.261.3,10.691-3.514,5.558-1.125,3.9,1.259,7.978-.759,2.6,1.5,2.192,9.405-.167,2.313,1.387,1.4,2.28.3,6.716,1.93,7.924-.34,6.657,3.411,1.829,6.716-.478,1.852,4.913-.876,2.493.863,7.547-.248,6.32-3.788,5.074-1.944,1.865-3.814-1.221Z" transform="translate(-20.14 -38.731)" fill="#d00" stroke="#000"/><path d="M360.761,665.884l-.53-.632-.939-.356-.938-.053-1.24,3.245-3.023,1.139.87-1.328-.065-3.661,2.607-3.183.837,1.073,1.9-1.034-.344-5.673,2.817,1.963-.007-1.622,4.433-10.446-1.534-.759.082-3.091-1.355-.314-2.957,2.166-4.953.716L353,646.026l-4.92-.4-1.06,3.016-1.93-2.748-5.564-.736-1.348-2.267.556-1.891-5.777-5.679,2.535-1.079,2.64-5.826-.274-2.493,12.764.837-4.92-10.376,1.3-3.72-.524-6.441,2.237-.883,2.32-5.578,9.061,4.934L372,609.48l11.793,3.225,5.375-.2,6.618-.857,9.264,1.266,4.7-2.869,4.881-2.25,4.377-5.169,4.433-3.1,2.7.262,8.12.837,7.187-9.968,4.383-3.1,5.228.933,3.232,2.244-.222,3.9,1.5,3.654,6.844,2.945L460,604.5l-1.5,7.937-8.1-.2L436.2,616.314l-2.513,3.144-2.6-.34L425.6,631.277l2.427,9.029-.569,1.214-8.522,3.431,3.451,4.083,6.216.491,4.171,2.728,2.83,1.93,2.28-.026-2.012,6.2-.991,13-3.072,2.251-1.233,5.048,3.2,1.22,4.708,4.567L445.251,699l6.235,4.868,3.854.441.141.066-.609,2.427-2.018,1.469-8.044,3.271-7.616-2.656-5.382.186-5.685,3.373-.926-.906-2.522.582-6.516-.173-2.2-1.387-3.036-2.14-4.92-.844-1.635-7.553-4.754-4.25-6.752,3.68-1.24-.343-2.895-2.588-5.241.236-9.271-8.849,10.158-7.541,1.181-8.237-1.463-.415-7.475-1.433-3.746.753L369.591,669l-2.251.256-1.112,1.956L364,670.959l-1.158-.8.039-.428-1.341-2.14Z" transform="translate(-20.14 -38.731)" fill="#ffeb00" stroke="#000"/><path d="M160.829,533.106l.033-5.162-3.17-2.447-2.25-4.767-1.3.255.222-.8,4.767-2.528,3.6-4.057.985-2.921,9.611,1.7,10.4,2.071,12.186,1.342,7.38,3.565,6.013,5.369,5.3.343,2.366.919,10.887,5.65,6.068,7.334,1.711,2.254,8.364,6.274,2.12,3.252,2.018,5.257,1.535,6.468,11.826,6.778,9.205,5.143,4.171,2.293,13.2,6.658L302,578.749l2.555.127L309.705,580l6.2,1.57,8.038,1.381,2.951,2.816,4.946,4.024,7.462,3.687,4.888,2.689,6.843,3.572-2.319,5.578-2.244.883.523,6.441-1.3,3.72,4.926,10.376-12.771-.837.275,2.493-2.634,5.826-4.531,2.077-1.688,1.918-3.533-1.3-3.265,2-7.775.7-7.757-1.125,1.342-7.315-2.3,1.3-2.581-.6-2.1-7.7L295.9,618.4l-7.648,1.711-1.188-.6-.435-6.215.343-1.407-1.723-3.494-5.961-2.689-1.279-4.914-3.317-1.347-3.386,1.187-2.849,2.11-.73-1.125-1.986,1.655-9.251-.046-3.969,3.727L236.266,616.9l-8.682-3.867,3.782-8.46-.363-13.2-4.564-2.2-.173,22.726-7.407-2.958-1.822-6.314-1.253-.5,1.5,5.215-5.188,1.112-4-.484-6.209-2.64-14.721-.589-6.35.428-2.358-.906-4.083-1.119-4.982-3.317-.255-1.22-1.885-7.816,4.164-4.975,1.845-6.563-.883-5.417.71-8.529-1.476-5.342-.85-.864-3.988-7.314-.864.765-4.177-1.694,2.185-4.652.455-3.834-1.963-6.107Z" transform="translate(-20.14 -38.731)" fill="#06c" stroke="#000"/><path d="M184.318,735.407l-11.636-3.834-12.262-.383-17.629,1.426-19.968-4.1-6.85-4.446-2.657-4.658,1.132-2.421,9.827-7.125-2.78-7.717-3.445-4.21-5.79-3.605-9.118-2.856L84.057,690.9,76.4,693.449l-6.785.543-6.477-2-40.9-2.915.369-7.949,2.153-4.907-.4-1.286,1.75-1.681,13.635-4.947,7.688-5.093-3.258-7.158,2.6-4.236.992,2.139-1.757,1.872.442,1.226,4.19,3.049L55.1,657.6l1.433-1.969,5.149-.792,4.792-4.433,5.214-.107,1.784-3.318-2.12-1.577,5.142-4.115,6.524.51,3.336-2.313,3.707-5.577-.16-2.621-2.084-1.694-5.041,1.9-2.64-.415-2.781-3.01-.448-2.549,6.844-14.8,7.266-3.251-.327-5.362,2.767-4.659,3.854-1.233,6.784-.193,3.648-1.724,6.059,2.938,5.342.932,5.4,3.955,6.663-.147,1.3-.409.033-1.361-3.514-7.328-.562-5.4,4.4-12.683,6.588-10.262.736-9.559L137,546.13l6.595-5.82-1.42-2.011-5.054.166,1.01-2.371-1.432-3.6,4.154-2.626,1.24.121.321,1.207,1.521-2.146,7.151-3.406,4.371-4.94,2.254,4.767,3.163,2.453-.026,5.163,1.6,3.17,1.969,6.107-.455,3.834-2.185,4.652,4.177,1.694.864-.765,3.988,7.314.851.864,1.475,5.342-.71,8.529.883,5.417-1.844,6.563-4.172,4.975,1.891,7.816.255,1.22,4.983,3.317,4.076,1.119,2.365.906,6.35-.428,14.721.589,6.209,2.64,4,.484,5.188-1.112-1.5-5.215,1.246.5,1.828,6.314,7.407,2.958.167-22.726,4.567,2.2.356,13.2-3.775,8.46-3.628,7.315,9.137,8.159,5.034,4.485,2.663.415,6.268,5.074,1.341-.075,1.086,5.074,2.729,2.862,1.455,5.048-2.486-.632-3.612-3.3-2.682,4.391-2.519.428-2.1.236-1.3-.262-1.567,1.577.02-5.129-2.876-3.975-2.928,5.257,2.581,3.854,1.986.958-.883,7.7-2.64-2.662-1.845,2.568,1.112,3.31.919,2.28-4.838,1.335-1.655,8.479-2.32,1.515-7.635-9.6-3.9.831L201.9,675.9l-5.752,10.377-4.887,1.871-3.762-3.935-2.4,1.158-4.171-3.069-7.871.167-2.313,1.4-4.063,5.457-4.141,11.4,5.411,7.789,21.666,16.268.893,9.412,3.3,5.891-2.722-.173Z" transform="translate(-20.14 -38.731)" fill="#ffeb00" stroke="#000"/><text transform="translate(154.193 543.993)" font-size="48" font-family="DejaVuSansCondensed-Bold, DejaVu Sans" font-weight="700">15</text><text transform="translate(91.86 630.258)" font-size="48" font-family="DejaVuSansCondensed-Bold, DejaVu Sans" font-weight="700">16</text><text transform="translate(233.564 605.958)" font-size="48" font-family="DejaVuSansCondensed-Bold, DejaVu Sans" font-weight="700">8</text><text transform="translate(354.655 608.142)" font-size="36.232" font-family="DejaVuSansCondensed-Bold, DejaVu Sans" font-weight="700">14</text><text transform="translate(343.527 695.456)" font-size="34.774" font-family="DejaVuSansCondensed-Bold, DejaVu Sans" font-weight="700">10</text><text transform="translate(361.834 739.312)" font-size="34.774" font-family="DejaVuSansCondensed-Bold, DejaVu Sans" font-weight="700">9</text><text transform="translate(329.196 742.805)" font-size="21.175" font-family="DejaVuSansCondensed-Bold, DejaVu Sans" font-weight="700">6</text><text transform="translate(315.196 743.285)" font-size="8.571" font-family="DejaVuSansCondensed-Bold, DejaVu Sans" font-weight="700">2</text><text transform="translate(341.633 722.93)" font-size="21.175" font-family="DejaVuSansCondensed-Bold, DejaVu Sans" font-weight="700">1</text><text transform="translate(319.313 709.854)" font-size="6.125" font-family="DejaVuSansCondensed-Bold, DejaVu Sans" font-weight="700">4</text><text transform="translate(326.262 710.96)" font-size="5.876" font-family="DejaVuSansCondensed-Bold, DejaVu Sans" font-weight="700">5</text><text transform="translate(333.699 689.863)" font-size="11.707" font-family="DejaVuSansCondensed-Bold, DejaVu Sans" font-weight="700">3</text><text transform="translate(315.196 687.117)" font-size="8.809" font-family="DejaVuSansCondensed-Bold, DejaVu Sans" font-weight="700">7</text><text transform="translate(307.37 641.61)" font-size="21.175" font-family="DejaVuSansCondensed-Bold, DejaVu Sans" font-weight="700">11</text><text transform="translate(244.799 681.362)" font-size="37.615" font-family="DejaVuSansCondensed-Bold, DejaVu Sans" font-weight="700">12</text><text transform="translate(188.049 657.68)" font-size="21.016" font-family="DejaVuSansCondensed-Bold, DejaVu Sans" font-weight="700">13</text><path d="M494.534,824.914l.637-3.9-2.793-2.69-2.519.736-1.823,1.93-5.028-.484.121-1.567,2.614-2.126,2.594-.736-1.374-.651,1.266-1.949,2.921.327-.893-1.642,1.067-.351.088-1.488-.677-.474,1.5-2.594,2.627-.511,3.3-.422,2.313.6,1.342.569,3.4-.759,2.627,1.57.87,5.048,1.924,3.277-.7,1.112-1.4,6.435Z" transform="translate(-20.14 -38.731)" fill="#06c" stroke="#000"/><path d="M458.977,804.18l1.5-3.674,7.71-4.5,5.82-7.093-1.75-6.356,3.029-2.244,2.48,3.124,6.67.167,6.461-1.668,6.651.51-2.876-5.522,5.228-3.3,6.173-.314-.013-2.646,4.58-2.414,2.244-3.2,2.211,1.433,3.929.34-.18,2.473,2.078,2.755-1.535,4.645,4.665,4.158,5.912,1.838,1.02,3.733,1.98,1.655,2.522-.327,4.972,1.5.7,3.8-1.2,3.749-2.2,4.74-2.895,2.656-3.693,3.043-4.767.615-4.939-2.058-2.487,6.249-9.055,5.666.71-1.112-1.93-3.278-.87-5.041-2.62-1.577-3.4.765-1.348-.569-2.313-.6-3.3.416-2.627.51-1.5,2.594.683.478-.095,1.482-1.053.3.893,1.694-2.931-.321-1.266,1.95,1.374.651-2.594.736-2.614,2.126-.121,1.567-.474-.376-10.128-1.655-7.286.415.825-7.717-2.307-2.889-.441-3.847Z" transform="translate(-20.14 -38.731)" fill="#ffeb00" stroke="#000"/><path d="M546.071,778.042l-2.353,3.17-.408,5.316-2.863,2.761.716,3.782-1.226,3.781-2.14,4.7-2.964,2.657-3.68,3.068-4.707.615-5-2.044-2.454,6.235-9.1,5.623-1.328,6.442,3.887.618,3.886.716,4.089,2.863.716,1.125-1.73,3.373.307,1.328,3.68,1.017,5.215-.615L537,831.509l7.668,1.227,4.6,2.453,1.731,10.429-2.045,3.373-6.441.1-2.146,1.433L542.2,853.8l4.6-2.352,1.02.919,3.782-.717,3.069,2.454,1.328.2,3.781-1.328.409-1.021-3.372-2.146L556,844.594l1.433-9.3,2.656-6.134,4.4-5.009,5.826-3.372,9.2.919,10.429-3.069,3.782-6.951,1.835-15.847,7.77-1.635,1.02-.92.2-4.089-4.6-2.453-5.215,1.534-10.429-1.125-2.964-4.4-9.814,3.886-11.859.92-7.87-1.636,1.737-1.839-.92-2.352-1.737-1.838ZM654.741,844.7l-.614.1-4.5,1.534-2.656.308-.615.1-1.227.818-.51.409-1.433,2.251-.307.615-1.227,3.071-5.009,1.535-1.635,2.044.2,1.328-.408,2.549,1.226,1.436,2.045-1.534,1.737-2.863,3.072.818,2.352-.919.615-1.227.2-1.943,1.737-2.045,1.73-3.68,1.132-.723,3.367-.307,1.737-.919.307-.615-.2-.615L655.35,845Zm-73.1,10.524-.615.2-1.534,4.5-1.02.818-3.272-.615-1.125,2.352-1.534,1.227-2.657.408-5.417-2.453-1.943.51-.511.409-1.943,1.839-.307.51.51.2,7.361,3.071,1.02.913.308,1.95.51.5,2.656-.409,1.944-2.549,3.68-1.226,2.862-1.636,2.555-.314.5-.409.618-1.943-1.125-5.107-.919-.919Zm46.107,2.663-4.4,1.835-1.943.2-.615.307-.314,1.227-3.068,2.656.615,1.738,3.994-.308,2.761,1.943,2.25-1.227,3.579-4.8.2-1.227-1.636.2-.307-1.95-.51-.5Z" transform="translate(-20.14 -38.731)" fill="#06c" stroke="#000"/><path d="M552.593,747.258l.4-3.948-1.106-5.182,1.309-6.441-.376-3.854,2.548-.543,5.143-3.782,2.561-.228.772-3.354-5.783-2.057,3.271-6.651-.717-2.48.321-2.326,2.11-1.132,2.568-7.56,1.93-1.858,1.266-.409,1.08-2.414,9.8-3.847-6.582-4.358-.436-6.461L573.89,676l3.144,2.254,2.574.2.461,2.555,1.087.723,1.272.275,1.957-1.682,4.733,1.535,5.048.026.985-.857-.121-3.579,3.68-3.507,1.763-4.838,4.564-1.937,10.429,1.655,2.25-1.347,5.45,3.762,3.867.811.582-1.2,6.468,4.344.919-.2,4.679-1.923-.121,2.522,2.09,1.488,13.655,3.337,4.2,1.04,1.864,4.989.121,6.6,2.493,2.937-1.322,9.2,1.047,5.149,1.795,1.106-.153,1.737,3.641,1.266,6.065-2.1.772-1.034-1.839-3.379,3.4-3.821,3.023,2.581,7.187,3.392,2.81,2.849,4.76,6.442,1.144,3.827,2.493,3.049-.638,6.549,5.892,1.891-3.726,3.693-.805,3.916.651,2.588-9.853,3.285L686.97,751.9l-9.841,6.375.377,3.821-.5.933,2.569,1.75,8.191-1.2,5.686-3.163,5.859,2.928,1.521-3.559,2.287-.671,4.786,4.525-1.95,4.92-3.124,2.453-3.471,1.342-.8,6.575.778,5.221,3.6,3.821-.088,1.328-5.107,1.067-4.2,3.176-.952,5.116,1.56,2.14-3.539-1.407-3.612,3.821-2.139-1.42-3.17-5.806-2.058-1.623-9.1-1.583-2.607.536-4.158,3.232-.442,4.946-3.873.717-7.717,5.028-1.079-.749-6.87-1.5L639,806.564l-2.114,2.984-3.15-2.179L622.2,809.835l-2.921,2.614-2.555.609-1.168,3.762-.978,3.628.363,4.007,1.348,2.293-.717,3.861L605.036,829.5l-3.66-5.463-6.589-.638-.818-1.067.066-1.233-4.09-2.46,3.828-7,1.8-15.813,7.795-1.682.992-.925.242-4.031-4.646-2.434-5.175,1.482-10.492-1.145-2.957-4.39-.268-8.058,1.979-3.411.281-3.936-.216-3.36-1.469-4.972-3.788-3.425-3.091-7.112-1.845-1.838.236-3.7-2.441-.792L560.235,743.8l-2.11,3.346-2.46.883Z" transform="translate(-20.14 -38.731)" fill="#ffeb00" stroke="#000"/><path d="M730.365,656.982l-1.266-1.844-3.821-.792-4.128-2.715-3.213,2.211-9.064.475-7.809-1.054-7.073,3.445-.6,3.386-1,.615-3.494-1.845-7.877-.818-2.787,4.331-2.353.275-1.046,2.365,3.3,5.719.448,6.461-9.111,1.161-10,3.131,1.871,4.989.114,6.6,2.5,2.938-1.328,9.2,1.053,5.149,1.79,1.105-.154,1.738,3.641,1.265,6.065-2.11.779-1.027-1.845-3.379,3.4-3.821,3.029,2.581,7.18,3.393,2.811,2.849,4.766,6.441,1.145,3.828,2.486,3.049-.631,6.549,5.885,1.891,8.8-1.878,1.168-4.76-.978-3.732,4.518-7.724-.461-2.512,1.724-4.953L722,704.98l4.707-2.237,6.7,5.96,11.054-3.31,2.562.461,4.855,1.718,1.442-2.146.236-5.241,1.233-.468,3.157,2.251,3.909-.563,2.211-4.429,6.468-4.492.913-7.956,2.542-3.068-5.028-1.132-.933-3.693-2.326-.926-5.476-2.863,3.055-7.435-.193-1.335-4.282-2.7-4.478.216-2.99-2.379-2.614.148-6.235-6.556L735.7,649.3l-2.548,6.611-2.287-.075Z" transform="translate(-20.14 -38.731)" fill="#f90" stroke="#000"/><path d="M455.117,802.832l-5.637,1.449-.562-.228-5.552-2.006-1.207.187-.556,2.218-2.8,1.976-.664,6.32-1.937-3.432-6.409.167-3.212-4.158L426.524,804l2.575-3.016-.288-2.594-1.829-1.871-3.886-.059,1.139-4.331.677-9.955,1.119-7.151,6.147-2.365-.913-2.1,10.292-5.705,6.307-2,.516-5.738-3.169-2.25-4.008-5.221-2.889-5.912-9.889,1.688-2.587-2.326-3.488-.14,3.834-.933,1.943-3.425-.5-3.9,4.3-4.973-2.627-4.4-1.361-9.29-1.8-3.592,5.686-3.373,5.381-.187,7.616,2.657,8.044-3.272,2.012-1.468.615-2.427-.14-.066-3.854-.442-6.235-4.868-6.772-12.561-4.707-4.567-3.2-1.221,1.233-5.047,3.072-2.251.991-13,2.011-6.2,2.333-.992,5.813,2.781,5.048.932,3.049,2.333,8.836-2.077,3.451-1.823,3.533,2.058,3.481,9.749-.236,7.822,3.713,3.471,8.895-.053,4.652-2.244,3.15,1.348-1.279,5.11.435,2.574-2.25,7.528,13.716,3.52,6.772,3.935.069-5.424,2.587-9.123,4.243,2.663,7.622,1.815,5.176-1,2.453-2.895,3.507,1.8,6.327,1.175,3.451-1.554,2.984,6.883,2.48-.893,1.992,1.577,11.7-1.011,1.937,1.718-1.93,1.852-2.569,7.563-2.11,1.125-.32,2.326.716,2.48-3.271,6.651,5.783,2.058-.772,3.359-2.561.229-5.143,3.775-2.548.543.376,3.854-1.309,6.441,1.106,5.189-.4,3.942,3.056.8,2.46-.883,2.1-3.347,10.478-1.7,2.44.791-.228,3.7,1.845,1.839,3.084,7.111,3.795,3.426,1.463,4.972.222,3.36-.288,3.935-1.976,3.412.262,8.057-9.808,3.936-11.793.87-7.9-1.616,1.724-1.822-.876-2.395-1.809-1.852-4.839-1.8-2.345,3.189-.4,5.316-2.816,2.715-4.973-1.5-2.519.327-1.986-1.656-1.017-3.732-5.918-1.839-4.665-4.158,1.534-4.645-2.077-2.755.18-2.473-3.922-.334-2.212-1.436-2.25,3.206-4.58,2.408.019,2.646-6.18.314-5.227,3.3,2.875,5.522-6.65-.51-6.455,1.668-6.676-.167-2.48-3.124-3.03,2.244,1.751,6.357-5.82,7.092-7.711,4.5-1.5,3.674Z" transform="translate(-20.14 -38.731)" fill="#ffeb00" stroke="#000"/><path d="M445.048,814.737l-.684-1.073-6.235-.926.67-6.32,2.8-1.976.556-2.218,1.207-.186,5.552,2,.563.229,5.636-1.449,3.867,1.347,4.23.249.441,3.847,2.307,2.889-.825,7.717,7.286-.415,10.121,1.655-.065,4.96,6.075,1.57.35,1.246-3.474,5.382,2.2,1.413,3.2-1.95,3.513,1.273,2.395-1.04,2.388,1,.887.985.448,1.246-.229,1.3-.945.913-3.841-.779-5.028,1.57-2.882-2.42-1.943-1.662-2.535.49-4.076,3.367-3.4,7.105-3.713-.134-1.018.85-3.781-1.073-4.237-4.953-4.72-2.371-.537-1.207,2.519-3.023,1.427-5.107-.589-2.555,1.341-2.28-1.515-3.579-3.749.691-6.313-1.1,2.414-5.865-2.627-2.6Z" transform="translate(-20.14 -38.731)" fill="#ffeb00" stroke="#000"/><path d="M576.687,558.587l-3.756.837-6.2,8.286-1.174,4.057-4.185,5.335-7.929,5.444-3.33.314-4.94-3.445-4.331,6.2-1.387.249.422,1.22-1.622,3.521-4.332,4.5-2.293.3-1.561,1.57-1.387.906-4.714,1.924,1.162,5.041L520.39,609.2l-2.931-2.722L515.5,601.51l-4.564-2.742-.9-7.334-2.581-.16-2.67-2.977-3.834.422-2.172-1.534-1.24-2.287.6-2.607-.971-3.89-3.432-1.589-.065-1.335-.838-.609-4.907,1.836-.517,6.644-4.036,3.52-3.8,1.295-5.349-.075-1.865,1.93L470.7,583.6l-3.118-4.276-14.037-3.739-6.677,10.1-1.021,1.845,5.228.933,3.232,2.244-.222,3.9,1.5,3.654,6.844,2.945-2.408,3.265-1.495,7.936-8.1-.2-14.217,4.076-2.513,3.15-2.6-.34-5.482,12.16,2.42,9.022-.562,1.214-8.522,3.432L422.4,649l6.216.5,4.171,2.728,2.83,1.93,2.28-.027,2.332-.991,5.814,2.781,5.047.932,3.049,2.326,8.836-2.071,3.452-1.822,3.532,2.058,3.481,9.745-.236,7.822,3.713,3.474,8.895-.052,4.652-2.244,3.15,1.348-1.279,5.106.436,2.575-2.251,7.534,13.717,3.513,6.771,3.942.069-5.424,2.588-9.124,4.243,2.657,7.622,1.822,5.175-1.011,2.454-2.889,3.507,1.8,6.326,1.181,3.452-1.56,2.983,6.886,2.48-.9,1.992,1.583,11.705-1.01,1.937,1.71,1.266-.409L569.887,693l9.8-3.847-6.582-4.358-.435-6.461,1.22-2.378,3.144,2.254,2.575.2.461,2.555,1.086.722,1.273.275,1.956-1.681,4.734,1.534,5.048.026.984-.857-.121-3.579,3.681-3.507,1.763-4.838,4.563-1.937,10.429,1.656,2.251-1.348,5.45,3.762,3.867.811.582-1.2,6.468,4.344.919-.2,4.678-1.924-.121,2.522,2.091,1.488,13.654,3.337,4.2,1.041,9.994-3.131,9.118-1.158-.449-6.468-3.31-5.718,1.047-2.366,2.352-.274,2.793-4.332,7.878.818,3.487,1.845,1-.615.6-3.386,7.073-3.444,7.8,1.053,9.071-.474,3.213-2.212,4.128,2.715,3.814.792,1.273,1.845.5-1.145,2.287.068,2.548-6.611,6.785,3.507,6.235,6.562,2.614-.154,2.99,2.385,4.478-.222,2.218-7.429,4.135-4.773,1.3.046.334-2.608-2.091-4.691,3.245-5.826-4.868-4.874-2.99,1.737-5.27.517-2.211-1.233-1.021.752-4.024-2.843-.831-2.09-3.071-1.522-3.069-2.5-3.814.517-2.817-5.771-4.082-6.242-2.519-.343-1.355-2.071.651-6.589,1.018-2.519,2.11-1.648-2.372-10.07-2.48-3.009-.87-3.854-11.6-.958-.235-2.575-1.924-1.809-4.868-2-1.309-.248-6.964,3.412-1.054-5.385-3.271-2.11.886-3.481-2.012-1.436-.389-3.078-2.352-1.06-1.233-4.907-10.177-.34-1.6,2.767-7.534,5.666-2.224,3.023-1.266-.059.932-2.542-1-3.922-.791-1.119-5.022-4.446-9.212,5.656-4.8-2-3.653,1.682-5.015-1.777-1.018,2.261-5.368.7-.851,10.7-8.132,10.707-1.286-1.9-2.077-1.26-4.707,2.358-7.034-3.738-4.563-4.842-12.523-7.6-2.964-7.341-2.084-1.534Z" transform="translate(-20.14 -38.731)" fill="#ffeb00" stroke="#000"/><text transform="translate(479.927 784.297)" font-size="15.256" font-family="DejaVuSansCondensed-Bold, DejaVu Sans" font-weight="700">1</text><text transform="translate(443.61 803.929)" font-size="25.338" font-family="DejaVuSansCondensed-Bold, DejaVu Sans" font-weight="700">7</text><text transform="translate(496.428 766.08)" font-size="25.338" font-family="DejaVuSansCondensed-Bold, DejaVu Sans" font-weight="700">2</text><text transform="translate(554.377 776.889)" font-size="34.022" font-family="DejaVuSansCondensed-Bold, DejaVu Sans" font-weight="700">3</text><text transform="translate(588.36 677.272)" font-size="48" font-family="DejaVuSansCondensed-Bold, DejaVu Sans" font-weight="700">4</text><text transform="translate(426.727 714.159)" font-size="48" font-family="DejaVuSansCondensed-Bold, DejaVu Sans" font-weight="700">6</text><text transform="translate(668.86 666.297)" font-size="48" font-family="DejaVuSansCondensed-Bold, DejaVu Sans" font-weight="700">5</text><text transform="translate(543.36 604.159)" font-size="48" font-family="DejaVuSansCondensed-Bold, DejaVu Sans" font-weight="700">8</text><path d="M209.288,524.725l-6.013-5.368L195.9,515.8l-12.186-1.348-10.4-2.071-9.611-1.7,2.9-2.856,7.737-2.6,4.089-5.431L184.645,495l-1.168-5.117.779-3.9,7.775.8,1.227-3.739,1.731,2.506,3.661-.21,5.463,2.984L204,499.6l9.471-.435,1.515.785-1.126,13.91,3.177,2.018-1.021,2.051-2.493,2.594,1.054,4.557Z" transform="translate(-20.14 -38.731)" fill="#ffeb00" stroke="#000"/><path d="M310.674,537.751l-.792,3.533-3.13,1.9-2.379.075-5.8-5.686-2.627-.671-7.3-1.54-3.056-.818-3-.831-.71-13.327.812-9.265-.383-3.994-1.737-3.471.121-2.99-7.992-2.326-2.542-.187-1.858-1.73-5.1.032-2.8,2.166-3.1-3.131-1.9-.409-1.757,3.406-5.116,4.1-5.228-.467-4.959-.37-2.6-5.771-6.075-2.237-4.819-1.682-2.2-.926-2.627,2.166-3.494.53-4.184,2.97,1.145,2.346,1.514.785-1.119,13.909,3.17,2.012-1.017,2.058-2.5,2.594,1.06,4.557,2.366.919,10.887,5.643,6.068,7.341,1.7,2.254,8.365,6.274,2.12,3.252L248.129,556l1.534,6.461,11.826,6.785,9.205,5.143,4.171,2.293,13.2,6.657L302,578.734l2.549.128,5.156,1.119,6.2,1.57,8.044,1.38,2.951,2.817,4.94,4.024,7.462,3.686,4.887,2.689,6.844,3.573,9.062,4.926L362.48,593.3l3.15-1.943-3.3-5.643-2.588.37-1.975-1.655-2.513-.082-1.436-.37,2.078-3.285,5.6-3.353,6.254-.556.625-6.971-1.226-5.27.863-5.336-2.656-6.2-2.293.913-2.964-2.231-6.625-8.237-3.949.906-.856-3.481-5.277.563-3.648-1.42-3.572,1.079-.409,1.273-4.008-8.237-2.345-.684-4.767,1.823-1.976-1.6,2.287-1.273-2.159-5.764-3.226,4.184.2,3.922-2.653.249Z" transform="translate(-20.14 -38.731)" fill="#06c" stroke="#000"/><path d="M190.1,468.288l-4.318-3.017-2.407-3.219-3.861.759,3.305,3.151,1.635,2.218,1.852,6.588,4.056.6,2.045,1.688.242,4.128.618,1.865,1.724,2.506,3.661-.209,5.463,2.983-.108,11.27,9.464-.436-1.145-2.339,4.178-2.97,3.5-.53,2.62-2.172,2.205.926,4.825,1.688,6.075,2.237,2.594,5.764,4.966.377,5.228.467,5.116-4.109,1.757-3.405,1.891.415,3.1,3.124,2.8-2.159,5.1-.039,1.858,1.737,2.535.186,8,2.327,1.194-.5,2.427-1.066,6.447,1.443.21-2.6,2.921-4.4.985-3.776,3.539-1.809-2.735-2.722-6.549-1.56-2.179-3.34-2.2,1.168-3.533-1.763-5.525-7.02-2.6.068,1.917-3.444,6.268-1.577,2.607.356,4.155-.919-1.924-3.412-3.2-2.251-2.326-4.727,2.211-6.12-2.267-3.2-2.179.938-6.019-.121-3.474,1.119-4.262,1.214-5.6,3.412,1.374,3.739-2.836.186-3.916,1.3-2.958.2-2.293.651-5.214,4.115-2.647-6.012-4.432,1-2.16-4.492-3.493,1.387-10.155,4.312L219.183,454l-1.515-1.986-5-10.72-10.94-3.834-.108-1.342-1.3-.294-7.309,5.656-1.265,2.352-.089,6.644,7.027,8.46-.691,8.5Z" transform="translate(-20.14 -38.731)" fill="#ffeb00" stroke="#000"/><path d="M228.033,314.534l-3.069,3.988-2.044-.1-1.839,1.944-7.462,2.761-2.352,4.907.51,2.761-1.328,5.316-3.886,2.554-.1,1.227-6.441,7.668,2.657-.1,4.5,2.862-3.681,4.907,2.352,4.5-.307,3.782,9-1.838,16.154,4.5,1.943,1.737,1.433-7.77,1.436-2.146,4.5-2.862-1.227-3.17,3.471-4.089,1.021-6.543,7.77-1.433,4.805-4.5.1-2.656-6.442.409-4.089-3.373-3.988-.717-1.432-5.008,1.226-.615.308-3.474-3.579,1.636-4.806-4.4-2.555-.2-1.226-2.254ZM139.1,353.476l.716,13.6-.2,1.436-.913,8.077.717,4.4,7.158,9.3-1.227,6.441.2,1.433,2.25,1.227,5.009-1.738,2.453,1.021.511,2.555L153.93,404.8l1.227,2.352,3.579,1.436-.308,3.887-1.02.716.307,3.886-.1,1.328.408,3.988-.095,4.5-3.68,12.575,3.272,5.215.817,3.585,1.018,2.352,1.227.409,5.724-3.373,2.657-.307.615,3.68.818,1.328,6.644,4.089.1,3.681,2.352,2.653,3.887-.716,2.453,3.271,4.292,2.964,7.871-.92.717-8.485-7.054-8.382.1-6.644,1.227-2.352,7.36-5.725,1.328.308.1,1.328,10.939,3.889,5.11-7.36,4.6-2.555.51-7.769,4.184,2.761,5.009,6.542,1.943,9.507,1.227-2.454,5.316-.1,1.949-3.271,1.227-.511,1.322.1,2.862,2.656,7.871,1.322-2.045-4.593.409-3.681,1.839-1.737,3.782-.1,2.044,1.021,6.34-4.09h4.907l1.839,1.836.919-1.227.307-2.555,3.474-4.184,4.6-2.454,21.359-4.089,7.979-.1,1.328-.2,6.85,4.089,5.214,1.433h.1l7.871-.2,4.289,2.146,3.578-.2.92-9.31-1.433-5.107.51-2.554.409-.818-2.25-1.535L335.16,398.7l-5.522,3.579-4.907-1.737h-4.089v1.328l-6.343-5.623-6.742-3.988-2.146-.409-2.254.1-.717,6.856-8.178-.51-9.2-2.453L282.92,394.1l-4.907-3.887.51-1.132,2.654-2.862-.308-7.77-3.579-1.321.717-5.009,4.292-2.964,1.226-3.578.818-3.681-1.125-2.254-.716-.307-3.681,1.838-1.02,3.681-11.041,7.769-6.442-1.328h-2.761l-4.5-9.405-8.587,3.988L241,368.132l-4.089,2.352-3.579.2-4.907,2.454-8.077,3.994-2.761,2.653-9.916,1.436,1.126-2.254-5.827,1.021-6.441,6.134-8.895,6.745-3.271-1.534-.307-3.68.095-6.236-2.454-4.4.2-3.272V363.627l-2.454-.51-4.089-4.806H172.8l-2.453-2.964-11.551-.618-2.251,1.02-.1,1.329h-9.2Z" transform="translate(-20.14 -38.731)" fill="#404040" stroke="#000"/><path d="M329.415,533.489l-4.766,1.822-1.979-1.6,2.293-1.272-2.165-5.764-3.219,4.19.2,3.922-2.646.242-6.448,2.722-.8,3.527-3.131,1.9-2.378.068-5.8-5.678-2.627-.671-7.3-1.547-3.055-.812-3-.837-.71-13.328.811-9.264-.382-3.988-1.731-3.474.115-2.984,1.194-.5,2.427-1.066,6.447,1.442.21-2.6,2.921-4.4.985-3.775,3.539-1.809-2.735-2.722-6.549-1.56-2.179-3.34-2.2,1.168-3.533-1.763-5.522-7.021-2.608.069L275,469.341l6.274-1.577,2.607.357,4.148-.919-1.923-3.412-3.19-2.251-2.332-4.727,2.217-6.12-2.273-3.2-2.179.939-6.019-.121-3.471,1.119-4.269,1.214-5.6,3.412,1.374,3.739-2.836.186-3.916,1.3-2.957.2-2.294.651-5.214,4.115-2.647-6.013-4.432,1-2.16-4.492-3.487,1.387-10.157,4.312-1.067-6.478-1.515-1.985-4.995-10.721,5.149-7.347,4.564-2.549.543-7.8,4.154,2.8,5,6.477,1.976,9.513,1.207-2.395,5.322-.154,1.979-3.206,1.247-.5,1.347.039,2.768,2.722,7.9,1.315-2.071-4.586.5-3.707,1.756-1.743,3.867-.115,2,1.06,6.349-4.135,4.894.033,1.79,1.838,1.01-1.292.229-2.562,3.471-4.128,4.665-2.467,21.3-4.141,8.031-.052,1.315-.256,6.856,4.158,5.169,1.42.141.033,7.835-.229,4.364,2.1,3.552-.2,3.808,1.152,5.251-.9,3.258,2.133,2.28-1.2.729,5.208,2.555.8.544,4.9,1.442,1.884,12.255,1.361-.174,16.5,1.247,3.739,4.023.007,7.636-2.506-.475,17.583-6.477,11.771-1.783,7.978-1.443,6.007,1.3,4.792,4.707-.235,4.282,2.689,6.294-1.387,4.384,10.318,6.448-.069-4.525,11.136-4.881,9.15-3.176,2.333-3.52,3.66-1.079,11.7,1.7.075,3.585-1.279,2.2-3.3,7.694.831,7.865-1.42,1.02.864,4.325.952,2.1.383,1.489,3.615,4.082,3.219,2.729,6.9,2.977,2.012,2.875,1.756,2.28-.569.753,9.317,8.823,5.948,2.594,4.645-1.021,1.845-4.383,3.1-7.188,9.968-8.119-.844-2.7-.256-4.432,3.1-4.377,5.169L409.764,610l-4.7,2.869-9.265-1.266-6.618.857-5.374.2-11.793-3.225-11.9-4.793L362.49,593.3l3.157-1.937-3.3-5.649-2.581.369-1.976-1.655-2.519-.082-1.433-.363,2.071-3.291,5.61-3.346,6.249-.563.631-6.965-1.233-5.276.863-5.336-2.653-6.2-2.3.913-2.964-2.225-6.625-8.244-3.949.913-.856-3.481-5.277.557-3.648-1.42-3.572,1.079-.409,1.28-4.008-8.244Z" transform="translate(-20.14 -38.731)" fill="#06c" stroke="#000"/><text transform="translate(201.86 381.659)" font-size="48" font-family="DejaVuSansCondensed-Bold, DejaVu Sans" font-weight="700">4</text><text transform="translate(212.546 457.203)" font-size="41.07" font-family="DejaVuSansCondensed-Bold, DejaVu Sans" font-weight="700">3</text><text transform="translate(159.375 473.516)" font-size="16.616" font-family="DejaVuSansCondensed-Bold, DejaVu Sans" font-weight="700">1</text><text transform="translate(228.193 506.159)" font-size="48" font-family="DejaVuSansCondensed-Bold, DejaVu Sans" font-weight="700">2</text><text transform="translate(289.37 432.659)" font-size="48" font-family="DejaVuSansCondensed-Bold, DejaVu Sans" font-weight="700">5</text><path d="M758.818,266.965l7.969-2.113,2.889-4.512,3.438-2.25,2.237-10.714,4.283-6.824,3.66-1.315-3.726-5.826-1.515-6.638-2.339,1.04-6.863-2.99-2.126,1.328-1.7,3.612-5.342,6.186-6.543,1.335-1.776,5.093-2.012,1.839-6.7.824-3.34,2.366-2.518-.877-1.63,3.733-3.853.614-3.069,2.748-.019,4.024-3.707,1.764-4.806,6.637-9.31,5.692-6.8-.716.67,3.834-4.036,12.228-4.136,2.254-3.323,3.494-2.608,15.055-8.119-.4-3.955.926-.906-.174-2.575-.8-5.247.8-6.222-2.293-3.707,1.482-2.594-.742-3.755.215-4.806-1.8-3.768.645-2.529-4.665-3.853-1.067-1.845-1.969L630,299.217l-1.829-1.864L627.9,294.8l-2.657-5.329-3.451-1.757-4.433-4.567-2.352-4.564-1.285-.222-2.709,2.81-3.566,1.57-.67.544,3.88,3.873-1.7,7.864-.723,3.54-2.267.749-.658,2.12-3.86-1.162-4.23-3.251-1.266-2.4L590,297.833l-2.754,2.735-7.969.75-.21.343,2.091,5.892,1.7,1.783,4.478,12.045-4.952,9.526-4.849,2.352-4.5-8.447-3.111-4.511-4.164-3.546-3.049-6.019-3.219,2-1.7-2.99-.174-7.73-6.631-2.408-2.231-.448-2.345-2.454-1.567.02-2.045,1.335-3.055-2.045-2.415-.02-1.616,3.164,1.407,1.979-2.133,7.475-.844.971-4.158-2.695-6.608,4.913-2.152,1.649-1.515,5.241-7.554,2.908-4.043,1.75-1.694,1.482-5,3.252-3.385,8.7-1.087,4.966-3.176,4-2.434,4.357-1.207.4-2.568.1.019,3.961-1.858,3.38,3.036,2.473,3.612-1.266,1.158.677-.442,4.256.255,1.213.357,2.473L490.29,369.6l.752,2.555-.618,5.123,2.588.595.409,1.273-1.145,2.385.334,3.546-2.663-.429-8.931-8.4-1.407-2.319.115-5.381-7.354-3.763L468.778,366l-.066,2.575-3.585,5.61,1.034,5.143,1.24,1.514,7.815,5.4.7,3.988,2.113,1.717.906,2.523,2.091,4.76,8.875,2.78-.615,5.107-2.669.288-11.47-1.675-7.871-2.038-5.522-4.008-5.276-.428-4.351,2.44-6.039-1.649-4.318,3.131-6.7,1.259-4.721,2.542-1.547,2.2-4.551-2-.785.925-6.013-.2-2.139,7.386.543,1.194,10.256,1.535-1.145,6.745-9.3-.978-3.893-.725,2.127-6.081-2.512-3.03-3.566-1.756-2.12-4.691-2.018-.308-2.166,1.554-4.05-.321-1.079.824-3.183,5.928,4.557,4.773.121,1.328-3,2.529-5.309-.4v.16l-2.549,6.193-8.64,3.611-.965,2.395-2.453.792-.181,16.5,1.247,3.732,4.03.007,7.636-2.5-.478,17.577-6.474,11.771-1.79,7.978-1.435,6.013,1.3,4.786,4.708-.235,4.275,2.689,6.3-1.387,4.384,10.324,6.447-.068-4.531,11.129-4.874,9.156-3.176,2.326-3.527,3.667-1.073,11.7,1.7.068,3.578-1.279,2.205-3.3,7.694.831,7.871-1.413,1.021.863,4.318.945,2.1.383,1.489,3.615,4.083,3.219,2.728,6.9,2.97,2.018,2.882,1.757,2.28-.569.753,9.317,8.823,5.941,2.594,4.652,6.677-10.1,14.048,3.752,3.118,4.275,1.675,6.422,1.858-1.93,5.349.069,3.795-1.292,4.036-3.521.517-6.65,4.907-1.829.838.609.065,1.335,3.431,1.589.972,3.89-.6,2.6,1.24,2.293,2.172,1.534,3.834-.422,2.67,2.977,2.581.154.9,7.334,4.564,2.748,1.956,4.973L520.4,609.2l4.74-4.344-1.162-5.041,4.715-1.93,1.386-.906,1.561-1.567,2.293-.307,4.332-4.5,1.622-3.513-.422-1.227,1.387-.242,4.331-6.209,4.94,3.451,3.337-.313,7.923-5.451,4.184-5.329,1.175-4.056,6.2-8.286,3.755-.844,7.073-.665,2.083,1.535,2.964,7.341,12.523,7.6,4.564,4.841,7.033,3.739,4.707-2.358,2.078,1.259,1.285,1.9,8.133-10.707.85-10.7,5.362-.7,1.021-2.261,5.015,1.776,3.647-1.681,4.806,2,9.212-5.656,5.022,4.446.791,1.119,1,3.922-.933,2.542,1.266.059,2.225-3.023,7.534-5.666,1.6-2.767,10.177.34,1.233,4.907,2.352,1.06-.1-.475,1.694-1.93,12.837-3.3,5.993-2.656.249-2.621-2.895-2.816-9.016-2.254,3.386-8.339,6.327-1.433-1.158-.677-.76-6.624L702.945,528l-2.091-3.3,12.747,3.108,8.78,2.984,9.33-4.518,5.5-10.337L745.8,512.8l1.02,1.168,3.873.51,7.047,5.732,2.293,3.245,2.536.333,7.253-1.386,5.257-1.06,1.295-.357-.2-2.594-3.258-2.352-4.678-6.556-1.138-.729-2.569.85-2.211-1.348-2.7-2.95-2.568-6-6.637-.645-.229-3.915-.717-4.793-3-2.192,1.112-2.479-12-7.119-1.829-5.094-4.972-2.018-7.073-6.32.556-7.979,2.447-6.241-1.851-2.709-2.493-4.586-4.5-4.842-1.553-2.843-3.092-2.358-.837-7.911-4.927-9.1,3.89-3.585.4-2.568-1.162-2.319,5.251-7.175-.913-3.719,3-3.942-.811-2.254.791-6.274.965-.851-.008-.019,2.573-.282,1.642-2.09,3.749-1.393,1.7-6.288,7.577,2.365-1.08-6.376,2.663-4.432.223-6.422,2.139-1.6,1.5-3.674L743.3,351.9l4.855-4.619,3.8.749,2.339-1.086,2.385-2.427,4.429-3.206L761,339.932l2.473-3.137-.154-17.845,4.874-2.388,4.1-.134,3.788-1.656.249-1.253-1.6-2.25-5.522-4.089-.886-1.06-2.549-6.4-6.886-4.472-1.106-3.847-1.24-.608-2.7-4.564-1.7-10.848,4.1-3.539Z" transform="translate(-20.14 -38.731)" fill="none" stroke="#000" stroke-width="4"/><path d="M813.073,212.393l-2.677-7.858-6.166-2.944-3.291-4.429-2.326-7.891.282-6.837-3.337-6.059-3.347-2.359,5.532-9.519.442-2.722-.389-1.328-2.467-1.181-2.018-5.087-9.189-2.8-9.6-5.385-1.38-.013-5.283,6.215-7.866-1.079-5.162-1-3.092-2.656-3.886-1.3L738.832,140l-2.218-4.881-4.037-.288-2.928-4.632-6.468-1.61-.2-6.8,2.1-4.818-2.46-1.086,3.814-7.214.422-4.03L721.905,96.9,719.521,95.7l-.141-1.393,3.605-1.95-.468-2.741-1.482-3.9-1.059-.893-3.867-1.567-13.864-.02-.965-1-1.744-3.788.618-4.07-1.816-3.7.2-5.551-.53-1.293-3.66-1.943-.864-4.037-4.8-6.765.831-2.653-4.573-4.58-6.563.691L674.657,43l-3.513,3.654L669.59,50.3l-6.435,2.211-2.607-.615-4.282-3.34-7.979,7.308,1.956,7.979-.467,5.425-9.444,1.583-5.074-4.178-4.037.7-3.949-1.194-2.574.886-8.9-3.219,2.7-4.773-2.647-7.756-8.581-8.254-.376,1.309-4.41,3.029L595.9,48.7l-4.574-2.486-4.537-4.7-8.708,7.9,3.9,14.518-6.461,1.8-2.928,9.084-.242,5.49-1.6,2.126.066,4.128,3.124,2.657,11.623,3.726,11.871-2.951,5.382-.059,1.246,2.454-1.8,3.7-.065,2.767,3.4,5.827-1.208,5.214,1.724,2.1,7.816,2.427L612.81,121.2l1.053,6.677-.913,4.007,1.08,3.841-1.829,2.077-.422,2.7,1.361,7.969-5.3,2.536-4.7-2.657-4.191-6.925-2.722-.475-7.642,1.924-5.067,6.484-5.5.215-9.1-2.741-2.146,1.731-5.283.857-3.271-2.313-7.635-1.662-4.812,6.664-4.4,2.862-11.348,8.794-7.308-8.741-3.9,1.106-3.553,5.852-6.743.69-8.247,5.516,3.2,3.176,4.671,2.133.691,3.841L501.3,181.21l-.569,4.58v.01l-3.684-1.476-5.041,4.165-4.832-2.032-2.522.946-2.133,3.245L472.1,188.986l-1.937-1.9-3.88-1.3.632,6.758-2.921,4.613-2.1,6.5-2.735,2.836,3.112.691,3.559,1.577,1.253,3.807L462.438,217l-3.412,1.985-2.9,8.414-5.417-.376-4.825-2.447-1.293,3.694-6.575,4.292L426.342,228.7l-6.729-.415-2.152-1.63-2.735,1.616-.511,6.569.825,3.91,1.838,1.91-.939,3.693-2.522.275-2.653,5.565-.327,3.252-2.192,1.04-1.266,4.74-1.871,1.354-.187.658-2.568,9.124,4.934,4.095,3.52-.614,5.181,5.59,5.054,7.086-3.686,1-5.022-1.079-1.91,1.688-2.385,9.022-3.922,3.559-9.605-4.318-1.227.517-1.181.37-2.977-2.179-10.759-4.524-7.756.107-2.281-1.18-1.138-2.245-3.612.723.294,3.749.4.933,1.8,4.913-1.839,1.924,1.011,6.441,1.3,2.212,7.5,2.95.651.926-1.175,3.2-2.1-.3-1.266,2.379-2.44.749-9.493-4.914-5.618,3.419,4.021,5.106,2.467,7.783.255,4.05-3.137,2.306,1,2.414,2.5.537,5.247.2,1.688,6.18,2.7.121,4,5.4,2.876-2.774,4.926-1.931,4.43,2.781.85,3.756,2.549.709,3.647-1.547,2.519.422,4.338.563.35-.059,7.669-.082,2.237-1.1,2.071,1.56-.288,1.309-4.721,4.691-1.36,3.756,2.152-1.273,2.574,2.627,2.359.677,1.783,2.794-2,1.266-.108,2.62,3.614,3.808.328,2.647,8.018-3.419,3.068,3.815-3.451,3.961-.448,3.955,2.358,5.814-1.22,6.709,2.555,6.294-.193,1.354-2.555.877,4.544,2,1.554-2.2,4.72-2.548,6.69-1.26,4.319-3.13,6.038,1.649,4.358-2.434,5.27.428,5.525,4.007,7.871,2.038,11.469,1.669,2.67-.282.615-5.106-8.876-2.787-2.1-4.754-.9-2.522-2.113-1.724-.7-3.981-7.816-5.4-1.24-1.514-1.04-5.149,3.585-5.6.069-2.581,3.585-1.214,7.361,3.768L479.625,374l1.407,2.319,8.927,8.4,2.663.422-.333-3.539,1.151-2.385-.415-1.273-2.581-.595.615-5.123-.749-2.555,3.4-1.828-.35-2.474-.261-1.22.448-4.256-1.158-.671-3.612,1.267-3.036-2.48,1.852-3.373-.013-3.962,2.561-.094,1.207-.4,2.434-4.357,3.183-4,1.087-4.966,3.385-8.7,5-3.245,1.688-1.482,4.043-1.75,7.553-2.915,1.521-5.234,2.146-1.649L530,306.967l4.158,2.695.837-.971,2.14-7.475-1.413-1.986,1.616-3.157,2.42.02,3.049,2.044,2.051-1.334,1.561-.02,2.352,2.453,2.231.449,0,0,6.571,2.379.18,7.737,1.7,2.99,3.219-2,3.049,6.019,4.165,3.546,3.1,4.5,4.5,8.447,4.855-2.346,4.953-9.533-4.479-12.045-1.7-1.776-2.084-5.9.209-.341,7.963-.749,2.754-2.741,5.961-3.206,1.259,2.388,4.23,3.252,3.86,1.161.658-2.12,2.274-.749.716-3.539,1.705-7.858-3.887-3.88.677-.543,3.566-1.567,2.7-2.81,1.293.216,2.352,4.567,4.432,4.566,3.452,1.75,2.656,5.336.262,2.555,1.835,1.858,6.274-1.158,1.852,1.969,3.847,1.067,2.529,4.665,3.768-.651,4.806,1.8,3.762-.222,2.594.742,3.707-1.475,6.222,2.287,5.247-.792,2.574.792.9.173,3.955-.919,8.12.4,2.607-15.061,3.33-3.494,4.135-2.25,4.037-12.228-.67-3.841,6.8.716,9.317-5.692,4.8-6.631,3.713-1.763.019-4.03,3.063-2.742,3.86-.618,1.622-3.733,2.519.884,3.34-2.366,6.7-.831,2.012-1.835,1.776-5.093,6.543-1.341,5.342-6.18,1.705-3.615,2.126-1.328,6.863,3,2.333-1.047,2.568-2.945.2-3.9,1.367-2.254,2.594-.193,3.815-3.8,2.548-.752,2.542,1.034,6.736-1.381,8.652,4.165,1.374.141,2.676-.468.436-1.315Z" transform="translate(-20.14 -38.731)" fill="none" stroke="#000" stroke-width="4"/><path d="M990.7,447.794l-4.024-3.661-2.548-4.874-4.158-3.553-1.91-4.907,2.506-4.485.375-1.315-1.822-3.615,3.184-5.865-.831-2.313-10.825-.569-2.166,1.5-1.5,3.641-1.207,3.887-2.071,1.694-13.615-1.175-3.425,2.238-5.437.288-4.345,3-5.162-1.42L920.9,432.039l-8.153-.752-1.756,3.666.134,2.709.887,10.429-.045.684.044-.671-.887-10.423-8.895-4.243-2.522.066-4.779,2.555-2.7.006-5.015-10.874-13.34.069-2.4,1.1-5.993-2.293L861.9,420.18l-3.092-5.905-4.874,1.6-5.175-6.045-2.512-.913-1.836-5.11-2.695.448-4.74-2.561-5.107,1.534-6.523-5-6.327-2.555-5.355-4.069-10.439,2.663-4.177-3.331-1.286.484-3.406-2.185-2.018-3.585L791.265,374.8l-1.125-2.479-5.048-1.809-3.559-3.815-1.021-6.588-7.8-7.635-2.876-7.57-3.444-2.2-5.283-1.354-4.423,3.206L754.3,346.98l-2.339,1.086-3.8-.75-4.855,4.619-3.749,1.374-1.5,3.674-2.146,1.6L735.7,365l-2.67,4.439,1.085,6.365-7.541-2.354-1.711,6.287-3.746,1.394-1.642,2.091-2.575.274-.971.851-.785,6.281.8,2.25-3,3.949.92,3.719-5.258,7.168,1.162,2.319-.39,2.575-3.9,3.578,4.927,9.111.844,7.91,3.091,2.359L715.9,438.4l4.5,4.848,2.5,4.58,1.852,2.715-2.447,6.236-.563,7.985,7.079,6.32,4.966,2.019,1.829,5.093,12.006,7.119L746.5,487.8l3,2.192.717,4.786.235,3.923,6.631.644,2.568,6,2.7,2.95,2.2,1.342,2.569-.844,1.144.723,4.672,6.555,3.265,2.352.2,2.6-1.3.356-5.251,1.067-7.259,1.387-2.535-.334-2.287-3.245-7.046-5.738-3.88-.5-1.018-1.168-8.594,3.13-5.5,10.338-9.336,4.511-8.774-2.977-12.742-3.15,2.084,3.3,4.933,1.662.753,6.624,1.161.678-6.327,1.432-3.386,8.339,9.01,2.251,2.9,2.823-.248,2.62-6,2.657-12.83,3.3-1.695,1.93.1.474.39,3.079,2.012,1.436-.887,3.474,3.278,2.113,1.053,5.385,6.965-3.419,1.3.255,4.874,2,1.924,1.809.229,2.574,11.6.959.864,3.847,2.486,3.016,2.365,10.069-2.11,1.642-1.017,2.523-.651,6.588,1.361,2.071,2.512.344,4.089,6.241,2.81,5.771,3.815-.523,3.068,2.5,3.079,1.521.831,2.091,4.023,2.843,1.021-.753,2.211,1.227,5.264-.51,2.983-1.733,4.858,4.875-3.245,5.826,2.1,4.684-.34,2.608,1.176.333-1.15-.314-1.328-.1-4.089,4.806L758.81,661.4l4.292,2.656.2,1.328-3.069,7.456,5.417,2.862,2.352.92.92,3.68,5.008,1.125.1-1.226,3.578-1.322,2.251-4.812-.919-2.251-3.474-1.737-.2-2.555,3.68-6.742,3.988-3.579,5.11-1.737,12.467-.308,2.555,4.7,5.417-5.316.014-.046,2.695-4.236,5.277-3.245,4.593-.569,4.05,2.554,1.119,7.976,5.784-2.928-.684-6.984-3.579-.838.543-4.171-1.694-1.54,2.332-1.5-1.509-1.92,1.161-8.489,4.286-9.232,4.109-4.989,5-.468,4.966-.435.867.876v0l.8,1.2-.678,2.231,3.573-.461,3.749-5.405,2.077-7.782,4.031-3.563,3.846-1.232,6.7-.217,2.274,3.486,3.363.426.746-3.109-.011-.016-.165-2.313,1.227-2.065.857-.863,1.394,1.717,1.361,2.166L881.6,601.1l1.308,5.5,2.683-.415.18-3.232,3.654-.524-4.008-1.923-1.4-4.05,3.707-4.646,1.554-.2,2.633-2.788,3.579,1.018L899,588.33l2,1.113,4.037.65L908,587.116l-1.7-1.583.92-.716.153-1.106,6.644-6.587.524,1,5.27-3.929,6.837,3.579.965-.913-.716-2.548,1.279-2.339,5.4-3.54,1.292-2.339,4.862-1.436-3.085-7.125-3.085-14.4L930.5,538.9l.625-8.293,2.824-2.46,1.468-1.986,13.066-6.045-.736-6.517,3.317-5.6.288-6.267,5.771-3.265,5.437-.327,11.342-7.547,4.479-8.346-1.669-6.562.115-5.424,10.671-5.577,3.144-7.528.883-6.791Z" transform="translate(-20.14 -38.731)" fill="none" stroke="#000" stroke-width="4"/><polygon points="785.695 626.142 781.808 626.551 781.298 627.062 782.014 628.187 783.853 628.903 789.885 629.106 790.906 629.823 791.622 628.802 791.315 628.187 785.695 626.142" fill="none" stroke="#000" stroke-width="4"/><path d="M455.568,598.288l-1.5-3.654.222-3.9-3.232-2.244-5.228-.933-4.383,3.1-7.187,9.968-8.12-.837-2.7-.262-4.433,3.1-4.377,5.169-4.881,2.25-4.7,2.869-9.264-1.266-6.618.857-5.375.2L372,609.48l-11.9-4.787-9.062-4.933,0-.026-6.843-3.572-4.888-2.689-7.462-3.687-4.946-4.024-2.951-2.816-8.038-1.381-6.2-1.57-5.149-1.119L302,578.749l-13.936,4.606-13.2-6.658-4.171-2.293-9.205-5.143-11.826-6.778-1.535-6.467-2.018-5.258-2.12-3.252-8.365-6.274-1.71-2.254-6.068-7.334-10.888-5.65-2.365-.919-5.3-.343-6.013-5.369-7.38-3.565-12.186-1.342-10.4-2.071-9.611-1.7-.985,2.921-3.6,4.057-4.767,2.528-.222.8,1.293-.253-4.348,4.913-7.151,3.406-1.521,2.146-.321-1.207-1.24-.121L136.7,532.5l1.432,3.6-1.01,2.371,5.054-.167,1.42,2.012L137,546.13l3.189,8.843-.736,9.559-6.588,10.262-4.4,12.683.563,5.4,3.514,7.328-.033,1.361-1.3.409-6.663.148-5.4-3.956-5.342-.932-6.059-2.938-3.648,1.724-6.785.193-3.853,1.233L90.693,602.1l.327,5.361-7.266,3.252-6.844,14.8.448,2.548,2.781,3.01,2.64.415,5.041-1.9,2.084,1.694.16,2.621-3.707,5.577-3.336,2.313-6.523-.51L71.355,645.4l2.12,1.577-1.784,3.318-5.214.107-4.792,4.433-5.149.791L55.1,657.6l-4.466,2.512-4.19-3.049-.442-1.227,1.757-1.871-.992-2.139-2.6,4.236,3.258,7.158-7.688,5.093-13.635,4.947-1.75,1.681.4,1.286L22.6,681.129l-.369,7.949,40.905,2.915,6.477,2,6.785-.543,7.661-2.549,19.085.576,9.118,2.856,5.79,3.605,3.445,4.21,2.78,7.717-9.827,7.125-1.132,2.421,2.657,4.658,6.85,4.446,19.968,4.1,17.629-1.427,12.262.383,11.636,3.834,6.776,4.51,2.716.173.008.013,2.722-.033,1.033-4.21,6.026-7.344-4.612-4.854-4.25-3.553.765-5.29.154-2.106,1.443-1.073,1.956-1.322,3.278-2.9,8.715-5.519,6.235-2.574,9.372,2.64,1.891,1.789.945,7.789,2.114,1.42.32-2.4,3.1.236,1.5,1.567-3.9,2.319,3.452,5.094,4.625,8.466,2.621,1.027-2.441,4.6,5.552,4.72,5.021,1.577,3.68-1.593,3.814,1.221,1.944-1.865,2.372,1.373,10.658.026,3.6,1.034,4.934-.53,2.983-2.1,2.273.341,10.946,1.609,3.628-1.315,5.751-2.542,6.785-5.839.342-.085,6-2.581,2.631.34,6.153,4.675-.49,2.133,1.032.82,2.154,1.22,4.05,6.605.816,3.927-.64,3.961.155,1.112-1.137.5-2.6,4.417,5.56,5.275,1.582,3.65-.105,3.967-6.407,6.737-2.655,6.089,6.115,2.506,5.213-.675h0l4.189-1.053,7.342,2.706,1.957-1.1,5.049,1.15.316-1.287,2.433-.64,10.007,3.48,3.929-.107.322,1.283,1.841-6.018.071.158-1.9,6.2,1.956-3.317,6.1-1.731,2.294,1.354.575,5.257,1.7,2.065,4.135,5.263,9.552,4.652,1.6-2.119.645-3.867,2.708-2.856,6.517-.945,7.18,3.346,1.139-4.338.677-9.955,1.119-7.144,6.147-2.372-.913-2.1,10.292-5.705,6.307-2,.517-5.738-3.17-2.244-4.008-5.221-2.889-5.912-9.889,1.682-2.587-2.319-3.483-.141,3.822-.929,1.943-3.425-.5-3.9,4.3-4.972-2.627-4.4-1.361-9.291-1.8-3.59,5.667-3.361,5.381-.186,7.616,2.656,8.044-3.271,2.018-1.469.608-2.427-.14-.066-3.854-.442L445.251,699l-6.771-12.562-4.708-4.567-3.2-1.22,1.233-5.048,3.072-2.251.991-13,2.012-6.2-2.28.026-2.83-1.93-4.171-2.728-6.216-.491-3.451-4.083,8.522-3.431.569-1.214-2.427-9.029,5.483-12.159,2.6.34,2.513-3.144,14.217-4.083,8.1.2L460,604.5l2.408-3.264Z" transform="translate(-20.14 -38.731)" fill="none" stroke="#000" stroke-width="4"/><polygon points="187.034 311.589 183.354 316.496 185.706 320.994 185.399 324.775 194.395 322.937 210.549 327.435 212.492 329.172 213.925 321.403 215.361 319.257 219.859 316.394 218.632 313.224 222.103 309.135 223.124 302.593 230.893 301.16 235.699 296.661 235.8 294.005 229.359 294.414 225.27 291.041 221.282 290.325 219.849 285.316 221.076 284.701 221.384 281.227 217.805 282.863 212.999 278.466 210.444 278.267 209.217 276.013 207.892 275.803 204.824 279.791 202.779 279.69 200.941 281.633 193.479 284.394 191.127 289.301 191.637 292.062 190.309 297.378 186.422 299.933 186.321 301.16 179.88 308.828 182.536 308.726 187.034 311.589" fill="none" stroke="#000" stroke-width="4"/><path d="M444.274,581.029l-8.823-5.948-.753-9.317-2.28.569-2.876-1.756-2.977-2.012-2.728-6.9-4.083-3.219-1.488-3.615-2.1-.383-4.325-.952-1.02-.864-7.865,1.42-7.694-.831-2.2,3.3-3.585,1.279-1.7-.075,1.079-11.7,3.52-3.66,3.176-2.333,4.881-9.15,4.525-11.136-6.448.069L394.12,503.5l-6.294,1.387-4.282-2.689-4.707.235-1.3-4.792,1.443-6.007,1.783-7.978,6.477-11.771.475-17.583-7.636,2.506-4.023-.007-1.247-3.739.174-16.5-12.255-1.361-1.443-1.884-.543-4.9-2.554-.8-.73-5.208-2.28,1.2-3.259-2.133-5.25.9-3.808-1.152-.02,0,.912-9.236-1.433-5.107.51-2.554.409-.818-2.25-1.535L335.16,398.7l-5.522,3.579-4.907-1.737h-4.089v1.328l-6.343-5.624-6.742-3.987-2.146-.409-2.254.1-.717,6.856-8.178-.51-9.2-2.453L282.92,394.1l-4.907-3.886.51-1.132,2.654-2.862-.308-7.77-3.579-1.321.717-5.009,4.292-2.964,1.226-3.578.818-3.681-1.125-2.254-.717-.307-3.68,1.838-1.02,3.681-11.041,7.769-6.442-1.328h-2.76l-4.5-9.405-8.587,3.988L241,368.132l-4.089,2.352-3.579.2-4.907,2.454-8.077,3.994-2.761,2.653-9.916,1.436,1.126-2.254-5.826,1.021-6.442,6.133-8.895,6.746-3.271-1.534-.308-3.68.095-6.236-2.453-4.4.2-3.272V363.627l-2.454-.51-4.089-4.806H172.8l-2.453-2.964-11.551-.618-2.251,1.02-.1,1.329h-9.2l-8.153-3.6.716,13.6-.2,1.436-.912,8.077.716,4.4,7.158,9.3-1.227,6.441.2,1.433,2.25,1.227,5.009-1.738,2.453,1.021.511,2.555L153.93,404.8l1.227,2.352,3.579,1.436-.308,3.886-1.021.717.308,3.886-.1,1.329.408,3.987-.095,4.5-3.68,12.575,3.272,5.215.817,3.585,1.018,2.352,1.227.409,5.724-3.373,2.657-.307.615,3.68.818,1.328,6.644,4.089.1,3.681,2.352,2.653,2.771-.511-2.747.54,3.3,3.151,1.635,2.218,1.852,6.588,4.056.6,2.045,1.688.242,4.128.618,1.865,1.722,2.5h0l-1.731-2.506-1.227,3.739-7.775-.8-.779,3.9L184.645,495l-6.222,4.792-4.089,5.431-7.737,2.6-2.9,2.857,9.611,1.7,10.4,2.071L195.9,515.8l7.38,3.559,6.013,5.368,5.306.336,2.365.919,10.888,5.643,6.068,7.341,1.7,2.254,8.365,6.275,2.12,3.251L248.129,556l1.534,6.461,11.826,6.785,9.205,5.143,4.171,2.293,13.2,6.657L302,578.734l2.549.128,5.156,1.119,6.2,1.57,8.044,1.381,2.951,2.816,4.94,4.024,7.462,3.686,4.887,2.689,6.844,3.573,9.062,4.926.01,0,11.9,4.793,11.793,3.225,5.374-.2,6.618-.857,9.265,1.265,4.7-2.868,4.881-2.251,4.377-5.169,4.432-3.1,2.7.256,8.119.844,7.188-9.968,4.383-3.1,1.021-1.845Z" transform="translate(-20.14 -38.731)" fill="none" stroke="#000" stroke-width="4"/><polygon points="562.112 818.321 561.506 816.489 560.891 816.692 559.357 821.19 558.336 822.008 555.065 821.393 553.94 823.745 552.405 824.972 549.749 825.381 544.332 822.927 542.388 823.438 541.878 823.846 539.935 825.685 539.627 826.196 540.138 826.395 547.498 829.467 548.519 830.38 548.826 832.329 549.337 832.833 551.993 832.424 553.936 829.876 557.617 828.649 560.479 827.013 563.034 826.699 563.538 826.291 564.156 824.347 563.031 819.241 562.112 818.321" fill="none" stroke="#000" stroke-width="4"/><polygon points="608.735 819.748 608.224 819.244 607.613 819.152 603.216 820.987 601.273 821.19 600.658 821.498 600.344 822.724 597.275 825.381 597.89 827.118 601.885 826.81 604.645 828.754 606.896 827.527 610.475 822.721 610.678 821.494 609.042 821.697 608.735 819.748" fill="none" stroke="#000" stroke-width="4"/><polygon points="635.21 806.266 634.601 805.965 633.986 806.067 629.488 807.601 626.832 807.908 626.217 808.01 624.99 808.828 624.48 809.237 623.047 811.487 622.739 812.102 621.513 815.174 616.504 816.708 614.868 818.753 615.068 820.081 614.659 822.629 615.886 824.065 617.93 822.531 619.668 819.669 622.739 820.487 625.091 819.567 625.706 818.341 625.909 816.397 627.646 814.353 629.377 810.673 630.509 809.95 633.875 809.642 635.612 808.723 635.92 808.108 635.72 807.493 635.21 806.266" fill="none" stroke="#000" stroke-width="4"/><path d="M768.952,680.328l-.933-3.694-2.326-.925-5.476-2.863,3.055-7.435-.192-1.335-4.283-2.7,2.242-7.517,4.135-4.773,1.3.046.334-2.608-2.091-4.69,3.245-5.827-4.868-4.874-2.99,1.737-5.27.517-2.211-1.233-1.021.752-4.024-2.843-.831-2.091-3.071-1.521-3.069-2.5-3.814.517-2.817-5.771-4.082-6.242-2.519-.343-1.355-2.071.651-6.589,1.018-2.519,2.11-1.649-2.372-10.069-2.48-3.009-.87-3.854-11.6-.958-.236-2.575-1.923-1.809-4.868-2-1.309-.249-6.964,3.413-1.054-5.385-3.271-2.11.886-3.481-2.011-1.436-.39-3.078-2.352-1.06-1.233-4.907-10.177-.34-1.6,2.767-7.534,5.666-2.224,3.023-1.266-.059.932-2.542-1-3.922-.791-1.119-5.022-4.446-9.212,5.657-4.8-2.006-3.653,1.682-5.015-1.777-1.018,2.261-5.368.7-.851,10.7-8.132,10.707-1.286-1.9-2.077-1.26-4.707,2.358-7.034-3.739-4.563-4.841-12.523-7.6-2.964-7.341-2.084-1.535-7.094.758-3.756.837-6.2,8.286-1.174,4.057-4.184,5.335-7.93,5.444-3.33.314-4.94-3.445-4.331,6.2-1.387.249.422,1.22-1.622,3.521-4.332,4.5-2.293.3-1.561,1.57-1.386.907-4.715,1.923,1.162,5.041-4.74,4.351-2.932-2.722L515.5,601.51l-4.564-2.742-.9-7.334-2.581-.16-2.67-2.977-3.834.422-2.172-1.534-1.24-2.287.6-2.607-.971-3.89-3.432-1.589-.065-1.335-.838-.608-4.907,1.835-.516,6.644-4.038,3.52-3.794,1.295-5.349-.075-1.864,1.93L470.7,583.6l-3.118-4.275-14.037-3.74-6.677,10.1-1.021,1.845,5.228.933,3.232,2.244-.222,3.9,1.5,3.654,6.844,2.944-2.408,3.266-1.495,7.936-8.1-.2-14.218,4.076-2.512,3.151-2.6-.341-5.482,12.16,2.42,9.022-.562,1.214-8.522,3.432L422.4,649l6.216.5,4.171,2.729,2.83,1.93,2.28-.027,0,.013-2.012,6.2-.991,13-3.072,2.251-1.233,5.047,3.2,1.221,4.707,4.567,6.772,12.562,6.235,4.867,3.854.442.14.066-.615,2.427-2.012,1.468-8.044,3.272-7.615-2.657-5.382.187-5.686,3.373,1.8,3.592,1.361,9.29,2.627,4.4-4.3,4.973.5,3.9-1.943,3.425-3.834.933,3.488.14,2.587,2.326,9.889-1.688,2.889,5.912,4.007,5.221,3.17,2.25-.516,5.738-6.307,2-10.292,5.705.913,2.1-6.147,2.365-1.119,7.151-.677,9.955-1.139,4.331,3.886.059,1.829,1.871.288,2.594L426.524,804l.053,1.328,3.213,4.158,6.408-.167,1.931,3.421h0l.006.01v-.009l6.228.925.684,1.073,5.438-2.957,2.627,2.6-2.415,5.865,6.314,1.1,3.749-.691,1.515,3.579-1.341,2.281.589,2.554-1.427,5.107-2.519,3.023.537,1.207,4.72,2.371,4.237,4.953,3.782,1.074,1.017-.851,3.713.134,3.4-7.105,4.076-3.367,2.535-.491,1.943,1.663,2.882,2.42,5.028-1.57,3.841.779.945-.913.229-1.3-.448-1.246-.887-.985-2.388-1-2.395,1.04-3.513-1.273-3.2,1.95-2.2-1.413,3.474-5.382-.35-1.246-6.075-1.57.065-4.959.465.368.121-1.567,2.614-2.126,2.555-.725.038.018-2.594.736-2.614,2.126-.121,1.567,5.028.485,1.822-1.931,2.519-.736,2.794,2.689-.637,3.9,13.991-.734.643-2.955-.6,2.926,3.886.619,3.887.716,4.089,2.863.717,1.125-1.731,3.373.307,1.328,3.68,1.017,5.215-.614L537,831.509l7.668,1.227,4.6,2.453,1.731,10.429-2.045,3.373-6.441.1-2.146,1.433L542.2,853.8l4.6-2.353,1.02.92,3.782-.717,3.069,2.454,1.328.2,3.782-1.329.408-1.02-3.372-2.146L556,844.594l1.433-9.3,2.656-6.134,4.4-5.009,5.826-3.372,9.2.919,10.429-3.069,4.1,2.476-.066,1.233.818,1.067,6.588.638,3.661,5.463,10.537,1.106.717-3.861-1.348-2.293-.363-4.007.978-3.628,1.168-3.762,2.555-.609,2.921-2.614,11.538-2.466,3.15,2.178L639,806.564l4.793-1.577,6.87,1.5,1.079.749,7.717-5.028,3.873-.717.442-4.946,4.158-3.232,2.607-.536,9.1,1.583,2.058,1.623,3.169,5.806,2.14,1.42,3.612-3.821,3.539,1.407-1.56-2.14.952-5.116,4.2-3.176,5.107-1.067.088-1.328-3.6-3.821-.778-5.221.8-6.575,3.471-1.342,3.124-2.453,1.949-4.92-4.785-4.525-2.287.671-1.521,3.559-5.859-2.928-5.686,3.163-8.191,1.2-2.569-1.75.5-.933-.377-3.821,9.841-6.375,3.353-3.739,9.853-3.285-.651-2.588.805-3.916,3.693-3.66.015,0,8.8-1.878,1.168-4.76-.978-3.732,4.518-7.724-.461-2.512,1.724-4.953L722,704.98l4.707-2.237,6.7,5.96,11.054-3.31,2.562.461,4.855,1.718,1.442-2.146.236-5.241,1.233-.468,3.157,2.251,3.909-.563,2.211-4.429,6.468-4.492.913-7.956,2.542-3.068Z" transform="translate(-20.14 -38.731)" fill="none" stroke="#000" stroke-width="4"/><text transform="translate(763.155 254.709)" font-size="20.753" font-family="DejaVuSansCondensed-Bold, DejaVu Sans" font-weight="700">Alpes de <tspan x="0" y="24.904">Haute-Provence</tspan></text><text transform="translate(727.155 49.709)" font-size="20.753" font-family="DejaVuSansCondensed-Bold, DejaVu Sans" font-weight="700">Hautes-Alpes</text><text transform="translate(772.304 651.185)" font-size="20.753" font-family="DejaVuSansCondensed-Bold, DejaVu Sans" font-weight="700">Alpes-Maritimes</text><text transform="translate(58.304 739.311)" font-size="20.753" font-family="DejaVuSansCondensed-Bold, DejaVu Sans" font-weight="700">Bouches-du-Rhône</text><text transform="translate(654.92 799.183)" font-size="20.753" font-family="DejaVuSansCondensed-Bold, DejaVu Sans" font-weight="700"><tspan letter-spacing="-0.055em">V</tspan><tspan x="13.315" y="0">ar</tspan></text><text transform="translate(25.2 397.094)" font-size="20.753" font-family="DejaVuSansCondensed-Bold, DejaVu Sans" font-weight="700"><tspan letter-spacing="-0.055em">V</tspan><tspan x="13.315" y="0">aucluse</tspan></text></svg>