<svg xmlns="http://www.w3.org/2000/svg" width="933.293" height="903.526" viewBox="0 0 933.293 903.526"><title>2T Législatives 2017 Vaucluse</title><path d="M237.236,650.359,219.048,634.12l-22.325-10.767-36.861-4.077-31.449-6.265-29.074-5.155,8.758-8.64,23.4-7.867,12.369-16.428,18.822-14.5-3.533-15.476,2.355-11.786,23.522,2.434,3.711-11.311,5.235,7.58,11.074-.633,16.526,9.025-.347,34.091,28.649-1.317,4.582,2.375-3.4,42.076,9.608,6.105-3.088,6.205-7.54,7.847,3.187,13.784Z" transform="translate(-23.191 -13.994)" fill="#ffeb00" stroke="#000"/><path d="M543.927,689.763l-2.394,10.687-9.471,5.739-7.194.227-17.545-17.2-7.946-2.028-22.088-4.661-9.242-2.474-9.084-2.513-2.148-40.316,2.454-28.025-1.157-12.082-5.255-10.5.366-9.044-24.175-7.036-7.689-.564-5.62-5.236-15.428.1-8.46,6.551-9.372-9.47-5.739-1.237-5.314,10.3-15.476,12.41-15.814-1.415-15-1.118L317.266,563.4l-18.377-6.768-14.576-5.087-6.67-2.8L269.7,555.3l-10.568,1.6-12.658,8.985,3.464,7.1,4.582,2.375-3.385,42.077,9.589,6.086-3.078,6.224-7.561,7.847,3.206,13.785,7.155,2.78,32.933,17.07,18.357,22.207,5.155,6.817,25.3,18.98,6.412,9.837,6.125,15.9,4.642,19.544,35.773,20.523,27.846,15.557,12.617,6.937,39.93,20.139,42.156-13.933,7.71.385,15.6,3.385,18.753,4.75,24.333,4.176,8.926,8.519,14.943,12.172,22.572,11.152,14.785,8.135,20.7,10.806,27.411,14.9,7.215-34.328,9.529-5.878-9.975-17.07-7.828,1.118-5.977-5.007-7.6-.247-4.344-1.119,6.284-9.936,16.951-10.143,18.921-1.683,1.89-21.087L714.78,770.8l2.613-16.14L709.358,735.9l-6.938,2.762-8.965-6.749L673.415,707l-11.944,2.741-2.592-10.529-15.963,1.7-11.033-4.294-10.807,3.265-1.237,3.85-12.122-24.918-7.1-2.068L586.2,682.261l-5.977-4.848,6.917-3.85-6.532-17.436-9.757,12.657.614,11.865-8.026.752Z" transform="translate(-23.191 -13.994)" fill="#06c" stroke="#000"/><path d="M179.2,479.636l-13.062-9.124-7.283-9.738-11.678,2.3,9.995,9.53,4.948,6.709,5.6,19.93,12.271,1.821,6.185,5.106.732,12.488,1.87,5.64,5.215,7.58,11.073-.633,16.527,9.025-.326,34.09,28.628-1.316-3.464-7.076,12.637-8.985,10.588-1.6,7.927-6.571,6.669,2.8,14.6,5.107,18.377,6.768,7.847,17.436,15.021,1.138,15.814,1.414,15.477-12.429,5.314-10.3L382.416,562l9.391,9.45,8.461-6.531L415.7,564.8l5.621,5.255,7.669.564,24.195,7.036,3.612-1.5,7.342-3.227,19.5,4.364.633-7.867,8.836-13.319,2.979-11.421,10.708-5.472-8.274-8.233-19.811-4.721-6.59-10.1-6.67,3.534-10.687-5.334-16.713-21.236-7.868.208,5.8-10.42,18.96-4.77,7.887,1.078,12.568-2.781-5.819-10.321-9.669-6.808L452.872,445l6.69-18.514-6.858-9.669-6.591,2.84-18.208-.366L417.4,422.675,404.5,426.346,387.55,436.667l4.157,11.31-8.579.564-11.846,3.938-8.946.614-6.937,1.969-15.774,12.449-8-18.188-13.409,3.038-6.532-13.588-10.568,4.2-30.717,13.042-3.226-19.593-4.582-6.007-15.111-32.429-33.091-11.6-.326-4.058-3.938-.89-22.108,17.109-3.829,7.116-.267,20.1,21.256,25.591-2.089,25.709Z" transform="translate(-23.191 -13.994)" fill="#ffeb00" stroke="#000"/><path d="M293.939,14.534,284.657,26.6l-6.185-.307-5.562,5.878L250.338,40.52l-7.115,14.844,1.544,8.352L240.749,79.8l-11.756,7.729-.307,3.711-19.484,23.2,8.035-.307,13.607,8.659-11.133,14.843,7.115,13.607-.93,11.44,27.213-5.562,48.866,13.607,5.878,5.255,4.334-23.5,4.344-6.492,13.606-8.658-3.711-9.589,10.5-12.37,3.088-19.792,23.5-4.334,14.537-13.607.307-8.035-19.485,1.237-12.369-10.2-12.063-2.167-4.335-15.15,3.711-1.861.93-10.509-10.825,4.948-14.537-13.3-7.729-.6-3.711-6.818ZM24.9,132.334l2.168,41.127-.614,4.344L23.7,202.238l2.168,13.3,21.651,28.143L43.8,263.166l.613,4.334,6.808,3.711,15.151-5.254,7.422,3.087,1.544,7.729L69.78,287.6l3.711,7.115,10.826,4.344-.93,11.756L80.3,312.982l.93,11.756-.307,4.017,1.237,12.063-.287,13.607L70.739,392.464l9.9,15.774,2.474,10.845,3.078,7.115,3.711,1.237,17.317-10.2,8.036-.93,1.86,11.132,2.474,4.018,20.1,12.37.307,11.133,7.115,8.025,11.756-2.167,7.422,9.9,12.984,8.966,23.809-2.781,2.167-25.67-21.335-25.353.306-20.1,3.711-7.115,22.266-17.318,4.018.93.306,4.018,33.092,11.766,15.457-22.266,13.914-7.728,1.544-23.5,12.657,8.352,15.15,19.792,5.878,28.757,3.711-7.422L332,393.73l5.9-9.9,3.711-1.543,4,.307,8.658,8.035,23.81,4-6.185-13.894,1.237-11.133,5.561-5.254,11.44-.307,6.185,3.088,19.178-12.37h14.843l5.562,5.552,2.781-3.711.93-7.729,10.509-12.657,13.914-7.422,64.61-12.37,24.135-.307,4.018-.613,20.722,12.37,15.774,4.334h.306l23.81-.614,12.974,6.492,10.825-.6,2.781-28.163-4.334-15.448,1.544-7.728,1.237-2.474-6.808-4.641L618,269.132l-16.7,10.826L586.45,274.7H574.081v4.018L554.893,261.71,534.5,249.647l-6.492-1.237-6.818.287-2.167,20.742L494.282,267.9l-27.818-7.422-6.492-5.255-14.843-11.756,1.544-3.424,8.025-8.659-.93-23.5-10.826-4,2.167-15.15,12.984-8.966,3.711-10.826,2.474-11.133-3.4-6.818-2.168-.93-11.132,5.561-3.088,11.133-33.4,23.5L391.6,186.235h-8.352l-13.607-28.451-25.976,12.063-10.509,6.819-12.37,7.115-10.826.6-14.844,7.422-24.432,12.083-8.352,8.025-29.995,4.344,3.405-6.818-17.625,3.088-19.485,18.554-26.906,20.405-9.9-4.641-.93-11.132.287-18.862-7.422-13.3.614-9.895V163.039L146.96,161.5l-12.369-14.537h-7.729l-7.422-8.965L84.5,136.122,77.69,139.21l-.307,4.018H49.566Z" transform="translate(-23.191 -13.994)" fill="#404040" stroke="#000"/><path d="M600.62,676.869,586.2,682.381l-5.987-4.849,6.937-3.85L580.6,656.246l-9.737,12.677.6,11.865-8,.732-19.5,8.233-2.415,10.668-9.471,5.76-7.195.207L507.334,689.21l-7.946-2.028L477.3,682.5l-9.243-2.455-9.084-2.533L456.826,637.2l2.454-28.025-1.157-12.063-5.235-10.51.346-9.025,3.612-1.5,7.342-3.226,19.5,4.364.633-7.867,8.837-13.319,2.979-11.421,10.707-5.472-8.273-8.233-19.811-4.721-6.591-10.1-6.669,3.534-10.687-5.334-16.7-21.236-7.887.208,5.8-10.42,18.98-4.771,7.887,1.079,12.547-2.781-5.818-10.321-9.649-6.808-7.055-14.3,6.709-18.514-6.877-9.669-6.591,2.84-18.208-.366-10.5,3.385-12.914,3.671-16.952,10.321,4.157,11.31-8.579.564L371.316,452.4l-8.946.614-6.937,1.969-15.774,12.449-8.006-18.188-13.408,3.038L311.713,438.7l-10.549,4.2-30.726,13.042-3.227-19.593-4.582-6.007-15.11-32.429,15.575-22.225,13.805-7.71,1.643-23.582,12.568,8.461,15.111,19.593L312.2,401.22l3.651-7.245,16.1-.465,5.987-9.7,3.77-1.5,4.077.118,8.371,8.234,23.888,3.978-6.264-13.874,1.524-11.212,5.314-5.275,11.7-.346,6.046,3.206,19.208-12.509,14.8.1,5.413,5.562,3.057-3.909.692-7.748,10.5-12.488,14.112-7.462,64.421-12.528L552.86,316l3.978-.772L577.579,327.8l15.635,4.295.425.1,23.7-.692,13.2,6.362,10.747-.614,11.518,3.484,15.883-2.721,9.856,6.451,6.9-3.631,2.207,15.755L695.378,359l1.643,14.825,4.364,5.7,37.069,4.117-.524,49.925,3.77,11.31,12.172.019,23.1-7.58-1.435,53.19L755.94,526.115l-5.394,24.136-4.364,18.169,3.938,14.5,14.24-.713,12.953,8.135,19.039-4.2,13.26,31.211,19.5-.207-13.687,33.685-14.764,27.679-9.608,7.056-10.648,11.073-3.265,35.388,5.155.227,10.846-3.869,6.669-9.976,23.275,2.514,23.79-4.294,3.088,2.613,13.082,2.88,6.343,1.157,4.5,10.935,12.351,9.737,8.253,20.87,9,6.086,8.7,5.314,6.9-1.721,2.275,28.183,26.69,17.991,7.847,14.052-3.088,5.581-13.26,9.371-21.741,30.153-24.562-2.554-8.175-.772-13.408,9.372-13.241,15.635-14.764,6.808L829.443,917l-28.025-3.829L781.4,915.763l-16.258.6-35.674-9.757-36.011-14.5,7.214-34.328,9.549-5.859-10-17.09-7.807,1.118-5.977-5.007-7.62-.248-4.334-1.1,6.264-9.955,16.971-10.123,18.9-1.7,1.909-21.068-3.73-15.962,2.613-16.14L709.389,735.9l-6.957,2.762-8.965-6.73-20.039-24.938-11.945,2.762-2.592-10.529-15.963,1.683L631.9,696.613l-10.807,3.266-1.237,3.869L607.729,678.81Z" transform="translate(-23.191 -13.994)" fill="#06c" stroke="#000"/><text transform="translate(252.5 320.75)" font-size="145.199" font-family="DejaVuSansCondensed-Bold, DejaVu Sans" font-weight="700">4</text><text transform="translate(284.827 549.268)" font-size="124.235" font-family="DejaVuSansCondensed-Bold, DejaVu Sans" font-weight="700">3</text><text transform="translate(123.985 598.617)" font-size="50.263" font-family="DejaVuSansCondensed-Bold, DejaVu Sans" font-weight="700">1</text><text transform="translate(332.158 697.362)" font-size="145.199" font-family="DejaVuSansCondensed-Bold, DejaVu Sans" font-weight="700">2</text><text transform="translate(517.217 475.024)" font-size="145.199" font-family="DejaVuSansCondensed-Bold, DejaVu Sans" font-weight="700">5</text></svg>