<svg xmlns="http://www.w3.org/2000/svg" width="853.018" height="758.4" viewBox="0 0 853.018 758.4"><title>2T Législatives 2017 Var</title><path d="M266.183,685.144l1.529-9.343-6.7-6.448-6.04,1.765-4.37,4.628-12.056-1.161.29-3.757,6.267-5.1,6.22-1.765-3.294-1.56,3.035-4.675,7,.784-2.141-3.937,2.558-.84.211-3.569-1.624-1.137,3.585-6.22,6.3-1.224,7.907-1.012,5.546,1.443,3.216,1.364,8.15-1.82,6.3,3.765,2.087,12.1,4.612,7.86-1.686,2.666-3.357,15.43Z" transform="translate(-84.121 -39.132)" fill="#06c" stroke="#000"/><path d="M180.927,635.428l3.6-8.809,18.489-10.8,13.955-17-4.2-15.241,7.264-5.381,5.946,7.49,15.993.4,15.492-4,15.946,1.224-6.9-13.241,12.535-7.907,14.8-.753-.031-6.345,10.982-5.789,5.381-7.679,5.3,3.435,9.421.816-.432,5.93,4.981,6.6-3.679,11.139,11.186,9.969,14.174,4.409,2.447,8.95,4.746,3.969,6.047-.785,11.923,3.6,1.671,9.114-2.878,8.989L369.827,629.1l-6.942,6.37-8.856,7.3L342.6,644.238,330.755,639.3l-5.961,14.983-21.712,13.586,1.7-2.667-4.628-7.859-2.087-12.088-6.283-3.781-8.149,1.836-3.232-1.365-5.546-1.443-7.907,1-6.3,1.224-3.584,6.22,1.639,1.145-.228,3.553-2.526.722,2.141,4.063-7.028-.769-3.036,4.675,3.295,1.56-6.22,1.765-6.267,5.1-.29,3.757-1.137-.9-24.285-3.969-17.469,1,1.976-18.5-5.529-6.927-1.059-9.224Z" transform="translate(-84.121 -39.132)" fill="#ffeb00" stroke="#000"/><path d="M389.758,572.755l-5.64,7.6-.981,12.746-6.863,6.62,1.718,9.068-2.942,9.068-5.13,11.279-7.107,6.37-8.824,7.357L342.7,644.339l-11.993-4.9-5.883,14.95L303.01,667.871l-3.184,15.445,9.318,1.482,9.319,1.718,9.8,6.863,1.718,2.7-4.15,8.087.737,3.184,8.824,2.44,12.5-1.474,20.1-7.358,18.386,2.942,11.029,5.883,4.15,25.006-4.9,8.087-15.444.244-5.146,3.435,4.408,7.844,11.029-5.64,2.448,2.2,9.067-1.718,7.358,5.883,3.184.486,9.068-3.185.981-2.447-8.088-5.146-1.961-12.5L417,710.025l6.369-14.708,10.543-12.009,13.97-8.087,22.057,2.2,25.007-7.357,9.068-16.669,4.4-38,18.63-3.922,2.447-2.2.487-9.805-11.029-5.883-12.5,3.678-25.007-2.7-7.107-10.542L450.8,593.345l-28.434,2.2-18.873-3.922,4.166-4.409-2.205-5.64-4.165-4.408ZM650.327,732.576l-1.474.243L638.067,736.5l-6.369.738-1.475.243-2.941,1.961-1.224.98-3.436,5.4-.737,1.474-2.941,7.366-12.01,3.678-3.922,4.9.479,3.185-.98,6.11,2.941,3.444,4.9-3.679,4.165-6.864,7.365,1.961,5.64-2.2L629,762.25l.487-4.66,4.165-4.9,4.15-8.825,2.714-1.733,8.071-.737,4.166-2.2.737-1.475-.479-1.474-1.224-2.942ZM475.061,757.811l-1.475.486-3.678,10.786-2.448,1.961-7.844-1.475-2.7,5.64-3.679,2.941-6.369.981-12.99-5.883-4.659,1.224-1.224.98-4.659,4.408-.737,1.224,1.223.479,17.649,7.365,2.448,2.189.737,4.675L445.882,797l6.369-.98,4.659-6.111,8.825-2.942,6.863-3.922,6.127-.752,1.208-.981,1.482-4.659-2.7-12.245-2.2-2.2ZM585.614,764.2l-10.542,4.4-4.659.487-1.475.737-.753,2.941-7.357,6.37L562.3,783.3l9.578-.737,6.62,4.659,5.4-2.942,8.582-11.522.486-2.942-3.922.487-.737-4.675-1.224-1.208Z" transform="translate(-84.121 -39.132)" fill="#06c" stroke="#000"/><path d="M405.4,498.943l.949-9.468L403.7,477.05l3.138-15.445-.9-9.24,6.111-1.3L424.373,442l6.141-.548,1.851-8.041L418.5,428.472l7.844-15.946-1.718-5.946.769-5.578,5.059-2.714,6.158-18.127,4.628-4.456,3.035-.98,2.588-5.789,23.5-9.225L454.58,349.262l-1.044-15.491,2.926-5.7,7.539,5.4,6.173.486,1.106,6.127,2.6,1.733,3.052.659,4.691-4.033,11.35,3.679,12.1.063,2.361-2.054-.29-8.582,8.825-8.409,4.227-11.6,10.943-4.644,25.006,3.969,5.4-3.232,13.068,9.021,9.272,1.946,1.4-2.878,15.508,10.416,2.2-.486,11.217-4.612-.29,6.047,5.013,3.569,32.74,8,10.064,2.494,4.47,11.963.291,15.828,5.976,7.044-3.169,22.057,2.51,12.346,4.306,2.652-.369,4.165,8.731,3.035,14.542-5.043,1.851-2.479-4.408-8.1,8.149-9.162,7.248,6.188,17.233,8.135,6.738,6.832,11.413,15.444L750,441.232l5.977,7.311-1.529,15.7,14.127,4.534-8.935,8.856-1.929,9.389,1.561,6.205-23.626,7.876-8.04,8.965-23.6,15.288.9,9.161-1.193,2.236,6.158,4.2,19.642-2.878,13.633-7.586L757.2,537.51l3.647-8.535,5.483-1.607,11.475,10.848-4.674,11.8L765.64,555.9l-8.323,3.216L755.4,574.88,757.27,587.4l8.629,9.162-.212,3.184L753.442,602.3l-10.063,7.616L741.1,622.186l3.742,5.13-8.487-3.373-8.66,9.161-5.131-3.4-7.6-13.923-4.934-3.89-21.815-3.8-6.251,1.286-9.97,7.75-1.059,11.86-9.287,1.718-18.5,12.056-2.588-1.8-16.472-3.6-11.492,3.782-5.067,7.153-7.554-5.224L572.3,648.989l-7,6.267-6.127,1.459-2.8,9.021-2.345,8.7.87,9.608,3.232,5.5L556.41,698.8l-25.265-2.652-8.778-13.1-15.8-1.53-1.961-2.557.157-2.957-9.805-5.9,9.178-16.794,4.322-37.918,18.693-4.032,2.377-2.219.58-9.665-11.139-5.836L506.562,597.2l-25.156-2.746-7.092-10.527-.643-19.319,4.745-8.181.675-9.437-.518-8.055-3.522-11.923-9.083-8.213-7.412-17.053-4.423-4.408.565-8.871-5.852-1.9-25.124,4.087-5.06,8.024-5.9,2.118Z" transform="translate(-84.121 -39.132)" fill="#ffeb00" stroke="#000"/><path d="M831.656,282.48l-3.035-4.423-9.162-1.9-9.9-6.51-7.7,5.3-21.735,1.138L761.4,273.563l-16.958,8.26-1.428,8.118-2.393,1.475-8.377-4.424-18.888-1.961-6.684,10.385-5.639.659-2.51,5.672,7.922,13.711,1.075,15.492-21.846,2.784-23.979,7.507L666.18,353.2l.275,15.828,5.993,7.044-3.185,22.057,2.526,12.346,4.291,2.652-.369,4.165,8.731,3.035,14.542-5.059,1.868-2.463-4.424-8.1,8.149-9.162,7.264,6.189,17.217,8.134L735.8,416.7l11.429,15.444,2.745,9.178,5.962,7.311-1.514,15.7,14.111,4.534,21.108-4.5,2.8-11.413-2.345-8.95,10.833-18.519-1.106-6.024,4.133-11.876,7.633-10.017,11.287-5.365L838.93,406.5l26.5-7.938,6.141,1.106,11.641,4.119,3.459-5.146.565-12.567,2.957-1.121,7.569,5.4L907.14,389l5.3-10.621,15.508-10.77,2.189-19.077,6.1-7.358-12.057-2.713-2.235-8.856-5.578-2.22-13.13-6.863,7.326-17.829-.463-3.2-10.267-6.464-10.739.518-7.169-5.7-6.267.354-14.951-15.72-16.268-8.409-6.111,15.853-5.482-.18Z" transform="translate(-84.121 -39.132)" fill="#f90" stroke="#000"/><path d="M171.67,632.2l-13.515,3.475-1.349-.549-13.312-4.809-2.894.447-1.334,5.318-6.723,4.738-1.592,15.155-4.644-8.228-15.366.4-7.7-9.97-.126-3.184,6.173-7.232-.69-6.22-4.385-4.487-9.318-.141,2.73-10.385,1.624-23.869,2.683-17.148,14.739-5.671-2.189-5.043,24.677-13.68,15.123-4.793,1.239-13.758-7.6-5.4-9.608-12.518-6.927-14.175-23.712,4.048-6.2-5.578-8.362-.337,9.193-2.236,4.66-8.212-1.193-9.343,10.307-11.923-6.3-10.557-3.264-22.277-4.322-8.613,13.633-8.087,12.9-.447,18.261,6.369,19.288-7.844,4.824-3.522,1.474-5.819-.337-.157-9.24-1.059-14.95-11.673-16.237-30.12-11.287-10.95-7.664-2.927,2.957-12.1,7.365-5.4,2.376-31.164,4.824-14.873,5.593-2.376,13.939,6.667,12.1,2.236,7.311,5.593,21.187-4.981,8.275-4.37,8.472,4.935,8.345,23.375-.565,18.754,8.9,8.323,21.328-.125,11.154-5.382,7.554,3.232-3.067,12.253,1.044,6.173-5.4,18.049,32.89,8.44,16.237,9.437.164-13,6.205-21.877,10.174,6.385,18.276,4.354,12.409-2.408,5.883-6.942,8.409,4.322,15.17,2.816,8.276-3.726,7.154,16.5,5.946-2.141,4.777,3.781,28.066-2.423,4.644,4.118-4.628,4.44L430.45,398.24l-5.059,2.7-.769,5.577,1.718,5.947L418.5,428.408l13.867,4.934-1.85,8.056-6.142.548L412.04,451l-6.111,1.3.9,9.24-3.138,15.445,2.652,12.441-.949,9.452,7.326,1.914,5.9-2.118,5.043-8.024,25.125-4.087,5.851,1.9-.549,8.871,4.424,4.409,7.4,17.052,9.1,8.213,3.507,11.923.533,8.055-.69,9.437-4.738,8.181.627,19.319-23.517,9.437-28.277,2.086L403.5,591.57l4.133-4.369-2.1-5.742-4.338-4.44L389.6,572.7l-5.625,7.647-.965,12.747-6.753,6.51L364.331,596l-6.04.784-4.762-3.969-2.44-8.95L336.9,579.458l-11.186-9.97,3.679-11.139-4.981-6.605.432-5.93-9.4-.8-5.3-3.444-5.4,7.687-10.982,5.773.047,6.346-14.818.752-12.535,7.908,6.895,13.24L257.4,582.052l-15.477,4-16.009-.4-5.946-7.491-7.264,5.381,4.2,15.241L202.947,615.79l-18.489,10.8-3.585,8.81Z" transform="translate(-84.121 -39.132)" fill="#ffeb00" stroke="#000"/><path d="M147.527,660.741l-1.64-2.573-14.95-2.219,1.607-15.155,6.723-4.738,1.334-5.318,2.894-.447,13.312,4.809,1.349.549,13.515-3.475,9.272,3.231,10.142.6,1.059,9.225,5.53,6.926-1.977,18.5,17.469-1,24.27,3.968-.157,11.892,14.566,3.765.84,2.988-8.33,12.9,5.271,3.388,7.679-4.674,8.424,3.051,5.743-2.494,5.726,2.408,2.125,2.361,1.075,2.989-.549,3.121-2.267,2.189-9.208-1.867-12.056,3.765-6.911-5.8-4.659-3.986-6.079,1.177-9.773,8.072-8.15,17.037-8.9-.321-2.44,2.039-9.067-2.573-10.159-11.876-11.319-5.687-1.285-2.894,6.04-7.248,3.42-12.244-1.413-6.127,3.217-5.467-3.632-8.581-8.989,1.655-15.14-2.636,5.79-14.064-6.3-6.236Z" transform="translate(-84.121 -39.132)" fill="#ffeb00" stroke="#000"/><path d="M463.169,46.549l-9,2.008L439.3,68.425l-2.816,9.727L426.451,90.945,407.437,104l-7.984.753-11.845-8.26-10.385,14.872-3.326.6,1.012,2.926-3.89,8.44-10.385,10.8-5.5.722-3.742,3.765-3.326,2.173-11.3,4.612,2.784,12.088-11.365,10.432-7.029-6.526-4.691-11.923L305.521,142.9l-2.157-17.586-6.189-.384-6.4-7.138-9.193,1.012-5.208-3.679-2.973-5.482,1.443-6.252-2.33-9.326-8.228-3.812-.157-3.2-2.008-1.459-11.766,4.4-1.239,15.932-9.679,8.44-9.1,3.106-12.825-.18-4.471,4.628-4-15.383L201.565,96.28l-33.659-8.965L151.9,111.537l-2.448,4.424,12.535,2.236,7.75,5.381-.533,9.343,3.585,8.761,16.41,7.06-5.773,7.828-3.585,19.03-19.414-.486-34.089,9.773-6.024,7.554-6.236-.816-13.147,29.157,5.8,21.634-1.349,2.91L84.95,253.554l8.276,9.789,14.9,1.192,10,6.542,6.785,4.628,5.467-.063,5.593-2.377,13.939,6.667,12.1,2.236,7.31,5.578,21.187-4.966,8.276-4.369,8.471,4.934,8.346,23.367-.565,18.755,8.9,8.331,21.328-.126,11.154-5.381,7.554,3.232-3.067,12.244,1.044,6.173-5.4,18.065,32.89,8.424,16.237,9.452.164-13,6.2-21.877,10.174,6.37,18.276,4.369,12.409-2.424,5.883-6.926,8.409,4.306,15.17,2.831,8.276-3.742,7.153,16.512,5.947-2.158,4.777,3.8L436.6,371.51l4.644,4.1,3.035-.98,2.588-5.789,23.5-9.225L454.584,349.17l-1.044-15.492,2.926-5.7,7.539,5.4,6.173.487,1.106,6.126,2.6,1.733,3.052.659,4.691-4.032,11.35,3.678,12.1.064,2.361-2.055-.29-8.582,8.825-8.409,4.227-11.6L531.15,306.8l25.006,3.969,5.4-3.232,13.068,9.021,9.272,1.946,1.4-2.878L600.8,326.045l2.2-.486,11.217-4.612-.29,6.047,5.013,3.569,32.74,8,10.064,2.494,23.963-7.507,21.862-2.776L706.5,315.267l-7.938-13.712,2.51-5.671,5.64-.659,6.7-10.385,18.888,1.961,8.362,4.423,2.408-1.474,1.427-8.119,16.959-8.26,18.708,2.526,21.751-1.137,7.7-5.3,9.9,6.51,9.146,1.9,3.052,4.424,1.192-2.745,5.483.164,6.111-15.852,16.268,8.409L875.714,288l6.267-.368,7.169,5.718,10.738-.533L905.206,275l9.915-11.444,3.106.11.8-6.252-5.013-11.248L921.8,232.2l-11.672-11.687-7.169,4.165-12.636,1.239-5.3-2.957-2.448,1.8-9.647-6.817-1.993-5.012-7.365-3.647-7.358-5.993-9.146,1.239L840.306,190.7l-9.79-14.966-6.04-.824-3.247-4.966,1.561-15.8,2.439-6.04,5.06-3.953L824.6,120l-5.946-7.217-2.086-9.24-27.808-2.3-.565-6.173-4.612-4.338-11.672-4.792-3.138-.6-16.7,8.181-2.526-12.911-7.844-5.059,2.126-8.346-4.824-3.443-.934-7.382-5.64-2.541-2.956-11.766-24.4-.816L701.246,47.9,683.182,61.488l-5.335,7.247-3.035-.14,2.236-6.095L674.64,53.1l-1.9-2.683L660.7,39.752,638.612,53.315,627.1,48.506l-8.761,4.032-12.024-4.259-2.44,5.42-12.872,1.687-2.04,25.657-19.5,25.673-3.083-4.549-4.981-3.02L550.117,104.8l-16.865-8.965L522.31,84.228,492.283,66.014l-7.107-17.6-5-3.679Z" transform="translate(-84.121 -39.132)" fill="#ffeb00" stroke="#000"/><text transform="translate(195.33 641.49)" font-size="36.58" font-family="DejaVuSansCondensed-Bold, DejaVu Sans" font-weight="700">1</text><text transform="translate(108.249 688.563)" font-size="60.755" font-family="DejaVuSansCondensed-Bold, DejaVu Sans" font-weight="700">7</text><text transform="translate(234.895 597.809)" font-size="60.755" font-family="DejaVuSansCondensed-Bold, DejaVu Sans" font-weight="700">2</text><text transform="translate(373.846 623.727)" font-size="81.577" font-family="DejaVuSansCondensed-Bold, DejaVu Sans" font-weight="700">3</text><text transform="translate(455.33 384.866)" font-size="115.094" font-family="DejaVuSansCondensed-Bold, DejaVu Sans" font-weight="700">4</text><text transform="translate(67.77 473.312)" font-size="115.094" font-family="DejaVuSansCondensed-Bold, DejaVu Sans" font-weight="700">6</text><text transform="translate(648.35 358.552)" font-size="115.094" font-family="DejaVuSansCondensed-Bold, DejaVu Sans" font-weight="700">5</text><text transform="translate(347.428 209.556)" font-size="115.094" font-family="DejaVuSansCondensed-Bold, DejaVu Sans" font-weight="700">8</text></svg>