<svg xmlns="http://www.w3.org/2000/svg" width="984.298" height="653.756" viewBox="0 0 984.298 653.756"><title>2T Législatives 2017 Bouches-du-Rhône</title><path d="M767.044,608.8l11.237,3.142,8.421-2.022.7-5.445,4.021-3.914,13.136,3.17.861-3.6-5.126-6.1-.243-5.5,5.1-6.114,2.722.49,7.321-9.034-4.611-18.73-5.59-.706-9.835,5.3-14.012.526-5.22-7.017-4.306,3.811-9.581-2.189-9.791,7.529-10.942-2.35L740.35,576.4l-1.866,4.391,1.128,4.338,11.278-1.121,4.882,6.435,5.042-2.725,2.291,4.96,5.755,1.157-.709,2.852.3,4.777,2.2,3.4Z" transform="translate(-7.478 -37.113)" fill="#06c" stroke="#000"/><path d="M702.641,587.823l5.8-9.864,8.477.224.7,2.226,1.032,9.977,9.206-3.351,6.848,7.225-2.575,8.249L732.205,617l-3.873,11.162-5.541,6.706.626,14.48-11.642,1.506-13.656-5.6,5.928-13.6,14.309-15.043.235-8.859-3.534-8.15Z" transform="translate(-7.478 -37.113)" fill="#ffeb00" stroke="#000"/><path d="M724.465,554.017l-.422,3.3,6.559,1.518.285-.045,10.417,1.257,10.942,2.35,9.791-7.529,9.578,2.188,4.309-3.81-7.21-10.79-1.7-8.269,7.083-13.219-9.982-22-4.743-2.768-9.406,5.793-5.8,4.03-14.516,5.592,2.677,1.234-.938,2.814-8.693,7.717-1.54,9.108,5.606,3.866.441,2.328,3.768,1.851,3.157,2.092L737.3,545.1l.417,1.609-5.988,3.345-1.961,4.056-3.389-1.37Z" transform="translate(-7.478 -37.113)" fill="#ffeb00" stroke="#000"/><path d="M728.071,572.485l2.449-3.321-1.57-4.382,1.655-5.949-13.329-3.112-1.507,2.847-8.86-15.341L701.2,542l9.048,14.749,1.822,8.771-1.428,8.846.346,2.481,7.552.152,2.346-.8.271,2.91,2.34-.851,5.831,2.165Z" transform="translate(-7.478 -37.113)" fill="#cc2443" stroke="#000"/><path d="M728.071,572.485l2.449-3.321-1.57-4.382,1.655-5.949.283-.045,10.417,1.256-.962,16.354-1.863,4.391.25,1.006-8.891,3.87-1.974,1.367-9.206,3.351-1.032-9.977-.7-2.226,1.607-1.189,2.346-.8.274,2.911,2.337-.852,3.233,1.19,2.6.976Z" transform="translate(-7.478 -37.113)" fill="#ffeb00" stroke="#000"/><path d="M770.952,648.835l-5.434,1.429-.706,2.873-11.275-2.567-4.37,2.462-16.4-6.041-9.356,2.352-.626-14.48,5.541-6.706L732.2,617l-.071-14.488,2.575-8.25-6.849-7.225,1.977-1.366,8.891-3.871.876,3.333,11.278-1.121,4.882,6.435,5.041-2.725,2.292,4.96,5.752,1.157-.706,2.852.3,4.777,2.2,3.4L767.04,608.8l11.234,3.143,8.422-2.023.7-5.445,4.021-3.914,13.137,3.171,4.065,16.194,2.748,4.807-1.16,2.66-5.752.762-3.417,4.227L807,645.471l-4.21,13.761-.72-2.864-8.774.238Z" transform="translate(-7.478 -37.113)" fill="#06c" stroke="#000"/><path d="M694.085,537.439l1.094-4.761-13.742-10.441-5.875-.76-13.4,5.765-2.1-10.546,2.751-7.552-2.784-4.656,13.165-5.6,11.756,12.768,8.077.492,3.157-4.315,10.134-.149-2.127-4.922,13.02-5.18,3.478,4.093.532,11.224,8.431-1.287,2.677,1.234-.937,2.814-8.694,7.717-1.54,9.108,5.606,3.866.441,2.328,3.768,1.851,3.158,2.092L737.3,545.1l.417,1.609-5.988,3.345-1.961,4.056-3.389-1.37-1.908,1.278-.423,3.3-6.766-1.6-1.508,2.847-8.859-15.341L701.2,542l-4.811-2.724Z" transform="translate(-7.478 -37.113)" fill="#ffeb00" stroke="#000"/><path d="M588.236,427.252,583.173,437.6l-5.522.343-14.224-22.559L556.6,395.6l2.71-4.938-.826-5.962-7.473-4.7-27.14-1.38-8.43,3.2-7.452-9.387-1.885-8.789-6.451-9.745,5.625-.957,5.99-9.8,8.065,7.364,5.552,1.424-3.25-11.272-6.093-6.392-2.41-11.331-3.01.168-14-11.331-5.947-.928L478.94,300.831l-20.4-18.22,8.1-16.335,19.39,8.635,36.3-22.2,8.862-8.321,20.66.1,4.419-3.7,1.644,2.513,6.363-4.712,7.561-2.652,7.408,3.01,2.857,10.972,13.31,6.005,3.85,7.8-.767,3.141.972,13.881,2.652,1.344,17.081-3.821,12.068,12.872,4.7,17.183,5.764,1.344,5.135-2.907-3,16.35-1.629,4.85,2.652,4.281,5.793,5.962,8.277-.358,16.182,7.649,14.165,10.447,8.8,1.513,2.053,11.484,2.257,1.973L693.588,385.5l-17.08,3.624-7.832-3.88-1.468,5.793-13.815,14.852,1.3,8.372-8.321,2.14-5.106,6.86-16.525-3.4-3.1-7.049-9.716-3.266Z" transform="translate(-7.478 -37.113)" fill="#ffeb00" stroke="#000"/><path d="M804.587,604.11l.869-3.624-5.165-6.136-.241-5.552,5.136-6.152,2.74.5,7.364-9.1-4.639-18.848,15.941-12.858,11.125.541,26.855,9.687,8.336.745,7.379-3.966,7.392,3.806,8.862,5.223,5.026-2.009,7.788.314,5.779,5.179,22.084-3.755,6.451,13.2,8.949,11.659,7.079,5.012-1.154,12.814-14.085,4.463L921.475,617.99l2.039,4.7-13.727,5.3-2.5,15.955-1.513,22.23-2.542,9.688L887.2,668.383l-14.552,2.111-6.049,6.378-1.44,8.635-3.579,4.733-21.332-10.388L831.011,668.1l-3.8-4.609-1.286-11.741-5.121-3.024-13.61,3.865L802.826,660l4.237-13.851-5.991-13.171,3.441-4.252,5.793-.767,1.169-2.681-2.769-4.836Z" transform="translate(-7.478 -37.113)" fill="#06c" stroke="#000"/><path d="M777.338,411.385l-7.291,8.664-9.7,6.319-5.092-1.782-16.584,2.622L726.645,434.6l2.593,22.545L718.776,470.4l2.74,4.61,8.35-1.586,3.339,13.595,7.02,8.489,9.417,6.2,9.475-5.836,4.763,2.783,10.045,22.143-7.138,13.31,1.71,8.322,7.261,10.855,5.253,7.065,14.1-.526,9.9-5.326,5.625.716,15.941-12.858,11.125.541,26.855,9.687,8.336.731,7.378-3.953,7.393,3.8,8.862,5.238,5.026-2.023,8.562-2.082,4.339-7.649-1.11-8.7,9.6-11.105L917.075,517l-3.039-20.748-4.026-8.021-2.067-2.024-5.632,1.316-14.567-.4-4.895-3.1-6.78-4.778-10.987-1.885-3.653-16.868L850.814,451l-15.078,8.233-2.783-.783-6.451-5.778-11.7.526-20.7-19.761L816.778,416.6l2.637-18.395-3.266-.928-16.693-3.2-8.365,1.68-7.335-4.552-5.026.57-4.12,7.247.284,5.406,3.5,4.353Z" transform="translate(-7.478 -37.113)" fill="#ffeb00" stroke="#000"/><path d="M642.231,327.956l2.652,4.281,5.793,5.962,8.277-.358,16.182,7.635L689.3,355.937l8.8,1.5,2.053,11.484,2.257,1.98L693.58,385.48,676.5,389.1l-7.832-3.879-1.469,5.793-13.814,14.852,1.3,8.372,10.958,10.732.387,5.749,5.326,6.239,1.57,11.126,6.093,12.455-8.5.029-2.455,8.322-11.331,2.483-1.724,11.455-4.383,3.77,3.85,8.459,4.653,9.146,13.252-5.632,11.828,12.857,8.116.5,3.2-4.354,10.191-.153-2.141-4.953,13.1-5.209,3.506,4.106.527,11.3,8.474-1.3,14.611-5.632,5.852-4.055-9.416-6.195L733.189,487l-3.338-13.6-8.336,1.585-2.739-4.609,10.447-13.252-2.586-22.545,12.024-7.393,16.584-2.623,5.092,1.783,9.7-6.319,7.276-8.65,1.08-2.586-3.506-4.369-.285-5.406,1.659-2.885-4.982-.57-2.586-1.8.073-.957-.556-3.207-2.44-1.57-1.782-3.784-1.184-1.424-2.1-.8-2.1-.116-2.769,7.246-6.765,2.543,1.958-2.966-.154-8.175,5.837-7.109,1.856,2.4,4.236-2.308-.759-12.668,6.275,4.383v-3.623L778.22,338.3l-3.426-1.695.2-6.9-3.04-.7-6.589,4.836-11.075,1.6-7.619,4.449-11-.9-2.353,6.736L729,339.587l-12.427-1.643-3.024-5.063,1.257-4.222-12.9-12.682-4.435,2.242-3.77,4.267-7.889-2.907-7.292,4.478-17.364,1.556-17.321-2.5Z" transform="translate(-7.478 -37.113)" fill="#f90" stroke="#000"/><path d="M519.631,444.23l.153,6.406,4.31,17.811-.76,15.137,7.905,4.164,14.728-1.14,4.12,10.972-1.944,5.567L550.057,520l-.555,14.114-8.46,11.331,5.223,2.783,23.8.059L578.1,550.6l11.017-1.184,6.662-4.683,5.077.76,24.444,3.594,8.1-2.937,12.843-5.676,15.151-13.04-2.126-10.615,2.769-7.605-2.8-4.7-4.653-9.146-3.865-8.46,4.4-3.769,1.724-11.441,11.316-2.5,2.469-8.321,8.5-.029-6.093-12.456-1.57-11.111-5.333-6.246-.373-5.75-10.958-10.731-8.321,2.14-5.106,6.86-16.54-3.4-3.039-6.9-9.775-3.324L588.57,427.639,583.258,438l-5.866-.044L563.825,416.4l-7.276-20.659,2.871-4.654-1.03-6.063-7.079-4.6-27.2-1.381-8.65,3.069-7.261-8.891-1.929-8.686-6.539-10.242-4.85.3,1.059,23.94-7.963,12.229-2.483,8.686,2.725,17.767-1.542,6.195,2.937,4.507H510.89l5.026,3L519.285,436l.116,4.266Z" transform="translate(-7.478 -37.113)" fill="#06c" stroke="#000"/><path d="M519.894,550.159l-11.214-3.522-12.4-10.542,5.45-10.271-5.852-2.294-10.33-18.906-7.707-11.375,8.715-5.18-3.353-3.5-6.918-.526-.717,5.362-4.719-3.17-2.111-17.394-4.222-4-20.93-5.9-13.925,5.75-.357,6.838-11.988,7.079-2.083-2.557,5.224-8.686,6-4.149-10.242,1.183-2.294,6.779-7.065-11.857-2.71.657-4.252-9.628.241-10.432-6.18,3.806,16.24,33.291-7.32,6.48-22.77-21.749-3.712,5.493,22.114,19.206-3.222,2.4-7.949-4.4-2.7,5.421,10.3,3.682-1.709,11.812-10.973,2.257,20.463,5.677,10.3,10.841L432.4,506.835l-.343-7.9,3.009,8.322-35.5,33.291-2.309,9.4-6.078.073-7.364-13.158-1.98-21.017-48.385-36.33-12.083-17.394,9.234-25.467,9.073-12.185,5.165-3.127,17.577-.372,9.315,6.852,5.362-2.586,8.386,8.788,10.915-4.179,12.843-23.158L433,394.711l8.7-1.856,17.051,21.434,5.18-3.368,3.7-18.951L478.441,389l-4.552-12.484,4.12-5.736,5.91,5.933,1.958-17.2-4.42-2.141-5.779-8.621,6.539-11.74,6.422,8.876-.044,11.469,3.5-3.536,2.893.584.673,23.874L487.814,390.7l-2.513,8.715,2.812,17.818-1.695,5.808,3.339,4.895,21-.373,5.165,3.1,3.127,5.092.657,15,4.31,17.693-.76,14.867,7.62,4.084,15-1.067,4.135,10.973-1.958,5.566,1.929,16.854-.555,14.114-8.46,11.331-4.339,4.164-8.518-2.726Z" transform="translate(-7.478 -37.113)" fill="#d00" stroke="#000"/><path d="M764,384.274l-1.184-1.41-2.1-.8-2.1-.117-2.769,7.247-6.75,2.543,1.943-2.967L750.9,380.6l5.823-7.109,1.87,2.4,4.237-2.308-.767-12.668,6.289,4.383-.014-3.623,9.9-23.327-3.426-1.695.182-6.9-3.024-.7-6.6,4.836-11.061,1.6-7.634,4.449-10.988-.9-2.367,6.736L729,339.629l-12.427-1.643-3.009-5.063,1.242-4.222-12.9-12.682,5.662-2.411,5.9-13.011-.614-5.566,28.506,1.87L730.37,273.728l2.893-8.306-1.169-14.385,5-1.972,5.179-12.456,20.237,11.017,26.584,10.688,26.336,7.2,12-.446,14.778-1.914,20.69,2.827,10.5-6.406,10.9-5.026,9.775-11.543,9.9-6.918,6.034.584,18.133,1.87,16.05-22.259,9.789-6.919,11.675,2.082,7.218,5.012-.5,8.7,3.339,8.16L991,239.9l-5.377,7.291-3.338,17.724-18.081-.453-31.749,9.117-5.61,7.021-5.809-.76-12.244,27.155,5.42,20.163-1.27,2.71-19.031,7.663,7.708,9.118,13.88,1.1,9.315,6.092,6.319,4.31,5.092-.058-4.493,13.851-2.213,29.024-6.86,5.026-2.753,11.273,7.137,2.725,10.513,10.2,15.122,28.053L966.6,469.107l8.605.986.314.146-1.359,5.42-4.507,3.28-17.964,7.306-17.007-5.932-12.017.416-12.7,7.532-2.067-2.023-5.632,1.3-14.552-.387-4.91-3.1-6.779-4.778-10.987-1.886-3.653-16.868-10.615-9.489L835.7,459.252l-2.769-.767-6.466-5.779-11.7.526-20.7-19.761,22.683-16.839,2.637-18.395-3.265-.927-16.693-3.2-8.365,1.68-7.335-4.552-5.026.57-2.484,4.369-4.982-.57-2.586-1.8.087-.957-3-4.778Z" transform="translate(-7.478 -37.113)" fill="#ffeb00" stroke="#000"/><path d="M317.518,87.76l.073-11.528-7.079-5.465-5.026-10.644-2.907.569.5-1.782,10.645-5.647,8.036-9.059,2.2-6.523,21.463,3.806,23.217,4.625,27.212,2.995,16.481,7.963,13.428,11.988,11.827.767,5.282,2.053L467.178,84.5l13.551,16.378,3.821,5.033,18.68,14.012,4.733,7.262,4.507,11.74,3.427,14.443L542.306,168.5l20.557,11.485,9.315,5.121,29.478,14.867,31.121-10.286,5.7.285,11.5,2.5,13.851,3.506,17.95,3.083,6.589,6.29,11.046,8.985,16.664,8.233,10.914,6,15.283,7.978L737.1,249.007l-5.012,1.972,1.169,14.385-2.893,8.306,11,23.173-28.521-1.87.614,5.566-5.881,13.011-10.119,4.639-3.769,4.282-7.89-2.908-7.291,4.479L661.143,325.6l-17.321-2.513,3-16.335-5.136,2.893-5.763-1.344-4.7-17.182-12.069-12.872-17.08,3.82-2.652-1.344-.972-13.88.767-3.142-3.85-7.8-13.311-6.006L579.2,238.919l-7.408-3.01-7.562,2.652-6.363,4.712-1.629-2.513-4.435,3.7-20.659-.1-8.862,8.321-36.3,22.2-19.389-8.635,8.445-18.892-.81-29.478-10.192-4.923-.387,50.751-16.539-6.605-4.07-14.1-2.8-1.11,3.353,11.645-11.587,2.484-8.935-1.081-13.865-5.9-32.875-1.315-14.18.957-5.267-2.024-9.117-2.5-11.126-7.408-.57-2.725-4.208-17.453,9.3-11.111,4.12-14.655-1.972-12.1,1.585-19.046-3.295-11.93-1.9-1.929L330.8,129.466l-1.928,1.709-9.329-3.784L324.417,117l1.016-8.562L321.05,94.8Z" transform="translate(-7.478 -37.113)" fill="#06c" stroke="#000"/><path d="M369.971,539.53l-25.985-8.562-27.381-.855-39.37,3.186-44.592-9.162-15.3-9.928-5.932-10.4,2.527-5.406,21.946-15.911-6.209-17.234-7.693-9.4L209.053,447.8l-20.36-6.378-42.62-1.286-17.109,5.691-15.152,1.213L99.348,442.58,8,436.071l.825-17.753,4.807-10.958-.883-2.871,3.908-3.755,30.449-11.046,17.168-11.374L57,362.33l5.808-9.461,2.213,4.778L61.1,361.826l.986,2.739,9.358,6.809,9.972-5.61,3.2-4.4,11.5-1.768,10.7-9.9,11.644-.241,3.982-7.408-4.733-3.521,11.484-9.191,14.567,1.14,7.452-5.165,8.277-12.456-.357-5.852-4.654-3.783-11.257,4.236-5.9-.927-6.209-6.721-1-5.692L145.4,261.076l16.225-7.262-.73-11.974,6.18-10.4,8.606-2.754,15.151-.431,8.146-3.85,13.53,6.56,11.93,2.083,12.054,8.832,14.881-.329,2.893-.913.073-3.04-7.846-16.364-1.256-12.054,9.833-28.323,14.713-22.917,1.644-21.346L264.3,116.845l14.728-13-3.171-4.493-11.287.373,2.257-5.3-3.2-8.036,9.278-5.866,2.769.27.716,2.7,3.4-4.792,15.97-7.6,9.761-11.032,5.033,10.645,7.065,5.479-.059,11.528,3.565,7.079,4.4,13.638L324.505,117l-4.88,10.389,9.329,3.784,1.929-1.71,8.905,16.335,1.9,1.929,3.3,11.93L343.4,178.7l1.973,12.1-4.12,14.654-9.315,11.112,4.223,17.453.57,2.725,11.125,7.408,9.1,2.5,5.282,2.023,14.18-.957,32.875,1.316,13.865,5.895,8.935,1.081,11.587-2.484-3.354-11.644,2.784,1.11,4.083,14.1,16.54,6.6.373-50.751,10.2,4.924.8,29.477-8.43,18.893-8.1,16.334,20.4,18.22,11.242,10.016,5.947.927,14,11.331,3-.167,2.425,11.331,6.093,6.392,3.25,11.272-5.552-1.41-8.065-7.378-5.99,9.8-5.625.957-4.7.526-2.893-.584-3.5,3.521.044-11.455L482.222,337l-6.538,11.74,5.763,8.605,4.435,2.141-1.973,17.2-5.895-5.946-4.12,5.735,2.484,7.392,2.052,5.093-10.8,2.98-3.7,18.936-5.179,3.382L441.7,392.827l-8.715,1.856-23.743,11.959L396.4,429.815l-10.914,4.179-8.4-8.789-5.348,2.586-9.314-6.852-17.577.373-5.165,3.126L330.6,436.624l-9.249,25.466,12.084,17.394,48.384,36.331,1.994,21.017,7.364,13.157L385.1,549.6Z" transform="translate(-7.478 -37.113)" fill="#ffeb00" stroke="#000"/><text transform="translate(340.196 161.449)" font-size="107.192" font-family="DejaVuSansCondensed-Bold, DejaVu Sans" font-weight="700">15</text><text transform="translate(200.997 354.093)" font-size="107.192" font-family="DejaVuSansCondensed-Bold, DejaVu Sans" font-weight="700">16</text><text transform="translate(517.444 299.829)" font-size="107.192" font-family="DejaVuSansCondensed-Bold, DejaVu Sans" font-weight="700">8</text><text transform="translate(787.861 304.708)" font-size="80.912" font-family="DejaVuSansCondensed-Bold, DejaVu Sans" font-weight="700">14</text><text transform="translate(763.009 499.692)" font-size="77.657" font-family="DejaVuSansCondensed-Bold, DejaVu Sans" font-weight="700">10</text><text transform="translate(803.894 597.63)" font-size="77.657" font-family="DejaVuSansCondensed-Bold, DejaVu Sans" font-weight="700">9</text><text transform="translate(731.006 605.429)" font-size="47.287" font-family="DejaVuSansCondensed-Bold, DejaVu Sans" font-weight="700">6</text><text transform="translate(699.744 606.5)" font-size="19.141" font-family="DejaVuSansCondensed-Bold, DejaVu Sans" font-weight="700">2</text><text transform="translate(758.78 561.046)" font-size="47.287" font-family="DejaVuSansCondensed-Bold, DejaVu Sans" font-weight="700">1</text><text transform="translate(708.936 531.845)" font-size="13.679" font-family="DejaVuSansCondensed-Bold, DejaVu Sans" font-weight="700">4</text><text transform="translate(724.455 534.315)" font-size="13.122" font-family="DejaVuSansCondensed-Bold, DejaVu Sans" font-weight="700">5</text><text transform="translate(741.063 487.202)" font-size="26.144" font-family="DejaVuSansCondensed-Bold, DejaVu Sans" font-weight="700">3</text><text transform="translate(699.743 481.069)" font-size="19.673" font-family="DejaVuSansCondensed-Bold, DejaVu Sans" font-weight="700">7</text><text transform="translate(682.266 379.444)" font-size="47.287" font-family="DejaVuSansCondensed-Bold, DejaVu Sans" font-weight="700">11</text><text transform="translate(542.535 468.219)" font-size="84" font-family="DejaVuSansCondensed-Bold, DejaVu Sans" font-weight="700">12</text><text transform="translate(415.803 415.331)" font-size="46.933" font-family="DejaVuSansCondensed-Bold, DejaVu Sans" font-weight="700">13</text></svg>