<svg xmlns="http://www.w3.org/2000/svg" width="444.62" height="717.419" viewBox="0 0 444.62 717.419"><title>Députés sortants Haute-Corse en 2017</title><path d="M423.168,185.162l0.781-5.783,2.28-13.789,3.187-7.741,0.638-8.327,9.689-18.976-1.989-17.952-2.369-5.842,1.061-10.628-1.836-3.884,0.4-3.968-2.886-5.493,1.393-3.815-1.641-3.493,0.269-7.689-2.174-3.752,0.4-10.759L428.414,47.2l1.372-1.678L423.5,33.26l-1.473-4.042L425.9,15.256,408.362,0l-7.557,3.124-9.3-2.2-5.614,2.443-6.174-.607-6.3,5.2,0.01,11.883,2.886,5.3-1.33,3.837,1.277,1.588-1.256,3.784,4.823,6.844-3.256,7.873,3.979,4.781L365.724,67.143l-2.111,3.288,2.865,5.678,0.095,6.443,5.388,6.338-1.979.712L358.388,109.2l4.163,4.554,3.145,7.8,5.2,5.1,2.063,5.937-1.2,20.522,1.784,12.8-0.369,4.132-6.274,8.618-3.06,2.217-0.464,11.7-11.288,12.142-4.052.153-7.34-12.865-6.3-5.245-0.3-6.338-3.5-2.412L324.284,178l-5.493-8.717-4.021,1-6.834,4.285-15.224-6.522-11.81,3.8-6.237-.185-2.865,3.093-4.111.565-3.33,5.3-6.358.638-1.546,6.058-3.688,5.277-1.4,1.63-4.132-.359,2.6,5.614,6.945,4.1,4.865,11.419,5.678,2.217-4.781,5.926,2.227,5.958,15.039,17.43,0.111,4.111L275.8,259.98l3.556,9.493-3.235,5.267,1.868,0.971,0.412,6.163,3.308,5.308,16.358,18.78,7.731,2.184,5.34-6.09,7.6-1.214L318.816,295l2.369-7.657-0.765-3.852,1.514-1.351,6.1-4.554,21.192,4.507,2.153-1.641,12.068,4.533,10.005-3.462,10.369-3.187,3.763-.38-1.557,5.947,1.71,7.979,7.092,6.76,4.259,0.322,5.319-2.063,2.681,2.733,3.773,0.734,0.617,3.124,4.728-1.546,3.214-4.206,3.319-.95,8.565-5.578,12.211-1.082,4.132,0.528,7.193,6.9,3.609,0.053L459,297.877l-3.05-25.366-5.214-11.224-13.514-18.264-10.3-15.778L420.8,213.219l-0.992-14.39,3.546-9.546Z" transform="translate(-26.261 0.58)" fill="#06c" stroke="#333"/><path d="M150.894,245.487l-7.008,4.285-3.72-1.989-7.989,2.142,1.646,6.031-3.483,5.267,0.681,8.195-2.987,2.966-4.443,4.3-8.8,1.372-4.691-4.063,1.451-4.052-9.9,1.762-5.071,2.074L96.2,261.292l-6.491,3.124-1.646,5.145,4.338,0.185-1.5,3.1,4.412,6.09-5.6,10.232,2.844,5.214,1.425,3.04L83.74,296.03l-5.515,7.3-4.543-2.38-5.135,2.184L69,314.563l-7.8,12.77,2.771-.291,10.163-.575,1.4,5.4-7.514,6.965,3.647,6.918-9.915.506,5.267,5.689,1.414,4.391-3.187,5.72-4.269,3.008L56.39,361.59l-6.38-1.721-1.071,2.422-5.947.28-0.01,2.876-2.2,2.142,4.67,3.472-4.628,2.29,3.451,7.092-7.34,2.792-3.567-.9-5.419,1.721,6.069,1.826,6.348,5.019,5.894-2.248,10.243,0.6,9.689,7.773,10.153,1.145,0.971,6.153,13.894-.258,4.617,3.815,14.142,2.258,6.691,7.915,8.359-.084,13.561,5.383,16.644-8.681,1.916,0.813L156.822,434l7.319,3.71,3.62,4.908-1.425,8.021,10.232,10.8,8.274-1.657,1.525,1.462,4.011,4.475,2.042,5.826,3.826,1.926,10.638,1.018,3.351,5.05,1.894-.369,4.712,6.121,3.773,0.185,1.6,3.319,7.525,3.113,10.079-2.517,1.462,8.913-0.39,10.469,1.868,3.647,5.731,2.3,4.986,17.984-1.868,3.71L256.8,539.6l3.815,4.855,6.021,0.617,8.121,6.227,4.507,8.976-2.021,15.5,1.969,3.33-0.765,3.947,8.876,8.4,3.847,7.34,11.688-2.348,15.614,1.868-2.454,19.714,2.084,3.2,0.2,7.783,2.4,2.733-1.5,13.731-2.628,5.33,6.195,4.823-7.783,9.14,3.493,1.969,6.132-.486,5.2,3.43,1.372,1.588,0.565,2.021-0.258,4.111-5.794,8.739-0.5,3.947-3.852,11.957,3.847,4.723,4.121-.607,11.346,4.939,5.884-2.111,8.237,0.4,2.939,2.733,0.227,4.063,8.047-2.206,4.163-4.812,5.614-2.744,2.348-3.536,10.422-7.145,4.216-.185,6.965,4.628-2.3-9.5,2.348-14.026,2.961-5.34,3.192-13.266-1.414-5.71,0.269-10.316,11.8-19.6,0.691-1.177,7.082-7.588,17.852-27.931,23.456-33.487,3.124-23.467-0.834-8.543,1.958-23.583-2.517-14.738,0.032-12.934,0.876-6.485,2.084-18.532-2.749-10.015-5-17.82-0.95-5.267-2.369-13.081-1.124-12.242,1.177-9.092L460.7,365.5l2.311-9.689-1.124-8.306,0.338-9.957-2.506-7.588-2.084-7.841-0.823-7.43,2.132-16.859-0.549-.28-3.609-.043-7.193-6.907-4.132-.517-12.211,1.082-8.565,5.578-3.319.939-3.214,4.206-4.728,1.557-0.617-3.134-3.773-.734-2.681-2.733-5.319,2.074-4.259-.327-7.092-6.749-1.71-7.989,1.567-5.937-3.773.369L373.4,281.475l-10.005,3.462-12.068-4.543-2.153,1.646-21.192-4.507-6.1,4.554-1.514,1.351,0.77,3.847-2.38,7.657-0.063,5.852-7.615,1.214-5.34,6.079-7.72-2.184-16.369-18.78-3.308-5.308-0.412-6.153-1.868-.982,3.235-5.267-3.556-9.483,4.111-9.345-0.106-4.121L264.7,229.044l-2.227-5.958,4.781-5.926-5.678-2.227-4.865-11.419-6.945-4.09-2.6-5.614-1.836.929-1.214,8.253,1.546,10.216-4.95,3.741-8.036,2-5.525,6.195-3.462,1.3-3.029-2.153-1.277,1.351-8.944,1.473-14.316,3.525-3.578-1.245L190.34,226.3l-5.039,1.61-8.237,5.915-10.469.575-3.288,7.493-3.525,4.068-7.419-1.762Z" transform="translate(-26.261 0.58)" fill="#ffc0c0" stroke="#333"/><text transform="translate(326.852 268.182)" font-size="72" font-family="DejaVu Sans" font-weight="700">1</text><text transform="translate(253.34 455.582)" font-size="72" font-family="DejaVu Sans" font-weight="700">2</text></svg>