<svg xmlns="http://www.w3.org/2000/svg" width="761.301" height="674.618" viewBox="0 0 761.301 674.618"><title>Députés sortants de Wallis-et-Futuna en 2017</title><path d="M437.23,20.228c-9.018,25.123-17.918,57.719-5.831,85.554,5.343,33.495,14.677,67.862,22.493,99.572,4.917,22.912-1.662,66.825,29.635,65.19,3.743,18.015-2.589,26.133,7.726,47.739,13.818,20.212,35.988,24.443,47.959,41.407,12.074,0.79,25.844,9.7,29.628-7.994,24.917,2.122,54.518,16.621,77.484,1.889,22.705-15.906,40.59,23.612,69.531,11.819,20.982,7.4,61.393-13.4,52.574-29.092-28.461,11.229-34.683-28.763-58.5-34.635-15.673-3.606-17.369-8.557-33.337-11.937-22.156-24.642-35.411-51.372-52.5-80.293-23.955-24.292-22.705-42.547-43.79-66.584,0.405-13.31-16.545-16.744-20.151-33.708-20.947,4-23.791-29.78-47.725-22.493-19.258-3.8-8.654-38.138-25.94-38.873-14.4,35.417-28.77-32.281-49.257-27.562h0Zm-144.247.419c-7.726,22.74-41.283,24.711-39.69,55.012-17.857,21.586-13.317,48.652-18.434,74.717-4.437,30.383-11.112,59.586-12.561,90.2,9.828,25.768,10.728,65.513-.021,89.324-1.181,27.629-37.781,24.01-49.614,41.586-35.679,14.739,5.591,60.2-14.835,87.724,2.452,21.29,5.584,48.22,27.328,46.572,6.236,6.009,20.776-10.515,14.024,10.6,4.7,19.354,27.321,20.913,21.373,22.953,14.732-19.024-6.978,38.2,19.855,38.9,4,22.293,13.544,58.322.172,70.438-22.932-15.089,15.37,10.782,4.114,25.892,4.876-20.9,7.15,2.672,10.185,6.545,9.746-15.61,29.23,32.526,30.555-2.72,6.875-18.152,16.085-44.545,27.122-22.829,12.644-2.9,24.766,43.921,35.885,10.543,27.19-8.667,8.99-52.553-14.072-40.067-16.565-18.633,12.96-44.5-12.589-38.475,2.555-23.365,14.9-38.323,4.725-57.938,4.732-25.432,16.3-39.264,4.766-62.615,3.825-19.1,20.933,13.578,19.072-13.764-8.715-30.48-7.8-60.514,8.551-92.058,4.334-15.576,20-5.618,21.813-3.578-16.215-27.067,14.1-61.77,17.122-91.564-8.324-20.6-.982-58.322-23.557-70.919-22.644-11.793-25.418-50.212-23.09-74.407-16.641-4.725-7.644-57.409-28.323-64.3-12.98-12.781-21.689-33-29.546-31.428l-0.33-4.333h0ZM802.838,425.066C783.6,436.6,760.058,438.83,749.22,461.913c-22.012,23.317-32.856,66.853-21.833,93.686,10.611,20.432,42.5-9.052,55.156,22.76,7.225,18.31,5.254,40.7,23.674,43.626,15.673-30.329,38.145-56.928,59.93-83.624,12.294-15.048,59.717-33.385,47.725-50.033-8.5-31.922-47.135,5.179-65.465-22.63-6.422-20.446-8.187-42.533-33.722-38.041C810.75,426.564,807.234,423.631,802.838,425.066Z" transform="translate(-155.997 -18.491)" fill="#ffc0c0" stroke="#000" stroke-width="3"/><text transform="translate(255.831 572.687)" font-size="172.46" font-family="DejaVu Sans" font-weight="700">1</text></svg>