<svg xmlns="http://www.w3.org/2000/svg" width="432.973" height="682.173" viewBox="0 0 432.973 682.173"><title>Députés sortants Corse-du-Sud en 2017</title><path d="M323.483,191.126L325.555,187l-5.521-19.953-6.37-2.553-2.073-4.046,0.433-11.616-1.622-9.889-11.183,2.8-8.349-3.466L289.1,134.6l-4.186-.193-5.228-6.8-2.1.422-3.718-5.6-11.8-1.13-4.233-2.148-2.278-6.452-4.45-4.965-1.692-1.622-9.18,1.838-11.353-12,1.581-8.9L226.437,81.6l-8.121-4.116,0.357-20.527-2.126-.913-18.467,9.637-15.047-5.972-9.274.082-7.424-8.771L150.646,48.5l-5.123-4.233-15.416.287-1.077-6.827-11.265-1.259-10.75-8.624L95.65,27.169l-6.54,2.494L82.067,24.1,75.333,22.07l1.909,3.97L73.73,28.873l-8.472.011L64.608,24.1l-2.553-.96-1.2,8.027,2.113,0.8,3.326,3.144-0.837,9.14,1.657,9.01,4.4,0.047L83.285,42.222l4.485-.925,8.589,3.648,5.51,7.184-1.37,4.45L88.847,64.32l0.814,4.549,3.489,2.594,9.116-1.774,4.631,4.766,3.454,2.219,8.314-1.37,0.011,2.266,5.925,3.179,2.869,8.168,4.5,0.094,1.68,4.766-0.825,7.705L110.2,105.848l-3.777,2.7-13.484-.334-0.96,2.137-19.4,7.705-4.631,2.172-4.127-3.408L58.595,119l6.277,6.956,4.221-2.781,4.561,0.41,1.786,2.553-3.133,4.3,4.092,3.97-3.3.89-0.913,5.17,5.989-1.271-0.732,8.425L79.8,155.34l2.014,1.359-2.161,1.669-8.062.422-3.062,3.6,4.321,2.564,9.707-1.85,2.951,3.887-7.091,5.556-8.337,3.742-1.329,4.175,8.039-4.549,4.438,1.165,3.513,5.51-6.68,10.141,17.851-3.671,1.809,6.347,8.039-.275,0.527,2.605,4.38-.755,3.285,2.834,3.777,7.933,2.061,0.878,8.554-1.979,4.584-4.749,6.025,1.8,4.017,9.837-1.622,6.517,2.161,0.585,3.419,5.732,1.657,8.876,8.759-.3,2.88,3.454-0.264,1.487,2.049,6.312-3.923,5.638-6.944-1.212v3.958l-5.925,4.233-12.442,1.534-8.074,4.678-7.1,6.13-0.866,4.4-0.96,1.85,2.207,5.82,4.151-.357,0.825,1.932-0.31,5.387-9.8,8.852-6.563.849-6.312-1.885-4.5-.539-9.912,5.17,7.728,15.885,4.508-.17,2.231,3.817-5.949,14.936,0.913,6.78-1.8,4.233,13.712-8.279,4.461-1.054,13.759,2.857,9.081-2.231,11.686,0.24,2.266-.609,10.041-6.036L158.715,326,155.8,315.946l5.433-7.582,0.89-3.25,4.848,1.37-0.422,4.736,2.219,3.542,3.993,1.968,8.841-.334,8.83,2.927v3.636l3.291,0.539-0.585,4.942,5.135,2.1-2.793,3.577-4.356,1.61L189.294,340l0.72,2.014,5.7-2.494,1.968,0.8,5.018-4.028,4.127,0.948,13.016-9.661-4.907-9.813,9.058-8.665,10.58-2.049,6.025-6.932,16.8-6.587,2.243-3.982,1.522-4.057,13.677-10.416,2.113-3.694,13.87-7.81,1.885-4.3,5.492-4.38-0.193-4.461,6.827,6.142,8.519-3.525,9.1,0.627,5.568-3.911,4.538,0.837,6.575-2.289,3.764-1.042,1.066-4.344,10.2-4.508-2.2-3.707,2.254-17.2-5-9.96-9.01-6.909-6.692-.685-4.221-5.387Z" transform="translate(-57.751 -21.264)" fill="#06c" stroke="#333"/><path d="M354.069,238.533L344,242.925l-1.1,4.391-3.841,1.1-6.587,2.2-4.573-.732-5.492,3.841-9.145-.55-8.419,3.478-6.956-6.218L298.072,255l-5.5,4.391-1.821,4.21-13.905,7.869-2.025,3.659L261.1,285.56l-1.464,4.028-2.377,4.034-16.651,6.587-6.036,6.956-10.6,2.014-9.145,8.6,4.942,9.883-12.992,9.7-4.21-.913-4.942,4.034-2.014-.913-5.685,2.564-0.732-2.014,1.827-4.21,4.391-1.645,2.746-3.659-5.123-2.014,0.55-4.942-3.285-.55v-3.659l-8.782-2.927-8.782.357-4.034-2.014-2.2-3.478,0.363-4.754-4.754-1.464-0.9,3.291-5.5,7.5,2.927,10.065,3.478-2.927,2.2,0.363,4.391,5.492,4.391-1.645,4.391,1.1L187,341.568l2.377,8.612-2.927,3.285-8.051,3.659,0.732,6.218,3.291,3.109,0.55,10.065-3.291,3.478-13.905,1.827v1.645l4.391,1.1,8.782,7.319-3.829,5.673-1.294,6.956-6.956,1.294-1.645-1.645-2.2.913-7.5,8.221-10.978-2.014-0.9,2.014,9.883,12.272-9.145,13.174-13.905,8.051-8.419-2.757-3.478,2.927-0.55,2.377,0.9,2.014,4.573-1.1,16.1,2.014,1.645,1.645-0.182,9.145,2.2,0.732,29.275-12.26,4.391,0.363,3.109,3.285-5.3,12.442,6.405,8.782,2.025,0.55,4.942-4.749,6.405-2.57,6.218,2.927,8.419,7.682,17.746,1.645,5.673,3.659,11.347-.732,1.827,6.218-16.283,7.319-3.478,13.174-3.291,3.109-1.645-1.464-6.956.732-17.2,10.8-6.587-4.942-2.2,3.659-3.659,2.564-1.645,15.738-5.123,9.883,1.464,2.025,4.028,1.634,4.573,7.88-4.754,4.942-2.2,3.478,5.3,3.109,6.036-.55,2.014,2.014,4.573,4.749,9.145,0.562,6.036,2.746,0.17,4.573-5.492,7.489,2.2,3.659,5.123-.55,9.333-3.841,7.5,6.218-2.377,5.673,14.087-.913,3.841,12.272,6.956-3.489,2.746,3.109,11.16-.182,9.514,9.344,6.405-6.036,2.025,4.573,3.478,2.927,5.492-2.757-0.55,5.3L299.9,637.6l6.587-5.673,1.282,8.419,5.673-2.746,9.514-9.883,4.391-.913-5.673,9.7-0.55,8.782,2.564,3.659,4.21,1.464,7.137-5.123,2.014,4.028,8.782,1.645,0.732,2.2-5.673,6.956-0.182,4.573-4.561,4.754-2.927,8.782,2.014,4.028,2.377,0.55,13.724-2.746,5.492,4.391L363.6,684.8l1.464,0.913-1.645,1.645,8.782,2.014,4.391,10.246,2.014,1.1,18.3-1.282,1.827-6.587,10.609-14.637,3.1-6.218,3.659-2.564,2.57-8.782-2.2-.55-5.855,3.291L400.551,672.9l-2.025,1.1-2.014-.732-1.282-4.391,4.028-1.464,1.827-6.587-1.645-4.391,0.55-6.405,8.612-3.478,9.883-9.889,4.391-1.464,0.182-4.21,5.492-4.21,2.014-4.21-1.282-10.609-4.028,2.2-2.2-3.841,5.123-7.869-3.841-7.869,0.55-2.014,6.587-2.2,6.036-7.319,11.16-8.782,6.587-1.645,5.492-3.291,1.827-8.782,8.051-10.8-0.913-2.014-4.573.182-6.587.913-4.942-4.942-6.768-1.282-10.609,12.067-2.014.913-3.659-2.927-1.645-4.21L430.2,541.5l9.333-6.587v-6.768l4.221-1.827-0.182,2.2,4.942,4.942,13.724-.55,1.1-3.841-2.927-6.036L462.425,519l4.573-.55,3.841,2.2,7.682-8.419,0.363-11.347-5.3-6.961,4.942-7.5,8.051-4.028,2.2-11.347-1.282-4.21,1.821-4.028-1.1-4.391,2.014-22.688-0.913-4.391-4.21-1.827,1.106-8.964-1.827-6.768,5.123-15.551-1.645-25.434-7.682-5.123-4.754.182-11.528,7.869-2.564,4.028-6.218,2.927-4.573,5.3-8.952,2.564-0.363-4.561-3.291-2.927-8.964-.562-6.587,2.377-12.623-5.492-4.573.732-4.21-5.3,4.21-13.174,0.562-4.391,6.405-9.7,0.357-4.573-0.732-2.2-1.464-1.821-5.855-3.841-6.757.55-3.841-2.2,8.6-10.065-6.768-5.492,2.927-5.855,1.645-15.2-2.746-3.1-0.182-8.612-2.377-3.478,2.746-21.956L380.5,257.7l-12.992,2.564-4.391-8.051-9.7-9.333Zm62.578,457.955-2.746,1.827v1.1l3.109,1.464,1.282,1.827,1.1,0.182,1.1-1.827,2.025,0.363L423.8,699.6l-0.363-.913-2.377-.17-1.1-1.827Z" transform="translate(-57.751 -21.264)" fill="#06c" stroke="#333"/><text transform="translate(131.871 195.341)" font-size="72" font-family="DejaVu Sans" font-weight="700">1</text><text transform="translate(221.851 433.737)" font-size="72" font-family="DejaVu Sans" font-weight="700">2</text></svg>