<svg xmlns="http://www.w3.org/2000/svg" width="918.123" height="531.539" viewBox="0 0 918.123 531.539"><title>Députés sortants de Polynésie française en 2017</title><path d="M214.822,170.447c-12.667,8.254-28.452,8.421-42.271,11.651-17.6,1.688-2.178,21.108-11.145,29.013-3.816-6.95.071-23.251-10.66-25.854-15.027-3.821-26.764,5.646-27.972,21.335,3.225,6.682,8.85,27.148-1.43,11.155-0.834-16.043-15.962-26.1-30.019-23.7-11.024-2.391-13.779.01-24.2-.2-9.058-.879-13.253,7-6.025-3.108,0.091-7.86-22.22,4.008-11.838,7.642,10.847-1.471-3.68,22.457,7.026,29.417,1.719,10.225,9.538,21.583,17.564,28.805,12.348,8.972,27.456,14.405,32.329,29.21,4.286,14.066,21.062,9.755,22.381,23.19,8.234,1.562,10-8.315,11.256,1.815,6.864,10.139,28.907,4.62,41.32,3.9-0.409-9.134,13.005-12.111,12.353-24.929,6.237-4.372,4.488-20.673,10.6-24.62,13.976-5.53,18.944-19.874,11.125-32.97,4.741-6.318,8.916-16.336,12.348-24.5,3.917-5.55,24.044-9.821,8.133-17.069-10.523-3.6-9.209-17.59-20.875-20.179h0Zm307.834,50.4c-7.081,2.841-15.411,12.555-22.589,5.125-5.838,8.936-19.778-5.368-25.7,5.52-9.73-2.861-25.48,2.815-29.811,7.789,17.382,6.152-14.42,15.5,6.52,19.121,13.612,9.558,27.284,19.278,43.175,24.8,10.751,1.233,19.94,25.854,26.4,9.042,8.674-10.635,14.845-23.968,11.8-38.075C530.121,242.672,527.973,231.369,522.656,220.846Z" transform="translate(-45.007 -118.151)" fill="red" stroke="#000" stroke-width="3"/><path d="M913.894,647.941c-16.25-3.664-29.245-3.033-42.129-12.742-16.21-4.953-30.979-6.793-48.195-8.153-7.162-9.371-23.4-11.9-28.325-22.24-8.769-11.737-21.664-18.54-28.068-27.684,7.162-14.79-1.5-35.154-14.481-45.344-3.654-3.406.2-19.318-13.086-24.322,5.484-11.292-29.154-18.641-4.8-25.894,11.449,0.652-3.361-10.8-4.908-11.444-8.628,10-14.638,8.618-12.207,23.347-7.556,8.679-24.59,17.347-36.751,13.339-10.9,1.39-26.283-1.335-28.32,12.666-14.168,1.572-27.456,4.61-43.686,4.114-11.711-3.108-21.32,16-33.38,6.662-17.716,7.829-17.736-15.922-36.5-13.652-14.87-3.189-27.921-6.071-38.419-13.612-14.951-1.562-27.881-.571-40.224-7.021-17.878-5.211-20.132-17.266-21.239-34.84-6.586-18.075-.238-40.011-14.051-55.66-0.991-15.669-23.013-36.852-20.971-43.4,22.856,0.591,52.274-3.068,63.227-26.359,4.5-18.8,28.335-12.555,41.391-18.166,8.552-8.143,7.461-21.254,16.462-29.559,14.325-16.715,7.839-39.627,2.568-58.354-16.594-16.386,15.062-18.914,7.248-35.331,14.592,0.652,27.234,19.369,43.277,13.01,16.478,4.741,35.215-3.832,48.5,8.7,16.786-.091,29.827,12,41.361,23.16,16.948,10.6,41.9,1.284,55.928,20.289,0.768,15.341,17.964,19.162,24.742,30.929,1.491,11.924,3.654,16.043,9.336,30.387,4.61,16.563-5.237,35.144-8.668,49.519-6.242,13.121,1.092,30.12,8.653,39.274,0.071,18.292-8.365,42.7,4.18,57.278,19.47,4.028,41.275,22.22,61.336,8.193,12.919,2.8,29.7-1.946,35.73,11.433,15.785-5.58,23.1,12.449,41.892,8.755,11.15,5.767,14.85-2.391,19.435-8.567,2.962,17.226,24.373,22.321,32.632,39.233,7.981,6.8,4.595,26.607,6.177,34.78-4.246,9.417,8.426,21.815-2.482,34.057,0.526,12.616-4.842,23.822-12.742,32.667C943.61,637.989,924.771,650.084,913.894,647.941Z" transform="translate(-45.007 -118.151)" fill="#f90" stroke="#000" stroke-width="3"/><path d="M440.525,253.079c-5.161,2.249-10.8,3.22-16.058,1.587-5.8-.445-9.391,5.727-14.365,7.946-2.3,3.761-4.9,1.607-8.1,1.067-5.717-1.354-.965,9.775-7.309,9.558-5.883,4.681,6.768,7.9,2.335,12.752-4.387-3.988-4.716,4.1-1.284,5.034-2.29,3.543,3.306,6.627,1.228,10.842,2.027,4.868,4.276,9.2,5.226,14.491,0.794,4.807-3.24,8.315-1.415,13.5-0.824,3.482.414,6.95-3.437,9.063,3.477,3.189.435,8.6,4.665,10.877,2.118,4.382-6.252,12.687,1.9,11.059,7.713-.177,15.507.238,23.165-0.758a86.231,86.231,0,0,0,15.047-4.6c4.443-.738,8.158-3.71,11.974-5.656,4.145-3.159,7.92-6.5,10.084-11.312,3.376-3.988,3.452-10.18,7.764-13.258a29.149,29.149,0,0,1,15.927-4.9c5.06-.8,10.028-2.113,15.239-2.022,4.756-.051,7.688-4.372,9.892-7.935,1.88-2.735,1.577-7.021.536-9.881-3.053-2.871-4.943-6.849-8.486-9.25-4.7-2.1-8.486-5.8-13.243-7.663-4.5-1.815-8.749-3.72-13.041-5.944-5.459-1.815-9.77-5.727-14.709-8.512-4.16-4.019-9.4-6.454-14.006-9.765-3.164-1.865-7.208-3.674-9.533-6.318h0Z" transform="translate(-45.007 -118.151)" fill="red" stroke="#000" stroke-width="3"/><text transform="translate(285.444 114.927)" font-size="120.242" font-family="DejaVu Sans" font-weight="700">1</text><text transform="translate(521.444 319.927)" font-size="120.242" font-family="DejaVu Sans" font-weight="700">2</text><text transform="translate(370.777 216.337)" font-size="74.447" font-family="DejaVu Sans" font-weight="700">3</text><polyline points="395.519 134.928 329.993 120.849 297.993 141.319 246.66 176.182 207.993 188.917 136.132 196.567" fill="none" stroke="#000" stroke-width="3" stroke-dasharray="12"/><polyline points="169.815 52.296 241.327 1.516 323.327 4.182 382.66 20.182 413.327 47.516 477.649 102.695" fill="none" stroke="#000" stroke-width="3" stroke-dasharray="12"/></svg>