<svg xmlns="http://www.w3.org/2000/svg" width="747.1" height="670.424" viewBox="0 0 747.1 670.424"><title>Députés sortants de la Réunion en 2017</title><path d="M512.524,675.1l-17.241-5.167-8.789,1.3-18.224-13.122L425.443,642.5l-18.336-.466L396.9,632.979l-17.854-2.614L375,628.117l-11.58-14.239-27.059-5.327-12.055-6.79-16.64-21.927L327.1,568.362l43.237-11.5,12.391-12.716,6.169-12.211-0.383-9.118,11.2-7.249,28.1,36.4L442.2,563.474l-1.795,9.091,24.822,20.524L483,588.739l27.534-16.76,11.144-14.718,26.425-18.15L546.6,511.8l5.358-26.835,13.486-29.189,17.115-15.2,8.267-3.465,15.3,10.023,5.417,12.743-0.02,13.368L603.6,489.28l2.567,3.665,35.313,3.738,4.685,32.229,11.791,14.053-5.767,41.387,13.566,34.723-0.831,18.655L673.24,659.4l0.686,9.377-6.044,7.076-22.948-1.882-10.187,9.171-18.138,1.909L604.046,691l-16.739-7.016-31.578,4.6-25.884-18.741-4.566.765Z" transform="translate(-84.488 -22.218)" fill="#ff8080" stroke="#000" stroke-width="3"/><path d="M310.874,164.151l2.284-31.872-16.28-21.909-6.14-21.955L279.061,68.935l-2.284-13.543L301.9,36.226l30.536-8.817,22.42,2.559,11.868-6L388.835,39.7l22.465,2.52L408.342,61.5l15.867,1.3-10.087,10.7-0.367,11.861-3.7,4.17-3.09,13.89-3.829,5.151L398.8,129.137l-4.445,45.67,5.485,12.961-10.977,14.506-9.334,6.7-12.745-18.885-14.3-11.311Z" transform="translate(-84.488 -22.218)" fill="#ff8080" stroke="#000" stroke-width="3"/><path d="M158.251,134.93l10.879-28.219,0.1-12.457,8.549-.766,34.235,8.863,10.061-5.865,16.037-7.155L248.3,75.173,276.783,55.4l2.284,13.543,11.678,19.481,6.14,21.955,16.28,21.909-2.284,31.872,41.612,14.637L366.8,190.1,379.54,208.99l0.635,13.367-9.007,9.688-0.825,31.6L361.735,273.7l0.072,4.523,21.614,21.948-15.154,21.294-35.014,18.407-29.1-22.23-12.9-25.149-33.993.5-7-5.656-15.062.137L201.277,270.92,197,263.746l-9.269-.118L175.859,252.2l-8.837-2.821-6.068-4.51-5.662,4.589-11.756-7.763L125.044,212.78l8.909-3.129,24.233-21.012Z" transform="translate(-84.488 -22.218)" fill="#d00" stroke="#000" stroke-width="3"/><path d="M372.333,556.1l-41.861,9.387L329.288,548.3l11.822-12.732-13.943-4.281,8.392-16.725-8.981-5-6.061-15.134,6.912-26.57L349.92,449.4l-7.22-13.327,1.813-8.857-20.947-23.323-11.233-24.455,0.183-3.325-1.5-8.117,14.028-20.05,8.189-8.045,35.014-18.407,15.154-21.3,14.774,8.68L420.74,333.38l10.572,14.407,3.168,22.151,24.344-5.08L480.582,364l12.424,4.006,20.934-5.845,10.395,8.045L537.642,412.4l19.631,11.279,13.628,1.041,19.062-18.289,30.045,45.448-7.96,11.658L606.674,451l-15.18-9.865-8.2,3.417L566.313,459.5l-13.38,28.73-5.315,26.412,1.492,26.884-26.216,17.864L511.838,573.88l-27.316,16.5-17.635,4.281-24.625-20.2,1.78-8.948-14.27-11.318-27.879-35.838-11.108,7.135Z" transform="translate(-84.488 -22.218)" fill="#ff8080" stroke="#000" stroke-width="3"/><path d="M449.325,200.258l-13.8-10.513-46.659,12.542-9.334,6.7,0.635,13.367-9.007,9.688-0.825,31.6L361.729,273.7l0.072,4.523,21.614,21.948,14.774,8.68,22.564,24.508,10.572,14.407,3.168,22.151,24.344-5.086,21.758-.851,12.424,4.006,20.934-5.852,10.395,8.045,13.308,42.194,19.631,11.279,13.628,1.041L589.976,406.4l30.045,45.441-7.96,11.665-0.02,13.157-7.855,15.788,2.546,3.607,35.033,3.679,4.648,31.721,11.7,13.831-5.721,40.735L665.849,620.2l-0.825,18.361,8.248,21.326,0.681,9.229-6,6.965L725.992,664.5l7.986-4.523,18.2,1.636,4.556-.589,8.11-4.373L786.207,639.1l10.107-15.468,1.761-4.281L793.087,592.2l3.725-32.042L790.534,528.8l2.455-13.438,4.759-23.1,7.541-25.837,11.455-13.831,1.61-18.224,10.827-7.4,0.9-4.5-2.01-27.191-10.408-20.3L801.354,367.2l-17.176-14.938-17.589-3.031-18.165-25.98-37.246-45.873-6.14-12.3L704,251.538l-13.406-18.479-15.127-9.681-7.286-26.321-0.007-35.223-5.112-17.347-16.1-27.06-26.864,23.179-6.592.838-8.457-18.931-0.53-18.623-6.448-1.25,3.024,8.49L586.7,128.8l-13.21,2.428-30.955,19.009-26.766,30.981-22.714,15.134-17.667-1.414Z" transform="translate(-84.488 -22.218)" fill="#ff8080" stroke="#000" stroke-width="3"/><path d="M388.861,202.287l10.977-14.506-5.485-12.961,4.445-45.67,4.333-20.574,3.829-5.151,3.09-13.89,3.7-4.17L414.122,73.5l10.087-10.7-15.867-1.3L411.3,42.228l17.556-4.556,48.02,15.383,22.4-2.854,17.916,3.463,7.986,3.62,12.869-1.715,34.575,18.937,8.765-.439,21.641,6.022,23.015,14.1,20.907,23.277-26.864,23.179-6.592.838-8.457-18.931-0.53-18.623-6.448-1.25,3.024,8.49-2.317,3.96L586.69,128.842l-13.21,2.428L542.525,150.28l-26.766,30.981L493.045,196.4l-17.667-1.414-26.059,5.276-13.8-10.513Z" transform="translate(-84.488 -22.218)" fill="#ffeb00" stroke="#000" stroke-width="3"/><path d="M163.39,452.057l14.466,33.953,32.6,24.946,1.63,5.42,10.408,8.464,2.645,17.615,8.824,10,31.387,4.641,29.882,10.447L310.566,581.6l19.9-16.123-1.185-17.183L341.1,535.562l-13.943-4.281,8.392-16.725-8.981-5-6.061-15.134,6.912-26.57,22.492-18.459-7.22-13.327,1.813-8.857L323.56,403.885,312.327,379.43l0.183-3.325-1.5-8.117,14.028-20.05,8.189-8.045-29.1-22.23-12.9-25.149-33.993.5-7-5.656-15.062.137-24.272-13.936-9.655-2.618-4.274-7.174-9.269-.118-11.874-11.429L167,249.4l-6.068-4.5-5.662,4.582-11.756-7.763L125.018,212.8l-4.085,1.551-13.74-.151L88.283,234.406l-2.14,4.118L86,243.165l7.24,16.941L89.3,288.56l16.345,21.824,24.449,20.8,1.774,8.418,19,24.756-0.556,13.812L169.2,397.5l0.537,27.623Z" transform="translate(-84.488 -22.218)" fill="#f90" stroke="#000" stroke-width="3"/><text transform="translate(252.512 84.782)" font-size="72" font-family="DejaVu Sans" font-weight="700">1</text><text transform="translate(150.512 182.782)" font-size="72" font-family="DejaVu Sans" font-weight="700">2</text><text transform="translate(122.512 384.782)" font-size="72" font-family="DejaVu Sans" font-weight="700">7</text><text transform="translate(332.512 449.782)" font-size="72" font-family="DejaVu Sans" font-weight="700">3</text><text transform="translate(459.512 620.782)" font-size="72" font-family="DejaVu Sans" font-weight="700">4</text><text transform="translate(522.512 321.782)" font-size="72" font-family="DejaVu Sans" font-weight="700">5</text><text transform="translate(362.512 117.782)" font-size="72" font-family="DejaVu Sans" font-weight="700">6</text></svg>