<svg xmlns="http://www.w3.org/2000/svg" width="747.102" height="670.421" viewBox="0 0 747.102 670.421"><title>Députés sortants de la Réunion en 2017</title><path d="M428.036,652.882l-17.241-5.167-8.789,1.3-18.224-13.122-42.827-15.611-18.336-.466-10.207-9.055-17.854-2.614-4.046-2.248-11.58-14.239-27.059-5.327-12.055-6.79-16.64-21.927,19.434-11.472,43.237-11.5,12.391-12.716,6.169-12.211-0.383-9.118,11.2-7.249,28.1,36.4,14.386,11.506-1.8,9.091,24.822,20.524,17.773-4.35,27.534-16.76,11.144-14.718,26.425-18.15-1.5-27.311,5.358-26.835,13.486-29.189,17.115-15.2,8.267-3.465,15.3,10.023,5.417,12.743-0.02,13.368-7.923,16.035,2.567,3.665,35.313,3.738,4.685,32.229,11.791,14.053L567.7,562.134l13.566,34.723-0.831,18.655,8.316,21.67,0.686,9.377-6.044,7.076-22.948-1.882-10.187,9.171-18.138,1.909-12.563,5.949-16.739-7.016-31.578,4.6-25.884-18.741-4.566.765Z" transform="translate(-0.003 -0.003)" fill="#ff8080" stroke="#000" stroke-width="3"/><path d="M226.386,141.933l2.284-31.872L212.39,88.152,206.25,66.2l-11.677-19.48-2.284-13.543,25.123-19.166,30.536-8.817,22.42,2.559,11.868-6,22.111,15.732L326.812,20l-2.958,19.28,15.867,1.3-10.087,10.7-0.367,11.861-3.7,4.17-3.09,13.89-3.829,5.151-4.336,20.565-4.445,45.67,5.485,12.961-10.977,14.506-9.334,6.7L282.3,167.871,268,156.56Z" transform="translate(-0.003 -0.003)" fill="#ff8080" stroke="#000" stroke-width="3"/><path d="M73.763,112.712L84.642,84.493l0.1-12.457,8.549-.766,34.235,8.863,10.061-5.865,16.037-7.155,10.188-14.158,28.483-19.773,2.284,13.543,11.678,19.481,6.14,21.955,16.28,21.909-2.284,31.872,41.612,14.637,14.307,11.3,12.74,18.89,0.635,13.367-9.007,9.688-0.825,31.6-8.608,10.055,0.072,4.523,21.614,21.948-15.154,21.294-35.014,18.407-29.1-22.23-12.9-25.149-33.993.5-7-5.656-15.062.137L116.789,248.7l-4.277-7.174-9.269-.118L91.371,229.982l-8.837-2.821-6.068-4.51L70.8,227.24l-11.756-7.763L40.556,190.562l8.909-3.129L73.7,166.421Z" transform="translate(-0.003 -0.003)" fill="#d00" stroke="#000" stroke-width="3"/><path d="M287.845,533.882l-41.861,9.387L244.8,526.082l11.822-12.732-13.943-4.281,8.392-16.725-8.981-5-6.061-15.134,6.912-26.57,22.491-18.458-7.22-13.327L260.025,405l-20.947-23.323L227.845,357.22l0.183-3.325-1.5-8.117,14.028-20.05,8.189-8.045,35.014-18.407,15.154-21.3,14.774,8.68,22.565,24.506,10.572,14.407,3.168,22.151,24.344-5.08,21.758-.858,12.424,4.006,20.934-5.845,10.4,8.045,13.307,42.194,19.631,11.279,13.628,1.041,19.062-18.289,30.045,45.448-7.96,11.658-5.374-12.537-15.18-9.865-8.2,3.417-16.981,14.948-13.38,28.73-5.315,26.412,1.492,26.884-26.216,17.864-11.056,14.49-27.316,16.5L382.4,572.443l-24.625-20.2,1.78-8.948-14.27-11.318-27.879-35.838L306.3,503.274Z" transform="translate(-0.003 -0.003)" fill="#ff8080" stroke="#000" stroke-width="3"/><path d="M364.837,178.04l-13.8-10.513-46.659,12.542-9.334,6.7,0.635,13.367-9.007,9.688-0.825,31.6-8.606,10.058,0.072,4.523,21.614,21.948,14.774,8.68,22.564,24.508,10.572,14.407L350,347.7l24.344-5.086,21.758-.851,12.424,4.006,20.934-5.852,10.4,8.045,13.308,42.194L472.8,401.434l13.628,1.041,19.061-18.293,30.045,45.441-7.96,11.665-0.02,13.157L519.7,470.233l2.546,3.607,35.033,3.679,4.648,31.721,11.7,13.831L567.9,563.806l13.457,34.176-0.825,18.361,8.248,21.326,0.681,9.229-6,6.965L641.5,642.282l7.986-4.523,18.2,1.636,4.556-.589,8.11-4.373,21.363-17.551,10.107-15.468,1.761-4.281L708.6,569.982l3.725-32.042-6.278-31.358,2.455-13.438,4.759-23.1,7.541-25.837,11.455-13.831,1.61-18.224,10.827-7.4,0.9-4.5-2.01-27.191-10.408-20.3-16.309-7.779L699.69,330.044,682.1,327.013l-18.165-25.98L626.69,255.16l-6.14-12.3-1.038-13.54-13.406-18.479-15.127-9.681-7.286-26.321-0.007-35.223-5.112-17.347-16.1-27.06L535.61,118.388l-6.592.838-8.457-18.931-0.53-18.623-6.448-1.25,3.024,8.49-14.395,17.67L489,109.01l-30.955,19.009L431.281,159l-22.714,15.134L390.9,172.72Z" transform="translate(-0.003 -0.003)" fill="#ff8080" stroke="#000" stroke-width="3"/><path d="M304.373,180.069l10.977-14.506L309.865,152.6l4.445-45.67,4.333-20.574,3.829-5.151,3.09-13.89,3.7-4.17,0.372-11.865,10.087-10.7-15.867-1.3,2.958-19.272,17.556-4.556,48.02,15.383,22.4-2.854L432.7,31.446l7.986,3.62,12.869-1.715,34.575,18.937,8.765-.439,21.641,6.022,23.015,14.1,20.907,23.277L535.6,118.427l-6.592.838-8.457-18.931-0.53-18.623-6.448-1.25,3.024,8.49-2.317,3.96L502.2,106.624l-13.21,2.428-30.955,19.01-26.766,30.981-22.714,15.139-17.667-1.414-26.059,5.276-13.8-10.513Z" transform="translate(-0.003 -0.003)" fill="#ff8080" stroke="#000" stroke-width="3"/><path d="M78.9,429.839l14.466,33.953,32.6,24.946,1.63,5.42,10.408,8.464,2.645,17.615,8.824,10,31.387,4.641,29.882,10.447,15.334,14.057,19.9-16.123-1.185-17.183,11.819-12.732-13.943-4.281,8.392-16.725-8.981-5L236.019,472.2l6.912-26.57,22.492-18.459-7.22-13.327,1.813-8.857-20.944-23.324-11.233-24.455,0.183-3.325-1.5-8.117,14.028-20.05,8.189-8.045-29.1-22.23-12.9-25.149-33.993.5-7-5.656-15.062.137-24.272-13.936-9.655-2.618-4.274-7.174-9.269-.118L91.34,230l-8.828-2.82-6.068-4.5-5.662,4.582L59.026,219.5l-18.5-28.919-4.085,1.551-13.74-.151L3.795,212.188l-2.14,4.118-0.143,4.641,7.24,16.941-3.94,28.454,16.345,21.824,24.449,20.8,1.774,8.418,19,24.756-0.556,13.812,18.888,19.33L85.249,402.9Z" transform="translate(-0.003 -0.003)" fill="#f90" stroke="#000" stroke-width="3"/><text transform="translate(252.509 84.779)" font-size="72" font-family="DejaVu Sans" font-weight="700" style="isolation:isolate">1</text><text transform="translate(150.509 182.779)" font-size="72" font-family="DejaVu Sans" font-weight="700" style="isolation:isolate">2</text><text transform="translate(122.509 384.779)" font-size="72" font-family="DejaVu Sans" font-weight="700" style="isolation:isolate">7</text><text transform="translate(332.509 449.779)" font-size="72" font-family="DejaVu Sans" font-weight="700" style="isolation:isolate">3</text><text transform="translate(459.509 620.779)" font-size="72" font-family="DejaVu Sans" font-weight="700" style="isolation:isolate">4</text><text transform="translate(522.51 321.779)" font-size="72" font-family="DejaVu Sans" font-weight="700" style="isolation:isolate">5</text><text transform="translate(362.509 117.779)" font-size="72" font-family="DejaVu Sans" font-weight="700" style="isolation:isolate">6</text></svg>
