<svg xmlns="http://www.w3.org/2000/svg" width="788.194" height="981.884" viewBox="0 0 788.194 981.884"><title>1T Législatives 2017 Vienne</title><path d="M156.025,347.4l-4.644,3.606-11.07-2.89,1.193,14.129-2.385,1.7-11.035-3.136-0.309,4.5-8.6-2.645-5.072,6.756-5.921-.989-5.079,2.89-4.687,10.839,3.908,7.977,2.056,8.685-2.757,1.165-5.395-.435-11.379,8.727-2.54,1.578,1.88,8.769-1.592,5.591-10.951,4.371,5.22,10.1L63.709,450.256l8.867-.688,9.141-7.492,16.83,4.314,14.115-1.326,1.957,2.231,5.886-6.868,10.081-11.589,2.771-1.017,12.936,6.756,3.7-4.56,7.4-8.91,3.908-4.469,11.428-1.9,5.781,6.756,1.789,9.057-8.987,10.537,4.209,20.773,22.071,3.935,3.479-4.525,3.508,2.455,4.756,2.329,0.133,8.152-3.76,3.943,11.863,2.013,8.538,8.334,5.935,1.193,4.308-.435,3.978,4.287,11.168,3.381,14.452,10.25,3.29,5.016-1.354,5.767,13.771,6.6,6.9-1.08,2.427-2.273,5,3.725,5.409-2.2,2.869,8.208-1.01,4.714L310.5,542.1l9.688,8.881-2.96-11.442,1.915-8.741,11.547-1.424,7.857,8.04,0.154,5.7,5.4,2.042,9.19,3.578-9.317,10.551,1.515,8.51,5.409,9.548,5.43,2.413,12.354,12.593,12.866,7.233,4.827-14.894,2.469,5.346,12.256,7.4,5.346,6.987,14.017,4.083-2.448-10.685,13.757-5.781,8.889-.449,1.649-2.519,1.873-8.8-4.532-7.619,6.9-7.878-2.645-.947-1.733-5.332,6.139-8.854,7.163-12.1-1.424-2.455-8.482,2.231-2.063-2.042,3.423-7.85-1.838-2.315,7.892-3.62,2.077-8.44,14.122-18.787-4.862-16.22-2.778-.561-17.5-2.245-8.713,2.631-2.883-.961-1.81-5.781-2-6.9-8.11-10.362-10.572,4.876-14.859-.491-10.523,4.314L376.512,444.1l-0.379-4.427,10.523-13.645-2.224-8.18-9.779-6.538,3.438-10.123-9.773-9.835-7.331,4.658-8.5,1.684-10.109,10.4-8.376-2.792-5.7,1.656-0.87-2.876-5.647-1.613,4.9-26.048-6.012.1-7.345-9.2-0.9-2.89,5.984-13.884-6.5-.428-1.277,9.015-7.465,12.649-8.741,2.126-7.591-4.932-4.532-5.879-0.617-4.827,4.1-3.452-3.332-4,1.115-2.455-14.711-.632-17.188-5.689-9.008-.33-2.694-1.424,0.407-6.082-3.536-8.384-2.911-.674-7.612,3.985-2.483-1.452-4.56-3.508-5.395,1.712L197.014,342.4l-8.425,3-8.741-1.55-5.577,6.973-11.218,3.669-1.908-2.329Z" transform="translate(-20.225 -5.898)" fill="#ffeb00" stroke="#000" stroke-width="3"/><path d="M395.9,668.29l13.778,0.358,5.577-1.929,1.55-8.755,7.022-9.317-2.589-5-7.942-3.592-9.716-13.989-0.575-7.977,13.568-.112,3.873-9.485-14.017-4.083-5.346-6.987-12.256-7.4-2.469-5.36-4.827,14.894L368.67,592.32l-12.354-12.579-5.43-2.427-5.409-9.548-1.522-8.5,9.317-10.565-9.19-3.564-5.4-2.042-0.154-5.7-7.857-8.04-11.547,1.424-1.915,8.727,2.96,11.442L303.23,535.634l1.017-4.728-2.876-8.194-5.409,2.2-5-3.725-2.427,2.259-6.9,1.08-13.771-6.6,1.354-5.767-3.325-4.812,0.035-.189L251.478,496.9l-11.168-3.381-3.978-4.287-4.308.435-5.935-1.179-8.538-8.334-11.863-2.013,3.76-3.957-0.133-8.152-4.756-2.315-3.5-2.455-3.487,4.511L175.5,461.846l-4.209-20.773,8.994-10.537-1.8-9.071-5.781-6.742-11.428,1.9-3.908,4.455-7.4,8.917-3.7,4.56L133.338,427.8l-2.771,1-10.081,11.6-5.886,6.868-1.957-2.231L98.527,446.37,81.7,442.041l-9.141,7.492-8.867.7-0.224.084-3.479,4.728,1.936,2.273-0.533,8.811L47.477,477.146l-4.735,7.563,0.582,5.935L65.759,485.7l6.553-9.457,7.338-4.6,3.206,4.314-6.286,20.1,7.913,4.4,11.73-2.6L96.908,514.7l11.162,3.41-7.226,5.332-6.005.33L80.631,534.982l-4.048,14.129,10.271,8.769L78.87,576.394l4.434,3.922,11.344-.056,3.066,7.892,5.851,0.435,2.483,1.179,6.447-5.072,2.54,1.017,6.58,5.7,4.02,14.017,2.813,0.877,9.057-7.086-1.038-5.7,5.318-13.442,9.071,17.4,1.922,11.4,3.985-.084,9.281-20.829,14.431,0.386,9.05-7.633,16.325,1.368,5.963,5.977,4.476,10.25-0.54,6.012-19.826,6.342-5.3,10.411-0.211,11.674,8.39,7.2,3.69,2.933-3.487,4.834,4.09,7.745L199.283,669.7l0.968,2.834,3.381,4.876,8.5-1.466,4.216,4.209-7.857,16.171-7.43,4.77-0.435,2.96,2.764,1.122,2.771-.659,7.036,4.827,14.284-9.618,10.376,5.7,2.764-1.109,16.3,6.657,3.831,12.894,2.575-.491,17.223-9.534,5.283,2.217,7.409,8.538,4.532-10.334,15.455-6.973,0.084-1.48-1.34-2.6,1.992-5.521-5.311-1.986-1.024-5.205,3.431-8.068,12.466-7.4,14.178,0.905,12.018,0.042,20.071,5.3,8.713-1.424,6.777,5.676,2.252,8.524,2.9-8.355L397.182,680Z" transform="translate(-20.225 -5.898)" fill="#ffeb00" stroke="#000" stroke-width="3"/><path d="M480.8,945.014l-16.486,4.56L452.666,948.3l-4.139,3.957-2.778-1-0.975,10.278-6.959,4.4-2.869-7.3-9.983,2.6-6.5-9.443-5.893-.793-7.977,3.852-1.642-8.643-9.829-14.417-9.835-6.04,2.659-10.8-8.033-2.862-5.36,6.195-8.32-1.768-5.57,16.156-4.322,3.837-2.729-.947-4.7,5.521,3.3,4.63-1.845,2.3,1.024,5.563,11.611-.358,5.247,2.4-0.421,11.7,3.36,4.834L363.5,971l-2.981,4.988-11.779,8.355-19.728,1.852-6.265-12.074L315.03,970.7l-4.82,3.206-17.118-1.438-4.806,1.122-8.236-1.094-5.177,2.245-4.834-2.3-4.89,3.367-8.867,1.382-8.6-1.452-1.522-5.262-7.668-4-2.778-5.121-10.25-4.455-7.745-5.949-4.076-3.592-13.413-1.122-3.957-7.948-1.1-5.605,6.636-5.276,1.817-7.128-2.722-.961,1.242-2.6,9.4-10.565,1.565-11.386-0.484-2.848-2.848-.316-8.952-.765-6.868,9.155-5.9-.7-3-4.918-10-1.151-4.174-13.266-2.8-.73-2.259-5.332-19.033-5.507L150.2,845.8l2.75-.849,7.921-11.758,2.729,0.947,4.069-4.069-1.922-8.411-1.2-4.111-5.114-19.166,19.8-.232,6.124-9.576L173.81,766.611l1.522-2.483,5.676,1.221,2.68-4.455-2.112-5.507,6.812-9.548L175.76,732.755l-11.091-5.29-8.517,2.245-3.206,5.1-9.885,6.742-3.479,4.876,0.835,5.949-11.162,13.484-18.521-15.069-10.629-5.423-8.5,2.1,4.735-14.031,5-3.192L90.867,720.9l12.144-14.234-6.882-5.121L91.3,691.722l-8.44-1.326-5.016,2.82,0.007-5.991-7.3-8.552L75,661.366l1.319-20.773-5.164-2.933,5.233-13.028-1.235-2.546-3.36-3.318-13.084,4.356-1.887-2.056,0.435-8.58,6.174-5.451-4.216-3.866,0.259-5.724L64.011,590,63.9,575.545l14.964,0.863L83.3,580.33l11.344-.056,3.066,7.892,5.851,0.435,2.483,1.179,6.447-5.072,2.54,1.017,6.58,5.7,4.02,14.017,2.813,0.877,9.057-7.086-1.038-5.7,5.318-13.442,9.071,17.4,1.915,11.4,3.992-.084,9.281-20.829,14.431,0.386,9.05-7.633,16.325,1.368,5.956,5.977,4.483,10.25-0.54,6.012L195.929,610.7l-5.3,10.411-0.211,11.674,8.39,7.2,3.69,2.933-3.487,4.834,4.09,7.745-3.823,14.234,0.975,2.834,3.381,4.876,8.489-1.466,4.223,4.209-7.857,16.171-7.43,4.77-0.435,2.96,2.757,1.122,2.778-.659,7.036,4.827,14.284-9.618,10.376,5.7,2.764-1.109,16.3,6.657,3.831,12.894,2.575-.491,17.223-9.534,5.283,2.217,7.409,8.538,4.532-10.334,15.462-6.973,0.084-1.48-1.34-2.6,1.992-5.521-5.311-1.986-1.024-5.205,3.431-8.068,12.459-7.4,14.178,0.905,12.018,0.042,20.071,5.3,8.713-1.424,6.777,5.676,2.252,8.524,2.9-8.355,6.749-5.689L395.9,668.325l13.778,0.344,5.577-1.929L416.81,658l7.022-9.317-2.589-5-7.942-3.592L403.585,626.1l-0.575-7.977,13.568-.112,3.873-9.5L418,597.826l13.757-5.781,8.889-.449,1.649-2.519,1.873-8.8-4.532-7.619,6.9-7.864-2.645-.961-1.733-5.332,6.139-8.854,7.163-12.1-1.424-2.455-8.482,2.245-2.063-2.056,3.423-7.85-1.838-2.315,7.892-3.62,2.077-8.44,14.122-18.787-4.862-16.22-2.778-.561-17.5-2.245-8.713,2.631-2.883-.961-1.81-5.781-2-6.889-8.11-10.376-10.572,4.876-14.859-.491-10.523,4.314L376.5,444.11,376.12,439.7l10.523-13.659-2.224-8.18-9.779-6.538,3.438-10.123-9.773-9.835-7.331,4.658-8.489,1.684-10.116,10.411-8.376-2.806-5.7,1.656-0.87-2.876-5.641-1.613,4.89-26.048,3.788-7.465,13.526-5.62,11.554,2.245,0.218,10.8,9.969,5.346,4.946,6.672,3.7-4.041,5.991,5.963,5.745,0.33,1.607-2.442-3.5-4.862,0.091-5.711,4.588-7.752,9.2-7.647,0.119-5.921,2.757-1.151,6.868-3.29,0.8,5.3,7.829-3.234,12.8,5.647,11.337,14.852,3.466,4.728,17.055-3.739,8.65,1.207-11.1,21.348,11.66,21.306,0.126,9.015,11.891,1.038,2.463-1.726,1.186-8.9,8.4,0.821,7.633-4.588L514,414.617l5.114-6.686,4.371,3.22,7.626-2.013,4.132,3.55,13.673-14.782,1.4,5.851,8.945,12.088,10.8-3.908,9.12,6.686,8.355-2.49,11.33,3.739,1.382-2.673,14.852-.084,5.879-19.938,4.981,2.9-0.449,8.4,8.594,14.95,1.382,5.753-5.36,2.715-9.485,11.141L626,444.461l-2.315,8.342,4.939,13.687-4.778,3.438-7.219,12.936-0.87,2.778,6.524,9.52,6.489,18.254,13.056,1.9-1.242,4.946,3.381,6.826,8.482,2.82,4.083,4.4,11.674-.632,4.911,6.384,14.613-1.607L693.66,554.1,691.1,564.993l26.89-1.824,8.72,2.659,5.942-1.221,8.376,3.606,11.674,9.632,15.16,17.426-7.338,4.7-0.435,2.876L770.135,620.7l-1.621,2.245-8.776-.547,9.19,17.826,10.495,3.41,10.109,5.935,0.182,8.854,5.745-.316,4.714-3.648,5.795,0.659-11.723,20.169,1.193,8.425L784.628,697.6l-12.088-4.56-5.079,10.523,0.344,5.865-12.221,6.959,0.757,2.834-1.256,8.713-10.93-4.3-4.8-7.373-14.382,3.3-16.192-3.655-0.905,5.388-12.8,11.33-0.561,17.567-3.017,8.454-6.728,5.739-0.2,8.657-3.458,4.7,1.277,8.8-1.494.659-4.995-2.792-5.226,1.613-8.166-3.4-11.779-.1-10.425-4.834-0.674,8.552L620,780.914l-6.882,16.36-16.739,5.809,1.024,2.673-3.36,7.921-5.612,1.094-2.834,8.082,4.974,2.519-1.986,5.465-23.951,1.382-5.395,10.769-2.757,1.263,3.466,3.206-0.2,7.619,7.836,3.276,4.693,10.523,7.233,4.181-2.778,7.275,1.284,3.985,4.378,1.565-3.445,8.068,1.978,8.755,6.026,6.728-3.417,4.027-4.034,4.5-5.914-.126-9.043-7.072L550.781,915.7l-22.253-6.58L517.4,912.242,507.328,908.9l-0.267.449-2.8,8.11-12.873,7.114-5.451,7.057,6.566,13.14Z" transform="translate(-20.225 -5.898)" fill="#ffeb00" stroke="#000" stroke-width="3"/><path d="M416.48,353.921l-7.829,3.234-0.8-5.3-6.868,3.29-2.757,1.151-0.119,5.921-9.2,7.647-4.588,7.752-0.091,5.711,3.5,4.848-1.607,2.455-5.745-.33-5.991-5.963-3.7,4.041-4.946-6.672-9.969-5.346-0.218-10.8L344,363.314l-13.526,5.62-3.788,7.465-6.012.112-7.345-9.218-0.891-2.89,5.977-13.869-6.5-.435-1.277,9.015-7.465,12.649-8.741,2.126-7.591-4.932-4.532-5.879-0.617-4.827,4.1-3.452-3.332-4,1.115-2.455-14.711-.632-17.188-5.676-9.008-.344-2.694-1.424,0.407-6.082-3.536-8.384-2.911-.674-7.612,3.985-2.483-1.452-4.56-3.508-5.395,1.712-16.872,16.521-8.425,3-8.741-1.55-5.577,6.973-11.218,3.669-1.908-2.329-5.086-4.8-4.644,3.62-11.07-2.9,1.193,14.143-2.385,1.7-11.035-3.15-0.309,4.5-8.6-2.645-5.072,6.77-5.921-1-5.079,2.89-4.687,10.839,3.908,7.99-5.318-2.14-15.553-17.7-6.405,6.026-5.185-10.67-0.3-8.467L72.07,355.7l-3.894-7.3,0.94-2.715,9.3-10.67,8.278-7.647-0.119-2.848L80,319.264l-10.4,4.343-16.22-7.142,2.2-.835L55.4,308.558l5.865-.112,5.388-6.931,9.632-6.3L84.81,297.3l6.742,9.3,1.01-.533,10.229-16.662-5.97.126-8.138-4.055-5.03-3.4-5.816-6.9-8.552-3.206-5.844,1.536-2.048-2.273,4.392-3.683,3.031-13.54,8.4-11.547L74.392,230.3,69.46,216.123l-5.128-3.206L63.8,206.778l-7.857-9.358-0.849-6.11,7.829-12-3.346-7.892-9.906-4.687-8.713,1.565-9.85,6.6-3.55-17.5,0.4-5.479,5.43,1.249,0.744-2.617L30,140.139l-1.193-6.7-0.688-4.546-6.384-23.537,0.877-17.321,1.55-5.935,7.457-7.963,8.2,1.291,2.406,4.89,14.024,0.2,5.325,5.633L66.494,72.18l-0.6-2.933-5.626-1.866L59.2,64.6l2.9-8.152,0.421-6.076L75.649,25.233,93.973,8.115l10.509,13.512,5.914-5.521,4.287,1.8,6.672,16.22,2.4,1.782,5.626-1.978L131.2,45.375l-2.006,8.355,2.6,5.205,4.63-3.55,8.657,0.933,4.188-7.366,5.914,1.088,6.237,5.745,5.114-2.792-3.9,8.166,0.47,6.04,16.087,7.233,2.224-5.724,9.562-7.633,3.066,11.618,8.124,9.127L188.092,97.549,187.4,108.921l2.771,1.109,8.384-3.094,8.229,8.552,14.066-8.783,2.006-5.164,5.2-1.565,11.737,2.14,0.4,19.321,2.063,2.1,8.39-2.533,9.948-6.153,5.676,5.921-1.186,8.369,2.371,8.411-5.57,6.054,4.532,18.514,1.529,2.287-5.991,5.795-5.514.372,9.036,9.906-4.995,6.7,4.876,6.412-2.61,7.521,5.107,13.631,6.23,6.18,2.582,1.466,7.71-4.427,5.844-.316L300.088,207l13.834,4.237,10.46,6.616,9.176-.218,10.706,5.949,3.648-10.109L375.623,201.1l8.3-4,4.6,3.536,16.044-3.81,8.587,1.522,8.411,2.455,17.826-.659,2.084-2.154-1.726-14.017-14.978-7.4,0.449-8.306-4.476-8.44,0.463-3.276,5.381,1.466,8.229-1.866,16.662-.688,3.073,4.469-1.038,2.617,1.249,5.016,8.236,7.373,5.381-2.631,5.416,2.687,2.736,5.423,17.7,3.494,3.052,5.058-0.063,6.068,0.477,2.5,6.076,20.317-1.789,8.973,3.417,7.086-3.08,7.289,0.554,5.662,14.782,17.195,3.655,7.3,4.728,2.806,5.907,9.59,10.088-3.318,0.877,2.729-3.248,4.728,3,4.258,11.583-1.136,3.466,4.272-5.311,2.455-0.505,2.89,4.644,7.261,7.948,3.276,1.109,11.541,0.176,1.494,3.241,8-1.333,11.6,7.6,4.237,1.965,8.671,9.2,12.06,8.285,3.36,0.6,2.989,4.609,6.538,7.352,8.25,11.042,2.561,2.687,4.687-5.879,19.952-14.852.07-1.389,2.673-11.33-3.739-8.348,2.49-9.12-6.686-10.8,3.908-8.945-12.088-1.4-5.851-13.666,14.782-4.139-3.55-7.626,2.013-4.371-3.22-5.107,6.686-11.961.344-7.633,4.588-8.4-.821-1.186,8.9-2.463,1.726-11.891-1.038-0.133-9.015-11.653-21.306,11.1-21.348-8.65-1.207-17.055,3.739-3.466-4.728-11.337-14.852Z" transform="translate(-20.225 -5.898)" fill="#f90" stroke="#000" stroke-width="3"/><rect x="469.023" y="703.046" width="85.31" height="85.31" fill="silver" stroke="#000" stroke-width="3"/><rect x="258.503" y="586.794" width="76.344" height="76.344" fill="#06c" stroke="#000" stroke-width="3"/><rect x="246.218" y="408.825" width="85.31" height="85.31" fill="#d00" stroke="#000" stroke-width="3"/><rect x="275.702" y="239.729" width="85.31" height="85.31" fill="aqua" stroke="#000" stroke-width="3"/><text transform="translate(182.47 275.729)" font-size="76.779" font-family="DejaVu Sans" font-weight="700">4</text><text transform="translate(178.816 423.446)" font-size="76.779" font-family="DejaVu Sans" font-weight="700">1</text><text transform="translate(205.579 602.606)" font-size="76.779" font-family="DejaVu Sans" font-weight="700">2</text><text transform="translate(392.087 785.407)" font-size="76.779" font-family="DejaVu Sans" font-weight="700">3</text></svg>