<svg xmlns="http://www.w3.org/2000/svg" width="820.993" height="962.195" viewBox="0 0 820.993 962.195"><title>1T Législatives 2017 Charente-Maritime</title><path d="M261.368,99.305l-3.066.589-14.373,5.543-4.022,9.578-12.644,12.84-14.949,8.621-3.446,6.708,2.115,1.343,0.576,8.253-2.876,4.6-4.789,1.907-3.066,9.964-7.088,2.876-2.109,1.533-0.576,2.692,1.153,2.3,4.022,3.44,2.3,1.159,7.665,2.3,2.49,0.374,12.264-4.409,7.849-1.153,2.49,0.576,0.576,2.49-4.219,3.256-0.576,4.979,7.475,1.533,4.022,3.066,1.533-4.789,4.979-.576,3.642-6.512h9.78l4.783,0.19,11.313,9.578L277.47,181.7l12.454-2.692,6.708-3.832,0.19-.178-0.582-.38,2.882-5.942-2.3-3.642-8.431-12.264,4.409-17.243-0.19-.38-4.409-9.964-7.284,1.913-6.316,4.219-12.454-8.431-0.576-.957,8.241-9.964-1.343-5.175ZM49.632,102.371L43.5,107.35l-8.621,5.365-9.964-.766L23,113.672l2.3,7.284,7.665,10.154,4.979,12.073,14.177,6.708,16.862-5.942,7.665,0.766,25.1,13.22,13.416,6.9,11.681,9.578,5.365,5.752,16.1,6.9,7.481,1.723,12.84-1.533,2.49,0.766,10.915-13.987-9.774.766-3.832-9.008L162.3,154.872l-4.979-1.533-7.284,2.3-11.883-9.774L126.071,140.5l-18.4,2.876-12.644-1.343-10.35-6.708L96.945,131.3l2.3-7.088-21.461.19-2.3.957-2.876,6.512-8.431,5.942-1.723,4.409-4.6-2.3-8.045-9.388L47.9,122.87v-3.256l4.022,6.9,2.49,0.576,3.066-9.388h2.3l0.957,4.979,2.3,0.957,4.409-2.49v-2.686l-2.876-7.475-7.088-7.665Z" transform="translate(-21.28 -13.474)" fill="#ffc0c0" stroke="#000" stroke-width="3"/><path d="M354.3,17.115L341.658,24.4l-6.708-3.256-4.789,9.774-2.49.957-20.5-1.343-17.243,7.475-1.533-4.789L278.237,50.269l-3.642,3.446,1.153,2.3-9.008,3.832-9.774-2.109-1.723-4.6h-2.3l-1.153,6.31-2.876,3.446,4.022,9.2L258.3,99.875l3.066-.576,7.088,7.475,1.343,5.175-8.241,9.964,0.576,0.957,12.454,8.431,6.316-4.219,7.284-1.913,4.409,9.964,0.19,0.38-4.409,17.243,8.431,12.264,2.3,3.642-2.882,5.942,0.582,0.38-0.19.178-6.708,3.832-12.454,2.692-2.876,12.454-11.313-9.578-4.783-.19h-9.78l-3.642,6.512-4.979.576-1.533,4.789,2.3,4.6,7.849,0.576,1.913,1.913,1.153,7.843-8.817,4.022,1.533,2.109L256.746,220l5.752,4.973,4.415,12.264,3.066,18.021,2.3,1.153,5.175,0.576,6.132,4.409,3.446,9.964-2.109,7.284,3.832,9.578V293.4l-4.6,6.322-15.52,1.723-11.681-8.431-3.256,1.913L271.9,311.981l3.066,12.637,7.855,6.72H283.4l3.642-.766,19.548-5.365,3.642-6.72,4.6-1.907,5.555,4.973-1.723,7.665-6.512,12.454-0.38,4.789,15.906,13.8,11.883-1.533,3.832-5.942-2.876-7.088,0.38-7.855,3.642-3.256,2.49,0.957,0.19-4.022,8.621-12.441,9.964-14.385-1.349-12.84,8.817-7.475,6.512-8.241,1.723-7.855,4.409-6.708,9.78-1.533,5.549-4.979,8.621,12.264,4.6-1.343,9.774-13.8,11.313,14.177,4.6,2.3,7.665-.576,7.082,3.446,4.219-9.02,1.533-6.31,24.527,5.175,6.708-3.066-0.766-7.475,6.9-2.692-9.2-8.431,2.109-7.284,7.088-2.3L493.8,221.12l6.9,1.343,7.284-2.3,3.446-3.642,14.949-4.022,11.687,4.789,3.066-4.022,0.957-2.49-8.045-6.322-0.38-13.03-9.964-2.3-7.088,3.066-6.512-3.832-2.109-3.642,1.343-2.109,14.177-3.256-5.365-4.409-5.175.38-6.132-3.642-4.6.576-6.322-3.832-7.088-9.964-10.154.766-1.717-6.9-2.3-.957,0.766-2.49,4.783,0.576,1.723-1.723-2.109-12.073-2.3-4.409L471.2,127.42,445.9,111.9l-1.343-4.979,9.388-12.073-4.789-9.008-4.979-14.563,2.3-4.022L441.5,61.313l-5.175-.576-3.066-4.219-14.177-4.979-2.109-4.6,4.789-5.365-0.582-2.49-13.8,4.022-3.066-4.219-4.979,1.723-4.022,6.506,1.913,4.789L395.115,56.7l-7.284-.576,1.153-4.789L386.874,49.8,384,53.63l-8.621-3.256-4.409,7.475-8.817,3.066-1.533-2.109-9.774,2.109L338,52.876l8.817-12.644,3.832-15.139ZM229.753,277.52l-3.832.766-2.49,8.621,0.38,2.686,0.957,0.766,2.876-4.409v-3.832l7.475,0.19-0.766-2.3Z" transform="translate(-21.28 -13.474)" fill="#ffeb00" stroke="#000" stroke-width="3"/><path d="M778.34,349.415l-7.328,1.858-6.61-3.63-5.555,3.691,2.588,8.444,6.34,3.066-3,6.132-4,1.662,0.337,2.171,1.4,4.685,6.849,0.515,0.558,9.762,2.968,3.747,4.93,0.454,0.975,2.275-1.717,1.784-3.728,6.77,0.828,5.1-1.76,1.883-6.984,2.177-3.826,6.346,2.514,0.129,2.575,12.227L758.534,446.7l1.79,7.554-4.035,7.162-3.28-2.912,2.441-4.182-2.042-1.33-9.529,1.582-1.815-1.631-4.568,1.833-5.862,7.75-9.247,2.085-0.19-.1-5.028-8.241-1.153-4.55-4.053-1.711,0.723-6.61-4.335-1.4-14.079-.576-1.778,1.619-6.953-1.171-3.881,2.673,0.742,4.973-7.5,6.837-3.973,1.153-10.056-1.607-13.931,5.292-2.115-.705-16.734-4.3-1.38,12.086-7.027.993-3.967,3.1-12.288-.852-7.2,10.59,1.643,9.375,23.019-1.784,6.463,4.145L626.9,496.4l-7.769,6.61-0.595,10.357,2.582,9.259-3.924,8.922-10.35,2.514-4.924-.454-6.494,3.244-1.165-6.77-2.287-.766-4.145-2.6-3.5-3.029-4.439,1.269-2.312-3.881-6.886.049-2.287-3.986L564,515.629l-11.08.276,4.537,2.1,2.256,4.3-0.227,5-4.47,8.634-1.392,3.305-2.459-.313-1.429-4.728-9.394-7.965-2.79-6.77-4.347-2.312,1.637,4.74-1.815,7.125-13.594,3.722,4.673,9.02-19.162,16.36-2.281,4.537-5.273-5.917-9.21,4.219-11.142-9.713,3.189-9.523-8.18-9.511-2.49-4.384,0.435-4.912-2.042-1.508-7.426.527-1.907,1.772-0.368,7.665-4.225,2.955-7.677.288-8.67-4.66-4.059-3.832-1.981-6.261,13.239-6.285,6.825-7-2.52-2.8,6.72-3.041-9.069-11.675-9.792,1.318-3.274,3.642-4.642-6.469,2.9-17.439,7.334-2.158,4.464-6.285,7.83,1.545-1.423-5.065,3.685-9.823,17.322-10,2.361,1.1,8.364,9.259,6.88-2.955,2,1.128,3.1,3.581,0.674,5.089,5.555-1.257,4.617-14.741-2.667-3.7,2.324-6.408-6.788-10.338-6.831-2.955-6.156,2.937-1.7-1.833-1.508-3.379-1.073-6.671-9.136-2.238-0.632-2.336-10.308-4.145-9.136-3.845-1.2-9.762-1.913-1.018-14.581-.429-4.477,1.92-12.141-.454-5.059-5.617-4.813-14.25,2.5-2.361-2.367-2.422,1.649-3.722,8.474-4.249,8.6,2.5L437.5,337.219l0.049-13.091,1.594-2.122-0.957-6.273,1.8-1.4-2.833-2.968-3.2-6.206,3.305-9.511,8.2-5.488,1.153-4.961,15.25,0.84,2.821-6.622-9.835-7.867,4.219-8.885,1.564-6.445,24.582,5.224,6.684-3.017-0.81-7.462,6.9-2.741-9.167-8.346,2.115-7.315,7.2-2.41-4.28-8.86,6.966,1.245,7.235-2.263,3.379-3.71L526.47,212.5l11.614,4.826,3.146-4.047,0.877-2.441-8.033-6.371L533.755,191.5l1.956-6.549,6.788,3.734,10.124-.429,7.07,3.127,3.391,3.14,0.9,4.777,7.291,0.779-3.789,2.937,4.366,5.555-3.354,3.317,6.653,3.906,15.544,1.962,12.227,1.938,5.163,5.592,0.576-6.745,9.437-7.291-0.1,15,10.4,6.825,7.818-9.486,6.757,2.109,6.046,7.438-0.442,6.481,16.255-5.2,2.269,0.889,12.57,1.907,5.1-5.893,6.911,7.284,3.648,14.7,20.836,6.659,2.054,0.4,9.615,1.87,8.738-4.311-0.8,4.838,2.324,0.84,0.951,13.128,12.846-7.235-1.76,9.21,2.563,3.366-0.638,4.7,2.961,5.795,7.15,0.276,4.151,11.626,2.2,1.171-1.57,6.8,9.529,0.791,7.505,5.868-0.54,7.223,4.8-.19,1.95,6.923,2.4,0.264-5.322,10.216,0.435,4.636-4.722,2.943Z" transform="translate(-21.28 -13.474)" fill="#ffeb00" stroke="#000" stroke-width="3"/><path d="M669.973,643.765l0.123-5.255,4.525-1.459,8.407-15.244-12.116-11.423-4.709-3.7-1.441-1.962-4.82.589-2.52-6.181-6.788-2.048-9.155-8.744-2.2-7.352-3.563-5.494-9.578,5.519-4.893,1.619-8.756-5.488L624.475,553.5l6.825,2.686,7.015-2.134,0.141-2.6-14.827-18.242-6.457-1.656-10.35,2.514L601.9,533.6l-6.5,3.256-1.159-6.77-2.287-.766-4.151-2.6-3.489-3.029-4.445,1.269-2.312-3.894-6.886.061-2.281-3.986-4.421-1.521-11.074.276,4.537,2.1,2.25,4.311-0.221,4.991-4.47,8.634-1.392,3.305-2.459-.3-1.435-4.728-9.388-7.965-2.79-6.776-4.347-2.312,1.637,4.752L533,529.021l-13.594,3.734,4.673,9.008-19.162,16.372-2.287,4.525-5.267-5.917-9.21,4.219-11.142-9.7,3.182-9.523-8.18-9.511-2.484-4.384,0.429-4.924-2.042-1.5-7.42.527-1.907,1.772-0.374,7.665L454,534.343l-7.677.288-8.67-4.673,1.558,7.45-4.219,11.411L434.77,551.4l-9.982,1.662-10.044-7.843-2.588-4.433-9.179-3.93L388.892,542.5l-6.156,7.83-0.668,2.477,7,2.741,8.223,9.8,9.933,6.9-0.055,5.065-4.709,1.533-2.508,4.36-14.569,1.423-3.857,6.469-4.519.454-1.343-1.926-1.913-11.5-3.011,4.145-2.551.153-10.093-7.64-2.391,4.537-11.994,4.145-5.4-5.329-7.248,1.447-0.086-2.514-6.837-2.968-0.074-5-6.377-3.8,1.747-7.248-2.079-1.4-9.431-2.851-14.692-.693,1.067,7.248-2.441,3.268,7.481,7.272,2.2,6.021-1.926,4.072,4.844-2.134,6.714,7.524-0.564,9.3,7.542,0.264,1.662,1.95,1.631,4.838-0.233,7.536,0.871,2.422,2.551-.061,6.549,9.939,7.892,6.457,4.844,1.533,4.127-3.017,4.967,0.374,5.224,3.557,6.217,9.462-1.8,2.263,7.211,5.378,2.551-1.95,2.95,1.079,5.077,7.3,11.044,4.685,19.291,15.973-4.213,3.33L412,684.2l4.439,5.727,4.452-1.87,4.7,10.62,4.985,7.15,4.176,2.336,3.575,6.512,6.764,12.681,5.028,14.373,8.707,31.775,2.52,0.19-2.073,1.368,4.586,21.823,4.869,0.73-0.214.251,30.07,3.7,4.439,5.506,4.39-2.514,13.533-4.121,6.855,2.122,0.245-7.75,4.464-8.419,8.591,8.48L538.543,810.3l3.231,9.841,6.371,0.564,3.5,2.624,7.217,0.564,11.172,4.445,14.287-5.329,6.788-.049,8,3.918,12.613,5.758,7.738,5.2,1.306,4.562-1.564,4.488-2.557,9.449L624,856.784l2.06,4.36-3.771,13.962-3.121,9.486,0.9,4.813,7.75,10.491,1.625,7.628,8.376,26.636,2.594-9.989,8.2-9.977,12.552,3.078,8.02,6.7,5,14.41,3.176-8.824,16.77,6.046,0.644,5.065,2.342,1.006,6.536,13.711,5.948,4.728,12.736,0.337,6,5.555,9.535,4.047,15.391,1.662,4.494,2.4,5.077-.816,16.954-18.481,5.623-3.642,6.592-.944,11.442,15.428,4.458,1.269,1.741-1.558,3.979,2.441,3.072-3.4-0.681-7.64,6.212-11.2-3.722-9.511,20.682-8.468-1.318-4.6-7.536-1.1-2.612-3.869,10.81-13.484,1.392-6.1-3.348-2.4,0.159-7.806,3.979-12.19-1.134-4.8-9.9-.276-9.063-4.157-3.838-8.983-2.22-1.116-2.845-.589-14.177,2.385-12.018-.889-8.014-.944,1.41-4.458,2.005-26.361L769.8,822.261l-7.873,4.728-1.208-8.321-1.754-1.686-5.61-3.7-8.627-1.245-9.326,1.895-2.808-3.955-14.17-7.806-0.846,5.016-5.065.19-8.725,4.36-0.362,7.377-13.38-7.052-0.638-10.191-3.238-3.415,5.942-6.733-1.214-1.883-0.6-.466,2.459-6.733,7.279,6.206L707,787.131l2.305-4.219L709,775.389l-12.644-.061-4.421,2.25-1.183-6.972-4.513-1.533-2.465-3.483-4.722-.681-3.311-3.5,0.245-7.591,4.047,0.417,0.828-1.883,7.542,0.074,4.1-3.029,1.864-4.728L706.62,742.4l1.361-4.973,7.677-.227-1.38-7-7.567-.141-0.54-7.4,2.06-4.673-3.164-4-0.1-1.87-5.9-4.709-1.281-4.887-4.574-2.146-4.734,1.772,2.759-13.269,7.192,2.036,8.21-14.913,4.624,1.03,1.03-3.231-2.066-1.447-0.043-4.973-5.01.288-5.874-4.709,5.6-7.677-5.972-4.219-9.241,4.219,1.5-4.66-4.157-2.814-7.4.779-8.725-4.826h-0.93Z" transform="translate(-21.28 -13.474)" fill="#ffeb00" stroke="#000" stroke-width="3"/><path d="M424.247,252.226l-9.774,13.8-4.6,1.343L401.253,255.1l-5.549,4.979-9.78,1.533-4.409,6.708-1.723,7.855-6.512,8.241-8.817,7.475,1.349,12.84-9.964,14.373-8.621,12.454-0.19,4.022-2.49-.957-3.642,3.256-0.38,7.855,2.876,7.088-3.832,5.942L327.683,360.3l-15.906-13.8,0.38-4.789,6.512-12.454,1.723-7.665-5.555-4.979-4.6,1.913-3.642,6.708L287.048,330.6l-3.642.766H282.83l-0.957,2.49-12.84.766L265.2,337.5l10.731,6.512,1.723,7.475v10.731l-3.648,9.964L265,384.636l0.19,2.49-4.022,8.817-7.665,6.9L235.873,399.2l1.533,9.008-10.731-3.642,3.066,9.2,6.512-.957,2.109,10.541,5.365,5.752,3.446,11.687-3.25,5.942-2.3,1.533-7.088-3.44-16.286,8.609L208.1,451.319l-13.03,2.692-4.219,2.876-0.766,15.906,3.446,53.273,3.066,10.154,5.365,7.088,9.014-1.533-9.388-2.109-1.913-5.175-3.066-8.621,5.365-1.723h5.181l32.376,21.842,17.819,14.563,16.1,6.9,2.3-1.159,10.35,9.964,2.109-1.343,2.49,4.409,4.6,2.3,4.409-.576,1.913-4.022-2.3-6.132-7.475-7.284,2.49-3.256-1.153-7.284,14.753,0.766,9.388,2.876,2.109,1.343-1.723,7.284,6.322,3.832,0.19,4.979,6.708,3.066,0.19,2.49,7.088-1.533,5.549,5.365,11.883-4.219,2.49-4.409,9.964,7.475h2.686l2.876-4.219,1.913,11.5,1.343,1.907,4.6-.374,3.832-6.512,14.563-1.533,2.49-4.219,4.789-1.533v-5.188l-9.964-6.9-8.247-9.774-6.9-2.686,0.582-2.49,6.132-7.855,14.177-5.555,9.2,3.832,2.49,4.421,10.154,7.843,9.964-1.711,0.184-2.49,4.219-11.5-1.533-7.475-4.022-3.655-2.109-6.31,13.22-6.322,6.9-7.088-2.49-2.686,6.708-3.066-9.008-11.687-9.774,1.343-3.446,3.642-4.6-6.512,2.876-17.439,7.481-2.109,4.409-6.322,7.855,1.533-1.533-4.979,3.832-9.774,17.243-10.154,2.3,1.159,8.431,9.2,6.9-2.888,1.913,1.159,3.066,3.44,0.766,5.188,5.549-1.355,4.6-14.563-2.686-3.832,2.3-6.31L497.6,419.127l-6.9-3.066-6.132,3.066-1.723-1.907-1.533-3.256-0.957-6.708-9.2-2.3-0.576-2.3-10.35-4.225-9.2-3.832-1.153-9.774-1.913-.957-14.563-.374L429,385.4l-12.264-.576-4.979-5.555-4.789-14.17,2.49-2.49-2.3-2.3,1.533-3.832,8.431-4.225,8.615,2.49,11.687-17.629v-13.03l1.723-2.109-0.957-6.322,1.723-1.343-2.876-3.066-3.066-6.132,3.25-9.388,8.247-5.555,1.153-4.973,15.139,0.766,2.882-6.512-9.78-7.855-7.082-3.446-7.665.576-4.6-2.3Zm-321.919,9.2,4.6,20.3,7.665,16.685-3.832,15.329,4.022,9.774,0.19,7.855,5.365,5.752,17.819,19.352,21.271,14.753,4.789,0.944L176.1,386.156l4.6,9.388,3.832,16.672,3.832,26.25,2.3,4.789,4.6,2.3,18.205-22.228L208.1,408.378l9.78-26.636-7.665-10.731-6.132-4.789L194.7,350.893l2.3-4.6-0.19-7.475-5.555-8.241,0.19-4.979,3.446-3.642-1.153-2.3-0.957-9.964-5.175-5.555-25.68.19-9.78-3.642-4.219-6.132-17.439-16.1-6.512-4.421-1.913-7.284Z" transform="translate(-21.28 -13.474)" fill="#06c" stroke="#000" stroke-width="3"/><rect x="618.761" y="302.515" width="74.564" height="74.564" fill="#06c" stroke="#000" stroke-width="3"/><rect x="566.3" y="628.467" width="74.564" height="74.564" fill="#06c" stroke="#000" stroke-width="3"/><rect x="322.635" y="400.78" width="74.564" height="74.564" fill="#f0f0f0" stroke="#000" stroke-width="3"/><rect x="341.89" y="125.692" width="74.564" height="74.564" fill="#06c" stroke="#000" stroke-width="3"/><rect x="233.957" y="120.595" width="30.625" height="30.625" fill="#f90" stroke="#000" stroke-width="3"/><text transform="translate(200.731 162.975)" font-size="67.108" stroke="#000" stroke-width="3" font-family="DejaVu Sans" font-weight="700">1</text><text transform="translate(293.343 185.876)" font-size="67.108" stroke="#000" stroke-width="3" font-family="DejaVu Sans" font-weight="700">2</text><text transform="translate(560.177 352.581)" font-size="67.108" stroke="#000" stroke-width="3" font-family="DejaVu Sans" font-weight="700">3</text><text transform="translate(510.11 698.772)" font-size="67.108" stroke="#000" stroke-width="3" font-family="DejaVu Sans" font-weight="700">4</text><text transform="translate(259.122 465.993)" font-size="67.108" stroke="#000" stroke-width="3" font-family="DejaVu Sans" font-weight="700">5</text></svg>