<svg xmlns="http://www.w3.org/2000/svg" width="800.109" height="994.641" viewBox="0 0 800.109 994.641"><title>1T Législatives 2017 Gironde</title><polygon points="244.667 632.788 254.667 625.455 247.667 621.788 225.667 604.122 219 593.788 205 585.788 194.333 562.122 187.333 544.788 193.667 529.122 201.333 515.788 198.985 510.967 188.75 512.872 178.25 512.872 174.25 519.247 140.75 522.372 132.75 515.122 120.75 507.122 115 523.122 98.25 519.872 84.5 523.122 64.25 528.372 45.5 531.372 25.19 531.372 17.333 575.122 6.333 640.455 3 655.455 6.667 665.788 14.667 663.122 15 641.122 21.333 616.122 33.333 598.788 46.667 588.122 54.667 578.788 53 566.122 56.333 561.122 64.333 562.122 69.333 569.122 72.667 576.455 102 599.455 117.333 613.122 118.333 619.455 117.333 625.122 127.667 636.455 130.241 648.684 130.333 649.122 123.333 649.122 116.333 646.788 109 651.122 64.608 648.328 61.333 648.122 67.333 639.788 39 634.788 35.333 647.122 34.567 653.419 31.5 678.622 11.5 705.122 0.5 723.622 0.5 741.622 3 768.622 84.5 748.122 90 731.622 108 744.622 126.593 744.264 133.158 744.138 136.125 739.788 146.667 731.122 166.667 717.122 178.333 711.788 187.333 705.788 187.333 699.372 193.333 692.788 196.667 688.122 206.333 684.122 217.333 681.788 227.333 684.122 229.333 678.788 229 673.788 228.667 671.788 228 663.455 224.667 654.622 228.667 646.788 244.667 632.788" fill="#ffeb00" stroke="#000" stroke-miterlimit="10"/><path d="M682.75,379.122L679.375,372l-0.5-4.875-0.625-3.917s-2.583-4.167-2.833-4.25-6.5-7.25-6.5-7.25a23.008,23.008,0,0,0-2.5-3.333c-0.5-.25-6.75-1.5-6.75-1.5s-7,.167-7.25,0-9.75,0-9.75,0l-7.25,1.667-3.083,3.667s-5.667,2.333-6.167,2.583-7,.667-7,0.667l-3.333-2.5s-5-2.583-5.25-2.583-13.5-.083-13.5-0.083l-1.75,1.167-1.833.917-4.331,4.106-0.481.456-5.25,2.813s-4.312,4.25-4.5,4.313-8.312-.187-8.312-0.187-5.938-2.5-6.125-2.5-10.375.25-10.375,0.25L547,358.185l-9.125-3.875-13.688-1.062-6.854-2.126-7.167-7-2.833-10.5-1.333-8.5s-7.5-3.167-8-3.167c-0.25,0-1.792.417-3.271,0.833s-2.9.833-2.9,0.833l0.833-10.667s-7.833-7.833-8.5-7.833-10.333-4.5-10.333-4.5l-7.5,1.667-6.333,15-1.5,1.834-1.167-7.667L453.5,300.622l-2.167-11.167-0.271-5.333-4-7.5-3.5-3.375s2.875-4.812,2.875-5,0.688-9,.688-9l2.75-7.437,1.625-5.188L450.25,244h-6.938l1.25-3.75,3-6.312-0.312-4.75-2.438-2.937-2.375-3.562-4.908-3.029-3.9-2.409-7.379-1.626L418.75,213l-8.875.25L404.5,216.5l-6.25-.25s-3.375-3.625-3.75-3.25-6.75-1-6.75-1l-7.125-2.5-4.125-2.875-3-1.375-1.5-6v-6.125l0.75-5.625,2.375-3.75-3.125-4-4.875-3.125L364.5,178l-3.5,5.625L362.25,188l-0.5,3.125-5.25-.25-0.75-4.125-4.5,1.375-5.875,3.375h-6l-2.75,4-1-7.125-5.625-.5-13.125-4.125-9.75-.375-6.25.125,4.25,12.25,2,15.625,2.625,18.25,0.4,18.065,0.1,4.685,4,23.75,5,24.25,1,12.5-4,8.5,3.75,10.5s6.75,11.25,6.75,12c0,0.289.6,3.218,1.326,6.706,1.164,5.56,2.674,12.544,2.674,12.544l9.75,7.75,3.25,7.375,6.875,5.25,9.5,3.25,8.5,3.875,6.125,1.5L383,397.75l9.625,9.375s6.25,3.25,6.375,3.625a5.526,5.526,0,0,0,1.1.757C402.487,412.969,408,416,408,416l2.75,4.5,1.75,4.25,0.75,7.75v7.25l-0.457-.085,3.082,8.585,3.5,1.625,8.125-3.625L443,438l3-4.25,4.5-7.5,1-6.125,4.125,2.059h11.75l0.25-2.934,0.875-5-1.625-5.5v-6.125l2.375-3L471.625,394v-6.125h0.125l2.75,2.5h8.25l6.733-1.122L493,392.872l4.5,13,8.75,10.25,5.5,8.5,10.25-5v18.5l-1.5,5h6.75l11.25,3,11.5,3.75h5.25l8.75-2.25,20.5-15-0.308.225,3.308,0.108,2-1.833,3.167-3.5,2-1.5,4.083,2.167,5.917,2.167,1.833-1,2-5.167h4l5.167,4.167,4,1.5,1.667-1s2.333-5,3.833-5.667,3.333,0.667,3.333.667l4.667,0.833,4.333,5.333,3.167-1.167,4-2.167v5.667l2.5,3.667,3.333-1.5,3-3,2-6,0.667-5.667s3.576-1.192,7.217-2.251L666,412.247,676.25,399,684,385.122Z" transform="translate(0 0)" fill="#ffeb00" stroke="#000" stroke-miterlimit="10"/><polygon points="371.167 447.122 373.667 437.622 369.667 425.455 358 416.455 342 402.622 326.947 384.212 318.833 374.288 315.667 362.955 304.167 352.955 302 340.955 295.667 324.622 293.728 312.99 293.667 312.622 281.75 278.372 278 241.622 273.75 213.622 266.079 192.114 261 177.872 249.667 158.122 235.333 141.122 219.333 127.455 208.767 121.371 208.333 121.122 201.333 108.455 192.667 95.455 177.667 89.455 170.667 78.122 164.667 78.122 142.667 52.455 133.667 47.122 133.667 34.122 137 34.122 141 35.788 140.667 28.788 146.667 34.788 146 26.455 148 24.122 138.333 16.122 139 4.455 140.167 0.788 130.5 4.038 121 10.955 118.25 21.705 104.5 37.872 94.75 50.622 86.5 63.872 92 83.622 90.25 91.622 85.25 106.622 81.5 117.872 81.5 128.788 81.5 132.372 81.5 160.372 79 184.872 71.263 222.744 69.5 231.372 64.25 265.622 58.25 293.622 54.5 330.122 52.25 357.872 52.215 358.046 44.5 396.372 41 443.622 31.25 497.622 25.19 531.372 45.5 531.372 64.25 528.372 84.5 523.122 98.25 519.872 115 523.122 120.75 507.122 132.75 515.122 140.75 522.372 174.25 519.247 178.25 512.872 188.75 512.872 199.5 510.872 202.25 497.622 200.75 487.622 212.25 487.622 223 478.122 228.75 458.622 243.5 464.622 246.75 451.622 248.25 444.872 256 443.872 263.625 433.747 271.875 433.747 280.875 438.622 284.25 442.122 286.602 440.341 291 453.122 297.75 464.747 302.625 463.872 312.625 463.872 312 468.872 315.125 474.872 315 478.622 317.375 486.497 307.625 486.372 306.5 493.497 308 499.122 313.125 501.497 306.5 506.747 309.375 512.747 313.625 510.497 323.375 512.747 324.125 507.122 327.5 502.997 332 499.122 330.625 490.747 329.25 485.497 332 485.497 336.75 482.497 341.625 479.372 347 479.372 355.25 481.372 360 476.747 366.869 473.641 365 467.955 366.833 458.622 371.167 447.122" fill="#ffeb00" stroke="#000" stroke-miterlimit="10"/><polygon points="327.667 527.788 326.333 518.288 322.167 518.122 321.994 512.428 313.625 510.497 309.375 512.747 307.57 508.98 306.5 506.747 313.125 501.497 308 499.122 306.5 493.497 307.625 486.372 317.375 486.497 315 478.622 315.125 474.872 312 468.872 312.625 463.872 302.625 463.872 297.75 464.747 291 453.122 286.602 440.341 284.25 442.122 280.875 438.622 271.875 433.747 263.625 433.747 256 443.872 248.25 444.872 246.75 451.622 243.5 464.622 228.75 458.622 223 478.122 212.25 487.622 200.75 487.622 202.25 497.622 200.374 506.659 199.5 510.872 198.985 510.967 201.333 515.788 193.667 529.122 187.333 544.788 194.333 562.122 205 585.788 219 593.788 220.178 595.614 240 590.372 251.25 586.372 258.875 582.622 268.25 575.372 270.5 565.372 270.5 555.455 275.684 551.889 274.167 551.455 278.833 552.788 286.602 555.455 295.333 548.622 309.333 545.288 319.833 545.122 329.333 544.288 329.333 532.788 327.667 527.788" fill="#ffeb00" stroke="#000" stroke-miterlimit="10"/><polygon points="346.5 561.955 342.083 560.788 336.22 558.972 336.75 557.872 338.417 554.038 338.417 549.788 336.75 543.872 334.5 544.455 332 546.288 329.099 544.309 319.833 545.122 309.333 545.288 307.668 545.685 295.333 548.622 286.602 555.455 278.833 552.788 275.684 551.889 270.5 555.455 270.5 565.372 268.25 575.372 260.09 581.682 258.875 582.622 251.25 586.372 240 590.372 220.178 595.614 225.667 604.122 247.667 621.788 254.667 625.455 252.717 626.885 256.958 628.663 262.417 631.788 268.083 639.08 271.458 637.58 273.167 634.997 284.625 634.372 307.668 634.997 306.125 631.872 302 628.247 302 624.747 305.25 621.372 309.5 615.872 315.125 609.122 319 605.997 317 602.622 317 599.997 323.043 598.622 323.625 596.372 325.875 592.122 331.375 590.622 336.75 584.872 342.167 582.455 344 579.622 343.167 572.705 346.5 566.122 346.5 561.955" fill="#ffeb00" stroke="#000" stroke-miterlimit="10"/><path d="M784.667,555.205l6.292-2.583L791.876,548l2.917-3.5,4.333-4.167,0.437-1.9L794,532.247l-6.438-2.812-9.687-4.375-10.188-1.625H763.75l0.5,5.125,0.125,4.313L763.625,534l-12.458,7.542-8.75,8.833-6.833,8.167-5.25-5.25-6.75,1.167-7-1.333s-7.583-1.667-7.833-1.583c-0.165.055-4.128,1.955-6.813,3.245L699.5,555.96l-3.667,1.5-0.25-7.417-7.25-2.5L681,551.455l-2.5,8.75-4.417-6.333-8-1-5-6.25-2.333-7.583-5.167-2.75L650,534.039l-6.188,3.646-10.125-3.812-5.625-1.062,0.3-1.385,0.266-1.24,6.372-.814,1.562-5,4.688-5.687,4.5-.75,1.875-5.25,3.375-3,2-6.062,4.25-9.833s3.833-5.083,3.833-5.5-4.417-9.417-4.417-9.417l-0.041-.068-4.709-7.765-2.75-6.333,6.25-21.833,3.5,4,3.084-.252,1.75-6.583,3-3.292L665.125,420l0.259-2.293c-3.641,1.059-7.217,2.251-7.217,2.251l-0.667,5.667-2,6-3,3-3.333,1.5-2.5-3.667v-5.667l-4,2.167-3.167,1.167-4.333-5.333-4.667-.833s-1.833-1.333-3.333-.667-3.833,5.667-3.833,5.667l-1.667,1-4-1.5-5.167-4.167h-4l-2,5.167-1.833,1-5.917-2.167-4.083-2.167-2,1.5-3.167,3.5-2,1.833-3.308-.108L564,447.622l-8.75,2.25H550l-11.5-3.75-11.25-3H520.5l0.2-.659,1.3-4.341v-18.5l-10.25,5-5.5-8.5-8.75-10.25-4.5-13-3.517-3.622-6.733,1.122H474.5l-2.75-2.5h-0.125V394l-2.375,5.625-2.375,3v6.125l1.625,5.5-0.875,5-0.25,2.934h-11.75l-4.125-2.059-1,6.125-4.5,7.5L443,438l-15.5,8.25-8.125,3.625-0.708-.329v5.579l2.833,5,7.5,4.833,5.625-6,12.042-2.5,4.5,5.5,0.613,1.84,0.053,0.16-3.5,6.667L447,473.642l7.25,3.855,2.5,3.375,4.625,0.875,3.5,7.25,2.625,6.75-0.935.779,4.268,4.429,3.667,8,0.61,3.117,0.89,4.55-8.5,5.333-5.5,5-0.332-.584c-0.1,2.059-.168,3.667-0.168,3.667l0.75,7.333,8.583-4.5,3.417,6.5v5.25l1.75,5,2.75,3.75-1,5.6,6.5,3.65,5,1.151-2.25,5.85-1,3.254h12.25v6.75l5.25,3.25,5.5-5.5,3.5-5.25,3.75,6,4.5,0.25,8-3.5,3.5,2.5,7.375,1.25L541,585.31h6.75l10.583-2.437,5.417,8,7.25,2.5,4.555-5.035,1.32,0.66,6.375,5.375v1.749l4.625-8v-10l5.875-9.375,1.25-3.375h4.125l5.5,4.5,3.25,5.25,1,3.75,5.625-.125,6.75,1.625,6-4.5,9.75,3.25,11.25,6.5,16,2.75,7.25,7.75,6-8,10.25,0.25v-5.5l7.5,2.75,7.254-1.572,4.662,5.738,5,11.167,13.5,8,4.957,6.692,1.876-5.358,4.667,0.5L742,626.205l1.5,3.75,6.667-.917,0.5-6.5-5.083-8.917,6.333-8.583,4.333-1,4-3.75s4.5,5,4.5,5.583,0.5,4.333.5,4.333,17.062-1.771,17.5-1.833,12.562-3.062,12.562-3.062l-6.25-5.812-8.9-11.125-1.5-7.417,0.5-7.583-1.333-6.5-2.167-5.5-0.5-5.417,0.5-1.583Z" transform="translate(0 0)" fill="#ffeb00" stroke="#000" stroke-miterlimit="10"/><path d="M474.5,508.955l-3.667-8-4.268-4.429,0.935-.779L464.875,489l-3.5-7.25-4.625-.875-2.5-3.375L447,473.642l1.333-3.02,3.5-6.667-0.667-2-4.5-5.5-12.042,2.5-5.625,6-7.5-4.833-2.833-5v-5.579l-2.792-1.3-3.082-8.585-2.918-.54-1.625-7.375-1.875-9.75-1-4.25-7.125-2.875-1.076-.245-9.924-2.255-2.5-6.625-5-4.125-9.75-4.5L360.625,395l-9.375-3.875-3.75-4.375,1.25,9.125,4.5,5.625,7.5,8.5L371,417.122l6.25,8.25,0.875,8.75-1.5,9.25-1.458,7.75-1.5,8-3,5.5,0.167,6.667,2.333,8.333,5,8.667-1.5,8.333s-2.5,7-2.5,7.5c0,0.342-1.171,3.495-1.91,5.451l2.993-.451,0.382,2.289,0.535,3.211-1.083,3.583-1.1,2.948-1.728,4.636-1.34,3.583-2,3,2.5,1.917,1.125,3.583,1.708,6L376.166,552l1.856,4,6.144-.287,6.083-1.167,3.917-1.583,0.583-2.667,6.5-2.083,1.167-4.167,3.5-2.917,5.083-.583,5.333-2,0.917-2.25,1.417-7.5-1.833-4L414,519.039l0.16-4.345-0.493.262,6.667-3.544L426,509.789l9.86-2.833,2.14,2.833,1.5,4.5,9.333,2,9,3.333L462,526.955l5.5-5,8.5-5.333Z" transform="translate(0 0)" fill="#ffeb00" stroke="#000" stroke-miterlimit="10"/><path d="M729.75,666.122h-9l-9.125,2.375-5.125-11-14.5-2.75,2.506-8.987,1.119-4.013,5.375-4.5,7.5,3.375L710.25,633l2.375-10.75,2.5-1.25,5.25,3.25L728.75,621l1.874-5.35-4.957-6.692-13.5-8-5-11.167-4.662-5.738-7.255,1.572-7.5-2.75v5.5l-10.25-.25-6,8-7.25-7.75-16-2.75-0.438-.253L637,579.122l-9.75-3.25-6,4.5-6.75-1.625-5.625.125-1-3.75-3.25-5.25-5.5-4.5H595l-1.25,3.375-5.875,9.375v10l-4.625,8v-1.75L576.875,589l-1.32-.66-4.247,4.7-0.308.34-7.25-2.5-5.417-8-10.583,2.43H541l-1.375-6.687-7.375-1.25-3.5-2.5-8,3.5-2.123-.118-2.377-.133-3.75-6-3.5,5.25-5.5,5.5-5.25-3.25v-6.75H486l1-3.254,2.25-5.845-5-1.151-6.5-3.65,1-5.6-2.75-3.75-1.75-5v-5.25l-3.417-6.5-8.583,4.5-0.75-7.333s0.069-1.608.168-3.667l-3.835-6.75-9-3.333-9.333-2-1.5-4.5-2.14-2.833L426,509.789l-5.667,1.623-6.174,3.282L414,519.039l2.833,5.75,1.833,4-1.417,7.5-0.917,2.25-5.333,2-5.083.583-3.5,2.917-1.167,4.167-6.5,2.083-0.583,2.667-3.917,1.583-6.083,1.167-6.144.287L380,560.247l0.75,5.25,1.875,7.125,0.875,3.75v1.875h-2.472L386,583.622v13.5l4.5,5.5,16.5,7.75,10.25,13.25,7.742,6.75,13.758-4.679-0.572.2,2.322,6.734-4.125,4.5L438,639.08l2.5,1.167h5l6.5,1.625,0.625,9,1.75,8.625L462,663l5.625,5.375,2.625,7.5L475,679l4.5,5.875L483.25,690l2.5,6.875v5.282L487.375,707v4.875l5.125,3.25v0.337l3.167,3.333,8,9.232,9,6.435,7.5-1.333,9-5.1L541,728.955l8.667-.935L553,730.455l4.5-.167,5.026-.95,8.807,2.283,4.5,3.667-3.666,6.834L574,748.789l-6.667,2.833h-16.5l-11.5-1.5-4-3-2.167,4.5,0.583,7.5V761.5l-7.124-1.375v4.25h-7.25l-1.5,6.125-2,7.875L520.5,789.75l11-4.5,6.875,4.5,10.375,3.875,3.375,4.625,0.875,4.5,11.625,3.75H584l3.875-2.875L592.25,812v4.25l3.875,3.75L605,813.872,603.125,820l-6.375,5.875L596.5,830l6.25,2.375,0.5,2.125h5.875L613,830.25l5.125-2.875,3.125-8.25,10.125,0.125v3.25l4.463,3.425a0.537,0.537,0,0,0,.329-0.3c0-.5,4.5-2.667,4.5-2.667l0.583-11.333-10.75-.75-2-29.375,0.673-1.328,4.2-8.3,7.627-2.25,8.833-5L648,758.747l-3.375-3.5-1.25-4.875L649.833,755l2.417-3,6-.875,11.5-2,6.687-1.062L678,740.372l3.312-2.062,1.563-10.687v-2.5l4.625-1.312,5.687-.75,3.313-1.25,2.131-1.019,2.182-1.043,13.438-10.25,3.875-6.75-6.5-8.5-0.375-6,8.375,4.125,4.25-1.875,4.874-10.876L733,674Z" transform="translate(0 0)" fill="#ffeb00" stroke="#000" stroke-miterlimit="10"/><path d="M643,868.622l5-4-7.5-9.667h-4.167l-4-7.333,0.667-5-4.5-4.167,4.167-3-0.5-8.333a24.1,24.1,0,0,0,3.671-1.2l-4.463-3.425v-3.25l-10.125-.125-3.125,8.25L613,830.247l-3.875,4.25H603.25l-0.5-2.125L596.5,830l0.25-4.125L603.125,820,605,813.872,596.125,820l-3.875-3.75V812l-4.375-8.375L584,806.5H564.625L553,802.747l-0.875-4.5-3.375-4.625-10.375-3.875-6.875-4.5-11,4.5-0.849-2.087-3.776-9.288,2-7.875,1.5-6.125h7.25v-4.25l7.125,1.375v-2.375l-0.583-7.5,2.167-4.5,4,3,11.5,1.5h16.5L574,748.789l-1.833-6.667,3.667-6.833-4.5-3.667-8.807-2.283-5.026.95-4.5.167-3.333-2.435-8.667.935-11.833-.935-9,5.1-7.5,1.333-9-6.435-8-9.232-0.387-.408-2.779-2.925v-0.332l-5.125-3.246V707l-1.625-4.843v-5.286l-2.5-6.875-3.75-5.125L475,679l-4.75-3.125-2.625-7.5L462,663l-7.625-3.5-1.75-8.625-0.625-9-6.5-1.625h-5l-2.5-1.17-1.625-1.958,4.125-4.5-2.322-6.734-13.186,4.484-2.026-1.767-5.716-4.983L407,610.372l-16.5-7.75-4.5-5.5v-13.5l-4.972-5.375h-1.4l-5.961,2.875L371.625,584l-1.5,1.875L359,587.247h-2.75l1.375,6.875v2.5l-0.5,1.625-5.75-3.625-1.75-6.25L348.5,586.5l-2.625,1.875V584.25l-3.127-2.69-0.582.9-5.417,2.417-5.375,5.75-5.5,1.5-2.25,4.25-0.582,2.25L317,600v2.625L319,606l-3.875,3.125-5.625,6.75-4.25,5.5L302,624.747v3.5l4.125,3.625L307.668,635l-23.043-.625L273.167,635l-1.1,1.661-0.61.922-3.375,1.5-5.667-7.292-5.458-3.125-4.241-1.779-8.05,5.9-16,14-4,7.833L228,663.455l0.667,8.333,0.333,2,0.333,5-2,5.333-10-2.333-11,2.333-9.667,4-3.333,4.667-6,6.583v6.417l-9,6-11.666,5.334-20,14-10.542,8.667-2.967,4.35,0.842-.017,4,15.5-3.5,15-11,25-10.333,8.333,12.333-1.167,18-1,16.5-2.333,8-6,7.667,5.667s20.5,13,23.5,13,15.208,2.625,15.208,2.625l12.375-3.375,5.375-4.875,3.75-.375L238.5,801.5l10.875,2.625,7.25-3.875,11.5-.75L278,801.872l7.75,2.25,3.75-2,0.715-3.3,0.91-4.2,6.75-.25,6.75,3,7.875,4.25,7,4.375-4.125,23.625-6.125,4.125-0.375,2.5,4.75,0.125,7.375,4,11,3,12.75,7.5,10,9.5,8.511,4.583,1.239,0.667,2.5,11.5,1.75,8.25,10.75,5.75,14.75,7,11.5-.25,5,1.75-2.25,9,1,6.5,6.75,0.75,2.25,3.75,5,4.5,9.75,1-2.5,15.75-5,14.25-1,8.75,1.25,7,1.667,10.583,8.73,2.385,15.775,3.007,38.161,7.275L513,984.789V945.455h24l18,26.833,16-4.833,8.667,4.833,9.333-9.5,12.667-4,10-13.333,6-4-7.333-14h7.333l-25.333-30,0.048-.859L593,885.455h12l2.667-4.667h10l13.333-6h8.667l-0.833,3.833,6.667-.5,4.333-6.167Z" transform="translate(0 0)" fill="#f90" stroke="#000" stroke-miterlimit="10"/><path d="M382.625,572.622L380.75,565.5,380,560.25,376.167,552l-1.917-8.125-1.708-6-1.125-3.583-0.317-.243c-1.883.273-3.933,0.576-3.933,0.576v4.583l-4.833,2.25-3.917,4.25-0.75,1.917-3.25-1-5.583-4.5-2.333-1.083-6.667.917-2.667.667-0.538,1.281,0.121-.031,1.667,5.917v4.25l-1.667,3.833-0.53,1.1,5.863,1.817,4.417,1.167v4.165l-3.333,6.583L344,579.622l-1.252,1.935,3.127,2.69v4.125L348.5,586.5l1.125,1.875,1.75,6.25,5.75,3.625,0.5-1.625v-2.5l-1.375-6.875H359l11.125-1.375,1.5-1.875,2.042-2.875,5.958-2.875H383.5v-1.875Z" transform="translate(0 0)" fill="#ffeb00" stroke="#000" stroke-miterlimit="10"/><path d="M375.25,509.122l-3.851.3-2.024,2.079-3.25,3.184L363.875,519l-1.5,1.25-1.5,5.542-7.125-2.917-7.25-6.754-3.25,1.5-6.583,9.25-2.75,6.167-4.583,1.316v9.934l-0.234.021,2.9,1.979,2.5-1.833,2.129-.552,0.538-1.281,2.667-.667,6.667-.917,2.332,1.083,5.583,4.5,3.25,1,0.75-1.917,3.917-4.25,4.833-2.25v-4.583l3.933-.576-2.183-1.674,2-3,1.34-3.583,2.827-7.583,1.083-3.583Z" transform="translate(0 0)" fill="#ffeb00" stroke="#000" stroke-miterlimit="10"/><polygon points="336.667 526.872 343.25 517.622 346.5 516.122 353.75 522.872 360.875 525.788 362.375 520.247 363.875 518.997 366.125 514.68 369.375 511.497 371.399 509.417 370.333 502.622 373.833 494.455 373.167 489.955 369 480.122 366.869 473.641 360 476.747 355.25 481.372 347 479.372 341.625 479.372 336.75 482.497 332 485.497 329.25 485.497 330.625 490.747 332 499.122 327.5 502.997 324.125 507.122 323.375 512.747 321.994 512.428 322.167 518.122 326.333 518.288 327.667 527.788 329.333 532.788 329.333 534.354 333.917 533.038 336.667 526.872" fill="#ffeb00" stroke="#000" stroke-miterlimit="10"/><text transform="translate(166 330.122)" font-size="18" font-family="DejaVu Sans" font-weight="700" style="isolation:isolate">5</text><text transform="translate(401 341.122)" font-size="18" font-family="DejaVu Sans" font-weight="700" style="isolation:isolate">11</text><text transform="translate(163 616.122)" font-size="18" font-family="DejaVu Sans" font-weight="700" style="isolation:isolate">8</text><text transform="translate(378.023 734.122)" font-size="18" font-family="DejaVu Sans" font-weight="700" style="isolation:isolate">9</text><text transform="translate(544 658.122)" font-size="18" font-family="DejaVu Sans" font-weight="700" style="isolation:isolate">12</text><text transform="translate(538 505.122)" font-size="18" font-family="DejaVu Sans" font-weight="700" style="isolation:isolate">10</text><text transform="translate(383.5 488.122)" font-size="18" font-family="DejaVu Sans" font-weight="700" style="isolation:isolate">4</text><text transform="translate(212.583 514.68)" font-size="18" font-family="DejaVu Sans" font-weight="700" style="isolation:isolate">6</text><text transform="translate(277.256 575.226)" font-size="18" font-family="DejaVu Sans" font-weight="700" style="isolation:isolate">7</text><text transform="translate(332.125 505.122)" font-size="18" font-family="DejaVu Sans" font-weight="700" style="isolation:isolate">1</text><text transform="translate(333.542 540.846)" font-size="14.048" font-family="DejaVu Sans" font-weight="700" style="isolation:isolate">2</text><text transform="translate(346.5 577.289)" font-size="18" font-family="DejaVu Sans" font-weight="700" style="isolation:isolate">3</text><rect x="447" y="330.122" width="44.189" height="44.189" fill="silver" stroke="#000" stroke-miterlimit="10" stroke-width="2"/><rect x="198.083" y="301.933" width="44.189" height="44.189" fill="#ff8080" stroke="#000" stroke-miterlimit="10" stroke-width="2"/><rect x="555.511" y="511.952" width="44.189" height="44.189" fill="silver" stroke="#000" stroke-miterlimit="10" stroke-width="2"/><rect x="150.244" y="629.955" width="44.189" height="44.189" fill="#06c" stroke="#000" stroke-miterlimit="10" stroke-width="2"/><rect x="361.406" y="755.455" width="44.189" height="44.189" fill="#ff8080" stroke="#000" stroke-miterlimit="10" stroke-width="2"/><rect x="577.606" y="633.455" width="44.189" height="44.189" fill="#d00" stroke="#000" stroke-miterlimit="10" stroke-width="2"/><rect x="401.471" y="466.667" width="37.702" height="37.702" fill="#ff8080" stroke="#000" stroke-miterlimit="10" stroke-width="2"/><rect x="235.816" y="490.271" width="37.702" height="37.702" fill="#ff8080" stroke="#000" stroke-miterlimit="10" stroke-width="2"/><rect x="297.816" y="555.997" width="27.287" height="27.287" fill="#ff8080" stroke="#000" stroke-miterlimit="10" stroke-width="2"/><rect x="345.103" y="487.015" width="22.287" height="22.287" fill="#06c" stroke="#000" stroke-miterlimit="10"/><rect x="347.5" y="527.098" width="14.4" height="12.873" fill="#06c" stroke="#000" stroke-miterlimit="10"/><rect x="360.19" y="558.176" width="17.833" height="15.942" fill="#d00" stroke="#000" stroke-miterlimit="10"/></svg>