<svg xmlns="http://www.w3.org/2000/svg" width="978.495" height="605.993" viewBox="0 0 978.495 605.993"><title>1T Législatives 2017 Pyrénées-Atlantiques</title><path d="M679.3,596.275l9.655,16.985,9.883-3.2,8.423,7.715,4.474,1.479-0.91-4.43,3.57-2.641-0.663-2.161-0.923-4.347,6.173-6.306,7.993,3.886,3.747,6.034,8.246,4.259,3.817,2.237,10.957-1.162v4.183l3.444,2.306L756.49,643.6l-1.049,12.625,8.031,9.6,8.625-3.2,6.433,0.113,3.33-2.812,4.025,6.774,9.573-13.3-2.129-8.417-5.63-4.063-4.847-7.766-1.125-.9L778.8,628l0.006-2.963-11.646-4.84-1.194-2.174,1.934-1.567-1.3-5.826,4.79-2.022-0.076-3.248-6.243-1.384,2.3-7.33,2.047-4.246-2.2-.455-0.506-4.7,10.742,3.911,3.406-6.268-3.772-9.181,2.66-4.157-3.3-3.741-4.1,2.679-9.535,1.194,0.885,4.391-7.033-.133-0.051-5.959-2.281.012-6.755-3.431,5.933-11.19,0.613-14.489,12.486-1.491,3.785-3.368-3.444-11.715-4.8-5.308-2.395.3-4.834.417-5.889-4.322-9.143-2.8-2.805,6.218-8.031,4.038-4.575-3.678,4.872-5.384-0.866-4.663,3.526-6.54,4.291-5.9,2.262,0.986,3.684-2.85-19.323-9.636-4.126,5.074-4.417-.657L716.815,496l-4.448,8.789,0.581,17.585,0.872,5.933-12.827,7.589-4.562-2.11-0.727,1.877-5.68,1.188-2.616,3.577,2.894,3.185-2.015,6.8-7.7,4.626-0.392,6.464-3.071,3.223,7.008,5.851-3.968,9.87-5.105,6.691,4.651,4.96Z" transform="translate(0.667 -388.971)" fill="#f90" stroke="#000" stroke-width="3"/><path d="M899.053,594.348l0.133-7.665,3.267-3.987,11.393,2.926-1.592-18.83-7.026.568-2.123-8.985-1.289-3.108-4.783-10.577-17.174,8.726-4.726-1.049-0.948-9.686-4.872-1.605-3.753-6.925-5.946-5.112,0.8,9.724-6.451,3.3-7.684-5.725-5.725-9.086-1.94-8.057-2.022-7.33-13.453,5.478-3.267,3.507-6.186-.8-6.666,3.248-12.081-9.44-8.511,3.753-2.136,7.1,3.134,6.976-0.55,4.96,3.279,3.235-0.385,7.494-7.772-.518-4.057-2.9-0.55-6.824-6.989-1.087-3.785,3.368L754.126,540.9l-0.619,14.489-5.927,11.19,6.755,3.431,2.281-.012,0.051,5.959,7.033,0.133-0.885-4.391,9.535-1.194,4.095-2.692,3.3,3.753-2.66,4.157,3.772,9.169-3.406,6.281-10.742-3.911,0.506,4.7,2.2,0.455-2.047,4.246-2.3,7.33,6.243,1.384,0.076,3.235-4.79,2.035,1.3,5.814-1.934,1.567,1.194,2.186,11.646,4.84-0.006,2.963,2.919,4.259,1.131,0.9,4.847,7.766,5.63,4.05,2.129,8.429-9.573,13.3-6.414,10.957,0.265,2.553,6.117,4.076-0.48,2.2,3.962,2.06,0.057,3.551-7.437-2.225-4.663,1.763-1.99,10.1-5.042,5.7,2.856,4.613,12.056,12.17-0.872,7.121,5.573,10.641-5.428,4.663,5.719,4.417,6.546,1.693-1.8,6.711,4.272,2.225-0.455,5.156,4.177,2.976,1.2,4.91-5.965,13.869-0.19,2.578,0.449,2.54,1.592,2.035,8.518,5.8,9.4-2.382,2.9,4.157,12.953-.606,6.685,3.975,12.871-7.235,4.973-5.674,4.916-.948-9-8.012,0.139-5.048,5.738-11.266-0.9-4.947-4.587-5.6,3.027-3.482-1.024-7.589,9.187,2.989,5.4-7.728,10.925-4.947,4.145-15.405,2.028-1.914,4.556-4.923,0.556-6.641,4.872-8.752,2.426,0.676L905.9,708.6l5.782-7.267,12.555-.145-3.286-33.332,2.1-1.219,4.455,1.864,6.654,3.058,1.415-4.7,0.973-7.418,10.331-14.425,3.861-11.822-0.044-2.54-3.975-3.134,1.081-2.306-9.15-2.565-1.605-4.454-0.2-9.737,5.434-4.9,3.526-10.344,1.257-4.454,11.955-1.617,6.23,4.221,2.287-1.061,6.142-8.2,0.727-1.188,1.681-4.714-12.524-12.132-0.316-6.477-2.294,1.049-2.761-3.937,3.2-6.837-1.346-1.813,2.073-4-3.734-.392,2.1-2.123-1.832-1.346,7.229-17.857-7.76-6.964,1.232-9.959-7.538.841-4.448,10.293-3.873-2.679L940.206,522.8l-2.6,6.407-13.048-.145-1.15-.865-9.048,16.442-0.967,2.9-2.711,8.53,6.028,3.027,1.662,3.444,0.531,0.051,7.153,8.467,0.758,4.505-1.137,4.79-1.529,9.427-0.777,6.7-0.1,4.935-2.894,3.949-0.417.158-11.071-4.505-4.1.17-3.1-.012-1.213,3.108,1.605-.285,10.666,5.851-2.963,12.378,5.4,5.22,2.749,4.094-0.8,7.368-4.758,5.655-2.306-.923-5.131,4.626,0.392,4.543-0.986-.076-7.241,1.138-3.065-3.64-8.853-18.7,1.795-7.235-0.057-3.159,4.082-2.951,4.044-8.613,2.363-4.367,3.027-.923,1.213-3.1-0.948-2.382Z" transform="translate(0.667 -388.971)" fill="#f90" stroke="#000" stroke-width="3"/><path d="M659,423.729l-2.862-4.082L638.43,434.136l-7.7.689-0.284-5.181-8.808-4.259-1.327-2.7-4.872.727-8.088-4.91,9.055-11.171-10.925,4.48-14.767,8.752-6.237-3.779-3.823,3.1-0.322,12.277-6.976-.063-3.943-2.8-2.982-7.835L546.985,404.1l-6.451,2.742,0.3,7.121-6.666,1.422-4.935,5.75-9.447-3.7-11.469,5.232-0.272,7.936-6.925,1.125-4.436-1.681-4.038-.948-11.936-3.564-9.832,1.435-3.854,3.172-2.426,7-2.319.916-4.107-2.837-4.392.038-3.109,3.64-6.729-2.211-13.977-3.678L423,435.4l6.041,3.975,0.4,9.851-2.489,6.863L427.7,459.8l-13.762-1.435-3.052,3.147-1.731-1.712-3.09-3.886-7.2-1.693-12.3,2.306,3.033,10.135,3.621,7.355-3.772,12.2,2.047,7.254,10.1,6.761,2.073,15.424,3.532,6.723,6.976-2.565,6.622-3.405,6.047-4.9-1-1.94,3.817-7.614,2.294,0.986,4.347-2.458,9.819,1.371,10.887,4.688,5.428-.208,2.894,3.317,6.5,0.828,4.935,4.171,2.079-.544,10.04-1.334,3.387-6.432,8.676-4.3-2.1-6.723,2.654-4.076,1.339-3.2,4.954,8.777,5.6,4.828L511.7,513.646l1.877,4.65,4.2,5.036,8.467,5.156,7.412-.582,5.377,5,7.469,0.272,11.336,4.935,3.886,4.65,6.717,12.675,8.657,2.875-3.873,2.825-4.631.259,2.015,4.076-3.81,6.009,5.662,6.464,3.7-3.2,2.275,0.948,3.046,8.366,2.332-.1,0.834,4.594,8.53-3.614,2.5,11.961,4.24,6-1.908,7.184-2.237,1.125-2.319,4.157-7.109.9,5.6,4.688-0.6,6.938,9.826-.935,9.914,7.38,0.2,4.935,3.488,3.564-0.43,7.456-0.2.739,4.808,0.841,1.384-2.06,2.938,6.445,3.45-2.54,2.123-6.357,6.078-10.2L637.134,628l4.354-5.826,2.035,1.643,9.333,12.625-2.894,5.618,6.875,7.861,1.036,7.8,4.183,4.246-0.291,2.1-8.777,10.565,10.925,5.592,2.174-5.061,6.439,2.654,4.436,8.417,11.683,9.933,16.5,2.161,4.2,5.826-0.215,4.259,9.15,3.7,12.164,1.8,7.153-6.837,2.5-.025,3.861,2.654-3.065,3.791,6.5-2.306,2.7-11.216,3.924-1.257,6.047,1.984,10.236,6.748,5.042-5.687,1.99-10.11,4.663-1.763,7.437,2.225-0.051-3.551-3.968-2.06,0.48-2.2-6.117-4.076-0.265-2.553,6.414-10.957-4.025-6.774-3.33,2.812-6.433-.113-8.625,3.2-8.031-9.6,1.049-12.625,0.695-22.488-3.444-2.306v-4.183l-10.957,1.162-3.817-2.237-8.246-4.259-3.747-6.034-7.993-3.886-6.173,6.306,0.923,4.347,0.663,2.161-3.57,2.641,0.91,4.43-4.474-1.479-8.423-7.715-9.883,3.2-9.655-16.985,0.392-4.171-4.657-4.96,5.112-6.691,3.968-9.864-7.008-5.851,3.071-3.235,0.385-6.451,7.709-4.638,2.015-6.8-2.894-3.185,2.616-3.577,5.68-1.188,0.727-1.864,4.562,2.1,12.827-7.589-0.872-5.933L712.39,504.8l4.448-8.777-2.426-6.407,4.41,0.657,4.132-5.074,19.323,9.636-3.684,2.862-2.262-1-4.291,5.9-3.526,6.54,0.866,4.663-4.872,5.4,4.569,3.678,8.037-4.05,2.805-6.218,9.137,2.812,5.9,4.309,4.834-.417,2.395-.3,4.8,5.308,3.444,11.721,6.995,1.087,0.55,6.824,4.05,2.9,7.778,0.505,0.379-7.494-3.273-3.223,0.55-4.96-3.134-6.976,2.136-7.109,8.511-3.741,12.081,9.427,6.666-3.235,6.186,0.8,3.267-3.507,13.453-5.491,2.022,7.342,1.94,8.043,5.725,9.086,7.684,5.737,6.451-3.3-0.8-9.724,5.946,5.112,3.753,6.913,4.872,1.605,0.948,9.7,4.726,1.036,17.168-8.726,4.79,10.577,1.283,3.122,7.62-2.332,2.711-8.53,0.967-2.9,9.048-16.442,1.15,0.865,7.507-8.934-8.758-8.65,1.5-7.121,2.6-7.241-2.022-7.292,18.065-1.889,4.613,0.3,2.477-3.286-4.025-3.545-4.366-.556-0.872-9.775-6.963-2.294,1.264-4.727,1.428-6.148,2.129-4.454-2.3-3.52,0.392-4.171-2.97-5.011-3.734-2.445L923.3,428.117l-9.339,3.248-2.357-.133-1.807-4.157,2.742-8.752-2.022-2.768,0.853-4.714L908.79,401.7l-13.661-2.237-3.6,3.108-5.112.063-6.742-3.21-3.671,2.976-2.294-.158L865.949,391l-15.285,9.516-3.008-6.849-9.775,2.666-5.421,4.884-2.11-1.435-2.268,1.706-2.471.025-2.749-4.107L808.594,400.4l-2.054,7.1-3.829,4.96L799,409.95l-0.24,4.246-2.325,4.518-16.4,6.11-6.616-3.665L770.858,417l-19.038-4.739-6.249,3.678-2.881-3.716-17.01,11.43-6.445,2.186-5.756-10.85,6.035-3.108,9.383-11.007-5.2-7.355-4.2-2.073-6.78,6.445-1.82-1.491L688.12,411.512l0.177,0.568-2.932,4.208-6.8,3.741-14.672,10.812-2.37.272Z" transform="translate(0.667 -388.971)" fill="#ffeb00" stroke="#000" stroke-width="3"/><path d="M608.34,934.733l-3.551-8.429-9-8.934-9.838,2.445-11.222-5.927-5.4-5.4-3.374-12.208,4.878-5.788-3.3-6.59,0.619-7.431-1.277-5.478-3.854-1.984-6.628-13.282-7.355-1.162-9.32,2.926-15.07,9.737-12.884-1.554-15.481,1.788-9.813-3.381-7.8-.184-1.7-4.663-5.023-1.188-7.475,6.774-12.739-.442-11.974-4.9-14.7-10.553-5.245-9.048L417.975,838l-2.3-1.257-30.93-4.133-6.534-4.094,0.493-5.036-7.418-1.655-8.069-6.243L348.8,825.254l-2.818-4.094-0.594-7.665-15.007-9.649-0.847,2.357-4.619.17-15.405-12.65-9.876-2.515-8.973,9.156-7.57-.916-5.674-8.556-19.493-11.6,6-16.991,8.581-11.329,5.977-6.667-26.836,4.272-6.5,3.678-6.957,10.824,1.972,10.06L238.7,791.229l-4.385,17.648-2.231,1.334-5-1.358-39.656-11.147-8.764-12.713-8.24-13.143-0.461-5.125,4.227-6.394L194.222,744.6l0.19-2.578,5.738-4.518,2.786-9.592-1.567-6.976,3.343-3.716,2.483-.531,1.535-17.572,8.094-6.022,0.676-25.2,2.666-4.347,0.082-5.112-2.306-12.524-11.81-13.326-4.48-2.37,10.458-6.9L216.3,617.4l9.459-3.122,2.673-4.272,4.467-2.047,13.977,3.26,3.817-3.235-3.621-9.453-9.845-.764-2.186-4.606-6.464-3.419-0.48-5.061,6.571-6.451-5.807-22.116-10.818-14.142-3.52-4.866-0.79-4.727,6.54-6.9-5.339-8.043,4.107-1.952,6.3-8.587,17.25,4.208,10.18,0.158,15.108-2.54,8.037-6.218,8.031,4.872,4.644-.582,1.9,1.788-6.679,2.837-5.4,5.308-3.994,11.747-5.131,11.329,6.578,3.33,0.859,7.443,4.2,6.161,2.458,7.873L282.9,586.792l7.014-.727,3.027-3.589,1.466-6.711,3.918-2.186,6.2-2.11,6.375,1.706,3.083-4,7.153-1.914,10.925-10.476-8.189-12.341-3.722-6.641-0.31-12.132-11.3-15.967,7.431-6.7,9.162,2.692,11.81,2.825,14.994,2.148,24.466-6.42,1.662,1.516,4.448-7.38,1.94,1.138,0.537,3.368-0.872,4.852-4.594,1.712-1.6,4.65-4.183,2.591,4.657,8.328,2.319,1.024,13.5,2.009,1.169,4.379,11.715-10.1,6.97-2.565,6.622-3.405,6.047-4.9-1-1.94,3.817-7.614,2.294,0.986,4.347-2.458,9.813,1.371L456.9,506.5l5.421-.208,2.894,3.317,6.5,0.828,4.935,4.171,2.079-.544,10.04-1.334,3.387-6.432,8.676-4.3-2.1-6.723,2.654-4.076,1.339-3.2,4.954,8.777,5.6,4.828L511.611,513.6l1.877,4.65,4.2,5.036,8.467,5.156,7.412-.582,5.371,5,7.475,0.272,11.336,4.935,3.88,4.65,6.723,12.675,8.657,2.875-3.873,2.837-4.631.246,2.009,4.076-3.8,6.009,5.655,6.464,3.7-3.2,2.281,0.948,3.046,8.366,2.332-.1,0.834,4.594,8.53-3.614,2.489,11.961,4.246,6-1.914,7.184-2.237,1.125-2.319,4.157-7.109.9,5.6,4.688-0.594,6.938,9.819-.935,9.92,7.38,0.2,4.935,3.488,3.564-0.436,7.456-0.2.739,4.808,0.841,1.384-2.06,2.932,6.445,3.45-2.54,2.123-6.357,6.085-10.2,2.205-9.143,4.347-5.838,2.041,1.643,9.333,12.625-2.894,5.618,6.875,7.861,1.036,7.8,4.183,4.246-0.3,2.1-8.77,10.565,10.925,5.592,2.174-5.061,6.433,2.654,4.442,8.417,11.683,9.933,16.5,2.161,4.2,5.826-0.215,4.259,9.156,3.7,12.157,1.8,7.159-6.837,2.5-.025,3.861,2.654-3.065,3.791,6.5-2.306,2.7-11.216,3.924-1.257,6.047,1.984L770.2,707.4l2.856,4.613,12.05,12.17-0.866,7.121,5.573,10.654-5.428,4.65,5.712,4.417,6.552,1.693-1.807,6.711,4.278,2.237-0.455,5.143,4.177,2.976,1.2,4.91-5.965,13.882-0.19,2.578,0.449,2.528,1.592,2.035,8.518,5.814,9.4-2.382,2.9,4.145,1.927,12.044-4.189,8.726-12.322,3.273-2.471,9.851,1.422,22.779,3.109,3.911,2.452,9.864-3.039,8.91-6.9-.568-8.183,9.092-7.45,1.245,1.378,9.92,4.467,6.073,0.069,7.507,4.606,11.614L792.333,941.9l-6.9,10.628-4.859-1.706-7.456,1.466-8.473,13.029-12.833,12.328-11.778-4.493-16.454,7.172L694.861,964.4l-3.425-6.786-4.631,2.035-7.639,10.123-1.485,12.252L668.3,984.9l-5.011,8.417-7.532-1.27L654.4,984.8l2.508-4.442-0.31-5-4.006-2.742-9.668,2.787-4.644-2.073-1.118-17.326-10.363-7-7.8-9.959Z" transform="translate(0.667 -388.971)" fill="#ffeb00" stroke="#000" stroke-width="3"/><path d="M173.516,450.521l1.144-12.315-8.644-4.468L154.3,442.812l-12.587-2.035-13.4,26.191,7.721,6.786-0.076,18.034,7.45,1.94,2.528,4.133,11.69,1.15,5.725-3.962,5.485,4.985-0.095,7.627,7.361,2.174,3.09,9.092,17.522,3.469,4.657-1.877,4.429-5.915,9.162,2.85,4.107-1.94,6.3-8.6,17.25,4.208,10.18,0.158,15.108-2.54,8.037-6.218,8.031,4.872,4.644-.568,1.9,1.776-6.679,2.837-5.4,5.308-3.994,11.747-5.131,11.329,6.578,3.343,0.859,7.431,4.2,6.161,2.458,7.873-0.487,22.179,7.014-.727,3.027-3.589,1.466-6.7,3.918-2.2,6.2-2.11,6.375,1.706,3.083-4,7.153-1.914L332.084,556.8l-8.189-12.328-3.722-6.654-0.31-12.132-11.3-15.955L316,503.017l9.162,2.692,11.81,2.825,14.994,2.148,24.466-6.407,1.662,1.516,4.448-7.393,1.94,1.138,0.537,3.381-0.872,4.84-4.594,1.712-1.6,4.65-4.183,2.591,4.657,8.328,2.319,1.036,13.5,2,1.169,4.379,11.715-10.084-3.538-6.736-2.073-15.411-10.091-6.774-2.054-7.254,3.779-12.2-3.621-7.355L386.495,456.5l-2.768-8.3-3.722-2.471-4.581,8.233-9.529-1.8-4.834,8.069-8.941,2.755-2.5.221-1.656,7.222-2.37.79-4.638-5.642-6.4,3.652-2.142-1.308-0.095-3.027-1.074-6.022,3.716-2.294,14.7-.948,3.507-3.185-1.617-4.613-10.723-6.774-2.963-6.913-7.88-5.478-11.506-.025-4.442,4.322-7.368,7.146-17.686,10.192-5.011,2.73L267.033,463.98l-16.675-4.866-6.382,1.491-0.341-.158-18.653,6.022-23.936-1.631-1.845.221-6.041-11.367-14.893-4.221Z" transform="translate(0.667 -388.971)" fill="#f90" stroke="#000" stroke-width="3"/><path d="M113.146,489.545l-16.89,26.842-3.9.392-2.376,2.963L77.54,531.774l-14.476,4.367,4.986,6.256L64.062,545.5l-7.241-2.812,0.449-2.483-2.376-.8L29.474,550l-9.9-2.1-5.137,5.889L5.1,558.124l3.861,5.087L1.45,573.353l8.069,5.712,4.853-.948L14.915,578l4.284,2.528,0.916,5.087,6.691,3.551L26.34,599.362l4.644,11.961,9.832-1.8,5.156-5.712,4.461-2.174,4.493,2.211,9.162-3.716,7.4,1.1,5.99,4.391,4.765-1.516,0.152-.012,6.527,3.817-3.4,15.083,4.7,14.982,4.935,6.034,2.388,1.074,18.053,0.505,7.494-16.561-1.188-9.851,17.433-3.7,12.581,0.1,6.4,8.043,5.074,0.43,8.347,5.959,12.283,3.6,9.4,1.371,8.252-4.777,10.458-6.9,4.189-5.915,9.459-3.122,2.673-4.259,4.467-2.06,13.977,3.26,3.817-3.235-3.621-9.453-9.845-.764-2.186-4.594-6.464-3.419-0.48-5.074,6.571-6.451L228.887,556.1,218.069,541.96l-3.52-4.866-0.79-4.727,6.54-6.887-5.339-8.057-9.162-2.85-4.429,5.915-4.657,1.877L179.19,518.9,176.1,509.8l-7.361-2.174L168.834,500l-5.485-4.985-5.725,3.962-11.69-1.15-2.528-4.133-7.45-1.94,0.076-18.034-7.721-6.786-10.735,8.8-0.158,4.947Z" transform="translate(0.667 -388.971)" fill="#f90" stroke="#000" stroke-width="3"/><rect x="544.709" y="274.851" width="76.838" height="76.838" fill="#adc1fd" stroke="#000" stroke-width="3"/><text transform="translate(486.667 338.99)" font-size="69.154" font-family="DejaVu Sans" font-weight="700">4</text><text transform="translate(88.276 200.133)" font-size="69.154" font-family="DejaVu Sans" font-weight="700">6</text><text transform="translate(181.786 121.881)" font-size="52.495" font-family="DejaVu Sans" font-weight="700">5</text><text transform="translate(551.429 118.758)" font-size="69.154" font-family="DejaVu Sans" font-weight="700">3</text><text transform="translate(718.505 170.68)" font-size="43.415" font-family="DejaVu Sans" font-weight="700">1</text><text transform="translate(796.126 200.133)" font-size="69.154" font-family="DejaVu Sans" font-weight="700">2</text><rect x="603.887" y="60.615" width="76.838" height="76.838" fill="#ff8080" stroke="#000" stroke-width="3"/><rect x="804.859" y="221.241" width="73.679" height="73.679" fill="#ff8080" stroke="#000" stroke-width="3"/><rect x="283.364" y="73.075" width="38.206" height="38.206" fill="#ff8080" stroke="#000" stroke-width="3"/><rect x="691.907" y="175.571" width="30.508" height="30.508" fill="#06c" stroke="#000" stroke-width="3"/><rect x="149.584" y="151.577" width="38.206" height="38.206" fill="#06c" stroke="#000" stroke-width="3"/></svg>