<svg xmlns="http://www.w3.org/2000/svg" width="969.042" height="893.966" viewBox="0 0 969.042 893.966"><title>1T Législatives 2017 Creuse</title><path d="M936.965,494.01l-0.34-21.824,4.506-5.169L943.4,449.9l2.722,0.184,2.106-5.049-4.865-35.407L929.819,407.5l-10.42-9.767-0.166-10.438-5.123-9.7-5.132-40.42,0.873-1-21.41-11.947-8.719-21.263,1.416-7.44,0.561-3.9-7.873-8.516-21.263-9.767-7.458,1.867-5.859,9.969-3.633-.919L831.118,270l3.955-13.814-25.42-24.27-1.628-.451L795.95,253.255l-3.44,1.738-6.474-13.8-18.522-2.051-15.377-10.724-2.318-7.164-7.44-1.582,4.46-6,1.38-10.116,10.678-10.4,10.862,0.037-0.543-3.734-3.955-10.613-14.788,2.658-9-6.576L730.516,173.3l-1.683-3.394-4.976-25.346,2.832-2.465-2.593-7.348,1.821-3.522-18.835-3.09-2.575-2.86L678.7,127.61l-17.833-5.334-10.116,5.84-13.381-1.058-14.522.193-6.723,3.182-19.258-.487-9.786,12.213-11.588.791,0.111-.322-6.87-2.088-5.886-9-7.026-1.4-11.689.644-14.917-4.332-5.739-4.829-22.661-2.336-1.8-4.884-9.4-7.128-41.146,10.907-5.15-9.142-6.254-3.541-9.16,5.123-9.39-2.547-3.008,9.289-23.608-.957-8.728,7.56-18.863-5.224-1.278-7.974L351.47,99.634,348.5,92.111l-39.6,5.555,3.964,5.123,4.405,6.337-2.373,3.072,3.495,11.027-8.58,17.189,1.389,7.633-14.853,11.947-2.9,6.9-14.412-5.049-20.15-28.078-17.17,15.625-5.031,10.53-11.027,10.8-10.751-4.35L204.8,150.557l5.325-18.2-9.518-4.258-6.474,4.028-6.824,13.308-11.349-1.242-2.474,2.925-15,11.91-7.026-.074-1.968-23.3-6.971-8.967-7.367-2.566-11.542,8.387-1.389,7.164-6.787,8.424-2.474,12.324-6.576-2.943-6.98,3.679L86.954,181.247l-14.467,5.086-6.438,9.951L65.82,204.2l-16.757,9.951-4.3,6,12.839,7.56,11.064-.129,4.277,5.334-5.555,8.71,2.925,22.09-13.252,6.07-6.346,20.886,10.539,2.281,4.69,5.748-9.629,5.877-7.321-2.115-6.732,9.325,0.957,7.33,9.2,6.465-1.085,7.468L33.732,336.69,20.82,358.7l-3.531,1.4,9.518,20.978,6.346,4.148,2.87,11.33,6.456,3.017,9.243,6.2,11.137-1.619,5.859,3.541L78.3,401.9l6.52,3.973L83.211,412.9l4.838,10.08L77.344,434.065l14.651,3.449,9.123,12.085,10.843-1.508-1.012,7.633,6.116,4.414,2.106,7.146-8.884,6.235-3.918,10.724,8.985,6.447,0.57,7.615,5.582,7.256,3.642-4.865,10.5,5.031,0.111,7.955,11.827,7.183-6.4,18.789,2.9,6.732-0.948,2.566,1.968,7.6,7.578,8.93-8.626,12.967-2.593,19.4,3.559,11.211,20.582-.111,3.247,0.68L173,621.587l2.832,9.178-1.949,2.547-6.7,13.6-7.67-.414-15.644,11.192-13.887,4.038L129.417,672l-7.036,1.187,3.807,10.383,14.559,1.343,11.588,14.66,6.824-2.621,13.6,3.752,3.072-2.244,3.053-14.475,18.541-2.639,10.043,3.394,6.235-2.906,1.766,6.971,7.128,0.524-8.71,11.551,12.176,21.879L226,727.057l-7.036,2.676-7.946-7.026L207.864,733.3l-5.012-3.9-7.67.7-8.626,7.422,9.887,4.24,2.575,14.384-3.587,10.116,20.38,11.082,19.037,2.207,5.546,13.271,5.813-5.408,7.458,1.076,14.08-6.9,15.579,2.925,11.616-2.584,7.854-8.857,12.6-4.791,0.91-11.8L327.082,754l7.008,18.145L329.125,782.6l3.513,10.816,14.6,3.449,14.89,17.731,6.889,3.541,3.513-1.729,0.184-7.8,4.028-6.41,6.9,12.857,9.684,4.166,0.653,3.734,3.826-.193,17.667,13.906,7.146,29.512,7.183-1.315-4.525,10.613-11.33.561-6,4.525,9.564,11.588-10.126,19.58,1.545,3.412,7.183-2.115,6.125,9.289-9.132,6.539,0.3,3.752,3.816,0.607,9.905,11.477,9.362-6.272,6.447-9.16,7.311,1.15,5.371,5.518,7.2-.957,2.87-14.908,6.511-4.166,15.257,0.074,5.159,5.068,6.566-4.038,5.7-9.859,2.593-18.982,9.831-6.373,19.3-1.471,7.67-8.82,3.872,0.57,5.426,10.365L571,890.971l1.343,11.1,0.175,9.325,9.473-6.484,12.839,8.139,12.526-8.553,13.9,12.683,7.468,1.4,3.375-15.9,10.438,4.258,8.075,12.839,14.715,3.845-7.458,17.621,3.182,2.171,10.153-3.486,1.37-11.441,7.8,16.738,7.339-.451,4.561,5.932,6.861-1.508,8.645,6.539,10.447-3.6,0.441,30.662,11.578-.957,9.013-7.183,6.935-3.43,10.355,4.525,16.582-15.3,5.9-10.006-0.975-7.707-1.858-7.422,2.612-2.86,15.055-4.387,4.884,0.469,6.033,4.561,22.541-.414,19.736,10.889,6.759-9.27,7.413-1.885,10-11.312,3.66-.147,0.975-10.724,15.165-9.648-5.389-10.309L874.7,887.393l-3.311-7.063-9.574-6.052-7.1,2.511-9.013-12.268-2.547-21.014-33.495-43.473,11-10.935,18.945,3.164L844.585,787l1.665-6.824,10.162-.828,1.435-7.183-4.884-5.371,0.009-10.935,13.878-.3,3.21-4.846,7.054,0.193,6.741,7.486,7.275,0.524,7.33-13.225,0.294-11.625,7.735-.9,32.317-27.443,3.642-1.756-10.917-4.148-1.343-3.66,1.536-11.57,5.96-4.976-0.12-7.458,13.041-8.01-1.894-7.541,2.2-3.109,29.8-9.629,2.005-10.834-9.841-11.91L970,610.525l4.028-21.594,3.449-19.847-22.946-15.828L940,520.332l-3.256-11.625,1.573-7.836Z" transform="translate(-15.272 -90.461)" fill="#ffeb00" stroke="#000" stroke-width="3"/><rect x="553.918" y="324.501" width="111.835" height="111.835" fill="#06c" stroke="#000" stroke-width="3"/><text transform="translate(464.707 411.334)" font-size="100.652" font-family="DejaVu Sans" font-weight="700">1</text></svg>