<svg xmlns="http://www.w3.org/2000/svg" width="662.97" height="977.143" viewBox="0 0 662.97 977.143"><title>1T Législatives 2017 Deux-Sèvres</title><path d="M313.153,588.264l-0.408,10.675-3.307,7.271,3.992,3.674,0.893,5.43,5.009,2.3,7.444,2.58,5.472,5.894-4.9,9.3,8.143,6.959-0.913,2.566-1.128,9.969,3.065,4.469-0.927,5.389,2.269,1.5-3.085,3.514,6.628,8.807-0.173,5.375,16.022,5.133-6.185,5.23-2.193,8.094,5.327,6.012-2.767,8.219,4.282,7.472-2.414,8.267-4.123,3.853L365.4,747.9l-2.712,1.038-3.21,10.5,1.287,5.61,11.809,1.757,12.57,7.257-12.231,11.283-1.584,5.444,3.487,4.227-3.251,6.579-2.94-.339-10.73,9.768-5.721,10.322-5.687-.554-5.569-6.807-7.43-9.077-1.591-2.283-3.079-3.217-7.852-2.449L307.8,786.382l3.03-7.879-24.068-4.96-2.172,1.826,1.39-5.458-5.168-2.38,1.66-5.327L277.96,755.4l1.245-5.6,1.937-7.5-4.711-13.442-0.152-8.523-3.051-4.663-7.285,8.2-10.688-2.435,0.789-16.839-22.338.72-2.276,5.4-10.349,5.4-11.007,2.947-4.815-2.636L197.8,704.728,197.034,693.5l-16.88,8.108-10.681-1.529-5.043-6.123,3.964-4.434-0.159-8.35,10.474-4.42,6.634-5.943,3.03-11.041,14.355,3.051,11.076-4.2,1.356-2.664,11.456-19.108-6.959-5.327-11.4-1.584-1.965-5.244-5.652-1.3-11.332-8.862-5.728-.367-5.811,19.267-10.2-5.375,4.628-6.877-5.334-6.745,1.522-16.7,9.761-5.908,2.615-10.833,4.462-1.944-4.711-7.347-1.045-8.786-6.205-5.839,1.785-14.362-5.182-6.793-5.894-5.285,3.334-7.16-2.089-4.69,8.246-2.905,11.484,0.028,3.847-4.407-0.567-8.149-3.065-16.839-5.659.851-3.964-13.649,6.628-8.7-3.245-4.58,1.308-5.05-6.15-5.756,7.755-12.432,17.44,2.352-0.194-5.078,2.034-1.5,5.853-.692,8.821,7.852-4.089-10.875,21.128-20.2,12.965,10.079,13.352-4.241,6.074-6.351,0.581-20.028-2.262-11.242-4.628-3.231,5.015-9.484,14.7-2.041,7.492-4.621,7.229,9.229,7.824,4.213-0.484,8.931,3.833-.609,4.849,2.677,1.75,7.983,2.435,1.418,2.117-2.055,5.119,2.933,5.728-1.39,7.914,3.632,20.706-10.647,6.053-6.337,7.956-2.511,7.306,9.367-0.554,14.459,6.807,13L365.238,414.2l-21.453,9.907,11.408,1.446,2.352,11.214-4.87,7.043,5.673-.284L361.842,448l5.452,1.584L378,449.566l5.078-2.539,4.663,0.609,3.4-3.272,5.562,9.3,17.378,9.028,3.279-4.732,6.275-4.891,10.156,4.123,8.232-1.093,2.3,5.043-4.2,13.15,4.068,3.646-4.76,16.866L426,493.217l-3.985,7.741-0.865,14.472,8.62,0.636,6.489,5.61,8.087,0.893-3.369,4.7-0.339,11.47-4.379,10.592-4.089,3.674-1.059,11.47-5.175,1.785-2.228,9.3-5.154,2.525-8.848-6.731-17.26,9.568-2.94.055-0.63-11.387-10.861-17.281-5.68,6.136-6.288-9.09-2.525,1.377,4.628,19.744-4.933,7.057-9.927,5.618-3.279,8.011-6.129,4.947-4.739-2.311-4.559,2.456-13.76-5.444-5.265-7.029Z" transform="translate(-10.16 -15.477)" fill="#ffeb00" stroke="#000" stroke-width="3"/><path d="M234.094,855.7l-1.01-5.389-3.819-3.542-7.983-3.528-11.422.484-7.658-4.213L200,846.9l-11.318-2.566-7.949,3.5-7.257-4.338-2.4-4.179,1.494-2.408,15.939-3.618-6.115-5.043-5.749.5-6.953-4.082-5.258.595-6.959-4.179-8.149-11.415-11.352,1-2.006-7.838-2.67-1.079,0.816-2.767,5.6,0.706,1.854-2.138-2.3-13.608-2.719-4.78-6.98-4.448-28.613-17.44-1.5-5.61,10.592-13.739L104.6,727.9,99.07,711.39l2.449-4.469,14.251,0.893,4.628-1.84-1.723-5.258,2.919-4.552,5.438-.948,5.742-6.123,14.742,7.638,11.878-1.065,5.029-1.674,5.043,6.109,10.681,1.529,16.88-8.094,0.768,11.228,7.458,11.7,4.815,2.636,11.007-2.933,10.349-5.4,2.276-5.4,22.338-.72-0.789,16.839,10.688,2.435,7.285-8.219,3.058,4.663,0.145,8.523,4.718,13.442-1.944,7.5-1.245,5.6,4.518,6.807-1.66,5.327,5.168,2.394-1.39,5.458,2.172-1.826,24.068,4.947L307.8,786.4l13.165,10.592,7.852,2.449,3.079,3.217,1.591,2.283,7.43,9.069,5.569,6.821,5.687,0.54,5.721-10.322,10.73-9.768,2.94,0.339,3.258-6.565-3.494-4.227,1.584-5.444L385.144,774.1l-12.57-7.257-11.809-1.771-1.287-5.61,3.217-10.5,2.7-1.038-16.23-11.678,4.116-3.853,2.414-8.267-4.282-7.472,2.767-8.219-5.32-6.025,2.186-8.094,6.192-5.216-16.029-5.133,0.18-5.375-6.628-8.807,3.079-3.528-2.269-1.5,0.934-5.389-3.071-4.469,1.128-9.955,0.913-2.58-8.143-6.946,4.9-9.312-5.472-5.88-7.444-2.58-5.009-2.3-0.885-5.444-4-3.66,3.307-7.271,0.415-10.688,2.373-4.462,5.265,7.043,13.76,5.444,4.559-2.456,4.739,2.311,6.129-4.947,3.279-8.025,9.927-5.61,4.933-7.063-4.628-19.73,2.525-1.377,6.288,9.077,5.687-6.123,10.854,17.281,0.63,11.387,2.947-.069,17.26-9.554,8.841,6.717,5.154-2.525,2.228-9.284,5.175-1.8,1.059-11.456,4.1-3.687,4.372-10.578,0.339-11.47,3.369-4.7-8.08-.906-6.489-5.61-8.62-.623,0.865-14.472,3.985-7.741,13.435,1.57,4.76-16.866-4.068-3.646,4.179-13.13-2.3-5.043-8.239,1.107-10.156-4.123-6.275,4.877-3.272,4.732-17.385-9.014-5.562-9.3-3.4,3.258-4.663-.609-5.078,2.539-10.709.014-5.452-1.57L358.3,443.6l-5.666.27,4.863-7.043-2.352-11.214-11.4-1.446,21.446-9.907,17.468-2.013-6.814-12.985,0.554-14.472-7.3-9.353-7.963,2.5-6.053,6.337-20.706,10.661-7.914-3.632-5.728,1.39-5.119-2.947-2.117,2.055-2.435-1.4-1.75-8-4.843-2.664,16.506-9.8-1.75-2.269,5.97-5.929L321.5,348l1.356-2.511,4.192-11L319.458,321.9l10.467-4.78,11.518-1.785,16.991-19.7L371.9,306.591l14.313,3.272,1.4,2.608-2.871,5.147,0.47,5.88,5.334,6.89,7.347-1.674,6.185-1.674,6.413,5.258,3.66,7.907-0.893,8.7-5.908,6.462-0.74,8.564,10.349,17.9,4.137,3.715,17.33-11.027L455,376.581l3.279-8.108-2.345-17.157,5.265-.242,9.969-5.957-8.883-12.01,17.648-9.582-0.422-5.853,2.1-2.055,4.552-6.012,4.822-3.03,9.609,5.486,6.835,9.077,0.927,8.136,16.2-5.334,1.55-5.618-2.608-11.484,3.763-4.538,2.74,1.051,0.3,8.364,5.119,10.522,6.316-5.943,15.33,17.44,5.244,2.11,2.027,8.551-2.712,1.148-5.327-.422-11.221,8.606-2.5,1.556,1.847,8.648-1.564,5.5-10.806,4.324,5.147,9.955-12.971,11.415-0.221.083-3.431,4.677,1.909,2.228-0.526,8.7-13.711,10.861-4.677,7.444,0.574,5.867,22.124-4.891,6.468-9.312,7.236-4.538,3.161,4.255-6.205,19.806,7.8,4.338,11.567-2.566,0.685,16.617,11.007,3.376-7.126,5.244-5.915.339-14.016,11.055-3.992,13.933,10.128,8.634-7.873,18.27-14.749-.865,0.1,14.265-4.469,7.34-0.256,5.631,4.151,3.812-6.088,5.375-0.429,8.474,1.861,2.027,12.909-4.3,3.307,3.258,1.225,2.511L531.6,579.93l5.085,2.892-1.294,20.484-4.379,17.067,7.195,8.433-0.007,5.915,4.947-2.795,8.322,1.321,4.76,9.685,6.793,5.043-11.982,14.051,10.328,9.2-4.933,3.148-4.663,13.836,8.384-2.055L570.63,691.5l18.264,14.846,11.013-13.3-0.823-5.867,3.431-4.808,9.741-6.634,3.161-5.043,8.4-2.214,10.937,5.216,12.46,12.916-6.724,9.416,2.082,5.417-2.643,4.407-5.6-1.218-1.494,2.456,11.387,21.66-6.039,9.429-19.536.228,5.071,18.914,1.183,4.054,1.889,8.295-4.005,4.013-2.691-.934-7.811,11.595-2.712.837-3.362,22.269,18.769,5.43,2.228,5.258,2.753,0.72,4.123,13.082,9.865,1.135,2.961,4.849,5.818,0.692,6.773-9.028,8.821,0.754,2.816,0.311,0.477,2.809-1.55,11.242-9.263,10.4-1.225,2.566,2.677,0.948-1.785,7.029-6.552,5.2,1.093,5.528,3.9,7.838L647.248,894.7l-4.711,1.01-1.176-2.151-18.644-16.541-9.81,5.472-7.914-.339-5.285-6.254-2.165,1.716,3.853,10.038-1.564,2.214-6.579-3.6-7.492-.65-11.9,11.74,5.161,6.593-5.285,2.041-8.675,1.121-10.972,13.31-8.378-5.659-4.386,3.418-13.905-.726-7.824,2.74,1.6,8.322,8.274,11.3-5.009,6.849-8.426,1.051,0.09,5.555-3.7,10.28,5.6,4.877-4.808,6-5.009,2.539-1.861,5.362-8.5.311-15.572,8.2-8.468-6.634-10.757-.879,1.771-7.672-2.476-1.321-4.684-13.117-8.067-.311-3.341-6.538,0.72-5.313-2.9-3.784,1.985-10.391-14.486,8.163-1.079-14.811-2.622-.948,0.906-5.458-9.858,4.863-10.847-2.11-2.318-.456-23.5-7.513-4.116-16.589-7.8-8.219-5.756,6.648L350.4,896.292l-2.553-.989-18.34,5.867,0.5-7.312-6.821-8.392-7.578-2.348-8.821,10.716-11.733-7.714,0.111-16.929-10.647,8.239-0.65,7.6-5.825-6.3-13.795-2.2-17.537-2.214-7.506-4.407,3.784-3.743-4.925-6.268,4.275-3.314Z" transform="translate(-10.16 -15.477)" fill="#ffeb00" stroke="#000" stroke-width="3"/><path d="M515.982,255.425l5.783-.125,5.32-6.835,9.5-6.212,8.4,2.069,6.648,9.159,1-.512,10.087-16.43-5.887.125-8.025-4.013-4.96-3.334-5.735-6.821-8.426-3.161-5.763,1.515-2.02-2.228,4.331-3.646,2.982-13.338L537.5,190.25l-2.788-12.01-4.863-13.981-5.05-3.148-0.533-6.067-7.748-9.215-0.837-6.039,7.721-11.837-3.3-7.783-9.761-4.621-8.6,1.556-9.713,6.51-3.473-17.254,0.394-5.4L494.3,102.2l0.733-2.58-4.075-10.28-1.176-6.593-0.678-4.483-6.3-23.224L467.08,64.175l-4.552-3.161-0.72-5.6-4.344-3.445-5.4-1.543-6.787,4.78L440.127,52.7l-2.235-1.971,6.953-9.658,15.2-13.635-0.214-5.943-8.765,1.785-17.108-5.908-2.913,7.582-9.45,5.583L401.517,20.212l-10.439,4.2-2.767-4.483-4.234,3.7-5.618.948-2.082-1.93L365.515,26l-6.462,5.528L342.879,35.66l-8.592-6.676-2.56,1.273-13.421,4.3-2.788-.47L315.3,31.246l-5.278,1.868-2.788,16.811-4.621,3.687-10.5-4.96L280.969,52.6l-8.889-.581-11.664,12.7-1.979-11.186,11.553-8.191,0.443-5.015-16.721-.837-13.718,4.241L213.775,57.736l2.11,2.124,0.035,11.767,7.416,9.069-2.1,5.472-8.544-.65-3.065,8.35-7.838,4.241-4.206,7.568-3.881,2.664-0.969,4.434L178.21,116.7l-7.8-3.037-8.53,1.971-13.58-5.514-5.486,6.676,0.118,4.808-10.751-5.943-9.45,7.388-11.387-9.623-2.975-.526-7.34,4.7-5.943-.72-6.8-9.187-8.5-1.148-4.912,7.1L67.5,118.025l2.034,2.055L66.8,121.1,62.77,116.78l-2.961.111-7.382,4.822-8,1.19-4.379,7.077,0.546,5.486-2.746.961L24.23,131.4l-5.811.408-6.033,4.76,2.082,2.172,8.821-1.363,2.338,8.108,7.506,1.584,0.934,5.853-7.741-.72-2.3,2.041,0.844,2.878,17.15,1.944-0.47,5.133L54.5,170.305l3.674,8.136,8.5,1.716-2.3,4.933-3.847,4.31,1.218,5.514-8.336,15.351,9.989,5.05,12.777,18.063,4.109,5.105,3.134,7.6,4.849,2.352,8.952,7.769,11.387,2.082,5.272,6.309,11.518-.014,6.441,10.917-9.8,6.15-2.85,10.675-2.684,5.458-0.823,12.162,4.005,11.186,7.049,5.175,5.618-1.646,1.612,5.362-1.529,8.094,5.542,8.648,2.5-1.543,6.641,5.867L157.3,368.645l-13.476,11.7,12.356,8.551,12.2,11.456-6.364,5.61-0.394,8.35L155.63,420l0.941,5.514,8.219-3.3,5.908,1.273,11.228,13.877,17.44,2.352-0.194-5.078,2.034-1.5,5.853-.706,8.821,7.866L211.8,429.42l21.121-20.2L245.882,419.3l13.352-4.255,6.074-6.337,0.581-20.028-2.262-11.242L259,374.193l5.023-9.471,14.7-2.041,7.492-4.621,7.222,9.229,7.824,4.213-0.484,8.931,3.833-.609,16.513-9.8-1.75-2.255,5.97-5.943-3.694-13.725L323,345.58l4.192-10.986-7.589-12.6,10.467-4.767,11.518-1.8,16.991-19.7,13.456,10.958,14.32,3.272,1.4,2.608-2.871,5.147,0.47,5.894,5.334,6.877,7.347-1.674,6.185-1.66,6.413,5.244,3.66,7.907-0.893,8.717-5.908,6.448-0.74,8.564,10.349,17.918,4.137,3.715,17.33-11.027,16.569,2.055,3.279-8.108-2.345-17.17,5.265-.242,9.969-5.957-8.883-12,17.648-9.6-0.422-5.853,2.1-2.055,4.552-6.012,4.822-3.03,9.609,5.486,6.835,9.077,0.927,8.136,16.2-5.334,1.55-5.618-2.608-11.484,3.763-4.524,2.74,1.051,2.449-1.432-3.839-7.2,0.927-2.677,9.173-10.522,8.163-7.541L546.9,271.26,540.41,266.1l-10.259,4.268-15.995-7.029,2.172-.823Z" transform="translate(-10.16 -15.477)" fill="#ffeb00" stroke="#000" stroke-width="3"/><rect x="262.625" y="443.984" width="84.125" height="84.125" fill="#d00" stroke="#000" stroke-width="3"/><rect x="443.644" y="766.688" width="84.125" height="84.125" fill="#ff8080" stroke="#000" stroke-width="3"/><text transform="translate(223.049 563.013)" font-size="75.712" font-family="DejaVu Sans" font-weight="700">1</text><text transform="translate(428.166 748.101)" font-size="75.712" font-family="DejaVu Sans" font-weight="700">2</text><text transform="translate(277.391 219.917)" font-size="75.712" font-family="DejaVu Sans" font-weight="700">3</text><rect x="344.496" y="151.331" width="84.125" height="84.125" fill="#06c" stroke="#000" stroke-width="3"/></svg>