<svg xmlns="http://www.w3.org/2000/svg" width="938.479" height="852.013" viewBox="0 0 938.479 852.013"><title>1T Législatives 2017 Lot-et-Garonne</title><path d="M651.66,650.249l-6.951-1.336-13.621-10.67,4.775-4.938L635.52,622.8,619.9,631.013l0.136,9.5-11.076,7.33L597.843,662.11l-9.523,4.622-13.025,2.807-10.958.226,6.03-12.249-5.488-4.694-7.2.776-19.218,10.318-20.816,13.946-12.222-12.89h-3.6l-2.934,1.8,0.19,6.788,5.976,7.583-4.658,4.9-14.623,3.385L475.108,685.8l-14.145,5.416-11.256-1.165-9.694-7.618-4.315-5.362-12.114-.83-16.934,8.088L388.6,680.344l-4.287-5.533-1.995-21.231-1.11-4.387-11.067,17.259,4.55,8.864,0.271,10.471-9.839,4.351-4.08,5.849,0.93,3.511-8.214,5.8-9.875-2.112-2.87.334-5.028-7.068L324.57,710.7l-25.482-1.354-9.342-6.7-10.019,4.477L269.336,717.6l-7.32-.848L253.26,728.7l18.857,21.294,13.233,3.439-22.558,12.836L263.063,770l6.2,9.153,14.217,3.792,7.14,13.152-18.414-.7-3.331,10.155-13.738,4.811L229.3,808.774l-2.979,5.588,3.683,9.731-9.848,5.325-17.7,19.362,2.572,6.977L192.2,873.124l-8.621,35.493-4.938,5.29-7.339.948,1.544,7.248,0.56,18.036,10.038,19.236,24.047-2.383L222.85,942.9l-0.433-3.575,10.859,8.846-1.824,18.18,10.318,3.611,6.9-1.236,3.276-6.49,0.56-14.776,11.455-8.954,6.788-13.133,2.816,1.391,6.364-.577,9.965-9.117,3.06,1.76,5.561,1.5,5.217-2.834,0.171,13.874,13.54,5.461,14.036,0.19,3.566,6.419,6.815,0.073,15.779,7.212,1.913-2.943,9.6-3.475L367.2,930.725l7.1,2.329,24.76-8.124,12.123,7.51,7.32,0.144,8.846-12.005,3.2-1.977,7.411-.74,8.611-6.662,18.045-.515,6.03-16.663,0.28-1.445,6.968-10.317,16.943,2.076,2.943-5.605L510,881.044l2.392,6.238,5.263-12.872,20.6,10.435,15.6-5.642,6.309-2.537,7.357-15.3,6.562-1.869,5.813-2.754,6.562,1.335-1.462,3.258L605.4,875.356l4.4,13.152,15.779,7.05,1.724,10.616,6.21,8.936,13.062-5.073,2.446-13.747,9.045-3.087,10.264-14.072,7.086,0.74,18.974-8.105L692.1,861.592l6.716-12.6,0.262-7.231,4.892-12.3,15.851-12.909,5.281,4.233,12.791,3.015-4.161-8.919,3.376-12.763-7.546-13.224,6.779-2.554,18.36,2.419,26.791,13.1,1.841,3.277,8.656,1.128,8.449-5.642,0.271-6.878,2.771-2.067,6.156,3.015,1.011-6.544-3.881-5.75-2.4-13.333,3.511-5.993,0.181-3.629-5.976-3.936-9.189,5.308-4.874-4.884-7.89-1.309,0.036-10.137,4.622-9.081-43.391.19-0.776-10.67,6.851-8.467-3.692-4.865-4.938,2.419-10.281.461-8.72-11.726L721.2,692.4l-0.6-2.347-6.7.461-9.667,8.729-7.826-6.418-3.7-5.145-10.326.208-7.1-6.346,0.136-6.382,0.126-6.824,6.21-4.053,0.19-10.119-7.357-11.617-6.165,2.87-9.6-2.4Z" transform="translate(-15.339 -119.496)" fill="#ffeb00" stroke="#000" stroke-width="3"/><path d="M102.983,556.037l-5.65-.7-17.71.939-7.871,7.33-7.131-.6-5.326,17.259,6.129,5.308,15.77,14.56,17.187,23.975-6.2,3.773L99.3,648.435l-15.165,8.837L73.809,677.763,68.971,672.7l-11.8,13.82-12.547,7.05-9.866-3.963-4.225-5.416-2.094,6.716L17.1,699.418l8.467,25.473,0.379,53.718,11.067,1.056,6.274-3.773,14.434-1.111,21.4,5.5,43.03,0.966,0.19,0.036,22.314,12.339,6.96,8.232,77.657,6.9,25.843,1.589,13.738-4.811,3.331-10.155,18.405,0.7-7.14-13.152-14.208-3.792-6.2-9.153-0.28-3.737,22.558-12.836L272.1,749.968l-18.857-21.294,8.747-11.951,7.33,0.848L279.7,707.1l10.029-4.477,9.342,6.7,25.482,1.354,11.419-14.244,5.019,7.068,2.879-.334,9.875,2.112,8.214-5.8-0.93-3.511,4.08-5.849,9.839-4.351-0.271-10.471-4.55-8.864,11.067-17.259,1.11,4.387,1.986,21.231,4.3,5.533,18.045,3.981,16.934-8.088,12.114,0.83,4.306,5.362,9.7,7.618,11.256,1.165,14.145-5.416L485.75,689.4l14.623-3.385,4.649-4.9-5.967-7.583-0.19-6.788,2.934-1.8-4.838-7.952,2.807-1.128-0.488-10.787-11.374-7.348,2.275-6.752L482.2,618.866l5.281-8.837-16.158-8.377-4.26-8.765-0.117-9.523,13.3-4.035-0.415-18.053-3.575-26.06,13.522,3.7,5.741-4.477,7.907-16.573,9.442,11.193,10.254,4.089-3.2-6.661,2.654-18.631-2.907-13.73-10.643-.966-9.315-4.829-2.5-13.612,4.152-6.96,4.062-13.73,4.757-5.434-1.381-6.661-3.43-1.11-3.015-5.849,5.136-4.847-10-10.877-14.334-2.835-5.127,5.217-8.99-10.435-6.8-2.979-4.7,7.754-5.876-4.071-6.779,1.7-8.2-6.526-7.32-6.661-3.62-9.1,6.833-11.247,12.051-5.046,11.446-9.027-2.483-28.1,6.066-.921,9.063,19.7,3.5,0.921,13.007-6.237L500.7,335.944l20.292,6.879,6.671-12.836,15.391-6.58,6.147-7.772,6.174-1.814,4.938-11.9-0.244-.181-20.788-7.231-6.815,1.607-21.14-4.676,4.225-16.717-1.327-10.381-5.524-3.981,12.006-3.611-2.807-8.819-3.891-18.216-8.575-6.824-5.831,3.141-13.431-2.889-14.217,15.093L445.06,249.432l-20.012-9.974-10.958.55-7.709-7.917-8.467,6.842-4.55-6.346,0.7-15.2,6.933-17.683-13.856-11.915,1.544-7.32,3.358-1.354-2.176-14.073-6.418-13.134L360.689,127.6l-7.429-4.532-0.569,3.385L333.6,132.906l-13.838,3.015-6.562-2.735L306.176,121l-7.167.036-1.255,3.367-5.109,5.2-4.946,18,5.19,13.982-13.107,4.532L274.2,144.344l-3.773-6.454-3.7-.515-3.15,3.809-5.93,11.78-2.943-1.679-5.759,2.889-6.707,2.852-8.765-7.231-3.954,28.4-3.972,6.084-5.073-5.344-7.014-1.309-6.472,3.439-1.264,7.266-3.593.921,5.136,16.781,6.526,3.4,14.479-.163-2.518,9.433,1.868,6.156,6.544,2.4,16.14-5.028,3.457,2.184,7.014,1.724,4.594,5.831-4.432,7.583-6.616,8.846-2.4,14.3-11.148-.867-7.285-8.25-2.735,5.66,1.255,9.6L243.6,282.036l-2.69,6.752-13.612,2.7-12.041,12.854-0.6.352-4.874,4.125-21.519,6.626,2.528,6.77L188.8,332.63l-10.958,21.258L154.1,347.506l-4.017,3.827-8.837,9.839-16.88-11.1,13.928,23.2-5.885,8.9-3.566-.109-3.692,3.051-11.942,15.517-0.361,16.239,3.331,32.09,6.842-.948,6.914,7.33-1.092,9.577-5.94,2.627-3.548,9.415,1.959,10.137-5.2,4.333,14.118,24.7,9.171,8.6-5.994,8.449,8.088,6.472-5.028,9.469L120.2,543.16l-7.014,2.311Z" transform="translate(-15.339 -119.496)" fill="#ffeb00" stroke="#000" stroke-width="3"/><path d="M811.884,624.126l-8.648-11.78-11.012-1.7,3.9-9.008-0.948-6.346,7.709-5.145L812.706,571l-3.159-3.954,1.029-6.607-4.631-9.207,5.073-9.1,3.575-8.693,9.4-1.868,6.914-1.571,2.907,6.879,10.462,10.1,3.051,25.97,0.867-.018,1.318-10.525,4.694-5.75,25.221,0.09,10.444-10.345,16.907,6.138,7.276-.885,14.334,1.661,10.236-3.593,0.334-10.859,2.618-2.483-3.457-13.332-6.454-1.462,8.079-10.345-3.214-27.658L928.618,480l-1.679-3.2-10.616.984,0.054-6.914-7.33-7.618L908.506,452.9l3.105-10.1-1.553-10.543L899.335,427.3l4.315-10.489,1.282-14.948L878.249,358.02l8.928-5.344,10.291,1.923,5.064,12.358,15.453-19.588,6.274-3.457,0.632-.424,1.661-3.276,20.355-7.158,3.2-10.453,2.139-10.724-5.217-9.622-10.886-1.589-7.772-7.808-10.291-3.683-16.031-8.043-12.719-18.315-14.3-10.968-8.16,7.33-17.232-4.5L836.528,260.2l-8.846,11.022-6.21,3.4-9.144,6.4-14.777,2.112-4.867,17.917-9.415-.848-17.331-4.4,2.139-13.721-6.634,2.22-3.259-9.008-6.165-6.237L766.326,258.4l-0.451-17.7,6.138-3.222,1.155-10.318,6.048-3.385-13.034-1.553-7.366-5.9,4.017-7.844-1.9-7.122-8.259-7.438-14.1-4.441-8.467,5.994-1.074,10.751-6.454,1.038-11.852-6.084-2.374,10.381-10.688-1.571-13.034,6.21-25.383-1.074L651,216.67l-21.375-2.464-1.39-13.079-5.786-13.17-13.612-4.739-6.616,7.736,1.39,6.661-2.708,2.076-8.792-4.811-13.179-1.291-2.988-1.9-8.467,6.084-7.131,23.271-3.611-.867-12.2,7.718-3.656-.632-5.66-9.577-9.785-4.306-7.546.885-12.439,8.584,8.575,6.824,3.9,18.216,2.807,8.819-12.006,3.611,5.524,4,1.318,10.381-4.215,16.717,21.131,4.658,6.815-1.589,20.8,7.212,0.235,0.19L555.4,313.761l-6.174,1.832-6.156,7.754-15.391,6.58-6.661,12.836-20.292-6.879-15.472,15.408-13.007,6.255-3.5-.939-9.063-19.678-6.066.9,2.483,28.118-11.446,9.027L432.6,380.007l-6.842,11.265,3.629,9.1,7.312,6.661,8.2,6.508,6.779-1.7,5.885,4.089,4.694-7.754,6.8,2.961,8.99,10.435,5.136-5.2,14.334,2.835,10,10.877-5.136,4.829,3.015,5.868,3.43,1.092,1.381,6.68-4.757,5.434-4.071,13.73-4.152,6.96,2.51,13.594,9.315,4.829,10.643,0.984,2.907,13.73-2.654,18.631,3.2,6.644L512.893,529l-9.442-11.175-7.907,16.555-5.741,4.5-13.522-3.719,3.575,26.078,0.406,18.053-13.287,4.017,0.109,9.523,4.27,8.783,16.158,8.359-5.281,8.837,7.979,12.132-2.275,6.734,11.374,7.366,0.488,10.787-2.807,1.128,4.838,7.952h3.593l12.222,12.89,20.816-13.946,19.209-10.336,7.2-.776,5.5,4.694-6.03,12.267,10.958-.226,13.025-2.807,9.523-4.622,11.112-14.28,11.085-7.33-0.144-9.5,15.616-8.214,0.352,10.507-4.784,4.938L644.7,648.83l6.96,1.336,7.068-7.158,9.6,2.419,6.174-2.87,7.348,11.617-0.181,10.119-6.21,4.053-0.126,6.824-0.126,6.382,7.1,6.346,10.326-.208,3.71,5.145,7.826,6.418,9.659-8.729,6.7-.478,0.614,2.365-1.372,10.345,8.72,11.708,10.291-.442,4.938-2.419,3.683,4.865-6.851,8.467,0.776,10.67,43.391-.19,0.993-.262,32.316,3.141,20.057-43.039-7.781-8.584,10.516-13.892-3.854-17.313,10.019,3.4,7.637-11.617-19.9-14.19-1.02-3.494-5.443-11.41Z" transform="translate(-15.339 -119.496)" fill="#ffeb00" stroke="#000" stroke-width="3"/><rect x="322.739" y="301.809" width="109.767" height="109.767" fill="silver" stroke="#000" stroke-width="3"/><rect x="714.372" y="273.237" width="109.767" height="109.767" fill="silver" stroke="#000" stroke-width="3"/><rect x="521.104" y="596.531" width="109.767" height="109.767" fill="aqua" stroke="#000" stroke-width="3"/><text transform="translate(439.108 690.844)" font-size="98.79" font-family="DejaVu Sans" font-weight="700">1</text><text transform="translate(253.29 398.188)" font-size="98.79" font-family="DejaVu Sans" font-weight="700">2</text><text transform="translate(642.569 368.598)" font-size="98.79" font-family="DejaVu Sans" font-weight="700">3</text></svg>