<svg xmlns="http://www.w3.org/2000/svg" width="935.243" height="862.298" viewBox="0 0 935.243 862.298"><title>1T Législatives 2017 Corrèze</title><path d="M419.373,775.436l2.274-2.585-1.684-13.4L407.442,748.02l0.294-3.4-6.088-5.161-22.263,6.61-1.533-9.868,7.881-15.064-2.8-6.138-12.125-6.138-10.4-1.019-7.561-11.132-6.669-1.97-13.085,13.615,5.456,11.35-4.5,5.3-12.891-3.966-4.025,5.591h-3.469l-5.465-10.231,7.982-5.936,3.688-9.388-13.085-.791-9,3.259-3.275,5.524-2.139,2.467-8.993-3.57-12.681.842-6.155-20.166-3.983,5.641-11.9,5.9-13.127-4.058-9.254-10.331-6.627,1.28-9.582,4.623,4.193,20.41-14.028,15.291-1.044-9.919-14.306-19.5-7.031-15.619-9.271-1.263-11.249-2.535-1.566-2.627,11.476-7.544-5.793-8.647L178.2,648.453l-4.791-15.375,17.918,6.484,1.305-10.3L203.431,604.2l0.4-9.59-5.641-11.426-8.336-5.28-4.606,8.85L172.4,582.3l0.177-6.643,5.591-8.5,2.846-1.844,3.646-12.992L186.8,536.23,191.019,531l-5.465-9.11L167,511.846l-8.117-19.341,6.34-2.779,14.163-15.081,5.2,3.865,0.615,6.972,9.077,5.263,16.663-5.364,3.174,9.936,9.371-4.193-2.7-17.169,5.473-23.5L211.3,419.721l-5.641-3.73-1.583-2.618,2.257-3.6,1.979-23.964,15.99-12.024L222.6,364l-6.761-1.314,3.166-16.663,13.506-2.812,4.033-5.524,0.3-6.871,21.058,10.028,8.563,3.6,8.908-4.437,9.793-.808,5.734-19.375,5.372-4.521,17.733,0.774L331.3,303.962l6.871-6.526,0.665-9.624,3.5-5.473,22.575-22.465,10.331-7.881,9.632,2.535,18.634-7.005,2.332-10,7.393,0.9,0.9-3.242,6.694-.589,1.852-2.846,6.323-22.086,6.425,2.45,3.831,5.524,9.523-4.244,7.123,7.266,2.164,7.039,13.337,1.709,6.425-7.385,14.887,6.071,3.006-1.76,2.088-13.834,13.784,1.3,5.894-3.225-1.549-10.231-6.147-3.208,0.034-3.5L518.4,187.9l5.9-8.386L531,180.548l4.917,5.052,6.593-.859,2.627-13.649,5.961-3.831,13.969,0.084,4.715,4.64,6.012-3.7,5.22-9.043,2.383-17.379,8.993-5.818,17.682-1.347,7.022-8.092,3.545,0.539,4.959,9.49,15.939,7.814,1.229,10.163,0.16,8.538L651.6,157.2l11.754,7.469,11.46-7.831,12.731,11.612,6.837,1.28,3.1-14.567,9.548,3.916,7.393,11.754,13.481,3.5-6.837,16.133,2.913,1.987,9.3-3.191,1.246-10.475,7.149,15.325,6.711-.4,4.185,5.431,6.281-1.4,7.907,6,9.574-3.309,0.4,28.072,10.6-.876,8.243-6.559,6.357-3.141,9.473,4.126,15.19-14.011,5.389-9.161-0.884-7.039-1.7-6.812,2.391-2.618,13.784-4,4.471,0.413,5.515,4.193,20.638-.4,18.069,9.986,6.18-8.5,6.8-1.709,9.152-10.357,3.343-.152,0.9-9.8,13.876-8.85,21.025,27-1.128,13.422,4.959,3.4-1.608,6.745,2.93,6.3-7.469,4.8-2.661,5.49,0.025,6.509,8.37,10.374-5.237,8.765,1.415,5.431-4.968,2.4-19.821-1.415-3.048,5.743-2.577,27.921-9.279,7.039-1.431,6.492,7.73,16.015,9.986,10.231,5.785,12.462,14.019,2.989,1.625,10.542-2.282,2.627,2.1,10.146-2.172,6.315,2.493,6.1L947,389.467,946.59,396.2l3.5,7.536-3.924,14.634L946.8,424.6l-4.016,10.938-2.863,1.263,1.347,9.094-3.368,4.437-3.292,23.618-3.393,5.953,21.438,16.444,3.393-.556,3.6,12.075-2.779,9.388-5.355-2.745-5.338,4.193-13.186.084-5.414,3.865-1.6,6.694-8.454-13.371-19.206-1.76-2.644-3.351-10.533-9.3-13.607-1.069-5.49-4.227L864,489.767l-9.01-5.094-13.809-1.5-4.707-.034-3.5,5.524,13.279,24.056-3.806,5.8,0.817,5.743L843.123,541.5l-9.254,10.3,5.044,8.816-3.688,9.4-9.683,4.041-17.025,3.848L801.4,590.143l-11.317,21.926-10.163.294-4.606-1.743-5.7,6.778-3.132,13.817-9.8,4.092-1.878,3.056-1.339,3.334,0.5,10.7-9.557,4.572-5.928,8.942-11.19,8.959,0.337,3.57-6.138,2.349-2.383-2.257-1.709-2.618-7.814,4.26-6.214-2.088-0.868-9.986-2.694-2.071-8.041,10.8-9.439-1.246-4.909-4.092-5.9,2.055-5.785-2.9-3.158.034-1.49,12.8-12.774,2.383-6.357-6.854-6.147-1.263-6.231,1.331-1.053,6.559-17.067,7.216-6.862,5.456-2.391,2.4,2.846,13.22-4.454,5.128-11.6,16.891,2.088,9.683-13.127,31.18-7.587,7.848-16.975,9.784-3.073,15.956,5.1,12.058-2.9,6.021-10.045,1.069-0.328,10.231-8.605,4.673,0.076,9.751-13.329,9.683-4.033-4.623-5.574,2.257-5.911-3.587-13.817,1.583-5.692-3.6-9.692-9.195L460.5,831.853l-6.559-2.88L447.22,812.63l-6.021-1.566-5.473,2.9-3.292-4.64-9.936-7.629-0.143-3.158L423,781.055Z" transform="translate(-27.363 -125.002)" fill="#ffeb00" stroke="#000" stroke-width="3"/><path d="M68.036,728.174l-9.523,9.3-9.422.311-0.446,6.365,18.432,9.371,7.351,7.5,13.085,4.934,8.765-5.507,9.119,4.766,13.068-3.966,0.008,7.73,10.3,1.692,10.129-3.4,12.782,6.054,2.433,1.331,8.092,3.57L162.519,785l-3.3,5.8-11.788,6.728-10.163-.211,1.288,5.38,2.307-2.24,7.149,5.726-1.12,9.9,6.82,11.662,3.419,5.953-4.614,9.161,6.812,1.811,1.794,6.854,16.512,22.81,9.742,10.921,8.656,5.431,3.242-1.17,8.883-5.035-0.118-6.922,2,0.177,18.5-12.908,9.692-.808,5.313-4.041,9.7-.379,2.593,13.581L261.632,876l16.992-11.856,23.113,6.745,0.64,4.707,0.43-3.469,3.36-.842,12.967,0.825,13.961,7.14,0.926,6.416L347.062,900.5l9.288,1.659L362,912.374l7.94,6.071,3.856,17.135,1.617,2.366,1.734-.513,6.408-.362,13.135,7.662,5.768,3.78,3.713,16.166-2.459,2.088,11.771,5.793,5.035,8.614,0.413,0.985,7.115-7.056,0.834-6.45,11.283,10.609-0.918,6.18,0.455-.084,3.553-5.987,13.379-1.844,3.511-5.919,1.583-9.574,3.09-.9,1.894,6.214,3.031,1.1,5.928-9.262,25.782-10.214,0.909-6.66,13.885-15.493,11.712,1.482,2.181-2.055,9.288,7.056,1.145,17.236,6.618,1.659,4.025-5.919,19.838-14.887,17.135-2.551,26.38-7.536,6.618,7.056,6.121,0.194,18.76-8.024,3.174-1.28,9.052,4.244,19.391-4.294,5.439-19.9-17.152-16.756L661.2,865.692,650.4,848.044l2.888-.522,0.724-5.541,1.364-.152,22.322-19.9,3.419,0.362,3.8-4.934,12.6,1.187,8.42,3.932,4.723-13.287L710.3,798.668l6.492-12.117-6.542-19.863,13.371-.859,9.279-10.163,0.674-13.506,13.641-1.482,1.852-5.473L747.8,731.9l-6.871-.152L727.2,720.874l-2.913-17.379-5.061-4.917,2.964-13.733-3.073-6.265-1.7-2.618-7.822,4.277-6.206-2.105-0.868-9.986-2.7-2.071-8.041,10.8-9.43-1.229-4.909-4.092-5.9,2.038-5.793-2.9-3.158.05-1.482,12.782-12.774,2.4-6.357-6.871-6.147-1.263-6.231,1.347-1.061,6.542L611.477,692.9l-6.862,5.456-2.391,2.4,2.837,13.22-4.446,5.128L589.012,736l2.08,9.683-13.118,31.18-7.587,7.848-16.975,9.784-3.082,15.956,5.111,12.058-2.9,6.021L542.5,829.595l-0.328,10.247-8.605,4.673,0.076,9.751-13.329,9.666-4.033-4.623-5.583,2.274-5.911-3.6-13.809,1.583-5.692-3.587-9.692-9.212L460.521,831.91l-6.568-2.9-6.719-16.343-6.012-1.566-5.473,2.9-3.292-4.623-9.936-7.646-0.152-3.158,0.649-17.48L419.4,775.42l2.265-2.568-1.675-13.422L407.466,748l0.294-3.4-6.1-5.161-22.254,6.61-1.533-9.868,7.881-15.064-2.8-6.121-12.133-6.147-10.39-1.019L352.87,696.7l-6.669-1.97-13.085,13.615,5.448,11.35-4.5,5.3-12.891-3.949-4.033,5.574-3.461.017-5.465-10.247,7.982-5.919,3.688-9.405-13.085-.774-9,3.242-3.275,5.541-2.139,2.45-8.993-3.553-12.681.825-6.155-20.149-3.983,5.641-11.9,5.9-13.127-4.058-9.262-10.348-6.618,1.28-9.582,4.623,4.193,20.427-14.028,15.274-1.044-9.9L184.9,697.965l-7.031-15.611-9.262-1.28-11.249-2.518-1.575-2.627,11.485-7.544-5.793-8.664,16.748-11.283-4.783-15.375,17.918,6.484,1.305-10.3,10.786-25.067,0.413-9.574-5.641-11.443-8.336-5.28-4.606,8.85-12.849-4.454,0.177-6.627,5.591-8.521,2.854-1.827,3.646-12.992,2.139-16.1,4.218-5.229-5.473-9.11-18.549-10.028L158.9,492.49l6.34-2.762,14.171-15.081,5.2,3.848,0.606,6.972,9.077,5.28,16.672-5.38,3.174,9.936,9.371-4.176-2.7-17.169,5.473-23.5-14.954-30.75-5.641-3.713-1.583-2.627,2.257-3.6,1.97-23.947,16-12.041-1.692-9.784-6.761-1.3,3.166-16.663L218.864,334.3l-8.445-5.2-5.212,12.8-14.121,1.229-0.522,17.547-9.414,14.946-9.254-9.59-6.635.211-6.012,3.326-9.388,18.044-3.124,1.415L145.407,400.4l-12.58,4.143-15.7,25.74L70.771,406.4l0.791,9.734-5.422,3.73-6.938.741-3.772,9.245-0.379,13.683-5.633,3.621-1.659,6.265,6.332,0.64,7.443,6.416L72.9,464.327l0.657,16.546L66.889,483.1l-10.18-2.711-4.959,4.075,1.078,13.8,2.779,2.139,9.868-1.1L62.7,505.787l5.49,7.923,12.849-9.388,16.882,11.4-2.4,16.217-2.8,6.147-5.894,3.259-7.056.522-9.094,5.49-2.307,10.1-5.608,12.479L52.6,579.32l-17.253-1.415L38.909,594.8l-1.692,2.989,2.282,1.221-1.9,9.751-4.917,3.949-3.6,16.285L39.7,634.615l-1.794,5.97,12.883,5.557L64.3,645.4l1,13.851L50.377,673.743l-16.621,5.726-1.667,7.763-2.071,10.357,3.638,6.021,27.694-2.745,12.479,12.453,1.3,3.292Z" transform="translate(-27.363 -125.002)" fill="#ffeb00" stroke="#000" stroke-width="3"/><rect x="561.349" y="283.967" width="102.391" height="102.391" fill="#ff8080" stroke="#000" stroke-width="3"/><rect x="324.388" y="684.319" width="70.972" height="70.972" fill="#06c" stroke="#000" stroke-width="3"/><text transform="translate(453.11 389.752)" font-size="92.152" font-family="DejaVu Sans" font-weight="700">1</text><text transform="translate(263.459 704.098)" font-size="92.152" font-family="DejaVu Sans" font-weight="700">2</text></svg>