<svg xmlns="http://www.w3.org/2000/svg" width="905.215" height="986.776" viewBox="0 0 905.215 986.776"><title>1T Législatives 2017 Dordogne</title><path d="M543.248,891.274l-6.514-5.866-11.12-3.517-6.678,4.727-0.847,8.493-5.09.819-9.347-4.8L501.78,899.3l-8.436-1.224-10.273,4.9-20.019-.861-6.507,1.239L439.681,901.4l-1.089-10.315-4.563-10.372-10.735-3.738-5.218,6.087,1.1,5.268-2.136,1.637-6.934-3.808-10.394-1-2.356-1.5-6.678,4.8-5.624,18.339-2.848-.669-9.625,6.08-2.883-.484-4.471-7.553-7.717-3.4-5.945.7-9.81,6.77-4.592,2.478-10.593-2.278-11.219,11.9-21.2,8.828L278.364,921.3l-8.642.434-6.08-6.243-6.678,5.4-3.6-5,0.548-11.989,5.474-13.946-10.928-9.4,1.217-5.773,2.648-1.068-1.723-11.1-5.055-10.344-17.947-19.186-5.859-3.574L211.4,819.187l-3.745-7.866,0.192-10.273-5.069-14.416-1.36-11.789,11.042,2.186,5.781-5.489,5.588,0.947,0.114-7.952,8.543-5.866-16.345-15.2-7.66-3.752-11.455.057-10.536-3.808,2.862,10.607-1.21,2.264-11.91,10.607-7.475,2.641-10.223,17.549-5.311-2.278-1.132-1.239-20.2-3.545-14.872.932-5.716,6.941-0.47.363-2.869-.555-2.335-10.914-5.838.057-7.923,1.545-4.214,9.86-2.9.278-6.386-5.56-5.745,1.125-1.837-.071-5.154-2.755-0.164-8.465L55.306,755.243l-8.087,2.976-26.077-5.282,1-2.7,13.626-3.851,3.168-7.511,3.645-6.379-0.078-.178,2.136-5,4.727-2.627,2.129-7.774,0.74-.406,10.123-17.257-7.176-8.828L52.864,688.1l-7.916-15.576,2.485-14.139,3.2-7.952-0.491-5.759,2.428-1.573,5,3.253,2.89-.74,5.659-13.555-2.705-17.8,2.121-8.536,0.947,1.865,1.986,4.855,7.3,3.823,6.991-4.3,2.548,1.068-1.445,16.21,7.126,4,1.353,5.382,7.817-3.5,8.607-.206,14.281,9.511,5.325,6.507,2.769-.683,16.958-4.2,8.585,1.708,8.258,7.425,16.331-1.1,2.947,5.866,8.03-.89,10.145,3.075,1.894-1.929,5.5-1.588,8.3,2.321,1.239-1.139,0.214-5.866L228.3,642.1l0.7-17.726,16.886,1.822,6.877,12.572,2.755,0.961,5.7-13.583L260.028,611.5l7.525-1.879,10.636,16.6,5.154,2.57,6.229-5.646,1.588-6.051,5.275-12.608,10.472-13.754,2.769-.919,5.638,6.421,5.268-2.1,7.923,2.392,3.858-8.215,9.475-7.425,5.852-.9-0.021,2.819,2.591,1.068,9.66-4.058,1.289,2.506,2.5-2.491L377.35,590.3l17.164-3.139,11.5,13.5,10.422,0.669,0.206,2.919,7.966,7.56L422.9,617l8.322,0.42,7.155,11.54,4.9,2.143-2.05,1.986,0.719,5.6-3.752,4.143-2.3,11.362,7.375,4.535,0.32,8.137,7.945-1.78,10.486,1.153,3.723,10.415,2.456,1.36,4.784-1.488,5.7,4.129,2.406,1.516,0.712,14.046,4.656,1.708,7.212,0.861,0.271,4.919,20.517-1.054,0.448,10.828,7.6,2.406,6.236,9.831,5.83-1.31,4.87,3.075,0.52,18.218,5.738,6.8,12.608,0.919,6.806-8.2-0.982-10.607,4.77-7.233,11.568,1.125-1.039,11.568,1.346,8.884,17.2,0.612,5.254,1.922,6.891,8.287-2.691.42-0.37,2.7,8.486,6.784,0.648,5.411,6.379,9.411-1.039,5.646,7.838,8.507,1.046,1.751-14.509,9.8-3.944,7.689-0.74,5.631-4.748,6.884,1.189,5.5,5.19,2.186,2.591-.961,1.894,10.885-6.229,9.276,2.52,4.933-2.392,5.147,5.738,6.158,15.918,5.838,7.859,6.685,2.292,5.3-8.215,37.211-10.985,3.09L610.178,926l3.019,7.368L602.86,937.7l-6.976,8.707-4.9,2.684-7.2,5.047-11.661,1.652L568.3,969.918l-7.425-.669-13.668-3.488,1.687-10.821-5.232,1.765-2.57-7.119-4.862-4.919,11.284-8.4-0.356-13.96,4.848-2.527,0.911-8.137,4.77-2.67L547.4,907.733l-5.809-4.641,3.168-6.187Z" transform="translate(-15.22 -7.163)" fill="#ffeb00" stroke="#000" stroke-width="3"/><path d="M485.627,417.994l1.865-5.731-8.038-8.635-9.183-25.358-12.8-6.478,0.406-2.99-6.4.263-2.534,11.5-8.778.292-5.346,7.176,7.788,8.244-3.011,8.3L437.3,406.5l-7.71-3.994-2.243,1.972-9.938,10.956-5.859-1.068-10.977,4.7-2.449-1.751-3.816-2.584-1.424,4.784-8.187-4.172-12.195-1.573L364.5,417.4l-1.652,11.711-7.233,12.722-2.947.292-4.193,7.632-5.09,2.627-2.912-.029-3.46-8.009-2.769-.89-16.253,3.311-2.812,7.674,2.385,4.827-2.72.206-10.081,1.958-7.553-3.061-0.349-.114-7.738,2.769-5.289,10.344-7.19,4.933L263.8,483.64l-14.017,1.253-6.82-5.133-7.212,12.1-2.933.278L228.6,488l-20.083,24.874-2.99.057-4.044-4.3-11.789.32-6.635-5.646-5.895.221-6.179-6.436,0.05-2.99,10.785-10.244-1.31-5.838-11.6,1.723-9.824,6.286,0.078,5.254-8.066,8.137,4.99,6.713-0.947,17.449,2.534,5.211-5.169,6.372-8.479-1.723-5.517,1.851-6.08-5.268-1.2-5.5-10.842-1.018-9.02,18.367-4.172,4.157-16.032,6.421-5.524,10.038-1.039-1.21-3.46-4.948-1.822-11.96L69.57,529.258l-8.45-3.125-15.042-.57L40.5,524.217,26.678,528.2l-9.141,10.579-0.783-8.87,7.2-13-4.321-11.027,24.012-9.846-1.531-5.325-8.749-1.3-3.04-4.492,12.558-15.655L44.5,462.19l3.766-9.717,8.785-1.879,6.97-5.339,11.49-13.583,6.564,5.631,5.83,0.306,9.639-6.229,4.862,1.239,8.614,9.846,0.961,0.9,9.959,3.923,2.556-4.535,5.411-.178,1.645-8.65,5.816-1.63L147.6,421.341l-2.769-4.962,1.289-5.781,2.663-3.659-1.111-4.713,5.211,1.224,12.665-3.09,3.738-9.105,6.243-13.782,7.881-1.751,7.824,2.086,3.481,0.377,8.457-7.176,2.449-14.5-3.467-17.157-0.192-.178-4.6-15.769-4.571-9.063,2.435-14.95,5.709-13.725,2.869-9.582,1.951-9.44,4.378-7.325,7.1-4.741,8.293,0.612,7.546-3.268-7.731-8.23-0.363-11.5,4.926,0.114,11.12,12.914,3.147-13.832,0.178-.278,13.341-5.24,3.887-7.7,8.642-1.908,0.584-5.838,18.139-6.606,8.813,6.913,5.332-1.588,0.627-13.847,8.073-11.205,2.9-3.46-0.961-4.563,5.125-1.417,4.82-12.138,4.834,1.039,5.773-.42,9.5-6.115,4.6-7.233-0.356-5.6-4.478-3.417,10.75-20.118-2.513-5.019,2.392-4.656-1.7-5.354-7.19-8.579L344.649,93.4l2.926,0.747,1.929-2.335,2.556-8.721,7.973-8.941,5.8-.932,1.837,12.223,7.262-4.628,8.529-.263,6.6-5.646-5.09-10.679,12.088-6.77,0.548-5.7,7.546-3.517-2.292-4.449,3.353-4.257,1.744-10.778,2.435,1.765,8.436-8.443,4.1-10.956,4.87,10.9,7.567,3.808,2,5.674,5.133,3.09,11.632,0.029,7.689-3.075,4.9,2.7,6.621-5.19,5.467-.655,13.362,5.489,9.9,14.985,8.158,2.727,1.025,0.057L504.271,83.1,496.1,95.689,506.286,106.5l5.895,10.565,14.651-3.253,2.705,0.833,3.41,16.5,17.242-4.684,5.731-10.344,6.194-17.242,5.845-8.941,4.6,3.182,2.577,8.009,7.567,8.258,2.926,0.555,3.524-4.841,8.592,0.57,16.666-6.243,8.35,3.1,5.909-.89,3.623,4.756,4.691,0.747,3.709-3.225,3.773-4.628,16.794,4.741,8.764,15.562-2.043,8.287,1.979,8.8,5.916,10.066,8.244,3.047,0.185-.5,7.56,8.009,6.315,12.252,0.84-2.848L710.1,162.95l3.253-4.827,5.809-1.111,7.888,4,19.976,12.892-0.627,2.962-10.173,6.478-7.866,9.105-3.381,8.429-6.364,6.272,0.726,8.735,9.689,5.716,16.217-6.187,7.809,8.23,1.025,8.707,4.9,3.118,16.338-6.272,13.206,6.357,0.149,11.7,1.951,2.249,2.777,1.054,6.728-5.7,5.354,0.541,6.293,5.425,9.61,3.253,0.555,13.989-5.638,1.879-8.607-2.292-4.193,3.446,0.911,11.682,2.349,1.808,8.343-.932-2.349,5.482,4.641,6.713,10.857-7.952,14.281,9.639-2.029,13.725-2.371,5.19-4.983,2.769-5.966.441L819.5,324.3l-1.951,8.522-4.741,10.55-8.585,7.938-14.587-1.2,3.011,14.281-1.438,2.527,1.936,1.032-1.609,8.258-4.157,3.339-3.047,13.754-2.777.143-10.3-9.233-20.46-15-2.556-4.641-2.741.128-7.98,6.492-2.5,1.153-7.4-7.9,0.107,2.833-6.734,4.3-18.082-13.54-2.1,1.837,3.1,16.089-4.634,1.445L688.2,374.177l-12.38-7.268-6.208,7.062-4.549,2.976-8.821,10.536-9.433,5.311-2.072,5.716,5.631,9.888-0.292,5.7,6.386,15.875,3.695,4.449-5.2,4.058-7.56-3.951-5.716.149-1.887-11.4-8.237-8.158L628.8,403.885l-3.844,3-4.656-.043-1.552,2.221,7.4,8.913,1.63,5.659-0.9,5.6-6.336,6.13,3.808,7.553,1.118,7.589-4.449,3.78-16.644,3.688-0.349-.128-9.212,7.048-14.231,2.947-5.033-3.019-10.8,4.229-6.137-3.019,4.336-7.7-1.039-5.773-11.782,6.592-8.692-1.374L536,450.814l-2.947-.235,0.093-8.692,3.958-4.243-2.819-8.272-8.108-7.952-5.638-1.182-9.4,11.276-12.928,5.7-3.118-18.075Z" transform="translate(-15.22 -7.163)" fill="#f90" stroke="#000" stroke-width="3"/><path d="M616.966,873.476l-5.731-6.158,2.392-5.133-2.52-4.948,6.229-9.276-1.894-10.885-2.6.961-5.183-2.186-1.189-5.5,4.748-6.87,0.733-5.646,3.951-7.689,14.509-9.8-1.046-1.751-7.838-8.507,1.039-5.631-6.379-9.425-0.648-5.411-8.486-6.77,0.37-2.712,2.684-.42-6.884-8.287-5.261-1.908-17.2-.627-1.338-8.884,1.039-11.568L568.9,727.315l-4.77,7.247L565.1,745.17l-6.8,8.2-12.608-.919-5.738-6.813-0.52-18.2-4.87-3.075-5.83,1.31-6.236-9.846-7.6-2.392-0.448-10.828-20.517,1.039-0.271-4.905-7.212-.861-4.656-1.723-0.712-14.046-2.406-1.5-5.7-4.143-4.784,1.5-2.463-1.36-3.716-10.43-10.493-1.153-7.938,1.78-0.32-8.123-7.375-4.535,2.292-11.376,3.759-4.143-0.719-5.6,2.05-1.972-4.9-2.143-7.155-11.54-8.322-.42,1.708-5.19-7.966-7.56-0.206-2.933-10.422-.655L394.5,587.1l-2.912-10.472,5.659-.335,6.791-4.684,11.184-1,1.858-5.076-4.734-13.206,5.945-12.65,5.574,1.346,8.4-2.833,9.9-4.727,3.132-4.435,5.425-.441,1.466-8.457,3.652-4.3-3.438-4.392-0.263-8.536,19.9,1.822,3.311-4.813L473.9,485.4l4-7.831,4.037-3.645,2.6,0.8,7.354-2.335-2.413-6.564,7.212,4.407,12.85-6.742,14.423-1.039,2.627-1.1,1.616-8.272,4.933-2.541,2.947,0.235,5.425,6.97,8.692,1.374,11.782-6.592,1.032,5.773-4.328,7.7,6.13,3.019,10.807-4.229,5.033,3.019,14.231-2.962,9.212-7.033,0.349,0.128,16.644-3.688,4.449-3.78-1.125-7.6-3.8-7.539,6.336-6.13,0.9-5.6-1.63-5.659-7.4-8.913,1.552-2.221,4.656,0.043,3.837-3,2.762,11.234,8.237,8.158,1.887,11.4,5.716-.149,7.56,3.951,5.2-4.058-3.695-4.449-6.393-15.875,0.3-5.7-5.631-9.888,2.072-5.716,9.433-5.311,8.821-10.536,4.549-2.976,6.208-7.062,12.38,7.268,11.077,3.225L704,375.942l-3.111-16.1,2.1-1.822,18.082,13.54,6.742-4.3-0.107-2.833,7.4,7.9,2.5-1.153,7.98-6.492,2.741-.128,2.556,4.641,20.46,14.985,10.3,9.248,2.777-.143,8.977,4.756-1.516,5.047,10.9,4.7,11.419-.627,0.847,11.711-12.615,12.266-14.06,4.827-1.4,6.564-1.751,8.756,3.075,5.1,23.414-2.335,10.55,10.529,1.089,2.783-5.98,9.8-8.051,7.859-7.966.263-0.377,5.382,15.584,7.923,6.215,6.343,11.07,4.172,7.411-4.656,7.71,4.029L860,505.122l0.007,6.535,8.707,1.431,8.564-2.876,10.814,5.119,2.05,1.125,6.848,3.019,0.256,5.731-2.791,4.905-9.967,5.688-8.592-.178,1.089,4.549,1.958-1.894,6.037,4.841-0.947,8.372,5.766,9.874,2.89,5.019-3.9,7.746,5.759,1.531,1.523,5.8,13.96,19.285,8.23,9.233-9.12,7.3-14.551,3.474,3.545,11.262-0.441,16.808,3.211,4.713-0.356,8.65,5.816,10.244,2.933,0.221,1.4,5.311-1.63,2.236,5.133,15.754-10.849.441-7.923,8.094,4.684,1.153,2.157,9.425,10.906,6.372,1.4,9.048-3.709,4.592-11.675,1.78-3.225-1.545-1.329,6.806-2.243,1.417-1.637,10.458-0.206,1.5-8.429-.79-6.2,5.659-7.8-1.374-3.011,8.158,2.2,20.339-4.585,1.125-10.522,3.965-8.265-.349-14.722,7.048-4.756,6.713,5.631,0.762,0.726,2.8-4.022,7.425,6.649,5.19,8.123,8.358-3.324,17.648-9.6-3.324-1.018,13.5-6.97,11.9-10.266-6.492-5.147,10.138L795.006,878.5l-1.039,8.621-7.831,2.962-3.2,4.628-0.093,1.224-26.618,1.346L748,900.75l-3.581,4.8-8.671,1.837,1.872,13.419-1.994,1.865,4,11.205-1.338,5.8-14.295,13.668-12.031,10.885-6.8,9.219,4.421,10.315-2.4.776,2.236,7.062-8.343.819-7.931-2.833-0.712-2.741,1.694-8.457-4.122-7.589-8.585-1.253-6.13-6.158-8.116-2.9-12.643-6.343L644.5,939.69l-11.276-8.65-6.429,5.773-13.6-3.531-3.019-7.368,13.676,5.674,10.985-3.09,8.215-37.225-2.292-5.3-7.859-6.678Z" transform="translate(-15.22 -7.163)" fill="#ffeb00" stroke="#000" stroke-width="3"/><path d="M155.112,523.832l0.94-17.434-4.983-6.713,8.066-8.151-0.078-5.24,9.824-6.3,11.6-1.723,1.31,5.838-10.785,10.244-0.05,3,6.172,6.421,5.9-.221,6.635,5.659,11.782-.32,4.051,4.286,2.99-.043,20.083-24.874,4.222,4.129,2.933-.278,7.212-12.109,6.82,5.147,14.017-1.267,12.843-7.325,7.19-4.948,5.289-10.33,7.738-2.783,0.349,0.114,7.553,3.075,10.081-1.958,2.72-.221-2.385-4.813,2.812-7.674L334.22,443.7l2.769,0.9,3.46,7.995,2.912,0.043,5.09-2.627,4.193-7.632,2.947-.292,7.233-12.736,1.652-11.711,8.009-3.631,12.195,1.588,8.187,4.172,1.424-4.8,3.816,2.584,2.449,1.751,10.977-4.684,5.859,1.054,9.938-10.956,2.243-1.958,7.71,3.98,2.292-1.908,3-8.315-7.781-8.244,5.346-7.162,8.778-.292,2.534-11.5,6.4-.278-0.413,2.99,12.807,6.492,9.183,25.351,8.038,8.65-1.865,5.731,9.5,1.125,3.118,18.075,12.928-5.7,9.4-11.276,5.638,1.182,8.116,7.952,2.812,8.272-3.951,4.243-0.1,8.692-4.926,2.541-1.623,8.272-2.62,1.1-14.423,1.039-12.85,6.728-7.212-4.392,2.406,6.564-7.347,2.335-2.6-.8-4.037,3.645-4,7.831,1.452,14.487-3.317,4.827-19.891-1.822,0.263,8.536,3.438,4.392-3.659,4.3-1.466,8.457-5.417.441-3.132,4.435-9.9,4.727-8.4,2.833-5.574-1.346-5.945,12.65,4.734,13.206-1.858,5.076-11.184,1-6.791,4.684-5.659.335,2.912,10.472-17.171,3.154-13.64-10.472-2.491,2.491-1.3-2.52-9.654,4.058-2.591-1.054,0.014-2.819-5.852.9-9.475,7.411-3.858,8.23-7.874-2.432-5.268,2.1-5.638-6.436-2.769.932L296.4,604.675l-5.275,12.6-1.595,6.065-6.229,5.646-5.147-2.57-10.636-16.6L260,611.695l1.189,14.644-5.7,13.583-2.762-.975-6.87-12.558-16.886-1.822-0.7,17.726-8.756,11.846-0.214,5.852-1.246,1.153-8.3-2.321-5.5,1.588-1.9,1.929-10.138-3.075-8.03.89-2.947-5.866-16.331,1.1-8.265-7.425-8.585-1.708-16.95,4.2-2.769.683-5.325-6.507-14.281-9.511-8.607.206-7.824,3.5-1.346-5.382-7.126-4.015,1.445-16.2-2.548-1.068-6.991,4.3-7.3-3.823-1.994-4.855,2.5-11.554,6.72-5.5,10.522-24.041-0.577-3.908,5.517-10.038,16.039-6.436,4.172-4.143,9.02-18.367,10.842,1.018,1.2,5.5,6.08,5.254L144,533.721l8.479,1.737,5.169-6.372Z" transform="translate(-15.22 -7.163)" fill="#ffeb00" stroke="#000" stroke-width="3"/><rect x="271.513" y="470.576" width="86.569" height="86.569" fill="#d00" stroke="#000" stroke-width="3"/><rect x="478.615" y="203.887" width="86.569" height="86.569" fill="#ff8080" stroke="#000" stroke-width="3"/><rect x="376.373" y="699.295" width="86.569" height="86.569" fill="silver" stroke="#000" stroke-width="3"/><rect x="699.058" y="568.608" width="86.569" height="86.569" fill="#d00" stroke="#000" stroke-width="3"/><text transform="translate(202.876 555.325)" font-size="77.912" font-family="DejaVu Sans" font-weight="700">1</text><text transform="translate(305.831 760.233)" font-size="77.912" font-family="DejaVu Sans" font-weight="700">2</text><text transform="translate(414.427 273.063)" font-size="77.912" font-family="DejaVu Sans" font-weight="700">3</text><text transform="translate(632.321 640.159)" font-size="77.912" font-family="DejaVu Sans" font-weight="700">4</text></svg>