<svg xmlns="http://www.w3.org/2000/svg" width="952.399" height="918.972" viewBox="0 0 952.399 918.972"><title>1T Législatives 2017 Charente</title><path d="M420.865,601.733l-19.038-1.088-0.238,3.16-5.081,3.3-5.486,18.022-8.177-5.041-5.931-7.923-6.534-1.072-10.718,7.613L352.835,637.3,338.6,631.036l-18.062-8.606,4.6-15.394,9.757-8.915-2.017-15.831,6.224-2.961,15.735-.047,10.392-6.311,4.025-8.606-0.214-6.438,1.008-6.542,15.275-6.78,17.561-4.668-2.017-12.655L395.181,525l-8.019-10.17-6.177-1.786-1.858-2.9L391.3,498.581l2.151-13.29,3.97-5.462,5.978,4.311,5.129-.373,12.98-13.52,13.552-8.138,0.842-8.9,4.819-2.215,2.1-5.922,12.806-8.717,8.693-3.239,2.81,1.476,4.581,4.2,6.748-5.875,10.972,4.343-4.239,12.774,7.836,6.311,3.62,8.995,23.9,19.022,0.564,0.492,12.393-4,3.628-5.47,11.226-6.788,9.813,4.7-6.153,28.223-4.47,4.493,2.191,15.537,11.916,4.478-10.987,6.994-3.255-.619,4.406,8.931,26.659,13.243,0.77,9.757,20.888-.572,8.146,5.97-15,17.029-3.446,16.577-5.3,4.2-13.449-1.255-5.637-17.474,1.342-9.027L562,575.518l-9.312,2.151-12.155-1.818,2.366,11.305-2.1,2.08L536.852,603.1l-2.159-2.493-7.6,6.264-6.526-.826-9.384,3.176-8.868-3.414-26.286-20.657-8.844-4.684-3.231.992-2.62-1.119-1.707,2.294L459.8,590.8l-7.328,13.4,2.81,11.726-3.3.492L440.234,596.7l-5.534-3.771Z" transform="translate(-25.926 -58.808)" fill="#ffeb00" stroke="#000" stroke-width="3"/><path d="M458.083,908.531l5.811,1.365,14.124-3.446,4.168-10.154,6.963-15.37,8.789-1.953,8.725,2.31,3.882,0.421,9.432-8L522.7,857.53l-3.859-19.117-0.214-.2-5.129-17.6-5.1-10.091,2.723-16.672,6.359-15.322,3.2-10.686,2.175-10.511,4.882-8.185,7.915-5.288,9.249,0.683,8.415-3.644L544.7,731.72l-0.405-12.806,5.494,0.127,12.4,14.4,3.517-15.426,0.19-.31,14.878-5.843,4.335-8.59,9.638-2.128,0.651-6.51,20.229-7.383,9.828,7.709,5.947-1.755,0.7-15.442,9-12.512,3.231-3.859-1.072-5.073-24.11-9.5-7-6.478-2.93,1.476-0.953-6.463-6.891-6.867-31.6-17.767,1.262-4.406-5.637-17.49,1.342-9.027-4.779-4.263-9.312,2.151-12.155-1.8,2.366,11.289-2.1,2.08-3.946,13.861-2.151-2.493-7.6,6.264-6.534-.826-9.384,3.176-8.86-3.414-26.294-20.657-8.844-4.684-3.231.992-2.62-1.119-1.7,2.294,0.167,8.169-7.335,13.409,2.81,11.726-3.3.492L440.2,596.723l-5.534-3.771-13.814,8.773-19.03-1.088-0.238,3.16-5.081,3.3-5.486,18.022-8.185-5.041-5.922-7.923-6.534-1.072L359.655,618.7l-6.827,18.593-14.235-6.264-18.062-8.606,4.6-15.394,9.757-8.915-2.017-15.831,6.224-2.961,3.144-4.914L338.8,556.575l-7.574-3.041-0.985-21.293-3.136-.572L316.426,538.2l-9.321-.167-7.058-6.915-8.511-13.5-6.081-1.985,1.826-2.763,3.112,0.667,3.073-5.192,6.256,0.9,5.565-7.645,15.767-2.183,2.5-4.247-9.757-1.5,1.1-9.924-9.281-9.432-12.742-3.223-5.986-7.383-11.837-.373-5.915-1.985-1.739-6.05-11.932-3.755,0.159-2.1-3.334-5.009-1.921-14.719-19.935,2.144-19,1.874-5.652-12.2-14.926-7.844-0.254-.127-6.5-10.67-1.492-5.907-5.248-2.2,0.937-8.558-5.613-1.826-18.228-.746-2.3,2.1-9-1.516-5.025,3.477,0.96,6.438-9.71,8.852-5.145,1.476-13.028-2.064-18.03,6.836-2.739-.913-21.666-5.565L66.99,418.428l-9.1,1.27-5.136,4.017-15.918-1.088-9.328,13.695,2.135,12.155,29.8-2.31,8.368,5.367-0.587,3.3-10.051,8.558-0.77,13.425,3.343,11.972-5.081,11.567,8.352,2.144,19.2,23.619-0.183,3.366-9.082,2.763-8.836-3.477L48.6,559.37l11.337,7.113,6.343-2.1,12.4-7.145,4.613,7.113,2.85,9.519L98,585.18l8.781,2.652,3.263,8.019,6.24-.762,1.866,2.541,6.1,4.8L139.936,617.2,129.059,636.95l-5.867,1.889-0.159,6.8,1.159,0.079,11.3,6.248,9.582-1.008,5.383,3.644-1.945,6.05,11.964-5.47,7.733,5.47-7.249,9.924,7.606,6.1,6.486-.373,0.063,6.438,2.675,1.874-1.334,4.2-5.986-1.35-10.639,19.308-9.312-2.636-3.564,17.18,6.121-2.294L159,721.8l1.659,6.327,7.645,6.1,0.127,2.421,4.1,5.176-2.668,6.05,0.691,9.582,9.8,0.183,1.794,9.058-9.94.294-1.771,6.447-15.87,2.93-2.414,6.121-5.3,3.922-9.757-.1-1.08,2.437-5.24-.54-0.317,9.828,4.287,4.525,6.113,0.881,3.2,4.509,5.835,1.985,1.532,9.027,5.724-2.914,16.378,0.079,0.389,9.741-2.985,5.47-9.011,2.2-9.432-8.035-3.184,8.717,0.778,0.6,1.58,2.453-7.7,8.7,4.192,4.422,0.826,13.195,17.323,9.13,0.469-9.551,11.3-5.645,6.558-.246,1.1-6.494L204.066,860.9l3.636,5.129,12.083-2.469,11.162,1.612,7.264,4.8,2.271,2.183,1.564,10.773,10.2-6.121,14.393,4.652-2.6,34.13-1.826,5.772,10.376,1.223,15.561,1.151,18.355-3.088,3.676,0.762,2.874,1.445,4.978,11.631,11.726,5.383,12.822,0.357,1.461,6.216L338.9,962.224l-0.214,10.107,4.335,3.1,4.2-10.837,9.789-2.1,7.772-5.954L377.6,941.4l7.32,6.28,6.494,0.342,10.75-6.947,5.422,1.381,9.606,10.98,1.064,1.008,11.115,4.375,2.85-5.057,6.034-.2,1.834-9.646,6.486-1.826,11.416-12.218-3.088-5.518,1.437-6.447,2.969-4.081Z" transform="translate(-25.926 -58.808)" fill="#ffeb00" stroke="#000" stroke-width="3"/><path d="M269.34,266.68l-5.994-2.144-9.487,2.405-8.558-4.7L238.107,267l3.35,10.948,8.209,3.97-3.882,7.939-5.184,2.144,0.437,2.818,1.818,6.05,8.868,0.683,0.722,12.623,3.843,4.866,6.383,0.572,1.262,2.961-2.223,2.31-4.827,8.765,1.072,6.59-2.278,2.453-9.042,2.818-4.954,8.217,3.255,0.159,3.334,15.846L237.7,390.5l2.318,9.765-5.224,9.273-4.247-3.771,3.16-5.415-2.644-1.723-12.337,2.064-2.35-2.128-5.915,2.374-7.59,10.051-11.972,2.7,14.926,7.844,5.652,12.2,19-1.874,19.935-2.144,1.921,14.719,3.334,5.009-0.151,2.1,11.932,3.755,1.731,6.05,5.915,1.985L286.94,463.7l5.986,7.383,12.734,3.223,9.281,9.432-1.1,9.924,9.757,1.5-2.509,4.247L305.32,501.6l-5.565,7.645-6.248-.9-3.08,5.192-3.112-.667-1.826,2.763,6.09,1.985,8.5,13.5,7.066,6.915,9.312,0.167,10.678-6.526,3.144,0.572,0.985,21.293,7.566,3.041,3.437,17.831-3.144,4.914,15.735-.047,10.392-6.311,4.033-8.606-0.222-6.438,1.008-6.542,15.275-6.78,17.561-4.668-2.017-12.655L395.206,525l-8.01-10.17-6.216-1.779-1.858-2.9,12.171-11.567,2.151-13.29,3.977-5.462,5.97,4.311,5.129-.373,12.98-13.52,13.552-8.138,0.842-8.9L440.721,451l2.088-5.922,12.814-8.717,8.685-3.239,2.81,1.476,4.581,4.2,6.756-5.875,10.964,4.343-4.239,12.774,7.844,6.311,3.62,8.995,23.9,19.022,0.572,0.492,12.385-4,3.628-5.47,11.226-6.788,9.821,4.7-6.161,28.223-4.47,4.493,2.191,15.537,11.916,4.478-10.987,6.994-3.255-.619,4.406,8.931,26.659,13.243,0.77,9.741,20.888-.556,8.146,5.97-15,17.029-3.453,16.577-5.3,4.2-13.449-1.255-1.262,4.422,31.6,17.767,6.891,6.867,0.953,6.463,2.93-1.476,7,6.478L643.31,656.3l5.716-1.58,5.375-13.552,5.391,1.159,6.438-.469,10.6-6.82,5.129-8.066-0.405-6.232-4.986-3.827,11.988-22.436-2.8-5.581,2.668-5.208-1.905-5.954-8.01-9.582-0.706-4.065,3.263,0.833,2.151-2.6,2.85-9.71,8.892-9.971,6.463-1.04,2.048,13.631,8.1-5.176,9.511-.294,7.36-6.3-5.677-11.909L736.237,524l0.612-6.359,8.415-3.922-2.557-4.962,3.739-4.732,1.945-12.036,2.715,1.985,9.408-9.432,4.573-12.218,2.532-5.74,5.438,3.16,2.684-1.643,3.3-8.789-1.882-2.525,3.533-8.447,8.392-.016,0.635-8.495L809.4,426.358l11-.715,2.1-6.137-4.906-8.749,2.04-23.182,5.534-3.271,16.108,1.159,6.605,7.042,6.486,0.159,5.541,8.185,6.121,0.437,3.033-5.256-4.422-8.3,3.636-5.208-0.342-12.559,9.368-9.178,16.863-35.909-9.1-2.977,13.4-12.345-9.344-13.711,1.651-19.784-4.7-4.327,2.088-9.241,6.629-.278,10.837,7.907,6.685-.619,8.908,4.136,15.838-3.906,14.656-13.568,9.916-.111,1.04-7.8,2.771-1.723-2.048-2.525,2.112-2.493,9.987-7.455,1.239-12.7-5.867-2.668,0.024-15.338-10.924-6.216,4.073-11.289-9.821-7.113-10.742-5.009-0.564-5.6-4.74-3.176-13.274,14.822-3.358-.405-3.564-12.464-7.447-6.59L892.09,149.237l-0.849-9.4,6.391-7.3-4.676-11.988,5.367-8.408,0.008-2.183,3.453-5.47,0.047-10.154-5.3-8.717-8.146-6.034-0.333-3.4,7.788-5.47-10.233-8-15.585,5.6L844.845,60.85,832.253,64.4l-11.393-3.787-0.3.508L817.383,70.3l-14.568,8.05-6.161,7.987,7.431,14.87-13.314.246-18.657,5.161-13.179-1.461-4.692,4.493-3.144-1.151L750,120.124l-7.876,4.994-3.255-8.281-11.3,2.945L720.233,109.1l-6.677-.881-9.036,4.352-1.85-9.765-11.13-16.331-11.13-6.82,3.009-12.218-9.09-3.255-6.058,7.01L658.848,69.2l-6.3,18.284-4.891,4.343-3.088-1.088-5.319,6.264,3.739,5.224-2.088,2.6,1.159,6.3,13.139-.405,5.938,2.715-0.469,13.243,3.8,5.47-6.447-1.3L654.64,136.5l-13.33,9.455-22.317,2.1L611.9,134.4l-8.733-3.89-5.454,3.628-19.371-1.628L572.9,133.8l-9.321-1.255-5.851,2.557-5.478-2.6-5.534,3.8-10.035,1.58-9.725-1.659-1.731-5.954-8.678-4.525-3.144-5.8L501.8,114.9l-8.765-6.733-4.613-4.049-15.179-1.286-13.377,12.036-5.415,1.151-1.35-2.469L431.719,94.568l-11.258,6.28-9.09-.373-6.058-7.193-2.493,1.969,4.43,11.52-1.8,2.557-7.55-4.136-8.6-.73-13.655,13.473,5.922,7.55-6.058,2.342-9.956,1.286-12.591,15.275-9.622-6.494-5.033,3.938-15.958-.849-8.971,3.16,1.842,9.535,9.487,12.98-5.74,7.844-9.67,1.207,0.1,6.391-4.255,11.782,6.423,5.6-5.509,6.883-5.756,2.93-2.135,6.137-9.757.357L270.54,225.2l-0.7,9.352,6.216-.246,2.525,8.979,3.1,0.326-6.891,13.243,0.564,6Z" transform="translate(-25.926 -58.808)" fill="#ffeb00" stroke="#000" stroke-width="3"/><rect x="582.355" y="265.889" width="117.937" height="117.937" fill="#ff8080" stroke="#000" stroke-width="3"/><rect x="275.053" y="636.509" width="117.937" height="117.937" fill="#06c" stroke="#000" stroke-width="3"/><rect x="431.395" y="442.776" width="68.469" height="62.225" fill="#d00" stroke="#000" stroke-width="3"/><text transform="translate(372.808 497.585)" font-size="86.887" font-family="DejaVu Sans" font-weight="700">1</text><text transform="translate(188.957 717.735)" font-size="86.887" font-family="DejaVu Sans" font-weight="700">2</text><text transform="translate(476.193 314.157)" font-size="86.887" font-family="DejaVu Sans" font-weight="700">3</text></svg>