<svg xmlns="http://www.w3.org/2000/svg" width="974.152" height="850.95" viewBox="0 0 974.152 850.95"><title>1T Législatives 2017 Landes</title><path d="M201.1,709.874l-4.738,2.63-1.284,5.5-19.742,9.723L173.8,738.172l-9.353-3.9,2.836,0.172,1.037-2.644-1.9-5.205-13.6-3.674-14.255-9.36-4.553-1.943,1.229-4.992-6.475-8.728-3.482-10.423-6.784-32.308-5.26,6.667L99.2,663.51l-1.7,2.28,18.8-94.823,14.9-71.606,5.576-31.944,17.1-115.513,4.106-30.166,3.09-23,12.168-107.6,31.573-9.819L259,162.458l12.738-24.192L303.921,157.6l11.021-1.477,11.5-1.195,2.6,5.067,3.468,17.057-6.668,19.083-8.92,20.387-12.5,11.3,33.7-5.288,13.218-5.246,17.284-6.345,6.029,5.94,37.41,14.255,19.872-1.463,9.435-6.221,8.329-.069,1.188-8.371,2.431-1.435,27.5-6.077,16.459,3.928,7.656-.405,3.44-4.079-1.778-2.08,3.495-4.45,2.836-.144,18.9,6.153,6.716,4.91,0.433,11.09,0.879,17.195-9.14,6.544,22.392,7.581,19.048,7.107,6.112,6.221,18.622,8.144,6.112,20.854,22.31,11.44,27.769,2.039,1.291,17.167,15.958,11.708,11.021,0.7-7.547,39.834,3.907,22.784,9.751,1.971,36.387,3.262,21.568,7.361,5.507-1.408,23.793-8.261-2.754-39.58,1.264-8.412,11.406,0.467,6.887-5.026,2.609,1.209,8.082,8.22,5.555,13.267,15.278,13.143,6.441,19.378,0.288,40.851L838.2,449l4.772-2.87,10.987-.858,16.274,4.2,32.734,0.735,0.144,0.013,16.982,9.4,5.288,6.249,59.082,5.26-2.266,4.251,2.8,7.389-7.492,4.065-13.466,14.715L966,506.868l-9.758,13.2-6.558,27-3.756,4.024-5.583.721,1.174,5.528,0.426,13.706,7.636,14.647-4.972,7.217-0.069,5.6-7.011,8.261L946,624.448,949,641.19l-3.509,7.568-6.112,5.645-10.108-4.148-4.738,2.842-10.06-10.005-21.211-13.734L908.36,616.51l0.075-8.46-3.839-4.092-20.539-18.746-4.69,16.281-10.012,4.251-8.158,11.2-2.678.927-7.334-3.633-3.571,4.388,1.8,9.565-4.127,2.816-13.322-13.143-5.679,5.837-7.952-2.4-5.026,6.3-5.088,1.854-6.414-5.26-13.72,17.057-5.294,2.349,0.865-13.493-2.314-4.965-4.738-2.7-1.524-10.651-8.391,4.223-3.578-3.619-0.062-2.829-11.282-12.2-19.5-11.282-2.143,8.034-9.16,6.262-6.5,12.243-10.705,1.984-2.547,13.157-3.516,6.99-7.334,2.053,1,2.534-4.436,9.709,3.207,4.347-2.335,4.656,1.985,7.67-7.65.8-1.112,2.4,12.168,5.219-7.375,22.262-2.733.123-2.871-7.568-4.148-3.461-10.252,8.5-11.9-5.15L646.4,686.9l-7.478,34.615-8.6,6.516-7.643,6.557L608.8,746.5l-2.6-.762-0.845-5.376-2.705-.3-7.3-7.443-4.923-1.085-2.19-9.874-5.109.563-1.8,4.951-8.123,6.867-7.725.48,3.921-16.645-2.616-5.081-5.04-2.28-13.892,2.713-10.609-.1-8.226-2.719,0.858-2.685-8.508-17.661L505.116,687l1.394-13.761,8.412-7.2,4.312-19.288-4.106-2.816-10.2,3.66-2.5-4.642-14.894-11.612,7.293-10.1,8.515-7.725,3.262-22.386,3.894-7.54-0.707-13.843L504.58,556.72l-11.852-19.811L471.7,533.3l4.1-10.369-2.451-4.978-16.178-3.289-10.623-12.944-22.557,3.124-8.206-3.873-3.646,7.835-2.8.632L375.429,503.1l-8.439,1.366-7.67,15.423-3.289,16.982L343.5,534.052l5.04-13.2,4.5-3.166,9.332-26.636-9.037-10.836-76.557-18.053-9.394,33.263-10.939,13.4-1.573,5.4,3.729,4.305,11.035,2.39,1.854,2.211,3.928,10.822-1.106,8.542,1.978,5.417-1.861,8.446-4.7,1.168-12.738,14.647-7.959,1.49-10.616,8.693L231.6,594.349l-7.855-.213-2.451,11,17.174,18.76,18.739,9.655,7.011-2.122,7.128,4.4,11.337-.028,27.364,8.22-6.565,22.008L294.41,704.15l-14.571,3.633-31.244-5.163-11.557.577-16.913,3.811-12.49,6.744Z" transform="translate(-12.715 -136.163)" fill="#f90" stroke="#000" stroke-width="3"/><path d="M279.743,707.849l-31.251-5.15-11.55.563-16.913,3.825-12.49,6.744-6.441-3.956-4.738,2.63-1.284,5.5-19.742,9.723L173.8,738.173l-9.353-3.887,2.836,0.158,1.037-2.644-1.9-5.205-13.6-3.674-14.255-9.36-4.553-1.943,1.229-4.992-6.475-8.728-3.482-10.423-6.784-32.308-5.26,6.667L99.2,663.51l-1.7,2.28-3.941,22.626L88.051,704.7l-6.977,31.1-1.607,10.272L71.86,781.474,64.313,828.2l-2.966,20.559-1.82,13.466L48.9,887.305,39.8,906.5l-6.3,12.779-18.423,32.9,13.679,2.211,12.731-9.847,9.394,4.855-1.243,13.37,5.26-1.153L71.07,966.2l6.565,12.367,2.005-.241,26.011,1.758,20.271-6.544,0.371,0.185,6.942-1.635,18.114,5.288,18.4-11.894,5.446-2.966,19.227-11.076,8.007-7.766,4.821-4.7-2.733-4.491-9.188-5.885-0.385-2.719,2.479-1.14,10.513-.495,0.728-2.644-4.841-5.912,0.137-.927,1.174-4.745-5.706-4.924-7.581-5.754-7.141-8.117,2.808-16.7,11.474-11.145,2.7-4.628,5.858-6.462,5.239-1.435,12.985,3.914,6.3-4.841,5.789-1.984-1.3,7.347,4.566,5.576,7.952,2.122,2.156-1.744,4.6,2.2,5.212-.914,4.264,3.262,0.659,5.308,8.171,7,9.95-1.449,6.029-.467,6.949-4.21,7.622-7.08,3.076-9.27,15.038-4,8.975-6.531,2.019-10.719,9.7,4.374,5.191-2.012L345.644,822.9l2.884-3.055-8.515-10.423-2.554-7.7,2.726-10.177,4.154,2.719,7.464-1.394,4.663-4.978-3.193-3.982L360,781.478l-0.831-9.95-3.612-3.557-10.8,1.058-7.368-8.144-7.567-3.289,4.745-10.554-15.223-31.237-18.691-6.077-6.331-5.555Z" transform="translate(-12.715 -136.163)" fill="#ffeb00" stroke="#000" stroke-width="3"/><path d="M751.4,864.335l-2.108,1.435-8.837-4.951,0.35,15.594,4.175,6.194,15.855,0.082-3.969,15.519,2.637,0.028,3.88,9.414-2.465,1.861-2.685.013-2.994-4.449-15.5,3.248-2.232,7.712-4.161,5.376-4.038-2.719-0.261,4.628-2.527,4.9-17.826,6.654-7.189-3.982-2.774-4.518-20.69-5.15-6.791,4-3.131-4.038L649.634,933.6l-7,2.376-6.256-11.8,6.558-3.378,10.19-11.948-5.645-8.007-4.566-2.239-7.368,6.99-1.978-1.62L608.818,920.4l0.192,0.618-3.186,4.573-7.389,4.065-15.945,11.749-2.575.3-2.671-7.966-3.111-4.449-19.247,15.759-8.364.735-0.309-5.63-9.572-4.628L535.2,932.6l-5.294.79-8.79-5.335,9.84-12.14-11.873,4.868-16.047,9.5-6.777-4.092L492.1,929.55l-0.357,13.329-7.581-.055-4.285-3.055-3.241-8.5L455.5,912.4l-7.011,2.98,0.323,7.739-7.244,1.545-5.363,6.249-10.266-4.01-12.463,5.686-0.3,8.611-7.533,1.236-4.814-1.84-4.388-1.016-12.971-3.887-10.685,1.573-4.189,3.447-2.637,7.588-2.52,1-4.464-3.07-4.772.028-3.378,3.969-7.313-2.4-15.189-4.01-7.567,2.616,6.565,4.305,0.44,10.7-2.705,7.471,0.81,4.038-14.963-1.573L307.6,974.8l-1.881-1.874-3.358-4.223-7.828-1.826-13.37,2.493-3.008-9.023-4.044-2.685-4.978,8.947-10.355-1.957-5.253,8.769-9.716,2.994-2.719.254-1.8,7.835-2.575.858-5.033-6.132L224.72,983.2l-2.328-1.407-0.1-3.3-1.167-6.544,4.038-2.493,15.979-1.03,3.8-3.461-1.758-5.013L231.532,952.6l-3.22-7.512-8.563-5.953-12.5-.028-2.733-4.491-9.188-5.885-0.385-2.719,2.479-1.14,10.513-.495,0.728-2.644-4.848-5.912,0.144-.914,1.174-4.759-5.706-4.924-7.581-5.754L184.7,891.35l2.8-16.7L198.978,863.5l2.705-4.628,5.85-6.462,5.246-1.435,12.985,3.914,6.3-4.841,5.789-1.984-1.3,7.361L241.118,861l7.952,2.136,2.156-1.758,4.6,2.2,5.212-.914,4.264,3.262,0.652,5.308,8.178,7,9.95-1.449,6.029-.453,6.949-4.223,7.622-7.08,3.07-9.257,15.045-4.01,8.968-6.531,2.019-10.719,9.7,4.374,5.191-2-3.035-13.857,2.884-3.042-8.515-10.438-2.554-7.7,2.726-10.163,4.154,2.713,7.457-1.394,4.669-4.978-3.2-3.982,6.736-2.431-0.831-9.95-3.612-3.557-10.8,1.058-7.368-8.13-7.567-3.3,4.745-10.554-15.223-31.237-18.691-6.077-6.331-5.542,9.071-38.118L309.95,644.2l-27.364-8.205-11.337.028-7.128-4.415-7.011,2.136-18.739-9.655L221.2,605.31l2.451-10.987,7.855,0.213,6.819-11.989,10.616-8.707,7.959-1.49,12.738-14.633,4.7-1.168L276.2,548.1l-1.978-5.417,1.106-8.542-3.935-10.822-1.847-2.211-11.028-2.39-3.736-4.305,1.573-5.4,10.939-13.4,9.394-33.263L353.244,480.4l9.037,10.836-9.332,26.636-4.5,3.166-5.04,13.184,12.532,2.829,3.3-16.982,7.663-15.423,8.439-1.366,33.908,6.345,2.8-.632,3.646-7.835,8.206,3.873,22.564-3.124,10.616,12.944,16.178,3.289,2.451,4.978-4.1,10.369,21.026,3.605,11.852,19.811,5.212,13.019,0.707,13.83-3.894,7.553L503.249,613.7l-8.515,7.725-7.293,10.1,14.894,11.612,2.5,4.628,10.2-3.66,4.106,2.816-4.312,19.3-8.412,7.2-1.394,13.761,16.247,3.07,8.508,17.661-0.858,2.685,8.226,2.719,10.609,0.1,13.892-2.719,5.04,2.293,2.616,5.081L565.38,734.7l7.725-.467,8.123-6.867,1.8-4.965,5.109-.549,2.184,9.874,4.93,1.085,7.3,7.443,2.705,0.3,0.845,5.376,2.6,0.762,13.878-11.907,7.643-6.572,8.6-6.5,7.478-34.615,7.512,1.957,11.9,5.15,10.252-8.5,4.148,3.461,2.871,7.568,2.733-.123,7.375-22.262-12.168-5.219,1.112-2.4,7.65-.8-1.985-7.67,2.335-4.656-3.207-4.347,4.436-9.709-1-2.534,7.334-2.053,3.516-6.99,2.547-13.157,10.705-2,6.5-12.243,9.16-6.249,2.143-8.034,19.5,11.282,11.282,12.2,0.062,2.816,3.578,3.633,8.391-4.236,1.524,10.651,4.738,2.713,2.314,4.965L782.7,643.795l-4.216,3.31-3.9-3.474-2.541.845-2.836,7.54-4.36,2.953,4.724,5.6,5.02-1.14,4.642,2.562,3.619,3.152,4.765-.069,4.223,3.042,4.827,11.989L794.8,681.3l-3.914-2.321-5.006,6.386-2.733,2.2,9.037,14.3,2.088,5.109-3.79,3.7,0.954,16.109-10.451-.055-1.964-2.644-6.4,3.941,4.841,8.961-2.033,7.67,4.264,3.619-0.495,8.247,4.614,10.3-0.824,2.713-2.76.536-2.884,4.305,12.958,2.857,1.477,7.9-16.4,14.661-14.681,7.78,3.591,13.37-7.78,8.117-1.27,5.5,1.627,2.321,8.275,1.366-2.067,5.871-1.758,7.272-7.54,1.435-1.531,4.21Z" transform="translate(-12.715 -136.163)" fill="#ffeb00" stroke="#000" stroke-width="3"/><rect x="486.784" y="217.146" width="83.502" height="83.502" fill="#ff8080" stroke="#000" stroke-width="3"/><rect x="182.678" y="614.971" width="83.502" height="83.502" fill="#d00" stroke="#000" stroke-width="3"/><rect x="528.535" y="614.971" width="83.502" height="83.502" fill="#ff8080" stroke="#000" stroke-width="3"/><text transform="translate(427.217 287.149)" font-size="75.151" font-family="DejaVu Sans" font-weight="700">1</text><text transform="translate(114.982 694.218)" font-size="75.151" font-family="DejaVu Sans" font-weight="700">2</text><text transform="translate(473.74 687.06)" font-size="75.151" font-family="DejaVu Sans" font-weight="700">3</text></svg>