<?xml version="1.0" encoding="UTF-8" standalone="no"?>
<svg
   xmlns:dc="http://purl.org/dc/elements/1.1/"
   xmlns:cc="http://creativecommons.org/ns#"
   xmlns:rdf="http://www.w3.org/1999/02/22-rdf-syntax-ns#"
   xmlns:svg="http://www.w3.org/2000/svg"
   xmlns="http://www.w3.org/2000/svg"
   xmlns:sodipodi="http://sodipodi.sourceforge.net/DTD/sodipodi-0.dtd"
   xmlns:inkscape="http://www.inkscape.org/namespaces/inkscape"
   width="963.291"
   height="990.352"
   viewBox="0 0 963.291 990.352"
   version="1.1"
   id="svg80"
   sodipodi:docname="2T_Législatives_2017_Alpes-Maritimes.svg"
   inkscape:version="0.92.1 r15371">
  <metadata
     id="metadata86">
    <rdf:RDF>
      <cc:Work
         rdf:about="">
        <dc:format>image/svg+xml</dc:format>
        <dc:type
           rdf:resource="http://purl.org/dc/dcmitype/StillImage" />
        <dc:title>1T Législatives 2017 Alpes-Maritimes</dc:title>
      </cc:Work>
    </rdf:RDF>
  </metadata>
  <defs
     id="defs84" />
  <sodipodi:namedview
     pagecolor="#ffffff"
     bordercolor="#666666"
     borderopacity="1"
     objecttolerance="10"
     gridtolerance="10"
     guidetolerance="10"
     inkscape:pageopacity="0"
     inkscape:pageshadow="2"
     inkscape:window-width="1366"
     inkscape:window-height="745"
     id="namedview82"
     showgrid="false"
     inkscape:zoom="0.56949449"
     inkscape:cx="191.91487"
     inkscape:cy="495.17599"
     inkscape:window-x="-8"
     inkscape:window-y="-8"
     inkscape:window-maximized="1"
     inkscape:current-layer="svg80" />
  <title
     id="title10">1T Législatives 2017 Alpes-Maritimes</title>
  <path
     d="M541.056,751.983l-19.4.63-11.134,3.566L509.836,731.1l6.414,4.074,1.678,6.828,11.064-6.832,3.912-3.455,7,1.372-2.155-4.846,0.932-2.517,4.071-2.139,0.686-4.277-4.97-5.241,2.332-6.339,9.663-4.826-2.13,7.413,6.663,9.007,14.273,0.421,2.067,0.576-6.684,2.96L554.128,737.83l-0.619,7.331,6.023,9.148-2.158,9-9.736-1.232Z"
     transform="translate(-16.41 -4.054)"
     fill="#06c"
     stroke="#000"
     stroke-width="3"
     id="path12" />
  <path
     d="M196.44,673.88l8.21,16.318,3.2,17.54-4.735,10.153,15.077,12.5,11.621,1.108,8.287,16.44,19.4,3.163,21.385,9.934,7.358,7.975-6.951,9.12,2.623,11.251,2.557,4.905-4.177,4.887-8.892-.237-8.287-3.59-10.133,2.2,3.3,4.252-3.068,1.629-4.546-2.444-5.625,4.252-3.75,5.976L225.307,805.6l1.222,21.053,5.957,4.423-6.459,13.761-8.655,5.029-15.238,1.477-6.4-3.551-2.955,2.178-11.648-8.23-2.406-6.052-8.912-4.4-8.883-7.254-11.043,1.516-8.135-16.706-11.838-18.069-7.273-.994-3.94-6,1.884-19.074,2.946-7.3,6.109-4.754-6.847-29.15-7.2-8.732-2.5-11.138L79.5,700.859l-0.662-7.453-5.569-5.237-14.111-5.786-3.769-.739-20.163,9.9-3.05-15.588-9.489-6.118,2.566-10.058-5.824-4.157L18.3,646.708l-0.275-1.373,4.905-5.587,37.143-9.565,17.369-7.69,0.72-7.586-8.4-8.173-26.082-6.516,9.8-24.14L71.8,571.929l-3.362-1.961L66.26,550.79l-14.282-4.812-6.032-9.547,36.888,9.12,25.4,8.618,27.029-13.06,15.911-29.927,24.878-9.064L179,505.5l11.232,1.459,20.4,16.611,6.62,9.394,7.34,0.966,21.015-4.015,15.2-3.088,3.769-1.032-0.587-7.51-9.452-6.809L241.01,492.5l-3.314-2.092-7.435,2.444-6.383-3.883-7.823-8.542-7.435-17.369-19.2-1.866-0.682-11.355-2.074-13.855-8.675-6.346,3.239-7.179-34.757-20.608L141.181,387.1l-14.376-5.843-20.494-18.3,1.629-23.118,7.084-18.051-5.361-7.86-7.236-13.259L89.407,286.639l-4.5-8.21L75.959,271.6l-2.444-22.9L59.253,222.326l11.28-10.361,1.127-7.453L68.3,197.8l15.22-20.75L80.857,166.28l8.694-11.431-2.329-6.516,2.273-18.183,2.813-2.462,7.453-.8,4.754-6.051,10.844-4.035,4.953-18.2,21.934,6.847,8.069,16.744-1.828,11.062,7.472,8.173-1.534,7.529,3.3,11.024,3.788,6.6,6.97,2.832,4.053,10.559,10.247,11.6,24.453,11.762,5.257,14.613,0.294,0.018L224.1,203.064l10.1-5.313,7.566,0.928,11.8,1.459,17.606-8.969,9.272,21.9,0.35,15.891,10.247,4.64,3.7-1.222,10.191,11.639,2.566,19.14,6.346,4.536,3.721,11.023,15.153,12.075-4.7,14.632,0.275,19.368,4.991,10.541,16.11,7.747,5.086,5.625-1.686,10.673,5.587,9.376-4.953,17.312,14.036,21.64,7.765,9.992,10.731,2.566,5.323-14.168,25.192-10.559,0.294,0.255,3.9,10.379-0.133,22.359,4.679,13.562,3.239,0.54,4.48,8.675,18.164-5.417,7.765-18.032,10.209-5.55,7.86-13.391,15.276-2.5,3.684,6.886,7.065,46.338-12.113,9.357-7.216,17.463-21.659,8.524,0.89,9.233-3.05,5.455,7.765,6.99-5.257,12.558,1.61,17.662,5.919,9.783-0.928,11.251-0.255,11.3L467.849,585l-3.807,12.094-4.46,10.049-0.255,10.787,7.378,12.227,6.269,4.4,3.769,4.7,7.728,12.008-2.794,13.779-6.639,8.6-3.334,4.717L460.035,693.8l-1.941,6.07,1.335,25.135-11.061,2.756-5.361,25.845-6.771-1.373-4.091-5.664-6.9-.852,1.032,9.394-6.771-3.239L415.7,741.316,407.93,733.2l-7.4-.625-12.52,8.21-6.6,2.386-6.346-3.239-1.335-22.217-10.058-15.607-7.046-2.386-3.788-5.957,2.908-5.067-13.334-13.543L325.688,665.8l-17.956,4.6-6.459-3.92-3.457.872,5.492,16.261-3.513,1.534-6.383,13.221-15.1-2.092-2.5-2.946Z"
     transform="translate(-16.41 -4.054)"
     fill="#ffeb00"
     stroke="#000"
     stroke-width="3"
     id="path14" />
  <path
     d="M489.532,696.684l1.1,14.814,4.545-.544,1.635,3.468,4.539,10.54,8.484,6.142,6.414,4.074,1.681,6.828,11.062-6.832,3.912-3.455,7,1.372-2.155-4.846,0.932-2.517,4.071-2.139,0.686-4.277-4.969-5.241,2.329-6.339,9.663-4.826-2.13,7.413,6.663,9.007,14.273,0.421,20.169-15.882,18.72-2.221,5.216-5.087,8.117-5.964,3.585-8.767-4.019-4.668-15.3,1.726-5.783,5.207-6.223,4.108L571.3,691.7l-3.709-.716-0.567-11.013-6.322.265-2.425,6.126-7.2-2.309-1.6-3.541,0.258,4.077-13.171.354-8.619-11.6-3.548.893-2.121-2.986-5.585,5.146,0.77,7.583-6.256,4.466-4.966.316Z"
     transform="translate(-16.41 -4.054)"
     fill="#ffeb00"
     stroke="#000"
     stroke-width="3"
     id="path16" />
  <path
     d="M643.712,707.3l-0.445,3.2-2.661,2.074,4.925,4.584-8.562,8.618-11.687-1.884-5.786-3.22-10.171,4.366L598.964,722.1l-7.624,8.069-4.5.578-10.731,13.448,4.053,11.725,11.6,5.569L581.187,763l-0.521,9.357-7.765,1.2-3.788-15.911,3.92-7.32-3.94-6.269-4.035-4.972-2.481,2.5-3.551,5.976,0.483,6.791-6.032-9.158,0.606-7.34L564.6,723.282l6.7-2.955-2.074-.578,20.2-15.911,18.751-2.216,5.237-5.1,8.117-5.976,3.59-8.77-4.035-4.679-15.313,1.742-5.786,5.218-6.231,4.11-22.474,3.513-3.721-.72-0.578-11.023-6.326.255-2.444,6.136L551,684.015l-1.591-3.551,1.165-15.039-4.46-6.089L530.238,616.6l-4.073-6.886,6.714-2.908L530.01,581.45l0.407-26.744,8.675-7.141,2.955-6.951L556.2,537.45l4.2-9.746,3.646-.985-5.124-5.218,2.254-17.719-3.276-1.629-11.1-18.79-0.018-6.951,17.956,0.72,8.173-7.8,7.566-.7,28.1,9.877-0.483-7.141,5.625-9.272,3.068-14.339,9.025-6.97,0.985-7.586,7.1-9.044,8.486-7.292,10.948-2.68,6.5-4.347-8.173-16.147-8.883-6.288,8.325-12.87L648.876,363.3l2.566-7.292,3.183-2.349,2.538-38.971L654.6,284.494l-0.388-7.842,5.086-10.616,23.6,2.178,31.319-16.63,14.944,4.11L741.733,247l15.74-.834,9.916-6.477,39.416,3.4,6-4.905,3.495-11.251,4.328-10.541,6.269-4.347,31.337,1.647,2.406,6.7-9.215,16.98,5.275,10.465-1.089,3.807-7.254,12.984,5.531,14.206,12.037,10.285,7.378,14.111,11.648,10.6,2.406,7.435-2.557,19.661-9.1,21.792L844.8,378.859l-0.332,15.7,4.83,19-12.965,24.159L803.5,459.566l-15.74.947-16.706,9.452-0.834,18.146-9.6,16.223,2.131,18.865-37.825,17.5-4.252,5.749-8.173,7.121-1.809,24.008,8.845,12.265,8.931,41.689,8.931,20.626-14.073,4.157-3.741,6.771-15.645,10.247-3.7,6.771,2.074,7.378-2.794,2.643-19.793-10.361L664.462,691.14l-1.516-2.908Z"
     transform="translate(-16.41 -4.054)"
     fill="#ffeb00"
     stroke="#000"
     stroke-width="3"
     id="path18" />
  <path
     d="M516.589,676.295l0.777,7.6-6.269,4.48-4.972.312L489.4,696.628l1.089,14.831,4.546-.558,6.175,14.016,8.486,6.156,0.682,25.1L498.85,766.492l-6.014,22.531-10.853,15.645L471.641,806l1.961-6.459-2.311-3.475,0.369-7.51-9.547-33.052L459.318,725l-1.335-25.135,1.961-6.089,11.668-15.446,3.334-4.717,6.62-8.58,2.794-13.779-7.728-12.028-3.769-4.7-6.251-4.385L459.234,617.9l0.255-10.768,4.46-10.058L467.756,585l0.8-5.786,0.255-11.3,0.928-11.251-5.9-9.783-1.61-17.662,5.237-12.558-7.747-6.99,3.05-5.455-0.909-9.233,21.677-8.524L490.749,469l12.094-9.357L495.8,413.3l-3.684-6.886-15.276,2.5-7.88,13.391-10.209,5.55L451,445.87l-18.184,5.436-4.48-8.675-3.22-.54-4.679-13.562,0.113-22.379-3.9-10.379-0.275-.237-25.21,10.559-5.323,14.168-10.711-2.566-7.765-9.992-14.036-21.64,4.953-17.312-5.587-9.376,1.686-10.673-5.086-5.625-16.11-7.747L328.2,324.789l-0.275-19.368,4.679-14.632-15.153-12.075-3.7-11.023-6.364-4.536-2.566-19.14-10.171-11.639-3.7,1.2-10.247-4.64-0.369-15.873-9.253-21.9-17.606,8.949-11.8-1.439-7.566-.928L224,203.064,212.665,217.97l-0.294-.018-5.257-14.613-24.433-11.762-10.247-11.62-4.053-10.54-6.97-2.832-3.788-6.6-3.3-11.024,1.534-7.529-7.491-8.173,1.846-11.062-8.069-16.744L139,86.994l7.728-12.851,0.625-18.572,6.213-4.64L157.9,40.3l10.853-3.977L182.8,22.946l11,2.169,6.771-3.144,6.9-7.008,12.8-9.281L235.583,9.6l9.972,6.364,8.325,21.915,22.587,22.1,2.955,19.073,10.3,11.043,14.613,5.237,3.258,7.179L310.7,133.9l5.843,10.38,9.859,6.327,3.721-1.4,12.094,9.641,30.221-7.709,15.5,11.781,18.316,7.4,18.884,14.48,14.784-4.442,13.722,7.416,7.8-1.3,5.313,14.792,7.273,2.643,14.983,17.5,14.111-4.622,8.949,17.095,10.361,11.251,17.35,6.639,6.951-3.183,38.621-.2,14.518,31.48,7.823-.018,13.837-7.4,7.3-.19,25.75,12.283,2.566,30.173-2.538,38.989-3.183,2.349-2.566,7.292,2.216,11.232-8.325,12.852,8.892,6.288,8.154,16.166-6.5,4.328-10.929,2.7-8.5,7.292-7.084,9.044-0.994,7.586-9.025,6.951-3.05,14.357-5.644,9.272,0.5,7.141-28.1-9.877-7.586.7-8.154,7.785-17.956-.72,0.018,6.97,11.081,18.79,3.3,1.629-2.254,17.7,5.124,5.237-3.646.966-4.2,9.764-14.168,3.163-2.955,6.951-8.675,7.141-0.388,26.744L532.9,606.87l-6.714,2.908,4.053,6.866,15.891,42.75,4.442,6.089L549.4,680.521l0.255,4.091-13.192.35-8.618-11.621-3.551.89-2.15-2.973Z"
     transform="translate(-16.41 -4.054)"
     fill="#06c"
     stroke="#000"
     stroke-width="3"
     id="path20"
     style="fill:#0066cc;fill-opacity:1" />
  <path
     d="M425.189,745.751L432.1,746.6l4.073,5.664,6.771,1.373,5.361-25.845,11.061-2.756,2.775,30.5,9.547,33.052-0.35,7.51-2.557-2.585-14.376,1.26-14.461,1.354L428.05,810.576l-12.416,26.744-9.726-5.294-5.786-13.666-9.565-12.037-18.279,4.565-19.235.35-0.587-3.513,2.349-3.05,14.574-2.557L380.328,774.5l7.141-1.279-5.162-5.455-10.465-2.946-2.386-6.639,5.531-18.2,6.346,3.22,6.62-2.368,12.52-8.21,7.4,0.625,7.765,8.117,3.807,10.541,6.771,3.258Z"
     transform="translate(-16.41 -4.054)"
     fill="#f90"
     stroke="#000"
     stroke-width="3"
     id="path22"
     style="fill:#0066cc;fill-opacity:1" />
  <path
     d="M412.282,861.878l3.362-24.585-9.726-5.275-5.786-13.684L390.566,806.3l-18.279,4.565-19.235.35-0.587-3.513,2.349-3.05,14.574-2.557,10.948-27.616,7.141-1.26-5.162-5.474L371.852,764.8l-2.386-6.639,5.531-18.2-1.317-22.217L363.6,702.111l-7.027-2.368-3.788-5.976,2.889-5.047-13.334-13.543-16.725-9.357-17.956,4.6-6.44-3.92-3.457.872,5.492,16.242-3.533,1.553-6.364,13.221-15.1-2.092-2.5-2.946-79.315-19.519,8.23,16.336,3.183,17.52-4.735,10.153,15.077,12.5,11.621,1.108,8.287,16.46,19.424,3.144,21.365,9.934,7.358,7.975-6.951,9.139,2.623,11.251,6.913,13.666,12.889,8.268,1.629,11.194,9.954,15.1,14.481,5.976,15.408,2.017,11.526,10.266,10.636-6.109-1.184,18.089,6.4,7.32-6.089,9.215L360.4,891.4l-10.929,11.393,1.335,6.346,6.676,3.106,7.8-12.265,15.276-9.394,13.3-1.647,11.725,7.4,3.239,23.089,16.743-8.476-1.979-20.22L413.231,888.3l1.572-12.075-4.905-4.46,6.753-4.328Z"
     transform="translate(-16.41 -4.054)"
     fill="#06c"
     stroke="#000"
     stroke-width="3"
     id="path24"
     style="fill:#0066cc;fill-opacity:1" />
  <path
     d="M365.469,849.633l-10.654,6.213-13.618,22.2-3.551,6.516,1.477,7.1L324.917,896.1l-11.544-2.661-11.544,1.184-14.5,5.029-3.845-1.477-0.294-3.845,3.551-1.459-5.323-6.525-15.1,2.955-2.368.294-10.948-.587-10.654,9.764-6.516-1.78-3.845-.294-11.838,13.912-6.516,21.6,12.425,7.69,0.578,3.845-8.883,21.584,15.683,8.287,6.809,2.661,2.661,10.654,14.5,3.258,0.294-3.551,10.361-3.827,6.516-13.931-2.661-6.516-10.058-5.029-0.578-7.4,10.654-19.519,11.544-10.361,14.793-5.029,36.092-.89,7.4,13.618,15.683-15.39-6.809-3.258-1.184-6.213L360.4,891.36l4.148-7.1,5.919-9.177-6.213-7.1Zm-15.694,92.631-11.251,1.184-1.477,1.477,2.074,3.258,5.323,2.074,17.463,0.587,2.955,2.074,2.074-2.955-0.89-1.78Z"
     transform="translate(-16.41 -4.054)"
     fill="#ffeb00"
     stroke="#000"
     stroke-width="3"
     id="path26"
     style="fill:#0066cc;fill-opacity:1" />
  <path
     d="M225.978,844.822l6.477-13.761-5.976-4.423-1.2-21.053,13.988,5.607,3.741-5.976,5.644-4.252,4.536,2.444,3.068-1.629-3.276-4.252,10.114-2.2,8.287,3.59,8.892,0.237,4.177-4.887,4.385,8.788,12.87,8.268,1.647,11.213,9.954,15.077,14.481,6,15.408,2L354.7,855.877l-13.543,22.18-3.551,6.459,1.629,7.179-14.4,4.347L313.485,893.5,301.9,894.65l-14.613,4.905-3.7-1.279-0.369-3.883,3.533-1.629-5.474-6.44-15,2.869-2.254.312-10.948-.388L242.344,898.8l-6.581-1.866,0.985-7.548-6.07-13.562,9.394-16.867Z"
     transform="translate(-16.41 -4.054)"
     fill="#ffeb00"
     stroke="#000"
     stroke-width="3"
     id="path28"
     style="fill:#0066cc;fill-opacity:1" />
  <text
     transform="translate(716.945 357.333)"
     font-size="138.959"
     font-family="DejaVu Sans"
     font-weight="700"
     id="text30">4</text>
  <text
     transform="translate(322.746 288.336)"
     font-size="138.959"
     font-family="DejaVu Sans"
     font-weight="700"
     id="text32">5</text>
  <text
     transform="translate(155.64 338.998)"
     font-size="138.959"
     font-family="DejaVu Sans"
     font-weight="700"
     id="text34">2</text>
  <text
     transform="translate(229.133 740.396)"
     font-size="61.014"
     font-family="DejaVu Sans"
     font-weight="700"
     id="text36">7</text>
  <text
     transform="translate(286.799 882.844)"
     font-size="59.723"
     font-family="DejaVu Sans"
     font-weight="700"
     id="text38">9</text>
  <text
     transform="translate(208.867 963.606)"
     font-size="64.442"
     font-family="DejaVu Sans"
     font-weight="700"
     id="text40">8</text>
  <text
     transform="translate(416.041 784.908)"
     font-size="47.099"
     font-family="DejaVu Sans"
     font-weight="700"
     id="text42">6</text>
  <text
     transform="translate(526.586 732.315)"
     font-size="20.585"
     font-family="DejaVu Sans"
     font-weight="700"
     id="text44">1</text>
  <text
     transform="translate(489.445 724.388)"
     font-size="48.812"
     font-family="DejaVu Sans"
     font-weight="700"
     id="text46">3</text>
  <path
     d="M777.124,955.193l-46.383,1.5-26.616,8.524-1.633-59.939,15.333,9.738,4.012,16.322,26.449-16.332,9.352-8.258,16.725,3.279-5.152-11.583,2.228-6.017,9.731-5.114,1.64-10.223L770.93,864.566l5.574-15.153,23.1-11.537-5.092,17.72,15.929,21.531,34.12,1.006,4.94,1.378-15.978,7.075-25.15,34.775-1.48,17.526,14.4,21.867-5.16,21.509-23.273-2.946Z"
     transform="translate(-16.41 -4.054)"
     fill="#06c"
     stroke="#000"
     stroke-width="3"
     id="path66" />
  <path
     d="M653.957,823l2.635,35.412,10.864-1.3,3.91,8.29,10.85,25.2L702.5,905.283l15.333,9.738,4.019,16.322,26.442-16.332,9.352-8.258,16.725,3.279-5.152-11.583,2.228-6.017,9.731-5.114,1.64-10.223-11.877-12.529,5.567-15.153,23.1-11.537-5.092,17.72,15.929,21.531,34.12,1.006,48.214-37.966,44.75-5.308L949.993,822.7l19.4-14.257,8.57-20.957-9.607-11.158-36.574,4.126L917.959,792.9l-14.877,9.82-53.664,8.375-8.867-1.71-1.356-26.325-15.114.634-5.8,14.643-17.207-5.521-3.817-8.464,0.616,9.746-31.485.846-20.6-27.735-8.481,2.135-5.071-7.139-13.35,12.3,1.842,18.127L705.772,803.31l-11.87.754Z"
     transform="translate(-16.41 -4.054)"
     fill="#ffeb00"
     stroke="#000"
     stroke-width="3"
     id="path68" />
  <text
     transform="translate(765.35 913.814)"
     font-size="49.207"
     font-family="DejaVu Sans"
     font-weight="700"
     id="text70">1</text>
  <text
     transform="translate(676.567 894.865)"
     font-size="116.685"
     font-family="DejaVu Sans"
     font-weight="700"
     id="text72">3</text>
  <polyline
     points="715.825 758.15 543.098 750.301 686.082 958.946"
     fill="none"
     stroke="#000"
     stroke-width="3"
     id="polyline78" />
</svg>
