<?xml version="1.0" encoding="UTF-8" standalone="no"?>
<svg
   xmlns:dc="http://purl.org/dc/elements/1.1/"
   xmlns:cc="http://creativecommons.org/ns#"
   xmlns:rdf="http://www.w3.org/1999/02/22-rdf-syntax-ns#"
   xmlns:svg="http://www.w3.org/2000/svg"
   xmlns="http://www.w3.org/2000/svg"
   xmlns:sodipodi="http://sodipodi.sourceforge.net/DTD/sodipodi-0.dtd"
   xmlns:inkscape="http://www.inkscape.org/namespaces/inkscape"
   width="996.196"
   height="795.751"
   viewBox="0 0 996.196 795.751"
   version="1.1"
   id="svg4499"
   sodipodi:docname="2T_Législatives_2017_Hautes-Alpes.svg"
   inkscape:version="0.92.1 r15371">
  <metadata
     id="metadata4505">
    <rdf:RDF>
      <cc:Work
         rdf:about="">
        <dc:format>image/svg+xml</dc:format>
        <dc:type
           rdf:resource="http://purl.org/dc/dcmitype/StillImage" />
        <dc:title>1T Législatives 2017 Hautes-Alpes</dc:title>
      </cc:Work>
    </rdf:RDF>
  </metadata>
  <defs
     id="defs4503" />
  <sodipodi:namedview
     pagecolor="#ffffff"
     bordercolor="#666666"
     borderopacity="1"
     objecttolerance="10"
     gridtolerance="10"
     guidetolerance="10"
     inkscape:pageopacity="0"
     inkscape:pageshadow="2"
     inkscape:window-width="1366"
     inkscape:window-height="745"
     id="namedview4501"
     showgrid="false"
     inkscape:zoom="0.70876445"
     inkscape:cx="498.09799"
     inkscape:cy="397.87549"
     inkscape:window-x="-8"
     inkscape:window-y="-8"
     inkscape:window-maximized="1"
     inkscape:current-layer="svg4499" />
  <title
     id="title4485">1T Législatives 2017 Hautes-Alpes</title>
  <path
     d="M130.878,684.471L123.3,685.8l-10.622-8.819,5.53-19.645,0.4-1.416L122.636,653l2.726-10.206,4.72-2.24,0.7-7L136.5,621.57l5.431-.592,2.021-7.953-3.959-4.113-1.775-8.417,1.1-14.144,5.889-3.48,4.635,3.508,14.489,0.895,25.146,8.326,14.158-9.242,2.782-7.953,10.389,5.269,11.665,0.81,6.234-18.117,7.346-4.276,9.988-9.537-2.7-8.2-7.664-3.4-6.7-1.486,5.889-6.107,4.529-14,6.29-9.932-1.359-14.552,8.354,2.8,4.17,4.086,22.442,3.578,4.592-6.987,5.431-2.036,10.4,4.374,10.855-8.967,8.037,3.219,0.289,21.188,8.368,16.137,15.708,10.883-9.15,14.4L347.6,575.82l6.9-.148,7.17,4.226,6.7-4.184,5.444,0.718,8.065,14.623L380.5,602.128l6.945,4.994,16.588-2.2,4.635-3.374-0.493,8.875,3.346,4.776,5.515,2.12,8.586-1.9,8.487,2.092,3.346,1.212,9.875-1.543,7.185,4.719,3.107,8.072-2.226,1.817,13.249,5.832,37.43-6.825,7.8-4.086,1.07,5.572L504.831,655.2l0.359,5.684-1.4,8.46,6.628,5.339-0.43,2.846-12.08,18.983-10.073-.176-2.726,9.833-10.784.507-4.8-2.557L465.6,707.44,459.032,722.7l-4.663,2.3-4.184,1.951-2.86-.028-14.58,13.207-4.8-.965-5.064-5.283-3.36.042-4.416,2.874-6.565-4.4-5.212-.042-3.48,6.8,3.043,4.276-4.607,16.095-1.8,2.092-8.953-5.8-14.235,10.58-4.621,3.55-3.275,11.27-16.264,6.276-8.706,3.768-3.635,3.191-10.756,6.987-7.291,18.736L316.4,830.854l-6.854,8.615-5.241,9.382-2.6.866-5.515.2,0.028,8.53-3.987,7.262,6.536,5.339,7.776-2.726,2.494,1.444-0.965,9.164,0.563,2.627,0.754,5.325-7.333,3.938,1.613,5.5-1.324,11.03,5.557,1.282,0.894,2.74-2.48,5.135,0.719,7.621-5.733-.909-19.223-18.088-3.029-4.994,0.247-11.587-15.849-8.114-7.72,2.613-0.148,5.558-7.72,12.066,2.24,11.087,2.67,3.261L269.6,926.649l1.5,8.572,4.55,3.712,1.937,5.431,4.515,10.235,19.11,6-1.324,11-5.748.606-24.7-3.592L252.5,964.22l-11.9-8.628-11.347-.923-9.383,5.241-13-3.55-9.3,6.741-14.4,2.712L173.007,971.3l-3.346,4.733-9.784-4.3,5.5-1.887,0.415-2.916-5.5-13.552,2.628-14.447-5.078-12.517,0.965-8.516,7.432-8.53-6.607-8.213-17.265,7.361-0.7-5.7-7.783-8.2,0.232-5.642,4.318-2.726-3.839-6.015-5.078-1.458-5.543-5.656-4.635,2.74,2.93-8.086,10.164-10.1,0.62-2.818-4.459-3.36-4.818,2.367-16.511.176-0.754.127-9.34-1.212-5.424-.909-7.854,3.332L78.4,853.845l-1.831-8.086-9.537-5.987-10.608,4.156L50.234,849.9l-8.615-11.636L35.8,838,32.166,824.7l-11.3-.429-5.382-1.155-2.162-5.2,6.755-4.966-0.549-8.72-5.311-16.757-8.657-11,12.094-7.361L38.1,779.7l5.254-1.613,2.726-5.121L50.6,773.6l2.529-6.9-1.4-1.994-16.151-6.353-2.8-4.762L30.6,739.723l3.959-4.142L30.694,725l-0.867-2.007-0.634-8.072,7.776-1.557,2.451,4.832,4.91,2.543,16.7-.233L84.2,730.249l6.41,4.691,2.543-.8,2.641-1.113,20.681,9.3,8.445-7.664,5.135-19.427,4.113-3.635,10.812,2.325,7.938-2.162-10.883-15.257Z"
     transform="translate(-3.335 -182.148)"
     fill="#ffeb00"
     stroke="#000"
     stroke-width="3"
     id="path4487" />
  <path
     d="M882.739,420.224l-11.115-2.148-6.656-5.72-8.368-2.789-19.427-13.278L832.4,385.779l-8.692-.62-6.3-9.974-13.926-3.466-0.437-14.637,4.529-10.376-5.3-2.338,8.213-15.532,0.909-8.678-10.665-16.673-5.135-2.571-0.3-3,7.763-4.2-1.007-5.9-3.191-8.4-2.282-1.923-8.326-3.374-29.852-.042-2.078-2.162-3.754-8.157,1.331-8.763-3.91-7.966,0.437-11.953-1.141-2.782L741.4,228.1l-1.86-8.692L729.2,204.845l1.789-5.712-9.847-9.861-14.13,1.486-8.023-3.318-7.565,7.868-3.346,7.84-13.855,4.762-5.614-1.324-9.22-7.192-17.18,15.736,4.212,17.18-1.007,11.679L625.085,247.4,614.16,238.4l-8.692,1.515-8.5-2.571-5.543,1.909-19.166-6.931,5.819-10.277-5.7-16.7L553.9,187.574l-0.81,2.818-9.5,6.523L529.409,199.7l-9.847-5.353-9.769-10.115-18.75,17,8.4,31.26-13.911,3.881-6.3,19.56-0.521,11.819-3.451,4.579,0.141,8.889,6.727,5.72,25.026,8.023,25.562-6.353,11.587-.127,2.684,5.283-3.867,7.966-0.141,5.959,7.318,12.545-2.6,11.228,3.712,4.515,16.828,5.227-2.409,14.609,2.268,14.376-1.966,8.628,2.324,8.269-3.937,4.473-0.909,5.818,2.93,17.158-11.4,5.459-10.115-5.72-9.023-14.912-5.861-1.021-16.455,4.142-10.91,13.961-11.834.465-19.589-5.9-4.621,3.726-11.376,1.846-7.044-4.98-16.44-3.578L421.5,422.379l-9.481,6.163-24.435,18.934-15.736-18.821-8.389,2.381-7.65,12.6L341.3,445.124,323.539,457l6.882,6.84,10.058,4.592,1.487,8.269-16.236,8.326-1.225,9.861,0.289,21.188,8.368,16.137L348.869,543.1l-9.15,14.391,7.776,18.257,6.9-.141,7.17,4.226,6.7-4.184,5.431,0.718,8.072,14.609-1.388,11.087,6.96,4.994,16.581-2.2,4.635-3.374-0.479,8.875,3.346,4.762,5.515,2.134,8.586-1.909,8.487,2.092,3.346,1.226,9.875-1.557,7.17,4.733,3.12,8.072-2.24,1.817,13.249,5.832,37.445-6.825,7.8-4.086,1.07,5.572-10.115,22.921,0.359,5.67-1.416,8.474,6.642,5.325-0.43,2.86-12.094,18.983-10.058-.176L485,706.1l-10.784.507-4.8-2.543-3.923,3.318-6.565,15.257-4.663,2.3-4.184,1.937-2.86-.014-14.595,13.207,14.278,5.17L447.29,761.9l3.663,6.438,6.931-4.318,6.565,12.961,8.966,7.635,6.684,9.7,9.685,18.187,10.453-5.05L510.9,786.924l-9.643-25.935-3.67-3.825-4.487-12.7,0.451-.733,17.144-1.613,5.931-5.9,12.834-6.9,2.712,5.142,9.107,7,8.312,2.5,1.416-4.564,4.9-1.613,1.543-7.621,3.67-16.919-8.368-8.354,1.458-1.169,7.677-3.374,5.819-6.051,2.782,0.465,5.064,9.833,9.544,9.833,7.432,3.768,5.72,11.488,0.563,5.5,3.952,4,13.51-2.494,3.987,4.24,8.284,2.3,5.444,10.045,8.114-1.4,10.347,3.881,8.1-.479,5.586,1.6,7.981-3.177,13.4,4.923,11.3-1.7,5.543,1.7,1.937,0.373,8.516-1.979,17.483,0.852,5.614-32.43,7.17-7.523,8.9-4.846,8.692-26.33-1.444-8.269,14.637,1.543,20.061-12.256,10.334-14.278,7.995-3.8L814.3,641l6.593-5.9,8.312-1.331,3.494-8.037,5.424,1.9,7.192-5.093,14.432-1.789,4.332-3.951,3.825-10.967,14.088-2.888,11.5-13.306,3.67-7.783,4.579-2.86,14.778,6.452,5.022-2.254,5.53-6.34,0.43-8.4,2.944-4.853,5.586-.416,8.213-8.185,5.487-1.62L955.2,555.6l14.5-2.972,18.631,8.967,2.959,0.3,5.762-1.007,0.937-2.831-0.965-5.889-5.762-16.919-13.278-6.34-7.086-9.537-5.009-16.99,0.606-14.722-7.185-13.045-7.205-5.079,11.911-20.5,0.951-5.86-0.838-2.86-5.311-2.543-4.346-10.953-19.786-6.036-20.666-11.594-2.972-.028-11.376,13.383Z"
     transform="translate(-3.335 -182.148)"
     fill="#ffeb00"
     stroke="#000"
     stroke-width="3"
     id="path4489" />
  <text
     transform="translate(631.801 370.013)"
     font-size="103.352"
     font-family="DejaVu Sans"
     font-weight="700"
     id="text4491">2</text>
  <text
     transform="translate(154.515 533.654)"
     font-size="103.352"
     font-family="DejaVu Sans"
     font-weight="700"
     id="text4493">1</text>
</svg>
