<svg xmlns="http://www.w3.org/2000/svg" width="940.72" height="675.296" viewBox="0 0 940.72 675.296"><title>Députés sortants du Gers en 2017</title><path d="M277.52,583.1l4.187,2.824,9.133,11.07,10.809,3.144,11.264-2.674,6.638,5.982,2.875-.827,3.211,4.671,5.669,1.892,7.956,8.276,11.167,3.755,1.49,8.873,2.369,1.832,2.957,5.111,12.2,7.874,0.022,8.873L368.972,664.8l3.971,7.174-1.132,5.513,5.289,5.758,0.976,8.686,12.858,15.235,4.008-1.572,5.543-10.43-1.2-11.636,3.583,0.306,7.345,3.844,2.637,7.86,5.215-1.356,9.468,6.332-2.354,8.7,5.386,2.533,23.325-1.676,1.4,7.33,4.127-6.608,13.431-4.06,1.684-5.736-1.222-20.241L458.778,683.5l-0.924-21.284-3.7-11.539,8.709,2.413,11.487-1.207,7.584,4.976,11.9,0.946,2.481,8.135-3.613,4.805,7.293,3.538,7.531-4.336,2.28-5.267,8.582,0.871,4.962,14.258,7.963,4.35,6.853-13.529,14.564-4.455-0.812-8.873,1.155-2.593,5.431,1.818-0.417-2.913-2.7-8.075-13.327-10.563,0.968-5.6,4.269-4.03,24.845-.686,2.7,1.05,1.3,5.386,4.909,0.06,3.747-3.188-0.425-2.883-5.066-2.824,0.775-5.744-7.755-8.075,13.253-9.722,4.187-10.2,7.412,3.956,15.54-6.385-3.635-8.4,4.03-12.486,19.421,1.617-0.8,10.072,4.932,6.735,12.4-2.943,3.8,0.991,3.307-7.464,11.1,2.883,5.11-2.317,5.922-5.8,2.235-7.83,7.48,6.079,5.431,2.429-0.477,8.791,2.637,5.207,17.581,0.8,0.529,5.774,2.5,1.6,2.25-1.952,9.074,7.45-2.637,2.734,0.522,2.995-7.822,9.163,1.475,2.637-10.854,3.911,7.144,4.716-2.548,5.386L701.649,631.2l-2.213,1.8,1.512,2.443,12.15,17.1-10.31-5.527-11.74-.075-11.785,2.227L678,651.9l2.19,5.193-5.49-1.743-7.114,4.4-3.635,9.066-3.956,8.537,0.685,2.637,7.852,1.982,0.745,4.932-0.924,7.233,4.082,9.953,23.355,14.139,5.073-3.174,16.5,13.662,11.964,1.788,13.543,6.273,3.583-3.375,5.49,6.094,10.243,3.494,6.7,3.248,1.5-2.033,8.15-15.614,16.315,12.731,18.289,8.775-0.812,5.788,2.451,5.193,6.809,1.482,7.166,2.287,14.586-7.8,13.931,2.354-9.163,11.935,8.463,11.636,18.945,6.689,11.9-19.8,10.668,5.573,5.714,6.749-5.14,2.883-8.306-1.1-1.423,5.744,12.649,12.136-8.589.246-5.028,13.1L876.8,817.2l2.369,1.088-9.722,5.557-2.928,4.887L881.8,839.875l1.609,2.033-4.335,2.854,1.088,2.369-2.593-.812-0.707,5.386-1.028,5.282-6.384,4.6-2.056,4.6,1.363,1.773,4.783,7.129-3.68,7.606-11.7-1.862-6.571,5.736,4.857,14.154-1.706,5.774,3.881,3.844-1.378,2.719-4.76,2.063-1.08,6.929-8.314,3.039L834.208,918l1.453-5.587-3.337-7.9-10.534,1.251-1.654,3.785-10.765-12.367-1.14-5.111-5.125-1.937-0.09-2.779-7.941-1.3-1.572,2.213L783,884.131l-3.218-.521-5.774-.745-4.432-3.8-1.929,2.182-2.741-1.006-8.016,4-15.108-6.183-4.172,3.881-3.985,10.764-0.224.395-23.362-14.9-11.651-.306,3.181,8.194-1.326,2.66-3.151,5.081-1.7,2.429,2.756,5.252-4.656,7.219-8.075,8.351-10.258-5.833-7.815,12.545-1.862,2.95L664.6,928.4l-3.181,5.982L649.8,951.848l-0.38,2.429L637.733,964.81l-7.606,4.366-20.643-2.868-3.069,4.179-4.5-2.413-12.679-6.563-5.431,1.192-15.22-8.686-4.678,2.324-1.7-.395-14.124-5.021-5.528.134-5.222,6.273-2.644.455L526,951.6l-4.328.089-7.5-3.554L503.938,944.5l-1.274,11.16-15.346-.134-14.512-5.386-1.385-2.779,3.188-12.195-12.739-3.419-9.29,5.051-11.227,1.251-3.993,3.8-5.393.976-3.762-27.966-8.411,6.668-7.047-3.785-1.4-14.914-17.455,5.193-17.149,8.612L368.869,921l-5.282-1.848-10.772,1.788-5.237-6.228-10.154,3.27-3.814-8.075,2.578,1.148-3.971-20.62-10.675,3.36-5.446-5.438-2.473-8.656-6.265-6.429,2.257-9.207-0.41-.827,18.117-7.3-6.757-12.776-0.06-.745-4.537-6.675-2.287,1.542-5.081-1.862-3.65-7.129-2.19-14.474,1.706-2.108-1.587-5.163-9.64-16.031-12.88,6.213-6.265-6.213-0.9-5.744-8.128,3.956-8.94.567-8.716-15.845-6.206-6.675-9.036,1.02-4.008-12.612-7.04-6.548-3.114-24.04-5.334-11.1-11.718.7-0.231-2.4-2.667,1.065-3.844-4.164-7.561,3.956-11.472.261-0.864,11.711-13.878,2.943,0.462,6.138-16.106-2.637-4.239,3.665-6.027.075-7.949-3.785-4.328,3.508-2.7-.186-9.156-13.253L92.371,732.311l-3.546-8.075L77.3,727.379l-6.392,5.774-2.488-1.706-4.209-10.213-2.86-.045,4.306-16.836-17.2-.075-4.529-6.735-0.38-16.911L53.134,686l2.287-1.572,0.991-8.061,1.661-4.567,8.18-1.557,1.907-7.889,2.243-6.385-8.984-1.482-1.758-2.5,1.378-5.982,8.44-8.805-3.9-14.5,15.927-8.441,17.79-15.89L97.7,589.8,83.64,586.7l3.129-4.686,2.995-.567,0.894-2.943-5.006-11.174,0.537-8.962-4.626-3.911,2.205-8.336L78.507,536.4l6.95-4.261,2.131,2.854,11.338,0.075-1.035-17.492L102,513.557l-2.265-5.527-9.8-15.51,2.965-2.383,5.431-6.943,4.246,2.533,2.019-1.311,11.361,16.21,5.632,2.123,14.906,12.836,5.282,1.877,0.715,0.089,7.383,9.036,13.372,4.976,3.755,4.03,10.981-.075,2.548,4.976,2.563-8.4,8.194-.7,2.175-1.982,0.194-8.745,7.762-3.71,0.909-2.674,19.064-12.239-0.529-5.3,16.292,6.257,2.436-8.12,8.47,3.039,18.289,11.308,13.9,16.031,2.957,0.8,10.265-6.7,2.779,1.311,1.721,8.873,1.542,5.676-4.269,7.6-0.067,5.877,3.1,7.874,7.04,4.812-3.606,3.68,2.086,7.055-16.732,6.026-8.559-2.369Z" transform="translate(-42.507 -296.483)" fill="#ff8080" stroke="#000" stroke-width="2"/><path d="M220.74,496.8l16.3,6.257,2.428-8.12,8.47,3.039,18.289,11.308,13.9,16.031,2.957,0.812,10.265-6.7,2.779,1.3,1.721,8.873,1.542,5.676-4.269,7.606-0.067,5.877,3.1,7.86,7.04,4.812-3.606,3.695,2.086,7.039-16.732,6.026-8.559-2.354-0.864,7.263,4.187,2.824,9.133,11.07,10.809,3.144,11.264-2.674,6.638,5.982,2.875-.827,3.211,4.671,5.669,1.892,7.956,8.276L350.43,621.2l1.49,8.873,2.369,1.832,2.957,5.111,12.2,7.874,0.022,8.873-0.492,11.018,3.971,7.189-1.132,5.513,5.289,5.758,0.976,8.686,12.858,15.235,4.008-1.572,5.543-10.43-1.2-11.636,3.583,0.306,7.345,3.844,2.637,7.86,5.215-1.356,9.468,6.332-2.354,8.7,5.386,2.533,23.325-1.676,1.4,7.33,4.127-6.608,13.431-4.06L474.534,701l-1.222-20.241L458.779,683.5l-0.924-21.284-3.7-11.539,8.709,2.413,11.487-1.207,7.584,4.976,11.9,0.946,2.481,8.135L492.7,670.75l7.293,3.538,7.531-4.336,2.28-5.267,8.582,0.871,4.962,14.258,7.963,4.35,6.853-13.529,14.564-4.455-0.812-8.873,1.155-2.593,5.431,1.818-0.417-2.913-2.7-8.075L542.05,634.983l0.968-5.6,4.269-4.03,24.845-.686,2.7,1.05,1.3,5.386,4.909,0.06,3.747-3.188-0.425-2.883-5.066-2.824,0.775-5.744-7.755-8.075,13.253-9.722,4.187-10.2,7.412,3.956,15.54-6.385-3.635-8.4,4.03-12.486,19.421,1.617-0.8,10.072,4.932,6.735,12.4-2.95,3.8,1.006,3.307-7.464,11.1,2.883,5.11-2.324L678.295,569l2.235-7.83,7.48,6.079,5.431,2.429-0.477,8.791,2.637,5.207,17.581,0.782,0.529,5.788,2.5,1.6,2.25-1.952,9.074,7.45-2.637,2.734,0.522,2.98-7.822,9.178,1.475,2.637-10.854,3.911,7.144,4.716-2.548,5.386-11.159,2.324-2.213,1.8,1.512,2.443,12.15,17.1-10.31-5.527-11.74-.075-11.785,2.227L678,651.918l2.19,5.193-5.49-1.743-7.114,4.4-3.635,9.051-3.956,8.552L660.678,680l7.852,1.982,0.745,4.932-0.924,7.233,4.082,9.953,23.355,14.139,5.073-3.174,16.5,13.662,11.964,1.788,13.543,6.273,3.583-3.375,5.49,6.094L762.186,743l6.7,3.248,1.5-2.033,8.15-15.614,16.315,12.731,18.289,8.775-0.812,5.788,2.451,5.177,6.809,1.5,7.166,2.287,14.586-7.8,13.931,2.354-9.163,11.935,8.463,11.636,18.945,6.689,11.9-19.8,5.736,1.482,9.669-6.183,5.885-.06,4.6,3.479,3.568,8.091,5.431-3.263,7.963-7.51-3.866-9.767,8.277,1.967,19.742-2.049,4.746-13.208-1.713-2.273,7.874,3.3,8.321-1.6,7.956,2.98,0.6-23.34-7.509-8.53-4.783-7.405-6.012,6.3-8.083,1.5-10.161-14.117,2.607-12.486-5.193-5.454-5.021-.73-4.529,2.98-5.416-.462,0.372,2.66L912.5,679.645l0.224-5.468,6.853-8.857-5.021-3.345-11.8,2.339-7.792-8.262-2.853.261-0.76-2.623-4.947-1.907,1.468-2.3,0.559-5.587,4.231-3.68,0.633-5.557,3.665-4.075-6.071-3.97-9.737-6.488-8.463,1.527-1.922-2.243-2.458-5.438,1.87-2.339-7.249-5.111-16.5-14.124,3.963-.06-11.122-13.5-5.431-.231,2.428-1.587-6.839-9.156-3.248-13.648-7.539-3.941-11.636.8-3.948,4.47-8.485,1.37-4.284-3.71,5.5-19.406,5.572-6.958,6.578-11.8-18.952-6.913,0.1-8.224,10.966,0.67-5.431-10.943L783.177,479.7l-2.012-11.935,1.773-4.9,9.468-4.79,2.548-1.818-9.774-4.686-0.656-4.716-8.18-2.824-6.712-9.111-5.446,1.907-2.488-1.482-1.766,4.857-5.706,1.036-12.91-7.9-6.742-6.429-24.882,8.932-5.99-14.535-0.276-5.833,14.989-8.455,0.857-2.794,4.485-7.085-0.454-3.01,5.952-6.764,2.324,0.365,2.384-3.814,0.44-.76,11.309-13.6-1.088-6.079-4.887-4.1,3.2-4.9-5.028-7.2,3.375-4.291,5.431-1.02,7.33,3.986,5.863-8.932,5.431-.38,4.3-3.345L762.6,330.2l-1.832-4.827-8.843.611-9.26-7.583-5.416,2.913-10.221,7.33-21.1,12.612-4.746-10.213,1.356-8.716-3.39-4.611-1.877-8.075-5.386.29-15.667,6.689L670.376,316l-8.47,11.614-7.465,2.533L652.429,341.5l-10.78,4.187-5.125-7.375-1.415-8.761-13.022-5.8-3.635-10.854L601.616,301.32l1.207-2.7-5.424-1.088-4.79,2.273-5.424,1.542-6.064,12.627-5.215,2.093L563.041,320.7l-17-8.612L541.7,322.731l-1.974-5.148-10.087-1.922L527.2,320.3l-13.983-1.713-5.744,8.514-0.231,1.177-4.977,13.767-14.892.41-7.107,5.5-6.124.611-2.637,1.646L464.2,360.12,458.165,360l-10.012-6.2-20.427,6.689-5.863-1.907,1.616,11.2-7.934,2.868-1.579,2.413-13.022-5.937-5.624-.075-2.935-5.282-11.592-.171L369.619,359.1l-0.141-11.45-4.306,2.339-4.589-1.237-2.525-1.452-8.217,7.539-5.252.477-2.324-1.162-5.6,10.839-9.446,7.39-0.462,12.21-2.7,5.356-5.7,1.006-8.508-2.965,1.505-15.018-8.962-7.293,0.357,2.95L290.071,380.24l-19.846,1.982-5.386,7.83-0.075,6.079-7.606,8.962,9.193,19.175,3.256,18.162-3.8,8.21-6.63,6.124-10.973-4.5-5.133,3.084L232.15,444.493l-23.012-14.9,16.374-13.938,0.082-9.178-4.157-4.44L199.148,381.7l-5.081,17.663-10.862,4.611-8.85,12.15-2.9,1.006L163.5,413.19l-3.866,4.761,1.944,10.377-4.47,3.055-14.459-14.258-6.161,6.332-8.619-2.607-5.453,6.838-5.528,2.012-6.95-5.706L95.049,442.5,89.3,445.045l-4.566,3.591L80.5,444.867l-2.764.917-3.077,8.194-4.723,3.188,5.125,6.079,5.453-1.221,5.028,2.764,3.933,3.419,5.163-.075,4.581,3.315,5.237,12.992,11.368,16.2,5.632,2.138,14.906,12.836,5.282,1.877,0.707,0.089,7.39,9.022,13.372,4.976,3.747,4.03,10.981-.06L180.4,540.5l2.563-8.381,8.187-.7,2.175-1.982,0.2-8.761,7.762-3.71,0.909-2.66,19.056-12.255Z" transform="translate(-42.507 -296.483)" fill="#ff8080" stroke="#000" stroke-width="2"/><text transform="translate(458.698 582.705)" font-size="163.882" font-family="DejaVu Sans" font-weight="700">1</text><text transform="translate(406.106 259.096)" font-size="163.882" font-family="DejaVu Sans" font-weight="700">2</text></svg>