<svg xmlns="http://www.w3.org/2000/svg" width="843.736" height="915.974" viewBox="0 0 843.736 915.974"><title>Députés sortants de l&amp;apos;Aveyron en 2017</title><path d="M460.23,481.511l-4.909,5.677-6.961-1.573-2.353,7.053,7.606,4.774,6.181,10.008-1.487,3.213-3.348,3.865-7.526,1.6,5.953,3.564-0.492,7.453-1.8,1.585-9.314-3.7-5.013.817-1.2,1.739,3.7,6.131-9.492,2.365-4.737-8.546,8.724-4.227-4.8-6.015-1.88-7.305-9.947,6.838-6.826-.363-1.438-1.941-4.19,2.163-1.345,4.381,4.221,2.028-1.186,7.305,3.7,6.433-8.294,11.1-1.683-1.825-4.663.111-0.7-4.933-3.459-3.588-9.781,1.131-6.709-3.275-7.618-11.894,6.131-7.127-6.1-10.02-7.754-2.7-0.4-2.507-9.2-3.49-1.641-7.225-5.05.289-7.754-5.9-4.639,2.052-8.73-8.89-3.8,4.884-3.146-3.158-2.138.627-0.639-7.262,4.172-16.846-9.185-3.1-5.935-10.862-4,2.943-1.647-2.175,24.723-9.609,5.394-7.919-2.163-6.193-11.636-4.1-5.437-5.161-4.921.793,4.313-6.181-0.682-5.013L291,385.7l-0.3-4.571,1.892-1.413,5.3,4.559,5.517-4.1,8.239,2.206,3.441-5.566-1.063-7.09,4.737-5.5,4-11.354,19.66,2.894,7.286-12.4,1.739-.123,28.778,3.963,2.378,0.645L382.59,350.3l2.322,0.43,7.151-5.818,7.01-1-9.762-12.515-4.036-5.013,0.9-2.015-3.047-3.649-1.032-7-5.149,4.466-4.227-2.1L369.1,306.88l3.674-9.339-3.576-6.783-6.015-4.811-2.144-7.354-8.423-1.008,2.052-6.7,4.841,1.45,1.8-1.874,2.525-4.485-0.178-7.754,5.91-14.364,9.6-7.5L380.735,232l7.575-5.149,10.358-7.551,0.27-2.316-3.834-2.4,1.419-2.077,1.106-5.652-0.295-13.443,3.655-2.667,1.99-12.54,4.909-5.124,6.623,0.78,7.078-7.115-0.9-19.955,6.752-7.237-3.742-9.191,7.244-7.286,5.769-14.2,12.515,1.837,1.659-1.941,1.247-9.873,12.146-15.876,3.969,2.642,8.835-2.445,5.437-16.029,4.067,1.081,1.511-4.657,5.339-4.933,0.3-.639,2,6.814,7.213-.123,10.549,16.594-2,7.09,3.312,9.228-3.742,6.623-1.321,10.02,1.511,4.872,4.97,0.454,4.006-6.218,8.257-5.652,4.307,2.445,20.041-1.093,1.837-1.739,2.482-.123-2.15,17.123,4.2,2.857-1.173,6.949,4.43,6.119,5.013,19.513,5.327,10.881,4.294,2.365,4.731-.252,6.937-6.525,7.09,10.07L596,186.258l-1.677,1.929-7.526-.3-1,2.353,0.909,2.4,6.77,3.422,2.163,4.583-1.044,7.5-4.227,6.433,3.969,11.471,1.739,12.349,3.766,6.611-1.081,7.09,7.2,6.42,1.118,4.884,3.865,3.17-0.405,2.494,4.368,4.559,5.966,2.629,16.681,17.713,2.593,6.949,6.334,7.582,3.361,3.815,7.834,4.645,3.914,5.554,8.651,6.647,0.215,2.23,3.588,6.734-4.479,19.814,0.682,10.125-3.815,12.275,16,16.293-6.359,13.7-2.341,1.008-8.448-5.425-10.107-1.3-13.1.706-4.381,2.329-2.519,4.227-6.875,1.008-1.7,9.566,5.161,5.278-6.949,8.183-10.223-5.738,0.1-9.517-3.914-2.427-3,8.976-5.714,4.141-3.2,6.371,10.149,6.119,5.1,10.862-8.5,12.693-17.025,3.25,2.218,4.633,12.122,3.25,2.7,9.769-7.09.129-5.542,13.762-6.887,1.2-5.554,4.811-9.959-10.309-7.286.682-15.249,3.348-0.645.492-12.226,2.113-13.824-5.45-2.064-.467-13.6.891-3.41,2.832-12,.037-3.287-2.845,4.633-5.738-0.049-4.97-7.305-10.358-8.822-5.161Z" transform="translate(-23.358 -55.236)" fill="#06c" stroke="#000" stroke-width="2"/><path d="M157.984,325.187L152.418,320l-2.494-.012-5.984,11.016-1.96,1.524-1.72-1.235,1.087-7.188-4.5-.528-10.149,7.379-0.264,4.989-3.158,3.717-0.424.178-4.8,1.788-7.643-1.032-10.426,7.1-2.439,4.571-4.074,6.205-7.225,9.9-5.081,1.272-4.884.879-5.554,8.1-4.884.516-3.994,1.106,4.989,8.018-2.279,4.1L60.2,390.988,56.8,379.7l-7.151-.866-1.868,4.245,0.418,9.381-4.018,1.524-8.294-2.365-10.875,5.738-0.577,2.494,4.178,6.267,2.138,4.559-0.485,17.534,11.685,9.633,0.067,0.338L40.742,440.4l1.77,10.082-2.82,7.053,2.894,4.227,8.89,8.988,2.574,7.09,6.205,4.393,1.358,4.884-2.568,4.294-7.465-.67-1.972,1.61-3,6.937,1.849,3.5-5.013.24-8.1,9.492,10.278,13.75-5.947,8.061,17.025,9.431L77,541.253l1.641,1.861,7.366-.154,6.85,2.832-3.367,8.589-1.143,16.2-6.783-.59-3.127-3.238-5.7,3.613L60.317,592.364l-7.157-.252-2.242,3.815,8.018,4.479-0.928,4.608,4.737,4.872-0.989,2.163,8.786-2.918,2.875,3.717,0.534,7.09,3.281,3.514,3.01-9.5,7.366-.909L94.6,614.98l3.189,3.625-3.367,3.7,1.106,4.8,11.133,4.749-3.594,6.383L110.18,637,124,632.33l-1.653-6.814,2.1-1.333,14.3-2.556L134.922,611l8.558-2.377,4.165,5.88,9.13-2.279,1.855,4.442,2.181,0.529,3.686-3.287-2.433-6.273,5.708-3.146,18.358-3.453,1.794,6.623,3.2,3.262-2.113,4.141,1.788,1.5,7.2-.946,4.62,1.646,0.639,4.921,4.712,5.867,4.6-1.321,3.029-3.877,9.517,2.6,7.182,6.107-16.189,9.566-6.844-1.677-5.646,4.718,0.608,2.39,2.409,0.479,1.825-1.714,17.19,0.8,6.556,3.158,12.742-7.551,12.042-.479,6.629,6.875L260,657.1l8.7,3.661,8.362-4.294,4.755,1.032,4.129,8.473,6.082,3.649,2.992,3.5,16.447,5.075,4.276-2.556,1.137-4.731-5.443-10.678,9.818,1.186,9.394,7.416,4.9-.639,3.619-3.7L344.2,653.77l-1.69-4.546,4.559-5.462-4.51-5.474,6.015-3.3,7.164-.35,4.325,2.015,0.5,2.353,5.327-11.458-6.347-8.03,3.471-5.351-2.974-4.1-1.3-7.594L356.3,595.7l-4.78.479-3.4,3.526-2-1.425,6.973-17.829,2.365-4.006,7.133-1.7,11.348-16.306-0.952-4.718-5.2-5.388,0.461-9.873-0.946-7.115-2.894-3.963,2.758-3.7,6.131-7.127-6.1-10.02-7.754-2.709-0.4-2.507-9.191-3.49L348.21,490.6l-5.05.289-7.754-5.9-4.639,2.052-8.73-8.89-3.8,4.884-3.139-3.146-2.144.627-0.639-7.274,4.172-16.834L307.3,453.3l-5.935-10.85-4,2.931-1.647-2.175,24.729-9.6,5.394-7.919-2.169-6.193-11.636-4.116-5.431-5.149-4.927.78L306,404.841l-0.676-5.013L291,385.728l-0.307-4.583,1.892-1.407,5.3,4.559,5.511-4.116,8.239,2.206,3.441-5.566-1.057-7.078,4.737-5.5,4-11.354,19.66,2.881,7.286-12.386,1.739-.129,28.778,3.963,2.378,0.645v2.47l2.322,0.418,7.145-5.806,7.01-1-9.762-12.527-4.036-5.013,0.9-2.015-3.047-3.649-1.032-6.986-5.155,4.466-4.227-2.113-3.619-9.2,3.674-9.345-3.576-6.783-6.015-4.8-2.144-7.354-8.423-1.008-9.357-3.8-7.551,6.119-16.128-5.462-3.981.731-2.329.909-6.162-3.477-8.134,5.75-7.477.454-8.319-5.591L284,265.96l-2.3-4.282-4.227-3.348-8.423,4.227-11.366-2.218-6.15,3.84-2.3.454-2.525-.178-7.667,6.42-12.22-1.474-9.775,7.526,3.109,12.085,3.238,3.938-6.838,4.762,1.567,4.694-1.616,4.633-4.835-.111,0.135,7.188-2.765,4.141-3.8-2.341-8.35-.516-0.129.074-8.871,14.469-9.523.891-3.852-5.769-2.433.037-3.139,3.742-6.408,1.186Z" transform="translate(-23.358 -55.236)" fill="#ff8080" stroke="#000" stroke-width="2"/><path d="M480.977,933.813l-9.621-.866-7.139-.264-11.391-9.289-1.665-4.6-14.377-12.669L434.2,899.2l-5.517-5.185-2.39-7.1-5.308-4.958,0.4-2.482L419.5,878.23l-2.949.375-14.979-20.041,1.351-3.625-0.4-8.865,0.283-2.267,8.27-7.127-1.929-4.03-12.669-7.114-0.522-7.25,0.946-4.5,0.528-9.645-3.526-3.434-4.9-.878-0.252-4.933-15-8.307-4.921.129,2.482-7.078,6.451-2.427,2.439-3.576,1.155-7.33,0.086-5.026-11.2-4.706-3.557-6.445-1.677-5.806,1.9-5.591-5.486-9.781-7.809-4.092-3.287-3.226-1.438-11.3-26.467-4.018,0.381-9.768L316.95,685.83l-5.486-5.149v-2.519l4.282-2.543,1.137-4.737-5.45-10.665,9.824,1.174,9.394,7.416,4.9-.639,3.619-3.686,5.026-10.74-1.683-4.534,4.559-5.474-4.51-5.462,6.015-3.3,7.164-.35,4.331,2.015,0.5,2.353,5.327-11.458-6.347-8.03,3.471-5.364-2.974-4.092-1.3-7.606-2.439-6.758-4.78.479-3.4,3.514-2-1.413,6.973-17.829,2.365-4.018,7.133-1.7,11.348-16.293L373,553.7l-5.2-5.388,0.461-9.873-0.946-7.115-2.894-3.963,2.758-3.711,7.618,11.894,6.709,3.275,9.781-1.131,3.459,3.588,0.7,4.933,4.663-.111,1.683,1.825,8.294-11.1-3.7-6.433,1.186-7.305-4.221-2.028,1.345-4.381,4.19-2.163,1.438,1.941,6.826,0.363,9.947-6.838,1.886,7.305,4.792,6.015-8.724,4.227,4.737,8.546,9.492-2.365-3.7-6.131,1.2-1.739,5.013-.817,9.314,3.7,1.8-1.585,0.492-7.453-5.953-3.564,7.526-1.6,3.348-3.865,1.487-3.213-6.181-10.008-7.606-4.774,2.353-7.053,6.961,1.573,4.909-5.677,15.218-8.134,8.822,5.161,7.3,10.358,0.049,4.97-4.62,5.75,3.275,2.832,12-.037,3.41-2.832,13.609-.891,2.052,0.467,13.824,5.45,12.226-2.113,0.657-.492,15.237-3.348,7.286-.682,9.971,10.309,5.554-4.8,6.887-1.21,5.542-13.762,7.078-.123-2.7-9.781-12.11-3.25-2.23-4.62,17.037-3.262,8.485-12.693-5.087-10.862-10.149-6.119,3.2-6.371,5.7-4.141,3.01-8.976,3.9,2.427-0.1,9.517,10.223,5.738,6.961-8.183-5.161-5.278,1.7-9.566,6.863-1.008,2.519-4.227,4.381-2.329,13.117-.706,10.094,1.3,8.46,5.425,2.341-1.008,6.347-13.7,9.277,4.86,3.951,9.142,5.542,4.227,0.454,7.4-0.67,2.47,3.7,3.5-0.577,7.631-5.794,4.718-1.677,4.669,5.5,4.165-0.1,12.165-9.05,3.865L694.891,470l-0.467,7.453-1.186,4.9,6.144,4.479-1.413,9.492,4.129,9.013,7.188,1.395-2.531,9.345,4.27,5.769L695.9,539.2l-1.8,15.3,3.938,2.556,4.657-2.206,4.1-8.8,4.227,2.175,3.275,19.513,7.25,0.743,7.01-2.654,4.1,6.015,18.2,7.526-5.917,18.825-3.6,6.131-4.215,1.886-0.59,2.341,12.11-.227,6.77-.049,13.019-7,12.251,0.338,2.04-4.466,4.958-.381,9.025,4.442,7.164-2.292,14.806,1.474-1.081,4.9,7.09,10.162,0.9,7.3-19.31,9.2-3.373,11.63-5.149,4.51,1.677,6.519,0.129,13.154-6.912,2.722-10.008.141-14.7,9.037,6.033,3.711,11,13.092,4.982,0.2,9.191-7.766,1.26,1.659,1.788-1.057,2.175,3.686,2.4,11.231,5.339,4.429,2.015,1.573,8.319-5.782,2.722,4.1,7.2-1.738,6.887,7.379,9.468,3.6,13.989,10.991,2.593,1.045,0.645,0.541-3.889,14.665-13.068,7.3-6.746,16.416-14.677,2.015-0.866,7.428-8.736,4.706-3.951,9.117,3.539,17.246-8.663,7.453,0.405,6.789-12.478,2.206-12.275-2.783-4.872,1.2-4.368-2.494-5.763.491-2,3.686-2.028,7.428-8.651,4.9-3.324,6.875,0.565,7.551,7.557,10.149-1.2,7.582-6.672,1.726-7.078,6.814-9.087,3.478-11.974.1-11.845-3.25-4.294,1.837-0.393.731L697.12,879.3l-9.179-8.061L676.532,866.5l-12.2-.35-3.287,9.025,2,9.339-7.25,6.3,3.7,6.383,0.731,7.151,9.013,10.979-4.6,8.589-4.811.553-1.659,7.33,2.113,4.522-1.812,4.669,2,4.571-1.309,7.114,7.379,6.55L663,962.433l-0.879,6.937-6.506-3.01-8.841,3.262-6.586-2.568-2.783-3.926-9.062-3.661-7.274-1.106-4.233,2.445-8.4,3.6-7.956,5.615-2.507.154L596.735,968l-5.1-7.846L588.2,940.69l1.272-2.15-9.9-4.946-16.8,2.242-6.205-7.213-0.141-.061-11.759-1.37-6.23-7.3-4.872-.277-13.246,6.525-3.994,11.28-17.049,3.226-4.331,2.543Z" transform="translate(-23.358 -55.236)" fill="#06c" stroke="#000" stroke-width="2"/><text transform="translate(433.662 304.039)" font-size="135.157" font-family="DejaVu Sans" font-weight="700">1</text><text transform="translate(126.324 438.937)" font-size="135.157" font-family="DejaVu Sans" font-weight="700">2</text><text transform="translate(518.652 701.824)" font-size="135.157" font-family="DejaVu Sans" font-weight="700">3</text></svg>