<svg xmlns="http://www.w3.org/2000/svg" width="916.054" height="741.289" viewBox="0 0 916.054 741.289"><title>Députés sortants du Tarn en 2017</title><path d="M672.612,284.155l6.154-.161,18.762,10.388,0.315,6.169,6.116,1.1,4.41,4.294-0.661,12.062-1.183,5.624,0.653,9.066,15.842,8.9,2.413,5.04L715.1,355.545l-0.361,2.835,0.5,11.086L713.549,374l18.731,25.062,3.688-.469,2.359,1.56-0.492,3.1,6.63,6.2,2.989,8.882,6.9,6.484,3.227,8.658,17.978,15.842,2.082,5.747,14.244,11.616,8.928,0.33,12.031,1.083,17.441,11.748,5.417-3.2,21.335-4.018,4.979-14.106,16.565-8.159,6.108,0.346,7.775,9.127,14.705,1.7,0.177,0.092,7.775,9.019,20.99-2.8,12.377,6.185-1.575,2.689,4.279,24.339,6.377,9.811-10.157,6.254-1.183,24.147-6.915,5.939L924.1,544.767l-2.943,1.137-4.31,8.451-18.354,1.783-10.818,6.392-8.928-1.7-8.6,8.8-4.2,4.41-8.836-1.068-9.2,7.476-8.49,3.073L834.34,580l-5.432-10.956-10.28-11.24L795.534,550.3l-1.713-2.582-8.344,3.5-11.947-.077-2.5-8.505-2.8-1.114-7.191,31.124-5.4,14.9-6.085,7.414-0.607,3.134,3.626,5.055,3.042-.223,2.774,8.735-9.012,15.819,9.673,15.412,29.111,31.362-11.209-3.1-5.97-1.744-16.027,9.573-9.235,1.275-1.79,2.6,5.693,17.54-0.707,9.4-2.681,1.668-1.936,1.545-3.8-2.535-3.288-21.819,2.674-12.309-2.105-2.4-33.913-7.43-7.391-5.9-8.612-12.408-9.058-.238-16.226-4.848,3.6-10.626-5.778-9.619-10.234-5.87-7.683,4.664,2.735,5.148-2.581,1.728-8.5-3.618-12.1,1.728-2.443-1.89-7.452-13.414,4.664-7.952,5.755-2.3-3.165-8.159,1.936-2.344-6.123-19.7-8.49-3.165-26.061,10.426-9.258.945-7.091,12.47-0.484,4.549-3.081,13.7-5.47-1.444-11.993,5.086-11.686-9.1-9.558,11.524,8.82,8.159,4.318,11.3-14.69-4.333-7.983,3.734-7.852-4.641,0.331-6.3-20.882-12.324L491.668,602l5.147,5.255L506,595.457l1.337-14.014,10.3,1.728-3.588-10.833,4.495-4.395,8.083-1.7-0.407-9.381-1.283-8.851-25.116-15.2-2.989,5.209-5.908-1.452-3.78-9.427,4.425-3.389-4.641-6.884-7.614-1.168,3.3-16.311,2.389-1.452,13.845-9.811-2.459-1.967-5.132-18.216-1.129-21.835-1.667-3.511-8.774,1.037-5.562,7.337L462.865,446.8,451.7,441.59l-2.159-5.624-4.525-3.334-8.351.015-4.94-.453-6.069-.154-7.767,4.318-9.358-11.717-7.806-4.679-1.467,1.759-6.707-8.689,1.137-5.355-2.182-1.744-1.245-4.626-9.6-18.754,5.593-1.668,5.263-10.472,5.071-2.029,0.054-8.6L387.3,358l0.161-2.881-6.538-5.339,0.9-21.651,0.161-2.758,5.785-10.971,17.133-5.539,29.864-2.458,6.669-9.589,9.765-6.254,2.551-8.075-4.218-3.719,1.337-3.719,3.457-.346,8.105,14.344,5.616-2.013,6.169-8.751,15.2-1.591,11.256,4.626,7.038,10.518,7.583,5.4,8.382-3.618,4.264-8.22,2.351-1.545,1.022,8.551,2.666,0.96,5.463-6.738,5.762-1.122-3.081,7.1,0.407,2.689,2.7,0.269,5.693-.9,11.747,0.315,8.712-8.136,2.9-14.9,7.921-9.019-6.016-6.9-6.023-.361-18.324-10.042,8.536-3.4,3.48-8.42-1.122-6.138-9.4-12.531,1.122-2.943,9.127,1.983,8.774,8.106,1.129-15.082-15.589-4.864,4.441-14.252,7.829,3.211,2.113-2.113-1.752-5.539-6.131-5.293,5.7-15.19,4.9-5.025,5.34-16.042,20.56,6.347v3.15l6.861,6.438,7.322,13.4L614.6,183.643l33.091,5.009,1.805,14.152,4.11,4.018,9.765,5.117,6.868,12.247-2.382,6.976,2.105,7.276,4.448,8.059,14,5.885-0.107,6.285-1.444,9.166-3.05,4.472-8.067,3.019Z" transform="translate(-42.212 -51.331)" fill="aqua" stroke="#000"/><path d="M380.928,349.759l0.9-21.651,0.161-2.758,5.785-10.971,17.125-5.555,29.871-2.443,6.661-9.589,9.765-6.254,2.551-8.075-4.218-3.719,1.337-3.719,3.457-.361,8.1,14.36,5.624-2.013,6.169-8.751,15.189-1.591,11.256,4.61,7.038,10.533,7.583,5.4,8.382-3.618,4.272-8.22,2.343-1.56,1.022,8.566,2.666,0.96,5.47-6.738,5.762-1.122-3.081,7.1,0.4,2.689,2.7,0.269,5.685-.9,11.747,0.315,8.712-8.152,2.9-14.89,7.921-9.019-6.016-6.9-6.023-.376-18.324-10.027,8.543-3.4,3.48-8.42-1.129-6.138L553.326,215.1l1.122-2.943,9.127,1.967,8.766,8.121,1.137-15.082-15.6-4.879,4.441-14.244,7.829,3.211,2.113-2.113L570.52,183.6l-6.131-5.309,5.693-15.174,4.909-5.04,5.332-16.027-3.742-4.379-7.606-4.564-5.163-10.6-5.947-1.291-10.457,5.37-10.879-4.579,4.525-11.209-8.29-8.6-15.059.6-15.934,9.442-8.2-3.949-21.5-1.006-2.282,2.144-3.012-.6-0.761-2.989,7.061-5.9,8.559,2.1,20.245-11.962-8.981-7.637-11.9-3.257-3.788,4.848-5.747,1.652-5.893-7.337-0.8-6.154L459,70.139l-9,1.184-2.236-1.875L450.4,64.27l-4-4.08-2.243-8.282L421.2,56.226l-7.138,3.933L417.106,68l-4.61,4.111-2.735-.661L407.448,65.9l-11.417,2.85L390.822,61.4l-10.7,2.973,4.786,13.284-17.886,3.2-2.627,1.668,2.067,8.52L349.18,96.876l-8.9,1.545-4.441-2.612-9.627,6.9-8.6-3.665-9.173.807-5.693-7.192L293.863,86l-6.054-.453L278.1,92.458,293.44,106.71l-2.635,3.734-7.26,4.94-7.652-9.589-5.739,2.52-11.624-4.456-9.55,7.529-2.72-.584-3.365-7.606-2.766.253-4.371,10.787,6.822,16.249-2.021,9.919-7.9-4.294-12.616-16.818-3.6,8.059-8.482,7.936,3.887,7.806-10.142,3.211-20.529-16.3-8.559,2.267-7.391-5.639,0.038,3-12.423-1.006-8.836,3.119-12.108-3.042-5.916,1.829-2.136-2.313-3.841,7.4,0.184,10.987,10.418,7.214-3.358,15.381,1.882,6.046,8.851,0.315,8.566,4.065,6.968,14.3-9.45,19.177-11.01,5.324-2.389,5.7-3.058-.361-8.72.192,4.18,11.348-2.128,5.271-5.939,1.006-5.294-2.535-6.43,10.265-5.624,9.573,2.674,11-21.812.269L63.573,265.71l-9.227,2.075-2.558,5.608-8.559-2.551,2.8,5.163-0.538,6,17.771,2.958,7.552,4.787-2.4,5.747-0.215,11.509-2.551,1.483-9.135-.161-5.286,16.864,2.09,8.913,5.662,7.176-1.967,5.6,4.963,3.526-5.678.945-0.154,2.128L67.575,371.3l12.178,4.725,1.26,0.407-2.989,23.5,24.109,13.922,12.6,1.4,2.451,5.624-4.226,11.148,0.63,3.019,5.539,2.282L125.589,431l5.739-1.245,8.3-1.006,0.331,6.362,2.835,1.429,6.316,0.315,8.175,4.641,12.585,0.046,3.887-.077-0.084-6.231L179.7,424.31l8.789-1.321,4.641,4.157,3.1-.33,4.725-14.659,5.294-2.866,38.476,26.322,5.624,7.621,1.283,9.366-7.368,2.612,1.06,5.194,5.593,2.628,12.623,17.179,1.214,9.258,23.641-.453,4.84,3.419,4.441-7.729,1.7-1.114,4-4.61,12.216-3.434,5.417,1.245L323.828,488l3.811,8.313,12.469-2.374,7.038,10.157,24.739,11.84,1.344-2.689,5.924-.883-0.922-11.678-15.8-11.371,5.716-.63,5.924-6.123-1.214-8.705,2.474-5.209,4.479-20.514,5.363-1.529,3.434-4.91-6.63-5.524,1.928-5.924,14.467-5.7,0.922-3-6.707-8.689,1.129-5.355-2.174-1.744-1.245-4.641-9.6-18.739,5.585-1.683,5.263-10.456,5.071-2.029,0.061-8.6-9.358-1.783,0.161-2.881Z" transform="translate(-42.212 -51.331)" fill="#ff8080" stroke="#000"/><path d="M220.084,614.868L215.206,612l-3.642-.929-13.4-7.906-0.768-6.2-4.886-3.933-1.129,1.606-11.217-1.5-0.192-.807-2.6-1.444-9.442-4.963-2.121-4.756-8.06-3.826-8.205.645-6.769-9.411,2.551-8.328,7.253-9.712,14.052-5.493,2.958-.722,1.091-5.924-6.6-9.934,0.207-11.932-37.309-5.163,0.576-8.628-2.236-1.844,11.578,3.811,9.227-7.76,6.123-.284,2.72-5.309-8.766-12.17-2.766,1.114-6.093-6.585-12.877-5.808-1.652-5.355-4.648-3.15,3.7-13.837-2.758-8.121,6.461-6.316,5.731-1.26,8.3-1.006,0.331,6.362,2.843,1.429,6.316,0.315,8.175,4.648,12.585,0.031,3.887-.062-0.084-6.231,6.031-10.94,8.789-1.321,4.641,4.172,3.1-.33,4.725-14.675,5.294-2.866,38.476,26.322,5.624,7.637L251.6,452.7l-7.368,2.628,1.06,5.194,5.593,2.628,12.623,17.179,1.214,9.243,23.641-.438,4.833,3.4,4.448-7.714,1.7-1.114,4-4.61,12.216-3.449,5.417,1.26,2.82,11.194,3.811,8.313,12.469-2.374,7.038,10.172,24.739,11.824,1.344-2.674,5.924-.883L378.2,500.8l-15.8-11.363,5.716-.63,5.924-6.138-1.214-8.689,2.474-5.225,4.479-20.514,5.363-1.514,3.434-4.925-6.63-5.509,1.928-5.924,14.467-5.716,0.922-3,1.46-1.759,7.814,4.679,9.358,11.732,7.76-4.333,6.069,0.161,4.94,0.438,8.359-.015,4.525,3.334,2.151,5.624,11.163,5.209,11.263,4.172,5.57-7.337,8.766-1.037,1.667,3.511,1.129,21.835,5.132,18.216,2.466,1.967L485,497.856l-2.389,1.452-3.3,16.311,7.606,1.168,4.641,6.884-4.425,3.389,3.78,9.427,5.908,1.452,3-5.209,25.108,15.2,1.283,8.851,0.407,9.381-8.083,1.713-4.495,4.379,3.588,10.833-10.3-1.728-1.337,14.03-9.181,11.778-5.147-5.255-7.576,9.481,20.89,12.324-0.331,6.3,7.844,4.641,7.983-3.734,14.69,4.333-4.318-11.3-8.82-8.159,9.558-11.509,11.686,9.081,12-5.086,5.47,1.452,3.073-13.714,0.484-4.549L571.388,579l9.258-.929,26.061-10.441,8.49,3.165,6.123,19.7-1.936,2.344L622.549,601l-5.755,2.3-4.664,7.952,7.46,13.414,2.436,1.89,12.1-1.713,8.505,3.6,2.581-1.728-2.743-5.148,7.683-4.664,10.234,5.87,5.778,9.619-3.6,10.626,16.234,4.848,9.058,0.238,8.612,12.408,7.391,5.9,33.913,7.43,2.1,2.4L737.2,688.546l3.288,21.819,3.8,2.551,1.936-1.56L748.9,709.7l0.715-9.411-5.7-17.54,1.79-2.6,9.235-1.275,16.027-9.573,5.97,1.744,0.9,12.109-3.319,8.359,1.514,11.932,6.876,9.8-2.2,5.539-14.167-4.333-2.266,1.952,3.335,7.76-17.571,17.448-5.762-1.7-1.614,7.575-2.727.584-2.727-1.23-12.231,8.467-8.8.3-0.161.046-2.658,1.759-8.782-3.319-18.977.838-4.226-4.441-8.8-2.2-3.042-5.255L656,743.428l-2.712,1.052-12.039,2.8-15.358-2.044-12.953,8.344-1.913,2.489,1.321,2.866-5.294,1.983-15.389-5.339-5.124-.161-12.362-8.628-22.6-7.23-6.3-6.392-2.889,1.006L530.838,739.2,520,728.685l-4.641-6.469-1.053,5.824L504.277,737.9l-1.3,2.628-11.01,10.326,0.553,9.442,3.91,8.551-9.358,23.049-18.416-10.971-10.71-18.877-9.173.838L436.99,772.939l-3.1.138-4.256,3.933-8.643.423L419.2,779.7l-1.475,1.56-8.928-1.56-2.243,2.082L402.64,778l-8.428,2.144-3.6-8.159,1.744-2.428-5.593-6.876-5.44-13.637-15.627-5.924-4.41-8.236-4.879-3.1,2.889-18.485,3.757-4.894,9.2-1.875,5.947-7.337-2.958-4.172,2.82-7.13-3.642-11.371-2.351,8.174-2.589,1.529-6.561-5.916-5.624-2.159-2.52,1.668L356.5,697.9l-1.637,2.628-1.8,2.551-14.7,2.159-6.546-6.631-13.876-6.915-2.328,3.257-20.86-13.222-2.282,3.3L274.4,671.778,273.3,671.1l-9.081-14.644-0.476-2.958,4.779-3.449-10.564-4.279-8.836-3.719-0.807-16.534-6.73-9.32-11.417-3Z" transform="translate(-42.212 -51.331)" fill="#ff8080" stroke="#000"/><text transform="translate(527.14 428.964)" font-size="169.016" font-family="DejaVu Sans" font-weight="700">1</text><text transform="translate(160.06 254.573)" font-size="169.016" font-family="DejaVu Sans" font-weight="700">2</text><text transform="translate(321.152 601.142)" font-size="169.016" font-family="DejaVu Sans" font-weight="700">3</text></svg>