<svg xmlns="http://www.w3.org/2000/svg" width="933.058" height="818.974" viewBox="0 0 933.058 818.974"><title>Députés sortants du Gard en 2017</title><path d="M718.283,699.261l-10.63-28.894-0.138-5.713L708.822,656l-3.133-.512-8.521-7.013-2.241-8.105-7.552-7.607-7.552.353-3.569,7.254-9.067,2.808-2.11,2.511-4.053,1.335-3.257,5.36,0.664,3.133,16.937,14.129-16.6,14.06,1.867,3.243-10.56,6.66-15.7-24.108,9.336-6.307-3.727-6.487,6.674-2.691,2.691,5.74,3.313-6.563-4.931-11.9-7.455-5.644-3.486-5.228-15.236-18.6-9.468-6.266-3.811-10.74-8.2-.422L592,602.211l-4.392,1.632-0.2,5.332L581.112,620.6l0.823,13.279,22.02,4.053,6.971,4.565-0.636,5.471L617.5,666.08l-9.088.767-5.865,4.931,0.989,9.952,20.028,25.879,3.769-3.514,2.31,1.363,12.939,16.951,0.609-6.833,13.735,3.133,10.858,8.728,5.388,0.325,5.837-5.568,3.105-7.656-2.676-10.685,7.324-2.393,14.1,22.919,3.05,18.59,3.984,6.957,6.535,4.634,12.87,8.2,8.161-2.607,14.343-.408,7.7-3.644,12.808,6.21,11.294,1.971,11.425,8.361,14.074-.312,2.739-.864,0.083-2.877L802.5,753.114l-1.2-11.425,9.323-26.812,13.914-21.695,1.556-20.195L819.35,654.28l13.942-12.3-3-4.253-10.685.353,2.137-5.014-3.016-7.607-2.213-10.8,1.023-8.188-7.455,2.566-2.171,4.793L803.6,625.787l-5.685,5.048,4.378,2.338,0.837,7.711-2.351,1.259,5.969,5.187,0.083,2.663-15.222-.782-13.762-3.161-11.833-7.919-1.487-.138-8.2-2.718-1.01,10.955-6.591,12.131,7.282,15.36,2.566,7.483-7.31,9.351-28.313,5.3Z" transform="translate(-6.368 -138.882)" fill="#ffeb00" stroke="#000" stroke-width="2"/><path d="M490.469,852.6l-5.187-.2,0.27-.312,5.042-2.241,9.523,5.256,13.507-2.5,16.072,2.268-0.353-8.562,12.006-11.93,13.437-25.229,0.526-8.023-17.746-31.2,0.422-2.186,1.307-4.862-7.455-13.168-5.2-14.185-2.082-4.647-4.717-2-6.446,2.836-6.362-2.469-7.338-7.67-3.887-3.6-0.892-7.939-4.239-3.189-9.765,2.621-2.158-4.848-6.957-3.105,0.145-3.036,0.664-5.726-12.7-11.307L442.161,669.91l4.149-3.811,5.609-11.225-2.593-4.184,6.777-4.149,11.66,11.169,1.3-1.079-2.677-4.806,4.447-18.341,2.42-2.282,8.7,7.075,10.263-2.988,6.93,14.807,7.58-3.257,5.54,0.5L517,650.311l0.055,2.794L521.6,648.8l10.429,2.013,3.866,3.271-1.812,10.159,16.356,1.618,13.507,8.506,2.932-2.538,8.416-3.6,7.061-3.313,1.273,2.448L591.571,666l4.184,3.6,10.229-3.928,2.455,1.272-5.865,4.931,0.975,9.945L623.577,707.7l3.783-3.514,2.3,1.376,12.954,16.951,0.609-6.833,13.721,3.133,10.872,8.728,5.388,0.325,5.837-5.568,3.105-7.656-2.691-10.7,7.338-2.379,14.1,22.919,3.036,18.59,3.984,6.957,6.535,4.62,12.884,8.216-5.85,9.848,0.691,11.335-15.36,6.874-14.468,31.267,0.947,5.4,5.878,6.363,5.581,0.878,10.657-4.011,4.405,3.582,0.339,5.54-7.836,11.791-7.054,4.89-13.8-1.079-10.858,8.7,4.481,3.334-3.769,7.013-11.024.228-10.131,9.371-10.885,1.673-3.036,4.164-9.427,5.311-8.859-6.446-0.934-2.593,3.714-3.956-2.109-4.523-5.484,8.956,6.888,15.132-16.252,10.768-28.825,10.443-3.7,3.569,0.837,2.718-4.551,10.374-0.781,16.806L537.7,946.632l-19.558-11.847L510.8,919.37l3.333-11.024,7.3-4.35,0.443-5.484-6.093-9.793-14.994-8.486,4.5-11.411Z" transform="translate(-6.368 -138.882)" fill="silver" stroke="#000" stroke-width="2"/><path d="M816.523,614.728l1.023-8.188-7.455,2.566-2.171,4.793-4.295,11.958-5.685,5.063,4.364,2.338,0.851,7.7-2.366,1.259,5.969,5.187,0.083,2.663-15.222-.782-13.749-3.161L766.022,638.2l-1.487-.138-8.2-2.718-7.172-3.714-1.307-7.185,1.729-7.185,5.36-1.023,3.742-7.054,5.146-1.515-0.767-7.822L761.7,597.5l-5.243-.962L754,588.8l-5.429-8.361,0.366-10.782-7.919-1.079-6.535-4.806-2.1,1.742-4.039,18.466-5.346-.989-7.13-7.808-13.535-.3-0.429-16.072,1.985-7.967,4.689-6.307,1.307-7.683,9.737-1.985,2.7-13.078,8.05-2.877,0.6-1.66,13.064,3.029,7.185-2.794,0.782,2.593,2.7-.173,0.138-11.266,3.541,1.39,3.824-4.039,12.573-5.456-4.011-7.227-5.484.394-1.93-1.957,6.307-15.277,0.526-8.264-3.582-3.887,0.145-5.4-5.1,1.888-2.718-.512v-2.767l-12.532-3.285,2.7-4.89,1.874-16.584-17.234-2.255-0.256-5.284-4.468-2.511-2.849-2.448,2.891-6.148,7.31-1.148,2.151-4.509-3.555-4.322-0.138-5.429,10.429-9.267,4.392-6.335,2.469-10.131-14.315.691-3-6.363,0.823-4.73,4.164-7.144,1.176-8.292,4.945-1.632,7.7,5.187,9.834-13.168,3.644-16.239,5.484-1.217-3.05,7.939,1.321,5.553,3.216,4.7,8.278,2.1,1.417,2.469,10.969,0.484,1.287,3.942,21.37-5.048,4.62-2.379,15.45,1.729L842.307,344l10.6-3.582,5.076,2.137,1.01,5.471-3.8,7.525,2.635,4.861,7.525,3.05-0.622,8.188-2.241,1.618,0.622,8.278-0.111,2.808,0.947,8.292-0.353,9.592-7.67,26.626,6.874,10.955,1.742,7.538,2.04,5.09,2.718,0.74,12.061-7.054,5.512-.719,1.363,7.85,1.673,2.836,14.06,8.6,0.353,7.725,4.972,5.726,7,6.66,3.458,4.689,3.9,13.914,8.589,1.272,4.322,3.569,0.5,8.742,1.307,3.942-2.593,7.9-16.439-1.7-1.646,8.237,2.469,10.816L907.01,556.324,898.366,567.8l-16.356,5.5-6.121,6.038-2.082,6.175-7.607,8.589-10.077,5.332-0.47,1.688,2.752-.539-9.24,10.456-15.132,7.2-3.216,4.523-0.664-2.552-2.621-.242-8.783,5.54Z" transform="translate(-6.368 -138.882)" fill="#ffc0c0" stroke="#000" stroke-width="2"/><path d="M485.019,338.053l6.847-4.067,2.268-.138-0.47-4.551-4.876-2.58-0.961-5.457-4.239-3.555-7.78-2.013,4.447-7.075-3.6-16.508,11.224,0.948,10.4,9.17,7.725-1.376,4.149,9.537,4.537,2.739,3.078-1.487-3.05-3.914,3.029-13.86,4.184-2.607-0.553-5.609,6.646-5.242-5.567-5.892,0.284-9.738,2.621-4.2,11.093,0.975,9.565-4.578,5.048,14.793,17.518,8.79,10.388,11.467,6.508,5.74,8.091,3,8.741-6.01,8.956-16.75-0.366-18.79,8.078,0.145,9.4-5.685,6.549-8.741-2.054-4.889,26.093-1.487,9.931-5.685,5.042,2.241,3.956,7.656-0.526,5.616-5.8,19.233,1.01,8.347,6.024,5.27,16.709-1.245,2.123,5.228,2.836-.083,7.511-11.861-2.607.948,1.348-30.713,2.511-5.062,5.54-1.162,10.671,2.863,13.631-1.688,3.486,3.983,1.591,5.173,5.54,0.284,4.108,3.838,10.56-.339-0.8,1.335-1.245,2.607,6.771,12.767,7.552,3.956,2.511-1.148,14.523,7.372,3.824,0.595L803.86,289.6l9.427-5.74,9.737,12.006,1.321,9.2,15.208,19.842-2.607,13.424,0.429,3.2-15.45-1.729-4.634,2.379-21.37,5.048-1.287-3.942L783.68,342.8l-1.417-2.483-8.292-2.082-3.216-4.7-1.321-5.553,3.05-7.939L767,321.261,763.369,337.5l-9.848,13.168-7.683-5.187-4.959,1.632-1.162,8.292-4.164,7.144-0.837,4.73,3.016,6.363,14.315-.691-2.469,10.131-4.392,6.335-10.443,9.267,0.138,5.429,3.569,4.322-2.158,4.509-7.3,1.134-2.9,6.162,2.863,2.448,4.461,2.511,0.256,5.284,17.234,2.255-1.867,16.584-2.718,4.89-5.484-.041-1.8,2.123-8.105-4.634-13.389,1.867-11.577-.442-6.743.609-6.833-7.622-10.007,8.486-10.09-3.133-4.945,6.4-12.545,5.2-9.468-.111-5.609-10.007-13.306-11.2-23.514-8.846-0.726,16.549-4.053,7.254,15.118,6.729,0.055,13.673,10.872,4.094-3.015,10.643,1.349,5.311,2.96,0.864,1.9-4.9,13.292,7.891,1.19,22.221,4.336,3.486,4.779,10.235-6.929,3.417-2.918,6.743,6.6,8.714,7.158,4.136,10.077-3.866,4.523,2.455-2.469,7.31,2.137,4.945,2.067,1.742,10.56-.3-6.944,9.993-2.676-1.01-6.972,4.447,5.553,6.459,0.5,2.676-2.241,1.487-22.574-2.918-10.035,8.79-11.093-.719L608.6,592.346,608.2,594.87l-8.2-.429-8.078,7.822-4.392,1.632,0.27-2.739-4.537-3.05-2.448-7.78-7.116-8.133-4.537,3.029L567,583.548l4.917-5.388h-14L545.089,573.4l-0.3-1.888,0.366-5.906,3.852-11.86,0.65-2.891,2-4.149,9.088-6.418,5.429-.284-8.79-14.3,4.149-7.538-8.119-1.673-10.9-12.684,2.365-1.46-7.026-3.824-5.906,6.065-4.322,3.334-5.415-.74,4.419-12.51-3.838-3.43-7.538.408-5.685-5.014-6.777-14.157,3.569-15.249L498.2,435.024l0.781-2.407-2.241-6.238,0.837-3.887-2.448-4.253-8.444.6-3.2-3.257,0.484-5.726,3.742-3.942-0.394-4.661-2.51-3.029-2.2,2.42-5.062,1.742-1.528-16.156-3.43-3.97-2.013-5.048,4.461-9.323,6.024-4.578,10.6,0.5-1.363-13.534Z" transform="translate(-6.368 -138.882)" fill="#ff8080" stroke="#000" stroke-width="2"/><path d="M470.62,377.155l4.468-9.308,6.024-4.592,10.588,0.512-1.349-13.548-5.332-12.186,6.847-4.067,2.268-.138-0.47-4.551-4.876-2.566-0.961-5.457-4.239-3.555-7.78-2.027,4.447-7.061-3.6-16.522,11.224,0.948,10.4,9.17,7.725-1.363,4.149,9.523,4.537,2.739,3.078-1.473-3.05-3.928,3.029-13.846,4.184-2.621-0.553-5.6,6.646-5.256-5.567-5.892,0.284-9.738,2.621-4.2-0.705-8.728-8.783-11.321-5.256,6.418-4.931-.74-3.271-2.51-17.656,4.011-8.05,7.282-5.1,2.338-1.985-1.335-7.269-8.97,9.129-5.63,1.431-18.14,2-4.406-2.946-6.9,0.526-5.062-5.415-4.82-0.8-7.836,2.31-1.473,7.711,1.6,5.284-9.17-8.022-7.995-9.966-5.042,4.461-10.36-4.889-10.249-7.766-.3-5.173-5.906-9.945-5.2L427.224,154.1l-1.715,13.237-0.768.284-6.024,9.62-7.2,4.136,0.055,5.671-2.338,1.584-16.342-3.658-6.536,3.756-3.527,6.7-3.313,2.054-3.6-2.338-1.688,4.108,14.994,14.51,8.05,14.5v5.284l7.414,8.416,7.836,2.158-1.259,7.877-0.429-2.649-2.58,7.538-12.248,10.4,1.231,3.6,6.432,5.643,2.448,8.278-3.361,6.916,7.324,7.026,6.944-3.333,6.28,5.09,3.2,4.212L424.4,312.3l-9.634.664-4.889,7.026,2.649,19.814-2.158.726-5.118,15.858,1.528,2.324,10.457,2.42,4.136,15.775,4.675-.706,0.138,6.674-26.854-14.261-2.78.312,2.1,16.439-4.433,2.158-4.779-1.2-0.581,8.077-9.579,2.524-12.684,15.153-23.88-7.089-4.406.622-2.566,3.375-5.54,3.189-8.147.962-14.074-11.646-5.014-.934-2.877-6.929-2.566-.173L285.61,388.76l-5.512-5.837-12.843-1.618-6.674-4.212-4.717-6.577,0.366-2.691-8.216-1.259-1.826,5.27-4.731,2.863-6.037-5.36-7.026,4.433-4.2,13.576,1.39,5.159,7.441,4.121,0.934,2.676-6.646,5.042-1.77,13.845-15.7,4.364-21.259-5.27-2.808-.6-12.276,7.1-6.577-5.325L150.488,414.1,136.3,415.688l-24.931-5.014-3.389-4.419-2.58-10.56L86.869,384.2l-2.607-4.918-11.093-1.7-21.737,10.36-3.8,13.091-5.8,5.076,1.888,7.338,0.145,14.807-7.78,3.064-11.266.159L8.277,441.649l6.791,4.177,12.386,14.738,5.609,0.228L43.4,452.05l1.431,1.867,2.013-1.19,2.448,4.149,2.7,12.642L58,474.505l2.268,1.77,9.364-6.508,3.064,4.62L80.8,472.43l7.752,8.306,10.657,4.053,15.747,12.372,2.918,1.176,0.726,0.609-4.378,16.508-14.71,8.216-7.594,18.479L75.4,544.418l-0.975,8.361-9.834,5.3-4.447,10.263,3.983,19.413,2.137,1.632,4.067-3.486,7.3,3.029,7.7,1.307,4.295-3.216,13.064,2.78,6.957,8.928,0.74,11.093-3.541,10.7-5.54,1.092,7.981,7.635,7.026-4.82,8.064-2.054,12.5-15.547,5.581-.691,11.819-3.541,6.957,8.023-1.093,17.006,5.132,6.929,10.8,3.88,7.566-2.96,10.173,9.579,4.053-3.514,8.036-1.432,0.228-2.732-13.507-9.351,3.582-10.588,8.673-7.075,2.649-7.579,12.559-17.615,8.334,1.688-1.473,11.225,1.66,1.874,4.226-2.877-0.408-8.658,10.5,1.4,5.373,0.892,4.149-13-1.217-5.131,4.163-6.729,3.43,0.567-2.946-9.579,8.79-5.36,3.644-2.836,6.819,0.6,8.161-7.926,33.037,3.119-0.145,10.63,4.959,9.44L335.7,564.4l3.333,4.419,1.335,10.56-2.5,4.9L323.484,606.5l3.486,9.966,9.931,3.672,4.972,6.238,4.592-3.243,5.484,1.348,5.387-6.051,25.257-2.1,8.389-7.282,3.036,4.634-1.051,11.128,3.16,7.78,8.686,4.24,12.4,0.056-0.5,7.642,12.573,1.176-3.4,4.537,0.27,8.064-7.116,8.8-1.148,8.444,8.361,3.727,12.5-6.86,3.361-2.58,4.149-3.8,5.609-11.225-2.593-4.2,6.777-4.136,11.66,11.156,1.3-1.065-2.677-4.806,4.447-18.341,2.42-2.3,8.7,7.075,10.263-2.974,6.93,14.807,7.58-3.271,5.553,0.5,4.717,2.988L517,653.052l4.551-4.309,10.429,2.013,3.866,3.257-1.812,10.159,16.356,1.618,13.507,8.521,2.932-2.552,8.416-3.582,7.061-3.319,1.273,2.448,7.939-1.363,4.184,3.6,10.229-3.928,2.455,1.272,9.074-.767L610.262,648l0.623-5.471-6.957-4.565-22.034-4.053-0.823-13.279,6.293-11.425,0.2-5.332,0.27-2.739-4.523-3.05-2.448-7.78-7.13-8.133-4.523,3.029-2.172-1.673,4.917-5.388h-14l-12.829-4.758-0.3-1.888,0.38-5.906,3.852-11.86,0.65-2.891,2-4.149,9.088-6.418,5.415-.284-8.783-14.3,4.136-7.538-8.105-1.673-10.913-12.684,2.379-1.46-7.04-3.824-5.892,6.065-4.322,3.334-5.415-.74,4.419-12.51-3.838-3.43-7.552.408-5.685-5.014-6.771-14.157,3.569-15.249-8.161-22.207L499,432.6l-2.227-6.238,0.823-3.887-2.448-4.253-8.444.6-3.188-3.257,0.47-5.726,3.756-3.942-0.394-4.661-2.51-3.029-2.213,2.42-5.062,1.742-1.515-16.156-3.43-3.97Z" transform="translate(-6.368 -138.882)" fill="#ff8080" stroke="#000" stroke-width="2"/><path d="M747.835,624.466l1.729-7.185,5.373-1.023,3.727-7.054,5.146-1.515-0.754-7.822-1.363-2.351-5.256-.962-2.455-7.739-5.415-8.361,0.366-10.782-7.926-1.079-6.522-4.806-2.11,1.742L728.338,584l-5.332-.989-7.144-7.808-13.52-.3-0.429-16.072,1.971-7.967,4.689-6.307,1.307-7.683,9.752-1.985,2.691-13.078,8.064-2.877,0.6-1.66,13.05,3.029,7.185-2.794L752,520.1l2.7-.173,0.145-11.266,3.527,1.39,3.824-4.039,12.573-5.456-4-7.227-5.484.394-1.943-1.957,6.321-15.277,0.512-8.264-3.582-3.887,0.145-5.4-5.1,1.888-2.718-.512v-2.767l-12.532-3.285-5.484-.041-1.8,2.123L731,451.71l-13.389,1.867-11.577-.442-6.743.609-6.833-7.622-10.007,8.486-10.09-3.133-4.945,6.418-12.545,5.2-9.468-.124L639.8,452.962,626.489,441.78l-23.514-8.859-0.726,16.549-4.053,7.254,15.118,6.729,0.055,13.673,10.872,4.094-3.015,10.643,1.349,5.311,2.96,0.864,1.9-4.9,13.292,7.891,1.19,22.221,4.336,3.486,4.779,10.235-6.929,3.417-2.918,6.743,6.6,8.714,7.158,4.136,10.077-3.866,4.523,2.455-2.469,7.31,2.137,4.945,2.067,1.742,10.56-.3-6.944,9.993-2.676-1-6.972,4.433,5.553,6.459,0.5,2.676-2.241,1.487-22.574-2.918-10.035,8.79-11.093-.719-16.695-9.074-0.394,2.524,3.811,10.727,9.468,6.279,15.235,18.59,3.486,5.243,7.455,5.629,4.931,11.9-3.313,6.563-2.691-5.74-6.674,2.691,3.727,6.487-9.336,6.307,15.7,24.123,10.56-6.674-1.867-3.243,16.425-13.887-16.764-14.288-0.664-3.133,3.257-5.373,4.053-1.335,2.11-2.511,9.067-2.808,3.569-7.241,7.552-.366,7.552,7.622,2.241,8.092,8.521,7.013,3.133,0.512-1.307,8.658,0.138,5.713,10.63,28.894,4.689-3.319,28.313-5.311,7.3-9.336-2.566-7.483-7.269-15.36,6.591-12.131,1-10.955-7.172-3.714Z" transform="translate(-6.368 -138.882)" fill="#7f7" stroke="#000" stroke-width="2"/><text transform="translate(746.584 599.87)" font-size="84.628" font-family="DejaVu Sans" font-weight="700">1</text><text transform="translate(552.182 714.798)" font-size="152.14" font-family="DejaVu Sans" font-weight="700">2</text><text transform="translate(768.405 427.259)" font-size="152.14" font-family="DejaVu Sans" font-weight="700">3</text><text transform="translate(687.95 512.611)" font-size="84.371" font-family="DejaVu Sans" font-weight="700">6</text><text transform="translate(578.377 270.819)" font-size="152.14" font-family="DejaVu Sans" font-weight="700">4</text><text transform="translate(345.633 408.767)" font-size="152.14" font-family="DejaVu Sans" font-weight="700">5</text></svg>