<svg xmlns="http://www.w3.org/2000/svg" width="934.509" height="603.591" viewBox="0 0 934.509 603.591"><title>Députés sortants du Calvados en 2017</title><path d="M458.646,595.914l-12.178-.424-7.644,3.467-0.431,2.762-7.986,2.421-2.092,7.118,12.362,1,4.752,11.015-0.034.164-6.831,4.526L436.307,633l-4.328-3.227-4.889-9.579-3.057,8.574,0.54,12.321-0.78,1.552-2.1.362-6.284,1.518L399.377,629.1l-0.8.465L381.8,626.183l-4.185,9.491-14.27-4.287-9.47,10.386-10.331,1.272-2.257-1.545,5.627-9.094,11.111-13.395-0.335-1.265-4.985-3.6-15.008-1.88,7.555-10.981-0.93-2.646,5.805,0.014,6.674-5.6-1.292-8.574-2.4-1.443L351.6,572.55,356.191,565l-2.352-5.47,0.116-.438,2.332-5.306-1.7-5.217-0.827-1.771,1.272-2.55-5.2-6.174,1.34-8.349,6.995,3.446,17.5,8.991,2.489,1.525,2.147,1.156,3.754-4.985,14.837-4.232,5.477,6.332,5.552,8.636,22.1,3.815,0.226-2.379,14.345,6.42,14.94,5.7,5.272,0.328,3.111-4.41,0.568,1.306,7.145-9.915,12.458-2.113,10.605,9.525,1.983,3.091,7.439,2.332-6.475,2.605-1.08,8.184,2.619,8,4.048,6.017,4.287,1.456,1.785-1.675,9.176,0.595,2.509,7.822-5.538-1.285-2.968,1.265,5.415,7.836-2.5,1.511,0.643,8.663-2.058,2.092L516,609.719l-2.359-7.1-8.007,2.892,0.814,4.663,4.239,1.915-3.815,25.2-6.694.526-5.682.711,0.39-2.879-7.8-7.2-0.424,2.844-9.121-4.335,4.711-7.344-8.472-8.314-5.422.28L467.11,605.4Z" transform="translate(-45.211 -369.607)" fill="#ff8080" stroke="#000" stroke-width="2"/><path d="M609.1,646.2l-0.95,2.461-7.733-1.087,5.272-16.82-8.909-1.292-7.979,2.407,1.812-4.7-7.549-3.385L573,630.06l-8.191-3.576-1.983,2.373-3.857-6.885-5.477-1.839-15.952-5.593-1.826,10.42,1.559,1.149-0.916,6.851-7.651,7.952-14.044-.123-7.774-3.576,3.809-25.2-4.239-1.908-0.814-4.67,8.014-2.885,2.359,7.1,3.966,7.658,2.058-2.092-0.643-8.663,2.5-1.511-5.422-7.836,2.974-1.265,5.532,1.285-2.5-7.822-9.183-.595-1.785,1.675-4.287-1.456-4.041-6.017-2.619-8,1.073-8.184,6.475-2.605-7.439-2.332L500.7,558.8l1.58-5.518,2.708-.944,10.208,2.044,5.621,1.942,8.759-1.5,2.981-.554,9.545,11.6-4.3,3.993-1.832,18.195,4.4,4.649,2.106-1.4,5.224-7.063,11.521,0.643,4.225-10.461,4.944,5.347,7.508,2.824,9.5-13.928,2.441-8.13,5.621,2.366,4.144,8.15,5.121-3.453,12.417-.164,11.521-3.364-6.092,12.581,6.031,15.911,11.891-1,13.894,2.947,10.092,13.477,11.186-.171,6.94,5.552,0.738,2.291-2.133-2.195-2.885.971L673.6,626.416l-9.45,15.234-12.471,3.487-0.855-6.892-4.068,2.612-4.574-3.6-12.137,8.9-11.993,1.962Z" transform="translate(-45.211 -369.607)" fill="#ff8080" stroke="#000" stroke-width="2"/><path d="M484.786,696.4l-2.708-1.265-3.193-11.446-6.489-6.154-0.629,2.653-7.959,17.764-2.8.137-4.089-2.844-3.685,1.368L452.7,708.7l-4.2,11.637-0.232,4.506,0.772,3.843-0.205,1.675,8,3.6,7.241,9.21,8.4-.137,2.92-.711,9.887,4.308,6,9.463,7.378-1.292,5.5,6.427-0.964,5.75,9.921,5.2,22.379-3.713,6.687,21.552,1.121,5.935-3.213,8.4-15.651-2.639-4.027,4.219-1.176,11.405-2.4,1.675L511.056,807.4l-18.277,8.232-11.139,7.255-1.285,1.354,5.627,16.383-1.853,8.369-5.962,1.279-2.653-1.2-8.759,7.063-5.545-1.388-0.868-2.79-6.031,6.051-21.169-1.853-1.087,5.333,11.029,1.121,6.086,4.711,16.738,0.711,4.827-2.1,1.4,5.388,8.362-3.091,5.566,9.743,10.161,10.557L506.667,887l1.408-.369,2.393,4.82-5.579,1.641-0.472,5.552,13.107,11.494,1,0.6,9.169-12.089-0.26-5.306-3.282-4.226,4.205-9.962,12.253-.1,5.169,7.549,8.854-2.858,8.889-.7,8.321,3.241,6.674,0.212L587,891.809l7.378,2.229,5.962-5.121,3.323,4.868,10.742,4.13,3.679,7.61,13,6.605,1.956-2,12.923,5.244L635.11,901.347l1.518-2.619,8.417-2.133,1.723-8.458,5.778,5.969,4.7,0.93,13.593-4.164,4.834,3.261,3.152-1.785,2.8-1.114,3.35-8.438,16.383-14.359-0.144-3.535,10.318-2.55,3.863,4.082,0.273-.192-2.133-10.222L733.1,845.963l15.3-3.624,3.665-2.9,0.909-4.656,3.33-7.918,1.176-8.3,8.69-10.461,12.055,1.655,13.867-12.225,1.32-2.038,5.046,1.607,5.655,8.752,2.817,11.8,2.523,1.785,9.046-1.62,4.861-2.571,4.738-9.88,16.089-4.759,5.6,5.456,8.294-1.949,3.2-14.2,10.031-5.251,8.465-.8,1.142,13.511,2.639,1.074,15.118-4.7,14.243,10.126,13.586-6.058,12.109-20.307,15.644,8.69-2.448,8.841,7.357,1.873,11.268-18.837-3.166-12.232,4.055-15.59,7.159-13.894-12.5-11.542-8.718-.711L942.983,720.4l-3.665-11.22-2.085-2.147-2.461,1.7-2.243-1.935,7.8-7.89-0.711-5.5,0.055-3.084,7.569-5.19,9.2,0.089,5.32,2.954-0.472-12.444-8.3-.957,5.361-5.73-0.745-2.434-5.32-.178-0.691-2.619L939.9,661.4l-14.872,1.538-2.133-2.113-10.571,4.985L897.11,654.362l-5.176,5.771L878.334,670l-4.882-2.5-3.788-3.173-4.985-1.969-1.785-12.656-8.868,1.648-2.434-1.764,1.655-5.812,12.39-12.424,11.412,1.285,4.356-2.5-0.834-7.508-3.884-3.576-5.477.513-2.3-4.725-5.894,1.292-5.593-2.1-1.7-8.321L845.555,602.1l-6.126,6.571-2.892.2-2.687-5.121-5.525-1.026-2.27-8.3-6.078,8.164-5.415-1.326-8.246,3.412-9.935,6.694-3.726,8.164-7.419-8.184-10.072-3.05-2.571-6.188,5.655-1.019,5.06-7.159,5.388-1.231,2.037-5.456,0.424-.2,5.833-.492,12.649-6.749-2.195-10.926L803.4,567.4l-5.121-5.976-6.687-4.766-3.726-1.969,5.778-14.27-4.5-3.487-5.265,3-11.74-2.174-2.126-5.682-1.942-2.147-2.947,2.94-8.574,11.891,1.1,5.306L749.337,549,744.27,551.4l-2.243-1.928-7.931,2.017-7.89-2.5,0.116,6.072-4.4,7.938-13.7,6.126-9.559-2.455-3.213.9-6.434,5.579-10.988,3.186-7.514-2.824-12.027-.144-16.5,13.75-4.13,2.243,0.568,2.3,13.894,2.947L662.412,608.1l11.193-.178,6.933,5.552,0.745,2.3-2.133-2.2-2.885.971-2.714,11.979-9.45,15.234-12.471,3.487-5.839,18.366,8.123,0.171,1.716-1.819,7.268,1.484,5.149,11.446-5.306,2.161-0.554,11.46-2.66,4.95-9.545-3.48-2.762.923-7.186-4.513-3.726,4.239-18.933-8.075-3.938,3.891L599.3,683.32l-14.174,5.62-9.306,3.59-1.463-1.942-2.858-3.179-8.738-2.633-6.872,6.031L541.2,686.95l-1.812-3.644-21.032,5.32-14.291-5.655-4.485,1.285,1.935,5.231-2.421,1.258-7.186-8.007-0.78,8.3Z" transform="translate(-45.211 -369.607)" fill="#ff8080" stroke="#000" stroke-width="2"/><path d="M898.908,501.563l7.815-11.692-3.733-13.347L892.6,473.761l5.176-3.9,9.648-19.008-9.074-16.034-3.679-11.808,4.273-13.908-6.543-19.979-0.342-18.4-6.749.738-5.839.321-30.639,1.279L826.67,383.677l-20.861,7.118-9.559,3.412-15.665,12.232-17.429,21.449-1.983-1.846-7.959,10.571-2.906,2.858-12.7,9.9-9.949,8.2L711.5,467.826l-15.924,6.229L680.9,480.346l-12.212,8.123-3.07-.267-27.207,7.665-17.682,2.995-21.258.007-11.3,3.925-16.369-7.268-14.7-2.5-4.855-1.566-26.919,25.764-4.13-1.73-7.09,17.8L504.2,545.966l-1.285,4.868,2.126,1.573,10.208,2.044,5.621,1.942,8.759-1.5,2.981-.554,9.545,11.6-4.3,3.993-1.832,18.195,4.4,4.649,2.106-1.4,5.224-7.063,11.515,0.65,4.233-10.468,4.944,5.354,7.508,2.824,9.5-13.928,2.441-8.137,5.621,2.366,4.144,8.15,5.121-3.453,12.417-.164,11.521-3.357-6.092,12.581,6.031,15.911,11.891-1-0.568-2.3,4.13-2.243,16.5-13.75,12.027,0.144,7.521,2.824,10.981-3.186,6.441-5.579,3.207-.9,9.566,2.455,13.7-6.126,4.39-7.932-0.109-6.079,7.89,2.5,7.931-2.017,2.236,1.928,5.073-2.393,8.308,1.06-1.1-5.306,8.581-11.891,2.947-2.94,1.942,2.147,2.12,5.682L784,539.9l5.272-3,4.5,3.487-5.778,14.27,3.726,1.969,6.687,4.766,5.121,5.976,4.034,1.477,2.2,10.926-12.649,6.749-5.833.492-0.424.205-2.037,5.449-5.388,1.231-5.06,7.159-5.655,1.019,2.571,6.188,10.065,3.05,7.419,8.184,3.726-8.164,9.935-6.694,8.246-3.412,5.415,1.326,6.086-8.164,2.27,8.3,5.525,1.026,2.681,5.121,2.892-.2,6.133-6.571,10.167,3.624,1.7,8.328,5.593,2.092,5.894-1.292,2.3,4.725,5.477-.513,3.884,3.576,0.834,7.508-4.362,2.5-11.412-1.285-12.383,12.424-1.655,5.812,2.434,1.771,8.868-1.655,1.785,12.656,4.985,1.969,3.788,3.173,4.882,2.5,13.6-9.867,5.176-5.771,15.207,11.446,10.571-4.985,2.14,2.113,14.872-1.538,11.7,2.421,5.586-17.8,0.171-1.169-0.827-5.689,8.4-1.99,5.607-10.113-3.275-4.178-10.427.027-1.285-2.339L944.5,617.275l-0.9-.773,2.455-5.032,1.073-16.718-2.2-10.024,3.084-15.241-0.055-3.152-2.872-1.292-0.424-2.906-2.817-.725-9.169-.506L915.5,547.942l-9.149-15.514-0.144-3.009,2.92-.807,8.69-.711,10.133-5.921,13.867-3.275,0.438-19.371-10.4-8.342-11.214-.26-14,14.838Z" transform="translate(-45.211 -369.607)" fill="#06c" stroke="#000" stroke-width="2"/><path d="M192.926,635.326l1.121-2.79-19.678-12.485-0.725-2.9,4.383-4.041-15.952-3.132,3.685-4.745,8.54,3.535,5.7-2.215,9.046-15.986,1.1-8.622,13.449-7.863-8.274-2.708-11.255-14.926-1.99-5.853,2.126-2.3-2.667-.745-3.344,4.417-0.875,7.925-5.7,1.962-9.832,14.769-7.521,4.861-8.773-.786-0.834-2.974-11.193-4.943-9.046-.13-0.3-.424L116.7,556.6l-5.921-.144-3.932-4.273-2.673,1.032-9.388-6.571-7.631-11.535-2.872,1.368L82.732,528.8,80.6,527.06l-0.9,2.578-2.53-1.074-4.725-7.672-11.836-8.9-0.007-3,5.538-.889,1.566-2.55L64.216,501.1l-4.41-2.947-1.224-5.3-1.532-14.8,15.2-15.241-3.672-25.771,2.455,3.624-0.868-8.574,15.726-17.86,9.278-7.439,23.542,0.055,8.082-3.467,8.69-2.708,11.316,0.424,13.641-.52,21.026,3.515,7.3,6.838,18.092,11.822,12.014,5.586,19.576,6.6,22.27,3.973,19.672,5.2,5.47-1.34,15.446,1.935,30,0.916,13.019,0.608,11.617,4.157,7.973,0.41,10.42-.615,12.116-2.284,11.261-2.4,27.535,2,22.817,5.723,19.186,2.14,20.971,1.757,12.6,5.2,9.491,4.506,11.521,7.781,17.716,11.357,12.636,5.5-26.919,25.764-4.13-1.73-7.09,17.8-9.915,12.663-1.292,4.868,2.133,1.573-2.708.95-1.572,5.511-10.6-9.525-12.465,2.113-7.145,9.915-0.568-1.306-3.111,4.41-5.272-.328-14.94-5.7-14.338-6.42-0.232,2.379-22.1-3.815-5.552-8.636-5.47-6.332-14.837,4.232-3.761,4.985-2.147-1.156-2.489-1.525-17.5-8.991-7-3.446-1.34,8.349,5.21,6.174-1.279,2.55,0.827,1.771,1.7,5.217-2.332,5.306-0.116.438,2.352,5.47-4.581,7.549,1.5,10.482,2.4,1.443,1.292,8.574-6.666,5.6-5.812-.014,0.93,2.646L337.7,612.261l15.015,1.88,4.978,3.6,0.335,1.265L346.921,632.4l-5.627,9.094-4.9,12.061-13.532,6.776-9.668,18.6-8.349-3.221-6.981-9.046-8.465,1.976-27.631,10.8-9.607-.314,0.793,6.2-5.272,11.3-10.653,4.718-9.183,11.48-2.961-.349-14.742-7.911L213.2,695.9l0.636-3.822-0.376-4.137-0.711-6.044-4.944-7.651,1.238-12.232,0.485-2.5-0.793-10.188-8.561-.144-18.379,14.092,6.065-10.837,5.8-1.894,9.135-8.308,1.149-2.906-5.1-3.453Z" transform="translate(-45.211 -369.607)" fill="#ffc0c0" stroke="#000" stroke-width="2"/><path d="M247.674,696.631l-10.653,4.711-9.183,11.48-2.961-.349-14.742-7.911-8.923,8.205,3.658,4.848,8.629,1.956,4.253,4.328,0.226,5.86-13.347,3.555-5.566,10.031-5.819-.267-2.537,11.343-3.269,8.02-16.95,19.972-6.106.95L143.634,796.7l-4.116.5-4.9-3.139-8.636.424-3.624-7.993-17.135,3.316-0.444,10.331L96.79,801.73l3.993,3.125-0.78,8.6-5.86,6.407,0.068,2.913,5.156,1.75,8.458-3.679,17.935-2.414,4.451,4.068-4.841,14.653-15.863,9.812-2.072,5.983-3.726,8.841-6.12,5.381L92,868.294,85.023,859.5l-4.492,3.7-1.723,8.226L68.127,880.2l-0.458,7.248-5.942-.629-6.639,9.99-8.3,1.108,0.1,1.3-0.622,8.41,15.556,4.8,1.511,2.475,1.135-.219,7.022-.212,1.073,2.311,6.058,0.636L82.9,928.587l1.812,2.544-3.788,7.836,1.374,2.817,6.906,6.482,14.742,5.258,7.118-7.638,5.278-.7,11.836,8.772,13.244-3.795,11.139,2.318,4.67-10.195,10.584-.868,4.95,7.5,10.468,6.366,17.47,5.176,4.417,7.378,8.67,0.608,9.251-6.571,12.007-1.135,6.516-6.229,0.944,1.47-11.945,16.164,9.074-.219,9.935-6.721,7.268-9.395L258.258,950l4.855-3.378,2.482-4.82,21.319-4.649,10.783-6.345,6.229-.677,3.6-5.155L322.8,910.747l-5.025-2.256-8.526-10.954,8.28-8.349,4.8,3.48,17.484,3.385,5.518-2.181-1.156,12.109,12.157,0.212,10.509-6.113,3.809-.916,11.384-1.443,6.078,5.326,5.21-3.35,6.516-10.557,14.913-3.562,4.841,0.116,3.3,3.713,8.4-2.708-0.9-5.942,11.309-3.166,4.786-7.665,2.687-2.612L443.1,862.6l-11.022-1.121,1.08-5.333L454.332,858l6.031-6.051,0.868,2.783,5.538,1.395,8.759-7.07,2.653,1.2,5.962-1.279,1.86-8.369-5.634-16.383,1.292-1.354,11.139-7.255,18.277-8.232,5.778,11.617,2.407-1.675,1.176-11.405,4.027-4.219,15.651,2.639,3.207-8.4L542.2,790.01l-6.68-21.552-22.386,3.713-9.921-5.2,0.971-5.75-5.5-6.427-7.378,1.292-6-9.463-9.88-4.308-2.926.711-8.4.137-7.241-9.217-8-3.6,0.2-1.675-0.766-3.849,0.226-4.5,4.2-11.637,0.533-12.089,3.685-1.368,4.082,2.844,2.8-.137,7.966-17.764,0.622-2.66,6.5,6.161,3.186,11.446,2.708,1.265,6.4-5.463,0.78-8.3,7.186,8.007,2.421-1.251-1.942-5.231,4.492-1.285,14.284,5.655,21.039-5.326,1.8,3.651,14.68,3.856,6.878-6.038,8.731,2.639,2.858,3.179,1.463,1.942,9.306-3.59,14.174-5.627,14.14,3.125,3.938-3.884,18.933,8.075,3.726-4.239,7.186,4.513,2.762-.923,9.545,3.48,2.667-4.95,0.554-11.467,5.3-2.154-5.149-11.446-7.262-1.49-1.716,1.826-8.123-.171,5.846-18.366-0.855-6.9-4.075,2.619-4.574-3.6-12.13,8.9-12,1.962-8.964-1.935-0.95,2.461-7.733-1.087,5.272-16.82-8.9-1.292-7.979,2.407,1.8-4.7-7.542-3.378L573,630.053l-8.185-3.576-1.983,2.366-3.863-6.879-5.47-1.839-15.952-5.593-1.813,10.415,1.559,1.149-0.916,6.851-7.651,7.952-14.044-.123-7.781-3.576-6.694.526-5.682.711,0.39-2.879-7.8-7.2-0.424,2.844-9.121-4.342,4.711-7.337-8.472-8.314-5.422.28-1.251-6.174-8.486-9.422-12.184-.424-7.644,3.46L438.4,601.7l-7.986,2.421-2.1,7.118,12.369,1,4.745,11.015-0.034.157-6.831,4.533-2.257,5.039-4.328-3.227-4.889-9.579-3.057,8.574,0.54,12.314-0.78,1.559-2.1.362-6.277,1.511-16.034-15.412-0.8.465-16.779-3.385-4.185,9.484-14.27-4.28-9.47,10.386-10.325,1.272-2.257-1.545-4.9,12.061-13.532,6.776-9.668,18.6-8.349-3.221-6.981-9.046-8.458,1.976-27.631,10.8-9.614-.314,0.8,6.2Z" transform="translate(-45.211 -369.607)" fill="#ffeb00" stroke="#000" stroke-width="2"/><text transform="translate(179.072 230.891)" font-size="158.948" font-family="DejaVu Sans" font-weight="700">5</text><text transform="translate(725.631 150.739)" font-size="158.948" font-family="DejaVu Sans" font-weight="700">4</text><text transform="translate(634.719 403.318)" font-size="158.948" font-family="DejaVu Sans" font-weight="700">3</text><text transform="translate(237.35 455.509)" font-size="158.948" font-family="DejaVu Sans" font-weight="700">6</text><text transform="translate(319.643 250.01)" font-size="92.168" font-family="DejaVu Sans" font-weight="700">1</text><text transform="translate(540.958 245.673)" font-size="45.44" font-family="DejaVu Sans" font-weight="700">2</text></svg>