<svg xmlns="http://www.w3.org/2000/svg" width="961.851" height="708.031" viewBox="0 0 961.851 708.031"><title>Députés sortants de Seine-Maritime en 2017</title><path d="M559.936,810.483l8.657,9.456-8.007,15.077-4.512,3.522,4.394,4.938,6.387-5.725,11.483-1.5-0.971,6.112,5.541-1.639,2.669,2.866,1.5-3.9,4.269-2.505,1.24-2.348,2.4,1.239,2.846,3.869,2.44,5.141,1.285-5.764,2.6-1.108,14.618,1.948-1.226-2.066,2.092-1.161-5.876-5.62,4.276-4.033,2.217-8.211,2.807,0.649-5.627-8.663L604.47,822.215l-6.6-2.21-2.066,1.548L592,818.1l-0.872-2.6,4.676-6.715L594.129,795.2l-3.043.2-13.647,4.151-1.134,5.627-2.827-.5-7.752-7,0.072,5.725-5.469,1.6Z" transform="translate(-17.869 -286.574)" fill="#ff8080" stroke="#000" stroke-width="2"/><path d="M822.62,736.621l-5.253-14.434-33.472,7.883,2.118-18.926,4.007-3.417-5.338-5.338-0.9-1.03-1.981-5.587-7.417-4.558-2.348-5.4,3.194-4.61,5.659-1.659-4.158-3.961-5.719.866-7.575-8.729-5.791-1.03,4.263,9.942-7.509,7.705L747.1,683.5l-3.62,3.954-15.824,4.394-2.676,1.58-5.443-3.253-1.653,8.25-21.674,4.768-3.443,7.292-2.6.754,2.092,7.542-5.122,13.758-3.961,4.23L681.236,739l-2.682-1.226-7.87,7.581,4.649,9.883-0.485,2.485-9.548.616-0.066,8.427-2.335.452-19.923,13.949L639.56,784.3l-3.677-1.7-4.361-3.686-1.541-5.627-13.732-4.623-7.155-5.03-2.636,5.023,0.151,8.46,6.965,4.446-1.377,5.227-8.886,7.03-7.961-1.266-1.226,2.636,1.679,13.575-4.676,6.715,0.872,2.6,3.8,3.463,2.066-1.554,6.6,2.21,12.965-11.162,5.627,8.663-2.813-.649-2.217,8.217-4.269,4.027,5.876,5.62-2.1,1.161,1.233,2.066-14.618-1.948-2.6,1.108-1.292,5.764,0.459,2.466,3.607,18.893,2.7,7.043,0.256,18.283,0.656,5.227,1.574,6.945,0.387,4.84-5.4,19.385,2.256,1.8,5.587-1.423,3.01,1.725,4.781-8.276,5.325-.42,5.85-5.043,1.718,5.069,2.7-4.8,5.181-1.935,1.187,4.938,0.393,0.144,8.932-.649-2-12.624,1.456-1.921-0.289,2.663,5.3,0.125,1.482,2.289,18.88,1.882,14.526,0.131,0.052-5.876,7.8-7.47,1.653-10.729-1.712-9.791,6.322-6.63,5.876-1.43,1.692-11.188,2.426-1.476-3.213-15.1,10.722-2.053,5.122,1.882-0.315-8.519,6.335,2.663,0.636-2.289-4.361-3.968,1.076-2.754,13.706-4.138,9.916-10.46,3.174,1.423-5.05,7.135,0.452,2.879,15.654-4.866,13.424,0.525,7.719,4.256,14.657-1.089,8.414,3.272,5.876,6.82,14.316-2.151,5.378,10.257,7.292-8.879,14.447,0.334-0.413,2.361,5.364,4.748,6.171,12.112,6.014,5.81,11.85-3.633-0.085,2.689,10.866,7.463,1.764,0.184,4.643,2.682,6.355-5.476,5.647,0.4,0.9,2.7,6.748,6.689,5.981-12.434,4.971,0.138,4.505-10.512,2.275-14.2,1.187-2.636,2.886-.066,3.646-6.945,6.578-3.961-2.387-4.741,9.994-5.561,5.8-6.44-0.184-11.516L973,789.9l5.679-.446-0.6-13.8-10.86-4.984-7.063,4.781-3.417,11.043-2.459,1.607-2.426-5.358-8.388-1.548L940,778.507l-1.672-1.351,2.046-3.784,10.519-10.021,3.744-15.962-0.354-.308-10.316-2.453,1.928-16.257-5.266-7.135-5.568-6.578-7.089,4.309-9.279,4.6-2.892-.289-7.364-8.722-8.165-3L889.964,721.5l1.41,5.581-7.234,8.65-2.413,1.554-5.273-2L874,731.237l-4.99-1.18-3.03-4.761,3.633-7.627-3.377-10.709-4.092,3.417-8.7,7.423,0.19,5.371-6.25,5.961Z" transform="translate(-17.869 -286.574)" fill="#06c" stroke="#000" stroke-width="2"/><path d="M562.29,900.366l-7.8,8.145-0.1,8.551,3.417,4.656,8.23,1.5,1.574,2.4-7.692,1.5-6.958,2.23,0.734,2.341,19.247-3.482,30.829-10.84,4.879-7.47,0.872-5.955-1.574-6.945-0.662-5.227-0.256-18.283-2.689-7.043-3.614-18.893-0.452-2.466-2.44-5.141-2.846-3.869-2.394-1.239-1.246,2.348-4.269,2.505-1.5,3.9-2.669-2.866-5.541,1.639,0.971-6.112-11.483,1.5-6.387,5.725,4.951,1.653,7.752,12.086,5.647,0.9-7,15.182,2.544,13.883-2.971,7.883Z" transform="translate(-17.869 -286.574)" fill="#ff8080" stroke="#000" stroke-width="2"/><path d="M535.9,988.884l2.19-4.105-5.765-.872-1-5.489-5.115-2.3-2.368-5.3-9.457,5.994-1.856-7.312,5.548-4.7-0.931-4.656-0.033-2.787-5.22-2.61L504.1,935.241l-6.473,5.627-9.9,5.679,0.7,5.712-5.181,1.764-3.423-4.4,1.463-11.129-15.083-6.2-2.741.774-0.931-2.505-10.217-.794,2.256-4.512,6.079-11.739,2.689-.177,4.178,2.853,7.817-3.482,19.156,6.624,6.768-5.364-5.03-4.289,0.623-7.673-3.626-14.985,0.151-7.784,3.837-16.631,3.2-6.787,11.07,4.689L524.942,876.7l4.407-22.238,1.423-8.145,3.646-18.08,14.349-.669,1.128-13.87-0.085-2.656,1.908-8.119-3.922-4.191,1.043-2.682,6.459-4.7L566,794.79l-0.243,2.866,0.072,5.725-5.469,1.6-0.413,5.5,8.657,9.456L560.6,835.016l-4.512,3.522,4.394,4.938,4.951,1.653,7.745,12.086,5.653,0.9-7.01,15.182,2.551,13.883L571.4,895.06l-9.083,5.305-7.8,8.145-0.1,8.551,3.417,4.656,8.23,1.489,1.574,2.407-7.692,1.5-6.958,2.23,0.734,2.335,19.247-3.476,30.829-10.84,4.879-7.47,0.872-5.955,0.387,4.84-5.41,19.385,2.256,1.8,5.594-1.423,3.01,1.725-1.62,13.68-2.453-.007-19.28.092-12.945,2.938L565.9,954.179l9.417,14.29,0.6,2.82-7.181,4.459,5.771,9.476-1.41,1.908-4.459-1.521-0.964,2.171-0.039-2.6-6.978,3.023-0.171-1.377-21.9,6.6Z" transform="translate(-17.869 -286.574)" fill="#ff8080" stroke="#000" stroke-width="2"/><path d="M427.394,843.345l0.676,10.643-7.436,1.81-2.387,1.7-8.729-6.965-13.3,4.99-3.069,4.367-12.7-2.387-0.558.767-2.879-.072-2.1,5.325-2.787.754-8.112-2.663-8.381,2.125-5.6.407-1.981-2.125-4.21-2.846,4.3-6.873-7.705-2.072-2.387-5.056-5.541,1,2.879-8.407,6.02-6.44-1.646-2.472-15.595,12.263-8.44.892L305.6,837.691l-11.437-12.132-9.666-12.5-2.663-2.984-0.518-.833-8.676-10.722-7.227-3.948-8.584-.2-7.745,3.915L241.5,792.2l-2.269-11.706-8.178-17.772-6.21,1.869-4.932-15.68-5.647-.334,0.295-13.4,3.161-7.378,2.9-.164,4.072,13.85,13.706,4.23,7.942-13.07,1.81-1.5,6.446,9.319-0.662,8.46,11.752,7.968,2.872-.066,0.892-2.735-2.308-1.712L271,748.458l7.791,2.643,6.512-5.613,5.509-10.027,5.509,0.826,3.528,4.309-5.647,6.584,0.577,0.584,4.689-.833,10.958-6.014,0.361-2.59-6.755-5.115,4.558-6.866,7.692-.682,4.013-3.987,4.046-9.66,7.555-2.177,3.312,3.987,5.023-.675,9.522,4.859,3.463,7.266,6.932-7.817,6.25,4.774,5.279,0.551-4.722-6.879,1.279-2.558,8.151-.269,11.214-7.607,2.6,0.426,2.813,7.568,9.64,9.719,2.322,4.571,2.44-1.161,9.129-11.07,12.571-6.033-1.908-4.8-1.272-1.941,1.226-11.719-1.2-4.256,1.731-4.171-0.63-11.037-8.132-7.824,4.04-4.433,14.349,13.437,10.257,9.161,0.5,0.466,10.958,7.856,5.443-9.778,1.725-.754,6.552,15.949,11.129,0.885,0.42-16.913-4.007-7.574,4.8-2.367,10.722-1.718,4.584,2.853,8.139,0.249,3.915-7.752,8.807,1.285,1.8,8.394,7.01,4.964-0.446,11.109-1.115,5.554,2.046,1.974,7.515-3.141,6.046-5.613-3.253-7.666,2.781-7.9L537.9,659.133l-6.5-3.056,7.483-12.7,10.585,5.155,2.754,6.269,9.05,0.839,9.961,6.624,9.267,9.5-3.594,4.158-6-5.7-0.892-5.155-4.964,1.856,0.289,2.761L566.069,679l0.525,3.541-7.981,2.846-15.136,12.5-5.6,6.512,3.561,5.24,12.093,7.974,8.44,2.033-0.485,2.315,6.905,0.741-0.577,7.2-10.768,2.322,2.486,7.765-1.954,2.033-4.236,10.742,3.194-4.879,8.237,2.781,4.814-2.466,5.863,5.364,17.018,3.43-0.957,2.5,5.233,1.849,8.171-1.882,4.184,4.138-2.63,5.03,0.151,8.46,6.965,4.446-1.377,5.227-8.886,7.03-7.961-1.266-1.226,2.636-3.043.2-13.647,4.151-1.141,5.62-2.827-.492-7.745-7,0.243-2.866-10.709-3.436-6.453,4.7-1.043,2.682,3.915,4.191-1.908,8.119,0.092,2.656-1.134,13.87-14.349.669-3.646,18.08-1.43,8.145L524.9,876.692,511.441,860.5l-11.063-4.689-3.2,6.787-3.837,16.631-12.611,6.132-1.521,5.279-5.305-2.184-2.354,1.633,3.18-7.653-4.505-6.919,1-5.528-7.974,2.945-1.836-2.177-7.535,2.807-7.955-1.344-7.909-3.889-5.155-7.286-3.784-17.66Z" transform="translate(-17.869 -286.574)" fill="#ff8080" stroke="#000" stroke-width="2"/><path d="M958.624,529.542l-4.643-9.87-5.876-8.584-4.25-22.841-3.922-7.279,0.459-11.5-0.721-3.489-3.849-7.319,0.138-10.571-3.292-4.361-5.1-1.633-3-4.682-4.846-11.555-2.394-.99-0.118-4.236-17.116-9.037-12.926-4.945-8.965-6.525-6.925-5.338L865.764,384.6l-4.558-3.581-2-8.486-7.312-4.059-19.136-15.8-0.957-2.059-5.994-11.883-9.319-5.889-2.6.853-3.771-3.941-7.3-9.273-8.309-3.089-3.384-4.7,3.843-17.215-3.246-1.639-3.417-4.584-8.48-1.639-5.5,1.889-7.181,10.683-16.474-6.9-5.9,1.121-14.893,10.388-2.046,1.554-37.9,33.439-6.178,6.138-13.693,12.788-14.722,8.486-7.889,10.217-14.375,7.266-11.771,6.9-18.034,9.634-7.784,4.066-8.6.262-8.951,7.607-16.755,5.66-7.817,3.187-29.806-2.322-8.912.407-14.762,10.407-17.477,5.561,7.686,8.033-25.281,11.837-7.791-3.305-2.236.885-0.171,7.181,2.689-.23,4.2,9.122,6.066-.466,10.007,6.919,14.585,2.925,0.774-5.712,4.046-3.5,2.217,5.286,17.038-4.61-2.505,7.214,14.178-.99,4.964,2.656,12.473-2.2,1.581,1.994,4.282,9.83,12.29-6.538,4.256,9.745,2.617,0.689L571.149,485l4.958,0.616,4.564-2.728,0.885-2.853,3.876-3.4,9.135,4.932,7.45,9.627,8.473,1.233,4.86-8.67,10.06-5.915,2.839,0.7,5.692-.833,3.05,3.692,5.371-.1,6.335,3.705,8.879,10.637-3.876,4.145-9.916-4.236-2.1,1.83,1.777,11.568,5.325,6.945,0.957,5.272,8.086,1.561,6.971-4.046-0.551,5.214,5.292-1.371,0.525,7.686,4.282,3.581,2.781-.485,3.705,5.85,2.544,0.269,1.233,2.7,8.506,0.964,3.764,4.564,8.341-9.352,4.341,6.958,5.482,1.016,2.761,7.568,5.1,2.3-3.541,6.755,1.482,8.6-6.19,6.171-0.006,2.912,7.607,4.059-12.866,3.7,9.561,6.7-1.908,8.106,5.994,5.509,5.528,5.489,4.2-3.489,4.25,11.719,1.889-.138,0.971,5.345,5.325,1,3.017,7.555,8.427-3.83,14.86-7.9,4.512-6.86,8.42-1.023,7.909,3.659-3.417,4.256,6.755,4.348,1.889,8.263,5.325,1.613-0.144,2.866-3.305.925,4.04,7.214,9.9,5.043-0.866,11.142-16.874,11.07-14.2,3.292-0.558-.649-5.659,1.659-3.194,4.61,2.348,5.4L781.8,695.8l1.981,5.587,0.9,1.036,5.332,5.332-4.007,3.417L783.895,730.1l33.472-7.883,5.253,14.434,24.736-7.437,6.25-5.961-0.19-5.371,8.7-7.423,4.092-3.417,3.377,10.709-3.633,7.633,3.03,4.755,4.99,1.18,2.459,4.046,5.279,2,2.407-1.554,7.234-8.65-1.41-5.581,10.309-9.935,8.165,3,7.364,8.722,2.892,0.289,9.279-4.6-1.738-7.148,13.824-1.5,1.24-5.6-0.82-.721-5.017,2.085-3.285-6.991-6.427-4.905L938.11,683.18l3.2-8.06-2.472-8.322-7.161-5.83-3.187-3.961,5.233-1.541,8.2-13.345,0.754-8.742,15.634-7.9-1.049-12.794-2.1-1.5-1.9-2.374-5.666,1.521-8.833,12.06-5.207,2.748-10.663-10.624,9.22-10.034,5.128-1.594,0.407-5.469-1.423-14.316,1.666-2.354,5.443,1.128,9.8-6.02,1.436-.02-2.892-10.073,1.377-2.243,3.981-7.994,7.66,4.184,11.837-.551-2.184-8.217-4.04-7.712-8.053-3.482Z" transform="translate(-17.869 -286.574)" fill="#ff8080" stroke="#000" stroke-width="2"/><path d="M18.894,765.017l1.6,10.6,7.555,3.561,6.178,6.289-1.593,6.112,4.715,6.492,3.174-1.515,5.128,0.623L46,794.56l2.046-.472,0.885-2.964-1.469-1.672,1.777-1.679-9.9-1.259-0.525-3.948,13.306-5.791,1.738,5.646,9.24-.144L58.93,771.752l-6.374,1.338-3.653-4.6-4.525-.59,0.374-4.046,4.059-2.813,3.8-3.1,14.762,1.01,1.725-8.794,5.279,0.269,9.011,9.339,2.518-1.207,5.837,5.882,7.745-2.636,4.079-1.233,8.25-.944,8.093-1.954,1.056-2.748-3.764-7.955,4.328-7.391,5.666,0.944,6.742,5.522,3.443-4.348-3.653-4.348,1.351-8.453-4.322-2.125,0.039-2.433-4.446-3.017,4.053-3.954-2.6-13.64-5.482,2.328-5.8-1.318-2.1-1.371-0.138-2.781,7.4-3.659-8.473-.492-6.919-5.22-7.974,7.594-5.4,1.03-1.948,7.574-4.781-1.331L85.9,691.136l-7.837-3.259-1-1.443-3.9-3.613-11.975,6.82-7.817-3.1L43.724,704.58,25.086,746.695Z" transform="translate(-17.869 -286.574)" fill="#06c" stroke="#000" stroke-width="2"/><path d="M99.484,761.81l-7.752,2.636-5.83-5.882-2.518,1.2-9.011-9.332-5.279-.269-1.725,8.788-14.762-1-7.863,5.9-0.374,4.046,4.525,0.59,3.653,4.6,6.374-1.338L63.1,782.264l-9.24.144-1.744-5.646-13.3,5.791,0.525,3.948,9.9,1.259-1.777,1.679,1.475,1.672-0.892,2.964-2.039.472-0.354,2.623-5.128-.623-3.174,1.515-4.715-6.492-1.626,3.279,14.159,11.47,19.962,4.787,4.394,8.545,1.816-4.859,9.909,0.944,1.285,5.155,3.1-2.708,4.663,1.587,5.332,1.849,3.961-3.843,2.813,3.4,11.739,0.957,8.565-36.751-3.18-8.086,1.469-2.512,17.831-7.142-0.426-3.108-6.978-3.731-4.964,1.377-6.525-4.512-8.086,1.954-8.25.944Z" transform="translate(-17.869 -286.574)" fill="#ff8080" stroke="#000" stroke-width="2"/><path d="M246.356,732.654l-7.942,13.07L224.708,741.5l-4.072-13.857-2.9.171-3.161,7.378-0.295,13.4,5.647,0.328,4.932,15.68,6.21-1.869,8.178,17.772,2.269,11.706L249.1,798.3l-3.174,2.63-21.654,14.086-5.207,2.754L197.1,826.314l-9.929,2.807-16.618,2.6-24.251,2.7-7.194-6.066,2.046-4.171,15.674,0.262-6.178-.957L139.4,822.137,137.573,827l-5.476-1.049-9-1.6-8.938-2.217,8.558-36.751-3.18-8.086,1.475-2.512,17.825-7.142-0.426-3.108-6.971-3.731-4.971,1.377-6.519-4.512L121,754.925l-3.758-7.955,4.328-7.391,5.666,0.944,6.742,5.522,3.443-4.348-3.653-4.348,1.351-8.453-4.322-2.125,0.033-2.433-4.44-3.017,4.053-3.954-2.6-13.64-5.482,2.328-5.8-1.318-2.1-1.371-0.138-2.781,7.4-3.659-8.473-.492-6.919-5.22-7.974,7.594-5.4,1.03L91,707.412l-4.781-1.331-0.275-14.952-7.837-3.259-1-1.443-3.9-3.613-11.975,6.82-7.817-3.1,8.066-17.4,5.6-14.119-0.885-9,4.486-11.076,2.656-14.395,8.283-8.217,1.541-2.6,12.814-11.889,11.253-4.013,22.041-9.581,2.977-1.7,13.135-7.666,3.148-.4,11.693-1.213,10.3-5.548,9.352-6.637,6.355-10.224,11.188-3.85,23.044-12.434,30.7-18.985,10.768-8.919,5.424-.918,6.492-4.984,2.4,7.62,5.777,5.155,14.88-7.437,2.151,1.777,2.289,1.266-2.039,4.807,1.22,5.076-0.512,1.239,3.3,6.84-1.849,2.046,2.171,7.778-12.172,5.168,3.987,6.079,3.6,6.663,4.092,6.407,4.21,7.929-4.892,2.433-4.394,7.017,6.348,6.053,6.978,12.6-1.246,2.085,10.4,16.775,3.141,9.306,1.994,3.83,4.99-.571,3.837,3.154,10.021-8.6,7.8-2.636,7.745,0.6,4.348,2.663-0.282,5,15.2-.8,5.332,7.712-6.591,11.45,6.663,5.509,1.049,5.673-0.4,6.119-13.476-.131-7.817-7.712-8.657-.866-2.905,2.02-5.587,9.109-7.01,4.361,0.662,3.3,5.207,8.6-0.092,2.892-4.945,2.964-0.026,8.368-3.784,4.394-5.705.223,0.7,7.719-7.561,2.177-4.046,9.66-4.013,3.987-7.692.682-4.551,6.866,6.748,5.115-0.361,2.59-10.958,6.02-4.689.833-0.577-.59,5.647-6.584-3.528-4.3-5.509-.826-5.509,10.021-6.512,5.613-7.791-2.643-3.856,3.915,2.3,1.712-0.892,2.735-2.872.066-11.752-7.968,0.662-8.46-6.446-9.319Z" transform="translate(-17.869 -286.574)" fill="#ff8080" stroke="#000" stroke-width="2"/><path d="M551.207,488.85l-4.282-9.83-1.574-1.994-12.48,2.2-4.964-2.656-14.178.99,2.505-7.214-17.038,4.61-2.21-5.286-4.053,3.5-0.774,5.712-14.591-2.925-10-6.919-6.066.466-4.2-9.122-2.682.23,0.164-7.188,2.236-.879,7.791,3.305,25.281-11.837L482.4,435.98l-32.829,9.5-5.8.767-15.7,8.768L407.4,460.7l-7.515.321-17.621,1.639-5.056-2.984-22.979,4.9-7.1,1.515-5.719,1.187-21.477,6.82-14.263,3.64-10.624,5.633L279.7,493.67l-5.889,7.082,2.4,7.62,5.777,5.155,14.88-7.437,2.151,1.777,2.289,1.266-2.039,4.807,1.22,5.076-0.512,1.239,3.3,6.84-1.849,2.046,2.171,7.778-12.172,5.168,3.987,6.079,3.6,6.663,4.092,6.407,4.2,7.929-4.886,2.433-4.4,7.017,6.355,6.053,6.978,12.6-1.246,2.085,10.4,16.775,3.141,9.306,1.994,3.83,4.99-.571,3.837,3.154,10.021-8.6,7.8-2.636,7.738,0.6,4.348,2.663-0.275,5,15.2-.8,5.325,7.712-6.591,11.45,6.67,5.509,1.049,5.673-0.4,6.119-13.476-.131-7.817-7.712-8.663-.866-2.9,2.02-5.594,9.109-7,4.361,0.662,3.3,5.207,8.6-0.092,2.892-4.945,2.964-0.026,8.368-3.784,4.394-5.705.223,0.7,7.719,3.305,3.987,5.023-.675,9.522,4.859,3.463,7.266,6.932-7.817,6.25,4.774,5.279,0.551-4.722-6.879,1.279-2.558,8.151-.269,11.221-7.607,2.591,0.426,2.813,7.568,9.64,9.719,2.322,4.571,2.44-1.161,9.135-11.07,12.565-6.033-1.908-4.8-1.272-1.941,1.226-11.719-1.2-4.256,1.731-4.171-0.63-11.037-8.132-7.824,4.04-4.433,14.355,13.437,10.25,9.161,0.5,0.466,10.958,7.856,5.443-9.778,1.725-.754,6.552,15.949,11.129,0.885,0.42-16.913-4.007-7.574,4.8-2.367,10.722-1.718,4.584,2.853L508.556,671l3.915-7.752,8.807,1.285,1.81,8.394,7,4.964-0.446,11.109-1.115,5.554,2.046,1.974,7.515-3.141,6.046-5.613-3.253-7.666,2.781-7.9-5.745-13.142-6.5-3.056,7.483-12.7,10.585,5.161,2.754,6.263,9.05,0.846,9.961,6.617,9.267,9.5-3.594,4.158-6-5.7L570.038,665l-4.964,1.856,0.289,2.761,0.728,9.319,0.525,3.541-7.981,2.846-15.136,12.5-5.6,6.512,3.561,5.24,12.093,7.974,8.44,2.033-0.485,2.315,6.912,0.741-0.584,7.2-10.768,2.322,2.486,7.765-1.954,2.04L553.362,752.7l3.187-4.879,8.237,2.781,4.814-2.466,5.863,5.364,17.018,3.43-0.957,2.505,5.233,1.843,8.171-1.882,4.184,4.145,7.161,5.03L630,773.2l1.535,5.633,4.361,3.679,3.686,1.685,3.41-3.128,19.93-13.949,2.335-.452,0.066-8.427,9.548-.616,0.485-2.485-4.649-9.883,7.87-7.581,2.676,1.226,1.948-2.236,3.961-4.23,5.122-13.758-2.092-7.542,2.6-.754,3.436-7.292,21.681-4.768,1.653-8.25L725,693.32l2.669-1.58,15.824-4.394,3.626-3.954,7.3,0.839,7.515-7.705-4.263-9.942,5.791,1.03,7.575,8.729,5.719-.866,4.151,3.961,0.558,0.649,14.2-3.292,16.88-11.07,0.859-11.142-9.889-5.043-4.046-7.214,3.305-.925,0.151-2.866-5.332-1.613-1.889-8.263-6.748-4.348,3.417-4.256-7.909-3.659-8.414,1.023-4.512,6.86-14.86,7.9-8.427,3.83-3.017-7.555-5.325-1-0.964-5.345-1.889.138-4.25-11.719-4.2,3.489-5.528-5.489-5.994-5.509,1.908-8.106-9.561-6.7,12.866-3.7-7.607-4.059,0.006-2.912,6.184-6.171-1.475-8.6,3.541-6.755-5.109-2.3-2.761-7.568-5.482-1.016-4.341-6.958-8.335,9.352-3.764-4.564L684.651,542l-1.233-2.7-2.538-.269-3.705-5.85-2.787.485-4.276-3.581-0.525-7.686-5.3,1.371,0.551-5.214-6.965,4.046-8.093-1.561-0.957-5.272-5.332-6.945-1.777-11.568,2.1-1.83,9.922,4.236,3.876-4.145-8.879-10.637-6.335-3.705-5.364.1-3.056-3.692-5.686.833-2.846-.7-10.06,5.915-4.853,8.67-8.473-1.233-7.457-9.627-9.129-4.932-3.876,3.4-0.885,2.853-4.564,2.728-4.958-.616-0.774,7.811-2.623-.689-4.25-9.745Z" transform="translate(-17.869 -286.574)" fill="#ffc0c0" stroke="#000" stroke-width="2"/><text transform="translate(745.352 261.797)" font-size="152.448" font-family="DejaVu Sans" font-weight="700">6</text><text transform="translate(683.421 521.764)" font-size="137.227" font-family="DejaVu Sans" font-weight="700">2</text><text transform="translate(376.232 336.609)" font-size="152.448" font-family="DejaVu Sans" font-weight="700">10</text><text transform="translate(153.912 410.717)" font-size="152.448" font-family="DejaVu Sans" font-weight="700">9</text><text transform="translate(26.782 460.115)" font-size="62.546" font-family="DejaVu Sans" font-weight="700">7</text><text transform="translate(57.749 526.186)" font-size="58.318" font-family="DejaVu Sans" font-weight="700">8</text><text transform="translate(493.92 651.108)" font-size="58.318" font-family="DejaVu Sans" font-weight="700">4</text><text transform="translate(555.587 617.041)" font-size="52.398" font-family="DejaVu Sans" font-weight="700">3</text><text transform="translate(555.587 544.613)" font-size="31.579" font-family="DejaVu Sans" font-weight="700">1</text><text transform="translate(396.052 544.613)" font-size="131.435" font-family="DejaVu Sans" font-weight="700">5</text></svg>