<svg xmlns="http://www.w3.org/2000/svg" width="955.858" height="617.364" viewBox="0 0 955.858 617.364"><title>Députés sortants du Calvados en 2017</title><path d="M444.494,598.534l-12.457-.434-7.819,3.546-0.441,2.826-8.169,2.476-2.14,7.281,12.645,1.021,4.861,11.267-0.035.168-6.987,4.63-2.308,5.155-4.427-3.3-5-9.8-3.127,8.771,0.552,12.6-0.8,1.588-2.147.371-6.428,1.553-16.4-15.772-0.818.476L365.893,629.5l-4.28,9.708-14.6-4.385-9.687,10.624-10.568,1.3-2.308-1.581,5.756-9.3,11.365-13.7-0.343-1.294-5.1-3.686-15.352-1.923,7.728-11.232-0.951-2.707,5.938,0.014,6.826-5.728L339,586.832l-2.455-1.476L335,574.635l4.693-7.722-2.406-5.6,0.119-.448,2.385-5.427-1.742-5.337-0.846-1.811,1.3-2.609-5.322-6.316,1.371-8.54,7.155,3.525,17.9,9.2,2.546,1.56,2.2,1.182,3.84-5.1,15.177-4.329,5.6,6.477,5.679,8.834,22.6,3.9,0.231-2.434,14.674,6.567,15.282,5.826,5.392,0.336,3.182-4.511L456.6,563.2l7.309-10.142,12.743-2.161L487.5,560.64l2.028,3.161,7.61,2.385-6.624,2.665-1.105,8.372,2.679,8.183,4.14,6.155,4.385,1.49,1.825-1.714,9.386,0.609,2.567,8-5.665-1.315-3.036,1.294,5.539,8.015-2.56,1.546,0.657,8.862-2.105,2.14-4.057-7.833-2.413-7.267-8.19,2.959,0.832,4.77,4.336,1.958-3.9,25.773-6.847.539-5.812.727,0.4-2.944-7.98-7.365-0.434,2.909-9.33-4.434,4.819-7.512-8.666-8.5-5.547.287-1.28-6.316Z" transform="translate(-21.616 -367.069)" fill="#ff8080" stroke="#000" stroke-width="2"/><path d="M598.393,649.969l-0.972,2.518-7.91-1.112,5.392-17.205-9.113-1.322-8.162,2.462,1.854-4.805-7.722-3.462-10.288,6.421-8.379-3.658-2.028,2.427-3.945-7.043-5.6-1.882L525.2,617.586l-1.868,10.659,1.595,1.175-0.937,7.008-7.827,8.134-14.366-.126-7.952-3.658,3.9-25.78-4.336-1.951-0.832-4.777,8.2-2.951,2.413,7.267,4.057,7.833,2.105-2.14-0.657-8.862,2.56-1.546-5.547-8.015,3.042-1.294,5.658,1.315-2.56-8-9.393-.609-1.825,1.714-4.385-1.49-4.134-6.155-2.679-8.183,1.1-8.372,6.624-2.665-7.61-2.385-2.028-3.161,1.616-5.644,2.77-.965,10.442,2.091,5.749,1.986,8.96-1.532,3.049-.566,9.764,11.862-4.4,4.085L523.584,590.5l4.5,4.756,2.154-1.434,5.343-7.225,11.785,0.657,4.322-10.7,5.057,5.469,7.68,2.889,9.722-14.247,2.5-8.316,5.749,2.42,4.239,8.337,5.239-3.532,12.7-.168,11.785-3.441-6.232,12.869,6.169,16.275,12.163-1.021,14.212,3.014,10.323,13.785,11.442-.175,7.1,5.679,0.755,2.343-2.182-2.245-2.951.993-2.776,12.254-9.666,15.583-12.757,3.567-0.874-7.05-4.161,2.672-4.679-3.679-12.415,9.106-12.268,2.007Z" transform="translate(-21.616 -367.069)" fill="#ff8080" stroke="#000" stroke-width="2"/><path d="M471.233,701.32l-2.77-1.294L465.2,688.317l-6.637-6.295-0.643,2.714-8.141,18.171-2.867.14-4.183-2.909-3.77,1.4L438.417,713.9l-4.294,11.9-0.238,4.609,0.79,3.931-0.21,1.714,8.183,3.686,7.407,9.421,8.6-.14,2.987-.727,10.113,4.406,6.134,9.68,7.547-1.322,5.623,6.574-0.986,5.882,10.148,5.316,22.892-3.8,6.84,22.046,1.147,6.071-3.287,8.6-16.01-2.7-4.119,4.315-1.2,11.666-2.455,1.714L498.1,814.863l-18.7,8.421L468.016,830.7l-1.315,1.385,5.756,16.758-1.9,8.561-6.1,1.308-2.714-1.224-8.96,7.225-5.672-1.42-0.888-2.854-6.169,6.19-21.654-1.9-1.112,5.455,11.281,1.147,6.225,4.819,17.122,0.727,4.938-2.147,1.434,5.511,8.554-3.161,5.693,9.967,10.393,10.8,10.68-1.567,1.441-.378,2.448,4.931L491.8,902.52l-0.482,5.679,13.408,11.757,1.021,0.616,9.379-12.366-0.266-5.427-3.357-4.322,4.3-10.19,12.533-.105,5.287,7.722,9.057-2.924,9.092-.713,8.512,3.315,6.826,0.217,8.68,5.427,7.547,2.28,6.1-5.239,3.4,4.98,10.988,4.224,3.763,7.784,13.3,6.756,2-2.042,13.219,5.364L625,910.962l1.553-2.679,8.61-2.182,1.763-8.652,5.91,6.106,4.812,0.951,13.9-4.259,4.945,3.336,3.224-1.825,2.867-1.14,3.427-8.631L692.771,877.3l-0.147-3.616,10.554-2.609,3.952,4.175,0.28-.2L705.228,864.6l20.01-10.288,15.646-3.707,3.749-2.966,0.93-4.763,3.406-8.1,1.2-8.491,8.889-10.7,12.331,1.693,14.184-12.505,1.35-2.084,5.161,1.644,5.784,8.952,2.881,12.072,2.581,1.825,9.253-1.658,4.973-2.63,4.847-10.107,16.457-4.868,5.728,5.581,8.484-1.993,3.273-14.527,10.26-5.372,8.659-.818,1.168,13.82,2.7,1.1L894.6,800.9l14.569,10.358,13.9-6.2,12.387-20.773,16,8.889-2.5,9.043,7.526,1.916L968,784.865l-3.238-12.512,4.148-15.947,7.323-14.212-12.785-11.806-8.918-.727-14.611-3.791-3.749-11.477-2.133-2.2-2.518,1.741-2.294-1.979,7.98-8.071-0.727-5.623,0.056-3.154,7.742-5.309,9.414,0.091,5.442,3.022-0.482-12.729-8.491-.979,5.483-5.861-0.762-2.49-5.442-.182-0.706-2.679-11.967-2.476-15.212,1.574-2.182-2.161-10.813,5.1L893,658.32l-5.295,5.9-13.911,10.092-4.994-2.553-3.875-3.245-5.1-2.014L858,653.557l-9.071,1.686-2.49-1.8,1.693-5.945L860.8,634.785l11.673,1.315,4.455-2.553-0.853-7.679-3.973-3.658-5.6.525-2.357-4.833-6.029,1.322-5.721-2.147-1.734-8.512-10.4-3.707L834,611.578l-2.958.2-2.749-5.239-5.651-1.049L820.317,597l-6.218,8.351L808.56,604l-8.435,3.49-10.162,6.847-3.812,8.351-7.589-8.372-10.3-3.119-2.63-6.33,5.784-1.042,5.176-7.323,5.512-1.259,2.084-5.581,0.434-.2,5.966-.5,12.939-6.9-2.245-11.177-4.134-1.511-5.239-6.113-6.84-4.875-3.812-2.014,5.91-14.6-4.6-3.567-5.386,3.07-12.009-2.224-2.175-5.812-1.986-2.2-3.015,3.007L749.221,546.2l1.126,5.427-8.5-1.084L736.66,553l-2.294-1.972-8.113,2.063-8.071-2.553,0.119,6.211-4.5,8.12-14.016,6.267-9.778-2.511-3.287.923-6.581,5.707-11.24,3.259-7.687-2.889-12.3-.147-16.877,14.065-4.224,2.294,0.581,2.357,14.212,3.014L652.927,611l11.45-.182,7.092,5.679,0.762,2.35-2.182-2.252-2.951.993-2.776,12.254-9.666,15.583L641.9,648.991l-5.973,18.786,8.309,0.175,1.755-1.86,7.435,1.518,5.267,11.708-5.427,2.21L652.7,693.25l-2.721,5.064-9.764-3.56-2.826.944-7.351-4.616-3.812,4.336-19.367-8.26-4.029,3.98-14.464-3.2-14.5,5.749-9.519,3.672-1.5-1.986-2.924-3.252-8.939-2.693-7.029,6.169-15.016-3.945-1.854-3.728-21.514,5.442-14.618-5.784-4.588,1.315,1.979,5.351-2.476,1.287-7.351-8.19-0.8,8.491Z" transform="translate(-21.616 -367.069)" fill="#ff8080" stroke="#000" stroke-width="2"/><path d="M894.839,502.022l7.994-11.96-3.819-13.652-10.624-2.826,5.295-3.994,9.869-19.444-9.281-16.4-3.763-12.079,4.371-14.226L888.188,387l-0.35-18.821-6.9.755-5.973.329-31.341,1.308-22.675,10.862-21.339,7.281-9.778,3.49L773.805,404.72,755.977,426.66l-2.028-1.888-8.141,10.813-2.972,2.924-12.995,10.127-10.177,8.386-16.527,10.491-16.289,6.372-15.009,6.435-12.492,8.309-3.14-.273-27.83,7.84-18.087,3.063-21.745.007-11.554,4.015-16.744-7.435-15.038-2.553-4.966-1.6-27.536,26.354-4.224-1.769-7.253,18.213-10.142,12.953-1.315,4.98,2.175,1.609,10.442,2.091,5.749,1.986,8.96-1.532,3.049-.566,9.764,11.862-4.4,4.085-1.874,18.611,4.5,4.756,2.154-1.434,5.343-7.225,11.778,0.664,4.329-10.708L556.8,582.1l7.68,2.889L574.2,570.74l2.5-8.323,5.749,2.42,4.239,8.337,5.239-3.532,12.7-.168,11.785-3.434-6.232,12.869,6.169,16.275,12.163-1.021-0.581-2.357,4.224-2.294,16.877-14.065,12.3,0.147,7.693,2.889,11.233-3.259,6.589-5.707,3.28-.923,9.785,2.511,14.016-6.267,4.49-8.113-0.112-6.218,8.071,2.553L734.492,551l2.287,1.972,5.19-2.448,8.5,1.084-1.126-5.427,8.778-12.163,3.015-3.007,1.986,2.2,2.168,5.812,12.009,2.224,5.392-3.07,4.6,3.567-5.91,14.6,3.812,2.014,6.84,4.875,5.239,6.113,4.127,1.511,2.252,11.177-12.939,6.9-5.966.5-0.434.21-2.084,5.574-5.512,1.259-5.176,7.323-5.784,1.042,2.63,6.33,10.3,3.119,7.589,8.372,3.812-8.351,10.162-6.847,8.435-3.49,5.539,1.357,6.225-8.351,2.322,8.491,5.651,1.049,2.742,5.239,2.958-.2,6.274-6.721,10.4,3.707,1.734,8.519,5.721,2.14,6.029-1.322,2.357,4.833,5.6-.525,3.973,3.658,0.853,7.679-4.462,2.553-11.673-1.315-12.666,12.708-1.693,5.945,2.49,1.811,9.071-1.693,1.825,12.946,5.1,2.014,3.875,3.245,4.994,2.553,13.911-10.092,5.295-5.9L908.682,670l10.813-5.1,2.189,2.161,15.212-1.574,11.967,2.476,5.714-18.206,0.175-1.2-0.846-5.819,8.589-2.035,5.735-10.344-3.35-4.273-10.666.028-1.315-2.392-11.421-3.343-0.916-.79,2.511-5.148,1.1-17.1-2.252-10.253,3.154-15.59-0.056-3.224-2.937-1.322-0.434-2.972-2.881-.741-9.379-.518-17.569-13.261-9.358-15.87-0.147-3.077,2.987-.825,8.889-.727,10.365-6.057,14.184-3.35,0.448-19.814-10.638-8.533-11.47-.266-14.324,15.177Z" transform="translate(-21.616 -367.069)" fill="#06c" stroke="#000" stroke-width="2"/><path d="M172.689,638.848l1.147-2.854-20.129-12.771-0.742-2.966,4.483-4.134-16.317-3.2,3.77-4.854,8.736,3.616,5.826-2.266,9.253-16.352,1.126-8.819L183.6,576.2l-8.463-2.77-11.512-15.268-2.035-5.987,2.175-2.357-2.728-.762-3.42,4.518-0.9,8.106-5.833,2.007L140.83,578.8l-7.693,4.973-8.974-.8-0.853-3.042-11.45-5.057-9.253-.133L102.3,574.3l-7.582-15.975-6.057-.147-4.022-4.371L81.9,554.862l-9.6-6.721-7.806-11.8-2.937,1.4-1.588-7.861L57.789,528.1l-0.916,2.637-2.588-1.1-4.833-7.847-12.107-9.106-0.007-3.07L43,508.708l1.6-2.609-3.574-4.553-4.511-3.014-1.252-5.42L33.7,477.969l15.548-15.59-3.756-26.361L48,439.725l-0.888-8.771L63.2,412.686l9.491-7.61,24.081,0.056,8.267-3.546,8.889-2.77,11.575,0.434,13.953-.531,21.507,3.6,7.47,6.994L186.943,421.4l12.289,5.714,20.024,6.749,22.78,4.064,20.122,5.322,5.6-1.371,15.8,1.979,30.683,0.937,13.317,0.622,11.883,4.252,8.155,0.42,10.659-.629,12.393-2.336,11.519-2.455,28.165,2.049,23.339,5.854,19.626,2.189,21.451,1.8,12.89,5.322,9.708,4.609,11.785,7.959,18.122,11.617,12.925,5.623-27.536,26.354-4.224-1.769-7.253,18.213-10.142,12.953-1.322,4.98,2.182,1.609-2.77.972-1.609,5.637L476.66,550.9l-12.75,2.161L456.6,563.2l-0.581-1.336-3.182,4.511-5.392-.336-15.282-5.826L417.5,553.645l-0.238,2.434-22.6-3.9-5.679-8.834-5.6-6.477L368.2,541.2l-3.847,5.1-2.2-1.182-2.546-1.56-17.9-9.2-7.162-3.525-1.371,8.54,5.33,6.316-1.308,2.609,0.846,1.811,1.742,5.337-2.385,5.427-0.119.448,2.406,5.6-4.686,7.722,1.539,10.722L339,586.832l1.322,8.771L333.5,601.33l-5.945-.014,0.951,2.707-7.728,11.232,15.359,1.923,5.092,3.686,0.343,1.294-11.365,13.7-5.756,9.3L319.44,657.5,305.6,664.431l-9.89,19.024-8.54-3.294-7.141-9.253-8.659,2.021L243.106,683.98l-9.827-.322L234.091,690,228.7,701.563l-10.9,4.826-9.393,11.743-3.028-.357L190.3,709.683l3.127-8.876,0.651-3.91-0.385-4.232-0.727-6.183-5.057-7.826,1.266-12.512,0.5-2.56-0.812-10.421-8.757-.147-18.8,14.415,6.2-11.086,5.931-1.937,9.344-8.5,1.175-2.972-5.217-3.532Z" transform="translate(-21.616 -367.069)" fill="#ffc0c0" stroke="#000" stroke-width="2"/><path d="M228.691,701.557l-10.9,4.819L208.4,718.119l-3.028-.357-15.079-8.092-9.127,8.393,3.742,4.959,8.827,2,4.35,4.427,0.231,5.994-13.653,3.637-5.693,10.26-5.952-.273-2.595,11.6-3.343,8.2-17.338,20.43-6.246.972-21.227,13.645-4.21.511-5.015-3.21-8.834.434-3.707-8.176-17.527,3.392-0.455,10.568-8.169,1.623,4.084,3.2-0.8,8.8-5.994,6.554,0.07,2.979,5.274,1.791,8.652-3.763,18.345-2.469,4.553,4.162L103.587,845.3,87.361,855.337l-2.119,6.12L81.43,870.5,75.17,876l-5.714,1.147-7.141-8.995-4.6,3.784-1.763,8.414-10.925,8.973-0.469,7.414-6.078-.644-6.791,10.218L23.2,907.449l0.105,1.329-0.636,8.6,15.912,4.91,1.546,2.532,1.161-.224,7.183-.217,1.1,2.364,6.2,0.65,4.371,11.428,1.854,2.6-3.875,8.015,1.406,2.881,7.064,6.63,15.079,5.379,7.281-7.812,5.4-.713,12.107,8.973L120,960.9l11.394,2.371,4.777-10.428L147,951.953l5.064,7.672,10.708,6.512,17.87,5.294,4.518,7.547,8.869,0.622,9.463-6.721,12.282-1.161,6.665-6.372,0.965,1.5-12.219,16.534,9.281-.224,10.162-6.875,7.435-9.61,1.455-5.945,4.966-3.455,2.539-4.931,21.808-4.756,11.03-6.491,6.372-.692,3.679-5.274,15.632-14.555-5.141-2.308-8.722-11.2,8.47-8.54,4.91,3.56,17.884,3.462,5.644-2.231L327.406,915.7l12.436,0.217,10.75-6.253,3.9-.937,11.645-1.476,6.218,5.448,5.33-3.427,6.665-10.8,15.254-3.644,4.952,0.119,3.378,3.8,8.6-2.77-0.916-6.078,11.568-3.238,4.9-7.84,2.749-2.672-6.232-4.819-11.275-1.147,1.105-5.455,21.661,1.9,6.169-6.19,0.888,2.847,5.665,1.427,8.96-7.232,2.714,1.231,6.1-1.308,1.9-8.561-5.763-16.758,1.322-1.385,11.394-7.421,18.7-8.421,5.91,11.883,2.462-1.714,1.2-11.666,4.119-4.315,16.01,2.7,3.28-8.6-1.147-6.071-6.833-22.046-22.9,3.8-10.148-5.316,0.993-5.882-5.63-6.574-7.547,1.322-6.134-9.68-10.107-4.406-2.993.727-8.6.14-7.407-9.428-8.183-3.679,0.2-1.714L433.9,730.4l0.231-4.6,4.294-11.9,0.546-12.366,3.77-1.4,4.175,2.909,2.867-.14,8.148-18.171,0.636-2.721,6.644,6.3,3.259,11.708,2.77,1.294,6.546-5.588,0.8-8.491,7.351,8.19,2.476-1.28-1.986-5.351,4.6-1.315,14.611,5.784,21.521-5.448L529,691.547l15.016,3.945,7.036-6.176,8.931,2.7,2.924,3.252,1.5,1.986,9.519-3.672,14.5-5.756,14.464,3.2,4.029-3.973,19.367,8.26,3.812-4.336,7.351,4.616,2.826-.944,9.764,3.56,2.728-5.064,0.566-11.729,5.421-2.2L653.479,667.5l-7.428-1.525-1.755,1.867-8.309-.175,5.98-18.786-0.874-7.057-4.169,2.679-4.679-3.679-12.407,9.106-12.275,2.007-9.169-1.979-0.972,2.518-7.91-1.112,5.392-17.205-9.106-1.322-8.162,2.462,1.846-4.812-7.715-3.455-10.3,6.421L553.1,629.8l-2.028,2.42-3.952-7.036-5.6-1.882-16.317-5.721-1.854,10.653,1.595,1.175-0.937,7.008-7.827,8.134-14.366-.126-7.959-3.658-6.847.539-5.812.727,0.4-2.944-7.98-7.365-0.434,2.909-9.33-4.441,4.819-7.5-8.666-8.5-5.547.287-1.28-6.316-8.68-9.638-12.463-.434-7.819,3.539-0.434,2.833-8.169,2.476-2.147,7.281,12.653,1.021,4.854,11.267-0.035.161-6.987,4.637-2.308,5.155-4.427-3.3-5-9.8-3.127,8.771,0.552,12.6-0.8,1.595-2.147.371-6.421,1.546-16.4-15.765-0.818.476-17.163-3.462-4.28,9.7-14.6-4.378-9.687,10.624-10.561,1.3-2.308-1.581-5.015,12.338L305.6,664.411l-9.89,19.024-8.54-3.294-7.141-9.253-8.652,2.021L243.119,683.96l-9.834-.322,0.818,6.344Z" transform="translate(-21.616 -367.069)" fill="#ffd1dc" stroke="#000" stroke-width="2"/><text transform="translate(183.149 236.155)" font-size="162.588" font-family="DejaVu Sans" font-weight="700">5</text><text transform="translate(742.225 154.166)" font-size="162.588" font-family="DejaVu Sans" font-weight="700">4</text><text transform="translate(649.232 412.529)" font-size="162.588" font-family="DejaVu Sans" font-weight="700">3</text><text transform="translate(242.76 465.917)" font-size="162.588" font-family="DejaVu Sans" font-weight="700">6</text><text transform="translate(326.94 255.71)" font-size="94.279" font-family="DejaVu Sans" font-weight="700">1</text><text transform="translate(553.322 251.273)" font-size="46.481" font-family="DejaVu Sans" font-weight="700">2</text></svg>