<svg xmlns="http://www.w3.org/2000/svg" width="971.838" height="634.676" viewBox="0 0 971.838 634.676"><title>Députés sortants de l&amp;apos;Orne en 2017</title><path d="M527.811,797.129L525.75,799l-8.32-.056,0.056,0.708-8.668,3.235-6.8,11.586,4.253,6.718-1.223,2.459-10.828-.373-8.761.149-9.413-7.5-0.993-5.042-12.424,1.645-1.018,4.88-15.454,7.649,0.906,2.409-2.564-5.464-1.484-4.843,1.943-4.284-2.068-28.3,1.248-1.186,2.384-15.913-6.252-4.713-4.942.341-1.912,4.669-2.545.4-14.733,1.341-15.621-3.812-5.855-4.756,0.422-10.214-2.844-4.247,1.769-1.6-2.788-8.916-0.993-4.9-5.346-5.309-2.44.652,2.862-10,11.238-5.141,0.4-5.259-18.279-11.07-6.587-8-2.185-3.378-6.072-5.278-7.115,1.85-7.693-2.409-3.806-3.8-3.5,9.5-4.315,3.284-1.639,2.248,9.245,9.624-4.1,7.153-9.264,5.9-1.677,10.524-7.252-.95-0.317-5.2-2.217-1.353-9.959-1.167-5.954-3.676-7.78,11.033-0.975,5.3-8.947,4.719,0.341,10.133-6.681-3-1.2-4.433-4.036-2.384-9.288-3.961,0.708-4.6-2.98-2.918-4.129,3.235-10.53-.733,0.515-.652L237.441,716.2l-2.03,1.683-8.121.23-6.376,8.723-7.631-.435-8.767-5.346-4.936,8.99-8.593,4.781-9.63,14.8-2.552.639-3.3-3.732-3.9,6.321-11.381-1.527-0.584-1.335-10.2,9.469-21.421,12.8,0.155-7.451-2.242-16.671L120.3,738.9l-0.13,2.515-2.5-.3-5.2,5.352,0.031,4.973-2.31,1-5.1,1.018-2.968-3.763-7.227,2.043-4.377-2.5-4,3.514-1.291,5.3,10.22,9.158L74.055,778.31l-4.5-.3-4.743-4.29-2.8-4.57,0.739-13.492-8.2.124-10.2,8.233L41.26,753.263l1.366-2.2-3.154-3.893L31.754,739.7,26.9,729.849l-7.668-2.893,2.291-5.805,4.489-9.655,10.617-8.605,9.754-12.927,1.732-1.5,7.948-1.85,7.842-7.8L64.538,668l3.868-12.734,4.712-2.707,3.489-6.923-0.7-12.945,1.726-1.956,5.147,0.317-1.9-4.675L70.9,623.131l-5.458-17.31L65.2,603.1l6.091-5.2,2.664-7.631,8.251-6.408,2.521,1.018,2.707,7.705,5.818,5.532,10.872-23.513,20.1,7.612,2.378,0.193-0.428-9.822,2.136-4.272-1.515-4.793,4.886,1,8,0.807,9.742,4.563,14.349,6.96-7.1,7.587-3.943,9.456,13.635,14.318,2.111,4.588-4.415,4.34,19.515,14.578,5.054-2.13,1.769-5.141,5.135-1.894,0.627-5.47,4.961-.534,5.265,5.358,13.206,14.113,8.165-7.227,5.3,1.223,12.778-14.038,5-.888,13.095,2.577,3.887-3.632,12.809-2.912,6.488-11.548,12.747-3.409,6.184-8.661,6.849,7.059-6.209,11.654L288.808,617.8l-7.339,7.786,0.906,1.683,7.469,3.328,5.029-2.161,8.14,0.726,3.607-7.016,8.1,0.13,7.457-7.252,6.948,14.082,1.024,8.09L327,641.591l0.013,5.427,6.265-4.787,5.178-9.09,5.135,1.273,2.322,5.166,6.73-2.775,4.11,5.787,1.832-4.806,7.749-.006,6.054-4.408,4.129-7.246,7.271-4.191,7.171-3.049,3.222,4.061,5.768-4.737,3.427-6.594,4.563,1.881,0.59,2.515-3.992,9.437L417.9,640.231l7.469,0.025,3.949,6.4,4.669-7.842,4.166-2.577,12,3.229,3.949-2.974,5.265,6.079-0.813,7.7,3.21,4.346,4.9-2.1,5.867-11.952,13.014-3.489,2.533,4.737,4.893,2.335,1.769-6.532,10.3,0.646,8.531,6.29,4.166-3.334L526,623.579l1.987-1.956,5.259,1.875,4.079-9.959-10.959-11.313-2.359-4.843,2.707-4.663,6.209,5.52,5.513-.844L551.2,603l8.034-.019-2.242-8.165,15.777,1.254,11.592-5.948,7.9-.087,1.974-6.2,2.968-4.141,12.722-1.093,2.664,7.562,6.06,5.3,0.279,2.682,6.016,3.75,5.476-8.084,6.327,3.62,3.266-3.738,7.469-.906,6.569-3.769,7.053-1.937,2.906,10.735,5.464-3.607,7.674,7.767,2.142-1.7,5.085,12.734,9.319,4.607-3.092,4.477,2.763,4.7,8.711-2.527,9.965,9.6-14.678,15.6-1.726,1.633,0.019,9.462,0.447,0.993-1.732,17.41,2.273,1.546,2.235,10.238,3.011,3.4-1.006,1.248-12.045,18.459,0.186,2.782-5.185.789-2.93,4.334-5.166-.689-2.968,2.875-4.017-1.285-2.67,3.589-3.576-1.329-5.246,1.962-2.415.54-3.173,13.69L639.43,749.421l-8.879-5.278-7.581-1.3-5.042.807-3.8-3.284-2.161,1.366-0.565,2.806-6.464,3.881L592.3,749.688l-3.961-.745-12.145,8-1.583,1.118-10.357-1.18-1.08,5.284,1.776,5.029-4.98.41-6.178-4.986-4.532,1.341,5.787,7.668,1.813,1.763-2.639,4.085-14.535,2.993-2.08-1.428-5.408,2.912Z" transform="translate(-17.928 -348.671)" fill="#ff8080" stroke="#000" stroke-width="2"/><path d="M698.81,686.81l-2.242-10.238-2.266-1.546,1.732-17.416-0.447-.987-0.019-9.462,1.726-1.633,14.678-15.6L702,620.332l-8.7,2.527-2.763-4.7,3.092-4.477-9.319-4.607-5.085-12.734-2.142,1.7-7.68-7.767-5.458,3.607-2.906-10.735-7.053,1.937-6.575,3.769-7.463.906-3.266,3.738-6.327-3.62-5.476,8.084-6.016-3.75-0.279-2.682-6.06-5.3-2.664-7.562-12.722,1.086-2.968,4.141-18.832-3.39-12.561-5.619-0.559-2.732,2.968-9.22,2.539,0.546,4.886-6.016,2.44-10.1-1.416-2.2,4.042-.379,8.258-1.167,13.784-14.2-1.652-9.146,10.3-8.636-1.229-8.165-2.26-1.614-6.128-3.607-7.029.528-7.743-9.636,0.044-7.947,3.508-9.891-1.857-.813,2.763-18.416,4.6-2.2-3-4.141-4.557,2.788-7.563-2.608-5.967-5.34,0.211-2.695-1.98-1.316-2.359,5.079-10.431,9.431-5.042-1.217-2.515-.82-1.44-7.736,12.567-9.493-0.5-2.6-10.015.751-10,2.521-5.855-4.911-4.315-13.324-9.121,4.781,1.223-13.424-3.111-10.065-4.421-2.272-7.948,1.577,1.068-7.531,7.891-9.506,10.946,1.5L539.4,368.2l1.2-1.844,4.576,1.453,5.135,7.947,2.558,10.717,2.291,1.627,8.22-1.478,4.415-2.335,4.3-8.972L586.708,371l5.079,4.961,7.538-1.776,2.906-12.9,9.1-4.762,7.693-.733,1.037,12.269,2.39,0.975,13.728-4.272,12.933,9.2,12.343-5.5,11-18.44,14.206,7.891-2.217,8.028,6.681,1.707-9.288,17.441-2.316,1.459-2.484,13.3,16.8,9.7,1.974,7.985,2.384,1.465,5.545,0.733,7.041-4.2-3.663,7.811,7.525,1.217,0.913-6.445,8.059,0.6,11.7,6.644,12.846-1.627,15.3,4.886,2.068-1.726,12.8-13.479,9.288,4.526,0.521,2.577-5.613,4.992,1.931,4.812,10.152-2.484-1.894,7.978,2.837,7.774,4.638,2.657,7.563-2.639-13.672,18.887,11.027,5.874,9.636,8.258,6.855,2.459,15.913,14.194,7.171,2.024,4.98,2.378,1.683,2.068,7.463,0.317,4.706,6.457,8.618,5.923,0.54,2.949-3.018,4.756,12.654,18.54-6.016,5.594-2.744,7.823-7.836,2.875-7.829,8.121,1.18,2.415,10.648-.124,8.506,6.525,0.224,2.08-2.67,4.415,0.77,9.574,2.279,4,6.29,3.3,0.969,0.056,7.538-6.706,9.68,3.787-2.564,4.756L907.911,608l-0.385,12.244,4.725,1.527-6.768,11.915,1.819,7.687,12.412-.124,1.794,18.416,9.475,9.568,13.554,1.689,9.146,6.134,8.146,3.564,6.035,8.81-6.836,8.419,4.029,3.1L984,709.132l-6.892,15.311-6.917,4.762L977.5,734l-1.235,9.959-9.158,3.707,1.341,5,1.273,8.053,7.885,11,10,2.664,0.993,2.527-16.429,16.429,1.633,13.095-9.959,8.786-1.577,5.147L952.143,831.5l-3.974-2.378-1.813,1.726-6.693,11.263-7.743-.4-7.991,6.445-7.32-3.011,0.161,4.849-6.594,3.564-4.992-5.644-16.031,6.432-1.372.7-2.167,6.141-6.246,8.612-0.323,5.315-6.364,11.648,1.912,1.85,9.574-3.154,9.965,8.456,5.054,1.36-6.873,4.446-4.253,10.245,2.924,4.737-2.217,3.005,18.359,30.02L911,957.388l-12.039,5.656,0.068,5.365-4.787,2.365-20.3,11.374-2.049-1.6-8.81-5.6-3.44-7.109-4.483.019-1.776-3.663-2.2-7.873-5.824-5.824-3.812-10.238-5.5-6.184-1.838-10.481-5.228-.733-11.368-6.712-5.122,1.465-5.731,5.365,3.477,15.174-3.477.782-0.906-4.88-4.086-3.272-4.917,1.726-10.238-1.428-7.668.112-17.1-4.551-5,.726-0.4-8.357-3.3-4.532-9.363-1.664-9.574-12.6,1.782-5,4.234-3.067-7.513-10.717-8.233,5.65-6.712-4.166-10.791.515-6.786-3.21-1.211-4.9-6.4-5.265-3.682,4.1-6.966-3.949-6.054-9.189-1.72-8.1,3.613-3.372-3.651-17.447L673.121,821l-2.527-2.974-0.633-18.416,3.607-3.8,1.167-7.854-3.011-4.4-4.321-5.9-2.44-11-5.445-6.47-1.478.832-4.787-1.857-8.693-8.692-5.166-1.025,12.256-12.312,3.173-13.69,2.415-.54,5.24-1.962,3.583,1.323,2.67-3.582,4.017,1.285,2.968-2.881,5.166,0.7,2.93-4.334,5.185-.789-0.186-2.788,12.045-18.453,1.006-1.248Z" transform="translate(-17.928 -348.671)" fill="#06c" stroke="#000" stroke-width="2"/><path d="M204.118,451.642l-3.005-3.371-4.4-.106L183.181,451.4l-5.917,9.587-4.731,3.042-5.52-4.837-10.338,1.31-3.458.832-9.549,5.551-11.033-.193,1.049-11-5.017,1.987L112.8,454.6l-4.359-3.16-7.519,7.581,7.743,9.947,4.563,2.049-13.864,12.9L96.089,488.6l-5.65.615-9.792,5.762L61.289,499.2l-2.254,4.377-4.408,3.067-1.291,5.278-6.6,8.531-9.022,6.1-8.239.2-5.725,5.315,0.913,10.567,4.017,3.129,5.588-.962,1.5-2.285,5.3,0.9,6.147,5.551,5.47,12.318,9.7,6.178,5.029,5.122,12.7,3.881,4.3,3.086,0.286,5.371,2.707,7.705,5.818,5.532,10.872-23.513,20.1,7.612,2.378,0.193-0.422-9.822,2.13-4.272-1.515-4.793,4.886,1,8,0.807,9.742,4.57,14.349,6.954-7.1,7.587-3.943,9.456,13.635,14.318,2.111,4.588-4.415,4.34,19.521,14.585,5.048-2.136,1.769-5.141,5.135-1.894,0.627-5.47,4.961-.534,5.265,5.358,13.206,14.113,8.165-7.227,5.3,1.223,12.778-14.038,5.011-.888,13.088,2.577,3.887-3.632,12.809-2.912,6.488-11.548,12.747-3.409,6.184-8.661,6.849,7.059-6.209,11.654-17.882,11.579-7.339,7.786,0.906,1.683,7.469,3.328,5.029-2.161,8.14,0.726,3.607-7.016,8.1,0.13,7.457-7.252,6.948,14.088,1.024,8.084-3.154,4.39,0.013,5.427,6.265-4.787,5.178-9.09,5.135,1.273,2.322,5.166,6.73-2.775,4.11,5.787,1.832-4.806,7.749-.006,6.054-4.408,4.129-7.246,7.271-4.191,7.171-3.049,3.222,4.061,5.768-4.737,3.427-6.594,4.57,1.881,0.584,2.515-3.992,9.437,13.368,14.789,7.469,0.019,3.949,6.4,4.669-7.842,4.166-2.577,12,3.229,3.949-2.974,5.265,6.079-0.813,7.7,3.21,4.346,4.9-2.1L472.5,640.6l13.02-3.489,2.527,4.737,4.893,2.335,1.769-6.525,10.3,0.646,8.531,6.29,4.166-3.334,8.264-17.633,1.987-1.956,5.259,1.875,4.079-9.959-10.952-11.313-2.365-4.843,2.707-4.663,6.209,5.52,5.513-.844,12.766,5.6,8.04-.019-2.248-8.165,15.777,1.254,11.592-5.948,7.9-.087,1.974-6.2-18.832-3.39-12.554-5.625-0.565-2.732,2.968-9.214,2.545,0.54,4.88-6.016,2.44-10.1-1.416-2.2,4.042-.373,8.258-1.173,13.784-14.2-1.652-9.146,10.3-8.636-1.229-8.165-2.26-1.608-6.128-3.607-7.029.522-7.743-9.636,0.05-7.947,3.5-9.891-1.857-.813,2.763-18.416,4.6-2.2-3-4.141-4.557,2.782-7.563-2.608L572,440.56l0.211-2.7-1.98-1.316-2.359,5.079-10.431,9.431-5.042-1.211-2.515-.826-1.44-7.736,12.573-9.493-0.5-2.6-10.021.758-10,2.515-5.849-4.911-4.321-13.324L521.21,419l1.217-13.424-3.111-10.058-4.421-2.279-7.948,1.577-3.018,7.2-0.826,4.222-3.328,2.633-13.9,3.291-17.764,9.133,1.937,9.282-0.248.18-3.514-3.713-9.369,2.316,0.13,3.216-14.876,13.032-3.042,7.662-2.539,1.018-2.862,1.614-4.389-2.956L417,456.722l-4.278-.844-5.246-5.42-1.565,7.687-7.643,1.937-1.378,2.378,9.853,12.747-11.728-4.768-1.782,1.813-11.8-6-3.341-6.911-9.748-3.75-3.024-4.415-5.414,4.65-6.7-2.03L345.5,448.98l-6.06-.193-7.55-2.943-8.071.639-8.04,2.6-4.7-6.855-11.12.093-3.818,9.046,2.974,3.837,0.236,4.818L291.029,471l-0.906-.546-11.909-10.437,0.428-5.042,5.073-1.484-2.179-4.377-1.279.329-9.475,1.391-9.233-9.587L256.5,432.4l-7.6,2.806-1.273-4.893-4.383,1.906-15.193-.646-2.44,2.372-4.346,6.96L211,443.777l0.813,5.4Z" transform="translate(-17.928 -348.671)" fill="#ffc0c0" stroke="#000" stroke-width="2"/><text transform="translate(747.336 354.006)" font-size="144.334" font-family="DejaVu Sans" font-weight="700">2</text><text transform="translate(315.619 247.52)" font-size="144.334" font-family="DejaVu Sans" font-weight="700">3</text><text transform="translate(425.591 419.579)" font-size="144.334" font-family="DejaVu Sans" font-weight="700">1</text></svg>