<svg xmlns="http://www.w3.org/2000/svg" width="932.869" height="773.191" viewBox="0 0 932.869 773.191"><title>Députés sortants de l&amp;apos;Eure en 2017</title><path d="M349.975,801.068l12.97,23.027,4.134,9.316,5.065-1.2-2.8,9.25,3.045,9.1-5.283,2.776,2.129,5.958-3.124,15.056-7.8,5.246,5.065,28.026-7.63,2.819-7.041,6.547-3.2,9.148-9.177,3.372-9.163,9.5,1.388,2.827L341,941.694l9.962,7.637,0.262,2.434-3.132,5.166,0.9,11.2,2.667,4.687,7.361,3.858,1.134,0.065,8.821-7.848,11.335,4.432,7.935-9.86,8.894,1.1,5.13-3.19,7.55-4.8,2.95-14.911,5.762-10.841,8.436-3.589,6.053,7.114L445,933.9l1.024,2.957,18.522-5.907,7.884-10.151,8.858-4.323,4.534,4.788,18.711-3.016,3.735-5.217,6.554,5.77,2.543-1.635-0.923-9.076,17.178-17.868,5.915,8.93,9.613-6.576-0.2,3.074,15.979,6.438,3.474-18.013,2.943-1.046L568,867.737l1.671-5.857,7.651,3.306,11.328-.065-0.589,9.359,7.3,6.038,15.673-3.183,21.421,13.806,3.3-4.462-3.56-4.273,14.453-2.238,4.876,3.234,2.783,7.681,5.871,0.654,6.489-5.45,11.437-4.556,8.923,2.921,1.388,0.748,8.5,3.437,17.534-17.432,0.378-.349,5.079-3.074,6.1,0.269,1.432-8.93-4.011-8.269-1.446-1.846-0.952-1.664L715.1,837.138l1.817-14.656,18.812-14.162,4.788-9.555,4.215-3.975,11.779-.523,4.476-4.294,6.322,0.109,5.224-3.611,4.81-1.824,5.057-7.15,2.972-17.715-5.675-1.5-0.51-9.359-7.782-14.2,5.864-2.689,2.39-9.453,11.8-2.391,8.24,2.776,4.8-3.67,5.857-11.779-6.118.6-3.626-12.048L814.92,684.2l-3.023-.138-3.459-4.97-8.654,4.156-9.65.116-4.549,4.156-5.675-13.21,5.733-2.122,5.828-13.6-3.924-3.888,1.882-4.81-3.241-3.6-8.7-7.23-5.392,2.769-8.683-1.446-1.686-5.871-11.554-4.025-6.438-6.264-1.991-4.5-5.6,2.565-8.669-4.12L712.907,623.2l-9.054-8.654-4.353-6.307-2.776-2.027-7.077-3.931-10.863-6.685-4.127-8.632-6.569,1.62-10.34-9.781-9.962,6.881-7.717,9.526,3.088,4.992,3.023-.77,2.434,5.668-5.9,7.978-5.319-3.7L618.155,611.4l-2.529-.051-0.857,2.042-4.1,3.2-1.228,10.9-17.57.647-1.2,4.759-4.084,4.483,0.828,4.912,4.723,2.129-1.787,1.737-2.115,12.309,2.1,6.932-6.5,2.8-0.254,5.66,3.35,4.629-2.369,8.582L572.043,690.2l-13.748-17.744-9.555,1.373-4.6,8.138-5.995,2.405-12.949-9.9-5.922,1.112-6.373,5.283-4.919,1.969-0.407,2.7,3.313,5.6,13.021,9.257,4.949,11.517-3.909,5.145,1.475,0.225-2.224,5.152-2,4.135L513.141,743.2l-17.9,5.166-6.8,6.562-0.908-2.732-5.392,1.875-3.924-3.263-0.392-5.014-5.6-2.013-20.52,8.146-16.647,20.6-9.853.756-8.385-17.018,7.434-13.7-3.052-5.246,3.626-5.239L413.44,736.71l-3.757-15.288-6.583-.276L383.48,733.3l-17.5,19.75-7.7-3.742-2.841,4.185,3.829,11-8.887,1.257,7.3,10-5.842,7.688,1.4,12.745Z" transform="translate(-58.893 -204.579)" fill="#06c" stroke="#000" stroke-width="2"/><path d="M322.6,609.629l-3.255-13.879-6.511-15.259,5.762-7.935,4.578,3.648,2.841-.727,5.581-6.816-6.14-11.016,1.185-6.227,0.821-9.737-9.41,1.1-12.091-2.769-4.454-11.844,0.153-9.439-4.578-3.161-5.784,1.323-2.863,4.694-7.5,3.386-5.573,2.42L264.9,521.837l-3.277-8.538-17.12,4.977,4.52-9.439L234.4,495.794l-0.153-5.748,6.554-6.1-2.347-.966-0.153-5.094-4.382-11,2.209-5.159-2.652-5.21,2.7-5.631,12.469-2.5,5.733,10.391,8.458,0.044,5.021-4.076,0.109-8.9,14.576-6.576,3.023,0.341,2.826,5.217,8.378,2.856-0.371,3.764,5.21-3.117,2.594,1.606,2.2,12,10.137-4.418,2.143-.647-5.937-21.77,3.968-8.843,10.892-6.772,13.77,11.793,9.221,1.657,5.42-2.769,0.385,0.334,6.59-1.49,6.365-.349,11.546,5.9,3.241-.661,2.652,3.778-1.686,5.762,2.987,8.465-8.284,3.568-4.323,6.336,11.619,2.1,11.037,10.543,2.369,15.252,9.112-1.519,4.912-3.713,11.757-.545,2.558-1.751,11.415-5.871,10.558-5.471,3.611,4.316,5.014-.545-0.538-2.478,3.451,0.371,23.216-17.432,5.907,2.42,4.193-.894,4.571,11.837,7.114,6.205,1.8-3.648,8.371,1.511,9.839,17.555,7.971,5.217,6.605,7.542,0.726-2.914,2.979-.233,10.18,5.174,8.93,1.9,11.909,7.877-35.009,14.562-1.112,2.979,8.734-1.824,19.634,8.146-7.709,10.144,5.028,3.64,5.6-6.939,2.078,12.353,5.668,7.666,11.568-9.94-2.122-10.965,12.709,8.08,2.289,5.871,8.487,3.43,5.3,0.552,7.7-2.834,6.1,7-1.94,5.842,4.142,3.888,9.991-.879,3.917,10.289-7.717,9.526,3.1,4.992,3.023-.77,2.434,5.668-5.9,7.978-5.326-3.7L618.111,611.4l-2.529-.051-0.857,2.042-4.1,3.2L609.4,627.5l-17.57.647-1.2,4.759-4.084,4.483,0.821,4.912,4.73,2.129-1.787,1.737-2.115,12.309,2.1,6.932-6.5,2.8-0.254,5.66,3.35,4.629-2.369,8.582L572,690.2l-13.755-17.744-9.548,1.373-4.6,8.138L538.1,684.37l-12.949-9.9-5.929,1.112-6.373,5.283-4.912,1.969-0.407,2.7,3.313,5.6,13.021,9.257,4.949,11.517-3.909,5.145,1.475,0.225-2.224,5.152-2,4.135L513.1,743.2l-17.9,5.166-6.809,6.562-0.908-2.732-5.385,1.875-3.924-3.263-0.4-5.014-5.6-2.013-20.49,8.146-16.647,20.6-9.853.756-8.385-17.018,7.434-13.7-3.059-5.246,3.626-5.239-11.372,4.636-3.764-15.288-6.576-.276L383.458,733.3l-17.5,19.75-7.7-3.742L355.41,753.5l3.829,11-8.894,1.25,7.31,10.006-5.849,7.688,1.4,12.745-3.255,4.89,12.97,23.027,4.134,9.316,5.057-1.2-2.8,9.25,3.045,9.1-5.283,2.776,2.129,5.958-3.124,15.056-7.8,5.246,5.057,28.026-7.622,2.812-14.809-21.69,3.532-5.573-0.632-3.444L333.727,872.8l-5.515-7.557-8.727-.371-1.969-2.42-5.828-2.783L303.3,857.3l-18.624-16.611-8.022-2.877-11.277-9.664-12.905-6.874,16-22.1-8.851,3.088-5.428-3.11-3.321-9.1,2.216-9.337L241.2,783.622l-2.26-5.631,6.569-5.842-0.61-3.016-10.87-5.3,1.882-6.1-13.624-8.247-5.682.61-1.446,6.205-7.4-4.04-8.407.174,11.488-11.219,8.683-3.5,22.693-.312,8.77,3.931,4.992-4.171,5.522-1.664,3.648-8.785,3.219,5.719,13.058,9.918,24.015-24.291,14.874-4.171,9.156,2.434,5.29-3.655,2.623-5.929,3.183-.545,2.747,0.894,0.828-5.2,1.039-5.471,6.024-.85,9.047-8.1,3.858-5.544,2.165-15.863-4.265-4.883,3.858-4.658,8.741-1.882-1.264-9.679-5.166-3.328-3.481,5.145-8.422-2.877-3.946,4.483-8.77,1.3-5.464-17.018-5.726,1.46Z" transform="translate(-58.893 -204.579)" fill="#ff8080" stroke="#000" stroke-width="2"/><path d="M362.059,661.213l4.265,4.883-2.165,15.863L360.3,687.5l-9.047,8.1-6.024.85-1.039,5.471-0.821,5.2-2.754-.894-3.183.545L334.81,712.7l-5.29,3.662-9.156-2.441-14.874,4.171-24.015,24.291-13.058-9.918-3.219-5.719-3.648,8.785-5.522,1.664-4.985,4.171-8.778-3.931-22.693.312-8.683,3.5L199.4,752.464l8.407-.174,7.4,4.047,1.446-6.205,5.682-.61,13.624,8.247-1.882,6.1L219.1,779.648l-2.42,2.013-17.9-5.719-15.034,1.9-13.7-7.775-9.432-.7-1.068,7.55-8.807-1.431,4.294-9.141-8.247,4.919-6.489-.858-2.79-1.715-2.311-9.345L115.534,748l2.907-15.565,2.71-1.707,10.87-20.411,11.967-20.026-3.364-13,4.309-16.567,7.608-14.765L139.258,633.7,130,632.94,114.822,629l-3.895-11.917-2.216-2.289-2.616,1.809-2.39-2.056L112,606.171l-0.756-5.849,0.058-3.277,8.051-5.515,9.773,0.094,5.66,3.139-0.509-13.225-8.814-1.017,5.7-6.089-0.8-2.587-5.653-.182-0.726-2.79,5.937-18.914,0.182-1.242-0.887-6.046,8.93-2.114,5.951-10.747-3.481-4.44-11.088.029-1.366-2.478-11.866-3.481-0.952-.821,2.609-5.348,1.141-17.766-2.34-10.652,3.277-16.2-0.058-3.35-3.052-1.373-0.451-3.088-3-.77-9.737-.538L85.472,445.759,75.75,429.272l-0.153-3.2,3.1-.858,9.235-.756,10.762-6.293,14.743-3.481L113.9,394.1l-11.052-8.865-11.917-.276L76.048,400.729l-8.2-4.214L76.15,384.09l-3.968-14.184L61.137,366.97l5.508-4.149,10.245-20.2-9.635-17.04-3.909-12.549,4.541-14.78L60.934,277.02,60.57,257.466l7.753-.887,19.023-3.35-1-6.278,18.406-2.877,11.009-3.11L140.1,231.5l5.77-3.052,23.993-15.608,3.524-2.906,8.574-4.345,9.519,0.225,8,4.374,9.62,11.888,0.574,0.923,2.95,3.306,10.711,13.842,12.673,13.443,11.219,4.8,9.352-1,17.279-13.581,1.824,2.74-6.671,7.128-3.2,9.316,6.147-1.112,2.638,5.6,8.538,2.289-4.76,7.615,4.665,3.154,2.187,2.362,6.205-.451,9.287-2.354,8.981,2.95,3.1-.836,2.325-5.9,3.19,0.08,0.618-.85L333,278.182l3.4-4.839,14.736-5.53,9.679,7.717,2.645-1.882,8.24-2-0.749-11.793,1.918,0.051,4.193,19.568,5.711,8.073,8.763,4.309,8.814,1.49,8.342-3.11,2.035,2.412,8.836-3.263-1.1,6.125,4.985,7.673-3.524,8.48,2.609-1.809,5.879,2.42,1.686-5.857,13.973-6.794-0.167,8.625,4.018,16.6-0.69,8.5,5.573,4.752-7.5,5.951-21.225-7.346-8.669,3.858-4.621-3.161-2.987.2-6.729,13.007-5.37-.283-4.389-3.146-1.591,6.271-5.145,4.149-1.3-3.008-12.941-.858L360.22,344.19l-0.073-6.714-6.227-.581-11.35,4.759-5.181-2.369-2.8,1.4-0.167.051-4.985,14.4,4.985,13.886,7.615-3.873,8.589,8.138-3.328,11.583-5.065-.378-2.718,3.938-6.154,7.085,1.4,6.1L332,403.171l6.068,1.09,2.7,5.573,6.133-.683,4.389,7.128,4.665,14-5.42,2.769-9.221-1.664-13.77-11.793-10.892,6.78-3.968,8.836,5.937,21.777-2.143.64-10.137,4.425-2.2-12-2.6-1.6-5.2,3.11,0.363-3.764-8.371-2.856-2.826-5.217-3.023-.334-14.584,6.569-0.1,8.9-5.028,4.076-8.458-.044L248.58,448.5,236.111,451l-2.7,5.639,2.66,5.2L233.858,467l4.374,11,0.153,5.094,2.347,0.966-6.517,6.052,0.145,5.748L248.988,508.9l-4.52,9.446,17.112-4.985,3.285,8.538,10.464,5.559,5.573-2.42,7.5-3.386,2.856-4.7,5.791-1.315,4.578,3.154-0.153,9.439,4.454,11.844,12.091,2.776,9.41-1.1-0.821,9.737-1.185,6.235,6.14,11.009-5.581,6.816-2.841.719-4.578-3.648-5.762,7.935,6.511,15.259,3.255,13.879,9.817,24.539,5.726-1.453,5.464,17.018,8.77-1.308,3.946-4.476,8.422,2.877,3.481-5.145,5.166,3.328,1.264,9.679-8.741,1.882Z" transform="translate(-58.893 -204.579)" fill="#f6e1b9" stroke="#000" stroke-width="2"/><path d="M458.912,472.15l3.459,0.371L485.579,455.1l5.907,2.42,4.2-.894,4.563,11.83,7.114,6.205,1.8-3.648,8.371,1.511,9.839,17.555,7.971,5.217,6.605,7.542,0.726-2.906,2.987-.24,10.173,5.174,8.93,1.9,11.909,7.877L541.668,529.2l-1.112,2.979,8.734-1.824,19.634,8.146-7.709,10.144,5.028,3.64,5.6-6.939,2.078,12.346,5.668,7.666,11.568-9.94-2.122-10.965,12.709,8.08,2.3,5.871,8.487,3.43,5.3,0.552,7.709-2.827,6.089,7-1.94,5.842,4.142,3.888,9.991-.879,3.917,10.289,9.962-6.881,10.34,9.781,6.569-1.62,18.355-13.232,2.093-2.572,11.692-4.9,4.7,2.652,1.344-5.719-2.289-5.442,7.455-5.377,17.948,4.941-0.211.378,4.265,7.659,7.724,3.626,3-3.807,2.3-19.147-7.579-6.205,5.6-9.839,1.613-.451,0.451-5.53L736.05,504.965l-12.186-6.046-1.323-.48-15.128-6.605-5.42-8.269,0.836-4.222,0.973-2.107L734,456.89l4.512-8.821,2.3-5.9-1.17-6.256-6.743-6.787-6.1-1.867-1.453-.414-9.294.153L701,439.066l-8.9,9.737-7.513,5.791-9.214,2.013-16.291,14.736-15.194-4.527-2.994-3.263,8.611-3.866,0.93-6.278,9.119-8.785,8.872-7.986,6.017,0.153,2.572-5.421-3.277-4.309L672.818,411.8l-4.825-3.815-7.688-.777-1.6,2.245,1.264-12.4-1.94-5.958,0.625-3.183-9.01-13.268-5.508-3.357-9.228-.167,6.118-6.017,1.33-6.184L638.1,347.147l2.877-8.727,5.719-2.877-20.92-2.085-1.642-2.536-5.871-.138,0.327-2.95-1.621,2.129,2.216,13.988-9.9.719-0.436-.16-1.315-5.471-5.74,2.144L598.81,346.5l-1.9-5.617-6.482,5.588-5.9.465-5.3,9.177-1.787,15.158-2.718-.007-21.363.094-14.344,3.263L524.409,382.6l10.442,15.833,0.661,3.132-7.956,4.934,6.394,10.507-1.562,2.114-4.949-1.693-1.061,2.405-0.043-2.885L518.6,420.3l-0.182-1.526-24.277,7.31-2.907-5,2.427-4.549-6.387-.966-1.112-6.082-5.668-2.543-2.623-5.871-10.478,6.641-2.057-8.1,6.14-5.2-1.024-5.159-0.036-3.088-5.784-2.892-8.632-21.625-7.172,6.235-10.972,6.293,0.785,6.329-5.74,1.962-3.8-4.876,1.628-12.338-16.713-6.867-3.038.858-1.032-2.776-11.321-.879,2.5-5-5.37-.283-4.389-3.146-1.591,6.271-5.145,4.142-1.3-3-12.941-.858-10.122-9.548-0.073-6.714-6.227-.581-11.35,4.759-5.181-2.369-2.812,1.4-0.16.051-4.992,14.4L334.457,369l7.615-3.873,8.589,8.138-3.328,11.583-5.065-.378-2.718,3.938L333.4,395.5l1.4,6.1-2.747,1.555,6.068,1.09,2.7,5.573,6.133-.683,4.389,7.128,4.665,13.995,0.385,0.341,6.59-1.49,6.365-.349,11.546,5.893,3.241-.661,2.652,3.778-1.686,5.762,2.987,8.465-8.291,3.568-4.316,6.336,11.619,2.1,11.037,10.543,2.369,15.252,9.112-1.519,4.912-3.713,11.757-.545,2.551-1.751,11.423-5.871,10.558-5.471,3.611,4.316,5.014-.545Z" transform="translate(-58.893 -204.579)" fill="#ff8080" stroke="#000" stroke-width="2"/><path d="M738.543,448.033l-4.512,8.821-30.2,20.346-0.973,2.107-0.836,4.222,5.42,8.269,15.128,6.605,1.323,0.48,12.193,6.046L753.1,523.966l-0.451,5.53-1.613.451-5.6,9.839,7.579,6.205-2.3,19.147-3,3.807-7.717-3.626-4.265-7.659,0.2-.378-17.948-4.941-7.455,5.377,2.289,5.435-1.344,5.726-4.7-2.652-11.692,4.9-2.093,2.572-18.355,13.232,4.127,8.632,10.863,6.685,7.077,3.931,2.776,2.027,4.353,6.307,9.054,8.654,14.576-5.028,8.669,4.12,5.6-2.565,1.991,4.5,6.438,6.264,11.554,4.025,1.686,5.871,8.683,1.446,5.392-2.769-0.952-9.41-4.985-8.131,1.926-6.067-2.463-2.02,8.749-9.235,9.272,9.054,6.205,1.86,10.362-6.939,5.893-17.679-1.591-6.067,3.895,4.084,2.95,10.936,15.543-3.793,8.792,1.911,7.114-6.082,13.654-5.6,6.017-.974,2.892,5.559,8.967-7.717-2.4-1.773,0.443-8.509L882,564.752l13.021-18.783,4.861-5.05-1.664-10.936,5.8-9.948,1.01-1.366-1.766-2.7,4.868-11.742-1.846-6.133,3.393-4.883-0.792-8.523,3.335-9.039-1.679-5.82,1.9-6.205,14.38-13.174,2.957-5.755-2.078-1.657,0.392-7.906-0.131-8.967,6.315-12.048,9.548-.53,4.963-4.055,9.519,1.272,2.572-1.882,7.651,10.529-0.131,6.482,14.613,5.166-0.153-6.736,7.644-18.682-5.2-3.1,1.243-9.483-7.31-6.169-3.851,2.747-3.575-3.175,1.264-12.317-4.258-11.946,1.933-5.958,2.071-9.584L962.7,326.474l1.061-10.631-5.835-3.059-4.389-8.836-14.067-13.777,12.571-9.868-5.871-1.148-8.226,3.037-2.253-5.254-5.508-.153-6.627,13.777-7.477-7.412-1-2.994-6.256-.443-7.041,6.075-5.145-2.979-1.947-.2-12.048-8.269,0.094-2.979-13.123,4.025-6.663-6.438L856.1,255.533l-5.944-5.268,0.458-2.609-16.008-.378-8.08,9.839-5.951-11.365-15.87,2.383-6.511-7.557-9.323-3.626-16.24,1.206-8.553-4.716-14.874-.581-17.337,5.4-0.509-3.2,5.6-7.906-3.524-1.577-10.979,11.59-15.194,4.585-1.185,3.052,4.832,4.4L710.2,251.74l-7.019-2.95,0.349,9.446-5.675-2.093-11.881,2.274,3.56,16.734-2.689,1.635-1.875,12.4-6.511,1.584-7,7.346,1.9,10.849-1.831,11.888-8.64,8.276-0.051,6.511-16.1-.145-5.711,2.877-2.877,8.727,4.258,11.771-1.33,6.184-6.111,6.017,9.221,0.167,5.508,3.357,9.01,13.268-0.625,3.183,1.94,5.958-1.264,12.4,1.6-2.245,7.688,0.777,4.825,3.815,0.915,15.259,3.285,4.309-2.572,5.421-6.017-.153-8.872,7.986-9.119,8.785-0.93,6.278-8.611,3.858,2.994,3.27,15.194,4.527,16.291-14.736,9.221-2.013,7.506-5.791,8.9-9.737L716.1,426.946l9.287-.153,1.453,0.414,6.1,1.867,6.743,6.787,1.17,6.256Z" transform="translate(-58.893 -204.579)" fill="#06c" stroke="#000" stroke-width="2"/><text transform="translate(518.434 619.82)" font-size="168.916" font-family="DejaVu Sans" font-weight="700">1</text><text transform="translate(708.263 245.809)" font-size="168.916" font-family="DejaVu Sans" font-weight="700">5</text><text transform="translate(81.9 229.115)" font-size="168.916" font-family="DejaVu Sans" font-weight="700">3</text><text transform="translate(339.752 460.383)" font-size="168.916" font-family="DejaVu Sans" font-weight="700">2</text><text transform="translate(493.552 282.776)" font-size="129.416" font-family="DejaVu Sans" font-weight="700">4</text></svg>