<svg xmlns="http://www.w3.org/2000/svg" width="584.96" height="935.102" viewBox="0 0 584.96 935.102"><title>Députés sortants de la Manche en 2017</title><path d="M365.149,562.97l0.4-11.479,4.836-4.74,0.589-4.672-2.243,1.285-6.433-4.355-6.28-8.178-3.664-8.716,5.8-12.884-9.236,2.254,8.687-14.5-7.543-6.212,0.357-2.441,1.8-8.529,0.238-2.492-7.906-9.118-9.152,1.671,5.057-11.711,4.491-2.067,0.147-3.76,4.157-6.977-1-15.211,2.639-4.3,0.442-4.242,7.719-8.421-6.026-1.761-2.9,3.341-13.127,10.6-7.051,1.631-16.729,3.409-2.367-6.224-2.265.368-3.245-3.183,8.687-12.436L312.488,396.8l-4.672-.521,1.308-6.207,3.755-8.75,4.145-2.09,2.01-7.011-6.428-3.426-4.066-9.338,2.832-9.939,2.713-1.892,9.35-3.511,6.954-7.311,7.509,0.3,3.874-3.166-4.168-7.385-1.331-1.659-6.122.391-2.243-.855-1.229-6.671-2.4.266-4.4-.351,1.008-4.61-1.6-1.761-18.785,15.874,2.231-4.355-4.695-8.3,3.121-3.726-7.005-2.48-7.056-1.1-8.834-7.809,0.81-6.9,4.338-2.039-1.71-6.949-2.582-1.914,1.71-3.579-6.462-3.036,3.313-6.666,1.461-9.843,5.25-8.285-2.107-2.435-4.621-1.693-6.077,4.043-4.853-.623-4.921-2.713-3.143-6.824,3.3-6.354-4.8-3.421,8.223-17.108,7.181-.187,1.45,0.464,1.155-4.859,5.5-7.538,4.242,1.869,3.9-1.818-11.122-8.619-1.206-7.011,5.675-8.019L281.2,169.97l3.828-3.081,9.718,0.934,5.289,10.46,9.644-1.263,2.713,4.128,5.7-1.886,19.832-.232,6.235,12.521,5.414,7.549,2.322,3.358,9.412,16.027,11.219,14.3,3.658,5.193,5.176,6.128,7.492,8.84,3.585,4.366,8.868,12.833,4.264,15-1.427,4.95-6.824,7.306,0.8,7.651,6.575-1.234,12.861,6.864,0.538,2.4L426,311.945l3.041,21.344-12.589,12.623,1.269,12.261,1.019,4.389L422.388,365l2.894,3.687-1.3,2.112-4.587.736,0.006,2.486,9.8,7.373,3.913,6.354,2.1,0.889,0.742-2.135,1.767,1.438,1.285,6.365,2.378-1.133,6.32,9.554,7.775,5.442,2.22-.861,3.251,3.539,4.9,0.125L472,423.911l0.249,0.351,7.492,0.108,9.271,4.094,0.691,2.458,7.266,0.657,6.229-4.026,8.144-12.232,4.723-1.631,0.725-6.558,2.769-3.658,2.209,0.617L520,406l1.648,4.848,9.322,12.363,6.853,2.243-11.139,6.513-0.912,7.141-7.492,13.241-4.717,1.835-7.073-2.928-3.047,3.93,13.206,2.594-3.63,3.341,0.6,2.407,16.3,10.335-0.929,2.316,4.9,0.453,4.23,2.86-0.952,2.407-7.571,6.881-4.8,1.569-5.023,8.976L535,487.65l7.09,0.119,0.657,8.438-0.4,2.073-1.025,10.131,4.095,6.337L546,519.754l0.311,3.432-0.527,3.16-2.532,7.187-7.39,6.8,3.03,4.015,7.147,1.62,3.523,3.585,0.187,4.853L538.7,557.346l-4.61,8.308-4.819-.221-2.1,9.4-2.7,6.643-14.044,16.542-5.057.787-17.187,11.049-3.409.413-4.06-2.6-7.153.351-3-6.62-14.192,2.747L456,612.7l-6.62,1.314,3.307,2.588-0.646,7.124-4.853,5.306,0.057,2.412,4.27,1.45,7.005-3.047,14.854-2,3.687,3.37-4.01,12.136-13.139,8.127-1.716,4.955-3.086,7.322-5.069,4.457-4.627.929-5.782-7.283-3.721,3.064-1.427,6.813L425.638,679l-0.38,6-4.921-.521-5.5,8.274-6.875.917,0.085,1.076-9.186,7.877-5.833,11.332,7.084,6.144-5.584,8.144-0.969,4.853-1.8,1.433-8.631-2.684-6.739-.345-5.635,3.879-9.537,1.059-4.457,5.312-4.621-1-0.385-7.47-7.3,1.948-13.218-7.764,7.419-6.728-0.1-4.882-5.788,4.508-4.842.663-0.8-2.345,3.143-6.541-4.565-5.527-2.424.159-3.9-6.06-2.356-.589-3.29-4.145,0.589-3.285,6.994,1.093,4.434-1.688,2.407-3.885,4.774,0.136,11.972-7.645,3.556-13.371-2.22-6.513,3.981,2.384,14.52-6.5-1.308-9.259-3.7-5.561-0.459-4.281-5.046-3.607,1.269-1.8,6.626-3.075,9.622-.747,9.882-10.811-3.817-4.695,0.232-4.4L379,601.11l-11.36-9.661,13.2-6.377L379.6,562.335Z" transform="translate(-26.807 -35.977)" fill="#06c" stroke="#000" stroke-width="2"/><path d="M205.33,674.863l-3.183,9.2-3.539,3.183-1.591,2.124-9.378,5.488,2.124,1.591,3.715-2.3,5.663,2.124,7.43,7.611,1.246,4.6,1.586,20.353-0.351,12.918-2.124,12.21,1.24,4.955,7.611,9.027,11.156,2.3,6.9,10.794,5.663,19.113,5.312,4.955,4.6-1.954,13.982,9.2,3.9,3.183,1.416,10.788,3.9-1.065,2.3-7.43,4.247-.708,14.509-7.787,8.495-7.079-1.416-1.948,2.662-1.065,0.878-1.591-0.17,1.948-1.416.708,0.878,1.591-1.24,2.3-1.948,1.416-2.3,4.247-0.708,3.539-5.493,5.147-1.24,5.663,3.9,4.955,2.656-.708L302.147,829l1.954,3.364,4.072-.532,3.183,8.319,3.007,2.3,1.416,0.351,1.416-.532-0.883.883-2.48.17-4.423-2.124-2.656-1.065-0.351-3.715-3.71-1.24-3.369,1.767-3-2.832-3.183-.351-1.065,2.3-2.832-1.416-4.6.883-0.708,1.948h-3.007l-2.124-3.715-1.586,1.948,1.416,3.007-10.975,10.262-3.364-1.246-9.911,4.423-1.591.532-1.767-1.586-3.369,1.416,0.176,2.124-2.48-3.37-7.617,1.065-0.532,4.072-0.176-3.183-1.586-.532-2.3-6.728-10.794-2.656-3.183.708-10.448,2.832,2.3,8.495,5.488,4.072,4.423,2.124,3.183,6.371-1.416,12.034,6.9,1.416,3.183,8.67-3,3.709-2.832,9.033,6.371,7.249,1.065,7.079,1.065-.351,9.559,15.925,2.656,13.807,2.124-1.065,5.312,3.539,4.072-1.416,4.072,1.767,1.767-1.591,6.014,3.364,2.832,3.715-2.294,4.247,6.2,7.079L291.381,967l7.787,3,3.9-1.586,13.807-10.086-1.065-4.955,3.364-6.728,2.3-1.065,3.007,3.364,1.065-7.079,3.183-3.007,1.416,1.954,9.027-1.954,6.014-7.079,4.072,0.351,4.6-11.151-1.586-6.728,11.151-7.249h0.351l7.962,4.417,11.677-1.065,0.532-2.3,4.955,7.787,4.072,2.124,10.443-1.065,2.3,4.247,7.787,4.785,6.547-3.007,7.079,0.176,7.787,6.371,14.866,3.183,3.539-1.416,1.065-3.715,23.536,16.282,4.247,2.832,13.982-4.072,4.785-5.839,0.878-7.249,4.077-3.007,4.6,1.591,9.735,1.065,2.832,9.033,10.618,4.247,17.165-4.785,2.124-5.125,4.072-8.846,9.74-7.962,8.846-11.677,1.591-1.416,7.255-1.591,7.079-7.255,0.532-9.735,3.539-11.677,4.423-2.48,3.183-6.371-0.708-11.677,1.591-1.767,4.6,0.176-1.586-4.247-9.2-3.007-4.955-15.749-0.176-2.48,5.488-4.78,2.48-6.909,7.43-5.833,2.48,0.878-0.351-4.78-3.9-2.832-11.677-3.539-4.6-4.78-8.67-5.663-5.131-11.156-5.488-5.125-4.955-.708-1.24,1.948-5.131.883-3.715-2.832-0.883-9.559L560.232,755l9.911-13.274-0.883-1.24-5.312,5.131-9.911.878-7.787,5.493-7.079-.538-3.715-6.014-14.509-4.423-8.665-5.131-4.077-6.2-8.665.708-3.9,8.319-9.2-1.767-10.975,3-9.911-7.249-4.247.532-6.014,6.371-12.21-4.247-5.663-5.488-1.065-2.3,3.007-6.547-1.416-1.948-3.539-9.378-4.955-.532-1.065-1.767-5.663.17-1.065.176-1.246-2.124L407.5,701.542l0.532-6.909-9.2,7.962-5.839,11.326,7.079,6.014-5.488,8.144-1.065,4.955-1.767,1.416-8.67-2.656-6.728-.351-5.663,3.9-9.378,1.065-4.6,5.312-4.6-1.065-0.351-7.43-7.249,1.948-13.28-7.787,7.43-6.728V715.7l-5.839,4.6-4.955.708-0.708-2.48,3.183-6.547-4.6-5.488-2.48.17-3.9-6.014-2.3-.708-3.364-4.072,0.708-3.37L309.462,684l-6.728,1.246-8.495-3.9-3.9,6.9-7.787,3.183,1.065,4.6-1.591,1.948-4.247,1.24-1.416-1.948-9.027,1.591-1.954-4.423,5.663-10.618-0.878-4.78-9.911.17-8.846,4.6-9.735-2.3-1.416.708-4.247,1.24-0.176,4.955-12.034,2.48-0.532-7.962h-6.547l-1.767-3.007-4.423-.883Zm32.388,164.231-1.24.538,0.351,0.878h0.708l0.878-.351Z" transform="translate(-26.807 -35.977)" fill="#06c" stroke="#000" stroke-width="2"/><path d="M110.178,301.185l-5.4-3.211,0.493-1.1,3.9,1.75,1.937-.725,8.183,5.074-0.68-4.751-2.526.844-3.3-2.52-0.493-3.251-7.974,3.551-0.9,4.933-3.483-2.209-5.731.13-0.8-3.851-5.975-15.97-0.068-12.2-0.187-17.182-6.252-21.933L76.3,223.725l0.181-14.554L73.594,197.9l-4.264-1.852-5.035-.883-5.522-5.289-2-12.516,2.707-4.162,11.083-6.263,1.631-3.664,6.439-11.355-0.329-8.3,10.471-.4,14.951-4.644,2.611,0.119,5.063,5.81,2.492-.821,0.589,4.049,2.412,6.983-3.12,3.749,0.821,4.836-1.654,1.818,4-.323,6.456-7.453,2.531-.209-0.7,2.282,1.9,1.45,4.65-.351,3.987,2.622,2.084-1.161,3.4,3.353,1.269,3.709,7.232,1.886,15.455-1.586,1.6,1.7,0.867,2.458,2.582-.136,8.665-4.916-2-7.583,21.56-5.85L206,148.564l0.617-4.944,5.08,1.574,8.863,3.647,3.506-3.421,16.616-9.548,4.463,2.577,24.748,1.654,3.523-3.624,4.972,0.668,4.327,8.987,6.728,3.511,1.093,4.955,2.084,1.455,7.475-.951-0.221,7.662-5.182,5.074-9.718-.934-3.828,3.081,0.974,7.379-5.675,8.019,1.206,7.011,11.122,8.619-3.9,1.818-4.242-1.869L275.14,208.5l-1.155,4.859-1.45-.464-7.181.193-8.223,17.1,4.8,3.421-3.3,6.354,3.137,6.824,4.921,2.713,4.859,0.629,6.077-4.049,4.621,1.7,2.107,2.429L279.1,258.5l-1.461,9.843-3.313,6.666,6.462,3.036-1.71,3.579,2.582,1.914,1.71,6.954-4.338,2.033-0.81,6.9,8.834,7.809,7.056,1.1,7.005,2.48L298,314.534l4.695,8.3-2.237,4.349,18.79-15.874,1.6,1.761-1.008,4.61,4.4,0.351,2.39-.266,1.235,6.671,2.243,0.855,6.122-.391,1.331,1.659,4.162,7.385-3.868,3.166-7.509-.3-6.954,7.311-9.35,3.511-2.713,1.892-2.832,9.939,4.066,9.338,6.428,3.426-2.016,7.011-4.14,2.1-3.755,8.75-1.314,6.2,4.678,0.521,1.535,12.119-8.687,12.436,3.245,3.183,2.265-.368,2.367,6.229,16.729-3.415,7.051-1.631,13.127-10.6,2.9-3.341,6.026,1.767-7.719,8.415-0.442,4.242-2.639,4.3,1,15.211-4.162,6.983-0.142,3.755-4.491,2.067-5.057,11.711,9.152-1.671,7.906,9.118-0.238,2.492-1.8,8.529L350,490.789,357.543,497l-8.682,14.5,9.236-2.248-5.8,12.878,3.664,8.716,6.28,8.178,6.433,4.355,2.243-1.285-0.595,4.672-4.836,4.74-0.4,11.479,14.407-.674,1.24,22.732-13.2,6.377,11.36,9.661-0.952,7.368-0.232,4.406,3.817,4.695-9.882,10.811-9.627.747-6.626,3.075-1.263,1.8,5.04,3.613,0.464,4.281,3.7,5.555,1.3,9.265-14.515,6.49-3.981-2.384,2.214,6.518-3.556,13.365-11.966,7.651-4.78-.142-2.4,3.891-4.44,1.688-6.988-1.1-4.95-8.591-6.637,1.291-8.427-3.992-4.032,7.051-7.815,3.166,1.065,4.593-1.484,1.835-4.27,1.223L276.22,697.4l-9.078,1.614-1.841-4.491,5.55-10.511-0.867-4.774-9.792.159-8.942,4.525-9.724-2.282-1.41.742-4.14,1.257-0.311,4.961-11.972,2.424-0.555-8.036-6.53.142-1.835-3.137-4.361-.81-5.136-4.3,2.815-16.723,0.476-4.174,3.641-25.524,4.967-7.051-3.4,13.467,2.843,16.78,1.874,0.068-0.413-11.054,1.574-11.938,2.243-4.6-1.07-4.8-4.519-2.82-1.637,2.48-1.687-1.863,0.074-7.538,0.181-12.516-0.261-9.559,0.94-7.232-0.357-9.237,2.594,3.443,1.58,9.593,2.09-2.26L218,575.125l-2.6-9.6,0.43-9.961,10.239-6.728,10.052,7.707,3.857,3.041,0.589-.572-1.846-4.6-16.395-10.952-6.048,3.409-2.294-1.15-4.717,5.584-4.582,11.162,1.914,7.945-1.976,2.854-6.943-15.024-6.173-34.12,2.843,10.647,1.246-5.176,1.3-4.717-2.458-2.514,1.461-3-5.284-5.352-0.7,5.533-0.13-7.107-0.164-14.894,2.458-5.912L198.3,475.98l1.58,2.044,4.287-.821-3.749-6.252-2.26,3.908-1.6-6.96-4.514-35.163L192,422.871l-4.015-9.99,6.331,1.093,11.864-4.225,3.1,1.625,1.172-.006-0.176-.221-8.733-8.869-10.93,1.065-3.183-5.839-0.272,5.7-5.086,5.465,1.637,10.318-1.682.7-7.668-9.446-4.089-9.911-4.8-16.938-3.341-7.294-5.544-8.608,1.15-4.463,1.908,5.352,3.63-1.942,2.99,2.061,1.569-1.076-4.049-3.981-0.85-1.155-2.4,2.294-2.124-2.469-4.825-.181-3.658-7.243-3.375-7.928-5.425-12.47,2.027-1.15,3.432,1.954,6.32-3.619,6.043-.272-0.391-1.62-3.777.714-5.057.629-3.177-2.707-9.746,6.02-12.312-16.695-3.251-3.749-3.721-5.063Z" transform="translate(-26.807 -35.977)" fill="#ff8080" stroke="#000" stroke-width="2"/><path d="M27.83,52.466l1.354-12.691,3.766-2.73,12.425,2.543,6,4.921,3.6,6.581,6.971,0.34L71.1,44.35l3.375,2.361,4.836,1.427L85.4,61.866l6.077,2.945,9.4,0.957L116.4,72.355l20.619-.731,7.43,6.575,4.644,0.385,4.208-2.248,3.3,3.251-2.118,1.07,1.88,4.3,4.281,2.939,10.3,0.714,6.654-2.962,3.336,0.759-1.048,4.4,3.387,7.436,1.806-.023,1.331-3.811,1.246,3.477,0.334-3.319,1.019-.323,1.4,3.307,2.871-1.3-0.532-7.617,4.032,1.7,1.88,1.688,11.4-3.454,6.96,2.039,2.35-.368,8.523-.51,13.886-6.954,5.1-4.015,1.756,1.331,2.174-7.255,3.789-3.336,1.354-9.678,9.7,2.7,7.458-6.5L278,55.076l17.063-3.16,12.572,0.2,8.976,3.313,6.858-.934,3.726,2.866,12.011,3.936,15.064-.833L353.211,70.2l4.242,6.173,2.628,4.791,7.617,9.525-1.246,4.338,6.3,16.876,1.059,7.283-0.442,7.742L364,121.7l-3.443-.006,0.5,1.472-5.782,14.526,2.3,1.093,0.827,2.469-2.843,1.8-3.137,6.15-0.068,3.556-1.926-2.056,0.855-3.426,0.929-.311,2.141-3.585-4.7-2.254-3.6-.674-7.124,6.252-3.573,13.807,0.011,10.624,2.48,7.889-19.832.232-5.7,1.886-2.713-4.128-9.644,1.269-5.284-10.46,5.182-5.074,0.221-7.662-7.475.951-2.084-1.461-1.093-4.955-6.728-3.505-4.327-8.993-4.972-.663-3.523,3.624-24.748-1.654-4.463-2.577L224.057,145.4l-3.5,3.421-8.863-3.647-5.086-1.574L206,148.541l-7.509,6.445-21.56,5.85,2,7.583-8.67,4.916-2.582.13-0.861-2.452-1.6-1.7L149.757,170.9l-7.226-1.886-1.274-3.709-3.4-3.353-2.09,1.161-3.987-2.628-4.644.357-1.909-1.45,0.7-2.282-2.526.209-6.462,7.453-4,.323,1.654-1.818-0.816-4.836,3.12-3.749-2.412-6.983-0.589-4.049-2.486.821-5.068-5.81-2.611-.119L88.781,143.2l-10.471.4-0.193-10.7-0.94-12.176-4.683-20.155-5.261-8.614-4.191-3.976-6.7-1.489-5.2-4.559-10.2-.544L29.562,75.52,28.4,73.21,33.028,64Z" transform="translate(-26.807 -35.977)" fill="#ff8080" stroke="#000" stroke-width="2"/><text transform="translate(380.68 518.477)" font-size="131.648" font-family="DejaVu Sans" font-weight="700">1</text><text transform="translate(339.606 827.484)" font-size="131.648" font-family="DejaVu Sans" font-weight="700">2</text><text transform="translate(192.347 430.876)" font-size="131.648" font-family="DejaVu Sans" font-weight="700">3</text><text transform="translate(250.013 99.897)" font-size="81.992" font-family="DejaVu Sans" font-weight="700">4</text></svg>