<svg xmlns="http://www.w3.org/2000/svg" width="991.67" height="765.531" viewBox="0 0 991.67 765.531"><title>Députés sortants de Normandie en 2017</title><path d="M399.763,462.767l-5.516-.192-3.463,1.57-0.2,1.251-3.618,1.1-0.948,3.224,5.6,0.452,2.153,4.99-0.016.074-3.094,2.05-1.022,2.283-1.961-1.462-2.215-4.339-1.385,3.884,0.245,5.581-0.353.7-0.951.164-2.846.688-7.263-6.984-0.362.211-7.6-1.533-1.9,4.3-6.464-1.942-4.29,4.7-4.68.576-1.022-.7,2.549-4.119,5.033-6.068-0.152-.573-2.258-1.632-6.8-.852L348.4,465.2l-0.421-1.2,2.63,0.006,3.023-2.537-0.585-3.884-1.087-.654-0.685-4.748,2.078-3.419-1.065-2.478,0.053-.2,1.056-2.4-0.771-2.363-0.375-.8,0.576-1.155-2.357-2.8,0.607-3.782,3.169,1.561,7.929,4.073,1.127,0.691,0.973,0.523,1.7-2.258,6.721-1.917,2.481,2.868,2.515,3.912,10.01,1.728,0.1-1.078,6.5,2.908,6.767,2.58,2.388,0.149,1.409-2,0.257,0.592,3.237-4.491,5.643-.957,4.8,4.314,0.9,1.4,3.37,1.056-2.933,1.18-0.489,3.707,1.186,3.624,1.834,2.726,1.942,0.66,0.808-.759,4.156,0.269,1.137,3.543-2.509-.582-1.344.573,2.453,3.549-1.134.685,0.291,3.924-0.932.948-1.8-3.469-1.068-3.218-3.627,1.31,0.369,2.112,1.92,0.867-1.728,11.413-3.032.238-2.574.322,0.177-1.3-3.534-3.261-0.192,1.288-4.132-1.964,2.134-3.326-3.838-3.766-2.456.127-0.567-2.8Z" transform="translate(-3.455 -97.669)" fill="#ff8080" stroke="#000"/><path d="M467.915,485.544l-0.43,1.115-3.5-.492,2.388-7.619-4.036-.585-3.614,1.09,0.821-2.128-3.419-1.533-4.556,2.843-3.711-1.62-0.9,1.075-1.747-3.119-2.481-.833L435.5,471.2l-0.827,4.72,0.706,0.52-0.415,3.1-3.466,3.6-6.362-.056-3.522-1.62,1.725-11.416-1.92-.864-0.369-2.115,3.63-1.307,1.068,3.218,1.8,3.469,0.932-.948-0.291-3.924,1.134-.685-2.456-3.549,1.347-.573,2.506,0.582-1.134-3.543-4.16-.269-0.808.759-1.942-.66-1.83-2.726-1.186-3.624,0.486-3.707,2.933-1.18-3.37-1.056-0.9-1.4,0.716-2.5,1.227-.427,4.624,0.926,2.546,0.88,3.968-.678,1.35-.251,4.324,5.253-1.948,1.809-0.83,8.242,1.992,2.106,0.954-.635,2.366-3.2,5.219,0.291,1.914-4.739,2.239,2.422,3.4,1.279,4.305-6.309,1.106-3.683,2.546,1.072,1.877,3.692,2.32-1.564,5.625-.074,5.219-1.524-2.76,5.7,2.732,7.207,5.386-.452,6.294,1.335,4.572,6.1,5.067-.077,3.144,2.515,0.334,1.038-0.966-.994-1.307.44-1.23,5.426-4.28,6.9-5.649,1.58-0.387-3.122-1.843,1.183L482.9,481.5l-5.5,4.033-5.433.889Z" transform="translate(-3.455 -97.669)" fill="#ff8080" stroke="#000"/><path d="M411.6,508.285l-1.227-.573-1.446-5.185-2.939-2.788-0.285,1.2-3.605,8.047-1.27.062-1.852-1.288-1.669.619-0.239,5.476-1.9,5.272-0.105,2.041,0.35,1.741-0.093.759,3.624,1.632,3.28,4.172,3.807-.062,1.323-.322,4.479,1.951,2.716,4.287,3.342-.585,2.49,2.911-0.437,2.6,4.494,2.354,10.137-1.682,3.029,9.763,0.508,2.688-1.456,3.807-7.09-1.2-1.824,1.911-0.533,5.166-1.087.759-2.62-5.262-8.279,3.729-5.046,3.286-0.582.613,2.549,7.421-0.839,3.791-2.7.579-1.2-.542-3.968,3.2-2.512-.629-0.393-1.264-2.732,2.741-9.589-.839-0.492,2.416,5,0.508,2.757,2.134,7.582,0.322,2.187-.951,0.635,2.441,3.788-1.4,2.521,4.414,4.6,4.782,4.729-.694,0.638-.167,1.084,2.184-2.527.743L420.5,599.9l5.937,5.206,0.452,0.273,4.153-5.476-0.118-2.4-1.487-1.914,1.9-4.513,5.55-.047,2.341,3.419,4.011-1.295,4.026-.316,3.769,1.468,3.023,0.1,3.844,2.4,3.342,1.01,2.7-2.32,1.505,2.205,4.866,1.871,1.666,3.447,5.888,2.992,0.886-.9,5.854,2.376-4.915-6.356,0.688-1.186,3.813-.966,0.781-3.831,2.617,2.7,2.131,0.421,6.157-1.886,2.19,1.477,1.428-.808,1.27-.5,1.518-3.822,7.421-6.5-0.065-1.6,4.674-1.155,1.75,1.849,0.124-.087-0.966-4.63,8.861-4.556,6.929-1.642,1.66-1.313,0.412-2.109,1.508-3.587,0.533-3.76,3.937-4.739,5.46,0.75,6.281-5.538,0.6-.923,2.286,0.728,2.562,3.964,1.276,5.346,1.143,0.808,4.1-.734,2.2-1.165,2.146-4.476,7.288-2.156,2.537,2.472,3.757-.883,1.45-6.433,4.544-2.379,3.834-.362,0.517,6.12,1.2,0.486,6.848-2.131,6.452,4.587,6.154-2.744,5.485-9.2,7.087,3.937-1.109,4,3.333,0.849,5.1-8.533-1.434-5.541,1.837-7.062,3.243-6.294-5.662-5.228-3.949-.322-6.47-1.679-1.66-5.083-0.945-.973-1.115.771L614.421,513l3.534-3.574-0.322-2.49,0.025-1.4,3.429-2.351,4.169,0.04,2.41,1.338-0.214-5.637-3.76-.434,2.428-2.6-0.338-1.1-2.41-.081-0.313-1.186-5.3-1.1-6.736.7-0.966-.957-4.788,2.258-6.891-5.185-2.345,2.614-6.16,4.469-2.211-1.13-1.716-1.437-2.258-.892-0.808-5.733-4.017.746-1.1-.8,0.75-2.633,5.612-5.628,5.169,0.582,1.973-1.13-0.378-3.4-1.759-1.62-2.481.232-1.044-2.14-2.67.585-2.534-.951-0.768-3.769-4.606-1.642-2.775,2.976-1.31.09-1.217-2.32-2.5-.465-1.028-3.76-2.753,3.7-2.453-.6-3.735,1.546-4.5,3.032-1.688,3.7-3.361-3.707-4.562-1.381-1.164-2.8,2.562-.461,2.292-3.243,2.441-.557,0.923-2.472,0.192-.09,2.642-.223,5.73-3.057-0.994-4.949-1.83-.669-2.32-2.707-3.029-2.159-1.688-.892,2.617-6.464-2.038-1.58-2.385,1.36-5.318-.985-0.963-2.574-0.88-.973-1.335,1.332-3.884,5.386,0.5,2.4-3.766-.48-2.3,1.084-1.016-.873-3.593.914-3.574-1.13,0.053,2.75-1.992,3.6-6.207,2.775-4.33-1.112-1.456.409-2.914,2.527-4.977,1.443-3.4-1.279-5.448-.065-7.474,6.229-1.871,1.016,0.257,1.044,6.294,1.335,4.572,6.108,5.07-.081,3.141,2.515,0.338,1.041-0.966-1-1.307.44-1.23,5.426-4.28,6.9-5.649,1.58-2.645,8.319,3.68,0.077,0.777-.824,3.292,0.672,2.332,5.185-2.4.979-0.251,5.191-1.2,2.242-4.324-1.577-1.251.418-3.255-2.044-1.688,1.92-8.576-3.658-1.784,1.762-6.405-1.415-6.421,2.546-4.215,1.626-0.663-.88-1.295-1.44-3.958-1.192-3.113,2.732L437.159,504l-0.821-1.651-9.527,2.41-6.473-2.561-2.032.582,0.877,2.369-1.1.57-3.255-3.627-0.353,3.76Z" transform="translate(-3.455 -97.669)" fill="#ff8080" stroke="#000"/><path d="M599.192,420.028l3.54-5.3-1.691-6.046-4.7-1.251,2.345-1.769,4.37-8.61-4.11-7.263-1.666-5.349,1.936-6.3-2.964-9.05-0.155-8.335-3.057.335-2.645.146-13.879.579-10.041,4.81-9.45,3.224-4.33,1.546-7.1,5.541-7.895,9.716-0.9-.836-3.605,4.788-1.316,1.295-5.755,4.485-4.507,3.714-7.319,4.646-7.213,2.822-6.647,2.85-5.532,3.68-1.391-.121-12.324,3.472-8.009,1.357-9.629,0-5.117,1.778-7.415-3.292-6.659-1.13-2.2-.709-12.194,11.67-1.871-.784-3.212,8.065-4.491,5.736-0.582,2.205,0.963,0.712,4.624,0.926,2.546,0.88,3.968-.678,1.35-.251,4.324,5.253L435.641,451l-0.83,8.242,1.992,2.106,0.954-.635,2.366-3.2,5.216,0.294,1.917-4.742,2.239,2.425,3.4,1.279,4.305-6.309,1.106-3.686,2.546,1.072,1.877,3.692,2.32-1.564,5.625-.074,5.219-1.521-2.76,5.7,2.732,7.207,5.386-.452-0.257-1.044,1.871-1.016,7.474-6.229,5.448,0.065,3.407,1.279,4.974-1.443,2.918-2.527,1.453-.409,4.333,1.112,6.207-2.775,1.989-3.593-0.05-2.753,3.574,1.13,3.593-.914,1.013,0.873,2.3-1.084,3.763,0.48-0.5-2.4,3.887-5.386,1.335-1.332,0.88,0.973,0.96,2.574,5.318,0.985,2.388-1.36,2.038,1.58-2.617,6.464,1.688,0.892,3.029,2.159,2.32,2.707,1.827,0.669,1,4.949-5.73,3.057-2.642.223-0.192.093-0.923,2.469-2.441.557-2.292,3.243-2.562.461,1.164,2.8,4.559,1.381,3.361,3.707,1.688-3.7,4.5-3.032,3.735-1.546,2.453,0.6,2.757-3.7,1.028,3.76,2.5,0.465,1.214,2.32,1.31-.09,2.778-2.976,4.606,1.642,0.768,3.772,2.534,0.948,2.67-.585,1.044,2.14,2.481-.232,1.759,1.62,0.378,3.4-1.976,1.13-5.169-.582-5.609,5.628-0.75,2.633,1.1,0.8,4.017-.75,0.808,5.733L586,493.746l1.716,1.437,2.211,1.13,6.16-4.469,2.345-2.614,6.888,5.185,4.788-2.258,0.969,0.957,6.736-.7,5.3,1.1,2.531-8.062,0.078-.53-0.375-2.577,3.8-.9,2.54-4.581-1.484-1.892-4.723.012-0.582-1.059-5.058-1.48-0.406-.35,1.112-2.28,0.486-7.573-1-4.541,1.4-6.9-0.025-1.428-1.3-.585-0.192-1.316-1.276-.328-4.153-.229-7.78-5.872-4.144-7.028-0.065-1.363,1.323-.366,3.937-.322,4.59-2.682,6.281-1.484,0.2-8.775-4.711-3.779-5.08-.118-6.343,6.721Z" transform="translate(-3.455 -97.669)" fill="#06c" stroke="#000"/><path d="M279.4,480.62l0.508-1.264-8.914-5.656-0.328-1.313,1.985-1.83-7.226-1.419,1.669-2.149,3.869,1.6,2.58-1,4.1-7.241,0.5-3.906,6.092-3.562-3.748-1.227-5.1-6.761-0.9-2.651,0.963-1.044-1.208-.338-1.515,2-0.4,3.59-2.583.889-4.454,6.69-3.407,2.2-3.974-.356-0.378-1.347-5.07-2.239-4.1-.059-0.136-.192-3.357-7.074-2.682-.065-1.781-1.936-1.211.468-4.252-2.976-3.457-5.225-1.3.619-0.7-3.481-0.966-.787-0.406,1.168-1.146-.486-2.14-3.475-5.361-4.033,0-1.36,2.509-.4,0.709-1.155-1.583-2.016-2-1.335-0.554-2.4-0.694-6.706,6.885-6.9L223.07,390.8l1.112,1.642-0.393-3.884,7.124-8.09,4.2-3.37,10.664,0.025,3.661-1.57,3.937-1.227,5.126,0.192,6.179-.235,9.524,1.592,3.308,3.1,8.2,5.355,5.442,2.53,8.867,2.989,10.088,1.8L319.017,394l2.478-.607,7,0.876,13.588,0.415,5.9,0.276,5.262,1.883,3.611,0.186,4.72-.279,5.488-1.035,5.1-1.087,12.473,0.907,10.335,2.592,8.691,0.969,9.5,0.8,5.708,2.357,4.3,2.041,5.219,3.525,8.025,5.145,5.724,2.49-12.194,11.67-1.871-.784-3.212,8.065-4.491,5.736-0.585,2.205,0.966,0.712-1.227.431-0.712,2.5-4.8-4.314-5.646.957-3.237,4.491-0.257-.592-1.409,2-2.388-.149L394.3,445.8l-6.495-2.908-0.105,1.078-10.01-1.728-2.515-3.912-2.478-2.868-6.721,1.917-1.7,2.258-0.973-.523-1.127-.691-7.926-4.073-3.172-1.561-0.607,3.782,2.36,2.8-0.579,1.155,0.375,0.8,0.771,2.363-1.056,2.4-0.053.2,1.065,2.478-2.075,3.419,0.681,4.748,1.087,0.654,0.585,3.884-3.02,2.537L347.98,464l0.421,1.2-3.422,4.974,6.8,0.852,2.255,1.632,0.152,0.573-5.033,6.068-2.549,4.119-2.221,5.464-6.129,3.069-4.38,8.425-3.782-1.459-3.162-4.1-3.834.9-12.516,4.894-4.352-.142,0.359,2.809-2.388,5.12-4.825,2.137-4.16,5.2-1.341-.158-6.678-3.584,1.385-3.93,0.288-1.731-0.17-1.874-0.322-2.738-2.239-3.466,0.561-5.541,0.22-1.134-0.359-4.615-3.878-.065-8.325,6.383,2.747-4.909,2.627-.858,4.138-3.763,0.52-1.316-2.31-1.564Z" transform="translate(-3.455 -97.669)" fill="#ffc0c0" stroke="#000"/><path d="M304.2,508.39l-4.825,2.134-4.16,5.2-1.341-.158-6.678-3.584-4.042,3.717,1.657,2.2,3.909,0.886,1.927,1.961,0.1,2.654-6.046,1.611-2.521,4.544-2.636-.121-1.149,5.138-1.481,3.633-7.678,9.047-2.766.431-9.4,6.043-1.865.226-2.221-1.422-3.912.192L247.43,549.1l-7.762,1.5-0.2,4.68L235.85,556l1.809,1.415-0.353,3.9-2.654,2.9,0.031,1.319,2.335,0.793,3.831-1.666,8.124-1.093,2.016,1.843-2.193,6.637-7.186,4.445-0.938,2.71-1.688,4-2.772,2.437-2.531.508-3.162-3.983-2.035,1.676-0.781,3.726-4.838,3.974-0.208,3.283-2.692-.285-3.007,4.525-3.76.5,0.047,0.588-0.282,3.81,7.046,2.174,0.685,1.121,0.514-.1,3.181-.1,0.486,1.047,2.744,0.288,1.936,5.061,0.821,1.152-1.716,3.549,0.623,1.276,3.128,2.936,6.678,2.382,3.224-3.46,2.391-.316,5.361,3.974,6-1.719,5.046,1.05,2.115-4.618,4.794-.393,2.242,3.4,4.742,2.884,7.913,2.345,2,3.342,3.927,0.276,4.191-2.976,5.439-.514,2.952-2.822,0.427,0.666-5.411,7.322,4.11-.1,4.5-3.045,3.292-4.256,0.644-2.633,2.2-1.53,1.124-2.184,9.657-2.106,4.884-2.874,2.822-.307,1.629-2.335,6.922-6.445-2.276-1.022-3.862-4.962,3.751-3.782,2.174,1.577,7.92,1.533,2.5-.988-0.523,5.485,5.507,0.1,4.76-2.769,1.725-.415,5.157-.654,2.753,2.413,2.36-1.518,2.952-4.782,6.755-1.614,2.193,0.053,1.5,1.682,3.807-1.227-0.406-2.691,5.123-1.434,2.168-3.472,1.217-1.183-2.76-2.134-4.993-.508,0.489-2.416,9.592,0.839,2.732-2.741,0.393,1.261,2.509,0.632,3.968-3.2,1.2,0.545,2.7-.579,0.842-3.791L409.6,566.19l0.585-.613,5.046-3.286,8.279-3.729,2.617,5.262,1.09-.759,0.533-5.166,1.824-1.911,7.09,1.2,1.453-3.807-0.508-2.688-3.026-9.763-10.14,1.682-4.494-2.354,0.44-2.6-2.493-2.911-3.342.585-2.716-4.287-4.476-1.951-1.326.322-3.807.062-3.28-4.175-3.624-1.629,0.09-.759-0.347-1.744,0.1-2.038,1.9-5.272,0.242-5.476,1.669-.619,1.849,1.288,1.27-.062,3.608-8.047,0.282-1.2,2.942,2.791,1.443,5.185,1.227,0.573,2.9-2.475,0.353-3.76,3.255,3.627,1.1-.567-0.88-2.369,2.035-.582,6.47,2.561,9.53-2.413,0.818,1.654,6.65,1.747,3.116-2.735,3.955,1.2,1.295,1.44,0.663,0.88,4.215-1.626,6.421-2.549,6.405,1.415,1.784-1.759,8.576,3.658,1.688-1.92,3.255,2.044,1.251-.418,4.324,1.577,1.208-2.242,0.251-5.194,2.4-.976-2.332-5.185-3.289-.675-0.777.827-3.68-.077,2.648-8.319-0.387-3.125-1.846,1.186-2.072-1.629-5.494,4.033-5.436.889-4.06-.876-0.43,1.115-3.5-.492,2.388-7.619-4.033-.585-3.614,1.09,0.818-2.131-3.416-1.53-4.559,2.843-3.707-1.62-0.9,1.072-1.75-3.116-2.478-.833-7.226-2.534-0.821,4.718,0.706,0.52-0.415,3.1-3.466,3.6-6.362-.056-3.525-1.62-3.032.238-2.574.322,0.177-1.3-3.534-3.261-0.192,1.288-4.132-1.967,2.134-3.323-3.838-3.766-2.456.127-0.567-2.8-3.844-4.268-5.519-.192-3.463,1.567-0.192,1.254-3.618,1.1-0.951,3.224,5.6,0.452,2.149,4.99-0.016.071-3.094,2.053-1.022,2.283-1.961-1.462-2.215-4.339-1.385,3.884,0.245,5.578-0.353.706-0.951.164-2.843.685-7.263-6.981-0.362.211-7.6-1.533-1.9,4.3-6.464-1.939-4.29,4.7-4.677.576-1.022-.7-2.221,5.464-6.129,3.069-4.38,8.425-3.782-1.459-3.162-4.1-3.831.9L310.586,500.6l-4.355-.142,0.362,2.809Z" transform="translate(-3.455 -97.669)" fill="#ffeb00" stroke="#000"/><text transform="translate(290.147 367.175)" font-size="72" font-family="DejaVu Sans" font-weight="700">5</text><text transform="translate(537.726 330.868)" font-size="72" font-family="DejaVu Sans" font-weight="700">4</text><text transform="translate(496.545 445.281)" font-size="72" font-family="DejaVu Sans" font-weight="700">3</text><text transform="translate(316.545 468.922)" font-size="72" font-family="DejaVu Sans" font-weight="700">6</text><text transform="translate(353.823 375.835)" font-size="41.75" font-family="DejaVu Sans" font-weight="700">1</text><text transform="translate(454.073 373.87)" font-size="20.583" font-family="DejaVu Sans" font-weight="700">2</text><path d="M719.418,592.505l5.529,9.815,1.762,3.971,2.159-.511-1.2,3.943,1.3,3.878-2.252,1.183,0.908,2.54-1.332,6.417-3.323,2.236,2.159,11.946-3.252,1.2-3,2.791-1.366,3.9-3.912,1.437-3.906,4.051,0.592,1.2,5.309-.062,4.246,3.255,0.112,1.038-1.335,2.2L719,663.717l1.137,2,3.138,1.645,0.483,0.028,3.76-3.345,4.832,1.889,3.382-4.2,3.791,0.471,2.187-1.36,3.218-2.044,1.258-6.356,2.456-4.621,3.6-1.53,2.58,3.032,5.1-.2,0.437,1.261,7.895-2.518,3.361-4.327,3.776-1.843,1.933,2.041,7.975-1.285,1.592-2.224,2.794,2.459,1.084-.7-0.393-3.868,7.322-7.616,2.521,3.807,4.1-2.8-0.084,1.31,6.811,2.744,1.481-7.678,1.254-.446-1.428-6.517,0.712-2.5,3.261,1.409,4.829-.028L820.9,623.8l3.11,2.574,6.681-1.357,9.131,5.885,1.406-1.9-1.518-1.821,6.16-.954,2.078,1.378,1.186,3.274,2.5,0.279,2.766-2.323,4.875-1.942,3.8,1.245,0.592,0.319,3.624,1.465,7.474-7.43,0.161-.149,2.165-1.31,2.6,0.115,0.61-3.807-1.71-3.525-0.616-.787-0.406-.709-2.524-4.435,0.774-6.247,8.019-6.037,2.041-4.073,1.8-1.694,5.021-.223,1.908-1.83,2.695,0.047,2.227-1.539,2.05-.777,2.156-3.048,1.267-7.551-2.419-.641-0.217-3.989-3.317-6.052,2.5-1.146,1.019-4.03,5.03-1.019,3.512,1.183,2.044-1.564,2.5-5.021-2.608.257L911.5,547.75l6.1-5.061-1.289-.059-1.474-2.118-3.689,1.772-4.113.05L905.1,544.1l-2.419-5.631,2.444-.9,2.484-5.795-1.672-1.657,0.8-2.05-1.381-1.536-3.707-3.082-2.3,1.18-3.7-.616-0.719-2.5L890,519.794l-2.744-2.67-0.849-1.917-2.385,1.093-3.7-1.756-6.213,2.143L870.257,513,868.4,510.31l-1.183-.864L864.2,507.77l-4.63-2.85-1.759-3.68-2.8.691-4.407-4.169-4.246,2.933-3.289,4.061,1.316,2.128,1.289-.328,1.038,2.416-2.515,3.4L841.93,510.8l-8.2.864-1.078-.022-0.365.87-1.747,1.366-0.523,4.646-7.489.276-0.511,2.029-1.741,1.911,0.353,2.094,2.013,0.907-0.762.74-0.9,5.247,0.9,2.955-2.769,1.2-0.108,2.413,1.428,1.973-1.01,3.658-5.34,1.329-5.86-7.563-4.073.585-1.961,3.469-2.555,1.025-5.519-4.218-2.524.474-2.716,2.252-2.1.839-0.174,1.152,1.412,2.385,5.55,3.946,2.109,4.909L794,556.694l0.629,0.1-0.948,2.2-0.852,1.762-3.862,7.09-7.632,2.2-2.9,2.8-0.387-1.165-2.3.8-1.672-1.391-0.167-2.137-2.388-.858-8.747,3.472-7.1,8.781-4.2.322-3.574-7.254,3.169-5.841-1.3-2.236,1.546-2.233-4.85,1.976-1.6-6.517-2.806-.118L733.7,563.62l-7.461,8.418-3.283-1.6-1.211,1.784,1.632,4.689-3.788.536,3.113,4.262-2.49,3.277,0.595,5.433Z" transform="translate(-3.455 -97.669)" fill="#06c" stroke="#000"/><path d="M707.751,510.9l-1.388-5.916-2.775-6.5,2.456-3.382L708,496.657l1.211-.31,2.379-2.905-2.617-4.7,0.5-2.654,0.35-4.15-4.011.468-5.154-1.18-1.9-5.049,0.065-4.023-1.951-1.347-2.465.564-1.22,2-3.2,1.443-2.376,1.031-4.46-2.366-1.4-3.639-7.3,2.122,1.927-4.023-6.232-5.56-0.065-2.45,2.794-2.6-1-.412-0.065-2.171-1.868-4.689,0.942-2.2-1.13-2.221,1.149-2.4,5.315-1.065,2.444,4.429,3.605,0.019,2.14-1.738,0.047-3.794,6.213-2.8,1.289,0.146,1.2,2.224,3.571,1.217-0.158,1.6,2.221-1.329,1.106,0.685,0.938,5.114,4.321-1.883,0.914-.276-2.531-9.279,1.691-3.769,4.643-2.887,5.869,5.027,3.93,0.706,2.31-1.18,0.164,0.142,2.809-.635,2.713-.149,4.922,2.515,1.381-.282,1.13,1.611-0.719,2.456,1.273,3.608-3.531,1.521-1.843,2.7,4.953,0.9,4.7,4.494,1.01,6.5,3.884-.647,2.094-1.583,5.011-.232,1.09-.746,4.866-2.5,4.5-2.332,1.539,1.84,2.137-.232-0.229-1.056,1.471,0.158,9.9-7.43,2.518,1.031,1.787-.381,1.948,5.045,3.032,2.645,0.768-1.555,3.568,0.644,4.194,7.483,3.4,2.224,2.815,3.215,0.31-1.242,1.27-.1,4.339,2.205,3.807,0.808,5.076,3.357-14.923,6.207-0.474,1.27,3.723-.777,8.369,3.472-3.286,4.324,2.143,1.552,2.388-2.958,0.886,5.265,2.416,3.268,4.931-4.237-0.9-4.674,5.417,3.444,0.976,2.5,3.618,1.462,2.258,0.235,3.283-1.208,2.6,2.986-0.827,2.49,1.765,1.657,4.259-.375,1.669,4.386-3.289,4.061,1.32,2.128,1.289-.328,1.038,2.416-2.515,3.4-2.27-1.577-8.2.864-1.078-.022-0.365.87-1.747,1.366L830,518.521l-7.489.276L822,520.825l-1.741,1.911,0.35,2.094,2.016,0.907-0.762.74-0.9,5.247,0.9,2.955-2.769,1.2-0.108,2.413,1.428,1.973-1.01,3.658-5.34,1.329-5.863-7.563-4.07.585-1.961,3.469-2.555,1.025-5.519-4.218-2.527.474-2.716,2.252-2.094.839-0.174,1.152,1.412,2.385,5.55,3.946,2.109,4.909-1.666,2.193,0.629,0.1-0.948,2.2-0.852,1.762-3.862,7.09-7.632,2.2-2.9,2.8-0.387-1.165-2.3.8-1.672-1.391-0.17-2.137-2.388-.858-8.734,3.472-7.1,8.781-4.2.322-3.574-7.254,3.169-5.841-1.3-2.236,1.546-2.233-4.847,1.976-1.6-6.517-2.8-.118-8.363,5.182-7.461,8.418-3.283-1.6-1.211,1.784,1.632,4.689-3.791.533,3.116,4.265-2.493,3.277,0.6,5.433-1.388,2.084,5.529,9.815,1.762,3.971,2.156-.511-1.192,3.943,1.3,3.878-2.252,1.183,0.908,2.54-1.332,6.417-3.323,2.236,2.156,11.946-3.249,1.2-6.312-9.245,1.505-2.376-0.269-1.468-4.3-2.955-2.351-3.221-3.72-.158-0.839-1.031-2.484-1.186-3.577-1.01-7.938-7.08-3.419-1.227-4.807-4.119-5.5-2.93,6.82-9.422-3.773,1.316-2.314-1.326-1.415-3.878,0.945-3.98-5.064,1.239-0.963-2.4,2.8-2.49-0.26-1.285L670,576.635l0.8-2.6-5.807-3.515-2.422.26-0.616,2.645L658.8,571.7l-3.583.074,4.9-4.782,3.7-1.49,9.673-.133,3.738,1.676,2.128-1.778,2.354-.709,1.555-3.745,1.372,2.437,5.566,4.228,10.236-10.354,6.34-1.778,3.9,1.038,2.255-1.558,1.118-2.527,1.357-.232,1.171,0.381,0.353-2.215,0.443-2.332,2.568-.362,3.856-3.453,1.645-2.363,0.923-6.761-1.818-2.081,1.645-1.985,3.726-.8-0.539-4.126-2.2-1.419-1.484,2.193-3.59-1.227-1.682,1.911-3.738.554-2.329-7.254-2.441.623Z" transform="translate(-3.455 -97.669)" fill="#ff8080" stroke="#000"/><path d="M724.569,532.892l1.818,2.081-0.923,6.761-1.645,2.363-3.856,3.453-2.568.362-0.443,2.332-0.35,2.215-1.174-.381-1.357.232-1.118,2.527L710.7,556.4l-3.9-1.041-6.34,1.778L690.22,567.492l-5.566-4.228-1.372-2.437-1.555,3.745-2.354.709-2.125,1.778-3.742-1.676-9.673.133-3.7,1.49-4.9,4.782,3.583-.074,3.156,1.725,0.616-2.645,2.422-.26,5.807,3.515-0.8,2.6-6.387,6.727-1.031.858L654.97,581.8l-6.408.811-5.838-3.314-4.02-.3-0.455,3.218-3.754-.61,1.83-3.9-3.515,2.1-2.766-.366-1.189-.731-0.985-3.983-8.381-4.838,1.239-6.634,1.155-.728,4.633-8.7,5.1-8.536-1.434-5.541,1.837-7.062,3.243-6.294-5.662-5.228-3.946-.322-6.47-1.679-1.66-5.08-0.945-.976-1.115.771L614.446,513l3.534-3.571-0.322-2.493,0.025-1.4,3.432-2.351,4.166,0.04,2.413,1.338-0.217-5.637-3.757-.434,2.428-2.6-0.341-1.1-2.41-.077-0.31-1.189,2.531-8.062,0.078-.53-0.378-2.577,3.807-.9,2.537-4.581-1.484-1.892L625.45,475l-0.582-1.056-5.058-1.484-0.406-.35,1.112-2.28L621,462.26l-1-4.541,1.4-6.9-0.025-1.428-1.3-.585-0.192-1.316-1.279-.328-4.15-.229-7.78-5.872-4.144-7.028-0.065-1.363,1.32-.366,3.937-.322,4.587-2.682,6.284-1.484,0.2-8.775-4.711-3.779-5.08-.118-6.343,6.721-3.5-1.8,3.54-5.3-1.691-6.046-4.708-1.251,2.348-1.769,4.367-8.61-4.107-7.263-1.666-5.349,1.936-6.3-2.964-9.05L596.06,360.8l3.3-.378,8.109-1.428-0.424-2.676,7.845-1.227,4.692-1.326,10.373-4.036,2.459-1.3,10.227-6.653,1.5-1.239,3.655-1.852,4.057,0.1,3.41,1.865,4.1,5.067,0.245,0.393,1.258,1.409,4.565,5.9,5.4,5.73,4.782,2.044,3.986-.424,7.365-5.789,0.777,1.168-2.843,3.038-1.363,3.971,2.62-.474,1.124,2.388,3.639,0.976-2.029,3.246,1.989,1.344,0.932,1.007,2.645-.192,3.958-1,3.828,1.258,1.32-.356,0.991-2.515,1.36,0.034,0.263-.362,6,1.127,1.45-2.063,6.281-2.357,4.125,3.289,1.127-.8,3.512-.852-0.319-5.027,0.818,0.022,1.787,8.341,2.434,3.441,3.735,1.837,3.757,0.635,3.556-1.326,0.867,1.028,3.766-1.391-0.468,2.611,2.125,3.271-1.5,3.614,1.112-.771,2.506,1.031,0.719-2.5,5.956-2.9-0.071,3.676,1.713,7.077-0.294,3.624,2.376,2.026-3.2,2.537-9.047-3.131-3.7,1.645-1.97-1.347-1.273.084L741.2,400.5l-2.289-.121-1.871-1.341-0.678,2.673-2.193,1.769-0.554-1.282-5.516-.366-4.314-4.07-0.031-2.862-2.654-.248-4.838,2.029-2.208-1.01-1.2.6-0.071.022-2.125,6.139,2.125,5.919,3.246-1.651,3.661,3.469-1.419,4.937-2.159-.161-1.158,1.679-2.623,3.02,0.595,2.6-1.171.663,2.586,0.465,1.149,2.376,2.614-.291,1.871,3.038,1.989,5.968-2.31,1.18-3.93-.709-5.869-5.027-4.643,2.89-1.691,3.766,2.531,9.282-0.914.273L700.818,448l-0.938-5.117-1.109-.681-2.218,1.326,0.155-1.6-3.568-1.217-1.2-2.224-1.289-.142-6.216,2.8-0.043,3.794-2.143,1.738-3.605-.019-2.441-4.429-5.315,1.065-1.152,2.4,1.134,2.218-0.942,2.2,1.865,4.689,0.065,2.171,1,0.412-2.778,2.58,0.062,2.45,6.235,5.56L674.446,472l7.294-2.125,1.4,3.639,4.46,2.369,2.376-1.031,3.2-1.443,1.217-2,2.469-.561,1.951,1.344-0.065,4.023,1.9,5.049,5.154,1.183,4.011-.471-0.35,4.15-0.5,2.657,2.617,4.692-2.379,2.905-1.211.307-1.951-1.555-2.456,3.382,2.775,6.5,1.388,5.916,4.184,10.459,2.441-.619,2.329,7.254,3.738-.557,1.682-1.908,3.59,1.227,1.484-2.193,2.2,1.419,0.539,4.126-3.726.8Z" transform="translate(-3.455 -97.669)" fill="#f6e1b9" stroke="#000"/><path d="M765.852,452.3l1.474,0.158,9.893-7.427,2.518,1.031,1.79-.381,1.945,5.042,3.032,2.645,0.768-1.555,3.568,0.644,4.194,7.483,3.4,2.224,2.815,3.215,0.31-1.239,1.273-.1,4.336,2.205,3.807,0.808,5.076,3.357-14.923,6.207-0.474,1.27,3.723-.777,8.369,3.472-3.286,4.324,2.143,1.552,2.388-2.958,0.886,5.262,2.416,3.268,4.931-4.237-0.9-4.674,5.417,3.444,0.979,2.5,3.618,1.462,2.258,0.235,3.286-1.2,2.6,2.983-0.827,2.49,1.765,1.657,4.259-.375,1.669,4.386,4.246-2.933,4.407,4.169,2.8-.691,7.824-5.64,0.892-1.1,4.984-2.091,2,1.13,0.573-2.437-0.976-2.32,3.178-2.292,7.65,2.106-0.09.161,1.818,3.264,3.292,1.546,1.279-1.623,0.979-8.161-3.231-2.645,2.388-4.194,0.688-.192,0.192-2.357-7.254-8.115-5.194-2.577-0.564-.2-6.448-2.815-2.31-3.525,0.356-1.8,0.415-.9,12.872-8.672,1.923-3.76,0.979-2.515-0.5-2.667-2.874-2.893-2.6-.8-0.619-.177-3.961.065-6.414,5.145-3.794,4.15-3.2,2.469-3.927.858-6.944,6.281-6.476-1.93-1.276-1.391,3.67-1.648,0.4-2.676,3.887-3.745,3.782-3.4,2.565,0.065,1.1-2.311-1.4-1.837-0.39-6.5-2.057-1.626-3.277-.331-0.681.957,0.539-5.287-0.827-2.54,0.266-1.357-3.841-5.656-2.348-1.431-3.934-.071,2.608-2.565,0.567-2.636-1.815-5.018,1.227-3.72,2.437-1.227-8.917-.889-0.7-1.081-2.5-.059,0.139-1.258-0.691.907,0.945,5.962-4.218.307-0.186-.068-0.561-2.332-2.447.914-1.273,2.267-0.812-2.394-2.763,2.382-2.515.2-2.258,3.912-0.762,6.461-1.158,0-9.106.04L800,410.733l-6.226,3.4,4.451,6.749,0.282,1.335-3.391,2.1,2.726,4.479-0.666.9-2.109-.722L794.609,430l-0.019-1.23-3.3,1.431-0.078-.65-10.348,3.116-1.239-2.131,1.034-1.939-2.723-.412-0.474-2.592-2.416-1.084-1.118-2.5-4.466,2.831-0.877-3.453,2.617-2.218-0.437-2.2-0.016-1.316-2.465-1.233-3.68-9.217-3.057,2.657-4.677,2.682,0.334,2.7-2.447.836L753.142,412l0.694-5.259-7.124-2.927-1.295.366L744.978,403l-4.825-.375,1.065-2.131-2.289-.121-1.871-1.341L736.38,401.7l-2.193,1.765-0.554-1.279-5.516-.366-4.314-4.07-0.031-2.862-2.654-.248-4.838,2.029-2.208-1.01-1.2.6-0.068.022-2.128,6.139,2.128,5.919,3.246-1.651,3.661,3.469-1.419,4.937-2.159-.161-1.158,1.679-2.623,3.02,0.595,2.6-1.171.663,2.586,0.465,1.149,2.376,2.614-.291,1.871,3.038,1.989,5.965,0.164,0.146,2.809-.635,2.713-.149,4.922,2.512,1.381-.282,1.13,1.611-0.719,2.456,1.273,3.608-3.534,1.521-1.84,2.7,4.953,0.9,4.7,4.494,1.01,6.5,3.884-.647,2.094-1.583,5.011-.232,1.087-.746,4.869-2.5,4.5-2.332,1.539,1.84,2.137-.232Z" transform="translate(-3.455 -97.669)" fill="#ff8080" stroke="#000"/><path d="M885.044,442.025l-1.923,3.76-12.872,8.672-0.415.9-0.356,1.8,2.31,3.525,6.448,2.815,0.564,0.2,5.2,2.577,7.251,8.115-0.192,2.357-0.688.192-2.388,4.194,3.231,2.645-0.982,8.161-1.279,1.623-3.289-1.546-1.818-3.264,0.087-.161-7.65-2.106-3.178,2.292,0.976,2.317-0.573,2.441-2-1.13-4.984,2.091-0.892,1.1-7.824,5.64,1.759,3.68,4.63,2.85,3.017,1.676,1.183,0.864,1.855,2.688,3.859,3.689,6.213-2.143,3.7,1.756L886.4,515.2l0.849,1.917,2.744,2.67,4.925,1.716,0.719,2.5,3.7,0.616,2.3-1.18-0.406-4.011-2.125-3.466,0.821-2.586-1.05-.861,3.729-3.937,3.952,3.859,2.645,0.793,4.417-2.958,2.512-7.536-0.678-2.586,1.66,1.741,1.258,4.661,6.625-1.617,3.748,0.815,3.032-2.592,5.82-2.388,2.565-.415,1.233,2.369,3.822-3.289-1.022-.756,0.189-3.627,1.815-3.277,5.55-8.006,2.072-2.153-0.709-4.661,2.472-4.24,0.43-.582-0.753-1.149,2.075-5.005-0.787-2.614,1.446-2.081-0.338-3.633,1.422-3.853-0.716-2.481,0.812-2.645,6.129-5.615,1.261-2.453-0.886-.706,0.167-3.37-0.056-3.822,2.692-5.135,4.07-.226,2.115-1.728,4.057,0.542,1.1-.8,3.261,4.488-0.056,2.763,6.229,2.2-0.065-2.871,3.258-7.963-2.218-1.319,0.53-4.042-3.116-2.63L986,417.154l-1.524-1.354,0.539-5.25-1.815-5.092,0.824-2.54,0.883-4.085-4.318-8.623,0.452-4.531-2.487-1.3-1.871-3.766-6-5.872,5.358-4.206-2.5-.489-3.506,1.295-0.96-2.239-2.348-.065L963.9,374.9l-3.187-3.159-0.427-1.276-2.667-.189-3,2.589-2.193-1.27-0.83-.087-5.135-3.525,0.04-1.27-5.594,1.716-2.84-2.744-2.918-5.718-2.534-2.246,0.2-1.112-6.823-.161-3.444,4.194-2.537-4.844-6.764,1.016-2.775-3.221-3.974-1.546-6.922.514-3.645-2.01-6.34-.248-7.39,2.3-0.217-1.363,2.388-3.37-1.5-.672-4.68,4.94L871.71,354.1l-0.5,1.3,2.06,1.874-0.3,1.081-2.992-1.258,0.149,4.026-2.419-.892-5.064.969,1.518,7.133-1.146.7-0.8,5.284-2.775.675-2.986,3.131,0.808,4.624-0.781,5.067-3.683,3.528-0.022,2.775-6.864-.062-2.434,1.227L842.245,399l1.815,5.018-0.567,2.636-2.6,2.565,3.93,0.071,2.348,1.431,3.841,5.656-0.266,1.357,0.827,2.54-0.539,5.287,0.681-.957,3.277,0.331,2.057,1.626,0.39,6.5,1.4,1.837-1.1,2.311-2.565-.065-3.782,3.4L847.5,444.3l-0.4,2.676-3.67,1.645,1.276,1.394,6.476,1.93,6.944-6.281,3.93-.858,3.2-2.469,3.794-4.15,6.418-5.145,3.958-.065,0.619,0.177,2.6,0.8,2.874,2.893,0.5,2.667Z" transform="translate(-3.455 -97.669)" fill="#06c" stroke="#000"/><text transform="translate(812.871 504.781)" font-size="72" font-family="DejaVu Sans" font-weight="700">1</text><text transform="translate(893.784 345.359)" font-size="72" font-family="DejaVu Sans" font-weight="700">5</text><text transform="translate(626.8 338.244)" font-size="72" font-family="DejaVu Sans" font-weight="700">3</text><text transform="translate(736.708 436.822)" font-size="72" font-family="DejaVu Sans" font-weight="700">2</text><text transform="translate(802.265 361.117)" font-size="55.163" font-family="DejaVu Sans" font-weight="700">4</text><path d="M189.809,528.107l0.217-6.278,2.645-2.592,0.322-2.555-1.227.7L188.248,515l-3.435-4.472-2-4.767,3.172-7.046-5.052,1.233,4.751-7.929-4.125-3.4,0.2-1.335,0.982-4.665,0.13-1.363-4.324-4.987-5.005.914,2.766-6.405,2.456-1.13,0.081-2.057,2.273-3.816-0.545-8.319,1.443-2.354,0.242-2.32,4.221-4.606-3.3-.963-1.586,1.827-7.179,5.795-3.856.892L161.4,455.6l-1.295-3.4-1.239.2-1.775-1.741,4.751-6.8-0.839-6.628-2.555-.285,0.716-3.395,2.054-4.785,2.267-1.143,1.1-3.834-3.515-1.874-2.224-5.107,1.549-5.436,1.484-1.035,5.114-1.92,3.8-4,4.107,0.164,2.119-1.731-2.28-4.039-0.728-.907-3.348.214-1.227-.468L168.769,394l-1.31.146-2.406-.192,0.551-2.521-0.873-.963-10.274,8.682,1.22-2.382-2.568-4.537,1.707-2.038-3.831-1.357-3.859-.6-4.832-4.271,0.443-3.772,2.372-1.115-0.935-3.8-1.412-1.047,0.935-1.957-3.534-1.66,1.812-3.645,0.8-5.383,2.871-4.531-1.152-1.332-2.527-.926L138.643,357l-2.654-.341-2.692-1.484-1.719-3.732,1.806-3.475L130.76,346.1l4.5-9.357,3.927-.1,0.793,0.254,0.632-2.657,3.007-4.122,2.32,1.022,2.131-.994-6.083-4.714-0.66-3.834,3.1-4.386L143.9,313.17l2.094-1.685L151.3,312l2.893,5.721,5.275-.691,1.484,2.258,3.116-1.031,10.847-.127,3.41,6.848,2.961,4.129,1.27,1.837,5.148,8.765,6.136,7.821,2,2.84,2.831,3.351,4.1,4.835,1.961,2.388,4.85,7.018,2.332,8.2-0.781,2.707-3.732,4,0.44,4.184,3.6-.675,7.034,3.754,0.294,1.31,4.324-.616,1.663,11.674-6.885,6.9,0.694,6.706,0.557,2.4,1.995,1.335,1.583,2.016-0.709,1.155-2.509.4,0,1.36,5.361,4.033,2.14,3.475,1.146,0.486,0.406-1.168,0.966,0.787,0.7,3.481,1.3-.619,3.457,5.225,4.252,2.976,1.214-.471,1.778,1.936,2.682,0.068,3.357,7.074,0.136,0.192,4.1,0.059,5.07,2.239,0.378,1.344,3.974,0.359,3.407-2.2,4.454-6.69,2.583-.892,0.4-3.587,1.515-2,1.208,0.338-0.963,1.044,0.9,2.651,5.1,6.761,3.748,1.227-6.092,3.562-0.5,3.906-4.1,7.241-2.58,1-3.869-1.6-1.666,2.149,7.223,1.419-1.985,1.827,0.328,1.316,8.914,5.653-0.508,1.267,2.682,0.248,2.314,1.564-0.52,1.316-4.141,3.763-2.627.858-2.747,4.909,8.325-6.383,3.878,0.065,0.359,4.615-0.22,1.134-0.561,5.541,2.239,3.466,0.322,2.738,0.17,1.877-0.288,1.728-1.385,3.93-4.042,3.717,1.657,2.2,3.909,0.886,1.927,1.961,0.1,2.654-6.046,1.611-2.521,4.544-2.636-.121-1.149,5.138-1.477,3.633-7.681,9.047-2.766.431-9.4,6.043-1.865.226-2.221-1.422-3.912.192-1.642-3.621-7.762,1.5-0.2,4.68-3.621.719,1.809,1.415-0.353,3.9-2.654,2.9,0.031,1.319,2.335,0.793,3.831-1.666L249,563.589l2.016,1.843-2.193,6.637-7.186,4.445-0.938,2.71-1.688,4-2.772,2.437-2.531.508-3.162-3.983-2.035,1.676-0.781,3.726-4.838,3.974-0.208,3.283-2.692-.285-3.007,4.525-3.76.5,0.047,0.588-5.024,4.308-3.19,6.2,3.875,3.36-3.054,4.454-0.53,2.654-0.985.784-4.72-1.468-3.686-.189-3.082,2.122-5.216.579-2.437,2.905-2.527-.545-0.211-4.085-3.992,1.065-7.229-4.246,4.057-3.68-0.053-2.67-3.165,2.465-2.648.362-0.437-1.282,1.719-3.577-2.5-3.023-1.326.087-2.134-3.314-1.289-.322-1.8-2.267,0.322-1.8,3.825,0.6,2.425-.923,1.316-2.125,2.611,0.074,6.548-4.181,1.945-7.313-1.214-3.562,2.177,1.3,7.941-3.553-0.716-5.064-2.026-3.041-0.251-2.342-2.76-1.973,0.694-.985,3.624-1.682,5.262-.409,5.4-5.913-2.088-2.568L196.861,553l0.52-4.03-6.213-5.284,7.217-3.488-0.675-12.436Z" transform="translate(-3.455 -97.669)" fill="#06c" stroke="#000"/><path d="M102.4,589.3l-1.741,5.033-1.936,1.741-0.87,1.161-5.129,3,1.161,0.87,2.032-1.258,3.1,1.161,4.064,4.163,0.681,2.515,0.867,11.132-0.192,7.065-1.161,6.678,0.678,2.71,4.163,4.937,6.1,1.258,3.776,5.9,3.1,10.453,2.905,2.71,2.515-1.069,7.647,5.033,2.131,1.741,0.774,5.9,2.131-.582,1.258-4.064,2.323-.387,7.935-4.259,4.646-3.872-0.774-1.065,1.456-.582,0.48-.87-0.093,1.065-0.774.387,0.48,0.87-0.678,1.258-1.065.774-1.258,2.323-0.387,1.936-3,2.815-0.678,3.1,2.131,2.71,1.453-.387,2.71,0.291,1.068,1.84,2.227-.291,1.741,4.55,1.645,1.258,0.774,0.192,0.774-.291-0.483.483-1.357.093-2.419-1.161-1.453-.582-0.192-2.032-2.029-.678-1.843.966-1.642-1.549-1.741-.192-0.582,1.258-1.549-.774-2.515.483-0.387,1.065h-1.645l-1.161-2.032-0.867,1.065,0.774,1.645-6,5.612-1.84-.681-5.42,2.419-0.87.291-0.966-.867-1.843.774,0.1,1.161-1.357-1.843-4.166.582-0.291,2.227-0.1-1.741-0.867-.291-1.258-3.68-5.9-1.453-1.741.387-5.714,1.549,1.258,4.646,3,2.227,2.419,1.161,1.741,3.484-0.774,6.582,3.776,0.774,1.741,4.742-1.642,2.029-1.549,4.94,3.484,3.964,0.582,3.872,0.582-.192,5.228,8.71,1.453,7.551,1.161-.582,2.905,1.936,2.227-.774,2.227,0.966,0.966-.87,3.289,1.84,1.549,2.032-1.254,2.323,3.388,3.872,7.452,0.483,4.259,1.642,2.131-.867,7.551-5.516-0.582-2.71,1.84-3.68,1.258-.582,1.645,1.84,0.582-3.872,1.741-1.645,0.774,1.069,4.937-1.069,3.289-3.872,2.227,0.192,2.515-6.1-0.867-3.68,6.1-3.964h0.192l4.355,2.416,6.387-.582,0.291-1.258,2.71,4.259,2.227,1.161,5.711-.582L211.991,724l4.259,2.617,3.58-1.645,3.872,0.1,4.259,3.484,8.13,1.741,1.936-.774,0.582-2.032,12.872,8.9,2.323,1.549,7.647-2.227,2.617-3.193,0.48-3.964,2.23-1.645,2.515,0.87,5.324,0.582,1.549,4.94,5.807,2.323,9.388-2.617,1.161-2.8,2.227-4.838,5.327-4.355,4.838-6.387,0.87-.774,3.968-.87,3.872-3.968,0.291-5.324,1.936-6.387,2.419-1.357,1.741-3.484-0.387-6.387,0.87-.966,2.515,0.1-0.867-2.323-5.033-1.645-2.71-8.613-0.1-1.357,3-2.614,1.357-3.779,4.064-3.19,1.357,0.48-0.192-2.614-2.131-1.549-6.387-1.936-2.515-2.614-4.742-3.1-2.806-6.1-3-2.8-2.71-.387-0.678,1.065-2.806.483-2.032-1.549-0.483-5.228,2.905-2.71,5.42-7.26-0.483-.678L298.534,628l-5.42.48-4.259,3-3.872-.294-2.032-3.289-7.935-2.419-4.739-2.806-2.23-3.388-4.739.387-2.131,4.55-5.033-.966-6,1.642-5.42-3.964-2.323.291-3.289,3.484-6.678-2.323-3.1-3-0.582-1.258,1.645-3.58-0.774-1.065-1.936-5.129-2.71-.291-0.582-.966-3.1.093-0.582.1-0.681-1.161-7.062-2.227,0.291-3.779-5.033,4.355-3.193,6.195,3.872,3.289-3,4.454-0.582,2.71-0.966.774-4.742-1.453-3.68-.192-3.1,2.131-5.129.582-2.515,2.905-2.515-.582-0.192-4.064-3.965,1.065-7.263-4.259,4.064-3.68v-2.71l-3.193,2.515-2.71.387-0.387-1.357,1.741-3.58-2.515-3-1.357.093-2.131-3.289-1.258-.387-1.84-2.227,0.387-1.843-2.71-4.646-3.68.681-4.646-2.131-2.131,3.776-4.259,1.741,0.582,2.515-0.87,1.065-2.323.678-0.774-1.065-4.937.87-1.068-2.419,3.1-5.807-0.48-2.614-5.42.093-4.838,2.515-5.324-1.258-0.774.387-2.323.678-0.1,2.71-6.582,1.357-0.291-4.355h-3.58l-0.966-1.645-2.419-.483Zm17.713,89.82-0.678.294,0.192,0.48h0.387l0.48-.192Z" transform="translate(-3.455 -97.669)" fill="#06c" stroke="#000"/><path d="M50.361,384.933l-2.952-1.756,0.269-.6,2.131,0.957,1.059-.4,4.476,2.775-0.372-2.6-1.381.461-1.8-1.378-0.269-1.778-4.361,1.942-0.492,2.7-1.9-1.208-3.134.071-0.44-2.106-3.268-8.734-0.037-6.671-0.1-9.4-3.419-12-2.527-2.645,0.1-7.96-1.58-6.164-2.332-1.013-2.753-.483-3.02-2.893-1.1-6.845,1.48-2.276,6.061-3.426,0.892-2,3.522-6.21-0.18-4.541,5.727-.217L46.831,296l1.428,0.065,2.769,3.178,1.363-.449,0.322,2.215,1.319,3.819-1.707,2.05,0.449,2.645-0.9.994,2.19-.177,3.531-4.076,1.384-.115L58.594,307.4l1.041,0.793L62.178,308l2.18,1.434,1.14-.635,1.861,1.834,0.694,2.029,3.955,1.031,8.452-.867,0.877,0.929,0.474,1.344,1.412-.074,4.739-2.688-1.093-4.147,11.791-3.2,4.107-3.525,0.338-2.7,2.778,0.861,4.847,1.995,1.917-1.871,9.087-5.222,2.441,1.409,13.535,0.9,1.927-1.982,2.719,0.366,2.366,4.915,3.68,1.92,0.6,2.71,1.14,0.8,4.088-.52-0.121,4.191-2.834,2.775-5.315-.511-2.094,1.685,0.533,4.036-3.1,4.386,0.66,3.834,6.083,4.714-2.131.994-2.32-1.022-3,4.122L139.95,336.9l-0.793-.254-3.927.105-4.5,9.354,2.623,1.871-1.806,3.475,1.716,3.732,2.692,1.484,2.657,0.344,3.323-2.215,2.527,0.929,1.152,1.329-2.871,4.531-0.8,5.383-1.812,3.645,3.534,1.66-0.935,1.957,1.412,1.047,0.935,3.8-2.372,1.112-0.443,3.772,4.832,4.271,3.859,0.6,3.831,1.357-1.707,2.035,2.568,4.541-1.223,2.379,10.277-8.682,0.873,0.963-0.551,2.521,2.406,0.192,1.307-.146,0.675,3.649,1.227,0.468,3.348-.214,0.728,0.907,2.276,4.039-2.115,1.731-4.107-.164-3.8,4-5.114,1.92-1.484,1.035-1.549,5.436,2.224,5.107,3.515,1.874-1.1,3.834-2.264,1.146-2.054,4.785-0.719,3.391,2.558,0.285,0.839,6.628-4.751,6.8,1.775,1.741,1.239-.2,1.295,3.407,9.149-1.868,3.856-.892,7.179-5.795,1.586-1.827,3.3,0.966-4.221,4.6-0.242,2.32-1.443,2.354,0.545,8.319-2.276,3.819-0.078,2.053-2.456,1.13-2.766,6.405,5.005-.914,4.324,4.987-0.13,1.363-0.982,4.665-0.2,1.335,4.125,3.4-4.748,7.929,5.052-1.23-3.172,7.043,2,4.767,3.435,4.472,3.518,2.382,1.227-.7-0.325,2.555-2.645,2.592-0.217,6.278,7.879-.369,0.678,12.432-7.217,3.488,6.213,5.284-0.52,4.03-0.127,2.41,2.088,2.568-5.4,5.913-5.265.409-3.624,1.682-0.691.982,2.757,1.976,0.254,2.342,2.026,3.038,0.712,5.067-7.938,3.549-2.177-1.3,1.211,3.565-1.945,7.309-6.544,4.184-2.614-.077-1.313,2.128-2.428.923-3.822-.6-2.707-4.7-3.63.706-4.609-2.184-2.205,3.856-4.274,1.731,0.582,2.512-0.812,1-2.335.669-0.8-1.01-4.965.883-1.007-2.456,3.035-5.748-0.474-2.611-5.355.087-4.891,2.475-5.318-1.248-0.771.406-2.264.688-0.17,2.713-6.548,1.326-0.3-4.4-3.571.077-1-1.716-2.385-.443-2.809-2.354,1.539-9.146,0.26-2.283,1.992-13.959,2.716-3.856-1.861,7.365,1.555,9.177,1.025,0.037-0.226-6.046,0.861-6.529,1.227-2.518-0.585-2.623-2.472-1.542-0.9,1.357-0.923-1.019,0.04-4.122,0.1-6.845-0.143-5.228,0.514-3.955-0.2-5.052,1.419,1.883,0.864,5.247,1.143-1.236-1-3.661-1.422-5.253,0.235-5.448,5.6-3.68,5.5,4.215,2.109,1.663,0.322-.313-1.01-2.515-8.967-5.99-3.308,1.865-1.254-.629-2.58,3.054-2.506,6.1,1.047,4.345-1.081,1.561-3.8-8.217L94.84,506.857l1.555,5.823,0.681-2.831,0.709-2.58-1.344-1.375,0.8-1.638-2.89-2.927-0.384,3.026L93.9,500.468l-0.09-8.146,1.344-3.234,3.407-8.558,0.864,1.118,2.345-.449-2.05-3.419-1.236,2.137L97.6,476.111,95.134,456.88l-0.022-5.4-2.2-5.464,3.463,0.6,6.489-2.311,1.694,0.889,0.641,0-0.1-.121-4.776-4.85-5.978.582-1.741-3.193-0.149,3.116-2.781,2.989,0.9,5.643-0.92.384-4.194-5.166-2.236-5.42L80.6,429.893,78.777,425.9,75.745,421.2l0.629-2.441,1.044,2.927L79.4,420.62l1.635,1.127,0.858-.588-2.215-2.177-0.465-.632L77.9,419.6l-1.161-1.35-2.639-.1-2-3.961-1.846-4.336-2.967-6.82,1.109-.629,1.877,1.069,3.457-1.979,3.3-.149-0.214-.886-2.066.39-2.766.344-1.737-1.48-5.33,3.292-6.733-9.131-1.778-2.05-2.035-2.769Z" transform="translate(-3.455 -97.669)" fill="#ff8080" stroke="#000"/><path d="M5.324,248.9l0.74-6.941,2.06-1.493,6.8,1.391,3.28,2.691,1.967,3.6,3.813,0.186,5.011-3.872,1.846,1.292,2.645,0.781,3.33,7.508,3.323,1.611,5.141,0.523,8.49,3.6,11.277-.4,4.064,3.6,2.54,0.211,2.3-1.23,1.806,1.778-1.158.585,1.028,2.351,2.341,1.608,5.631,0.39,3.639-1.62,1.824,0.415-0.573,2.407,1.852,4.067,0.988-.012,0.728-2.084,0.681,1.9,0.183-1.815,0.557-.177,0.768,1.809,1.57-.709-0.291-4.166,2.205,0.932,1.028,0.923,6.235-1.889,3.807,1.115,1.285-.2,4.661-.279,7.595-3.8,2.788-2.2,0.96,0.728,1.189-3.968,2.072-1.824,0.74-5.293,5.3,1.474,4.079-3.553,2.676-.52,9.332-1.728,6.876,0.108,4.909,1.812,3.751-.511,2.038,1.567,6.569,2.153,8.239-.455L183.28,258.6l2.32,3.376,1.437,2.62,4.166,5.21-0.681,2.372,3.444,9.23,0.579,3.983-0.242,4.234-5.12-2.859-1.883,0,0.276,0.805-3.162,7.944,1.258,0.6,0.452,1.35-1.555.982-1.716,3.364-0.037,1.945-1.053-1.124,0.468-1.874,0.508-.17,1.171-1.961-2.571-1.233-1.967-.369-3.9,3.419-1.954,7.551,0.006,5.81,1.357,4.314-10.847.127-3.116,1.031-1.484-2.258-5.275.694-2.89-5.721,2.834-2.775,0.121-4.191-4.088.52-1.14-.8-0.6-2.71-3.68-1.917-2.366-4.918-2.719-.362-1.927,1.982-13.535-.9-2.441-1.409-9.09,5.222-1.914,1.871-4.847-1.995-2.781-.861-0.334,2.7-4.107,3.525-11.791,3.2,1.093,4.147L83.22,315.01l-1.412.071-0.471-1.341-0.877-.929-8.452.867-3.952-1.031-0.7-2.029L65.5,308.784l-1.143.635-2.18-1.437-2.54.2-1.044-.793,0.381-1.248-1.381.115-3.534,4.076-2.19.177,0.9-.994-0.446-2.645,1.707-2.05-1.319-3.819-0.322-2.215-1.36.449-2.772-3.178-1.428-.065-8.174,2.543-5.727.217-0.105-5.854-0.514-6.659L29.752,275.21,26.874,270.5l-2.292-2.174-3.664-.815-2.843-2.493-5.578-.3-6.226-3.206L5.633,260.25l2.534-5.039Z" transform="translate(-3.455 -97.669)" fill="#ff8080" stroke="#000"/><text transform="translate(209.509 425.781)" font-size="72" font-family="DejaVu Sans" font-weight="700">1</text><text transform="translate(187.045 594.781)" font-size="72" font-family="DejaVu Sans" font-weight="700">2</text><text transform="translate(106.507 377.87)" font-size="72" font-family="DejaVu Sans" font-weight="700">3</text><text transform="translate(138.045 196.853)" font-size="44.842" font-family="DejaVu Sans" font-weight="700">4</text><path d="M545.049,768.067L544.02,769l-4.15-.028,0.028,0.353-4.324,1.614-3.395,5.779,2.122,3.351-0.61,1.227-5.4-.186-4.37.074-4.7-3.742-0.5-2.515-6.2.821-0.508,2.434L504.313,782l0.452,1.2-1.279-2.726-0.74-2.416,0.969-2.137-1.031-14.117,0.623-.592,1.189-7.938-3.119-2.351-2.465.17-0.954,2.329-1.27.2-7.349.669-7.793-1.9-2.921-2.372,0.211-5.095-1.419-2.118,0.883-.8-1.391-4.448-0.5-2.444-2.667-2.648-1.217.325,1.428-4.99,5.606-2.565,0.2-2.623-9.118-5.522-3.286-3.989-1.09-1.685-3.029-2.633-3.549.923-3.838-1.2-1.9-1.9-1.747,4.739-2.153,1.638-0.818,1.121,4.612,4.8-2.047,3.568-4.621,2.945-0.836,5.25-3.618-.474-0.158-2.592-1.106-.675-4.968-.582-2.97-1.834-3.881,5.5-0.486,2.645-4.463,2.354,0.17,5.055-3.333-1.5-0.6-2.211-2.013-1.189-4.633-1.976,0.353-2.3-1.487-1.456-2.06,1.614-5.253-.366,0.257-.325-5.9-2.679-1.013.839-4.051.115L391.955,733l-3.807-.217-4.373-2.667-2.462,4.485-4.287,2.385-4.8,7.381-1.273.319-1.648-1.861-1.945,3.153-5.677-.762-0.291-.666-5.089,4.723-10.686,6.383,0.078-3.717-1.118-8.316-2.806-4.609-0.065,1.254-1.245-.149-2.592,2.67,0.016,2.481-1.152.5-2.543.508L332.7,744.4l-3.605,1.019-2.184-1.248-1.995,1.753-0.644,2.642,5.1,4.568L318.7,758.679l-2.242-.152-2.366-2.14-1.4-2.28,0.369-6.73-4.091.062-5.089,4.107-1.542-5.361,0.681-1.1-1.573-1.942-3.85-3.729-2.422-4.912-3.825-1.443,1.143-2.9,2.239-4.816,5.3-4.293,4.866-6.448,0.864-.746,3.965-.923,3.912-3.89,0.316-5.4,1.93-6.352,2.351-1.35,1.741-3.453-0.35-6.458,0.861-.976,2.568,0.158-0.948-2.332-4.977-1.62-2.723-8.635-0.124-1.357,3.038-2.592,1.329-3.807,4.116-3.2,1.258,0.508,1.35,3.844,2.9,2.76,5.423-11.729,10.026,3.8,1.186,0.1-0.214-4.9,1.065-2.131L345,651.536l2.437,0.5,3.992,0.4,4.859,2.276,7.158,3.472-3.54,3.785-1.967,4.717,6.8,7.142,1.053,2.289-2.2,2.165,9.735,7.272,2.521-1.062,0.883-2.565,2.562-.945,0.313-2.729,2.475-.266,2.627,2.673,6.588,7.04,4.073-3.605,2.645,0.61,6.374-7,2.5-.443,6.532,1.285,1.939-1.812,6.39-1.453,3.237-5.761,6.359-1.7,3.085-4.321,3.416,3.522-3.1,5.814-8.92,5.776-3.661,3.884,0.452,0.839,3.726,1.66,2.509-1.078,4.06,0.362,1.8-3.5,4.042,0.065,3.72-3.618,3.466,7.025,0.511,4.036-1.573,2.19,0.006,2.707,3.125-2.388,2.583-4.534,2.562,0.635,1.158,2.577,3.357-1.384,2.05,2.887,0.914-2.4,3.865,0,3.02-2.2,2.06-3.614,3.627-2.091,3.577-1.521,1.607,2.026,2.877-2.363,1.71-3.289,2.276,0.938,0.294,1.254-1.992,4.708,6.668,7.375,3.726,0.012,1.97,3.193,2.329-3.912,2.078-1.285,5.984,1.611,1.97-1.484,2.627,3.032-0.406,3.841,1.6,2.168,2.444-1.05,2.927-5.962,6.492-1.741,1.264,2.363,2.441,1.165,0.883-3.258,5.138,0.322,4.256,3.138,2.078-1.663,4.122-8.8,0.991-.976,2.623,0.935,2.035-4.968-5.467-5.643-1.177-2.416,1.35-2.326,3.1,2.753,2.75-.421,6.368,2.794,4.008-.009-1.118-4.073,7.87,0.626,5.783-2.967,3.943-.043,0.985-3.094,1.481-2.066,6.346-.545,1.329,3.772,3.023,2.645,0.139,1.338,3,1.871,2.732-4.033,3.156,1.806,1.629-1.865,3.726-.452,3.277-1.88,3.518-.966,1.45,5.355,2.726-1.8,3.828,3.875,1.068-.849,2.537,6.352,4.649,2.3-1.542,2.233,1.378,2.345,4.345-1.261,4.971,4.788-7.322,7.78-0.861.815,0.009,4.72,0.223,0.5-0.864,8.685,1.134,0.771L630.388,713l1.5,1.7-0.5.623-6.009,9.208,0.093,1.388-2.586.393-1.462,2.162-2.577-.344-1.481,1.434-2-.641-1.332,1.79-1.784-.663-2.617.979-1.2.269-1.583,6.829-6.114,6.142-4.429-2.633-3.782-.65-2.515.4-1.9-1.638-1.078.681-0.282,1.4-3.224,1.936-6.3.635-1.976-.372-6.058,3.992-0.79.557-5.166-.588-0.539,2.636,0.886,2.509-2.484.2-3.082-2.487-2.261.669,2.887,3.825,0.9,0.88-1.316,2.038-7.251,1.493-1.038-.712-2.7,1.453Z" transform="translate(-3.455 -97.669)" fill="#ff8080" stroke="#000"/><path d="M630.35,713.035l-1.118-5.107-1.13-.771,0.864-8.688-0.223-.492-0.009-4.72,0.861-.815,7.322-7.783-4.974-4.785-4.342,1.261-1.378-2.345,1.542-2.233-4.649-2.3-2.537-6.352-1.068.849-3.831-3.875-2.723,1.8-1.45-5.355-3.518.966-3.28,1.88-3.723.452-1.629,1.865L596.2,664.68l-2.732,4.033-3-1.871-0.139-1.338-3.023-2.645-1.329-3.772-6.346.542-1.481,2.066L568.755,660l-6.266-2.8-0.279-1.363,1.481-4.6,1.267,0.273,2.437-3,1.217-5.036-0.706-1.1,2.016-.189,4.119-.582,6.876-7.083-0.824-4.562,5.138-4.308-0.613-4.073-1.127-.805-3.057-1.8-3.506.263-3.862-4.807,0.022-3.964,1.75-4.934-0.926-.406,1.378-9.186,2.3-1.1-1.5-2.066-2.273,1.391-3.773-1.3-2.976-2.664,0.105-1.344-0.988-.657-1.177,2.534-5.2,4.7-2.515-.607-1.254-.409-0.719-3.859,6.269-4.736-0.248-1.3-5,.375-4.99,1.258-2.921-2.45-2.153-6.647-4.55,2.385,0.61-6.7-1.552-5.021-2.205-1.134-3.965.787,0.533-3.757,3.937-4.742,5.46,0.75,6.281-5.538,0.6-.92,2.283,0.725,2.562,3.964,1.276,5.346,1.143,0.811,4.1-.737,2.2-1.165,2.143-4.476,7.291-2.156,2.534,2.475,3.76-.886,1.45-6.433,4.541-2.376,3.838-.366,0.517,6.12,1.192,0.486,6.848-2.131,6.452,4.587,6.157-2.744,5.485-9.2,7.087,3.937-1.106,4,3.333,0.852-4.633,8.7-1.155.728-1.239,6.634,8.381,4.838,0.985,3.983,1.189,0.731,2.766,0.366,3.512-2.1-1.827,3.9,3.754,0.607,0.455-3.215,4.02,0.3,5.838,3.314,6.408-.811,7.632,2.437,1.031-.861,6.387-6.724,4.633,2.258,0.26,1.285-2.8,2.49,0.963,2.4,5.064-1.239-0.945,3.98,1.415,3.878,2.314,1.326,3.773-1.316-6.82,9.422,5.5,2.93,4.807,4.119L691.6,609.4l7.938,7.08,3.577,1.01,2.484,1.186,0.839,1.031,3.723,0.158,2.348,3.221,4.3,2.955,0.269,1.471-1.505,2.372,6.312,9.248-3,2.791-1.369,3.9-3.909,1.434-3.906,4.051,0.588,1.2,5.312-.062,4.243,3.255,0.112,1.038-1.332,2.2,0.384,4.776,1.137,2,3.138,1.645,0.483,0.028,3.76-3.345,4.829,1.889-1.279,2.372,3.58,5.4-0.192,6.108,2.357,0.762-3.376,5.944,0.908,3.834,6.191-.062,0.9,9.186,4.726,4.773,6.761,0.842,4.562,3.06,4.064,1.778,3.01,4.4-3.41,4.2,2.01,1.546,9.45,4.082-3.438,7.638-3.45,2.376,3.645,2.394-0.616,4.968-4.568,1.849,0.669,2.493,0.635,4.017,3.934,5.485,4.987,1.329,0.5,1.261-8.2,8.2,0.815,6.532-4.968,4.383-0.787,2.568-5.049,5.553-1.982-1.186-0.9.861L750.5,790.5l-3.862-.2-3.986,3.215-3.652-1.5,0.081,2.419-3.289,1.778L733.3,793.4l-8,3.209-0.685.35-1.081,3.063-3.116,4.3-0.161,2.651-3.175,5.81,0.954,0.923,4.776-1.573,4.971,4.218,2.521,0.678-3.429,2.218-2.122,5.111,1.459,2.363-1.106,1.5,9.158,14.975,1.933,4.819-6.006,2.822,0.034,2.676-2.388,1.18-10.128,5.674-1.022-.8-4.4-2.794-1.716-3.546-2.236.009-0.886-1.827-1.1-3.927-2.905-2.905-1.9-5.107-2.744-3.085-0.917-5.228-2.608-.365-5.671-3.348-2.555.731-2.859,2.676,1.734,7.57-1.734.39-0.452-2.434-2.038-1.632-2.453.861-5.107-.712-3.825.056-8.53-2.27-2.493.362-0.2-4.169-1.645-2.261-4.671-.83-4.776-6.284L648.9,817l2.112-1.53-3.748-5.346-4.107,2.818-3.348-2.078-5.383.257-3.385-1.6-0.6-2.447-3.19-2.627-1.837,2.044-3.475-1.97-3.02-4.584-0.858-4.039,1.8-1.682-1.821-8.7-0.5-5.532-1.261-1.484-0.316-9.186,1.8-1.9,0.582-3.918-1.5-2.193-2.156-2.942-1.217-5.485-2.716-3.227-0.737.415-2.388-.926-4.336-4.336-2.577-.511,6.114-6.142,1.583-6.829,1.2-.269,2.614-.979,1.787,0.66,1.332-1.787,2,0.641,1.481-1.437,2.577,0.347,1.462-2.162,2.586-.393-0.093-1.391,6.009-9.2,0.5-.623Z" transform="translate(-3.455 -97.669)" fill="#06c" stroke="#000"/><path d="M383.576,595.723l-1.5-1.682-2.193-.053-6.752,1.614-2.952,4.782-2.36,1.518-2.753-2.413-5.157.654-1.725.415-4.764,2.769-5.5-.1,0.523-5.485-2.5.991-7.917-1.536-2.174-1.577-3.751,3.782,3.862,4.962,2.276,1.022-6.916,6.433-1.632,2.335-2.818.307-4.884,2.874-9.657,2.106-1.124,2.184-2.2,1.53-0.644,2.633-3.292,4.256-4.5,3.045-4.11.1-2.856,2.651,0.455,5.272,2,1.561,2.788-.48,0.747-1.14,2.645,0.449,3.066,2.769,2.729,6.145,4.838,3.082,2.509,2.555,6.337,1.936,2.143,1.539L324,662.212l1.35,3.844,2.9,2.76,5.423-11.729,10.026,3.8,1.186,0.1-0.211-4.9,1.062-2.131-0.756-2.391,2.437,0.5,3.992,0.4,4.859,2.28,7.158,3.469-3.54,3.785-1.967,4.717,6.8,7.142,1.053,2.289-2.2,2.165,9.738,7.275,2.518-1.065,0.883-2.565,2.562-.945,0.313-2.729,2.475-.266,2.627,2.673,6.588,7.04,4.073-3.605,2.645,0.61,6.374-7,2.5-.443,6.529,1.285,1.939-1.812,6.39-1.453,3.237-5.761,6.359-1.7,3.085-4.321,3.416,3.522-3.1,5.814-8.92,5.776-3.661,3.884,0.452,0.839,3.726,1.66,2.509-1.078,4.06,0.362,1.8-3.5,4.042,0.065,3.72-3.618,3.466,7.028,0.511,4.033-1.573,2.19,0.006,2.707,3.125-2.388,2.583-4.534,2.562,0.635L454.3,689.5l3.357-1.384L459.7,691l0.914-2.4,3.865,0,3.02-2.2,2.06-3.614,3.627-2.091,3.577-1.521,1.607,2.026,2.877-2.363,1.71-3.289,2.28,0.938,0.291,1.254-1.992,4.708,6.668,7.378,3.726,0.009,1.97,3.193,2.329-3.912,2.078-1.285,5.984,1.611,1.97-1.484,2.627,3.032-0.406,3.841,1.6,2.168,2.444-1.05,2.927-5.962,6.495-1.741,1.261,2.363,2.441,1.165,0.883-3.255,5.138,0.322,4.256,3.138,2.078-1.663,4.122-8.8,0.991-.976,2.623,0.935,2.035-4.968-5.463-5.643-1.18-2.416,1.35-2.326,3.1,2.753,2.75-.421,6.368,2.794,4.011-.009-1.121-4.073,7.87,0.626,5.783-2.967,3.943-.043,0.985-3.094L568.78,660l-6.263-2.806-0.282-1.363,1.481-4.6,1.27,0.269,2.434-3,1.217-5.036-0.706-1.1,2.016-.186,4.119-.585,6.876-7.083-0.824-4.562,5.138-4.308-0.613-4.073-1.127-.8-3.057-1.8-3.506.26-3.862-4.807,0.025-3.964,1.747-4.934-0.926-.406,1.378-9.186,2.3-1.1-1.5-2.066-2.273,1.388-3.773-1.3-2.976-2.661,0.105-1.347-0.988-.657-1.177,2.534-5.2,4.7-2.515-.6-1.254-.412-0.719-3.859,6.272-4.736-0.248-1.3-5,.378-4.99,1.254-2.918-2.45-2.156-6.647-4.547,2.385,0.607-6.7-1.552-5.018-2.205-1.137-3.965.787-1.505,3.59-0.412,2.106-1.66,1.313-6.932,1.642-8.861,4.556,0.966,4.63-0.124.09-1.753-1.852-4.674,1.155,0.065,1.6-7.421,6.5-1.518,3.822-1.267.508-1.428.805-2.19-1.474-6.157,1.883-2.134-.421-2.617-2.7-0.781,3.834-3.813.966-0.688,1.186,4.915,6.359L478.8,605.1l-0.889.9-5.888-2.992-1.666-3.447-4.863-1.871-1.508-2.2-2.7,2.32-3.342-1.013-3.844-2.4-3.023-.1-3.766-1.468-4.026.319-4.011,1.295-2.345-3.419-5.547.047-1.9,4.513,1.484,1.914,0.118,2.4-4.15,5.476-0.452-.273-5.941-5.206,0.214-2.515,2.531-.74L422.2,594.46l-0.638.164-4.726.694-4.606-4.782-2.518-4.414-3.791,1.4-0.635-2.441-2.187.951-7.579-.322-1.217,1.183-2.168,3.472-5.123,1.434,0.406,2.691Z" transform="translate(-3.455 -97.669)" fill="#ffc0c0" stroke="#000"/><text transform="translate(660.045 623.281)" font-size="72" font-family="DejaVu Sans" font-weight="700">2</text><text transform="translate(444.686 570.161)" font-size="72" font-family="DejaVu Sans" font-weight="700">3</text><text transform="translate(499.545 655.992)" font-size="72" font-family="DejaVu Sans" font-weight="700">1</text><path d="M790.989,346.242l4.088,4.466-3.782,7.121-2.131,1.663,2.075,2.332,3.017-2.7,5.423-.709-0.458,2.887,2.617-.774,1.261,1.354,0.709-1.843,2.016-1.183,0.585-1.109,1.134,0.585,1.344,1.827,1.152,2.428,0.607-2.722,1.227-.523,6.9,0.92-0.579-.976,0.988-.548-2.775-2.654,2.019-1.9,1.047-3.878L820.8,350.6l-2.657-4.092-6.123,5.272-3.116-1.044-0.976.731-1.8-1.632-0.412-1.23,2.208-3.172-0.793-6.411-1.437.1-6.445,1.961-0.536,2.657-1.335-.235-3.661-3.3,0.034,2.7-2.583.756Z" transform="translate(-3.455 -97.669)" fill="#ff8080" stroke="#000"/><path d="M915.053,311.358l-2.481-6.817-15.808,3.723,1-8.939,1.892-1.614-2.521-2.521-0.424-.486-0.935-2.639-3.5-2.153-1.109-2.552,1.508-2.177,2.673-.784-1.964-1.871-2.7.409-3.577-4.122-2.735-.486,2.013,4.7-3.546,3.639-3.45-.4-1.71,1.868L870.2,290.21l-1.264.746-2.571-1.536-0.781,3.9-10.236,2.252-1.626,3.444-1.227.356,0.988,3.562-2.419,6.5-1.871,2-0.917,1.056-1.267-.579-3.717,3.58,2.2,4.668-0.229,1.174-4.51.291-0.031,3.98-1.1.214-9.41,6.588-1.614,1.477-1.737-.805-2.06-1.741-0.728-2.657-6.486-2.184-3.379-2.376-1.245,2.372,0.071,4,3.289,2.1-0.65,2.469-4.2,3.32-3.76-.6-0.579,1.245,0.793,6.411L805.72,348.6l0.412,1.23,1.8,1.635,0.976-.734,3.116,1.044,6.123-5.272,2.657,4.092-1.329-.307-1.047,3.881-2.016,1.9,2.775,2.654-0.991.548,0.582,0.976-6.9-.92-1.227.523-0.61,2.722,0.217,1.165,1.7,8.923,1.273,3.326,0.121,8.635,0.31,2.469,0.743,3.28,0.183,2.286-2.552,9.155,1.065,0.852,2.639-.672,1.422,0.815,2.258-3.909,2.515-.2,2.763-2.382,0.812,2.394,1.273-2.267,2.447-.914,0.561,2.332,0.186,0.068,4.218-.307-0.945-5.962,0.688-.907-0.136,1.258,2.5,0.059,0.7,1.081,8.917,0.889,6.861,0.062,0.025-2.775,3.683-3.528,0.781-5.067-0.808-4.624,2.986-3.131,2.775-.675,0.8-5.284,1.146-.7-1.518-7.133,5.064-.969,2.419,0.889-0.149-4.023,2.992,1.258,0.3-1.081-2.06-1.874,0.508-1.3,6.473-1.954,4.683-4.94,1.5,0.672-2.385,3.37,0.214,1.36,7.393-2.3,6.34,0.248,3.645,2.01,6.922-.514,3.974,1.546,2.775,3.221,6.761-1.016,2.54,4.844L926,356.442l6.823,0.158-0.2,1.115,2.534,2.242,2.914,5.721,2.84,2.744,5.6-1.716-0.04,1.27L951.6,371.5l0.833,0.087,2.193,1.267,3-2.586,2.667,0.189,0.427,1.276,3.187,3.159,2.825-5.872,2.348,0.065,2.128-4.965,1.075-6.709,0.561-1.245,1.363-.031,1.722-3.28,3.107-1.871-1.127-2.239,4.72-2.626,2.738-3.041-0.087-5.439,0.793-1.118,2.682-.211-0.285-6.517-5.129-2.354-3.336,2.258-1.614,5.216-1.161.759-1.146-2.53-3.961-.731-1.635-1.27-0.79-.638,0.966-1.787,4.968-4.733,1.768-7.539-0.167-.146-4.872-1.158,0.911-7.678-2.487-3.37-2.63-3.107-3.348,2.035-4.383,2.174-1.366-.136-3.478-4.119-3.856-1.415-4.869,4.692,0.666,2.636-3.416,4.085-1.14.734-2.49-.945-1.161-1.911-2.357-.557-1.431-2.249,1.716-3.6-1.6-5.058-1.933,1.614-4.107,3.506,0.09,2.537-2.952,2.815Z" transform="translate(-3.455 -97.669)" fill="#06c" stroke="#000"/><path d="M792.1,388.693l-3.686,3.847-0.05,4.039,1.614,2.2,3.887,0.706,0.743,1.134-3.633.709-3.286,1.053,0.347,1.106,9.09-1.645,14.56-5.12,2.3-3.528,0.412-2.812-0.743-3.28-0.313-2.469L813.228,376l-1.27-3.326-1.707-8.923-0.214-1.165-1.152-2.428-1.344-1.827-1.13-.585-0.588,1.109-2.016,1.183-0.709,1.843-1.261-1.354-2.617.774,0.458-2.887-5.423.709-3.017,2.7,2.338,0.781,3.661,5.708,2.667,0.424-3.308,7.17,1.2,6.557-1.4,3.723Z" transform="translate(-3.455 -97.669)" fill="#ff8080" stroke="#000"/><path d="M779.638,430.5l1.034-1.939-2.723-.412-0.474-2.592-2.416-1.084-1.118-2.5-4.466,2.831-0.877-3.453,2.62-2.218-0.44-2.2-0.016-1.316-2.465-1.233-3.68-9.217-3.057,2.657-4.674,2.682,0.331,2.7-2.447.833-1.617-2.078,0.691-5.256-7.124-2.927-1.295.366-0.44-1.183-4.825-.375,1.065-2.131,2.871-5.544,1.27-.084,1.973,1.347,3.692-1.645,9.047,3.128,3.2-2.534-2.376-2.026,0.294-3.624-1.713-7.077,0.071-3.676,1.812-7.855,1.511-3.206,5.228,2.215,6.356,7.647,2.081-10.5,0.672-3.847,1.722-8.539,6.777-.316,0.533-6.551-0.04-1.254,0.9-3.834-1.852-1.979,0.492-1.267,3.051-2.221,5.055,1.623-0.115,1.354,0.034,2.7-2.583.756-0.2,2.6,4.088,4.466-3.782,7.121-2.131,1.663,2.075,2.332,2.338,0.781,3.658,5.708,2.67,0.424-3.311,7.17,1.2,6.557-1.4,3.723-4.29,2.506-3.686,3.847-0.05,4.039,1.614,2.2,3.887,0.7,0.743,1.137-3.633.709L787.7,402.38l0.347,1.1,9.09-1.642,14.56-5.12,2.3-3.528,0.412-2.812,0.183,2.286-2.555,9.155,1.065,0.852,2.642-.672,1.422,0.815-0.765,6.461-1.158,0-9.106.043-6.114,1.388-6.222,3.4,4.448,6.749,0.282,1.332-3.391,2.106,2.726,4.476-0.666.9-2.106-.719-0.455,1.025-0.019-1.23-3.3,1.428-0.081-.65L780.9,432.643Z" transform="translate(-3.455 -97.669)" fill="#ff8080" stroke="#000"/><path d="M728.391,361.763l0.319,5.027-3.512.855-1.127.8-4.122-3.289-6.281,2.357-1.45,2.063-6-1.127-0.263.362-1.36-.034-0.991,2.515-1.316.356-3.831-1.258-3.958,1-2.645.192-0.935-1-1.989-1.344,2.032-3.246-3.639-.979-1.127-2.388-2.617.474,1.36-3.971,2.843-3.041L687,354.921l-7.365,5.792-3.986.421-4.782-2.041-5.4-5.73-4.565-5.9-1.258-1.409-0.245-.393-4.1-5.064-3.413-1.865-4.054-.1-3.658,1.849-3.583-2.874-1.072-5.529-3.862-8.394-2.933.883-2.329-7.406L627.73,317l0.139-6.331,1.493-3.484,1.369-.077,1.923,6.541,6.473,2,3.751-6.173,0.855-.709,3.045,4.4-0.313,4,5.55,3.763,1.357-.031,0.421-1.292-1.09-.808,1.824-1.849,3.68,1.248,3.076-2.651,2.6-4.736,2.6,0.39,1.666,2.035-2.667,3.11,0.273,0.276,2.215-.393,5.176-2.84,0.17-1.223-3.19-2.416,2.153-3.243,3.633-.322,1.9-1.883,1.911-4.562,3.568-1.028,1.564,1.883,2.372-.319,4.5,2.3L693.357,306l3.274-3.692,2.952,2.255,2.493,0.26-2.23-3.249,0.6-1.208,3.85-.127,5.3-3.593,1.227,0.2,1.329,3.574,4.553,4.59,1.1,2.159,1.152-.548,4.311-5.228,5.937-2.85-0.9-2.267-0.6-.917,0.579-5.535-0.567-2.01,0.818-1.97-0.3-5.213-3.841-3.7,1.908-2.094,6.777,6.346,4.844,4.327,0.235,0.22,5.176,3.711,2.571-4.618,0.815-.356,3.094,7.533,5.256,0.418,0.2-7.988-1.892-3.577,2.267-1.118,5.064-.811,2.165,1.347,3.844,0.118,1.849-3.661,4.16,0.607,0.852,3.964,3.311,2.345-0.211,5.247-0.526,2.623,0.966,0.932,3.549-1.484,2.856-2.651-1.536-3.621,1.313-3.729-2.713-6.207-3.069-1.443,3.534-6,5,2.434,1.3,2.961,4.274,0.4,4.7,3.128,4.376,4.485-1.7,1.964L796.172,280l-0.421-2.434-2.345.876,0.136,1.3,0.344,4.4,0.248,1.673-3.769,1.344-7.148,5.9-2.645,3.076,1.682,2.475,5.711,3.766,3.986,0.96-0.229,1.093,3.261,0.35-0.273,3.4-5.086,1.1,1.174,3.667-0.923.96-2,5.073,1.508-2.3,3.89,1.313,2.273-1.165,2.769,2.534,8.037,1.62-0.452,1.18,2.472,0.873,3.859-.889,1.976,1.954-1.242,2.376,0.071,4,3.289,2.1-0.65,2.469-4.2,3.32-3.76-.6L807.139,339l-1.437.1-6.445,1.961-0.539,2.654-1.335-.232-3.658-3.3,0.115-1.354-5.058-1.623-3.048,2.221-0.492,1.267,1.849,1.979-0.9,3.834,0.043,1.254-0.536,6.551-6.777.316-1.722,8.539-0.675,3.847-2.081,10.5-6.356-7.647-5.225-2.215-1.511,3.206-1.812,7.855-5.956,2.9-0.719,2.493-2.506-1.031-1.112.771,1.5-3.614-2.128-3.268,0.471-2.611-3.766,1.391-0.867-1.028-3.559,1.326-3.757-.635-3.735-1.837-2.434-3.441-1.787-8.341Z" transform="translate(-3.455 -97.669)" fill="#ff8080" stroke="#000"/><path d="M979.287,213.556l-2.193-4.661-2.775-4.054-2.007-10.788-1.852-3.438,0.217-5.433-0.341-1.648-1.818-3.457,0.065-4.993-1.555-2.06-2.41-.771-1.415-2.211-2.289-5.457-1.13-.468-0.056-2-8.084-4.268-6.1-2.335-4.234-3.082-3.271-2.521-2.6-4.81-2.153-1.691-0.945-4.008-3.453-1.917-9.038-7.464-0.452-.973-2.831-5.612-4.4-2.781-1.23.4-1.781-1.861-3.447-4.38-3.924-1.459-1.6-2.221,1.815-8.13-1.533-.774-1.614-2.165-4-.774-2.6.892-3.391,5.045-7.78-3.258-2.784.53-7.034,4.906-0.966.734-17.9,15.793-2.918,2.9L843,132.873l-6.953,4.008-3.726,4.826-6.789,3.432-5.56,3.258-8.517,4.55-3.676,1.92-4.064.124-4.228,3.593-7.913,2.673-3.692,1.505-14.077-1.1-4.209.192-6.972,4.915-8.254,2.626,3.63,3.794-11.94,5.591-3.68-1.561-1.056.418-0.081,3.391,1.27-.108,1.985,4.308,2.865-.22,4.726,3.268,6.888,1.381,0.365-2.7,1.911-1.654,1.047,2.5,8.047-2.177-1.183,3.407,6.7-.468,2.345,1.254,5.891-1.038,0.747,0.942,2.023,4.643,5.8-3.088,2.01,4.6,1.236,0.325,0.365-3.689,2.341,0.291,2.156-1.288,0.418-1.347,1.83-1.6,4.314,2.329,3.518,4.547,4,0.582,2.3-4.095,4.751-2.794,1.341,0.331,2.688-.393,1.44,1.744,2.537-.047,2.992,1.75,4.194,5.024-1.83,1.957-4.683-2-0.994.864,0.839,5.464,2.515,3.28,0.452,2.49,3.819,0.737,3.292-1.911-0.26,2.462,2.5-.647,0.248,3.63,2.023,1.691,1.313-.229,1.75,2.763,1.2,0.127,0.582,1.273,4.017,0.455,1.778,2.156,3.94-4.417,2.05,3.286,2.589,0.48,1.3,3.574,2.41,1.087-1.672,3.19,0.7,4.064-2.924,2.915,0,1.375,3.593,1.917-6.077,1.747,4.516,3.165-0.9,3.828,2.831,2.6,2.611,2.592,1.982-1.648,2.007,5.535,0.892-.065,0.458,2.524,2.515,0.471,1.425,3.568,3.98-1.809,7.018-3.732,2.131-3.24,3.977-.483,3.735,1.728-1.614,2.01,3.19,2.053,0.892,3.9,2.515,0.762-0.068,1.354-1.561.437,1.908,3.407,4.674,2.382-0.409,5.262-7.969,5.228-6.705,1.555-0.263-.307-2.673.784-1.508,2.177,1.109,2.552,3.5,2.153,0.935,2.639,0.427,0.489,2.518,2.518-1.892,1.614-1,8.939,15.808-3.723,2.481,6.817,11.683-3.512,2.952-2.815-0.09-2.537L933.7,299l1.933-1.614,1.6,5.058-1.716,3.605,1.431,2.246,2.357,0.557,1.161,1.911,2.493,0.945,1.137-.734,3.416-4.085-0.666-2.636,4.869-4.692,3.856,1.415,3.478,4.119,1.366,0.136,4.383-2.174-0.821-3.376,6.529-.709,0.585-2.645-0.387-.341-2.369.985-1.552-3.3-3.035-2.317,5.851-5.234,1.511-3.807-1.168-3.93-3.382-2.753-1.505-1.871,2.472-.728,3.872-6.3,0.356-4.129,7.384-3.729-0.5-6.043-0.994-.709L976.75,251l-2.676.719-4.172,5.7-2.459,1.3-5.036-5.018,4.355-4.739,2.422-.753,0.192-2.583-0.672-6.761,0.787-1.112,2.571,0.533,4.627-2.843,0.678-.009L976,230.665l0.65-1.059,1.88-3.776,3.618,1.976,5.591-.26-1.031-3.881-1.908-3.642-3.8-1.645Z" transform="translate(-3.455 -97.669)" fill="#ff8080" stroke="#000"/><path d="M535.46,324.769l0.756,5.008,3.568,1.682,2.918,2.97-0.753,2.887,2.227,3.066,1.5-.715,2.422,0.294,0.167-1.239,0.966-.223,0.418-1.4-0.694-.79,0.839-.793-4.674-.595-0.248-1.865,6.284-2.735,0.821,2.667,4.364-.068-1.973-4.971-3.01.632-1.725-2.171-2.137-.279,0.177-1.911,1.917-1.329,1.8-1.462,6.972,0.477,0.815-4.153,2.493,0.127,4.256,4.411,1.189-.57,2.757,2.778,3.658-1.245,1.927-.582,3.9-.446,3.822-.923,0.5-1.3-1.778-3.757,2.044-3.491,2.676,0.446,3.184,2.608,1.626-2.053-1.725-2.053,0.638-3.992-2.041-1,0.019-1.149-2.1-1.425,1.914-1.868-1.227-6.442-2.589,1.1-2.741-.623-0.994-.647-0.065-1.313L584,292.614l-4-.232-3.268-2.465-3.766,3.587-2.552.486-0.92,3.577-2.258-.629-0.13-7.062-3.7-1.539-0.474-.681-1.84-1.707-5.656,3.221-3.692-1.465-4.559,8.521-8.8,19.891Z" transform="translate(-3.455 -97.669)" fill="#06c" stroke="#000"/><path d="M573.522,323.255l-3.661,1.245-2.753-2.778-1.189.567-4.256-4.407-2.493-.127-0.815,4.15-6.972-.474-3.714,2.784-0.177,1.911,2.137,0.279,1.725,2.171,3.01-.632,1.973,4.971-4.364.068-0.824-2.667-6.281,2.735,0.248,1.865,4.674,0.595-0.839.793,0.7,0.79-0.421,1.4-0.963.223-0.167,1.239-2.422-.294-1.5.715-2.227-3.066-0.768,1.549,6.687,5.417,9.428,2.261,2.075,4.036,0.858-2.3,4.68,0.446,0.607,2.434,1.462-1.279,2.2,0.75L571.7,351.5l1.871-1.815,1.329,1.608,5.544,0.452,4.045-17.357-1.5-3.819,0.694-1.186,8.421-3.373-0.2-1.468-3.3-1.762-2.345.65-3.082-2.131-3.819.923-3.9.446Z" transform="translate(-3.455 -97.669)" fill="#ff8080" stroke="#000"/><path d="M642.888,309.484l-3.751,6.173-6.473-1.995-1.923-6.545-1.369.081-1.493,3.484-0.139,6.331,2.667,0.155,2.329,7.406,2.933-.883,3.862,8.394,1.072,5.529,3.583,2.874-1.5,1.242-10.227,6.653-2.459,1.3-10.376,4.036-4.689,1.326-7.848,1.227-11.454,1.276-3.4-2.865,0.966-1.97,7.4,0.124-2.918-.452-5.312-.638-0.864,2.3-2.586-.5-4.249-.756-4.221-1.047,4.042-17.357-1.5-3.819,0.7-1.186,8.418-3.373-0.2-1.468-3.292-1.762-2.348.65-3.079-2.131,0.5-1.3-1.775-3.757,2.044-3.491,2.676,0.446,3.184,2.608,1.626-2.053-1.725-2.053,0.638-3.992-2.041-1,0.016-1.149-2.1-1.425,1.914-1.868-1.227-6.442-2.589,1.1-2.741-.623-0.994-.647-0.065-1.313,3.494-1.728-4-.232-3.268-2.465-3.766,3.587-2.552.486-0.92,3.577-2.258-.629-0.13-7.062-3.7-1.539-0.474-.681-1.84-1.707-5.656,3.221-3.692-1.465,3.81-8.217,2.645-6.668-0.418-4.249,2.119-5.231,1.254-6.8,3.912-3.881,0.728-1.227,6.052-5.615,5.315-1.9,10.41-4.525,1.406-.8,6.2-3.621,1.487-.189,5.522-.573,4.863-2.62,4.417-3.134,3-4.829,5.284-1.818,10.884-5.872,14.5-8.967,5.086-4.212,2.562-.434,3.066-2.354,1.134,3.6L659.734,206l7.028-3.512,1.016,0.839,1.081,0.6L667.9,206.2l0.576,2.4-0.242.585,1.558,3.23-0.873.966,1.025,3.673-5.749,2.441,1.883,2.871,1.7,3.147,1.933,3.026,1.989,3.745-2.31,1.149-2.075,3.314,3,2.859,3.3,5.95-0.588.985,4.912,7.923,1.484,4.4,0.942,1.809,2.357-.269,1.812,1.49,4.733-4.064,3.686-1.245,3.658,0.285,2.054,1.258-0.133,2.363,7.179-.378,2.518,3.642-3.113,5.408,3.147,2.6,0.5,2.679-0.189,2.89-6.365-.062-3.692-3.642-4.088-.409-1.372.954-2.639,4.3-3.311,2.06,0.313,1.558,2.459,4.064-0.043,1.366-2.335,1.4-0.012,3.952-1.787,2.075-2.695.105,0.331,3.645-3.571,1.028-1.911,4.562-1.9,1.883-3.633.322-2.149,3.243,3.187,2.416-0.17,1.223L668,316.212l-2.215.393-0.273-.279,2.667-3.11-1.666-2.032-2.6-.39-2.6,4.733-3.076,2.651-3.68-1.248-1.821,1.849,1.087,0.808-0.421,1.292-1.357.031-5.55-3.763,0.313-4-3.045-4.4Z" transform="translate(-3.455 -97.669)" fill="#ff8080" stroke="#000"/><path d="M786.867,194.338l-2.023-4.643-0.743-.942-5.894,1.038-2.345-1.254-6.7.468,1.183-3.407-8.047,2.177-1.044-2.5-1.914,1.654-0.365,2.7-6.891-1.381-4.723-3.268-2.865.22-1.985-4.308-1.267.108,0.078-3.395,1.056-.415,3.68,1.561L758,173.162l-3.63-3.794-15.5,4.488-2.738.362-7.415,4.141-9.766,2.682-3.549.152-8.322.774-2.388-1.409-10.853,2.314-3.354.715-2.7.561-10.144,3.221-6.736,1.719-5.018,2.661-7.248,4.866-2.781,3.345,1.134,3.6,2.729,2.434,7.028-3.512,1.016,0.839,1.081,0.6-0.963,2.27,0.576,2.4-0.242.585,1.558,3.23-0.873.966,1.025,3.673-5.749,2.441,1.883,2.871,1.7,3.147,1.933,3.026,1.985,3.745-2.307,1.149-2.078,3.314,3,2.859,3.3,5.95-0.588.985,4.912,7.923,1.484,4.4,0.942,1.809,2.357-.269,1.812,1.49,4.733-4.064,3.686-1.245,3.655,0.285,2.054,1.258-0.13,2.363,7.179-.378,2.515,3.642-3.113,5.408,3.15,2.6,0.5,2.679-0.189,2.89-6.365-.062-3.692-3.642-4.091-.409-1.369.954-2.642,4.3-3.308,2.06,0.313,1.558,2.459,4.064L689.8,287.5l-2.335,1.4-0.012,3.952-1.787,2.075-2.695.105,0.331,3.645,1.561,1.883,2.372-.319,4.5,2.3,1.635,3.432,3.274-3.692,2.952,2.255,2.493,0.26-2.23-3.249,0.6-1.208,3.85-.127,5.3-3.593,1.223,0.2,1.329,3.574,4.553,4.59,1.1,2.159,1.152-.548,4.314-5.228,5.934-2.85-0.9-2.267-0.6-.917,0.579-5.535-0.567-2.01,0.818-1.97-0.3-5.213-3.841-3.7,1.908-2.094,6.78,6.346,4.841,4.327,0.235,0.22,5.176,3.711,2.571-4.618,0.815-.356,3.094,7.533,5.256,0.418,0.2-7.988-1.892-3.577,2.267-1.118,5.064-.811,2.165,1.347,3.844,0.118,1.849-3.661,4.16,0.607,0.855,3.964,3.308,2.345-0.211,5.247-0.526,2.623,0.966,0.932,3.549-1.484,2.856-2.651-1.536-3.621,1.313-3.729-2.713-6.207-3.069-1.443,3.534-6,5,2.437,1.3,2.958,4.274,0.4,4.7,3.125,4.376,4.485-1.7,1.964-2.834-2.691-0.421-2.434-2.345.876,0.136,1.3,0.344,4.4,0.248,1.673-3.769,1.344-7.148,5.9-2.645,3.076,1.682,2.475,5.711,3.766,3.986,0.96-0.229,1.093,3.265,0.35-0.276,3.4-5.086,1.1,1.174,3.667-0.923.963-2,5.07,1.505-2.3,3.89,1.313,2.273-1.165,2.769,2.534,8.037,1.62-0.452,1.183,2.472,0.87,3.859-.889,1.976,1.957,3.382,2.376,6.486,2.184,0.725,2.661,2.06,1.738,1.741,0.8,1.611-1.477,9.413-6.588,1.1-.214,0.031-3.98,4.51-.291L845.5,320.1l-2.2-4.668,3.717-3.58,1.264,0.579,0.92-1.056,1.871-2,2.419-6.5-0.988-3.562,1.227-.356,1.623-3.444,10.24-2.252,0.781-3.9,2.571,1.536,1.261-.746,7.474-2.075,1.713-1.868,3.447,0.4,3.549-3.639-2.013-4.7,2.735,0.486,3.577,4.122,2.7-.409,1.961,1.871,0.263,0.307,6.705-1.555,7.972-5.228,0.406-5.262-4.671-2.382-1.911-3.407,1.561-.437,0.071-1.354-2.518-.762-0.892-3.9-3.187-2.053,1.614-2.01-3.735-1.728-3.974.483-2.131,3.24-7.018,3.732-3.98,1.809-1.425-3.568-2.515-.471-0.455-2.524-0.892.065-2.007-5.535-1.982,1.648-2.611-2.592-2.831-2.6,0.9-3.828-4.516-3.165,6.077-1.747L864.08,237.6l0-1.375L867,233.314l-0.7-4.064,1.672-3.19-2.413-1.087-1.3-3.574-2.589-.48-2.05-3.286-3.937,4.417-1.778-2.156-4.017-.455-0.582-1.273-1.2-.127-1.75-2.763-1.316.229-2.019-1.691-0.248-3.63-2.5.647,0.26-2.462-3.289,1.911-3.822-.737-0.452-2.49-2.518-3.28-0.839-5.464,0.991-.864,4.686,2,1.83-1.957-4.194-5.024-2.992-1.75-2.534.047-1.443-1.744-2.685.393-1.344-.331-4.751,2.794-2.292,4.095-4-.582-3.522-4.547-4.311-2.329-1.83,1.6-0.418,1.347-2.156,1.288-2.341-.291-0.365,3.689-1.239-.325-2.007-4.6Z" transform="translate(-3.455 -97.669)" fill="#ffc0c0" stroke="#000"/><text transform="translate(883.545 124.781)" font-size="72" font-family="DejaVu Sans" font-weight="700">6</text><text transform="translate(854.295 247.561)" font-size="64.811" font-family="DejaVu Sans" font-weight="700">2</text><text transform="translate(709.212 160.114)" font-size="72" font-family="DejaVu Sans" font-weight="700">10</text><text transform="translate(604.212 195.114)" font-size="72" font-family="DejaVu Sans" font-weight="700">9</text><text transform="translate(544.17 218.445)" font-size="29.54" font-family="DejaVu Sans" font-weight="700">7</text><text transform="translate(558.795 249.649)" font-size="27.543" font-family="DejaVu Sans" font-weight="700">8</text><text transform="translate(764.795 308.649)" font-size="27.543" font-family="DejaVu Sans" font-weight="700">4</text><text transform="translate(793.92 292.559)" font-size="24.747" font-family="DejaVu Sans" font-weight="700">3</text><text transform="translate(793.92 258.352)" font-size="14.914" font-family="DejaVu Sans" font-weight="700">1</text><text transform="translate(718.573 258.352)" font-size="62.076" font-family="DejaVu Sans" font-weight="700">5</text><path d="M635.414,526.827l-5.662-5.228-3.949-.322-6.47-1.679-1.66-5.083-0.945-.973-1.115.771-1.016-.876,3.534-3.574-0.322-2.49,0.025-1.4,3.429-2.351,4.169,0.04,2.41,1.338-0.214-5.637-3.76-.434,2.428-2.6-0.338-1.1-2.41-.081-0.313-1.186,0.057-.013,2.531-8.062,0.078-.53-0.375-2.577,3.8-.9,2.54-4.581-1.484-1.892-4.723.012-0.582-1.059-5.058-1.48-0.406-.35,1.112-2.28,0.486-7.573-1-4.541,1.4-6.9-0.025-1.428-1.3-.585-0.192-1.316-1.276-.328-4.153-.229-7.78-5.872-4.144-7.028-0.065-1.363,1.323-.366,3.937-.322,4.59-2.682,6.281-1.484,0.2-8.775-4.711-3.779-5.08-.118-6.343,6.721-3.5-1.815,3.54-5.3-1.691-6.046-4.7-1.251,2.345-1.769,4.37-8.61-4.11-7.263-1.666-5.349,1.936-6.3-2.964-9.05-0.155-8.335-3.057.334-2.645.146-13.879.579-10.041,4.81-9.45,3.224-4.33,1.546-7.1,5.541-7.895,9.716-0.9-.836-3.605,4.788-1.316,1.295-5.755,4.485-4.507,3.714-7.319,4.646-7.213,2.822-6.647,2.85-5.532,3.68-1.391-.121-12.324,3.472-8.009,1.357-9.629,0-5.117,1.778-7.415-3.292-6.659-1.13-2.2-.709H442.31l-5.724-2.49-8.025-5.145-5.219-3.525-4.3-2.041-5.708-2.357-9.5-.8-8.691-.969-10.335-2.592-12.473-.907-5.1,1.087-5.488,1.035-4.72.279-3.611-.186-5.262-1.883-5.9-.276-13.588-.415-7-.876-2.478.607-8.911-2.357-10.088-1.8-8.867-2.989-5.442-2.53-8.2-5.355-3.308-3.1-9.524-1.592-6.179.235-5.126-.192-3.937,1.227-3.661,1.57-10.664-.025-4.2,3.37L223.966,389l0.393,3.884-1.112-1.642,1.663,11.674-6.885,6.9,0.694,6.706,0.555,2.4,2,1.335,1.583,2.016-0.709,1.155-2.509.4,0,1.36L225,429.226l2.14,3.475,1.146,0.486,0.406-1.168,0.966,0.787,0.7,3.481,1.3-.62,3.457,5.225,4.253,2.976,1.211-.468,1.781,1.936,2.682,0.065,3.357,7.074,0.136,0.192,4.1,0.059,5.07,2.239,0.378,1.347,3.974,0.356,3.407-2.2,4.454-6.69,2.583-.889,0.4-3.59,1.515-2,1.208,0.338-0.963,1.044,0.9,2.651,5.1,6.761,3.748,1.227-6.092,3.562-0.5,3.906-4.1,7.241-2.58,1-3.869-1.6L265.6,469.58,272.825,471l-1.985,1.831,0.328,1.313,8.914,5.656-0.508,1.264,2.68,0.247,2.31,1.564-0.52,1.316-4.138,3.763-2.627.858-2.747,4.909,8.325-6.383,3.878,0.065,0.359,4.615-0.22,1.134-0.561,5.541,2.239,3.466,0.322,2.738,0.17,1.874-0.288,1.731-1.383,3.927,0,0-4.042,3.717,1.657,2.2,3.909,0.886,1.927,1.961,0.1,2.654-6.046,1.611-2.521,4.544-2.636-.121-1.149,5.138-1.481,3.633-7.678,9.047-2.766.431-9.4,6.043-1.865.226-2.221-1.422-3.912.192-1.642-3.621-7.762,1.5-0.2,4.68-3.618.719,1.809,1.415-0.353,3.9-2.654,2.9,0.031,1.319,2.335,0.793,3.831-1.666,8.124-1.093,2.016,1.843-2.193,6.637-7.186,4.445-0.938,2.71-1.688,4-2.772,2.438-2.531.508-3.162-3.983-2.035,1.676-0.781,3.726-4.838,3.974-0.208,3.283-2.692-.285-3.007,4.525-3.76.5,0.047,0.589-0.282,3.81,7.046,2.174,0.685,1.121,0.514-.1,3.181-.1,0.486,1.047,2.744,0.288,1.936,5.061,0.821,1.152-1.716,3.549,0.622,1.276,3.128,2.936,6.678,2.382,3.224-3.46,2.391-.316,5.361,3.974,6-1.719,5.045,1.05,2.115-4.618,4.794-.393,2.242,3.4L275.182,626l7.913,2.345,2,3.342,3.927,0.276,4.191-2.976,5.439-.514,2.952-2.822,0.427,0.666-5.411,7.322,4.11-.1,4.5-3.045,3.292-4.256,0.644-2.633,2.2-1.53,1.124-2.184,9.657-2.106,4.884-2.874,2.822-.307,1.629-2.335,6.922-6.445L336.13,604.8l-3.862-4.962,3.751-3.782,2.174,1.577,7.92,1.533,2.5-.988-0.523,5.485,5.507,0.1,4.76-2.769,1.725-.415,5.157-.654,2.753,2.413,2.36-1.518,2.952-4.782,6.755-1.614,2.193,0.053,1.5,1.682,3.807-1.227-0.406-2.691,5.123-1.434,2.168-3.472,1.213-1.179,7.577,0.322,2.187-.951,0.635,2.441,3.788-1.4,2.521,4.414,4.6,4.782,4.729-.694,0.638-.167,1.084,2.183-2.527.743-0.214,2.515,5.937,5.206,0.452,0.273,4.153-5.476-0.118-2.4-1.487-1.914,1.9-4.513,5.55-.047,2.341,3.419,4.011-1.295,4.026-.316,3.769,1.468,3.023,0.1,3.844,2.4,3.342,1.01,2.7-2.32,1.505,2.205,4.866,1.871,1.666,3.447,5.888,2.992,0.886-.9,5.854,2.376-4.915-6.356,0.688-1.186,3.813-.966,0.781-3.831,2.617,2.7L489.9,598.7l6.157-1.886,2.19,1.477,1.428-.808,1.27-.5,1.518-3.822,7.421-6.5-0.065-1.6,4.674-1.155,1.75,1.849,0.124-.087-0.966-4.63,8.861-4.556,6.929-1.642,1.66-1.313,0.412-2.109,1.508-3.587,0.533-3.76,3.937-4.739,5.46,0.75,6.281-5.538,0.6-.923,2.286,0.728,2.562,3.964,1.276,5.346,1.143,0.808,4.1-.734,2.2-1.165,2.146-4.476,7.288-2.156,2.537,2.472,3.757-.883,1.45-6.433,4.544-2.379,3.834-.362,0.517,6.12,1.2,0.486,6.848-2.131,6.452,4.587,6.154-2.744,5.485-9.2,7.087,3.937-1.109,4,3.333,0.849,5.1-8.533-1.434-5.541,1.837-7.062Z" transform="translate(-3.455 -97.669)" fill="none" stroke="#000" stroke-width="4"/><path d="M722.054,639.567l-3,2.791-1.366,3.9-3.912,1.437-3.906,4.051,0.592,1.2,5.309-.062,4.246,3.255,0.112,1.038-1.335,2.2,0.384,4.776,1.137,2,3.138,1.645,0.483,0.028,3.76-3.345,4.832,1.889,3.382-4.2,3.791,0.471,2.187-1.36,3.218-2.044,1.258-6.356,2.456-4.621,3.6-1.53,2.58,3.032,5.1-.2,0.437,1.261,7.895-2.518,3.361-4.327,3.776-1.843,1.933,2.041,7.975-1.285,1.592-2.224,2.794,2.459,1.084-.7-0.393-3.868,7.322-7.616,2.521,3.807,4.1-2.8-0.084,1.31L811.218,636l1.481-7.678,1.254-.446-1.428-6.517,0.712-2.5,3.261,1.409,4.829-.028-0.251,3.989,3.11,2.574,6.681-1.357L840,631.34l1.406-1.9-1.518-1.821,6.16-.954,2.078,1.378,1.186,3.274,2.5,0.279,2.766-2.323,4.875-1.942,3.8,1.245,0.591,0.319,3.624,1.465,7.474-7.43,0.161-.149,2.165-1.31,2.6,0.115,0.61-3.807-1.71-3.525-0.616-.787-0.406-.709-2.524-4.435L876,602.074l8.019-6.037,2.041-4.073,1.8-1.694,5.021-.223,1.908-1.83,2.695,0.047,2.227-1.539,2.05-.777,2.156-3.048,1.267-7.551-2.419-.641-0.217-3.989-3.317-6.052,2.5-1.146,1.019-4.03,5.03-1.019,3.512,1.183,2.044-1.564,2.5-5.021-2.608.257-1.546-5.135,6.1-5.061-1.289-.059-1.474-2.119-3.689,1.772-4.113.05-1.939,1.772-2.419-5.631,2.444-.9,2.484-5.795-1.672-1.657,0.8-2.05-1.381-1.536-3.707-3.082-2.3,1.18-3.7-.616,0-.008,3.691,0.615,2.3-1.18L901.4,519.87l-2.125-3.466,0.821-2.586-1.05-.861,3.729-3.937,3.952,3.859,2.645,0.793,4.417-2.958,2.512-7.536-0.678-2.586,1.66,1.741L918.544,507l6.625-1.617,3.748,0.815,3.032-2.592,5.82-2.388,2.565-.415,1.233,2.369,3.822-3.289-1.022-.756,0.189-3.627,1.815-3.277,5.55-8.006,2.072-2.153-0.709-4.661,2.471-4.24,0.43-.582-0.753-1.149,2.075-5.005-0.787-2.614,1.446-2.081-0.338-3.633,1.422-3.853-0.716-2.481,0.812-2.645,6.13-5.615,1.26-2.453-0.886-.706,0.167-3.37-0.056-3.822,2.692-5.135,4.07-.226,2.115-1.728L978.9,426.6l1.1-.8,3.261,4.488-0.056,2.763,6.229,2.2-0.065-2.871,3.258-7.963L990.4,423.1l0.53-4.042-3.116-2.63-1.642,1.171-1.524-1.354,0.539-5.25-1.815-5.092,0.824-2.54,0.883-4.085-4.318-8.623,0.452-4.531-2.487-1.3-1.871-3.766-6-5.872,5.358-4.206-2.5-.489-3.506,1.295-0.96-2.239-2.348-.065-2.825,5.872-3.187-3.159-0.427-1.276-2.667-.189-3,2.589-2.193-1.27-0.83-.087-5.135-3.525,0.04-1.27-5.594,1.716-2.84-2.744-2.918-5.718-2.534-2.245,0.2-1.112-6.823-.161-3.444,4.194-2.537-4.844-6.764,1.016-2.775-3.221-3.974-1.546-6.922.514L896.1,351l-6.34-.248-7.39,2.3-0.217-1.363,2.388-3.37-1.5-.672-4.68,4.94-6.476,1.954-0.5,1.3,2.06,1.874-0.3,1.081-2.992-1.258,0.149,4.026-2.419-.892-5.064.969,1.518,7.133-1.146.7-0.8,5.284-2.775.675-2.986,3.131,0.808,4.624-0.781,5.067-3.683,3.528-0.022,2.775-6.864-.062-0.038.019-8.891-.886-0.7-1.081-2.5-.059,0.139-1.258-0.691.908,0.945,5.962-4.219.307-0.186-.068-0.561-2.332-2.447.914-1.273,2.267-0.812-2.394-2.763,2.382-2.515.2-2.258,3.912-0.762,6.461-1.158,0-9.106.04-6.114,1.391-6.225,3.4,4.451,6.749,0.282,1.335-3.391,2.1,2.726,4.479-0.666.9-2.109-.722-0.452,1.025-0.018-1.23-3.3,1.431-0.078-.65-10.348,3.116-1.239-2.131,1.034-1.939-2.723-.412-0.474-2.592-2.416-1.084-1.118-2.5-4.466,2.831-0.877-3.453,2.617-2.218-0.437-2.2L770.93,416.1l-2.466-1.233-3.68-9.217-3.057,2.657-4.677,2.682,0.334,2.7-2.447.836-1.62-2.078,0.694-5.259-7.124-2.927-1.295.365-0.44-1.183-4.825-.375,1.065-2.131h-0.012l2.863-5.534,1.273-.084,1.97,1.347,3.7-1.645,9.047,3.131,3.2-2.537-2.376-2.026,0.294-3.624-1.713-7.077,0.071-3.676-5.956,2.9-0.719,2.5-2.506-1.031-1.112.771,1.5-3.614-2.125-3.271,0.468-2.611-3.766,1.391-0.867-1.028-3.556,1.326-3.757-.635-3.735-1.837-2.434-3.441-1.787-8.341-0.818-.022,0.319,5.027-3.512.852-1.127.8-4.125-3.289-6.281,2.357-1.45,2.063-6-1.127-0.263.362-1.36-.034-0.991,2.515-1.319.356-3.828-1.258-3.958,1-2.645.192-0.932-1.007-1.989-1.344,2.029-3.246-3.639-.976-1.124-2.388-2.62.474,1.363-3.971,2.843-3.038-0.777-1.168-7.365,5.789-3.986.424-4.782-2.044-5.4-5.73-4.565-5.9-1.258-1.409-0.245-.393-4.1-5.067-3.41-1.865-4.057-.1-3.655,1.852-1.5,1.239L632.6,348.868l-2.459,1.3L619.764,354.2l-4.692,1.326-7.845,1.227,0.424,2.676-8.109,1.428-3.3.378,0.155,8.335,2.964,9.05-1.936,6.3,1.666,5.349,4.107,7.263-4.367,8.61-2.348,1.769,4.708,1.251,1.691,6.046-3.54,5.3,3.5,1.8,6.343-6.721,5.08,0.118,4.711,3.779-0.2,8.775-6.284,1.484-4.587,2.682-3.937.322-1.32.365,0.065,1.363,4.144,7.028,7.78,5.872,4.15,0.229,1.279,0.328,0.192,1.316,1.3,0.585,0.025,1.428-1.4,6.9,1,4.541-0.486,7.573-1.112,2.28,0.406,0.35,5.058,1.484,0.582,1.056,4.726-.012,1.484,1.892L629.3,481.9l-3.807.9,0.378,2.577-0.078.53-2.531,8.062,0.31,1.189,2.41,0.077,0.341,1.1-2.428,2.6,3.757,0.434,0.217,5.637-2.413-1.338-4.166-.04-3.432,2.351-0.025,1.4,0.322,2.493-3.534,3.571,1.019,0.877,1.115-.771,0.945,0.976,1.66,5.08,6.47,1.679,3.946,0.322,5.662,5.228-3.243,6.294-1.837,7.062,1.434,5.541-5.1,8.536-4.633,8.7-1.155.728-1.239,6.634,8.381,4.838,0.985,3.983,1.189,0.731,2.766,0.366,3.515-2.1-1.831,3.9,3.754,0.61,0.455-3.218,4.02,0.3,5.838,3.314,6.408-.811,7.632,2.438,1.031-.858,6.387-6.727v0l4.611,2.247,0.26,1.285-2.8,2.49,0.963,2.4,5.064-1.239-0.945,3.98,1.415,3.878,2.314,1.326,3.773-1.316-6.82,9.422,5.5,2.93,4.807,4.119,3.419,1.227,7.938,7.08,3.577,1.01,2.484,1.186,0.839,1.031,3.72,0.158,2.351,3.221,4.3,2.955,0.269,1.468-1.505,2.376,6.312,9.245" transform="translate(-3.455 -97.669)" fill="none" stroke="#000" stroke-width="4"/><path d="M317.286,681.683l-2.71-8.613-0.1-1.357,3-2.614,1.357-3.779,4.064-3.19,1.357,0.48L324.065,660l-2.131-1.549-6.387-1.936-2.515-2.614-4.742-3.1-2.806-6.1-3-2.8-2.71-.387-0.678,1.065-2.806.483-2.032-1.549-0.483-5.228,2.905-2.71,5.42-7.26-0.483-.678-2.905,2.806-5.42.48-4.259,3-3.872-.294-2.032-3.289-7.935-2.419-4.739-2.806-2.23-3.388-4.739.387-2.131,4.55-5.033-.966-6,1.642-5.42-3.964-2.323.291-3.289,3.484-6.678-2.323-3.1-3-0.582-1.258,1.645-3.58-0.774-1.065-1.936-5.129-2.71-.291-0.582-.966-3.1.093-0.582.1-0.681-1.161-7.062-2.227,0.285-3.7,0.013-.011-0.047-.588,3.76-.5,3.007-4.525,2.692,0.285,0.208-3.283,4.838-3.974,0.781-3.726,2.035-1.676,3.162,3.983,2.531-.508,2.772-2.437,1.688-4,0.938-2.71L249,572.511l2.193-6.637-2.016-1.843-8.124,1.093-3.831,1.666L234.884,566l-0.031-1.319,2.654-2.9,0.353-3.9-1.809-1.415,3.621-.719,0.2-4.68,7.762-1.5,1.642,3.621,3.912-.192,2.221,1.422,1.865-.226,9.4-6.043,2.766-.431,7.681-9.047,1.477-3.633,1.149-5.138,2.636,0.121,2.521-4.544,6.046-1.611-0.1-2.654-1.927-1.961-3.909-.886-1.657-2.2,4.042-3.717,1.385-3.93,0.288-1.728-0.17-1.877-0.322-2.738-2.239-3.466,0.561-5.541,0.22-1.134-0.359-4.615-3.878-.065-8.325,6.383,2.747-4.909,2.627-.858,4.141-3.763,0.52-1.316-2.314-1.564-2.682-.248,0.508-1.267-8.914-5.653-0.328-1.316,1.985-1.827-7.223-1.419,1.666-2.149,3.869,1.6,2.58-1,4.1-7.241,0.5-3.906,6.092-3.562-3.748-1.227-5.1-6.761-0.9-2.651,0.963-1.044-1.208-.338-1.515,2-0.4,3.587-2.583.892-4.454,6.69-3.407,2.2-3.974-.359-0.378-1.344-5.07-2.239-4.1-.059-0.136-.192-3.357-7.074-2.682-.068-1.778-1.936-1.214.471-4.253-2.976-3.457-5.225-1.3.619-0.7-3.481-0.966-.787-0.406,1.168-1.146-.486-2.14-3.475-5.361-4.033,0-1.36,2.509-.4,0.709-1.155-1.583-2.016-1.995-1.335-0.557-2.4-0.694-6.706,6.885-6.9-1.663-11.674-4.324.616-0.294-1.31-7.034-3.754-3.6.675-0.44-4.184,3.732-4,0.781-2.707-2.332-8.2-4.85-7.018-1.961-2.388-4.1-4.835-2.831-3.351-2-2.84-6.136-7.821-5.148-8.765-1.27-1.837-2.961-4.129-3.41-6.848-0.036-.006-1.357-4.314-0.006-5.81,1.954-7.551,3.9-3.419,1.967,0.369,2.571,1.233-1.171,1.961-0.508.17-0.468,1.874,1.053,1.124,0.037-1.945,1.716-3.364,1.555-.982-0.452-1.35-1.258-.6,3.162-7.944-0.276-.805,1.883,0,5.12,2.859,0.242-4.234-0.579-3.983-3.444-9.23,0.681-2.372-4.166-5.21-1.437-2.62-2.32-3.376,0.579-5.324-8.239.455-6.569-2.153-2.038-1.567-3.751.511-4.909-1.812-6.876-.108-9.332,1.728-2.676.52-4.079,3.553-5.3-1.474-0.74,5.293-2.072,1.824-1.189,3.968-0.96-.728-2.788,2.2-7.595,3.8-4.661.279-1.285.2-3.807-1.115-6.235,1.889-1.028-.923-2.205-.932,0.291,4.166L94.42,274,93.652,272.2l-0.557.177-0.183,1.815-0.681-1.9L91.5,274.369l-0.988.012-1.852-4.067,0.573-2.407-1.824-.415-3.639,1.62-5.631-.39L75.8,267.116l-1.028-2.351,1.158-.585L74.124,262.4l-2.3,1.23-2.54-.211-4.064-3.6-11.277.4-8.49-3.6-5.141-.523-3.323-1.611-3.33-7.508-2.645-.781-1.846-1.292-5.011,3.872-3.813-.186L18.376,245,15.1,242.3l-6.8-1.391-2.06,1.493L5.5,249.347l2.843,6.306L5.81,260.692l0.638,1.264,6.226,3.206,5.578,0.3,2.843,2.493,3.664,0.815,2.292,2.174,2.877,4.711,2.561,11.023L33,293.334l0.105,5.854-0.006.01,0.18,4.541-3.522,6.21-0.892,2-6.061,3.426-1.48,2.276,1.1,6.845,3.02,2.893,2.753,0.483,2.332,1.013,1.58,6.164-0.1,7.96,2.527,2.645,3.419,12,0.1,9.4L38.1,373.72l3.268,8.734,0.44,2.106,3.134-.071,1.9,1.208,0.492-2.7,4.361-1.942,0.269,1.778,1.8,1.378,1.381-.461,0.372,2.6-4.476-2.775-1.059.4-2.131-.957-0.269.6,2.952,1.756,4.016,4.126,2.035,2.769,1.778,2.05,6.733,9.131,5.33-3.292,1.737,1.481,2.766-.344,2.066-.39,0.214,0.886-3.3.149-3.457,1.979-1.877-1.069-1.109.629,2.967,6.82,1.846,4.336,2,3.961,2.639,0.1,1.161,1.35,1.313-1.254,0.465,0.632,2.215,2.177-0.858.588-1.635-1.127-1.985,1.062L76.551,419.2l-0.629,2.441,3.032,4.708,1.827,3.989L83.4,439.6l2.236,5.42,4.194,5.166,0.92-.384-0.9-5.643,2.781-2.989,0.149-3.116,1.741,3.193,5.978-.582,4.776,4.85,0.1,0.121-0.641,0-1.694-.889-6.489,2.311-3.463-.6,2.2,5.464,0.022,5.4,2.469,19.231,0.877,3.807,1.236-2.137,2.05,3.419-2.345.449-0.864-1.118-3.407,8.558-1.344,3.234,0.09,8.146,0.071,3.887,0.384-3.026,2.89,2.927-0.8,1.638,1.344,1.375-0.709,2.58-0.681,2.831L95.017,507.3l3.376,18.661,3.8,8.217,1.081-1.561-1.047-4.345,2.506-6.1,2.58-3.054,1.254,0.629,3.308-1.865,8.967,5.99,1.01,2.515-0.322.313-2.109-1.663-5.5-4.215-5.6,3.68-0.235,5.448,1.422,5.253,1,3.661-1.143,1.236-0.864-5.247-1.419-1.883,0.2,5.052-0.514,3.955L106.9,547.2l-0.1,6.845-0.04,4.122,0.923,1.019,0.9-1.357,2.472,1.542,0.585,2.623-1.227,2.518-0.861,6.529,0.226,6.046-1.025-.037-1.555-9.177,1.862-7.365-2.716,3.856-1.992,13.959-0.26,2.283-1.539,9.146,0.021,0.017-1.732,5.009L98.9,596.518l-0.87,1.161-5.129,3,1.161,0.87,2.032-1.258,3.1,1.161,4.064,4.163,0.681,2.515,0.867,11.132-0.192,7.065-1.161,6.678,0.678,2.71,4.163,4.937,6.1,1.258,3.776,5.9,3.1,10.453,2.905,2.71,2.515-1.069,7.647,5.033,2.131,1.741,0.774,5.9L139.37,672l1.258-4.064,2.323-.387,7.935-4.259,4.646-3.872-0.774-1.065,1.456-.582,0.48-.87-0.093,1.065-0.774.387,0.48,0.87-0.678,1.258-1.065.774L153.3,663.58l-0.387,1.936-3,2.815-0.678,3.1,2.131,2.71,1.453-.387,2.71,0.291,1.068,1.84,2.227-.291,1.741,4.55,1.645,1.258,0.774,0.192,0.774-.291-0.483.483-1.357.093-2.419-1.161-1.453-.582-0.192-2.032-2.029-.678-1.843.966-1.642-1.549-1.741-.192-0.582,1.258-1.549-.774-2.515.483-0.387,1.065h-1.645l-1.161-2.032-0.867,1.065,0.774,1.645-6,5.612-1.84-.681-5.42,2.419-0.87.291-0.966-.867-1.843.774,0.1,1.161-1.357-1.843-4.166.582-0.291,2.227-0.1-1.741L119.046,687l-1.258-3.68-5.9-1.453-1.741.387L104.43,683.8l1.258,4.646,3,2.227,2.419,1.161,1.741,3.484-0.774,6.582,3.776,0.774,1.741,4.742-1.642,2.029-1.549,4.94,3.484,3.964,0.582,3.872,0.582-.192,5.228,8.71,1.453,7.551,1.161-.582,2.905,1.936,2.227-.774,2.227,0.966,0.966-.87,3.289,1.84,1.549,2.032-1.255,2.323,3.388,3.872,7.452,0.483,4.259,1.642,2.131-.867,7.551-5.516L163,742.067l1.84-3.679,1.258-.582,1.645,1.84,0.582-3.872,1.741-1.645,0.774,1.069,4.937-1.069,3.289-3.872,2.227,0.192,2.515-6.1-0.867-3.68,6.1-3.964h0.192l4.355,2.416,6.387-.582,0.291-1.258,2.71,4.259L205.2,722.7l5.711-.582,1.258,2.323,4.259,2.617,3.58-1.645,3.872,0.1L228.137,729l8.13,1.741,1.936-.774,0.582-2.032,12.872,8.9,2.323,1.549,7.647-2.227,2.617-3.193,0.48-3.964,2.23-1.645,2.515,0.87,5.324,0.582,1.549,4.94,5.807,2.323,9.388-2.617,1.161-2.8,2.227-4.838,5.327-4.355,4.838-6.387,0.87-.774,3.968-.87,3.872-3.968,0.291-5.324,1.936-6.387,2.419-1.357,1.741-3.484-0.387-6.387,0.87-.966,2.515,0.1-0.867-2.323Z" transform="translate(-3.455 -97.669)" fill="none" stroke="#000" stroke-width="4"/><polygon points="117.218 582.478 116.837 581.896 116.158 582.19 116.35 582.67 116.738 582.67 117.218 582.478" fill="none" stroke="#000" stroke-width="4"/><path d="M775.084,758.421l-0.5-1.261-4.987-1.329-3.934-5.485-0.635-4.017-0.669-2.493,4.568-1.849,0.616-4.968-3.645-2.394,3.45-2.376,3.438-7.638-9.45-4.082-2.01-1.546,3.41-4.2-3.01-4.4-4.064-1.778-4.562-3.06-6.761-.842-4.726-4.773-0.9-9.186-6.191.062-0.908-3.834L737,681.033l-2.357-.762,0.192-6.108-3.58-5.4,1.279-2.372-4.829-1.889-3.76,3.345-0.483-.028-3.138-1.645-1.137-2L718.8,659.4l1.332-2.2-0.112-1.038-4.243-3.255-5.312.062-0.589-1.2,3.906-4.051,3.909-1.434,1.369-3.9,3-2.791-6.312-9.248,1.505-2.372-0.269-1.471-4.3-2.955-2.348-3.221-3.723-.158-0.839-1.031-2.484-1.186-3.577-1.01-7.938-7.08-3.419-1.227-4.807-4.119-5.5-2.93,6.82-9.422-3.773,1.316-2.314-1.326-1.415-3.878,0.945-3.98-5.064,1.239-0.963-2.4,2.8-2.49-0.26-1.285-4.633-2.258-6.387,6.724-1.031.861-7.632-2.437-6.408.811-5.838-3.314-4.02-.3-0.455,3.215-3.754-.607,1.827-3.9-3.512,2.1-2.766-.365-1.189-.731-0.985-3.983-8.381-4.838,1.239-6.634,1.155-.728,4.633-8.7-3.333-.852,1.106-4-7.087-3.937-5.485,9.2-6.157,2.744-6.452-4.587-6.848,2.131-1.193-.486-0.517-6.12-3.838.365-4.541,2.376-1.45,6.433-3.76.886-2.534-2.475-7.291,2.156-2.143,4.476-2.2,1.165-4.1.737-1.143-.811-1.276-5.346-2.562-3.965-2.283-.725-0.6.92-6.281,5.538-5.46-.75-3.937,4.742-0.533,3.757,0.023,0-1.5,3.585-0.412,2.106-1.66,1.313-6.932,1.642-8.861,4.556,0.966,4.63-0.124.09-1.753-1.852-4.674,1.155,0.065,1.6-7.421,6.5-1.518,3.822-1.267.508-1.428.805-2.19-1.474-6.157,1.883-2.134-.421-2.617-2.7-0.781,3.834-3.813.966-0.688,1.186,4.915,6.359-5.851-2.379-0.889.9-5.888-2.992-1.666-3.447-4.863-1.871-1.508-2.2-2.7,2.32-3.342-1.013-3.844-2.4-3.023-.1-3.766-1.468-4.026.319-4.011,1.295-2.345-3.419-5.547.047-1.9,4.513,1.484,1.914,0.118,2.4-4.15,5.476-0.452-.273-5.941-5.206,0.214-2.515,2.531-.74-1.087-2.184-0.638.164-4.726.694-4.606-4.782-2.518-4.414-3.791,1.4-0.635-2.441-2.187.951-7.579-.322-1.217,1.183-2.168,3.472-5.123,1.434,0.406,2.691-3.837,1.232-1.5-1.682-2.193-.053-6.752,1.614-2.952,4.782L368,602.344l-2.753-2.413-5.157.654-1.725.415-4.764,2.769-5.5-.1,0.523-5.485-2.5.991-7.917-1.536-2.174-1.577-3.751,3.782,3.862,4.962,2.276,1.022-6.916,6.433-1.632,2.335-2.818.307-4.884,2.874-9.657,2.106-1.124,2.184-2.2,1.53-0.644,2.633-3.292,4.256-4.5,3.045-4.11.1-2.856,2.651,0.455,5.271,2,1.561,2.788-.48,0.747-1.14,2.645,0.449,3.066,2.769,2.729,6.145,4.838,3.082,2.509,2.555,6.337,1.936,2.143,1.539,0.141,2.651-1.243-.5-4.116,3.2-1.329,3.807-3.038,2.592,0.124,1.357,2.723,8.635,4.977,1.62,0.948,2.332-2.568-.158-0.861.976,0.35,6.458-1.741,3.453-2.351,1.35-1.93,6.352-0.316,5.4-3.912,3.89-3.965.923-0.864.746L300.2,721.5l-5.3,4.293-2.239,4.816-1.143,2.9,3.825,1.443,2.422,4.912,3.85,3.729,1.573,1.942-0.681,1.1,1.542,5.361,5.089-4.107,4.091-.062-0.369,6.73,1.4,2.28,2.366,2.14,2.242,0.152,10.679-5.541-5.1-4.568,0.644-2.642,1.995-1.753,2.184,1.248,3.605-1.019,1.481,1.877,2.543-.508,1.152-.5-0.016-2.481,2.592-2.67,1.245,0.149,0.065-1.254,2.806,4.609,1.118,8.316-0.077,3.717,10.686-6.383,5.089-4.723,0.291,0.666,5.677,0.762,1.945-3.153,1.648,1.861,1.273-.319,4.8-7.381,4.286-2.385,2.462-4.485,4.373,2.667,3.807,0.217,3.181-4.352,4.051-.115,1.013-.839,5.9,2.679-0.257.325,5.253,0.366,2.06-1.614,1.487,1.456-0.353,2.3,4.633,1.976,2.013,1.189,0.6,2.211,3.333,1.5-0.17-5.055,4.463-2.354,0.486-2.645,3.881-5.5,2.97,1.834,4.968,0.582,1.106,0.675,0.158,2.592,3.618,0.474,0.836-5.25,4.621-2.945,2.047-3.568-4.612-4.8,0.818-1.121,2.153-1.638,1.747-4.739,1.9,1.9,3.838,1.2,3.549-.923,3.029,2.633,1.09,1.685,3.286,3.989,9.118,5.522-0.2,2.623-5.606,2.565-1.428,4.99,1.217-.325,2.667,2.648,0.5,2.444,1.391,4.448-0.883.8,1.419,2.118-0.211,5.095,2.921,2.372,7.793,1.9,7.349-.669,1.27-.2,0.954-2.329,2.465-.17,3.119,2.351-1.189,7.938-0.622.592,1.031,14.117-0.969,2.137,0.74,2.416,1.279,2.726-0.452-1.2,7.709-3.816,0.508-2.435,6.2-.821,0.5,2.515,4.7,3.742,4.37-.074,5.4,0.186,0.61-1.227-2.122-3.351,3.395-5.779,4.324-1.614-0.028-.353,4.15,0.028,1.028-.935,2.191-7.569,2.7-1.453,1.038,0.712,7.251-1.493,1.316-2.038-0.9-.88-2.887-3.825,2.261-.669,3.082,2.487,2.484-.2-0.886-2.509,0.539-2.636,5.166,0.589,0.79-.557,6.058-3.992,1.976,0.372,6.3-.635,3.224-1.936,0.282-1.4,1.078-.681,1.9,1.638,2.515-.4,3.782,0.65,4.429,2.633-0.018.019,2.577,0.511,4.336,4.336,2.388,0.926,0.737-.415,2.716,3.227,1.217,5.485,2.156,2.942,1.5,2.193-0.582,3.918-1.8,1.9,0.316,9.186,1.26,1.484,0.5,5.532,1.821,8.7-1.8,1.682,0.858,4.039,3.02,4.584,3.475,1.97,1.837-2.044,3.19,2.627,0.6,2.447,3.385,1.6,5.383-.257,3.348,2.078,4.107-2.818,3.748,5.346-2.112,1.53-0.889,2.5,4.776,6.284,4.671,0.83,1.645,2.261,0.2,4.169,2.493-.362,8.53,2.27,3.825-.056,5.107,0.712,2.453-.861,2.038,1.632,0.452,2.434,1.734-.39-1.734-7.57,2.859-2.676,2.555-.731,5.671,3.348,2.608,0.365,0.917,5.228,2.744,3.085,1.9,5.107,2.905,2.905,1.1,3.927,0.886,1.827,2.236-.009,1.716,3.546,4.4,2.794,1.022,0.8,10.128-5.674,2.388-1.18-0.034-2.676,6.006-2.822-1.933-4.819-9.159-14.975,1.106-1.5-1.459-2.363,2.122-5.111,3.429-2.218-2.521-.678-4.971-4.218-4.776,1.573-0.954-.923,3.175-5.81,0.161-2.651,3.116-4.3,1.081-3.063,0.685-.35,8-3.209,2.49,2.815,3.289-1.778-0.081-2.419,3.652,1.5,3.986-3.215,3.862,0.2,3.339-5.618,0.9-.861,1.982,1.186,5.049-5.553,0.787-2.568,4.968-4.383-0.815-6.532Z" transform="translate(-3.455 -97.669)" fill="none" stroke="#000" stroke-width="4"/><path d="M988.935,336.751l-0.285-6.517-5.129-2.354-3.336,2.258-1.614,5.216-1.161.759-1.146-2.53-3.961-.731-1.635-1.27-0.79-.638,0.966-1.787,4.968-4.733,1.768-7.539-0.167-.146-4.872-1.158,0.911-7.678-2.487-3.37-2.63-3.107-3.348,2.035-0.02.01-0.814-3.349,6.529-.709,0.585-2.645-0.387-.341-2.369.985-1.552-3.3-3.035-2.317,5.851-5.234,1.511-3.807-1.168-3.93-3.382-2.754-1.505-1.871,2.471-.728,3.872-6.3,0.356-4.129,7.384-3.729-0.5-6.043-0.994-.709-0.9-1.121-2.676.719-4.172,5.7-2.459,1.3-5.036-5.018,4.355-4.739,2.422-.753,0.192-2.583L968.88,239.3l0.787-1.112,2.571,0.533,4.627-2.843,0.678-.009-1.366-4.757,0.651-1.059,1.88-3.776,3.618,1.976,5.591-.26-1.031-3.881-1.908-3.642-3.8-1.645L979.464,214l-2.193-4.661-2.775-4.054-2.007-10.788-1.852-3.438,0.217-5.433-0.341-1.648-1.818-3.457,0.065-4.993-1.555-2.06-2.41-.771-1.415-2.211-2.289-5.457-1.13-.468-0.056-2-8.084-4.268-6.1-2.335-4.234-3.082-3.271-2.521-2.6-4.81-2.153-1.691-0.945-4.008-3.453-1.917-9.038-7.464-0.452-.973-2.831-5.612-4.4-2.781-1.23.4-1.781-1.861-3.447-4.38-3.924-1.459-1.6-2.221,1.815-8.13-1.533-.774-1.614-2.165-4-.774-2.6.892-3.391,5.045-7.78-3.258-2.784.53-7.034,4.906-0.966.734-17.9,15.793-2.918,2.9-6.467,6.04-6.953,4.008-3.726,4.826-6.789,3.432-5.56,3.258-8.517,4.55-3.677,1.92-4.064.124-4.228,3.593-7.913,2.673-3.692,1.505-14.077-1.1-4.209.192-6.972,4.915-8.233,2.62-0.023-.024-15.5,4.488-2.738.362L728.89,178.8l-9.766,2.682-3.549.152-8.322.774L704.864,181l-10.853,2.314-3.354.715-2.7.561-10.144,3.221-6.737,1.719-5.018,2.661-7.248,4.866L656.03,200.4l0.006,0.019-3.053,2.344-2.562.434-5.086,4.212-14.5,8.966-10.884,5.872-5.284,1.818-3,4.829-4.417,3.134-4.863,2.62-5.522.573-1.487.189-6.2,3.621-1.406.8-10.41,4.525-5.315,1.9-6.052,5.615-0.728,1.227-3.912,3.881-1.254,6.8-2.119,5.231,0.418,4.249-2.645,6.668-3.828,8.22-4.559,8.521-8.8,19.891-2.924,8.653,0.756,5.008,3.568,1.682,2.918,2.97-0.751,2.882v0l-0.768,1.549,6.687,5.417,9.428,2.261,2.075,4.036,0.858-2.3,4.68,0.446,0.607,2.435,1.462-1.279,2.2,0.75,2.518,0.873,1.871-1.815,1.329,1.607,5.544,0.452h0.013l4.221,1.047,4.249,0.756,2.586,0.5,0.864-2.3,5.312,0.638,2.918,0.452-7.4-.124-0.966,1.97,3.4,2.865,11.454-1.276,7.848-1.227,4.689-1.326,10.376-4.036,2.459-1.3,10.227-6.653,1.5-1.242-0.009-.007,3.657-1.849,4.054,0.1,3.413,1.865,4.1,5.064,0.245,0.393,1.258,1.409,4.565,5.9,5.4,5.73,4.782,2.041,3.986-.421,7.365-5.792,0.777,1.168-2.843,3.042-1.36,3.971,2.617-.474,1.127,2.388,3.639,0.979-2.032,3.246,1.989,1.344,0.935,1,2.645-.192,3.958-1,3.831,1.258,1.316-.356,0.991-2.515,1.36,0.034,0.263-.362,6,1.127,1.45-2.063,6.281-2.357,4.122,3.289,1.127-.8,3.512-.855-0.319-5.027,0.793,0.019,1.787,8.341,2.434,3.441,3.735,1.837,3.757,0.635,3.559-1.326,0.867,1.028,3.766-1.391L748.8,377.4l2.128,3.268-1.5,3.615,1.112-.771,2.506,1.031,0.719-2.493,5.956-2.9,0.018,0.006-0.071,3.676,1.713,7.077-0.294,3.624,2.376,2.026-3.2,2.534-9.047-3.128-3.692,1.645-1.973-1.347-1.27.084-2.871,5.544-1.065,2.131,4.826,0.375,0.44,1.183,1.295-.366,7.124,2.927-0.691,5.256,1.617,2.078,2.447-.833-0.331-2.7,4.674-2.682,3.057-2.657,3.68,9.217,2.465,1.233,0.016,1.316,0.44,2.2-2.62,2.218,0.877,3.453,4.466-2.831,1.118,2.5L777.653,426l0.474,2.592L780.849,429l-1.034,1.939,1.267,2.143,10.345-3.116,0.081,0.65,3.3-1.428,0.018,1.23,0.455-1.025,2.106,0.719,0.666-.9-2.726-4.476,3.391-2.106-0.282-1.332-4.448-6.749,6.222-3.4,6.114-1.388,9.106-.043,1.158,0,0.765-6.461-0.016-.009,2.258-3.908,2.515-.2,2.763-2.382,0.812,2.394,1.273-2.267,2.447-.914,0.561,2.332,0.186,0.068,4.218-.307-0.945-5.962,0.688-.907-0.136,1.258,2.5,0.059,0.7,1.081,8.917,0.889,6.86,0.062,0.025-2.775,3.683-3.528,0.781-5.067-0.808-4.624,2.986-3.131,2.775-.675,0.8-5.284,1.146-.7-1.518-7.133,5.064-.969,2.419,0.889-0.149-4.023,2.992,1.258,0.3-1.081-2.06-1.874,0.508-1.3,6.473-1.954,4.683-4.94,1.5,0.672-2.385,3.37,0.214,1.36,7.393-2.3,6.34,0.248,3.645,2.01,6.922-.514,3.974,1.545,2.775,3.221,6.761-1.016,2.54,4.844,3.444-4.194L933,357.041l-0.2,1.115,2.534,2.242,2.914,5.721,2.84,2.744,5.6-1.716-0.04,1.27,5.132,3.525,0.833,0.087,2.193,1.267,3-2.586,2.667,0.189,0.427,1.276,3.187,3.159,2.825-5.872,2.348,0.065,2.128-4.965,1.075-6.709,0.561-1.245,1.363-.031,1.722-3.28,3.107-1.871-1.127-2.239,4.72-2.626,2.738-3.042-0.087-5.439,0.793-1.118Z" transform="translate(-3.455 -97.669)" fill="none" stroke="#000" stroke-width="4"/><text transform="translate(337.212 276.613)" font-size="24" font-family="DejaVu Sans" font-weight="700">Calvados</text><text transform="translate(817.526 554.309)" font-size="24" font-family="DejaVu Sans" font-weight="700">Eure</text><text transform="translate(36.212 118.613)" font-size="24" font-family="DejaVu Sans" font-weight="700">Manche</text><text transform="translate(531.162 728.309)" font-size="24" font-family="DejaVu Sans" font-weight="700">Orne</text><text transform="translate(581.803 54.613)" font-size="24" font-family="DejaVu Sans" font-weight="700">Seine-Maritime</text></svg>