<svg xmlns="http://www.w3.org/2000/svg" width="973.429" height="834.963" viewBox="0 0 973.429 834.963"><title>Députés sortants de Provence-Alpes-Côte-d&amp;apos;Azur en 2017</title><path d="M700.854,524.7l2.091,3.3,4.927,1.655,0.759,6.625,1.158,0.677-6.327,1.433-3.386,8.339,9.016,2.254,2.9,2.817-0.249,2.62-5.993,2.656-12.837,3.3-1.694,1.93,0.1,0.474-2.352-1.06-1.233-4.907-10.177-.34-1.6,2.767-7.534,5.666L666.2,567.93l-1.266-.059,0.932-2.542-1-3.922-0.791-1.119-5.022-4.446-9.212,5.656-4.806-2.005-3.648,1.682-5.015-1.776-1.021,2.261-5.362.7-0.851,10.7L621,583.77l-1.285-1.9-2.077-1.26-4.707,2.358-7.033-3.739-4.564-4.842-12.523-7.6-2.964-7.341-2.084-1.534-7.073.664-3.755.844-6.2,8.286-1.174,4.056-4.184,5.329-7.923,5.45-3.337.314-4.94-3.451-4.331,6.209-1.387.242,0.422,1.227L538.26,590.6l-4.331,4.5-2.293.307-1.561,1.567-1.387.906-4.714,1.93,1.161,5.041-4.74,4.344-2.931-2.715-1.956-4.973-4.564-2.748-0.9-7.334-2.581-.154-2.67-2.977-3.834.422-2.172-1.534-1.24-2.293,0.6-2.6-0.972-3.89-3.431-1.59-0.065-1.335-0.837-.609-4.907,1.829-0.517,6.651-4.037,3.52-3.795,1.292-5.349-.069-1.858,1.93-1.675-6.422-3.118-4.276L453.551,575.6l0.589-.831,6.742-6.5,4.573-11.476,0.6-2.568,7.207-9.124,2.218-4.7,5.182-10.638,2.261-6.013,0.736-7.655-4.1-4.7-2.614-5.659-0.389-3.386-3.049-8.931-3.854-3.828,3.265-3.88,3.909,3.431,1.731-4.7,4.573-2.326,0.357-7.943,1.3-2.28-2.339-6.209,0.059-.3,1.047-2.473,4.691-2.48,5.221-.51,1.42-2.251L494.625,455l1.688-2.071-2.535-3.144-9.66-4.691-3.1-7.347,6.5-1.577,2.2-1.152,1.884-1.7,1.112-3.648-0.913-2.385,1.158-3.634,3.988-4.825,5.061,0.052-0.389,1.433,9.471-7.73,9.987,3.955,1.937-3.379,2.607,0.249,4.806-2.071,8.388,3.481,2.185-3.2,0.779-8.371,1.2-2.058-0.4-2.467,5.08-3.406,7.7-4.714,5,4.122,0.824-3.873,6.409,0.785,1.407,2.179,6.288-5.578,4.171,2.9,6.376-.766,6.376,1.151,4.148-3.206L598.476,385l2.568,0.645,0.193,0.082,7.347,3.062,2.614-.563,4.292-3.271,8.561-.811,3.016-2.113,7.756-10.21,9.4-7.187,2.454,1.034,2.051,3.386,3.5,1.924,10.217-1.286,3.54-13.694,10.854,5.784,2.836,6.167,2.225,1.528,6.127-2.768,3.821,1.489,10.805-.851,6.677,1.642,2.166,3.311-0.965,5.375,4.806,2.153,1.534,3.654-0.965.851-0.791,6.275,0.811,2.254-3,3.942,0.913,3.72-5.25,7.174,1.161,2.319-0.4,2.568-3.89,3.585,4.927,9.1,0.837,7.91,3.091,2.358,1.554,2.843,4.5,4.842,2.493,4.586,1.852,2.709-2.447,6.242-0.556,7.979,7.073,6.32,4.973,2.018,1.829,5.094,12,7.119-1.112,2.48,3,2.192,0.716,4.792,0.229,3.916,6.638,0.645,2.568,6,2.7,2.951,2.212,1.348,2.568-.851,1.139,0.73,4.678,6.556,3.258,2.352,0.2,2.594-1.3.357-5.257,1.06-7.253,1.387-2.535-.334-2.293-3.245-7.047-5.731-3.873-.51-1.021-1.168-8.594,3.131-5.5,10.338-9.33,4.518-8.78-2.983Z" transform="translate(-20.14 -38.731)" fill="#ff8080" stroke="#000"/><path d="M411.778,423.058l2.126-6.081-2.512-3.029-3.566-1.757-2.12-4.691-2.018-.307-2.166,1.554-4.05-.321-1.079.824-3.183,5.928,4.557,4.773,0.121,1.328-3,2.529-5.31-.4v0.16l-2.549,6.192-8.64,3.612-0.965,2.395-2.454.791-0.18,16.5,1.246,3.733,4.03,0.006,7.635-2.5-0.478,17.577-6.474,11.77-1.789,7.979-1.436,6.013,1.3,4.786,4.707-.236,4.276,2.689,6.3-1.387,4.383,10.324,6.448-.069-4.531,11.129-4.874,9.156-3.176,2.326-3.527,3.667-1.073,11.7,1.7,0.069,3.579-1.279,2.2-3.3,7.694,0.831,7.871-1.413,1.021,0.864,4.318,0.945,2.1,0.383,1.488,3.615,4.083,3.219,2.728,6.9,2.97,2.018,2.882,1.757,2.28-.569,0.752,9.317,8.823,5.941,2.594,4.652,6.677-10.1,0.582-.831,6.746-6.5,4.573-11.476,0.6-2.568,7.207-9.124,2.218-4.7,5.189-10.638,2.254-6.013,0.743-7.655-4.1-4.7-2.62-5.659-0.389-3.386-3.043-8.931-3.86-3.828,3.271-3.886,3.9,3.438,1.737-4.7,4.567-2.326,0.363-7.943,1.292-2.28-2.339-6.209,0.065-.3,1.04-2.473,4.7-2.48,5.221-.51,1.42-2.251-0.255-2.653,1.682-2.071-2.535-3.144-9.66-4.691-3.1-7.347,6.5-1.577L489.7,435l1.884-1.7,1.112-3.648-0.906-2.385,1.158-3.634,3.988-4.825L502,418.859l-0.389,1.433,9.471-7.73,9.981,3.955,1.943-3.379,2.607,0.249,4.8-2.071L538.8,414.8l2.185-3.2,0.779-8.371,1.2-2.058-0.4-2.467,5.08-3.406,7.711-4.721,5,4.129,0.818-3.873,6.415,0.785,1.407,2.179,6.288-5.578,4.164,2.9,6.376-.766,6.383,1.151,4.148-3.206,2.113-3.311,2.568,0.645,0.186,0.082,7.347,3.062,2.614-.563,4.3-3.271,8.561-.811,3.016-2.113,7.756-10.21,9.392-7.187,2.454,1.034,2.058,3.386,3.494,1.924,10.217-1.286,3.54-13.694,10.861,5.784,2.83,6.167,2.231,1.521,6.127-2.761,3.814,1.489,10.812-.851,6.677,1.642,2.159,3.311-0.965,5.375,4.806,2.153,1.541,3.654,2.575-.281,1.642-2.09,3.749-1.394,1.7-6.288,7.577,2.365-1.079-6.376,2.663-4.433,0.222-6.422,2.14-1.6,1.5-3.674L743.3,351.9l4.855-4.619,3.8,0.749,2.339-1.086,2.385-2.427,4.429-3.206L761,339.932l2.473-3.137-0.154-17.845,4.874-2.388,4.1-.134,3.788-1.655,0.249-1.253-1.6-2.251-5.522-4.089-0.887-1.06-2.549-6.4-6.886-4.472-1.106-3.847-1.24-.608-2.7-4.564-1.7-10.848,4.1-3.54,2.568-4.881,7.969-2.113,2.889-4.511,3.438-2.251,2.237-10.714,4.282-6.824,3.661-1.315-3.726-5.826-1.515-6.638-2.339,1.04-6.863-2.99-2.126,1.328-1.7,3.612-5.342,6.186-6.543,1.335-1.776,5.094-2.012,1.839-6.7.824-3.34,2.365-2.519-.877-1.629,3.733-3.854.615-3.068,2.748-0.02,4.024-3.707,1.763-4.806,6.638-9.31,5.692-6.8-.716,0.67,3.834-4.037,12.228-4.135,2.254-3.324,3.494-2.607,15.055-8.12-.4-3.955.926-0.906-.173-2.575-.8-5.247.8-6.222-2.293-3.707,1.482-2.594-.743-3.755.216-4.806-1.8-3.769.645-2.529-4.665-3.854-1.066-1.845-1.969L630,299.217l-1.829-1.865L627.9,294.8l-2.656-5.329-3.451-1.757-4.433-4.567-2.352-4.564-1.285-.222-2.709,2.81-3.566,1.57-0.67.543,3.88,3.873-1.7,7.864-0.723,3.54-2.267.749-0.658,2.12-3.86-1.161-4.23-3.252-1.266-2.395L590,297.833l-2.755,2.735-7.969.749-0.209.343,2.091,5.892,1.7,1.783,4.479,12.045-4.953,9.526-4.848,2.352-4.5-8.447-3.111-4.511-4.164-3.546-3.049-6.019-3.219,2.005-1.7-2.99-0.173-7.73-6.631-2.408-2.231-.448-2.346-2.454-1.567.02-2.045,1.335-3.055-2.045-2.414-.02-1.616,3.163,1.407,1.979-2.133,7.475-0.844.972-4.158-2.7-6.608,4.914-2.152,1.649-1.515,5.241-7.553,2.908-4.043,1.75-1.694,1.482-5,3.252-3.386,8.7-1.086,4.966-3.176,4-2.434,4.357-1.207.4-2.568.095,0.02,3.962-1.858,3.379,3.036,2.473,3.612-1.266,1.158,0.677-0.442,4.256,0.255,1.214,0.357,2.473L490.29,369.6l0.752,2.555-0.618,5.123,2.588,0.6,0.409,1.272-1.145,2.385,0.334,3.546-2.663-.428-8.931-8.4-1.407-2.319,0.115-5.381-7.354-3.762L468.778,366l-0.065,2.575-3.585,5.61,1.034,5.143,1.24,1.515,7.815,5.4,0.7,3.988,2.113,1.718,0.906,2.522,2.091,4.76,8.875,2.781-0.615,5.107-2.67.288-11.469-1.675-7.871-2.038-5.522-4.007-5.277-.428-4.351,2.44-6.039-1.649-4.318,3.131-6.7,1.26-4.721,2.542-1.547,2.2-4.55-2.005-0.785.926-6.013-.2-2.14,7.387,0.543,1.194,10.256,1.534-1.145,6.746-9.3-.978Z" transform="translate(-20.14 -38.731)" fill="#ffeb00" stroke="#000"/><text transform="translate(576.324 444.443)" font-size="48" font-family="DejaVu Sans" font-weight="700">1</text><text transform="translate(576.324 323.172)" font-size="48" font-family="DejaVu Sans" font-weight="700">2</text><path d="M410.807,273.838l-3.52.615-4.933-4.1,2.568-9.124,0.186-.658,1.871-1.354,1.266-4.74,2.192-1.04,0.327-3.252,2.653-5.565,2.522-.275,0.939-3.693-1.839-1.91-0.824-3.909,0.51-6.569,2.735-1.616,2.152,1.629,6.729,0.416,11.679,3.867,6.575-4.292,1.292-3.693,4.825,2.447,5.417,0.376,2.9-8.414L462.438,217l4.639-4.429-1.253-3.808-3.559-1.577-3.111-.69,2.735-2.836,2.1-6.5,2.921-4.613-0.631-6.759,3.88,1.3,1.937,1.9,10.423,1.662,2.133-3.245,2.522-.945,4.832,2.031,5.041-4.164,3.733,1.495,0.134,9.84,3.886,7.495,7.3,5.054-4.249,6.69,3.612,8.479,3.2-.069,3.33,1.963,3.111-1.943,2.529,0.334,3.746,6.791L526.74,235.6l3.225,2.319,7.7-1.021,2.152-1.567-0.229,4.122,1.554,2.218,2.561,0.985,3.988-.883,3.942,0.972,1.554,0.563,4.586-.716,3.337,2.192,1.443,3.749-1.034.844,6.153,2.709,17.384-3.17,3.622-1.9,0.5,2.588-4.7,10.645,0.167,2.64L584,266.814l3.078,2.48-0.2,1.322-5.61,8.816-4.678-.082-1.266,4.567-5.008.236-2.231-1.187-1.822,1.541-3.049,7.086-2.166,1.066-1.943.906-1.328-.013L551,299.685l-2.231-.448-2.352-2.454-1.561.02-2.051,1.335-3.049-2.045-2.421-.02-1.616,3.157,1.413,1.986L535,308.691l-0.837.972-4.158-2.7-6.611,4.914-2.146,1.649-1.521,5.234-7.553,2.915-4.043,1.75-1.688,1.482-5,3.245-3.386,8.7-1.086,4.966-3.183,4-2.434,4.357-1.207.4-2.561.095,0.013,3.962-1.852,3.373,3.036,2.48,3.612-1.266,1.158,0.671-0.448,4.256,0.262,1.22,0.35,2.473-3.406,1.829,0.749,2.555-0.615,5.123,2.581,0.6,0.415,1.272-1.152,2.385,0.334,3.54-2.663-.422-8.928-8.4L479.625,374l0.115-5.381-7.361-3.769-3.585,1.214-0.069,2.581-3.585,5.6,1.04,5.149,1.24,1.515,7.815,5.4,0.7,3.981,2.113,1.724,0.9,2.522,2.1,4.753,8.875,2.787-0.615,5.106-2.67.282L475.164,405.8l-7.871-2.038-5.525-4.007-5.27-.428-4.358,2.434-6.039-1.649-4.318,3.131-6.69,1.26-4.721,2.549-1.554,2.2-4.544-2,2.555-.877,0.193-1.354-2.555-6.294,1.22-6.71L423.33,386.2l0.448-3.955,3.451-3.962-3.068-3.814-8.018,3.419-0.327-2.647-3.615-3.808,0.108-2.62,2.005-1.266-1.783-2.794-2.358-.677-2.575-2.627-2.152,1.272,1.361-3.756,4.721-4.691,0.288-1.309-2.071-1.56-2.237,1.1-7.668.082-0.35.059-4.338-.563-2.519-.422-3.648,1.547-2.549-.71-0.851-3.756-4.429-2.781-4.927,1.93-2.876,2.774-4-5.4-2.7-.121-1.688-6.18-5.247-.2-2.5-.537-1-2.414,3.137-2.306-0.255-4.05-2.467-7.783-4.021-5.106,5.617-3.419,9.493,4.914,2.44-.749,1.266-2.378,2.1,0.295,1.174-3.2-0.651-.926-7.5-2.951-1.3-2.212-1.011-6.441,1.839-1.924-1.8-4.914-0.4-.932-0.294-3.749,3.612-.723,1.139,2.244,2.28,1.181,7.756-.108,10.759,4.524,2.977,2.179,1.181-.37,1.227-.517,9.6,4.318,3.922-3.559,2.385-9.022,1.91-1.688,5.022,1.08,3.687-1-5.054-7.086Z" transform="translate(-20.14 -38.731)" fill="#ff8080" stroke="#000"/><path d="M759.994,151.114l-5.162-1-3.091-2.656-3.886-1.3L738.831,140l-2.218-4.881-4.037-.288-2.928-4.632-6.468-1.61-0.2-6.8,2.1-4.819-2.46-1.086,3.814-7.213,0.422-4.03L721.905,96.9,719.52,95.7,719.38,94.31l3.605-1.95-0.468-2.741-1.482-3.9-1.06-.893-3.867-1.567-13.864-.02-0.965-1-1.743-3.788,0.618-4.07-1.816-3.7,0.2-5.552-0.53-1.292-3.661-1.943-0.864-4.037-4.8-6.765,0.831-2.653-4.573-4.58-6.562.69L674.657,43l-3.513,3.654L669.59,50.3l-6.435,2.212-2.607-.615-4.282-3.34-7.979,7.308,1.956,7.979-0.468,5.424-9.444,1.583-5.074-4.177-4.037.7-3.949-1.194-2.575.887-8.9-3.219,2.7-4.773-2.646-7.756-8.581-8.254L606.9,44.373l-4.41,3.029L595.9,48.7l-4.573-2.486-4.537-4.7-8.708,7.9,3.9,14.518-6.461,1.8-2.928,9.084-0.242,5.489-1.6,2.126,0.065,4.129,3.124,2.656,11.623,3.726,11.872-2.951,5.381-.059,1.246,2.454-1.8,3.7L602.2,98.854l3.4,5.826-1.207,5.215,1.724,2.1,7.815,2.427L612.81,121.2l1.053,6.677-0.913,4.007,1.079,3.841-1.829,2.077-0.422,2.7,1.361,7.969-5.3,2.535-4.7-2.656-4.191-6.925-2.722-.474-7.642,1.924-5.067,6.484-5.5.216-9.1-2.741-2.146,1.731-5.283.857-3.271-2.313-7.635-1.662-4.812,6.664-4.4,2.862-11.348,8.793-7.308-8.741-3.9,1.106-3.553,5.852-6.742.69-8.247,5.515,3.2,3.177,4.671,2.133,0.69,3.841L501.3,181.21l-0.569,4.58,0.134,9.84,3.886,7.495,7.3,5.054-4.249,6.683,3.612,8.479,3.2-.065,3.33,1.963,3.111-1.943,2.522,0.334,3.749,6.785-0.645,5.149,3.232,2.319,7.7-1.021,2.152-1.567-0.222,4.122,1.554,2.212,2.561,0.991,3.988-.887,3.942,0.972,1.554,0.569,4.586-.723,3.33,2.2,1.449,3.749-1.04.844,6.153,2.709,17.391-3.17,3.622-1.9,0.5,2.588-4.7,10.645,0.167,2.633-0.658,3.935,3.085,2.473-0.2,1.328L581.21,279.4l-4.671-.082-1.266,4.564-5.008.236-2.231-1.181-1.822,1.541-3.049,7.086L561,292.632l-1.943.9-1.328-.007-6.778,6.134,6.631,2.4,0.18,7.737,1.7,2.99,3.219-2.005,3.049,6.019,4.164,3.546,3.1,4.5,4.5,8.447,4.855-2.345,4.953-9.533-4.479-12.045-1.7-1.776-2.084-5.9,0.209-.34,7.962-.749,2.755-2.741,5.96-3.206,1.26,2.388,4.23,3.252,3.86,1.161,0.658-2.12,2.273-.749,0.716-3.54,1.7-7.858-3.886-3.88,0.677-.543,3.566-1.567,2.7-2.81,1.292,0.216,2.352,4.567,4.433,4.567,3.451,1.75,2.656,5.336,0.262,2.555,1.835,1.858,6.274-1.158,1.852,1.969,3.847,1.066,2.529,4.665,3.769-.651,4.806,1.8,3.762-.222,2.594,0.743,3.707-1.475,6.222,2.287,5.247-.792,2.575,0.792,0.9,0.173,3.955-.919,8.12,0.4,2.607-15.061,3.33-3.494,4.135-2.251,4.037-12.228-0.67-3.841,6.8,0.716,9.317-5.692,4.8-6.631,3.713-1.763,0.02-4.03,3.062-2.741,3.86-.618,1.622-3.733,2.519,0.883,3.34-2.365,6.7-.831,2.012-1.835,1.776-5.094,6.543-1.341,5.342-6.18,1.7-3.615,2.126-1.328,6.863,3,2.333-1.047,2.568-2.944,0.2-3.9,1.367-2.254,2.594-.193,3.814-3.8,2.549-.752,2.542,1.034,6.736-1.381,8.653,4.164,1.374,0.141,2.676-.468,0.435-1.315-0.448-2.735-2.676-7.858-6.167-2.944-3.291-4.429-2.326-7.89,0.282-6.837-3.337-6.059-3.346-2.359,5.532-9.52,0.442-2.722-0.389-1.328-2.467-1.181-2.018-5.087-9.189-2.8-9.6-5.385-1.381-.013-5.283,6.216Z" transform="translate(-20.14 -38.731)" fill="#ffd1dc" stroke="#000"/><text transform="translate(624.86 173.659)" font-size="48" font-family="DejaVu Sans" font-weight="700">2</text><text transform="translate(437.86 249.659)" font-size="48" font-family="DejaVu Sans" font-weight="700">1</text><path d="M871.908,599.145l-6.7.217-3.846,1.232-0.236-8.661,2.216,1.407,0.58,2.358,3.822-2.36,1.351-1.193,2.417,0.474-0.745-1.674,0.322-.869,1.406-.739,0.237-1.477-1.717-1.81,0.805-2.19,3.338-1.667-0.736,2.561,2.3,3.111,4.93,0.145,0.714,0.2-2.309,1.022-3.634,5.025-0.214,2.532,2.081,3.16-0.746,3.108-3.363-.426Z" transform="translate(-20.14 -38.731)" fill="#06c" stroke="#000"/><path d="M752.869,572.166L755.7,577.8l1.106,6.059-1.636,3.507,5.208,4.318,4.014,0.383,2.862,5.679,6.7,1.093,7.387,3.431,2.542,2.755-2.4,3.15,0.906,3.886,0.883,1.694-1.443,1.688-3.072-.082-2.862-1.24-3.5.759,1.139,1.469-1.06.563-1.57-.844-1.943,1.469-1.3,2.064-4.832-1.937,0.422,7.272,2.058,1.528-2.231,4.753-2.99,1.737-5.264.51-2.212-1.227-1.021.752-4.024-2.843-0.831-2.091-3.078-1.521-3.068-2.506-3.814.524-2.81-5.771-4.089-6.242-2.512-.343-1.361-2.071,0.651-6.589,1.018-2.522,2.11-1.642-2.365-10.069-2.486-3.016-0.864-3.847-11.6-.958-0.229-2.575-1.924-1.809-4.874-2-1.3-.255-6.965,3.419-1.053-5.385-3.278-2.113,0.887-3.474-2.012-1.436-0.389-3.078-0.1-.474,1.694-1.93,12.83-3.3,6-2.656,0.249-2.62-2.9-2.823-9.009-2.251,3.386-8.339,6.327-1.433-1.161-.677-0.752-6.625-4.933-1.662-2.084-3.3,12.742,3.15,8.774,2.977,9.336-4.511,5.5-10.338,8.594-3.131L746.844,514l3.88,0.5,7.047,5.738,2.287,3.245,2.535,0.334,7.259-1.387,5.25-1.067,1.3-.357-0.2-2.594-3.265-2.352-4.671-6.556-1.145-.723-2.568.844-2.2-1.341-2.7-2.951-2.568-6-6.631-.645-0.236-3.922-0.716-4.786-3-2.192,1.119-2.48L735.61,478.2l-1.829-5.094-4.966-2.018-7.079-6.32,0.563-7.985,2.447-6.235-1.852-2.715-2.5-4.58-4.5-4.848-1.554-2.836-3.091-2.358-0.844-7.91-4.927-9.111,3.9-3.579,0.389-2.575-1.161-2.319,5.257-7.167-0.919-3.72,3-3.948-0.8-2.251,0.785-6.281,0.972-.851,2.575-.275,1.642-2.09,3.746-1.394,1.711-6.288,7.577,2.365,2.787,5.784-0.631,3.821,2.581,2.823-0.53,2.6,1.139,3.808,1.309,2.28,2.408,0.978,1.4,3.648,3.54,4.007,8.447,4.063,1.816,5.048,0.1,0.006,3.909-5.149,3.487-1.835,2.614,0.321,4.076,0.5,6.081-3.1,3.2,7.563L782,418.478l3.54,1.6,1.279-.422,3.52,4.021,0.887,6.611,2.192,1.567,1.285,3.808,5.234,4.171-1.622,5.054,0.1,6.69,1.724,3.641L805.7,457.9l1.757,1.943-0.582,3.687,1.93,3.239-1.711,5.98,4.848,7.475,2.682,3.451,3.707,0.887,1.839-4.894,8.7-3.648,0.1,0.088,1.348,3.585-0.046,7.724,1.616,4.685,1.119,0.186,1.547,3,6.274-1.871,2.682-6.229,3.527-1.917,2.715-4.625,5.277-.864,1.273,2.378,2.44,16.007-4.184,3.232-2.493,6.032-7.482,2.944,0.307,3.189-1.053,1.884,2.682,2.414L844.71,522.2l0.556,6.1,2.045,3.379-0.321,3.886-0.088,3.9-0.282,2-1.315,4.177-1.541,3.471-0.088,3.726,2.549,4.223,2.166,1.521,1.3,1.622,2.67,4.148-0.965,4.76-2.293,2.97-1.152,1.629-4.03,5.336-0.67,2.1,0.461,8.682-3.821.952-1.852,8.928-2.339-.474-1.413-1.956-2.385-.294,0.357,3.245-2.339-1.119-1.315-3.648-2.682-2.8-2.555-.216-4.325,2.836-2.28.824-2.192-1.119-0.461-7.674-3.474-5.391-2.434-.824-1.309-2.058,1-1.75-4.606-4.678-5.777-3.232-6.2,1.59-2.231-1.354-1.194.3,1.9,5.617-1.214.53-2.2,4.567-5.215-.723-0.864-1.018Z" transform="translate(-20.14 -38.731)" fill="#06c" stroke="#000"/><path d="M854.111,580.043l0.381,5.117,1.57-.188,0.565,1.2,1.568,3.641,2.931,2.122,2.216,1.407,0.581,2.358,3.821-2.36,1.351-1.193,2.417,0.474-0.745-1.674,0.322-.869,1.406-.739,0.237-1.477-1.716-1.81,0.8-2.19,3.338-1.667-0.736,2.561,2.3,3.111,4.93,0.145,6.967-5.486,6.466-.767,1.8-1.757,2.8-2.06,1.238-3.028-1.388-1.612-5.285.6-2,1.8-2.15,1.419-7.754,1.21-1.281-.247-0.2-3.8-2.184.092-0.838,2.116-2.486-.8-0.552-1.223,0.089,1.408-4.55.122-2.977-4.008-1.226.309-0.733-1.032-1.929,1.778,0.266,2.619L861.6,577.2l-1.715.109Z" transform="translate(-20.14 -38.731)" fill="aqua" stroke="#000"/><path d="M907.368,583.711l-0.154,1.106-0.919.716,1.7,1.583-2.957,2.977L901,589.443l-2-1.112-3.513,1.508-3.579-1.018-2.634,2.787-1.554.2-3.707,4.645,1.4,4.05,4.007,1.924-3.654.524-0.18,3.232-2.682.415-1.309-5.5,1.354-2.529-1.361-2.166-1.394-1.718-0.857.864-1.227,2.064,0.167,2.346L876.2,596.8l0.209-2.535,3.634-5.034,2.313-1.021-0.716-.2,6.978-5.5,6.477-.766,1.809-1.763,2.8-2.064,1.24-3.029-1.394-1.616-5.29.6-2,1.8-2.152,1.42-7.763,1.214-1.285-.249-0.2-3.808-2.185.088-0.844,2.12-2.493-.8-0.549-1.227,0.4-5.195-1.541-2.1-5.483-14.76L866.765,550l2.319-1-0.991-8.761L868.233,531l3-2.467,1.021-2.4,4.887-1.093,1.449-3.366,1.26-.34-1.77-1.8,0.779-6.121-1.132-.563-3.834-6.49-0.006-2.4,6.2,0.249,2.823-2.7,2.614-.242,9.706,3.412-0.167-2.467,1.943-3.2,1.06-4.953,3.118-2.408,0.34-2.62,2.454-3.124,2.931-2.519,3.782-.926,2.244-1.5-2.823-5.578-3.068-2.172,2.876-4.446-0.766-3.88,0.887-2.519,1.1-.811,0.877-13.462-0.887-10.429-0.134-2.709,1.757-3.667,8.152,0.752,10.818-5.744,5.162,1.42,4.344-3,5.437-.288,3.425-2.237L963.7,423.36l2.071-1.694,1.207-3.886,1.5-3.641,2.166-1.5,10.825,0.569,0.831,2.313-3.183,5.865L980.939,425l-0.376,1.315-2.506,4.485,1.91,4.907,4.158,3.553,2.549,4.874,4.024,3.661,0.831,2.568-0.883,6.791-3.144,7.527-10.671,5.578-0.115,5.424,1.668,6.562-4.479,8.345-11.342,7.547-5.437.327-5.771,3.265L951.068,508l-3.317,5.6,0.736,6.516-13.066,6.046-1.469,1.986-2.823,2.46L930.5,538.9l3.055,4.237,3.085,14.4,3.085,7.125-4.861,1.436-1.292,2.339-5.4,3.54-1.279,2.339,0.716,2.549-0.965.913-6.837-3.579-5.27,3.929-0.524-1Z" transform="translate(-20.14 -38.731)" fill="#06c" stroke="#000"/><path d="M863.457,573l0.268,2.627-2.166,1.547-1.718.108-5.777,2.741,0.376,5.123,1.57-.193,2.133,4.842,2.931,2.126,0.236,8.669-3.981,3.566-2.077,7.783-3.749,5.4-3.572.461,0.677-2.231-0.8-1.2,0.127-2.594-3.3-11.417-0.965-10.537-0.461-8.682,0.677-2.1,4.03-5.336,1.152-1.629,2.287-2.964,0.965-4.76-2.67-4.155-1.3-1.622-2.159-1.515-2.549-4.23,0.088-3.719,1.541-3.474,1.315-4.171,0.275-2,0.088-3.9,0.321-3.886-2.038-3.379-0.556-6.1,1.809-4.338-2.676-2.414,1.053-1.884-0.314-3.189,7.488-2.944,2.493-6.032,4.177-3.232-2.434-16.007L855,479.777l-5.277.864L847,485.266l-3.527,1.917-2.676,6.222-6.281,1.878-1.547-3-1.112-.186-1.616-4.685,0.039-7.73-1.348-3.585-0.1-.082-8.708,3.648-1.839,4.894-3.7-.887-2.682-3.451-4.848-7.475,1.711-5.98-1.93-3.239,0.582-3.687-1.757-1.943-5.565-2.676-1.724-3.641-0.1-6.69,1.616-5.054-5.234-4.171-1.279-3.808-2.2-1.567-0.887-6.611-3.513-4.021-1.279.415-3.54-1.6-0.127-5.483-3.2-7.563-6.081,3.091-4.076-.5-2.614-.321-3.487,1.835-3.916,5.149-0.1-.006-1.816-5.048-8.44-4.063-3.54-4.014-1.4-3.641-2.408-.978-1.309-2.28-1.139-3.808,0.53-2.6-2.588-2.823L736.9,381.6l-2.787-5.784-1.086-6.376L735.7,365l0.216-6.415,2.146-1.6,1.5-3.674,3.749-1.374,4.855-4.619,3.8,0.749,2.339-1.086,2.385-2.421,4.423-3.206,5.283,1.354,3.445,2.2,2.876,7.57,7.8,7.635,1.021,6.588,3.559,3.814,5.048,1.809,1.125,2.48,1.073,10.841,2.018,3.585,3.406,2.185,1.285-.484,4.177,3.33,10.439-2.663,5.355,4.07,6.327,2.555,6.523,5,5.107-1.534,4.74,2.562,2.7-.448,1.835,5.11,2.512,0.913,5.175,6.046,4.874-1.6,3.091,5.9,3.579,3.886,5.993,2.293,2.4-1.1,13.341-.069,5.015,10.874,2.7-.006,4.78-2.555,2.522-.065,8.895,4.243,0.887,10.423-0.877,13.468-1.1.811-0.887,2.519,0.766,3.88-2.876,4.439,3.072,2.172,2.817,5.584-2.244,1.5-3.775.932-2.938,2.519-2.447,3.124-0.343,2.62-3.118,2.4-1.053,4.959-1.95,3.2,0.173,2.467-9.706-3.412-2.62.242-2.817,2.689-6.2-.249,0.006,2.408,3.828,6.49,1.139,0.563-0.779,6.114,1.77,1.809-1.26.334-1.449,3.373-4.894,1.093-1.021,2.4-3,2.467-0.134,9.238,0.991,8.761-2.319,1,1.4,2.372,5.489,14.767,1.534,2.1-0.4,5.195,0.088,1.413-4.557.121-2.977-4.014-1.227.307-0.743-1.027Z" transform="translate(-20.14 -38.731)" fill="#06c" stroke="#000"/><path d="M831.885,596.992l2.388,0.294,1.407,1.956,2.339,0.474,1.852-8.928,3.821-.952,0.958,10.537,3.3,11.417-0.121,2.594-0.883-.893-4.966.435-5,.468-4.109,4.989-4.289,9.238-3.36-1.829-2-4.721-3.3-4.158-6.314,1.577-6.644.121-0.2-1.214,0.811-1.053,5.034-.883,3.782-9.539,2.467-.442-1.783-1.884-3.615-1.018-0.824-2.293,1.91-6.288,2.192,1.112,2.287-.818,4.325-2.836,2.555,0.216,2.682,2.8,1.315,3.641,2.339,1.125Z" transform="translate(-20.14 -38.731)" fill="#06c" stroke="#000"/><path d="M827.426,637.106l1.161-8.492-3.36-1.822-2-4.727-3.3-4.158-6.314,1.577-6.644.121-0.2-1.214,0.811-1.053,5.034-.883,3.782-9.539,2.467-.435-1.783-1.891-3.615-1.018-0.824-2.293,1.91-6.288-0.455-7.674-3.481-5.4-2.427-.818-1.309-2.064,1-1.743-4.606-4.678-5.777-3.232-6.2,1.59-2.225-1.354-1.194.3,1.9,5.61-1.22.536-2.2,4.567-5.215-.723-0.864-1.018-27.4-6.742,2.843,5.643,1.1,6.052-1.636,3.507,5.208,4.318,4.014,0.383,2.862,5.686,6.71,1.086,7.38,3.431,2.542,2.755-2.4,3.157,0.906,3.886,2.388,4.721,4.452,2.856L789.8,623.5l3.438,5.215,5,2.064,5.322,0.7,3.981,3.546,3.674-2.11-0.409,6.248,2.212,2.529-2.1,3.183-1.413,2.434-3.775,3.935,0.461,2.192L808.5,654.5l2.7-4.237,5.277-3.245,4.593-.569,4.05,2.555,1.119,7.976,5.784-2.928-0.684-6.984-3.579-.837,0.543-4.171-1.694-1.541,2.333-1.5Z" transform="translate(-20.14 -38.731)" fill="#06c" stroke="#000"/><path d="M811.256,632.876l-3.68,2.146-4.7,7.668-1.227,2.251,0.51,2.454-4.907,1.534-3.988-.919-3.988.409-5.008,1.737-1.328-.51-0.1-1.328,1.227-.5-1.839-2.254-5.215,1.021-0.818.1-3.782-.2-3.68,3.373-2.251-.615-1.328-.1-4.089,4.806L758.81,661.4l4.292,2.656,0.2,1.328-3.068,7.456,5.417,2.862L768,676.624l0.919,3.68,5.008,1.125,0.1-1.227,3.579-1.322,2.251-4.812-0.919-2.251-3.474-1.737-0.2-2.555,3.68-6.742,3.988-3.579,5.11-1.737,12.467-.307,2.555,4.7,5.417-5.316-2.352-1.125-0.409-2.146,3.782-3.988,1.433-2.454,2.045-3.17-2.146-2.454Zm-5.421,32-3.886.409-0.51.51,0.716,1.125,1.839,0.716,6.032,0.2,1.021,0.716,0.716-1.021-0.307-.615Z" transform="translate(-20.14 -38.731)" fill="#06c" stroke="#000"/><path d="M763.072,631.214l2.237-4.753-2.064-1.528-0.415-7.272,4.832,1.937,1.292-2.064,1.95-1.469,1.567,0.844,1.06-.563-1.132-1.469,3.494-.759,2.862,1.24,3.072,0.082,1.443-1.688,1.515,3.036,4.446,2.856,0.569,3.873,3.438,5.208,5,2.071,5.322,0.69,3.975,3.546-4.678,7.662-1.227,2.231,0.563,2.48-4.973,1.5-3.922-.877-4,.4-5.048,1.694-1.279-.442-0.127-1.341,1.22-.563-1.891-2.225-5.182.991-0.779.108-3.782-.134-3.707,3.346-2.273-.645,0.34-2.607-2.1-4.685,3.245-5.826Z" transform="translate(-20.14 -38.731)" fill="#06c" stroke="#000"/><text transform="translate(895.86 470.159)" font-size="48" font-family="DejaVu Sans" font-weight="700">4</text><text transform="translate(823.36 432.659)" font-size="48" font-family="DejaVu Sans" font-weight="700">5</text><text transform="translate(772.304 506.159)" font-size="48" font-family="DejaVu Sans" font-weight="700">2</text><text transform="translate(766.805 572.395)" font-size="33.524" font-family="DejaVu Sans" font-weight="700">7</text><text transform="translate(751.154 601.408)" font-size="22.26" font-family="DejaVu Sans" font-weight="700">9</text><text transform="translate(742.691 634.165)" font-size="22.26" font-family="DejaVu Sans" font-weight="700">8</text><text transform="translate(801.441 579.074)" font-size="22.26" font-family="DejaVu Sans" font-weight="700">6</text><text transform="translate(852.438 555.021)" font-size="7.11" font-family="DejaVu Sans" font-weight="700">1</text><text transform="translate(839.609 552.283)" font-size="16.861" font-family="DejaVu Sans" font-weight="700">3</text><path d="M362.125,766.426l5.032,1.407,3.771-.906,0.315-2.438,1.8-1.753,5.882,1.42,0.385-1.613-2.3-2.731-0.109-2.462,2.285-2.738,1.219,0.22,3.278-4.045-2.065-8.387-2.5-.316-4.4,2.372-6.275.236-2.338-3.142-1.928,1.706-4.291-.98-4.384,3.371-4.9-1.053-0.431,7.323-0.836,1.966,0.505,1.943,5.05-.5,2.186,2.882,2.258-1.22,1.026,2.221,2.577,0.518L362.621,761l0.134,2.139,0.987,1.522Z" transform="translate(-20.14 -38.731)" fill="#06c" stroke="#000"/><path d="M333.286,757.032l2.6-4.417,3.8,0.1,0.315,1,0.462,4.468,4.122-1.5,3.067,3.235-1.153,3.694,0.032,6.488-1.735,5-2.481,3,0.28,6.484-5.213.675-6.115-2.506,2.654-6.089,6.407-6.736,0.105-3.967-1.582-3.65Z" transform="translate(-20.14 -38.731)" fill="#06c" stroke="#000"/><path d="M343.059,741.894l-0.189,1.477,2.937,0.68,0.127-.02,4.665,0.563,4.9,1.053,4.384-3.371,4.289,0.98,1.929-1.706-3.229-4.832-0.761-3.7,3.172-5.919-4.47-9.852L358.69,716l-4.212,2.594-2.6,1.8-6.5,2.5,1.2,0.553-0.42,1.26-3.893,3.456-0.689,4.078,2.51,1.731,0.2,1.043,1.687,0.829,1.414,0.937L348.8,737.9l0.187,0.72-2.681,1.5-0.878,1.816-1.518-.613Z" transform="translate(-20.14 -38.731)" fill="#f6e1b9" stroke="#000"/><path d="M344.673,750.164l1.1-1.487-0.7-1.962,0.741-2.664-5.969-1.394-0.675,1.275-3.967-6.87-2.559-.551,4.051,6.6,0.816,3.927L336.866,751l0.155,1.111,3.382,0.068,1.051-.359,0.121,1.3,1.048-.381,2.611,0.97Z" transform="translate(-20.14 -38.731)" fill="#ff8080" stroke="#000"/><path d="M344.673,750.164l1.1-1.487-0.7-1.962,0.741-2.664,0.127-.02,4.665,0.563-0.431,7.323-0.834,1.966,0.112,0.45-3.981,1.733-0.884.612-4.122,1.5L340,753.711l-0.315-1,0.72-.532,1.051-.359,0.123,1.3,1.047-.381,1.447,0.533,1.165,0.437Z" transform="translate(-20.14 -38.731)" fill="#ff8080" stroke="#000"/><path d="M363.875,784.353l-2.433.64-0.316,1.286-5.049-1.15-1.957,1.1-7.342-2.7-4.19,1.053-0.28-6.484,2.481-3,1.735-5-0.032-6.488,1.153-3.694-3.067-3.235,0.885-.612,3.981-1.733,0.392,1.493,5.05-.5,2.186,2.882,2.258-1.22,1.026,2.221,2.576,0.518L362.617,761l0.134,2.139,0.987,1.522-1.615,1.762,5.031,1.407,3.771-.906,0.315-2.438,1.8-1.753,5.883,1.42,1.82,7.252,1.231,2.152-0.52,1.191-2.576.341-1.53,1.893,2.669,5.862-1.885,6.162-0.323-1.282-3.929.106Z" transform="translate(-20.14 -38.731)" fill="#06c" stroke="#000"/><path d="M329.454,734.471l0.49-2.132-6.153-4.675-2.631-.34-6,2.582-0.94-4.723,1.232-3.382-1.247-2.085,5.9-2.508,5.264,5.717,3.617,0.22,1.414-1.932,4.538-.067-0.953-2.2,5.83-2.32,1.557,1.833,0.239,5.026,3.775-.576,1.2,0.553-0.42,1.26-3.893,3.456-0.689,4.078,2.51,1.731,0.2,1.043,1.687,0.829,1.414,0.937,1.418,1.109,0.187,0.72-2.681,1.5-0.878,1.816-1.518-.613-0.854.572-0.189,1.477-3.03-.714-0.675,1.275-3.967-6.87-2.559-.551-2.154-1.22Z" transform="translate(-20.14 -38.731)" fill="#ff8080" stroke="#000"/><path d="M282.056,685.129l-2.267,4.632-2.473.154-6.369-10.1-3.055-8.856,1.214-2.212-0.37-2.67-3.346-2.1-12.153-.618-3.775,1.433-3.337-4.2-0.844-3.935-2.889-4.364,2.519-.428,2.682-4.39,3.612,3.3,2.486,0.638-1.456-5.048-2.728-2.862-1.079-5.074-1.348.075-6.268-5.074L238.148,633l-5.034-4.485-9.137-8.159,3.628-7.315,8.682,3.867,16.255-9.941,3.968-3.726,9.251,0.046,1.979-1.655,0.736,1.125,2.849-2.11,3.386-1.188,3.317,1.348,1.279,4.913,5.96,2.689,1.724,3.494-0.343,1.407,0.435,6.216,1.188,0.6,7.648-1.711,5.4,5.764,2.1,7.694,2.581,0.6,2.3-1.3-1.341,7.321-0.73,2.172,1.188,1.917,2.594,2.67,3.707-.16,7.246,3.425,6.343,4.678,3.942,0.677,0.919,5.143,1.011,0.883-3.955,6.53-7.648,1.622-3.507-1.737-0.658,2.594-6.186,6.651,0.582,3.749-3.726.958-2.287,3.072-7.4-1.521-1.387-3.157-4.351-1.462Z" transform="translate(-20.14 -38.731)" fill="#ffd1dc" stroke="#000"/><path d="M378.937,764.325l0.389-1.622-2.313-2.748-0.108-2.486,2.3-2.755,1.227,0.222,3.3-4.076-2.077-8.44,7.138-5.758,4.982,0.242,12.026,4.338,3.733,0.334,3.3-1.776,3.31,1.7,3.968,2.339,2.251-.9,3.487,0.141,2.588,2.319,9.889-1.682,2.889,5.911,4.007,5.221,3.17,2.244-0.517,5.738-6.307,2-10.292,5.705,0.913,2.1-6.147,2.372-1.119,7.144-0.677,9.955-1.139,4.338-7.18-3.346-6.516.945-2.709,2.856-0.645,3.867-1.6,2.12-9.552-4.652-4.135-5.264-1.7-2.064-0.576-5.257L386.2,784.3l-6.095,1.731-1.956,3.317,1.9-6.2-2.682-5.9,1.541-1.9L381.5,775l0.524-1.2-1.24-2.166Z" transform="translate(-20.14 -38.731)" fill="#06c" stroke="#000"/><path d="M366.735,678.024l-3.265,3.88-4.344,2.83-2.28-.8-7.426,1.174-5.385,3.31,1.161,10.1-4.685,5.934,1.227,2.064,3.739-.71,1.5,6.088,3.144,3.8,4.217,2.774,4.243-2.614,2.133,1.246,4.5,9.915-3.2,5.96,0.766,3.726,3.252,4.861,2.352,3.164,6.314-.236,4.433-2.385,2.519,0.321,7.138-5.758,4.982,0.242,12.026,4.338,3.733,0.327,3.3-1.77,3.31,1.7,3.968,2.346,2.251-.906,3.834-.932,1.943-3.425-0.5-3.9,4.3-4.973-2.627-4.4-1.361-9.291-1.8-3.592-0.926-.906-2.522.589-6.523-.18-2.192-1.387-3.036-2.14-4.92-.844-1.636-7.553-4.753-4.249-6.752,3.687-1.246-.35-2.889-2.588-5.241.236-9.271-8.849L384.4,680.36l1.181-8.237-1.462-.415-7.475-1.433-3.746.752-3.285-2.038-2.251.255-1.845,3.245,0.127,2.421,1.567,1.95Z" transform="translate(-20.14 -38.731)" fill="#7f7" stroke="#000"/><path d="M306.234,640.665l1.188,1.917,2.594,2.67,3.707-.16,7.246,3.419,6.343,4.685,3.942,0.67,0.919,5.143,1.011,0.887-3.955,6.53-7.648,1.622-3.507-1.737-0.658,2.594-6.186,6.651,0.582,3.749,4.907,4.806,0.173,2.575,2.385,2.794,0.7,4.982,2.728,5.578-3.808.013-1.1,3.726-5.074,1.112-0.772,5.129-1.963,1.688,1.724,3.788,2.084,4.1,5.934-2.522,5.3,5.758,3.634,0.222,1.433-1.95,4.564-.069-0.958-2.218,5.865-2.333,1.57,1.839,0.236,5.061,3.795-.582,6.543-2.522,2.62-1.816-4.217-2.774-3.15-3.8-1.5-6.088-3.733.71-1.227-2.064,4.678-5.934-1.158-10.1,5.385-3.31,7.426-1.174,2.28,0.8,4.344-2.83,3.258-3.873,0.484-1.158-1.57-1.956-0.127-2.421,0.743-1.292-2.231-.255-1.158-.8,0.033-.428-0.249-1.436-1.093-.7-0.8-1.694-0.53-.638-0.939-.357-0.939-.052-1.24,3.245-3.029,1.139,0.877-1.328-0.069-3.661,2.614-3.183,0.831,1.073,1.9-1.034-0.34-5.673,2.81,1.963v-1.622L367.13,645.3l-1.534-.759,0.088-3.091-1.361-.314-2.951,2.166-4.959.716L353,646.008l-4.927-.4-1.053,3.016-1.93-2.748-5.565-.736-1.354-2.267,0.563-1.891-5.777-5.679-1.986,1-1.688,1.91-3.533-1.3-3.265,2.005-7.776.7-7.756-1.119Z" transform="translate(-20.14 -38.731)" fill="#06c" stroke="#000"/><path d="M251.335,692.732L251.4,695.6l1.93,7.976-0.34,6.778,3.54,1.864,6.6-.51,1.845,4.913-0.87,2.493,0.857,7.547-0.249,6.32-3.788,5.074,2.339,1.246,10.658,0.026,3.6,1.034,4.933-.53,2.983-2.1,2.273,0.34,10.946,1.609,3.628-1.315,5.751-2.542,6.785-5.839-0.952-4.753,1.24-3.406-1.253-2.1-2.084-4.1-1.731-3.788,1.97-1.688,0.772-5.123,5.067-1.119,1.106-3.726,3.808-.013-2.728-5.578-0.7-4.976-2.388-2.8-0.167-2.575-4.907-4.806-3.726.958-2.287,3.072-7.406-1.521-1.361-3.091-4.377-1.488-10.5,7.93-2.378,4.639-2.627-.02-6.075-9.654-3.258-9.251,1.285-2.084-0.461-2.715-3.17-2.058-12.179-.618-3.873,1.374-3.252-3.981-0.864-3.89-2.928-4.586-2.172.134,0.474,10.72-3.566,5.476-1.112,3.89,1.22,7.956-0.69,2.774,1.315,2.018h9.526l2.251,1.341,1.508,2.28,0.052,1.91Z" transform="translate(-20.14 -38.731)" fill="#ff8080" stroke="#000"/><path d="M251.452,740.166l-5.022-1.577-5.552-4.721,2.44-4.6-2.62-1.027-4.625-8.466-3.451-5.094,3.9-2.319-1.5-1.567-3.1-.236-0.321,2.4-2.113-1.42-0.945-7.789-1.891-1.789-9.372-2.64-6.235,2.575-0.16,3.062-5.368,3.17-0.932-1.145,2.339-3.89,2.689-1.858-4.586.53L204,704.8l-3.164-5.31-1.214.294-1.9-4.312,0.108-4.671-2.767,1.7,7.272,14.908-3.278,2.9-10.2-9.739-1.662,2.46,9.9,8.6-1.443,1.073-3.559-1.97-1.207,2.427,4.613,1.649-0.766,5.29-4.913,1.011,9.163,2.542,4.613,4.855,8.676-7.75-0.154-3.54,1.348,3.726-15.9,14.908-1.034,4.21-2.722.033-3.3-5.892-0.887-9.412-21.666-16.269-5.411-7.789,4.135-11.4,4.063-5.457,2.313-1.4,7.871-.167,4.171,3.068,2.4-1.158,3.755,3.935,4.887-1.871,5.751-10.37,10.638-5.362,3.9-.831,7.635,9.6,2.319-1.508,1.655-8.486L232.89,668l-2.038-5.591,1.845-2.568,2.646,2.656,0.877-7.7-1.979-.958-2.588-3.86,2.928-5.257,2.876,3.975-0.02,5.136L239,652.25l1.3,0.262,0.3,10.691-3.513,5.558-1.125,3.9,1.26,7.979-0.759,2.6,1.5,2.192,9.405-.167,2.313,1.387,1.4,2.28,0.294,6.716,1.93,7.923-0.34,6.657,3.412,1.829,6.716-.478,1.852,4.913-0.877,2.493,0.864,7.547-0.249,6.32-3.788,5.074-1.943,1.864-3.814-1.22Z" transform="translate(-20.14 -38.731)" fill="#d00" stroke="#000"/><path d="M360.761,665.884l-0.53-.631-0.939-.357-0.939-.052-1.24,3.245-3.023,1.139,0.87-1.328-0.065-3.661,2.607-3.183,0.837,1.073,1.9-1.034-0.343-5.673,2.817,1.963-0.006-1.622,4.433-10.445-1.534-.759,0.082-3.091-1.354-.314-2.957,2.166-4.953.716L353,646.026l-4.92-.4-1.06,3.016-1.93-2.748-5.565-.736-1.348-2.267L338.735,641l-5.777-5.679,2.535-1.079,2.64-5.826-0.275-2.493,12.765,0.837-4.92-10.377,1.3-3.719-0.524-6.441,2.237-.883,2.319-5.578,9.062,4.933L372,609.48l11.793,3.225,5.375-.2,6.618-.857,9.265,1.266,4.7-2.869,4.881-2.251,4.377-5.169,4.433-3.1,2.7,0.262,8.12,0.837,7.187-9.968,4.383-3.1,5.228,0.932,3.232,2.244-0.222,3.9,1.5,3.654,6.844,2.944L460,604.5l-1.5,7.936-8.1-.2L436.2,616.314l-2.512,3.144-2.6-.34-5.483,12.16,2.427,9.029-0.569,1.214-8.522,3.431,3.451,4.083,6.216,0.491,4.171,2.728,2.83,1.93,2.28-.026-2.012,6.2-0.991,13-3.072,2.251-1.233,5.048,3.2,1.22,4.707,4.567L445.251,699l6.235,4.868,3.854,0.442,0.141,0.065-0.609,2.427-2.018,1.469-8.044,3.271-7.616-2.656-5.381.186-5.686,3.373-0.926-.906-2.522.582-6.516-.173-2.2-1.387-3.036-2.14-4.92-.844-1.636-7.553-4.753-4.249-6.752,3.68-1.24-.343-2.9-2.588-5.241.236-9.271-8.849,10.157-7.541,1.181-8.237-1.462-.415-7.475-1.433-3.746.752L369.591,669l-2.251.255-1.112,1.956L364,670.959l-1.158-.8,0.039-.428-1.341-2.14Z" transform="translate(-20.14 -38.731)" fill="#ff8080" stroke="#000"/><path d="M160.829,533.106l0.033-5.162-3.17-2.447-2.251-4.766-1.3.255,0.222-.8,4.766-2.529,3.6-4.056,0.985-2.921,9.611,1.7,10.4,2.071L195.9,515.8l7.38,3.566,6.013,5.368,5.3,0.343,2.365,0.919,10.887,5.65,6.068,7.334,1.711,2.254,8.365,6.274,2.12,3.252,2.018,5.257,1.534,6.468,11.826,6.778,9.205,5.143,4.171,2.293,13.2,6.657L302,578.749l2.555,0.127L309.705,580l6.2,1.57,8.038,1.381,2.951,2.817,4.946,4.024,7.462,3.687,4.887,2.689,6.844,3.572-2.319,5.578-2.244.883L347,612.636l-1.3,3.719,4.927,10.377-12.772-.837,0.275,2.493-2.634,5.826-4.531,2.077-1.688,1.917-3.533-1.3-3.265,2.005-7.776.7-7.756-1.125,1.341-7.315-2.3,1.3-2.581-.6-2.1-7.694-5.4-5.764-7.648,1.711-1.188-.6-0.435-6.216,0.343-1.407-1.724-3.494-5.96-2.689-1.279-4.913-3.317-1.348-3.386,1.188-2.849,2.11-0.73-1.125-1.986,1.655-9.251-.046-3.968,3.726L236.266,616.9l-8.682-3.867,3.782-8.46L231,591.369l-4.564-2.2-0.173,22.726-7.406-2.957-1.822-6.314-1.253-.5,1.5,5.215-5.189,1.112-4-.484-6.209-2.64-14.721-.589-6.35.428-2.358-.906-4.083-1.119-4.982-3.317-0.255-1.22-1.884-7.815,4.164-4.976,1.845-6.562-0.883-5.417,0.71-8.529-1.476-5.342-0.851-.864-3.988-7.315-0.864.766-4.177-1.694,2.185-4.652,0.455-3.834-1.963-6.107Z" transform="translate(-20.14 -38.731)" fill="#06c" stroke="#000"/><path d="M184.318,735.407l-11.636-3.834-12.261-.383-17.629,1.426-19.968-4.1-6.85-4.446-2.656-4.658,1.132-2.421,9.827-7.125-2.781-7.717-3.445-4.21-5.79-3.605-9.117-2.856L84.057,690.9,76.4,693.449l-6.785.543-6.477-2-40.905-2.915,0.37-7.95,2.153-4.907-0.4-1.285,1.75-1.682,13.635-4.946,7.688-5.094-3.258-7.158,2.6-4.237,0.991,2.14-1.757,1.871,0.442,1.227,4.191,3.049L55.1,657.6l1.433-1.97,5.149-.791,4.792-4.433,5.215-.108,1.783-3.317-2.12-1.577,5.143-4.116,6.523,0.51,3.337-2.313,3.707-5.578-0.16-2.62-2.084-1.694-5.041,1.9-2.64-.415-2.781-3.01-0.448-2.549,6.844-14.8,7.265-3.252L90.693,602.1l2.767-4.658,3.854-1.233,6.785-.193,3.648-1.724,6.059,2.938,5.342,0.932,5.4,3.955,6.664-.147,1.3-.409,0.033-1.361-3.513-7.328-0.563-5.4,4.4-12.683,6.589-10.262,0.736-9.559L137,546.13l6.6-5.82-1.42-2.012-5.054.167,1.011-2.372-1.433-3.6,4.155-2.627,1.24,0.121,0.321,1.207,1.521-2.146,7.151-3.406,4.371-4.94,2.254,4.766,3.164,2.454-0.026,5.162,1.6,3.17,1.97,6.107-0.455,3.834-2.185,4.652,4.177,1.694,0.864-.766,3.988,7.315,0.851,0.864,1.476,5.342-0.71,8.529,0.883,5.417-1.845,6.562-4.171,4.976,1.891,7.815,0.255,1.22,4.982,3.317,4.076,1.119,2.365,0.906,6.35-.428,14.721,0.589,6.209,2.64,4,0.484,5.189-1.112-1.5-5.215,1.246,0.5,1.829,6.314,7.406,2.957,0.167-22.726,4.567,2.2,0.357,13.2-3.775,8.46-3.628,7.315,9.137,8.159,5.034,4.485,2.663,0.415,6.268,5.074,1.341-.075,1.086,5.074,2.728,2.862,1.456,5.048-2.486-.631-3.612-3.3-2.682,4.39-2.519.428-2.1.236-1.3-.262-1.567,1.577,0.02-5.129-2.876-3.975-2.928,5.257,2.581,3.854,1.986,0.958-0.883,7.7-2.64-2.663-1.845,2.568,1.112,3.31,0.919,2.28-4.838,1.335-1.655,8.479-2.319,1.515-7.635-9.6-3.9.831L201.9,675.9l-5.751,10.377-4.887,1.871-3.762-3.935-2.395,1.158-4.171-3.068-7.871.167-2.313,1.4-4.063,5.457-4.142,11.4,5.411,7.789,21.666,16.269,0.893,9.412,3.3,5.892-2.722-.173Z" transform="translate(-20.14 -38.731)" fill="#ff8080" stroke="#000"/><text transform="translate(154.193 543.993)" font-size="48" font-family="DejaVu Sans" font-weight="700">15</text><text transform="translate(91.86 630.258)" font-size="48" font-family="DejaVu Sans" font-weight="700">16</text><text transform="translate(243.193 623.591)" font-size="48" font-family="DejaVu Sans" font-weight="700">8</text><text transform="translate(343.527 630.258)" font-size="48" font-family="DejaVu Sans" font-weight="700">14</text><text transform="translate(343.527 695.456)" font-size="34.774" font-family="DejaVu Sans" font-weight="700">10</text><text transform="translate(373.85 739.312)" font-size="34.774" font-family="DejaVu Sans" font-weight="700">9</text><text transform="translate(329.196 742.805)" font-size="21.175" font-family="DejaVu Sans" font-weight="700">6</text><text transform="translate(315.196 743.285)" font-size="8.571" font-family="DejaVu Sans" font-weight="700">2</text><text transform="translate(341.633 722.93)" font-size="21.175" font-family="DejaVu Sans" font-weight="700">1</text><text transform="translate(318.384 712.097)" font-size="8.571" font-family="DejaVu Sans" font-weight="700">4</text><text transform="translate(325.668 713.053)" font-size="5.876" font-family="DejaVu Sans" font-weight="700">5</text><text transform="translate(328.852 701.36)" font-size="21.175" font-family="DejaVu Sans" font-weight="700">3</text><text transform="translate(311.121 696.371)" font-size="16.044" font-family="DejaVu Sans" font-weight="700">7</text><text transform="translate(307.37 641.61)" font-size="21.175" font-family="DejaVu Sans" font-weight="700">11</text><text transform="translate(244.799 681.362)" font-size="37.615" font-family="DejaVu Sans" font-weight="700">12</text><text transform="translate(188.049 657.68)" font-size="21.016" font-family="DejaVu Sans" font-weight="700">13</text><path d="M494.534,824.914l0.638-3.9-2.794-2.689-2.519.736-1.822,1.93-5.028-.484,0.121-1.567,2.614-2.126,2.594-.736-1.374-.651,1.266-1.95,2.921,0.327-0.893-1.642,1.067-.35,0.088-1.488-0.677-.474,1.5-2.594,2.627-.51,3.3-.422,2.313,0.6,1.341,0.569,3.4-.759,2.627,1.57,0.87,5.048,1.924,3.278-0.7,1.112-1.4,6.435Z" transform="translate(-20.14 -38.731)" fill="#06c" stroke="#000"/><path d="M458.977,804.18l1.5-3.674,7.711-4.5,5.82-7.092-1.75-6.356,3.029-2.244,2.48,3.124,6.67,0.167,6.461-1.668,6.651,0.51-2.876-5.522,5.228-3.3,6.173-.314-0.013-2.646,4.58-2.414,2.244-3.2,2.212,1.433,3.929,0.34-0.18,2.473,2.077,2.755-1.534,4.645,4.665,4.158,5.911,1.839,1.021,3.733,1.979,1.655,2.522-.327,4.973,1.5,0.7,3.8-1.2,3.749-2.2,4.74-2.9,2.656-3.693,3.043-4.766.615-4.94-2.058-2.486,6.248-9.055,5.666,0.71-1.112-1.93-3.278-0.87-5.041-2.62-1.577-3.4.766-1.348-.569-2.313-.6-3.3.415-2.627.51-1.5,2.594,0.684,0.478-0.1,1.482-1.053.3,0.893,1.694-2.931-.321-1.266,1.95,1.374,0.651-2.594.736-2.614,2.126-0.121,1.567-0.474-.376-10.128-1.655-7.285.415,0.824-7.717-2.306-2.889-0.442-3.847Z" transform="translate(-20.14 -38.731)" fill="#06c" stroke="#000"/><path d="M546.071,778.042l-2.352,3.17-0.409,5.316-2.862,2.761,0.716,3.782-1.227,3.782-2.14,4.7-2.964,2.656-3.68,3.068-4.707.615-5-2.045-2.454,6.235-9.1,5.623-1.328,6.441,3.886,0.618,3.886,0.716,4.089,2.862,0.716,1.125-1.731,3.373,0.307,1.328,3.68,1.018,5.215-.615L537,831.509l7.668,1.227,4.6,2.454,1.731,10.429-2.045,3.373-6.441.1-2.146,1.433L542.2,853.8l4.6-2.352,1.021,0.919,3.782-.716,3.068,2.454L556,854.3l3.782-1.328,0.409-1.021-3.373-2.146L556,844.594l1.433-9.3,2.656-6.134,4.4-5.008,5.826-3.373,9.2,0.919,10.429-3.068,3.782-6.952,1.835-15.846,7.769-1.636,1.021-.919,0.2-4.089-4.6-2.454-5.215,1.534-10.429-1.125-2.964-4.4-9.814,3.886-11.859.919-7.871-1.636,1.737-1.839-0.919-2.352-1.737-1.839ZM654.741,844.7l-0.615.1-4.5,1.534-2.656.307-0.615.1-1.227.818-0.51.409-1.433,2.251-0.307.615-1.227,3.072-5.008,1.534-1.636,2.045,0.2,1.328L634.8,861.36l1.227,1.436,2.045-1.534,1.737-2.862,3.072,0.818,2.352-.919,0.615-1.227,0.2-1.943,1.737-2.045,1.731-3.68,1.132-.723,3.366-.307,1.737-.919,0.307-.615-0.2-.615L655.35,845Zm-73.1,10.524-0.615.2-1.534,4.5-1.021.818-3.271-.615-1.125,2.352-1.534,1.227-2.656.409-5.417-2.454-1.943.51-0.51.409-1.943,1.839-0.307.51,0.51,0.2,7.361,3.072,1.021,0.913,0.307,1.95,0.51,0.5,2.656-.409,1.943-2.549,3.68-1.227,2.862-1.636,2.555-.314,0.5-.409,0.618-1.943-1.125-5.107-0.919-.919Zm46.106,2.663-4.4,1.835-1.943.2-0.615.307-0.314,1.227-3.068,2.656,0.615,1.737,3.994-.307,2.761,1.943,2.251-1.227,3.579-4.806,0.2-1.227-1.636.2-0.307-1.95-0.51-.5Z" transform="translate(-20.14 -38.731)" fill="#06c" stroke="#000"/><path d="M552.593,747.258l0.4-3.949-1.106-5.182,1.309-6.441-0.376-3.854,2.549-.543,5.143-3.782,2.561-.229,0.772-3.353-5.784-2.058,3.271-6.651-0.716-2.48,0.321-2.326,2.11-1.132,2.568-7.56,1.93-1.858,1.266-.409,1.079-2.414,9.8-3.847-6.582-4.358-0.435-6.461,1.22-2.378,3.144,2.254,2.575,0.2,0.461,2.555,1.086,0.723L582.428,682l1.956-1.682,4.734,1.534,5.048,0.026,0.985-.857-0.121-3.579,3.68-3.507,1.763-4.838,4.564-1.937,10.429,1.655,2.251-1.348,5.45,3.762,3.867,0.811,0.582-1.2,6.468,4.344,0.919-.2,4.678-1.924-0.121,2.522,2.091,1.488,13.654,3.337,4.2,1.04,1.864,4.989,0.121,6.6,2.493,2.938-1.322,9.2,1.047,5.149,1.8,1.106-0.154,1.737,3.641,1.266,6.065-2.1,0.772-1.034-1.839-3.379,3.4-3.821,3.023,2.581,7.187,3.392,2.81,2.849,4.76,6.441,1.145,3.828,2.493,3.049-0.638,6.549,5.892,1.891-3.726,3.693-0.8,3.916,0.651,2.588-9.853,3.285L686.97,751.9l-9.84,6.376,0.376,3.821-0.5.932,2.568,1.75,8.192-1.2,5.686-3.164,5.859,2.928,1.521-3.559,2.287-.67,4.786,4.524-1.95,4.92-3.124,2.454-3.471,1.341-0.8,6.575,0.779,5.221,3.6,3.821-0.088,1.328-5.107,1.067-4.2,3.176-0.952,5.116,1.561,2.14-3.54-1.407-3.612,3.821-2.14-1.42-3.17-5.807-2.058-1.622-9.1-1.583-2.607.536-4.158,3.232-0.442,4.946-3.873.716-7.717,5.028-1.079-.749-6.87-1.5L639,806.564l-2.113,2.983-3.15-2.179L622.2,809.835l-2.921,2.614-2.555.609-1.168,3.762-0.978,3.628,0.363,4.007,1.348,2.293-0.716,3.86L605.036,829.5l-3.661-5.463-6.589-.638-0.818-1.067,0.065-1.233-4.089-2.46,3.828-7,1.8-15.814,7.8-1.682,0.991-.926,0.242-4.03-4.645-2.434-5.175,1.482-10.491-1.145-2.957-4.39-0.268-8.057,1.979-3.412,0.282-3.935-0.216-3.36-1.469-4.973-3.788-3.425-3.091-7.112-1.845-1.839,0.236-3.7-2.44-.791-10.478,1.7-2.11,3.346-2.46.883Z" transform="translate(-20.14 -38.731)" fill="#06c" stroke="#000"/><path d="M730.365,656.982l-1.266-1.845-3.821-.791-4.128-2.715-3.213,2.212-9.065.474-7.809-1.053-7.073,3.445-0.6,3.386-1,.615-3.494-1.845-7.877-.818-2.787,4.331-2.352.275-1.047,2.365,3.3,5.718,0.448,6.461-9.111,1.161-10,3.131,1.871,4.989,0.115,6.6,2.5,2.938-1.328,9.2,1.053,5.149,1.789,1.106-0.154,1.737,3.641,1.266,6.065-2.11,0.779-1.027-1.845-3.379,3.4-3.821,3.029,2.581,7.18,3.392,2.81,2.849,4.766,6.441,1.145,3.828,2.486,3.049-0.631,6.549,5.885,1.891,8.8-1.878,1.168-4.76-0.978-3.733,4.518-7.724-0.461-2.512,1.724-4.953,3.183-4.177,4.707-2.237,6.7,5.96,11.054-3.31,2.561,0.461,4.855,1.718,1.443-2.146,0.236-5.241,1.233-.468,3.157,2.251,3.909-.563,2.212-4.429,6.468-4.492,0.913-7.956,2.542-3.068-5.028-1.132-0.932-3.693-2.326-.926-5.476-2.862,3.055-7.436-0.193-1.335-4.282-2.7-4.479.216-2.99-2.378-2.614.147-6.235-6.556L735.7,649.3l-2.549,6.611-2.287-.075Z" transform="translate(-20.14 -38.731)" fill="#06c" stroke="#000"/><path d="M455.117,802.832l-5.637,1.449-0.563-.229-5.552-2.005-1.207.186-0.556,2.218-2.8,1.976-0.664,6.32-1.937-3.431-6.409.167-3.213-4.158L426.524,804l2.575-3.016-0.288-2.594-1.829-1.871-3.886-.059,1.139-4.331,0.677-9.955,1.119-7.151,6.147-2.365-0.913-2.1,10.292-5.705,6.307-2,0.517-5.738-3.17-2.251-4.007-5.221-2.889-5.911-9.889,1.688-2.588-2.326-3.487-.141,3.834-.932,1.943-3.425-0.5-3.9,4.3-4.973-2.627-4.4-1.361-9.291-1.8-3.592,5.686-3.373,5.381-.186,7.616,2.656,8.044-3.271,2.012-1.469,0.615-2.427-0.141-.065-3.854-.442-6.235-4.868-6.772-12.562-4.707-4.567-3.2-1.22,1.233-5.048,3.072-2.251,0.991-13,2.012-6.2,2.333-.991,5.813,2.781,5.048,0.932,3.049,2.333,8.836-2.077,3.451-1.822,3.533,2.058,3.481,9.749-0.236,7.822,3.713,3.471,8.895-.052,4.652-2.244,3.15,1.348-1.279,5.11,0.435,2.575-2.251,7.527,13.717,3.52,6.772,3.935,0.069-5.424,2.588-9.124,4.243,2.663,7.622,1.816,5.175-1,2.454-2.9,3.507,1.8,6.327,1.174,3.451-1.554,2.983,6.883,2.48-.893,1.992,1.577,11.7-1.011,1.937,1.718-1.93,1.852-2.568,7.563-2.11,1.125-0.321,2.326,0.716,2.48-3.271,6.651,5.784,2.058-0.772,3.36-2.561.229-5.143,3.775-2.549.543,0.376,3.854-1.309,6.441,1.106,5.189-0.4,3.942,3.055,0.8,2.46-.883,2.1-3.346,10.478-1.7,2.44,0.791-0.229,3.7,1.845,1.839,3.085,7.112,3.795,3.425,1.462,4.973,0.222,3.36-0.288,3.935-1.976,3.412,0.262,8.057-9.808,3.935-11.793.87-7.9-1.616,1.724-1.822-0.877-2.395-1.809-1.852-4.838-1.8-2.346,3.189-0.4,5.316-2.817,2.715-4.973-1.5-2.519.327-1.986-1.655-1.018-3.733-5.918-1.839-4.665-4.158,1.534-4.645-2.077-2.755,0.18-2.473-3.922-.334-2.212-1.436-2.251,3.206-4.58,2.408,0.02,2.646-6.18.314-5.228,3.3,2.876,5.522-6.651-.51-6.454,1.668-6.677-.167-2.48-3.124-3.029,2.244,1.75,6.356-5.82,7.092-7.711,4.5-1.5,3.674Z" transform="translate(-20.14 -38.731)" fill="#06c" stroke="#000"/><path d="M445.048,814.737l-0.684-1.073-6.235-.926,0.67-6.32,2.8-1.976,0.556-2.218,1.207-.186,5.552,2.005,0.563,0.229,5.637-1.449,3.867,1.348,4.23,0.249,0.442,3.847,2.306,2.889-0.824,7.717,7.285-.415,10.122,1.655-0.065,4.959,6.075,1.57,0.35,1.246-3.474,5.381,2.2,1.413,3.2-1.95,3.513,1.273,2.395-1.04,2.388,1,0.887,0.985,0.448,1.246-0.229,1.3-0.945.913-3.84-.779-5.028,1.57-2.882-2.421-1.943-1.662-2.535.491-4.076,3.366-3.4,7.105-3.713-.134-1.018.851-3.782-1.073-4.237-4.953-4.721-2.372-0.536-1.207,2.519-3.023,1.426-5.107-0.589-2.555,1.341-2.28-1.515-3.579-3.749.69-6.314-1.1,2.414-5.865-2.627-2.6Z" transform="translate(-20.14 -38.731)" fill="#06c" stroke="#000"/><path d="M576.687,558.587l-3.755.837-6.2,8.286-1.174,4.056-4.184,5.336-7.93,5.443-3.33.314-4.94-3.445-4.331,6.2-1.387.249,0.422,1.22-1.622,3.52-4.331,4.5-2.293.3-1.561,1.57-1.387.906-4.714,1.924,1.161,5.041-4.74,4.351-2.931-2.722L515.5,601.51l-4.564-2.741-0.9-7.334-2.581-.16-2.67-2.977-3.834.422-2.172-1.534-1.24-2.287,0.6-2.607-0.972-3.89-3.431-1.59-0.065-1.335-0.837-.609-4.907,1.835-0.517,6.644-4.037,3.52-3.795,1.3-5.349-.075-1.864,1.93L470.7,583.6l-3.118-4.276-14.037-3.739-6.677,10.1-1.021,1.845,5.228,0.932,3.232,2.244-0.222,3.9,1.5,3.654,6.844,2.944-2.408,3.265-1.5,7.936-8.1-.2-14.217,4.076-2.512,3.15-2.6-.34-5.483,12.16,2.421,9.023-0.563,1.214-8.522,3.431L422.4,649l6.216,0.5,4.171,2.728,2.83,1.93,2.28-.026,2.333-.991,5.813,2.781,5.048,0.932,3.049,2.326,8.836-2.071,3.451-1.822,3.533,2.058,3.481,9.745-0.236,7.822,3.713,3.474,8.895-.052,4.652-2.244,3.15,1.348-1.279,5.107,0.435,2.575-2.251,7.534,13.717,3.513,6.772,3.942,0.069-5.424,2.588-9.124,4.243,2.656,7.622,1.822,5.175-1.011,2.454-2.889,3.507,1.8,6.327,1.181,3.451-1.561,2.983,6.886,2.48-.9,1.992,1.583,11.7-1.011,1.937,1.711,1.266-.409L569.887,693l9.8-3.847-6.582-4.358-0.435-6.461,1.22-2.378,3.144,2.254,2.575,0.2,0.461,2.555,1.086,0.723,1.273,0.275,1.956-1.682,4.734,1.534,5.048,0.026,0.985-.857-0.121-3.579,3.68-3.507,1.763-4.838,4.564-1.937,10.429,1.655,2.251-1.348,5.45,3.762,3.867,0.811,0.582-1.2,6.468,4.344,0.919-.2,4.678-1.924-0.121,2.522,2.091,1.488,13.654,3.337,4.2,1.04,9.994-3.131,9.117-1.158-0.448-6.468-3.31-5.718,1.047-2.365,2.352-.275,2.794-4.331,7.877,0.818,3.487,1.845,1-.615,0.6-3.386,7.073-3.445,7.8,1.053,9.071-.474,3.213-2.212,4.128,2.715,3.814,0.791,1.273,1.845,0.5-1.145,2.287,0.069,2.549-6.611,6.785,3.507,6.235,6.562,2.614-.154,2.99,2.385,4.479-.222,2.218-7.429,4.135-4.773,1.3,0.046,0.334-2.607-2.091-4.691,3.245-5.826-4.868-4.874-2.99,1.737-5.27.517-2.212-1.233-1.021.752-4.024-2.843-0.831-2.091-3.072-1.521-3.068-2.5-3.814.517-2.817-5.771-4.083-6.242-2.519-.343-1.354-2.071,0.651-6.589,1.018-2.519,2.11-1.649-2.372-10.069-2.48-3.01-0.87-3.854-11.6-.958-0.236-2.575-1.924-1.809-4.868-2-1.309-.249-6.965,3.412-1.053-5.385-3.271-2.11,0.887-3.481-2.012-1.436-0.389-3.078-2.352-1.06-1.233-4.907-10.177-.34-1.6,2.767-7.534,5.666-2.225,3.023-1.266-.059,0.932-2.542-1-3.922L664.09,560.2l-5.022-4.446-9.212,5.656-4.8-2.005-3.654,1.682-5.015-1.776-1.018,2.261-5.368.7-0.851,10.7-8.132,10.707-1.285-1.9-2.077-1.26-4.707,2.358-7.033-3.739-4.564-4.842-12.523-7.6-2.964-7.341-2.084-1.534Z" transform="translate(-20.14 -38.731)" fill="#06c" stroke="#000"/><text transform="translate(475.991 782.964)" font-size="15.256" font-family="DejaVu Sans" font-weight="700">1</text><text transform="translate(443.61 803.929)" font-size="25.338" font-family="DejaVu Sans" font-weight="700">7</text><text transform="translate(476.678 764.164)" font-size="25.338" font-family="DejaVu Sans" font-weight="700">2</text><text transform="translate(516.36 791.878)" font-size="48" font-family="DejaVu Sans" font-weight="700">3</text><text transform="translate(589.36 713.159)" font-size="48" font-family="DejaVu Sans" font-weight="700">4</text><text transform="translate(454.86 714.159)" font-size="48" font-family="DejaVu Sans" font-weight="700">6</text><text transform="translate(668.86 666.297)" font-size="48" font-family="DejaVu Sans" font-weight="700">5</text><text transform="translate(543.36 604.159)" font-size="48" font-family="DejaVu Sans" font-weight="700">8</text><path d="M209.288,524.725l-6.013-5.368-7.38-3.559-12.186-1.348-10.4-2.071-9.611-1.7,2.9-2.856,7.737-2.6,4.089-5.431,6.222-4.792-1.168-5.116,0.779-3.9,7.776,0.8,1.227-3.739,1.731,2.506,3.661-.209,5.463,2.983L204,499.6l9.471-.435,1.515,0.785-1.125,13.91,3.176,2.018-1.021,2.051-2.493,2.594,1.053,4.557Z" transform="translate(-20.14 -38.731)" fill="#ff8080" stroke="#000"/><path d="M310.674,537.751l-0.791,3.533-3.131,1.9-2.378.075-5.8-5.686-2.627-.67-7.3-1.541-3.055-.818-3-.831-0.71-13.327,0.811-9.265-0.383-3.994-1.737-3.471,0.121-2.99-7.992-2.326-2.542-.186-1.858-1.731-5.1.033-2.8,2.166-3.1-3.131-1.9-.409-1.757,3.406-5.116,4.1-5.228-.468-4.959-.37-2.6-5.771-6.075-2.237-4.819-1.682-2.2-.926-2.627,2.166-3.494.53-4.184,2.97,1.145,2.346L215,499.931l-1.119,13.91,3.17,2.012-1.018,2.058-2.5,2.594,1.06,4.557,2.365,0.919,10.887,5.643,6.068,7.341,1.7,2.254,8.365,6.274,2.12,3.252L248.129,556l1.534,6.461,11.826,6.785,9.205,5.143,4.171,2.293,13.2,6.657L302,578.734l2.549,0.127,5.156,1.119,6.2,1.57,8.044,1.381,2.951,2.817,4.94,4.024,7.462,3.687,4.887,2.689,6.844,3.572,9.062,4.927L362.48,593.3l3.15-1.943-3.3-5.643-2.588.37-1.976-1.655-2.512-.082-1.436-.37,2.077-3.285,5.6-3.353,6.255-.556,0.625-6.971-1.227-5.27,0.864-5.336-2.656-6.2-2.293.913-2.964-2.231-6.625-8.237-3.949.906-0.857-3.481-5.277.563-3.648-1.42-3.572,1.079-0.409,1.273-4.007-8.237-2.346-.684-4.766,1.822-1.976-1.6,2.287-1.273-2.159-5.764-3.225,4.184,0.2,3.922-2.653.249Z" transform="translate(-20.14 -38.731)" fill="#06c" stroke="#000"/><path d="M190.1,468.288l-4.318-3.016-2.408-3.219-3.86.759,3.3,3.15,1.636,2.218,1.852,6.589,4.056,0.6,2.045,1.688,0.242,4.128,0.618,1.864,1.724,2.506,3.661-.209,5.463,2.983-0.108,11.27,9.464-.435-1.145-2.339,4.177-2.97,3.5-.53,2.62-2.172,2.2,0.926,4.825,1.688,6.075,2.237,2.594,5.764,4.966,0.376,5.228,0.468,5.116-4.109,1.757-3.406,1.891,0.415,3.1,3.124,2.8-2.159,5.1-.039,1.858,1.737,2.535,0.186,8,2.326,1.194-.5,2.427-1.067,6.448,1.443,0.209-2.6,2.921-4.4,0.985-3.775,3.54-1.809-2.735-2.722-6.549-1.561-2.179-3.34-2.2,1.168-3.533-1.763-5.525-7.02-2.6.069,1.917-3.445,6.268-1.577,2.607,0.357,4.155-.919-1.924-3.412-3.2-2.251-2.326-4.727,2.212-6.121-2.267-3.2-2.179.939-6.019-.121-3.474,1.119-4.262,1.214-5.6,3.412,1.374,3.739-2.836.186-3.916,1.3-2.957.2-2.293.651-5.215,4.116-2.646-6.013-4.433,1-2.159-4.492-3.494,1.387-10.154,4.312L219.183,454l-1.515-1.986-5-10.72-10.939-3.834-0.108-1.341-1.3-.294-7.308,5.656-1.266,2.352-0.088,6.644,7.027,8.46-0.69,8.5Z" transform="translate(-20.14 -38.731)" fill="silver" stroke="#000"/><path d="M228.033,314.534l-3.068,3.988-2.045-.1-1.839,1.943-7.462,2.761-2.352,4.907,0.51,2.761-1.328,5.316-3.886,2.555-0.1,1.227-6.441,7.668,2.656-.1,4.5,2.862-3.68,4.907,2.352,4.5-0.307,3.782,9-1.839,16.154,4.5,1.943,1.737,1.433-7.769,1.436-2.146,4.5-2.862-1.227-3.17,3.471-4.089,1.021-6.543,7.769-1.433,4.806-4.5,0.1-2.656-6.441.409-4.089-3.373-3.988-.716-1.433-5.008,1.227-.615,0.307-3.474-3.579,1.636-4.806-4.4-2.555-.2-1.227-2.254Zm-88.938,38.942,0.716,13.6-0.2,1.436-0.913,8.077,0.716,4.4,7.158,9.3-1.227,6.441,0.2,1.433,2.251,1.227,5.008-1.737,2.454,1.021,0.51,2.555L153.93,404.8l1.227,2.352,3.579,1.436-0.307,3.886-1.021.716,0.307,3.886-0.1,1.328,0.409,3.988-0.1,4.5-3.68,12.575,3.271,5.215,0.818,3.585,1.018,2.352,1.227,0.409,5.725-3.373,2.656-.307,0.615,3.68,0.818,1.328,6.644,4.089,0.1,3.68,2.352,2.653,3.886-.716,2.454,3.271,4.292,2.964,7.871-.919,0.716-8.486-7.053-8.381,0.1-6.644,1.227-2.352,7.361-5.725,1.328,0.307,0.1,1.328,10.939,3.89,5.11-7.361,4.6-2.555,0.51-7.769,4.184,2.761,5.008,6.543,1.943,9.507,1.227-2.454,5.316-.1,1.95-3.271,1.227-.51,1.322,0.1,2.862,2.656,7.871,1.322-2.045-4.593,0.409-3.68,1.839-1.737,3.782-.1,2.045,1.021,6.34-4.089h4.907l1.839,1.835,0.919-1.227,0.307-2.555,3.474-4.184,4.6-2.454,21.359-4.089,7.979-.1,1.328-.2,6.85,4.089,5.215,1.433h0.1l7.871-.2,4.289,2.146,3.579-.2,0.919-9.31-1.433-5.107,0.51-2.555,0.409-.818-2.251-1.534L335.16,398.7l-5.522,3.579-4.907-1.737h-4.089v1.328l-6.343-5.623-6.742-3.988-2.146-.409-2.254.095L302.44,398.8l-8.178-.51-9.2-2.454L282.92,394.1l-4.907-3.886,0.51-1.132,2.653-2.862-0.307-7.769-3.579-1.322,0.716-5.008,4.292-2.964,1.227-3.579,0.818-3.68-1.125-2.254-0.716-.307-3.68,1.839-1.021,3.68-11.041,7.769-6.441-1.328h-2.761l-4.5-9.405-8.587,3.988L241,368.132l-4.089,2.352-3.579.2-4.907,2.454-8.077,3.994-2.761,2.653-9.915,1.436,1.125-2.254-5.826,1.021-6.441,6.134-8.895,6.746-3.271-1.534-0.307-3.68,0.1-6.235-2.454-4.4,0.2-3.271V363.627l-2.454-.51-4.089-4.806H172.8l-2.454-2.964-11.551-.618-2.251,1.021-0.1,1.328h-9.2Z" transform="translate(-20.14 -38.731)" fill="#404040" stroke="#000"/><path d="M329.415,533.489l-4.766,1.822-1.979-1.6,2.293-1.273-2.166-5.764-3.219,4.191,0.2,3.922-2.646.242-6.448,2.722-0.8,3.527-3.131,1.9-2.378.069-5.8-5.679-2.627-.67-7.3-1.547-3.055-.811-3-.837-0.71-13.327,0.811-9.265-0.383-3.988-1.731-3.474,0.115-2.983,1.194-.5,2.427-1.067,6.448,1.443,0.209-2.6,2.921-4.4,0.985-3.775,3.54-1.809-2.735-2.722-6.549-1.561-2.179-3.34-2.2,1.168-3.533-1.763-5.522-7.02-2.607.069L275,469.341l6.274-1.577,2.607,0.357,4.148-.919-1.924-3.412-3.189-2.251-2.333-4.727,2.218-6.121-2.273-3.2-2.179.939-6.019-.121-3.471,1.119-4.269,1.214-5.6,3.412,1.374,3.739-2.836.186-3.916,1.3-2.957.2-2.293.651-5.215,4.116-2.646-6.013-4.433,1-2.159-4.492-3.487,1.387-10.157,4.312-1.067-6.477-1.515-1.986-5-10.72,5.149-7.347,4.564-2.549,0.543-7.8,4.155,2.8,5,6.477,1.976,9.513,1.207-2.395,5.322-.154,1.979-3.206,1.246-.5,1.348,0.039,2.767,2.722,7.9,1.315-2.071-4.586,0.5-3.707,1.757-1.743,3.867-.115,2,1.06,6.35-4.135L273.134,427l1.789,1.839,1.011-1.292,0.229-2.561,3.471-4.128,4.665-2.467,21.3-4.142,8.031-.052,1.315-.255,6.857,4.158,5.169,1.42,0.141,0.033,7.835-.229,4.364,2.1,3.553-.2,3.808,1.152,5.25-.9,3.258,2.133,2.28-1.2,0.73,5.208,2.555,0.8,0.543,4.9,1.443,1.884,12.254,1.361-0.173,16.5,1.246,3.739,4.024,0.006,7.635-2.506-0.474,17.584-6.477,11.77-1.783,7.979-1.443,6.006,1.3,4.792,4.707-.236,4.282,2.689,6.294-1.387,4.383,10.318,6.448-.069-4.524,11.136-4.881,9.15-3.176,2.333-3.52,3.661-1.079,11.7,1.7,0.075,3.585-1.279,2.2-3.3,7.694,0.831,7.865-1.42,1.021,0.864,4.325,0.952,2.1,0.383,1.488,3.615,4.083,3.219,2.728,6.9,2.977,2.012,2.876,1.757,2.28-.569,0.752,9.317,8.823,5.947,2.594,4.645-1.021,1.845-4.383,3.1-7.187,9.968-8.12-.844-2.7-.255-4.433,3.1-4.377,5.169L409.764,610l-4.7,2.869-9.265-1.266-6.618.857-5.375.2-11.793-3.225-11.9-4.792L362.49,593.3l3.157-1.937-3.3-5.65-2.581.37-1.976-1.655-2.519-.082-1.433-.363,2.071-3.291,5.61-3.346,6.248-.563,0.631-6.965-1.233-5.277,0.864-5.336-2.653-6.2-2.3.913-2.964-2.225-6.625-8.244-3.949.913-0.857-3.481-5.277.556-3.648-1.42-3.572,1.079-0.409,1.279-4.007-8.244Z" transform="translate(-20.14 -38.731)" fill="#06c" stroke="#000"/><text transform="translate(201.86 381.659)" font-size="48" font-family="DejaVu Sans" font-weight="700">4</text><text transform="translate(212.546 457.203)" font-size="41.07" font-family="DejaVu Sans" font-weight="700">3</text><text transform="translate(164.193 473.293)" font-size="28.297" font-family="DejaVu Sans" font-weight="700">1</text><text transform="translate(228.193 506.159)" font-size="48" font-family="DejaVu Sans" font-weight="700">2</text><text transform="translate(307.37 458.993)" font-size="48" font-family="DejaVu Sans" font-weight="700">5</text><path d="M758.818,266.965l7.969-2.113,2.889-4.511,3.438-2.25,2.237-10.714,4.282-6.824,3.661-1.315-3.726-5.826-1.515-6.637-2.339,1.04-6.863-2.99-2.126,1.328-1.7,3.612-5.342,6.186-6.543,1.335-1.776,5.093-2.012,1.839-6.7.824-3.34,2.365-2.519-.877-1.629,3.733-3.854.615-3.069,2.748-0.02,4.024-3.707,1.763-4.805,6.637-9.31,5.692-6.8-.716,0.671,3.834-4.037,12.228-4.135,2.254-3.324,3.494-2.607,15.055-8.12-.4-3.955.926-0.906-.173-2.574-.8-5.247.8-6.222-2.293-3.707,1.482-2.594-.742-3.755.216-4.806-1.8-3.769.645-2.529-4.665-3.854-1.067-1.845-1.969L630,299.217l-1.829-1.865L627.9,294.8l-2.656-5.329-3.451-1.757-4.433-4.567-2.352-4.564-1.285-.222-2.709,2.81-3.566,1.57-0.67.543,3.88,3.873-1.7,7.864-0.723,3.54-2.267.749-0.658,2.12-3.86-1.161-4.23-3.252-1.266-2.395L590,297.833l-2.755,2.735-7.969.749-0.209.344,2.09,5.892,1.7,1.783,4.479,12.045-4.953,9.526-4.848,2.352-4.5-8.447-3.111-4.511-4.164-3.546-3.049-6.019-3.219,2.005-1.7-2.99-0.173-7.73-6.631-2.408-2.231-.448-2.346-2.454-1.567.02-2.045,1.335-3.055-2.045-2.415-.02-1.616,3.163,1.407,1.979-2.133,7.475-0.844.971-4.158-2.7-6.608,4.914-2.152,1.649-1.515,5.241-7.553,2.908-4.043,1.75-1.694,1.482-5,3.252-3.386,8.7-1.086,4.966-3.176,4-2.434,4.357-1.207.4-2.568.095,0.02,3.962-1.858,3.379,3.036,2.473,3.612-1.266,1.158,0.677-0.442,4.256,0.255,1.213,0.356,2.473L490.29,369.6l0.752,2.555-0.618,5.123,2.588,0.6,0.409,1.272-1.145,2.385,0.334,3.546-2.663-.428-8.931-8.4-1.407-2.319,0.115-5.381-7.354-3.762L468.778,366l-0.065,2.574-3.585,5.611,1.034,5.143,1.24,1.515,7.815,5.4,0.7,3.988,2.113,1.718,0.906,2.522,2.091,4.76,8.875,2.781-0.615,5.107-2.67.288-11.469-1.675-7.871-2.038-5.522-4.007-5.277-.428-4.351,2.44-6.039-1.649-4.318,3.131-6.7,1.259-4.72,2.542-1.547,2.2-4.551-2.006-0.785.926-6.013-.2-2.14,7.387,0.543,1.194,10.256,1.534-1.145,6.745-9.3-.978-3.893-.725,2.126-6.081-2.512-3.03-3.566-1.757-2.12-4.691-2.018-.308-2.166,1.554-4.05-.321-1.079.824-3.183,5.928,4.557,4.773,0.121,1.328-3,2.529-5.309-.4v0.16l-2.549,6.193-8.639,3.612-0.965,2.395-2.453.792-0.18,16.5,1.246,3.732,4.031,0.006,7.635-2.5-0.478,17.577-6.474,11.771-1.79,7.979-1.436,6.013,1.3,4.786,4.707-.236,4.276,2.689,6.3-1.387,4.384,10.324,6.448-.069-4.531,11.129-4.874,9.156-3.176,2.326-3.526,3.667-1.073,11.7,1.7,0.069,3.579-1.279,2.2-3.3,7.694,0.831,7.871-1.413,1.021,0.864,4.318,0.945,2.1,0.383,1.488,3.615,4.083,3.219,2.728,6.9,2.97,2.018,2.882,1.757,2.28-.569,0.752,9.317,8.823,5.941,2.594,4.652,6.677-10.1,14.049,3.752,3.118,4.276,1.675,6.422,1.858-1.93,5.349,0.069,3.795-1.292,4.037-3.52,0.517-6.65,4.907-1.829,0.837,0.609,0.065,1.334,3.431,1.59,0.972,3.889-0.6,2.6,1.24,2.293,2.172,1.534,3.834-.422,2.67,2.977,2.581,0.154,0.9,7.334,4.564,2.748,1.956,4.973,2.931,2.715,4.74-4.344-1.161-5.041,4.714-1.93,1.387-.906,1.561-1.567,2.293-.307,4.331-4.5,1.623-3.513-0.422-1.227,1.387-.242,4.331-6.209,4.94,3.451,3.337-.314,7.923-5.45,4.184-5.329,1.175-4.056,6.2-8.286,3.755-.844,7.073-.664,2.084,1.534,2.964,7.341,12.523,7.6,4.564,4.842,7.033,3.739,4.707-2.358,2.077,1.26,1.285,1.9,8.133-10.707,0.851-10.7,5.362-.7,1.021-2.26,5.015,1.776,3.647-1.682,4.806,2.006,9.212-5.656,5.022,4.446,0.792,1.119,1,3.922-0.932,2.542,1.266,0.059,2.225-3.022,7.534-5.666,1.6-2.767,10.177,0.34,1.233,4.907,2.352,1.06-0.1-.475,1.694-1.93,12.837-3.3,5.993-2.656,0.249-2.62-2.9-2.817-9.016-2.254,3.386-8.339,6.327-1.433-1.158-.677-0.759-6.625L702.945,528l-2.091-3.3,12.746,3.109,8.78,2.983,9.33-4.518,5.5-10.337,8.594-3.131,1.021,1.168,3.873,0.51,7.047,5.731,2.293,3.245,2.535,0.334,7.253-1.387,5.257-1.06,1.3-.357-0.2-2.594-3.258-2.352-4.678-6.556-1.138-.729-2.568.851-2.211-1.348-2.7-2.951-2.568-6-6.638-.645-0.229-3.916-0.717-4.792-3-2.192,1.112-2.48-12-7.119-1.829-5.094-4.972-2.018-7.073-6.32,0.556-7.979,2.447-6.242-1.852-2.709-2.493-4.586-4.5-4.842-1.554-2.843-3.091-2.358-0.837-7.91-4.927-9.1,3.889-3.585,0.4-2.568-1.161-2.319,5.25-7.174-0.913-3.719,3-3.942-0.812-2.254,0.792-6.274,0.965-.851-0.008-.019,2.573-.281,1.642-2.09,3.749-1.394,1.7-6.288,7.577,2.365-1.079-6.376,2.663-4.433,0.223-6.422,2.14-1.6,1.5-3.674L743.3,351.9l4.855-4.619,3.8,0.749,2.339-1.086,2.385-2.427,4.429-3.206L761,339.932l2.473-3.137-0.154-17.845,4.874-2.388,4.1-.134,3.788-1.655,0.249-1.253-1.6-2.251-5.522-4.089-0.886-1.06-2.549-6.4-6.886-4.472-1.106-3.847-1.24-.608-2.7-4.563-1.7-10.848,4.1-3.539Z" transform="translate(-20.14 -38.731)" fill="none" stroke="#000" stroke-width="4"/><path d="M813.073,212.393l-2.676-7.858-6.167-2.944-3.291-4.429-2.326-7.891,0.281-6.837-3.337-6.059-3.346-2.359,5.532-9.52,0.442-2.722-0.389-1.328-2.467-1.181-2.018-5.087-9.189-2.8-9.6-5.385-1.38-.013-5.283,6.216-7.866-1.08-5.162-1-3.091-2.656-3.886-1.3L738.832,140l-2.218-4.881-4.037-.288-2.928-4.632-6.468-1.609-0.2-6.8,2.1-4.819-2.46-1.086,3.814-7.213,0.422-4.03L721.905,96.9,719.521,95.7,719.38,94.31l3.605-1.95-0.468-2.742-1.482-3.9-1.06-.893-3.867-1.567-13.864-.02-0.965-1-1.743-3.788,0.618-4.07-1.816-3.7,0.2-5.552-0.53-1.292-3.661-1.943-0.864-4.037-4.8-6.765,0.831-2.653-4.573-4.58-6.562.69L674.657,43l-3.513,3.654L669.59,50.3l-6.435,2.211-2.607-.615-4.282-3.34-7.979,7.308,1.956,7.979-0.468,5.424-9.444,1.583-5.074-4.177-4.037.7-3.949-1.194-2.574.886-8.9-3.219,2.7-4.773-2.646-7.756-8.581-8.254L606.9,44.373l-4.41,3.03L595.9,48.7l-4.573-2.486-4.537-4.7-8.708,7.9,3.9,14.518-6.461,1.8-2.928,9.084-0.242,5.489-1.6,2.126,0.065,4.128,3.124,2.656,11.623,3.726,11.872-2.951,5.381-.059,1.246,2.453-1.8,3.7L602.2,98.854l3.4,5.826-1.207,5.215,1.724,2.1,7.815,2.427L612.81,121.2l1.053,6.677-0.913,4.007,1.08,3.841-1.829,2.077-0.422,2.7,1.361,7.969-5.3,2.535-4.7-2.656-4.191-6.926-2.722-.474-7.642,1.924-5.067,6.484-5.5.216-9.1-2.741-2.146,1.73-5.283.857-3.271-2.313-7.635-1.662-4.812,6.664-4.4,2.862-11.348,8.793-7.308-8.741-3.9,1.106-3.553,5.852-6.742.69-8.247,5.516,3.2,3.176,4.671,2.133,0.69,3.841L501.3,181.21l-0.569,4.58V185.8l-3.684-1.475-5.041,4.164-4.832-2.031-2.522.945-2.133,3.245L472.1,188.986l-1.937-1.9-3.88-1.3,0.631,6.759-2.921,4.613-2.1,6.5-2.735,2.836,3.111,0.69,3.559,1.577,1.253,3.808L462.438,217l-3.412,1.986-2.9,8.414-5.417-.376-4.825-2.447-1.292,3.694-6.575,4.292L426.342,228.7l-6.729-.416-2.153-1.629-2.735,1.616-0.51,6.569,0.824,3.909,1.839,1.91-0.939,3.693-2.522.275-2.653,5.564-0.327,3.252-2.192,1.04-1.266,4.74-1.871,1.354-0.187.657-2.568,9.124,4.934,4.1,3.52-.615,5.181,5.591,5.054,7.086-3.687,1-5.022-1.08-1.91,1.688-2.385,9.022-3.922,3.559-9.6-4.318-1.227.517-1.181.37-2.977-2.179-10.759-4.524-7.756.108-2.28-1.181-1.138-2.244-3.612.723,0.294,3.749,0.4,0.932,1.8,4.914-1.839,1.924,1.011,6.441,1.3,2.211,7.5,2.951,0.651,0.926-1.175,3.2-2.1-.294-1.266,2.378-2.44.749-9.493-4.914-5.617,3.418,4.021,5.106,2.467,7.783,0.255,4.05-3.137,2.306,1,2.414,2.5,0.537,5.247,0.2,1.688,6.179,2.7,0.121,4,5.4,2.875-2.774,4.927-1.93,4.429,2.781,0.851,3.756,2.549,0.71,3.647-1.547,2.519,0.422,4.338,0.563,0.35-.059,7.668-.082,2.238-1.1,2.071,1.56-0.288,1.309-4.721,4.691-1.361,3.755,2.152-1.272,2.574,2.627,2.359,0.677,1.783,2.794-2.005,1.266-0.108,2.62,3.615,3.808,0.327,2.647,8.018-3.419,3.069,3.814-3.451,3.962L423.33,386.2l2.358,5.813-1.22,6.709,2.555,6.294-0.193,1.354-2.555.876,4.544,2,1.554-2.2,4.72-2.549,6.69-1.26,4.318-3.131,6.039,1.649,4.358-2.434,5.27,0.428,5.525,4.007,7.871,2.038,11.469,1.668,2.67-.281,0.615-5.106-8.875-2.787-2.1-4.753-0.9-2.522-2.113-1.724-0.7-3.981-7.815-5.4-1.24-1.515-1.04-5.149,3.585-5.6,0.069-2.581,3.585-1.214,7.36,3.769L479.625,374l1.407,2.319,8.927,8.4,2.663,0.422-0.334-3.539,1.152-2.385-0.415-1.272-2.581-.6,0.615-5.123-0.749-2.555,3.406-1.829-0.35-2.473-0.262-1.22,0.448-4.256-1.158-.671-3.612,1.266-3.036-2.48,1.852-3.373-0.013-3.962,2.561-.095,1.207-.4,2.434-4.357,3.183-4,1.086-4.966,3.386-8.7,5-3.245,1.688-1.482,4.043-1.75,7.553-2.915,1.521-5.234,2.146-1.649L530,306.967l4.158,2.7,0.837-.972,2.14-7.475-1.413-1.986,1.616-3.157,2.421,0.02,3.049,2.045,2.051-1.335,1.561-.02,2.352,2.453L551,299.685l0,0,6.571,2.379,0.18,7.737,1.7,2.99,3.219-2.005,3.049,6.019,4.164,3.546,3.1,4.5,4.5,8.447,4.855-2.346,4.953-9.533-4.479-12.045-1.7-1.777-2.084-5.9,0.209-.34,7.962-.749,2.755-2.741,5.96-3.206,1.26,2.388,4.23,3.252,3.86,1.161,0.658-2.12,2.273-.749,0.716-3.54,1.7-7.858-3.886-3.88,0.677-.543,3.566-1.567,2.7-2.81,1.292,0.216,2.352,4.567,4.433,4.567,3.451,1.75,2.656,5.335,0.261,2.555,1.835,1.858,6.274-1.158,1.852,1.969,3.847,1.066,2.529,4.665,3.769-.651,4.806,1.8,3.762-.222,2.594,0.742,3.707-1.475,6.222,2.286,5.247-.792,2.574,0.792,0.9,0.173,3.955-.919,8.12,0.4,2.607-15.061,3.33-3.494,4.135-2.251,4.037-12.228-0.67-3.841,6.8,0.717,9.317-5.692,4.8-6.631,3.713-1.763,0.02-4.03,3.062-2.741,3.86-.618,1.622-3.733,2.519,0.883,3.34-2.365,6.7-.831,2.012-1.835,1.776-5.094,6.543-1.341,5.342-6.18,1.7-3.615,2.126-1.328,6.863,3,2.333-1.047,2.568-2.944,0.2-3.9,1.367-2.254,2.594-.193,3.814-3.8,2.549-.752,2.542,1.034,6.736-1.38,8.653,4.164,1.374,0.141,2.676-.468,0.435-1.315Z" transform="translate(-20.14 -38.731)" fill="none" stroke="#000" stroke-width="4"/><path d="M990.7,447.794l-4.024-3.661-2.549-4.874-4.158-3.553-1.91-4.907,2.506-4.485L980.938,425l-1.822-3.615,3.183-5.865-0.831-2.313-10.825-.569-2.166,1.5-1.5,3.641-1.207,3.886L963.7,423.36l-13.615-1.175-3.425,2.238-5.437.288-4.344,3-5.162-1.42L920.9,432.039l-8.152-.752-1.757,3.667,0.134,2.709,0.887,10.429-0.044.684,0.043-.671-0.886-10.423-8.895-4.243-2.522.065-4.78,2.555-2.7.006-5.015-10.874-13.341.069-2.4,1.1-5.993-2.293L861.9,420.18l-3.091-5.9-4.874,1.6-5.175-6.046-2.512-.913-1.835-5.11-2.7.448-4.74-2.562-5.107,1.534-6.523-5-6.327-2.555-5.355-4.07-10.439,2.663-4.177-3.33-1.285.484-3.406-2.185-2.018-3.585L791.265,374.8l-1.125-2.48-5.048-1.809-3.559-3.814-1.021-6.588-7.8-7.635-2.876-7.57-3.445-2.2-5.283-1.354-4.423,3.206L754.3,346.98l-2.339,1.086-3.8-.749-4.855,4.619-3.749,1.374-1.5,3.674-2.146,1.6L735.7,365l-2.669,4.439,1.084,6.365-7.541-2.354-1.711,6.287-3.746,1.394-1.642,2.09-2.574.275-0.972.851-0.785,6.281,0.8,2.25-3,3.948,0.919,3.719-5.257,7.167,1.161,2.319-0.389,2.575-3.9,3.579,4.927,9.111,0.844,7.91,3.091,2.358L715.9,438.4l4.5,4.848,2.5,4.58,1.852,2.715-2.447,6.235-0.562,7.985,7.079,6.32,4.966,2.018,1.829,5.094,12.006,7.118L746.5,487.8l3,2.192,0.717,4.786,0.236,3.922,6.631,0.645,2.568,6,2.7,2.951,2.2,1.342,2.568-.844,1.145,0.723,4.671,6.556,3.265,2.352,0.2,2.594-1.3.356-5.25,1.067-7.259,1.387-2.535-.334-2.287-3.245-7.047-5.738-3.88-.5-1.018-1.168-8.594,3.131-5.5,10.338-9.336,4.511-8.774-2.977-12.742-3.15,2.084,3.3,4.933,1.662,0.752,6.625,1.161,0.677-6.327,1.433-3.386,8.338,9.01,2.251,2.9,2.823-0.249,2.621-6,2.656-12.83,3.3-1.694,1.93,0.1,0.474,0.389,3.078,2.012,1.436-0.886,3.474,3.278,2.113,1.053,5.385,6.965-3.419,1.3,0.255,4.875,2,1.923,1.809,0.229,2.574,11.6,0.958,0.864,3.847,2.486,3.016,2.365,10.069-2.11,1.642-1.017,2.522-0.651,6.589,1.361,2.071,2.512,0.344,4.089,6.242,2.81,5.771,3.814-.523,3.069,2.506,3.078,1.521,0.831,2.09,4.024,2.843,1.021-.752,2.211,1.227,5.264-.51,2.983-1.733,4.858,4.875-3.245,5.826,2.1,4.685-0.34,2.607,1.177,0.333-1.151-.314-1.328-.1-4.089,4.806L758.81,661.4l4.292,2.656,0.2,1.328-3.069,7.456,5.417,2.863L768,676.624l0.919,3.68,5.009,1.125,0.1-1.227,3.579-1.322,2.251-4.812-0.919-2.25-3.474-1.737-0.2-2.555,3.68-6.742,3.988-3.579,5.11-1.737,12.467-.307,2.555,4.7,5.417-5.316,0.013-.046,2.7-4.237,5.277-3.245,4.593-.569,4.05,2.555,1.119,7.976,5.784-2.928-0.684-6.984-3.579-.837,0.543-4.171-1.694-1.541,2.333-1.5-1.509-1.92,1.161-8.489,4.286-9.232,4.109-4.989,5-.468,4.966-.435,0.867,0.876v0l0.8,1.2L847.93,617.8l3.573-.461,3.749-5.4,2.077-7.782,4.031-3.563,3.846-1.232,6.7-.218,2.273,3.486,3.363,0.426,0.746-3.108-0.01-.016-0.165-2.314,1.227-2.064,0.857-.864,1.394,1.718,1.361,2.166L881.6,601.1l1.309,5.5,2.682-.415,0.18-3.232,3.654-.523-4.007-1.924-1.4-4.05,3.707-4.646,1.554-.2,2.634-2.787,3.579,1.018L899,588.33l2,1.112,4.037,0.651L908,587.116l-1.7-1.583,0.919-.716,0.154-1.106,6.644-6.587,0.523,1,5.27-3.929,6.837,3.579,0.965-.913-0.716-2.549,1.279-2.339,5.4-3.54,1.292-2.339,4.861-1.436-3.085-7.125-3.085-14.4L930.5,538.9l0.625-8.293,2.823-2.46,1.469-1.986,13.066-6.046L947.75,513.6l3.317-5.6,0.288-6.268,5.771-3.265,5.437-.327,11.342-7.547,4.479-8.345-1.668-6.562,0.115-5.424,10.671-5.577,3.144-7.528,0.883-6.792Z" transform="translate(-20.14 -38.731)" fill="none" stroke="#000" stroke-width="4"/><polygon points="785.695 626.142 781.808 626.551 781.298 627.062 782.014 628.187 783.853 628.903 789.885 629.106 790.906 629.823 791.622 628.802 791.315 628.187 785.695 626.142" fill="none" stroke="#000" stroke-width="4"/><path d="M455.568,598.288l-1.5-3.654,0.222-3.9-3.232-2.244-5.228-.932-4.384,3.1-7.187,9.968-8.12-.837-2.7-.261-4.433,3.1-4.377,5.169-4.881,2.25-4.7,2.869-9.265-1.266-6.618.857-5.375.2L372,609.48l-11.9-4.786-9.062-4.933,0-.026-6.844-3.573-4.887-2.689-7.462-3.687-4.946-4.024-2.951-2.817-8.038-1.38-6.2-1.57-5.149-1.119L302,578.749l-13.936,4.606-13.2-6.657-4.171-2.293-9.206-5.143-11.826-6.778-1.534-6.468-2.018-5.257-2.12-3.252-8.365-6.274-1.711-2.254-6.068-7.334-10.887-5.65-2.365-.919-5.3-.344-6.013-5.368-7.38-3.565-12.186-1.342-10.4-2.071-9.611-1.7-0.985,2.921-3.6,4.057-4.766,2.529-0.223.8,1.293-.253-4.347,4.913-7.151,3.406-1.521,2.146-0.321-1.207-1.24-.121L136.7,532.5l1.433,3.6-1.011,2.372,5.054-.167,1.42,2.012L137,546.13l3.189,8.843-0.736,9.559-6.589,10.262-4.4,12.683,0.563,5.4,3.513,7.328-0.033,1.361-1.3.409-6.664.147-5.4-3.955-5.342-.933-6.059-2.937-3.647,1.724-6.785.193-3.854,1.233L90.693,602.1l0.327,5.362-7.266,3.252-6.844,14.8,0.448,2.548,2.781,3.01,2.64,0.416,5.041-1.9,2.083,1.694,0.16,2.621-3.707,5.578-3.337,2.313-6.523-.51L71.355,645.4l2.12,1.577-1.783,3.317-5.214.108-4.792,4.433-5.149.792L55.1,657.6l-4.466,2.512-4.19-3.049-0.442-1.227,1.757-1.871-0.991-2.14-2.6,4.237,3.258,7.157-7.688,5.094-13.635,4.946-1.75,1.682,0.4,1.285L22.6,681.129l-0.37,7.95,40.905,2.915,6.477,2,6.785-.543,7.662-2.549,19.085,0.576,9.117,2.856,5.79,3.6,3.445,4.21,2.781,7.717-9.827,7.125-1.132,2.421,2.656,4.658,6.85,4.446,19.968,4.1,17.629-1.427,12.261,0.383,11.636,3.834,6.776,4.51,2.717,0.173,0.007,0.013,2.722-.033,1.034-4.21,6.026-7.344-4.613-4.854-4.25-3.553,0.766-5.29,0.154-2.106,1.443-1.073,1.956-1.322,3.278-2.9,8.715-5.519,6.235-2.574,9.372,2.64,1.891,1.789,0.945,7.789,2.113,1.42,0.321-2.4,3.1,0.236,1.5,1.567-3.9,2.319,3.451,5.094,4.625,8.466,2.62,1.027-2.44,4.6,5.552,4.72,5.021,1.577,3.679-1.593,3.814,1.22,1.943-1.865,2.372,1.373,10.658,0.026,3.6,1.034,4.933-.53,2.983-2.1,2.273,0.34,10.946,1.609,3.628-1.315,5.751-2.542,6.785-5.839,0.342-.085,6-2.582,2.631,0.34,6.153,4.675-0.49,2.132,1.031,0.821,2.154,1.22,4.05,6.6,0.816,3.927L336.866,751l0.155,1.111-1.137.5-2.6,4.417,5.56,5.275,1.583,3.65-0.105,3.967-6.407,6.736-2.654,6.089,6.115,2.506,5.213-.675h0l4.189-1.053,7.342,2.705,1.957-1.1,5.049,1.15,0.316-1.287,2.433-.64,10.007,3.48,3.929-.106,0.323,1.282,1.841-6.018,0.072,0.157-1.9,6.2,1.956-3.317L386.2,784.3l2.293,1.354,0.576,5.257,1.7,2.064,4.135,5.264,9.552,4.652,1.6-2.12,0.645-3.867,2.709-2.856,6.516-.945,7.18,3.346,1.138-4.338,0.677-9.955,1.119-7.145,6.147-2.372-0.913-2.1,10.292-5.705,6.307-2,0.517-5.738-3.17-2.244-4.007-5.221-2.889-5.911-9.889,1.682-2.588-2.319-3.482-.14,3.822-.929,1.943-3.425-0.5-3.9,4.3-4.972-2.627-4.4-1.361-9.291-1.8-3.59,5.667-3.361,5.381-.187,7.616,2.656,8.044-3.271,2.018-1.469,0.608-2.427-0.14-.066-3.854-.442L445.251,699l-6.771-12.562-4.707-4.567-3.2-1.22,1.233-5.048,3.072-2.251,0.991-13,2.012-6.2-2.28.026-2.83-1.93-4.171-2.728-6.216-.491-3.451-4.083,8.522-3.431,0.569-1.214-2.427-9.029,5.483-12.16,2.6,0.34,2.512-3.144,14.217-4.083,8.1,0.2L460,604.5l2.407-3.265Z" transform="translate(-20.14 -38.731)" fill="none" stroke="#000" stroke-width="4"/><polygon points="187.034 311.589 183.354 316.496 185.706 320.994 185.399 324.775 194.395 322.937 210.549 327.435 212.492 329.172 213.925 321.403 215.361 319.257 219.859 316.394 218.632 313.224 222.103 309.135 223.124 302.593 230.893 301.16 235.699 296.661 235.8 294.005 229.359 294.414 225.27 291.041 221.282 290.325 219.849 285.316 221.076 284.701 221.384 281.227 217.805 282.863 212.999 278.466 210.444 278.267 209.217 276.013 207.892 275.803 204.824 279.791 202.779 279.69 200.941 281.633 193.479 284.394 191.127 289.301 191.637 292.062 190.309 297.378 186.422 299.933 186.321 301.16 179.88 308.828 182.536 308.726 187.034 311.589" fill="none" stroke="#000" stroke-width="4"/><path d="M444.274,581.029l-8.823-5.948-0.752-9.317-2.28.569-2.876-1.757-2.977-2.012-2.728-6.9-4.083-3.219-1.488-3.615-2.1-.383-4.325-.952-1.021-.864-7.865,1.42-7.694-.831-2.2,3.3-3.585,1.279-1.7-.075,1.08-11.7,3.52-3.661,3.176-2.333,4.881-9.15,4.524-11.136-6.448.069L394.12,503.5l-6.294,1.387-4.282-2.689-4.707.236-1.3-4.792,1.443-6.006,1.783-7.979,6.477-11.771,0.474-17.583-7.635,2.506-4.024-.006-1.246-3.739,0.173-16.5-12.254-1.361-1.443-1.884-0.543-4.9-2.555-.8-0.73-5.208-2.28,1.2-3.258-2.133-5.25.9-3.808-1.152h-0.021l0.912-9.235-1.433-5.107,0.51-2.555,0.409-.818-2.251-1.534L335.16,398.7l-5.522,3.579-4.907-1.737h-4.089v1.328l-6.343-5.624-6.742-3.988-2.146-.409-2.254.095L302.44,398.8l-8.178-.51-9.2-2.454L282.92,394.1l-4.907-3.886,0.51-1.132,2.653-2.862-0.307-7.77-3.579-1.322,0.716-5.009,4.292-2.964,1.227-3.579,0.818-3.68-1.125-2.254-0.717-.308-3.68,1.838-1.021,3.68-11.041,7.77-6.441-1.328h-2.761l-4.5-9.405-8.587,3.988L241,368.132l-4.089,2.352-3.579.2-4.907,2.454-8.077,3.994-2.761,2.653-9.916,1.436,1.125-2.254-5.826,1.021-6.441,6.134-8.895,6.746-3.271-1.534-0.308-3.68,0.095-6.235-2.453-4.4,0.2-3.271V363.627l-2.454-.51-4.089-4.806H172.8l-2.454-2.964-11.551-.618-2.251,1.021-0.1,1.328h-9.2l-8.153-3.6,0.717,13.6-0.2,1.436-0.913,8.077,0.716,4.4,7.158,9.3-1.227,6.441,0.2,1.433,2.251,1.227,5.008-1.737,2.454,1.021,0.51,2.555L153.93,404.8l1.227,2.352,3.579,1.436-0.308,3.886-1.021.717,0.308,3.886-0.1,1.328,0.409,3.988-0.095,4.5-3.68,12.575,3.271,5.215,0.818,3.585,1.018,2.352,1.227,0.409,5.725-3.373,2.656-.307,0.615,3.68,0.818,1.328,6.644,4.089,0.1,3.68,2.352,2.653,2.771-.511-2.747.54,3.3,3.15,1.636,2.218,1.852,6.589,4.056,0.6,2.045,1.688,0.242,4.128,0.618,1.865,1.722,2.5h0l-1.73-2.506-1.227,3.739-7.776-.8-0.779,3.9,1.168,5.116-6.222,4.792-4.089,5.431-7.737,2.6-2.9,2.856,9.611,1.7,10.4,2.071L195.9,515.8l7.38,3.559,6.013,5.368,5.306,0.336,2.365,0.919,10.887,5.643,6.068,7.341,1.7,2.254,8.365,6.274,2.12,3.252L248.129,556l1.534,6.461,11.826,6.785,9.205,5.143,4.171,2.293,13.2,6.657L302,578.734l2.549,0.127,5.156,1.119,6.2,1.57,8.044,1.381,2.951,2.816,4.94,4.024,7.462,3.687,4.887,2.689,6.844,3.573,9.062,4.927,0.01,0,11.9,4.792,11.793,3.225,5.375-.2,6.618-.857,9.265,1.266,4.7-2.869,4.881-2.251,4.377-5.169,4.433-3.1,2.7,0.255,8.12,0.844,7.187-9.968,4.384-3.1,1.021-1.845Z" transform="translate(-20.14 -38.731)" fill="none" stroke="#000" stroke-width="4"/><polygon points="562.112 818.321 561.506 816.489 560.891 816.692 559.357 821.19 558.336 822.008 555.065 821.393 553.94 823.745 552.405 824.972 549.749 825.381 544.332 822.927 542.388 823.438 541.878 823.846 539.935 825.685 539.627 826.196 540.138 826.395 547.498 829.467 548.519 830.38 548.826 832.329 549.337 832.833 551.993 832.424 553.936 829.876 557.617 828.649 560.479 827.013 563.034 826.699 563.538 826.291 564.156 824.347 563.031 819.241 562.112 818.321" fill="none" stroke="#000" stroke-width="4"/><polygon points="608.735 819.748 608.224 819.244 607.613 819.152 603.216 820.987 601.273 821.19 600.658 821.498 600.344 822.724 597.275 825.381 597.89 827.118 601.885 826.81 604.645 828.754 606.896 827.527 610.475 822.721 610.678 821.494 609.042 821.697 608.735 819.748" fill="none" stroke="#000" stroke-width="4"/><polygon points="635.21 806.266 634.601 805.965 633.986 806.067 629.488 807.601 626.832 807.908 626.217 808.01 624.99 808.828 624.48 809.237 623.047 811.487 622.739 812.102 621.513 815.174 616.504 816.708 614.868 818.753 615.068 820.081 614.659 822.629 615.886 824.065 617.93 822.531 619.668 819.669 622.739 820.487 625.091 819.567 625.706 818.341 625.909 816.397 627.646 814.353 629.377 810.673 630.509 809.95 633.875 809.642 635.612 808.723 635.92 808.108 635.72 807.493 635.21 806.266" fill="none" stroke="#000" stroke-width="4"/><path d="M768.952,680.328l-0.932-3.694-2.326-.926-5.476-2.863,3.055-7.436-0.193-1.334-4.282-2.7,2.242-7.517,4.135-4.773,1.3,0.046,0.334-2.607-2.091-4.691,3.245-5.826-4.868-4.874-2.99,1.737-5.27.517-2.211-1.233-1.021.752-4.024-2.843-0.831-2.091-3.072-1.521-3.069-2.5-3.814.517-2.816-5.771-4.083-6.242-2.519-.343-1.354-2.071,0.651-6.589,1.018-2.519,2.11-1.649-2.372-10.069-2.48-3.01-0.87-3.854-11.6-.958-0.236-2.574-1.924-1.809-4.868-2-1.309-.249-6.965,3.412-1.053-5.385-3.271-2.11,0.886-3.481-2.012-1.436-0.389-3.078-2.352-1.06-1.233-4.907-10.177-.34-1.6,2.767-7.534,5.666-2.225,3.022-1.266-.059,0.932-2.542-1-3.922L664.09,560.2l-5.022-4.446-9.212,5.656-4.8-2.006-3.654,1.682-5.015-1.776-1.018,2.26-5.368.7-0.851,10.7-8.133,10.707-1.285-1.9-2.077-1.26-4.707,2.358-7.033-3.739-4.564-4.842-12.523-7.6-2.964-7.341-2.084-1.534-7.094.757-3.755.837-6.2,8.286-1.175,4.056-4.184,5.336-7.93,5.443-3.33.314-4.94-3.445-4.331,6.2-1.387.249,0.422,1.22-1.622,3.52-4.331,4.5-2.293.3-1.561,1.57-1.387.906-4.714,1.924,1.161,5.041-4.74,4.351-2.931-2.722L515.5,601.51l-4.563-2.741-0.9-7.334-2.581-.16-2.669-2.977-3.834.422-2.172-1.534-1.24-2.287,0.6-2.607-0.971-3.89-3.431-1.59-0.066-1.335-0.837-.608-4.907,1.835-0.517,6.644-4.037,3.52-3.795,1.3-5.349-.075-1.864,1.93L470.7,583.6l-3.118-4.275-14.037-3.739-6.677,10.1-1.021,1.845,5.228,0.932,3.232,2.244-0.222,3.9,1.5,3.654,6.844,2.944-2.407,3.265-1.5,7.936-8.1-.2-14.217,4.076-2.512,3.15-2.6-.34-5.483,12.16,2.421,9.022-0.562,1.214-8.522,3.431L422.4,649l6.216,0.5,4.171,2.728,2.83,1.93,2.28-.026,0,0.013-2.012,6.2-0.991,13-3.072,2.251-1.233,5.048,3.2,1.22,4.707,4.567,6.771,12.562,6.235,4.868,3.854,0.442,0.141,0.066-0.615,2.427-2.012,1.469-8.044,3.271-7.616-2.656-5.382.187-5.686,3.373,1.8,3.592,1.361,9.291,2.627,4.4-4.3,4.972,0.5,3.9-1.943,3.425-3.834.932,3.488,0.141,2.588,2.326,9.889-1.688,2.889,5.911,4.007,5.221,3.17,2.251-0.517,5.738-6.307,2-10.292,5.705,0.913,2.1-6.147,2.365-1.119,7.151-0.677,9.955-1.138,4.331,3.886,0.059,1.829,1.871,0.288,2.594L426.524,804l0.052,1.328,3.213,4.158,6.408-.167,1.931,3.421h0l0.005,0.01v-0.009l6.228,0.925,0.684,1.073,5.438-2.957,2.627,2.6-2.415,5.865,6.314,1.1,3.749-.69,1.515,3.579-1.341,2.28,0.589,2.555-1.427,5.107-2.519,3.022,0.536,1.207,4.72,2.372,4.237,4.953,3.782,1.073,1.017-.851,3.713,0.134,3.4-7.105,4.076-3.366,2.535-.491,1.943,1.662,2.882,2.421,5.028-1.57,3.84,0.779,0.945-.913,0.229-1.3-0.448-1.246-0.886-.985-2.388-1-2.395,1.04-3.513-1.273-3.2,1.949-2.2-1.413,3.474-5.382-0.35-1.246-6.075-1.57,0.066-4.959,0.465,0.369,0.121-1.567,2.614-2.126,2.555-.725,0.038,0.018-2.594.736-2.614,2.126-0.121,1.567,5.028,0.484,1.822-1.93,2.519-.736,2.794,2.689-0.638,3.9,13.991-.734,0.643-2.955-0.6,2.927,3.886,0.618,3.886,0.717,4.089,2.862,0.717,1.125-1.731,3.373,0.308,1.328,3.68,1.017,5.215-.615L537,831.509l7.668,1.227,4.6,2.454,1.731,10.429-2.045,3.373-6.441.1-2.146,1.433L542.2,853.8l4.6-2.352,1.021,0.919,3.782-.716,3.069,2.454L556,854.3l3.782-1.328,0.409-1.021-3.373-2.146L556,844.594l1.433-9.3,2.656-6.134,4.4-5.009,5.826-3.373,9.2,0.919,10.429-3.069,4.1,2.476-0.065,1.233,0.818,1.067,6.588,0.638,3.661,5.463,10.537,1.106,0.716-3.86-1.348-2.293-0.363-4.007,0.978-3.628,1.168-3.762,2.555-.609,2.921-2.614,11.538-2.467,3.15,2.179L639,806.564l4.792-1.577,6.87,1.5,1.08,0.749,7.717-5.028,3.873-.717,0.442-4.946,4.158-3.232,2.607-.536,9.1,1.583,2.058,1.623,3.17,5.807,2.14,1.42,3.612-3.821,3.54,1.407-1.561-2.14,0.952-5.116,4.2-3.176,5.107-1.067,0.088-1.328-3.6-3.821-0.779-5.221,0.8-6.575,3.471-1.341,3.124-2.454,1.949-4.92-4.786-4.524-2.287.67-1.521,3.559-5.859-2.928-5.686,3.164-8.191,1.2-2.568-1.75,0.5-.933-0.376-3.821,9.84-6.376,3.353-3.739,9.853-3.284-0.651-2.588,0.8-3.916,3.693-3.661,0.015,0,8.8-1.878,1.168-4.76-0.978-3.733,4.518-7.723-0.461-2.512,1.724-4.953,3.183-4.177,4.708-2.237,6.7,5.96,11.054-3.311,2.561,0.461,4.855,1.717,1.443-2.146,0.236-5.241,1.233-.468,3.157,2.251,3.909-.563,2.211-4.429,6.468-4.492,0.913-7.956,2.542-3.069Z" transform="translate(-20.14 -38.731)" fill="none" stroke="#000" stroke-width="4"/><text transform="translate(763.155 254.709)" font-size="20.753" font-family="DejaVu Sans" font-weight="700">Alpes de <tspan x="0" y="24.904">Haute-Provence</tspan></text><text transform="translate(727.155 49.709)" font-size="20.753" font-family="DejaVu Sans" font-weight="700">Hautes-Alpes</text><text transform="translate(772.304 651.185)" font-size="20.753" font-family="DejaVu Sans" font-weight="700">Alpes-Maritimes</text><text transform="translate(58.304 739.311)" font-size="20.753" font-family="DejaVu Sans" font-weight="700">Bouches-du-Rhône</text><text transform="translate(654.92 799.183)" font-size="20.753" font-family="DejaVu Sans" font-weight="700"><tspan letter-spacing="-1">V</tspan><tspan x="13.315" y="0">ar</tspan></text><text transform="translate(25.2 397.094)" font-size="20.753" font-family="DejaVu Sans" font-weight="700"><tspan letter-spacing="-1">V</tspan><tspan x="13.315" y="0">aucluse</tspan></text></svg>