<svg xmlns="http://www.w3.org/2000/svg" width="4492.498" height="3995.061" viewBox="0 0 4492.498 3995.061"><title>Députés sortants du Var en 2017</title><path d="M956.147,3402.609l8.06-49.246L928.9,3319.375l-31.838,9.3-23.026,24.4-63.55-6.117,1.529-19.806,33.034-26.877,32.787-9.3-17.368-8.227,16-24.641,36.921,4.134L902.1,3241.487l13.481-4.426,1.115-18.811-8.56-6,18.9-32.787,33.2-6.45,41.68-5.335,29.234,7.606,16.954,7.192,42.957-9.595,33.2,19.846,11,63.8,24.313,41.428-8.888,14.057-17.7,81.332Z" transform="translate(1.653 1.24)" fill="#06c" stroke="#000" stroke-width="3"/><path d="M506.742,3140.55l18.978-46.435,97.458-56.933,73.559-89.64-22.122-80.337,38.289-28.366,31.344,39.485,84.3,2.11,81.66-21.088,84.057,6.45L957.92,2796l66.074-41.68,78.021-3.967-0.167-33.448,57.887-30.516,28.366-40.479,27.952,18.11,49.66,4.3-2.276,31.258,26.256,34.816-19.392,58.715,58.962,52.552,74.715,23.238,12.9,47.177L1441.892,2937l31.879-4.134,62.849,18.978,8.807,48.045-15.172,47.384-27.785,59.911-36.593,33.574-46.682,38.455-60.244,7.773-62.435-26.009-31.424,78.975-114.447,71.616,8.974-14.057-24.393-41.428-11-63.717-33.12-19.932-42.957,9.676-17.035-7.192-29.234-7.606-41.68,5.249-33.2,6.45L908.1,3211.8l8.641,6.037-1.2,18.73-13.315,3.806,11.286,21.416-37.047-4.053-16,24.641,17.368,8.227-32.787,9.3-33.034,26.877-1.529,19.806-6-4.755-128.009-20.921-92.082,5.249,10.418-97.539-29.148-36.512-5.582-48.625Z" transform="translate(1.653 1.24)" fill="#06c" stroke="#000" stroke-width="3"/><path d="M1607.532,2810.186l-29.728,40.065-5.168,67.189-36.179,34.9,9.055,47.8-15.505,47.8-27.043,59.457-37.461,33.574-46.516,38.783-59.5,7.773-63.222-25.842-31.01,78.808-114.987,71.076-16.787,81.413,49.12,7.813,49.12,9.055,51.684,36.179,9.055,14.223-21.875,42.629,3.886,16.787,46.516,12.86,65.907-7.773,105.938-38.79,96.918,15.5,58.135,31.01,21.875,131.815-25.842,42.629-81.413,1.282-27.124,18.11,23.238,41.347,58.135-29.728,12.9,11.619,47.8-9.055,38.783,31.01,16.787,2.564,47.8-16.787,5.168-12.9-42.629-27.124-10.337-65.907,18.106-117.592,33.574-77.526,55.57-63.3,73.64-42.629,116.269,11.619L2162,3323.144l47.8-87.863L2233,3035l98.2-20.674,12.9-11.619,2.564-51.684-58.135-31.01-65.907,19.392L2090.8,2925.175l-37.461-55.57-124.042,49.12-149.884,11.619-99.482-20.674,21.956-23.238-11.619-29.728-21.956-23.238Zm1373.515,842.451-7.773,1.282-56.853,19.392-33.574,3.886-7.773,1.282-15.5,10.337-6.45,5.168-18.11,28.446-3.886,7.773-15.5,38.824-63.3,19.392-20.674,25.842,2.524,16.787L2729,3863.26l15.5,18.15,25.842-19.392,21.956-36.179,38.824,10.337,29.728-11.619,7.773-15.5,2.564-24.56,21.956-25.842,21.875-46.516,14.3-9.136,42.549-3.886,21.956-11.619,3.886-7.773-2.524-7.773-6.45-15.5Zm-923.863,133.016-7.773,2.564-19.392,56.853-12.9,10.337-41.347-7.773-14.223,29.728-19.392,15.5-33.574,5.168-68.471-31.01-24.56,6.45-6.45,5.168-24.56,23.238-3.886,6.45,6.45,2.524,93.026,38.82,12.9,11.538,3.886,24.641,6.45,6.37,33.574-5.168,24.56-32.212,46.516-15.5,36.179-20.674,32.292-3.967,6.37-5.168,7.813-24.56-14.223-64.545-11.619-11.619Zm582.748,33.655-55.57,23.2-24.56,2.564-7.773,3.886-3.967,15.5-38.783,33.574,7.773,21.956,50.483-3.886,34.9,24.56,28.446-15.5,45.234-60.739,2.564-15.5L2658,3851.483l-3.886-24.641-6.45-6.37Z" transform="translate(1.653 1.24)" fill="#06c" stroke="#000" stroke-width="3"/><path d="M1689.975,2421.106l5-49.907L1681,2305.706l16.54-81.413-4.755-48.706,32.212-6.864,65-47.8,32.373-2.892,9.756-42.382-73.1-26.009,41.347-84.057-9.055-31.344,4.053-29.4,26.67-14.3,32.459-95.555,24.393-23.485,16-5.168,13.643-30.516,123.875-48.625-83.189-55.076-5.5-81.66,15.424-30.062,39.737,28.487,32.54,2.564,5.83,32.292,13.729,9.136,16.086,3.473,24.727-21.254,59.83,19.392,63.8,0.333,12.447-10.831-1.529-45.234,46.516-44.325,22.284-61.153,57.68-24.479,131.815,20.921,28.446-17.035,68.885,47.55,48.873,10.256,7.359-15.172,81.746,54.909,11.619-2.564,59.129-24.313-1.529,31.879,26.422,18.811,172.581,42.175,53.047,13.148,23.566,63.056,1.529,83.437,31.5,37.128-16.706,116.269,13.229,65.08,22.7,13.976-1.943,21.956,46.021,16,76.658-26.584,9.756-13.067-23.238-42.71,42.957-48.292,38.2,32.621,90.841,42.877,35.518,36.012,60.158,81.413,14.471,48.378,31.5,38.536-8.06,82.775,74.467,23.9-47.1,46.682-10.17,49.494,8.227,32.706-124.536,41.514-42.382,47.258-124.375,80.585,4.755,48.292-6.284,11.785,32.459,22.122,103.535-15.172,71.863-39.985,74.054,37.007,19.225-44.986,28.9-8.474,60.492,57.186-24.641,62.187-39.485,31.01-43.871,16.954-10.09,83.108,9.842,65.988,45.481,48.292-1.115,16.781-64.545,13.481-53.047,40.146-12.033,64.666,19.725,27.043-44.739-17.782-45.648,48.292-27.043-17.943-40.065-73.392-26.009-20.507-114.987-20.012-32.954,6.778-52.55,40.852-5.582,62.516-48.954,9.055-97.539,63.55-13.643-9.469-86.828-18.978-60.572,19.932-26.71,37.708-39.818-27.538-145.831,31.177-36.921,33.034-32.292,7.692-14.763,47.55-12.361,45.854,4.588,50.649,17.035,28.986-9.055,48.792-133.177-13.976-46.268-69.052-83.275-8.06-10.337-13.481,0.828-15.586-51.684-31.091,48.378-88.524,22.783-199.872,98.533-21.254,12.527-11.7,3.059-50.942-58.715-30.763-65.413,18.73-132.6-14.471-37.38-55.49-3.392-101.839,25.014-43.124,3.558-49.741-2.731-42.463-18.566-62.844-47.878-43.29-39.071-89.887-23.318-23.238,2.978-46.763-30.844-10-132.435,21.542-26.67,42.3-31.091,11.165Z" transform="translate(1.653 1.24)" fill="#06c" stroke="#000" stroke-width="3"/><path d="M3936.87,1280.089l-16-23.318-48.292-10-52.179-34.316-40.6,27.952-114.573,6-98.694-13.315-89.395,43.53-7.525,42.8-12.613,7.773-44.162-23.32-99.563-10.337-35.23,54.743-29.728,3.473-13.229,29.9,41.761,72.277,5.663,81.66-115.154,14.677-126.4,39.571L3064.6,1652.9l1.449,83.437,31.591,37.128-16.787,116.269,13.315,65.08,22.617,13.976-1.943,21.956,46.021,16,76.658-26.67,9.847-13-23.318-42.71,42.957-48.29L3305.3,1908.7l90.755,42.877,35.518,36.012L3491.817,2069l14.471,48.378,31.424,38.536-7.98,82.775,74.382,23.9,111.267-23.732,14.763-60.158-12.361-47.177,57.1-97.619-5.83-31.752,21.789-62.6,40.232-52.8,59.5-28.28,84.638,75.336,139.714-41.842,32.373,5.83,61.36,21.708,18.236-27.124,2.978-66.24,15.586-5.91,39.9,28.446,49.408-7.112,27.952-55.984,81.746-56.772L4456,1628.248l32.126-38.783-63.55-14.3-11.785-46.682-29.4-11.7-69.213-36.179,38.617-93.98-2.438-16.868-54.129-34.081-56.6,2.731-37.789-30.062-33.034,1.862L4090,1227.345l-85.753-44.325-32.212,83.563-28.9-.949Z" transform="translate(1.653 1.24)" fill="#06c" stroke="#000" stroke-width="3"/><path d="M457.95,3123.515l-71.242,18.317-7.112-2.892-70.164-25.348-15.258,2.357-7.031,28.033-35.437,24.974-8.394,79.883-24.48-43.371-81,2.11-40.605-52.552-0.661-16.787,32.54-38.122-3.639-32.787-23.112-23.655-49.12-.742,14.39-54.743,8.56-125.818,14.142-90.387,77.693-29.9L156.482,2715.5l130.078-72.11,79.717-25.262,6.531-72.524-40.065-28.446-50.65-65.984-36.512-74.715L120.59,2397.795l-32.706-29.4-44.078-1.777,48.459-11.785,24.56-43.29-6.284-49.246,54.329-62.849-33.2-55.651-17.2-117.425-22.783-45.4,71.863-42.629,68.017-2.357,96.257,33.574L429.5,1928.213l25.428-18.564,7.773-30.677-1.777-.828-48.706-5.582-78.808-61.526-85.589-158.771-59.5-57.721-40.4-15.424,15.586-63.8,38.829-28.445L214.859,1322.6l25.428-78.394,29.481-12.527,73.473,35.144,63.8,11.785,38.536,29.481,111.681-26.256,43.624-23.031,44.653,26.009,43.992,123.214-2.978,98.861,46.93,43.871L845.9,1550.1l58.8-28.366,39.818,17.035-16.166,64.585,5.5,32.54-28.446,95.141,173.369,44.492,85.587,49.741,0.868-68.552,32.706-115.315,53.627,33.655L1347.9,1698l65.413-12.694,31.01-36.593,44.325,22.783,79.964,14.844,43.624-19.639,37.708,87,31.344-11.286,25.181,19.932,147.941-12.775,24.479,21.708-24.393,23.4-32.459,95.6-26.67,14.223-4.053,29.4,9.055,31.344-41.347,84.057,73.1,26.009-9.756,42.463-32.373,2.892-65,47.717-32.212,6.864,4.755,48.706L1681,2305.366l13.976,65.579-5,49.822,38.617,10.09,31.091-11.165,26.584-42.3L1918.7,2355.85l30.844,10-2.892,46.763,23.318,23.238,38.99,89.887,47.964,43.29,18.483,62.849,2.811,42.463-3.639,49.741-24.974,43.124,3.306,101.839-123.961,49.741-149.056,11-99.9-20.426,21.789-23.031-11.079-30.269-22.864-23.4-61.153-22.783-29.648,40.313-5.088,67.189-35.6,34.316-62.849-18.978-31.838,4.134-25.1-20.921-12.86-47.177-74.8-23.238-58.962-52.552,19.392-58.715-26.256-34.816,2.276-31.258-49.574-4.22-27.952-18.15-28.446,40.52-57.887,30.43,0.247,33.448-78.107,3.967-66.074,41.68,36.345,69.794-84.057-6.45-81.579,21.088-84.39-2.11-31.344-39.485-38.289,28.366,22.122,80.337-73.559,89.64-97.458,56.933-18.9,46.435Z" transform="translate(1.653 1.24)" fill="#06c" stroke="#000" stroke-width="3"/><path d="M330.683,3273.975l-8.641-13.562-78.808-11.7,8.474-79.883,35.437-24.974,7.031-28.033,15.256-2.348,70.167,25.347,7.112,2.892,71.242-18.317,48.873,17.035,53.461,3.144,5.582,48.625,29.148,36.512L584.6,3326.252,676.681,3321l127.928,20.921-0.828,62.682,76.784,19.846,4.426,15.753-43.911,68.017,27.785,17.862,40.479-24.641,44.406,16.086,30.269-13.148,30.186,12.694,11.2,12.447,5.663,15.753-2.892,16.454-11.947,11.538-48.54-9.842-63.55,19.846-36.426-30.6-24.56-21.007-32.045,6.2-51.518,42.549-42.957,89.806-46.93-1.7-12.86,10.751-47.8-13.562-53.547-62.6-59.664-29.976-6.77-15.257,31.838-38.2,18.029-64.545-7.445-32.292,16.954-28.82-19.144-45.234-47.384,8.727-79.8-13.9,30.516-74.134-33.2-32.873Z" transform="translate(1.653 1.24)" fill="#06c" stroke="#000" stroke-width="3"/><path d="M1994.5,36.445L1947.032,47.03l-78.354,104.731-14.844,51.27-52.885,67.437-100.224,68.8-42.089,3.967L1596.2,299.7l-54.743,78.394-17.526,3.144,5.335,15.424-20.507,44.492-54.743,56.933-28.987,3.806L1405.3,521.736l-17.529,11.452L1328.193,557.5l14.677,63.717-59.911,54.99-37.047-34.4-24.727-62.849-57.68-34.65-11.373-92.7-32.621-2.024-33.741-37.627-48.459,5.335L1009.859,397.9,994.187,369l7.606-32.954-12.28-49.16-43.371-20.093-0.828-16.868-10.584-7.692-62.021,23.2-6.531,83.977L815.155,393.9l-47.963,16.372-67.6-.949-23.566,24.393-21.094-81.087-39.4-54.041L438.109,251.333l-84.39,127.681-12.9,23.318,66.074,11.785,40.853,28.366-2.814,49.247,18.9,46.183,86.5,37.214L519.9,616.394,501,716.7,398.669,714.14,218.976,765.658l-31.751,39.817-32.873-4.3-69.3,153.69,30.6,114.038-7.112,15.339L0.832,1127.611l43.624,51.6,78.561,6.284,52.719,34.483,35.765,24.393,28.82-.333,29.481-12.527,73.473,35.144,63.8,11.785,38.536,29.4,111.681-26.175,43.624-23.031,44.653,26.009,43.992,123.174-2.978,98.861,46.93,43.911,112.423-.661,58.8-28.366,39.818,17.035-16.166,64.545,5.5,32.54L905.442,1730.9l173.369,44.406,85.587,49.822,0.868-68.552,32.706-115.315,53.627,33.574,96.337,23.031,65.413-12.775,31.01-36.512,44.325,22.7,79.964,14.925,43.624-19.725,37.708,87.035,31.344-11.372,25.181,20.012,147.927-12.773,24.479,21.623,16-5.168,13.643-30.516,123.875-48.625-83.189-55.076-5.5-81.66,15.424-30.062,39.737,28.487,32.54,2.564,5.83,32.292L2051,1592.38l16.086,3.473,24.727-21.254,59.83,19.392,63.8,0.333,12.447-10.831-1.529-45.234,46.516-44.325,22.284-61.153,57.68-24.479,131.815,20.921,28.446-17.035,68.885,47.55,48.873,10.256,7.359-15.172,81.746,54.909,11.619-2.564,59.129-24.313-1.529,31.879,26.422,18.811,172.581,42.175,53.047,13.148,126.318-39.571,115.234-14.637-5.663-81.746-41.842-72.277,13.229-29.9,29.728-3.473,35.311-54.743,99.563,10.337,44.078,23.318,12.694-7.773,7.525-42.8,89.39-43.527,98.614,13.315,114.654-6,40.6-27.952,52.179,34.316,48.212,10,16.085,23.321,6.284-14.471,28.9,0.868,32.212-83.563,85.753,44.325,78.808,82.942,33.034-1.943,37.789,30.142,56.6-2.811,28.033-93.9,52.265-60.325,16.373,0.58,4.22-32.954L4371,1088.675l41.014-73.64-61.526-61.607L4312.7,975.384l-66.609,6.531-27.952-15.586-12.9,9.509-50.856-35.932-10.5-26.422-38.824-19.225-38.789-31.584-48.212,6.531-35.6-72.938-51.6-78.889-31.838-4.341-17.115-26.175,8.227-83.275,12.86-31.838,26.67-20.84-29.976-127.267L3868.343,385.6l-11-48.706-146.578-12.113-2.978-32.54-24.31-22.868-61.526-25.262-16.54-3.144-88.03,43.124-13.315-68.057-41.347-26.67,11.2-43.992-25.428-18.15-4.921-38.909-29.728-13.4-15.586-62.021-128.63-4.3-20.174,34.981-95.22,71.618-28.118,38.2-16-.742,11.785-32.126L3109.2,70.951l-10-14.142L3035.732,0.62,2919.3,72.11l-60.664-25.348-46.183,21.254-63.384-22.45L2736.2,74.139l-67.851,8.888-10.746,135.248L2554.82,353.6l-16.247-23.98L2512.317,313.7l-59.5,29.809-88.9-47.258-57.68-61.193L2147.96,139.051,2110.5,46.267l-26.332-19.392Z" transform="translate(1.653 1.24)" fill="#06c" stroke="#000" stroke-width="3"/><text transform="translate(977.988 3363.156)" font-size="192.822" font-family="DejaVu Sans" font-weight="700" style="isolation:isolate">1</text><text transform="translate(568.726 3628.154)" font-size="320.252" font-family="DejaVu Sans" font-weight="700" style="isolation:isolate">7</text><text transform="translate(986.681 3125.545)" font-size="320.252" font-family="DejaVu Sans" font-weight="700" style="isolation:isolate">2</text><text transform="translate(1488.228 3475.826)" font-size="606.682" font-family="DejaVu Sans" font-weight="700" style="isolation:isolate">3</text><text transform="translate(2410.888 2480.887)" font-size="606.682" font-family="DejaVu Sans" font-weight="700" style="isolation:isolate">4</text><text transform="translate(710.918 2493.527)" font-size="606.682" font-family="DejaVu Sans" font-weight="700" style="isolation:isolate">6</text><text transform="translate(3415.709 1888.592)" font-size="606.682" font-family="DejaVu Sans" font-weight="700" style="isolation:isolate">5</text><text transform="translate(1829.488 1103.209)" font-size="606.682" font-family="DejaVu Sans" font-weight="700" style="isolation:isolate">8</text></svg>