<svg xmlns="http://www.w3.org/2000/svg" width="973.571" height="837.688" viewBox="0 0 973.571 837.688"><title>Députés sortants de la Moselle</title><path d="M142.863,471.319l0.4,7.246,10.394,2.5-3.77,6.3,9.883,1.865,4.464-3.744,5.793,7.324-6.29,4.412-5.125,8.149-2.428-1.761,2.147-5.249-1.891-2.1-4.8-.183-3.155-3.953-2.022,1.7-0.1,5.4-8.05.334,9.15,12.868-9.668,7.8-4.333,2.7-6.506-3.135-2.055,1.505-2.84-3.79,1.073-2.147,3.783-2.068,0.713-4.634-7.187-6.813,4.025-3.8-1.421-2.409,4.255,0.229-4.693-4.307,3.593-7.592,5.19-2.265-3.888-7.089-10.983-4.071-6.022-7.35-10.741,1.95-19.112-4.4-7.337-2.9,4.477-7,6.787-4.745-7.671-3.737-6.853-9.216-11.048-1.8-3.135-6.944-0.419-1.591,3.986-5.629,0.936-6.938,4.386,1.813,4.464-1.263-1.473-4.346,4.831-6.571,5.073-1.558,6.709-8.051,0.687-8.47,2.854,0.177,5.243,12.763,2.828,0.465,0.432-3.325L97.8,380.281l3.3-4.654,12.4-4.83,8.411-.779,4.143-3.888,3.155-1.767,6.892-.118,2.481,1.355,6.428-5.256,7.71-1.708,2.428,3.62-4.294,3.161,1.152,5.419,18.627-.668-1.329,5.642L164,377.965l3.181,4.87,5.38,2.049-1.152,5.184,9.255,10.669-1.06,2.644-2.036,11.029-10.355,16.546,3.77,6.1,8.908-.007,3.875,6.84-1.624,10.407-2.12,5.491-2.16,6.467-4.6,1.793-6.047-3.921-5.38-.831-3.7,4.071-5.432.956-8.044-1.407Z" transform="translate(-6.831 -150.612)" fill="#ff8080" stroke="#000" stroke-width="2"/><path d="M86.116,601.248l5.308,6.2,11.873-2.991,4.909,1.892-1.715,5.289,4.817,6.617,1.191,1.433,10.178-4.915,8.286,1.152,5.793,9.615-0.949,5.7,2.815,0.052-1.741,8.025,1.754,2.193,10.165,4,1.774-.635,2.009-6.82,4.523-1.97,2.134,1.407,2.854-.1,2.631,5.014,17.089-1.23-0.066-1.6,8.273,1.152,2.494,7.56,5.38,1.2,1.276,2.507,5.674,0.046,8.5-7.3,4.8,0.164,3.233,4.523,5.982,0.236,0.334,9.621,12.685-4.012-0.177,7.88,9.268,5.838,1.021-.563-1.25-7.481,9.137-5.864-4.222-6.683,10.5-12.024,1.878-9.6-17.423-7.35-4.294,2.939-1.663-5.642,1.866-11.389-3.927-4.385L238.364,602l-2.337-3.214-5.38-3.22-3.41-5.23,11.238-9.543,8.718-.137,3.672-3.914-8.345-7.815-2.736.6-1.741-8.168-5.59-8.888-2.887-.092-1.139-2.657,4.706-18.994-4.706-4.791-4.562.772-6.185-4.942-5.256-2.107-8.155,2.4-3.927-7.383,8.319-5.2-4.346-6.787,3.423-7.5-0.687-5.511-4.732-2.926-5.19-1.23-8.1-14.046-2.815.713-5.354,10.165-2.67,1.086,2.042,0.825,2.225,7.435-1.852,2.245,0.871,2.3-1.3,3.358,1.29,3.148-0.563,2.036,3.744,9.536-0.2,7.769-7.259,4.713,3.449,7.691-5.419,1.761-6.84-4.294-5,2.755-4.451-15.316,8.1-.275-4.078-10.446-6.761-5.014,2.134-5.256-1.891-2.095-4.791-.19-3.155-3.953-2.022,1.7-0.1,5.393-8.05.34,9.15,12.861-9.668,7.8-4.333,2.7-6.506-3.135-2.069,1.505-2.828-3.79,1.073-2.147,3.783-2.068,0.7-4.634-7.173-6.813,4.025-3.8-1.433-2.409,4.255,0.229L122.6,491.6,126.193,484l5.177-2.265-3.875-7.089-10.983-4.071-6.035-7.35L99.75,465.18l-19.112-4.4L73.3,457.888l-4.922.288L67,456.128l-5.1,1.25,2.723,4.641-6.977,3.476,0.753,2.579,5.138,6.748-0.55,8.037,5.446,6.683,1.584,2.186-3.351,4.732-14.635.1-13.817-.465-9.026-.281-2.094,8.077-1.218,5.688,8.869,10.5-3.822,4.268,0.268,2.9,9.176,8.849,3.26,11.755L48.711,549l3.233,4.11,7.173-.367,5.308,3.364,5.832,3.122,4-2.481,3.81,10.813,14.026,10.315,0.15,2.965-0.968,5.943,0.386,10.9Z" transform="translate(-6.831 -150.612)" fill="#06c" stroke="#000" stroke-width="2"/><path d="M177.887,466.3l-4.6,1.793-6.047-3.921-5.38-.831-3.7,4.065-5.432.962-8.044-1.407-1.8,4.346,0.4,7.246,10.407,2.5-3.783,6.3,9.883,1.865,4.464-3.744,5.793,7.324-6.29,4.412-5.125,8.149,4.346,3.259,4.064,10.446-8.1.275,4.451,15.316,5-2.755,6.84,4.294,5.419-1.767-3.449-7.684,7.259-4.713,0.2-7.776-3.744-9.536,0.563-2.029-1.29-3.155,1.3-3.351-0.871-2.3,1.852-2.252-2.225-7.429-2.042-.825,2.67-1.086,5.367-10.165,2.8-.713,8.1,14.046,5.19,1.23,4.732,2.926,0.7,5.511-3.436,7.5,4.346,6.787-8.313,5.2L204.276,522l8.155-2.4,5.256,2.107,6.2,4.942,4.562-.772,4.706,4.784-4.719,19,1.152,2.657,2.873,0.092,5.59,8.888,1.741,8.168,2.736-.6,8.358,7.815-3.678,3.914-8.718.137-11.238,9.543,3.41,5.23,5.38,3.22,2.337,3.214,2.736-1.054,3.927,4.385-1.866,11.389,1.675,5.642,4.281-2.939,17.423,7.35-1.878,9.6,10.25,0.936,3.941,9.746-1.165,2.376,2.317,3.057,1.61-.982,13.49-9.955-0.4-5.662-1.008-5.374,3.7-3.862-1.505-4.739,2.854-3.921,7.213-5.066v-5.93l-3.181-4.811,9.052-1.872-3.233-3.528-0.36-4.8L307.4,581.834l-4.386-8.267-4.411,3.083-5.177-.013,0.229-4.83-3.9-3.266,11.827-12.187,11.022,3.227,4.13,4.13,3.1-4.163-2.4-1.093,1.787-7.6L317,543.3l19.5-3.214,5.354,1.983-2.559-8.417-3.082-2.042-0.164-4.909,7.455-10.531,1.624-14.314-1.8-2.33-7.043,4.248-19.315-.308-1.675,4.078-5.269,1.244-6.787-4.5-0.779-2.808,3.986-4.2-5.354-10.008,5.112-10.309-4.117-10.793-10.773,4.268-1.9-2.284-3-8.142,5.125,1.532,1.754-2.127,0.19-10.728,6.906-3.737-2.467-7.147,2.631-3.79,5.367-6.179,2.186-7.854-5.793-9.844-7.363-3.606,2.912-.308,2.723-.543,4.549-6.715-4.372-9.484-11.251,1.878,0.6-5.662-8.345-1.453-4.117-3.862,0.576-5.2,5.177-2.343,4.732-5.21-9.484,1.2-3.8,4.13-8.077,2.952-7.514,8.574-2.873-.308-1.329,5.361-7.763,7.828-12.836-5.033-5.714.8-1.341-11.317-4.025-7.54,2.186-5.217L222.983,365l2.042-4.542-2.036-1.774-10.289-2.2-0.956,5.91L203,370.621l-5.432.425-2.657-4.863L184.465,376.23l-4.32-1.447L182.677,368l-6.964-1.427-5.014,3.58-1.329,5.642-5.308,2.153,3.194,4.863,5.367,2.055-1.152,5.184,9.255,10.669-1.06,2.644-2.022,11.029-10.368,16.546,3.783,6.1,8.895-.007,3.875,6.84-1.624,10.407-2.108,5.491Z" transform="translate(-6.831 -150.612)" fill="#06c" stroke="#000" stroke-width="2"/><path d="M611.048,645.087l-6.369,5.419-5.243-.694-5.164-6.329-1.6.137-1.636,8.646,7.566,3.921,4.745,10.767L599.9,678.023l8.313,2.88,8.718-.524,31.7,15.852,5.6,6.519-2.494,5.066,15.964-4.2,8.3,0.858,2.572,7.331-5.78,4.922-3.718.674-16.48.6,0.956,9.222-3.718,12.96,2.965,4.9,10.636-.321,7.5,2.795,1.624,4.843-11.788,5.779,1.263,5.315,5.662,5.694,3.5-4.5,10.583-4.078,6.99-2.1,5.367-1.872-2-7.926,3.678-4.372,5.55-1.505,4.208-4.012-2.912-11.245,3.744-7.645,13.718,2.186,1.918-4.582,4.425-2.481,5.112,9.6-3.836,4,9.026,6.185,4.771,0.694L746,741.485l-1.237-7.625,5.217-.308,10.138,9.778,7.108-4.464,2.415,3.043-6.735,3.142-2.84,4.071,6.945,5.04,1.741,5.5,5.177-4.189,11.546,7.259-0.117,6.421,9.955,15.551,2.645,0.537-11.631,12.874-3.1,17.417-0.406-.144-11.134,17.319-0.779,8.869-2.559,4.837-5.367-.609-4.562,2.8,8.319,16.232,2.481,1.132,2.559,7.756,2.723-.066,18.457,1.82L779.8,894.853l-7.481,4.5,5.282,6.388-11.186,20.5,4.719,6.912-4.935,2.566-8.358,12.567L746.187,964.3l-2.055,1.95-8.463-.288-4.509,2.9-3.41,10.06-10.355,7.219-0.334.923-8.372-2.533-8.26,1.859-12.5-6.951-13.32,5.753-6.8-5.55L655.5,977.322l14.059-2.095-0.936-2.716-13.208-5.5-6.906-9.1-5.819-15.25-8.384-.406-13.241-10.891,11.009-8.614,0.792-2.788-4.359-3.731-3.9,2.945-4.759-1.322-1.073.353-4.228-2.481-12.717,3.5-11.709-5.7,1.6-5.367L584.7,896.292l-5.014,1.82-1.944,7.638L571,909.52l-6.735-4.353-19.93,3.41-5.328-2.441-2.815-4.955-1.957-6.48-2.8-5.223L519.985,886.7l-17.3,3.547-4.732-4.379,1.878-4.68-7.527,1.159-0.628-2.8-2.8-7.448,1.178-4.556-2.657-.17-16.173,4.595-9.432-5.6-8.077-1.636-3.207-7.638-2.775.726-8.273,11.7-1.421-3.129,2.264-1.689,0.137-11.291,2.225-4.542-7.324-12.01-6.787-.262-3.875,3.338-9.576-9-4.771-1.355-9.831-.825-1.97-10.165-3.312-3.986-5.419-2.107-9.765-17.842-7.991.851-5.112,3.135-2.467,1.512-8.221-2.664-4.477,3.305-2.67.314,1.113-4.843-9.713-9.209-16.54-1.852-4.32,1.211-1.29-11.127-5.125-1.6-4.987-6.859L286.964,778.93,283.554,774l-9.949-3.462-6.853,4.281-1.728-10.485-4.451-10.04,5.511-5.609-1.918-2.042-8.116,1.656-3.718-3.135,0.615-4.824-1.23-2.376-12.658,1.787-4.267-2.618,9.589-4.307,7.593,3.07,4.255-6.558-5.367-1.878-7.645-1.021L238.3,729.1l-10.786-8.371-1.407-4.863,8.142-2.605-1.486-11.807,7.121,2.533-1.218-10.027,0.2-2.474-6.146-3.554,7.848-8.24,7.979-3.148,0.936-7.56,1.021-.569-1.25-7.475,9.137-5.864-4.222-6.683,10.5-12.024,10.25,0.936,3.941,9.746-1.165,2.376,2.317,3.057,1.61-.975,13.49-9.955-0.4-5.662-1.008-5.367,3.7-3.868-1.519-4.739,2.867-3.921,7.213-5.066-0.013-5.93-3.168-4.811,9.052-1.872,3.273,5.59,3.22,5.177,13.32,6.035,7.861-.831,0.484-.308,16.186-2.121,5.59,8.751,2.546,0.517,3.41-3.626-0.36-5.2,2.887-4.307,3.757-4.163,7.554,6.591,8.031-8.672,0.615-6.139,3.691-6.735,1.505,0.19,11.86,2.291,10.381-15.25,9.654,5.1,0.956,2.677,4.306,0.367-7.913-12.148,2.559-11.317,10.25-8.7,3.5,4.556,13.9-2.284,0.923-10,10.852-4.333,1.571-4.2,17.823-2.252,6.918-.2,9.32-4.49,0.32-2.579,16.874-7.7,0.36,0.367,2.618,8.424-8.862,7.887,15.381,2.422-2.323,7.056,1.558,5.23,1.473-.3,14.085-2.356,1.276,11.218-5.151,9.045,5.177,2.186,1.329,5.5,10.217,1.892,1.263,2.428-2.618,3.927,1.931,4.412,6.185,9.15,1.663,5.138-1.544-2.284-8.208-.412L552.4,606.2l-7.991.7-2.481,1.335-0.884,5.57-10.956,7.776-3.155,4.634,5.485,0.943,12.41-6.283,11.572-2.795,8.476-8.365-2.762,5.04,10.178,9.857,9.949-2.252,8.044-1.034,11.147,7.743,14.877,2.036-2.8,6.5Z" transform="translate(-6.831 -150.612)" fill="#06c" stroke="#000" stroke-width="2"/><path d="M922.109,644.6l-4.856-6.99-8.116-1.145-14.563-5.773-5.046-9.68-11.2-1.23-3.436-4.254-12.449,6.028L848.685,623.8,841.9,628.45l-6.906,1.283-6.572-2-5.026-2.474-2.2,1.721-6.545,5.086-5.459.157-3.718,4.117-11.349-8.45-0.55-2.782-8.489.1,1.715-7.1-1.584-1.859,1.944-4.693-31.129-12.737-15.957,6.408-7.494-11.6-5.354.007-6.676-10.688-7.108,3.456-0.589-2.769-16.939.157-4.464-15.244-3.273-6.761,1.9-5.027-7.3-6.9-2.442-13.359,0.687-2.782,5.61-.334,0.968-4.974-5.432-1.7-3.312-4.5-5.688,6.375-7.991-1.479-2.069,2.022-1.355,5.4,2.069,5.217,3.527,5.851-13.221,16.756-3.057,10.813,1.636,7.776-3.07,7.462-4.771,3.41-3.678,8.07,3.338,8.286-0.589,2.932-5,2.939,2.546,11.546H638l-3.973-1.381-14.609-2.415-3.168,9.248-14.864-2.036-11.159-7.743-8.044,1.034-9.949,2.252L562.055,614.7l2.775-5.04-8.489,8.365-11.559,2.795-12.41,6.283-5.5-.943,3.168-4.634L541,613.756l0.884-5.57,2.481-1.335,7.979-.7,2.873-4.673,8.208,0.412,1.532,2.284-1.663-5.138-6.185-9.15-1.918-4.412,2.6-3.927-1.25-2.428-10.224-1.892-1.316-5.5-5.177-2.186,5.138-9.045L543.7,549.279l6.683-2.317,5.446-6.349,16.736-9.746-15.224-4.248,0.164-.687,15.008-7.089-0.936-11.055,3.822-3.561,5.793,0.707,7.566,12.24,4.562-3.358,2.762,0.151,0.871,5.249,10.741-2.062,1.571-24.283,6.84-8.28,1.1-2.448-3.659-11.533-2.572-.681,0.131-7.717,3.927-10.59,4.183-3.188,3.082-2.075,11.055-7.062,1.008-8.365-2.2-5.105,2.684-1.237,7.481,3.8L639.3,442.814l3.273,14.354,6.48,13.287-0.078,8.81,0.15,8.685,6.722,4.791,5.217-2.546,2.926-8.1,9.668-6.08-4.156-7.7,0.373-8.463,8.313-2.6,5.59,0.9,1.486,2.52-4.025,4.228,0.36,5.668,11.507-2.14,3.757,7.671,15.087,9.693,2.939-5.223,11.572-2.31,6.225,6.414,1.263,5.864,7.108-8.267,19.1-4.091,2.042,1.97L779,483.656l2.415,4.837,5.407,2.042,5.956-7.573,5.328-10.59,6.826-5.871,20.48-1.479-0.19-2.808,2.081-20.028,8.528-2.782,35.652-7.448-4.589,16.527,6.65-3.79,4.2,4.189,10.583-3.947,8.627,0.216,2.081,8.581,4.575,3.757,0.131,2.958-7.776,11.906,5,2.52,3.554,8.018,7.173,4.562,3.364,11.009,4.064,7.39,15.407,12.534,5.354,2.095,17.4-2.625,15.381,8.155,4.386,16.324,2.239,5.138-7.271,12.213L960.987,571.3l1.06,8.136-10.9,16.448,2.009,5.256-5.537,10.328,0.654,5.6-2.022,3.75-14.779,16.435,1.931,4.994Z" transform="translate(-6.831 -150.612)" fill="#06c" stroke="#000" stroke-width="2"/><path d="M540.235,423.931l0.576-5.91-7.514-9.189,1.544-2.54,10.021-6.3,14.661,8.96,5.269,0.779,16.7-10.976,5.858,0.812,4.883,7.121,5.55,6.565,2.239,1.918,10.57-4.117,12.377,12.22,5.164,0.452,2.775,4.359,1.316-2.245,2.2,5.105-1.021,8.365-11.048,7.062-3.082,2.075-4.183,3.188-3.927,10.6-0.137,7.71,2.572,0.681,3.672,11.533-1.1,2.448-6.84,8.28-1.571,24.283-10.741,2.055-0.871-5.243-2.775-.151-4.549,3.358-7.566-12.24-5.793-.707-3.836,3.561,0.949,11.055-15.008,7.089-0.177.687,15.237,4.248-16.736,9.746-5.446,6.349-6.7,2.317-14.085,2.35-1.473.308-1.558-5.23,2.323-7.062-15.381-2.415,8.862-7.887-2.618-8.424-0.36-.373L514.1,510.6l-7.056-7.344-0.792-5.027,6.25-13.378,0.779-10.3-3.043-4.228L502.6,468.55l-3.77-3.783-0.334-8.044-3.849-3.777,3.142-7.023,5.753-.425,27.994,14.275,5.217-3.521,2.147-1.61-1.329-2.317-0.334-10.872,7.808-2.409,1.218-2.441Z" transform="translate(-6.831 -150.612)" fill="#ff8080" stroke="#000" stroke-width="2"/><path d="M336.228,503.8l-19.315-.308-1.675,4.078-5.269,1.244-6.787-4.5-0.779-2.8,3.986-4.2-5.354-10,5.112-10.315L302.029,466.2l-10.773,4.268-1.9-2.284-3-8.136,5.125,1.525,1.754-2.127,0.19-10.728,6.906-3.737-2.467-7.147,2.631-3.79,5.354-6.172,2.2-7.861-5.793-9.844-7.363-3.606,2.912-.308,2.723-.543,4.536-6.715-4.372-9.484-11.238,1.878,0.589-5.662-8.332-1.453-4.117-3.855,0.576-5.21,5.177-2.343,4.732-5.21-9.484,1.2-2.631.452,0.432-5.177-4.438-2.886,4.575-3.849,2.7-17.456,3.836-4.588-5.341-7.4,18.229-8.7,2.12-7.278,4.778-2.029-2.317-3.148-1.047-2.638,5.832-6.2,11.827-7.357-10.316-4.169,10.5-5.727,14.393,2.54,0.334,7.069-1.944,1.427,8.869,5.256,10.1-3.7,4.117-.89,8.319-8.253,15.395-8.509-1.237-2.513L370.4,272.8l5.472-9.288-1.5-11.048,7.148,5.112,5.864-.137,4.771,3.41,1.087,11.441,7.442,4.025-6.735,12.7L389.7,285l-5.524-1.067-2.585,1.368,0.216,5.819,7.4,12.135,7.468,1.23,0.687,5.086-2.481,4.765,15.073,16.573,5.341,1.2,3.423,4.49,10.741,7.35,1.218,5.361,8.129,0.582L435.288,369.6l12.672,4.483,2.507,4.994-2.055,2.107,4.359,22.313,2.428,1.689L469,401.9l4.745,10.826-9.9,14.6,3.836,11.042,5.793,6.316,4.359,3.921,5.511-1.152,8.836,0.674,5.59-2.134-3.135,7.023,3.849,3.783,0.32,8.037,3.783,3.783,7.618,1.774,3.057,4.228-0.792,10.3-6.25,13.378,0.792,5.027,7.069,7.344,5.367,9.962-16.874,7.7-0.334,2.579-9.32,4.49-6.918.2-17.823,2.245-1.571,4.2-10.852,4.333-0.923,10-13.882,2.284-3.515-4.556-10.25,8.7-2.559,11.317,7.913,12.148-4.306-.367-0.956-2.677-9.654-5.1L407.25,593.38l-11.86-2.291-1.505-.19-3.691,6.735-0.615,6.139-8.018,8.672-7.566-6.591-3.757,4.163-2.873,4.307,0.347,5.2-3.41,3.633-2.546-.524-5.577-8.744-16.186,2.114-0.5.308-7.861.838-13.32-6.041-3.22-5.177-3.273-5.59-3.233-3.528-0.36-4.8-0.857-10.086-4.386-8.267-4.411,3.083-5.177-.013,0.229-4.824-3.9-3.266,11.827-12.194,11.022,3.227,4.13,4.13,3.1-4.156-2.4-1.093,1.774-7.605-2.2-7.56,19.5-3.214,5.341,1.99-2.546-8.417-3.082-2.042-0.164-4.909,7.455-10.525,1.624-14.321-1.8-2.324Z" transform="translate(-6.831 -150.612)" fill="#ff8080" stroke="#000" stroke-width="2"/><path d="M89.3,237.93l2.631-.785L91.764,234.4l-5.649-5.616,2.9-4.647L85.808,222.2l3.1-4.51,1.8-10.8-8.313-2.166-0.857-2.742-13.706-1.741L57.258,204.1l-1.519-2.553,3.541-4.719-6.369-5.864-2.239-20.382L42.4,167.922l-5.524-5.4-5.138-.275-5.472,1-8.1-2.435L7.938,164.846,9.96,178.362l4.255-2.9,7.148,1.63,6.722-2.33,1.473,4.5,4.372,2.121-3.3,4.654,4.228,16.723-6.139,5.2,6.408,13.863-7.782,3.325-4.771,7.128-0.654,5.21-3.73,3.862,4.49,2.533,5.432,2.638L31.1,264.084l-5.714,6.742,4.8,3.089,4.222,7.462,8.411-.746,4.156,12.776,8.234,1.512-8.653-.007-10.8,3.907,4.281,10.963,11.788,9.36,7.213,9.667,6.624-7.743,5.04,5.76-1.787,15.708-1.394,11.552,5.229,2.6v5.446l-1.073,5.688,11.827,8-1.826,5.59,1.113,8.672,1.6,0.183,0.687-8.47,2.854,0.183,5.256,12.763,2.828,0.465,0.432-3.332L97.858,380.3l3.3-4.654,12.4-4.83,8.411-.779,4.143-3.888,3.142-1.767,6.906-.118,2.467,1.355,6.428-5.256,7.724-1.708,2.415,3.62-4.294,3.161,1.165,5.413,18.627-.661,5-3.58-7.684-10.152,4.183-6.624-2.709-4.667-1.741-5.374-8.345-7.56-0.347-1.034-1.957-5.1,6.761-8.175-6.814-3.849-4.438-6.853-10.368-2.284,8.319-11.474-1.394-2.546-9.412-6.251L132,288.4l-0.117,5.786-9.91-4.464-4.208,2.173-4.536-2.945-4.87,1.322-8.077-7-0.4-.406,9.255-17.155-8.064-1.878L99.641,261.4l0.32-5.1,10.786-6.277-10.355-4.339-7.736,3.089Z" transform="translate(-6.831 -150.612)" fill="#ff8080" stroke="#000" stroke-width="2"/><path d="M231.734,177.851l13.49,3.953,7.749,8.738,5.354-1.263,2.055,2.016,2.3-.864,7.311,6.46,2.481-.288-0.7-5.76,19.812,0.5,10.689-8.6,5.256,1.329,4.771,6.676,7.514,2.376,7.927-.72,9.294,10.5,8.718,2.337,11.081,10.145,8.313,3.168,10.7,12.933-9.065,6.886,1.2,8.43,4.791,0.943,1.624,4.719,1.5,11.048-5.472,9.288,5.269,0.321,1.237,2.513-15.395,8.509-8.319,8.253-4.117.89-10.1,3.7-8.869-5.256L332.1,290.3l-0.347-7.069-14.393-2.54-10.5,5.727,10.316,4.169-11.814,7.357-5.845,6.2,1.047,2.638,2.323,3.148-4.791,2.029-2.12,7.278-18.229,8.7,5.341,7.4-3.836,4.588-2.7,17.456-4.575,3.849,4.451,2.886L275.98,369.3l2.631-.452-3.8,4.13-8.077,2.952-7.5,8.581-2.887-.314-1.329,5.361-7.763,7.828-12.836-5.033-5.714.8-1.329-11.317-4.038-7.54,2.186-5.217-2.572-4.045L225,360.5l-2.036-1.774-10.289-2.2-0.956,5.91-8.745,8.221-5.432.425-2.657-4.857-10.446,10.04-4.32-1.447,2.533-6.787-6.964-1.427L168,356.451l4.183-6.617-2.709-4.673-1.741-5.374-8.345-7.56-0.347-1.034-1.957-5.092,6.761-8.175-6.814-3.855-4.451-6.853-10.368-2.284,8.332-11.474-1.394-2.54-9.412-6.251-7.749,3.724-0.131,5.793-9.9-4.47-4.208,2.173-4.536-2.945-4.87,1.322-8.077-6.99-0.4-.412,9.255-17.155-8.077-1.878L99.632,261.4l0.32-5.092,10.786-6.277-10.355-4.339-7.736,3.083L89.3,237.924l2.631-.785-0.164-2.749-5.649-5.609,2.9-4.647L85.807,222.2l3.1-4.516,1.8-10.8,7.9-15.06,8.639,0.321,8,7.939,8.09,2.468-0.445-11.893,4.2-4.084,8.129-2.526L139.36,169.8l8.345,2.913,7.2-4.647-0.419-8.293,10.236-5.046,2.481,1.433,20.63,0.2,0.15-2.71,10.368,1.643,3.927-3.521,18.627,7.409,2.454,8.037,4.948,6.159,5.432-1.067Z" transform="translate(-6.831 -150.612)" fill="aqua" stroke="#000" stroke-width="2"/><text transform="translate(762.524 430.689)" font-size="102.746" font-family="DejaVu Sans" font-weight="700">5</text><text transform="translate(534.201 343.165)" font-size="102.746" font-family="DejaVu Sans" font-weight="700">6</text><text transform="translate(344.951 310.819)" font-size="102.746" font-family="DejaVu Sans" font-weight="700">7</text><text transform="translate(182.639 142.43)" font-size="102.746" font-family="DejaVu Sans" font-weight="700">9</text><text transform="translate(34.739 133.809)" font-size="73.088" font-family="DejaVu Sans" font-weight="700">8</text><text transform="translate(93.248 307.49)" font-size="102.746" font-family="DejaVu Sans" font-weight="700">1</text><text transform="translate(198.848 343.165)" font-size="102.746" font-family="DejaVu Sans" font-weight="700">3</text><text transform="translate(136.045 472.548)" font-size="102.746" font-family="DejaVu Sans" font-weight="700">2</text><text transform="translate(475.692 609.543)" font-size="102.746" font-family="DejaVu Sans" font-weight="700">4</text></svg>