<svg xmlns="http://www.w3.org/2000/svg" width="517.526" height="985.221" viewBox="0 0 517.526 985.221"><title>Députés sortants de la Meuse</title><path d="M91.622,832.471l4.23-12.76-5.077-9.333L89.783,800.6l9.735-7.714L97.579,783l-10.137-3.527,1.186-5.09,8.4-6.572-3.8-9.327L100.4,761.1l1.751-1.908-5.248-9.647,1.632-16.131-10.482-.527-4.387-2.906-0.383-2.316L69,711.723l-2.442-1.9L59.2,698.674l-0.59-5.084-5.1-1.45-16.783-3.7-0.232-.6-1.544-2.159,3.37-7.023-4.049-6.634,7.551-8.53,5.7-5.184,11.668-5.147,1.017-6.164L55.5,644.626l-2.843-9.616L46.8,629.669l0.439-2.655,5.323-12.785-1.581-5L47.5,606.772l1.18-1.757,2.266-5.034,6.459-5.385,2.159-7.683,9.54-7.118,1.7,2.335,8.567-.678,12.6-6.634,8.486,0.232,0.684-7.187,8.976-7.1,3.64-16.087-4.18-3.672L91.159,537.9l6.408-8.279,12.923-1.99-0.025-5.027,3.164-7.551-1-8.141-0.195-1.613L98.96,495.433l-23.1,11.128-0.684-.358,18.635-23.675,2.881-7.6,2.134-8.982,6.986-.992,4.77,5.341,9.427,5.812,18.647-4.758-1.7,4.77,3.471,7.2,7.909,0.364,11-1.814,6.609-5,13.275-4.488-0.169,2.686L191.8,487.437l17.028-6.54,1.312-5.1,6.892-.584,0.49,1.488-2.981,4.588,1.08,8.116,4.927,6.666-2.674,4.576-0.49.389-8.743,4.538-3.05,4.174,0.1,5.655,2.661,1.036,4.281,13.658,4.914-1.714,9.829,2.517-0.075,6.672,8.229-6.9,15.534,4.714,5.3-1.136,7.024,11.907,2.184,1.764,5.209-1.789,1.657,2.278,3.383,7.482,9.157-5.624,3.766-2,12.848-1.82,10.677-3.559,14.266-13.771,10.042-5.184-5.543-10.181,1.168-2.209,4.7,1.776,9.377-3.233,3.4-7.388-5.85-5.53,7.858-7.212,13.155-.113,10.325-1.933,4.55,2.335,10.557,0.232L404,504.754l-5.467,7.45,2.944,1.23,12.359-2.253,1.18,2.379,6.609,7.632,2.466-.54,4.733-1.155,10.852-6.145,7.958-2.366,8.875-6.39,2.084-7.733,12.9,9.3-0.169,2.7,4.808,1.538,3.358-3.709,4,2.316,6.716-2.636,7.319-3.935L508.7,481.1l-6.176,4.67L491.18,474.984l0.051-2.85,6.007-8.856,10.921-7.864,11.33,8.022,5.392-1.488-1.186,10.024,2.561,1.218,13.507-3.333,1.286,10.519,8,10.331-11.059,6-1.682,4.607-4.5,6.051-3.8,11.838,1.789-2.14,2.548,1.029-0.439,2.749-9.942,13.25,0.9,2.617,7.161,2.975,6.7,3.289,10.017,12.158-1,7.676h-5.172l-3.321,6.358-7.538,1.23-9.415-3.138-12.221,17.179L494.87,587.7l-2.611,4.764,3.27,1.8,1.958,0.044,0.22,2.473,6.829,12.038,9.572,5.869-0.747,7.871-4.877,1.682-6.534,2.542,2.241,10.865,3.075,2.04,3.3,17.6-5.887,23.041L498.2,684.94l2.241,5.925,8.58-4.839-1.092,7.965-5.492.822-13.94,13.62-2.059,5.109,3.716,7.074L489,723.158l-11.668,4.707-2.7,2.906,5.712,5.316-3.05,4.161L484.247,747l0.515,0.615,9.647,8.084L501.6,766l-4.657,7.369-5.172,15.308,1.457,4.977-2.354,8.04,4.155,12.409,2.159,3.666,2.466,4.733-1.375,7.959,1.117,0.232,2.071,1.594,5-1.513,8.718-5.718,7.187,2.3-2.931,9.34-4.324,5.141-13.708-.483-5.028,1.193-7.1,7.77-12.553,4.4-2.479,11.718,0.86,2.724,0.283,8.869,7.024,7.061,8.386,0.9,9.879,4.946,7.193,4.576-0.415,2.667-4.619,2.511-3.176,10.256,0.954,4.293L501.9,931.05l-6.044,5.887-4.117,10.4-1.958,1.412-1.18,6.942-13.155,4.042-10.933-2.09-2.931-3.163-7.049-3.333-10.406.207-1.889,1.814-4.7-2.3-1.211-.464-1.814,1.7,6.289,7.651-0.565,4.657-12.064,4.959-3.484,4.243-0.916,10.369-1.958-7.883-13.733-1.287-4.758,2.919-2.008,5.235-5.348-1.707L396.7,978.7l-3.822-3.352-9.095,5.228-15.177,4.061-2.894,10.375,2.122,4.984-5.272,1.18-5.887-5.385-5.285.289-6.935-4.218-2.881-3.546-4.89,2.266-5.1-1.864-0.916-2.567-2.466-4.959-5.53-.157-10.52-8.957-2.969-7.745L310.3,956.1l-2.611-3.954-1.644-2.322-11.072,1.029-4.243-3.741-0.383.245-10.25-4.613-11.794-22.012-5.6.7-6.007-6.019-5.272,6.12-3.521-1.77-0.91-2.555-7.909-.49-23.2-13.256-3.822,3.465-5.172-1.864-2.755-6.986-6.609-2.485,1.237-4.927-12.942-8.442-4.092-6.609-6.867,4.036-4.632-2.247-4.839-6.1-3.935-7.588-4.9-5.473,0.835-7.118-13.206,2.216-13.017-2.385-5.812-15.547L123.9,821.574l-2.636-.464-10.042,15.616-14.148,1.751Z" transform="translate(-33.035 -17.041)" fill="aqua" stroke="#000" stroke-width="2"/><path d="M62.876,371.471l6.019,12.723,5.85,13.683L80.2,415.463l1.958,3.584,3.3,4.858,6.2,13.024,0.759,11.605,3.251,21.66,1,4.726,2.134-8.982,6.986-.992,4.783,5.341,9.415,5.812,18.647-4.758-1.7,4.77,3.471,7.2,7.909,0.364,11.009-1.814,6.609-5,13.275-4.488-0.169,2.686,12.735,12.371,17.041-6.54,1.312-5.1L217,475.21l0.5,1.488-2.994,4.588,1.08,8.116,4.927,6.666-2.661,4.576-0.49.389-8.756,4.538-3.038,4.174,0.088,5.655,2.674,1.036,4.281,13.658,4.914-1.714,9.816,2.517-0.075,6.672,8.235-6.9,15.534,4.714,5.285-1.136,7.024,11.907,2.2,1.764,5.209-1.789,1.657,2.278,3.37,7.482,9.157-5.624,3.779-2,12.836-1.82,10.689-3.559L326.5,529.107l10.042-5.184-5.53-10.181,1.155-2.209,4.7,1.776,9.377-3.233,3.408-7.388-5.862-5.53,7.858-7.212,13.155-.113,10.325-1.933,4.563,2.335,10.545,0.232,13.739,14.279-5.454,7.45,2.944,1.23,12.346-2.253,1.186,2.379,6.6,7.632,2.479-.54,4.733-1.155,10.852-6.145,7.946-2.366,8.875-6.39,2.084-7.733,12.911,9.3-0.169,2.7,4.808,1.538,3.358-3.709,4,2.316,6.716-2.636,7.306-3.935L508.662,481.1l-6.176,4.67-11.33-10.789,0.051-2.85,6.007-8.856,10.909-7.864,11.33,8.022,5.4-1.488,5.956-8.637,2.059-1.883-2.856-18.215-5.36-.245-16.244-.245,0.6,2.109-3.164,3.019-6.622-3.113-2.7-4.086-3.628-7.281,3.321-7.406,9.22-6.189-8.448-2.115,1.927-5.122-0.358-2.837-5.2-2.285-1.469-5.329,10.325-29.4-4.488-2.843-3.728,1.983-10.714,2.755L479.5,361.2l1.751-2-3.508-12.591,4.7-6.383,6.327-4.2L480.6,324.051l-2.3-2.391,4.035-7.337-2.008-10.708,19.294-8.034,3.935-16.5-2.869-11.907-3.164-.075-4.167,3.716-9.132-.86-5.982-15.673,8.743-7.193,1.142-5.724-0.942-8.04-3.2-4.425-10.325-1.946,1.412-7.388-3.779-9.54-10.933-7.909,3.345-2.831-0.759-4.055-0.182-10.595-5.209.477L454.8,181.4l-23.11-15.459L422.41,172.1l0.389,5.624-5.172.891-0.346,2.8-4.306-3.433-7.551,3.6-7.639-3.006-0.91,2.027-8.448,1.444-11.342,8.605-17.129.245L358.6,201.6l-6.2,9.082-2.147.659-3.791-5.486,1.62-5.015L340.6,199.53l-8.567-5.831,0.182-.063,13.131-4.243,3.848,4.086,7.977-2.31,6.854-11.838-4.582-2.366-2.1,1.739-12.283-4.739,4.143-3.854,3.3-10.369-11.228-5.919,3.754-7.369-2.184-1.142-1.494-6.728,2.071-7.8-2.4-1.268-1.211-1.688h-2.749l-0.37,2.73-7.319-4.256-8.461-.019,4.206-3.879,4.337-10.482,12.076,11.191,0.32,2.542-2,2.122,1.186,1.695,5.36-.283,4.657-9.164-6.176-2.837-2.466-1.419-1.532-8.235-8.656-7.331,8.976-6.835,0.659-8.31L329.73,73.584l-0.641-1.531,2.623-1.029,4.049-10.338-7.733-3.157-5.517-15.955,1.054-2.624L303.581,18.615l-6.327,9.371-2.366,10.771-8.4.464-4.745,2.724L275,37.463l-16.966,25.79,1.915,2.925-14.624,5.643-3.9,6.791-7.651,1.933L227.943,68.3l-9.12-4.544-0.169-5.636-10.789-3.233L201.035,58.9l-7.689-1.274-4.927,2.09-4.839,2.875L178.923,60.1l-3.74-8.178L171.3,41.587l-13.815-2.868-4.525,3.5-2.768,8.153L154.1,63.881l-2.661,5.6-6.559-2.04-3.421,13.488,4.306,6.352-4.193,10.331-2.316.621-4.324,9.547-7.921,1.054-1.443,2.241,7.833,14.806,2.856,0.257,2.479,4.77-0.835,8.373,6.854,8.191,2.6-.709,1.18,0.9,3.728,3.226-4.8,12.653,2.806,10.783L155,180.167l-3.026,4.18-5.348,1.343-7.921,7.595,2.222,4.883,8.26,7.243-2.843,10.243-5.429,6.27-15.164-1.544-3.264,4.425,0.916,5.473L108.1,249.78l0.734,2.674,0.477,5.172,4.67,8.034-4.167,3.866,0.244,2.718,5.838,9.383,7.958,2.73,1.469,2.962-5.159,5.222,0.785,7.614-8.1,2.316-5.429-1.488-7.9,3.069-6.6,4.6,0.653,2.617-17,9.534-4.143,7.218-4.94,2.53,10.595,1.086,3.6,12.9,7.614,7.275L82.151,360.3l-8.235,2.059Z" transform="translate(-33.035 -17.041)" fill="#ff8080" stroke="#000" stroke-width="2"/><text transform="translate(229.551 761.667)" font-size="98.529" font-family="DejaVu Sans" font-weight="700">1</text><text transform="translate(206.803 333.897)" font-size="98.529" font-family="DejaVu Sans" font-weight="700">2</text></svg>