<svg xmlns="http://www.w3.org/2000/svg" width="971.24" height="805.866" viewBox="0 0 971.24 805.866"><title>Députés sortants de la Marne</title><path d="M350.561,202.937l-15.718-19.116-5.851-8.457-8.561,11.25-8.6,2.314-21.2,10.215L288.39,211.1l3.064-.313,2.224,8.95,13.641,6.775-3.731,8.881,6.164,0.188,14.5-5.364,18.241-.222,1.7,2.627,1.494,2.453-8.832,7.776-1.084,12.2-4.815,4.155,1.876,1.765,0.709,9.457,4.788,11.3,0.028,9.471-2.495,1.918,10.937,0.584,7.943,3.363,6.205-3.62,2.495,1.258,5.934-5.545-2.536-10.632,4.544-3.62,14.343,23.536L383,301.4l1.64,3.315-5.357,2.634-0.6,2.251-0.146,3.127,5.142,1.744,6.108-6.567,4.315,6.309-1.612,2.453,2.182,0.869,2.793-.806,2.133,3.711,3.245,3,5.941,1.605,6.108-.208,4.072,5.573,8.13,5.774,0.514-16.608-6.3-12.918,0.014-9,10.409-5.656,12.619,7.115,5.469-1.466,0.431-2.745,7.38-2.654L460,287.281l17.212-7,4.628,3.69,2.717-1.237,4.2,7.79,4.857-3.259,2.731-11.528,7.588-5.142,0.271-4.475-3.9-6.615,15.065-4.28,17.768,3.5,11.563-4.788,10.833-4.968-10.625-18.414-1.369-1.973,3.586-3.238-12.063-2.168-8.873-8.964-6.282-14.377-2.96.4-1.265-1.9-11.181-1.584-4.843-3.329-7.3,3.7-7.275-13.529,1.452-2.126L472.3,180.7l-14.28-2.106-16.629,2.057h-5.17l-12.376.354-3.787-.042-5.635-2.891-12.647-.792-4.572,7.672-1.848,11.862L394.4,218.787l-13.439,1.445-2.675-8.255L365.542,201.54Z" transform="translate(-16.214 -173.662)" fill="#06c" stroke="#000" stroke-width="2"/><path d="M195.026,409.873l-3.273-4.037-5.086-1.181L169.5,409.8l-17.914-2.314-1.967,1.431-0.757,2.015,13.467,8.8,5.7,9.958L161.56,439.9l11.688-2.161,4.913,3.738,5.955-1.647,15.19,9.339-0.813,2.474,4.725,6.226,7.977-1.828,4.156,3.759,2.418,0.57,20.346,10.444,6-1.021,3.419-.334,5.906,0.9,3.9,4.7,8.63,2.766,12.258-2.106L270.2,471.7l-1.084-2.849,0.639-6.073,4.044-4.558L272.42,455.5l8.415-6.56,8.457-4.781,2.078,0.257,1.411-4.975,2.78-.188,12.132,0.1,0.215-9.054-2.752-13.4,3.245-7.88,17.657-19.616,7.372,3.53,1.591,8.325,3.092,3.231,3.245-8.332-4.4-11.132,19.679-6.011,7.672-14.843-1.953-2.112,14.738-5.281,2.974-5.038-1.939-2.258,2.446-5.448-1.438-2.62,2.918-3.03-0.714-12.66,2.731-.1,10.083,10.034,4.656-4.253,0.855-4.927,3.162-3.064-3.259-3-2.133-3.711-4.982-.063,1.612-2.453-4.315-6.309-6.108,6.567L378.5,312.7l0.743-5.378,5.357-2.634-1.64-3.315,2.717-2.967-14.343-23.536-4.544,3.62,2.536,10.632-5.934,5.545-2.495-1.258-6.205,3.62-7.943-3.363-10.937-.591,2.495-1.911-0.028-9.471-4.788-11.3-0.709-9.464-1.876-1.758,4.815-4.155,1.084-12.2,8.832-7.776-1.494-2.453-1.7-2.634-18.241.229-14.5,5.364-6.164-.188,3.731-8.887L293.642,219.7l-2.224-8.95-3.064.313-5.066,3.4,6.164,9.909-1.862,5.7-2.05,2.21L274.6,227.467l-5.323-6.1L257.064,219.7l-5.851,1.751-7.831,3.5-1.411-2.515-11.646,7.435-6.719-.486-3.175.507,0.556,7.831-3.446,3.078-14.071,1.341-11.4,4.948-3.349,1.466-10.764,2.029-3.759,5.066-8.985,2.891-2.974,11.514-2.481,1.716,2.9,4.955,7.491,4.35,1.807,3.905-4.329,7.38,7.957,8.325-5.837,5.948,8.86,20.013,2.821,0.591,1.168,2.724L176.076,342.6l-8.575,1.39,1.967,7.79,4.572,3.6,8.331,1.557,3.12,7.692,9.158-7.129,4.246,5.4-4.2,7.908,5.281,10.486,11.431,4.788,8.756-3.3,6.205,0.862-1.452,17.316-5.385,1.487-13.314,8.887-8.1,3.467Z" transform="translate(-16.214 -173.662)" fill="#06c" stroke="#000" stroke-width="2"/><path d="M491.475,461.822l3.287,3.718-13.585,16.629-9,4.267L465.1,506.621l4.259,7.685-1.008,2.932-0.271,1.612-23.862-1.8-10.562,4.968-5.566-2.543-2.675.945-9.7-4.829-7.678,5.059-2.96-4.517-5.608-.73-4.315-3.731L393,513.555l-5.128,31.951-6.094.368-5.768,7.157-3.092-.014-6.08-6.824-5.253-15.711-17.546,3.224-2.634,1.147-3.287,5.26-4.982-3.231-8.186-.472-6.337,1.1-8.77,1.654-5.128-3.106-11.181,4.795-5.024,11.035-4.982,3.6-11.9-2.71-8.172,3.537,1.181,12.167,3.829,8.283,17.288,2.738,6,2.668,3.363,4.857,5.142,1.626-1.168,2.724,2.592,1.431,5.58,1.911,11.153-3.551,6.421,16.92-14.606,5.232-13.71-7.185-0.855,2.752,6.761,5.364-1.112,2.675-3.759-4.267-8.172-2.522-2.835.028-1.084,5.615,0.341,5.677,13.543,18.713,6.99,5.5,3.349,11.611,6.907,9.388-5.385,2.377-3.988-4.3-9.826,1.973-8.359,10.785-0.5,1.918,5.809,1.932,5.281,7.428,14.356,11.4-0.341,3.05-5.684,2.286-11.591,2.377-2.578,8.554-3,.035-7.672-8.86-3-.167-5.184,1.334-0.667,2.606,4.739,5.712-5.212,1.209-7.192-4-0.841-2.307-12.633-4.128-14.224-3.294-5.066,3.53-6.24-.445-14.252-5.983,12.459,11.674,0.695,5.726-5.3,9.409-3.175,8.644,1.7,2.564-3.148,6.587-9.312-7.38-3.634,4.843-5.74-.459-2.105-2.182,0.584-11.667L184.92,728.03l-1.807,2.39,1.314,8.373L174.191,744.7l-2.467,5.059,7.136,4.378,4.517,7.3,1.314,6-3.745,4.649-15.211-2.112-8.13,4.058,12.272,15.148-2.321,8.512,11.118,0.876,6.462,4.871L180.1,817.274l-7.943,9.131,0.639,12.258-14.641,6.747-0.014.2L152.8,869.647l4.753,3.009,2.133-1.876,9.068,6.8-2.105,5,5.934,0.292,3.377,4.489,0.042,14.836,6.8,9.763-6.852,6.171-4.927,11.076-15.364-1.091-4.482-6.692-5.066.493-4.482,3.871-2.036,1.536-6.949-12.994-5.837,1.376-1.6-17.323-8.526,1.188-1.355-8.1-4.454-6.858-8.547-8.8L90.6,872.656l-1.48-2.717,8.54-8.783-9.054,2.39-15.211-2.779L64.3,869.2l-15.162,2.571L53.692,856.9l-9.6-11.7,2.147-2.272-2.064-5.017,8.214-9.256,8.429-3.94,1.008-9.1,3.078-.438L58.542,808.4l0.1-15.544L58.4,787.547l0.4-8.832-14.579.73-3.5-4.836-0.125-8.929-4.927-3.572-11.389,3.85-5.837-1.9-1.181-5.726,7.6-20.013,5.865-.341,5.1,2.856,8.033-3.537,0.271-2.946-1.042-11.966-11.646-.841L23.4,717.482l-0.813-2.96,6.191-6.8,7.817,4.315,8.644,1.091,15.2-7.991,2.745,1.209,3.586,6.442,3.717-2.689-1.168-9.249,3.586-8.644L69.3,677.152l0.952-4.85-3.245-8.221,4.927-1.2,7.887-3.329,3.391-17.469,7.345-12.814,4.385-6.233,11.132-2.592,11.375,1.376,3.391-4.6,1.2-18.352,11.181-5.066,4.642-1.835-0.626-5.573-5.142-6.629,6.761-4.69,10.805-.514,2.731-17.747,8.276-16.427,14.954-1.48,7.421-9.36-8.387-19.172-7.915-3.648-5.253,3.043-5.768-1.529-8.644,2.884-1.279,2.648-14.169-.445-3.245-4.343,1.48-18.456,1.577-.584,7.164-3.377,2.891-7.317,14.606-.486,4.1-8.019-4.03-4.315-7.178-19.158-3.933-7.741-5.253.73-2.661-5.066,6.15-6.143-0.2-5.83L148.8,416.8l0.042-5.844,13.467,8.8,5.7,9.958-6.462,10.215,11.688-2.161,4.913,3.738,5.955-1.647,15.19,9.339-0.813,2.474L203.2,457.9l7.977-1.828,4.156,3.759,2.418,0.57L238.1,470.842l6-1.021,3.419-.334,5.906,0.9,3.9,4.7,8.63,2.766,12.258-2.106-8.019-4.03-1.084-2.849,0.639-6.073,4.044-4.558-1.383-2.717,8.415-6.56,8.457-4.781,2.078,0.257,1.411-4.975,2.78-.188,12.132,0.1,0.215-9.054-2.752-13.4,3.245-7.88,17.657-19.616,7.372,3.53,1.591,8.325,3.092,3.231,3.245-8.332-4.4-11.132,19.679-6.011,7.672-14.843-1.953-2.112,14.738-5.274,2.974-5.045-1.939-2.258,2.446-5.448-1.438-2.62,2.918-3.03-0.7-12.689,2.731-.1,10.083,10.034-3.092,2.974,4.5,6.511-4.072,5.865-2.105,8.832,3.189,5.844,8.047-4.155,7.06,4.9-0.1,7.762,2.161,2.648,15.676-1.216,6.893-12.834,10.368-9.332-0.445-1.723,4.058-6.4L449,338.8l3.516-4.829,4.711,2.224-0.146,2.731-4.259,9.951,1.98,1.987,9.826,11.32,5.865,1.223,3.745,4.447,3.029,3.572,2.62,5.559,4.232-7.331,13.487-6.664,1.209-2.849L492.684,349.7l3.516-5.059,9.854,7.171,3.961-4.69,17.261-5.163,4.44,4.023,2.62,5.649-5.893,27.177,5.5,2.578,1.369,2.8-2.376,2.029,3.871,4.2,7.817-3.488,6.052,5.92,8.846-1.237,4.455-7.783,14.849-9.61-0.056-6.073,5.156,2.46,14.808,17.636-6.921,4.551L595.2,403.5l-11.153,4.35-16.913,11.9-16.774-13.39L533.6,420.72l-1.48,2.8L534.7,429.3l-13.1,8.95-0.5-.736-16.392,1.3-4.128-.862-3.62,3.342-3.043,9.492Z" transform="translate(-16.214 -173.662)" fill="#06c" stroke="#000" stroke-width="2"/><path d="M578.759,368.138l0.056,6.073-14.849,9.61-4.454,7.783-8.846,1.237-6.052-5.92-7.817,3.488-3.871-4.2,2.376-2.029-1.369-2.8-5.5-2.578,5.893-27.177-2.62-5.649-4.44-4.023-17.261,5.163-3.961,4.69-9.854-7.171-3.516,5.059,6.136,10.444-1.209,2.849-13.487,6.664-4.232,7.331-2.62-5.559-3.029-3.572-3.745-4.447-5.865-1.223-9.826-11.32-1.98-1.987,4.259-9.951,0.146-2.731-4.711-2.224L449,338.8l-2.7,6.532-4.058,6.4,0.445,1.723-10.368,9.332-6.893,12.834-15.676,1.216-2.161-2.648,0.1-7.762-7.06-4.9-8.047,4.155-3.189-5.844,2.105-8.832,4.072-5.865-4.5-6.511,7.748-7.227,0.855-4.927,3.162-3.064,5.934,1.605,6.122-.208,4.072,5.573,8.116,5.774-0.2-5.219,0.723-11.389-6.3-12.918,0.014-9,10.409-5.656,12.633,7.115,5.455-1.466,0.431-2.745,7.394-2.661,2.349-4.968,17.212-7,4.642,3.69,2.717-1.237,4.2,7.79,4.857-3.259,2.717-11.535,7.6-5.135,0.257-4.475-3.885-6.615,15.051-4.28,17.768,3.5L544.7,253.9l10.819-4.968L570.47,249.1l5.114,3.224,0.729,5.983,6.011-.278,5.309-3.62,7.644-2.96,8.971,22.653,10.423,9.728,0.125,1.021,5.767,1.181,4.086,4.413,9.069,1.55,3.446,5.059,0.424,0.827,4.315-3.141,17.3-4.315,5.253-.049,13.627-1.014,15.079-4.1,9.311-7.977,12.049-.2,13.244,6.372-5.156,7.38,1.591,5.9,7.748,4.517L734.7,309.9l6.226,20.548,11.89,3.336,7.547-5.455,9.117-2.112,6.24-11.25,5.323-3.447,8.3,2.377-0.028,2.856,8.331,0.716,6.435-.57,8.929,9.117,15-2.752,11.862,2.439,13.231-6.838,4.787,6.608,5.684-.889-1.613,7.032,23.237,7.9,0.625-6.052-3.35-5.052L894.52,311.4l-3.6-4.864,8,4,13.981-5.524,12.036,2.766-5.851,9.992,15.759,9.374,0.271,3.057,11.729,1.2,3.975,14.28,8.429,8.054-7.9,9.395-9.117,2.279-12.188,10.083,6.664,14.085,6.476,15.148,6.039,19.471,2.161,3.968,3.662,5.378,6.866,14.419,0.841,12.848,3.6,23.98,1.112,5.232-3.189,8.415-20.631,26.211,0.757,0.4,25.572-12.32,14.912,10.923,0.215,1.786,1.112,9.013-3.5,8.359,0.028,5.566-14.322,2.2-7.088,9.165,20.4,3.44,4.614,4.065-4.03,17.81-9.923,7.859-0.757,7.95-9.4-.25-13.954,7.345-9.485.75-1.883-2.585L926.359,614,908.6,611.108l-8.7,3.064L878.544,625.8l-12.306,2.175-8.415-3.683-22.459,12.286-2.863-.452-1.126-12.042-11.577-9.6,0.556-3.009-8.575-1.779L800.9,615.124l-6.052.208-6.879-27.566,1.278-8.6-5.17-3.62-6.324-2.87-1.994-.876-4.329-19.2L768.2,538.444l-6.594-5.066-11.931.5-10.854,5.663-9.77-7.025-6.518-13.536-14.481,8.081-1.751.347-5.878-.132-11.209-9.749-8.484,2.37-11.716.535-4.913,6.733,0.938-8.644-3,.389-5.525,6.914-8.484-3.016-16.2,8.568-8.832,8.3-3.043.341-3.634-4.892-9.339,7.317-1.237.73,9.13,16.281,5.538,1.153,7.247,10.257,13.641,9.721-0.5,9.951-19.679,8.394-10.847,5.517-5.837-1.758-5.281,3.043-6.254-6.122-6.039.146-1.911,6.615,3.919,5.052-20.874,22.931-6.136-1.418-15.037,3.731-2.745-1.536-7.491,4.746-3.745-8.026,9.409-5.615-0.042-7.449-7.192-17.087,2.46-8.742,5.184-3.454,6.476-10.687,1.883-2.231-1.55-2.488-14.62-9.728,6.518-8.749-12.8-4.906-4.586-6.935-8.3-1.994-6.893-5.357-0.695,2.863-2.661-2.377-6.664-.688,0.639-4.955-3.231-4.579-4.8.9-7.248-7.546-8.6,1.591-7.164-4.419,1.008-2.939-4.259-7.679,7.074-20.186,8.985-4.273,13.6-16.622-3.287-3.718,2.446-11.021,3.043-9.492,3.614-3.342,4.142,0.862,16.392-1.3,0.5,0.736,13.1-8.95-2.592-5.781,1.494-2.8,16.76-14.356,16.774,13.39,16.913-11.9L595.2,403.5l-3.377-10.715,6.907-4.551L583.92,370.6Z" transform="translate(-16.214 -173.662)" fill="#06c" stroke="#000" stroke-width="2"/><path d="M287.827,926.947l-0.146-5.733,16.976,1.1,0.542-.146,8.255,2.224,5.879-23.306,1.751-.083,4.489-3.683,17.844,2.265,5.212-16.594,5.066-7.081,4.413,2.995,3.815-2.585-1.939-2.342,4.114-17.747,10.326-10.68,16.83,3.787,8.331-1.167,10.951-9.714,2.793-5.357-0.98-8.415,8.186-12.438,4.927,2.015,25.377,11.389,15.76-16.281,11.674-3.336,11.563,3.634,21.229,1.522,5.955-12.855,3.064,4.5,8.158,3.968,20.478-5.35,8.331,2.432,9.471,11.681-2.05,11.542,5.934,9.332-5.323,10.618,2.133,5.309-5.754,5.844,2.946,4.968,0.9,2.161,2.619,4.906,1.154,5.781-9.666,12.153,9.4,12.869,11.132,3.467,25.273,27.246L623.453,943.6l2.689,0.876,20.992,5.01,18.824,7.88,9.311-8.116,5.767,2.571,4.711,13.939,5.941,1.8,3.065-.507,8.227-13.022,7.6-5.4,6.039,0.195,5.767-.9,1.251-2.7,28.594-1.383L748.5,952.24l8.825,4.142,0.6,2.522,8.616-.347,2.73,4.913,2.793-5.121,5.782,2.015,23.7-5.378L837.7,964.13l2.036,2.071,5.726-.855-8.471-22.41,5.281-10.9-2.21-2.078-8.346,2.21-3.245-8.443-1.341-15.2,20.165-4.364,16.163-12.647,14.607-.195L880,889.069l-2.919-.952-1.779-5.934,0.514-15.19-6.81-5.295,1.724-3.419L850.4,854.131l-20.631,2.21-0.431-.056,0.313-4.1,5.469-12.3,8.255-.959,1.591-5.566,12.786-2.161,1.966,5.184,13.814,1.814,4.857,4.593,7.588-.236,8.7-7.95,8.457-2.9,8.373-8.526,16.358,12.591,2.78-5.3,6.219-5.747,15.065-.5,5.336,2.912,1.306-5.636,9.311-7.275-4.2-10.326,7.929,2.9,1.953-2.112L967.751,794l1.807-17.858-11.6-.584-4.857-3.217-0.431-2.564-15.822-17.65-2.7-2.1-8.13-12.348-0.653-5.629-5.656-1.605-18.567-4.1-0.257-.667-1.709-2.4,3.731-7.769-4.489-7.345,8.359-9.443,6.309-5.74,12.931-5.7,1.112-6.824-5.2-2.627L918.761,667.2l-6.49-5.914,0.5-2.939,5.893-14.155-1.751-5.538-3.857-2.717,1.313-1.946,2.495-5.573,7.151-5.962,2.39-8.505-17.74-2.891-8.714,3.064L878.6,625.752,866.3,627.927l-8.415-3.683-22.459,12.286-2.863-.452-1.126-12.042-11.577-9.589,0.542-3.016-8.561-1.779-10.882,5.427-6.067.208-6.879-27.566,1.293-8.589-5.184-3.62-6.309-2.87-1.994-.876-4.329-19.2-3.231-14.162-6.594-5.066-11.931.5L738.877,539.5l-9.77-7.025-6.518-13.536-14.481,8.088-1.751.341-5.878-.132-11.222-9.749-8.484,2.37-11.7.535-4.913,6.733,0.925-8.644-2.988.389-5.525,6.914-8.484-3.016-16.2,8.568-8.832,8.3-3.043.341-3.634-4.892-9.353,7.317-1.237.73,9.145,16.281,5.538,1.153,7.247,10.257,13.641,9.721-0.514,9.951-19.665,8.394-10.847,5.517-5.837-1.758-5.281,3.043-6.254-6.122-6.039.146-1.925,6.622,3.933,5.045L568.05,634.32l-6.136-1.418-15.037,3.731-2.752-1.536-7.477,4.746-3.759-8.019L542.3,626.2l-0.042-7.449-7.192-17.087,2.46-8.742,5.17-3.454,6.49-10.687,1.883-2.231-1.55-2.488L534.9,564.338l6.525-8.749-12.8-4.906-4.586-6.935-8.3-1.994-6.907-5.357-0.681,2.863-2.661-2.377-6.664-.688,0.639-4.955-3.231-4.579-4.815.9-7.248-7.546-8.589,1.591-7.164-4.419-0.285,1.612L444.278,517l-10.569,4.968-5.552-2.543-2.689.945-9.7-4.829L408.1,520.6l-2.974-4.517-5.608-.73-4.3-3.731-2.161,1.883-5.142,31.951-6.08.361-5.781,7.164-3.078-.014-6.094-6.831-5.253-15.7-17.546,3.224-2.62,1.147-3.3,5.253-4.969-3.224-8.2-.472-6.323,1.091-8.77,1.661L304.754,536l-11.181,4.8-5.01,11.035-4.982,3.6-11.917-2.71-8.172,3.53,1.181,12.167,3.829,8.29,17.288,2.738,6.011,2.668,3.363,4.857,5.142,1.626-1.181,2.724,2.592,1.431,5.58,1.911,11.153-3.551,6.421,16.92-14.592,5.232-13.71-7.185-0.869,2.752,6.775,5.364-1.126,2.675-3.759-4.267-8.172-2.522-2.835.021-1.084,5.622,0.355,5.67,13.529,18.72,6.99,5.5,3.363,11.611,6.893,9.388L311.257,669l-3.988-4.3-9.826,1.973-8.373,10.785-0.5,1.918,5.823,1.932,5.267,7.428,14.356,11.4-0.341,3.05L308,705.469l-11.6,2.377-2.564,8.554-3,.035-7.672-8.86-3-.174-5.2,1.341-0.653,2.606,4.739,5.712-5.212,1.209-7.206-4-0.827-2.307-12.633-4.128-14.224-3.294-5.066,3.53-6.24-.445-14.266-5.983,12.473,11.674,0.681,5.726-5.281,9.409-3.175,8.644,1.682,2.564-3.134,6.587-9.325-7.38-3.634,4.843-5.74-.459-2.105-2.182,0.6-11.674-11.452-1.411-1.807,2.39,1.327,8.373-10.249,5.907-2.46,5.059,7.136,4.378,4.5,7.3,1.327,6-3.759,4.649-15.2-2.112-8.13,4.058L169.9,789.126l-2.307,8.512,11.118,0.876,6.448,4.871-5.024,13.842-7.957,9.131,0.639,12.258L158.2,845.362l-0.014.2L152.844,869.6l4.739,3.009,2.133-1.876,9.068,6.8-2.092,5,5.92,0.292L176,887.312l0.042,14.836,6.8,9.763-6.865,6.171-4.927,11.076-15.35-1.091-1.383,8.505,2.064,14.891,6.539,8.109,8.783,0.549,3.62-.577,14.2-2.286,10.423,3.815,15.023-2.641,13.8,3.808,6.761,5.2,4.684-2.106L247.2,966.3l5.92,0.688L270.6,978.4l5.086-2.21,10.437-6.56L294.2,953.1l-3.446-.007-0.639-12.021L293,929.45Z" transform="translate(-16.214 -173.662)" fill="aqua" stroke="#000" stroke-width="2"/><text transform="translate(380.035 108.585)" font-size="109.082" font-family="DejaVu Sans" font-weight="700">1</text><text transform="translate(209.342 196.156)" font-size="109.082" font-family="DejaVu Sans" font-weight="700">2</text><text transform="translate(161.873 466.219)" font-size="109.082" font-family="DejaVu Sans" font-weight="700">3</text><text transform="translate(696.171 283.016)" font-size="109.082" font-family="DejaVu Sans" font-weight="700">4</text><text transform="translate(512.347 589.051)" font-size="109.082" font-family="DejaVu Sans" font-weight="700">5</text></svg>