<svg xmlns="http://www.w3.org/2000/svg" width="740.92" height="976.358" viewBox="0 0 740.92 976.358"><title>Députés sortants de la Haute-Marne</title><path d="M224.183,736.983l-7.265-3.815,0.392-13.43-5.017-6.4-7.918-19.32-6.605-5.34-11.733,2.687-10.406,20.819-13.307-9.725-2.66-4.784,1.972-5.23,7.595-4.028,11.306-16.269-5.3-10.214-6.481-6.234-14.791-1.787-5.1,2.268-5.437-2.33-8.111-2.371-1.21-5.416,5.7-10.55,7.491-4.557-8.632-8.165-2.405-8.509-23.307,3.107-17.293-4.007-9.183-9.9,2.722-1.333-0.5-8.99,8.832-11.973-7.622-4.694L78.85,558.3l-17.774-4.55-1.856-1.835,19.465-5.87,8.227-2.3,1.154-5.608-1.787-2.392,11.973-8.014,4.378-11.011,5.278,3.313,12.351,0.488,14.523,5.093,16.406,5,11.341-1.4-0.618-10.8,5.732,2.165,20.228-6.33,7.959-.935,8.887,10.482,19.829-13.238,9.959,15.121,0.818,9.107,3.56,4.942,15.382-6.962L265.3,534.3l7.073-5.244,3.76-14.392-6.35-13.21,11.574-5.031-3.746-10.811-3.842-3.835,5.437-.928-3.65-4.028-1.368-10.99,4.8-2.6,7.114,5.512,20.606-.206,22.523,8.193,1.89-4.921,7.114-1.691,6.578-9.4,8.392-2.88,5.506,2,8.6-1.23,3.01-4.578,2.942,0.24,1.595,5.966-5.574,17.726,13.52,10.935,19.7,5.684,4.86,7.292L410.2,502.8l1.9-2.275,1.718,6.467,8.152-15.891,4.481-3.883,7.519,4.529-2.873,5.216-5.478,2.632-0.873,8.9,6.729-6.447,29.368-8.914,3.581,4.715,5.829,0.144,19.183-8.055,11.574,1.931,7.56-4.852,1.89-8.626,7.932-4.213-2.172-3.753-16.42-9.739-0.674-2.694,7.663-3.911,3.182-8.5-1.382-8.866,5.2-2.55,8.165-1.368,2.777,0.357,17.252,8.213,18.688-1.031,1.856-2.124,6.433-14.227,10.254-11.8,6.928-11.224,2.254-2.172,10.956-10.365,3.691-6.99,13.574-15.85,24.62,20.447-2.536,12.131-5,10.832,20.7,11.7,6.7-4.529,13.464,12.489,7.973,14.777L685.8,447.6l0.55,7.554-18.242.028-11.451,9.636,1.251,2.791,2.564,7.334-1.451,7.773,0.674,6.674-5.519,7.32,0.454,5.2-8.282,6.584-3.478,7.217,9.086,9.719-13.292,3.849-5.932,6.853-3.56,11.3L639.7,558l2.887,0.13-0.426-8.653,2.323-1.753,19.155,7.375,2.433-1.787,2.337,8.853,7.65,5.086,4.619,7.78-0.392.612,0.564,5.9,11.224-3.286,13.691,15.279,2.687,1.306,4.674-3.155-0.227,9.815,5.719,10.159,0.123,5.9,4.887,6.3-0.7,5.313L714.1,640.273l5.8,22.083,9.856,5,5.856-8.674,10.79-2.358,3.581-7.389,3.464-6.646,1.663,5.3,2.845-.234,0.405,3.354-2.522,1.464,2.42,11.368,3.182,4.859,2.914-.117L776.2,685.586l3.409,14.042-2.392,6.365-1.931,2.082-8.268-.715-10.337-4.22-1.842,2.165-1.815,5.533-13.574,24.372,1.636,8.454,2.254,6.481-13.382,4.028-5.292.488,1.354-7.794-16.873-.646-5.141-2.516-4.55,6.7-5.381,2.433,2.509,16.612-1.423,5.368-3.409,4.055-5.141,1.134-2-.715-8.392-2.708-8.983-1.567-7.423,9.189-5.237,29.252,3.3,3.286-1.34,4.715L670.2,821.8l2.31,1.615,0.3,5.382-0.859,9.031,1.8,5.361L662.2,852.788l-0.508,3.031,4.151,4.543-6.241,2.151-0.577,9.031,5.265,7.231,0.351,11.918-2.942,4.729-10.633,1.636-1.7-2.254-4.632.825-3.787,6.406-13.856.364-8.268,2.955-5.437-1.608-5.422,3.079L601.222,890.4l-0.941-8.956-7.368-5.134-2.138-.275L569.268,904.77l-11.856-.179-2.144-2.117-13.932-6.935-7.842,8.516-11.623,2.832-8.9.268L505.4,902.66l-8.632,2.433-4.392,17.836,3.876,4.289-10.406,10.33-7.533,12.88L477.814,965l-4.845,1.519-5.87,9.609-7.842-4.33,0.831-5.931-3.464-4.749-2.646-1.389-5.842-1.182-4.255,4.138-5.636-.048-15.059,13.856-1.574,8.605-5.409-.055-7.251,4.213-9.76-18.241,11.141-21.334-9.2,3.485-3.464,1.244-4.605-10.468-10.323-11.093-13.437-6.894-8.749-3.409,2.887-23.781-10.6,2.433-1.141,5.739-8.564,12.42-9.341,7.588-5.959-.873-0.3-2.2-5.533.6-2.942-5.21-8.749-.687-6.309-5.938-8.509-1.911-5.519-2.309-3.368-4.969,5.506-16.715-14.605.591,1.086-11.788-2.3-1.918L261.6,881.9l-1.113,5.931-4.776,3.691-14.805,1.7,1.636-2.516-9.856-10.99,1.409-5.347,4.255-3.794,0.144-8.165,4.138-7.182-4.151-3.258-2.31,1.746,2.674-8.165-3.56-17.073-7.382-3.554-4.227,3.388-8.378,1.251,0.254-2.8-4.914-2.577,3.691-5.512-3.017-3.423L226,807.742l7.183-3.478L251.127,792.2l4.7-14.055-5.381-4.8-0.378.577-1.451-4.55-5-1.189-2.859-.928-4.014-7.237,0.481-11.863-4.8-10.956Z" transform="translate(-39.736 -14.281)" fill="#06c" stroke="#000" stroke-width="2"/><path d="M424.81,508.534l6.715-6.447,29.383-8.914,3.574,4.722,5.842,0.144,19.183-8.055,11.561,1.938,7.56-4.859,1.89-8.619,7.945-4.22-2.172-3.753-16.42-9.739-0.674-2.694,7.663-3.911,3.182-8.5-1.382-8.866,5.2-2.55,8.152-1.368,2.791,0.357,17.252,8.213,18.675-1.031,1.863-2.124,6.433-14.227,10.241-11.8,6.928-11.224,2.268-2.172,10.956-10.365,3.677-6.99-1.691-5.87-30.393-39.225-6.124-13.547,2.041-5.581-11.368-2.907-4.468-3.863-14.55-.014-3.279,4.729L528,314.953l-9.382,11.114-10.392,5.072-5.2-10.165,3.045-8.021-2.227-7.877,14.214-16.44-19.9-3.2-8.763-7.519,9.313-.928L520.539,257.3l13.382-5.23-3.155-3.883-5.355,2.481-5.574-2.041-1.017-2.811-2.7-5.43-6.042-.172L498.546,230.4l-3.251-8.475,1.238-9.011-2.873-4.33-1.8-2.543-12.124,1.127-4.646-4.1-0.405.268-11.224-5.052-12.928-24.1-6.137.77-6.564-6.591-5.787,6.7-3.856-1.938-1-2.8-8.647-.536-25.423-14.516-4.186,3.794-5.663-2.041-3.017-7.657-7.224-2.722,1.354-5.4-14.172-9.244-4.5-7.237-7.519,4.419-5.073-2.461-5.292-6.681-4.323-8.31-5.368-5.993,0.928-7.794L314.6,100.381l-14.241-2.612-6.378-17.025L292.4,65.6l-2.887-.509-11,17.1-15.492,1.918-5.917-6.543,4.632-13.973-5.56-10.22-1.086-10.708,10.66-8.454L263.63,23.388l-11.1-3.863-5.278-2.88-14.887.495-6.152,5.684-2.763,5.244L207.284,15.615,199,24.048l-8.365,2.866-8.6,7.863-7.506.234-4.818-4.543-13.65-1.794L154.1,23.546l-12.646,2.131-1.574,5.512-8.165.948-5.4,12.159L126,48.358l0.426,0.055,20.42-2.186,20.1,4.1-1.691,3.389,6.729,5.237-0.5,15.025,1.746,5.87,2.9,0.942-1.918,2.227-14.448.193L143.775,95.714l-19.96,4.316,1.34,15.025,3.21,8.358,8.241-2.186,2.2,2.055-5.237,10.784,8.378,22.166-5.65.845-2.014-2.048-35.761-9.052L75.084,151.3l-5.719-1.993L66.6,154.376l3.581,10.9-3.932,7.7-1.931.144-5.031,6.5L60,188.474l-4.323,14.145,1.154,5.849L41.274,210.64l5.237,10.11,22.255,11,1.787,7.457,6.495,9.024-4.522,7.347,8.137,2.1L88.9,269.556,85.172,272.3l0.956,4.337,2.378,1.794,5.183-2.852,17.6,1.794,7.9,4.138-3.279,18.516,11.718,8.007,10.674,1.189,15.224,9.7,9.072,0.5,4.083,4.413L150.768,338.3l6.454,9.595,0.591,8.66,5.464-.646,8.887,5.9-4.619,11.183,9.595,15.355-7.533,8.963-1.113,5.918,0.7,1.759-1.464,5.526,4.818,9.959-9.313,6.447,2.2,5.588,13.492,6.186-0.069,9.141-3.519,4.9-0.123.11-5.278,11,1.017,2.845-5.842,6.845-1.313,5.829,1.045,8.8,6.845,9.265-12.564,10.949L161.9,518.5l5.732,2.165,20.228-6.33,7.945-.935,8.887,10.482,19.829-13.238,9.959,15.121,0.818,9.1,3.56,4.948,15.382-6.962,11.045,1.519,7.073-5.244,3.76-14.392-6.35-13.21,11.561-5.031L277.6,485.681l-3.856-3.835,5.45-.928-3.663-4.028-1.354-10.99,4.791-2.605,7.127,5.519,20.592-.206L329.21,476.8l1.89-4.928,7.114-1.684,6.591-9.4,8.392-2.88,5.491,2,8.6-1.23,3.01-4.578,2.956,0.24,1.581,5.966-5.56,17.726,13.505,10.935,19.719,5.684,4.86,7.292,2.818,0.921,1.9-2.275,1.732,6.467,8.152-15.891,4.481-3.883,7.506,4.529-2.859,5.216-5.491,2.626Z" transform="translate(-39.736 -14.281)" fill="#06c" stroke="#000" stroke-width="2"/><text transform="translate(393.2 710.246)" font-size="107.893" font-family="DejaVu Sans" font-weight="700">1</text><text transform="translate(228.949 310.141)" font-size="107.893" font-family="DejaVu Sans" font-weight="700">2</text></svg>