<svg xmlns="http://www.w3.org/2000/svg" width="973.073" height="566.838" viewBox="0 0 973.073 566.838"><title>Députés sortants des Vosges</title><path d="M630.9,580.855l3.546-2.421,6.618,6.226,0.594,5.316,14.519,7.6,6.188,15.265,11.851-5.8,2.554-11.971,4.949-7.907,9.323-4.229,2.939,4.538,7.952-.348,7.73,17.787,7.926,7.882,9.507,7.793,22.951-6.6,10.948-7.7-3.9-2.623,0.816-4.829-2.541-7.617,4.418-9.917,2.174-1.726-3.2-8.659-0.531-2.111,2.863-8.451,1.359-10.436-4.311-3.04-1.447-7.534,7.717-3.293,8.16,1.473,4.582-19.184-9.348-5.632-6.372,4.766-0.133-4.69-2.743-.285-7.812.518-3.123-7.61-11.01-.777-0.392-2.756-7.484-.619-6.422-4.241-7.7,6.915-7.01-4.165-1.422-5.215-1.839,2.231-5.43-3.527-13.223-2.067,1.517-5.278-6-12.224,1.208-8.293-1.776-8.135-7.875-1.542-12.483,4.4-1.631,3.7-5.234,2.01L644.736,483.4l8.21,17-2.768,1.365-18.343-9.785-5.467-3.11-8.792,6.447-8.729,7.244-7.964-1.391-8.406,5.727-7.768-6.327-4.652,2.111-12.642,5-6.447,12.06-5.246.866-1.208-2.509-7.136,2.6-1.694-1.991-4.911,10.271-23.159,11.106,3.849,2.629,4.842-1.783,0.986,4.848,5.183-1.53,2.282,1.466,1.232,7.926,14.753-5.916,0.866,2.541-7.357,7.092-10.777,2.06-1.606,2.212,1.713,4.778-0.935,7.553-0.285.531-3.976,3.6L528,586.044l-4.608,2.75-1.681.348-3.805,8.641-3.666,4.785,7.357,11.4L521.26,619.3l4.69,0.721,0.657,2.288-1.9,8.046L504.471,637.6l-1.529,5.139,0.309,1.511,6.763,15.056,6.466,10.157-9.133,1.713,0.8,2.358-5.158,4.677,0.127,5.265,2.2,1.5,7.541-2.1,1.707,2.054-4.159,3.2-15.1,1.334L480.553,692.7l0.2,16.8,6.605,8.881,1.656,8.28,5.935,5.8,0.714,8.388-8-1.226-12.237,5.72-7.4-3.287-4.146,3.489-4.949,7.237-4.867,6.959,3.742,18.95,12.553,10.347,10.347-3.249L486,787.1l1.491-2.332,0.606,12.477,17.073,0.329,9.418,6.138-0.891,8.2-7.768,11.814-4.867,2.787-9.507,5.1-1.15,8.059L497,844.287l-3.344,10.448-7.256,8.034,1.8,11.093,8.331-1.466,7.509,3.9,8.406,0.562L535.3,866.834l9.1-5.126,2.63-9.848,7.42-1.656,3.319-8.533V827.879l7.212-4.216,6.814-8.818,13.236-10.271,0.43-2.914L589.894,802l0.43-7.825,18.741-17.041,10.233-4.671,2.8-4.817,14.31,10.752-4.285-12.686-1.479-21.99,1.814-4.469,6.681,2.971,4.962,2.042,9.753-8.457-1.966-1.972,0.208-10.695-1.593-2.288-5.543-.4,3.679-5.992,3.963-22.546-2.124-7.68-0.493-.133-10.322-8.577-1.984-.544,3.913-3.312-5.777-4.431-1.966-4.646,0.657-14.234,2.2-1.915-3.236-12.363,4.052-12.25L630.4,610.514l-4.519-2.863-1.062-1.763,2.768-4.6-2.693-4.69,1.334-5.271,8.5-6.517Z" transform="translate(-11.068 -421.209)" fill="#06c" stroke="#000" stroke-width="2"/><path d="M717.576,612.813l-7.926-7.875-7.73-17.787-7.964.348-2.927-4.538-9.323,4.229-4.949,7.907-2.566,11.971-11.851,5.8L656.15,597.6l-14.519-7.6-0.582-5.316-6.63-6.226-3.546,2.421,3.875,3.925-8.507,6.523-1.334,5.271,2.705,4.69-2.768,4.6,1.049,1.77,4.519,2.863,7.123,11.308L633.5,634.063l3.236,12.363-2.2,1.915-0.664,14.234,1.966,4.646,5.79,4.437-3.925,3.306,2,0.544,10.322,8.577,0.493,0.133,2.111,7.68-3.95,22.54-3.691,5.992,5.556,0.411,1.593,2.282-0.208,10.7,1.966,1.972,19.323,9.07,3.319,5.075,4.083-3.432,7.1-4.311,5.335,0.19,0.917-13.6-1.618-2.263-6.63-1.814-1.454-1.821,0.582-2.68,10.853-.36,5.372,0.992,6.542,4.873-0.285.676,6.984,8.249,4.8,2.535,5.4-.613,0.923,1.46,17.717,10.48,8.558,10.132-0.43-4.52,1.3-2.389,7.667-1.018,15.283-5.215,2.554,1,3.382,13.122,10.208,3.761,13.444-12.673,2.187-.3,13.7,4.115,1.972,4.766,14.608,0.076,2.408-.98-0.739-5.107,15.739,11,12.54,5.278,5.96,12.477,4.545-1.688-1.707,10.758,1.972,1.915,8.21-.5,2.541-1.157,0.582-5.55,5.335-9.639,9.3-5.809L914.342,751.2l3.382-1.643,4.014-16.7-8.369-1.226-5.133-6.782,10.416-19.993-0.468-5.575,3.109-5.253,1.966-5.088,10.372-8.508-0.392-4.962,5.815-5.379,5.606-14.481L947.8,641.3l8.64-17.357,4.842-2.572,0.4-.657,1.542-7.553,6.915-8.154-0.961-7.813,11.371-3.666,2.515-6.82-4.26-10.056-6.112-4.608L975.1,564.2l-7.5-3.217-3.616,4.462-8,2.832-3.546,1.011-13-1.713-6-8.059-16.124-6.852,5.208-6.112,8.147-11,3.123-1.884-1.58-9.639-5.777-5-4.273-3.009,5.815-5.72L927.9,492.832l2.952-7.193,4.406-2.75-0.677-1.2-1.012-3.028-1.036-8.211,6.725-15.53,1.075-8.426-13.52-4.507-1.435-9.4,1.738-4.317,6,4.741,10.764,0.607,2.124-1.549-3.356-9.8-16.371,1.416-4.791,2.737-2.876.916-13.185,7.876-13.469,4.671-11.346,8.546L866.763,450.8l-8.95,5.581-20.555,25.53-2.718.518-2,3.129-14.026,13.21-5.234,1.738-6.788-4.482-2.8-10.594-5.089,2.067-3.148,7.515L783.9,501.68,777.1,518.3l-4.582,19.184-8.16-1.466-7.717,3.293,1.447,7.541,4.311,3.034-1.359,10.436-2.863,8.451,0.531,2.111,3.2,8.666-2.174,1.719-4.418,9.917,2.541,7.617-0.816,4.829,3.9,2.623-10.948,7.7-22.951,6.605Z" transform="translate(-11.068 -421.209)" fill="#06c" stroke="#000" stroke-width="2"/><path d="M791.674,763.418l-10.208-3.761-3.382-13.122-2.554-1-15.283,5.208-7.667,1.018-1.309,2.389,0.43,4.52-8.546-10.132-17.73-10.48L724.5,736.6l-5.4.607-4.8-2.535-6.978-8.249,0.285-.676-6.542-4.873-5.372-.992-10.865.36-0.569,2.686,1.447,1.821,6.63,1.814,1.618,2.256-0.917,13.6-5.335-.2-7.085,4.311-4.083,3.432L673.2,744.9l-19.323-9.064-9.753,8.457-4.962-2.042-6.681-2.971-1.814,4.469,1.479,21.99,4.285,12.686-14.31-10.745-2.8,4.817-10.233,4.671L590.35,794.2l-0.417,7.832-4.456-.335-0.43,2.914-13.236,10.271L565,823.693l-7.2,4.216v13.8l-3.331,8.533-7.42,1.65-2.63,9.854-9.1,5.126,7.37,3.135,5.183-1.087,8.679,5.764,2.1,7.73,12.629-.493,9.595,17.237,4.886,2.781-0.038,10.828,8.818,10.65,1.643,5.3,13.533-8.659,20.726-5.038,8.729-16.383,5.619-9.241,17.483-7.926,2.541-.076,3.508,6.751,9.026,6.3,6.22,8.95-0.544,5.587,2.863,4.785,22.369,12.679,2.408,1.947,6.643,3.546,3.457,4.481,13.507,8.729,1.1-.43,0.468,2.75,25.15,9.987,3.9,6.808-1.738,4.993L764.745,973l16.978,13.691,7.459-7.97,2.37-1.422,2.345,1.466,7.446-1.523,3.976-3.565,15.4-2.927,0.544-1.447,5.43-9.007,6.9-3.407-0.62-6.2-6.075-5.221-0.246-5.392-0.012-7.907-4.728-6.036,10.815-7.781-0.752-2.591,4.146-3.413,1.467-4.987-2.876-4.159-5.271-.847,6.713-8.666-2.4-13.482,1.839-5.189,0.935-5.442,2.952-9.551,6.826-7.408,0.145-9.323-0.285-5.411,2.2-1.58,2.332-1.384,5.113,1.618,5.777-5.689,5.012-1.542,4.21-7.054,7.085-4.058,7.237-11.194-3.369-4.589,4.766-9.778-8.2.5-1.984-1.909,1.713-10.764-4.557,1.694-5.96-12.483-12.54-5.278-15.726-11,0.739,5.114-2.408.973L823,759.39l-1.972-4.759-13.7-4.121-2.187.3Z" transform="translate(-11.068 -421.209)" fill="#06c" stroke="#000" stroke-width="2"/><path d="M491.583,831.612l-1.138,8.065,6.58,4.6-3.344,10.448-7.244,8.04,1.8,11.093-7.73,6.15-6.542,5.663-4.911.449-1.966,4.557-9.867-2.256-2.788,4.235-4.937-1.34,1.555-8.255-0.582-2.731-13.432-8.982-5.916,3.445-5.271-4.545-0.948-4.563-2.257-.366-3.047-3.5,7.035-3.084-1.877-15.088-3.394-3.761,1.713-8.7-13.248-13.773-9.184,4.835-2.731,4.5-12.73-.79-7.162-1.688-19,11.314L351.2,846.712l0.386,7.737-7.294,8.129-0.36,5.164-3.5,4.266-16.915-.9-1.012,7.857-11.434,9.007-8.059-1.4,2.655-10.183,11.9-12.774-6.542-10.562L300.2,857.312l-3.249,2.712-1.764,18.988-5.644.569-7.592,7.041,1.852,4.993-6.517,4.488L266.4,880.193l-2.68.1-2.927-4.469-2.225-10.454,2.319-1.346-0.373-3.078-2.616.209-1.529-4.873-3.186,6.112-3.293,6.795-9.923,2.168-5.386,7.977-9.064-4.6-5.335-20.309,8.109-10.2,0.645-4.879-4.494-5.8-0.113-5.436-5.259-9.336,0.208-9.032-4.3,2.9-2.471-1.2-12.591-14.045-10.322,3.015L189.074,795l0.36-.562-4.248-7.155-7.035-4.677L176,774.46l-2.238,1.65-17.616-6.788-2.136,1.612,0.392,7.958-2.655-.114-9.677-9.721,3.274-10.4,5.467-6.3,12.212-3.54-8.356-8.938,3.2-6.637,7.616-6.055-0.417-4.778,5.075-6.738-0.606-6.138,1.321-7.142L168.5,695.64l-1.15-2.566,10.53-8.855,16.776-.025-0.505-6.953-2.977-3.824-7.345-13.6-12.382-11.485-6.163,4.165-19.038-10.758,4.608-9.955,2.332-11.162-22.654-18.8L118.048,616.4,116.493,611l-27.95-36.079L82.9,562.468l1.89-5.133-10.455-2.674-4.121-3.552L56.844,551.1l-3.028,4.349-4.842-.234-8.615,10.227L30.8,570.1l-4.778-9.348,2.788-7.376-2.035-7.244,13.059-15.119-18.3-2.945-8.046-6.909,8.558-.86,20.087-18.1,12.307-4.816,6.984,4.248,5.309-.291,5.935,5.423,5.309-1.188-2.136-5.019,2.914-10.448,15.283-4.09,9.159-5.265,3.837,3.375-0.727,2.585,5.386,1.719,2.022-5.272,4.791-2.939,13.83,1.3,1.972,7.939,0.917-10.436,3.521-4.279,12.148-4.993,0.569-4.684-6.333-7.711,1.826-1.713,1.22,0.474,4.728,2.307,1.9-1.827,10.48-.209,7.1,3.356,2.952,3.186,11.01,2.111,13.248-4.077,1.188-6.985,1.972-1.429,4.146-10.474,6.087-5.929,7.224,8.35,4.532,2.661,12.768-12.49,7.307,1.555,6.453-3.508,0.739-3.318,10.442-1.662,4.665,2.149,3.261,4.286,10.158,4.134,8.059-.936-3.824,7.743,2.977,2.029-8.406,10.948-0.816,10.764,5.556,6.138-6.567,8.641-0.677,1.207-13.248,16.1-2.124,5.771,7.863,2.623,4.368,2.522,10.1-4.425,5.9-15.789-5.322-6.453,12.888-.329,5,1.953-3.666,7.3-5.4-.145-2.459,4.722,0.208,10.979,5.505,3.754,3.849,5.98,2.889-5.859,4.336,0.145,4.545,3.426,2.876,7.383-5.518,9.348,4.273,2.547-0.392,4.759,2.471-.411-0.569,8.742,5.05,5.189,4.778-1.46,4.753,1.479,3.059-3.988,2.515,0.442,6.542-4.854,8.147-.841,2.5,3.691,4.2-3.344,7.6-1.011,0.221-2.7,2.4-.24,5.133,4.981,5.442-.013,4.481-3.129-3.072-8.817,1.4-4.311,7.8-1.947,3.742,11.5,0.051,2.573-2.434.809,4.766,6.118,7.756,1.972,4.323-10.853,4.1,3.7L421,529.094l-2.63-21.2,1.075-.354,12.578,1.808,3.287-3.578,2.035,1.213-2.307,9.184,7,1.258,4.665-1.618,0.853-1.081,16.307-.676,0.664,2.509,7.162-6.928,7.408-.594,5.3-15.947,4.924,1.662,9.595-7.838,2.977,4.342,2.9,13.349,15.17,5.91,9.38,0.582,4.545-2.889,0.645-.341,7.1-3.318,7.035,3.344-3.16,6.725,0.113,3.976L540.7,528.866l-23.159,11.1,3.849,2.629,4.842-1.783,0.986,4.854,5.183-1.53,2.282,1.46,1.232,7.933,14.753-5.923,0.866,2.547-7.357,7.092-10.777,2.06-1.606,2.212,1.713,4.778-0.935,7.553-0.285.531-3.976,3.6-0.386,7.951-4.608,2.75-1.681.341-3.805,8.641-3.666,4.785,7.357,11.409-0.335,5.329,4.69,0.721,0.657,2.282-1.9,8.053L504.4,637.476l-1.529,5.145,0.309,1.511,6.763,15.056,6.466,10.151-9.133,1.713,0.8,2.358-5.158,4.677,0.127,5.265,2.2,1.492,7.541-2.1,1.707,2.054-4.159,3.2-15.1,1.334-14.753,3.243,0.2,16.8,6.605,8.874,1.656,8.286,5.935,5.8,0.714,8.388-8-1.226-12.237,5.72-7.4-3.293-4.146,3.5-4.949,7.237-4.867,6.953,3.742,18.95,12.553,10.353,10.347-3.255,5.3,1.315,1.491-2.332,0.606,12.483,17.073,0.329,9.418,6.131-0.891,8.211L505.856,823.6l-4.867,2.794Z" transform="translate(-11.068 -421.209)" fill="#ff8080" stroke="#000" stroke-width="2"/><text transform="translate(540.465 274.989)" font-size="99.223" font-family="DejaVu Sans" font-weight="700">1</text><text transform="translate(806.437 231.299)" font-size="99.223" font-family="DejaVu Sans" font-weight="700">2</text><text transform="translate(693.433 444.903)" font-size="99.223" font-family="DejaVu Sans" font-weight="700">3</text><text transform="translate(288.201 293.166)" font-size="99.223" font-family="DejaVu Sans" font-weight="700">4</text></svg>