<svg xmlns="http://www.w3.org/2000/svg" width="876.661" height="983.838" viewBox="0 0 876.661 983.838"><title>Députés sortants du Bas-Rhin</title><path d="M472.67,615.608l0.982-10.119-4.086-13.024,0.766-3.87-3.679-13.207,0.9-10.422-5.873-8.132,5.706-2.019,1.732-5.5L467.06,543.4l-8.667-3.408,2.7-13.271,3.152-1.293,4.788-3.623-2.123-2.115-17.565-1.269-9.21-2.769-3.663-12.361-1.668-6.041,6.967-20.6-9.832-.551-2.091-6.384-1.636-5.985-14-13.111-15.745-4.541,3.71-4.868-2.482-2.4-3.99-2.713,4.565-3.926,10.071-13.878-2.6-6.193-3.447-.447,2.745-1.819,15.65,3.934,1.827-6.153-2.011-2.506,6.081-5.7,6.592-.431,10.925-7.2,8.635-11.308,9.815,0.024,6.44,7.11,6.48-1.4,0.455,0.95,0.607,6.568,24.283,4.621,7.916,8.978,9.121,0.942,4.485,3.184,12.825,15.7,0.59,2.075,0.311,3.463,12.113,6.759,10.223,1.915,0.766,3.4,5.315,1.819-0.1,10,3.352-.79,1.732,2.993-6.2,1.915-6.608,12.281,1.2,3.663-2.65.311,0.51,2.626,0.128,3.982-10.382.048-0.95,5.77,2.833,4.724,2.195,1.963-13.981,5.961,1.42,14.037,7.82,14.715-2.21,8.85,3.807,3.966,12.425-4.652,5.626,4.158-0.232,7.086-9.448,2.083,3.432,9.01-1.373,3.152-9.058,4.644-6.823-.646,4.485,15.865-2.4,6.312,2.505,2.346,2.29,2.466-3.79,5.4,1.013,6.137,9.743,0.431,5.395-4.253,22.536,6.456,9.433,0.79-3.136,5.77L590.535,639.5,581.9,669.539l-9.257-4.325,1.572-6.807-23.158-6.56-6.312,1.875-2.29-.718,0.2-27.436,1.556-4.589L528.3,615.753l-6.168,1.532-9.911,9.121-6.687-1.133-4.038-5.53-5.171,4.269-9.927,2.011-3.04,1.891Z" transform="translate(-30 -5.92)" fill="#06c" stroke="#000" stroke-width="2"/><path d="M285.313,675.946l-9.648,1.827-4.133,5.051-7.685,11-8.818,3.751-3.463,9.512,1.508,8.85-13.8,8.587-2.665-.726-7.15,7.27-18.905,8.148-5.267,4.613,0.391,6.264-2.49,2.434-16.518,2.394-4.158,4.1,3.368,4.732,9.465,4.062-3.04,9.9,7.717,5.818,5.363,12.7,3.447,0.583,10.175-1.014,18.235,7.7,9.712-1.891,10.023,0.128,5.363,8.65,5.818,2.825-0.2,3.16,6.408,8.044-5.33,8.946,1.2,3.368,10.135,2.3,17.1-4.078-1.763,2.362-5.77,7.063-5.842.846-0.766,10.478,8.291,6.815,17.723-2.043,32.048,15.442,7.015,8,3.551-.479,14.34,7.174,6.328,1.1,3.926,5.187,17.875,8.284L392.12,911.1l-0.527,15.793-1.78,22.432,34.059,10.853-3.383,16.639,2.195,5.459,23.038,5.929,17.158,0.543,14.276-14.26,0.407-20.541,9.7-14.269,10.55-13.805,5.283-12.84,3.192-8.268,16.471-17.421,9.105-33.7,0.83-3.192,8.93-45.671,7.557-7.661,19.7-8.77,5.083-5.091,2.466-6.751-1.165-10.725-5.02-22.719-3.5-20.03L568.5,706.2l13.478-36.725-9.257-4.317,1.572-6.815-23.158-6.56-6.312,1.875-2.29-.718,0.2-27.436,1.556-4.589-15.9-5.227L522.2,617.22l-9.911,9.121-6.687-1.133-4.038-5.53-5.155,4.269-9.943,2.011-3.025,1.891-10.087,6.4-1.045.614-0.407,22.28,0.543,2.163-1.852,2.274-0.439.3-6.472,6.312-4.923,7.358-5.035,2.41L443,689.608l-0.51.8-4.5,18.235-7.078.591-8.092,6.679-14.2-.606L398.4,718.8l-3.974-6.815,2.682-5.818,6.815-4.573,0.8-5.81-7.373-11.42-13.2-4.15L384.633,678l-0.75-3.918-15.793,5.849-9.848-8.427-4.461-2.067-7.493.83-8.746,10.606-10.1-3.878L316.795,678.6l-10.382-3.024Z" transform="translate(-30 -5.92)" fill="#06c" stroke="#000" stroke-width="2"/><path d="M461.682,556.835l5.706-2.019,1.732-5.5L467.06,543.4l-8.667-3.408,2.7-13.271,3.152-1.293,4.788-3.623-2.123-2.115-17.565-1.269-9.21-2.769-3.663-12.369-1.668-6.033,6.967-20.6-9.848-.551-2.075-6.384-1.636-5.985-14-13.111-15.745-4.541-3.663,3.591-6.95-7.8-13.311-1.261-21.881,5.49-11.172-7.485-7.868,2.49-0.311,6.927L319.739,458.2l-18.514-8.451-8.26,5.738-6.823-1.4L283.318,437.3l-5.953.934L261.31,461.848l-9.105,5.49,6.44,7.789L244.99,500.12l5.77,8.427-6.017,3.128L234.552,527l-14.228,19.527-2.49,2.378-10.318-.351-5.5,3.535-4.158,12.265-12.625,8.8-0.407,1.125-10.207-3.088-10.087,2.266-15.226-8.475L133.068,572l-8.291-6.767-9.488,12.417,7.948,8.156,2.466,3.854,1.835-2.993L141.3,584.79l13.183,3.823,4.222,12.369-2.665,1.955-13.606-.766-7.557-5.985-2.195,5.451,1.8,11.866,17.07,5.69-1.357,10.638L141.7,649.437l1.308,10.366,1.277,3.823,0.87,1.516-5.578,3.471-3.71,9.081,0.08,22.057-7.342,7.222,5.41,3.806,7.278,6.312,2,12.162-3.926,2.378-10.286,13.885-6.575,7.717,20.358,8.65,7.557,10.175,16.415,2.163,4.485-1.269,10.087-3.583,4.58-5.634L182.619,759l4.15-4.1,16.518-2.394,2.49-2.434L205.4,743.81l5.251-4.613,18.905-8.148,7.166-7.27,2.665,0.726,13.782-8.587-1.5-8.85,3.447-9.512,8.818-3.751,7.7-11,4.133-5.051,9.648-1.827,21.043-.319,10.382,3.024,10.645-1.612,10.1,3.878,8.746-10.606,7.51-.83,4.445,2.067,9.863,8.427,15.793-5.849,0.735,3.918-0.471,2.219,13.2,4.15,7.358,11.42-0.8,5.81-6.8,4.573-2.7,5.818,3.99,6.815,10.207-3.5,14.2,0.606,8.092-6.679,7.078-.591,4.5-18.235,0.51-.8,10.741-11.651,5.035-2.41,4.908-7.358,6.472-6.312,0.439-.3,1.852-2.274-0.527-2.163,0.407-22.28,1.045-.622,10.071-6.392-10.725-12.25,1-10.119-4.1-13.024,0.766-3.87-3.663-13.207,0.9-10.422Z" transform="translate(-30 -5.92)" fill="#06c" stroke="#000" stroke-width="2"/><path d="M418.031,199.923l-2.059-2.785-10.055,1.117-5.69-3.9,0.718-6.448,8.323-5.155-3.743-5.8,1.508-3.128,12.018-6.743-6.823-7.813,6.735-12.481-17.756-7.038-6.145-11.8-13.67-1.5-4.173-5.187-15.195,7.35L345.25,131.35l-8.275,5.666-8.4,1.564-8.028-2.434-6.113-3.016-2.7,2.1-7.98,6.2-6.64.191-4.548,5.019-13.822-10.3-0.67-3.391-10.366.128,2.091-8.651-1.931-2.266,2.37-5.722L232.3,100.905l-19.455,7.813L203.7,94.577l-6.528.008-8.123-13.032-8.667,4.214-0.735-3.376-20.653.191L153.551,64l-3.99-8.243,2.322-6.129L143,41.214l-2.977-16.287,0.83-3.391,6.839-.407,1.181-6.065L142.251,13l-4.038-5.49-6.935,7.773-9.743-1.8-2.505,2.466-1.652,6.584,2.522,6.36,4.285,7.134-16.1,20.429-3.743,13.183,2,9.48-3.743,9.1-5.8,4.158-4.485,9.84,4.054,10.1-0.7,3.575-6.113,3.583,3.12,14.077h-4.27l-4.844-1.684-17.812-2.945-3.862,11.276-3.415,7.924-2.96,9.161-7.765,6.608-6.392-.846-6.3-7.717-1.947.168L31.12,166.032l9.225,4.78,5.77,13.127-4.205,13.494,10.135,3.511,10.63-.631,38.671,19.32,6.815,7.956-3.025,6.169,19.463-5.123,10.1,1.045,3.152,8.938-7.047,6-4.533.822-20.11.742,1.181,11.236-4.548,15.8,3.615,5.977,12.968-.391,9.145,3.408,1.979,5.905-14.356,7.046,1.525,6.48,6.9,6.943,4.27-5.49,12.9-4.972,8.538-2.562,6.543-2.282-2.45-9.664,4.485-5.331,6.767-1.827,5.131-4.9-3.551-13.71,4.565-9.313L188.5,251.2l2.354-5.586,5.378-3.024,6.233,11.7-4.677,4.884,11.02,7.533,5.8,0.846,5.443,7.262-1.525-9.3,6.376-.367,12.345,11.914,8.667-5.443,2.96,3.711-8.228,3.831-3.463,4.964,8.475,6.145,2.107,6.711,6.312-5.107,14.077,8.858-0.143,7.821,12.138,18.961,3.224,0.654-14.181,15.7L265.442,365.1l-0.51-.176-13.575,21.115-0.95,10.813-3.12,5.9-6.543-.742-5.562,3.416,10.143,19.791,3.025,1.381,3.12,9.464,3.32-.088,22.5,2.219,5.97-.934,2.825,16.782,6.823,1.4,8.26-5.738,18.514,8.451,13.575-10.167,0.311-6.927,7.868-2.49,11.172,7.485,21.881-5.49,13.311,1.261,6.95,7.8,3.663-3.583,3.71-4.876-2.482-2.4-4.006-2.713,4.58-3.926,10.071-13.878-2.6-6.193-3.447-.447,2.745-1.819,15.65,3.934,1.827-6.153-2.011-2.506,6.081-5.7,6.592-.431,10.925-7.2,8.635-11.308,9.815,0.024,6.44,7.11,6.48-1.4,0.439,0.95,0.607,6.568,24.3,4.621,9.121-7.956-0.391-7.031-4.908-1.053,2.45-10.238,5.155-4.421,12.561,5.49,0.75-10.2-0.933-.559-5.825.168-0.3-2.921-8.228-9.185-3.1.048-6.145-1.867-4.988-8.212-2.913,1.357-1.588-17.421,2.45,2.019,5.594-2.083,4.086-7.813-0.854-9.121-3.208-.551-6.265-11.475-5.785-2.777-1.9-1.532,2.793-2.9-2.338-2.594,2.913-16.846,0.327-10.023,12.218,5.235,0.83-3.16,13.575-8.81,1.062-6.368-2.913.83-25-1.732-1.979-.279-8.85-.9-16.862-2.8-3.6-8.946-15.4-5.873-3.758-5.211,0.215-5.331,13.151-3.288,7.916-14.58-6.672,1.891-9.161-4.573-5.921,3.838-4.628-4.916Z" transform="translate(-30 -5.92)" fill="#06c" stroke="#000" stroke-width="2"/><path d="M751.545,336.974L737.659,334.6l-8.635,5-1.732,27.2-4.054,9.808-25.185,30.548-5.674-4.181-3.807-9.632-24.036-5.706-4.828-5.227,1.668-2.426,3.958-9.145-0.67-6.623,5.985-7.924,13.231-.638,5.753-8.547,5.818-3.009-0.575-3.072-10.486-6.584,14.436-19.208,1.763,1.213,6.081-20.11-0.687-7.126,11.053-17.525,3.025-13.08,6.36-2.793,16.088,5.929,4.708-4.062,6.168-19.9-12.113,5.9L723.69,242.5l-3.152-1.612,1.077-14.117-6.967-2.139L682.09,201.71l-28.585-4-10.175-2.969-8.028-6.48-17.141.83-4.317,12.648,9.848,4.214-5.131,9-23.581-6.576-9.3,5.147-7.493,10.725-16.726-.678-2.386-2.386-5.857-1.221-2.618-8.363-0.51.75-8.163,10.7,4.82,8.89-4.725,9.2-12.7-4.158-5.083-9.129-18.642,3.87-2.538.511,1.5,4.8,2.075,6.368,9.5,2.921-25-1.74-1.979-.271-8.866-.9-16.846-2.809-3.6-8.946-15.4-5.865-3.758-5.211,0.215-5.331,13.151-3.288,7.916-14.588-6.672,1.9-9.177-4.581L440.2,198.55l-4.628-4.916-17.5,6.288-2.059-2.785-10.039,1.117-5.706-3.9L401,187.9l8.323-5.155-3.758-5.8,1.525-3.136,12.018-6.735-6.839-7.813,6.751-12.481,9.9,1.389,5.921,8.531,13.8-2.777-2.354-6.089L464.3,127.8l2.466-4.573-0.8-6.831,6.751-12.593-2.45-6.408,13.3-20.054-1.293-9.919,13.438-14.165,8.866-14.891-2.73-6.264,24.283,8.475,17.628-3.9-0.83-6.783,16.815,3.695,6.751-1.8,1.11,10.47,6.185-2.594,17.038,0.184,8.092-11.34,7.047-.989,4.022-5.9,3.551,0.136,22.4,17.03,9.76,4.158,5.53,8.571,8.092,2,11.922-13.8,3.48-1.165,17.07,6.248,14.78-14.819,19.248,16.3,7.39,12.609,14.26,0.287,15.777,8.946,20.733,6.831,11.531,13.9,15.761,10.4,22.76,4.517,5.395,3.934,20.094,3.783,21.06,0.974,2.9,6.464,3.447,0.894,12.593-6.089,5.052,4.772,0.965,3.456-2.618,2.45-19.7,8.092-6.95,12.449-12.64,21.219L845.341,195.5l-13.655,32.1L822.1,265.272,817.88,278.24l-9.536,14.213-16.678,13.2-14.133-1.58-6.592,2.657-9.76,26.135Z" transform="translate(-30 -5.92)" fill="#06c" stroke="#000" stroke-width="2"/><path d="M684.368,334.4l10.486,6.584,0.59,3.072-5.818,3.009-5.77,8.547-13.231.638-5.985,7.924,0.67,6.623-3.942,9.145-1.668,2.426,4.828,5.227,24.036,5.706,3.79,9.632,5.674,4.181-19.216,23.964-10.366,9.145-24.4,13.119-6.168,12.17-6.935.319-12.983-10.566-6.608,1.8-2.306,5.873-0.687,2.777-5.052-6.552-0.67-11.212-12.92-4.381-2.761-9.289-10.3,8.635-6.44-1.716-3.743,5.355-5.33-1.827-0.766-3.391-10.207-1.923-12.113-6.751-0.327-3.463-0.59-2.083L524.319,411.42l-4.477-3.184-9.137-.942-7.9-8.978,9.105-7.956-0.375-7.031-4.923-1.053,2.45-10.238,5.155-4.429,12.577,5.49,0.735-10.2-0.918-.559-5.825.168-0.311-2.921-8.228-9.185-3.088.048-6.153-1.867-4.988-8.22-2.9,1.365-1.6-17.421,2.466,2.019,5.578-2.083,4.086-7.813-0.838-9.113-3.224-.559-6.265-11.475-5.77-2.777-1.915-1.532,2.793-2.9-2.338-2.6L491,268.631l0.327-10.023,12.233,5.227,0.83-3.16,13.558-8.81,1.077-6.36-2.913.83-9.5-2.921-2.075-6.368-1.5-4.8,2.538-.511,18.642-3.87,5.067,9.129,12.7,4.158,4.74-9.2-4.828-8.89,8.18-10.7,0.495-.75,2.618,8.363,5.873,1.221,2.386,2.386,16.726,0.678,7.493-10.725,9.3-5.147,23.581,6.576,5.131-9-9.848-4.214,4.3-12.648,17.158-.83,8.012,6.48,10.19,2.969,28.585,4,32.559,22.919,6.967,2.139-1.093,14.117,3.16,1.612,17.58,1.165,12.113-5.9-6.185,19.9-4.692,4.062L726.406,255.8l-6.36,2.793-3.025,13.08L705.969,289.2l0.67,7.126-6.065,20.11-1.763-1.213Z" transform="translate(-30 -5.92)" fill="#adc1fd" stroke="#000" stroke-width="2"/><path d="M548.674,543.337l-3.762-3.935,2.2-8.779-7.776-14.608-1.4-13.934,17.443,10.556,16.823-5.148L572.6,502l8.485-1.435,4.092,5.846,4.71,2.371,4.56-4.824,6.742,4.992,4.173,0.382-5.2,12.261-14.233-5.351-6.832,5.511-0.122,4.316-9.37,4.084-3.03,12.7-5.58-4.13Z" transform="translate(-30 -5.92)" fill="#ff8080" stroke="#000" stroke-width="2"/><path d="M547.358,606.211l-1-6.1,3.751-5.359-2.263-2.434-2.508-2.331,2.39-6.263-4.446-15.744,6.758,0.643,9-4.613,1.345-3.13-3.393-8.942,9.378-2.059,0.472-6.976,2.78-12.752,9.37-4.084,0.122-4.32,6.832-5.511,14.233,5.351,5.2-12.257,7.035,0.893,1.022,7.093,3.56,24.758-0.2,46.1-7.53,12.019L594.1,609.587l-9.344-.769-22.379-6.4-5.351,4.223Z" transform="translate(-30 -5.92)" fill="#ff8080" stroke="#000" stroke-width="2"/><path d="M601.192,508.946l-6.742-4.992-4.56,4.824-4.71-2.371-4.092-5.846L572.6,502l-0.409,5.494-16.823,5.148-17.443-10.556,13.871-5.913-2.185-1.947-2.807-4.691,0.932-5.717,10.307-.04-0.129-3.958-0.506-2.609,2.628-.308-1.2-3.635,6.567-12.187,6.158-1.907-1.709-2.976-3.334.78,0.1-9.92,3.724-5.315,6.383,1.7,10.225-8.567,2.738,9.226,12.815,4.341,0.67,11.136,5.011,6.512,0.676-2.75,2.3-5.838,6.56-1.774,12.885,10.486,6.883-.312-3.677,13.863L612.4,510.24Z" transform="translate(-30 -5.92)" fill="#06c" stroke="#000" stroke-width="2"/><text transform="translate(575.366 164.301)" font-size="125.272" font-family="DejaVu Sans" font-weight="700">8</text><text transform="translate(529.416 374.554)" font-size="125.272" font-family="DejaVu Sans" font-weight="700">9</text><text transform="translate(269.391 322.268)" font-size="125.272" font-family="DejaVu Sans" font-weight="700">7</text><text transform="translate(430.822 514.617)" font-size="125.272" font-family="DejaVu Sans" font-weight="700">4</text><text transform="translate(262.227 603.666)" font-size="125.272" font-family="DejaVu Sans" font-weight="700">6</text><text transform="translate(359.076 832.805)" font-size="125.272" font-family="DejaVu Sans" font-weight="700">5</text><text transform="translate(517.816 530.906)" font-size="31.157" font-family="DejaVu Sans" font-weight="700">1</text><text transform="translate(541.647 487.959)" font-size="53.086" font-family="DejaVu Sans" font-weight="700">3</text><text transform="translate(538.746 579.879)" font-size="68.464" font-family="DejaVu Sans" font-weight="700">2</text></svg>