<svg xmlns="http://www.w3.org/2000/svg" width="978.246" height="790.052" viewBox="0 0 978.246 790.052"><title>Députés sortants de l&amp;apos;Aube</title><path d="M477.475,179.539l-5.5-2.252-9.145,13.9,1.095,9.4-3.121,5.986-12.236,10.854-9.308,1.3-18.8-4.231-11.537,11.933-4.6,19.828,2.166,2.616-4.262,2.888-4.93-3.338-5.66,7.9-5.823,18.54-19.937-2.531-5.015,4.115-1.957.093-6.584,26.04-9.208-2.484-0.606.163-18.967-1.227,0.163,6.405,5.745,2.741-3.23,12.989,0.714,13.431,3.866,0.008-9.037,18.462L310.1,360.4l-5.683,2.469-12.282,36.358,3.121,8.688,5.311,3.812,3.99-4.565,5.38,2.112,4.6,4.363,2.609-1.809,5.186,3.439,0.109,26.195,5.279,3.975-11.739,10.574,4.425,10.465,10.52,6.591,2.368,8.788,9.13,2,7.841-5.691,18.167,19.58,33.8-22.484,9.526,13.9,5.947,7.911,12.375,12.344L440.465,521.3l3.214,6.856,11.42,15.046,9.868,5.194,3.688,9.572,2.515,2.508-0.349,4.829-0.349,2.011,1.3,2.717,0.209,2.935-3,1.972,1.879,3.237-1.879,1.405,13,13.509,9.751-3.16,8.509,8.835,4.394-4.79,17.313,8.167,9.464,0.613,3.641-8.571-14.316-10.955,1.832-2.461,6.988-1.56-4.41-8.509,2.034-13.353,9.355-13.268,11.917,5.8,5.474,8.858,11.739-6.576,7.7,10.978,17.942,8.9,6.49,7.632,9.58,9.145,16.133-3.37,5.279,4.185,2.438,8.571,9.192-3.121,3.7,6.087,7.29,2.865,10.264,12.228,6.84-.73,2.019,2.818-4.278,12.942,0.35,13.641,5.411,10.605,4.34-2.236,5.885-.613,7.019,6.591,5.7-1.475,5.885,4.309-4.232,4.619-2.182,8.975,1.778,2.577-3.758,9.379-9.1,3.765-4.55,12.7,3.719,5.582-2.865,9.572,8.1,2.143-0.4,5.077,14.62,4.48,1.367,1.918,14.161,23.353,13.012,2.849,8.113,9.736-1.467,2.484-10.31,12.15-11.312,5.66-7.352,32.149,11.249,1.421,13.936,4.713,10.947,6.079,0.226,0.008-0.411,16.777,2.368,2.446,8.556,0.769,6.382,2.438,8.1,10.8,3.408,0.3,9.612,0.388,2.9-6.009,15.737-15.846,13.043-2.135,6.3,2.088,5.9-2.943,3.4,6.949,16.925-.342,16.739,9.542,15.046-7.748,5.613,2.6,3.074-1.506-0.574-10.155,9.977-13.524-8.61-5.3-12.492-20.543-20.077-5.139-2.1-2.073,22-6.63,9.277-2.593,1.32-6.335-2.019-2.7,13.509-9.053L902.4,755.59l5.962,3.742,13.936,0.551,16.405,5.753,18.548,5.652,12.81-1.576-0.7-12.2-3.121-11.436L980.42,733.7,972.7,723.239l-1.2-9.945,1.5-6.584,6.584-7.732-1.149-3.214,5.962-12.422,0.139-.124,3.991-5.536,0.063-10.326-15.24-6.988-2.484-6.312,10.52-7.282-5.427-11.249,1.639-6.242-0.792-1.987,1.273-6.685,8.509-10.124-10.853-17.344,5.217-12.632-10.038-6.661-6.172.73-0.668-9.782-7.29-10.838,17.981-16.335-4.612-4.985-10.248-.567-17.2-10.962-12.057-1.343-13.237-9.045,3.719-20.915-8.944-4.674-19.867-2.026-5.854,3.222-2.7-2.026-1.079-4.891,4.232-3.105L877.6,462.89l-9.177-2.376,5.093-8.3-7.336-10.194L864.16,433.6l-25.139-12.422-5.916-11.42L850.7,407.3l-1.3-6.607,4.867-15.978-0.807-10,5.683-7.337,2.2-.163,4.441-8.7-4.06-12.313-3.051-5.489-9.627.388-0.668-2.818-9.868-4.627,4.169-9.379-31.932,1.545-1.413,3.02-6.428,1-6.762-.225-8.493,6.04-9.177,14.549-3.424.567-6.638-2.011-5.264-15.574-6.444-2.873-10.4,9.068-21.048-8.812-23.447-5.59-3-.978-20.38-13.237-28.236-30.441-12.438-3.874-10.512-14.378L638.042,248.5l-1.289-6.459-2.927-5.481-1-2.422-3.292-5.543,6.413-6.529-2.384-5.932,5.962-11.863-6.63-10.427,2.275-12.9L624.6,167.892l-9.324-2.717-22.864,5.978L583.3,166.72l-3.439-5.031-6.638,14.371-23.718-1.7L536.569,170.3l-13.027,3.727-17.624,18.19Z" transform="translate(-11.354 -159.669)" fill="#06c" stroke="#000" stroke-width="2"/><path d="M230.845,704.583l4.278,9.332-0.241,6.7-9.767,9.518-3.385-.435-4.076-9.317-2.2,9.542-15.318,6.133-5.427-20.147-5.931-8.525-6.7-16.265-11.187-7.314L151.36,696.982l-12.391-9.938,22.623-21.583,8-14.929-6.064-6.009-5.093,1.778-3.121-5.683,1.149-3.106,15.116-17.072-0.559-3.269,14.1,2.694,27.08,2.616-0.668-4.371-3.261-3.874,13.742-10.085,10.178-1.157,21.125-10.706-1.227-9.938,5.9-2.686-0.559,9.409,4.231,4.914,9.293-7.282,9.736-6.816L294.477,590.4l3,6.234,15.636-2.958,0.761-1.918,4.852-9.091,14.541-9.192,6.793,1.622,12.678,20.776,2.88-1.568,10.6,7.329,9.417-1.483L381,598.117l4.293,13.742,9.371,8.54,8.369-5.512,6.281,0.823,9.115-4.192,15.046-5.155,5.761-2.95,0.528-6.017,5.683-3.082-0.155-6.5,16.071-.831,3.548-1.886-0.109-2.64,4.153-2.826,13,13.509,9.736-3.16,8.509,8.835,4.41-4.79,17.305,8.167,9.48,0.613,3.625-8.571-14.3-10.962,1.832-2.453,6.988-1.56-4.41-8.509,2.019-13.353,9.355-13.268,11.917,5.8,5.474,8.858,11.754-6.576,7.7,10.978,17.942,8.9,6.49,7.624,9.565,9.154,16.133-3.37,5.295,4.185,2.438,8.571,9.177-3.121,3.7,6.087,7.306,2.865,10.248,12.228,6.856-.73,2,2.818-4.262,12.942,0.35,13.641L672,655.586l4.324-2.236,5.9-.613,7,6.591,5.714-1.475,5.885,4.309-4.232,4.619-2.182,8.975,1.778,2.577-3.773,9.379-9.084,3.765-4.55,12.7,3.719,5.574-2.88,9.58,8.113,2.143-0.4,5.077,14.6,4.48,1.382,1.918L717.491,756.3l13.012,2.849,8.113,9.736-1.483,2.484-10.31,12.15-11.3,5.66-7.368,32.149,11.249,1.421,13.951,4.713,10.947,6.079,0.226,0.008-0.411,16.777,2.352,2.446,8.571,0.769,6.382,2.438,8.082,10.8,3.424,0.3L777.677,883l8.238,5.59,2.989,13.151-5.015,3.579-13.8-2.081-9.9,3.494-13.827-1.677-32.025,11.677-5.838-3.121-14.331-8.7-42.141,11.4L625.8,910.538l-4.713,8.23-4.2,5.474,1.848,10.163-5.714,12.43L597.078,948.7l-15.225-6.529-14.72-17.818L568.5,901.23l-15.846-.613-4.363,4.744,0.031,3.4,6.064,3.175,0.986,13.517-3.726,5.442-9.868,1.646-0.792-13.486L529.822,913l-16.863,15.846,0.031,6.708-6.094-.528-6.917,5.908-5.566,3.447-12.57-.179-1.273-12.748-1.925-2.655L459.6,927.075l-3.99,15.4L449.74,945.6l-8.338-5.326-5.38,3.618-6.475-1.677-6.506-11.863L409.9,942.036l-2.927.349-11.917-5.217-9.037,3.354-15.147-2.469-5.264,6.452-2.943-1.576-5.854,3.082-6.25-2.049-1.11-.73,5.52-8.866,2.15-20.543,5.613-16.218-6.9-15.815-5.264-8.09-6.553-.435-2.453,2.275-1.095,16.3-12.313,4.938,1.786-6.3-9.549-.815-6.731-19.945,15.193-2.352,5.264,3.362-0.381-13.268-14.681-12.9-3.036-5.9-7.43-.854-6.716-7.585,4.41-4.091-1.514-15.256-18.3-22.375,0.908-9.34,3.726-4.837-2.64-6.133-21.591-25.83-10.535,6.825-8.129-5.963-0.559-6.63,9.736-13.252L251.4,708.046l-19.135-6.576Z" transform="translate(-11.354 -159.669)" fill="#06c" stroke="#000" stroke-width="2"/><path d="M118.325,557.166l0.807-14.65-8.385-6.032-18.485-24.7-5.729-3.835-13.75.085L70.1,502.9l-0.209-.218-13.431,1.8L44.221,516.4l-3.292-.831-8.307-14.743,0.528-13.649,4.006-18.625-0.124-6.4-10.4-.008,4.565-5.831L18.7,452.441l2.515-9.6,4.914-4.7,1.033-13.61L21.279,416.4l0.334-6.653-8.719-9.837,12.965-7.927,11.071-4.728,9.308,0.481,0.179-6.576-6.653-15.45-12.81-15.6,5.838-5.427,14.7,4.907,9.371-.124L71.37,338.137l5.978-1.413L77.76,328.4,66.642,307.788l2.321-2.562L79.7,297.835l4.534-8.338,15.209-2.151-6.382-11.785,1.957-2.717,31.148-11.428-0.062-3.331,4.992,7.663,1.5,9.052,9.542-1.328,1.778,19.355,6.537-1.537,7.764,14.518,2.275-1.716,5.008-4.324,5.644-.551,5.015,7.477-1.545,9.5,2.306,16.645,7.305,9.06,9.813,0.606,4.045-.644,15.877-2.547,11.63,4.255,16.8-2.942,15.4,4.247,7.554,5.815,5.233-2.352,7.795,1.071,6.615,0.769,19.533,12.756-12.282,36.35,3.106,8.688,5.326,3.82,3.975-4.573,5.4,2.112,4.581,4.363,2.624-1.809,5.186,3.439,0.109,26.195,5.279,3.975-11.739,10.574,4.41,10.465,10.535,6.591,2.352,8.788,9.13,2,7.857-5.691,18.167,19.58,33.8-22.484,9.526,13.9,5.947,7.911,12.375,12.344,10.372,11.886,3.23,6.856,11.42,15.046,9.868,5.194,3.688,9.58,2.515,2.5-0.365,4.829-0.349,2.011,1.3,2.717,0.225,2.935L469.075,575l1.879,3.237-6,4.231,0.093,2.64-3.548,1.886-16.071.831,0.163,6.5-5.7,3.082-0.512,6.017-5.776,2.95-15.046,5.155-9.115,4.192-6.265-.823-8.369,5.512-9.386-8.54-4.278-13.734-5.38,2.026-9.4,1.483-10.613-7.329-2.88,1.568L340.19,575.108l-6.793-1.622-14.541,9.192L314,591.77l-0.761,1.918-15.636,2.958-3-6.234-13.93-10.536-9.736,6.816-9.293,7.282-4.216-4.907,0.544-9.417-5.9,2.686,1.227,9.938-21.125,10.7-10.163,1.165-13.75,10.085,3.276,3.874,0.668,4.371-27.1-2.616-14.084-2.694-5.667-13.121L143.8,593.819l-1.747-3,5.062-12.508-16.071-12.228,0.574-10.186Z" transform="translate(-11.354 -159.669)" fill="#06c" stroke="#000" stroke-width="2"/><text transform="translate(460.742 656.292)" font-size="121.874" font-family="DejaVu Sans" font-weight="700">2</text><text transform="translate(611.956 336.373)" font-size="121.874" font-family="DejaVu Sans" font-weight="700">1</text><text transform="translate(152.107 360.071)" font-size="121.874" font-family="DejaVu Sans" font-weight="700">3</text></svg>