<svg xmlns="http://www.w3.org/2000/svg" width="903.259" height="961.597" viewBox="0 0 903.259 961.597"><title>Députés sortants des Ardennes</title><path d="M42.517,765.387l3.734,13.652,0.426,6.911,3.936,5.424-1.255,6.864,14.1,0.883,6.283,3.223,4.222,0.047,13.8-.4h5.765l18.541-2.293,15.922,2.348,15.875,0.845-1.619,2.371,8.112,15.085,8.143-4.122,5.4,3.711,12.466,1.766,1.41,2.115,3.3-.449,7,16.03,9.894,9.995,13.45,2.417-4,3.611,1.526,2.2,11.831,20.532,16.674,0.194,5.718,3.595,0.806,6.671,6.7-.3,5.92-4.037,8.522-3.3,12.908-4.6,3.889-5.648,11.877,6.531,19.129-3.572-2.417-10.01-8.731-11.025L297,839.727l5.672-.806,0.457-5.695,6.733-.4,3.068-5.764,3.285,0.759,8.1-10.614,1.286-6.624-7.733-5.679,3.146-5.927L322,793.356l-3.417-4.982,7.415-10.312,0.651-17.928,5.462-4,2.782-9.646,18.843-23.321-4.6-3.014,3.525-5.168-2.874-12.148,3.192,0.132,5.238-7.864,3.161-.442-0.713-6.268,4.874-8,18.447-3.936,4.354-12.172-0.953-9.762,8.561-4.292,6.082,1.782-3.479-11.49,3.859-12.009,9.158-7.849-2.743-5.547,8.941-5.687,10.444-2.154,5.966,3.479,4.316,9.173,9.018,5.757,14.666-1.232L458.3,642.615,466.6,655.05l6.779-12.025,10.258-2.208,9.777,2.58,4.68-4.68-1.983-6.314,2.1-2.557,0.3,3.285,15.542,4.215,1.41,1.968,6.6-1.643,4.633-4.912,19.277,6.469,13.466-1.178,11.18-12.745-3.463-8.879-5.586-3.076,3.828-5.067-0.589-17.2,3.332-.728,9.67-3.9-9.809-22.12,5.253-8.887-12.575-.473,5.78-8.174,3.525-18.277,3.556-5.958,0.713-13.551-2.937-6.888,2.634-1.743,3.068-.635,1.8-6.051-4.176-11.761-0.806-.852-3.587-13.613,3.711-17.409,3.92-5.447-1.774-2.867-3.75-8.677,0.558-6.431-0.473-11.071L569.43,410.4l-2.921.674-9.049-15.96-18.238-.968-7.1-4.013-8.779-4.773-3.285,1.123-2.743,6.214,2.1,10.088-2.347,2.541-0.573-6.617-11.653-11.8-3.619,4.757-0.806,1.689-2.177,20.02-4.7-.24-3.983,2.286-0.225,3.014,1.65,4.819-0.589,3.347-3.967-1.511-0.953-3.479-7.973-1.217-2.061,4.633,4.238,3.115,0.046,2.975,10.158,1.937,4.331-.07,1.146,2.107-4.176,1.441,1.364,6.3-13.954.5-0.876,17.983-2.6,4.354-12.83,18.571L452.171,487.5l1.131-3.169-5.447-3.882-5.811-1.751-4.029-8.034-7.43,5.268-13.063.674L405.3,492.85l-9.413,3.587-4.416-3.355,1.3-4.075,5.7-19.067-5.253-8.554,9.049-12.559-10.1-.93L384.424,437,368.4,433.153l0.829-5.16-8.306-2.394-2.177-12.621,5.633-11.366-4.951-2.952-2.286-3.51-5.8-16.092-6.415-.62-7.655-5.757-5,4.006-7.763,6.586-3.083,23.995-9.112-1.526-4.354-2.417,3.432-9.847-6.306-12.056,3.393-24.561-8.84-18.207-3.983-.163-6.671-2.572-2.921-10.5,18.811-38.468L315,275.083l-17.61,11.908L281,293.305l-10.684.682,3.131-1.542,0.86-17.161-5.586-16.332-0.3-3.479,2.092-2.735,10.158-1.441,2.076-2.8-2.115-2.681-7.035-.48-5.036-4.982-20.733,1.519L238.5,231.114l-10.5-1.689-5.687-4.285-13.241,4.517-21.26.163-16.572,6.307-0.6,1.914-7.856,22.887-1.6,17.727,2.874,5.974,7.57,1.34,2.177,5.455,12.381-.194-3.711,41.629-0.728,6.423-10.1,8.453L169.333,360.6l-4.354,4.316-5.765,26.3,3.114,1.131,4.966,12.056-2.8,6.051-8.476,5.315-2.379,2.472,5.238,8.608,6.733-1.79,11.544,7.608,3.192,9.909-10.777,8.879-1.921,16.27-1.456,3.874-13.334,4.657-9.08,7.2-4.618,14.69,0.589,2.4L126.286,505.6l-9.065,3.308-4.447,4.06,1.573,8.956-12.954-.078-2.874,17.433,1.441,10.436-5.005,9.173-1.03,8.4-12.97,4.16-16.131-6.888-13.783,1.03-2.015-2.921-3.4-.356-2.495,13.063-8.066,5.478,3.448,5.912,10.545,13.683,8.592,4.354,2.526,2.286-2.743,6.284,1.681,13.675,9.189,3.82L57.059,647.341l-6.1,2.952,0.968,6.617,10.3,1.96,5.33,4.246L67.2,680.471l-0.4,3.316-9.112-2.58-3.176,12.381-9.971.4,0.046,13.195,0.5,11.629-0.078,3.347,0.457,10.165,15.844,25.63-3.13-1.3-9.367,1.573Z" transform="translate(-33.729 -18.949)" fill="#06c" stroke="#000" stroke-width="2"/><path d="M469.978,164.529l1.255,16.82-1.588,6.586,5.586,8.647-17.525.155-22.894,9.1-24.545,1.542-13.117,4.966-3.859,7.663L387.6,223.9l-13.636,1.635-10.986,17.316-8.461,4.618-20.78-.325-22.384,10.188-17.51-9.506-13.195-2,2.1,2.681-2.061,2.8-10.158,1.441-2.092,2.735,0.3,3.479,5.571,16.332-0.845,17.161L270.339,294l10.684-.689L297.41,287l17.61-11.908-10.111,11.87L286.1,325.428l2.921,10.5,6.655,2.572,4,0.163,8.84,18.207-3.393,24.561,6.291,12.056-3.417,9.847,4.354,2.417,9.112,1.526,3.083-23.995L332.3,376.7l4.981-4.006,7.67,5.757,6.415,0.62,5.8,16.092,2.286,3.51,4.951,2.952-5.633,11.366,2.177,12.621,8.29,2.394-0.813,5.16L384.447,437l7.748,10.9,10.1,0.93-9.049,12.559,5.253,8.554-5.7,19.067-1.3,4.075,4.416,3.355,9.4-3.587,12.241-16.247,13.063-.674,7.43-5.268,4.029,8.034,5.811,1.751,5.447,3.882-1.131,3.169,10.111-3.254,12.83-18.571,2.6-4.354,0.876-17.983,13.954-.5-1.364-6.3,4.16-1.441-1.131-2.107-4.347.07-10.142-1.937-0.046-2.975-4.238-3.115,2.061-4.633,7.973,1.217,0.953,3.479,3.967,1.511L491,423.26l-1.65-4.819,0.225-3.014,3.983-2.286,4.687,0.24,2.192-20.02,0.806-1.689,3.619-4.757,11.653,11.8,0.573,6.617,2.347-2.541-2.1-10.088,2.743-6.214,3.27-1.123,8.794,4.773,7.1,4.013,18.238,0.968,9.049,15.96,2.921-.674,3,5.176,9.67-1.426,3.146-5.757L580.91,403l12.195-24.9-4.176-20.524-5.7-3.541-2.316-6.617-2.347-13.985,6.842-7.236L599.189,296.9l1.526-14.031-4.284-9.987-13.35-12.056-8.716-15.581-20.64-5.462-15.1-4.23-0.6-10.754,3.68-13.652,6.842-2.022,6.4-8.631,3.238-31.8,12.954-16.72-2-6.539-6-3.68-0.078-7.182-5.765-3.827,1.015-4.726,12.1-4.556,0.86-13.427,3.177-1.015-3.347-9.39L577.62,90.2l6.353,1.96,2.433,6.741,3.114,1.766,2.766-2.239-2.177-28.365,5.733-8.871,11.746-8.073-0.194-3.587-7.066-1.456L593.913,35.53l-28.45-1.774-5.842-12.892L546.256,37.908l-15.039,10-9.561,4.044L515.59,68.148l-3.254.372,0.225,9.793L488.76,90.33l-1.177,3.115-7,1.387-13.753,28.76,3.27,10.181,6.7-1.619-0.4,16.565-3.811,9.367Z" transform="translate(-33.729 -18.949)" fill="#ff8080" stroke="#000" stroke-width="2"/><path d="M360.665,688.435l4.874-7.988L384,676.5l4.354-12.172L387.4,654.57l8.561-4.292,6.082,1.782-3.495-11.49,3.874-12.009,9.143-7.849-2.728-5.547,8.941-5.687,10.428-2.154,5.974,3.479,4.3,9.173,9.034,5.757,14.666-1.232L458.3,642.661l8.306,12.427,6.794-12.025,10.243-2.208,9.794,2.58,4.68-4.68-1.983-6.322,2.1-2.557,0.287,3.285,15.542,4.215,1.41,1.968,6.6-1.643,4.648-4.912,19.261,6.469,13.481-1.178,11.165-12.745-3.463-8.879-5.571-3.076,3.811-5.067-0.589-17.2,3.347-.728,9.67-3.9-9.809-22.12,5.253-8.879-12.59-.48,5.8-8.174L570,528.56l3.541-5.958,0.728-13.551-2.937-6.888,2.619-1.743,3.083-.635,1.8-6.051-4.176-11.761-0.806-.852-3.6-13.613L573.97,450.1l3.905-5.447-1.759-2.867-3.75-8.677,0.542-6.423L572.435,415.6l9.67-1.426,3.146-5.757,8.7-4.006,8.112,5.261,6.842-.891,5.672,3.393L624.5,409.2l6.64,1.836,2.743-4.711L638.743,407l2.433-6.609,5.935-3.463,23.576,0.325,6.779,6.679,8.654,14.45,21.02,9.537,14.62,8.677,13.621-3.223,4.556,5.106,18.595,33.463-1.162,9.824,13.544,8.159,5.3-8.53,6.036,2.526,3.014,5.935,0.512,16.751,15.991-1.619,6.02,2.224,5.935-2.154,4.617,5.354,10.18-1.2,9.94,3.471,14.59-9.173,7.988,6.942,0.442,3.51,0.682,0.116,2.859,3.82,21.469,18.479,8.871,10.343-7.91,6.345-10.32,17.494,6.617,18.323,4.617-2.193,11.939-4.006,4.447-12.931L935.5,583.747l-7.81,11.568-2.937,13.3-10.352.573-5.857,3.362-8.321-5.532-20.957,31.836,2.379,3.611-18.052,6.973-4.827,8.383-9.429,2.379-7.206-15.116-11.258-5.609-0.209-6.958-13.318-3.99-8.43,4.951-9.491-1.573-6.1,2.58-5.966,3.549-5.748-3.068-4.617-10.088L772.2,612.1l-17.053-3.541-5.6,4.323-3.4,10.072,4.827,16.666-3.285,6.919-8.112-2.526-4.207,16.65,5.3,7.849-5.16,12.745-2.859.775-5.354,11.777-9.777,1.3-1.774,2.774,9.654,18.269,3.541,0.318,3.061,5.888-1.046,10.343,8.461,10.1,3.207-.876,1.456,1.116,4.617,3.975-5.935,15.619,3.479,13.311,5.842,7.213-3.75,5.168-6.6,1.65-9.777,9.375,2.75,6.035,10.2,8.933-3.51,12.644-6.717,7.74-18.7-1.9-4.037,5.455,1.131,6.756-18.9,24.072,0.922,3.3,0.573,6.384,5.78,9.925-5.144,4.765,0.287,3.355,7.221,11.591,9.824,3.362,1.813,3.657-6.384,6.446,0.968,9.406-9.986,2.851-6.717-1.828-9.731,3.781-8.143,5.679L676.25,945,655.262,956.78l-5.129,8.9-6.1,3.122-0.287-3.409-17.572-10.452,6.508-11.141-13.4-3.084-15.6,6.16-8.91-4.455,4.013,5.424-13.435,18.967,3.719,5.633-0.682,6.748-25.909-8.809,1.782-7.841-6.323,1-5.354-7.376-14.752,7.624-13.21-2.72-16.736,3.068-9.94-10.165-7.175.635-9.289-.8,0.031-3.177-9.258-2.657-5.935,3.843-6.973,12.544-10.158,2.355-8.43,6.082-13.241-3.719-6.942-22.91-3.068-9.638L408.88,931.5l-1.774-6.578,5.733-8.228-14.767-7.1-13.42.225-10.4,8.9-16.813,4.563-15.194,1.131-5.842.054-19.292,4.811-4.827,3.5-0.457-.922-3.859-5.64-10.1-1.72-4.556-4.927-6.43-1.317-0.155-1.139-11.607-10.847L265.11,881.006l12.908-4.6,3.889-5.648,11.877,6.531,19.129-3.572-2.417-10.01L301.78,852.68l-4.8-12.923,5.672-.806,0.457-5.695,6.748-.4,3.061-5.764,3.285,0.759,8.112-10.614,1.27-6.624-7.733-5.679L321,799l0.984-5.617-3.417-4.982L326,778.092l0.651-17.928,5.447-4,2.782-9.646L353.734,723.2l-4.617-3.014,3.525-5.168-2.874-12.148L352.959,703l5.253-7.864,3.146-.442Z" transform="translate(-33.729 -18.949)" fill="#06c" stroke="#000" stroke-width="2"/><text transform="translate(380.012 310.419)" font-size="81.083" font-family="DejaVu Sans" font-weight="700">2</text><text transform="translate(195.659 604.345)" font-size="81.083" font-family="DejaVu Sans" font-weight="700">1</text><text transform="translate(502.763 755.25)" font-size="81.083" font-family="DejaVu Sans" font-weight="700">3</text></svg>