<svg xmlns="http://www.w3.org/2000/svg" width="571.186" height="970.81" viewBox="0 0 571.186 970.81"><title>Députés sortants du Haut-Rhin</title><path d="M511.175,220.841l-2.363-5.885,3.642-17.913-36.668-11.676-4.6,1.924-7.028-2.629-6.46-17.51-5.017-5.2-6.976,2.328-1.615,7.337-14.562-3.11-10.266-.808-1.967,2.869-3.007,9.588,11.323,7.139-1.074,3.385-6.641,1.787-6.831-2.466-2.482,2.9-7.62,25.216-13.927,5.945,0.069-1.315-12.338,5.524-1.813,7.483-3.806,28.377,1.074,3.385-6.95,15.954,6.675,8.239-1.615,3.127,20.319,7.792,1.408,10.851-2.045,3.411L386.454,330l3.273,0.06,0.455,3.273-4.769,8.17,13.729,21.444,6.976,2.569,22.2-.859L437,371.826l20.336,8.961,2.921,6.16-0.051.842-1.091,19.631,18.8,3.634,11.83,9.133,26.161,0.06-1.443,4.846-7.415,7.715-18.677.258-2.32,10.679-0.172,2.543,26.178-1.091,29.787,3.505,14.881-1.847,1.211-9.94,15.121-20.344L586.8,389.189l-9.915-29.1-22-26.805-7.2-12.509,3.488-25.448-2.972-23,4.863-14.477,2.767-14.142-1.392-15.929-18.472-.576Z" transform="translate(-16.694 -19.08)" fill="#06c" stroke="#000" stroke-width="2"/><path d="M308.313,457.518l-8.2,15.937-9-4.579-8.892,4.682-4.227-1.211-5.052,5.3-7.819-7.621,3.695,6.066-2.972,2.045-17.1-4.82,5.773-7.389,6.229-.937-6.289-2.912-20.3,8.583-17.57-4.476-1.426-6.908-10.1,7.483-0.1.18-8.763-3.282-5.7,2.156-7.045-1.787-3.256-6.564-10.809.6-9.493-13.231L163.409,431l-2.818-6.6L157,424.191l-3.574-6.985-15.37-9.871-9.579-11.358-8.29-16.358-1.211-29.469,5.722-9.6,9.631-5.507,9.837-15.215-4.579-6.229,6.478-13.291,3.454-1.572,0.808-7.543,7.234-13.1,12.638-7.9,13.695-26.058,4.614-2.234,5.456-22.7-11.375-1.666-6.976-9.219,14.158-27.175-0.636-7.578,4.21-7.139,2.672-6.916,14.115-11.564-0.533-6.744,7.9-7.311,7.62-19.683,4.261-19.451,11.727-23.592,6.6-3.5,0.55-.894,2.079-10.267,9.4-11.083-1.289-10.619L273.9,29.826l3.4-9.27,3.712,0.636L291.971,20.1,311.6,28.391l10.456-2.045,10.791,0.146,5.773,9.313,6.263,3.033-0.232,3.4,6.917,8.66-5.739,9.631,1.289,3.626,10.911,2.475,18.411-4.39-1.9,2.543-6.212,7.6-6.289.911L361.22,84.58l8.909,7.337,19.1-2.2,34.5,16.624,7.552,8.609,3.823-.515,15.439,7.715,6.813,1.194,4.227,5.585,19.245,8.918-2.482,6.358L477.779,161.2l-1.916,24.159-4.6,1.924-7.028-2.629-6.46-17.51-5.017-5.2-6.976,2.328-1.615,7.337-14.562-3.11-10.266-.808-1.967,2.869-3.007,9.588,11.323,7.139-1.074,3.385-6.641,1.787L411.145,190l-2.482,2.9-7.62,25.216-13.927,5.945,0.069-1.315-12.338,5.524-1.813,7.483-3.806,28.377,1.074,3.385-6.95,15.954,6.675,8.239-1.615,3.127,20.319,7.792,1.408,10.851-2.045,3.411L386.531,330l3.273,0.06,0.455,3.273-4.769,8.17-2.972,13.677,1.057,12.741-5.585,13.892-0.877,20.6,6.263,7.792-0.086,6.761-6.323-.533L372.338,429l3.437,16.186-2.6.412-14.8-.3-21.513,5.086-7.432-1.615Z" transform="translate(-16.694 -19.08)" fill="#06c" stroke="#000" stroke-width="2"/><path d="M431.4,806.092L417.639,784.51l-8.961,3.445-6.289-2.2-7.733-5.954-7.62.189-7.784-2.947-1.529-3.565-7.569-14.3,11.143-8.961-17.433-15.482,2.414-12.887-10.842-4.2-13.729-9.073-5.3-8.858,3.394-8.342,6.693-6.469-6.005-17.99-7.079-1.709-17.552-2.432-9.124,9.468-0.756,2.887-2.482,10.988,4.115,6.315-1.34,4.545-9-4.407-9.434-.206-9.192,14.674-5.4-.816-7.835-4.115,1.254-6.813-9.846-9.6-6.392-.4-1.865,2.783L238,679.4l-13.695,2.475-7.835-6.152-0.137.567-13.471-4.072L187.931,681.1l-5.911-10.43-15.3-6.684-6.95-.533-7.2,17.578,8.1,13.858-1.693.4,1.675,4.639,5.189,5-5.911,8.884,2.939,2.973L165.507,719l-7.337,11.633,2.939,10.035-14.193-.309-2.363,6.109-2.1,16.771-2.32-.619-2.818,4.029-1.177,7.4,3.626,16.1-0.584,5.8,5.954,2.681,1.6,9.073,3.712-.747,0.567-3.755,12.939-7.887,22.569,1.194,0.232,0.008,2.955,2.174,5.1,4.115,0.756,8.127,1.83,1.967,3.978,11.066,7.852,6.04,1.779,10.1-0.971,7.835,9.159,4.047,9.364,7.913,0.877,0.687,3.746,9.742,3.119,6.091-4.064,18.119-4.562,5.653,13.256,5.567,7.749,7.578,7.148,1.469,21.358-4.416,3.041,2.028-6.581,2.947-4.1,5.954-7.1,16.59,0.18,10.774-4.45,13.652,1.881,3.05,22.991,8.411,12.5-4.983,9.176,2.835,1.494,7.019,6.71,9.966,41.514-18.472,15.018-.756,10.49-1.744,8.926,6.212,25.672,3.067,10.25-3.694L441.017,959.9l5.507-12.449,10.637-2.844,6.46-12.6-16.289-8.514-7.268,1.392,9.88-19.227,14.511,9.227,15.25,9.794,7.346-1.615,11.212-9.957,5.1-5.558,1.615-11.143-9-15.894,4.142,6.169,10.971-.73,3.609-.894L519.51,875,519,871.31l-6.109-3.961-13.523,4.915-2.5-6.908,4.013-8.376,2.449-1.942,6.933-1.1L535.4,834.882l3.342-1.658,3.4-10.078,10.086-2.071,6.917,0.464,6.392-27.192-13.66-16.229-5.087-17.26-31.179-30.852-3.359,1.349,2.586,14.142,6.675,12.948-17.38,3.78-26.213,15.851-10.508,8.755-1.658.129-8.591,5.207,0.937,3.273L447.9,799.855l-4.261,1.821L435.2,807.4l-3.256-1.066Z" transform="translate(-16.694 -19.08)" fill="#06c" stroke="#000" stroke-width="2"/><path d="M273.225,706.259l-7.835-4.115,1.254-6.813-9.846-9.6-6.392-.4-1.847,2.783L238,679.436l-13.712,2.475-7.835-6.152-0.137.567-13.471-4.072-14.932,8.884L182,670.707l-15.3-6.684-6.933-.533-3.909-5.026-8.376-8.961-3.523-9.8-2.99,1.985-9.682-4.554L113.7,630.859l-26.23-21.238-10.937,1.186L75.727,608.6,64.9,602.49l-3.978,1.374-7.6-2.053L33.809,595,22.227,576.9l-0.2-7.406-4.261-6.04L20.1,553.329l10.121-2.071,5.4-4.854,20.929-3.978,0.739-1.967,7.38-12.252,9.382-4.631-0.842-8.419-8.257-7.105-0.335-7.32L64.6,489.983l-6.427-8.2,14.7-10.585-1.039-3.522,5.653-4.639,1.994-6.779-3.909-5.644-7.165-1.16,9.124-11.77-3.256-18.334,2.5-7.045,1.271-7.4,4.013-12.982,9.278-10.069,0.2-12.681-0.387-7.346,2.99-2.148,3.17-1.89L104.26,360l7.852-7.733,6.813-2.1,1.211,29.469,8.29,16.358,9.579,11.358,15.37,9.871,3.574,6.985,3.591,0.223,2.818,6.59-3.523,13.832,9.493,13.231,10.809-.6,3.256,6.564,7.045,1.787,5.7-2.156,8.763,3.282,0.1-.18,10.1-7.483,1.426,6.908,17.57,4.476,20.284-8.583,6.306,2.912-6.229.945-5.773,7.38,17.1,4.82,2.972-2.045-3.695-6.066,7.819,7.621,5.052-5.3,4.227,1.211,8.892-4.682,9,4.579,8.2-15.937,21.058-8.746,7.432,1.607,21.513-5.086,14.8,0.3,2.6-.4-3.437-16.186,4.63-12.578,6.323,0.533,0.086-6.761-6.263-7.792,0.877-20.594,5.585-13.9-1.057-12.741,2.972-13.677,13.729,21.444,6.976,2.569,22.2-.859,8.677,7.165,20.336,8.961,2.921,6.16-0.051.842-1.091,19.631,18.8,3.634,11.83,9.133,26.161,0.06L514.43,425.1l-7.415,7.706-18.677.258-2.32,10.679-0.172,2.543,26.178-1.091,29.787,3.514,14.881-1.856,1.109,24.52-3.574,6.718-14.511,12.131-1.529,11.332,5.636,21.075-6.46-2.852-8.978,19.1-28.275-6.512-24.666,6.547-5.687,12.32-15.052.386-10.92-10.361-2.8,6.71-19.511-9.03-1.228,3.428L405.828,543.9l-32.9-1.117-10.086-3.755-3.17-.284-3.5,5.352-13.1,7.208-2.217,11.272-16.65,24.082-7.114,6.143,2.113,5.9,1.623,2.681-4.244,7.818-10.559,1.28-20.052-3.437-6.71-1.761-6.005,8.342-6.8-1.323-1.289,7.294,4.665,5.636,0.9,10.988,12.268,13.351L271.027,653.6l-1.813,8.007L277,674.418l4.769,4.493-1.195,6.564,7.217,6.925L278.6,707.075Z" transform="translate(-16.694 -19.08)" fill="#06c" stroke="#000" stroke-width="2"/><path d="M407.76,685.089L409.607,695l-5.542,2.74-13.824,1.125-9.631,5.293-7.991,7.01-6.341,10.688-10.842-4.2-13.729-9.073-5.318-8.858,3.4-8.342,6.693-6.469-6.005-17.99-7.079-1.709-17.552-2.432-9.124,9.468-0.773,2.887-2.466,10.988,4.115,6.315-1.34,4.545-9-4.407-9.434-.206-7.217-6.925,1.195-6.564-4.769-4.493-7.784-12.81,1.813-8.007,11.951-4.038,24.95-6.04,12.836-7.174,18.1,0.937,0.687-3.737,9.262-6.616,7.552-.945,6.46,3.136,5.636-2.354,4.365,1.469L374,631.753l5.215-2.234,2.431,0.6,6.212-10.43,13.506,2.432,2.7-2.26,6.057,3.505,10.1-16.427,37.905,8.514-0.92,2.938,7.045,19.15,0.988,2.122,8.118,22.793,1.623,10.035-34.5,1.907-6.778,3.075-18.944,8.841Z" transform="translate(-16.694 -19.08)" fill="#06c" stroke="#000" stroke-width="2"/><path d="M512.266,731.466l3.359-1.34-3.394-6.581-0.18-18.618-5.6-13.755,1.195-7.311,15.49-12.913,6.53-8.54,3.419-13.918-6.374-20.568-4.734-12.707-2.3-18.919,7.921-21.753,3.488-10,12.08-30.852,0.7-11.049L537.4,519.8l-8.978,19.09-28.275-6.5-24.666,6.538L469.8,551.251l-15.052.386-10.92-10.361-2.8,6.71-19.511-9.03-1.228,3.428-14.416,1.521-32.9-1.109-10.086-3.755-3.17-.284-3.5,5.352-13.1,7.208-2.217,11.272-16.65,24.082-7.114,6.143,2.113,5.894,1.623,2.681-4.244,7.818-10.559,1.28L286,607.051l-6.71-1.761-6.005,8.342-6.8-1.323L265.2,619.6l4.665,5.636,0.9,10.988,12.268,13.342,24.95-6.04,12.836-7.174,18.085,0.937,0.7-3.737,9.245-6.616,7.552-.945,6.478,3.136,5.619-2.354,4.382,1.469,1.125,3.548,5.215-2.234,2.431,0.6,6.212-10.43,13.506,2.432,2.681-2.26,6.074,3.505,10.086-16.427,37.905,8.514-0.9,2.938,7.045,19.15,0.971,2.122,8.136,22.793L475,672.536l-34.52,1.907-6.778,3.075-18.944,8.841-7.028-1.315,1.847,9.906-5.542,2.74-13.824,1.125-9.631,5.293-7.991,7.01-6.341,10.688-2.4,12.887,17.415,15.482-11.143,8.961,7.569,14.3L379.22,777,387,779.946l7.62-.189,7.733,5.954,6.306,2.2,8.961-3.454,13.746,21.59,0.55,0.327,3.256,1.066,8.419-5.722,4.261-1.821,10.215-4.425-0.937-3.265L465.726,787l1.658-.137,10.508-8.746L504.1,762.266l17.38-3.78-6.693-12.948Z" transform="translate(-16.694 -19.08)" fill="aqua" stroke="#000" stroke-width="2"/><text transform="translate(420.696 322.428)" font-size="134.868" font-family="DejaVu Sans" font-weight="700">1</text><text transform="translate(205.987 275.161)" font-size="134.868" font-family="DejaVu Sans" font-weight="700">2</text><text transform="translate(147.213 587.86)" font-size="134.868" font-family="DejaVu Sans" font-weight="700">4</text><text transform="translate(453.163 636.77)" font-size="82.002" font-family="DejaVu Sans" font-weight="700">6</text><text transform="translate(346.578 670.616)" font-size="71.157" font-family="DejaVu Sans" font-weight="700">5</text><text transform="translate(248.506 832.429)" font-size="134.868" font-family="DejaVu Sans" font-weight="700">3</text></svg>