<svg xmlns="http://www.w3.org/2000/svg" width="893.45" height="971.293" viewBox="0 0 893.45 971.293"><title>Députés sortants de la Meurthe-et-Moselle</title><path d="M422.388,714.668l5.79-.235,4.29,2.37,7.679-.7-2.191,9.716,1.42,9.907,10.814-1.358,3.7-3.975,5.2-.309,4.691-12.037,0.772-1.13,0.8-2.062,3.92-3.142,1.414-4.808,2.506-.056,4.29,3.086,10.487-1.691,4.543,6.358,3.808-5.376-2.784-4.623,11.969-5.123,5.247-5.7-1.617-5.809,11.321-7.87,7.2,8.494,0.494,5.568,5.2,3.648,4.821-1.784,1.833-9.858,5.641-5.2,1.759,1.883-2.216-7.167,3.2-6.549,5.024-7.969-1.216-10.494-4.821-1.518-4.716-6.463L522.587,654.12l-3.21-4.654-9.383-3.265-6.463,4.037-1.642-9.889-5.451,1.265-13.709,9.753-2.957-5.2-6.716-8.111-16.975,5.876-7.907.13-5.531,5.358-7.284,2.506-0.012,1.574-10.864,2.1-18.746,3.259,0.605-4.765-3.728,2.827-4.568-18.166,3.21-10.648,4.981-2.142-1.228-7.45-1.568.58-9.068,10.086-21.265,5.771,2.265,4.858L382,644.145l7.161,3.45-1.315,13.271,6.352,4.827,1.747,9.919,7.124,0.574,0.377,0.148,6.111,3.494-4.531,6.222,2.7,4.463-0.395,5.179-0.833,4.821,3.4,6.407-7.629,2.883-8.148-1.08-6.895,4.346-0.062,4.759,16.876-3.685,4.086,5.154,1.821-.753,2.444,4.864,2.722,1.2-3.136.679-9.6,2.241-2.228,2.679,0.377,8.673,2.364,0.994,10.549-7.2,4.148,3.006,4.413-2.747,4.957,2.006Z" transform="translate(-11.576 -20.782)" fill="#ff8080" stroke="#000" stroke-width="2"/><path d="M381.315,756.617l-3.352,4.234-5.858-5.37-9.16-15.876-5.247.062L354.384,720.2l-0.037-.617,16.938-2.839,15.963-3.636-0.062,4.759,16.876-3.685,4.086,5.154,1.821-.753,2.444,4.864,2.722,1.2-3.148.685-9.586,2.235-2.241,2.679,0.383,8.679,2.364,0.988,10.549-7.2,4.148,3.006,4.413-2.747,4.944,2.006,3.988,0.167-4.568,6.487,0.3,5.2,1.543,7.987-7.766,5.648-3.618-1.765-6.259,10.055,8.574,10.364,0.395,5.259,2.216,1.531,0.963,0.772-4.247,1.957-11.876-2.29L395.1,779.11l-0.568-5.5-1.7-4.623,2.858-4-1.265-6.247-4.012-2.66Z" transform="translate(-11.576 -20.782)" fill="#ff8080" stroke="#000" stroke-width="2"/><path d="M196.265,21.913l-7.524,2.7-0.772,13.506-7.524,2.7-6.753-4.247-4.247,2.7-10.8,1.352-6.364-5.4-10.419-1.926-4.438-3.086-8.1,2.123-6.555,5.4v2.7l-7.907,7.524,1.735,7.907-1.926,5.012-3.278,6.759-2.123-.772-6.944-11.574L89.4,50.486l-8.1-.58-5.981,8.876-4.63,2.895-1.16.772-16.2,4.63h-8.3l-7.333,7.716,6.173,2.7-4.63,9.068-5.21.383,2.315,1.16-2.135,7.716,1.543,6.555,2.135,1.16-3.679,7.333,10.994,5.79-3.086,10.222-4.247,3.667,12.154,4.63,2.123-1.543,4.438,2.315L49.83,147.526l-7.907,2.315-3.667-4.049-12.926,4.247,8.3,5.79,7.339,1.16L39.423,162l3.667,5.4,2.123-.772,5.981-8.876,1.352-10.617,16.975-.185,11.185-8.487,8.3-1.358,0.772-1.926,7.524,2.895,7.524-3.469,4.049,3.278,0.383-2.7,5.21-.963-0.383-5.4,9.068-6.173,22.771,15.247,2.7,3.667,5.012-.58,0.179,10.611,0.772,3.858-3.266,2.895,10.8,7.716,3.667,9.45-1.352,7.136,10.21,1.926,3.086,4.438,0.963,7.907-1.16,5.592-8.679,7.129,5.981,15.247,8.882,0.957,4.247-3.667h3.086l2.7,11.765-3.858,16.2,5.592,5.21,2.7-.191,7.907-7.333,3.858-6.753-0.383-5.4,4.63-.772,4.438,0.383,7.339,4.247,4.247,7.333,0.383,7.907-3.858,3.469,4.63,2.7,2.123,5.012,1.352,3.086v5.21l-4.821,1.543-0.383,7.716,16.012,1.16-1.352,5.012L239.689,292l-3.858,11.963,3.278,0.58,24.5-5.21,14.08-8.679-4.438-1.926,4.049-5.592,21.6,1.735,3.667-7.333,2.7,0.191,3.858,9.839,6.555-7.524-1.16,7.907,5.981,8.679,4.63-1.543,6.364-7.524-1.543-.191L329,279.27l1.735-5.4-11.185-7.524,0.963-5.21v-5.21l-4.821-2.506,1.352-10.8,1.543-14.852-4.63-5.4-6.364,7.333-6.753-9.259-10.994-8.673-4.049-10.419,10.222-3.667h8.1l-7.716-1.352-4.049-12.154-7.907.772-3.858-7.136-4.63-2.895,5.4-6.364-2.895-16.592-5.012-2.5-4.247-2.315,3.469-3.673,0.58-4.815,4.63-6.759,7.333-3.086-6.173-13.117,5.8-5.012-3.858-15.623,3.086-4.438-4.253-1.926-1.352-4.438L272.1,86.571l-6.753-1.543-3.858,2.7L259.559,75l-15.432-3.469-14.66-15.049-0.377-5.4,4.63-2.506-4.253-9.839L219.436,42.6l-3.463-5.21,2.506-1.16-1.166-2.506-10.419-3.272ZM22.658,69.56L18.411,79.782,14.164,83.64h8.3l7.333,4.247,0.383-2.7h2.7l1.926-2.13-0.383-2.5Z" transform="translate(-11.576 -20.782)" fill="#ff8080" stroke="#000" stroke-width="2"/><path d="M583.736,674.755l-2.518.3,1.05-4.568-9.16-8.685-15.6-1.747-4.074,1.142-5.024,7.969-3.2,6.549,2.216,7.167L545.658,681l-5.629,5.2-1.833,9.852-4.821,1.784-5.2-3.648-0.506-5.568-7.2-8.494L509.153,688l1.617,5.8-5.247,5.7-11.963,5.123,2.784,4.623-3.821,5.376-4.543-6.358-10.475,1.691-4.3-3.086-2.494.056-1.414,4.808-3.92,3.142-0.8,2.062-0.772,1.136-4.691,12.031-5.21.315-3.7,3.969-10.8,1.358-1.42-9.907,2.185-9.716-7.666.7-4.29-2.37-5.8.235,4.6,20.314L431,735.173l-4.568,6.487,0.3,5.2,1.543,7.994-7.766,5.642L416.9,758.74l-6.259,10.049,8.574,10.364,0.395,5.259,2.216,1.531,0.963,0.772-4.235,1.957-11.889-2.29-9.512,4.772,1.16,11.882,3.241,3.981-5.5,10.753,4.111,2.778,7.716,12.6,4.858-2.241,6.994,3.216,4.5-2.864,5.049,0.772,5.592-5.592,4.666,9.8,13.345,9.327,6.049,5.617,1.364,8.191,3.6,1.9-0.154,4.271,2.315,1.963,2.16-.6,1.71,3.981,3.327,6.5-2.771,6.852,3.29,3.642,3.734,11.426-1.71,8.216,0.821,4.79-2.71,4.185,5.037,3.932,2.2-.63L478.5,926.52l-4.173,2.457,2.833,13.037,14.815,5.778,9.16,0.562,4.438-2.821,0.63-.333,6.932-3.241,6.87,3.272-3.086,6.561,0.111,3.883,1.654,1.944,6.969-2.543,1.179,2.444,5.123-.839,6.3-11.784,12.345-4.883,4.543-2.062,7.586,6.179,8.209-5.586,7.778,1.358,8.524-7.074,8.586-6.29,5.339,3.037,17.913,9.555,2.7-1.333-8.018-16.6,8.475-17.166,5.111-1.957,1.593-3.611,12.191-4.3,7.691,1.506,1.735,7.944-1.179,8.1,5.858,11.938-1.481,5.154,12.914,2.018,5.3,3.444,1.8-2.185,1.389,5.1L682,941.248l7.524-6.753,6.271,4.142,7.308,0.6,0.383,2.691,10.752,0.759,3.049,7.432,7.629-.506L727.6,949.9l0.13,4.58,6.222-4.66,9.129,5.506,6.642-16.228L761,932.575l3.074-7.333,4.969-2.025,2.734,10.345,6.629,4.377,5.111-1.691,13.7-12.9,1.951-3.055,2.655-.506L821.9,894.854l8.741-5.45,13.525-2.309,11.08-8.352,13.154-4.562,12.877-7.691,2.808-.895,4.679-2.667,15.987-1.389-10.185-2.957-10.661,1.45-1.414,2.315-1.907-2.981-6.148-6.309,7.333-9.6-11.611-2.191,13.259-1.975-0.882-2.562-12.456-5.179-6.513-8.586-5.488-14.382-7.907-.383-12.475-10.271,10.37-8.123,0.747-2.63-4.111-3.518-3.667,2.778-4.5-1.247-1.012.339-3.982-2.346-12.006,3.3L808.492,781.1,810,776.036l-6.617-11.191-4.728,1.716-1.833,7.2-6.352,3.555-6.352-4.1-18.8,3.216-5.012-2.3-2.667-4.673-1.845-6.111-2.642-4.926-10.8-2.623-16.3,3.346-4.475-4.13,1.771-4.413-7.1,1.093-0.592-2.642-2.642-7.018,1.111-4.3-2.506-.16L696.365,741.9l-8.9-5.284-7.617-1.543-3.025-7.2-2.617.679-7.8,11.031-1.34-2.944,2.148-1.6,0.124-10.648,2.1-4.284-6.907-11.327-6.389-.247-3.667,3.154-9.031-8.487-4.488-1.278-9.284-.778-1.858-9.592-3.123-3.759-5.111-1.988-9.209-16.821-7.537.8-4.809,2.957-2.327,1.426-7.766-2.512Z" transform="translate(-11.576 -20.782)" fill="#06c" stroke="#000" stroke-width="2"/><path d="M292.027,985.766l0.555-8.537-2.413.4,0.377-4.648-4.173-2.488,5.4-9.129-2.808-7.21-4.45-3.346-4.222-.142-2.833,5.722-3.759-5.839-5.376-3.667-0.2-10.722,2.413-4.6,5.272,0.136,3.58-7.129-4.883-1.907-12.586.321,5.2,6.3L261.363,944.7,251.5,949.02l-4.266-2.463L239.542,944l2.074-5.636,12.95-15.722,0.648-1.179,6.413-8.438-5.413-5.994,0.8-10.512,8.2-10.691-2.895-1.982,3.728-7.555-7.87.907-9.907-4.037-3.2-4.185-4.556-2.1-10.2,1.623-0.722,3.241-6.3,3.426-7.136-1.518-12.469,12.2-4.426-2.6-7.055-8.154-1.241-15.561-0.951-4.222,3.123-10.086,4.543-2.469,0.42-2.623-7.086-4.494L181.3,830.77l-8.247-.889-6.895-6.944-0.29-8.722-0.845-2.679,2.444-11.524,12.345-4.327,6.981-7.636,4.944-1.179,13.469,0.475,4.253-5.055,2.883-9.185-7.055-2.253-8.586,5.623-4.92,1.481-2.037-1.568-1.1-.228L190,768.333l-2.426-4.654-2.123-3.6-4.074-12.2,2.315-7.9-1.444-4.895,5.1-15.061,4.568-7.247-7.074-10.123-9.487-7.944-0.506-.611-6.821-6.642,2.988-4.092-5.617-5.228,2.667-2.858,11.475-4.63,1.123-2.5L177,661.181l2.037-5.025,13.7-13.389,5.413-.815,1.062-7.833-8.438,4.765-2.191-5.833,6.352-4.537,5.79-22.66-3.241-17.308-3.025-2.006-2.191-10.685,6.426-2.5,4.784-1.654,0.735-7.741L194.8,558.19l-6.716-11.839-0.216-2.432-1.926-.043-3.21-1.765,2.555-4.685,12.987-3.216,12.03-16.9,9.259,3.086,7.414-1.21,3.253-6.253h5.086l1-7.543-9.851-11.963-6.6-3.234,7.87-7.074-6.2-5.3,0.531-2.185,10.673-3.778,7.2,2.778-1.506-12.407,4.253-2.636,8.358-.037,3.228,5.975-1.845,1.333,12.672,9.16,6.834-1.259-1.963,7.531,4,10.148-3.049,3.049,1.364,2.37-3.136,7.308,4.2,2.383,5.4,1.494,10.777-6.932,2.265,1.3,9.864,8.24-1.673,1.932,7.438,10.407-0.963,7.136-2.173,3.827,2.05,4.352-17.37,1.463-0.809,13.216-5.475,5.636,1.617,3.988,17-5.858,1.7,10.339-5.728,11.444,0.469,5.012,6.994,3.389,10.234,6.92,5.272,0.765,4.024-3.549,7.666,7.2,2.692-.136,0.025,2.679-7.4,2.895,1.506,7.673,1.037,12.6-10.154,5.71,4.3,3.3,1.377,16.1,10.537,8.617,15.092-5.265,4.024,4.5,4.92,1.383,5.5,5.278,10.185,0.543-5.123,1.568-12.512,10.062,8.111,10.389-2.327,4.407-8.512,5.432,4.8,6.858-5.629,15.728,0.037,0.617,3.315,19.469,5.247-.062,9.148,15.876,5.871,5.37,3.352-4.234,9.129-.525,4.012,2.66,1.265,6.247-2.87,4,1.7,4.623,0.58,5.5,11.5,7.234-9.512,4.765,1.16,11.889L401.546,807l-5.5,10.753,4.1,2.778,7.716,12.6,4.858-2.241,6.994,3.216,4.5-2.858,5.049,0.772,5.592-5.592,4.666,9.8,13.345,9.327,6.049,5.617,1.377,8.191,3.593,1.9-0.154,4.271,2.327,1.963,2.148-.6,1.723,3.975,3.327,6.506-2.771,6.852,3.278,3.636,3.734,11.432-1.71,8.216,0.833,4.784-2.722,4.191,5.049,3.932,2.2-.63-2.655,6.716-4.173,2.457-2.92-4.241-9.37,7.66-4.809-1.63-5.173,15.574-7.234.58-6.981,6.765-0.648-2.451-15.925.66-0.833,1.055-4.556,1.58-6.846-1.228,2.265-8.969-2-1.185-3.21,3.494-12.272-1.765-1.062.346,2.58,20.7-10.3,14.981-3.988-3.617-4.222,10.6-7.574-1.926-4.654-5.975,2.377-.79-0.062-2.512-3.654-11.234-7.605,1.9-1.377,4.21,3,8.611-4.376,3.055-5.3.012-5.024-4.864-2.327.235-0.228,2.636-7.426.988-4.086,3.265-2.444-3.6-7.956.821-6.389,4.741-2.456-.432-2.988,3.895-4.642-1.444-4.679,1.426Z" transform="translate(-11.576 -20.782)" fill="#ff8080" stroke="#000" stroke-width="2"/><path d="M281.416,416.693l-0.253-2.734,3.6-4.031-8.364-9.9,1.136-5.364,1.988-7.623,8.512,0.265,13.03,0.444,13.8-.093,3.16-4.469-1.493-2.062-5.136-6.3,0.518-7.586-4.846-6.358-0.722-2.438,6.592-3.272-2.568-4.383,4.809-1.173,1.3,1.926,4.642-.272,4.21-6.6,6.413-4.475-7.234-3.525-6.463-8.691-10.419-1.7-2.963-6.549-0.395-1.5,3.759-5.308,0.882-6.543,4.148,1.7,4.21-1.185-1.389-4.1,4.543-6.2-5.858-8.771,1.087-7.815-6.463,7.537-3.883-9.907-2.759-.13-3.63,7.259-21.7-1.722-3.982,5.555,4.426,1.975L263.614,299.2l-24.592,5.278-3.185-.512,3.759-11.957,4.728-2.389,1.278-5.049-15.95-1.074,0.377-7.771,4.759-1.531,0.025-5.234-1.241-3.093-2.1-4.957-4.617-2.741,3.759-3.389-0.364-7.883-4.315-7.339-7.339-4.315-4.351-.413-4.58.8,0.315,5.457-3.92,6.722-7.9,7.253-2.58.309-5.6-5.247-18.975,7.9,1.975,10.531-3.969,7.216,2.265,2.352,8.031,11.784-6.222,4.13-4.617,6.278,3.45,12.382-1.723,1.963,3.728,3.321,10.537-2.71,3.667-1.951,4.413,2.8-10.154,28.913,1.444,5.241,5.111,2.247,0.352,2.79-1.9,5.037,8.3,2.08-9.056,6.086-3.266,7.284,3.568,7.16,2.655,4.018,6.513,3.062,3.111-2.969-0.592-2.074,15.975,0.241,5.272,0.241,2.808,17.913-2.037,1.852L214.8,413.73l-1.166,9.858,2.518,1.2,13.283-3.278,1.253,10.345,7.87,10.16-10.864,5.9-1.667,4.531-4.413,5.95-3.734,11.642,1.747-2.1,2.506,1.012-0.42,2.7-9.777,13.03,0.87,2.574,7.043,2.926,7.87-7.074-6.2-5.3,0.531-2.185,10.673-3.778,7.2,2.778L238.418,462.2l4.253-2.63,8.364-.037,3.216,5.969-1.845,1.333,12.672,9.166,6.846-1.259-1.975,7.524,4.012,10.154-3.061,3.049,1.364,2.37-3.136,7.3,4.2,2.389,5.4,1.488L289.5,502.1l2.265,1.3,9.864,8.24-1.667,1.932,7.426,10.407-0.963,7.129-2.173,3.833,2.05,4.352-17.37,1.463-0.809,13.216-5.475,5.636,1.617,3.988,17-5.858,1.71,10.339-5.741,11.444,0.469,5.012,7.006,3.389,10.222,6.92,5.272,0.765,4.024-3.549,7.666,7.2,2.7-.136,0.012,2.679-7.4,2.889,1.506,7.679,1.037,12.6-10.154,5.7,4.3,3.309,1.389,16.1,10.537,8.617,15.08-5.259,4.024,4.5,4.92,1.389,5.5,5.278,10.185,0.537-5.123,1.568L357.9,676.779l8.111,10.389-2.327,4.407-8.512,5.432,4.8,6.858-5.629,15.728,16.938-2.839,15.95-3.636,6.895-4.346,8.148,1.08,7.642-2.883-3.413-6.407,0.845-4.821,0.395-5.179-2.7-4.463,4.519-6.222-6.1-3.494-0.383-.154-7.124-.568-1.735-9.919-6.364-4.827,1.315-13.271-7.161-3.45-6.629-4.339L373.111,635l21.265-5.771,9.068-10.092,1.568-.574,1.241,7.45-4.993,2.142-3.21,10.648,4.568,18.166,3.734-2.827-0.617,4.765,18.758-3.265,10.864-2.092,0.012-1.574,7.284-2.512,5.525-5.352,7.907-.13L473.06,638.1l6.716,8.111,2.957,5.2,13.722-9.753,5.451-1.265-4.185-9.469,5.185-5.29-1.8-1.926-7.666,1.562-3.506-2.957,0.592-4.549-1.166-2.247-11.938,1.691-4.024-2.469,9.043-4.062,7.161,2.895,4.012-6.185-5.061-1.771-7.21-.963-4.642,2.512-10.16-7.895-1.34-4.586,7.679-2.457-1.4-11.135,6.716,2.389-1.136-9.457,0.179-2.333-5.8-3.352,7.4-7.771,7.524-2.969,0.882-7.136-8.741-5.5,0.167-7.432-11.951,3.784-0.327-9.074-5.641-.222-3.049-4.265-4.531-.16-8.018,6.895-5.351-.043-1.2-2.364-5.074-1.13-2.352-7.129-7.8-1.086,0.062,1.512-16.117,1.16-2.481-4.728-2.692.093-2.013-1.327-4.266,1.858-1.9,6.432-1.673.593-9.586-3.765-1.654-2.068,1.642-7.568-2.642-.049,0.882-5.376-5.463-9.068-7.815-1.086-9.6,4.636-1.111-1.352-4.556-6.241,1.617-4.988-4.63-1.784-11.185,2.821-5.012-5.852,5.259-3.414-0.377-10.284,0.926-5.6-0.154-2.8-13.216-9.728-3.593-10.191-3.771,2.339-5.5-2.951-5.012-3.167-6.765.339-3.037-3.876-4.809-1.08-3.061-11.086Z" transform="translate(-11.576 -20.782)" fill="#ff8080" stroke="#000" stroke-width="2"/><text transform="translate(166.841 133.533)" font-size="96.898" font-family="DejaVu Sans" font-weight="700">3</text><text transform="translate(229.371 747.516)" font-size="96.898" font-family="DejaVu Sans" font-weight="700">5</text><text transform="translate(541.825 811.217)" font-size="96.898" font-family="DejaVu Sans" font-weight="700">4</text><text transform="translate(427.653 681.934)" font-size="66.839" font-family="DejaVu Sans" font-weight="700">1</text><text transform="translate(357.223 727.938)" font-size="40.302" font-family="DejaVu Sans" font-weight="700">2</text><text transform="translate(330.755 586.019)" font-size="96.898" font-family="DejaVu Sans" font-weight="700">6</text></svg>