<svg xmlns="http://www.w3.org/2000/svg" width="1167.716" height="633.866" viewBox="0 0 1167.716 633.866"><title>Députés sortants de Paris en 2017</title><path d="M374.081,326.528L343.5,251.2l14.279-28.81,17.537-7.5,120.72-33.478,11.379-8.437,37.3,15.957,10.649,2.642,4.1,11.654,40.836,7.659-5.446,63.756,29.994,9.8-15.576,43.049-3.623,10.082-26.387,57.742L554.415,369.7l-31.007-12.918-57.58-27.368Z" transform="translate(-4.562 -44.33)" fill="#06c" stroke="#000"/><path d="M541.246,499.017l0.17-5.778-24.077-37.482,1.678-49.257-23.535,5.7-30.391,23.129-7.626-22.635-20.8-1.281,0.235-14.977-43.065-3.59-21.339,21.1L317.928,365.4l27.87-30.69,28.283-8.169,91.723,2.909,57.6,27.368,30.99,12.918,24.864,25.609,94.292,56.746,7.8,9.134L660.345,499.09l-47.628,20.658L567.26,509.115Z" transform="translate(-4.562 -44.33)" fill="#06c" stroke="#000"/><path d="M489.76,153.05l7.853-41.866,57.28,14.369,6.329-25.99,7.091-23.032-23.348,1.013L533.49,51.521,509.713,53.1l-48.179,5.13L384.69,103.988,368.83,114.6l15.714,18.915,2.026,0.1,28.867,33.065,16.686,12.237,9.3,12.156,1.629,5.211,52.977-14.863Z" transform="translate(-4.562 -44.33)" fill="#ff8080" stroke="#000"/><path d="M153.323,247.658l32.254,43.479,17.967-.414L199,303.01l14.231,27.036,12.821,0.065,12.756-8.355,20.908,2.375L276.425,294.9l24.831,11.095,3.2,23.348,24.409,23.68,16.922-18.316,28.283-8.169L343.5,251.208l14.263-28.794,17.554-7.5,67.743-18.632-1.629-5.211-9.3-12.156-16.686-12.237L386.57,133.608l-2.026-.1L368.83,114.6l-31.055,20.577-9.353,1.216L292.5,165.765,275.4,186.155l-4.417,30.853L175.771,205.3Z" transform="translate(-4.562 -44.33)" fill="#06c" stroke="#000"/><path d="M605.649,337.6l3.623-10.082,15.576-43.049-29.994-9.8,7.99-95.078,42.644-5.081,29.743,1.061,19.393,1.677,6.856,10.26,0.965,37.085,9.668,9.749,22,30.99-62.759,32.546,21.751,84.81-21.735-5.576-21.751-12.756L638.113,351.14Z" transform="translate(-4.562 -44.33)" fill="#ff8080" stroke="#000"/><path d="M760.156,394.749L770.3,420.755l69.056,17.384-3.7-23.17-18.932-39.362,16.686-2.739,19.418-14.085-7.026-12.2-2.561-17.035-7.2-13.583-19-35.585-20.309-24.426L774.977,270.61,762.44,255.05l-28.332,10.276-44.67,23.316,22.173,5.081,31.241,56.842,11.71-6.313L782.481,386.9Z" transform="translate(-4.562 -44.33)" fill="#00c000" stroke="#000"/><path d="M579.262,395.34L605.649,337.6l32.465,13.518,11.508,13.218,21.751,12.756,21.735,5.576-21.751-84.81,18.1-9.23,22.173,5.081,31.241,56.842,11.71-6.329,27.918,42.66-22.383,7.886,10.146,26.006-7.723,39.111L710.881,496.52l-37.336-44.427Z" transform="translate(-4.562 -44.33)" fill="#ff8080" stroke="#000"/><path d="M887.878,605.336l-28.349-30.577-63.107,25.706L710.9,496.521l51.68-36.639,7.723-39.094,69.056,17.367-1.508-12.44,36.583-4.652-1.061-16.038,43.908-12.934,4.466,37.749L920,448.772,911.6,498.6,896.241,539.02l14.66,4.287,35.974-14.547-4.984-33.633-5.811-13.137,4.951-11,7.391-5.284,11.289,18.251L1020.7,491.5l3.8-26.039,12.537,0.1,1.548-12.44,27.189,0.932-0.429,9.6,6.743-1.677,92.6,41.485,7.059,33.7L1151.927,562.6l-5.479,32.846,1.726,26.7L1136.4,656.232l-16.792,15.341-41.769-5.949-59.817-4.546-34.945-39.508-43.941-9.352Z" transform="translate(-4.562 -44.33)" fill="#ff8080" stroke="#000"/><path d="M567.268,509.1l-5.381,46.064,40.9,17,29.84-12.489,52.758,101.286,111.036-60.5L681.385,461.219l-21.022,37.863L612.735,519.74Z" transform="translate(-4.562 -44.33)" fill="#ff8080" stroke="#000"/><path d="M372.971,604.574l45.238-56.81,57.143,25.893-15.163,23.154,7.772,2.488,2.455,3.955,20.827,6.045,23.932,6.265,24.864-3.42,16.524-3.355,9.15-12.756-3.833-40.885,40.9,17,29.84-12.5,52.758,101.3L672.7,667.909l-37.149,3.1L618.9,654.658l-19.694,10.681-10.446,3.322-20.39-1.313L518.9,663.378l3.7-9.514-88.448-28.745Z" transform="translate(-4.562 -44.33)" fill="#ffd1dc" stroke="#000"/><path d="M446.022,447.791l38.309,23.47-66.1,76.5,57.126,25.893L460.2,596.8l7.772,2.488,2.455,3.955,44.759,12.319,24.864-3.42,16.524-3.339,9.15-12.772L561.9,555.148l5.365-46.064L541.245,499l0.17-5.778-24.094-37.482,1.694-49.257-23.535,5.7L465.09,435.311Z" transform="translate(-4.562 -44.33)" fill="#ff8080" stroke="#000"/><path d="M446.022,447.791l38.309,23.47-66.1,76.5-7.942-2.869L397.884,523.63l-10.511-28.98-18.948,7.975-7.61-26.671-16.808,1.41-41.582-25.925L273.947,425.1l43.989-59.72,54.574,48.56,21.339-21.111,43.082,3.59L436.68,411.4l20.8,1.3,7.626,22.635Z" transform="translate(-4.562 -44.33)" fill="#06c" stroke="#000"/><path d="M212.2,585.011l-1.248-25.342,13.9-9.4-11.459-15.131L189.176,540.8l84.761-115.687,28.478,26.322L344,477.363l16.808-1.394,7.6,26.655,18.963-7.958,10.511,28.98,12.408,21.241,7.942,2.869-45.254,56.81-56.891-23.348-49.354-32.036-28.268,35.342Z" transform="translate(-4.562 -44.33)" fill="#06c" stroke="#000"/><path d="M132.8,479.292l19.993,54.184,36.372,7.326L317.929,365.387,328.9,353l-24.426-23.664-3.2-23.364-24.831-11.078L259.74,324.1l-20.925-2.375L226.059,330.1l-12.821-.065L199.007,303l4.555-12.286-17.983.414-32.254-43.5-45.748-15.276-24.709,31.1L40.952,285.983l-28.9,70.061L5.123,398.76l72.208,24.661,12.756,16.824,41.023,16.411,8.218,0.316Z" transform="translate(-4.562 -44.33)" fill="#06c" stroke="#000"/><path d="M816.739,375.583l16.686-2.739,19.41-14.069-7.01-12.221-2.561-17.035L817.07,280.374l-20.309-24.426L775.01,270.609l-12.553-15.56,11.379-3.623,7.261-5.681,7.975-.965,9.417-4.466,17.44,0.81,22.238-1.029,36.7-13,19.928-9.32,12.326,38.859,10.146,135.445-43.908,12.934,1.061,16.038-36.583,4.652-2.2-10.714Z" transform="translate(-4.562 -44.33)" fill="#ff8080" stroke="#000"/><path d="M761.817,131.145l-27.538-22.635-17.254-1.677-13.55-4.936,6.127-8.623-7.472-8.947-0.114-34.742,68.837-4.749,27.887,8.339L819.665,71.19l7.424,18.016,10.26,49.192,8.056,41.12,49.419,38.26L874.9,227.1l-36.72,13-22.221,1.029-17.457-.81-9.417,4.449-7.975.98-7.261,5.681-39.694,13.9-22-31.006,8.274-6.013,1.442-20.228-5.081-11.127,26.209-22.967,15.358-10.065,12.3-5.4,0.016-9.563Z" transform="translate(-4.562 -44.33)" fill="#ff8080" stroke="#000"/><path d="M716.749,196.942l5.1,11.127L720.4,228.3l-8.29,6.013-9.668-9.749-0.965-37.068-6.856-10.26L645.5,174.494l-42.433,5.892,0.381-13.315,9.353-19.863-0.713-18.85,7.375-25.836-5.284-52.045,66.7-.6,21.144-.3,0.114,34.742,7.472,8.947-6.127,8.623,13.55,4.936,17.254,1.677,27.538,22.635,8.817,17.789-0.016,9.579-12.286,5.4Z" transform="translate(-4.562 -44.33)" fill="#ff8080" stroke="#000"/><path d="M489.76,153.05l6.281,28.365,11.379-8.42,37.3,15.941,10.633,2.642,4.1,11.662,40.836,7.659,2.755-30.52,0.381-13.332,9.353-19.863-0.7-18.85,7.375-25.82-5.3-52.061L533.49,51.5,544.966,77.52l23.348-1-7.091,23.032-6.329,25.974-57.28-14.369Z" transform="translate(-4.562 -44.33)" fill="#f6e1b9" stroke="#000"/><text transform="translate(423.986 235.971)" font-size="70.884" font-family="DejaVu Sans" font-weight="700">1</text><text transform="translate(378.95 338.359)" font-size="70.884" font-family="DejaVu Sans" font-weight="700">2</text><text transform="translate(432.145 110.749)" font-size="70.884" font-family="DejaVu Sans" font-weight="700">3</text><text transform="translate(277.321 222.978)" font-size="70.884" font-family="DejaVu Sans" font-weight="700">4</text><text transform="translate(106.64 356.82)" font-size="70.884" font-family="DejaVu Sans" font-weight="700">14</text><text transform="translate(340.583 424.438)" font-size="70.884" font-family="DejaVu Sans" font-weight="700">12</text><text transform="translate(247.321 492.835)" font-size="70.884" font-family="DejaVu Sans" font-weight="700">13</text><text transform="translate(451.733 507.914)" font-size="70.884" font-family="DejaVu Sans" font-weight="700">11</text><text transform="translate(557.325 604.447)" font-size="70.884" font-family="DejaVu Sans" font-weight="700">10</text><text transform="translate(659.92 541.958)" font-size="70.884" font-family="DejaVu Sans" font-weight="700">9</text><text transform="translate(694.384 397.486)" font-size="70.884" font-family="DejaVu Sans" font-weight="700">7</text><text transform="translate(760.477 302.265)" font-size="70.884" font-family="DejaVu Sans" font-weight="700">6</text><text transform="translate(815.634 258.502)" font-size="65.223" font-family="DejaVu Sans" font-weight="700">15</text><text transform="translate(739.93 187.07)" font-size="70.884" font-family="DejaVu Sans" font-weight="700">16</text><text transform="translate(511.423 133.908)" font-size="70.884" font-family="DejaVu Sans" font-weight="700">18</text><text transform="translate(617.285 113.389)" font-size="70.884" font-family="DejaVu Sans" font-weight="700">17</text><text transform="translate(804.358 492.835)" font-size="70.884" font-family="DejaVu Sans" font-weight="700">8</text></svg>