<svg xmlns="http://www.w3.org/2000/svg" width="752.011" height="974.753" viewBox="0 0 752.011 974.753"><title>Député sortants de Seine-et-Marne en 2017</title><path d="M216.221,552.44l8.157-4.522,1.575-6.28-6.385-11.775,1.816-13.093-2.4.035-9.336,8.729-8.952-3.618-1.065-6.35-14.075-3.439-6.529-.236,0.07,12.984-5.661,7.948,4.417,3.963,2.575,8.742L178.948,564.9l-15.328,7,10.527,7.062,2.566,5.944-3.291,4.958-8.275,7.114-13.657,9.8-6.447,1.641-8.327-4.618-5.473-8.485-11.911-6.215-7.7-1.593-9.165-3.335-3.335-5.525,1.065-6.346,9.008-9.419,1.537-5.992-10.34-4.845-7.682,5.041L91.6,563.382,79.568,582.022l6.538,0.284-7.638,24.738,5.966,1.419,1.44,6,3.051,0.092L87.8,628.3l-1.109,6.787-5.1,4.09,2.244,22.477L79.768,663.7l-1.1,1.737,3.954,3.819,0.223,5.12,0.4,17.724,7.926,2.121,19.195,25.537,1.51,5.56,16.476,10.614,12.88-32.258,2.244-15.778-0.34-3.177,13.87-7.708,7.136-10.444,9.58-12.434-9.549-21.443,2.344-5.905L171,629.168l11.644,4.7,3.827-8.21,5.412,11.518,0.825-2.056-0.991-2.1,12.487-8.751,6.189-.659,4.587-7.882,13.46-.454,1.986-6.241-7.646-10.361-6.093-2.457,0.868-6.534,5.028-3.059-0.759-5.691,5.491-2.641-3.12-20.19Z" transform="translate(-9.898 -17.841)" fill="#06c" stroke="#000"/><path d="M48.93,866.342l-4.7-3.928-2.819,1.239-6.089-2.475-5.8-7.869-1.039-2.741L28.9,819.005,17.222,798.178l-4.687-4.888-1.951-9.82,5.761,2.767,12.072-4.011,8.926,2.536L35.09,772.17l6.975-9.414-7.3-4.674,7.21-6.123,6.215,1.13-0.519-6.359,21.054-8.5-5.565-7.716,7.878-6.263,13.185,1.864,9.89-8.873,16.306,2.545,1.51,5.56,16.476,10.614,12.88-32.258,2.244-15.778-0.34-3.177,13.87-7.708L164.2,666.6l9.58-12.434-9.549-21.443,2.344-5.905,4.482,2.383,11.644,4.7,3.827-8.21,5.4,11.518,0.834-2.056,5.037,4.635,9.973,2.217,30.167-5.394,2.592,0.956-0.825,2.636,9.087,1.728,4.076,5.124,2.091,14.071,9.275,4.517,2.379,5.866,5.6,2.929,11.95-.655,2.819,22.46-9.157-.842-1.672,2.265-1.432,6.128-8.62,3.871L244,710.115l-3.164,3.915,15.184-.227,2.37,2.187,1.27,15.284,1.545,9.995,10.1,8.336,3.871,8.362-5.355,14.5-47.376-5.451,6.852,28.452,6.394-.65,3.383-8.38,11.745-4.552,5.364,7.223,0.476,9,5.949,9.768-0.537,5.992-2.828,1,16.476,5.412,1.467,6.027,12.26-1.34L298.931,833l10.706,3.583,10.313-12.155,11.732,7.367,20.766-43.737-4.4-4.967,11-15.459,4.033-4.29,0.009,18.7,5.591,2.435,0.257,3.155,15.176,18.025-1.951-9.515,12.7-2.453,11.178-6.141,2.881,9.148-0.436,12.832,4.382,1.654,7.6,6.477-4.792,4.129,6.258,10.632-3.212,9.484,12.234,3.688,2.488,21.469-9.6.93L411.024,893.8l-4.408,12.273-5.726,2.985-5.259-2.588L384.462,911.9l-0.454,8.93-10.034,1.619L360.632,935.7l1,14.935-23.407,3.828-18.754,2.863-2.684.428L306.3,970.85l-19.164,12.413L275.21,981.53l-1.894-5.735,0.615-15.686,6.455-6.974,0.323-3.147-7.725-3.832-5.626,2.636-5.975-1.995-4.988,3.884-6.316-.768-5.669,2.662-11.8-4.762,11.527,13.931,0.607,6.049-21.124,7.974-10.274,12.173-20.059-.336-5.107,4.351-1.824.122-16.188-17.8-22.822,6.9-17.065.035-4.713-8.738-21.329.284L94.055,984.463l0.305,3.1L65.537,983.8l-12,3.374-2,2.147-8.5-2.029,1.013-5.783L54.914,975l7.1-10-0.161-5.853,7.35-9.6,14.9,7.817,5.543-8.127-3.911-15.559,4.238-11.706,3.164-.882,1.746-4.683-3.614-15.127-2.121,0,0.8-12.151-5.176-1.99-0.742-9.253-14.211-.432-4.247-5-0.528-6.486-4.962-4.312Z" transform="translate(-9.898 -17.841)" fill="#06c" stroke="#000"/><path d="M207.776,642l-9.973-2.217-5.037-4.635-0.991-2.091,12.487-8.755,6.189-.659,4.587-7.882,13.46-.454,1.986-6.241-7.646-10.361-6.093-2.457,0.868-6.534,5.037-3.059-0.768-5.691,5.491-2.641-3.112-20.19-8.048-5.7,8.157-4.522,1.575-6.28-6.385-11.775,1.816-13.093-2.4.035,3.273-17.48,11.924-7.236,3.6-7.716-2.453-5.434,3.4-2.85,11.679,5.665,11.178-11.81,2.951-1.589,6.28,2.269,5.7,4.334,6.459,1.03,1.358,2.985-7.359,6.494,20.286-9.746,6.521,1.654,1.314-4.941,6.027,1.239,7.084-5.39,8.5,1.488,7.825-15.472,2.985-.724,9.872,21.574,4.866-2.182,5.028,1.6-2.021,12.461-3.719,5.1,4.919,8.079,11.762-5.7,6.128,2.431,3.562,5.613,15.957-.271,3,0.236-2.855,5.242,4.67,11.02,11.706-6.276,15.634,6.132-0.279,14.346-0.633,8.472-3.352.262-7.127,10.876-22.5,4.648-5.543,3.828-2.423,6.193-4.875,26.279-10.143,8.511-9.292,3.705-4.068,12.862,1.021,3.212,6.582,1.126-1.537,11.557,8.978-2.008,15.14,5.137,12.53,22.014,1.593,9.266,11.492-6.023L417,681.908l14,7.978,11.387-1.776,4.085,3.509,0.257,6.713L456.5,719.3l-4.713,4.417-0.51,21.006,11.557,2.854,15.276-2.54,3.631,6.595-5.01,4.094-7.28,14.468-2.461-2.034-0.528-5.966-6.411.323-5.32-3.321-8.978,3.02-11.134-2.243L426.9,778.253l1.977,11.911-16.062,20.98-4.382-1.654,0.436-12.832-2.881-9.148-11.182,6.141L382.115,796.1l1.951,9.515-15.176-18.03-0.257-3.151L363.042,782l-0.009-18.7-4.042,4.286-11,15.459,4.4,4.971-20.766,43.737-11.736-7.367-10.3,12.155-10.706-3.583-9.488-8.026-12.26,1.34-1.467-6.027-16.476-5.412,2.828-1,0.537-5.992-5.957-9.768-0.467-9-5.364-7.223L239.021,786.4l-3.383,8.38-6.394.65-6.852-28.452,47.376,5.451,5.355-14.5-3.871-8.362-10.1-8.341-1.545-9.99-1.27-15.289-2.37-2.187L240.785,714l3.164-3.915,22.1-2.448,8.62-3.876,1.423-6.123,1.68-2.265,9.157,0.842-2.819-22.46-11.95.659-5.6-2.929-2.379-5.866-9.275-4.517-2.095-14.075-4.068-5.12-9.087-1.728,0.825-2.636-2.592-.956Z" transform="translate(-9.898 -17.841)" fill="aqua" stroke="#000"/><path d="M629.721,741.933l-3.47,5.22-6.306.061-4.133,1.03-8.659-3.653-3.13-.135-0.751,3.02-17.755-8.236-1,3.138-6.093-.161-13.657,12.845-15.83-5-7.738,2.575-6.477,3.3-6.9-5.037-5.7,1.222-2.558-6.25-5.91-3.029-2.846,5.508-14.551,4.578-3.221-5.15-11.226,3.858-3.631-6.595L462.9,747.58l-11.557-2.854,0.51-21.006,4.713-4.417L446.8,698.336l-0.257-6.713-4.085-3.509-11.387,1.776-13.988-7.978-5.43-19.016-11.483,6.023-1.6-9.266-12.53-22.014L370.9,632.5l-8.978,2.008,1.537-11.557-6.582-1.126-1.021-3.212,4.068-12.862,9.292-3.705,10.143-8.511,4.875-26.279,2.423-6.193,5.543-3.828,22.5-4.648,7.127-10.876,3.352-.262,0.633-8.472,0.279-14.346L410.458,512.5l-11.706,6.276-4.67-11.02,2.855-5.242-3-.236-15.957.271-3.562-5.613-6.128-2.431-11.762,5.7-4.919-8.079,3.719-5.1,2.021-12.461-5.028-1.6-4.866,2.182-9.872-21.574-1.842-6.459L308.88,445.6l-11.5,6.865-6.922-6.94-6.8-.554,3.6-16.611,10.5-8.258,6.625-15.861,0.868-4.574-7.978-4.631-12.269-.917-3.692-12.779-10.3-8.489,3.963-9.4,7.127-6.464-6.385-7.677-4.443-12.6L258.8,321.877l-3.256-9.244,8.293-9.414,11.387-1.466,0.436,0.406,6.11-2.523,12.862,1.453,5.617-3.108,5.473,3.208,4.356,1.1,6.931,10.68,5.4,3.365L331.3,302.9l2.234-9.253,9.759-1.266,6.913,3.548-0.554,10.3,8.651,3.387,1.191,2.924L358,327.8l3.112-.855,0.581,22.028,2.13,1.955,10.091-3.653,6.495,0.72,4.408,8.821,6.459-.943,6.852,9.619,13.53,13.412,4.277,1.706,9.881-1.519,8.45,5.364,1.951,9.851,5.848,3.409,0.725,3.3,11.662,2.414,3.138-.419,0.044-3.169,14.774-3.369,7.441-28.356,6.4,1.021,3.426,5.464,9.982-7.476-7.808-10.51-0.786-13.093,16.664-1.008,1.7-30.163-1.047.253,2.837-11.182-2.182-5.351-2.208-2.71L494.839,296.6l-11.762-3.365-0.323-6.748-9.183-17.384,0.6-6.071,9.017-.454-2.431-1.947,0.467-6.185,11.985-8.489-4.373-4.8L494.076,225l8.908-4.993,3.719-9.619,18.183-19.239,18.488,9.8-5.037,11.954-0.087,5.325,6.045,1.589,13.12,3.932,8.262,4.858,11.4-3.575,7.747,4.788,7.568,2.366,5-4.74,7.433-15.612,11.047,13.019,20.33-11.391,3.7-9.082,4.988,19.666-3.13,13.246,6.87,7.607,0.895,13.648,2.9,1.851,12.273-4.059-4.491,9.283,6.215,2.662L675.8,264.5l3.531,5.783,15.3,5.272-4.443,12.818,10.715,4.666,5.32-11.841,9.676-1.336,3.928,16.445-3.906,9.449,1.27,10.108-4.059,2.937-3.911-7.04-3-1.314-16.607,8.733L680.172,318l-8.541-4.718-6.752,7.441,0.886,3.23,8.781,4.434,12.718,0.917,1.143,13.076-0.288,3.212-8.79,3.863-5.565-3.121-6.4.371-8.3,21.862,1.279,6.259,6.377,2.086,12.456-4.194,5.368,3.9,0.135,9.763,3.819,5.285,15.913-.807-0.419,9.645,0.266,5.8-0.087,16.991,6.948,7.385-3.365.489-1.1,9.929-9.2,4.317-8.969,10.112L690.729,461l-2.335,2.483,10.483,12.779-4.988,16.245,16.563-2.811,9.929-9.209,16.633,3.042,9.9-2.606-9.344,9.593,1.611,2.963,12.836,3.444,9.336,9.611,0.052,3.252-30.451,11.173-1.925,2.654,6.258,11.518-14.883,2.1-4.426,8.162-10.51,7.223-2.261,2.505,10.868,20.16-0.4,8.144-5.848,1.37L693.64,595.888l-9.174.113L670.1,591.21l-5.713,5.307,12.539,15.249,6.5,15.119-0.17,6.429-9.122-.484-10.82,4.635-12.683,7.747,8.532,9.619-0.323,6.507,5.744,7.948-1,13.312-4.8,4.6-2.461,9.405,12.216,3.788-4.456,5.7,10.169,0.009,0.118,6.263-3.919,18.222-9.4-.834-9.711-7.52-6.306.175-5.866,7-1.545,15.708-4.892,3.365,0.135-6.411Z" transform="translate(-9.898 -17.841)" fill="#06c" stroke="#000"/><path d="M473.538,269.11l0.607-6.071,9.017-.454-2.44-1.947,0.467-6.185,11.985-8.489-4.364-4.8,5.242-16.157,8.908-4.993,3.719-9.619,18.183-19.239,18.479,9.8-5.028,11.954-0.092,5.325,6.045,1.589,13.12,3.932,8.271,4.858,11.4-3.575,7.738,4.788,7.568,2.366,5-4.74,7.424-15.612-0.546-13.949-4.823-13.124-13.539,8.458-9.222,2.662-2.789-1.584-3.212-5.63,1.754-4.068-4.971-12.893-3.666-11.976-11.815-2.475-1.322-11.474-2.806,1.074-1-3.073-9.017-3.278-1.091-5.6-5.573-6.206-17.7-6.6-5.525-7.328-3.042,5.975-9.563,1.139-3.3-1.536-7.594,1.375,2.121,6.136-1.754,9.711,3.409,5.25-11.357,3.819-2.326-2.462-9.257,4.181-3.767,5.416-20.05,1.3-0.484,3.361L424.678,164.3l-4.91-4.539-12.291-3.849-4.631,4.639,0.637,9.488-1.715,4.4,9,13L405.575,199l-4.884,4.282-6.4-6.909-9.436-1.615-0.973-3.06-1.013.567-7.756,4.958,0.144,3.1-7.8,1.58-3.819,4.207-9.75-3.391-5.15,3.16-0.982,9.982-5.447,2.929-0.41,3.046-6.01.821L316.478,217.9l-10.348,8.336-2.147-.912-6.769,6.39-5.15-4.159-2.985,1.462-11.19-10.846,0.777,2.885-4.116,4.107,3.937,18.274,3.025,0.973-5.525,10.815-2.2,14.019-8.943,2.414-9.157,5.8,1.449,3.252,1.358,6.206-2.182,5.966,7.459,10.3,11.4-1.466,0.428,0.406,6.11-2.523,12.871,1.453,5.609-3.108,5.482,3.208,4.347,1.1,6.939,10.68,5.394,3.365,8.882-13.438,2.244-9.253,9.759-1.266,6.913,3.548-0.563,10.3,8.659,3.387,1.183,2.924-1.493,15.267,3.112-.855,0.581,22.028,2.139,1.955,10.086-3.653,6.5,0.72,4.408,8.821,6.459-.943,6.852,9.619,13.53,13.412,4.277,1.706,9.881-1.519,8.45,5.364,1.951,9.851L442,397.68l0.725,3.3,11.67,2.414,3.138-.419,0.044-3.169,14.774-3.369,7.433-28.356,6.4,1.021,3.435,5.464,9.973-7.476-7.8-10.51L491,343.486l16.655-1.008,1.706-30.163-1.056.253,2.837-11.182-2.174-5.351-2.217-2.71-11.976,3.238L483.018,293.2l-0.323-6.748Z" transform="translate(-9.898 -17.841)" fill="#06c" stroke="#000"/><path d="M255.161,119.871l-5.814,1L244.529,124l-0.214,12.229L243.6,143.6l-3.928.048-14.416-6.259L227,134.662l-4.255-8.415-5.386.729-19.173-4.2-1.824-2.654,1.79-9.336-8.611-8.938,3.352-.707,4-9.152L212.228,84.6l-1.135-13.91L224.824,55.2,231.7,74.9l16.655-2.505,15.778-12.251L253.2,52.44l12.827,0.38L263.3,47.137l5-1.484,11.3-7.289,10.606,12.2,6.163,2.121,6.276-1.855,7.184,14.63,10.239-1.257,11.723-7.123,3.138,1.449,4.229-8.183,14.621,6.966,6.268-1.663,2.6,1.964,3.016-.834,2.1-9.1,5.822,2.095,8.057-4.631,2.64,1.654,2.055,13.927,8.729,2.427L397.732,51.5l7.55-4.465L411,45l11.439,3.928,2.5-1.772,20.435,3.348-6.027-10.4-0.271-6.062,10.043-15.415,4.8,4.757,22.717,5.495,4.4-1.715,1.537,1.907,9.624,0.484,7.546,5.927,9.641,0.781L503.3,50.218l1.859,5.019,5.931,3.457,8.926,14.512-0.546,5.931,6.324,6.084-0.035,3.2-6.163,2.357-2.806,12.779-8.532,5.024-0.314,6.193-3.042,5.975-9.554,1.139-3.3-1.536-7.6,1.375,2.13,6.136-1.763,9.711,3.409,5.25-11.357,3.819-2.318-2.462-9.257,4.181-3.775,5.416-20.05,1.3-0.476,3.361-16.3,5.853-4.91-4.539-12.291-3.849-4.631,4.639,0.637,9.488-1.715,4.4,9,13L405.584,199,400.7,203.28l-6.4-6.909-9.427-1.615-0.982-3.06-1.013.567-7.747,4.958,0.144,3.1-7.808,1.58-3.819,4.207-9.75-3.391-5.141,3.16-0.991,9.982-5.447,2.929-0.41,3.046-6.01.821L316.487,217.9l-10.348,8.336-2.147-.912-6.769,6.39-5.15-4.159-2.977,1.462-11.2-10.846-0.681-2.523L275.1,200.658l-7.638,3.535-2.514.511-2.191-9.462,5.355-8.646,0.419-20.312,6.9,3.007-4.255-25.057,6.726-3.317-13.757-11.2-7.817-4.4,0.733-2.972Z" transform="translate(-9.898 -17.841)" fill="#06c" stroke="#000"/><path d="M224.78,229.891l-9.017-1.061-4.679-4.989-9.768-1.615,3.291,10.523,1.27,12.347,5.726,6.547,15.42-2.483,4.613,0.506-3.265.353-0.1,13-1.362,9.161-11.679-4.91,0.266,10.278-8.122,0-9.676,4.976-12.871-.934,1.969-11.885-2.182-12.159-0.742.611-4.849-3.156-0.973-5.512,3.657-14.158-8.219-6.355-11.679,9.366-9.157-9.925-12.993-3.308-2.139-2.23,2.121-14.778,6.625-4.255L146.139,198l-4.177-3.238-2.6-10.549-16.5-25.467-0.314-3.382L129,153.486l2.667-6.215-2.658-13.146-2.789-1.222-3.71-10.693-8.219,2.54L112.746,122l-8-1.837-2.1-9.183,6.276,1.183,11.762-4.91,4.107-11.815,6.638-6.8,9.58-.624L126.781,76.073l11.679-20.09,10.313-8.76,2.47-6.3,5.822,0.467,8.986-13.709,4.775,8.541,6.638-.528L195.121,50l8.952,9.03-0.663,5.857L202.685,67.9l8.424,2.785,1.135,13.91L196.906,91.99l-4,9.152-3.352.707,8.611,8.938-1.79,9.336,1.824,2.654,19.173,4.2,5.386-.729,4.255,8.415-1.746,2.728,14.416,6.259,3.928-.048,0.716-7.372L244.544,124l4.818-3.129,5.814-1,1.894,2.492-0.733,2.972,7.825,4.4,13.748,11.2-6.717,3.317,4.247,25.057-6.9-3.007-0.428,20.312-5.355,8.646,2.191,9.462-5.778,7.516-17.34-2.536-5.386.642-5.91.869-3.544,18.728Z" transform="translate(-9.898 -17.841)" fill="#06c" stroke="#000"/><path d="M186.7,377.524l-9.392,2.5-3.837-5.368,2.4-4.687-5.028-3.361,0.109-5.3,5.338-5.844L161.438,343.3l0.24-3.26,5.107-3.679-4.474-8.384-0.445-.218,0.716-16.214,6.617-11.191,13.181-1.436-13.442-12.709-5.4-11.531,6.342-1.837,14-14.665,0.751-.611,2.182,12.159-1.969,11.885,12.871,0.934,9.667-4.976,8.122,0-0.257-10.278,11.67,4.91,1.37-9.161,0.1-13,3.256-.353-4.613-.506-15.411,2.483-5.726-6.547-1.279-12.347-3.282-10.523,9.768,1.615,4.67,4.989,9.026,1.061L227,229.956l3.54-18.728,5.91-.869,5.386-.642,17.34,2.536,5.778-7.516,2.523-.511,7.638-3.535,2.112,14.988L277.9,218.2l0.777,2.885-4.116,4.107,3.937,18.274,3.016,0.973L276,255.257l-2.2,14.019-8.943,2.414-9.165,5.8,1.449,3.252,1.362,6.206-2.182,5.966,7.459,10.3-8.284,9.414,3.247,9.244-8.838,1.72-4.988-6.94L242,316.491l-2.038,9.471-9.148,2.479-3.622,4.976,4.452,15.9-3.06,1.244-10.553,4.264-2.584,2.064,2.771,12.805-6.555,11.479-11.644.6-8.083,4.055Z" transform="translate(-9.898 -17.841)" fill="#ff8080" stroke="#000"/><path d="M131.917,438.941l-5.626-2.483,3.88-6.835-2.147-1.942-3.57-6.088-0.436-1.711,7.917-13.709,9.213-8.629-4.465-12.007,7.612-6.529-1.3-9.619,11.142-.541-5.4-11.933-9.929.96-2.523-2.243,7.546-18.366-4.7-3.924,3.2-8.533-2.719-1.336,2.27-6.7,3.3-.986,16.69,11.95,0.445,0.218,4.474,8.384-5.107,3.679-0.24,3.26,14.848,12.16-5.338,5.844-0.109,5.3,5.028,3.361-2.4,4.687,3.837,5.368,9.392-2.5,5.25,8.3,8.074-4.055,11.644-.6,6.564-11.479-2.78-12.805,2.584-2.064,10.562-4.264,3.06-1.244-4.456-15.9,3.622-4.976,9.148-2.479,2.038-9.471,2.915,0.161,5,6.94,8.838-1.72,12.47,14.844,4.443,12.6,6.385,7.677-7.127,6.464-3.963,9.4,10.3,8.489,3.692,12.779,12.269,0.917,7.978,4.631-0.868,4.574-6.625,15.861-10.5,8.258-3.6,16.611,6.8,0.554,6.922,6.94,11.5-6.865,26.859,1.514,1.842,6.459-2.985.724-7.825,15.472-8.489-1.488-7.092,5.39-6.027-1.239-1.314,4.941-6.521-1.654-20.286,9.746,7.359-6.494-1.358-2.985-6.459-1.03-5.7-4.334-6.28-2.269-2.951,1.589-11.169,11.81-11.688-5.665-3.4,2.85,2.453,5.434-3.6,7.716L222.29,499.3l-3.273,17.48-9.336,8.729-8.952-3.618-1.065-6.35L185.588,512.1l-6.136-6.455-5.993.947-4.954-3.483-4.936-1.2-0.842-13.032-9.929-8.061-3.238.55-1.527,2.985-15.8-3.671-5.028,2.846-12.47-1.336-3.719-4.347-9.183-7.459,8.847-14.289,6.128-.938,5.329,3.444,6.1-6.739,6.071-.877Z" transform="translate(-9.898 -17.841)" fill="#06c" stroke="#000"/><path d="M123.9,266.112l1.645-12.469-7.171-6.56,4.57-4.818,12.6-4.823-0.349-6.507,3.845-5.268,0.615-.541,12.993,3.308,9.157,9.925,11.679-9.366,8.21,6.355-3.649,14.158,0.973,5.512,4.849,3.156-14,14.665-6.35,1.837,5.4,11.531,13.442,12.709L169.2,300.351l-6.617,11.191-0.716,16.214-16.69-11.95-3.309.986L135.731,297.2,127.7,278.442l5.6-2.767,3.112-8.637Z" transform="translate(-9.898 -17.841)" fill="#ff8080" stroke="#000"/><path d="M100.427,552.047l-6.333.428-2.261-9.785,14.961-13.3,0.681-11.631-10.527-6.093-5.617-14.425,2.523-2.016,12.43-1.894,1.152-9.968,3.562-5.5,3.719,4.347,12.47,1.336,5.028-2.846,15.8,3.671,1.527-2.985,3.238-.55,9.929,8.061,0.842,13.032,4.936,1.2,4.954,3.483,5.993-.947,6.136,6.455-6.529-.236,0.07,12.984-5.661,7.948,4.417,3.963,2.575,8.742L178.953,564.9l-15.328,7,10.527,7.062,2.566,5.944-3.291,4.958-8.275,7.114-13.657,9.8-6.447,1.641-8.327-4.618-5.473-8.485L119.334,589.1l-7.69-1.593-9.165-3.335-3.343-5.525,1.074-6.346,9.008-9.419,1.537-5.992Z" transform="translate(-9.898 -17.841)" fill="#ff8080" stroke="#000"/><text transform="translate(517.735 498.026)" font-size="18.743" font-family="DejaVu Sans" font-weight="700">4</text><text transform="translate(292.396 627.217)" font-size="18.743" font-family="DejaVu Sans" font-weight="700">3</text><text transform="translate(167.57 837.295)" font-size="18.743" font-family="DejaVu Sans" font-weight="700">2</text><text transform="translate(115.502 620.287)" font-size="18.743" font-family="DejaVu Sans" font-weight="700">1</text><text transform="translate(124.167 525.297)" font-size="18.743" font-family="DejaVu Sans" font-weight="700">11</text><text transform="translate(183.945 419.509)" font-size="18.743" font-family="DejaVu Sans" font-weight="700">9</text><text transform="translate(394.335 253.752)" font-size="18.743" font-family="DejaVu Sans" font-weight="700">5</text><text transform="translate(347.767 108.645)" font-size="18.743" font-family="DejaVu Sans" font-weight="700">6</text><text transform="translate(126.037 244.766)" font-size="18.743" font-family="DejaVu Sans" font-weight="700">10</text><text transform="translate(206.795 288.432)" font-size="18.743" font-family="DejaVu Sans" font-weight="700">8</text><text transform="translate(175.267 164.811)" font-size="18.743" font-family="DejaVu Sans" font-weight="700">7</text></svg>