<svg xmlns="http://www.w3.org/2000/svg" width="767.376" height="962.404" viewBox="0 0 767.376 962.404"><title>Députés sortants des Yvelines en 2017</title><path d="M632.448,498.767l-14.469-16.1-3.727-2.9L590.29,500.042l-14.037-9.1-2.3-8.835,13.147-25.9-27.39-20.66,35.056,3.627,19.684-2.578,3.428,5.673,16.349,7.155,9.992-44.477,8.55-10,2.571,3.78,8.71-.5,11.858-6.524,1.309,9.905,16.714,10.456,4.969-.113,4.285-14.217,7.9-6.006,2.93,10.569-0.7,3.82,10.344,9.055-2.916,2.538,5.334,9.281-3.5,6.763-1.74,2.637L706.6,436.36l-13.911-5.673-3.375,7.985,4.5,2.265-1.322,3.7-4.331,1.495-8.809-1.063-6.006-2.458-7.813,19.026,3.322,1.315L664.941,499.1l-13.014,5.295-9.486-1.468Z" transform="translate(-21.519 -7.304)" fill="#adc1fd" stroke="#000"/><path d="M527.544,636.541L511.833,648.5,496.3,637.258l-4.956-9.088,10.2-23.451,2.644-3.235,5.282-10.928-3.488-8.2,2.166-13.014-4.271-2.644-0.054-10.018-33.449-6.763,3.129-19.232,9.653,2.571,15.658-12.137,15.18,11.931,13.792-1.574,1.607,14.044,7.826,6.53,16.854-11.991-0.91-24.467,3.88-3.182,19.193-21.458,14.037,9.1,23.963-20.275,3.727,2.9,14.469,16.1,9.965,4.159,9.473,1.468,13.028-5.295,3.906-36.146-3.309-1.315,7.8-19.026,6.006,2.458,8.822,1.063,4.318-1.495,1.322-3.7-4.5-2.265,3.375-7.985,13.911,5.673,14.236,0.027,1.74-2.637,3.5-6.763-5.334-9.281,2.93-2.538,15.18-1.834,9.041,21.159-2.943,3.88,19.345-1.754,6.4,7.241,0.87,9.7,13.924,3.847,2.385,4.285-0.079,8.178,0.624,5-4.219,2.71-14.934.97-6.809-6.464-9.911-.624-2.983,3.76,4.763,13.233-2.91,14.117-14.011-5L724.1,505.091l-10.237-.226-12.171,9.008-0.066,5.155-3.84,8.915-16.933-6.3-12.862,5.049-4.139,2.936L673.71,547.1l-2.737,9.785,2.6,4.956-12.908,20.634,0.651,9.659-8.371-5.966-7.122,18.727-12.1-5.175-3.182,3.029-10.662.166-9.653.007-3.215,9.061-4.83.7-3.933,2.312-4.657,22.2-1.794,9.081-13.559-2.883-1.581,8.915-18.3-6.67-5.135,2.431-5.853-7.739Z" transform="translate(-21.519 -7.304)" fill="#06c" stroke="#000"/><path d="M682.884,362.215l-8.716-2.558-0.272,13.28-7.839-2.478-9.786-5.122-11.459-10.37-10.018-2.245,9.706-25-3.295-3.361-14.09-7.327-4.245-1.98-11.692,7.68-9.447-4.4-16.648-7.387L563.6,297.8l-16.2-13.286-10.1,10.277-17.545-3.355-3.773,20.92,7.693,17.591,11.759,8.842-0.624,5.029-7.553,12.994,9.095,16.3-1.813,9.161,1.269-.066-3.142,19.524L551.9,434.7l7.786,0.85,2.013-19.166,3.88-2.936,23.963,3.109,9.825-21.365,12.7-.837,4.876-5.992,6.577,2.013,11.095,9.533,9.573,5.042,8.537-10,2.571,3.78,8.716-.5L675.87,391.7l1.3,9.905,16.714,10.456,4.969-.113,4.292-14.217,7.9-6.006-2.571-12.549,4.086-14.569,9.653-1.581-9.274-16.1,3.282-8.822-3.309-9.646-18.1-.166-7.474-5.089,7.228,17.93-9.108,17.319Z" transform="translate(-21.519 -7.304)" fill="#06c" stroke="#000"/><path d="M707.583,309.78l-9.214-2.923-6.085,12.994L681.31,298.732l-7.786,4.989-3.116-2.936-5.892,5.78-3.58,8.052-13,2.139-6.736,7.613,3.295,3.361-9.706,25,10.031,2.245,11.446,10.37,9.786,5.122,7.852,2.478,0.272-13.28,8.71,2.558,2.624-3.747,9.095-17.319-7.228-17.93,7.474,5.089,18.1,0.166,7.786-14.549,10.849-22.713,4.843-4.863,25.849-14.363L760.9,256.614l5.334-7.128-5.594-17.226-15.765-1.926-14.7,14.894-6.942,9.427L723.74,273l-18.448,5.242-8.716-10.682-7.607,5.946,9.859,2.6,9.679,18.349Z" transform="translate(-21.519 -7.304)" fill="#06c" stroke="#000"/><path d="M690.809,220.375l-4.982,1.521L685.3,237.07,673.6,253.983l-6.112,19.9,8.915,1.588,6.916,4.683-7.055,5.793,5.036,12.775,10.974,21.119,6.1-12.994,9.2,2.923,0.91-15.333-9.679-18.349-9.859-2.6,7.607-5.946,8.716,10.682,18.448-5.242L723.2,254.634l6.955-9.427,14.7-14.894,15.765,1.926,7.049-8.085-0.233-13.585-32.14-5.321,4.876-9.686,0.054-5.6-5.162-.525-24.992-2.086-12.768,14.077Z" transform="translate(-21.519 -7.304)" fill="#06c" stroke="#000"/><path d="M611.635,215.24l-10.676,17.923L587.035,240.1l-13.572-7.049,8.344,15.937-8.152,5.022-10.317-11.526-15.465-.837-3.8-24.753-8.6,1.256L535.211,216l9.653-18.548,16.555-12.795,6.252,19.551,1.023,18.953,4.67-.9,19.551-25.63,7.64,0.159-0.691-3.76,10.071-.565,3.228,3.939,5.268-14.609,19.823-23.69,15.114-4.823,36.99-1.535,24.76,4.418,13.466,6.922,8.51,12.317,3.076,14.569-5.149-.525-25.005-2.086-12.768,14.077-6.491,18.933-4.982,1.521-0.531,15.173L673.55,253.983l-6.112,19.9,8.915,1.588,6.916,4.683-7.055,5.793,5.036,12.775-7.773,4.989-3.116-2.936-5.906,5.78-3.58,8.052-12.987,2.139-6.749,7.613-14.09-7.327-4.245-1.98-11.679,7.68-9.447-4.4-16.648-7.387-21.5-13.154-2.657-4.238,5.567-8.3,12.8-7.713,7.68-12.934,4.776,1.488,12.622-6.364,5.009-9.028,9.46-3.88,8.457-23.344,6.809-7.773-20.773-16.143Z" transform="translate(-21.519 -7.304)" fill="#06c" stroke="#000"/><path d="M635.637,132.8l-7.148-9.732-17.591,9.52-19.711,1.721L588.41,138.5l-15.7-15.479-2.7-2.757-12.781-16.382-10.184,2.6L532.932,100.6l-9.885,2.093L520.961,98.6l-9.174-1.09-7.667,5.222L479.248,73.008l1.568-6.331L475.355,63.4,450.742,86.474l-1.528,19.6-13.107,2.219L429.37,114.2l-2.412.226-7.68-4.2-0.066,9.6,13.207,30.645,10.782-3.694,5.162-2.119L503.429,125.5l9.2,0.279-7.241,38.146,10.158,1.668,4.073,14.735,2.113,19.631,13.479,16.024,9.653-18.548,16.555-12.795,6.252,19.551,1.023,18.953,4.67-.9,19.564-25.63,7.626,0.159-0.678-3.76,10.058-.565,3.228,3.939,5.282-14.609,19.823-23.69,15.1-4.823,37-1.535-5.773-8.756,5.135-20.621-5.447-14.715-13.12,14.117-22.587-8.4Z" transform="translate(-21.519 -7.304)" fill="aqua" stroke="#000"/><path d="M320.761,63.11l-15.26-.691-3.515-2.6-8.444,8.158L264.286,50.441l-10.264,8.948-39.547,19.93L190.26,92.147l-1.249,1.109-2.87,24.062-13.366,2.624-15.9-9.068-9.34,17.206-26.978,20.694,19.412,11.406,19.763-5.594,13.977,6.829,29.077-7.042,13.38,6.809,6.45,3.494,3.022-2.438,9.287,18.541,2.113-.95-0.054.678,8.862,12.177,23.976,5.9,3.022-8.809,16.515,3.3,4.271-2.305,6.291-7.932,2.438-14.389,18.947,15.771,10.974,0.824,22.614-1.847,6.218-2.544,14.323-1.913,10.576-6.676,10.537-8.948,26.167-9.261,9.666-3.368-13.22-30.645,0.066-9.6,7.693,4.2,3.129-9.327-3.089-14.369-7.826-5.354,13.884-36.133-23.6-10.968-0.777-6.829L391.894,20.46l-8.071.392-18.515,6.265,2.816,8.968L363.1,48.162l-4.83.5-18.335.126L328.83,40.542l-7.9,12.317Z" transform="translate(-21.519 -7.304)" fill="#ff8080" stroke="#000"/><path d="M386.024,172.065l-10.576,6.676-14.323,1.913-6.218,2.544-22.614,1.847-10.962-.824-18.96-15.771-2.425,14.389-6.3,7.932-4.271,2.305-16.515-3.3-3.022,8.809-23.976-5.9L237,180.516l0.066-.678-2.125.95-9.287-18.541-3.022,2.438-6.45-3.494-13.38-6.809-29.077,7.042-13.977-6.829-19.763,5.594-19.412-11.406,26.978-20.694,9.34-17.206,15.911,9.068,13.353-2.624,2.87-24.062,1.255-1.109,24.2-12.828L254.024,59.4l10.264-8.948,3.488-13.107-9.46-9.633-16.475-10.6-23.8-3.614L192.07,24.592l-5.746,4.119-5.407-10.078-4.6-8.822-9.559,1.535-21.724,8.915-11.313,9.673L119.739,26.9,95.019,32.943l-4.7-17.392-6.2-6.5L86.636,18.7,77.283,46.82,60.814,57.848l-9.9-2.95L36.174,40.489,22.25,55.191l3.919,3.222-3.063,9.659,7.912,12.934L32.54,95.974l13.844,11.493,5.149,5.733-3,7.653,6.238,6.185-9.254,21.63L36.4,152.036l9.015,21.026,7.255-6.63,15.339-.159,13.778-6.617,5.488,7.892,4.816,0.206L69.33,186.641,75.1,205.8l9.719-.95-9.3,18.727h0.272l9.559,11.373-3.375,9.274,5.72,8.138,8.862-4.6,15.027,4.776,2.245,4.8,1.116,4.079,2.631,7.414-5.72,6.138,24.779,24-17.206,27.178,12.377,12.224,0.7-4.484,12.3,4.976,10.689,9.6-5.594,19.611,9.188,1.727,8.125,6.072L166.827,381l-12.469,8.762,8.537,18.641-0.259,4.458-10.6,8.118-2.372,35.269,10.39,17.352-4.577,9.028,1.933,6.344,19.969,4.039,19.385,17.219-2.219,13.227-2.4,6.178-5.122,1.043-24.587,33.4-2.04,3.2,6.809,2.1-12.157,7.46-0.3,12.27,28.586,11.313,8.889,2.8,8.444-3.654-2.883-8.663,14.336-3.674,8.277-17.87,19.412,5.122,16.456-10.5,10.031-.259,13.692,0.817,3.567,3.388,1.375-4.737-3.182-33.881L246.015,518.63l19.564-21.8,19.4-.046-3.607-9.3L269.5,477.535l0.465-5.036,6.046-8.078,15.027-1.2,5.8-8.277-3.867-16.681,4.125-1.422-23.617-1.986,1.4-3.435,0.637-14.7,8.071-5.66-2.916-24.773,8.41-24.527-2.438-9.453,10.849-6.6,1.688-17.744,2.206-4.105,8.317,3.76,1.336-4.212,8.6-1.76L321.8,317.8l-3.813-2.2,21.71-24.759,12.443,6.955,5.879,8.145,20.475,0.2,13.054,14L400.3,316.8l6.165,11.1,18.568-1.023,17.047-7.593,8.291,3.727,8.111-5.972-1.813-14.861,9.666,1.674,3.8-3.129,8.6-17.525-8.3-5.853-9.46-17.99-10.117-.06L468.1,240.9l16.269,7.44,10.616-17.359,24.679-17.99-2.066-9.805L521.738,200l-2.1-19.631-4.073-14.735L505.4,163.967l7.255-38.146-9.2-.279L448.384,144.7l-5.175,2.119-10.769,3.694-9.653,3.368-26.181,9.261Z" transform="translate(-21.519 -7.304)" fill="#06c" stroke="#000"/><path d="M438.638,435.47l-28.9-2.159,6.032-18.023L397.2,417.44,379.7,411.92l-6.385,6.955-1.156-4.544-4.67.139-7.54,5.494-9.706-10.184,3.4-2.963,0.531-17.8-7.049-2.963-4.531.8L330.5,373.024l-20.72,4.8-7-12.363-13.738-3.714-8.4,24.527,2.91,24.773-8.071,5.66-0.624,14.7-1.4,3.435,23.617,1.986-4.125,1.422,3.867,16.681-5.8,8.277L276,464.408l-6.046,8.078-0.478,5.036,11.871,9.951,3.621,9.3-19.4.046-19.578,21.8,35.747,10.689,3.182,33.881-1.375,4.737-3.58-3.388-13.692-.817-10.031.259-16.442,10.5-19.412-5.122-8.277,17.87L197.773,590.9l2.87,8.663-8.444,3.654-8.876-2.8-5,13.891-3.441,23.843,4.776,5.175,14.908,13.825,20.082-1.448-2.312,9.526,10.55,10.051-1.973,8.7,7.2,6.218,0.505,9.712,8.769,11.666,15.492-7.653,8.537,2.4-7.447,3.175,5.786,5.3,2.3-4.265,23.264,1.873,2.93,8.869L272.4,754.213l8.138,5.534-1,4.823,29.011,7.454,9.214-3.986,13.054,5.939,3.415,14.037,13.028,14.256,8.915-1.661-10.756,39.966,0.531,20.667,12.456,22.142-2.83,9.586,9.526,10.789-2.571,8.038,6.809,6.657,1.455,9.161,8.211,2.916,23.643-1.647,4.491,13.639,7.952,16.814,13.625,3.282,8.071,5.866,9.952-.246,4.591,0.97,20.036-.385,5.58-8.337,9.54-3.036,2.219-14.3-5.514-8.444,0.285-15.386,6.318-8.058,9.679-3.4,1.143-21.272,18.3-41.1,10.8-6.484,3.727,2.4,9.407-2.458-1.143-9.905-13.765-.631-27.457-20.262,3.773-19.5,24.275,1.92,16.688,9.128,3.255-3.707,33.98-1.136,4.271-30.519,13.572-15.917-2.631-13.851,1.92-9.885,19.465-4.617,2.7-13.8L607.07,692.716l-0.983-.777-5.673-7.407L599.35,670.3l-14.236-.963-8.457-17.08-18.309-6.67-5.122,2.431-5.853-7.739-19.836-3.78-15.7,11.958-15.532-11.24-4.969-9.088,10.2-23.451,2.657-3.235,5.282-10.928-3.5-8.2,2.179-13.014-4.271-2.644-0.054-10.018-33.449-6.763,3.116-19.232,9.666,2.571,15.658-12.137,4.6-9.819,3.009-12.463,11.546-4.026,0.106-8.623-4.591-1.076-10.662-20.946,4.643-17.306L481.6,430.288l-16.13-10.43-4.724,1.422,0.312,4.531-8.769.3,0.8,1.668-9.885-1.1-3.155,9.546Z" transform="translate(-21.519 -7.304)" fill="blue" stroke="#000"/><path d="M617.082,388.29l-5.062,6.138-12.635.724-9.759,21.311-24.2-2.89-3.607,2.89L559.652,435.6l35.029,3.607,19.85-2.524,3.255,5.414,16.256,7.221,10.1-44.423-9.38-5.056-11.2-9.394ZM559.659,435.6l-7.593-.724h-0.711l-15.532-.359-13,15.891L507.655,446.8l-4.7,17.339,10.47,20.946,4.7,1.083v8.669l-11.559,3.973-3.242,12.642-4.331,9.752,15.166,11.918,13.711-1.8,1.455,14.084,7.938,6.5,16.974-11.918-1.076-24.56,3.986-2.89,19.139-21.67L574.12,482.2l13-26.008Z" transform="translate(-21.519 -7.304)" fill="#ff8080" stroke="#000"/><path d="M347.148,386.044l-4.531.8-12.09-13.825-20.72,4.8-7-12.363-13.738-3.714-2.425-9.453,10.849-6.6,1.688-17.744,2.206-4.105,8.317,3.76,1.336-4.212,8.6-1.76,2.139-3.853-3.8-2.2L339.7,290.82l12.443,6.955,5.879,8.145,20.475,0.2,13.054,14,8.756-3.342,6.165,11.1,18.554-1.023,17.06-7.593,8.291,3.727,8.111-5.972L456.67,302.16l9.666,1.674,3.8-3.129,8.6-17.525-8.3-5.853-9.473-17.99-10.1-.06,17.245-18.4,16.269,7.44,10.616-17.359,24.666-17.99-2.052-9.805,4.139-3.189L535.233,216l0.259,2.146,8.6-1.256,3.8,24.753,15.465,0.837,10.317,11.526,8.152-5.022-8.344-15.937,13.572,7.049,13.924-6.936,10.676-17.923,1.714-15.665,20.773,16.143-6.809,7.773-8.457,23.344-9.46,3.88-5.009,9.028-12.622,6.364-4.776-1.488-7.68,12.934-12.8,7.713-5.567,8.3,2.657,4.238-16.2-13.286-10.1,10.277-17.532-3.355-3.773,20.92,7.693,17.591,11.745,8.842-0.611,5.029-7.553,12.994,9.095,16.3-1.813,9.161,1.269-.066L532.7,401.735l19.239,32.97-0.545.06-15.611-.319-12.935,15.8-15.359-3.388-25.862-16.535-16.13-10.43-4.737,1.422,0.312,4.531-8.769.3,0.817,1.668-9.9-1.1-3.142,9.546-1.428-.784-28.912-2.159,6.046-18.023-18.568,2.152-17.505-5.52-6.385,6.955-1.156-4.544-4.683.139-7.527,5.494-9.719-10.184,3.415-2.963,0.531-17.8Z" transform="translate(-21.519 -7.304)" fill="#06c" stroke="#000"/><text transform="translate(289.397 121.449)" font-size="28.53" font-family="DejaVu Sans" font-weight="700">8</text><text transform="translate(199.845 267.268)" font-size="28.53" font-family="DejaVu Sans" font-weight="700">9</text><text transform="translate(533.273 158.3)" font-size="28.53" font-family="DejaVu Sans" font-weight="700">7</text><text transform="translate(625.113 217.964)" font-size="28.53" font-family="DejaVu Sans" font-weight="700">6</text><text transform="translate(682.999 230.751)" font-size="28.53" font-family="DejaVu Sans" font-weight="700">5</text><text transform="translate(708.095 268.324)" font-size="28.53" font-family="DejaVu Sans" font-weight="700">4</text><text transform="translate(568.748 365.639)" font-size="28.53" font-family="DejaVu Sans" font-weight="700">3</text><text transform="translate(580.24 550.979)" font-size="28.53" font-family="DejaVu Sans" font-weight="700">2</text><text transform="translate(615.11 466.843)" font-size="28.53" font-family="DejaVu Sans" font-weight="700">1</text><text transform="translate(510.898 466.843)" font-size="28.53" font-family="DejaVu Sans" font-weight="700">11</text><text transform="translate(333.946 619.397)" font-size="28.53" font-family="DejaVu Sans" font-weight="700">10</text><text transform="translate(412.629 361.97)" font-size="28.53" font-family="DejaVu Sans" font-weight="700">12</text></svg>