<svg xmlns="http://www.w3.org/2000/svg" width="871.217" height="865.178" viewBox="0 0 871.217 865.178"><title>Députés sortants de Seine-Saint-Denis en 2017</title><path d="M40.389,243.1l10.572,32.047-3.607,1.774,57.328,12.729,64.374,27.026,2.959,42.03-20.864,37.141-17.8,17.256-6.11,11.529L110.461,432.7l16.984,57.158,27.968-2.959,60.633-1.531,38.724-.353,2-81.284-6.368-24.84L227.163,377.2l-10.337-6.272-15.674-31.568-18.3-23.477,4.557-5.9-4.484-6.368,5.522-9.2,10.785,1.244-34.608-37.384-13.774-18.052-22.764,5.315-19.237-16.108L68.511,211.991Z" transform="translate(-39.823 -16.984)" fill="#ff8080" stroke="#000"/><path d="M182.822,315.839l4.557-5.9-4.484-6.368,5.522-9.2,10.785,1.244-34.58-37.34,28.786-49.9,27.033,6.677L255.6,178.759l27.093,9.313-7.465,42.022L256.7,251.724l13.649,40.52L308.7,302.853l36.508-13.826-30.368,29.264-35.456,73.686-22.631,11.742-6.368-24.84-23.235-1.693-10.321-6.272Z" transform="translate(-39.823 -16.984)" fill="#ff8080" stroke="#000"/><path d="M637.256,671.9l-11.691,6.559-9.217-17.809,35.286-75.865,31.318,14.091,26.069,1.2,54.177,7.193,48.2,28.9,3.21-.927,53.647,3.953-13.333,37.053-24.059,11.868,34.469,80.526,26.356,84.1-9.733,28.712-61.5-32.275-4.373-13.34,0.457-25.811L727.86,750.684l1.384-14.5-59.574-39.659-5.477,5.095Z" transform="translate(-39.823 -16.984)" fill="#ff8080" stroke="#000"/><path d="M528,404.61l-6.486-42.648-16.763-23.919L493.7,328.487l-27.335,6.4-25.509-6.574,5.522-26.628-48.413,23.043L390.4,351.147l19.973,15.74-23.654,43.7L377.2,421.433l-6.957-5.131-24.317-16.314-42.633,8.857-23.912-16.866,35.456-73.694,30.368-29.257L308.7,302.852,270.35,292.244,256.7,251.716l18.523-21.622,7.465-42.022,18.029,3.077L369.8,255.117l31.759-6.847,79.414,8.223,23.521,0.111,9.637,3.04L540.2,272.6l34.638,63.74-5.566,72.074-14.223,5.676Z" transform="translate(-39.823 -16.984)" fill="#d00" stroke="#000"/><path d="M389.473,471.133l-12.28-49.716,9.519-10.844,23.654-43.7-19.973-15.74,7.561-26.415,48.413-23.043L440.845,328.3l25.509,6.574,27.335-6.4,11.057,9.556,16.763,23.919L528,404.6l27.063,9.482,2.613,8.518-14.827,49.06L463.674,499,426.1,509.077Z" transform="translate(-39.823 -16.984)" fill="aqua" stroke="#000"/><path d="M254.763,484.989l1.988-81.284,22.631-11.742,23.912,16.866,42.633-8.857,24.317,16.314,6.957,5.131,12.28,49.716,36.655,37.959-9.143,19.782L380.669,562.4l-10.741-22.152L345.6,536.383l-5.956-28.557-4.3-10.469L323.193,486.9,307,482.051l-39.976,2.761Z" transform="translate(-39.823 -16.984)" fill="#ff8080" stroke="#000"/><path d="M386.108,605.011l18.862-19.178,26.687-2.591,19.178,5.47-3.549,10.138,20.172,11.411L492.452,582.4l36.28,1.752,19.053,35.028,24.861,9.674,2.562,25.465-75.461,25.2-19.914,17.971-27.306-6.9-22.373,16.52L401.9,705.149l-7.274.4-2.834-25Z" transform="translate(-39.823 -16.984)" fill="#ff8080" stroke="#000"/><path d="M763.213,607.257l-54.191-7.193-26.054-1.2-31.333-14.091-35.271,75.865-41.169-6.324-2.547-25.465-24.876-9.674-19.039-35.028,32.9-44.621,28.152,6.869,23.9-12.243,12.236-24.442L647.5,498.019l11.2,37.826,12.478,5.676,5.566-12.574,34.5-5.816,4.057-11.278,16.491-15.585,23.581,0.155,9.085,52.918,26.445,4.2,30.744,28.16-7.03,53.529-3.21.927Z" transform="translate(-39.823 -16.984)" fill="#ff8080" stroke="#000"/><path d="M447.294,598.849l3.549-10.138-19.193-5.47-26.673,2.591-18.862,19.178-7.148-22.543-28.682-22.226-4.675-23.86,24.317,3.865L380.668,562.4l36.324-33.527,9.143-19.782,37.576-10.079,79.171-27.342,14.827-49.06-2.613-8.518,14.209-5.676,34.181,12.214-1.48,28.167-31.06,13.855L569.827,477.7l7.244,3.475-6.427,25.487-7.148-1.818-2.864,8.724,7.576,6.037-3.593,7.178-2.945,12.744-32.9,44.621-36.28-1.752-25,27.865Z" transform="translate(-39.823 -16.984)" fill="#ff8080" stroke="#000"/><path d="M569.268,408.431l34.181,12.214-1.48,28.167-31.06,13.855-1.119,15.048,7.244,3.475-6.427,25.487-7.148-1.818-2.864,8.724,7.576,6.037-3.593,7.178-2.945,12.744,28.152,6.869,23.9-12.243,12.236-24.434,21.585-11.7,9.085-13.811,21.784-34.837-25.87-9.247-5.956-26.989,28.424-29.514-26.01-50,11.286-27.048,32.96-28-77.935-93.438-13.531-2.2-68.01,41.279L514.118,259.66l26.069,12.957,34.638,63.74Z" transform="translate(-39.823 -16.984)" fill="#ff8080" stroke="#000"/><path d="M648.977,333.6l11.3-27.048,32.96-28L615.289,185.1l12.493-10.822,3.784-13.723,26.805-10.366,58.866-98.916,41.242,0.287,14.856-23.058,35.271-10.9L824.495,63.5l11.949,5.249,11.433,56.43-11.433,26.665-27.7,8.047,1.37,14.533,70.815,109.311L892.108,329l-58.668,4.852-15.887-24.339-6.559,26.812-26.614,6.626,0.545,3.224-28.66.39-28.786,30.206-52.469,6.847Z" transform="translate(-39.823 -16.984)" fill="#d00" stroke="#000"/><path d="M656.6,484.208l-9.085,13.811,11.2,37.826,12.478,5.676,5.566-12.574,34.5-5.816,4.057-11.271L731.8,496.267l23.581,0.155,9.1,52.918,26.429,4.2,19.6-20.687,54.067-20.7-1.509-27.917,16.52-22.594,2.613-2.326-9.188-9.578,9.114-63.431,28.41-18.258-0.545-25.134-17.919-13.9L833.4,333.868l-15.887-24.339-6.559,26.812-26.614,6.626,0.545,3.224-28.66.39-28.786,30.206-52.469,6.847-28.424,29.514,5.956,26.989,25.87,9.247Z" transform="translate(-39.823 -16.984)" fill="#ff8080" stroke="#000"/><text transform="translate(644.4 248.345)" font-size="80.362" font-family="DejaVu Sans" font-weight="700">11</text><text transform="translate(517.849 287.767)" font-size="80.362" font-family="DejaVu Sans" font-weight="700">10</text><text transform="translate(684.267 441.132)" font-size="80.362" font-family="DejaVu Sans" font-weight="700">12</text><text transform="translate(690.162 687.258)" font-size="80.362" font-family="DejaVu Sans" font-weight="700">3</text><text transform="translate(545.063 606.67)" font-size="80.362" font-family="DejaVu Sans" font-weight="700">8</text><text transform="translate(403.871 657.41)" font-size="80.362" font-family="DejaVu Sans" font-weight="700">7</text><text transform="translate(425.078 537.984)" font-size="80.362" font-family="DejaVu Sans" font-weight="700">9</text><text transform="translate(394.942 422.463)" font-size="80.362" font-family="DejaVu Sans" font-weight="700">5</text><text transform="translate(282.088 462.086)" font-size="80.362" font-family="DejaVu Sans" font-weight="700">6</text><text transform="translate(134.881 426.928)" font-size="80.362" font-family="DejaVu Sans" font-weight="700">1</text><text transform="translate(169.903 313.639)" font-size="80.362" font-family="DejaVu Sans" font-weight="700">2</text><text transform="translate(296.103 331.189)" font-size="80.362" font-family="DejaVu Sans" font-weight="700">4</text></svg>