<svg xmlns="http://www.w3.org/2000/svg" width="547.781" height="968.943" viewBox="0 0 547.781 968.943"><title>Députés sortants du Haut-de-Seine en 2017</title><path d="M370.9,108.175l-17.306,8.3-7.178.2L310.67,158.3l-18.155,18.919,0.374,24.316-24.606,9.746-25.035-63.836,30.217-31.066,48-39.489,57.491-40.934,67.276-21.38L505.755,27.79l66.824,28.054,3.073,43.64L554,138.048l-18.5,17.918L522.991,147.5l-54.258,25.745-33.206-30.76-12.872-43.3L394.617,89.6l-4.64,20.708Z" transform="translate(-28.38 -14.056)" fill="#ff8080" stroke="#000"/><path d="M372.84,196.227l2.706,13.889,28.757-1.093,22.65,18.636,8.974-5.932,75.845-45.413,17.436-8.385,6.329-11.97L523.023,147.5l-54.258,25.745-33.206-30.76-12.888-43.3-28.038-9.586L390.008,110.3l-19.125-2.117-17.306,8.309-7.17.191-53.9,60.541,0.374,24.324,56.811-23.192,45.727-58.164,17.39,38.182Z" transform="translate(-28.38 -14.056)" fill="#ff8080" stroke="#000"/><path d="M322.053,246.64l-23.5,13.843-16.794-3.891-6.207-21.778-7.239-23.536,81.41-32.946,45.727-58.164,17.375,38.182-39.978,37.877,2.706,13.889,28.757-1.093,22.65,18.636-37.968,17.008-39.665,38.97Z" transform="translate(-28.38 -14.056)" fill="#06c" stroke="#000"/><path d="M96.43,256l14.2-14.226,75.646-42.058,56.971-52.255,25.035,63.836,7.239,23.536,6.207,21.778-29.262,56.475,30.309,22.948-6.926,36.959-17.421,42.234-63.6-5.336L186.509,399.2l30.515-23.9-10.136-24.866Z" transform="translate(-28.38 -14.056)" fill="#d00" stroke="#000"/><path d="M426.945,227.675l-37.968,17L427.494,300.5l21.632-17.7,5.642-.749,28.275-18.8,46.331-27.58-17.62-59.356L435.91,221.735Z" transform="translate(-28.38 -14.056)" fill="#06c" stroke="#000"/><path d="M301.116,359.39l-25.264,13.568L282.777,336l-30.294-22.948,29.262-56.475,16.778,3.883,23.514-13.836,27.228,37.005,39.681-38.97,38.518,55.825-10.319,12.291-2.675,18.583L357.078,324.3,343.54,349.835l-27.573-9.211Z" transform="translate(-28.38 -14.056)" fill="#adc1fd" stroke="#000"/><path d="M88.595,509.9l2.072-13.79,35.843-20.226,8.08-26.425L69.148,466.27l-27.2-47.126,9.647-25.814-9.716-28.245,22.8-42.6,31.723-66.5,110.48,94.42,10.136,24.866-30.515,23.9,8.317,10.687,63.6,5.336-4.181,25.745-0.5,80.27L236.99,556.9l-54.059-12.261-53.6-3.662,18.452-31.042Z" transform="translate(-28.38 -14.056)" fill="#06c" stroke="#000"/><path d="M135.514,686.863l56.643-5.137,18.736,21.213,2.553,28.405,40.743,11.26,6.971,12.536,23.979-18.72,5.924-45.215,46.758-58.729-10.946.963-0.941-10.266-14.508,4.3-3.164-3.1,10.587-10.411-15.884-6.024,6.222-7.583-12.7-10.258-13.064.741-7.866-15.326L258.82,551.28l-5.075-30.057-16.725,35.69-54.074-12.261-53.6-3.662L147.8,509.948,88.587,509.9l2.072-13.79L126.5,475.886l8.08-26.425L69.14,466.27l-28.275,4.617L28.894,513.541l7.491,36.745,8.6,30.951-2.072,11.183,30.294,26.5,44.458-5.374L144.122,675.5Z" transform="translate(-28.38 -14.056)" fill="#06c" stroke="#000"/><path d="M253.745,521.223l5.075,30.057,25.784-9.043,42.577,24.293L365.2,526.559l-21.915-4.426-12.062-32.648,3.959-13.431-4.953-.176-7.407-3.455-17.336-6.444-7.69-10.151-43.518-14.86Z" transform="translate(-28.38 -14.056)" fill="#06c" stroke="#000"/><path d="M333.74,603.19l59.539,8.676,16.152,0.642L447.9,596.242l28.084-31.249L441.7,550.913,411.954,531.6l-17.046,21.3-15.823.3-0.764-15.281,8.393-5.657-6.911-9.119-14.6,3.409-38.014,39.971-42.577-24.293-25.784,9.035,16.733,24.247,7.866,15.326,13.064-.741,12.7,10.258-6.222,7.583,15.884,6.024L308.27,624.38l3.164,3.1,14.508-4.3,0.941,10.258,10.946-.956Z" transform="translate(-28.38 -14.056)" fill="aqua" stroke="#000"/><path d="M449.831,692.344l32.487-41.133-2.416-25-7.239-1.039-58.225,1.9-4.984-14.562,38.472-16.267,28.084-31.249L512.9,577.4l53.317,17.329-2.239,5.726-8.164,14.1-8.585,17.1-20.188-.436-2.378,15.778,12.9,5.427,9.15-5.81-5.657,21.35L525.95,727.186l-11.138-5.168-14.707,18.629-18.377-2.155-18.14-40.659Z" transform="translate(-28.38 -14.056)" fill="#ff8080" stroke="#000"/><path d="M414.424,627.071l-4.984-14.554-16.136-.642L333.765,603.2l4.074,29.262L291.1,691.2l-5.939,45.215-23.964,18.713-0.206,23.964,6.566,7.117,24.782-7.973,6.956,12.536,57.079,0.474,57.139-40.025,6.895-2.966,61.313-9.738-18.124-40.659-13.751-5.5,32.487-41.133-2.4-25-7.254-1.047Z" transform="translate(-28.38 -14.056)" fill="#ff8080" stroke="#000"/><path d="M478.245,939.194L424.583,962.2l-14.493-1.789-11.2-26.961,26.4-32.09-21.709-37.425-19.721-17.36-55.343-2.5-49.435-20.845-11.558-37.02L292.3,778.24l6.956,12.536,57.079,0.474,57.139-40.025,6.895-2.966,61.313-9.738,18.377,2.155,14.723-18.629,11.122,5.168,20.5,26.525-16.916,48.869-11.619,17.215L500.405,872.95l31.371,25.462-20.83,79.537-27.741,4.472Z" transform="translate(-28.38 -14.056)" fill="#06c" stroke="#000"/><text transform="translate(416.807 106.113)" font-size="83.441" font-family="DejaVu Sans" font-weight="700">1</text><text transform="translate(381.07 187.848)" font-size="61.225" font-family="DejaVu Sans" font-weight="700">2</text><text transform="translate(415.069 249.992)" font-size="58.987" font-family="DejaVu Sans" font-weight="700">5</text><text transform="translate(301.496 228.17)" font-size="51.505" font-family="DejaVu Sans" font-weight="700">3</text><text transform="translate(274.455 312.098)" font-size="62.459" font-family="DejaVu Sans" font-weight="700">6</text><text transform="translate(153.108 277.507)" font-size="83.441" font-family="DejaVu Sans" font-weight="700">4</text><text transform="translate(82.463 414.258)" font-size="83.441" font-family="DejaVu Sans" font-weight="700">7</text><text transform="translate(40.71 589.143)" font-size="83.441" font-family="DejaVu Sans" font-weight="700">8</text><text transform="translate(246.674 520.664)" font-size="69.827" font-family="DejaVu Sans" font-weight="700">9</text><text transform="translate(315.032 589.143)" font-size="55.362" font-family="DejaVu Sans" font-weight="700">10</text><text transform="translate(305.553 707.244)" font-size="83.441" font-family="DejaVu Sans" font-weight="700">12</text><text transform="translate(437.668 612.19)" font-size="54.341" font-family="DejaVu Sans" font-weight="700">11</text><text transform="translate(361.759 824.263)" font-size="83.441" font-family="DejaVu Sans" font-weight="700">13</text></svg>