<svg xmlns="http://www.w3.org/2000/svg" width="962.014" height="705.678" viewBox="0 0 962.014 705.678"><title>Députés sortants de l&amp;apos;Allier en 2017</title><path d="M414.927,566.068l-8.106-.588-12.609-6-5.176,1.246-2.154,4.96-2.676.346-8.824-5.828,0.685-5.606-2.167-5.215-14.469-8.746-0.4-.15-6.311-9.242-16.408-10.592-8.987-13.575,5.482,1.188,18.614-5.789,6.957-4.706,8.021,1.377,3.211-4.549-1.495-7.74-7.76-13.51,23.189-14.978L384.5,447.9l4.947-2.624-14-21.3-7.009-3.929-0.4-11.33-2.434-.535-1.057,2.258-4.6-6.513-19.071-10.469L339.3,388.2l1.351-5.339-6.664-4.882,7-3.8-3.237-12.557,1.338-5.071,7.61,2.193,6.82-16.917L341.151,334.1l-0.6-12.746,17.028-14.8,2.82-7.61,10.286-4.562,6.644-4.6-0.907-5.293,4.307-3.413,7.8-2.539,4.856,1.645,7,0.418,4.105-9.092,11.088,0.385,9.268,5.241,10.834-2.33,6.35,5.241,2.5-1.246,3.035,17.9,6.742,12.159,18.738,16.212,11.754,3.72,13.536,4.6,9.94,13.986,1.246,1.618,10.071,13.96,20.532,9.881,6.54-3.557,5.952-5.547,1.442-5.228,2.6-.737,14.176-8.322,4.869-6.677,8.008,0.777,0.216-.137,8.145-.6,3.583,10.54,7.506,11.65,16.662,2.918,4.908-2.891,5.267-1.834,5.965-9.4,1.965-8.093,5.188-2.075,13.628,3.074,10.873-.907-2.421,7.9,1.018,5.326,9.738,4.105,2.343,4.719,0.013,8.2-3.9,3.838,0.065,5.365-2.5,1.162,5,2.6,2.33,5.163,15.435,0.6L696.705,393l0.091-5.456L715.456,367.6l7.714-1.847,4.679,6.513,2.78,0.026,3.583-4.183,3.1-4.36-6.07-12.6-0.666-13.641,11.741,5.267,4.5-5.672,2.141,4.758,8.322-6.872L747.384,315.5l8.132-10.9,5.3,9,10.991-1.54,4.092,3.57-3.681,6.931,8.276,13.523-0.026,13.51,7.479,2.624,2.4,13.334,9.587,4.451L798.5,378l14.287,8.856,1.9,5.28,0.137,2.408,2.767,5.417,2.474,7.773,3.962,3.72,4.158,3.8-0.255,2.833-5.43,9.724,3.4,4.255,8.3,1.351,2.474,16.075,0.79,6.4,0.32,12.681-3.733,4.719-0.894,5.339,5.084,6.618,7.74,2.741L854,485.714l4.17,3.413,1.618,5.123,7.636,0.816,4.627,6.194,4.986-.737,14.006-8.883,5.149,6.122-3.413,4.49,2.715,4.334,0.431,0.118,5.176-1.925,4.816,2.128-1.886,13.79,2.689,4.764,15.128,7.062,3.452-3.661,2.317-5.071,7.506-3.531,9.855,4.17,13.242,0.268-3.25,9.509,7.14,0.64-7.838,11.141,0.75,8.237-7.166,7.865,2.317,5.026-4.654,1.442-5.352,5.561-7.571,2.062L928.351,560.3l-9.372-9.685-4.32,3.4-2.1,7.877-5.188-1.246-3.133,7.518,3.342,7.114-0.47,5.352-5.926,7.7-14.469,7.153-2.78.216-2.356-5.058-5.535-8.563-9.7,3.707-3.3-9.522-5.012-1.965L852,579.584l-10.044-4.17-9.2,5.1-3.126-7.479-10.188,2.833-4.777-2.728,2.513-10.442-4.425-2.767,0.764-2.663-2.78.548-2.7,4.973-8.308,1.495-12.426,6.631-2.3,5.163,2.075,4.719-2.114,1.618-11.023-7.434-2.486.75-1.442,5.1-8.054-1.123-5.469-9.5-7.865,1.527-7.851-10.723-10.136,8.106-1.991,7.584-4.758,1.246,4.627,12.988-2.676,15.918-4.843,2.036-8.184-1.456-5.045,2.369L695.3,603.954l0.137,2.317-7.649,4.667-3.5,7.088,0.842,5.241,3.6,3.877,2.18-1.429,12.9,16.062,7.225,4.706,7,3.877L717.74,664.2l4.04,7.356,9.881,14.606,2.539,0.574,2.65,0.4-3.126,7.493,1.684,2.167-5.952,8.543-7.329,3.224-1.136,8.054-7.532,1.429-0.065,13.523,5.084-1.188,4.268,2.859,4.5,14.75-2.075,1.834-11.284,6.422-5.339.15-7.009,4.21-5.978,5.188-10.123.5-6.272-4.158-2.408.855-9.6,9.163-3.746,3.811-7.558,2.421-0.4-5.3,3.466-7.1-0.92-13.2,2.447-4.562-17.883,1.671-4.438-2.611-7.8-29.767L613.4,708.652l-2.689-.137-4.079,5.293-8.067-.855-1.227-2.486-5.9,9.065,2.089,7.434-3.276,4.242-12.264,2.356L571.3,730.5l4.2,19.045-3.6,7.329-9.829,8.08-2.859,9.653-4.2,4.679-9.953,2.957-12.413-5.763-4.791,2.075-7.74,10.723-9.7-9.483-5.352-.4L505,772.266l-3.942-2-8.974-4.777-3.022-5.1-2.369,1.4-8.145-6.9,3.72-15.566L474.94,728.31l-9.385-4.347,1.312-7.395L462.839,710l-4.693,6.22-2.689.176-5.724-5.391-6.35-11.552-2.141-1.442-7.277,2.33-4.464-2.5-0.829-5.574,3.733-13.653,10.527-11.4,3.263-9.738-5.267-5.939,1.977-4.8-5-6.39-4.6-3.126-0.294-5.58-2.114-1.808-11.036-.176-7.46-3.57,1.965-13.229,2.689-4.6-0.933-5.254-0.359-4.856-6.22-11.513,3.929-15.246,5.149-1.234Z" transform="translate(-25.302 -270.483)" fill="#ff8080" stroke="#000" stroke-width="2"/><path d="M247.162,346.907l6.82-8.347,8.054-.907,0.953-13.6,14.313-7.238,2.154,1.429,5.149,12.694,6.272,5.365,1.886,5.045,4.49-2.806,4.523,1.762,4.438-2.845,5.913-8.974,18.9-1.442,5.084,5.841,5.032,1.227,12.368,7.728-6.82,16.917-7.623-2.193-1.338,5.071,3.237,12.557-7,3.8,6.664,4.882-1.351,5.339,1.566,5.254,19.084,10.469,4.588,6.513,1.057-2.258,2.434,0.535,0.4,11.33,7.022,3.929,13.986,21.3-4.934,2.624-0.966,10.469-23.189,14.978,7.76,13.51,1.495,7.74-3.211,4.549-8.021-1.377L351.4,502.48l-18.614,5.789-5.469-1.188,8.974,13.575,16.421,10.592,6.3,9.242,0.4,0.15,14.469,8.746,2.167,5.215-0.685,5.606,8.837,5.828,2.676-.346,2.141-4.96,5.176-1.246,12.622,6,8.093,0.588,3.811,4.118-5.149,1.234-3.942,15.246,6.22,11.513,0.359,4.843,0.946,5.267-2.689,4.6-1.977,13.216,7.46,3.57L431,629.872l2.114,1.808,0.294,5.58,4.588,3.126,5.012,6.39-1.991,4.8,5.28,5.939-3.276,9.738L432.49,678.639l-3.733,13.667,0.842,5.574,4.464,2.5,7.264-2.33,2.154,1.442,6.337,11.552,5.724,5.378,2.689-.163,4.693-6.22,4.04,6.566L465.639,724l9.392,4.347,7.316,11.017-3.72,15.566,8.145,6.885,2.382-1.39,3.022,5.1,8.961,4.777,3.942,2,0.065,7.127-2.526-.189-11.474,9.751,3.5,4.131-6.056,9.346,3.694,13.053-3.185,4.575,1.246,0.8-1.123,4.464,4.791,1.481-2.982,4.477,2.421,7.356-6.207,4.144,2.206,10.4-6.768-.679-0.777-10.658-4.719-12.9-2.715-.509-9.229,6.194-10.579,3.113-6.233-5.391-7.212,3.648-5.084.385-4.425-9.653-8.158-6.944-7.838-1.057-4.654,2.271-4.079-5.9-5.026-15.324-1.782-18.522-4.791,2.141-15.409-4.386-2.728-3.635,4.588-3.009,0.483-5.659-4-13.281,1.736-5.4,4.464-3.452,6.931-3.048,1.468-2.31-3.707-6.931,7.584-7.434-5.123-1.162-6.017-5.026-11.206.548-10.756-3.557-11.258,1.671-3.466-4.451-22.523,11.878-0.829,7.76,3.133,9.738-2.408,1.234-0.933,10.743-3.838,7.049-13.105-1.952-9.5-9.685-5.443.588-7.447-7.917L278.4,739.5l-5.776,9.2,4.386,12.557-4.158,6.566,0.281,5.267-11.317.4-9.79,4.242-4.719,2.806-0.777,10.886-3.394,4.216L240.4,805.972l-1.227,2.154-4.183,10.005-4.183,3.622-5.339,1.084-7.479-2.728-12.107-6.488-5.828,3.3L190.707,806.4l-5.084-2.486-3.446-25.127-9.62-1.514-7.395-6.924-0.111-7.421-3.642-6.885-3.642-28.684,0.62-.711-15.194-8.478-6.181-15.089,1-5.28,0.4-2.767L132.823,689l-15.083-6.944-5.3,1.325-4.158,7.075-2.571-.64-3.192-10.123,2.8-9.8L87.287,652.663l-1.155-.32L77.556,667.8l-2.441,1.234-4.595-9.79-13.138-1.456-10.912-7.61L44.826,645.1l-5.286-1.123,3.172-4.255,0.979-7.179,7.571-7.381,7.714,0.026-0.392-2.65-2.806-7.532-10.494,1.9-6.39-4.679-7.773-1.162-1.194-2.408L26.4,590.668l2.01-1.736L26.571,583.7l1.286-2.5L26.4,575.722l3.459-19.443L41.4,536.889l6.4,5.58,5.75-4L54.8,531.74l-2.591-4.764,5.136-9.509,9.47-9.8,9.437-5.417,8.772,0.118,16.943-2.036,7.3-4.158,5.613,0.561,4.556,3.413,13.451-4.412,6.951-4.986,7.545,1.234,0.02,5.443,2.036,1.808,5.3-1.044,3.244-4.373,5.286-.483,6.39,7.877L191.8,486.041l19.149-10.475,1.234-2.461-4.216-7.022,1.475-7.812-5.482-18.052-8.08.588-3.616-9.8-4.993-2.154,11.252-6.109-2.251-7.6,6.5-8.374-1.782-7.969L186.5,394.036l1.977-5.482,19.749-8.106,0.483,5.378,9.372,4.856,4.229-9.829,0.15-2.754-5.659-5.724,1.018-8.119,2.637-.8,11.017,1.1,4.49-6.794,12-5.874Z" transform="translate(-25.302 -270.483)" fill="#ffc0c0" stroke="#000" stroke-width="2"/><path d="M695.634,765.806l-10.11.5-6.285-4.158-2.4.855-9.614,9.163-3.733,3.8-7.558,2.421-0.418-5.293,3.479-7.1-0.933-13.2,2.447-4.575-17.87,1.671-4.438-2.6-7.812-29.767-16.9-8.856-2.689-.137-4.092,5.293-8.054-.868-1.234-2.486-5.887,9.078,2.089,7.434-3.29,4.242-12.25,2.356-6.69-3.061,4.183,19.045-3.583,7.329-9.842,8.08-2.845,9.653-4.2,4.679-9.966,2.957-12.413-5.776-4.791,2.089-7.74,10.723-9.685-9.483-5.365-.4-2.526-.189-11.474,9.751,3.5,4.131-6.056,9.346,3.694,13.053-3.172,4.575,1.234,0.79-1.123,4.477,4.791,1.481-2.982,4.477,2.421,7.356-6.207,4.144,2.206,10.4,2.918,2.31,5.293,5.672,17.87,4.027,10.7-.118,0.065-5.5,14.776,0.652,4.679-1.847,4.079,6.056,1.123-2.193,4.791,0.333,0.307,4.51,5.188,0.953,7.851-2.343,10.645,2.3,4.777-2.408,4.947,2.219,5.032-2.075-0.4,2.434,8.517,2.878,8.758,4.464-0.4,7.558,20.572-8.3,7.636-8.067,10.978-1.782,9.47-6.056,2.167,5.176,6.272,5.659,5.443,0.431,4.895-2.82,2.05,3.518,1.795,7.127,6.22,8.21-4.791,2.206,2.369,7.662-1.795,15.742,5.012-2.05,7.479-2.859,18.725-.091,0.15-4.758,7.356-1.495,2.421,0.725,1.442,4.588,4.307-.2,2.4,0.457,0.868-2.5,12.877,0.431,5.861-5.058,7.1,7.369,6.846,13.947,6.872,11.023,3.4,18.066,3.975-3.479,15.246,3.413,6.311,4.144,2.5,12.3,6.311,7.649,0.15-13.732,5.737-5.887-1.5-8.119,4.334-6.716,18.013,5.952,4.758-2.663,2.539-7.812,2.663-.685,12.035,6.3,5-2.075,5.267-6.259,5.293-1.136,7.479-2.793,0.7-5.326,4.027-3.681,0.176-.176-2.611-.431-1.468-5.1-4.869-10.005-1.238-14.051-4.49-13.105,8.706-29.741L872.17,830.256l-5.188-1.645,4.295-15.383-4.36-9.685-0.966-10.469,9-4-9.626-19.3-1.018-11.063,3.009-7.225-5.071-9.724-6.422-5.254L853.55,725.89l4.973-2.1,13.575,3.648,2.767-15,23.789-3.916,10.175-1.26L913.7,697.7l5.149,1.442,6.983-1.71-3.838-7.192,5.188-6.657,16.447-2.461,9-5.992v-1.553l0.652-11.023,11.154-1.084,8.106,2.18,11.558-7.623-5.672-.137-4.83-.829,0.966-17.732,2.31-15.807-5.365-11.865-2.382-10.208,5.776-7.877-1.86-7.1-0.281-2.565,6.207-4.373-3.342-9.574,7.434-2.833,0.894-2.584-3.746-7.127,2.232-5-1.566-4.947-10.9-7.316-2.624-4.5-5.1,1.26-7.851,11.141,0.764,8.224-7.179,7.877,2.33,5.026-4.654,1.442-5.352,5.561-7.584,2.062-4.242-15.873-9.372-9.685-4.307,3.394-2.1,7.89-5.188-1.246-3.133,7.506,3.342,7.127-0.47,5.352-5.926,7.7-14.469,7.153-2.78.216-2.356-5.058-5.547-8.563-9.7,3.694-3.29-9.509-5.026-1.965-6.017,5.267L842.1,575.485l-9.2,5.1-3.133-7.493-10.188,2.845-4.777-2.728,2.526-10.455L812.891,560l0.764-2.663-2.767.535-2.715,4.986-8.308,1.495-12.413,6.631-2.31,5.149,2.089,4.732-2.114,1.618-11.023-7.447-2.486.764-1.442,5.1-8.054-1.123-5.469-9.5-7.865,1.527-7.865-10.723-10.123,8.106-2,7.584L724.038,578l4.627,13-2.689,15.918-4.843,2.036-8.171-1.456-5.045,2.369-12.479-5.848,0.137,2.317-7.636,4.667-3.5,7.088,0.842,5.241,3.583,3.864,2.193-1.416,12.89,16.062,7.238,4.706,7,3.877L717.9,664.271l4.04,7.356,9.868,14.606,2.552,0.561,2.65,0.4-3.126,7.493,1.671,2.154-5.939,8.556-7.329,3.224-1.136,8.041-7.532,1.442-0.078,13.523,5.084-1.188,4.281,2.845,4.49,14.763-2.075,1.834-11.284,6.422-5.339.137-7.009,4.216Z" transform="translate(-25.302 -270.483)" fill="#ffd1dc" stroke="#000" stroke-width="2"/><text transform="translate(744.152 462.451)" font-size="138.518" font-family="DejaVu Sans" font-weight="700">3</text><text transform="translate(505.662 296.038)" font-size="138.518" font-family="DejaVu Sans" font-weight="700">1</text><text transform="translate(177.645 377.802)" font-size="138.518" font-family="DejaVu Sans" font-weight="700">2</text></svg>