<svg xmlns="http://www.w3.org/2000/svg" width="928.409" height="968.732" viewBox="0 0 928.409 968.732"><title>Députés sortants de l&amp;apos;Isère en 2017</title><path d="M606,543.491l-7.724,20.832-3.515,3.98-3.508-1.714,1.9,14.416-1.551,7.825,9.937,4.493,4.715-1.477,1.5,4.047,5.2-5.768L610,579.521l1.268-2.516,3.292-6.375,4.783,0.776,2.044-.648,4.6-2.833,4.8,6.483,7.657,2.53,2.388-1.241-1.808-10.261,4.574-2.462,7.63,2.671,1.106-.169,9.235-11,2.82-2.57,1.565-4.715-4.371-2.962,0.182-2.665,2.084-1.659,6.692,4.149,1.923-1.842-0.539-7.191,1.289,2.395,10.449,2.739,2.53-1.012,1.592-5.2,4.243-12.689-11.1-12.217L671.7,503.1l-2.084-5.019-2.307,4.075-4.614.263-3-13.532-4.863,2.806-3.528,7.92-2.145,3.029-2.388-4.23L633.617,496.7l-8.473,6.429L618.3,513.843l-1.781,10.186,2.61,7.495-10.328.344-0.135,7.839Z" transform="translate(-33.546 -7.87)" fill="#ff8080" stroke="#000" stroke-width="2"/><path d="M584.95,646.839l6.813-11.306-2.084-4.493,1.646-10.065-6.577-4.918-8.014-1.686,6.274-14.2,14.929,1,3.069,3.582,6.746-8.878,5.2-5.761L610,579.508l1.268-2.516,3.292-6.375,4.783,0.762,2.044-.648,4.6-2.82,4.8,6.469,7.657,2.543,2.388-1.255-1.808-10.261,4.574-2.449-0.371,7.616,5.046,9.66,2.293,4.783,4.81,1.134,2.584,4.371-9.039,6.915-5.694-.54-1.841,3.137,6.786,10.793,2.665,9.417,4.863-1.3,22.74,14.6,5.073-2.017-1.4,10.895,2.86,7.549-2.348,1.464,4.007,2.361-2.422,4.938-7.245,4.021-5.6,15.718-7.164,8.655,9.62,6.955-3.413,4.243L662.57,700.5l-4.506,15.637-4.216,3.427-9.883-12.831-6.564,8.405-10.881,1.451-4.2,3.913-2.806,14.227-11.017-1.241-6.55-15.374L599.61,722.7l-6.888,4.547-3.98,5.768-9.734-2.186-3.11-5.93-0.722-2.624,6.638-11.279-0.964-8.351,3.912-22.066,6.152-8.79,7.1-14.362-0.526-.277Z" transform="translate(-33.546 -7.87)" fill="#ff8080" stroke="#000" stroke-width="2"/><path d="M519.777,537.164l-2.86-4.715-4.108.648-2.927-4.628,0.526-10.821,14.045-16.3-1.08-4.574L528,487.042l6.867,4.257,3.083,18.842,9.8,12.979,0.938,0.432,8.851,11.131,2.726,5.822,10.368,16.757,1.714-.169,18.923,9.471,1.882,14.429-1.545,7.825,9.937,4.479,4.7-1.464,1.518,4.034-6.759,8.878-3.056-3.582-14.929-1,0.985-22.369-1.767-3.467-9.141.04,2.665,5.943-10.6,1.74-9.485-5.667-0.344-.553-0.142-6.456-7.8,2.1-2.253-1.646-0.83-5.491-6.011-5.518,1.741-8.115-2.158,1.673-7.353-3.69-5.808-9.222Z" transform="translate(-33.546 -7.87)" fill="#ff8080" stroke="#000" stroke-width="2"/><path d="M729.05,607.51l2.806-4.439,16.218-9.262,2.084-1.781-1.268-13.519,7.481-16.379,14.76-7.38,7.272-18.275,7.657,1.565,4.891,6.335,7.933-1.3,8.527,7.468,2.834-.2,6.442-14.807,10.632-3.582,1.781,11.279,6.334,5.795-0.095,8.325,11.083,8.723,1.659,11.347-10.4,27.537,9.977,2.806,4.506-2.462,6.867-8.723,15.36,6.678,8.183,11.421,13.074-4.918,5.377,0.776,5.943,6.112-2.307,10.821-17.958,16.285,8.048,29.938-13.323,3.73-6.038,18.72-0.5,11.32-3.305,4.385,0.135,8.514,6.442,5.478,23.968,7.683,24.481-6.072,11.1-.135,2.57,5.059-3.717,7.63-0.121,5.707,7.009,12.015-2.489,10.753,3.555,4.324,16.116,5.006L958.33,791.8l2.172,13.769-1.882,8.264,2.226,7.92-3.771,4.284-0.87,5.572,2.806,16.433-10.922,5.228-9.687-5.478-8.642-14.281-5.613-.978L908.388,836.5l-10.449,13.37-11.347.445-18.747-5.653-4.425,3.569L852.525,850l-6.746-4.769L830.034,841.8l-9.923,13.741-9.08,5.9-23.4,18.133-15.071-18.012-8.035,2.267L757.2,875.9l-13.9,1.423L726.288,888.7l6.591,6.55,9.633,4.4,1.424,7.92-15.55,7.987-1.173,9.431-7.71-3.083-10.382,8.588-9.964-4.189-5.2,1.95-4.4,6.692-21.493-3.44-3.994-3.913-8-2.671,1.3,13.924-6.024,9.525L647.01,961.78l-5.653,5.849-15.374,6.678-11.1,1.241-10.854-12.676-10.564-2.186-7.961-11.239-4.688,5.768-15.981-2.044-4.216,2.671-7.771-2.2-1.794-6.038-4.756-1.545-3.791-9.134-1.565-6.867-2.267-.607-8.419-1.477L517.9,921.311l-2.348-11.1-19.287-12.3-1.477,4.189,4.614,10.5-2.887,3.427L458.2,903.178l-2.307-4.23-7.974-1.673-2.226-4.9,8.5-6.469,5.572-12.217-12.028-2.361,6.375-33.885-2.57-8.264,5.768-16.258,1.767-20.1-3.386-35.443,6.125-18.565,2.7-4.661-7.245-14.335,1.828-7.866-4.122-3.231,0.749-5.417-7.164-8.21,0.735-8.514,5.309-13.2,5.032-2.226,5.518,1.106,8.021,1.288-8.587-23.9,0.634-33.595,7.852-18.221,0.095-.459,11.569-25.642,4.715-22.3,4.81-10.2,14.045-2.833,4.466-3.373,4.108-.661,2.86,4.729,4.9,2.294,5.822,9.222,7.34,3.69,2.172-1.673-1.741,8.115,6,5.518,0.843,5.491,2.24,1.646,7.812-2.1,0.135,6.456,0.357,0.567,9.472,5.653,10.6-1.727-2.665-5.957,9.141-.04,1.767,3.481-0.357,12.48-0.634,9.9-6.287,14.2,8.021,1.686,6.577,4.918-1.646,10.065,2.084,4.493-6.813,11.293L597.4,657.08l0.526,0.277-7.1,14.362-6.152,8.777-3.912,22.08,0.964,8.351-6.638,11.279,0.722,2.624,3.1,5.93,9.734,2.186,3.994-5.781,6.888-4.533,2.334-4.587,6.55,15.374,11,1.241,2.806-14.227,4.2-3.913,10.881-1.464,6.577-8.405,9.869,12.844,4.229-3.427,4.493-15.651,7.852-2.159,3.4-4.257-9.606-6.942,7.164-8.655,5.6-15.718,7.245-4.021,2.422-4.938,2.847-.385,10.55-13.465,15.246-13.121,0.142-2.874,6.577-8.5,7.67-2.557Z" transform="translate(-33.546 -7.87)" fill="#ff8080" stroke="#000" stroke-width="2"/><path d="M852.717,437.991l5.707-.688,5.93-6.233-8.5-21.3L838.975,394.1l-9.121-17.762-5.059-2.665-10.753,3.758-4.628,1.329-0.135-8.392L806.844,369l-7.879.62-7.933-.634-4.614,2.671-2.961,2.395-23.766-13.337,2.058-3.845L760.406,346.1l-10.793-3.481-6.179-9.458-4.823-2.941-31.646,12.1-0.263.135,5.666,9.444L709.7,368.643l-4.271,7.245-4.979,2.638,0.25,1.9-1.383,11.306,2.226,5.032,9.829-2.395L704.138,409.7l-9.417,5.019-1.976-1.012-0.222-8.655-6.5-5.734-11.306-2.489-3.016-4.9L660.8,388.395l-0.385.04-13.337-4.243-8.6-10.355-7.974-2.489-10.935,1.545-1.545,2.348-1.754,1.174-10.132-2.172-4.479-12.372,2.489-15.637-9.62-9.431L591.2,325.273l-8.918,10.7-7.1.142-8.392,4.257-2.375-9.984-11.664-5.1-4.061-6.1-6.375-1.41-1.882-9.869-11.212-10.645-4.3-.87-0.674,2.1-14.916-1.95-5.377,9.977,5.694,13.006-2.145.357-7.285,3.494L484.646,341.3l-2.86,18.079,1.369,2.28,5.059-1.579,0.2-.142,25.162-1.464-0.169.62-2.779,11.833,11.9,17.971,8.088-1.423,5.983,5.154,5.876-5.518,4.783,2.213,22.356-7.67,3.218,23.719-2.975,4.506-6.125,12.237,0.095,13.519-1.173,5.3,6.982,7.92,5.417-.776,16.744,9.249-4.081,19.422,1.215,2.584-6.375,7.468-1.133-.735-9.37,12.966-6.442,4.769-1.686,7.893-5.39,8.628-9.856,3.265,8.851,11.131,2.726,5.822,10.368,16.757,1.714-.169,22.41,11.2,3.515-3.993,7.724-20.818,2.671-3.8,0.135-7.839,10.328-.344-2.61-7.495,1.781-10.186,6.841-10.726L633.6,496.7l13.148,1.7,2.388,4.23,2.145-3.016,3.528-7.933,4.863-2.806,2.988,13.532,4.628-.25,2.307-4.081,2.071,5.019,9.249,5.93,11.1,12.224-4.243,12.689-1.592,5.2-2.53,1L673.2,537.412,671.91,535l0.539,7.2-1.923,1.828-6.706-4.149-2.071,1.659-0.182,2.671,4.371,2.955L664.36,551.9l-2.82,2.557-9.221,11-1.106.182-7.63-2.671-0.371,7.616,5.046,9.66,2.293,4.783,4.8,1.134,2.584,4.371-9.039,6.915-5.68-.54-1.855,3.137,6.8,10.793,2.665,9.417,4.863-1.288,22.74,14.585,5.073-2.017-1.4,10.895,2.847,7.549-2.334,1.464,4.007,2.361,2.847-.385,10.55-13.465,15.246-13.121,0.155-2.874,6.564-8.5,7.67-2.557-0.594-5.39,2.806-4.439,16.218-9.262,2.084-1.781L748.9,578.515l7.468-16.379,14.767-7.38,7.272-18.275,7.657,1.565,4.891,6.335,7.933-1.3,8.527,7.468,2.834-.2,6.442-14.807,10.632-3.582L835.2,520.5l-4.938-21.344,6.638-8.851-0.674-2.752,6.665-3.953,2.82-7.077,15.3-4.614,1.923-12.318,2.084-5.336,1.909-10.315-10.382-2.422Z" transform="translate(-33.546 -7.87)" fill="#ff8080" stroke="#000" stroke-width="2"/><path d="M334.857,85.873L328.4,90.035l-8.844,5.707-9.107,7.009L296.6,100.633l-5.269-.418-2.1-7.454-5.862-10.173-5.241-1.95L272.342,74.5l-7.826-1.106L251.355,67.6l-5.087,1.828,0.708,8.21-2.624.9-4.588-12.386-5.93,21.567-2.321,1.565-15.84-5.444,0.3,8.034,5.586,12.885,13.876,0.3-2.1,11.03,2.665,10.821,18.443,1.551,4.047,3.427,7.218,11.158,7.407,3.744-3.016,12.757L266.032,175.7,264.5,195.015l3.231,1.754,1.066,1.822,3.386,4.324,5.471,0.027,2.435,4.952,4.243-.209L284.7,209.8l4.358,3.542,12.79,1.909,25.9,3.319,2.348,5.181-6.719,9.154,3.636,2.172,7.313,6.058,3.872,9.013,14.781-.317,3.744,9.067,6.5,7.117,12.858-.87,7.974-11.9,22.6,3.744,4.924-11.961-1.268-5.073L393.6,237.6l4.2-8.9,19.671,2.962,5.241-2.267-10.989-8.723-0.87-5.612,3.845-13.687,15.165,3.926,8.048,2.9-0.121,2.725-5.6,4.837,1.477,10.618L446.81,224.3l4.9,2.186,5.363-1.134,7.023-12.069,3.528-2.584,12.4,16.258,18.025,4.85,9.039-6.3,9.444,5.68,4.8,2.307,9.013-6,4.034-7.009-6-8.831-1.45-13.478-13.242-9.869,0.317-2.7-6.9-4.23-6.915,1.228-2.847-8.419-2.887-4.837,1.228-8.325,5.255,0.985,5.269,9.66,2.806-.223,2.6-4.756-2.9-4.729-7.866-3-2.172-7.63-4.075-3.2L484.124,146.6l-5.6-12.912-11.1-10.841-8.115-7.313L445.786,94.965l-7.644-6.483-4.56-7.3-9.525-9.923-1.012-11.1,1.133-2.57,7.684-2.186-0.277-2.793-1.133-2.085-9.039-7.259L420.5,37.578l-6.854-7.272-15.111-10.53L385.3,8.955l-8.035,1.868-3.069,5.323-2.9,7.63-9.4,5.363-6.665,8.351-6.813,27.935Z" transform="translate(-33.546 -7.87)" fill="#06c" stroke="#000" stroke-width="2"/><path d="M212.088,471.06l-11.387.722-7.036-.965L187.35,452.11l-11.185-1.437-6.827,4.918-11.751,7-5.491.648-11.461,4.783-14.4,10.227-13.91,10.173-11.569-.661,0.121-8.514-28.448,6.665-4.992,1.977-10.867-9.4L45.485,467.342l-0.789-10.5,0.121-1.592,1.315-4.877,2.5,0.4,3.468-3.494-0.688-5.019-9.5-9.289,0.594-4.715,16.176-1.369,11.448-14.888,2.651-9.5,1.025-3.758,5.89,1.579,1.16,2.941,13.519,4.385,17.007-1.477,4.823-2.267,2.2-4.756,5.005-.263,5.558,0.182,3.582-4.176,8.1-1.909,5.471,1.2-4.7-8.486L138.8,374.052l-3.65-11.751,1.187-2.638,11.117-5.3,10.645,0.209,2.226,0.209,16.723,3.44L203.136,362l-0.674-16.352,4.358-9.8-3.11-4.756,8.156-1.437L207,317.123l0.526-5.5,4.385-2.941-0.068-2.766-4.007-3.832,6.112-2.435,10.436-8.378,10.5-3.305-1.437,4.493,7.522,11.347,7.063,4.938,11.475-5.721-3.333-7.313,2.213-4.648,4.9-2.28-2.874-7.353,7.826,0.155,4.533-2.611,4.358,2.584,5.032-.344-0.344,2.671,8.021,0.142,5.491,0.411,4.453,3.016-0.4,5.39,5.39,1,11.488-7.825,3.69-7.157,1.99,1.882,13.661-.911-0.054.411,4.337,10-3.029,4.371,4.311,5.032,8.014,3.582-4.742,2.833,0.446,10.7-3.043,4.641,16.3,1.316,4.6-3.15,7.063,4.877,2.752,5.087,14.058-16.157,8.115-4.81,17.324,9.708,2.158,5.309,8.325-7.657,2.766-7.744,11.96,0.553,13.08,1,5.9-5.269,7.893-.7,0.142,0.081,8.2-10.436,0.594-5.363,3.515,4.3,7.933,2.462,5.795,5.336,0.095-2.584,10.315,1.134,8.553-2.2-5.377,9.977,5.68,13.006-2.145.357-7.285,3.508-15.563,17.9-2.874,18.093,1.369,2.28,5.059-1.592,0.2-.135,25.176-1.477-0.182.62-2.779,11.846-9.789,5.572-7.259-2.739-4.56,2.651-0.526,5.518-5.3,5.68,5.782,5.323L488.5,406.446l-0.661.911-3.8,3.784-13.283,2.334-2.6,7.6-3.94,3.791,1.714,5.228-4.952,1.288-6.044-14.375-16.588,13.438-1.808,1.288-0.357.54-16.352-.4-6.968,32.994,2.253-.014,1.868,4.075,1.868,5.1-1.093,5.323,5.019,6.26,10.564,0.486,1.012,1.066-4.9,10.685-7.7-.762-3.528,6.537-20.042-7.933-2.28,1.531-3.69.816-7.771.674-0.661.978-11.374,4.824-8.891,19.489-3.494,4.081-2.543,13.424-0.095.661-12.79,2.988-3.386,9.633-1.923-1.093-10.436,4.034-4.992,6.624-1.241-5.032-10.409-3.8-6.577,5.241-5.417.749-2.806-7.683L287.3,541.378l-4.324-12.79-8.035,1.369-5.417-7.812-6.888,9.013-10.821-.142,4.837-31.16,4.675-10.4-1.963-1.518-8.236.776-2.671,4.918-4.837,2.82L232.5,497.745,225,501.354l-1.066-1.147-3.252-10.079-5.032-14.693Z" transform="translate(-33.546 -7.87)" fill="#06c" stroke="#000" stroke-width="2"/><path d="M241.008,303.794l-7.535-11.347,1.45-4.493-10.5,3.319-10.436,8.365-6.112,2.435,4.007,3.832,0.068,2.779-4.385,2.928-0.526,5.5,4.863,12.527-8.156,1.437,3.11,4.756-4.358,9.8,0.674,16.352-26.086-3.771L160.36,354.78l-2.226-.209-10.645-.209-11.117,5.3-1.2,2.638,3.65,11.751,2.638,11.637,4.7,8.486-5.471-1.2-8.1,1.909-3.582,4.176-5.558-.169-5.005.25-2.2,4.769-4.823,2.267-17.007,1.464L80.88,403.248l-1.147-2.941-5.89-1.579-1.025,3.758-2.651,9.5L58.72,426.873l-16.176,1.369L43.6,417.422,41.288,406.75l-5.768-7.825-0.938-10.659,9.647-9.95-0.013-4.824-2.53-6.982-0.344-3.252,1.147-3.832,6.8-1.12,4.081,2.361,2.044-.688,1.052-2.239-0.749-9.7L66.681,340.8l1.241-.688,7.063-3.98,6.247-8.777,9.734-4.641,2.253-2.665L102.36,309.4l6.011-8.831,0.553-2.671-3.218-4.243L88.139,286.51l-9.094-11.239L76.361,269.7l-4.337-5.747-15.65-7.157-2.307-5.181,19.314-1.9,10.159,1.619,11.543,6.4,5.127,2.793,1.268-11.724,12.1-6.348,1.08-2.638,2.834,0.169,2.1,0.027,9.707-4.216,10.78,0.789,3.238-1.329,22.255-4.574,15.36,7.906,0.3-.371,1.646-8.378-7.05-3.791,7.67-3.191,17.958,6.942,5.457-6.024-4.075-7.313,0.385-8.21,2.388-5.059,9.58-5.68-2.307-5.491L227.491,178.8l5.531-.843,4.77,5.558-4.271,6.375,0.9,5.336-8.352,6.786-1.714,5.059,0.081,5.761,3.319,4.466-0.924,11.36-3.515,10.133,5.255-6.51,2.779,0.7,18.882,17.431-2.489,8.014,2.321-1.066,6.9,3.137,2.031,4.864L253.232,270l5.087,9.026L260.5,281.4l2.874,7.34-4.891,2.28-2.213,4.661L259.594,303,248.118,308.7Z" transform="translate(-33.546 -7.87)" fill="#ff8080" stroke="#000" stroke-width="2"/><path d="M357.166,685.547l-1.012-4.439-7.1-2.462-1.025,2.395-7.535.87-1.147,2.361-3.278,2.031-1.518-1.383-0.661-2.624L323.2,681.217l-1.173-5.073L314.7,672.73l-2.422-4.918-1.909-2.186-6.139-2.307-18.841-.978-5.531,12.278-4.756,2.651-9.444-8.7-4.493,2.847-2.172-1.545,2.53-4.351,9.815-2.253,3.912-12.7,6.4-5.572L289,632.943l0.8-6.577,0.776-10.355-3.265-7.218,3.9-3.582-0.789-7.893L289.9,591.8l-7.259-8.567L279.2,572.52l-2.409-4.756,1.052-8.014,6.112-5.323,13.559-.594,2.792,7.683,5.417-.749,6.591-5.241,10.4,3.8,1.255,5.032,4.992-6.624L339.4,553.7l1.923,1.093,3.386-9.633,12.845-2.975,0.095-.661L360.2,528.1l3.494-4.081,8.878-19.5,11.387-4.824,0.661-.978,7.771-.661,3.677-.816,2.293-1.531,20.029,7.92,3.528-6.537,7.71,0.776,4.891-10.685-1.012-1.066-10.564-.5-5.019-6.26,1.106-5.309-1.868-5.1-1.882-4.075-2.253.014L420,431.894l16.352,0.385,0.357-.54,1.808-1.275L455.1,417.012l6.058,14.375,4.938-1.275-1.714-5.228,3.94-3.791,2.6-7.616,13.3-2.321,3.791-3.791,0.661-.9,0.412-13.573-5.768-5.336,5.282-5.68,0.526-5.5,4.574-2.665,7.245,2.739,9.789-5.572,11.913,17.971,8.088-1.423,5.983,5.154,5.876-5.518,4.783,2.2,22.343-7.657,3.231,23.705-2.988,4.52-6.125,12.237,0.108,13.519-1.173,5.3,6.982,7.92,5.417-.789,16.744,9.262-4.081,19.408,1.215,2.6-6.375,7.468-1.147-.735-9.37,12.966-6.442,4.769-1.686,7.893-5.39,8.614-9.856,3.279-0.938-.445-9.789-12.966-3.1-18.842L528.1,487.02l-4.641,9.734,1.093,4.574-14.045,16.3-0.526,10.807,2.927,4.641-4.466,3.373L494.4,539.281l-4.81,10.2-4.715,22.309L473.3,597.418l-0.095.459L465.355,616.1l-0.634,33.595,8.587,23.9-8.021-1.288-4.479-7.394-7.259-4.56-5.6-.432-3.7,4.27L438.7,672.21l-6.8,12.109-7.494,3.07-6.072,5.781-8.21.776-7.191-8.183-0.357,4.965,7.144,8.614-7.549,1.909-8.2-6.469-10.011-2.435-4.56-2.1-2.172-10.025-4.149,1.551-7.036,3.9L365.7,688.36Z" transform="translate(-33.546 -7.87)" fill="#00c000" stroke="#000" stroke-width="2"/><path d="M341.906,321.441l3.043-4.641L344.5,306.1l4.742-2.833-8.014-3.582-4.3-5.019,3.016-4.385-4.337-9.984,0.054-.418-13.661.911-1.99-1.882-3.69,7.157-11.488,7.825-5.39-1,0.412-5.39-4.466-3.016-5.491-.411-8.021-.142,0.344-2.671-5.032.344-4.351-2.584-4.546,2.611-7.826-.155-2.186-2.361-5.087-9.026,5.748-4.641-2.017-4.864-6.915-3.15-2.321,1.079,2.5-8.021-18.882-17.431-2.792-.688-5.241,6.5,3.515-10.133,0.911-11.36-3.305-4.466-0.095-5.747,1.727-5.073,8.352-6.786-0.9-5.336,4.271-6.375-4.783-5.545L243.237,169l-1.592-8.277,15.536-5.586,5.046,2.321,5.059-1.822,2.874,3.913L266.086,175.7l-1.545,19.313,3.231,1.754,1.066,1.822,3.386,4.324,5.471,0.027,2.449,4.952,4.243-.209,0.357,2.118,4.371,3.542,12.79,1.909,25.891,3.319,2.348,5.181-6.719,9.154,3.65,2.159,7.313,6.072,3.859,9.013,14.781-.317,3.744,9.067,6.51,7.117,12.845-.884,7.987-11.887,22.586,3.744,4.924-11.961-1.255-5.073L393.645,237.6l4.216-8.9,19.657,2.962,5.241-2.267-10.989-8.723-0.87-5.612,3.859-13.7,15.151,3.926,8.048,2.914-0.121,2.725-5.586,4.837,1.464,10.6L446.85,224.3l4.9,2.186,5.363-1.134,7.023-12.069,3.528-2.584,12.412,16.244,18.012,4.864,9.039-6.3,9.444,5.68,4.8,2.307,9.013-6,4.047-7.009,5.073,9.964,0.182,8.1,7.771,11.279,4.729,5.471,0.581,4.864,13.9,12.844,0.04,5.458,2.267,1.551-1.5,4.756,4.533,2.071,0.357,2.489-4.425-1.7-1.147,5.586,3.305,4.628,8.021,2.543,0.081,4.965,2.543,1.518,3.069,1.855,7.407,16.534-8.918,10.7-7.1.142-8.392,4.243-2.375-9.977-11.664-5.113-4.061-6.085-6.361-1.41-1.9-9.883-11.212-10.632-4.3-.884-0.674,2.1-14.916-1.936-8.54,2.186L490.5,297.588l-0.095,2.6-5.795-5.336-7.933-2.462-3.515-4.3-0.607,5.35-8.2,10.436-0.135-.081-7.893.7-5.9,5.269-13.094-1-11.947-.553-2.766,7.758-8.325,7.643-2.158-5.309-17.324-9.7-8.115,4.81-14.058,16.143-2.766-5.087-7.05-4.864-4.6,3.15Z" transform="translate(-33.546 -7.87)" fill="#ff8080" stroke="#000" stroke-width="2"/><text transform="translate(590.782 541.617)" font-size="59.486" font-family="DejaVu Sans" font-weight="700">1</text><text transform="translate(563.688 687.109)" font-size="95.524" font-family="DejaVu Sans" font-weight="700">2</text><text transform="translate(513.227 555.089)" font-size="29.318" font-family="DejaVu Sans" font-weight="700">3</text><text transform="translate(565.924 857.308)" font-size="143.174" font-family="DejaVu Sans" font-weight="700">4</text><text transform="translate(660.838 504.841)" font-size="143.174" font-family="DejaVu Sans" font-weight="700">5</text><text transform="translate(327.225 619.447)" font-size="143.174" font-family="DejaVu Sans" font-weight="700">9</text><text transform="translate(229.831 457.675)" font-size="143.174" font-family="DejaVu Sans" font-weight="700">7</text><text transform="translate(96.092 311.128)" font-size="92.479" font-family="DejaVu Sans" font-weight="700">8</text><text transform="translate(285.473 184.21)" font-size="143.174" font-family="DejaVu Sans" font-weight="700">6</text><text transform="translate(392.924 278.841)" font-size="71.433" font-family="DejaVu Sans" font-weight="700">10</text></svg>