<svg xmlns="http://www.w3.org/2000/svg" width="979.237" height="676.685" viewBox="0 0 979.237 676.685"><title>Députés sortants de la Haute-Loire en 2017</title><path d="M669.849,385.7l-0.8,3.342-7.871,5.357-1.982,16.619-2.8-.049-1.36-5.34-8.428-22.14-6.651-.172-5.1-15.259-5.1-4.079-12.016,5.357-9.329-3.727-6.176,2.6-2.957,9.616-11.213,7.281,0.655,12.45,11.483,6.029,0.975,13.547,3.571,5.857-1.949,9.231,9.4,2.031,3.186,5.521-11.746,5.439-0.131,6.479-6.38.524-8.641,14.367-6.209,1.089-3.931-8.494-6.258-.753-12.7,8.944-6.127-1.057-9.648,3.186-0.975,3.26-0.893,13.531,5.07,19.052,2.621,8.813,5.6-.131-0.016,6.143-19.2,14.448,0.573,9.837,9.665-.147,1.523,3.006-0.86,10-4.349,9.026,5.185,3.391,27.5-2.146,12.237-6.242,11.344,7.388,0.819,3.342-5.021,4.636-1.859,6.642,2,9.648-4.9,16.062,11.131,5.324-0.418,9.231,4.9,4.21,12.385-3.039,3.1-8.944,11.729,6.814,8.461,18.716-2.3,9.518-4.243,5-6.242,2.081,0.671,3.17-1.073,2.67-11.9.639-7.437,5.635-5.152-3.612-13.056-.1,1.7,5.824-2.7,7.9-4.226-.86-5.324.237-2.883-.876-2.22,2.99-2.638,3.628,0.188,0.925-5.521,6.274-1.54,1.245-0.893,5.635,1.712,2.3-1.474,5.537,1.106,3.342,2.515,2.973-2.466,2.588-1.245,1.728-3.587,8.83-0.352,4.636-4.783,4.3,5.439-.483,6.348,1.089,7.1,14.235,11.41,6.16-3.121,3.186,6.667,7,3.776,9.379-4.947,8.69,1.876,9.739-0.221,4.194L583.609,808.9l5.324,10.959-7.634,5.455-0.508,6.544,3.874,5.291-8.4,4.849,9.518,1.392,2.466,12.417,2.769,8.961,7.437,5.57,12.155-2.334,7.47,5.824,15.489,4.161,6.38,7.437L649.586,884l9.215,2.6,3.587-5.021,2.466-14.907,7.085-6.479,12.475,0.688,8.69,4.284,5.742-2.081,7.2-.5,14.3-7.47,6.626-.172,13.179,3.981L753.911,859l6.626-7.822,9.28-4.5,3.358-21.435,5.136-3.727-1.138-2.031,10.3-13.2,8.158-5.857,5.07-28.839,7.92-4.849,14.874,7.806,15.882-6.716,10.32-.1,4.816-4.177,9.2-2.081-0.8-6.315-4.112-6.209-5.955-2.834-5.324-8.428,5.971-22.36,12.81-9.739,23.295,2.236,3.325-5.6,15.841-2.8,1.794-6.528-2.032-9.919-5.905-3.1-6.643.606-9.043-9.714-0.942-9.681,5.971-2.2,2.556-8.846,2.925-1.245-2.515-11.885,8.527-4.751,9.133,3.26,8.732-4.112,1.761-9.616L904.2,608.786l2.785-16.078,14.817,4.816,9.281-1.327,12.786,10.3-1.171,12.72,5.979,7.953,3.89-2.212-3.309-5.553,1.171-3.006,12.786,1.458-1.008-6.38-6.561-7.052-1.982-9.55,3.17-19.535,6.995-6.814,1.548-6.413,8.478-4.48,5.57-15.374L976.9,527.222l3.056-5.185,3.292-.86,1.982-6.544-4.013-12.876-2.7-1.458-15.563-15.358-7.953-6.012-7.937-15.005-10.066-.688-19.8,11.664-2.769,5.971-8.56-4.316-2.589,2.031-14.637-17.61,6.561-7.585,1.171-6.446,4.48-4.161-0.991-5.152-9.73-2.867L875.74,420.6l22.091-18.831,3.218,0.368L887.4,379.012l-8.338-5.644-19.658-4.783-0.319,6.5-2.719,1.581-5.693-1.2-4.1,4.947-12.622-.688L833.386,364.7l-9.485,3.2-8.928-13.474-3.342.27-9.043-4.685-17.839,7.437-14-9.387-13.056,2.769-12.286,4.751,8.559,11.025-1.425,6.716-23.884-2.146L720.8,377.71l-0.893,6.929-6.462-4.734-12.785,4.013-2.547,13.531-3.981,5.758L688.36,399.7l-5.824-12.491-6.094-3.44Z" transform="translate(-7.033 -311.042)" fill="#06c" stroke="#000" stroke-width="2"/><path d="M541.754,486.287l0.876-13.531,0.975-3.26,9.665-3.186,6.11,1.057,12.7-8.944,6.258,0.753,3.948,8.494,6.192-1.106,8.641-14.35,6.38-.524,0.147-6.479,11.729-5.439-3.17-5.521-9.4-2.031,1.933-9.231-3.555-5.857-0.991-13.547-11.483-6.029-9.084,8.477-2.433-5.406-3.743-18.208-15.914,1.646-15.153-6.094-5.267-8.191-5.5,3.505-0.7-16.652-9.4,2.752-3.374-5.742-8.338-5.472-10.14,6.8L496.7,367.832l1.425,13.146-6.242,6.847-2.67,2.064-12.2-6.364-2.048,2.064-9.632.852-6.995-6.332L449,378.636l-8.494.188-5.373-1.876,3.661-8.862-6.348-1.679-7.052-6.733-2.064-2.482-6.364.7-3.677,5.234-2.9,13.474-12.417,5L394.854,391l-9.4,9.452-6.651.721L359.986,382.42l-4.128-11.09,2.236-5.553-4.849-8.813-8.224-19.354-3.358,5.906-6.029,2.449-5.34-4.112-18.331-4.062-10.386-8.83-3.931-16.48-15.194,7.3L271.4,332.384l-2.048,6.348-3.292.835-19.789-1.31-5.021,4.431-9.518-6.061-5.938,2.99-6.094-2.9-6.446,2.031-8.8-10.238L196.5,317.378l-4.972,3.055-5.537-1.728,0.237,6.561L178.6,342.671l-7.683-14.129-7.134-6.929-6.348-1.81-2.851,1.859L151.8,335.325l-2.941,4.955L129.82,349.06l-9.264,1.2-7.453-5.037-9.313,12.352-2.9,12.573-1.933-.508L95.9,372.42l-5.054-3.727-14.481,7.5-4.316,5.2,2.719,5.775-20.8,1.171-8.559-3.325-5.676,3.121-19-2.99,5.455,3.981,1.458,23.032-9.935-.991L12.5,414.964l6.291,8.043,8.9,4.669-4.415,9.1L16.787,438.1l-8.674,4.1,0.8,6.593,10.124-1.073,7.724,6.315,13.5-1.36,9.485-1.7,10.746-7.5,0.483,6.258,5.439,7.74L63.311,470l14.145-7.65,0.418-3.219,16.5-1.614,8.273,5.676,0.606,3.276,3.342,0.2,1.2,6.7L103.74,492.71l6.978,6.995,3.628,19.952,6.225,2.736,17.594,6.061-0.909,16.906-5.619,8.256L130.5,563.723l4.7,19.436,7.9,0.147,1.581,2.269-3.874,8.862,8.355,21.919,8.912-3.89,7.838,5.807,1.31,0.336,11.393,6.864,13.326-.237,1.663,6.5,6.667,0.639L177.4,641.6l-15.292-6.446-3.923-5.39-11.885,4,1.884,5.955,0.942,5.873,14.588,4.6,2.146,5.2-8.527,21.82,2.466,13.244-3.391,9.4,6.274,11.918,2.752,1.843,11.778-5.709,6.176,2.2-7.036,15.038,12.639-2.719,6.667,10.459,9.485-2.547,2.13,2.556L201.53,744.73l-12.081,4.833,1.523,9.984,9.248,3.628,7.92-4.243,1.171,16.381,8.109,6.078,11.967-3.907L236.07,789.3l2.015,15.071-3.727,11.533,6.192,9.2,0.016,10.255L252,852.815l4.243,25.563,10.992,12.671-0.991,9.9,9.648,9.116,5.725,12.032,6.078,3.154,2.8-1.966,1.966-6.258,9.42-9.215,23.483-3.743,9.919,2.334,9.362-8.355,9.518,7.92,5.054-3.235-1.966-6.528,7.634-22.254-1.949-16.783,9.231-3.489,4.144,4.448,7.822-4.415,4.931,1.949,8.174,0.172,11.041,6.511,4.6,12.237,4.783,3.858-2.719,12.606-8.576,5.07,6.242,7.216,19.707-2.851,4.955-4.529,15.6,4.079,6.5-1.614,1.278-6.242,5.906,2.269L471.5,909l6.192,6.782,2.973,15.391,2.113-2.736,3.342,0.852,17.676,15.522,6.716,18.56,2.531,1.663,6.078-6.561,9.681-2.654,5.979,3.088-0.54,6.38-7.757,10.763,6.61,7.355,16.095,3.2,6.733-11.1,2.99-1.564,12.139,5.1,2.941-1.663,1.392-9.583,9.379-3.407,7.838-3.023-0.4-1.327L587.46,955.4l0.352-3.072,13.089-18.88,5.324-22.491,0.737-3.26,12.286-5.308,2.883,9.4,10.14,8.338,3.661-4.6-3.964-9.4,2.433-5.635,3.235,0.352,6.291,7.634,7.3-10.844L659.7,901.8l5.1-4.177-5.955-11.041-9.215-2.621L640,885.39l-6.38-7.437-15.489-4.161-7.47-5.824L598.51,870.3l-7.437-5.57-2.769-8.961-2.466-12.417-9.518-1.392,8.4-4.849-3.874-5.291,0.508-6.544,7.634-5.455-5.324-10.959,6.307-10.173,0.221-4.194-1.859-9.739,4.931-8.674-3.776-9.387-6.651-7,3.1-3.17-11.41-6.176-7.1-14.219-6.348-1.106-5.439.483,4.783-4.3,0.352-4.636,3.587-8.83,2.556-3.137,1.155-1.188-2.515-2.973-1.106-3.342,1.474-5.537-1.712-2.3,0.909-5.635,1.523-1.245,5.521-6.291-0.188-.909,4.865-6.642,2.883,0.876,5.324-.237,4.226,0.86,2.7-7.9-1.7-5.824,13.056,0.114,5.152,3.6,7.453-5.635,11.885-.639,1.089-2.67-0.688-3.17,6.242-2.081,4.243-5,2.3-9.518-8.461-18.716-11.729-6.814-3.1,8.944-12.368,3.039-4.914-4.21,0.418-9.231-11.131-5.324,4.9-16.062-2-9.648,1.859-6.642L599.509,572l-0.819-3.342-11.344-7.388-12.237,6.258-27.5,2.13-5.185-3.391,4.349-9.01,0.86-10.017-1.523-2.99-9.665.131-0.573-9.837,19.2-14.448,0.016-6.143-5.6.131-2.621-8.813Z" transform="translate(-7.033 -311.042)" fill="#06c" stroke="#000" stroke-width="2"/><text transform="translate(292.319 346.167)" font-size="173.837" font-family="DejaVu Sans" font-weight="700">1</text><text transform="translate(705.181 318.399)" font-size="173.837" font-family="DejaVu Sans" font-weight="700">2</text></svg>