<svg xmlns="http://www.w3.org/2000/svg" width="953.285" height="867.131" viewBox="0 0 953.285 867.131"><title>Députés sortants de l&amp;apos;Ain en 2017</title><path d="M409.982,420.351l-9.714-7.674,1.5-9.246-15.745.124-0.031,3-7.978,3.347-0.576,1.992-3.191,3.3-2.156,3.876-4.755-.109-2.265-5.549L357.4,410.9l-3.129-3.65-3.207,3.728,1.1,11.885L344.3,426.18l-5.059-2.841-10.99-11.752-5.6,3.572-4.164,9.059-9.3-2.218-12.009-14.757-8.453,3.619-9.059-2.109-5.028,10.352-14.352-13.091-6.507-11.247-0.475-3.129,5.518-7.222,18.578-.926,1.082-2.965-2.724-14.437-16.188-2.218-12.8,2.109-8.561-5-5.043-8.39-3-5.58,1.751-6.079,7.542-8.919,0.778-9.651-17.5-7.479-2.187-9.184,11.853-5.2,5.962-12.772-11.145-14.064-8.725-8.6-14.562-3.238-4.577,6.538-11.448-5.6-7.674-10.476-9.472,1.736-1.6-5-22.555-11.2,1.082-13.512-6.429-4.086,0.319-13.877,1.883-9.667,0.179-10.593,0.716-3.845,1.036-2.709,13.223-16.111,0.063-17.24v-1.214l0.483-6.6,7.752-10.577,1.751-4.639,2.631-8.04,1.323-1.72,7.768,0.483-0.366,6.336,4.577,2.887,5.993-2.537,5.106-7.176,6.444-.942,17.3,5.292,2.794-1.308,2.421,10.2,26.8,15.535L262.5,140.69l15.729-11.215,11.737,4.2,13.94-7.978,1.549-6.125,3.082-.747,15.293,3.7,1.113-12.437,7.51,6,15.9,3.464,1.549,2.9-2.124,2.156,6.047,10.048-1.853,5.681,4.195,4.452,1.354,12.663,6.366,0.016,7.643,10.141,7.768-1.5,5.471,7.192,11.511,3.16,24.4,1.751,7.386,17.1-7.962,5.121-1.229,6.2,2.981,1.082-8.935.483,0.763,3.1,6.079,1.946,16.508,10.11,9.27,0.3L458.1,233.923l7.129,6.109-8.468,8.865-1.066,2.934,7.892,4.973,0.241,6.141-1.517,5.946,6.554,7.051,11.675,5.355L481,287.532l1.549,16.4,0.015,0.848,4.07,5.425,4.436-32.346,4.367-4.654,9,31.241,11.48-2.755,7.083-5.308,6.686,7.814L523.874,325.4l-4.974,2.584-0.88,13.107,9.012,9.23,2.693,1.9,16.041-2.841,1.992-1.93,5.791,5.612,0.334,6.219-5.962,11.9-5.806,3.129-16.554,28.47-3.012,1.432L520,402.09l-4.3-3.541L513.2,400.1l0.592,6.172,8.483,4.2,1.37,12.679-3.728,4.756-3.907,4.39,4.654,3.907-10.063,24.127-10.841,12.219,2.919,13.06-1.782,2.841-6.686.094-5.9-1.354-2.234,5.043-2.74.444-4.654,19.138,2.46,9.394-1.417,2.981-9.012,3.417-2.008,6.25-4.53,15.371,1.463,5.565-2.421,4.771-5.167,3.6-9.456-.545-0.763,9.168-8.327-4.086-2.779,1.5-6.67-3.572-8.546,15.6-0.973,13.208-2.9,9.23-4.577,4.724-5.518,3.191-2.475,6.25L397.7,607.282l-1.4-16.173-11.083-6.125,4.179-11.962-1.276-3.012-1.782-6.063-2.763-4.74-6.172,6.366-13.652,6.935-9.332-1.168-5.581-13.908L339.58,555.1l-7.573-10.639,1.113-16.445,3.113,0.257,2.358-6.047,5.152-3.845,27.272-8.694,2.919-11.916-2.872-15.613,2.234-6.172-2.981-9.2,7.752-3.494,1.883-5.355,6.351-1.5,12.391,4.179,8.678-2.887,11.294,1.486,3.1-7.371-2.965-4.973,1.914-2.187-4.242-3.588-2.218-8.242Z" transform="translate(-35.955 -108.135)" fill="#06c" stroke="#000" stroke-width="2"/><path d="M420.186,659.75l-0.544-8.164-5.152,3.284-6.281-.156L389.1,672.623l-7.923-3,1.946-5.822L379.6,648.939l-2.779-5.074-5.744-1.354-5.837,6.094-2.07,5.977-9.153,3.043-6.522-6.974-9.41-.031-4.195-8.678-9.231-1.674-5.44-11.566-5.681-1.308L307.5,633.63l-9.27.973-35.07,2.615-3.3,7.5,1.448,5.518-6-1.642-2.265,2.156-10.624,22.618-1.977-2.374-17.59-3.409-6.842,6.6-19.107-10.3-6.974-9.682-2.724-1.884-9.807,1.2L169.41,658.9l-6.654-3.954,4.467-8.437-1.806-9.3,1.977-12.811-5.837-2.249-15.426,2.358-9.682-5.7-7.6,5.744-21.66,6.382-0.031-16.08L104.07,602.3l-6.351-1.152-9.106-2.887-4.577.335-6.429-.638-19.761,1.611-8.678,2.265-0.334.926,0.716,6.094,3.347,21.5-2.95,8.865-1.129,1.992L36.981,652.325l0.529,8.951,8.647,3.7L57.177,667.3l8.312-3.907,2.841,1.2,7.285,13.589L88.037,680.8,89.967,691.3,85.6,702.416l0.716,1.658,29.077-15.729,2.631,5.565,11.962,3.51,0.592,9.3,5.7-3.448,2.07,16.329,16.679,5.6-5.6,15.691,7,6.109,6.584,17.5L161.1,786.442l3.7,5.339,11.947-4.756,6.382,0.226,8.056-2.008,4.406,3.331,6.615,1.463,8.3-1.852,5.487-2.2,10.243,4.289,8.149-3.767,5.822,1.168,7.946-3.65,5.518,2.141,22.773-1.806,5.627-1.463,5.293,14.29,3.028-1.035-0.817-9.472,5.869-2.109,15.185,6.686,9.029,1.292,6.67,7.067,6.032,2.249,6.779,11.737,2.428,8.6,6.079,0.5,15.978,2.428,10.492-8.087,10.211-6.585,7.449-4.8,15.706-23.544,7.846-32.229,7.705-9.635,10.826-6.187,3.362-8.8,3.541-6.141,9.27-2.141,15.278,12.468,17.434,12.149,7.907,8.39,1.051,6.585,10.429,8.359,1.307,2.405,9.775,0.7,6.2-7.542,12.421-1.385-6.2-18.625,2.522-5.931-1.4-2.981,4.67-.381L525.1,724.3l-8.056-4.786-2.444,1.946-3.665-4.958-21.691-12.188-9.487-7.222-6-1.884L468.5,683.559l-7.8-9.168L457.78,666l-3.012-.576-13.161-7.62-2.763-1.72-5.6,3.331Z" transform="translate(-35.955 -108.135)" fill="#06c" stroke="#000" stroke-width="2"/><path d="M769.721,507.615l-5.674-2.965-5.9,2.6,0.622,12.437-6.795,10.943-2.2,16.749,3.665,6.25-4.374,9.986,1.549,10.367,1.961,8.709-4.53,7.674,3.378,7.238-0.241,14.064,1.4,6.413L766.964,632l-0.817,9.822,1.339,8.865-2.141,8.725-4.195,4.117,3.985,0.412-6,7.8,4.786,15.488-2.039,9.775L754.5,722.193l-5.043,15.729-4.242,14.1-3.479,15.185-5.9,6.25-1.549,24.672-2.124,15.535,1.113,7.946-2.4,9.682,2.763,16.157-2.109,2.171-7.1,1.992,4.421,12.2-8.631,8.966-4.226,8.756-5.293,3.557-11.659-4.436-2.374.833-17.956-.638,2.07,11.176,3.635,12.523-15.6,16.967-0.973,6.444,2.428,6.2,0.047,9.168-7.659,5.6L647.1,950.242l-2.981,8.772-6.554,4.133-1.37,5.339-2.755,5.58-5.6-1.674L622,960.9l-6.935-10.2-1.658-15.55-15.278-11.387,11.8-4.88,6.507,6,8.709-3.86-1.4-6.366-8.1-31.9-5.822-8.39-2.809-9.729-7.674-11.2,0.459-1.689-6.95-12.072,8.912-8.725,4.195,2.428,1.323-37.11,8.056,5.658,6.584,0.3,15.644,11.83,5.409,8.211,4.786-12.157-7.432-21.878,8.056,0.35,7.067,4.436-1.323-11.932,13.776,6.366,11.511-3.012,2.779,9.215-2.506,5.518,7.051,5,14.049-4.592-1.292-4.211,15.839-8.919,0.4-6.46,6.67-7.542-2.312-.794,0.607-8.951,3.526-29.824-8.071-14.757,0.622-2.506,1.136-4.561,4.911-33.444-0.459-11.161-1.37-4.818-2.872-15.978-7.892-4.942-0.412-3.269-0.833-16.025-1.2-9.822-13.348-26.54-2.358-4.047,0.047-1.082,3.588-39.359-3.682-9.269L688.113,516.8l3.736-12.632,3.409-18.36,10.958-15.278,1.517-18.641-4.7-4.7-15.6-4.1-0.958-3.938L678.8,434.9l6.413-24.4,12.679,4.724,9.426,1.447,12.554-3.16,2.49-5.7-4.374-11.534,7.736-17.348,5.308-3.728,12.04,5.168,15.566-5.2,2.841-1.447,2.389-8.935-2.07-9.316,16.127,0.016,9.285-8.787,2.981,5.643,7.643-6.569,9.184-14.134,9.636,2.569,4.452-8.5,1.992-15.776,4.608-4.289,10.336,4.32,22.237-39.312,5.947-11.838,19.348-12.8,11.675-11.6,14.415-22.361,5.137-5.853,2.28,1.214,22.166,7.62,5.962,8.1,9.184,3.728,17.69,15.472,9.168,3.144,3.752,5.565,1.168,3.144-1.129,3.176-6.079,11.783-5.518,8.421-5.9,3.043-1.72,6.491-8.819,15.2-3.479,9.153,0.226,11.885-11.309,10,9.044,18.36,2.709,1.93,1.6,9.853-4.389,8.53-8.227,5.518-10.141-8.009-11.69,5.059-5.643-3-9.924,12.375-3.012-1.113-5.215-3.969-11.8,5.184-9.09,8.849-6.032,2.055-0.732,3.113L859.787,400.4l-2.008,11.916-4.74,4.055-0.351,1.019L872.255,429l-1.977,9.5-5.355,2.537-5.837,15.34-5.713,10.974,1.183,6.032-6.9,5.977-7.176,3.923L835,482.652l-5.977.623-4.989-2.9-8.982,8.118-6.615,2.646-2.506.809-4.5,8.88,4.654,11.815-2.156,9.62-15.691,1.533-6.81-1.082Z" transform="translate(-35.955 -108.135)" fill="#06c" stroke="#000" stroke-width="2"/><path d="M116.631,268.746L117.7,277.9l-0.817,16.025-6.732,13.667-5.487,11.838L100.4,341.564l-6.632,10.46-3.736,10.382L88.286,378.1l-4.927,8.133-1.914,4.88L79.9,395.321l-1.821,12.087-0.273,6.25-7.417,10.46L69.792,436.89l1.4,4.8,6.234,7.674,7.145,6.857L80.206,472.7,74.6,480.607l-10.2,12.663-3.284,10.577-4.592,5.627-8.024,8.865,1.051,8.53,4.389,3.3,3.65,10.99L55.8,547.106,42.925,560.2l4,11.659,0.514,7.082-1.448,9.954,3.113,12.967,8.693-2.281,19.761-1.611,6.413,0.638,4.592-.335,9.09,2.9,6.351,1.136,3.082,12.57,0.031,16.064,21.676-6.366,7.588-5.744,9.682,5.7,15.442-2.374,5.822,2.249-1.977,12.827,1.806,9.285-4.452,8.437,6.654,3.969,7.978-5.409,9.822-1.183,2.709,1.884,6.974,9.682,19.107,10.289,6.842-6.585L240.381,671l1.977,2.389L253,650.768l2.265-2.171,5.993,1.642-1.432-5.5,3.284-7.5,35.07-2.631,9.27-.973,6.047-6.219,5.681,1.308,5.44,11.566,9.215,1.674,4.195,8.678,9.41,0.016,6.522,6.989,9.168-3.043,2.055-5.977,5.837-6.109,5.759,1.37,2.763,5.059,6.172-1.308,2.156-9.091,11.511-10.577,1.836-2.646,3.752-7.557L397.6,607.222l-1.4-16.173-11.083-6.125,4.179-11.978-1.276-3-1.782-6.063-2.779-4.74L377.3,565.5l-13.667,6.95-9.316-1.168-5.6-13.908-9.246-2.327-7.588-10.639,1.129-16.445,3.1,0.241,2.374-6.032,5.152-3.845,27.272-8.694,2.919-11.916L370.956,482.1l2.234-6.172-2.981-9.2,7.736-3.494,1.883-5.355,6.366-1.5,12.375,4.179,8.693-2.887,11.294,1.486,3.082-7.371-2.95-4.973,1.914-2.187-4.242-3.588-2.218-8.242-4.257-12.422-9.7-7.674,1.487-9.246-15.745.109-0.031,3.012-7.978,3.331-0.576,1.992-3.191,3.316-2.141,3.86-4.771-.094-2.265-5.549-7.674-2.506-3.113-3.65-3.222,3.712,1.1,11.885-7.861,3.316-5.059-2.825L328.17,411.594l-5.611,3.572-4.164,9.075-9.285-2.218L297.1,407.267l-8.453,3.619-9.059-2.125-5.043,10.367-14.352-13.107-6.507-11.247-0.475-3.129,5.518-7.207,18.578-.942,1.082-2.965-2.724-14.43-16.188-2.218-12.8,2.109-8.561-5-5.043-8.406-3-5.565,1.751-6.094,7.542-8.912,0.778-9.667-17.5-7.479-2.187-9.168,11.853-5.215,5.962-12.772L227.13,273.663l-8.725-8.6-14.562-3.238-4.561,6.522-11.465-5.58-7.674-10.492-9.472,1.751-1.6-5.02-22.555-11.192,1.082-13.527-6.413-4.071-9.456,17.255-5.44,8.849-4.74,7.433Z" transform="translate(-35.955 -108.135)" fill="#06c" stroke="#000" stroke-width="2"/><path d="M413.025,608.312l-5.518,3.207-2.475,6.234-3.736,7.573-1.853,2.631-11.511,10.577-2.156,9.106-6.157,1.308,3.526,14.865-1.946,5.822,7.923,3,19.092-17.909,6.3,0.156,5.152-3.284,0.529,8.164,13.013-.4,5.6-3.331,2.779,1.72,13.145,7.62,3.012,0.576,2.919,8.39,7.8,9.168,5.262,11.643,6,1.884,9.487,7.222L510.9,716.441l3.665,4.958L517,719.453l8.056,4.786,6.32,6.888-4.67.366,1.4,3-2.522,5.931,6.2,18.625-12.421,1.385-6.2,7.542-9.775-.7,0.319,3.222-8.865,2.522-1.307,2.965,1.151,12.8,11,11.449,5.245,8.421,8.834,7.479,15.6,23.731,9.363,8.437,12.811,12.507,6.46,14.9,12.087,1.767,4.7,3.7,2.506,8.8,9.075,3.479,3.347,5.456-3,5.471-3.238.257-6.079-11.145-6.063-1.136-1.417,9.6,3.331,5.58,3.284,9.713,7.978-1.4,7.962,4.864-0.366,3.113,11.8-4.9,6.507,6,8.709-3.86-1.4-6.366-8.1-31.9-5.822-8.39L607,864.691,599.326,853.5l0.459-1.689-6.95-12.072,8.912-8.725,4.195,2.428,1.323-37.11,8.056,5.658,6.6,0.3,15.629,11.815,5.425,8.211,4.771-12.157L640.313,788.3l8.056,0.35,7.067,4.421-1.323-11.932,13.776,6.366,11.511-3,2.794,9.215-2.522,5.518,7.067,5,14.033-4.592-1.292-4.211,15.839-8.919,0.4-6.475,6.686-7.542-2.327-.794,0.607-8.935,3.526-29.824-8.071-14.772,0.622-2.491,1.136-4.561,4.911-33.444-0.459-11.161-1.37-4.818L718.1,645.715l-7.892-4.927L709.8,637.52l-0.833-16.025-1.2-9.838L694.42,585.132l-2.358-4.047L692.108,580l3.588-39.359-3.682-9.285-3.907-14.5,3.736-12.632,3.409-18.376,10.958-15.278,1.517-18.641-4.686-4.7-15.613-4.086-0.942-3.954-7.69-4.242,6.429-24.384,12.663,4.709,9.426,1.447,12.57-3.144,2.475-5.7-4.374-11.534L725.738,379l5.293-3.728,12.04,5.168,15.566-5.215,2.841-1.432,2.389-8.935-2.07-9.316-5.277-1.113-34.565-5.23-21.4,4.366-5.627,2.95-6.094-18.835,1.992-13.317-2.919-13.208-19.839-2.74-0.833-4.724L657.412,296l-15.34-.848,2.981-9-2.444-8.266-5.7,6.094L633.02,289.5,620.4,293.47l-4.53,12.375-0.685,4.032-4.452,11.052-7.036,5.152-14.944-.241-2.055,5.931-14.749,16.92-18.47,4.351,0.319,6.234-5.947,11.9-5.806,3.113L525.5,402.776l-3.012,1.432-2.553-2.125-4.3-3.541-2.49,1.549,0.592,6.172,8.483,4.179,1.37,12.694-3.728,4.756-3.907,4.374,4.654,3.907L510.539,460.3,499.7,472.535l2.919,13.06-1.79,2.841-6.67.094-5.9-1.354-2.234,5.043-2.74.444-4.654,19.123,2.46,9.41-1.417,2.965-9.029,3.432-1.992,6.25L464.12,549.2l1.463,5.58-2.421,4.771-5.167,3.6-9.456-.545-0.763,9.153-8.327-4.086-2.779,1.5L430,565.619l-8.546,15.6-0.973,13.208-2.9,9.215Z" transform="translate(-35.955 -108.135)" fill="#06c" stroke="#000" stroke-width="2"/><text transform="translate(262.743 243.003)" font-size="165.185" font-family="DejaVu Sans" font-weight="700">1</text><text transform="translate(112.44 430.238)" font-size="165.185" font-family="DejaVu Sans" font-weight="700">4</text><text transform="translate(492.135 520.8)" font-size="165.185" font-family="DejaVu Sans" font-weight="700">5</text><text transform="translate(273.317 667.296)" font-size="125.508" font-family="DejaVu Sans" font-weight="700">2</text><text transform="translate(718.856 358.122)" font-size="108.377" font-family="DejaVu Sans" font-weight="700">3</text></svg>