<svg xmlns="http://www.w3.org/2000/svg" width="692.616" height="970.571" viewBox="0 0 692.616 970.571"><title>Députés sortants de la Loire en 2017</title><path d="M493.349,789.112l-5.8-5.24L482.4,789.2l2.376,4.867-2.376,5.522L480.02,805.2l-4.73,4.6-8.02,5.667-26.894,10.785,2.483-4.654-4.806-3.26,0.389-2.917,3.648-3.808-14.967-3.793L418.2,809.28l-7.738-5.134-2.734-7.754-1.249-5.888,7.35-5.537-4.882-10.008,5.355-7.228-1.562-2.635,17.511-1.95,8.462,2.407,2.887-.389,3.275-13.7,7.38,4.509,11.425-3.009,9.848-4.182,3.062,1.28,8.881-2.78,11.973,2.734,1.4,4.3,15.751,2.2,0.152,6.512,6.886,6.9,4.433-7.51,11.265-3.511,0.175-5.933,7.555,1.158,4.3,3.984,4.273,11.159-1.356,11.425-6.4,6.962,0.236,3.153,5.849,11.173-9.817,1.531-6.65,4.608-3.527-5.24-3.717,3.557-3.2-2.026,2.5-4.981-7.008.815,2.5-12.08-16.391-1.2Z" transform="translate(-48.124 -9.032)" fill="#ff8080" stroke="#000" stroke-width="2"/><path d="M536.787,828.992l-7.037-10.625-6.245-.472-12.613,9.087-5.758-2.681-2.575,1.935-7.464-4.867-6.512-13.581-8.538-2.6,2.376-5.621,2.376-5.507-2.376-4.882,5.149-5.324,5.8,5.24,13.329-2.064,16.376,1.2-2.5,12.08,7.008-.8-2.5,4.981,3.214,2.026,3.7-3.557,3.527,5.225,6.65-4.6,9.833-1.531,6.886,5.964-2.993,21.822,4.669,4.281,3.672,4.73-8.3,3.839-2.811-1.31L548.7,849.5l-1.47-1.95-9.048-9.087Z" transform="translate(-48.124 -9.032)" fill="#ff8080" stroke="#000" stroke-width="2"/><path d="M665.112,694.345l-1-2.262-4.639-4.6-6.6-18.607-7.084-6.824-7.777,4.669-10.191-.282-10.678-10.663-15.111,1.95L585.4,664.4l-4.867-3.7-6.009.358-0.815-8.911-23.117.4-2.841,5.522,1.173,3.016-6.977,8.972-6.9,11.661-14.121-10.442-1.767.046,4.746,11.036-3.465,8.089-2.795-1.127-7.411-3.184-1.1-7.837-9.193-.86-9.034,3.138-6.2-1.622-3.968-4.913-9.955,16.094,3.214,21.852L471,717.643l-20.352-9.681-2.354,5.789-14.905-3.671-4.136,3.481,1.295,9.787,12.126,15.188,2.2,12.971,7.38,4.509,11.425-2.993,9.848-4.182,3.062,1.264,8.881-2.765,11.973,2.719,1.4,4.311,15.751,2.2,0.152,6.512,6.886,6.9,4.433-7.525,11.265-3.5,0.175-5.933,7.555,1.158,4.3,3.968,4.273,11.173-1.356,11.425-6.4,6.946,0.236,3.153,5.849,11.173,6.9,5.964-2.993,21.837,4.669,4.273,9.148-2.75,6.185,1.485,10.366,7.259,9.361,0.282,1.843,6.116,5.446,3.344,8.8-1.592,6.65-10.206,2.407-.434,6.276,0.86,17.107-7.495,2.963-28.578,3.305-5.248,5.964-2.217,0.747-12.469,4.257-4.776,14.517,1.295,6.8-5.355,4.7-10.648,1.782-12.537-2.749-1.188-4.243,4.2-5.8-9.285-5.195-1-2.308-8.721,2.14-2.323-2.826-15.561,0.8-12.483L676,697.914l2.391-5.728,0.747-.191,12.1-10.831,1.5-3.184-7.6-9.833-3.123-.8-7.989,5.492L668,671.8l-0.731,9.6,7.274,10.3Z" transform="translate(-48.124 -9.032)" fill="aqua" stroke="#000" stroke-width="2"/><path d="M635.254,925.883l-4.684,15.279,4.624,3.6,4.4,4.9v9.429l-13.268,8.569-15.393-2.887L598.978,969.4l-4.075,4.92-11.737-4.524-8.12,8.005-9.582.777-4.951-3.915L558,973.319l-14.456-14.3-7.411-5.591-7.38-13.939-9.346-.655-18.417,10.846-2.575,5.553-7.96-4.014-2.422,1.9-13.6-16.391,6.1-7.053,1.089-5.979,4.166-3.869-0.937-4.806-9.048-2.651L462.433,899.2l20.542-17.5,3.009,0.343L473.294,860.54l-7.753-5.248-18.28-4.448-0.3,6.04-2.528,1.47-5.294-1.112-3.808,4.585-11.737-.64-0.533-13.969-8.82,2.978-8.317-12.529-3.092.266-8.409-4.357-16.6,6.9L364.8,831.749l-12.126,2.575-11.425,4.433,7.959,10.252-1.341,6.23-22.195-1.98-7.3,6.055-0.846,6.444-6.01-4.387L299.628,865.1,297.26,877.67l-3.687,5.355-5.385-3.245-5.4-11.616-5.667-3.2-6.162,1.752-0.747,3.092-7.32,5-1.859,15.439-2.59-.031-1.264-4.966-7.853-20.6-6.185-.16-4.73-14.19-4.745-3.793-11.173,5-8.69-3.481-5.728,2.437-2.765,8.942-10.427,6.756,0.609,11.577-8.447,7.883-2.262-5.012-3.466-16.947-3.4-11.768,1.531-12.827-2.7-9.132,5.278-14.891,5.537-2.9,4.418-8.569,2.932,0.846,12.225-7.99,16.795-5.933,0.015-1-2.041-5.476,9.681-4.463-3.9-4.654,2.62-5.606-3.618-11.219,11.707-13.5-1.059-8.2-7.289-4.684-4.585-.4-0.533-2.453-4.075-9.757L213.02,691.7l5.21-11.486,2.826,3.885,14.578-4.182,23.162,7.441,0.373,0.046,12.3-2.468,8.835,3.42,9.787,8.211,3.169-.846,6.162-9.863,7.411-5.134,0.777-2.963-4.227-3.984,10.534-5.591-4.044-8.447,5.042,0.624,3.869-7.213,37.4,14.639,4.166-3.763,8.69,2.483,11.616,9.147,2.483-14.905,4.227-4.311,1.782-8.744-3.587-8.462,0.624-6.116-4.06-4.585-17.7-2.2,1.143-6.444,9.612-7.571,0.983-5.949,11.517-4.448,5.712-2.079,2.559,20.755,3.9,3.321,5.37-.205,2.186,5.195-10.023,11.562-1.074,3.016,3.945,8.774,13.626,8.119,1.653,1.919,10.32,15.1-0.967,5.553-8.363-.221-4.852,2.7-5.575,2.765-2.437,5.728L409,701.953l-0.221,6.367,0.152,7.228L423.4,711.4l5.872,2.2,1.295,9.787,12.141,15.188,2.2,12.971-3.275,13.718-2.887.389-8.462-2.422-17.511,1.95,1.562,2.651-5.355,7.228,4.882,9.993L406.5,790.6l1.249,5.888,2.75,7.738,7.723,5.149,8.927-1.47,14.982,3.808-3.648,3.793-0.389,2.917,4.806,3.26-2.5,4.669,26.91-10.785,8.005-5.682,4.746-4.6,8.538,2.6,6.5,13.581,7.48,4.867,2.56-1.935,5.758,2.681L523.512,818l6.261,0.472L536.81,829.1l1.386,9.46,9.048,9.1,1.47,1.935,4.448-8.119,2.795,1.31,8.318-3.824-3.687-4.745,9.148-2.765,6.2,1.5,10.351,7.259,9.361,0.282,1.843,6.116,5.446,3.336,8.82-1.576,6.65-10.221,2.391-.419,6.292,0.86,17.092-7.495,2.978-28.578,3.29-5.248,5.979-2.217,0.731-12.469,4.273-4.776,14.517,1.28,6.8-5.355,4.7-10.633,1.767-12.537L700.925,752l14.121-14.921,10.595,6.786,3.184,11.988-2.947,1.188,11.9,15.751-1.3,4.311,0.389,3.671,2.856,7.883,0.015,5.446-10.892,11.25,1.059,12.034,6.512,8.82,2.605,12.049-1.188,12.225-0.67,5.324-19.529,3.557-1.744,6.649-12.842,4.639-3.4,4.212-11.585-1.173-26.925,18.493,3.009,6.71-6.04,3.648-11.692,4.311,0.792,9.361,3.823,4.92-0.845,3.031-6.276-.549Z" transform="translate(-48.124 -9.032)" fill="#06c" stroke="#000" stroke-width="2"/><path d="M512.018,139.97L494.911,128.2l-8.149,2.948-4.935,7.51-18.684,2.765-6.87,5.164-1.546,12.285-6.756,6.367-2.041,9.018,3.435,5.149-0.686,12.24L442.86,194.7l0.967,5.888-3.618,8.1-7.769,9.33-20.5.937-1.714,2.262,6.619,12.271,5.591,3.245,6.543,10.831,5,3.184,11.219-2.9,0.5-.122,2.9,12.659,1.089,2.7-7.708,15.127-6.7-6.276-11.958,3.092-3.321-4.882-14.456.152,2.719,9.94,7.083,5.179,10.861,3.153,8.462,4.3,5.789,7.662,1.813,6.177-4.311,4.585,11.707,10.625,6.307,0.921,15.72,10.313-5.476,10.8,5.591,2.392-14.875,11.036-5.667-1.028-9.368,1.074-5.294,3.4-3.587,11.646-9.46-1.653L418.4,382.6l-10.961,6.619-2.7,5.979-0.563,5.37-4.791,2.872-2.186-5.385-2.856-.549-3.153-.533-2.651-5.728,1.965-18.295-8.675-3.138-0.252,3.123-6.055.45-4.227,8.089-8.729,2.392-5.042,7.038-6.147-6.756-4.76-10.694L329,357.967l-12.689,11.1-1.218-2.887-5.918-1.919-4.105-8.363-7.4-5.621-9.117-2.323-2.064,2.407-1.668,2.369-2.635-1.2,0.891-5.682-6.4-5.865-5.415-7.6-8.63-3.214-0.252-3.108-10.663-6.131-18.775-2.262-11.333,6.04-6.4-.952-2.437,6.01,6.177,16.559,0.777,6.01,13.55,11.737-8.211,15.546-8.759.594-14.548-15.454-5.8.967-6.116,6.428,1.98,12.255,8.256,4.418,2.719,8.729-1.7,2.7-3.138-.488-3.153-2.483-1.638,2.666-8.85,2.323-8.051,9.193-5.949-1.4-5.225-7.464-2.932.83-3.656,8.165,4.418,11.272-6.01,5.7-5.081-3.383-14.715-.106-4.524-3.968,4.258-7.708-0.328-12.2L127.2,392.6l-26.6-11.753-8.333-2.2-3.6-4.669-9.147-20.214-7.274-5.933-4.951-8.005L49.6,332.381l-0.092-.205,0.175-16.025,6.7-6.87-1.744-9.475,5.042-7.837,21.037,6.946,5.553-3.108,2.948-9.117,3.123-.8,14.045,7.35,5.819-2.407,6.147-7.3,6.185-1.341,8.729-3.26,0.815-6.215,4.684-4.3,0.221-.191-3.062-.5-1.714-5.964-5.667-11.676-1.44-16.345-5.248-15.294,10.16-34.709-11.943-18.569-6.055-1.935,5.027-17.952-5.088-11.3-1.143-12.2,10.518-4.684-11.25-22.522L110.91,81.673l3.511-8.447-5.933-11.333-7.495-6.131L98.359,43.338l5.8-2.468,15.827,4.273,3.23-17.526,27.763-4.57,11.889-1.455,5.682-11.159,6.01,1.668,8.134-2,2.734,1.782,3.245,12.537L187.8,40.093l-6.5,6.337,0.092,9.6-4.776,11.585,12.514,6.147,4.951,3.778,12.362-2.171,18.76,3.123,4.791,2.932-0.7,9.4,11.021,18.539,19.1-2.026,6.131,2.262,2.369-2.217,12.1-8.393,6.573-7.038,4.9,1.607,10.381-4.136L314.969,82.6l18.653,16.65,0.488,3.108h0.3l6.131,1.234,22.537,2.171L368.65,103l-1.234-3.009,0.061-9.612,2.78,1.4L381.248,86.3l8.645,8.774,3.527,6.992,1.013-.7L406.6,92.16l8.272,3.435,2.437,8.759-5.507,7.32-3.062.221,2.932,8.69,18.92,0.921,5.088-11.676,8.15-4.669,5.8,2.917,2.963-.106,6.619-12.7,5.355,2.948,7.6-5.164,7.678,4.281,7.96-1.546,1.752-2.719-6.573-10.595,7.4-10.237,8.836-3.336-0.205-6.276,12.08,0.152,9.711,11.8,0.792,3.648L504.7,85.2l-0.449,6.04,6.588,6.512,5.149,2.041,12.346,6.741,3.374,4.654-4.822,11.5-4.867,3.93-4.075,14.441Z" transform="translate(-48.124 -9.032)" fill="#06c" stroke="#000" stroke-width="2"/><path d="M546.072,638.409l-7.114-4.281-1.8-11.5-3.634-4.608L521.2,611.888l-7.853-2.2-0.921-4.7-10.534-15.279,2.217-4.09-2.262-4.121L484.6,573.462l1.828-2.369-1.843-8.614,4.9-7.213-5.133-7.167L489,543.8l1.577-9.475,6.23-7.228,4.2-15.469,7.555-5.606-3.481-7.335-4.448-3.016-11.272,5.24-9.132-1.546-6.5-18.623,5.949-7.167,11.752-4.837-0.533-18.882,2.422-2.156,5.491,3.5-4.913-13.421,1.432-2.62-4.166-4.243,2.932-.464,2.041-8.066,4.464-3.245-4.867-7.883,4.882-4,3.587-8.881-1.1-4.951-21.6-.937-12.065-9.985-3.587-12.331-6.931-6.7-1.935-6.07-5.667-1.044-9.368,1.074-5.294,3.4-3.587,11.646-9.46-1.653-5.164,11.783-10.961,6.619-2.7,5.979-0.563,5.37-4.791,2.872-2.186-5.385-2.856-.549-3.153-.533-2.651-5.728,1.965-18.295-8.675-3.138-0.252,3.123-6.055.45-4.227,8.089-8.729,2.392-5.042,7.038-6.147-6.756-4.76-10.694-17.625-15.485-12.689,11.1-1.218-2.887-5.918-1.919-4.105-8.363-7.4-5.621-9.117-2.323-2.064,2.407-1.668,2.369-2.635-1.2,0.891-5.682-6.4-5.865-5.415-7.6-8.63-3.214-0.252-3.108-10.663-6.131-18.775-2.262-11.333,6.04-6.4-.952-2.437,6.01,6.177,16.559,0.777,6.01,13.55,11.737L225.1,378.628l-8.759.594L201.79,363.768l-5.8.967-6.116,6.428,1.98,12.255,8.256,4.418,2.719,8.729-1.7,2.7-3.138-.488-3.153-2.483-1.638,2.681-8.85,2.308-8.051,9.193-5.949-1.4-5.225-7.464-2.932.83-3.656,8.165,4.418,11.272-6.01,5.7-5.1-3.4-14.715-.106-4.524-3.968,4.258-7.708-0.328-12.2L127.2,392.6l-26.6-11.753-8.333-2.2-3.6-4.669-5.652,1.744-1.173,5.606-6.291,6.383-12.019.64,3.077,8.226,5.339-.876-0.876,6.04-4.151,4.7-1.074.983,5.027,18.4-9.239,26.91-11.318,6.131L49.206,464.5l4.524,4.7,18.2,7.007,6.147,7.647-3.138,5.415-1.744,1.47-2.156,4.433,12.217,13.375,3.306-5.278,3.092,0.221,7.9,16.65,8.348,3.7-2.528,4.776,3.466,7.3-4.227,10.633,1.112,8.911,10.961,15.843,7.068,16.14,7.959,8.66,1.935,8.6,2.064,4.882,8.553,4.745,12.781,1.873,2.635,8.759,5.012,2.11,8.409,8.835,17.122,6.489,15.591,16.025,4.745,7.007,3.321,8.363,6.383,6.413,2.826,3.885,14.563-4.2,23.178,7.441L259.2,687.4l12.3-2.468,8.835,3.42,9.787,8.2,3.169-.83,6.162-9.863,7.411-5.149,0.777-2.948-4.227-3.984,10.534-5.591-4.044-8.447,5.042,0.609,3.854-7.2,37.413,14.639,4.166-3.778,8.69,2.5,11.6,9.147,2.5-14.905,4.227-4.311,1.782-8.759-3.587-8.447,0.624-6.116-4.06-4.585-17.7-2.217,1.143-6.428,9.612-7.571,0.983-5.964,11.517-4.433,5.712-2.079,2.559,20.74,3.9,3.336,5.37-.221,2.186,5.21-10.023,11.562-1.074,3.009,3.945,8.79,13.626,8.1,1.653,1.935,10.32,15.081-0.967,5.56-8.378-.236-4.837,2.7-5.575,2.78-2.437,5.728,5.339,8.02-0.221,6.383,0.152,7.213,14.472-4.136,5.872,2.186,4.136-3.466,14.905,3.671,2.354-5.789,20.366,9.673,2.993-5.652-3.214-21.837,9.955-16.094L484.755,679l6.2,1.622,9.034-3.153,9.208,0.86,1.089,7.853,7.426,3.184,2.78,1.127,3.481-8.089-4.76-11.052,1.782-.031,14.121,10.442,6.9-11.661,6.961-8.972-1.158-3.016,2.841-5.522L555,644.3Z" transform="translate(-48.124 -9.032)" fill="#06c" stroke="#000" stroke-width="2"/><text transform="translate(176.925 259.576)" font-size="161.653" font-family="DejaVu Sans" font-weight="700">5</text><text transform="translate(194.261 538.017)" font-size="161.653" font-family="DejaVu Sans" font-weight="700">6</text><text transform="translate(228.72 807.642)" font-size="161.653" font-family="DejaVu Sans" font-weight="700">4</text><text transform="translate(512.868 770.503)" font-size="124.89" font-family="DejaVu Sans" font-weight="700">3</text><text transform="translate(395.49 795.839)" font-size="55.734" font-family="DejaVu Sans" font-weight="700">1</text><text transform="translate(448.743 805.031)" font-size="25.471" font-family="DejaVu Sans" font-weight="700">2</text></svg>