<svg xmlns="http://www.w3.org/2000/svg" width="967.094" height="841.732" viewBox="0 0 967.094 841.732"><title>Députés sortants du Puy-de-Dôme en 2017</title><path d="M476.485,579.476l-5.313,1.982-5.91-9.959-8.979-1.357,2.735,3.175-9.5-.042,0.433-8.169,0.653-8.794-5.079.042-1.939,1.335-5.2.419-2.3,3.111-2.515-2.969-5.782-.7L442.7,540.478l-2.138-1.03-4.468-12.1-12,1.513-5.356-13.177L401.677,514l-2.635-8.3,5.505-6.358,14.385-.859,2.259,8.5,0.611,2.65,5.356,0.568,12.268-3.246,6.976,2.55,32.421-5.761,0.5-.192,10.044-1.179,5.164,2.536,15.429,16.438,5.328,1.222L517,520.432l5.6,5.839,0.682,5.342-3.275,14.662-2.4,1.875-9.057-.682-1.4,7.842-13.333,9.057,0.568,5.761,5.036,6.99,9.362,7.16,8.951-.682,9.824-6.287,4.887,4.994-4.631,1.982,2.415,10.847-4.134,7.338-4.276,6.976-4.326,3.68-9.313-6.393-5.782,5.7-3.73.789-6.2-7.466-4.525-9.2L487.4,583.476Z" transform="translate(-24.797 -147.029)" fill="#ff8080" stroke="#000" stroke-width="2"/><path d="M542.008,317.2l-5.647-1.037-0.334-4.908-5.214-.362-1.222,2.387-4.44-6.592-5.093,2.01-16.082-.71-0.071,5.981-11.643.128-19.449-4.4-5.761-6.159-3.175-2.515-7.366-.739-0.845-11.6-5.136-14.044-2.955-.554-10.044,6.741-11.515,3.388-6.784-5.867-7.842,3.971-5.548.419-4.816-10.506-8.865-7.558-8.546-1.151L378.563,266l-4.44-6.422L368.647,242.9l-1.925-20.16-5.228,2.316-16.772-4.774-2.969-3.942,4.994-3.275,0.525-6.159-4.354-14.456,1.889-5.9,4.859-3.743,7.544-3.317,1.6-2.515-4.035-7.544,8.254-8.091-5.576-1.264-6.549-5.47-12.2.582-11.692-3.857-12.268,1.818-3.772-4.845-24.5,12.929-0.9,8.439,3.4,10.613-2.621,1.343-1,11.685L281.174,201,266.9,198.875l-10.321-10.556-5.939.653-8.105-8.617-8.354-3.1-6.287,10.016,4.774,13.667-4.525,7.146,0.306,5.733-12.318.441-10.655,4.617-5.122,3.054L199.5,233.782l-3.7,4.589-2.983,11.224-1.335,2.358-4.553,10.89-4.553,3.928-5.811,1.194-8.141-2.983-13.177-7.047-6.344,3.594L138.733,250.07l-5.527-2.706-1.627,3.9-2.1-.142-1.755,13.22-3.488,3.992,0.263,16.857,1.009,5.4-1.222,6.052,2.515,8.979,11.224,25.431,17.723,12.225-2.664,15.33-3.111,16.679,2.216,8.183,7.6,9.2-1.549,8.368-23.015,7.437-1.69,2.4L135,416.7l-10.073,6.187,0.085,5.761-4.6,3.843-1.186,8.936,1.037,2.827,8.432,3.2-2.813,1.357-24.955,21.2-5.981.7-0.22,8.979L89.051,489.9l-5.619-.4-5.207-5.782-5.449-.149L70.3,487.307l-10.719.235-0.007,8.446,3.779,4.148-1.115,5.548-7.849.64L53.1,511.595l-3.843,4.063-14.626-2.444-8.5,8.446L52,555.239l1.968,16.231,6.961,9.476,5.484-1.939,7.395,4.674,2.565,5.456,8.439,2.231,4.163,7.963L106.71,622.1l-0.952,11.323,4.184,2.884-1.364,5.676,2.479,5.313-6.3,4.049-2.245,4.631,0.021,5.505,7.061,8.752-4.418,7.395,1.194,4.582-4.191,2.01-16.722-1.194-2.565,4.859-2.174,23.555-7.828,5.924-1.207,5.491L78.2,736.365,86.628,745l4.88,10.506,11.827,2.536,8.24-17.177,2.87-4.511,9.029-5.576,16.423-17.66,14.456-3.758,7.082-5.548,7.828-2.216,3.1-4.468,10.947-.959,1.136-2.565-4.177-3.772,16.757-3.651,1.343-2.65-2.635-5.3,10.144-5.384,17.162,9.434,5.185-2.721,0.5-2.9,0.042-17.439-5.15-7.089,3.012-8.048,2.969-.1,9.654-5.534,3.481-7.572-27.15-4.688-4.035-4.582-2.245-8.951,6.187-10.187,7.089-5.228,1.662-5.69,7.032-12.289,1.123-13.511,9.348-15.273,8.6,2.209,9.27-6.926,11.032-.391,5.328-5.619,2.429,4.539-3.41,20.174,19.357,8.169,12.183-7.189-1.925-18.065,13.9-5.136,1.69-8.56,14.427,3.886,9.739,6.954,8.752,2.024,8.752-7.338,6.1-5.825,8.141-2.2-5.534-15.542,12.268-6.713,13.248,6.23,5.562-1.279-2.635-8.3,5.491-6.358,14.385-.859,2.273,8.5,0.611,2.65,5.342,0.554,12.282-3.232,6.976,2.55,32.406-5.761,0.512-.192,10.044-1.179,0.76-17.425,8.077-.057,3.119-7.253,5.477-.149-4.248-20.977-4.688-4.369-1.335-2.706,3.758-11.444,2.578-1.57-6.315-7.537L501.142,418l2.792,0.114,3.246-4.511,7.6,1.627,0.987-5.491,1.037,0.746L520.3,414.7l11.224-.54,5.164,2.067,7.118-2.969,2.706-.917L550.5,416.3l16.636-4.077-0.149,16.523,14.789-.376,11.685-1.279,2.578-14.747,0.888-2.181,11.835-2.692,2.316-8.752,12.872-7.629,0.6-3,6.755,1.677,1.385-4.7,20.2,2.082,8.993-10.918,21.744-7.146-2.316-6.606-5.456,2.216,1.968-17.134-2.578-8.325,5.214-2.4-6.769-8.923-1.968-7.757-2.231-3.829-5.313,3.054-5.939-.455-6.812-6.159-2.372-5.633-10.293,6.592L626.8,315.664l-8.311,8.766-22.376,9.029,0.441-8.212-9.533-4.859-9.284-3.133,0.441-2.65L572.7,316.85l-5.4-2.415-5.185,2.635-11.6-2.5Z" transform="translate(-24.797 -147.029)" fill="#ff8080" stroke="#000" stroke-width="2"/><path d="M394.24,981.587L376.3,970.612l-11.692-1.918-9.988-17.872-4.568-14.165,0.1-3.147-2.593-10.393,1.413-5.093-5.519,1.371-5.093-2.621-7.352-8.34-7.452-3.317-4.291,6.649L311.7,907.5l-5.185-10.321-14.662,1.357-7.686-8.3-15.486,8.489-2.763,5.122-2.777-.917-11.153-.739-7.267-4.12-5.285-1.428-7.849,2.735-8.3,7.146-6.024-6.478-3.04-8.134-10.741-9.156-1.08-11.692,6.073-7.864-0.945-5.022-8.645-.376-8.283,2.855-5.477-6.841-7.935-2.593-8.254,1.612-2.635-20.16-8.709,11.82-5.42,2.039-8.517-1.264-10.137-10.492-10.968,1.889-7.231,4.454,4.944-18.5L106.546,819.7l-7.757,3.346L102.1,810.7l-2.955-6.358,0.348-5.676,5.306-10.435-2.1-5.15,1.833-5.328-1.769-8.56,1.918-2.216-1.364-8.894,8.24-17.162,2.87-4.525,9.029-5.576,16.423-17.645,14.456-3.772,7.082-5.548,7.828-2.209,3.1-4.482,10.947-.945,1.136-2.565-4.177-3.786L197,686.227l1.343-2.65-2.635-5.313,10.144-5.384,17.162,9.434,5.185-2.721,0.5-2.9,0.042-17.425-5.15-7.089,3.012-8.048,2.969-.114,9.654-5.534,3.481-7.558-27.15-4.688-4.035-4.589-2.245-8.951,6.187-10.187,7.089-5.214,1.662-5.7,7.032-12.282,1.123-13.525,9.362-15.273,8.588,2.216,9.27-6.94,11.032-.391,5.328-5.6,2.429,4.539-3.41,20.16,19.357,8.169,12.183-7.175-1.925-18.065,13.9-5.15,1.69-8.56,14.427,3.9,9.739,6.94,8.752,2.039,8.752-7.338,6.1-5.839,8.141-2.181-5.534-15.55,12.268-6.7,13.248,6.23,5.562-1.293,17.063,1.7,5.342,13.17,12-1.5,4.482,12.083,2.124,1.037-14.917,17.063,5.782,0.7,2.515,2.969,2.3-3.111,5.214-.419,1.939-1.335,5.079-.042-1.094,16.985,0.554,8.034L455,582.8l1.847-1.982,0.042,10.435,2.053,1.634-9.5,2.067L448.7,597.4l-9.682,17.326-17.539,2.593-6.116,4.383,7.672,3.957,5.15-2.082,5.662,6.549,14.427,2.855,8.091-3.566-0.4-8.737,1.123-2.735,2.941-.178,6.038,6.521,0.724,8.879-3.36,4.205-0.149,8.78,4.5,7.217,2.678,15.869,5.271,14.583-3.523,8.411-4.951,3.4,6.436,17.2,10.783,6.912,20.259-13.156,8.077,11.692-0.22.8-0.917,5.9,3.594,17.51-4.646.419-4.923-.042-3.26,4.383-6.145-5.079-3.594,6.507,1.5,7.466-0.64,5.214h-5.2l-2.358,8.24,5.2,8.46,0.071,0.419-9.171,6.663-2.515,5.47-13.22,6.99-10.847,9.867-3.026-.291-2.167,1.179,1.264,4.589,4.788-2.536,7.189,3.665,10.627-.334,3.857,3.928,4.965,2.082,0.4,2.692-1.222,5.051-2.706.178-0.263,2.87,2.706,0.917,5.022-2.735,11.394-.391,3.843,2.941-7.267,9.391L493.8,852.21l7.281,5.079,8.411-2.472,5.122,2.415,2.515,7.786-4.859,2.912,4.923,9.711-1.982,11.124-6.521,9.419,15.1,12.864,2.216,5.3-2.65,2.415-4.383-3.232L506.4,922.037l-3.743,4.511,2.358,5.008-18.036,1.03L479.56,929.7l-4.923,2.692-16.48-2.593-4.262,2.01-4.873,10.57-11.088,3-4.148,4.177,1.556,11.707-5.342,6.8,1.513,2.55-13.7,7.423-7.771,2.273-3.346,7.267-11.543-3.133Z" transform="translate(-24.797 -147.029)" fill="#00c000" stroke="#000" stroke-width="2"/><path d="M517.466,613.147l-9.313-6.393-5.782,5.7-3.715.774-6.216-7.466-4.525-9.185-0.554-13.1-10.876-4.007-5.313,1.968-5.9-9.945-8.979-1.357,2.735,3.175-9.519-.042,0.54,8.034,4.98,1.541,1.847-2,0.057,10.449,2.053,1.634L449.47,595l-0.739,2.429-9.682,17.34-17.539,2.593-6.116,4.383,7.672,3.957,5.164-2.082,5.647,6.549,14.427,2.855,8.091-3.566-0.391-8.737,1.123-2.735,2.941-.178,6.024,6.521,0.724,8.879-3.36,4.191-0.149,8.794,4.511,7.2,2.664,15.884,5.271,14.583-3.509,8.411-4.951,3.4,6.436,17.2L484.5,719.8l20.274-13.156,8.077,11.692-0.235.8-0.9,5.9,3.594,17.51-4.646.419-4.937-.042-3.246,4.383-6.159-5.093-3.58,6.521,1.5,7.466-0.64,5.214h-5.2l-2.372,8.24,5.2,8.46,0.085,0.419-9.171,6.663-2.522,5.47-13.22,6.99-10.847,9.867-3.012-.291-2.181,1.179L451.636,813l4.774-2.536,7.2,3.665,10.627-.334,3.843,3.928,4.98,2.082,0.391,2.692-1.222,5.051-2.706.178-0.248,2.87,2.706,0.917L487,828.775l11.394-.391,3.829,2.941-7.267,9.391-1.123,11.543,7.3,5.079,8.4-2.472,5.136,2.415,2.5,7.771-4.859,2.927,4.937,9.711-1.982,11.124-6.521,9.419L523.822,911.1l2.216,5.3,1.677,0.441,2.522-10.9,8.063-10.712,6.478,4.369,8.02-1.037,16.508-7.615,2.55-4.3,2.429-11.849,2.458-1.6,5.519,1.556,6.173,6.01,6.67,12.253,6.606-15.081-0.206-5.69,4.816,1.485,4.3-2.635,6.9,9.639,7.629,8.879,5.6-1.762,5.271,2.515,5.15-2.593,8.269,5.271,4.34-3.857,17.162,1.136,2.855-.724,1.79-5.491,9.576-10.947,13.191-6.329-0.4-2.01,5.15-10.947-0.917-2.01-2.515,3.424-19.911-1.151-10.25-4.291,3.68-6.45,12.1-7.509,7.864,3.73,1.513-5.185,14.044-2.138,0.888-2.735-7.544-11.735,1.918-1.57-0.739-5.733,4.589-3.58-7.231-9.057-0.014-11.295-5.15-6.066,2.912-7.743-1.293-2.593-10.681,3.184-21.488-7.842-1.612-6.855,1.648-10.527-0.54-8.425,2.067-8.446-11.657-8.425-0.746-2.884,4.887-7.231-1.79-8.254-5.839-6.2-8.474-2.621-2.706-19.592L637.36,670.9l1.194-8.645-9.2-11.337-11.295.831-3.346,4.568-5.022.959-2.067,5.328-0.348,1.4-10.947-.668-6.549-5.477-17.2-.6-6.258-10.726-2.927-15.358,3.829-11.5,0.149-9.142-0.128-.192-0.739-2.706,9.618-9.668,5.051,1.925,8.73-7.672,2.941,0.306,7.061,5.313,2.927-.334,5.228,5.981,11.11-16.146-2.472-7.466,7.409-8.737,14.8,1.6,4.248-4.248,1.236-26.93-5.647-2.152-8.951,1.371-3.133,8.091-4.525,3.992-6.535-4.177-14.442,3.552-4.994-2.635-8.645,2.344-2.259-5.548,3.665-10.57-1.442-8.183-5.867-9.228-0.6-8.439-2.593-1.513L566.524,525.9l-5.15,3.232-0.1,3.054,7.935,17.8-3.111,4.191-13.987,3.41,0.582,8.588-3.111,8.105-17.177,7.977-4.617,2L530.2,595.09l-4.148,7.338-4.262,6.976Z" transform="translate(-24.797 -147.029)" fill="#ff8080" stroke="#000" stroke-width="2"/><path d="M875.378,654.866L865.156,640.09l-1.037-8.3,3.942-9.917-3.232-6.827,2.358-4.44-7.786-3.452-7.366-15.528-2.884-.22-3.083,4.923-11.394-12.46,2.01-4.148,1.627-1.357,2.927-5.065-5.733-7.118-16.97-6.535-4.219-4.4L815.353,550l10.556-5.7,8.617-25.111-4.688-17.148,1-.93,3.871-4.383,0.817-5.633-4.98.817-2.87-7.672,11.209-.582,5.867-5.953,1.094-5.228,5.271-1.627-8.531-18.853L835.8,446.44l-4.617-7.452-16.495-6.94-0.085-.192-6.855-8.325-2.735-13.39-6.869-4.525-16.594-3.7-4.326,3.786-3.694-19.677-7.48-11.991-7.452-15.18-7.743-8.034-6.379,5.519-14.015-.483-0.93,2.735-2.607-.5-4.7.22-1.556-4.994-2.65-.789-7.991,1.627-0.163,5.179-20.38.1-8.155,3.111,2.316,6.606L661.9,376.3l-8.993,10.918-20.2-2.082-1.385,4.7-6.755-1.677-0.6,3L611.1,398.788l-2.316,8.752-11.835,2.692-0.888,2.181L593.48,427.16l-11.671,1.279-14.8.376,0.149-16.523L550.546,416.4l-3.985-3.971-2.706.917-7.132,2.969-5.164-2.067-11.224.54-3.495-4.219-1.03-.739-1,5.477-7.587-1.627L504,418.19l-2.792-.1-4.617,10.769,6.3,7.537-2.565,1.57-3.772,11.444,1.343,2.721,4.674,4.354,4.262,20.977-5.477.163-3.119,7.246-8.091.057-0.76,17.425,5.164,2.536,15.429,16.438,5.328,1.222,1.719-2.138,5.619,5.839,0.668,5.342-3.275,14.662-2.4,1.875-9.057-.682-1.4,7.842-13.333,9.057,0.568,5.761,5.036,6.99,9.362,7.16,8.951-.682,9.824-6.287,4.887,4.994,17.162-7.977,3.111-8.105-0.582-8.588,13.987-3.41L569.272,550l-7.949-17.787,0.114-3.054,5.15-3.232,11.906-17.439L581.07,510l0.6,8.439,5.867,9.228,1.456,8.183-3.68,10.556,2.259,5.562,8.659-2.344,4.994,2.635L615.65,548.7l6.549,4.177,4.525-3.992,3.119-8.091,8.965-1.371,5.633,2.152-1.236,26.93-4.234,4.248-14.818-1.6-7.395,8.73,2.472,7.48-11.11,16.146-5.228-5.981-2.941.334-7.047-5.313-2.941-.306-8.73,7.672L576.183,598l-9.618,9.654,0.739,2.721,0.114,0.192-0.142,9.142-3.829,11.5,2.912,15.358,6.258,10.726,17.2,0.6,6.564,5.477,10.947,0.668,0.334-1.4,2.067-5.328,5.036-.959,3.346-4.568,11.295-.831,9.2,11.337-1.194,8.645,2.735,5.164,2.721,19.592,8.46,2.621,5.853,6.187,1.776,8.254-4.887,7.246,0.746,2.884,11.657,8.425-2.053,8.446,0.525,8.425L663.315,758.7l1.6,6.855,21.5,7.842,10.655-3.189,1.293,2.607-2.912,7.743,5.15,6.066,0.029,11.295,7.217,9.057-4.582,3.58L704,816.288l-1.918,1.57,7.537,11.735-0.874,2.721L694.7,834.466l-1.513,5.185-7.878-3.743-12.1,7.523-3.68,6.45,10.25,4.291,19.925,1.151,2.515-3.438,0.9,2.01-5.136,10.961,0.391,2.01,3.41,14.293,9.007,7.658,15.9,3.523,4.631,3.566,5.228-2.124,2.912-5.122,7.132,16.786,4.205,7.643-1.939,4.816,3.58,9.618,16.317,16.26,5.761-.625,8.169-8.2,2.706-8.134,10.769-4.354,2.515-11.685,3.189-4.539,5.519-.611,1.776,2.152,6.13,5.839,5.505,1.456-3.175,7.686,4.66,1.627,7.366-.163,8.091,1.279L843.814,931l8.354-.739,1.776-1.79,10.57,5.519,2.33-1.79,5.413-5.939-1.236-11.4,2.565-11.138,8.794-5.9,7.231,4.731,2.927,4.98,8.155-2.387,0.611,14.442,4.774-3.04,4.568,7.1,13.141,5.285,13.8-1.428-3.175-10.975,1.428-11.976-2.5-8.5,4.923-13.888,5.164-2.706,4.12-7.991,2.735,0.789,11.394-7.452,15.677-5.548,0.014-.93-1.9-5.107,9.029-4.148-3.637-4.34,2.444-5.228-3.374-10.478,10.918-12.58-0.987-7.658-6.8-4.369-4.276-.362-0.5-2.287-3.8-9.114-7.309-25.516,4.859-10.712-5.953-5.981-3.1-7.8-4.425-6.535-14.541-14.946-15.969-6.052-7.842-8.24-4.688-1.968-2.444-8.169L901.155,695l-7.977-4.425-1.939-4.553-1.79-8.02-7.423-8.077Z" transform="translate(-24.797 -147.029)" fill="#d00" stroke="#000" stroke-width="2"/><text transform="translate(686.513 514.688)" font-size="150.764" font-family="DejaVu Sans" font-weight="700">5</text><text transform="translate(501.199 653.066)" font-size="150.764" font-family="DejaVu Sans" font-weight="700">4</text><text transform="translate(253.066 637.361)" font-size="150.764" font-family="DejaVu Sans" font-weight="700">3</text><text transform="translate(233.208 279.287)" font-size="150.764" font-family="DejaVu Sans" font-weight="700">2</text><text transform="translate(427.945 420.816)" font-size="75.22" font-family="DejaVu Sans" font-weight="700">1</text></svg>