<svg xmlns="http://www.w3.org/2000/svg" width="925.39" height="782.159" viewBox="0 0 925.39 782.159"><title>Députés sortants de Haute-Savoie en 2017</title><path d="M154.153,827.264l-13.225,4.355-6.894-8.3-0.65-14.718-14.455-.843-3.188-1.835,0.79-3.6-5.744-4.5-0.088-3.688,3.855-23.21-1.871-2.915-6.928-37.823-0.808-5.778-2.336-13.48,2.38-2.468-2.757-14.446,7.973-13.691,5.524-.878,10.24-18.477,14.253,8.817,4.856,8.062,1.186,9.677,9.106,0.018,0.035-11.267,21.076-14.288,5.83-4.048,13.84,2.74-0.518-6.208,3.258-5.234-6.481-21.093-3.758-5.866,0.614-6.964-0.9-3.513,9.519-5.2,9.624,6.174,17.853,0.176,7.271-.272,4.391-5.9,6.876-1.905,15.333,10.442,3.328-1.677-1.906,6.771,3.907,5.9,3.469-.94,1.405-7.069,6.463-1.37,3.021,17.581,7.7,6.806,9.791-2.573,3.31-.562-1.546-9.809,3.056-17.616,5.365-1.027,10.345-15.183,0.913-7.271,15.315-8.957,16.65-5.9-0.413-6.964,5.524-8.817-0.72-6.744L362.879,550l5.076-4.154,21.418,7.736-5.673,4.443,0.176,3.653L392.42,581.1l1.1,4.084,12.707,7.166,10.529-3.416,10.942,0.6,35.759,25.8,2.863,14.788-16.07,20.944,11.89,23.965-5.559,9.449-16.606-7.324-17.387,24.729-20.856,15.588-7.508-.685-8.887,16.571,14.472,2.951,5.778,9.431-1.027,7.131-6.366,9.106-0.843,10.837,4.206,5.234-1.6,10,17.923,15.9,0.72,4.031-0.922,3.583-3.635.65-8.711-5.971-7.07.535L386.1,819.746l-1.027,11.065-13.55,3.978-5.629-21.251-6.674-16.281-10.8.325-13.69-16.325-7.236-13.19-5.866-20.927-5.287-15.386-14.612-29.085-3-2.055-1.045,22.349-1.493.035,0.825,2.863-7.526,1.677-0.974-2.266,3.021-6.3-5.954-7.868-9.624,9.484-6.762-.36-0.957,6.191-9.624-.448-5.181-4.285-5.383,8.026-4.646,4.663-13.225,2.485-8.887-3.258L220.207,749.3l6.191,14.577,3.222,15.64-5.383,3.117-7.613-6.121-7.561,6.569-8.887,13.19-0.465,3.328,16.229,4.321,0.176,3.513-14.832,8.58-21.41-2.643-2.52,8.9-11.065,2.38-10.345-4.373Z" transform="translate(-58.858 -180.544)" fill="#06c" stroke="#000" stroke-width="2"/><path d="M179.919,813.442l-2.537,8.9-3.513,19.074,16.773-1.335,1.221,13.928-5.937,8.641-0.14,6.841,15.1,5.849-0.342,16.624,10.257-3.241,25.915,12.259,5.954-9.555,3.618-1.08,16.361,8.834,14.287-2.011,0.773,9.862,3.434-.632,0.614-3.469,0.4-27.838,17.291,12.777,6.226-3.926,2.231-6.586,21.374,6.007-0.289,6.622,9.362,2.538-0.756,9.774,4.1,5.094,9.467,0.992-2.713,13.05-1.493,20.619,4.663,8.606,3.038-6.3,9.265-4.154,1.238-6.893,10.38,5.33,2.573,1.317L376.681,961.4l10.459-2.59,10.722,1.633,1.888-3.258,14.683,1.959,20.637-8.694,14.507,0.053,14.033-32.913,3.67-5.954,0.017-.184,1.353-3.021-3.926-5.252,17-16.861,3.136-10.512-8.457-5.559,22.35-18.126L518.8,833.534l3.31-1.695,5.673-17.651,8.983-11.838,4.136-8.729-3.477-5.673,6.788-11.32-2.556-6.366,6.4-3.776,9.343-20.856,17.563-7.219,11.715-19.346,3.276-7.359,11.495-9.3,7.051-20.356,11.539-13.12-12.382-8.421L597.246,641l-14.612,3.117-10.96-2.775-22.911-18.881-1.15-.176-29.8,31.658-3.205,6.727-7.219,16.966,2.916,6.516-5.287,9.484-11.337-8.263-10.292,2.845-16.65,11.083L454.29,689l2.371-4.514-16.606-7.324-17.387,24.729-20.856,15.588-7.508-.685-8.887,16.571,14.472,2.951,5.778,9.431-1.027,7.131-6.366,9.106-0.843,10.837,4.206,5.234-1.6,10,17.923,15.9,0.72,4.031-0.922,3.583-3.635.65-8.711-5.971-7.07.535-12.163,12.97-1.027,11.065-13.55,3.978-5.629-21.251L359.3,797.265l-10.8.325-13.69-16.325-7.236-13.19-5.866-20.927-5.287-15.386L301.81,702.677l-3-2.055-1.045,22.349-1.493.035,0.825,2.863-7.526,1.677-0.974-2.266,3.021-6.3-5.954-7.868-9.624,9.484-6.762-.36-0.957,6.191-9.624-.448-5.181-4.285-5.383,8.026-4.646,4.663-13.225,2.485-8.887-3.258-1.081,15.693,6.191,14.577,3.222,15.64-5.383,3.117-7.613-6.121-7.561,6.569-8.887,13.19-0.465,3.328,16.229,4.321,0.176,3.513-14.832,8.58Z" transform="translate(-58.858 -180.544)" fill="#06c" stroke="#000" stroke-width="2"/><path d="M468.615,388.664l1.317-14.542,3.469-6.692,14.287-4.856,8.509-10.02,19.811-8.984,6.71,7.254,8.149-6.516,7.719,0.632,0.483,0.176,4.7-4.769,5.2-16.79,16.308,1.6,7.7,10.257-3.907,9.572,1.493,3.117,5.164,10.037-5.489,13.691-0.105,4.013,3.758-.07,7.868-7.482,10.74,0.272L598.13,390l17.406,0.14,5.725,9.5,0.377,7.482-6.068,8.852-2.731,14.033L597.4,439.651l-14.2,4.189-13.55-5.252-5.147,5.286-2.556,2.758-0.184,11.153,16.124,28.83,22.077,20.479L610,509.184l10.257-1.783-4.119,6.261,5.972,9.449-1.062,7.429-2.828,8.9-5.348,3.416-7.016-.615-6.209-1.695-9.722,2.863-5.744,11.969-0.36,3.724,7.508,7.9-8.8,24.51,3.293,6.622-21.954,14.542L553,616.153l-4.206,6.384-1.15-.176-29.814,31.658-3.205,6.727-7.2,16.966,2.916,6.516-5.3,9.484-11.319-8.263-10.309,2.845-16.641,11.1-12.452-10.327,2.353-4.514,5.559-9.449-11.873-23.965,16.07-20.944-2.863-14.788-35.776-25.8-10.942-.6-10.512,3.416-12.707-7.166-1.1-4.066-8.545-19.434-0.176-3.636,5.664-4.461-21.41-7.736-5.093,4.171-8.658-.123,0.738,6.744-5.524,8.817,0.4,6.964-16.641,5.9-15.315,8.957-0.922,7.271-10.345,15.183-5.348,1.045-3.073,17.616,1.563,9.809-3.31.545-9.791,2.573-7.7-6.788-3.021-17.6-6.463,1.37-1.405,7.069-3.469.94-3.926-5.9,1.923-6.762-3.328,1.66L244.01,604.957l-6.876,1.888-4.391,5.9-7.288.272,3.31-5.708-13.067-5.3-1.317-3.4,10.977-13.8-0.536-6.1,0.272-17.2-1.888-3.021-10.169-1.765,4.971-15.6,7.412-6.4,9.827,3.188,10.081-2.731-1.282-4.171,13.638-3.363,4.136,5.058,12.883,4.891,0.465,3.5,8.334,7.868,12.988-8.351,3.451-4.285-0.035-.535,16.808-21.682,3.346-1.115,6.911-12.163,6.191-7.886,2.09-14.288,7.148-7.956,6.657-12.312-1.651-3.109,9.809-11.179L373.678,436l14.358,3.811-2.266,5.664L400.9,460.157l13.717-2.38,6.841,2.4,0.5-9.572,19.574-2.793,19.759-6.384,4.988-24.325,0.2-3.293-1.546-6.727,4.049-13.26,0.756-2.248Z" transform="translate(-58.858 -180.544)" fill="#06c" stroke="#000" stroke-width="2"/><path d="M365.088,412.832l-21.014,16.79,1.659,10.907-9.722,10.6-16.826,6.841-4.25,5.629-8.694,5.778-6.551.922-21.506-5.3-4.575-5.813-25.844-.36-5.954,3.583L240.89,469.8l-9.318,5.146-13-6.6-18.213-1.677-7.166,1.712-2.661,6.876L173.314,483.8l-0.913-4.479-8.1,4.426-6.174-.7-6.744.685-5.629-3.275-10.134,9.16-7.464,2.986-2.828.922-5.076,10,5.252,13.348-2.432,10.854-17.7,1.73-7.684-1.22-13.26-17.1-6.4-3.346-6.657,2.933,0.7,14.033L64.4,537.1,61.919,556l4.136,7.051-4.935,11.267,1.747,11.7,2.213,9.827L59.986,604.5l3.794,8.167-0.272,15.868,1.581,7.236,16.229,15.71L80.4,662.565l1.51,10-2.415,9.844-4.733,4.645,4.5,0.465,3.31,6.042,19.723,0.483,7.992-13.691,5.524-.878L126.024,661l14.253,8.817,4.856,8.062,1.2,9.677,9.089,0.035,0.053-11.284,21.058-14.288,5.83-4.031,13.857,2.731-0.536-6.208,3.258-5.234-6.481-21.093-3.741-5.866,0.614-6.964-0.913-3.513,9.519-5.2,9.642,6.174,17.836,0.176,3.31-5.708-13.067-5.313-1.335-3.381,10.977-13.822-0.518-6.086,0.272-17.2-1.906-3.021L213,556.694l4.971-15.6,7.395-6.4,9.827,3.188,10.1-2.731-1.3-4.171,13.656-3.363,4.136,5.058,12.883,4.874,0.465,3.513,8.334,7.868,12.988-8.351,3.451-4.285-0.035-.535,16.808-21.682,3.346-1.115,6.911-12.163,6.191-7.886L335.2,478.6l7.166-7.939,6.657-12.312-1.651-3.109,9.809-11.179,16.448-8.079L388,439.776l-2.283,5.673,15.148,14.683,13.717-2.38,6.841,2.4,0.483-9.572,19.583-2.793,19.759-6.384,4.971-24.325,0.22-3.293-1.546-6.727,4.049-13.26,0.756-2.248-1.062-2.863,1.317-14.56-5.594-4.611-4.531-24.1-1.651-3.188-6.788-1.238-2.661-6.4-10.74,2.371-10.6-2.143-2.108,1.66,0.017,7.306,10.152,3.021,0.483,13.515-10.96,18.951-13.514,10.459-20.444,9.862-11.3.106-2.775,2.643Z" transform="translate(-58.858 -180.544)" fill="#06c" stroke="#000" stroke-width="2"/><path d="M804.987,402.768l13.1-22.85,0.825-7.508,8.817-6.893,4.751-10.222,10.652-10.02,6.771-25.23-0.14-3.794-6.1-9.282-3.346,1.747L825.888,297.7l-6.639-13.225-16.088-9.019-3.53-10.547-7.07-1.905-9.142-15.93-2.537-13.91,8.185-7.017,7.183-.615,6.744-8.58,3.907-5.3-3.222-8.966,2.52-6.226-11.337.992-24.273-10.24-30.139-5.664-3.926.237-54.648,2.371-14.253,2.09-4.154.2L629.3,191.921l-18.011,3.688L588.1,184.816l-20.189,11.03-3.451,14.718-4.839,5.937-23.894,12.487-10.345,4.5-11.285.579-7.166,8.729-3.829,1.6-6.314,9.449-3.777.36-17.274-7.684-10.064-21.234-4.154-2.45-12.5-2.178-8.1,3.117-10.064,2.81-8.237,7.807L412.1,245.058,406.15,258.5l-8.369,12.9-5.918,18.108-6.622,3.724,5.252,4.1,2.608,9.827-0.58,3.724-9.3,6.4,0.14,7.544L400.17,349.5l2.371,2.933,3.513,1.317,6.71-3.328,12.452-14.016,2.108-1.651,10.6,2.143,10.757-2.38,2.643,6.41,6.806,1.22,1.634,3.188,4.548,24.1,5.594,4.611,3.451-6.692,14.287-4.856,8.509-10.02,19.829-8.984,6.691,7.254,8.149-6.516,7.719,0.65,0.483,0.176,4.7-4.786L548.94,323.5l16.29,1.6,7.7,10.24-3.907,9.589,1.51,3.109,5.147,10.037-5.471,13.691-0.123,4.031,3.758-.07,7.868-7.5,10.757,0.29,5.612,21.419,17.423,0.14,5.708,9.5,0.377,7.5,2.231,10.907-5.164,9.519,1.678,3.021,10,4.189,2.985,6.771,8.386-5.33,7.376-.685,6.068-16.606,9.054-5.611,10.169,2.073,9.862-4.409,7.885,6.428,17.238-4.531,3.109,1.765-0.22,1.22L722.4,430.8l1.15,17.923,14.938,20.461,7.131-1.168,5.3,4.935,10.055-10.889,10.564,1.616,12.523-7.254,11.117-1.1,2.319-10.74,10.309-14.63,3.451-5.9-3.6-13.638Z" transform="translate(-58.858 -180.544)" fill="#06c" stroke="#000" stroke-width="2"/><path d="M923.935,588.623l-8.8-20.549-9.809-4.935-1.317-10.793-10.529,1.6-9.362,11.61-16.105,8.711L856.572,565.5l5.918-17.836,7.087-8.562-3.706-21.778,6.042-9.625,2.968-18.555-33.186-4L828.3,479.177l-14.56,3.135-4.25-5.849-9.177-3.794L795.239,455.4l-11.1,1.1-12.523,7.254-10.564-1.616-10.064,10.889-5.3-4.935-7.131,1.168-14.938-20.461-1.15-17.941-10.134-14.99,0.2-1.22-3.109-1.765-17.238,4.531-7.885-6.446-9.862,4.409-10.169-2.055-9.054,5.594-6.068,16.624-7.359.685-8.4,5.33-2.968-6.771-10.02-4.189-1.659-3.021,5.147-9.519-2.213-10.925-6.086,8.852-2.731,14.033-15.439,9.642-14.182,4.189-13.55-5.252-5.164,5.286-2.537,2.758-0.2,11.153,16.124,28.83L600,507.094l10.02,2.09,10.275-1.783-4.119,6.261,5.954,9.449-1.045,7.429-2.828,8.9-5.365,3.416-7.016-.615-6.209-1.695-9.722,2.863-5.725,11.969-0.36,3.724,7.5,7.9-8.8,24.51,3.31,6.622-21.954,14.542-10.872,3.469-4.206,6.384,22.894,18.881,10.96,2.793,14.612-3.135L607.733,660.6,620.1,669l-11.539,13.12-7.051,20.356-11.495,9.3-3.276,7.377,3.689,6.349L603,732.09,620.74,736.1l1.871,6.911,8.658,6.6,1.651,3.328-4.663,5.418,1.15,10.793-24.527.483,6.6,13.375,6.385,24.8,9.572,11.407,2.661-2.38,6.446,2.38,5.269,16.176,10.74,8.817,1.871-2.9,16.983-1.01,9.379-4.321,16.685-.106,2.608,7.148,18.969,23.7-0.922,18.485,8.527,11.267-6.586,16.4,16.667,5.629L757.987,893.4l1.853-7.219,11.012-14.99,17.923-3.311,15.552-8.694,1.027-10.907,5.83-9.467,0.22-11.284-3.689-6.226-1.783-3.135,12.628-21.734,13.84-3.258,10.24,3.091,5.646,4.926,3.293,6.674,3.117-2.2,2.731-15.043,4.374-5.954,21.612,5.664,21.831-5.146,12.831-13.963,28.339-10.837,2.713-2.678L953.95,747.3l4.462-22.095,9.282-12.18,15.473-10.7-4.443-29.84L961.3,658.316l0.123-7.306,5.383-9.379L958.526,624.6l-16.589-8.562-4.215-14.665Z" transform="translate(-58.858 -180.544)" fill="#06c" stroke="#000" stroke-width="2"/><text transform="translate(251.247 532.723)" font-size="163.118" font-family="DejaVu Sans" font-weight="700">1</text><text transform="translate(376.167 632.776)" font-size="152.631" font-family="DejaVu Sans" font-weight="700">2</text><text transform="translate(376.167 408.471)" font-size="163.118" font-family="DejaVu Sans" font-weight="700">3</text><text transform="translate(28.648 462.899)" font-size="143.973" font-family="DejaVu Sans" font-weight="700">4</text><text transform="translate(563.253 187.66)" font-size="186.379" font-family="DejaVu Sans" font-weight="700">5</text><text transform="translate(626.919 486.645)" font-size="186.379" font-family="DejaVu Sans" font-weight="700">6</text></svg>