<svg xmlns="http://www.w3.org/2000/svg" width="643.177" height="973.411" viewBox="0 0 643.177 973.411"><title>Députés sortants de l&amp;apos;Ardèche en 2017</title><path d="M439.187,939.291l-4.372-4.1-5.91-.3-1.693-5.49-3.71-4.239L409,926.956l-11.356-3.047-2.591-8.25,2.127-8.206-5.218-.994-4.386,3.577-1.538-5.064,3.047-11.194,3.592-4.445-2.054-5.417,6.874-5.674,5.792-1.34,1.826-5.373L417.2,863.05l3.275-4.99-3.68-11.445L402.151,842.3l-2.657-5.1,2.834-1.119,4.313-17.509,7.176-5.638,8.9-1.384-0.994-8.883,10.591-5.218-8.729-7.213,6.594-15.655,8.685-2.157,12,8.611,5.188-13.932-1.391-12,1.995-2.3,3.18-4.688-6.9-8.523,2.009-.846-0.5-4.283,2.834-8.655,14.4-2.716,3.047-17.568,3.8-4.659-3.018-4.4,2.23-17.737-2.009-2.1-5.336,1.222-2.628-5.365,0.332-5.373,5.373-1.671,5.071,2.384,5.13-6.381-0.5-.1-8.022-6.7,7.176-7.919-2.414-8.295-6.94-9.472-14.477-1.42-6.9,3.849-8.854.015-1.826,2.34-2.561-1.509-11.7-20.689-0.147-.559L417.643,600.7l-2.5-7.176-8.1-2.914-8.434,1.053-8.31,7.846-8.427.736L376.508,598l2.458-1.464-3.982-13.27L382.5,562.48,366.933,554l-10.539-10.62-5.718-.92-2.2-2.2-4.6-2.414-5.248,1.384,2.819-11.5-8.795-7.86,12.52-26.51-4-5.1-5.866-.449-0.633,8.751-5.4,2.326-14.418-8.869-0.721-2.878-12.5,16.891L293,503.314l-5.071,6.594-13.874-2.547-2.4,1.509-4.843-2.944-5.52.979-2.988-2.4-6.7-4.6-1.9-5.049-1.523-8.743L235.81,478.32l-7.691-15.758-4.9-.184,0.39-5.667-5.263-6.123,0.8-5.55,3.032-19.261,4.615-3.363-1.038-1.825,9.274-11.857,7.33-5.263,4.541-25.907,7.132-4.357,13.351,7.014,14.271-6.035,9.274-.088,4.328-3.754,8.28-1.884-0.721-5.674-3.71-5.564,2.834-1.148,1.42-12,8.1-3.739,3.481,8.28,8.7,0.361,5.91,6.8,12.291-1.479,8.655,3.032,10.908,4.511,15.191,2.068,8.022,16.442,3-.015,11.584,9.3L401.916,395l8.1,3.26,4.482,7.558,5.086,3.077,24.376-1.023,6.454,0.015,1.406-3.695,10.591-4.416,14.234-1.008,6.064-5.336,6.889,0.361,10.252,3.937,2.79-2.024,11.3-10.238,7.964,9,9.082,1.42,9.2-7.242,8.221,8.31,7.831,3.827,5.218,14.087,6.7,5.55,3.812,7.86-4.136,17.163,4.872-3.136,12.158,7.434,11.282,0.39,0.53,2.863,12.7-4.843,8.081,1.693,9.156-3.062,11.99,17.421-3.768,8.081,0.1,8.972-4.357,3.665-8.655,1.612L620,494.739l0.765,11.3-8.192,2.289-5.064,2.171,0.449,5.608-2.34,1.751-1.075,8.766-7.434,8.78L586.4,540.075l-2.974,4.556-0.456,2.1,5.188,10.252-6.138,9.789,2.907,14.477-0.088,2.657,0.132,12.321,4.843,7.949,6.02,23.89,0.39,5.564L592.8,641.2l1.45,8.111L590.4,659.916l-9.274,10.451L577.6,680.745l-7.514,14.55,2.37,1.31-1.9,10.65-5.2,2.532-13.756,3.423-2.79,5-1.067,11.224-5.623.4-2.054,14.536,6.587,9.141,2.274,1.781-2.171,8.339-6.271,6.9-3.26,12.092,0.95,9.288,6.337,10.753,0.544,9.369-3.224,20.689-3.754,4.63-8.324,3.334-5.55,5.954-2.546,20.056,0.817,7.073-9.575,22.654-1.384,21.675,1.708,12.306,0.648,3.864,1.612,30.588-0.515,3.091L513,986.24l-10.362-12.791-10.032,6.123-6.984-11.415-4.055-.618-15.456-7.86-2.672,1.222-8.037-4.21L448.192,943.1l1.34-2.775,0.832-1.42Z" transform="translate(-19.456 -19.114)" fill="#f6e1b9" stroke="#000" stroke-width="2"/><path d="M472.756,128.361l-14.874-2.8-11.555,4.482-3.938,4.754-11.342-4.387-7.846,7.75-9.259.736-4.784-3.768,3.621,11.57L411,152.575l-2.959.773-2.746,4.659,2.26,13.513-4.99,13.815-7.632,4.026-1.384,5.763-6.285,6.123L384.414,218.8l1.766,8.582,5.91,6.337L393,239.451l-11.489-1.31-1.052,2.7,2.959,4.99-3.5,1.987-5.365-7.147,1.038-11.43-11.474-9.259-8.354,1.192-13.3-4.328-2.5,14.448,16.965,11.6-1.6,8.641-7.846,3.695-8.206-2.929-7.647,4.269,2.26,10.679-2.642,1.119-2.289,7.949-5.373,1.972,0.846,8.7,8.125,8.729,5.976-.544,5.306,2.79,1.826,8.913-1.612,5.866-14.234,2.517-2.988,5.034L305.9,318.284l-11.511,8.751-5.365,20.092,4.784,7.573,5.351,2.547,2.819-1.133,1.42-12.019,8.1-3.739,3.481,8.295,8.7,0.361,5.91,6.786,12.291-1.479,8.655,3.032,10.922,4.526,15.176,2.068,8.022,16.427,3-.015,11.584,9.318,2.716,5.351,8.1,3.275,4.482,7.558,5.1,3.077L444,407.9l6.454,0.015,1.406-3.695,10.591-4.4,14.249-1.023,6.05-5.321,6.889,0.346,10.252,3.952,2.79-2.039,11.3-10.223,7.964,9,9.082,1.406,9.214-7.227,8.206,8.31,7.831,3.827L561.5,414.9l6.7,5.564,3.812,7.86-4.129,17.163,4.872-3.136,12.144,7.434,11.282,0.376,0.53,2.863,12.7-4.828,8.1,1.685,9.141-3.047,12,17.406,4.24-4.2L645.7,452.4l-4.342-16.17,2.024-5.623,6.911-5.925,1.538-5.851,9.686-18.054-3.26-7.029-4.445-10.392-8.626-8.133-4.63-10.907-0.332-1.435-0.449-12.549-5.866-7.316-3.606-4.887,5.432-11.01-0.8-3.017-2.628-4.857,1.28-8.008,7.6-7.39,4.151-8.133-4.468-7.419-11.114-3.952-4.18-4.055-0.832-5.064,1.671-4.843-0.544-12.394-2.863-5.307-6.4-6.624-6.727-9.759-0.147-5.9,0.184-1.914L625.215,208.1l0.088-1.671-2.892-4.556-7.662-3.533-1.008-8.582,0.906-7.831-3.65-7.1,0.014-5.159,3.967-6.558-5.638-18.054-0.994-18.4,4.512-11.445,0.721-6.771-0.243-2.686L613.263,89.6l-5.623-9.5L595.783,69.856,583.692,57.683l-0.876-11.459,0.147-1.737,1.435-5.321,2.73,0.449,3.783-3.827-0.765-5.461L579.8,20.191l-18.871,3.437-1.693,6.425L546.841,34.52l-3.3,4.085-11.194-1.133-26,17.87,2.892,6.484L503.4,65.351,492.113,69.5l0.751,9.053,3.71,4.747-0.817,2.944-6.08-.53-8.31,2.274-4.541,14.764,4.468,3.481,4.268,4.718v9.111Z" transform="translate(-19.456 -19.114)" fill="#ff8080" stroke="#000" stroke-width="2"/><path d="M338.651,539.221l2.834-11.5-8.795-7.846,12.52-26.525-4-5.086-5.866-.456-0.633,8.751-5.4,2.34-14.418-8.883-0.736-2.878-12.49,16.891-8.626-.721-5.071,6.594L274.1,507.375l-2.4,1.494-4.843-2.929-5.52.979-2.988-2.4-6.7-4.615-1.9-5.049-1.523-8.743-12.379-7.779-7.706-15.758-4.887-.2,0.39-5.652-5.277-6.123,0.817-5.564-8.324,4.041-5.969,7.029-12.365-.059-11.842-3.577-5.954.155-12.85,6.712-6.47.449-5.159,1.87-7.809-3.849-11.209-.618-6.366,5.822-2.216,13.4-3.224,4.526,5.351,9.936-4.585,3.754-7.617-3.754-6.558,9.73-5.652-6.845-2.907-.317L95.275,498.5l3.562,8.449-3.29,4.136-9.111-7.507-2.591-8.434-11.04,4.769-0.663,2.929-4.784,20.21L55.6,540.016l-0.317,2.76,4.254,4.18,0.361,1.177-7.043,2.716-8.427,3.062-1.251,8.626-2.642,1.479-10.907-4.585-2.686,1.42-6.05,9.965,8.206,3.864,0.935,2.907L21.3,592.655l-0.044,6.079,4.239,4.343-0.155,9.045,8.685,0.213,0.648,2.892-8.081,12.423,8.582,19.231,5.9,6.594,0.618,6.742-1.023,23.75,7.816,3.812,0.89,2.863-0.964,13.469,7.463,4.4-1.023,5.851,4.21,7.75,15.772-.876,7.588,16.744,2.988,14.161,8.523,15.581L92.39,770.3l2.671,1.42,3.577,11.584,0.228,24.133,6.845,13.012L116.3,826l5.49,6.285,8.28,0.317,5.2,10.907-4.754,11.025,10.62,5.365,8.537,8.508-5.623,9.759-8.221-1.707-2.458,1.568,0.846,8.339L140,891.5l-0.574,5.387,3.15,7.345-2.142,4.688-1.509,19.3-9.715,5.991,7.721,9.546,2.127,1.42,5.431-2.488,8.567-7.75,18.79-4.269,3.481,2.671,5.233,0.787,5.608-6.83,9.347,12.048,0.751,9.288,11.791,1.053,10.194-4.887,5.365,15.743L242.26,969.9l11.055,12.217,6.94,6.094,8.611,3.194,9.3-6.4,9.531-17.826-0.39-20,8.582,0.169,10-6.05,6.97-9.3-2.186-5.2,27.784-1.6,10.554-6.05,5.365,2.4,4.224,8.147-0.56,5.969-6.168,20.468,1.067,8.883,6.41,5.623,17.782-1.325,2.274,5.564,3-.088,8.008-12.637-2.79,1.023,1.45-32.685,2.672-5.387,5.88-1.237-2.591-8.25,2.127-8.221-5.218-.979-4.386,3.562-1.538-5.064,3.047-11.187,3.592-4.445-2.054-5.417L397.5,878.2l5.778-1.354,1.826-5.373,12.092-8.464,3.275-4.99-3.68-11.445-14.646-4.328-2.657-5.086,2.834-1.133,4.313-17.509,7.176-5.638,8.9-1.369-0.994-8.9,10.591-5.218-8.729-7.213,6.594-15.655,8.685-2.157,12,8.626,5.188-13.932-1.384-12.019,1.987-2.289,3.18-4.688-6.9-8.537,2.024-.831-0.515-4.3,2.834-8.655,14.4-2.7,3.047-17.568,3.812-4.674-3.032-4.387,2.23-17.752-2.009-2.1-5.336,1.222-2.628-5.365,0.346-5.365,5.365-1.671,5.071,2.384,5.13-6.381-0.5-.1-8.008-6.7,7.161-7.934-2.414-8.295-6.94-9.472-14.477-1.406-6.9,3.849h-8.854l-1.826,2.355-2.561-1.509-11.7-20.7-0.132-.544-8.868-10.3-2.488-7.161-8.111-2.914-8.434,1.038-8.294,7.86-8.434.736-5.351-2.245,2.458-1.464-3.982-13.27,7.507-20.784L366.95,553.95l-10.539-10.62-5.7-.92-2.216-2.2-4.6-2.414Z" transform="translate(-19.456 -19.114)" fill="#ff8080" stroke="#000" stroke-width="2"/><text transform="translate(431.62 289.893)" font-size="156.205" font-family="DejaVu Sans" font-weight="700">2</text><text transform="translate(421.314 551.562)" font-size="156.205" font-family="DejaVu Sans" font-weight="700">1</text><text transform="translate(162.072 713.19)" font-size="156.205" font-family="DejaVu Sans" font-weight="700">3</text></svg>