<svg xmlns="http://www.w3.org/2000/svg" width="1068.931" height="994.641" viewBox="0 0 1068.931 994.641"><title>Locateur circonscriptions législatives 2010 Gironde 07</title><polygon points="372.49 133.622 374.156 130.788 383.156 132.288 387.156 129.705 393.99 129.705 399.49 131.955 408.156 133.622 413.823 136.622 419.823 138.288 421.49 133.622 429.49 130.122 436.823 134.455 449.823 139.788 453.823 146.455 457.99 137.622 461.323 133.122 463.823 130.788 466.49 127.122 474.323 123.788 477.59 121.371 477.156 121.122 470.156 108.455 461.49 95.455 446.49 89.455 439.49 78.122 433.49 78.122 411.49 52.455 402.49 47.122 402.49 34.122 405.823 34.122 409.823 35.788 409.49 28.788 415.49 34.788 414.823 26.455 416.823 24.122 407.156 16.122 407.823 4.455 408.99 0.788 399.323 4.038 389.823 10.955 387.073 21.705 373.323 37.872 363.573 50.622 355.323 63.872 360.823 83.622 359.073 91.622 354.073 106.622 350.323 117.872 350.323 128.788 357.99 131.788 372.49 133.622" fill="#f6e1b9" stroke="#1d1d1b" stroke-miterlimit="10"/><path d="M382.379,229.667l23,3.5L409.212,239l4.833,6.333,18.667,4.833,12.667,8.5h5.5L459.712,248l3.667-2.833,5.5,2.167,6.667,14.333,6.833,2.833,10.333-2.833,4.667-7.417v-6l-3-2.875L495.5,241.5l-2.25-4.875-0.875-3.25,4.375-3.125s9.375-6.875,9.75-7.125a14.561,14.561,0,0,0,1.5-2.5l7.875-5,8.5-.625-3.5-8.375,2.625-4.375,7.25-3,1.125-5.375h10.875l7.7-.883-5.079-14.242L534.045,159l-14.333-17-16-13.667-10.566-6.083-3.267,2.417L482.045,128l-2.667,3.667-2.5,2.333-3.333,4.5-4.167,8.833-4-6.667-13-5.333L445.045,131l-8,3.5-1.667,4.667-6-1.667-5.667-3-8.667-1.667-5.5-2.25h-6.833l-4,2.583-9-1.5-1.667,2.833-14.5-1.833-7.667-3V161.25l-2.5,24.5-7.737,37.872,12.237,3.711Z" transform="translate(-15.556 -0.878)" fill="#f6e1b9" stroke="#1d1d1b" stroke-miterlimit="10"/><path d="M507.545,277.167l4,7.5,11,3.333,10.833,1,9.667,3,1.333,10.667,1.5,10.333,5.5,2.083L554.545,318l8.833-.833s8.286-1.848,14.728-3.3l-0.061-.368-11.917-34.25-3.75-36.75-4.25-28-7.671-21.508-7.7.883H531.879l-1.125,5.375-7.25,3-2.625,4.375,3.5,8.375-8.5.625-7.875,5a14.561,14.561,0,0,1-1.5,2.5c-0.375.25-9.75,7.125-9.75,7.125l-4.375,3.125,0.875,3.25,2.25,4.875-1.125,3.875,3,2.875v6l-4.36,6.93,5.527,6.82Z" transform="translate(-15.556 -0.878)" fill="#f6e1b9" stroke="#1d1d1b" stroke-miterlimit="10"/><path d="M355.641,360.833l10.237,3.667s6.833,3.833,7,4.333,13.667,10.5,13.667,10.5l5.333,6.5,9.833,2,8.833-5,6.5-2.667s10.333,1.5,10.833,1.667a15.717,15.717,0,0,0,3.333-.5l5.833-11,10.333-7,4.167-4.5L465.879,360l8.167,6.333,3.333-.167,10.5-11,3.5-6,5.167,2.333,5.833,5,3.167,2,4-1.833,11.833-.333V346.167l1.167-3.5,5.333-3.333,7.5-4.5L548.212,334l4.5-11.167,0.592-5.976-1.926-1.774-5.5-2.083-1.5-10.333L543.045,292l-9.667-3-10.833-1-11-3.333-4-7.5-9-9.167-5.527-6.82-0.306.487L482.379,264.5l-6.833-2.833-6.667-14.333-5.5-2.167L459.712,248l-8.833,10.667h-5.5l-12.667-8.5-18.667-4.833L409.212,239l-3.833-5.833-23-3.5-14.5-2.333-12.237-3.711-1.763,8.628-5.25,34.25-6,28-3.75,36.5-2.25,27.75-0.035.175,9.619,1.908h9.429Z" transform="translate(-15.556 -0.878)" fill="#f6e1b9" stroke="#1d1d1b" stroke-miterlimit="10"/><polygon points="324.823 651.122 333.431 648.328 330.156 648.122 336.156 639.788 307.823 634.788 304.156 647.122 303.39 653.419 311.323 652.455 324.823 651.122" fill="#f6e1b9" stroke="#1d1d1b" stroke-miterlimit="10"/><polygon points="407.323 712.372 408.323 703.622 412.573 703.622 416.073 696.622 416.073 687.622 420.823 687.622 419.573 683.872 419.573 677.622 414.323 670.122 411.823 670.122 409.823 670.122 403.823 663.372 403.823 656.872 400.573 649.788 399.064 648.684 399.156 649.122 392.156 649.122 385.156 646.788 377.823 651.122 333.431 648.328 324.823 651.122 311.323 652.455 303.39 653.419 300.323 678.622 280.323 705.122 269.323 723.622 269.323 741.622 271.823 768.622 353.323 748.122 358.823 731.622 376.823 744.622 395.416 744.264 401.073 728.122 407.323 712.372" fill="#f6e1b9" stroke="#1d1d1b" stroke-miterlimit="10"/><path d="M348.629,529.25l20.25-5.25,13.75-3.25,16.75,3.25,5.75-16,12,8,8,7.25,33.5-3.125,4-6.375h10.5l10.75-2,2.75-13.25-1.5-10h11.5l10.75-9.5,5.75-19.5,14.75,6,3.25-13,1.5-6.75,7.75-1L548,434.625h8.25l9,4.875,3.375,3.5,8.75-6.625,20.125-6.75L603.879,418l4.625-3.5,2.625-6.875,10-2.25-2.25-6.5-4.5-4.125L611.5,390l-3.625-1.5-1-3,4.447-.41-8.114-9.924-3.167-11.333-11.5-10-2.167-12L580.045,325.5l-1.939-11.632c-6.442,1.45-14.728,3.3-14.728,3.3l-8.833.833-1.241-1.143-0.592,5.976L548.212,334l-12.833.833-7.5,4.5-5.333,3.333-1.167,3.5v10.167l-11.833.333-4,1.833-3.167-2-5.833-5-5.167-2.333-3.5,6-10.5,11-3.333.167L465.879,360l-14.333-1.167-4.167,4.5-10.333,7-5.833,11a15.717,15.717,0,0,1-3.333.5c-0.5-.167-10.833-1.667-10.833-1.667l-6.5,2.667-8.833,5-9.833-2-5.333-6.5s-13.5-10-13.667-10.5-7-4.333-7-4.333l-10.237-3.667h-9.429l-9.619-1.908-7.715,38.325-3.5,47.25-9.75,54-6.06,33.75h20.31Z" transform="translate(-15.556 -0.878)" fill="#f6e1b9" stroke="#1d1d1b" stroke-miterlimit="10"/><polygon points="415.49 731.122 435.49 717.122 447.156 711.788 456.156 705.788 456.156 699.372 462.156 692.788 465.49 688.122 475.156 684.122 486.156 681.788 496.156 684.122 498.156 678.788 497.823 673.788 497.49 671.788 496.823 663.455 493.49 654.622 497.49 646.788 513.49 632.788 523.49 625.455 516.49 621.788 494.49 604.122 487.823 593.788 473.823 585.788 463.156 562.122 456.156 544.788 462.49 529.122 470.156 515.788 467.808 510.967 457.573 512.872 447.073 512.872 443.073 519.247 409.573 522.372 401.573 515.122 389.573 507.122 383.823 523.122 367.073 519.872 353.323 523.122 333.073 528.372 314.323 531.372 294.013 531.372 286.156 575.122 275.156 640.455 271.823 655.455 275.49 665.788 283.49 663.122 283.823 641.122 290.156 616.122 302.156 598.788 315.49 588.122 323.49 578.788 321.823 566.122 325.156 561.122 333.156 562.122 338.156 569.122 341.49 576.455 370.823 599.455 386.156 613.122 387.156 619.455 386.156 625.122 396.49 636.455 399.064 648.684 400.573 649.788 403.823 656.872 403.823 663.372 409.823 670.122 411.823 670.122 414.323 670.122 419.573 677.622 419.573 683.872 420.823 687.622 416.073 687.622 416.073 696.622 412.573 703.622 408.323 703.622 407.323 712.372 401.073 728.122 395.416 744.264 401.981 744.138 404.948 739.788 415.49 731.122" fill="#f6e1b9" stroke="#1d1d1b" stroke-miterlimit="10"/><path d="M602.629,266.75l5.25,0.75,3,3.75v6.5l10.25,3.25,3.25,5.25,8.5,1.5,6.25-1.5-1.25-13.5h6.25l15-4.75,6.5,1,3.75,5,13.5,3.75,17,2-0.5-6.75,0.5-8.5-3.25-6,4.25-6V243l2.5-3.75,7.5-4.5,9.75-7.75,1.279-6.466-3.9-2.409-7.375-1.625-7.5-2.625-8.875.25-5.375,3.25-6.25-.25s-3.375-3.625-3.75-3.25-6.75-1-6.75-1l-7.125-2.5-4.125-2.875-3-1.375-1.5-6V194l0.75-5.625,2.375-3.75-3.125-4L651.5,177.5l-2.625,1.375-3.5,5.625,1.25,4.375-0.5,3.125-5.25-.25-0.75-4.125-4.5,1.375-5.875,3.375h-6l-2.75,4-1-7.125-5.625-.5-13.125-4.125-9.75-.375-6.25.125,4.25,12.25,2,15.625,2.625,18.25,0.4,18.065,6.6,6.931Z" transform="translate(-15.556 -0.878)" fill="#f6e1b9" stroke="#1d1d1b" stroke-miterlimit="10"/><path d="M620.045,349.333l5.5-2,5.833-4.167,3.167,1.5,9,4.667,5.833-.833,7.667-3.167,4,2.167,2-3.667v-2.667l-1.667-4.333,2.167-1.5,0.5-3.5-2.333-2.5-2-3.333-3.167-3.667-0.5-4.333,4.167-7.167-9.333-4V301.5l6.667-5.167,3.333-11.833s4.632-5.018,9.493-10.224L669.379,274l-3.75-5-6.5-1-15,4.75h-6.25l1.25,13.5-6.25,1.5-8.5-1.5-3.25-5.25-10.25-3.25v-6.5l-3-3.75-5.25-.75-1.5-11.254-6.6-6.931,0.1,4.685,4,23.75,5,24.25,1,12.5-4,8.5,3.75,10.5s6.75,11.25,6.75,12c0,0.289.6,3.218,1.326,6.706l3.924-.623Z" transform="translate(-15.556 -0.878)" fill="#f6e1b9" stroke="#1d1d1b" stroke-miterlimit="10"/><path d="M688.712,407.333l3.333-3,2.333-3-4-8-1.667-5.5,3.333-4.5L694.712,377l1.333-1.667V358l-2.667-9-8.333,6.667L683.379,361H672.045l-1.673-19-7.768-6.015-1.226.849,1.667,4.333v2.667l-2,3.667-4-2.167-7.667,3.167-5.833.833-9-4.667-3.167-1.5-5.833,4.167-5.5,2-3.667,1.5-3.924.623c1.165,5.56,2.674,12.544,2.674,12.544l9.75,7.75,3.25,7.375,6.875,5.25,9.5,3.25L653,391.5l6.125,1.5,8.25,5.625L677,408s6.25,3.25,6.375,3.625a5.524,5.524,0,0,0,1.095.757l3.03-3.257Z" transform="translate(-15.556 -0.878)" fill="#f6e1b9" stroke="#1d1d1b" stroke-miterlimit="10"/><path d="M718.379,374.183L721.908,378h5.721l7.25,2.5,5.865,3.25,2.635,5h12.75l2.75,2.5h8.25l7.5-1.25-7.75-13.25-2-6.75,2.25-4.5,9.25-13,10.75-14.25-8.75-8h-5.5l6.229-6.583c-1.479.417-2.9,0.833-2.9,0.833l0.833-10.667s-7.833-7.833-8.5-7.833-10.333-4.5-10.333-4.5l-7.5,1.667-6.333,15-1.5,1.833-1.167-7.667L737.879,301.5l-2.167-11.167L735.441,285l-4-7.5-3.5-3.375s2.875-4.812,2.875-5,0.688-9,.688-9l2.75-7.437,1.625-5.187-1.25-2.625h-6.938l1.25-3.75,3-6.312-0.312-4.75-2.438-2.937-2.375-3.562-4.908-3.029L720.629,227l-9.75,7.75-7.5,4.5-2.5,3.75v9.5l-4.25,6,3.25,6-0.5,8.5,0.5,6.75-17-2-12.507-3.474c-4.861,5.206-9.493,10.224-9.493,10.224l-3.333,11.833-6.667,5.167v5.333l9.333,4L656.045,318l0.5,4.333L659.712,326l2,3.333,2.333,2.5-0.5,3.5-0.941.651L670.372,342l1.673,19h11.333l1.667-5.333L693.379,349l2.667,9v17.333l-0.062.078L702.629,376Z" transform="translate(-15.556 -0.878)" fill="#f6e1b9" stroke="#1d1d1b" stroke-miterlimit="10"/><path d="M781.879,406.75l8.75,10.25,5.5,8.5,10.25-5V439l-1.5,5h6.75l11.25,3,11.5,3.75h5.25l8.75-2.25,20.5-15-7.25-7.75-14.25-2.691,11.75-19.809-14.75-6.75,3.5-5.25,13.25-3.5,5.5-3,2.25-10.567L883.129,365l-9.581-7.644-0.481.456-5.25,2.813s-4.312,4.25-4.5,4.313S855,364.75,855,364.75s-5.938-2.5-6.125-2.5-10.375.25-10.375,0.25l-7.125-3.437-9.125-3.875-13.688-1.062L801.712,352l-7.167-7-2.833-10.5-1.333-8.5s-7.5-3.167-8-3.167c-0.25,0-1.792.417-3.271,0.833l-6.229,6.583h5.5l8.75,8-10.75,14.25-9.25,13-2.25,4.5,2,6.75,7.75,13.25-0.767.128,3.517,3.622Z" transform="translate(-15.556 -0.878)" fill="#f6e1b9" stroke="#1d1d1b" stroke-miterlimit="10"/><path d="M873.879,432l3.167-3.5,2-1.5,4.083,2.167,5.917,2.167,1.833-1,2-5.167h4l5.167,4.167,4,1.5,1.667-1s2.333-5,3.833-5.667,3.333,0.667,3.333.667l4.667,0.833L923.879,431l3.167-1.167,4-2.167v5.667l2.5,3.667,3.333-1.5,3-3,2-6,0.667-5.667s3.576-1.192,7.217-2.251l0.616-5.457,10.25-13.25L968.379,386l-1.25-6-3.375-7.125-0.5-4.875-0.625-3.917s-2.583-4.167-2.833-4.25-6.5-7.25-6.5-7.25a23.008,23.008,0,0,0-2.5-3.333c-0.5-.25-6.75-1.5-6.75-1.5s-7,.167-7.25,0-9.75,0-9.75,0l-7.25,1.667-3.083,3.667s-5.667,2.333-6.167,2.583-7,.667-7,0.667l-3.333-2.5s-5-2.583-5.25-2.583-13.5-.083-13.5-0.083l-1.75,1.167-1.833.917-4.331,4.106L883.129,365l-14.25,9.183-2.25,10.567-5.5,3-13.25,3.5-3.5,5.25,14.75,6.75-11.75,19.809,14.25,2.691,7.25,7.75-0.308.225,3.308,0.108Z" transform="translate(-15.556 -0.878)" fill="#f6e1b9" stroke="#1d1d1b" stroke-miterlimit="10"/><path d="M828.545,460.333l-1.667,4.333,5,4.167,7.5,2.5,6.833,4,3.5,4.333,5.667,2.667,3.333,1.5,2.5,2.333a27.282,27.282,0,0,1,1.167,4.167c0,0.833-4.167,5-4.167,5l-1.333,6.833,4,5,1.5,3.5,7.333-3.5,7.167,0.333,3.333-4,1.167-5.333,8.833-1.667,5.167-2.833,2.5-1,0.833-6.5L904.379,485l2-6.5,8.333,1.833,9,0.667,13-.167L941,479.682l-4.709-7.765-2.75-6.333,6.25-21.833,3.5,4,3.083-.25,1.75-6.583,3-3.292-1.625-16.75,0.259-2.293c-3.641,1.059-7.217,2.251-7.217,2.251l-0.667,5.667-2,6-3,3-3.333,1.5-2.5-3.667v-5.667l-4,2.167L923.879,431l-4.333-5.333-4.667-.833s-1.833-1.333-3.333-.667-3.833,5.667-3.833,5.667l-1.667,1-4-1.5-5.167-4.167h-4l-2,5.167-1.833,1-5.917-2.167L879.045,427l-2,1.5-3.167,3.5-2,1.833-3.308-.108L848.379,448.5l-8.75,2.25h-0.015l-1.735,4.917Z" transform="translate(-15.556 -0.878)" fill="#f6e1b9" stroke="#1d1d1b" stroke-miterlimit="10"/><path d="M855.545,513.833l-1.5,5.5-4.833,7.5-3.5-.667-3,.667v10.5l6.5-.833,3.333,2.167-9.833,7.667,6.667,2.833,5,4.5,2.5,2h5.333l3-3.167,13.5-1.5,19.5-13.5,9-4.667,5.526-.531,0.266-1.24,6.375-.812,1.562-5,4.688-5.687,4.5-.75,1.875-5.25,3.375-3,2-6.062,4.25-9.833s3.833-5.083,3.833-5.5-4.417-9.417-4.417-9.417L941,479.682l-4.292,1.152-13,.167-9-.667-8.333-1.833-2,6.5-5.667,1.167-0.833,6.5-2.5,1-5.167,2.833-8.833,1.667-1.167,5.333-3.333,4-7.167-.333-7.333,3.5-1.5-3.5-2.387-2.984c-1.705,1.2-2.946,2.15-2.946,2.15v7.5Z" transform="translate(-15.556 -0.878)" fill="#f6e1b9" stroke="#1d1d1b" stroke-miterlimit="10"/><path d="M1069.045,556.083l6.292-2.583,0.917-4.625,2.917-3.5,4.333-4.167,0.437-1.9-5.562-6.187-6.438-2.812-9.687-4.375-10.188-1.625h-3.937l0.5,5.125,0.125,4.313-0.75,1.125-12.458,7.542-8.75,8.833-6.833,8.167-5.25-5.25-6.75,1.167-7-1.333s-7.583-1.667-7.833-1.583c-0.165.055-4.128,1.955-6.813,3.245l1.063,10.172-3.833,8.333,1.5,8.5,6.5,8,5,11.167,13.5,8,4.957,6.692,1.876-5.358,4.667,0.5,4.833,15.417,1.5,3.75,6.667-.917,0.5-6.5-5.083-8.917,6.333-8.583,4.333-1,4-3.75s4.5,5,4.5,5.583,0.5,4.333.5,4.333,17.062-1.771,17.5-1.833,12.562-3.062,12.562-3.062l-6.25-5.812-8.9-11.125-1.5-7.417,0.5-7.583-1.333-6.5-2.167-5.5-0.5-5.417,0.5-1.583Z" transform="translate(-15.556 -0.878)" fill="#f6e1b9" stroke="#1d1d1b" stroke-miterlimit="10"/><path d="M850.254,565.875L847,571l7.25,5,4.375,3.375L856,587.25l5.25,2.625,6.375,5.375V597l4.625-8V579l5.875-9.375,1.25-3.375H883.5l5.5,4.5,3.25,5.25,1,3.75,5.625-.125,6.75,1.625,6-4.5,9.75,3.25,11.25,6.5,16,2.75,7.25,7.75,6-8,10.25,0.25v-5.5l7.5,2.75,7.254-1.572-1.838-2.262-1.5-8.5,3.833-8.333-1.063-10.172-2.437,1.172-3.667,1.5-0.25-7.417-7.25-2.5-7.333,3.917-2.5,8.75-4.417-6.333-8-1-5-6.25-2.333-7.583-5.167-2.75-3.583-2.25-6.188,3.646-10.125-3.812-5.625-1.062,0.3-1.385-5.526.531-9,4.667-19.5,13.5-13.5,1.5-3,3.167h-5.333l-1.949-1.559-3.551,5.143Z" transform="translate(-15.556 -0.878)" fill="#f6e1b9" stroke="#1d1d1b" stroke-miterlimit="10"/><path d="M703.754,450.75l8.125-3.625,15.5-8.25,3-4.25,4.5-7.5,1-6.125L740,423.059h11.75l0.25-2.934,0.875-5-1.625-5.5V403.5l2.375-3L756,394.875V388.75H743.379l-2.635-5-5.865-3.25-7.25-2.5h-5.721l-3.529-3.817L702.629,376l-6.645-.589L694.712,377l-2.667,6.333-3.333,4.5,1.667,5.5,4,8-2.333,3-3.333,3-1.208,1.792-3.03,3.257c2.392,1.465,7.905,4.493,7.905,4.493l2.75,4.5,1.75,4.25,0.75,7.75v7.25l-0.457-.085,3.082,8.585Z" transform="translate(-15.556 -0.878)" fill="#f6e1b9" stroke="#1d1d1b" stroke-miterlimit="10"/><polygon points="913.323 600.122 911.073 606.372 907.323 612.122 898.823 616.622 894.573 624.372 897.823 633.372 894.573 639.872 892.073 643.872 892.073 647.622 901.636 649.122 918.573 646.372 924.573 645.872 936.073 660.122 942.573 668.372 946.323 669.872 952.573 658.372 958.323 645.122 963.329 645.76 964.448 641.747 969.823 637.247 977.323 640.622 979.073 632.997 981.448 622.247 983.948 620.997 989.198 624.247 997.573 620.997 999.447 615.647 994.49 608.955 980.99 600.955 975.99 589.788 971.327 584.05 964.073 585.622 956.573 582.872 956.573 588.372 946.323 588.122 940.323 596.122 933.073 588.372 917.073 585.622 916.635 585.369 914.823 589.122 913.323 600.122" fill="#f6e1b9" stroke="#1d1d1b" stroke-miterlimit="10"/><polygon points="998.573 666.122 989.573 666.122 980.448 668.497 975.323 657.497 960.823 654.747 963.329 645.76 958.323 645.122 952.573 658.372 946.323 669.872 942.573 668.372 936.073 660.122 924.573 645.872 918.573 646.372 901.636 649.122 892.124 647.63 888.323 652.288 898.656 657.955 897.656 665.955 892.073 672.955 892.073 680.455 892.073 685.455 897.156 684.122 904.156 686.955 905.156 683.955 911.323 694.955 916.823 698.622 921.156 705.622 927.49 710.455 932.323 702.788 933.156 701.288 939.656 708.455 944.323 712.455 956.823 714.955 962.323 714.955 967.454 720.79 969.636 719.747 983.073 709.497 986.948 702.747 980.448 694.247 980.073 688.247 988.448 692.372 992.698 690.497 997.573 679.622 1001.823 673.997 998.573 666.122" fill="#f6e1b9" stroke="#1d1d1b" stroke-miterlimit="10"/><polygon points="962.323 714.955 956.823 714.955 944.323 712.455 939.656 708.455 933.156 701.288 932.323 702.788 927.49 710.455 921.156 705.622 916.823 698.622 911.323 694.955 905.156 683.955 904.156 686.955 897.156 684.122 892.073 685.455 892.073 682.733 883.323 686.622 869.573 675.872 865.073 679.122 858.573 681.247 847.323 675.872 850.323 685.122 851.823 689.372 847.323 697.872 844.073 712.122 838.323 716.622 838.323 723.122 845.073 729.122 851.323 720.79 859.323 725.372 861.573 729.122 869.823 732.372 873.073 732.372 875.073 744.872 873.823 751.622 876.073 759.372 882.573 763.622 881.823 768.122 878.073 771.872 890.073 777.122 897.996 780.169 902.198 771.872 909.823 769.622 918.656 764.622 916.823 758.747 913.448 755.247 912.198 750.372 918.656 754.997 921.073 751.997 927.073 751.122 938.573 749.122 945.261 748.059 946.823 740.372 950.136 738.309 951.698 727.622 951.698 725.122 956.323 723.809 962.011 723.059 965.323 721.809 967.454 720.79 962.323 714.955" fill="#f6e1b9" stroke="#1d1d1b" stroke-miterlimit="10"/><path d="M846.712,730.167l9,2.333,4.5,3.667L856.545,743l1.833,6.667-6.667,2.833h-16.5l-11.5-1.5-4-3-2.167,4.5,0.583,7.5v2.375L811,761v4.25h-7.25l-1.5,6.125-2,7.875,4.625,11.375,11-4.5,6.875,4.5,10.375,3.875,3.375,4.625,0.875,4.5L849,807.375h19.375l3.875-2.875,4.375,8.375v4.25l3.875,3.75,8.875-6.125-1.875,6.125-6.375,5.875-0.25,4.125,6.25,2.375,0.5,2.125H893.5l3.875-4.25,5.125-2.875,3.125-8.25,10.125,0.125v3.25l4.463,3.425a0.537,0.537,0,0,0,.329-0.3c0-.5,4.5-2.667,4.5-2.667l0.583-11.333-10.75-.75-2-29.375,0.673-1.328L905.629,778l-12-5.25,3.75-3.75,0.75-4.5-6.5-4.25-2.25-7.75,1.25-6.75-2-12.5h-3.25l-8.25-3.25-2.25-3.75-8-4.582L860.629,730l-6.75-6v-0.751c-2.6,2.111-5.167,4.251-5.167,4.251Z" transform="translate(-15.556 -0.878)" fill="#f6e1b9" stroke="#1d1d1b" stroke-miterlimit="10"/><polygon points="566.573 464.747 571.448 463.872 581.448 463.872 580.823 468.872 583.948 474.872 583.823 478.622 586.198 486.497 576.448 486.372 575.323 493.497 576.823 499.122 581.948 501.497 575.323 506.747 578.198 512.747 582.448 510.497 592.198 512.747 592.948 507.122 596.323 502.997 600.823 499.122 599.448 490.747 598.073 485.497 600.823 485.497 605.573 482.497 610.448 479.372 615.823 479.372 624.073 481.372 628.823 476.747 635.693 473.641 633.823 467.955 635.656 458.622 639.99 447.122 642.49 437.622 638.49 425.455 626.823 416.455 610.823 402.622 595.771 384.212 591.323 384.622 592.323 387.622 595.948 389.122 598.823 393.872 603.323 397.997 605.573 404.497 595.573 406.747 592.948 413.622 588.323 417.122 581.948 428.747 561.823 435.497 555.425 440.341 559.823 453.122 566.573 464.747" fill="#f6e1b9" stroke="#1d1d1b" stroke-miterlimit="10"/><polygon points="478.323 511.372 483.823 512.747 493.823 511.122 497.823 507.122 513.573 504.622 532.823 504.622 539.073 515.872 546.573 517.372 554.323 519.622 565.573 512.747 576.393 508.98 575.323 506.747 581.948 501.497 576.823 499.122 575.323 493.497 576.448 486.372 586.198 486.497 583.823 478.622 583.948 474.872 580.823 468.872 581.448 463.872 571.448 463.872 566.573 464.747 559.823 453.122 555.425 440.341 553.073 442.122 549.698 438.622 540.698 433.747 532.448 433.747 524.823 443.872 517.073 444.872 515.573 451.622 512.323 464.622 497.573 458.622 491.823 478.122 481.073 487.622 469.573 487.622 471.073 497.622 469.197 506.659 471.573 508.622 478.323 511.372" fill="#f6e1b9" stroke="#1d1d1b" stroke-miterlimit="10"/><polygon points="494.156 526.788 499.323 531.372 509.323 532.288 519.156 527.622 530.823 528.122 536.156 528.955 541.323 531.372 545.656 535.788 545.656 545.788 542.99 551.455 547.656 552.788 555.425 555.455 564.156 548.622 578.156 545.288 588.656 545.122 598.156 544.288 598.156 532.788 596.49 527.788 595.156 518.288 590.99 518.122 590.817 512.428 582.448 510.497 578.198 512.747 576.393 508.98 565.573 512.747 554.323 519.622 546.573 517.372 539.073 515.872 532.823 504.622 513.573 504.622 497.823 507.122 493.823 511.122 488.203 512.035 492.323 517.788 494.156 526.788" fill="#f6e1b9" stroke="#1d1d1b" stroke-miterlimit="10"/><polygon points="520.073 586.372 527.698 582.622 537.073 575.372 539.323 565.372 539.323 555.455 544.507 551.889 542.99 551.455 545.656 545.788 545.656 535.788 541.323 531.372 536.156 528.955 530.823 528.122 519.156 527.622 509.323 532.288 499.323 531.372 494.156 526.788 492.323 517.788 488.203 512.035 483.823 512.747 478.323 511.372 471.573 508.622 469.197 506.659 468.323 510.872 467.808 510.967 470.156 515.788 462.49 529.122 456.156 544.788 463.156 562.122 473.823 585.788 487.823 593.788 489.001 595.614 508.823 590.372 520.073 586.372" fill="#f6e1b9" stroke="#1d1d1b" stroke-miterlimit="10"/><polygon points="531.448 584.403 533.417 585.309 536.698 584.965 539.49 582.872 543.18 579.372 550.49 575.372 555.99 570.788 559.906 568.372 563.99 567.788 571.156 574.788 574.656 574.288 582.74 571.122 582.74 569.288 580.823 564.288 578.74 558.788 577.073 551.872 576.491 545.685 564.156 548.622 555.425 555.455 547.656 552.788 544.507 551.889 539.323 555.455 539.323 565.372 537.073 575.372 528.913 581.682 530.761 583.872 531.448 584.403" fill="#fdfbe5" stroke="#1d1d1b" stroke-miterlimit="10"/><polygon points="588.656 567.372 593.74 565.497 599.656 562.622 604.49 560.122 605.573 557.872 607.24 554.038 607.24 549.788 605.573 543.872 603.323 544.455 600.823 546.288 597.922 544.309 588.656 545.122 578.156 545.288 576.491 545.685 577.073 551.872 578.74 558.788 580.823 564.288 582.74 569.288 582.74 569.617 586.198 569.038 588.656 567.372" fill="#fdfbe5" stroke="#1d1d1b" stroke-miterlimit="10"/><polygon points="531.24 631.788 536.906 639.08 540.281 637.58 541.99 634.997 553.448 634.372 576.491 634.997 574.948 631.872 570.823 628.247 570.823 624.747 574.073 621.372 578.323 615.872 583.948 609.122 587.823 605.997 585.823 602.622 585.823 599.997 591.866 598.622 592.448 596.372 594.698 592.122 600.198 590.622 605.573 584.872 610.99 582.455 612.823 579.622 611.99 572.705 615.323 566.122 615.323 561.955 610.906 560.788 605.044 558.972 604.49 560.122 599.656 562.622 593.74 565.497 588.656 567.372 586.198 569.038 582.74 569.617 582.74 571.122 574.656 574.288 571.156 574.788 563.99 567.788 559.906 568.372 555.99 570.788 550.49 575.372 543.18 579.372 539.49 582.872 536.698 584.965 533.417 585.309 531.448 584.403 530.761 583.872 528.913 581.682 527.698 582.622 520.073 586.372 508.823 590.372 489.001 595.614 494.49 604.122 516.49 621.788 523.49 625.455 521.54 626.885 525.781 628.663 531.24 631.788" fill="#fdfbe5" stroke="#1d1d1b" stroke-miterlimit="10"/><path d="M630.254,589.25l2.625-1.875L634,589.25l1.75,6.25,5.75,3.625L642,597.5V595l-1.375-6.875h2.75L654.5,586.75l1.5-1.875L658.045,582,664,579.125h3.875V577.25L667,573.5l-1.875-7.125-0.75-5.25-3.833-8.25-1.917-8.125-1.708-6-1.125-3.583-2.5-1.917,2-3,1.34-3.583,2.827-7.583,1.083-3.583-0.917-5.5-2.993.451c-0.341.9-.59,1.549-0.59,1.549l-1.333-8.5,3.5-8.167-0.667-4.5L653.379,481l-2.131-6.48-6.869,3.105-4.75,4.625-8.25-2H626l-4.875,3.125-4.75,3h-2.75l1.375,5.25L616.379,500l-4.5,3.875L608.5,508l-0.75,5.625-1.381-.319L606.545,519l4.167,0.167,1.333,9.5,1.667,5v11.5l-0.234.021,2.9,1.979,2.5-1.833,2.25-.583,1.667,5.917v4.25l-1.667,3.833-0.53,1.1,5.863,1.817,4.417,1.167V567l-3.333,6.583,0.833,6.917-1.252,1.935,3.127,2.69v4.125Z" transform="translate(-15.556 -0.878)" fill="#f0f0f0" stroke="#1d1d1b" stroke-miterlimit="10"/><path d="M664.962,510.5l7-1.5,4.75-1.417,4.167,1.083,1.5-2.417-0.667-5-2.5-4.333-2.917-1-7.417-.5,1.167-5.25,7.583-5.583,0.5-7.021-10.25-6.062-3.75-1.875v-1.5l0.75-2.375,7.375-1.75,0.5-2.25L669.879,457l0.875-5.25,2.375-5.25v-2.75l1.75-2.25-0.625-2.625V430.25l1.5-1.875h2.875v-3.25l1.125-5.25,1.8-4.37-9.924-2.255-2.5-6.625-5-4.125-9.75-4.5L645,395.875,635.629,392l-3.75-4.375,1.25,9.125,4.5,5.625,7.5,8.5L655.379,418l6.25,8.25L662.5,435l-1.5,9.25L659.545,452l-1.5,8-3,5.5,0.167,6.667,2.333,8.333,5,8.667-1.5,8.333s-2.5,7-2.5,7.5c0,0.342-1.171,3.495-1.91,5.451l2.993-.451,0.382,2.289,2.7-1.206Z" transform="translate(-15.556 -0.878)" fill="#f6e1b9" stroke="#1d1d1b" stroke-miterlimit="10"/><polygon points="669.823 503.997 679.198 495.747 682.573 490.872 684.573 490.872 692.823 494.247 696.073 495.747 699.198 492.622 705.448 492.497 710.698 489.872 719.823 489.372 717.198 492.372 714.448 499.122 723.823 499.122 734.073 497.622 736.323 495.747 733.698 488.997 730.198 481.747 725.573 480.872 723.073 477.497 715.823 473.641 717.156 470.622 720.656 463.955 719.99 461.955 715.49 456.455 703.448 458.955 697.823 464.955 690.323 460.122 687.49 455.122 687.49 449.543 684.698 448.247 681.616 439.662 678.698 439.122 677.073 431.747 675.198 421.997 674.198 417.747 667.073 414.872 665.997 414.627 664.198 418.997 663.073 424.247 663.073 427.497 660.198 427.497 658.698 429.372 658.698 433.122 658.698 437.997 659.323 440.622 657.573 442.872 657.573 445.622 655.198 450.872 654.323 456.122 657.198 460.872 656.698 463.122 649.323 464.872 648.573 467.247 648.573 468.747 652.323 470.622 662.573 476.684 662.073 483.705 654.49 489.288 653.323 494.538 660.74 495.038 663.656 496.038 666.156 500.372 666.823 505.372 666.693 505.581 668.918 505.997 669.823 503.997" fill="#f6e1b9" stroke="#1d1d1b" stroke-miterlimit="10"/><polygon points="741.656 467.788 748.656 468.955 754.656 473.641 756.823 484.288 756.823 489.955 761.323 495.455 767.823 500.955 768.99 496.955 767.823 488.622 767.823 480.122 772.323 477.622 784.323 481.622 789.156 479.622 791.323 477.622 791.823 471.955 787.323 472.455 781.823 474.622 781.823 472.622 786.823 467.122 788.323 463.746 788.49 458.455 784.656 450.955 786.156 445.122 789.521 442.463 790.823 438.122 790.823 431.122 790.823 423.122 790.823 419.622 780.573 424.622 775.073 416.122 766.323 405.872 761.823 392.872 758.306 389.249 751.573 390.372 743.323 390.372 740.573 387.872 740.448 387.872 740.448 393.997 738.073 399.622 735.698 402.622 735.698 408.747 737.323 414.247 736.448 419.247 736.198 422.181 724.448 422.181 720.323 420.122 719.323 426.247 714.823 433.747 711.823 437.997 696.323 446.247 688.198 449.872 687.49 449.543 687.49 455.122 690.323 460.122 697.823 464.955 703.448 458.955 715.49 456.455 719.99 461.955 720.603 463.795 729.156 462.455 741.656 467.788" fill="#f6e1b9" stroke="#1d1d1b" stroke-miterlimit="10"/><polygon points="655.823 524.288 664.823 525.288 671.323 526.122 673.156 524.622 675.823 519.622 676.823 512.747 682.49 514.955 689.156 511.411 694.823 509.788 704.683 506.955 706.823 509.788 708.323 514.288 717.656 516.288 726.656 519.622 730.823 526.955 736.323 521.955 744.823 516.622 743.323 508.955 739.657 500.955 735.388 496.526 734.073 497.622 723.823 499.122 714.448 499.122 717.198 492.372 719.823 489.372 710.698 489.872 705.448 492.497 699.198 492.622 696.073 495.747 692.823 494.247 684.573 490.872 682.573 490.872 679.198 495.747 669.823 503.997 668.918 505.997 666.693 505.581 665.323 507.788 661.156 506.705 656.406 508.122 649.406 509.622 647.156 510.205 644.455 511.411 644.99 514.622 643.906 518.205 642.808 521.153 650.323 520.955 655.823 524.288" fill="#f6e1b9" stroke="#1d1d1b" stroke-miterlimit="10"/><path d="M773.754,516.5l6.75,3.5v4.5l7,3.333,3.125-9.958,4.875-7.208,9.875,0.708,5.5-.708-1.25-8.833,1.25-4.458L817.5,499a17.041,17.041,0,0,1,3.5,1c0.375,0.375,4.125,3.375,4.125,3.375v4.25L821.254,514l-2,6.625-0.25,4.25L819.879,529,822,532.3l6.875,6.072,3,3.625L840,540.125l3.229-2.858-0.521.067v-10.5l3-.667,3.5,0.667,4.833-7.5,1.5-5.5v-7.5s1.241-.947,2.946-2.15l-1.613-2.016,1.333-6.833s4.167-4.167,4.167-5a27.282,27.282,0,0,0-1.167-4.167l-2.5-2.333-3.333-1.5-5.667-2.667-3.5-4.333-6.833-4-7.5-2.5-5-4.167,1.667-4.333,9.333-4.667,1.735-4.917h-5.235l-11.5-3.75-11.25-3h-6.75l0.2-.659L801.712,446l-1.5,5.833,3.833,7.5-0.167,5.291-1.5,3.375-5,5.5v2l5.5-2.167,4.5-.5-0.5,5.667-2.167,2-4.833,2-12-4-4.5,2.5v8.5l1.167,8.333-1.167,4-6.5-5.5-4.5-5.5v-5.667l-2.167-10.647-6-4.686-7-1.167-12.5-5.333-8.553,1.34,0.053,0.16-3.5,6.667-1.333,3.02,7.25,3.855,2.5,3.375,4.625,0.875,3.5,7.25,2.625,6.75-0.935.779,4.268,4.429,3.667,8,0.61,3.117,7.14,0.924Z" transform="translate(-15.556 -0.878)" fill="#f6e1b9" stroke="#1d1d1b" stroke-miterlimit="10"/><path d="M746.629,538.25l8.583-4.5,3.417,6.5v5.25l1.75,5,2.75,3.75-1,5.6,6.5,3.65,5,1.151-2.25,5.845-1,3.254h12.25v6.75l5.25,3.25,5.5-5.5,3.5-5.25,3.75,6,4.5,0.25,8-3.5,3.5,2.5L824,579.5l1.375,6.688h6.75l10.583-2.437,5.417,8,7.25,2.5,4.555-5.035L856,587.25l2.625-7.875L854.254,576,847,571l3.25-5.125,1.125-6.625,3.551-5.143-0.551-.441-5-4.5-6.667-2.833,9.833-7.667-3.333-2.167-5.979.767L840,540.125,831.879,542l-3-3.625L822,532.3l-2.125-3.3L819,524.875l0.25-4.25,2-6.625,3.875-6.375v-4.25s-3.75-3-4.125-3.375a17.041,17.041,0,0,0-3.5-1l-6.625-1.625-1.25,4.458,1.25,8.833-5.5.708-9.875-.708-4.875,7.208-3.125,9.958-7-3.333V520l-6.75-3.5-7.125-2.625-7.14-.924,0.89,4.549-8.5,5.333-5.5,5-0.332-.584c-0.1,2.059-.168,3.667-0.168,3.667Z" transform="translate(-15.556 -0.878)" fill="#f6e1b9" stroke="#1d1d1b" stroke-miterlimit="10"/><path d="M859.934,607.333l3.445,8.5-6.167,3.333-10.208,2-4.292-1.667,3.167,12.333-4,7s-4.833,2.333-5.667,2.667a45.24,45.24,0,0,0-4.5,3.333L826.879,646l-3,3.5-1.167,8.833-1.833,7.5h-8.667l-3,2.5-7-5.5-1.958,1.667V670s4.125,3.333,4.125,3.833,3.333,3.833,4,4,3.5,8,3.5,8h6.833l3.167-3.667,15.5-5.417s15.5-6.417,16.5-6,5,0,5,0l5.273,6.608,9.977,4.767,6.5-2.125,4.5-3.25,13.75,10.75,8.75-3.889v-9.778l5.583-7,1-8-10.333-5.667,3.8-4.659-0.051-.008v-3.75l2.5-4,3.25-6.5-3.25-9,4.25-7.75,8.5-4.5,3.75-5.75,2.25-6.25,1.5-11,1.812-3.753L921.379,580l-9.75-3.25-6,4.5-6.75-1.625-5.625.125-1-3.75L889,570.75l-5.5-4.5h-4.125l-1.25,3.375L872.254,579v10l-4.625,8v-1.75l-6.375-5.375-1.32-.66-4.247,4.695,1.525,5.424Z" transform="translate(-15.556 -0.878)" fill="#f6e1b9" stroke="#1d1d1b" stroke-miterlimit="10"/><path d="M801.379,682.667c1.5,1.167,3.917,7.5,3.917,7.5h-6.917l-1.167,5.667v9l-2.5,3-2.5,2-4.833,5-6-1.833-4.5,1.833v1.5l3.167,3.333,8,9.232,9,6.435,7.5-1.333,9-5.1,11.833,0.935,8.667-.935,3.333,2.435,4.5-.167,5.026-.95-0.193-.05,2-2.667s2.568-2.14,5.167-4.251V717.5l5.75-4.5,3.25-14.25,4.5-8.5-1.5-4.25-3-9.25,1.273,0.608-5.273-6.608s-4,.417-5,0-16.5,6-16.5,6l-15.5,5.417-3.167,3.667h-6.833s-2.833-7.833-3.5-8a15.337,15.337,0,0,1-3.234-2.916l-4.891,2.416S799.879,681.5,801.379,682.667Z" transform="translate(-15.556 -0.878)" fill="#f6e1b9" stroke="#1d1d1b" stroke-miterlimit="10"/><path d="M796.879,589.5l-12.75,7.5-13.5,6v5.25l2.5,6,0.5,10.75-7,11,4.25,13.25,9.5,9.5,13.5,7.25,6.375,2.462V664.5l1.958-1.667,7,5.5,3-2.5h8.667l1.833-7.5,1.167-8.833,3-3.5,4.833-1.167a45.24,45.24,0,0,1,4.5-3.333c0.833-.333,5.667-2.667,5.667-2.667l4-7L842.712,619.5,847,621.167l10.208-2,6.167-3.333-3.445-8.5-2.722-8-1.525-5.424-0.308.34-7.25-2.5-5.417-8-10.583,2.438h-6.75L824,579.5l-7.375-1.25-3.5-2.5-8,3.5-2.123-.118-1.627,6.618Z" transform="translate(-15.556 -0.878)" fill="#f6e1b9" stroke="#1d1d1b" stroke-miterlimit="10"/><polygon points="659.073 554.538 662.99 552.955 663.573 550.288 670.073 548.205 671.24 544.038 674.74 541.122 679.823 540.538 685.157 538.538 686.073 536.288 687.49 528.788 685.656 524.788 682.823 519.038 682.983 514.693 682.49 514.955 676.823 512.747 675.823 519.622 673.156 524.622 671.323 526.122 664.823 525.288 655.823 524.288 650.323 520.955 642.808 521.153 641.08 525.788 639.74 529.372 637.74 532.372 640.24 534.288 641.365 537.872 643.073 543.872 644.99 551.997 646.846 555.992 652.99 555.705 659.073 554.538" fill="#f6e1b9" stroke="#1d1d1b" stroke-miterlimit="10"/><path d="M670.379,598l4.5,5.5,16.5,7.75,10.25,13.25,7.742,6.75,13.758-4.679,7-4.465L748.879,617l4.5-14.125,11,1.875,6.25,3.038V603l13.5-6,12.75-7.5,4.5-3.75,1.627-6.618L800.629,579l-3.75-6-3.5,5.25-5.5,5.5-5.25-3.25v-6.75h-12.25l1-3.254,2.25-5.845-5-1.151-6.5-3.65,1-5.6-2.75-3.75-1.75-5v-5.25l-3.417-6.5-8.583,4.5-0.75-7.333s0.069-1.608.168-3.667l-3.835-6.75-9-3.333-9.333-2-1.5-4.5-2.14-2.833-9.86,2.833-5.667,1.623-6.174,3.282-0.16,4.345,2.833,5.75,1.833,4-1.417,7.5-0.917,2.25-5.333,2L690.3,542l-3.5,2.917-1.167,4.167-6.5,2.083-0.583,2.667-3.917,1.583-6.083,1.167-6.144.287,1.977,4.255,0.75,5.25L667,573.5l0.875,3.75v1.875h-2.472l4.972,5.375V598Z" transform="translate(-15.556 -0.878)" fill="#f6e1b9" stroke="#1d1d1b" stroke-miterlimit="10"/><path d="M720.754,638l1.625,1.958,2.5,1.167h5l6.5,1.625,0.625,9,1.75,8.625,7.625,3.5L752,669.25l2.625,7.5,4.75,3.125,4.5,5.875,3.75,5.125,2.5,6.875v5.282l1.625,4.843v4.875L776.879,716v-1.163l4.5-1.833,6,1.833,4.833-5,2.5-2,2.5-3v-9l1.167-5.667H805.3s-2.417-6.333-3.917-7.5-1.125-5.333-1.125-5.333l4.891-2.416a3.3,3.3,0,0,1-.766-1.084c0-.5-4.125-3.833-4.125-3.833v-1.538L793.879,666l-13.5-7.25-9.5-9.5L766.629,636l7-11-0.5-10.75-2.5-6v-0.462l-6.25-3.038-11-1.875L748.879,617l-18.75,5.106-7,4.465-0.572.195,2.322,6.734Z" transform="translate(-15.556 -0.878)" fill="#f6e1b9" stroke="#1d1d1b" stroke-miterlimit="10"/><path d="M587.379,684.5l3.833,2.667L606.373,688l5.006,3.5,2.667,7-1.167,10.833,4.833,17.5,3.167,3.667,11.333,1.167h4.167l2.5-3.167,4.5-9.833h22.5l8.333-1.167,1.667-4.333,2.5-5.5a67.667,67.667,0,0,0,5-7.667c1.5-3,2-2.833,2-2.833l-0.5-2.667h-6.833l-2.5-8.333-1.333-5.667h9l8.833-1.667L697.379,673l2-9-2-8,3-11,6-12,0.966-3.517-5.716-4.983-10.25-13.25-16.5-7.75-4.5-5.5V584.5l-4.972-5.375H664L658.045,582,656,584.875l-1.5,1.875-11.125,1.375h-2.75L642,595v2.5l-0.5,1.625-5.75-3.625L634,589.25l-1.125-1.875-2.625,1.875v-4.125l-3.127-2.69-0.582.9-5.417,2.417-5.375,5.75-5.5,1.5L608,597.25l-0.582,2.25-6.043,1.375V603.5l2,3.375L599.5,610l-5.625,6.75-4.25,5.5-3.25,3.375v3.5l4.125,3.625,1.543,3.125L569,635.25l-11.458.625-1.1,1.661,4.765,10.63Z" transform="translate(-15.556 -0.878)" fill="#f6e1b9" stroke="#1d1d1b" stroke-miterlimit="10"/><path d="M659.379,745.667l17,7.333,9-2.333,23,7.667,12.375,1.167,5.125-1,3-4.667,1.833-6.333,5-6.667,2.5-4.5,3-7.435,3.5-5.4,6.667-.833-2,9,5.5,3.667,2.333,6.5h8l3.667-2.333-1.5-5.5,1.333-5.1,8.167-7.23,2.779-2.41-2.779-2.925V716l-5.125-3.246v-4.875l-1.625-4.843V697.75l-2.5-6.875-3.75-5.125-4.5-5.875-4.75-3.125L752,669.25l-5.625-5.375-7.625-3.5L737,651.75l-0.625-9-6.5-1.625h-5l-2.5-1.167L720.754,638l4.125-4.5-2.322-6.734-13.186,4.484-2.026-1.767L706.379,633l-6,12-3,11,2,8-2,9-5.333,5.833-8.833,1.667h-9l1.333,5.667,2.5,8.333h6.833l0.5,2.667s-0.5-.167-2,2.833a67.667,67.667,0,0,1-5,7.667l-2.5,5.5-1.667,4.333-8.333,1.167h-22.5l-4.5,9.833-2.5,3.167H636.3l3.074,5.833Z" transform="translate(-15.556 -0.878)" fill="#f6e1b9" stroke="#1d1d1b" stroke-miterlimit="10"/><polygon points="693.656 764.538 699.656 767.872 702.323 771.705 712.656 772.455 717.74 773.705 722.573 769.705 729.24 773.705 731.24 778.788 740.74 780.788 753.156 783.955 760.74 781.288 764.102 778.955 772.323 781.788 778.323 783.955 779.573 787.038 783.573 794.205 786.073 794.205 785.74 789.622 788.475 787.66 784.698 778.372 786.698 770.497 788.198 764.372 795.448 764.372 795.448 760.122 802.573 761.497 802.573 759.122 801.99 751.622 804.156 747.122 808.156 750.122 819.656 751.622 836.156 751.622 842.823 748.788 840.99 742.122 844.656 735.288 840.156 731.622 831.349 729.338 826.323 730.288 821.823 730.455 818.49 728.02 809.823 728.955 797.99 728.02 788.99 733.122 781.49 734.455 772.49 728.02 764.49 718.788 764.102 718.38 761.323 720.79 753.156 728.02 751.823 733.122 753.323 738.622 749.656 740.955 741.656 740.955 739.323 734.455 733.823 730.788 735.823 721.788 729.156 722.622 725.656 728.02 722.656 735.455 720.156 739.955 715.156 746.622 713.323 752.955 710.323 757.622 705.198 758.622 692.823 757.455 692.098 757.213 687.073 763.538 693.656 764.538" fill="#f6e1b9" stroke="#1d1d1b" stroke-miterlimit="10"/><path d="M562.129,791.5l1.375-2.75,3.75-8.5,0.625-4.125-0.75-1.75-5-1.25-7-3-4.5-6.25-5.75-4.375,1.5-8.5,7.875-.5,2.193,1.5L565,753.625,568.879,754l8.625,1.125,4,2.75h6.75l7.625-1.25H607l3.75-3.75,4.375-6.5v-7.542l0.417-4.75,3.861-5.288-1.694-1.962-4.833-17.5,1.167-10.833-2.667-7-5.006-3.5-15.161-.833-3.833-2.667-26.167-36.333-4.765-10.63-0.61.922-3.375,1.5-5.667-7.292-5.458-3.125-4.241-1.779-8.05,5.9-16,14-4,7.833,3.333,8.833,0.667,8.333,0.333,2,0.333,5-2,5.333-10-2.333-11,2.333-9.667,4-3.333,4.667-6,6.583v6.417l-9,6L451.045,718l-20,14L420.5,740.667l-2.967,4.35,0.842-.016,4,15.5-3.5,15-11,25-10.333,8.333,12.333-1.167,18-1,16.5-2.333,8-6L460.045,804s20.5,13,23.5,13,15.208,2.625,15.208,2.625l12.375-3.375,5.375-4.875,3.75-.375,2.625-8.625L533.754,805l7.25-3.875,11.5-.75,9.875,2.375,7.75,2.25,3.75-2,0.715-3.3L567.5,795Z" transform="translate(-15.556 -0.878)" fill="#f6e1b9" stroke="#1d1d1b" stroke-miterlimit="10"/><polygon points="633.948 856.247 638.073 854.122 644.823 851.872 652.948 851.872 658.448 848.747 664.198 850.247 666.948 848.497 670.323 846.497 677.698 844.247 680.823 840.747 682.948 846.497 685.49 843.122 689.698 838.747 692.426 833.747 695.073 835.997 698.698 829.747 699.573 822.497 696.323 817.122 701.406 812.122 696.573 804.872 698.24 798.205 701.406 788.622 699.323 778.455 696.823 773.372 692.426 768.122 685.49 766.872 689.887 763.966 687.073 763.538 692.098 757.213 669.823 749.788 660.823 752.122 643.823 744.788 623.823 736.622 620.749 730.788 616.656 730.788 605.323 729.622 603.851 727.917 599.99 733.205 599.573 737.955 599.573 745.497 595.198 751.997 591.448 755.747 580.323 755.747 572.698 756.997 565.948 756.997 561.948 754.247 553.323 753.122 549.448 752.747 540.891 751.122 538.698 749.622 530.823 750.122 529.323 758.622 535.073 762.997 539.573 769.247 546.573 772.247 551.573 773.497 552.323 775.247 551.698 779.372 547.948 787.872 546.573 790.622 551.948 794.122 559.038 798.823 559.948 794.622 566.698 794.372 573.448 797.372 581.323 801.622 588.323 805.997 584.198 829.622 578.073 833.747 577.698 836.247 582.448 836.372 589.823 840.372 600.823 843.372 613.573 850.872 623.573 860.372 632.084 864.954 633.198 860.622 633.948 856.247" fill="#f6e1b9" stroke="#1d1d1b" stroke-miterlimit="10"/><path d="M741.879,933l4.5-2.75,2.25-7.25,9-3.75,8.25-5.5,4.75-7.5,1.5-6.5v-10l-4.313-11.25V872l3.563-8.75-8-1.25,1.25-4.5,0.25-5.125h6.375l5.375-3.125V838.5l-9-3.125,1.125-3.75-3.5-4.125,1.125-.875,2.125-2.875-0.25-4.125,2-1.25V809.5L767,806.25l-2.75-4.125L759,800.5l3.375-6.375S762,788.875,762,788.5c0-.212.239-2.933,0.447-5.263l-6.156-1.57-9.5-2-2-5.083-6.667-4-4.833,4-5.083-1.25-10.333-.75-2.667-3.833-6-3.333-3.769-.573-4.4,2.906,6.936,1.25,4.4,5.25,2.5,5.083,2.083,10.167-3.167,9.583-1.667,6.667,4.833,7.25-5.083,5,3.25,5.375-0.875,7.25-3.625,6.25-2.648-2.25-2.727,5L701.045,844l-2.542,3.375-2.125-5.75-3.125,3.5-7.375,2.25-3.375,2-2.75,1.75-5.75-1.5-5.5,3.125h-8.125l-6.75,2.25-4.125,2.125-0.75,4.375-1.114,4.333,1.239,0.667,2.5,11.5,1.75,8.25,10.75,5.75,14.75,7,11.5-.25,5,1.75-2.25,9,1,6.5,6.75,0.75,2.25,3.75,5,4.5,9.75,1-2.5,15.75-5,14.25-1,8.75,1.25,7,1.667,10.583,8.73,2.385,15.853-35.468Z" transform="translate(-15.556 -0.878)" fill="#f6e1b9" stroke="#1d1d1b" stroke-miterlimit="10"/><path d="M779.379,897.833l2.042,1.667,2.458-1.667,10.833,1.667V896l2.167-6.833,2.5-5V881l6.333,3.833,4.667,2,8-1.667,9.115-5.833,18.718-6,3.167-7.667,0.833-11.5V849h5.667l3-2.833V842.5l3-4.833-1.667-4,2.729-4.167,1.438-1.5,1.5-2.833L865.545,822l-5.333-1.333,1.5-2.833,4.833,2.833L867.212,818l-1.333-6.333v-4.292H849l-11.625-3.75-0.875-4.5-3.375-4.625-10.375-3.875-6.875-4.5-11,4.5-0.849-2.087L801.3,790.5l0.333,4.583h-2.5l-4-7.167-1.25-3.083-6-2.167-8.221-2.833-3.363,2.333-7.583,2.667-6.261-1.6c-0.208,2.33-.447,5.052-0.447,5.263,0,0.375.375,5.625,0.375,5.625L759,800.5l5.25,1.625L767,806.25l3.25,3.25v8.875l-2,1.25,0.25,4.125-2.125,2.875-1.125.875,3.5,4.125-1.125,3.75,9,3.125v10.75l-5.375,3.125h-6.375l-0.25,5.125-1.25,4.5,8,1.25L767.816,872v6.5l4.313,11.25v10l-0.073.318,5.323-.568Z" transform="translate(-15.556 -0.878)" fill="#f6e1b9" stroke="#1d1d1b" stroke-miterlimit="10"/><path d="M927.379,869.5l5-4-7.5-9.667h-4.167l-4-7.333,0.667-5-4.5-4.167,4.167-3-0.5-8.333a24.1,24.1,0,0,0,3.671-1.2l-4.463-3.425v-3.25L905.629,820l-3.125,8.25-5.125,2.875-3.875,4.25h-5.875l-0.5-2.125-6.25-2.375,0.25-4.125,6.375-5.875,1.875-6.125-8.875,6.125-3.875-3.75v-4.25l-4.375-8.375-3.875,2.875h-2.5v4.292L867.212,818l-0.667,2.667-4.833-2.833-1.5,2.833L865.545,822l0.333,3.167-1.5,2.833-1.438,1.5-2.729,4.167,1.667,4-3,4.833v3.667l-3,2.833h-5.667v5.167l-0.833,11.5-3.167,7.667-18.718,6-9.115,5.833-8,1.667-3.565-1.528,0.315,4.194,4.125,1.5,5.875,5.875L815.5,902.25l4.625,6.875,1.5,4,4.125,7.25V923.5l36.125-32.625,9.75,4.75,5.131,1.849,0.619-11.141h12l2.667-4.667h10l13.333-6h8.667l-0.833,3.833,6.667-.5,4.333-6.167Z" transform="translate(-15.556 -0.878)" fill="#f6e1b9" stroke="#1d1d1b" stroke-miterlimit="10"/><path d="M861.879,890.875L825.754,923.5v-3.125l-4.125-7.25-1.5-4L815.5,902.25l1.625-5.375L811.254,891l-4.125-1.5-0.315-4.194-1.1-.472L799.379,881v3.167l-2.5,5L794.712,896v3.5l-10.833-1.667L781.42,899.5l-2.042-1.667-2,1.667-5.323.568-1.427,6.182-4.75,7.5-8.25,5.5-9,3.75-2.25,7.25-4.5,2.75-5.25,16.25-15.853,35.468,15.775,3.007L774.712,995l22.667-9.333V946.333h24l18,26.833,16-4.833,8.667,4.833,9.333-9.5,12.667-4,10-13.333,6-4-7.333-14h7.333l-25.333-30,0.048-.859-5.131-1.849Z" transform="translate(-15.556 -0.878)" fill="#f6e1b9" stroke="#1d1d1b" stroke-miterlimit="10"/><polygon points="129.618 436.625 130.449 457.262 148.316 467.373 160.505 483.44 163.275 486.21 167.015 481.501 173.386 473.19 180.311 469.035 186.683 465.711 189.427 457.678 187.098 457.678 192.361 432.47 195.686 417.788 193.885 378.868 184.328 363.355 173.525 357.399 155.657 358.646 149.84 366.818 138.621 375.959 136.682 375.528 136.682 430.392 129.618 436.625" fill="#f6e1b9" stroke="#1d1d1b" stroke-miterlimit="10"/><path d="M109.716,476.146l13.851-11.081,22.426-7.234L145.174,437.5l7.064-6.233V376.407l-9.28-2.062-15.374-2.078-8.726-6.648h-7.064l-4.155,7.479s-0.416,6.648-4.571,7.895-33.657,9.557-33.657,9.557v14.128l7.895,18.283-4.155,12.881-12.466,2.077v6.657L91.849,467.7Z" transform="translate(-15.556 -0.878)" fill="#f6e1b9" stroke="#1d1d1b" stroke-miterlimit="10"/><path d="M217.889,477.67l4.432-18.56-14.4-.554h-2.934l-2.745,8.033-6.371,3.324-6.925,4.155-6.371,8.31-3.438,4.33-0.925,5.435-3.684,18.024,8.463,5.037,1.939,6.371-0.831,2.078,0.138,1.385L185.9,527l14.49-.546L197.945,513.4l20.222-19.945Z" transform="translate(-15.556 -0.878)" fill="#f6e1b9" stroke="#1d1d1b" stroke-miterlimit="10"/><polygon points="168.538 522.775 169.369 520.698 167.43 514.327 158.968 509.289 158.15 513.288 144.023 502.069 98.939 487.11 90.906 487.11 83.149 495.213 68.675 523.222 168.661 524.007 168.538 522.775" fill="#f6e1b9" stroke="#1d1d1b" stroke-miterlimit="10"/><path d="M158.332,547.477l3.047-8.31,9.557-1.247,10.249-6.925h5.6l-2.068-3.947L185.9,527l-1.669-1.964-0.015-.154L84.23,524.1l-1.523,2.946-12.466,2.785v29.833H86.447l0.823,0.483,8.318-13.572h18.075l17.244,1.247,0.649,0.507,9.877-1.546Z" transform="translate(-15.556 -0.878)" fill="#f6e1b9" stroke="#1d1d1b" stroke-miterlimit="10"/><polygon points="171.229 530.116 165.63 530.116 155.38 537.042 145.823 538.288 142.776 546.599 125.878 545.906 116.001 547.452 128.649 557.333 128.649 567.097 133.635 567.097 141.322 564.812 150.671 564.812 155.45 555.047 161.267 546.945 173.732 544.036 171.447 530.532 171.229 530.116" fill="#f6e1b9" stroke="#1d1d1b" stroke-miterlimit="10"/><path d="M137.279,602.879l5.54-6.025,4.848-1.662,6.441-3.186,0.9-8.934-2.77-5.748-6.163-5.609s0.292-1.881.586-3.74H144.2v-9.765l-13.3-10.388-17.244-1.247H95.589l-8.318,13.572L98.5,566.729l4.571,12.466s-6.233,13.712-7.479,14.959-8.726,12.253-8.726,12.253l3.324,4.368,34.073-2.078-0.223,1.436,3.894-1.02Z" transform="translate(-15.556 -0.878)" fill="#f6e1b9" stroke="#1d1d1b" stroke-miterlimit="10"/><path d="M175.68,570.677l3.452,5.3,14.934-.935,4.986-10.076,10.388-6.233,5.145-1.577a25.124,25.124,0,0,1-.851-3.029c0-.831-1.108-26.316-1.108-26.316L200.438,526.7l-0.046-.244-15.675.59L187,531.41l2.285,13.5-12.466,2.909-5.817,8.1-4.273,8.732,3.131,5.4Z" transform="translate(-15.556 -0.878)" fill="#f6e1b9" stroke="#1d1d1b" stroke-miterlimit="10"/><path d="M150.021,614.375l4.986,8.449L161.1,628.5l14.543,8.31,16.067-12.05L208.332,614.1l31.256-1.767,0.185-1.972-5.817-7.2-16.067-36.012s-2.089-6.13-3.3-9.991l-5.145,1.577-10.388,6.233-4.986,10.076-14.934.935-3.452-5.3-5.817-.623-3.131-5.4-0.505,1.032h-9.349l-7.687,2.285h-2.53c-0.294,1.859-.586,3.74-0.586,3.74l6.163,5.609,2.77,5.748-0.9,8.934-5.907,2.922,1.821,9.613v9.834Z" transform="translate(-15.556 -0.878)" fill="#f6e1b9" stroke="#1d1d1b" stroke-miterlimit="10"/><path d="M239.588,612.331L208.332,614.1l-16.621,10.665-16.067,12.05L161.1,628.5l-6.094-5.679-4.986-8.449v-9.834l-1.821-9.613-0.533.264-4.848,1.662-5.54,6.025-9.349,6.233-3.894,1.02-2.685,17.262-7.895,14.82,4.432,39.059,1.939,9.141,14.128-7.479s1.939,17.729,1.939,19.391S156.67,708.7,156.67,708.7l6.648,3.6-6.648-22.992,0.277-7.2,17.175-.831,8.31,0.831,19.945-4.986,4.986-11.635L213.18,658l11.635-3.324,9.141,3.6,12.743-2.216-8.587-27.978Z" transform="translate(-15.556 -0.878)" fill="#f6e1b9" stroke="#1d1d1b" stroke-miterlimit="10"/><path d="M109.716,476.146L91.849,467.7,60.685,444.576V445.4s-4.986,11.219-6.233,11.219-2.493,9.972-2.493,9.972l-6.648,6.233v13.712l5.817,6.648,3.74,10.8,3.74,5.4,6.233,4.986,5.4,14.959v0.5l12.466-2.785,16-30.956,7.756-8.1h4.328l-0.937-11.951Z" transform="translate(-15.556 -0.878)" fill="#f6e1b9" stroke="#1d1d1b" stroke-miterlimit="10"/><polygon points="163.275 486.21 160.505 483.44 148.316 467.373 130.449 457.262 130.437 456.953 108.011 464.187 94.296 475.16 95.233 487.11 98.939 487.11 144.023 502.069 158.15 513.288 162.652 491.265 163.577 485.83 163.275 486.21" fill="#f6e1b9" stroke="#1d1d1b" stroke-miterlimit="10"/><text transform="translate(375.656 96.205)" font-size="5" fill="#1d1d1b" font-family="DejaVu Sans" font-weight="700">Sant<tspan x="11.628" y="0">-</tspan><tspan x="13.132" y="0">V</tspan><tspan x="16.526" y="0">ivien-de-Médoc</tspan></text><text transform="translate(413.957 194.912)" font-size="5" fill="#1d1d1b" font-family="DejaVu Sans" font-weight="700">Lesparre-Médoc</text><text transform="translate(386.156 322.788)" font-size="5" fill="#1d1d1b" font-family="DejaVu Sans" font-weight="700">Saint-Laurent-du-Médoc</text><text transform="translate(511.74 254.618)" font-size="5" fill="#1d1d1b" font-family="DejaVu Sans" font-weight="700">P<tspan x="3.162" y="0">auillac</tspan></text><text transform="translate(603.851 235.788)" font-size="5" fill="#1d1d1b" font-family="DejaVu Sans" font-weight="700">Saint-Ciers-sur-Gironde</text><text transform="translate(397.657 433.747)" font-size="5" fill="#1d1d1b" font-family="DejaVu Sans" font-weight="700">Castelnau-de-Médoc</text><text transform="translate(578.97 455.455)" font-size="5" fill="#1d1d1b" font-family="DejaVu Sans" font-weight="700">Blanquefort</text><text transform="translate(607.24 317.122)" font-size="5" fill="#1d1d1b" font-family="DejaVu Sans" font-weight="700">Bl<tspan x="4.968" y="0">a</tspan><tspan x="7.849" y="0">ye</tspan></text><text transform="translate(676.823 321.955)" font-size="5" fill="#1d1d1b" font-family="DejaVu Sans" font-weight="700">Saint-Savin</text><text transform="translate(627.156 371.788)" font-size="5" fill="#1d1d1b" font-family="DejaVu Sans" font-weight="700">Bourg</text><text transform="translate(790.073 390.372)" font-size="5" fill="#1d1d1b" font-family="DejaVu Sans" font-weight="700">Guîtres</text><text transform="translate(890.823 391.46)" font-size="5" fill="#1d1d1b" font-family="DejaVu Sans" font-weight="700">Coutras</text><text transform="translate(679.823 398.038)" font-size="5" fill="#1d1d1b" font-family="DejaVu Sans" font-weight="700">Saint-André-de-Cubzac</text><text transform="translate(630.156 409.003)" font-size="5" fill="#1d1d1b" font-family="DejaVu Sans" font-weight="700">Lormont</text><text transform="translate(673.323 476.684)" font-size="5" fill="#1d1d1b" font-family="DejaVu Sans" font-weight="700">Carbon-Blanc</text><text transform="translate(690.323 503.58)" font-size="5" fill="#1d1d1b" font-family="DejaVu Sans" font-weight="700">Cenon</text><text transform="translate(651.365 534.872)" font-size="5" fill="#1d1d1b" font-family="DejaVu Sans" font-weight="700">Floirac</text><text transform="translate(742.323 447.122)" font-size="5" fill="#1d1d1b" font-family="DejaVu Sans" font-weight="700">F<tspan x="2.754" y="0">ronsac</tspan></text><text transform="translate(787.451 489.372)" font-size="5" fill="#1d1d1b" font-family="DejaVu Sans" font-weight="700">Libourne</text><text transform="translate(873.448 460.312)" font-size="5" fill="#1d1d1b" font-family="DejaVu Sans" font-weight="700">Lussac</text><text transform="translate(846.823 519.621)" font-size="5" fill="#1d1d1b" font-family="DejaVu Sans" font-weight="700">Castillon-la-Bataille</text><text transform="translate(789.74 551.789)" font-size="5" fill="#1d1d1b" font-family="DejaVu Sans" font-weight="700">Branne</text><text transform="translate(894.49 558.972)" font-size="5" fill="#1d1d1b" font-family="DejaVu Sans" font-weight="700">Pujols</text><text transform="translate(981.989 576.695)" font-size="5" fill="#1d1d1b" font-family="DejaVu Sans" font-weight="700">Sainte-<tspan x="18.089" y="0">F</tspan><tspan x="20.96" y="0">oy-la-Grande</tspan></text><text transform="translate(478.823 494.122)" font-size="5" fill="#1d1d1b" font-family="DejaVu Sans" font-weight="700">Saint-Médard-en-Jalles</text><text transform="translate(527.698 525.622)" font-size="5" fill="#1d1d1b" font-family="DejaVu Sans" font-weight="700">Mérignac I</text><text transform="translate(475.657 561.455)" font-size="5" fill="#1d1d1b" font-family="DejaVu Sans" font-weight="700">Mérignac II</text><text transform="translate(551.573 563.122)" font-size="5" fill="#1d1d1b" font-family="DejaVu Sans" font-weight="700">Pessac II</text><text transform="translate(580.198 555.455)" font-size="5" fill="#1d1d1b" font-family="DejaVu Sans" font-weight="700">Pessac I</text><text transform="translate(534.323 609.872)" font-size="5" fill="#1d1d1b" font-family="DejaVu Sans" font-weight="700">Gradignan</text><text transform="translate(306.99 645.038)" font-size="5" fill="#1d1d1b" font-family="DejaVu Sans" font-weight="700">Arcachon</text><text transform="translate(321.038 698.809)" font-size="5" fill="#1d1d1b" font-family="DejaVu Sans" font-weight="700">La <tspan x="7.466" y="0">T</tspan><tspan x="9.871" y="0">este-de-Buch</tspan></text><text transform="translate(397.656 576.695)" font-size="5" fill="#1d1d1b" font-family="DejaVu Sans" font-weight="700">Audenge</text><text transform="translate(490.198 732.622)" font-size="5" fill="#1d1d1b" font-family="DejaVu Sans" font-weight="700">Belin-Béliet</text><text transform="translate(615.324 650.705)" font-size="5" fill="#1d1d1b" font-family="DejaVu Sans" font-weight="700">La Brède</text><text transform="translate(615.323 790.955)" font-size="5" fill="#1d1d1b" font-family="DejaVu Sans" font-weight="700">Saint-Symphorien</text><text transform="translate(696.579 863.122)" font-size="5" fill="#1d1d1b" font-family="DejaVu Sans" font-weight="700">V<tspan x="3.394" y="0">illandraut</tspan></text><text transform="translate(790.073 838.622)" font-size="5" fill="#1d1d1b" font-family="DejaVu Sans" font-weight="700">Bazas</text><text transform="translate(774.156 924.372)" font-size="5" fill="#1d1d1b" font-family="DejaVu Sans" font-weight="700">Captieux</text><text transform="translate(856.761 858.247)" font-size="5" fill="#1d1d1b" font-family="DejaVu Sans" font-weight="700">Grignols</text><text transform="translate(692.698 698.809)" font-size="5" fill="#1d1d1b" font-family="DejaVu Sans" font-weight="700">Podensac</text><text transform="translate(740.448 752.497)" font-size="5" fill="#1d1d1b" font-family="DejaVu Sans" font-weight="700">Langon</text><text transform="translate(836.073 783.372)" font-size="5" fill="#1d1d1b" font-family="DejaVu Sans" font-weight="700">Auros</text><text transform="translate(888.823 730.372)" font-size="5" fill="#1d1d1b" font-family="DejaVu Sans" font-weight="700">La Réole</text><text transform="translate(785.698 705.997)" font-size="5" fill="#1d1d1b" font-family="DejaVu Sans" font-weight="700">Saint-Macaire</text><text transform="translate(930.198 680.372)" font-size="5" fill="#1d1d1b" font-family="DejaVu Sans" font-weight="700">Monségur</text><text transform="translate(822.448 653.419)" font-size="5" fill="#1d1d1b" font-family="DejaVu Sans" font-weight="700">Sauveterre-de-Guyenne</text><text transform="translate(781.323 625.693)" font-size="5" fill="#1d1d1b" font-family="DejaVu Sans" font-weight="700">T<tspan x="2.424" y="0">argon</tspan></text><text transform="translate(696.578 574.872)" font-size="5" fill="#1d1d1b" font-family="DejaVu Sans" font-weight="700">Créon</text><text transform="translate(748.406 673.122)" font-size="5" fill="#1d1d1b" font-family="DejaVu Sans" font-weight="700">Cadillac</text><text transform="translate(930.74 609.872)" font-size="5" fill="#1d1d1b" font-family="DejaVu Sans" font-weight="700">Pellegrue</text><text transform="translate(67.359 406.915)" font-size="8.31" fill="#1d1d1b" font-family="DejaVu Sans" font-weight="700">Le Bouscat</text><text transform="translate(144.022 408.162)" font-size="8.31" fill="#1d1d1b" font-family="DejaVu Sans" font-weight="700">Bordeaux I</text><text transform="translate(102.367 482.747)" font-size="8.31" fill="#1d1d1b" font-family="DejaVu Sans" font-weight="700">Bordeaux II</text><text transform="translate(33.599 483.682)" font-size="8.31" fill="#1d1d1b" font-family="DejaVu Sans" font-weight="700">Bordeaux VIII</text><text transform="translate(87.616 514.742)" font-size="8.31" fill="#1d1d1b" font-family="DejaVu Sans" font-weight="700">Bordeaux III</text><text transform="translate(177.347 519.556) rotate(-67.672)" font-size="8.31" fill="#1d1d1b" font-family="DejaVu Sans" font-weight="700">Bordeaux VII</text><text transform="translate(83.46 532.817)" font-size="8.31" fill="#1d1d1b" font-family="DejaVu Sans" font-weight="700">Bordeaux IV</text><text transform="translate(130.558 563.055) rotate(-31.805)" font-size="8.31" fill="#1d1d1b" font-family="DejaVu Sans" font-weight="700">Bordeaux V</text><text transform="matrix(0.54, -0.842, 0.842, 0.54, 167.079, 575.054)" font-size="8.31" fill="#1d1d1b" font-family="DejaVu Sans" font-weight="700">Bordeaux VI</text><text transform="translate(87.304 591.821)" font-size="8.31" fill="#1d1d1b" font-family="DejaVu Sans" font-weight="700"><tspan letter-spacing="-1">T</tspan><tspan x="4.029" y="0">alence</tspan></text><text transform="translate(154.515 597.638)" font-size="8.31" fill="#1d1d1b" font-family="DejaVu Sans" font-weight="700">Bègles</text><text transform="translate(112.957 648.261)" font-size="8.31" fill="#1d1d1b" font-family="DejaVu Sans" font-weight="700">V<tspan x="5.64" y="0">illenave-d’Ornon</tspan></text><polyline points="261.098 330.252 596.323 502.997 261.098 732.491" fill="none" stroke="#000100" stroke-linecap="square" stroke-linejoin="bevel" stroke-width="2"/><rect x="1.5" y="330.252" width="259.598" height="402.239" fill="none" stroke="#000100" stroke-linecap="square" stroke-linejoin="bevel" stroke-width="3"/></svg>