<svg xmlns="http://www.w3.org/2000/svg" width="982.542" height="680.747" viewBox="0 0 982.542 680.747"><title>Députés sortants du Tarn-et-Garonne en 2017</title><path d="M725.073,179.091l-6.048,1.595-1.888,6.553-6.571-14.645-13.334,1.787,12.555,12.885-7.148,13.142-7.2.807-12.024-8.23,0.357-21.444-10.988,1.649-4.536-5.838-7.148.11-10.676.522-2.492,2.8,3.858,14.269-8.614,6.928,0.577,3.684,8.907,6.571,3.217,10.8,4,9.375-5.443,7.872-4.619,9.072-21,5.617-6.681-.092-8.211-7.551-6.809-16.413,4.664-9.632-11.611-13.746-10.209,2.777-6.846-1.595-2.282-6.681-8.5-5.856-8.211,16.23-6.516,3.629-1.952,10.951-20.528,15.084-2.1-.825-22.5,15L497.3,252.926l-15.258,21.188L469.19,251.561l-5.608-4.747-7.423.88-6.3-3.29-10.31,2.575-16.936-7.643,3.5-5.6-1.091-13.068L411.336,221.7l4.885,10.218-8.642,16.917-6.03,4.014L401.182,263.9l-16.871,15.588-1.988,3.253-0.2,3.758,2.429,2.932,25.522,16.248,1.549,3.528-7.991,8.165-18.035-12.977-9.256,5.911-10.5.733-10.942,14.929-0.953,1.329L342.394,341.2l1.054,10.493,26.457,19.85,6.1-4.225,18.585,3.363,4.4,5.911-0.852,11.189,12.344,12.729,5.581,5.031,4.39,14.461,6.3,11.529,3.006,6.516-2.291,2.759,1.75,17.467,1.274,7.4,9.448,5.975-3.336,9.989,3.161,10.576,6,4.472,0.147,7.267L429.38,518.806l1.393,3.437,6.873-2.74,17.009,6.891,13.847-4.372,1.338,7.249,9.778,15.7,0.513,1.338,6.323,13.178,3.143,17.9,12.381,7.441,5.013,0.861,33.211,7.378,3.336,0.981,25.925,11.6,5.554-11.685L583.358,601l3.253,14.085,3.693,0.192,13.682-12.024,0.761-6.764,6.323,2.557,6.1-8.6,2.062-10.328,16.99,3.006,10.905,0.192,3.042-1.769,0.247-13.728,2.859-6.855-9.008-5.71-21.188-3.528,0.632-7.157-3.336-6.158,10.2,3.043,3.052-6.69,11.006-2.475,17.833,5.315,26.017-.321-3.18-13.123,6.7-11.418,7.67-12.244,6.314,3.024,7.084-1.2,2.538-6.287-4.985-13.536,10.4-.229,3.647,0.431,2.85-6.8,13.142-6.351,11.263-22.874-8.312-17.054-10.209-4.848-10.566-.376L720.6,417.2l4-18.365-12.427-8.6-0.22-13.105,4.582-8.807,2.548,2.74,7.066-2.181,14.434,3.629,10.539-3.721,14.819,1.2L765.9,366.4l8.816,6.727,10.209-2.7,24.5,19.437,12.087-3.83-4.637-9.311,10.117-9.466,4.289-9.595,15.048,20.051,9.421,5.122L858.155,371l-8.138-19.382,5.214-12.867,3.3-.3,4.014,9.072,3.244,0.7,11.391-8.981,13.865,5.315,6.846-3.006,9.127,11.437,8.66-5.892,3.143-4.453-18.3-17,11.593-8.248,7.222,0.54,10.594,7.945,6.791,8.578,10.942-.962,10.264,4.372,11.483-8.229,5.3,3.116,5.361-9.521-16.606-7.083-1.649-7.157,5.022-5.517-4.756-5.407-10.429-2.9-10.988,1.356L936.17,310.7l-4.894-5.242-0.8-10.576-4.28-5.544-13.114,4.353,1.476-3.226L907.5,283.2l1.375-6.873-11.959-6.681,3.345-5.691,10.676,0.376,18.539-32.808,8.5-5.389,4.674,4.829,10.108,0.88,1.714-24.166,5.013-12.812-10.218-4.225-10.988.229-2.447-2.777-30.3,3.739-25.394-14.067L889,165.741l-15.331-20.509,12.087-14.159,7.478-.357-2.759-5.224-23.616,8.752-3.537-6.286-10.53,2.9-5.627,12.564-13.545-6.946-2.438-7.249-9.559,2.951-1.823,6.516-6.241-.018,3.73,6.571-4.271,6.177-7.148,2.126-10.814-9.668-14.534-3.4-6.112,9.146L757.183,156.3l-6.754-2.987L729.59,171.451,726.126,171l-0.6,5.278Z" transform="translate(1.057 -65.649)" fill="#ff8080" stroke="#000" stroke-width="2"/><path d="M89.315,449l-2.264-5.957-10.878.77L64.782,434.47l-6.662,3.6-12.573,9L19.594,462.585l-5.838-12.564L15.424,439.3l-4.17-5.673-2.31-9.934-6.626.357L0,413.721l6.818-12.793,0.257-7.341L12.042,381.1l16.092-13.123,5.37,4.316,12.977,3.061L42.256,366.3l3.428-12.958-7.661-13.425,6.882-2.593,18.64,2.455,27.2,13.3,1.869,3.327,8.788,1.146,8.587-5.728,0.266-6.983,2.822-2.108,6.241,3.08,1.035-6.644-3.941-5.837-2.447-13.554,3.574-6.067,0.183-3.684-6.076-4-9.32,5.389-4.948-4.976-8.01-1.31,0.037-10.292,4.683-9.219,1.017-.266,32.808,3.189,20.354-43.695-7.9-8.715,10.676-14.122-3.913-17.577,10.182,3.473,7.743-11.794L144.849,181.7l-1.035-3.547-5.526-11.583-16.633,5.993-8.779-11.959-11.18-1.723,3.959-9.146-0.962-6.442,7.826-5.224,9.961-19.437-3.2-4.023,1.045-6.69-4.71-9.357,5.159-9.237,3.629-8.807,9.54-1.915,7.02-1.595,2.951,7L154.527,94.25l3.107,26.384,0.88-.037,1.338-10.667,4.766-5.838,25.6,0.073,10.6-10.5,17.164,6.25L225.376,99l14.553,1.7,10.392-3.647,0.339-11.025,2.657-2.538,14.708-3.345L283.11,68.9,306.6,66.739l1.5,21.178-2.731,2.5-7.46-.11-13.948,5.746-7.35-.861-3.776,10.667-6.167,3.9,4.454,5.893,7.258-.037,6.213,4.06,7.331,8.376-3.244,14.049,8.486,7.176,1.952,2.667,5.966-1.448,6.571,1.787,9.705,8.642,6.388-2.74,7.359,6.406,7.743-7.12-1.2,17.128,5.425,8.734,11.629,6.5,3.079-1.787,7.341,12.564,6.085-8.486,3.647-.339,9.943,4.509,4.839,9.632,4.912-4.014,3.776-17.366,2.355,2.933,11.18,0.376,7.789-8.11,13.462-5.352,3.152,0.9-5.929,21.3,5.123,12.638L425,220.625l-13.691,1.035,4.885,10.218L407.552,248.8l-6.03,4.023-0.366,11.043-16.871,15.57-1.988,3.253-0.2,3.776,2.429,2.914,25.513,16.248,1.558,3.528-7.991,8.165-18.035-12.977-9.256,5.911-10.5.733-10.942,14.929-0.953,1.329-11.547,13.911,1.054,10.493,26.457,19.85,6.1-4.225,18.585,3.363,4.4,5.92-0.852,11.171,12.344,12.729,5.581,5.05,4.39,14.443,6.3,11.529,3.006,6.516-2.291,2.777,1.75,17.449,1.274,7.4,9.448,5.994-3.336,9.989,3.161,10.576,6,4.472,0.147,7.249-16.541,14.874,1.393,3.437,6.873-2.759,17.009,6.891,13.847-4.353,1.338,7.23,9.778,15.7,0.513,1.356,6.323,13.178,3.143,17.9,12.381,7.441,5.013,0.861L540.177,593l3.336,0.981,25.925,11.6L560.356,617.7l-7.231,17.257L552.2,631.5l-13.05,4.39-10.026-2.612L521.7,621.451l-6.919-1.751L508,622.724l-20.116-8.578-7.222,7.606,0.2,7-5.379,4.472,9.494,14.966-2.044,6.03L464.58,655.56,452.2,648.2l-15.469,7.945-4.463,5.517,7.185,1.823,8.889,11.639,13.389-4.692,17.76,1.128,4.371,20.766-9.622,1.558-3.363,5.654L457.6,701.7l-11.428,8.285-7.588.568-2.218.568-13.407,3.812-3.006-5.819-8.633,3.253,2.273,7,5.929,3.437-2.4,2.85L369.17,745.169l-2.126-3.061-2.346-6.764,8.514-6.91-1.723-7.038-25.376-4.1L340,706.147l-9.622-4.775-4.39-10.255-9.943-4.3-1.806,7.23-13,6.983-8.2,12.262-3.235,1.338-4.573-5.242,2.337-2.612-1.714-3.061-6.818-1.594-10.768-8.843-0.916.953-17.916,18.2-11.016-1-6.388-3.776-28.391,5.031-9.943,2.988-3.959,5.535-8.468,4.188-5.911-3.454-6.232.5-1.622,2.1-9.283-4.848-14.315,1-4.857,5.48-10.438,1.7-5.27-4.582,6.772-23.873,6.855-8.541,8.083-14.535-23.3-8.486,0.11-10.117,13.49,0.824-6.681-13.48-14.076-12.188-2.475-14.7,2.181-6.012,11.648-5.911,3.134-2.236L117.051,598.3l-0.807-5.819-10.063-3.473-8.257-11.189-6.7,2.328-3.061-1.806L85.993,584.3l-7.02,1.292-15.881-9.724L54.8,567.96,24.19,578.93l-7.368-17.861-0.339-7.175,18.439-10.4,1.054-3.437,5.526-8.734-0.568-3.7,7.322-8.3,2.859,0.449,2.933-4.692,0.541-.953L68.5,497.405l-1.338-7.5-6.012-5.05,3.941-6.03L58.9,469.967l4.151-5.279,6.681-1.237,9.008,4.9,7.212-11.007,6.681-.468,5.278-4.114Z" transform="translate(1.057 -65.649)" fill="#ffd1dc" stroke="#000" stroke-width="2"/><text transform="translate(525.701 357.433)" font-size="201.601" font-family="DejaVu Sans" font-weight="700">1</text><text transform="translate(168.55 427.434)" font-size="201.601" font-family="DejaVu Sans" font-weight="700">2</text></svg>