<svg xmlns="http://www.w3.org/2000/svg" width="821.594" height="976.889" viewBox="0 0 821.594 976.889"><title>Députés sortants de la Lozère en 2017</title><path d="M583.162,972.37l-29.145-7.224-3.849-.816-16.829,9.737-9.016-7.3-22.537-5.982-19.446,2.18-34.179-6.893-4.665-6.059-3.517-14.478-25.409-15.758-3.575-6.742L395.785,910.7,394.4,899.43l-10.96-15.682,1.687-7.556-22.849-2.275-11.055,3.536L337.3,870.6l-7.651.588-3.147,6.893-18.924-.5L287.5,888.357l-10.448.076-18.687.351,0.91-3.612,6.5-2.911,5.556-9.462,9.13-29.051-28.093-11.614-6.334-9.282-10.818,4.1-11.188-1.128-5.054-30.131-6.523-3.356-6.334,13.577-7.187,3.4-6.077-3.944,2.778-23.608,23.333-26.794-6.589-8.9,3.906-14.421-11.093-2.152-6.371-13.909L201,700.934l-9.481-6.912,1.83-7.556,0.72-11.5-2.948-6.912,13.966-5.964,0.152-18.773-8.486-6.428,2.569-7.206,8.96-7.282,0.872-11.776-5.688-5.4,1.034-3.793-0.7-11.444-8.552-6.523-6.1-14.108-14.317-7.5L150.147,536.71l5.888-18.943-1.071-15.625,6.912-30.577-5.537-10.372-0.332-3.461-13.331-10.258-6.04-8.571-12.107-7.168-5.167-5.888-9.775-11.7-4-10.723L79.844,376.091l2.626-6.447L80.66,366.05,93.9,341.361l13.681-41.651,10.761-5.11,7.794,1.763-3.4-13.644-6.116-3.612,1.147-3.366,2.1-18.649,8.8-11.074,4.835-5.594-3.366-10.467,4.779-9.481-3.242-18.052,1.868-7.348,12.818-18.242,10.316-4.522L152.793,158.7l17.483,3.555,4.276,0.237,0.815-12.5-4.3-13.151,8.164-12.259L177.757,103.7l13.207-7.85,7.149-13.7,11.652,1.479,6.94,9.5,7.092,10.761,3.555,10.571,7.035,2.816L241,126.384l6.978,2.465,4.57-10.865,15.255-3.242,8.685-8.144L284,99l-5.688-9.576-1.242-14.553,18.763-7.13L291.7,50.137l4.542-5.537-1.422-3.337,6.239-2.389,7.718-.019-2.608,7.329,3.811,6.428,14.81,3.688,12.392-14.923,10.761-.426,3.385-6.912,15.625-11.463,13.35,1.242L385.8,4.93,394.973,0l1.356,18.962L405.7,26l13.871-4.522L427.3,35.156,429.617,52.6l-4.3,13.35L432.471,76.6l0.038,11.871,13.226,20.2,4.93,29.59,12.724,14.667-1.147,11.463,11.15,10.552,6.646,13.928,7.016,3.669,3.261-2.294,2.275-7.243,10.9-10.666,27.163-4.333,11.482,2.7,10.837-9.671,11.036,9.168,5.85-3.726-2.275-7.576,8.817-25.76-2.256-19.427,10.7-4.039,4.8,5.149,9.055-5.11,5.688,2.275,9.481,0.19,12.762,7.537,5.329,14.165,5.556,4.466-3.147,14.592-9.927,5.869,7.206,8.353,22.831-3.3,5.727-5.224,18.071,4.7,7.5-1.868,1.5-7.206,6.836,2.608,5.727,16.848,7.149,7.87,3.461,17.8,2.446-3.167,3.849,0.986,20.461,17.976,7.775,21.465,2.948,1.925L754.966,231l11.207-3.091,6.912,3.575-0.626,7.386-8.979,12.459,7.67,8.514,18.631,3.707,10.552,4.978,1.2,3.726L790.294,291.66l-0.038,7.831,5.461,5.594L795.5,316.747l11.207,0.275,0.834,3.707-10.429,16,11.074,24.793,7.576,8.5,0.8,8.685-1.318,30.577,10.088,4.911,1.147,3.707-1.242,17.332,9.614,5.67-1.337,7.537,5.442,10,20.318-1.128,9.775,21.551,3.849,18.242,10.979,20.072-1.981,3.318,3.423,1.83,4.627,14.923,0.275,31.108,8.837,16.763-17.91,19.161-2.351,18.166-1.053.389-8.258,13.188-9.87,5.651,0.076,7.794-3.2,2.171L834.1,646.606l-8.979,5.149-4.835,9.187-4.542,2.816-4.93-3.2-2.314,5.632,20.555,19.91,11.036,19.854v7.243l10.164,11.538L861,727.708l-1.726,10.78-0.588-3.631-3.536,10.335-16.791,14.26,1.707,4.959,8.8,7.736,3.356,11.33-4.608,9.481,10.041,9.652,9.519-4.589L875.777,805l4.39,5.774-2.892,10.391-13.207.929-6.684,9.614L861,858.89l-2.958,1-7.016,21.741,2.1,3.186,14.336,3.319,5.67,21.627,6.428-.986,0.171,9.149-36.815-19.541-3.811.427,2.892,22.518-6.1,2.977-6.533-1.669-0.8,11.074-13.151,3.479-17.388,20.774-32.739-9.737-6.04.853-3.517,4.646-7.595,4.352-11.15,1.318-19.313-15.966-6.874-1.262-3.944-9.5-3.517-.256L687,926l-7.556-8-17.587-2.219-9.168-5.793-6.466-9.017,0.5-3.689-11.264-1.707-2.5,7.206-6.485,3.925-8.277-7.348-9.614,6.077L602.8,924.043l1.906,7.073,10.2,5.67,1.28,3.65-9.111,6.921-2.427,18.981Z" transform="translate(-78.676 1.613)" fill="#06c" stroke="#000" stroke-width="2"/><text transform="translate(316.964 592.44)" font-size="208.574" font-family="DejaVu Sans" font-weight="700">1</text></svg>