<svg xmlns="http://www.w3.org/2000/svg" width="962.255" height="724.585" viewBox="0 0 962.255 724.585"><title>Députés sortants d&amp;apos;Ariège en 2017</title><path d="M817.971,741.726l-1.231-4.136-11.973-3.977-2.855-5.76,0.377-3.09,9.11-1.943,4.722-4.019-19.575-25.268-2.194-1.993-2-6.054L773.914,679.6l-7.309-5.643,0.552-6.413,10.968-11.722-0.393-6.246,0.619-6.2L787.7,643l41.344-3.86,9.319-4.563,17.649-9.21-2.227-6.146,5.275-32.327-6.229-18.563L819.5,559.05l-19.224-7.912-3.006.519-2.227,5.66-0.469,9.193-2.922-.913-5.76-16.352-17.859-7.586-16.628-.343-7.711,1.356-0.293-6.347,1.934-2.537,6.313,0.653,3.667-8.44-14.267-8.181L733,514.188l-5.8-7.945-17.281-7.82-5.978,7.192-10.776,6.43-9.026-14.191,3.642-9.369-2.947-5.768,4.32-4.7,0.117-12.735,9.335,0.326,5.509-18.872-8.875-5.744-6-2.814L680.926,454.6l-4.639,4.99-16.008-9.6-2.085-4.772,2.612-10.533-0.067-6.489-9.126-1.474-3.55-5.4-2.16-6.112,2.47-6-9.972,2.059-23.126-2.948-6.547,1.767L602.859,427.5l-2.671,5.115-3.039-.293-12.668-1.013-5.769-3.156,3.031-11.822-20.153-5.559-5.057,2.537-1.172,9.009-8.691,3.725-10.725,15.531-5.057-4.3-2.177-6.43,5.409-10.742-2.83-5.71,1.013-12.609L509.98,407.36l-3.617,5.409-18.294,6.43-8.2,8.2-1.608,5.8,1.842,1.164-1.917,8.884-11.671,2.285-0.586,2.972-18.336,7.134-2.738-1.9,1.155-6.505-6.388.192-9.821,7.7L411.55,449l-18.319,12.986-3.039-.36-9.947,1.34-1.859,5.76-15.531,3.583-0.268,13.33,16.184,3.173,3.55,5.694,11,1.164,27.387-10.206-2.11,8.473,2.788,5.133,3.483,3.123,0.745,9.713,14.836,6.74-2.612.7-11.328,6.815-2.47,19.676,7.494,14.72-0.151,6.773-4.1,5.409-6.38,2.026-4.22-4.94L391,564.282l-15.883.6-15.1,4.2-10.851-7.8L333.065,563.9l-15.13-6.347-16.352,11.58-2.554,12.659-7.619.771-5.911,6.773-9.051-.168-2.11,2.387-6.556,6.054,0.31,3.09-3.424,9.126-14.091,8.029-1.448,9.713-12.634-.753-8.189-5.283-5.141-12.391-5.317-6.4-4.329-4.873,3.659-15.875-1.507-9.645-23.519-43.06-0.93-1.29-8.666-1.867-7.15-7.242-23.954-10.122-11.379,15.942-10.248,3.533-18.939,5.023-7.435-1.013-10.692,7.1-26.851,1.582,7.452,21.443-5.267,7.686-9.352.377-5.451,3.332-9.562-1.164-2.135,2.437-10,6.983,5.384,14.292,4.873,4.4,1.281,6.472-5.426,15.531,2.972,5.886,6.238,2.127,2.026,12.249,6.271,14-1.122,12.216,6.3,7.652,12.7,4.614,17.633,15.749,11.42,6.949,3.316,0.7,11.94-11.688,8.9-4.5,17.08,18.018,15.523-3.633,9.319,3.633,13.4,0.519,8.381,4.722,16.837-1.164,4.094-5.367,7.82,10.583L230.8,721.5l15.733,16.612,4.831,26.458L272.38,781.8l6.581,0.519,11.211-7.636,19.818-4.354,8.138-6.162,9.4,3.567,9.847,8.54,9.185-2.7,9.218,2.763,9.31-3.777,10,1.13,11.764-6,6.7,0.067,3.416,5.057,12.316-.586-3.944,16.008,8,6.1,9.93,2.4,7.77,6.589L432.2,820.31l16.712,16.57,6.263,26.7,12.174,20.035,13.438,0.536,11.487-7.134-2.462-22.875,6.556-15.523,9.964-2.269,5.81,7.72,12.827-1.013,1.574-2.814,8.507-.586,10.759-5.71,2.562,1.666,15.716,5.76,5.685,12.182,14.091,8.716L607,859.525l9.9,2.269,7.929,6.229,16.335-3.91,21.769,8.816,16.226-2.353,1,6.3-7.435,11.186,0.519,9.847,25.637,8.457,10.056-1.214,5.5,8.163,9.662,1.256,17.809-8.616,9.553-2.662,19.358,3.994,6.505-1.49-0.7-6.555,9.352-2.5,4.211-5.007,0.686-9.745,4.823-8.565,7.452,6.623,10.1-.461,6.162,2.864,6.037-2.846,5.953-8.163,13.237,0.192,5.191-4.186-0.176-6.146,10.416-18.579,5.116-13.8,2.956-.176,11.621,7.192,6.129,0.979,11.554-4.706,2.654-5.886L910.068,828l9.152-3.667,23.243,0.771,15.171-6.966,10.851,7.912,6.522,1.716,9.8-1.783,0.494-6.657,6.246-11.58-3.65-9.436-6.338-7.77-9.9-.7-4.973-4.43-0.821-6.162-18.269-11.922-9.444-7-7.82-4.789-2.269-14.928-1,.393-19.081-3.693-10.114,7.82-6.405.569-2.964,5.183-7.678,1.424-11.529,6.28-3.751-2.336-5.032,1.114-29.313-2.78-4.722-8.273Z" transform="translate(-30.387 -191.012)" fill="#ff8080" stroke="#000" stroke-width="2"/><path d="M476.717,292.966l-7.3-3.567-7.3-2.227-10.265-8.147L458.2,250.39,441.635,230.1l-0.586-1.047-16.109-10.985L415.252,201.3l5.216-4.052-19.592-5.217-10.106,1.6-5.216,4.354-5.191,11.722-6.522.653-4.22,8.958-6.438-.787,6.2,15.146-5.065,7.77,25.888,4.186-0.377,3.349-8.2,5.92,13.011,2.7,8.256,5.133,3.039-1.456,8.992,2.554,5.568-2.8,1.314,6.1,5.233,7.242-1.633,8.666-6.933,11.395-9.629-2.269-20.53,8.239,1.272,7.36-5.141,5.886-5.534.963-6.33-4.789-6.715,5.493-13.991-6.112-7.318,3.977,1.264,0.687-10.6,6.815-2.754.477-3.642-5.593-9.938,1.6-1.842,13.07-7.695,10.466,0.176,6.539,4.681,4.4,9.847,2.026,12.676,1.993,13.162-.444,2.009,6.229,18.52,18.939-8.934-.837L355.5,389.723l-2,2.662-12.944,2.227,0.8,15.925-11.638,3.483L314.1,416.114l-9.31-20.454,1.926-2.261-1.742-5.71-8.8-10.072-16.662-15.171-5.317,8.783-3.416.05-12-6.447L243.275,346.9l-8.548,8.273-2.57,4.086-12.1,2.043-2.478,8.1L199.753,364.7l-6.69-6.623-1.2,1.508-2.462,5.626,2.779,5.083-1.047,12.785-8.976,19.014-9.059-1.8-11.387-11.052-6.112-.771,2.043,8.507-5.308,7.209-3,.134-0.3,6.673,9.469,9.319-3.8,4.973-5.158,4.22-10.022-.821,5.2,10.29-1.3,9.16,3.692,5.065,3.056-.536,0.8,8.339-0.871.276-6.188-5.165,3.282,20.915,5.526-.569,7.912,5.065,3.944,8.523,6.346-.176-12.007,4.011-7.427,14.828,23.954,10.122,7.15,7.242,8.666,1.884,0.93,1.29,23.519,43.06,1.5,9.629-3.65,15.875,4.32,4.89,5.325,6.4,5.132,12.383,8.2,5.3,12.634,0.737,1.448-9.713,14.091-8.029,3.416-9.126-0.31-3.09,6.556-6.054,2.11-2.387,9.051,0.176,5.919-6.773,7.619-.771,2.545-12.659,16.352-11.58,15.138,6.33,16.109-2.6,10.851,7.787,15.1-4.186,15.883-.619,25.671,5.559,4.22,4.94,6.388-2.026,4.1-5.409,0.151-6.773-7.5-14.736,2.478-19.659L437.88,519.3l2.6-.7-14.828-6.757-0.745-9.713-3.483-3.106-2.788-5.149,2.11-8.473-27.387,10.206-10.993-1.147-3.55-5.694-16.184-3.19,0.268-13.312,15.531-3.583,1.859-5.76,9.947-1.356,3.048,0.36,18.319-12.986,18.252,6.146,9.821-7.72,6.38-.176-1.147,6.505,2.738,1.884,18.328-7.117,0.594-2.99,11.671-2.269,1.917-8.884-1.842-1.164,1.6-5.8,8.205-8.2,18.286-6.43,3.625-5.425,22.322-5.576-1.013,12.627,2.83,5.71L528.765,430.8l2.177,6.413,5.057,4.32L546.733,426l8.691-3.725,1.164-9.026,5.057-2.537,20.153,5.576L578.767,428.1l5.76,3.173,12.676,1.013,3.031,0.276,2.679-5.1,5.869-17.415,6.547-1.767,23.126,2.948,9.972-2.077-2.478,6.02,2.168,6.1,3.55,5.409,9.126,1.474,0.067,6.472-2.612,10.55,2.085,4.756,16.008,9.611,4.639-5.007,8.314-16.4,6,2.814,8.867,5.727-5.5,18.872-9.335-.31L689.2,477.973l-4.312,4.7,2.947,5.76-3.642,9.386,9.026,14.175L704,505.561l5.978-7.176,17.281,7.82,5.8,7.929,8.046,3.633,14.267,8.181L751.7,534.4l-6.321-.653-1.926,2.52,0.293,6.363,7.711-1.373,16.62,0.343,17.867,7.6,5.76,16.336,2.922,0.913,0.469-9.176,2.219-5.677,3.014-.519L819.556,559l1.708-12.543,11.37-3.743-0.577-3.106,7.376-2.83,12.609,1.456,6.556,6.933,6.079-.669,5.534-7.276-9.444-1.867-4.052-4.856-1.783-19.408,2.621-5.92-1.407-8.732-11.312-4.354,11.537-15.13,0.193-6.3-4.488-7.753-2.5-4.287L839,451.549l-4.982,2.7-5.844-2.554-3.894-11.872,2.713-5.217,12.065,0.226,1.348-2.814-4.387-8.181-5.057-3.617,4.261-3.667-3.667-16.52,0.6-8.7-4.572-10.776-12.149-1.783-0.419-5.183-7.92-3.827-8.44,2.227-8.365,13.689-1.825-6.2L781.7,372.6l0.034-16.578-4.379,4.772L764.8,358.87l-3.474-15.581-4.387,3.994,1.842,8.942L743,357.841l-3.382-3.24-14.4-7.82-12.559,2.612-2.922-5.886-17.524-10.3-10.842-13.07-9.771-3.29-10.039.821-1.532-3.09,0.293-9.645,10.365-12.316L668,283.376l2.185-2.4-5.568-3.86-11.245-16.745,0.519-13.178-8.976-14.209-10.541-7.6L618.008,246.41l3.684,8.649-0.36,6.707-7.753,6.4-6.631.461,1.474-16.536-22.012-6.447-3.759-5.493-13.061-2.587-2.671-6.1-6.1,1.834,1.692,9.469-2.478,6.054-2.637,1.926-5.953-7.753-6.129-10.927-2.177-2.261-2.637,1.666,0.034-.979L523.38,234.84l-1.239-12.475-0.352-6.212-2.662-1.65-3.583,5.133-7.385-5.425L507.3,229.733l-4.521,8.1,2.821,5.677-1.206,5.744,4.789,2.227,4.864,5.023-8.59,12.391,8.147,5.2-0.008,6.489,0.084,3.827-12.065-5.425-5.961,3.006-2.252,6.28-4.8,7.242Z" transform="translate(-30.387 -191.012)" fill="#ff8080" stroke="#000" stroke-width="2"/><text transform="translate(480.474 525.629)" font-size="184.189" font-family="DejaVu Sans" font-weight="700">1</text><text transform="translate(481.908 210.771)" font-size="184.189" font-family="DejaVu Sans" font-weight="700">2</text></svg>