<svg xmlns="http://www.w3.org/2000/svg" width="985.945" height="865.4" viewBox="0 0 985.945 865.4"><title>Députés sortants du Gard en 2017</title><path d="M760.486,722.65l-11.234-30.537-0.146-6.038,1.381-9.151-3.311-.541-9.005-7.412-2.368-8.566-7.982-8.04-7.982.373-3.771,7.667-9.582,2.968-2.23,2.653-4.284,1.411-3.442,5.665,0.7,3.311,17.9,14.932L697.588,706.2l1.974,3.428L688.4,716.671l-16.592-25.479,9.867-6.666-3.939-6.856,7.053-2.844,2.844,6.066,3.5-6.936-5.211-12.579-7.879-5.965-3.684-5.526-16.1-19.654-10.006-6.622-4.027-11.351-8.668-.446-8.537,8.266-4.641,1.725-0.212,5.635-6.651,12.074,0.87,14.034,23.272,4.284,7.368,4.824-0.672,5.782,7.624,19.143-9.6.811-6.2,5.211,1.045,10.518,21.167,27.35,3.983-3.713,2.442,1.44,13.675,17.915,0.643-7.222,14.516,3.311,11.475,9.224,5.694,0.344,6.169-5.884,3.282-8.092L719.435,727.5l7.74-2.529,14.9,24.222,3.224,19.647,4.21,7.353,6.907,4.9,13.6,8.669,8.625-2.755,15.159-.431,8.135-3.852,13.537,6.563,11.936,2.083,12.074,8.837,14.874-.329,2.894-.914,0.087-3.041-7.85-16.358-1.271-12.074,9.853-28.337,14.706-22.928,1.644-21.343L867.3,675.111l14.735-13-3.172-4.5-11.293.373,2.258-5.3-3.187-8.04-2.339-11.41,1.081-8.654L857.5,627.3l-2.295,5.065L850.655,645l-6.008,5.335,4.627,2.471,0.884,8.15-2.485,1.33,6.308,5.482,0.087,2.814-16.088-.826-14.545-3.34-12.506-8.369-1.571-.146-8.669-2.872L799.623,666.6l-6.966,12.82,7.7,16.233,2.711,7.909-7.726,9.882-29.923,5.6Z" transform="translate(-8.197 -130.477)" fill="#ff8080" stroke="#000" stroke-width="2"/><path d="M519.717,884.707l-5.482-.212,0.285-.329,5.328-2.368,10.065,5.555,14.275-2.638,16.986,2.4-0.373-9.049,12.689-12.608,14.2-26.663,0.555-8.479-18.755-32.978,0.446-2.31,1.382-5.138-7.879-13.917-5.5-14.991-2.2-4.912-4.985-2.112-6.812,3-6.724-2.61-7.755-8.106-4.108-3.808-0.943-8.39-4.48-3.37-10.32,2.77-2.281-5.124-7.353-3.282,0.153-3.208,0.7-6.052-13.419-11.95L468.662,691.63l4.385-4.027,5.927-11.863-2.741-4.422,7.163-4.385,12.323,11.8,1.374-1.14-2.829-5.079,4.7-19.384,2.558-2.412,9.195,7.477,10.847-3.158,7.324,15.649,8.011-3.442,5.855,0.526,5,3.143,0.058,2.953,4.81-4.554,11.022,2.127,4.086,3.457-1.915,10.737,17.286,1.71,14.275,8.99,3.1-2.682,8.9-3.8,7.463-3.5,1.345,2.587,8.391-1.44,4.422,3.8,10.81-4.152,2.595,1.345-6.2,5.211,1.031,10.51,21.167,27.35,4-3.713,2.426,1.454,13.69,17.915L681.152,740l14.5,3.311,11.49,9.224,5.694,0.344L719.006,747l3.282-8.092L719.444,727.6l7.755-2.514,14.9,24.222,3.208,19.647,4.21,7.353,6.907,4.882,13.617,8.683-6.183,10.408,0.731,11.98-16.233,7.265-15.291,33.044,1,5.708L740.282,865l5.9,0.928,11.263-4.239,4.656,3.786,0.358,5.855-8.282,12.462-7.455,5.168-14.589-1.14-11.475,9.2,4.736,3.523-3.984,7.412-11.651.241-10.708,9.9-11.5,1.768-3.208,4.4-9.963,5.613-9.363-6.812-0.987-2.741,3.925-4.181-2.229-4.781-5.8,9.466,7.28,15.992L650.028,948.2l-30.465,11.037-3.91,3.771,0.884,2.872-4.81,10.964L610.9,994.6l-41.267-10.518-20.67-12.521L541.2,955.275l3.523-11.651,7.711-4.6,0.468-5.8-6.439-10.35-15.846-8.969,4.751-12.06Z" transform="translate(-8.197 -130.477)" fill="silver" stroke="#000" stroke-width="2"/><path d="M864.311,633.311l1.081-8.654-7.879,2.711-2.295,5.065-4.539,12.637-6.008,5.351,4.612,2.471,0.9,8.135-2.5,1.33,6.308,5.482,0.087,2.814-16.088-.826-14.531-3.34-12.521-8.369-1.571-.146L800.7,655.1l-7.579-3.925-1.381-7.594,1.827-7.594,5.665-1.081,3.954-7.455,5.438-1.6-0.811-8.266-1.44-2.485-5.541-1.016-2.595-8.179-5.738-8.837,0.387-11.395-8.369-1.14-6.907-5.079-2.214,1.842-4.268,19.516-5.65-1.045-7.536-8.252-14.3-.314-0.453-16.986,2.1-8.42,4.955-6.666,1.381-8.12,10.291-2.1,2.858-13.821,8.507-3.041,0.629-1.754,13.807,3.2,7.594-2.953,0.826,2.741,2.858-.183,0.146-11.907,3.742,1.469,4.042-4.268,13.288-5.766-4.239-7.638-5.8.417-2.04-2.068,6.666-16.146,0.556-8.734-3.786-4.108,0.153-5.708-5.394,2-2.872-.541v-2.924L790.211,463.7l2.858-5.168,1.981-17.527-18.214-2.383-0.27-5.584-4.722-2.653-3.011-2.587,3.055-6.5,7.726-1.213,2.273-4.765-3.757-4.568-0.146-5.738,11.023-9.794,4.641-6.7,2.61-10.708-15.129.731-3.172-6.725,0.87-5,4.4-7.55,1.243-8.763,5.226-1.725,8.135,5.482,10.394-13.916,3.852-17.162,5.8-1.287-3.224,8.391,1.4,5.869,3.4,4.97,8.749,2.214,1.5,2.609,11.593,0.512,1.36,4.166,22.585-5.335,4.882-2.514,16.329,1.827,5.124,2.573,11.2-3.786,5.365,2.259,1.067,5.782-4.012,7.952,2.785,5.138,7.952,3.224-0.658,8.654-2.368,1.71,0.658,8.749-0.117,2.968,1,8.763-0.373,10.137-8.106,28.14,7.265,11.577,1.842,7.967,2.157,5.379,2.872,0.782,12.747-7.455,5.825-.76,1.44,8.3,1.768,3,14.859,9.093,0.373,8.164,5.255,6.052,7.4,7.039,3.655,4.955,4.122,14.706,9.077,1.345,4.568,3.771,0.526,9.239,1.381,4.166-2.741,8.354-17.373-1.8-1.74,8.705,2.61,11.431-13.9,10.708-9.136,12.133-17.286,5.811-6.469,6.381-2.2,6.527-8.04,9.077-10.65,5.635-0.5,1.784,2.909-.57-9.765,11.051-15.992,7.609-3.4,4.781-0.7-2.7-2.77-.256-9.283,5.855Z" transform="translate(-8.197 -130.477)" fill="#ffc0c0" stroke="#000" stroke-width="2"/><path d="M513.957,340.9l7.236-4.3,2.4-.146-0.5-4.81-5.153-2.726-1.016-5.767-4.48-3.757-8.223-2.127,4.7-7.477-3.8-17.447,11.863,1,10.993,9.692,8.164-1.454,4.385,10.079,4.795,2.894,3.253-1.572-3.223-4.137,3.2-14.648,4.422-2.756-0.585-5.927,7.024-5.54-5.884-6.227,0.3-10.291,2.77-4.437,11.724,1.031,10.108-4.839,5.335,15.634,18.514,9.29,10.978,12.119,6.878,6.067,8.552,3.172,9.239-6.352,9.465-17.7L647,257.587l8.537,0.153,9.933-6.008,6.921-9.239-2.171-5.167,27.577-1.572,10.5-6.008,5.328,2.368,4.181,8.091-0.556,5.935-6.125,20.327,1.067,8.822,6.366,5.57,17.659-1.316,2.244,5.526,3-.088,7.938-12.535-2.755,1,1.425-32.46,2.653-5.35,5.855-1.228,11.278,3.026,14.406-1.784,3.684,4.21,1.681,5.467,5.855,0.3,4.342,4.056,11.161-.358-0.84,1.411-1.316,2.756,7.156,13.493,7.982,4.181,2.653-1.213,15.349,7.791,4.042,0.629,6.922,11.322,9.963-6.067,10.291,12.689,1.4,9.721,16.073,20.97L885.9,341.2l0.453,3.384-16.329-1.827-4.9,2.514L842.538,350.6l-1.36-4.166-11.577-.512-1.5-2.624-8.763-2.2-3.4-4.97-1.4-5.869,3.224-8.391-5.8,1.287-3.837,17.162-10.408,13.916-8.12-5.482-5.241,1.725-1.228,8.763-4.4,7.55-0.884,5,3.187,6.725,15.129-.731-2.61,10.708-4.641,6.7-11.037,9.794,0.146,5.738,3.771,4.568-2.281,4.765-7.711,1.2-3.07,6.512,3.026,2.587L776.478,433l0.27,5.584,18.214,2.383L792.988,458.5l-2.872,5.168-5.8-.044-1.9,2.244-8.566-4.9L759.7,462.943l-12.235-.468-7.126.643-7.222-8.055-10.576,8.969-10.664-3.311-5.226,6.768-13.258,5.5-10.006-.117-5.928-10.576L663.4,450.459l-24.851-9.349L637.78,458.6l-4.283,7.667,15.977,7.112,0.058,14.45,11.49,4.327L657.837,503.4l1.425,5.613,3.128,0.914,2.01-5.182,14.048,8.34,1.257,23.484,4.582,3.684,5.051,10.817-7.323,3.611-3.084,7.126,6.98,9.21,7.565,4.371,10.65-4.085,4.781,2.595-2.61,7.726,2.258,5.226,2.185,1.842,11.161-.314-7.339,10.561-2.828-1.067-7.368,4.7,5.869,6.826,0.526,2.828-2.368,1.571-23.857-3.084-10.606,9.29-11.724-.76-17.644-9.59-0.417,2.668-8.668-.453-8.537,8.266-4.641,1.725,0.285-2.894-4.795-3.224L615.2,607.52l-7.521-8.6-4.795,3.2-2.281-1.768,5.2-5.694H591l-13.558-5.029-0.315-2,0.387-6.242,4.071-12.535,0.687-3.055,2.112-4.385,9.6-6.783,5.737-.3-9.29-15.115,4.385-7.967-8.581-1.768-11.519-13.4,2.5-1.543L569.8,510.5l-6.242,6.41-4.568,3.523-5.723-.782,4.67-13.222-4.056-3.625-7.967.431-6.008-5.3-7.163-14.962,3.771-16.116-8.625-23.47,0.826-2.544-2.368-6.593,0.884-4.108-2.587-4.5-8.924.629-3.384-3.442,0.512-6.052,3.954-4.166-0.417-4.926-2.653-3.2-2.324,2.558-5.35,1.842-1.615-17.074-3.625-4.2-2.127-5.335,4.715-9.853,6.366-4.839,11.2,0.526-1.44-14.3Z" transform="translate(-8.197 -130.477)" fill="#ff8080" stroke="#000" stroke-width="2"/><path d="M498.74,382.228l4.722-9.838,6.366-4.853,11.19,0.541-1.425-14.318-5.635-12.879,7.236-4.3,2.4-.146-0.5-4.81-5.153-2.711-1.016-5.767-4.48-3.757-8.223-2.142,4.7-7.463-3.8-17.461,11.863,1,10.993,9.692,8.164-1.44,4.385,10.065,4.795,2.894,3.253-1.557-3.223-4.152,3.2-14.633,4.422-2.77-0.585-5.913,7.024-5.555-5.884-6.227,0.3-10.291L556.6,259l-0.745-9.224-9.283-11.965-5.555,6.783-5.211-.782-3.457-2.653-18.66,4.239-8.508,7.7-5.394,2.471-2.1-1.411-7.682-9.48,9.648-5.95,1.513-19.172,2.112-4.656-3.114-7.294,0.555-5.35L495,197.162l-0.84-8.281,2.441-1.557,8.15,1.7,5.584-9.692-8.478-8.449L491.32,165.55l4.715-10.949-5.167-10.832-8.208-.315-5.467-6.242-10.51-5.5-13.807,14.772-1.813,13.99-0.811.3-6.366,10.167-7.609,4.371,0.058,5.994-2.471,1.674-17.271-3.866-6.907,3.969-3.728,7.082-3.5,2.171-3.8-2.471-1.784,4.342,15.846,15.335,8.508,15.32v5.584l7.836,8.9,8.281,2.281-1.33,8.325-0.453-2.8-2.726,7.967L419.89,266.109l1.3,3.808,6.8,5.964,2.587,8.749-3.552,7.309,7.74,7.426,7.339-3.523,6.637,5.38,3.384,4.451-2.229,8.011-10.182.7-5.167,7.426,2.8,20.94-2.281.767-5.409,16.76,1.615,2.456,11.052,2.558,4.371,16.672,4.941-.746,0.146,7.053L423.4,373.2l-2.938.329,2.214,17.373-4.685,2.281-5.05-1.271-0.614,8.537L402.2,403.117l-13.4,16.015L363.56,411.64l-4.656.658-2.711,3.567-5.855,3.37-8.61,1.016-14.874-12.308-5.3-.987-3.041-7.323-2.711-.183-12.594-4.955-5.825-6.169-13.573-1.71-7.053-4.451-4.985-6.951,0.387-2.844-8.683-1.33-1.929,5.569-5,3.026-6.381-5.665-7.426,4.685L238.3,393l1.469,5.452,7.865,4.356,0.987,2.828-7.024,5.328L239.73,425.6l-16.592,4.612-22.468-5.569-2.968-.629-12.974,7.506-6.951-5.628L160.4,421.278l-14.991,1.674-26.349-5.3-3.581-4.671-2.726-11.161L93.168,389.674l-2.756-5.2-11.724-1.8L55.716,393.628,51.7,407.464l-6.125,5.365,2,7.755,0.153,15.649L39.5,439.471l-11.907.168L10.107,450.39l7.177,4.415L30.375,470.38l5.927,0.241,10.92-9.239,1.513,1.974,2.127-1.257,2.587,4.385,2.858,13.361,6.352,5.269,2.4,1.871,9.9-6.878,3.238,4.882,8.566-2.068L94.95,491.7l11.263,4.284,16.643,13.076,3.084,1.243,0.767,0.643-4.627,17.447-15.547,8.683L98.509,556.6,81.048,559l-1.031,8.837-10.394,5.6-4.7,10.847,4.21,20.517,2.259,1.725,4.3-3.684,7.711,3.2,8.135,1.381,4.539-3.4,13.807,2.938,7.353,9.436,0.782,11.724-3.742,11.307-5.855,1.155,8.435,8.069,7.426-5.095,8.523-2.171,13.208-16.431,5.9-.731,12.491-3.742,7.353,8.479L170.6,646.937l5.423,7.323,11.409,4.1,8-3.128,10.752,10.123,4.283-3.713,8.493-1.513,0.241-2.887-14.275-9.882,3.786-11.19,9.166-7.477,2.8-8.01,13.273-18.616,8.808,1.784L241.2,615.713l1.754,1.981,4.466-3.041-0.431-9.151,11.1,1.484,5.679,0.943,4.385-13.734-1.287-5.423,4.4-7.112,3.625,0.6-3.114-10.123,9.29-5.665,3.852-3,7.207,0.629,8.625-8.376,34.915,3.3L335.5,570.258l5.24,9.977,15.4-.117,3.523,4.671,1.411,11.161-2.639,5.182-15.2,23.484,3.684,10.533,10.5,3.881,5.255,6.593,4.853-3.428,5.8,1.425,5.694-6.4,26.693-2.214,8.866-7.7,3.209,4.9-1.111,11.76,3.34,8.223,9.18,4.481,13.105,0.059-0.526,8.076,13.288,1.243-3.6,4.795,0.285,8.523-7.521,9.3-1.213,8.924,8.837,3.939,13.208-7.25,3.552-2.727L473,687.548l5.927-11.863-2.741-4.437,7.163-4.371,12.323,11.79,1.374-1.126-2.829-5.079,4.7-19.384,2.558-2.427,9.195,7.477,10.847-3.143,7.324,15.649,8.011-3.457,5.869,0.526,4.985,3.158,0.058,2.953,4.81-4.554,11.022,2.127,4.086,3.442-1.915,10.737,17.286,1.71,14.275,9.005,3.1-2.7,8.9-3.786,7.463-3.508,1.345,2.587,8.391-1.44,4.422,3.8,10.81-4.152,2.595,1.345,9.59-.811-7.609-19.143,0.658-5.782-7.353-4.824-23.287-4.284-0.87-14.034,6.651-12.074,0.212-5.635,0.285-2.894-4.78-3.224-2.587-8.223-7.536-8.6-4.78,3.2-2.3-1.768,5.2-5.694h-14.8l-13.558-5.029-0.315-2,0.4-6.242,4.071-12.535,0.687-3.055,2.112-4.385,9.6-6.783,5.723-.3-9.283-15.115,4.371-7.967-8.566-1.768-11.534-13.4,2.514-1.543-7.441-4.042-6.227,6.41-4.568,3.523-5.723-.782,4.67-13.222-4.056-3.625-7.981.431-6.008-5.3-7.156-14.962,3.771-16.116-8.625-23.47,0.811-2.544-2.354-6.593,0.87-4.108-2.587-4.5-8.924.629-3.369-3.442,0.5-6.052,3.969-4.166-0.417-4.926-2.653-3.2-2.339,2.558-5.35,1.842-1.6-17.074-3.625-4.2Z" transform="translate(-8.197 -130.477)" fill="#ff8080" stroke="#000" stroke-width="2"/><path d="M791.717,643.6l1.827-7.594,5.679-1.081,3.939-7.455,5.438-1.6-0.8-8.266-1.44-2.485-5.555-1.016-2.595-8.179-5.723-8.837,0.387-11.395-8.376-1.14-6.892-5.079-2.23,1.842-4.268,19.516-5.635-1.045-7.55-8.252-14.289-.314-0.453-16.986,2.083-8.42,4.955-6.666,1.381-8.12,10.306-2.1,2.844-13.821,8.523-3.041,0.629-1.754,13.792,3.2,7.594-2.953,0.826,2.741,2.858-.183,0.153-11.907,3.728,1.469,4.042-4.268,13.288-5.766-4.225-7.638-5.8.417-2.054-2.068,6.68-16.146,0.541-8.734-3.786-4.108,0.153-5.708-5.394,2-2.872-.541v-2.924l-13.244-3.472-5.8-.044-1.9,2.244-8.566-4.9L759.776,463l-12.235-.468-7.126.643-7.222-8.055-10.576,8.969-10.664-3.311-5.226,6.783-13.258,5.5-10.006-.131-5.928-10.576-14.063-11.818-24.851-9.363-0.767,17.49-4.283,7.667,15.977,7.112,0.058,14.45,11.49,4.327L657.91,503.46l1.425,5.613,3.128,0.914,2.01-5.182,14.048,8.34,1.257,23.484,4.582,3.684,5.051,10.817-7.323,3.611L679,561.867l6.98,9.21,7.565,4.371,10.65-4.085,4.781,2.595-2.61,7.726,2.258,5.226,2.185,1.842,11.161-.314L714.635,599l-2.828-1.06-7.368,4.685,5.869,6.826,0.526,2.828-2.368,1.571-23.857-3.084L674,620.053l-11.724-.76-17.644-9.59-0.417,2.668,4.027,11.337,10.006,6.636,16.1,19.647,3.684,5.541,7.879,5.949,5.211,12.579-3.5,6.936-2.844-6.066-7.053,2.844,3.939,6.856-9.867,6.666,16.592,25.494,11.161-7.053-1.974-3.428,17.359-14.677-17.717-15.1-0.7-3.311,3.442-5.679,4.284-1.411,2.23-2.653,9.582-2.968,3.771-7.653,7.982-.387,7.982,8.055,2.368,8.552,9.005,7.412,3.311,0.541-1.381,9.151,0.146,6.038,11.234,30.537,4.955-3.508,29.923-5.613,7.711-9.867-2.711-7.909-7.682-16.233,6.966-12.82,1.06-11.577-7.579-3.925Z" transform="translate(-8.197 -130.477)" fill="#7f7" stroke="#000" stroke-width="2"/><text transform="translate(788.928 633.908)" font-size="89.44" font-family="DejaVu Sans" font-weight="700">1</text><text transform="translate(583.472 755.373)" font-size="160.791" font-family="DejaVu Sans" font-weight="700">2</text><text transform="translate(811.99 451.484)" font-size="160.791" font-family="DejaVu Sans" font-weight="700">3</text><text transform="translate(726.961 541.691)" font-size="89.169" font-family="DejaVu Sans" font-weight="700">6</text><text transform="translate(611.158 286.15)" font-size="160.791" font-family="DejaVu Sans" font-weight="700">4</text><text transform="translate(365.178 431.939)" font-size="160.791" font-family="DejaVu Sans" font-weight="700">5</text></svg>