<svg xmlns="http://www.w3.org/2000/svg" width="992.701" height="544.658" viewBox="0 0 992.701 544.658"><title>Députés sortants des Pyrnénées-Orientales en 2017</title><path d="M825.188,292.921l2.73,1.879-16.042,1.517-8.278-4.673-3.091.835-2.7,5.612,0.755,14.284,3.8,4.656-1.614,2.714-6.6,6.447-9.161-1.413-6.776-9.506-1.132-9.145-14.822.908L754,302.692l-6.287-.065-2.9-5.508-5.925-2.208-0.859-1.678-1.839-5.444,9.129-8.543,3.059-8.31,9.426-.377-0.265-9.282,8.029,4.986,1.863,7.106,4.488-2.289,6.776-2.136,3.557-5.428,5.315-2.946,6.054-3.179,6.857-.722,2.553,3.276,5.251-1.758,4.577-2.465,2.6-.345,0.032-2.794-5.05-.265-3.179-5.677-20.45,5.508,2.979-5.524L792,241.2l12.734-1.365,5.941-.956,5.821-1.381,1.6-5.909,5.066-3.324,0.939-4.953,5.91-6.713,5.805,1.268,7.844-3.356,2.85,0.722,1.863,5.532-1.413,9.852,1.863,5.147,8.519,3.685,6.134-.5-3.669,4.817-1.879,17.519-8.591,2.963,15.183,7.556-3.388,4.938-8.848.377L850.9,282.3l-23.2,1.582Z" transform="translate(-3.671 -47.357)" fill="#ff8080" stroke="#000" stroke-width="2"/><path d="M613.439,250.079l-11.232-2.931-13.216-8.406-4.416-8.374-17.567.611,2.417,14.942-13.312,11.931-7.042-1.509,2.513,5.532-0.707,12.2,3.589,8.439-1.831,5.58,2.529,6.183-9.37.249-10.293,6.6-3.541-5.1-15.36-1.911-9.466-16.732-12.044-10.27-18.675,2.778-4.311-2.81-22.112-4.015,0.466-5.725-5.219-2.337-4.761-7.138-2.256,2.385-25.026-6.15,13.922-13.738,8.5-4.785,1.22-9.627-2.441-9.442-0.747-1.036-1.333-7.073,1.253-5.677L427.4,182.77l0.61-6.006-0.2-19.213-6.15-1.036-2.208-15.367-6.656-6.447,2.136-8.768,7.531-5.147,23.718-5.235,7.732-1.959L467,117.856l37.865,5.941,3.669-1,26.1-11.056,5.685,0.578,4.416,4.063,2.248,2.168,27.339-2.208,9.418,1.992,18.9,6.3L628.8,126.97l17.688-2.481,0.53,0.1,11.529,5.524,30.984-3.436,11.4-5.315,6.977-10.791,5.163-20.121L730.307,70.8l15.681-3.733,18.957-12.951,18.659-5.6,12.919,17.768,15.56,3.34,6.9,10.084L859.6,93.417l8.39,5.162,16.155,11.385L905.268,123.2l-3.356,54.493,0.169,33.666,0.971,18.659-1.22,15.825-5.548,2.272,5.163,3.517L899.8,292.944,899.96,306.6l5.05,37.728-10.253,3.557-3.621-3.918-7.555,5.492-6.255.032-8.471-16.42-3.308-5.05,2.176-14.958-5.2,3.653-9.507.458-3.436-4.111-0.458-9.988-21.2-8.31h-0.169l-2.553-1.879,2.505-9.017,23.2-1.582,1.381-5.179,8.848-.377,3.388-4.938-15.183-7.556,8.591-2.963,1.879-17.519,3.669-4.817-6.134.5-8.519-3.685-1.863-5.147,1.413-9.852-1.879-5.532-2.842-.722-7.86,3.356L830,216.586l-5.91,6.713-0.939,4.953-5.066,3.324-1.6,5.893-5.821,1.4-5.941.956-12.75,1.349-2.192,5.444-4.817-4.063-10.02-19.808-10.036-4.673-5.941-2.465L760.8,199.78l-2.119-9.546-13.457-2.256-21.012,1.6-10.4-7.169-12.533-.249-6.006-1.959-3.485,5.3-1.365,9.234,5.492,11.353L684.5,217.139l2.553,2.73-15.889,6.841-11.554-1.036-8.439,2.32-2.866,7.732-4.215,3.524-5.628-1.148-11.184,8.768-8.832.113Z" transform="translate(-3.671 -47.357)" fill="#06c" stroke="#000" stroke-width="2"/><path d="M629.866,313.982l-8.543-.345-1.518,2.569,5.773,18.507-6.552,6.535-6.158-.473,1.975,7.7,9.956,7.868,5.379-3.421,9.41-1.116,7.467,17.592,9.217,2.521-11.827,3.718-7.555,5.444,1.758,18.427-4.031,4.593-7.4-9.266-15.175-.819-4.416,4.344-8.077-4.095,0.554-3.244-2.995.161-2.088-5.532-18.675-9.113-2.216,5.162-3.934,11.947,2.208,5.58-1.863,24.922-23.894,13.867-18.29-4.079-15.544,3.308-2.674,5.162-5.4,1.429L502,449.052l-8.487,3.469L477.692,466.8,447.816,492.1l-27.17,11.81-10.028,2.537-5.556-3.179-11.369,5.066-25.155-14.348-8.639,8.952-12.349,2.794L330.5,514.168l-30.294-6.19-16.227,8.342-5.974,6.223-1.831,8.607-4.665,3.5-0.843,11.843-16.459,7.37-2.465,9.217-6.287-.578-11.5,5.3-24.842,3.139-4.087,5.114-3.212.265-16.2-10.743-13.168-14.428-9.378-30.719,1.526-13-11.249-6.006,0.755-12.919-6.183-8.985-10.606,6.945-12.3-3.091-8.968.032-4.167-8.342-7.9-5.131-9.016.722L89.809,467l-3.629-8.768-8.093-5.508-12.509-1.509-5.428-3.637-25.661,1.758-14.364-7.467-9.651,1.461L8.563,440.7,4.717,418.338l6.415-11.353,3.179-19.237,8.7-9.378,12.846-1.019L47.126,368.9l9.265,1.2,17.078-8.262,9.161-2.553,18.563,3.814,6.238-1.413-0.674-6.286,8.968-2.4,4.039-4.8,0.658-9.345,4.625-8.213,7.146,6.351,9.683-.458,5.91,2.762,5.789-2.746,5.709-7.812,12.694,0.184,4.978-4.015-0.169-5.893,9.988-17.832,4.906-13.216,2.834-.169,11.144,6.881,5.877,0.956,11.08-4.512,2.545-5.644,9.562,1.614,8.776-3.517,22.289,0.722,14.549-6.68,10.406,7.6L297,286.865l9.394-1.71,6.849,10.117,0.048,0.393,0.048,3.421,11.024-2.649-0.145-6.776L342.3,277.254l17.591-6.865,8.35-17.126,5.315-3.557,0.169-6.431,7.282,5.66,9.009,2.12,23.14-6.913,25.026,6.134,2.256-2.369,4.761,7.121,5.219,2.337-0.466,5.725,22.1,4.015,4.32,2.81,18.675-2.778,12.044,10.27,9.458,16.732,15.36,1.911,3.549,5.1,10.293-6.6,9.362-.233-2.521-6.19,1.823-5.564-3.581-8.439,0.707-12.2-2.521-5.532,7.042,1.494,13.32-11.931-2.417-14.926,17.567-.611,4.424,8.358,13.216,8.422,11.232,2.931,5.01-3.043,8.832-.128,11.184-8.751,5.628,1.148,4.215-3.541,2.866-7.716,8.439-2.337,11.554,1.036,15.9-6.824-2.553-2.73,11.4-11.056L690.4,194.828l1.365-9.249,3.469-5.283,6.006,1.959,12.541,0.233,10.382,7.186,21.012-1.6,13.457,2.256,2.119,9.546-1.839,15.809,5.941,2.465,10.036,4.673,10.02,19.824,4.833,4.047-2.995,5.532,20.466-5.508,3.172,5.677,5.05,0.249-0.032,2.81-2.6.329-4.56,2.465-5.267,1.774-2.537-3.292-6.865.739-11.353,6.134-3.573,5.428-6.776,2.136-4.488,2.289-1.863-7.106-8.029-4.97,0.265,9.266-9.41.377-3.059,8.31-9.145,8.543L720.53,284.8l-21.293,6.648-9.611.161-3.372-1.253-12.309-9.835-3.589.988-0.394,6.351-16.829,14.564-2.979,9.081-7.106,5.989-2.9-4.545-4.986-1.743Z" transform="translate(-3.671 -47.357)" fill="#ff8080" stroke="#000" stroke-width="2"/><path d="M897.072,460.7l-13.609,6.857-7.242-5.46-9.675-.08-4.424,4.344-9.346,1.253-13.3-13.673-9.723,6.865-5.612,14.252-2.794,1.4-23.228-2.714-10.743-6.07-2.914,1.413-3.139,9.081-2.947,1.285-8.952-3.517-3.139-.908-6.415,14.6-11.208,5.524-10.711,16.026-2.882,1.509-15.006,5.532-7.86-5.677-2.762-5.926-3.212-.49-16.716,2.537-2.337-.113-22.224,15.271-11.9,1.381-2.337,15.087L648.3,542.2l-8.985-1.253-0.642,3,4.247,4.392,2.208,12.718,8.832,9.41,0.112,9.8-1.911,2.682-6.367,1.132-32.044-4.593-18.218-7.29-1.469-2.946-17.519-.048L572,573.293l-2.441,9.266-6.447,6.865-2.89,1.4-3.2.184-23.766-8.439-9.241,2.352-5.853-7.041-6.415-10.9-9.538-8.607-11.305-5.788-2.071-15.568-15.689-.184-17.913-7.451-18.989-3.766-5.54-3.34-2.232-6.054L416.2,513.805l-5.532-7.355,10.028-2.537,27.17-11.81,29.876-25.292,15.825-14.284,8.479-3.469,2.738-5.219,5.4-1.429,2.674-5.162,15.544-3.308,18.29,4.079,23.894-13.867,1.863-24.922-2.208-5.58,3.934-11.947,2.216-5.162,18.675,9.113,2.088,5.532,2.995-.161L599.6,394.27l8.077,4.095,4.416-4.344,15.183,0.819,7.387,9.266,4.047-4.593-1.758-18.427,7.539-5.444,11.827-3.718L647.1,369.4l-7.451-17.592-9.41,1.116-5.379,3.421-9.972-7.868-1.967-7.7,6.15,0.473,6.568-6.535-5.789-18.507,1.533-2.569,8.543,0.345,5.267-2.827,5,1.743,2.882,4.56,7.122-6.006,2.979-9.081,16.813-14.564,0.41-6.351,3.589-.988,12.309,9.835,3.372,1.253,9.611-.161,21.277-6.648,15.633,3.076,1.839,5.444,0.859,1.678,5.925,2.208,2.9,5.508,6.287,0.08,8.262,4.344,14.822-.923,1.132,9.145,6.776,9.506,9.161,1.413,6.6-6.447,1.614-2.714-3.8-4.641-0.755-14.3,2.7-5.612,3.091-.819,8.278,4.656,15.889-1.517h0.161l21.221,8.31,0.442,9.988,3.452,4.111,9.507-.442,5.2-3.67L865.574,328.1l3.308,5.05,8.471,16.42,6.255-.032,7.539-5.492,3.637,3.934,10.253-3.572,1.317,5.893,4.231,44.834,4.769,7.981,12.373,2.762,9.458,7.86,6.07,1.534,5.91-1.349,19.631,8.173-7.306,10.052,5.837,6.648-1,2.979-2.505,5.363,1.823,6.006,14.838,4.834,5.034,10.944-2.553,5.251,5.2,3.5,0.048,6.19,7.073,10.2L994.44,497.1l-22,1.582-12.373-1.695-1.959-2.5-8.7,4.079-6.118,7.451-9.522-.722L913.58,484.881l-10.349-23.4Z" transform="translate(-3.671 -47.357)" fill="#ff8080" stroke="#000" stroke-width="2"/><text transform="translate(287.809 406.478)" font-size="176.629" font-family="DejaVu Sans" font-weight="700">3</text><text transform="translate(681.543 417.517)" font-size="176.629" font-family="DejaVu Sans" font-weight="700">4</text><text transform="translate(756.364 156.929)" font-size="159.137" font-family="DejaVu Sans" font-weight="700">2</text><text transform="translate(767.403 253.721)" font-size="38.401" font-family="DejaVu Sans" font-weight="700">1</text></svg>