<svg xmlns="http://www.w3.org/2000/svg" width="967.929" height="613.343" viewBox="0 0 967.929 613.343"><title>Députés sortants de l&amp;apos;Hérault en 2017</title><path d="M764.817,768.7l19.244-22.088-7.069-8.506-7.9-1.718-0.55-10.168-12.36-9.811,4.452-3.1-1.086-5.235,3.758-7.262-4.211-5.984-4.857-.405L754.319,692l-1.223-4.012-6.815-2.886-4.727-5.633L745.4,667.6l-5.015-5.689,13.2,0.268,4.747-.6,1.395,7.028,13.878-13.94,0.378-4.617-14.008-.3-3.579-7.7,2.377-5.112-4.17-6.884,7.193-3.366,4.576,2.171,8.4,8.093-2.721,4,8.361,4.713,2.686,2.844L780.874,664.5l-8.148,3.112,5.634,7.248,11.94-14.008,4.15,3.03,1.649-5.194,4.17-.467,5.249,1.745,6.76,8.361,19.23-3.662-3.916,6.588,3.648,3.312,16.544,13.837,3.071,13.3-1.312,2.4-0.364,5.62-35.883,18.543L781.08,752.209l-15.513,16.866Z" transform="translate(-13.268 -360.725)" fill="#00c000" stroke="#000" stroke-width="2"/><path d="M772.676,667.634l8.134-3.112,2.24-16.007,2.8,3.222,3.139-4.452,1.5-1.594-1.827-5.31,2.377-2.94-0.632-6.156-2.535-7.138,3.957-1.463,4.926-.632,5.984,4.026,2.418,3.827-1.395,4.417,2.672,5.208-6.953,9.247,4.844-.646,2.336,4.589-1.58,3.558L798.7,655.6l-2.631,3.14-1.663,5.18-4.15-3.016L778.33,674.917Z" transform="translate(-13.268 -360.725)" fill="#ff8080" stroke="#000" stroke-width="2"/><path d="M796.537,580.739l3.016-7.31-1.354-8.2-3.93-3.689-1.223-7.234,1-3.771,7.262-3.085-0.955-7.716,7.028,3.854,1.676-2.4,0.282-1.786,10.037,4.8,13.6-9.769,13.912-1.072,7.66-2.748,3.827-4.081-6.011-14.909,2.363-5.015-2.7-7.8L864.456,492l3.339-2.563,17.615,11.432L898.039,512.1l-0.673,5.7-0.138,3.009,6.9,3.085,2.144,4.816,9.7-2.59,4.225,3.168,0.886,7.887,3.861,3.579,7.289,7.606,6.32,2.466,6.4-2.83,4.686,1.985,2.068,4.617,5.167,14.1-12.531,5.015-3.9,6.843-4.953,2.453-5.07-1.855L931.7,579.1l-10.5,3.943-13.246-4.479-3.25,4.04-1.154,5.1-2.631.336-2.013,4.63-11.136,4.589,8.279,5.42-1.463,7.591,3.854,3.422-3.916,6.183-7.262-4.644-2.617-.646-2.521,7.193L875,624.44l-0.11,5.393-3.62-3.277-12.531-8.574-21.03,8.011-7.633,10.133-2.027,1.917-7.633,8.134L809.5,643.744l-5.73-9.5,1.409-4.417L802.756,626l-5.984-4.026-4.926.632-3.957,1.463,2.535,7.152,0.632,6.149-2.377,2.94,1.827,5.31-1.5,1.594-4-2.309-2-7.7-4.109-2.721-4.438-11.645,9.069-4.507-7.8-8.121-0.508-5.544,11.927-6.774-0.522-2.776,12.222-4.2Z" transform="translate(-13.268 -360.725)" fill="#ff8080" stroke="#000" stroke-width="2"/><path d="M719.988,629.539l-3.531-3.7,12.449-10.092,12.078-6.726,10.024,3.786,6.279-5.462,9.275,0.749,6.348,12.7,1.559,2.1,9.069-4.507-7.8-8.107-0.508-5.558,11.913-6.774-0.508-2.776,12.208-4.2-2.308-10.209,3.009-7.31-1.34-8.2-3.943-3.689-1.223-7.248,1.017-3.758,7.262-3.1-0.969-7.716,7.028,3.861,1.676-2.4,0.3-1.786,10.024,4.8,13.6-9.769,13.912-1.072,7.66-2.748,3.827-4.081-6.025-14.909,2.363-5.015-2.686-7.811-8.306-3.689,1.141-8.388,7.069-8.745-0.268-8.011,3.38-4.507-12.49-1.168,0.495-7.591-12.319-.055-8.629-4.225-3.139-7.729,1.044-11.041-3.016-4.6-8.334,7.234-25.09,2.082-5.352,6-5.448-1.326-4.562,3.222-4.94-6.2-9.865-3.648-3.463-9.9,14.29-22.074,2.48-4.871-1.326-10.491-3.311-4.39-14.476.11-4.926-9.378,0.144-10.559-32.819-3.1-8.107,7.873-6.774-.591-3.62,2.817-8.732,5.325,2.927,9.515-3.407-.564-4.136,6.671,1.209,5.112-4.122,12.909-5.338-.886-10.429-1.408,0.405,8.6-4.2,2.858-1.649-1.855,1.463-11.151-8.279-1.676-12.476,17.5-2.631,7.516-8.615,7.042-3.559,10.518,13.418,9.289-0.227,2.714-7.983,1.422-4.026,3.49L611,455.289l-7.516,2.94-10.724-3.854-5.1-6.9,1.086-16.88-6.911-7.983L570.1,426.145l-5.544.687-12.415,15.445-8.011,2.04-6.98,4.789-7.928-7.591,5.5-1.072,3.518-10.628-0.735-11.02-6.911-8.87-12.978-2.776-4.266,3.209-7.646-1.3-7.248-3.009-4.04,3.463-2.123-1.621-9.687,8.334,0.453,7.591-13.953,2.453-13.74-3.1-5.434,1.339-4.9-2.8-6.43.549-2.24,4.136-2.267,8.306-9.673,5.476-3.717,7.688,0.632,8.444,8.45,11.349-1.34,8.478-1.3,12.758-1.69,8.293,0.282,10.965L421.8,524.775l0.055,5.008,5.338,11.287,3.263,14.05,0.426,13.26,4.136,3.126,7.152-5.826,2.508,4.294-0.337,8.065,8.45,13.3-2.136,8.76,12.373,5.084,5.393-.928,4.981,2.226,18.879-3.03,5.015-2.563,1.841-5.325,7.179,3.476,1.986,7.688,5.029,2.171-0.124-2.686,5.352,0.144,6.76-3.984,6.2,5.07,5.311,0.3,1.278-2.659,8.134,3.875,9.028-3.943,11.954,2.2-5.407,13.912,0.392,2.721,8.292,6.644-3.325,4.266-7.234-3.168,4.04,12.826,3.62,3.73,3.731-.941,3.662,5.352L573.9,663.072l-5.1,1.759,2.068,10.2-4.2,2.013-3.016-2.968-1.69,1.814,0.24,7.3L557.874,686l4.995,6.108,0.495,1.209,1.326,7.929-2.748,11.769,0.268,3.635,1.141,6.534,9.206-4.335,32.352,20.384,1.649,4.2-3.016,3.353,2.308,1.044-0.138,5.1,8.787,9.151L599.94,774.536l-4.322,10.051,0.392,8.306-6.039,5.489,14.249,19.134,25.64,13.527,25.44-18.131,14.159-10.051,6.2-4.438-3.875-11.81,0.859-4.885-0.55-5.221,10.4-7.77,8.4-10.038,8.251,1.278,3.607,4.28,5.462,1.182,12.373-10.25,2.439-7.867-5.867-9.687-11.94-11.349-6.4,1.759-0.138-5.325-8.025-1.9-11.769-11.941-1.862-5.276,3.325-7.742-13.768-9.433,7.956-10.923-0.309-10.951,8.464-5.7,2.576-4.466h4.672l-0.715,2.48,4.59,4.727,7.365,0.213,0.24-7.66-3.421-3.5,0.426-2.776,10.841-1.209,4.067-6.829,5.29-1.931,1.491-4.4Z" transform="translate(-13.268 -360.725)" fill="#ff8080" stroke="#000" stroke-width="2"/><path d="M318.465,586.641l-7.262-3.366-9.886,3.648-7.378-2.872-3.112-4.39-10.12-4.081-8.134-1.25-4.747,2.734-9.392,4.026-8.9,6.279-2.789.185-1.395-2.439-9.083,5.592L235.211,612.3l-6.183,5.31-13.6-2.185-2.631,1.031-3.854,7.557-16.413,1.594-9.673,5.716-7.983-1.532-7.688,7.887-3.758,3.943-7.9-.969-8.224,6.685-7.591,2.748-4.548-3.153-4.857-9.8-9.192-10.051-20.666-6.7-1.518-2.322-7.461,3.126-10.683-.069-2.24-7.606-2.508-1L69.6,640.364l-4.83,13.314-5.441,6.63-0.543,2.817,3.243,4.507,2.721-.185,2.48,7.811L59.176,689.4l8.649,13.768,26.017,28.058L83.82,728.44l0.818,10.828-2.968,7.488,1.354,10.669,6.135,8.745-1.972,4.967-12.655-3.889L72.5,768.994l2.968,6.952-15.712,15.6-5.146-1.518L53.172,796.8l-2.432.522-2.446-1.1-10.937,7.571-7.873.282,10.525,8.265,5.386,0.762-3.586,9.687-7.839.144-2.6-.618-1.58,2.144-5.407,6.266-2.721,10.731,1.656,8.08L14.472,866.5l6.678,7.557,2.357-1.3,16.351,2.858,4.953,12.772,4.493,3.325,0.859,12.5,9.728,8.478-0.515,2.6,4.473-2.549,3.841-6.671,7.433,1.141,8.966,1.237,0.282-2.714,8.828-5.9,1.367-7.955,4.871-2.377,1.292-5.153,5.489,5.008,1.168,6.76,3.717,12.9-3.043,7.585,1.559,4.8,3.49,2.535,5.139-1.532,13.459,8.8,6.856,8.011,11.659-2.748,4.39-5.785,4.136-7.056-0.069-.323,0.158-10.628,8.519-10.133,4.576-3.263,4.054-3.435-6.135-8.478,7.028-3.813,11.247,1.237,5.008-2.563,13.177-3.573,3.03-7.674-2.432-13.514L198.759,843.8l7.9-8.168,0.8,2.123,1,6.479,9.014,5.084,1.278,7.434-0.227,4.479,0.982,8-3.545,6.87,5.73,5.606,9.378,5,6-4.843,14.489,11.336,6.7-.426,19.374-5.407,8-.392,1.086,15.7L286.4,913.815l3.717,4.253-0.577,2.673,2.295,1.436,6.884-4.28,16.077,0.9,13.218,13.727,5.38-.721,6.575,4.733,7.42,3.222,2.631-.673,2.466-4.8,13.273,0.982,6.87-23.709-0.632-10.814-20.748-6.911-4.438-6.451,10.45-2.789,4.122-6.733,8.066-.1,0.2-2.686-9.3-9.556-2.2-1.5,1.34-10.477L357.338,852l-6.616-3-4.493,1.676-13.631-3.3L319.875,826.3l-8.67-7.083-10.092-2.617,11.631-7.042,7.324-1.731,20.061-4.686,5.18-6.053,9.618,5.221,8.08,0.213,1.381,7.914-7.234,3.009L359.8,826.31l2.466,1.072,8.657-5.606,1.127,2.439,1.25,4.363,4.452,2.137,2.349-4.733,7.928-14.427,8.038-7.31,5.812-2.645,3.731,3.662,2.549-.735,7.1-2.432,1.917-4.727L404.386,781.22l3.449-7.461,12.586-5.558,9.515-9.488,3.916,10.463,5.38,6.616,5.812-2.391,9.364-11.446,1.58-1.532,4.04,1.649,9.838-2.817,0.44-2.549,7.461-2.267,2.226-7.811-3.971-17.979,4.376-7.056,13.232-4.548,5.393,0.522,8.505,7.529,14.812,15.994,3.593,1.422,1.649,4.981,5.757,5.716,11.838,5.393-1.436,3.861-0.405,2.617,10.4,14.655,2.734,4.589,4.15-3.407,10.614-1.264,9.405,9.206,5.084,12.023,4.253-2.617,6.039-5.489-0.392-8.306,4.308-10.051,14.558-12.462-8.773-9.151,0.138-5.1-2.308-1.044,3.016-3.353-1.649-4.2-32.352-20.384-9.206,4.335-1.141-6.534-0.268-3.635,2.748-11.782-1.326-7.914-0.495-1.209-5.008-6.108,4.349-2.817-0.24-7.3,1.69-1.827,3.016,2.981,4.2-2.013L568.812,664.7l5.1-1.745,1.072-10.518-3.648-5.352-3.744.941-3.607-3.73-4.04-12.826,7.234,3.168,3.325-4.266-8.292-6.644-0.405-2.721,5.421-13.912-11.968-2.2-9.014,3.943-8.148-3.889-1.264,2.673-5.311-.3-6.2-5.07-6.76,3.984-5.352-.144,0.124,2.686-5.043-2.171-1.972-7.7-7.179-3.463-1.841,5.325-5.015,2.563-18.893,3.016-4.967-2.226-5.393.941-12.373-5.084,2.136-8.76-8.45-13.3,0.337-8.065-2.508-4.294-7.152,5.826-4.136-3.126-0.426-13.26-3.263-14.05-5.338-11.287-0.055-5.008,3.943-16.626-0.282-10.965,1.69-8.293,1.3-12.758-7.475,1.931-7.914,7.606-10.147,3.9-13.39.11-13.246-3.635-4.816,2.054-0.44.818-13.418-2.955-10.264-9.014-12.772-5.3-13.631-.378-3.675,10.079,2.226,10.45L311.4,498.73l4.136,7.138,0.818,7.983,10.078,12.29-5.139,9.591-5.38.632-1.855,8.183,2.363,5.07-2.027,5.208,2.226,5.112-1.463,7.97,8.265,7.324-3.971,3.593Z" transform="translate(-13.268 -360.725)" fill="#ff8080" stroke="#000" stroke-width="2"/><path d="M369.428,877.822l-8.08.1-4.109,6.747-10.45,2.776,4.438,6.451,20.734,6.911,0.646,10.814-6.87,23.723,3.139,4.28-0.3,5.434,7.406,3.325,8.148-.481,6.362-5.043,5.38-.213,4.844,2.123L416.757,967.7l6.747,5.07,17.979-16.489,23.524-16.908,18.653-12.7,12.4-5.661,6.479-12.222L501.6,897.726l-1-2.617-5.194-2.027-6.2-12.462-4.184-3.676-4.211-2.659-4.376-4.644,2.295-5.194-2.157-10.965,4.7-7.083-0.227-2.83-4.349-3.648-10.12,4.225-3.085-4.576-16.99-7.7-10.078-7.138,6.43-12.415-10.463-9.529-2.721-.818-6.98-5.221-5.5.7-1.917,4.733-7.083,2.419-2.549.749-3.731-3.676-5.812,2.645-8.052,7.324-7.914,14.414-2.363,4.748-4.438-2.144-1.264-4.363-1.113-2.439-8.67,5.606-2.453-1.072-2.659-12.868,7.248-3.009-1.381-7.914-8.08-.213-9.632-5.221-5.167,6.053-20.061,4.7-7.337,1.731-11.617,7.028,10.078,2.632,8.684,7.07,12.724,21.091,13.617,3.312,4.493-1.676,6.63,2.981,2.144,1.532L358.153,864.1l2.212,1.5,9.288,9.57Z" transform="translate(-13.268 -360.725)" fill="#06c" stroke="#000" stroke-width="2"/><path d="M584.377,922.128l-4.789,2.844L542.1,917.161l-8.547-6.444-16.667,2.35-20.81,7.942,6.465-12.222L501.6,897.718l-1-2.617-5.194-2.027-6.2-12.462-4.184-3.676-4.225-2.659-4.376-4.644,2.308-5.194-2.157-10.965,4.686-7.083-0.213-2.83-4.363-3.648-10.106,4.225-3.1-4.576-16.976-7.7-10.078-7.138,6.43-12.415-10.477-9.529-2.721-.818-6.98-5.221-5.489.7L404.417,781.31l3.449-7.475,12.573-5.558,9.529-9.488,3.9,10.463,5.38,6.63,5.812-2.4,9.364-11.446,1.58-1.532,4.04,1.662,9.838-2.83,0.44-2.549,7.461-2.267,2.226-7.8-3.971-17.993,4.376-7.056,13.232-4.535,5.393,0.508,8.505,7.544,14.812,15.994,3.593,1.422,1.649,4.981,5.757,5.7,11.838,5.407-1.436,3.854-0.405,2.617,10.4,14.655,2.734,4.589L560.64,781l10.614-1.264,9.405,9.206,5.084,12.023L590,798.348l14.249,19.134,25.64,13.527,25.44-18.131,14.159-10.051,6.2-4.438,28.5,6.561,2.171,4.885,0.254,11.377-21.03,7.9-13.8-.928-7.53,3.889-19.5,16.461-30.82,33.293-15.7,19.374Z" transform="translate(-13.268 -360.725)" fill="#ff8080" stroke="#000" stroke-width="2"/><path d="M671.815,786.613l3.875,11.81,28.5,6.547,2.171,4.885L747,790.371l18.5-21.3-0.715-.378,19.257-22.088-7.069-8.506-7.914-1.718-0.55-10.168-12.346-9.811,4.452-3.1-1.1-5.235,3.758-7.262-4.2-5.984-4.857-.405,0.083-2.432-1.237-4.012-6.815-2.886-4.727-5.633,3.841-11.865L740.36,661.9l13.191,0.268,4.747-.6,1.395,7.028,13.885-13.94,0.364-4.617-14.008-.3-3.579-7.7,2.391-5.112-4.17-6.884,7.179-3.366,4.59,2.171,8.4,8.093-2.721,4,8.348,4.713,5.489,6.067,3.153-4.466-4-2.309-2-7.7-4.109-2.714-4.438-11.659-1.546-2.1-6.362-12.7-9.261-.749-6.279,5.462L741,609.01l-12.092,6.726-12.449,10.092,3.531,3.7,0.185,3.93-1.491,4.4-5.29,1.931-4.067,6.829-10.841,1.209-0.426,2.776,3.435,3.5-0.254,7.66-7.365-.213-4.59-4.727,0.715-2.48h-4.672l-2.576,4.466-8.464,5.7,0.309,10.951L666.641,686.4l13.768,9.433-3.325,7.742,1.862,5.276,11.769,11.941,8.025,1.9,0.138,5.325,6.4-1.759,11.94,11.349,5.867,9.687-2.439,7.867-12.373,10.25-5.462-1.182-3.607-4.28-8.251-1.278-8.4,10.038-10.4,7.77,0.55,5.221Z" transform="translate(-13.268 -360.725)" fill="#ff8080" stroke="#000" stroke-width="2"/><path d="M930.41,581.179l1.278-2.054L921.2,583.068l-13.246-4.479-3.263,4.053-1.141,5.084-2.631.336-2.013,4.644-11.15,4.589,8.279,5.407-1.463,7.591,3.861,3.422-3.93,6.2-7.262-4.658-2.617-.646L882.1,621.8l-7.111,2.659-0.11,5.393-3.62-3.263-12.531-8.574-21.016,8.011-7.646,10.133-2.027,1.917-7.633,8.134-10.91-2.432-3.057-4.294-6.953,9.247,4.844-.646,2.336,4.589-1.58,3.545-6.389-.659-2.631,3.14,4.156-.481,5.249,1.759,6.76,8.361,19.23-3.676-3.916,6.588,3.648,3.312,16.544,13.85,3.071,13.287-1.312,2.419-0.364,5.606,20.666-8.657L889,696.75l17.176-.8,19.862,2.391L930.5,687l-14.737-16.049-5.153-.2,0.268-.309,5.008-2.226,9.46,5.221,13.418-2.48,15.966,2.253-0.351-8.506,11.927-11.851,13.349-25.062,0.522-7.97-17.629-31,0.419-2.171,1.3-4.83-7.392-13.081-12.531,5.015-3.916,6.857-4.94,2.453Z" transform="translate(-13.268 -360.725)" fill="#ff8080" stroke="#000" stroke-width="2"/><text transform="translate(238.074 377.935)" font-size="151.137" font-family="DejaVu Sans" font-weight="700">5</text><text transform="translate(591.775 246.609)" font-size="151.137" font-family="DejaVu Sans" font-weight="700">4</text><text transform="translate(814.281 251.894)" font-size="103.351" font-family="DejaVu Sans" font-weight="700">3</text><text transform="translate(888.511 299.794)" font-size="89.1" font-family="DejaVu Sans" font-weight="700">9</text><text transform="translate(764.953 365.291)" font-size="74.324" font-family="DejaVu Sans" font-weight="700">1</text><text transform="translate(778.793 279.328)" font-size="15.852" font-family="DejaVu Sans" font-weight="700">2</text><text transform="translate(681.511 356.408)" font-size="74.324" font-family="DejaVu Sans" font-weight="700">8</text><text transform="translate(378.783 557.253)" font-size="101.898" font-family="DejaVu Sans" font-weight="700">6</text><text transform="translate(483.474 506.783)" font-size="101.898" font-family="DejaVu Sans" font-weight="700">7</text></svg>