<svg xmlns="http://www.w3.org/2000/svg" width="979.967" height="620.96" viewBox="0 0 979.967 620.96"><title>Députés sortants de l&amp;apos;Hérault en 2017</title><path d="M777.224,745.57l19.484-22.363L789.55,714.6l-8-1.739-0.557-10.295-12.514-9.933,4.507-3.137-1.1-5.3,3.8-7.352-4.264-6.058-4.918-.41,0.084-2.462-1.238-4.062-6.9-2.922-4.786-5.7,3.888-12.013-5.078-5.759,13.369,0.271,4.806-.612,1.412,7.116,14.051-14.114,0.383-4.674-14.183-.3-3.624-7.8,2.407-5.175-4.222-6.969,7.283-3.408,4.633,2.2,8.507,8.194-2.754,4.049L793.015,621l2.72,2.879-2.254,16.193-8.249,3.151,5.7,7.339,12.089-14.183,4.2,3.068,1.669-5.259,4.222-.473,5.314,1.767,6.845,8.466,19.47-3.707-3.965,6.671,3.694,3.353,16.75,14.009,3.109,13.467-1.328,2.434-0.369,5.69-36.331,18.774L793.69,728.872l-15.706,17.076Z" transform="translate(-16.321 -332.52)" fill="#00c000" stroke="#000" stroke-width="2"/><path d="M785.181,643.243l8.236-3.151,2.268-16.207,2.838,3.262,3.179-4.507,1.523-1.614-1.85-5.377,2.407-2.977-0.64-6.232-2.567-7.227,4.007-1.482,4.987-.64,6.058,4.077,2.448,3.874-1.412,4.472,2.706,5.273-7.04,9.362,4.9-.654,2.365,4.646-1.6,3.6-6.469-.682-2.664,3.179-1.683,5.245-4.2-3.053-12.076,14.183Z" transform="translate(-16.321 -332.52)" fill="#ff8080" stroke="#000" stroke-width="2"/><path d="M809.339,555.264l3.054-7.4-1.37-8.3-3.979-3.735-1.238-7.324,1.016-3.818,7.352-3.123-0.967-7.812,7.116,3.9,1.7-2.434,0.285-1.809,10.163,4.862,13.766-9.891L860.32,507.3l7.756-2.783,3.874-4.132-6.086-15.095,2.393-5.078-2.734-7.895,12.583-6.9,3.381-2.595L899.322,474.4l12.785,11.373-0.682,5.773-0.139,3.047,6.984,3.123,2.17,4.876,9.822-2.622,4.278,3.207,0.9,7.985,3.909,3.624,7.38,7.7,6.4,2.5,6.483-2.866,4.744,2.01,2.094,4.674,5.231,14.28-12.687,5.078-3.951,6.928-5.015,2.484-5.133-1.878,1.294-2.079L935.548,557.6l-13.411-4.535-3.29,4.09-1.169,5.161-2.664.34-2.038,4.688L901.7,571.992l8.382,5.488-1.482,7.686,3.9,3.464-3.965,6.26-7.352-4.7-2.65-.654-2.553,7.283-7.2,2.692-0.111,5.461-3.666-3.318L872.32,592.97l-21.292,8.111-7.728,10.26-2.052,1.941-7.728,8.235-11.06-2.462-5.8-9.62,1.426-4.472-2.448-3.874-6.058-4.077-4.987.64-4.007,1.482,2.567,7.241,0.64,6.226-2.407,2.977,1.85,5.377-1.523,1.614-4.048-2.338-2.024-7.8-4.16-2.754-4.493-11.79,9.182-4.563-7.895-8.222-0.515-5.613,12.076-6.858-0.529-2.811,12.374-4.25Z" transform="translate(-16.321 -332.52)" fill="#ff8080" stroke="#000" stroke-width="2"/><path d="M731.837,604.672l-3.575-3.749,12.6-10.218,12.228-6.81,10.149,3.833,6.358-5.53,9.39,0.758,6.427,12.855L787,597.933l9.182-4.563-7.895-8.208-0.515-5.627,12.062-6.858-0.515-2.811,12.36-4.25-2.337-10.336,3.047-7.4-1.356-8.3-3.992-3.735-1.238-7.339,1.03-3.8,7.352-3.137-0.981-7.812,7.116,3.909,1.7-2.434,0.3-1.809,10.149,4.862,13.772-9.891L860.32,507.3l7.756-2.783,3.874-4.132-6.1-15.095,2.393-5.078-2.72-7.909-8.41-3.735,1.155-8.493,7.158-8.854-0.271-8.111,3.422-4.563-12.646-1.183,0.5-7.686-12.472-.056-8.736-4.278-3.179-7.825,1.057-11.178-3.054-4.661-8.438,7.324-25.4,2.107-5.419,6.073-5.516-1.342-4.619,3.262-5-6.274-9.988-3.694-3.506-10.024,14.468-22.349,2.511-4.932L777.8,361.216l-3.353-4.445-14.656.111-4.987-9.495,0.146-10.691-33.228-3.137-8.208,7.971-6.859-.6-3.666,2.852-8.841,5.391,2.963,9.634-3.45-.571-4.187,6.754,1.224,5.175-4.173,13.07-5.4-.9-10.559-1.426,0.411,8.708-4.25,2.894-1.669-1.878,1.482-11.29-8.382-1.7-12.632,17.717-2.664,7.61-8.723,7.13-3.6,10.649,13.585,9.4-0.23,2.748-8.083,1.44-4.076,3.534-10.232-9.634-7.61,2.977-10.858-3.9-5.161-6.984,1.1-17.091-7-8.083-11.887,3.576-5.613.7-12.569,15.637-8.111,2.066-7.067,4.848-8.027-7.686,5.572-1.085,3.562-10.761L547.078,391.3l-7-8.98-13.139-2.811-4.319,3.249-7.742-1.314-7.338-3.047-4.09,3.506-2.15-1.641-9.808,8.438,0.459,7.686-14.127,2.484-13.912-3.137-5.5,1.356-4.96-2.838-6.511.556-2.268,4.188-2.3,8.41-9.794,5.544-3.763,7.784,0.64,8.549,8.556,11.491-1.356,8.584-1.315,12.917-1.711,8.4,0.285,11.1L429.927,498.6l0.056,5.071,5.4,11.428,3.3,14.225,0.431,13.425,4.187,3.165,7.241-5.9,2.539,4.347-0.341,8.166L461.3,566l-2.163,8.869,12.528,5.147,5.46-.939,5.043,2.254,19.115-3.068,5.078-2.595,1.864-5.391,7.269,3.52,2.01,7.784,5.092,2.2-0.125-2.72,5.419,0.146,6.845-4.034,6.274,5.134,5.377,0.3,1.294-2.692,8.236,3.923,9.14-3.992,12.1,2.226-5.474,14.086,0.4,2.754,8.4,6.727-3.367,4.319-7.324-3.207,4.09,12.986,3.666,3.777,3.777-.953,3.708,5.419-1.1,10.649-5.161,1.781,2.094,10.323-4.25,2.038-3.054-3-1.711,1.837,0.243,7.387-4.389,2.852,5.057,6.184,0.5,1.224,1.342,8.027-2.783,11.916,0.271,3.68,1.155,6.615,9.321-4.389,32.755,20.638,1.669,4.25-3.054,3.395,2.337,1.057-0.139,5.161,8.9,9.265-14.74,12.618-4.375,10.177,0.4,8.41-6.114,5.557,14.426,19.372,25.959,13.7,25.758-18.357,14.336-10.177,6.274-4.493-3.923-11.957,0.869-4.946-0.557-5.287,10.531-7.867,8.507-10.163,8.354,1.294,3.652,4.334,5.53,1.2,12.528-10.378,2.469-7.965-5.94-9.808-12.089-11.491-6.483,1.781-0.139-5.391-8.125-1.927L690.22,685l-1.885-5.342,3.367-7.839-13.94-9.551,8.055-11.06L685.5,640.12l8.57-5.773,2.608-4.521h4.73l-0.723,2.511,4.647,4.786,7.457,0.216,0.243-7.756-3.464-3.548L710,623.224,720.98,622l4.118-6.914,5.356-1.955,1.509-4.459Z" transform="translate(-16.321 -332.52)" fill="#ff8080" stroke="#000" stroke-width="2"/><path d="M325.308,561.239l-7.352-3.408-10.01,3.694-7.47-2.907-3.151-4.445-10.246-4.132-8.236-1.266-4.806,2.768-9.509,4.077-9.008,6.357-2.824.188-1.412-2.469-9.2,5.662-1.071,21.862-6.26,5.377-13.772-2.212-2.664,1.044-3.9,7.651L197.8,600.692l-9.794,5.788-8.083-1.551-7.784,7.985-3.8,3.992-8-.981-8.326,6.768-7.686,2.783-4.6-3.193-4.918-9.919-9.307-10.177-20.923-6.782-1.537-2.351-7.554,3.165-10.816-.07-2.268-7.7-2.539-1.009-6.511,28.192-4.89,13.48-5.509,6.712L62.4,638.677l3.283,4.563,2.754-.188,2.511,7.909-8.159,14.322,8.757,13.94L97.886,707.63l-10.149-2.824,0.828,10.963-3,7.582,1.37,10.8,6.212,8.854-2,5.029L78.334,744.1l-2.052,1.767,3,7.039L63.379,768.7l-5.21-1.537-1.461,6.858-2.462.529-2.476-1.113L40.7,781.1l-7.971.285,10.656,8.368,5.453,0.772L45.2,800.331l-7.937.146-2.629-.626-1.6,2.17-5.474,6.344-2.754,10.865,1.677,8.18-8.959,17.174,6.761,7.651,2.386-1.314,16.555,2.894,5.015,12.931,4.549,3.367,0.869,12.659,9.85,8.584-0.522,2.636,4.528-2.58,3.888-6.754,7.526,1.155,9.077,1.252,0.285-2.748,8.938-5.975,1.384-8.055,4.932-2.406,1.308-5.217,5.558,5.071,1.182,6.845,3.763,13.056-3.081,7.679,1.579,4.862,3.534,2.567,5.2-1.551L136.22,910.1l6.942,8.111,11.8-2.783,4.445-5.857,4.187-7.144-0.07-.327,0.16-10.761,8.625-10.26,4.633-3.3,4.1-3.478-6.212-8.584,7.116-3.861,11.387,1.252,5.071-2.595,13.342-3.617,3.067-7.769-2.462-13.682L204.11,821.6l8-8.27,0.814,2.149,1.016,6.559,9.126,5.147,1.294,7.526-0.23,4.535,0.995,8.1-3.589,6.956,5.8,5.676,9.495,5.057,6.072-4.9,14.67,11.477,6.782-.431L283.97,865.7l8.1-.4,1.1,15.894-0.327,11.29L296.6,896.8l-0.584,2.706,2.323,1.454,6.97-4.334,16.277,0.911,13.383,13.9,5.447-.73,6.657,4.792,7.512,3.262,2.664-.682,2.5-4.862,13.439,0.994,6.956-24.005-0.64-10.948-21.007-7L354,865.726l10.58-2.824,4.173-6.817,8.166-.1,0.2-2.72-9.418-9.676-2.226-1.523,1.356-10.608-2.17-1.551-6.7-3.033-4.549,1.7-13.8-3.339-12.882-21.354-8.778-7.172-10.218-2.65,11.776-7.13,7.415-1.753,20.311-4.744,5.245-6.128,9.738,5.287,8.18,0.216,1.4,8.013-7.324,3.047,2.678,13.029,2.5,1.085,8.764-5.676,1.141,2.469,1.266,4.417,4.507,2.164,2.379-4.792,8.027-14.607,8.138-7.4,5.885-2.678,3.777,3.707,2.58-.745,7.186-2.462,1.941-4.786L412.3,758.245l3.492-7.554,12.743-5.627,9.634-9.606,3.965,10.593,5.447,6.7,5.885-2.421,9.481-11.589,1.6-1.551,4.09,1.669,9.961-2.852,0.445-2.58,7.554-2.3,2.254-7.909-4.021-18.2,4.431-7.144,13.4-4.6,5.46,0.529,8.611,7.623,15,16.193,3.638,1.44,1.669,5.043,5.829,5.788,11.985,5.461-1.454,3.909-0.411,2.65,10.531,14.837,2.769,4.646,4.2-3.45,10.747-1.28,9.523,9.321,5.147,12.173,4.306-2.65,6.114-5.557-0.4-8.41,4.361-10.177,14.74-12.618-8.882-9.265,0.139-5.161-2.337-1.057L617,719.864l-1.669-4.25-32.755-20.638-9.321,4.389L572.1,692.75l-0.271-3.68,2.783-11.929-1.342-8.013-0.5-1.224-5.071-6.184,4.4-2.852-0.243-7.387,1.711-1.85,3.054,3.019,4.25-2.038-2.094-10.336,5.161-1.767,1.085-10.649-3.694-5.419-3.791.953-3.652-3.777-4.09-12.986,7.324,3.207,3.367-4.319-8.4-6.727-0.411-2.754,5.488-14.086-12.117-2.226-9.126,3.992-8.249-3.937-1.28,2.706-5.377-.3-6.274-5.134-6.845,4.034-5.419-.146,0.125,2.72-5.106-2.2-2-7.8-7.269-3.506-1.864,5.391-5.078,2.595L482.166,581.2l-5.029-2.254-5.46.953-12.528-5.147,2.163-8.869-8.556-13.467,0.341-8.166-2.539-4.347-7.241,5.9-4.187-3.165L438.7,529.209l-3.3-14.225-5.4-11.428-0.056-5.071,3.992-16.834-0.285-11.1,1.711-8.4,1.315-12.917-7.568,1.955-8.013,7.7-10.274,3.951-13.557.111-13.411-3.68-4.876,2.079-0.445.828-13.585-2.991-10.392-9.126L341.615,444.7l-13.8-.383-3.721,10.2,2.254,10.58-8.194,7.13,4.187,7.227,0.828,8.083,10.2,12.444-5.2,9.71-5.447.64-1.878,8.285,2.393,5.134-2.052,5.273,2.254,5.175-1.482,8.069,8.368,7.415-4.021,3.638Z" transform="translate(-16.321 -332.52)" fill="#ff8080" stroke="#000" stroke-width="2"/><path d="M376.907,856.051l-8.18.1-4.16,6.831-10.58,2.811,4.493,6.531,20.993,7,0.654,10.948-6.956,24.019,3.179,4.334-0.3,5.5,7.5,3.367L391.8,927l6.441-5.106,5.447-.216,4.9,2.149,16.235,23.219,6.831,5.134,18.2-16.694,23.817-17.119,18.885-12.855,12.555-5.731,6.559-12.375L510.723,876.2l-1.016-2.65-5.259-2.052-6.274-12.618-4.236-3.722-4.264-2.692-4.431-4.7,2.323-5.259-2.184-11.1,4.758-7.172-0.23-2.866-4.4-3.694-10.246,4.278-3.123-4.633-17.2-7.8-10.2-7.227,6.511-12.569L440.65,780.08l-2.754-.828-7.067-5.287-5.572.71-1.941,4.792-7.172,2.449-2.58.758-3.777-3.722-5.885,2.678-8.152,7.415-8.013,14.594-2.393,4.807-4.493-2.17-1.28-4.417-1.127-2.469-8.778,5.676-2.483-1.085-2.692-13.029,7.338-3.047-1.4-8.013-8.18-.216-9.752-5.287-5.231,6.128-20.311,4.758-7.429,1.753-11.762,7.116,10.2,2.664,8.792,7.158,12.882,21.354,13.787,3.353,4.549-1.7L364.691,830l2.17,1.551-1.37,10.608,2.24,1.523,9.4,9.689Z" transform="translate(-16.321 -332.52)" fill="#ff8080" stroke="#000" stroke-width="2"/><path d="M594.535,900.909l-4.848,2.879-37.958-7.909-8.653-6.525L526.2,891.734l-21.069,8.041,6.545-12.375-0.953-11.206-1.009-2.65-5.259-2.052-6.274-12.618-4.236-3.722-4.278-2.692-4.431-4.7,2.337-5.259-2.184-11.1,4.744-7.172-0.216-2.866-4.417-3.694-10.232,4.278-3.137-4.633-17.188-7.8-10.2-7.227,6.511-12.569-10.608-9.648-2.754-.828-7.067-5.287-5.558.71-12.931-16.333,3.492-7.568,12.729-5.627,9.648-9.606,3.951,10.593,5.447,6.712,5.885-2.434,9.481-11.589,1.6-1.551,4.09,1.683,9.961-2.866,0.445-2.58,7.554-2.3,2.254-7.895-4.021-18.218,4.431-7.144,13.4-4.591,5.46,0.515,8.611,7.638,15,16.193,3.638,1.44,1.669,5.043,5.829,5.773,11.985,5.474-1.454,3.9L553,741.989l10.531,14.837,2.769,4.646,4.2-3.45,10.747-1.28,9.523,9.321,5.147,12.173,4.306-2.65,14.426,19.372,25.959,13.7L666.368,790.3,680.7,780.121l6.274-4.493,28.853,6.643,2.2,4.946,0.257,11.519-21.292,8-13.967-.939-7.624,3.937L655.662,826.4l-31.2,33.708-15.894,19.615Z" transform="translate(-16.321 -332.52)" fill="#06c" stroke="#000" stroke-width="2"/><path d="M683.063,763.7l3.923,11.957,28.853,6.629,2.2,4.946,41.151-19.727,18.732-21.563-0.723-.383,19.5-22.363-7.158-8.612-8.013-1.739-0.557-10.295-12.5-9.933,4.507-3.137-1.113-5.3,3.8-7.352-4.25-6.058-4.918-.41,0.084-2.462-1.252-4.062-6.9-2.922-4.786-5.7,3.888-12.013-5.071-5.759,13.355,0.271,4.806-.612,1.412,7.116L786.093,630.1l0.369-4.674-14.183-.3-3.624-7.8,2.421-5.175-4.222-6.969,7.269-3.408,4.647,2.2,8.507,8.194-2.754,4.049,8.452,4.772,5.558,6.142,3.193-4.521-4.048-2.338-2.024-7.8-4.16-2.748L787,597.925l-1.565-2.122-6.441-12.855-9.377-.758-6.358,5.53-10.149-3.833-12.242,6.81-12.6,10.218,3.575,3.749,0.188,3.979-1.509,4.459-5.356,1.955-4.118,6.914L710.066,623.2l-0.431,2.811,3.478,3.548-0.257,7.756-7.457-.216-4.647-4.786,0.723-2.511h-4.73l-2.608,4.521-8.57,5.773,0.313,11.088-8.055,11.06,13.94,9.551-3.367,7.839,1.885,5.342L702.2,697.06l8.125,1.927,0.139,5.391,6.483-1.781,12.089,11.491,5.94,9.808-2.469,7.965-12.528,10.378-5.53-1.2-3.652-4.334-8.354-1.294-8.507,10.163L683.4,753.444l0.557,5.287Z" transform="translate(-16.321 -332.52)" fill="#ff8080" stroke="#000" stroke-width="2"/><path d="M944.882,555.709l1.294-2.079-10.621,3.992-13.411-4.535-3.3,4.1-1.155,5.147-2.664.34-2.038,4.7-11.289,4.646,8.382,5.474-1.482,7.686,3.909,3.464-3.979,6.274-7.352-4.716-2.65-.654-2.553,7.283-7.2,2.692-0.111,5.461-3.666-3.3L872.3,593.006l-21.278,8.111-7.742,10.26-2.052,1.941-7.728,8.235-11.046-2.462-3.1-4.347-7.04,9.362,4.9-.654,2.365,4.646-1.6,3.589-6.469-.667-2.664,3.179,4.208-.487,5.314,1.781,6.845,8.466,19.47-3.722-3.965,6.671,3.694,3.353,16.75,14.023,3.109,13.452-1.328,2.449-0.369,5.676,20.923-8.764,19.442-4.375,17.39-.813,20.109,2.421,4.521-11.477L930.053,646.6l-5.217-.2,0.271-.313,5.071-2.254,9.578,5.287,13.585-2.511,16.165,2.282-0.355-8.612,12.076-12L994.743,602.9l0.529-8.069-17.849-31.385,0.424-2.2,1.315-4.89-7.484-13.244L958.99,548.2l-3.965,6.942-5,2.484Z" transform="translate(-16.321 -332.52)" fill="#ffeb00" stroke="#000" stroke-width="2"/><text transform="translate(241.027 382.634)" font-size="153.021" font-family="DejaVu Sans" font-weight="700">5</text><text transform="translate(599.14 249.671)" font-size="153.021" font-family="DejaVu Sans" font-weight="700">4</text><text transform="translate(824.419 255.023)" font-size="104.64" font-family="DejaVu Sans" font-weight="700">3</text><text transform="translate(899.573 303.521)" font-size="90.21" font-family="DejaVu Sans" font-weight="700">9</text><text transform="translate(774.476 369.833)" font-size="75.251" font-family="DejaVu Sans" font-weight="700">1</text><text transform="translate(788.489 282.796)" font-size="16.05" font-family="DejaVu Sans" font-weight="700">2</text><text transform="translate(689.995 360.839)" font-size="75.251" font-family="DejaVu Sans" font-weight="700">8</text><text transform="translate(495.355 530.554)" font-size="103.168" font-family="DejaVu Sans" font-weight="700">6</text><text transform="translate(371.085 571.267)" font-size="103.168" font-family="DejaVu Sans" font-weight="700">7</text></svg>