<svg xmlns="http://www.w3.org/2000/svg" width="740.884" height="976.393" viewBox="0 0 740.884 976.393"><title>Députés sortants des Hautes-Pyrénées en 2017</title><path d="M404.79,535.4l4.091,8.825,7.19,8.619L408.961,569l1.179,0.545,11.968,0.643,1.634,3.019-5.725,19.453,3.528,20.989,5.43,12.888-6.493,2.706-9.1-5.02-6.27-8.548-6.976-.974,14.326,15.7,4.68,9.369,0.036,17.023-2.876,6.52-6.681,2.25L406,679.473l-4.412,5.672,1.76,3.171,25.383,13.834,10.539-.607,12.468,7.323,17.2-2.527,2.555,2.412,0.982,10.414,4.01,5.689-0.652,10.065,8.342,22.508,13.112,4.278-0.456,7.244-14.273,16.506-17.639,3.108-5.725,4.448-6.225,6.94-0.224,11.825-5.716,6.771-1.313,18.283-4.341,9.735L452.975,860,450.93,878l18.935,21.8-4.2,9.923,3.439,17.827,17.22-1.447,12.191-12.468,23.284,6.716,13.487,11.164,27.428,2.778,5.332,13.433-0.732,10.655L589.8,976.428l19.1-10.45,5.35-20.829,13.085-6.207,11.5-13.415,10.682,9.539,14,2.028,2.51,13.942,22.614,9.11,27.92-3.019,11.575-6.458,4.037-5.708-1.018-6.752-23.1-21.8,8.217-6.261-0.428-7.082,1.447-13.889L711,877.351l0.607-9.976,4.564-9.119,0.875-.769,0.214-12.683-2.724-2.689-2.787-13.067,1.992-6.494,4.055-16.64,2.555-7.029-5.511-5.18,9.459-7.833-0.607-10.253,4.162-9.351,16.648,3.822,3.6,5.984,3.483-.4,12.853,1.679,6.538,6.52,9.852-3.492,5.243,4.671,6.3-.679,10.316-10.432,1.3-6.091,1.447-6.494,4.627-11.789,5.028-14.7,2.42-1.59,1.59-8.252,1.992-10.361,4.144-6.207,7.377-2.894,8.547-5.234,8.208-11.164,3.457-.259,3.019-8.771-1.84-2.51-5.457-4.832-0.6-.545-11.718-3.626-4.716-9.959,1.581-2.376-3.447-4.118,9.869-2.617,2.233-9.262-1.8-2.689-7.065-9.11,0.581-9.7-0.625-1.152-5.77-12.96-11.272-1.5-0.438,9.788-0.607,3.805-4.627-1.1-0.741,3.313-13.129-.545-4.653,4.85L779.85,636.115l-2.912,2.823-5.752-1.59-5.707-6.627,5.922-8.494,0.277-20.7,3.706-5.493,6.368-1.706,10.861,7.851,3.188-1.027-1.054-3.573-5.055-22.855-2.938-1.447,5.118-8.422,1.634-1.956-24.034-10.253,0.34-10.137-7.806,1.34-13.487-2.894-3.439-12.486-6.725-1.357-1.456-6.752-18.676,3.974-8.949-1.259,8.306-6.511-6.895-7.851-9.432-4.743-0.491-.053,11.209-14.424,2.367-4.278,30.153-26.3L760.7,439.072l-11.307-6.716,8.815-13.192,12.468,4.5,8.485-5.2,5.234,4.063,13.951-8.548,1.983-16.416-16.6-3.019,12.031-16.988,6.984-.875,0.554-5.761,15.246-15.443,13.513-4.555,0.554-2.823,2.742-10.289,10.459-2.6,2.3-6.494-21.954-12.263-5.395-2.894-15.2-7.868-6.511,1.429L780.8,296.711l-5.6,2.787-2.037-.473-16.934-6.019-6.618.16-6.261,7.521-3.171.545-10.423-7.413-5.189.107-8.994-4.261-12.263-4.359-1.527,13.38-18.4-.179-17.4-6.439-1.67-3.332,3.832-14.621-15.273-4.1-11.138,6.055-13.469,1.5-4.778,4.555-6.466,1.17-4.51-33.547-10.084,8-8.449-4.538-1.679-17.88-20.935,6.207-20.552,10.342,10.521,23.258,7.511,2.474,3.385,2.215,0.589,7.046-3.921,12.96,0.134,3.858-17.318,16.05-8.494-4.1-2.135-8.967-8.333-3.841,1.921-2.393-2.42-1.831-8.833-.571-0.34.259-4.189,5.636-6.859,1.483-13.692-2.894-0.893-10.521-12.692,7.342-14.809-.733-1.876-.188-6.672-.7-0.964,9.092-0.848,10.155-12.808,3.26-3.341,16.184-2.8,2.412-6.279-2.009-9.6,9.611,1.438,18.122-6.029,3.277-0.554,6.886-5.055,4.671L398.01,383.3l5.841,13.433,29.706,1.206,2.671,13.87,9.914,7.19,6.1,0.956-4.653,18.283-8.994-2.438-3.724,12.388,2.9,6.332-3.162,8.744,2.465,5.949,8.306,0.017,0.974,11.128-1.929,6.055,6.484,12.281-4.966,4.287-6.395.8-4.252,5.056-6.663.75L428.2,527.787l-20.48-3.537-1.929,1.706Z" transform="translate(-116.073 -1.233)" fill="#ff8080" stroke="#000" stroke-width="2"/><path d="M331.882,2.476L322.95,7.219,309,7.5l-0.848,13.942L291.4,25.065l0.554,7.252,3.626,13.12-1.116,6.422,2.787,3.912-3.912,12.558,2.5,5.859,3.349,0.277,13.4-4.743,10.048,14.514,5.314,3.349,4.189,6.976-0.554,5.859,3.349,5.02-3.072,6.422-1.956,8.655-1.679,6.7,9.78,3.349,1.116,13.674,6.145,0.84,5.859,5.02-3.626,4.466-6.422-.277L315.4,156.8l3.072,10.325-3.912,10.307L312.6,187.476l12.281,12.281L314.27,212.314l18.417,0.277,3.626-8.931,4.743-15.63,5.582,3.912,6.145-14.514,10.611-1.376-1.679,14.237,10.9,9.771-10.048,25.115,2.5,1.956-2.787,3.072,5.02,0.554-2.787,5.582,1.956,2.492L362,248.62l3.912,5.582,3.072-1.393,0.554,8.931,17.595,17.309-2.233,6.7-1.116,1.679-8.663,11.441-3.349,1.679-8.655-6.145-17.023,2.51-1.679,6.145-5.02,14.514-7.815,6.976,0.554,13.951,2.233,6.145,12.843,3.626-1.385,3.349,5.582,4.466v3.626l-5.582,16.47-14.514,20.65-1.393,10.325-1.956,6.7-9.485-4.466-6.145-2.51-3.081,1.679,4.743,47.167L296.13,456l-8.092,10.325L280.5,454.3l-3.349-.84-6.976,12.281-0.554,9.485-6.422,6.976-3.081,2.787-5.85,21.489-15.362,7.244-7.815,10.887-12.843-4.189,1.393,10.619-4.2,5.011,6.43,7.815,1.385,6.976-8.378,15.907V574l12.558,11.164-6.976,1.393-6.976,8.092L195.347,604.7l-9.485-5.582-18.14.84,2.51,17.023-5.859,12.54-17.309,4.466-3.626,13.951,1.956,32.1,4.466,5.582,3.626,13.951-4.466,12.558-9.771-.84-11.441,12.843L117.2,726.091l1.965,13.951,6.422,8.655v10.611L132,775.777l-4.466,20.1,6.145,8.386,20.364,5.859,2.51,6.145,14.514,10.048,9.485-3.072,3.618,5.305,1.679,10.611,18.417,10.887,10.611,2.51,11.718,8.378,6.976-1.393,11.441-8.075,2.787,13.657,5.582,8.931-1.116,3.626,8.931,5.859,10.611,14.791,8.931,15.907,1.393,3.349,0.268,7.538,2.51,2.51,28.188,6.145,4.189,17.586,4.189,5.582,38.807,9.208,12.843-6.7,3.912-9.771L384.008,948l20.65,5.305,12.843-6.145,8.092-11.718,6.976-2.233,12.843,6.145h7.252l13.4-5.305,3.072-6.7-3.626-17.863,4.2-9.771-18.711-21.775,1.965-18.14-11.718-13.4,4.466-9.771L447.1,818.5l5.582-6.976,0.277-11.718,6.145-6.976,5.859-4.466,17.586-3.072,14.237-16.47,0.554-7.252-13.12-4.189-8.378-22.606,0.554-10.048-3.912-5.582-1.116-10.611-2.51-2.233-17.309,2.51-12.281-7.538-10.611.84-25.4-13.951-1.679-3.072,4.466-5.859,1.385-13.674,6.7-2.233,3.081-6.7L416.929,639.6l-4.466-9.191L397.95,614.5l6.976,1.116,6.422,8.655,8.931,5.02,6.7-2.787L421.4,613.66l-3.349-21.212,5.582-19.256-1.679-3.072-12-.554-1.116-.554,7.252-16.184-7.252-8.655-4.189-8.931,1.116-9.485,1.956-1.679,20.373,3.626,0.277-18.14,6.7-.84,4.466-5.02,6.145-.84,5.02-4.189L444.26,486.4l1.965-6.145-1.116-11.164h-8.092l-2.51-5.859,3.072-8.931-2.787-6.145,3.626-12.558,8.931,2.51,4.734-18.14-6.145-1.116-9.771-7.252-2.787-13.674L403.8,396.526l-5.859-13.4,16.47-3.912,5.02-4.743,0.554-6.7,6.145-3.349-1.393-18.14,9.485-9.477,6.145,1.956,2.787-2.51,3.349-16.184,12.843-3.349,0.84-10.048,1.116-9.208,6.7,0.84,1.679,0.277,14.782,0.554,12.843-7.252,0.84,10.611,13.674,2.787,6.976-1.393,4.189-5.582,0.277-.277,8.931,0.554,2.233,1.679-1.965,2.51,8.378,3.921,2.233,8.931,8.378,3.912,17.309-15.907v-3.912l3.912-12.852-0.554-7.244-3.349-2.233-7.538-2.233L550.616,251.71l-9.485,5.305-6.145-2.233-13.12,2.233-6.145-7.538-12.281,3.912-4.466-9.771,3.081,1.393-4.743-24.562-12.843,3.912-6.422-6.422-3.072-10.325-7.538-7.815,2.787-11.164-0.554-.84,21.775-8.931-8.092-15.076v-1.116l-5.582-7.815-2.787,1.679-5.859-2.233-4.466-8.378-2.787-17.318,2.233-2.778-1.965-6.153L450.708,100.42l-15.63,7.556-7.547-7.556-1.116-6.7-9.771,4.743-10.611.554L395.708,80.038l-7.538-8.092-10.9,1.393L372.54,58.263l-8.378-8.092-3.912-28.75-6.43-13.4-13.951.84-0.277-2.787L336.52,7.47ZM294.762,250.6l-10.887,3.349,3.072,12.558L297,265.652l2.233,26.794-16.184-4.189-4.466,5.582L278.3,304.728l3.626,9.485h10.325l15.63,6.145h0.554l4.189-5.582v-7.244l1.116-9.208,2.233-13.4,1.679-6.7-1.116-6.422-10.048-12h-0.84l-2.233-5.02Zm-12.281,67.826-6.422,1.679-3.349,6.145-5.859,12.281-5.582,3.921v4.466l-2.5,10.307,12.549,26.535,4.2,5.011,10.316-1.679,1.393,0.277-0.554-6.422,7.252-6.7L297,375.643l6.976-8.092,1.116-10.325-3.912-5.859-7.815-7.252,4.189-17.586Z" transform="translate(-116.073 -1.233)" fill="#ffd1dc" stroke="#000" stroke-width="2"/><text transform="translate(123.875 702.445)" font-size="196.482" font-family="DejaVu Sans" font-weight="700">2</text><text transform="translate(417.237 626.031)" font-size="196.482" font-family="DejaVu Sans" font-weight="700">1</text></svg>