<svg xmlns="http://www.w3.org/2000/svg" width="930.772" height="978.156" viewBox="0 0 930.772 978.156"><title>Députés sortants de la Haute-Garonne en 2017</title><path d="M746.978,181.813l-10.238-3.356,1.977,1.617-0.51,7.642-11.528-.2-1.168,5.04,2.806,7.228-14.191-8.07-7.215,3.1-9.606-9.789,0.476-2.717-13.416-6.263-2.955,10.984,2.12,1.6-3.58,6.991,1.664,5.04-4.4,9.477-1.807,4.205-5.828,3.1L664,221.063l2.4,4.857,12.955,3.356-5.251.93L668.3,235.75l-7.5-2.629-6.4,3.607-7.921-7.459L638,236.314l-5.272,5.638,2.778,16.256-5.258.292-4.572-1.882-6.651,2.16-2.507-5.8-2.738-2.561-2.7.041-3.628-.639-0.122-7.6,1.155-5.57-0.679-1.556,0.741-1.324,0.1-8.756,2.385,0.4-0.251-3.58,5.462-.713,4.429-6.861,0.149-2.669,7.636-2.52,1.515-7.534-8.376-5.971-1.359.183,1.325-5.822-2.744-4.735-10.91-8.437-0.639-2.7,2.4-1.338,3.838-3.288,2.568-7.323,1.773-2.072,7.9,1.46,2.228,1.542,8.539-6.529,4.973,0.6,3.417-3.927-0.843-7.472,3.845-6.807-3.2-11.134-2.751-4.83,0.041-5.557,14.606-19.714,2.439-.992,5.523,5.5,5.238,0.306,2.432-.435,7.547-9.8,6.861,2.452,8.267-5.374,21.317,12.309,11.141,1.236,2.167,4.973-3.736,9.857,0.557,2.669,4.9,2.018,2.439,7.181-3.268,12.235,4.11,2.771,1.461,4.735,11.386,5.15,5.387,5.822,2.445-.992,7.751,10.76-2.4,4.708-5.414.251Z" transform="translate(-30.846 -4.888)" fill="#ff8080" stroke="#000" stroke-width="2"/><path d="M697.306,185.039l0.476-2.717-13.416-6.263-2.955,10.984,2.12,1.6-3.58,6.991,1.664,5.04-4.4,9.477-1.807,4.205-5.828,3.1L664,221.071l2.4,4.857,12.955,3.356-5.251.93-5.808,5.544-7.5-2.629-6.4,3.607-7.921-7.459L638,236.321l-5.272,5.638,2.778,16.256-12.656,5.516-0.082,3.553-6.372-1.3-0.428-3.505-3.73-.109-4.735,1.223-4.864,11.12,12.615,0.971,6.012-3.145,8.858,25.053,10.448,2.188,6.841-3.213,4.5-7.1-0.686-8.41,13.7-1.352,13.654,9.008,3.247,0.251,2.106-6.875,9.884-3.927,6.623,4.762,0.781,4.9,7.418,2.147-0.992-7.167,4.776-8.94,5.163-6.08,2.337-7.6,4.5-2.771,5.034,1.841,7.928-1.338,9.626,4.3-2.948-7.486-4.11-3.437,1.162-7.5,4.674,1.338,6.44-6.915,2.255-7.351,6.406-8.587,12.425-4.857,2.615-.639,0.965-5.251-5.835-8.783,0.183-10.536-32.988-4.565-11.528-.2-1.168,5.054,2.806,7.215-14.191-8.07-7.215,3.118Z" transform="translate(-30.846 -4.888)" fill="#06c" stroke="#000" stroke-width="2"/><path d="M527.713,103.2l-9.939,2.826-2.228-4.3-6.392,2.411,1.685,5.19,4.388,2.547-1.773,2.1-35.549,14.476-1.569-2.269-1.739-5.014,6.311-5.122-1.277-5.231-18.81-3.023-4.531-8.268-7.133-3.539-3.254-7.6L438.532,85.2,437.2,90.558l-9.64,5.176-6.08,9.089-0.761,9.2,3.533,10.047-2.276,1.617-0.1,5.529,6.488,4.844,6.984,3.009,0.53,18.07L423.634,163.3l-3.458,19.965,3.893,0.794,5.238-.517,2.31,1.277-0.571,2.588,9.823,1.834,4.483,6.114,6.7,3.533,4.8,8.73,4.293,2.364,10.944-7.4,3.8-6.651,1.481-3.424,3.5,7.323,0.6,16.025,4.714,2.669,0.217,2.69,5.217,1.406,18.328-13.125,3.009-4.565,15.026-7.588-0.686-8.322,6.243,12.473,0.645,8.383,12.425-3.539,8.07,6.766,7.615-.319,0.381-1.59-5.007-11.4,8.091,5.584,5.537-4.022,4.918-1.556,2.126,9.368,7.7,0.5,6.854-.156,3.261,3.913,7.69,2.4,0.272-5.4,4.837-2.364,1.78,13.729,5.462-.713,4.429-6.861,0.149-2.669,7.636-2.52,1.508-7.534-8.369-5.971-1.359.183,1.325-5.822-2.744-4.735-10.91-8.437-0.639-2.69,2.4-1.352,3.838-3.288,2.561-7.323,1.78-2.072,7.9,1.46,2.222,1.542,8.546-6.529,4.973,0.611,3.417-3.94-0.843-7.472,3.845-6.807-3.2-11.134-2.751-4.83,0.041-5.557L656.56,97.623,659,96.631l5.523,5.51,5.238,0.292,2.432-.435,7.54-9.8,6.868,2.452,8.267-5.374,2.642-20.78-1.114-.347-10.767-4.191L675.519,48.2l0.143-1.868,5.02-.836-4.388-3.132,1.732-4.952-5-6.345-1.848-7.88,4.674-14.911-12.6-2.228L661.729,13.7,657.2,20.078l-4.694-1.9L651.947,23.2,641.8,32.109l-2.731-.143-2.419-10.441-6.182-5.217-4.11,8.662-6.732,8.981-5.36,12.778-0.686-2.547-9.68,3.254L596.473,45.5l-5.5-8.783-5.129-1.284-5.027,2.228L565.9,31.315l-5.353,5.638,0.156,5.176-3.987,3.329,7.038,11.08-1.522,4.484-13.607.992-9.171-5.469-11.467,5.9-3.3,4.076,5.319,1.352,6.6,8.634,9.925-3.492,13.159,0.849,3.247,15.38-7.14,1.168-2.487,4.178-9.843,1.617L535,102.351l-5.625.415Z" transform="translate(-30.846 -4.888)" fill="#ff8080" stroke="#000" stroke-width="2"/><path d="M409,211.4l-10.76,2.133-7.106-7.547-2.6.251-0.693-2.392-4.511-1.739,1.338-2.1,0.51-5.095,3.859-3.356,0.578-5.068,3.336-3.729-5.53-3.607-8.879-5.917-7.717,1.392-1.753-2.058-2.242-4.959,1.7-2.12-6.61-4.66-15.047-12.893,3.614-.055-10.142-12.3-4.952-.224,2.215-1.447-6.236-8.349-2.962-12.445,1.209-1.556,4.619-.374,4.375,2.561,6.284-3.1,2.935-4.1,7.371-2.215,21.039-3.729,4.742,2.8,8.166,0.741,13.281-13.491,0.679-.707,7.975,6.555,5.054,1.182,1.277,2.283-1.732,1.922,3.39,3.886,2.4-.985-0.767,9.2,3.539,10.054-2.276,1.6-0.1,5.544,6.488,4.844,6.984,3.009,0.53,18.07-12.241,6.141-3.458,19.965,3.893,0.794,5.238-.517,2.31,1.277-0.571,2.588,9.823,1.834,4.483,6.114,6.7,3.539,4.8,8.715,4.293,2.364,10.944-7.4,3.8-6.651,1.481-3.424,3.5,7.323,0.6,16.039,4.714,2.656,0.217,2.7,5.217,1.392,12.873,2.683,7.411-2.493,4.85,2.018,3.784,6.889,12.33,5.15,2.487-.679,5.8,5.108,14.381-5.238,11.107,6.712-6.223,5.51-2.188,10.93,6.3,5.427-0.5,4.925,7.024,3.329-5.652,6.2,0.809,7.724-3.682,7.7-2.738,3.954-12.724-4.606-2.283,1.488-7.113,3.689-3,12.893-0.347,1.311-2.744,4.259-4.647-1.7-4.66,5.957-2.928,5.516-7.608,2.615-13.356-2.669-2.371,10.869-7.5,8.016L502,348.972l11.691,7.534-2.269,4.538-4.993,1.556-20.278-4.606,0.707-13.152-7.215,3.661-7.894-.917-3.8,3.845,0.863,2.031-3.546,2.411-2.235,4.633,5.353,5.265-2.928,12.765,1.658,2.031-2.772,6.141-7.867-2.392-7.914,2.269-5.992,3.254-1.386-2.086-7.432-.333-2.479-4.286,1.331-4.9-3.8-6.657-18.029-2.35-8.274-6.474-2.7.754-23.118-9.673-2.16-.992L384.7,351l4.585-11.943,7.833-.224-11.542-11.066,1.3-5.238,7.574,1.005,4.681-2.629-5.2-6.155-9.728-5.082,5.231,1.352,8.817-5.638,5.367-.055,4.2,3.173,3.254,7.378,4.952-2.975,7.262-6.848-3.526-8.906,7.547,1.794,18-1.854,4.334-12.058-1.562-2.058,7.181,3,7.581-1.46,7.262,2.717,0.55-21.27-6.848-7.785-4.368-6.753-5.476,5.747-7.371,1.366-9.266-12.873,2.377-11.386-4.735-4.973-4.579-.666-4.13,2.717-4.939-.421,0.34,2.426L407.073,227.4l0.211-4.986,6.25-8.077Z" transform="translate(-30.846 -4.888)" fill="#ffeb00" stroke="#000" stroke-width="2"/><path d="M629.754,424.529l2.276-10.373-1.535-3.845-1.3-2.269,2.154-1.562,7.391,3.05,1.651-2.1,2.419-13.057-2.69-4.633-11.657-4.66,2.364-4.51-1.7-4.456-5.258,6.025-9.667,4.205-12.37-1.406L601.04,383l-3.084,2.113-12.533,1.366,2.106,7.14,1.61,8.132,5.482,9.592-0.482,5.516-2.846,7.574-12.153,6.08-10.19-12.71-6.732-3.689-12.309,3.7-1.121-2.52-7.418-2.3,0.686-2.669,2.846-4.68,15.9-14.993,2.4-7.8,6.821-8.118,1.236-4.884-5.306,1.406-6.046-5.876-7.018.136,1.855-4.952-1.3-7.894,1.984-2.018-5.027-1.794-5.027,1.909,1.889-13.77,4.232-7.826,17.989-5.51,2.14,1.726,1.121-2.1-2.9-8.268-3.933-7.085,1.576-5.231,3.512-3.315-8.471-4.912-2.738,3.967-12.724-4.606-2.283,1.474-7.113,3.689-3,12.893-0.347,1.324-2.744,4.259-4.647-1.7-4.66,5.957-2.928,5.51-7.608,2.629-13.356-2.669-2.364,10.856-7.5,8.03,13.492,2.935,11.691,7.534-2.269,4.538-4.993,1.556-20.278-4.62,0.707-13.138-7.215,3.661-7.894-.93-3.8,3.859,0.863,2.018-3.546,2.411-2.235,4.646,5.353,5.251L465.468,378.6l1.658,2.031-2.772,6.141,7.215,7.642-5.8,12.235,2.194,7.724-2.194,4.986,15.325,7.351-5.985,5.108,1.257,7.5-21.528,15.149L451.3,461.62l-7.568.265-3.865-3.329-7.1,6.583-2.364,6.793,7.812-.727,16.188,8.851-7.411,2.147-3.4,3.886,7.452-.571,10.475,6.5,2.222,7.4-3.7,7.167-8.838,7.045-8.07,16.691-2.622.068-1.692-4.973-2.52-.693-6.827,3.8-9.646-10.034-15.76,20.339,7.8,10.9,14.64,6.61,5.937,2.921-0.557,4.912-7.255,2.493-2.3,7.3-4.891,1.542-3.533,1.834,0.217,12.724,1.63,9.436,9.633-3.7,10.272,2.228,1.4-9.273,9.66-.156,3.037,9.7,2.262,1.25,0.095,5.19,4.8,0.89,3.818,9.171-5.924,3.533-1.141,4.816,2.4,4.3,13.518,12.3,7.14,8.172,1.42,4.633-1.569,1.841,7.561,16.583,12.656-1.7,9.449-2.826L505.6,653.537l10.5-1.807,1.617-2.147,4.871-8.268,7.241,0.679-15.026-15.353-1.63-5.068-10.672.36-10.292-1.617-7.989-1.644-3.791-3.567-0.143-5.306,6.243-8.492,1.5-10.59,8.057-1.311,2.955,4.538,2.235-.387,8.607-5.529-1.032-.557,5.937-3.227,11.352,4.959,5.448-4.456,5.136,3.886,4.49-.768,4.171-4.789-1.032-5.971,16.657-6.685,7.812,1.841,5.631-9.232,1.325-7.045-4.246-5.876-1.066-4.952-4.517,2.269-7.3-2.072-2.466,1.2-6.691-4.165-10.563-2.2,6.651-4.8,0.306-2.717-21-3.4,4.1-6.3-5.02-12.289,5.217,0.639,3.424-7.268,5.3-.517L542.125,494l4.232-3.519,8.2-1.311,15.9,4.233-4.232,3.288,7.86,13.6,13.07,8.913,0.469,0.849,13.444,16.466-5.149,23.233,8.322,6.623,5.924,1.794,5.924,2.894,9.633,2.113,3.9-5.889,1.821-5.095,4.837-2.426,9.8,4.388-0.068-3.1,0.007-5.265-6.617-4.218,6.97-10.047-3.947-4.076-3.886-1.807,0.985-4.66-2.289-4.62,3.668-6.569,0.693-12.595,5.992,4.416,2.907-4.165,2.16,1.338,0.268,5.013,1.012,10.122,13.912-3.533-0.027.781,2.133-1.352,1.766,1.834,4.973,8.866,4.83,6.291,2.147-1.556,2.011-4.925-1.372-7.683,4.952-1.488-0.815-7.656,6.087-11.61,4.171-3.213,4.327,3.132,2.493-1.047,1.1-2.466-3.607-7.017,13.233-13.172-9.334-8.824-19.565-21.44-6.787,1.854-2.962,9.769-4.626,5.733,1.61,2.031-5.143,1.2-7.255-3.927-5.258,1.63-2.343-1.447-6.243-8.628,7.785-1.562,3.689-3.818-4.966-6.114-14.932-7.323-5.38-9.775Z" transform="translate(-30.846 -4.888)" fill="#ff8080" stroke="#000" stroke-width="2"/><path d="M313.264,765.135l-8.675,5.761L282.8,772.18l6.053,17.4-4.273,6.236-7.595.306-4.422,2.7-7.751-.93-1.732,1.977-8.118,5.652,4.368,11.6,3.953,3.567,1.039,5.251-4.4,12.6,2.411,4.776,5.061,1.726,1.651,9.939,5.088,11.358-0.917,9.911-13.349-2.018-19.463-9.619-12.826,3.424L204.789,858.5l-5.421-5.889-12.717-4.456-9.558,4.857-8.057.109,0.462,5.4-9.313,5.625-1.991,4.66,1.712,5.163,4.341,3.241-2.792,7.378,3.016,9.089-5.761,4.11-4.456,8.451-4.477,3.594,11.352,6.542-12.894,15.7,10.4,2.086,5.93,15.353,3.641,4.137-0.795,7.962,3.138,7.588-4.205,12.765-29.8-3.424L122.176,970.8l-1.637.985-3.4,7.14-33.708-5.863-1.868.081L75.7,981.712,62.464,980.6l-8.974-5.414,3.071-4.341-0.775-5.136L38.219,949.125l6.25-4.762-0.326-5.374,1.1-10.577-4.782-8.994,0.462-7.588,3.471-6.936,0.666-.585,0.163-9.647-2.065-2.045-2.126-9.925,1.522-4.952,3.077-12.656,1.943-5.346-4.191-3.94,7.194-5.944-0.462-7.812,3.166-7.113,12.663,2.907,2.738,4.552,2.649-.306,9.776,1.277,4.973,4.959,7.493-2.656,3.987,3.553,4.789-.517,7.846-7.934,0.992-4.633,1.1-4.925,3.519-8.981,3.825-11.182,1.841-1.209,1.216-6.277,1.508-7.88,3.152-4.708,5.611-2.215,6.5-3.967,6.243-8.5,2.629-.2,2.3-6.671-1.4-1.9-4.144-3.689-0.462-.415-8.906-2.758-3.594-7.561,1.2-1.82-2.622-3.132,7.506-1.99,1.7-7.045-1.365-2.045-5.374-6.929,0.435-7.378-0.476-.877-4.388-9.857-8.566-1.141-0.34,7.445-0.462,2.894-3.519-.836-0.564,2.52-9.986-.415-3.539,3.689-8.933,9.755-2.215,2.147-4.375-1.209-4.334-5.04,4.5-6.461,0.2-15.747,2.819-4.178,4.844-1.3,8.267,5.971,2.419-.768-0.8-2.731-3.838-17.384-2.242-1.1,3.893-6.406,1.243-1.488-18.28-7.8,0.258-7.71-5.937,1.019L69,663.554l-2.615-9.483-5.115-1.047-1.107-5.136-14.2,3.037-6.814-.971,6.318-4.939-5.244-5.985-7.174-3.594-0.367-.055L41.2,624.411l1.8-3.254,22.934-19.992,12.336-15.087-8.607-5.108,6.7-10.047,9.483,3.424,6.454-3.954,3.981,3.091,10.611-6.5,1.508-12.486-12.622-2.3,9.144-12.921,5.319-.666,0.414-4.368,11.6-11.752,10.278-3.465,0.421-2.147,2.086-7.826L143,507.092l1.753-4.952-16.7-9.327,2.8-3.8,18.824,2.6,6.936-3.981,10.658-9.605,0.347-2.215L178.2,459.893l2.9-5.442,0.809-1.528,1.7-2.683,7.126-11.454,9.354,5.319,7.364-7.615,4.246-6.583-2.513-4.789,1.549-2.215,2.873-4.633,1.209-2.426-2.9-7.472,10.625,0.279,21.3,13.586,0.2-.36,3.634-9.816,3.8-3.539,13.777,5.638,7.309-3.648,2.5,0.917,1.759-1.99,4.042,3.465,5.265,0.679,2.935,0.475,9.578,3.771,1.433-2.018,7.241,1.2,0.082,2.52,4.674,1.766,1.039,4.66,9.816,11.277,1.508-3.451,9.606-1.141,3.043,7.208-1.325,5.095,8.1,6.461,7.581-2.758,0.985-6.331,4.341-1.882,1.257-2.479-3.539-3.505,1.556-5.265-4.429-12.907,5.992-5.231,10.672,1.7,3.356-6.936-4.361-6.5-1.243-1.617,1.875-4.191,5.822-4.191,0.937-4.816,0.645-4.912,2.364,0.741-0.992-2.16,3.953-2.6-1.467-1.854-13.94-10.163,2.67-4.456,8.865-5.068,23.118,9.673,2.7-.754,8.281,6.474,18.023,2.35,3.8,6.657-1.331,4.912,2.479,4.273,7.432,0.333,1.386,2.086,5.992-3.254,7.914-2.269,7.867,2.392,7.215,7.642-5.8,12.235,2.2,7.738-2.2,4.973,15.325,7.351-5.985,5.108,1.257,7.5-21.528,15.149-3.539,7.153-7.568.279-3.865-3.329-7.1,6.569-2.364,6.793,7.812-.727,16.188,8.866-7.411,2.133-3.4,3.9,7.452-.585,10.475,6.5,2.222,7.4-3.689,7.167-8.845,7.045-8.07,16.691-2.615.068-1.7-4.973-2.513-.679-6.827,3.784-9.653-10.034-15.76,20.339,7.8,10.9,14.64,6.623,5.937,2.907-0.557,4.912-7.249,2.493-2.3,7.3-4.891,1.542-3.533,1.841,0.217,12.724,1.63,9.422,9.633-3.7,10.278,2.228,1.393-9.273,9.667-.156,3.03,9.7,2.262,1.264,0.095,5.19,4.8,0.877,3.818,9.185-5.924,3.533-1.141,4.816,2.4,4.286-4.32,7.113-2.765.055-9.742-5.238-12.574-14.544-6.936,6.725-2.079,3.3-9.823,1.671-2.011,6.569-14.456-3.831-5.428-5.359-0.978,1.223-2,4.565,2.255,4.11-0.849,10.373-7.283,15.427-7.343-1.447-9.239-8.967-4.966-.639,1.658,6.9-4.307,5.849-2.425.122-0.245,5.414,7.683,7.561-3.084,4.035-4.191,3.424-8.132-.666,4.218,8.336-1.053,7.445,3,4.1,2.487-.435,0.639,6.766-0.707.238-5.02-4.205,2.656,16.97,4.483-.462,6.426,4.124,3.2,6.9,5.143-.136-9.735,3.241-6.026,12.044-9.239,12.935-8.315,2.867-15.366,4.076Z" transform="translate(-30.846 -4.888)" fill="#ff8080" stroke="#000" stroke-width="2"/><path d="M602.69,305.762l0.265,10.109-3.152,9.715L600.931,328l5.2,1.141-2.2,6.821-7.636-.122-2.642-4.273-9.375,5.427,8,10.454,1.134,2.1-3.9,5.427,1.671,1.671,6.127,8.7-2.5,9.871,3.159,9.884-12.533,1.352,2.106,7.14,1.61,8.132,5.482,9.592-0.482,5.516-2.846,7.588-12.153,6.08-10.19-12.724L562.23,414.1l-12.309,3.689-1.121-2.507-7.418-2.309,0.686-2.669,2.846-4.68,15.91-14.979,2.4-7.812,6.821-8.1,1.23-4.9-5.3,1.42-6.046-5.876-7.018.122,1.855-4.952-1.3-7.894,1.984-2-5.027-1.794-5.027,1.909,1.889-13.784,4.232-7.812,17.989-5.516,2.14,1.726,1.121-2.086-2.894-8.268-3.94-7.085,1.576-5.238,10.19,9.171,24.945-37.125,12.615,0.958,6.012-3.132,8.858,25.053,10.448,2.188,4.361,8.2-19.171,9.483-2.676-.543-1.583-.543Z" transform="translate(-30.846 -4.888)" fill="#ff8080" stroke="#000" stroke-width="2"/><path d="M846.269,303.269l-0.72-14.619-5.951-8.24-10.088-2.643-8.953,1.46-4.314-2.534-3.22-.822-11.848-6.991L800.5,263.4l-4.32-3.478-1,1.42-9.918-1.324-0.17-.713-2.3-1.277-8.349-4.388-1.868-4.205-7.133-3.383-7.255.571L752.2,238.3l-6.44,6.9-4.674-1.338-1.162,7.5,4.11,3.437,2.948,7.486-9.626-4.3-7.928,1.338-5.034-1.834-4.5,2.758-2.33,7.6-5.163,6.087-4.776,8.926,0.992,7.167-7.418-2.147-0.781-4.9-6.623-4.762-9.884,3.927-2.106,6.875-3.247-.251L664.9,279.763l-13.7,1.352,0.686,8.41-4.5,7.113-6.841,3.2,4.354,8.213-19.164,9.477-2.683-.543-1.576-.53-12.01-7.208-6.854-3.478,0.333,10.122-3.152,9.728,1.128,2.4,5.19,1.155L603.926,336l-7.636-.122-2.642-4.286-9.375,5.442,8,10.454,1.128,2.086L589.511,355l1.671,1.671,6.127,8.715-2.507,9.871,3.166,9.871,3.077-2.113,0.795,1.936,12.37,1.406,9.667-4.205,5.258-6.025,1.7,4.456-2.364,4.51,11.657,4.66,2.69,4.633L640.4,407.443l-1.651,2.1-7.391-3.05-2.154,1.562,1.3,2.269,1.535,3.845-2.276,10.373,4.8,2.88,5.38,9.769,14.932,7.336,4.966,6.114-3.689,3.818-7.785,1.562,6.243,8.613,2.343,1.46,5.251-1.63,7.262,3.913L674.6,467.2l-1.6-2.031,4.626-5.733,2.955-9.775,6.787-1.841,19.571,21.44,9.327,8.824-13.227,13.165,3.607,7.031-1.1,2.466-2.493,1.047-4.327-3.132-4.171,3.213-6.087,11.61,0.815,7.656,2.167,4.952,10.6,2.113,3.05,4.443,17.86,5.238-1.2,13.4,5.38-.374,6.291-5.19,0.292-5.442-2.982-7.017L744.021,516.2l8.553,6.168,4.81-1.977L760,515.9l3.1-3.437,4.551-8.77-6.08-4.552,13.559-8.532,4.884-1.936-6.657-10.828,1.134-2.411,1-2.507-3-4.5,7.228,3.037,6.413-4.592,1.556-4.748L801,472.039l2.445-4.416,4.864-2.072,6.943,3.635,9.531-.727,1.27-5.278-6.134-8.838L819.35,440.7l2.778-4.721-2.507-7.323,12.459-2.411-2.6-3.275-2.962-4.259,0.442-5.176,5.489-5.638,7.86,0.794,2.391-4.674,1.331-4.218-2.235-3.689,7.785-8.662,9.517,5.163,0.6,5.333,13.654,12.71,2.6,4.416-3.784,9.633,4.633,2.031,4.1-2.683,2.262-2.656-1.95-1.841,5.231-9.035,0.53-5.217,7.69-2.256,7.5,2.7,6.141-4.124,3.227,2.269,1.263,6.012,3.906-3.186,10.489,7.785,12.561-4.484,4.8-6.474,4.545,2.839,4.912-2.045,0.652-2.629-5.353-9.076-3.906-7.3-4.307-2.745,2.554-16.331,3.315-4.341,8.132-1.658,5.258-6.474-2.608-3.7,2.487-6.3-3.22-10.054-2.072,7.228-2.289,1.352-5.8-5.217-4.966-1.909-2.228,1.46,1.528,16-1.447,2.324-1.59,2.256-13,1.909-5.788-5.876-12.262-6.1-2.065,2.88-18.444-11.7-2.018,2.921-15.991-11.718-0.971-.6L859.6,315.989l-0.421-2.6,4.225-3.064-9.341-3.784Z" transform="translate(-30.846 -4.888)" fill="#ff8080" stroke="#000" stroke-width="2"/><path d="M557.608,199.39l8.2,5.67,5.614-4.08,4.971-1.572,2.164,9.485,7.782,0.505,6.938-.154,3.311,3.961,7.781,2.433,0.277-5.462,4.9-2.4,1.8,13.914,0.255,3.619-2.407-.4-0.1,8.872-0.753,1.34,0.678,1.573-1.165,5.654,0.117,7.694,3.674,0.637,2.738-.032,2.776,2.595,2.54,5.862-5.3.139-6.956.078-5.251,1.179-9.328-4.145-5.217,2.778-2.4,2.548-0.589,4.093-8.094-.133L565.742,261.1l-7.58-1.576,2.218-11.079,6.3-5.567-11.246-6.8-14.561,5.315-5.863-5.18-2.527.694L520,231.7l-3.825-6.977-4.914-2.039L503.77,225.2l-13.032-2.706,18.556-13.276,3.059-4.627,15.212-7.678-0.69-8.425,6.317,12.633,0.652,8.5,12.579-3.6,8.166,6.848,7.712-.322,0.381-1.6Z" transform="translate(-30.846 -4.888)" fill="#ff8080" stroke="#000" stroke-width="2"/><path d="M567.595,303.19l3.54-3.361-8.576-4.955,3.726-7.8-0.822-7.812L571.19,273l-7.113-3.377,0.513-4.977-6.376-5.491,7.58,1.576,10.8,4.548,8.1,0.133,0.586-4.093,2.4-2.546,5.214-2.779,9.331,4.145,5.248-1.179,12.261-.214,6.742-2.2,4.624,1.913,5.331-.3-12.819,5.6-0.078,3.6-6.455-1.319-0.432-3.553-3.777-.1-4.792,1.244-4.927,11.252-25.246,37.592Z" transform="translate(-30.846 -4.888)" fill="#ff8080" stroke="#000" stroke-width="2"/><text transform="translate(167.609 651.709)" font-size="149.443" font-family="DejaVu Sans" font-weight="700">8</text><text transform="translate(453.666 483.518)" font-size="98.128" font-family="DejaVu Sans" font-weight="700">7</text><text transform="translate(613.504 418.205)" font-size="149.443" font-family="DejaVu Sans" font-weight="700">10</text><text transform="translate(655.635 251.887)" font-size="73.563" font-family="DejaVu Sans" font-weight="700">3</text><text transform="translate(527.367 357.061)" font-size="43.331" font-family="DejaVu Sans" font-weight="700">9</text><text transform="translate(636.955 161.891)" font-size="73.563" font-family="DejaVu Sans" font-weight="700">2</text><text transform="translate(502.818 183.598)" font-size="111.316" font-family="DejaVu Sans" font-weight="700">5</text><text transform="translate(439.32 311.248)" font-size="111.316" font-family="DejaVu Sans" font-weight="700">6</text><text transform="translate(536.084 245.19)" font-size="43.331" font-family="DejaVu Sans" font-weight="700">1</text><text transform="translate(538.158 291.106)" font-size="33.798" font-family="DejaVu Sans" font-weight="700">4</text></svg>