<svg xmlns="http://www.w3.org/2000/svg" width="942.354" height="675.646" viewBox="0 0 942.354 675.646"><title>Députés sortants de l&amp;apos;Aude en 2017</title><path d="M529.3,529.212l-3.161,4.564-5.575-.79L514.4,554.273l-7.625-3.489-5.475,1.139-10.622-3.368-4.6,15.158,1.075,7.312-9.569-2.364-9.739-9.334,3.232-10.209-1.018-5.076-0.627-.178L441.156,539.4l-0.043.263L443,541.593l-0.591,5.34-6.65,6.928,5.133,6.1-6.436,3.631-14.538-6.7-7.874.876-3.937,7.134-3.581-.975,1.3-4.521-1.78-4.322,2.043-5.326-7.761-12.21-11-1.338,3.659-3.517,0.164-5.24,7.525-2.043,1.659-7.952,5.774,2.057,2.449-5.148,7.753-2.278,0.071-3.517,6.479-4.115-2.841-3.866,7.475-7.775-3.04-7.048-8.529-9.484-6.23-.641-2.834-.235-18.86-12.637,2.535-5.382,3.674-4.229,5.475,1.111,1.794-2.157,0.448-16.746,10.43,3.723,10.53-2.77-0.121-7.4,10.017,0.933-6.678-9.234-2.705-13.862L419,403.039l-14.14-.833-6.821-5.311-4.293-3.752,0.448-2.833-4.6-7.262-0.242-8.48,5.667,6.2,8.408-1,1.481-14.182-1.866-5.19-2.271-5.148,0.413-11.1-10.815-13.072-2.413-7.59,9.255-6.3-0.7-8.344-4.834-10.167,10.7-4.657,2.677-.933,5.838,5.924,20.939,6.7,11.462,8,4.749,0.149L462.3,318.8l4.9-1.837-1.225-2.656L467.746,312l12.011-7.732,14.232,1.894,11.149-2.612,2.52-.961,12.523-.363,2.819,4.87,8.159,2.043,3.909,4.115,17.593-.776,8.138,3.076,2.456-1.63,0.149-.043,10.907,8.579,5.582,0.79-3.716,10.039-8.123.143-2.691-.627-1.637,2.214-5.6,6.493L555.3,352.631,557.019,361l-9.17,17.592,6.92,7.817,2.442-1.345,16.945,2.962,5.133,13.249,4.656,3.432,0.89,12.957,10.081,8.8-0.534,2.684,4.635-2.641L603,419.6l7.7,1.182,9.291,1.3,0.292-2.812,9.148-6.13,1.417-8.23,5.048-2.478,1.346-5.34,5.674,5.19,1.21,7.006,3.852,13.363-3.154,7.86,1.63,4.976,3.6,2.641,5.325-1.588,13.947,9.12,7.105,8.287,12.082-2.833,4.549-6.009,4.286-7.3-0.071-.335,0.164-11.014,8.828-10.516,4.742-3.382,4.2-3.546-6.358-8.786,7.283-3.952,11.655,1.282,5.19-2.656,13.656-3.7,3.14-7.967-2.52-13.99-8.444-14.182,8.188-8.458,0.833,2.186,1.039,6.714,9.341,5.282,1.324,7.7-0.235,4.628,1.018,8.3-3.674,7.12,5.938,5.8,9.718,5.176,6.215-5.019,15.015,11.748,6.941-.435,20.077-5.617,8.287-.406,1.125,16.282-0.335,11.555,3.852,4.407-10.316,9.134-2.627.8-4.258-3.339-8.956,6.087-2.891,13.057-3.061,3.98-4.87-1.225-9.953,1.972-3.674,6.714-6.756,3.41-4.614-5.148,1.5,4.507-7.205-.435-4.67-6.343-5.311-1.851-5.119,6.728-2.834.029-5.468-.933-4.976-5.518-4.086,1.637-5.062,1.929-9.412-4.45-3.923,4.378-5.575,1.78-5.952,11.028,5.838,4.856,21.5,9.512,3.752,4.813-0.527,1.972,9.234,5.4-3.311,10.345-9.469,5.746-2.948,7.967,0.071,10.914-3.339,11.641,3.311,4.684,11.163,0.819L739.338,570l7.3,15.279,8.522-.683,4.827,1.153-0.819,13.57-10.025,4.407-3.09,10.373-5.254,6.357,7.91,2.8-2.435,8.095,3.645,7.618,14.6,8.579-8.2,26.812,10.928,24.776-12.794,11.335-5.995,19.052-3.823,2.991-16.546,4.976-16.81,11.469-8.707-11.861-19.052-7.575-4.578-7.383-13.335-5.574-4.492-10.594-8.024,14.709-13.278-4.258-2.741-4.9-2.9-4.657,0.406-10.858-10.238-16.474,12.751,6.664,2.876-.085,5.8-6.393-6.8-5.489-2.171-8.315,2.52-8.4,9.441-14.866-5.425-12.9,1.068-5.589L642.1,615.97l-14.98-6.372,5.774-12.986-2.99-7.91,6.13-5.866-9.412-6.343-2.421-4.976-14.908-7.661,0.192-2.784-11.249-7.8,2.976-4.684-0.684-5.368-6.742.683-37.506-13.876-0.37-.085-9.64.484-1.879,5.354Z" transform="translate(-30.933 -280.465)" fill="#ffc0c0" stroke="#000" stroke-width="2"/><path d="M859.069,432.841l-16.66-.933-7.134,4.436-2.378-1.488,0.6-2.77-10.316,9.149-2.627.8-4.258-3.353-8.956,6.1-2.891,13.057-3.061,3.98-4.87-1.238-9.953,1.972-3.674,6.714-6.756,3.417-4.614-5.148,1.5,4.492-7.205-.435-4.67-6.33-5.311-1.851-5.119,6.714-2.834.029-5.468-.933-4.976-5.5-4.086,1.637-5.062,1.922-9.412-4.436-3.923,4.365-5.575,1.794-5.952,11.028,5.838,4.842,21.5,9.526,3.752,4.813-0.527,1.958,9.234,5.411-3.311,10.345-9.469,5.746-2.948,7.952,0.071,10.929-3.339,11.627,3.311,4.7L738.7,558.7l0.641,11.362,7.312,15.293,8.508-.683,4.841,1.153-0.833,13.57L749.149,603.8l-3.09,10.373-5.254,6.343,7.91,2.812-2.435,8.095,3.659,7.618,14.588,8.579-8.2,26.8,10.928,24.791-12.794,11.32L748.48,729.6l-3.837,2.991L756.1,748.347l13.8,2.962,6.116,8.942L812.029,772.4l7.44,4.578,14.325,10.1,18.732,11.733,9.939-65.928-2.962-5.048-9.263-6.564L852.119,698l7.846-31.355,6.97-12.544-1.488-5.454,11.89-30.109,20.077-38.125,8.159-7.689,10.637-23.11,21.052-25.474,34.516-35.5-6.991-5.255L948.17,459.626l-5.033-2.2-5.56.221-6.593,5.226-8.458.5-7.661-3.446,0.306-5.632-3.253-4.436-13.769-1.032-2.556,4.976-2.727.7-7.689-3.339-6.813-4.9-5.575.74Z" transform="translate(-30.933 -280.465)" fill="#ff8080" stroke="#000" stroke-width="2"/><path d="M191.115,580.309l3.111,14.047-3.624,3.118,4.307,3.076,3.724,6.956-1.146,2.393-10.252-.192-2.314,4.436,3.311,10.1,4.969,2.172,4.236-2.293,8.992,6.009,2.136,3.645,3.809,6.593-0.164,5.354L202.4,658.583l9.619,3.7,1.2,7.426-2.221,5.034,1.509,16.5,3.453,4.129,8.031,1.588-4.706,6.187-5.176.569-5.575-5.9-10.722-1.238-6.272,2.407,0.491,2.641-9.668,3.183-1.452,10.665,28.343,7.91,5.3,15.77-4.485,27.5,1.894,5.226-15.008,7.831-7.924,3.866-35.156,3.3-7.953.321-0.527,5.268,0.335,5.311-9.327,9.953-0.47,5.467,6.215,4.8,15.684,5.005,1.694,5.148,1.872,1.695,16.638,21.473-4.016,3.417-7.746,1.652-0.32,2.627,2.428,4.9,10.181,3.4,1.046,3.517,7.3,3.894,4.008,7.034,24.926,2.364,4.286-.947,3.183,1.987,9.8-5.34,6.529-1.211,2.52-4.407,5.439-.484,8.6-6.649,16.233,3.14,0.854-.335,1.929,12.694,6.657,4.073L289.9,892.6l15.528,10.138,0.7,5.24,4.229,3.767,8.415,0.584,5.39,6.622,3.111,8.023-5.311,9.847-0.427,5.66,6.08,8.971,0.036,0.349,0.043,3.047,9.775-2.364-0.121-6.009,16.033-11,15.592-6.087,7.4-15.172,4.713-3.168,0.149-5.7,6.45,5.034,7.988,1.865,20.526-6.13,12.338-12.182,7.547-4.243,1.075-8.551L435,872.777l-0.662-.933-1.182-6.258,1.111-5.034-5.475-8.828,0.541-5.326-0.178-17.037-5.454-.919L421.747,814.8l-5.9-5.7,1.894-7.789,6.678-4.55,21.031-4.642,6.856-1.751,11.6,3.794,33.583,5.268,3.246-.89,23.146-9.8,5.041,0.513,3.916,3.588,1.994,1.922,24.242-1.943,8.351,1.766,16.76,5.589,23.2,2.057,15.7-2.2,0.47,0.085,10.224,4.905,27.475-3.047,10.11-4.727,6.173-9.555,4.592-17.856L697.4,752.428l13.9-3.325-8.707-11.861-19.038-7.575-4.592-7.383-13.335-5.574-4.478-10.594-8.024,14.709-13.278-4.258-2.755-4.9-2.9-4.657,0.42-10.858L624.363,679.68l12.766,6.664,2.876-.085,5.8-6.393-6.8-5.489-2.186-8.315,2.527-8.4,9.426-14.866-5.411-12.9,1.068-5.589-2.293-8.188-14.987-6.372,5.781-12.986-2.99-7.91,6.13-5.866-9.412-6.343-2.421-4.976L609.326,564l0.192-2.784-11.263-7.8,2.99-4.684-0.7-5.368-6.735.683-37.5-13.876-0.377-.085-9.64.484-1.872,5.354-15.15-6.664-3.154,4.564-5.575-.8-6.18,21.3-7.618-3.489-5.475,1.139L490.642,548.6l-4.6,15.158,1.068,7.312-9.562-2.364-9.747-9.334,3.232-10.209-1.011-5.076-0.627-.178-28.279-4.464-0.036.263,1.887,1.922-0.6,5.354-6.642,6.928,5.126,6.1-6.429,3.631-14.538-6.7-7.874.876-3.937,7.133-3.581-.975,1.3-4.521-1.787-4.322,2.051-5.326L398.3,537.6l-11-1.338,3.659-3.517,0.164-5.24,7.525-2.043,1.659-7.952,5.774,2.057,2.442-5.148,7.753-2.278,0.078-3.517,6.479-4.115-2.841-3.866,7.469-7.775-3.033-7.048-8.529-9.484-6.237-.641-2.826-.235-18.86-12.637,2.535-5.382,3.674-4.243,5.468,1.125,1.8-2.157,0.448-16.746,10.423,3.723,10.53-2.77-0.128-7.4,10.025,0.933-6.678-9.234-2.712-13.862-4.4-3.738-14.14-.819L398,396.946l-4.3-3.752,0.456-2.833-4.6-7.262-0.235-8.494,5.667,6.216,8.408-1,1.481-14.182-1.866-5.19-2.271-5.148,0.413-11.1-10.815-13.072-2.413-7.59,9.248-6.3-0.7-8.344-4.841-10.167L381.6,288.978l-4.307-6.009-0.976,5.411-9.291,9.12-1.2,2.449-10.2,9.569,0.513,8.75,3.624,7.91-8.664,21.373-17.073-10.167-9.925-17.493-8.5.776-10.921,9.319-2.869.114-3.951,3.66-8.01.392-1.652,2.1-1.374,1.445-8.273-1.445-2.079,1.922-3.624-3.489-7.81,1.987-3.332-7.561,1.609-2.264-5.176-6.357-5.041-12.637-14.481-5.489,5.61,9.512-0.684,2.755-5.148,2.143-4.763-2.976-5.033,6.8-13.164,4.7-10.993-8.173-4.094,3.353-1.324-6.315-3.382-2.378L189.2,316.12l-7.86-2.833-8.06,2.364-0.555,5.467-5.482,9.469,2.043,1.922-2.371,2.8-4.3,2.812-4.856-2.128,3.966-10.1-2.72-4.642-14.317-13.307-0.634-5.589-9.968-5.425-8.166,9.092,2.342,3.866-1.4,4.421-2.506,4.884-8.237-.833-5.753,5.909L109.91,329.7l3.1,4.464,2.727,3.432-13.057,2.542,2.634,7.675-2.919,4.934,0.591,14.3,6.429,9.277-1.331,5.518-9.989.776-7.276-3.823-5.091,2.172-2.57,4.642L69.214,375.2l-1.63,4.976-6.721,4.813-7.575-3.183,3.147,4.713-1.046,2.641-1.189,2.52,6.977,11.349-5.119,2.043-14.2,8.942,6.365,4.756-4.77,9.192L40.2,431.579l-2.741,4.7-5.041,2.072,7.625,12.082L39.6,461.638l9.562,14.239,4.734,3.268-1.858,2.043,2.285,7.867L45.5,499.514,45.25,507.73l1.3,2.627,8.536-.712,8.309,2.812,9.22,11.1,14.9,8.772L90,537.32l10.679-2.214,12.245,6.649,2.876,2.755,13.421-1.374-1.566-7.618,3.731-3.382,2.954,13.249,10.679,1.637,3.724-4.058-0.029,14.09,5.753,5.866,1.552,5.255,7.113-11.641,7.183-1.88,6.728,3.254,0.356,4.407,10.33,1.517L191.621,573Z" transform="translate(-30.933 -280.465)" fill="#ff8080" stroke="#000" stroke-width="2"/><text transform="translate(425.587 215.236)" font-size="156.622" font-family="DejaVu Sans" font-weight="700">1</text><text transform="translate(746.891 334.894)" font-size="156.622" font-family="DejaVu Sans" font-weight="700">2</text><text transform="translate(267.516 451.407)" font-size="156.622" font-family="DejaVu Sans" font-weight="700">3</text></svg>