<svg xmlns="http://www.w3.org/2000/svg" width="918.891" height="965.658" viewBox="0 0 918.891 965.658"><title>Députés sortants de la Haute-Garonne en 2017</title><path d="M740.671,189.215L730.565,185.9l1.952,1.6-0.5,7.545-11.381-.195-1.153,4.976,2.77,7.135-14.009-7.967-7.122,3.065-9.483-9.664,0.469-2.683-13.245-6.183-2.917,10.844,2.092,1.582-3.534,6.9,1.643,4.976-4.346,9.355-1.784,4.151-5.754,3.065-5.506,3.561,2.374,4.795,12.789,3.313-5.184.919L663,242.461l-7.4-2.6-6.317,3.561-7.82-7.364-8.369,6.954-5.2,5.566,2.743,16.048-5.191.288-4.513-1.857-6.565,2.133-2.475-5.727-2.7-2.528-2.662.04-3.581-.63-0.121-7.5,1.14-5.5-0.67-1.536,0.731-1.307,0.1-8.644,2.354,0.4-0.248-3.534,5.392-.7,4.372-6.773,0.147-2.635,7.538-2.488,1.5-7.437-8.269-5.895-1.341.181,1.308-5.748-2.709-4.674-10.77-8.329-0.63-2.669,2.374-1.321,3.789-3.246,2.535-7.229,1.75-2.046,7.8,1.442,2.2,1.523,8.43-6.445,4.909,0.59,3.373-3.876-0.832-7.377,3.8-6.719-3.159-10.992-2.716-4.769,0.04-5.486,14.419-19.461,2.408-.979,5.452,5.425,5.17,0.3,2.4-.429,7.451-9.677,6.773,2.421,8.161-5.3,21.044,12.152,11,1.221,2.139,4.909-3.688,9.731,0.55,2.635,4.835,1.992,2.408,7.089L724.342,149.7l4.057,2.736,1.442,4.674,11.24,5.084,5.318,5.748,2.414-.979,7.652,10.623-2.374,4.647-5.345.248Z" transform="translate(-33.687 -14.541)" fill="#ff8080" stroke="#000" stroke-width="2"/><path d="M691.635,192.4l0.469-2.683-13.245-6.183-2.917,10.844,2.092,1.582-3.534,6.9,1.643,4.976-4.346,9.355-1.784,4.151-5.754,3.065-5.506,3.561,2.374,4.795,12.789,3.313-5.184.919L663,242.469l-7.4-2.6-6.317,3.561-7.82-7.364-8.369,6.954-5.2,5.566,2.743,16.048-12.494,5.446-0.081,3.507-6.29-1.281-0.422-3.46-3.682-.107-4.674,1.207-4.8,10.978,12.453,0.959,5.935-3.105,8.745,24.733,10.314,2.16,6.753-3.172,4.439-7.008-0.677-8.3,13.52-1.334,13.48,8.893L676.353,295l2.079-6.786,9.758-3.876,6.538,4.7,0.771,4.835,7.323,2.119-0.979-7.075,4.715-8.826,5.1-6,2.307-7.5,4.439-2.736,4.97,1.817,7.826-1.321,9.5,4.245-2.911-7.391-4.057-3.393,1.147-7.4,4.614,1.321,6.358-6.827,2.226-7.256,6.324-8.477,12.266-4.795,2.582-.63,0.952-5.184-5.761-8.671,0.181-10.4-32.566-4.507-11.381-.195-1.153,4.99,2.77,7.122-14.009-7.967L701.158,202Z" transform="translate(-33.687 -14.541)" fill="#06c" stroke="#000" stroke-width="2"/><path d="M524.214,111.61L514.4,114.4l-2.2-4.245-6.31,2.381,1.663,5.124,4.332,2.515-1.75,2.072-35.094,14.291-1.549-2.24-1.717-4.949,6.23-5.057-1.261-5.164-18.569-2.984-4.473-8.162-7.041-3.494-3.212-7.5-7.276-3.145-1.314,5.291-9.516,5.11-6,8.973-0.751,9.087,3.487,9.919-2.247,1.6-0.1,5.459,6.4,4.782,6.894,2.971,0.523,17.839-12.085,6.076-3.413,19.709,3.843,0.784,5.17-.51,2.28,1.261-0.563,2.555,9.7,1.811,4.426,6.036,6.619,3.487,4.741,8.618,4.238,2.334,10.8-7.31,3.749-6.565,1.462-3.38L477.976,207l0.59,15.82,4.654,2.635,0.214,2.656,5.15,1.388,18.093-12.957,2.971-4.507,14.834-7.49-0.677-8.215,6.163,12.313,0.637,8.276,12.266-3.494,7.967,6.679,7.518-.315,0.376-1.569-4.942-11.253,7.987,5.513,5.466-3.97,4.855-1.536,2.1,9.248,7.6,0.5,6.766-.154,3.219,3.863,7.592,2.374,0.268-5.332,4.775-2.334,1.757,13.553,5.392-.7,4.372-6.773,0.147-2.635,7.538-2.488,1.489-7.437-8.262-5.895-1.341.181,1.308-5.748-2.709-4.674-10.77-8.329-0.63-2.656,2.374-1.334,3.789-3.246,2.528-7.229,1.757-2.046,7.8,1.442,2.193,1.523,8.436-6.445,4.909,0.6,3.373-3.889-0.832-7.377,3.8-6.719-3.159-10.992-2.716-4.769,0.04-5.486L651.411,106.1l2.408-.979,5.452,5.439,5.17,0.288,2.4-.429,7.444-9.677,6.78,2.421,8.161-5.3,2.609-20.514-1.1-.342-10.63-4.137-9.979-15.558,0.141-1.844,4.956-.825-4.332-3.092,1.71-4.889L667.666,40.4l-1.824-7.779,4.614-14.72-12.44-2.2-1.5,7.558-4.466,6.3-4.634-1.871-0.557,4.949-10.012,8.8-2.7-.141L631.761,30.98l-6.1-5.15L621.6,34.38l-6.646,8.866L609.664,55.86l-0.677-2.515-9.556,3.212-7.337-1.912-5.425-8.671-5.063-1.267-4.963,2.2-14.727-6.263-5.285,5.566,0.154,5.11-3.936,3.286L559.8,65.544l-1.5,4.426-13.433.979-9.053-5.4-11.32,5.828L521.229,75.4l5.251,1.334,6.512,8.524,9.8-3.447,12.99,0.838,3.206,15.183-7.048,1.153-2.455,4.124-9.717,1.6-8.363,6.063-5.553.409Z" transform="translate(-33.687 -14.541)" fill="#ff8080" stroke="#000" stroke-width="2"/><path d="M407.022,218.427L396.4,220.533l-7.015-7.45-2.568.248-0.684-2.361-4.453-1.717L383,207.181l0.5-5.03,3.809-3.313,0.57-5,3.293-3.681-5.459-3.561-8.765-5.841-7.618,1.374-1.73-2.032-2.213-4.9,1.683-2.092-6.525-4.6-14.855-12.728,3.568-.054-10.012-12.145-4.889-.221,2.186-1.429-6.157-8.242L327.466,121.4l1.194-1.536,4.56-.369,4.319,2.528,6.2-3.065,2.9-4.051,7.276-2.187,20.769-3.681,4.681,2.763,8.061,0.731,13.111-13.318,0.67-.7,7.873,6.471,4.99,1.167,1.261,2.254-1.71,1.9,3.347,3.836,2.367-.973-0.758,9.08,3.494,9.925-2.247,1.582-0.1,5.473,6.4,4.782,6.894,2.971,0.523,17.839-12.085,6.063L418.048,190.6l3.843,0.784,5.17-.51,2.28,1.261-0.563,2.555,9.7,1.811,4.426,6.036,6.619,3.494,4.741,8.6,4.238,2.334,10.8-7.31,3.749-6.565,1.462-3.38,3.454,7.229,0.59,15.833,4.654,2.622,0.214,2.669,5.15,1.374,12.708,2.649,7.317-2.461,4.788,1.992,3.735,6.8L529.3,243.5l2.455-.67,5.727,5.043,14.2-5.17,10.965,6.626-6.143,5.439-2.16,10.79,6.223,5.358-0.5,4.862L567,279.063l-5.579,6.116,0.8,7.625-3.635,7.6-2.7,3.9-12.561-4.547-2.253,1.469-7.021,3.641L531.082,317.6l-0.342,1.294-2.709,4.2-4.587-1.677-4.6,5.881-2.891,5.446-7.511,2.582-13.184-2.635-2.34,10.73-7.4,7.914,13.319,2.9,11.542,7.437-2.24,4.48-4.929,1.536-20.018-4.547,0.7-12.984-7.122,3.614-7.793-.905-3.755,3.8,0.852,2-3.5,2.381-2.206,4.574,5.285,5.2-2.891,12.6,1.636,2-2.736,6.063-7.766-2.361-7.813,2.24-5.915,3.212-1.368-2.059-7.337-.328-2.448-4.232,1.314-4.835-3.749-6.572-17.8-2.32-8.168-6.391-2.669.744-22.821-9.549-2.133-.979,10.053-1.817,4.527-11.79,7.732-.221L383.9,333.3l1.288-5.17,7.477,0.992,4.621-2.6-5.137-6.076-9.6-5.017,5.164,1.334,8.7-5.566,5.3-.054,4.144,3.132,3.212,7.283,4.889-2.937,7.169-6.76-3.48-8.792,7.451,1.771,17.765-1.83,4.279-11.9-1.542-2.032,7.089,2.958,7.484-1.442,7.169,2.683,0.543-21-6.76-7.685-4.312-6.666-5.405,5.673-7.276,1.348-9.147-12.708,2.347-11.24-4.674-4.909-4.52-.657-4.077,2.683-4.875-.416,0.335,2.395-14.4-5.881,0.208-4.922,6.17-7.973Z" transform="translate(-33.687 -14.541)" fill="#ff8080" stroke="#000" stroke-width="2"/><path d="M624.949,428.822l2.247-10.24-1.516-3.8-1.288-2.24L626.518,411l7.3,3.011,1.629-2.072,2.388-12.889-2.656-4.574-11.508-4.6L626,385.427l-1.677-4.4-5.191,5.948-9.543,4.151-12.212-1.388-0.778-1.912-3.044,2.086-12.373,1.348,2.079,7.048,1.589,8.028,5.412,9.469-0.476,5.446-2.81,7.477-12,6-10.059-12.547-6.646-3.641L546.124,422.2l-1.106-2.488-7.323-2.267,0.677-2.635,2.81-4.62,15.7-14.8,2.374-7.7,6.733-8.014,1.221-4.822-5.238,1.388-5.969-5.8-6.928.134,1.831-4.889-1.281-7.793,1.958-1.992-4.963-1.771-4.963,1.884,1.864-13.593L547.7,334.7l17.758-5.439,2.112,1.7,1.106-2.072-2.864-8.162-3.883-6.994,1.556-5.164,3.467-3.273-8.363-4.849-2.7,3.916-12.561-4.547-2.253,1.456-7.021,3.641-2.964,12.728-0.342,1.307-2.709,4.2-4.587-1.677-4.6,5.881L515.96,332.8l-7.511,2.6-13.184-2.635-2.334,10.717-7.4,7.927,13.319,2.9,11.542,7.437-2.24,4.48-4.929,1.536L483.2,363.19l0.7-12.97-7.122,3.614-7.793-.919-3.755,3.809,0.852,1.992-3.5,2.381-2.206,4.587,5.285,5.184-2.891,12.614,1.636,2-2.736,6.063,7.122,7.545-5.727,12.078,2.166,7.625-2.166,4.922,15.129,7.256-5.908,5.043,1.241,7.4-21.252,14.955-3.494,7.062-7.471.261-3.816-3.286-7.008,6.5-2.334,6.706,7.712-.718,15.981,8.738-7.317,2.119-3.353,3.836,7.357-.563,10.341,6.418,2.193,7.31-3.648,7.075-8.725,6.954-7.967,16.477-2.589.067-1.67-4.909-2.488-.684-6.74,3.749-9.523-9.905-15.559,20.079,7.7,10.763,14.452,6.525,5.861,2.884-0.55,4.849-7.162,2.461-2.267,7.2-4.828,1.523-3.487,1.811,0.214,12.561,1.609,9.315,9.51-3.655,10.14,2.2,1.381-9.154,9.536-.154,3,9.576L449.5,601.6l0.094,5.124,4.735,0.878,3.769,9.053-5.848,3.487-1.127,4.755,2.374,4.245,13.345,12.145,7.048,8.068,1.4,4.574-1.549,1.817,7.464,16.37,12.494-1.677,9.328-2.79L502.388,654.9l10.368-1.784,1.6-2.119,4.808-8.162,7.149,0.67-14.834-15.156-1.609-5-10.535.355-10.16-1.6-7.887-1.623-3.742-3.521-0.141-5.238,6.163-8.383,1.482-10.455L493,591.59l2.917,4.48,2.206-.382,8.5-5.459-1.019-.55,5.861-3.185,11.206,4.9,5.378-4.4,5.07,3.836,4.433-.758,4.118-4.728-1.019-5.895,16.444-6.6,7.712,1.817,5.559-9.114,1.308-6.954-4.191-5.8-1.053-4.889-4.46,2.24-7.209-2.046-2.434,1.18-6.606-4.111L535.29,543l6.565-4.742,0.3-2.683-20.729-3.353L525.478,526l-4.956-12.131,5.15,0.63,3.38-7.175,5.231-.51,4.158-9.4,4.178-3.473,8.094-1.294,15.693,4.178-4.178,3.246,7.759,13.426,12.9,8.8,0.463,0.838,13.272,16.256-5.083,22.936,8.215,6.538,5.848,1.771,5.848,2.857,9.51,2.086,3.849-5.814,1.8-5.03,4.775-2.395,9.671,4.332-0.067-3.065,0.007-5.2-6.532-4.164,6.881-9.919-3.9-4.024-3.836-1.784,0.973-4.6-2.26-4.561,3.621-6.485,0.684-12.433,5.915,4.359,2.87-4.111L647.545,512l0.265,4.949,1,9.992,13.734-3.487-0.027.771,2.106-1.334,1.744,1.811,4.909,8.752,4.768,6.21,2.119-1.536,1.985-4.862-1.355-7.585,4.889-1.469-0.8-7.558,6.009-11.461L693,502.022l4.272,3.092,2.461-1.033,1.086-2.435-3.561-6.927,13.064-13L701.111,473,681.8,451.84l-6.7,1.83-2.924,9.643-4.567,5.66,1.589,2-5.077,1.18-7.162-3.876-5.191,1.609-2.313-1.429-6.163-8.517,7.685-1.542,3.642-3.769-4.9-6.036-14.74-7.229-5.311-9.65Z" transform="translate(-33.687 -14.541)" fill="#ff8080" stroke="#000" stroke-width="2"/><path d="M312.511,765.067l-8.564,5.687-21.507,1.267,5.975,17.175-4.218,6.156-7.5.3-4.366,2.669-7.652-.919-1.71,1.952-8.014,5.58,4.312,11.448,3.9,3.521,1.026,5.184-4.346,12.44,2.381,4.715,5,1.7,1.629,9.811,5.023,11.213-0.905,9.784L259.8,872.763l-19.213-9.5-12.661,3.38-22.5-9.416-5.351-5.814-12.554-4.4-9.436,4.795-7.953.107,0.456,5.332-9.194,5.553-1.965,4.6,1.69,5.1,4.285,3.2-2.756,7.283,2.977,8.973-5.687,4.057-4.4,8.343-4.419,3.548,11.206,6.458-12.729,15.5,10.267,2.059,5.854,15.156,3.595,4.084-0.785,7.86,3.1,7.49-4.151,12.6-29.413-3.38-14.191-7.639-1.616.973-3.36,7.048-33.276-5.788-1.844.08-5.781,8.463-13.07-1.1-8.859-5.345L59.1,968.14l-0.765-5.07L40.989,946.7l6.17-4.7-0.322-5.3,1.086-10.442L43.2,917.374l0.456-7.49,3.427-6.847,0.657-.577,0.161-9.523-2.039-2.019-2.1-9.8,1.5-4.889,3.038-12.494,1.918-5.278-4.138-3.889,7.1-5.868-0.456-7.712,3.125-7.021,12.5,2.87,2.7,4.493,2.616-.3,9.65,1.261,4.909,4.9,7.4-2.622,3.936,3.507,4.728-.51,7.746-7.833,0.979-4.574,1.086-4.862,3.474-8.866,3.776-11.038,1.817-1.194,1.2-6.2,1.489-7.779,3.112-4.647,5.539-2.187,6.418-3.916,6.163-8.4,2.6-.195,2.267-6.586-1.381-1.871-4.091-3.641-0.456-.409-8.792-2.723-3.548-7.464,1.187-1.8-2.589-3.092,7.41-1.965,1.677-6.954-1.348-2.019-5.3-6.84,0.429-7.283-0.469-.865-4.332-9.731-8.456-1.126-0.335,7.35-0.456,2.857-3.474-.825-0.557,2.488-9.858-.409-3.494,3.641L94.9,736.24l-2.186,2.119L88.4,737.166l-4.279-4.976,4.446-6.378,0.2-15.545,2.783-4.124,4.782-1.281,8.161,5.895L106.88,710l-0.791-2.7L102.3,690.142l-2.213-1.086,3.843-6.324,1.227-1.469-18.046-7.7,0.255-7.612L81.5,666.959l-10.126-2.173-2.582-9.362-5.05-1.033-1.093-5.07-14.016,3-6.726-.959,6.237-4.876-5.177-5.908-7.082-3.548-0.362-.054,8.41-10.831,1.777-3.212L68.352,603.2,80.53,588.3l-8.5-5.043,6.619-9.919,9.362,3.38,6.371-3.9,3.93,3.051,10.475-6.418,1.489-12.326-12.46-2.267,9.027-12.755,5.251-.657,0.409-4.312,11.447-11.6,10.147-3.42,0.416-2.119,2.059-7.725,7.853-1.938,1.73-4.889-16.491-9.208,2.763-3.749,18.583,2.569,6.847-3.93,10.522-9.482,0.342-2.187,10.455-15.719,2.864-5.372,0.8-1.509,1.677-2.649,7.035-11.307,9.235,5.251,7.269-7.518,4.191-6.5-2.481-4.728,1.529-2.187,2.837-4.574,1.194-2.395-2.864-7.377,10.489,0.275,21.031,13.412,0.2-.355,3.588-9.69,3.755-3.494,13.6,5.566,7.216-3.6,2.468,0.905,1.737-1.965,3.99,3.42,5.2,0.67,2.9,0.469,9.456,3.722,1.415-1.992,7.149,1.18,0.081,2.488,4.614,1.744,1.026,4.6,9.691,11.133,1.489-3.407,9.483-1.126,3,7.116-1.308,5.03,7.994,6.378,7.484-2.723,0.973-6.25,4.285-1.857,1.241-2.448-3.494-3.46,1.536-5.2-4.372-12.742,5.915-5.164,10.535,1.677,3.313-6.847-4.306-6.418-1.227-1.6,1.851-4.137,5.747-4.137,0.925-4.755,0.637-4.849,2.334,0.731-0.979-2.133,3.9-2.569-1.449-1.83-13.761-10.032,2.636-4.4,8.752-5,22.821,9.549,2.669-.744,8.175,6.391,17.792,2.32,3.749,6.572-1.314,4.849,2.448,4.218,7.337,0.328,1.368,2.059,5.915-3.212,7.813-2.24,7.766,2.361,7.122,7.545-5.727,12.078,2.173,7.639-2.173,4.909,15.129,7.256-5.908,5.043,1.241,7.4-21.252,14.955-3.494,7.062-7.471.275-3.816-3.286-7.008,6.485-2.334,6.706,7.712-.718,15.981,8.752-7.317,2.106-3.353,3.849,7.357-.577,10.341,6.418,2.193,7.31-3.642,7.075-8.732,6.954L440.8,533.38l-2.582.067-1.677-4.909-2.481-.67-6.74,3.735-9.53-9.905-15.559,20.079,7.7,10.763,14.452,6.538,5.861,2.87-0.55,4.849-7.156,2.461-2.273,7.2-4.828,1.523-3.487,1.817,0.214,12.561,1.609,9.3,9.51-3.655,10.147,2.2,1.375-9.154,9.543-.154,2.991,9.576,2.233,1.248,0.094,5.124,4.735,0.865,3.769,9.067-5.848,3.487-1.127,4.755,2.374,4.232-4.265,7.021-2.729.054-9.617-5.17L424.541,616.8l-6.847,6.639-2.052,3.259-9.7,1.65-1.985,6.485-14.271-3.782-5.358-5.291-0.966,1.207-1.972,4.507,2.226,4.057-0.838,10.24L375.592,661l-7.249-1.429-9.12-8.852-4.9-.63,1.636,6.813-4.252,5.774-2.394.12-0.241,5.345,7.585,7.464-3.044,3.983-4.138,3.38-8.028-.657,4.164,8.229-1.04,7.35,2.957,4.051,2.455-.429,0.63,6.679-0.7.235-4.956-4.151,2.622,16.753,4.426-.456,6.344,4.071,3.159,6.813,5.077-.134-9.61,3.2-5.949,11.89-9.12,12.769-8.208,2.83-15.17,4.024Z" transform="translate(-33.687 -14.541)" fill="#ff8080" stroke="#000" stroke-width="2"/><path d="M598.231,311.577l0.262,9.979-3.112,9.59,1.113,2.381,5.13,1.126-2.173,6.733-7.538-.12-2.609-4.218-9.255,5.358,7.9,10.321,1.12,2.072-3.849,5.358,1.65,1.65,6.049,8.591-2.468,9.744,3.119,9.757L581.2,391.232l2.079,7.048,1.589,8.028,5.412,9.469-0.476,5.446-2.81,7.49-12,6-10.059-12.561-6.646-3.628-12.152,3.641-1.106-2.475-7.323-2.28,0.677-2.635,2.81-4.62L556.9,395.371l2.367-7.712,6.733-8,1.214-4.835-5.231,1.4-5.969-5.8-6.928.12,1.831-4.889-1.281-7.793,1.958-1.979-4.963-1.771L541.671,356l1.864-13.607,4.178-7.712,17.758-5.446,2.112,1.7,1.106-2.059-2.857-8.162-3.89-6.994,1.556-5.17,10.059,9.053,24.625-36.649,12.453,0.946,5.935-3.092,8.745,24.733,10.314,2.16,4.306,8.095-18.925,9.362-2.642-.536-1.562-.536Z" transform="translate(-33.687 -14.541)" fill="#ff8080" stroke="#000" stroke-width="2"/><path d="M838.69,309.116l-0.711-14.432L832.1,286.55l-9.959-2.609-8.839,1.442-4.259-2.5-3.179-.811-11.7-6.9-0.67-5.412-4.265-3.433-0.986,1.4-9.791-1.307-0.168-.7-2.273-1.261-8.242-4.332-1.844-4.151-7.041-3.34-7.162.563-5.9-8.215-6.358,6.813-4.614-1.321-1.147,7.4,4.057,3.393,2.911,7.391-9.5-4.245-7.826,1.321-4.97-1.811-4.446,2.723-2.3,7.5-5.1,6.009-4.715,8.812,0.979,7.075-7.323-2.119-0.771-4.835-6.538-4.7-9.758,3.876-2.079,6.786-3.206-.248-13.48-8.893-13.52,1.334,0.677,8.3-4.439,7.021-6.753,3.158,4.3,8.108-18.918,9.355-2.649-.536-1.556-.523-11.857-7.116-6.766-3.433,0.329,9.992-3.112,9.6,1.113,2.374,5.123,1.14-2.166,6.733-7.538-.12-2.609-4.232-9.255,5.372,7.9,10.321,1.113,2.059-3.843,5.358,1.65,1.65,6.049,8.6-2.475,9.744,3.125,9.744,3.038-2.086,0.785,1.912,12.212,1.388,9.543-4.151,5.191-5.948,1.677,4.4-2.334,4.453,11.508,4.6,2.656,4.574-2.388,12.889-1.629,2.072-7.3-3.011-2.126,1.542,1.288,2.24,1.516,3.8-2.247,10.24,4.735,2.843,5.311,9.643,14.74,7.242,4.9,6.036-3.642,3.769-7.685,1.542,6.163,8.5,2.313,1.442,5.184-1.609,7.169,3.863,5.07-1.167-1.583-2,4.567-5.66,2.917-9.65,6.7-1.817,19.321,21.165,9.208,8.711-13.057,13,3.561,6.941-1.086,2.435-2.461,1.033L693.035,502l-4.118,3.172-6.009,11.461,0.8,7.558,2.139,4.889,10.462,2.086,3.011,4.386,17.631,5.17-1.18,13.232,5.311-.369,6.21-5.124,0.289-5.372-2.944-6.927,13.111-16.846L746.2,525.4l4.748-1.952,2.582-4.426,3.065-3.393,4.493-8.658-6-4.493,13.385-8.423,4.822-1.912-6.572-10.69,1.12-2.381,0.986-2.475-2.964-4.439,7.136,3,6.33-4.534,1.536-4.687L794,475.724l2.414-4.359,4.8-2.046,6.854,3.588,9.409-.718,1.254-5.211-6.056-8.725-0.557-13.467,2.743-4.66-2.475-7.229,12.3-2.381-2.568-3.233-2.924-4.2,0.436-5.11,5.419-5.566,7.759,0.784,2.361-4.614,1.314-4.164-2.206-3.641,7.685-8.551,9.4,5.1,0.6,5.265,13.48,12.547L868,419.486,864.264,429l4.574,2,4.051-2.649,2.233-2.622-1.925-1.817,5.164-8.919,0.523-5.15,7.592-2.227,7.4,2.669,6.062-4.071,3.185,2.24,1.247,5.935,3.856-3.145,10.354,7.685,12.4-4.426,4.741-6.391,4.487,2.8,4.849-2.019,0.644-2.6-5.285-8.96-3.856-7.2-4.252-2.71,2.521-16.122,3.272-4.286,8.028-1.636,5.191-6.391-2.575-3.655,2.455-6.223-3.179-9.925-2.045,7.135-2.26,1.334-5.727-5.15-4.9-1.884-2.2,1.442,1.509,15.793-1.429,2.294L929.4,362.38l-12.829,1.884-5.714-5.8-12.1-6.022-2.039,2.843L878.507,343.73l-1.992,2.884-15.787-11.568-0.959-.59-7.92-12.782-0.416-2.569,4.171-3.025-9.221-3.735Z" transform="translate(-33.687 -14.541)" fill="#ff8080" stroke="#000" stroke-width="2"/><path d="M553.726,206.567l8.091,5.6,5.542-4.028,4.907-1.552,2.136,9.363,7.683,0.5,6.85-.152,3.269,3.911,7.681,2.4,0.273-5.392,4.834-2.366,1.775,13.735,0.252,3.572-2.376-.392-0.1,8.759-0.743,1.323,0.67,1.553-1.15,5.581,0.116,7.6,3.627,0.629,2.7-.032,2.741,2.561,2.508,5.787-5.237.137-6.867.077-5.183,1.164-9.208-4.092-5.15,2.742L581,268.067l-0.581,4.041-7.991-.132-10.669-4.489-7.483-1.556,2.19-10.937,6.223-5.5-11.1-6.714-14.375,5.247-5.788-5.114-2.495.686L516.6,238.459l-3.776-6.887-4.851-2.013-7.4,2.489-12.865-2.671,18.319-13.106,3.02-4.567,15.017-7.58-0.681-8.318,6.236,12.471,0.644,8.388,12.418-3.555,8.062,6.76,7.613-.318,0.376-1.581Z" transform="translate(-33.687 -14.541)" fill="#ff8080" stroke="#000" stroke-width="2"/><path d="M563.585,309.038l3.494-3.318-8.467-4.891,3.678-7.7-0.811-7.712,5.655-6.187-7.022-3.334,0.506-4.913-6.294-5.421,7.483,1.556,10.666,4.489,7.994,0.132,0.579-4.041,2.373-2.514,5.147-2.744,9.211,4.092,5.181-1.164,12.1-.211,6.656-2.168,4.565,1.889,5.263-.292-12.655,5.525-0.077,3.556-6.372-1.3-0.427-3.507-3.729-.1-4.731,1.228L598.692,281.1l-24.923,37.11Z" transform="translate(-33.687 -14.541)" fill="#ff8080" stroke="#000" stroke-width="2"/><text transform="translate(165.487 643.377)" font-size="147.529" font-family="DejaVu Sans" font-weight="700">8</text><text transform="translate(447.88 477.339)" font-size="96.871" font-family="DejaVu Sans" font-weight="700">7</text><text transform="translate(605.669 412.863)" font-size="147.529" font-family="DejaVu Sans" font-weight="700">10</text><text transform="translate(647.263 248.677)" font-size="72.621" font-family="DejaVu Sans" font-weight="700">3</text><text transform="translate(520.638 352.502)" font-size="42.776" font-family="DejaVu Sans" font-weight="700">9</text><text transform="translate(628.821 159.832)" font-size="72.621" font-family="DejaVu Sans" font-weight="700">2</text><text transform="translate(496.403 181.263)" font-size="109.89" font-family="DejaVu Sans" font-weight="700">5</text><text transform="translate(433.718 307.277)" font-size="109.89" font-family="DejaVu Sans" font-weight="700">6</text><text transform="translate(529.241 242.064)" font-size="42.776" font-family="DejaVu Sans" font-weight="700">1</text><text transform="translate(531.29 287.39)" font-size="33.365" font-family="DejaVu Sans" font-weight="700">4</text></svg>