<svg xmlns="http://www.w3.org/2000/svg" width="962.121" height="926.144" viewBox="0 0 962.121 926.144"><title>Députés sortants du Lot en 2017</title><path d="M293.724,957.938l-5.623-4.759-7.442.9-6.312-3.3-10.336,2.563-16.979-7.662,3.5-5.614-1.084-13.1,14.489-11.43-5.127-12.67,5.944-21.352-3.161-.9-13.5,5.366-7.809,8.131-11.218-.377-2.352-2.94L222.923,908.2l-4.915,4.024-4.851-9.657-9.969-4.52-3.657.34-6.1,8.508-7.36-12.6-3.087,1.792-11.669-6.514-5.43-8.756,1.194-17.172-7.754,7.139-7.378-6.422-6.4,2.766-9.73-8.683-6.587-1.792-5.981,1.452-1.957-2.674-8.508-7.194,3.253-14.085-7.35-8.4-6.229-4.07-7.277.037L90.71,815.82l6.183-3.914,3.785-10.695,7.369,0.882,13.984-5.761,7.479,0.092,2.738-2.508-1.516-21.233-23.539,2.169L92.07,786.125l-14.737,3.353-3.519-13.552-6.57-1.488,8.223-10.548L72.2,735.739,64.138,732.1l-1.7-3.261-10.805,1,0.055-7.038-7.47-7.754L43.677,704.5l3.161-10.263-1.58-10.732-10.915-5.063,4.392-10.676,1.3-15.215L12.88,607.946l9.087-5.457,10.474,1.976,5.154,12.578,15.729-19.956,6.386-3.519,0.643-.413,1.691-3.335,20.719-7.286,3.253-10.64,0.919,3.537,10.235,3.638,10.768-1.057-2.894-9.1,3.1-1-5.705-13.331,8.775-11.88,15.536-14.067L145.184,511l1.727-7.461-5.164-14.461,2.582-2.407-2.416-17.319L153.1,466.96l4.621-6.174,10.612-4.5,34.344-1.727,0.128-1.58,4.125-5.99,10.116-3.822,1.332-11.108L231.6,426.1l6.633-13.1,13.258,8.379,8.986-15.343L261.8,388.6l12.385,4.309,4.291-22.786L268,359.352l-8.582-6.7,5.182-9.6-0.928-3.592-7.268-.983,6.138-8.683,18.991-9.1,10.667,0.45,13.589-5.118,5.908-1.452-2.83-26.249,3.886-10.52,10.06,1.773,8-7.323,10.879,1.038,0.266-1.939,2.123-13.5,2.885-1.847,1.7-8.792,4.162,1.994,15.068-2.3,4.778-5.908,16.538,14.195-0.726,10.961-6.165,4.181,3.592,7.139,22.115,1.672,2.913-2.37,7.727,10.621,10.594,8.287,1.084-5.779,14.443,2.6,5.715,13.295,7.35-.772,6.615,7.855,3.253,18.623,9.776,6.064,11.43-.193,2.986,7.056L499,347.141l-12.146,16.116-3.39.606-11.172,9.867-22.253-1.939,4.879,16.244,7.121,5.871,7.341-7.828,12.845,7.662,7.809,8.131,0.588,18.881,8.829,12.256,17.475,6.422,11.374,9.509-0.34.505L534,452.571l5.926,13.047,6.909,2.26,16.988-29.768,8.4-7.019,11.466,9.381,2.077,22.216-7.212,3.693,10.557,10.106,1.976,7.084-6.863-1.094-7.3,7.516-5.577,10.125,5.981,25.928-10.051,16.364L567,556.006l6.073,3.675,11.292-2.334,15.7-11.292,22.584,2.839,8.8,11.733L616.6,571.882l-1.571,14.875-5.495,13.892,2.5,2.8-2.37,22.363,3.611,6.587-3.253,6.533-11.053,15.2-0.965,7.084-3.069,1.865-14.076-.588-4.658,4.741-2.885,7.075,4.273,6.285,3.528,18.771,4.41,5.154,0.606,18.826,8.71,16.327,1.341,6.946-3.5,1.562-15.041-17.034-7.2-1.341-4.4,21.949-4.456,6.156-15.693,6.744-4.9-5.366-6.239-20.8-7-3.675-0.947.4-6.679,2.839-5.549,9.3-11.944,8.186-3.684,10.465,2.425,24.761L514,783.128l3.868,6.321,7.084,2.15,7.626,7.984,10.557-1.094,13.047-17.062,7.3-1.433,3.207,1.111-1.571,7.36,4.273,36.466,3.069,0.4,11.393,14.517,0.23,3.693-8.995,5.026,0.7,10.879-20.893,18.183-3.482-.469-0.6,5.311-0.505,2.9-6.064,1.6-1.893,6.57-6.587-14.682L522.4,880.648l12.587,12.918-7.167,13.175-7.222.809L508.542,899.3l0.358-21.5-11.016,1.654-4.548-5.853-7.167.11-10.7.524-2.508,2.8,3.877,14.287-8.637,6.964,0.579,3.693,8.93,6.587,3.225,10.823,4.015,9.4-5.466,7.892-4.621,9.1L453.8,951.411l-6.7-.092-8.232-7.571-6.826-16.455,4.676-9.657L425.08,903.855l-10.235,2.784-6.863-1.6-2.288-6.7-8.517-5.871-8.232,16.272-6.533,3.638-1.957,10.979-20.581,15.123-2.1-.827L335.2,952.7l-13.258,6.7-15.3,21.242Z" transform="translate(-11.502 -56.341)" fill="#ffd1dc" stroke="#000" stroke-width="2"/><path d="M720.149,154.9l-28.133,11.145-6.468,10.125-3.307-1.222-2.067-6.762-3.372.965-1.727,10.465-3.831,6.441-14.6,2.012-3.877,6.533-0.5.092,1-6.744-12.312-11.577-0.91,7.056-7.763,7.7-0.45-1.094-5.495-9.4L613.5,174.309l2.683-2.278-4.052-17.64-6.294-4.125L591.5,141.9l-6.992.4-1.893.56-1.764-2.582-4.208-18.7-8.664-6.624-6.165-11.145L551.681,102,537.449,85.813l-1.011-7L521.2,71.02l-14.149-.9-3.666.919-0.469,3.785-0.7-5.136L477,62.327,458.462,75.264,452.141,72.2l-2.83-14.82-10.584.432-5.8,4.4-10.575.882L402.168,77.176l-2.186-.184,0.128,7.534-9.693,5.495L386.88,91.3l-9.445-5.908-11.779,9.4-18.78,4.483,4.575,14.535-0.57,21.711,4.144,6.064-0.469,11.181,7.516,13.212,3.785,0.285,1.81,6.854-2.1,2.885,6.615,20.333-13.993.57L347.96,207.348l6.046,1.488L356.789,221l14.076,8.223,1.81,11.678L389.2,255.1l-0.726,10.979-6.165,4.162,3.592,7.139,22.115,1.691,2.922-2.37,7.718,10.6,10.594,8.306,1.084-5.8,14.443,2.6L450.5,305.7l7.35-.772,6.615,7.874,3.253,18.623,9.776,6.046,11.43-.184,2.986,7.056,7.084,2.692-12.155,16.116-3.39.606-11.172,9.85-22.253-1.92,4.879,16.244,7.121,5.871,7.341-7.828,12.845,7.644,7.809,8.15,0.588,18.881,8.829,12.256,17.485,6.422,11.365,9.509-0.34.487,6.046,3.142,5.935,13.047,6.909,2.242,16.979-29.768,8.4-7,11.466,9.381,2.077,22.2-7.2,3.712L589.1,476.384l1.976,7.075-6.863-1.075-7.3,7.516-5.577,10.106,5.981,25.946-10.051,16.364-0.276,13.6,6.073,3.675,11.292-2.352,15.7-11.292,22.584,2.857,8.8,11.733-14.848,11.237-1.571,14.875-5.485,13.91,2.49,2.8-2.37,22.363,3.611,6.587-3.253,6.533L598.954,654.02l-0.965,7.1-3.069,1.847-14.067-.57-4.667,4.722-2.885,7.084,4.273,6.266,3.528,18.771,4.41,5.164,0.606,18.807,8.71,16.345,1.35,6.928-3.51,1.562-15.041-17.016-7.2-1.36-4.4,21.968-4.456,6.156-15.693,6.725-4.9-5.366-6.239-20.8-7-3.657-0.947.4-6.679,2.839-5.549,9.28L502.618,755.4l-3.675,10.465,2.416,24.761L513.983,783l3.868,6.331,7.084,2.15,7.626,7.984,10.548-1.094,13.047-17.062,7.3-1.433,3.216,1.094-1.58,7.378,4.282,36.448,3.069,0.4,11.384,14.517,0.23,3.693-8.995,5.044,0.7,10.86,6.771,3,17.273-6.7,6.128-9.169,14.572,3.408,10.833,9.693,7.176-2.132,4.282-6.193-3.739-6.57h6.257l1.828-6.533,9.583-2.959,2.444,7.268,13.58,6.983,5.641-12.615,10.557-2.9,3.546,6.321,23.677-8.792,4.493-10.373,2.959-2.389,11.154,0.983,3.841-6.422-2.031-7.3-9.28-6.57-3.85-10.584-13.295-13.46-4.328-6.321,4.217-10.548-2.646-15.077,1.9-3.317-0.1-.487-17.475-14.425,0.726-26.222-3.2-6.8-6.248-9.372,0.864-3.749,16.263-8.582,12.413,3.537,6-2.278-0.625-14.012,2.793-6.367,10.695,1.314,5.09,16.887,6.514,2.049,3.408-6.138-7.461-11.99,5.963-1.635,7.3-.772,8.251-12.073,7.3-1.332,7.6-1.9L786.191,620.9l6.092-9.3,3.657-6.836,15.582-10.621,11.43,1.544,7.176-2.674,0.643-.248,4.713-5.577,0.4-7.461,15.188-11.016,6.725,0.79-1.626,10.75,2.582,1.847,2.922-2.3,8.958-16.474,3.721,0.037,8.324,7.736,6.762,7.176,9.583-1.792,4.695-5.6,3.638-.055,5.761,8.646,14.241-1.341L940.62,556.51l0.193-.11,12.486,0.772,5.687,3.5,4.135-6.211-0.2-10.75,7.231,0.184,2.416-6.928-2.343-7.038-12.385-13.892-11.761-7.984-5.577-2.766,0.1-10.658,3.271-6.1-6.027-8.811,10.263-14.461-19.083-27.379L916.235,445l-6.422-7.056,2.5-11.053,11.577-14.82,4.217-33.269-3.39-18.247,1.415-.358,10.686-2.821,3-10.281,2.453-9.151-4.374-9.657,0.193-14.351L917.4,301l-9.464-18.523-2.169-5.99-5.99-2.407L881.257,247.5l-6.211-13.874-0.092-15.234,1.332-3.629,16.372-9.4-4.511-10.281-20.287-16.4,3.39-18.523-13.892-27.508-6.679-.23-7.231-7.681-28.776,8.223-18.7,2.784L774.329,151.97l-4.392,6.459-7.222-1.792-1.249-18.826-10.134-7.681-2.379,2.242-12.78-1.635-15.151,16.924Z" transform="translate(-11.502 -56.341)" fill="#ff8080" stroke="#000" stroke-width="2"/><text transform="translate(250.417 621.682)" font-size="202.12" font-family="DejaVu Sans" font-weight="700">1</text><text transform="translate(658.867 361.221)" font-size="202.12" font-family="DejaVu Sans" font-weight="700">2</text></svg>