<svg xmlns="http://www.w3.org/2000/svg" width="939.102" height="865.773" viewBox="0 0 939.102 865.773"><title>Députés sortants de Corrèze en 2017</title><path d="M418.91,701.884l2.289-2.6-1.7-13.495-12.605-11.5,0.3-3.425-6.129-5.2-22.413,6.654-1.543-9.935,7.934-15.165-2.823-6.18-12.207-6.18-10.469-1.025-7.612-11.207-6.714-1.984L332.048,634.35l5.493,11.427-4.535,5.332-12.978-3.993-4.052,5.629h-3.492l-5.5-10.3,8.036-5.976,3.713-9.452-13.173-.8L296.5,629.5l-3.3,5.561-2.153,2.484-9.053-3.594-12.766.847-6.2-20.3-4.01,5.679-11.978,5.942-13.216-4.086-9.316-10.4-6.671,1.288-9.647,4.654,4.221,20.548-14.122,15.394-1.051-9.986-14.4-19.632-7.078-15.724-9.333-1.272L155.1,604.35l-1.576-2.645,11.554-7.6-5.832-8.705,16.869-11.359-4.823-15.479,18.039,6.527,1.314-10.367,10.867-25.235,0.407-9.655-5.679-11.5-8.392-5.315-4.637,8.909-12.936-4.484,0.178-6.688,5.629-8.562,2.865-1.856,3.67-13.08,2.153-16.19,4.247-5.264-5.5-9.172-18.683-10.113-8.172-19.471,6.383-2.8L177.3,399.068l5.23,3.891,0.619,7.019,9.138,5.3,16.776-5.4,3.2,10,9.434-4.221-2.721-17.284,5.51-23.659-15.055-30.941-5.679-3.755-1.594-2.636,2.272-3.628,1.992-24.125,16.1-12.1-1.7-9.85-6.807-1.322,3.187-16.776,13.6-2.831,4.06-5.561,0.305-6.917,21.2,10.1,8.621,3.628,8.968-4.467,9.859-.814L289.58,243.2l5.408-4.552,17.852,0.78,17.4-12.2,6.917-6.57,0.669-9.689,3.526-5.51,22.727-22.616,10.4-7.934,9.7,2.552,18.759-7.052,2.348-10.07,7.443,0.907,0.907-3.264,6.739-.593,1.865-2.865,6.366-22.235,6.468,2.467,3.857,5.561,9.587-4.273,7.171,7.315,2.179,7.087,13.427,1.721,6.468-7.434,14.987,6.112,3.026-1.772,2.1-13.927,13.877,1.305,5.934-3.247-1.56-10.3-6.188-3.23,0.034-3.526,8.629-5.764,5.942-8.443,6.739,1.043,4.95,5.086,6.638-.865L545.52,93.47l6-3.857L565.584,89.7l4.747,4.671,6.052-3.722,5.256-9.1,2.4-17.5,9.053-5.857,17.8-1.356,7.07-8.146,3.569,0.543,4.993,9.553L642.57,66.65l1.238,10.231,0.161,8.6,8.731-5.993L664.534,87l11.537-7.883,12.817,11.69,6.883,1.288,3.119-14.665,9.612,3.942,7.443,11.834,13.571,3.526-6.883,16.242,2.933,2,9.358-3.213,1.255-10.545,7.2,15.428,6.756-.4,4.213,5.468,6.323-1.407,7.96,6.044,9.638-3.331,0.407,28.262,10.672-.882,8.3-6.6,6.4-3.162,9.536,4.154,15.292-14.105,5.425-9.223-0.89-7.087-1.713-6.858,2.407-2.636,13.877-4.026,4.5,0.415,5.553,4.221,20.777-.4L897,115.146l6.222-8.562,6.841-1.721,9.214-10.426,3.365-.153,0.907-9.867,13.97-8.909,21.167,27.185-1.136,13.512,4.993,3.425-1.619,6.79,2.95,6.341-7.519,4.832-2.678,5.527,0.025,6.553,8.426,10.443-5.273,8.824,1.424,5.468-5,2.416L933.326,175.4l-3.069,5.781-2.594,28.109-9.341,7.087-1.441,6.536,7.782,16.123,10.053,10.3,5.824,12.546,14.114,3.009,1.636,10.613-2.3,2.645L956.1,288.36l-2.187,6.358,2.509,6.145-6.332,12.452-0.415,6.773,3.526,7.587-3.95,14.732,0.636,6.273-4.043,11.011-2.882,1.272,1.356,9.155-3.391,4.467-3.314,23.777-3.416,5.993,21.582,16.555,3.416-.559,3.62,12.156-2.8,9.452-5.391-2.763-5.374,4.221-13.275.085-5.451,3.891-1.611,6.739-8.511-13.461L901.072,438.9l-2.662-3.374-10.6-9.367-13.7-1.077-5.527-4.255-2.051-6.536-9.07-5.128-13.9-1.509-4.739-.034-3.526,5.561L848.659,437.4l-3.832,5.841,0.822,5.781-0.136,17.352L836.2,476.741l5.078,8.875-3.713,9.468-9.749,4.069-17.14,3.874-7.163,12.317-11.393,22.074-10.231.3-4.637-1.754-5.739,6.824-3.153,13.91-9.867,4.12L756.6,563.89l-1.348,3.357,0.5,10.774-9.621,4.6-5.968,9-11.266,9.02,0.339,3.594-6.18,2.365-2.4-2.272-1.721-2.636-7.866,4.289-6.256-2.1-0.873-10.053-2.713-2.085-8.1,10.876-9.5-1.255-4.942-4.12-5.942,2.068-5.824-2.916-3.179.034-1.5,12.885-12.86,2.4-6.4-6.9-6.188-1.272-6.273,1.34-1.06,6.6-17.182,7.265-6.909,5.493-2.407,2.416,2.865,13.309-4.484,5.162-11.681,17,2.1,9.749-13.216,31.39-7.638,7.9-17.089,9.85-3.094,16.064,5.137,12.139-2.916,6.061-10.113,1.077-0.331,10.3-8.663,4.7,0.076,9.816-13.419,9.749-4.06-4.654-5.612,2.272-5.951-3.611-13.91,1.594-5.731-3.628-9.757-9.257-15.173-14.97-6.6-2.9-6.764-16.453-6.061-1.576-5.51,2.916L432.058,736l-10-7.68-0.144-3.179,0.653-17.6Z" transform="translate(-25.412 -48.151)" fill="#ff8080" stroke="#000"/><path d="M65.207,654.3l-9.587,9.358-9.486.314-0.449,6.408,18.556,9.434,7.4,7.553,13.173,4.967,8.824-5.544,9.18,4.8,13.156-3.993,0.008,7.782,10.367,1.7,10.2-3.425,12.868,6.095,2.45,1.34,8.146,3.594,0.314,6.824L157,717.354l-11.868,6.773-10.231-.212,1.3,5.416,2.323-2.255,7.2,5.764-1.127,9.969,6.866,11.74,3.442,5.993-4.645,9.223,6.858,1.823,1.806,6.9,16.623,22.964,9.808,10.994,8.714,5.468,3.264-1.178,8.943-5.069-0.118-6.968,2.017,0.178,18.624-13,9.757-.814L241.9,787l9.765-.381,2.611,13.673,5.832,2.831,17.106-11.936,23.269,6.79,0.644,4.739,0.433-3.492,3.382-.847,13.054,0.831,14.055,7.189,0.932,6.46,13.131,14.936,9.35,1.67,5.688,10.282,7.994,6.112,3.882,17.25,1.628,2.382,1.746-.517,6.451-.365,13.224,7.714,5.807,3.806,3.738,16.275-2.475,2.1,11.851,5.832,5.069,8.672L420.479,910l7.163-7.1,0.839-6.493,11.359,10.681-0.924,6.222,0.458-.085,3.577-6.027,13.47-1.856,3.535-5.959,1.594-9.638,3.111-.907,1.907,6.256,3.052,1.11,5.968-9.324,25.956-10.282,0.915-6.705,13.978-15.6,11.791,1.492,2.2-2.068,9.35,7.1,1.153,17.352,6.663,1.67,4.052-5.959,19.972-14.987,17.25-2.568,26.558-7.587,6.663,7.1,6.163,0.2,18.887-8.078,3.2-1.288,9.113,4.273,19.522-4.323,5.476-20.031-17.267-16.869-4.806-16.971L651.5,774.981l2.908-.526,0.729-5.578,1.373-.153,22.472-20.031,3.442,0.365,3.823-4.967,12.69,1.2,8.477,3.959,4.755-13.376-0.373-10.6,6.536-12.2-6.586-20,13.461-.865,9.341-10.231,0.678-13.6,13.732-1.492,1.865-5.51-1.272-3.331-6.917-.153-13.817-10.944-2.933-17.5-5.095-4.95,2.984-13.826-3.094-6.307-1.713-2.636-7.875,4.306-6.247-2.119-0.873-10.053-2.721-2.085-8.1,10.876-9.494-1.238-4.942-4.12-5.942,2.051-5.832-2.916-3.179.051L662.27,609.36l-12.86,2.416-6.4-6.917-6.188-1.272-6.273,1.356-1.068,6.586-17.174,7.265-6.909,5.493-2.407,2.416,2.856,13.309-4.476,5.162-11.681,17,2.094,9.749-13.207,31.39-7.638,7.9-17.089,9.85-3.1,16.064,5.145,12.139-2.916,6.061-10.113,1.077-0.331,10.316-8.663,4.7,0.076,9.816-13.419,9.731-4.06-4.654-5.62,2.289-5.951-3.628L491,786.577l-5.731-3.611-9.757-9.274-15.173-14.953-6.612-2.916-6.764-16.453-6.052-1.576-5.51,2.916-3.314-4.654-10-7.7-0.153-3.179,0.653-17.6-3.645-5.713,2.28-2.585-1.687-13.512-12.605-11.5,0.3-3.425-6.137-5.2-22.4,6.654-1.543-9.935,7.934-15.165-2.823-6.163-12.215-6.188-10.46-1.025-7.612-11.207-6.714-1.984-13.173,13.707,5.484,11.427L333.03,651.1l-12.978-3.976-4.06,5.612-3.484.017-5.5-10.316,8.036-5.959,3.713-9.469-13.173-.78-9.061,3.264-3.3,5.578-2.153,2.467-9.053-3.577-12.766.831-6.2-20.285-4.01,5.679-11.978,5.942-13.216-4.086-9.324-10.418-6.663,1.288-9.647,4.654,4.221,20.565L198.315,653.51l-1.051-9.969-14.411-19.649-7.078-15.716-9.324-1.288-11.325-2.535-1.585-2.645,11.562-7.6-5.832-8.723,16.86-11.359-4.815-15.479,18.039,6.527,1.314-10.367,10.859-25.235,0.415-9.638-5.679-11.52L187.873,503l-4.637,8.909L170.3,507.429l0.178-6.671,5.629-8.579,2.874-1.839,3.67-13.08,2.153-16.208,4.247-5.264-5.51-9.172-18.674-10.1-8.18-19.488,6.383-2.78,14.266-15.182,5.23,3.874,0.611,7.019,9.138,5.315,16.784-5.416,3.2,10,9.434-4.2-2.721-17.284,5.51-23.659-15.055-30.957-5.679-3.738-1.594-2.645,2.272-3.628,1.984-24.108,16.106-12.122-1.7-9.85-6.807-1.305,3.187-16.776-0.178-11.808-8.5-5.23L203.3,265.434l-14.216,1.238-0.526,17.666-9.477,15.047-9.316-9.655-6.68.212-6.052,3.349-9.452,18.166-3.145,1.424-1.34,11.443-12.665,4.171-15.809,25.914L67.96,330.367l0.8,9.8L63.3,343.922l-6.985.746-3.8,9.308L52.134,367.75,46.463,371.4l-1.67,6.307,6.375,0.644,7.493,6.46L70.1,388.679l0.661,16.657-6.714,2.238L53.8,404.844l-4.993,4.1L49.9,422.841l2.8,2.153,9.935-1.11-2.8,6.536,5.527,7.977,12.936-9.452,17,11.478-2.416,16.327-2.823,6.188-5.934,3.281-7.1.526-9.155,5.527-2.323,10.163L59.89,495l-10.223,9.452L32.3,503.023l3.585,17-1.7,3.009,2.3,1.229-1.916,9.816-4.95,3.976-3.628,16.394,10.7,5.663-1.806,6.01,12.97,5.594,13.605-.746,1.009,13.945L47.429,599.506,30.7,605.27l-1.678,7.816-2.085,10.426,3.662,6.061,27.88-2.763,12.563,12.537,1.305,3.314Z" transform="translate(-25.412 -48.151)" fill="#ff8080" stroke="#000"/><text transform="translate(455.008 391.295)" font-size="92.772" font-family="DejaVu Sans" font-weight="700">1</text><text transform="translate(264.081 707.757)" font-size="92.772" font-family="DejaVu Sans" font-weight="700">2</text></svg>