<svg xmlns="http://www.w3.org/2000/svg" width="883.971" height="772.059" viewBox="0 0 883.971 772.059"><title>Députés sortants des Landes en 2017</title><path d="M250.859,690.46l-4.29,2.381-1.163,4.98-17.873,8.8-1.386,9.456-8.467-3.531,2.568,0.156,0.939-2.394L219.47,705.6l-12.316-3.326L194.249,693.8l-4.122-1.759,1.113-4.52-5.862-7.9-3.152-9.437-6.142-29.25-4.762,6.036-12.713,1.517-1.542,2.064L174.087,564.7l13.49-64.829,5.048-28.921,15.48-104.58,3.718-27.311,2.8-20.826,11.016-97.418,28.585-8.89,49.057-17.071,11.532-21.9,29.138,17.506,9.978-1.337,10.413-1.082,2.356,4.588,3.14,15.443L363.8,225.348l-8.076,18.458L344.4,254.032l30.512-4.787,11.967-4.75,15.648-5.744,5.458,5.378,33.869,12.906,17.991-1.324,8.542-5.632,7.541-.062,1.075-7.578,2.2-1.3,24.9-5.5,14.9,3.556,6.932-.367,3.114-3.693-1.61-1.884,3.164-4.029,2.568-.131,17.115,5.57,6.08,4.445,0.392,10.04,0.8,15.567-8.275,5.925,20.273,6.863,17.245,6.434,5.533,5.632,16.86,7.373,5.533,18.88,20.2,10.357,25.141,1.846,1.169,15.542,14.448,10.6,9.978,0.634-6.832,36.064,3.537,20.627,8.828,1.784,32.943,2.953,19.527,6.665,4.986-1.275,21.542-7.479L767.7,378.307l1.144-7.615,10.326,0.423,6.235-4.551,2.362,1.094,7.317,7.442,5.03,12.011,13.832,11.9,5.831,17.544,0.261,36.984,7.622,0.74,4.321-2.6,9.947-.777,14.734,3.8,29.636,0.666,0.131,0.012,15.374,8.511,4.787,5.658,53.49,4.762-2.052,3.848,2.537,6.69-6.783,3.681-12.191,13.322,1.772,4.818-8.834,11.949-5.937,24.445-3.4,3.643-5.054.653,1.063,5,0.386,12.409,6.913,13.261-4.5,6.534-0.062,5.073-6.347,7.479,7.665,16,2.723,15.157-3.177,6.851-5.533,5.11-9.151-3.755-4.29,2.573L896.72,630l-19.2-12.434,13.665-11.632,0.068-7.659-3.475-3.7L869.179,577.6l-4.246,14.74-9.064,3.848-7.386,10.14-2.425.839-6.64-3.289-3.233,3.973,1.629,8.66-3.736,2.549-12.061-11.9-5.141,5.284-7.2-2.176-4.551,5.707-4.607,1.679-5.807-4.762-12.421,15.443-4.793,2.126,0.783-12.216-2.095-4.495-4.29-2.443-1.38-9.642-7.6,3.823-3.239-3.276-0.056-2.561L749.411,588.6l-17.656-10.214-1.94,7.274-8.293,5.67-5.887,11.084-9.692,1.8-2.306,11.912-3.183,6.328-6.64,1.859,0.908,2.294-4.016,8.79,2.9,3.936-2.114,4.215,1.8,6.944-6.926.727-1.007,2.176,11.016,4.725L689.7,678.271l-2.474.112-2.6-6.851L680.87,668.4l-9.282,7.7-10.774-4.663-6.8-1.772L647.243,701l-7.79,5.9-6.919,5.937-12.564,10.78-2.356-.69-0.765-4.868-2.449-.267-6.608-6.739-4.457-.982-1.983-8.94-4.625.51-1.629,4.482-7.354,6.217-6.994.435L584.3,697.7l-2.369-4.6-4.563-2.064L564.79,693.5l-9.6-.087-7.448-2.462,0.777-2.431-7.7-15.99L526.1,669.747l1.262-12.459,7.615-6.521,3.9-17.463-3.718-2.549-9.232,3.313-2.263-4.2-13.484-10.513,6.6-9.145,7.709-6.994,2.953-20.267,3.525-6.826-0.641-12.533L525.617,551.8l-10.73-17.936L495.851,530.6l3.711-9.387-2.219-4.507L482.7,513.729l-9.617-11.719-20.422,2.828-7.429-3.506-3.3,7.093-2.537.572-30.7-5.744-7.641,1.237-6.944,13.963-2.978,15.374-11.346-2.549,4.563-11.949,4.078-2.866,8.449-24.115-8.181-9.81L319.38,466.194l-8.5,30.114-9.9,12.129-1.424,4.893,3.376,3.9,9.99,2.164,1.679,2,3.556,9.8-1,7.734,1.791,4.9-1.685,7.647L313,552.534,301.463,565.8l-7.205,1.349-9.611,7.87-6.173,10.854-7.112-.193-2.219,9.96,15.548,16.985,16.966,8.741L308,619.441l6.453,3.985,10.264-.025,24.774,7.442-5.943,19.925-8.212,34.51-13.192,3.289-28.287-4.675-10.463.522-15.312,3.451-11.308,6.105Z" transform="translate(-79.297 -170.149)" fill="#ff8080" stroke="#000"/><path d="M322.061,688.626l-28.293-4.663-10.457.51L268,687.936l-11.308,6.105-5.831-3.581-4.29,2.381-1.163,4.98-17.873,8.8-1.386,9.456-8.467-3.519,2.568,0.143,0.939-2.394L219.47,705.6l-12.316-3.326L194.249,693.8l-4.122-1.759,1.113-4.52-5.862-7.9-3.152-9.437-6.142-29.25-4.762,6.036-12.713,1.517-1.542,2.064L153.5,671.033l-4.986,14.74L142.2,713.929l-1.455,9.3-6.888,32.054-6.832,42.306L124.335,816.2l-1.648,12.192-9.624,22.7-8.237,17.376-5.707,11.569-16.68,29.785,12.384,2,11.526-8.915,8.5,4.4-1.125,12.1,4.762-1.044,14.647,4.153,5.943,11.2,1.815-.218,23.55,1.591L182.8,929.17l0.336,0.168,6.285-1.48,16.4,4.787,16.661-10.768,4.93-2.686,17.407-10.028,7.249-7.031,4.364-4.252-2.474-4.066-8.318-5.328-0.348-2.462,2.244-1.032,9.518-.448,0.659-2.394-4.383-5.352,0.124-.839,1.063-4.3-5.166-4.458L242.486,862l-6.465-7.348,2.543-15.119,10.388-10.09,2.443-4.19,5.3-5.85,4.743-1.3,11.756,3.543,5.7-4.383,5.241-1.8-1.175,6.652,4.134,5.048,7.2,1.921,1.952-1.579,4.165,1.989,4.718-.827,3.86,2.953,0.6,4.805,7.4,6.341L326,841.453l5.458-.423,6.292-3.811,6.9-6.41,2.785-8.393,13.615-3.618,8.125-5.913,1.828-9.7,8.778,3.96,4.7-1.821-2.754-12.533,2.611-2.766-7.709-9.437-2.313-6.969,2.468-9.214,3.761,2.462L387.3,765.6l4.221-4.507-2.891-3.605,6.092-2.2-0.752-9.008-3.27-3.22-9.779.958-6.671-7.373-6.851-2.978,4.3-9.555-13.783-28.28-16.922-5.5-5.732-5.029Z" transform="translate(-79.297 -170.149)" fill="#ff8080" stroke="#000"/><path d="M749.076,830.3l-1.909,1.3-8-4.482,0.317,14.118,3.78,5.607,14.355,0.074-3.593,14.05,2.387,0.025,3.513,8.523-2.232,1.685-2.431.012-2.71-4.028-14.032,2.941-2.021,6.982-3.768,4.868-3.656-2.462-0.236,4.19-2.288,4.433-16.139,6.024-6.509-3.605-2.512-4.09L682.662,881.8l-6.149,3.618-2.835-3.656-16.736,11.246-6.341,2.151-5.664-10.687,5.937-3.058L660.1,870.6l-5.11-7.249-4.134-2.027-6.671,6.328-1.791-1.467-22.406,14.877,0.174,0.559-2.885,4.141-6.689,3.681-14.436,10.637-2.331.267-2.418-7.212-2.816-4.028-17.426,14.268-7.572.666-0.28-5.1-8.666-4.19-1.306-2.649-4.793.715-7.958-4.83L549.5,877l-10.749,4.408L524.219,890l-6.136-3.7-3.761,3.046L514,901.412l-6.863-.05-3.879-2.766-2.934-7.7-19.135-17.084-6.347,2.7,0.292,7.006-6.559,1.4-4.855,5.658-9.294-3.631-11.284,5.148-0.268,7.8-6.82,1.119-4.358-1.666-3.972-.92L415.978,894.9l-9.674,1.424-3.792,3.121-2.387,6.869-2.282.9-4.041-2.779-4.321.025-3.059,3.593-6.621-2.176-13.751-3.631L359.2,904.62l5.943,3.9,0.4,9.692-2.449,6.764,0.733,3.656-13.547-1.424-3,3.108-1.7-1.7-3.04-3.823-7.087-1.654-12.1,2.257-2.723-8.169-3.662-2.431-4.507,8.1-9.375-1.772-4.756,7.939-8.8,2.711-2.462.23-1.629,7.093-2.331.777-4.557-5.551-6.3,3.593-2.107-1.274-0.093-2.984-1.057-5.925,3.656-2.257,14.467-.933,3.444-3.133-1.591-4.538-10.55-6.665-2.916-6.8-7.752-5.39-11.321-.025-2.474-4.066-8.318-5.328-0.348-2.462,2.244-1.032,9.518-.448,0.659-2.394-4.389-5.352,0.131-.827,1.063-4.308-5.166-4.458-6.863-5.21-6.465-7.348,2.537-15.119,10.388-10.09,2.449-4.19,5.3-5.85,4.75-1.3,11.756,3.543,5.7-4.383,5.241-1.8-1.175,6.665,4.134,5.042,7.2,1.934,1.952-1.591,4.165,1.989,4.718-.827,3.86,2.953,0.59,4.805,7.4,6.341,9.008-1.312,5.458-.411,6.292-3.823,6.9-6.41,2.779-8.38,13.621-3.631,8.119-5.913,1.828-9.7,8.778,3.96,4.7-1.809-2.748-12.545,2.611-2.754-7.709-9.45-2.313-6.969,2.468-9.2,3.761,2.456,6.751-1.262,4.227-4.507-2.9-3.605,6.1-2.2-0.752-9.008-3.27-3.22-9.779.958-6.671-7.36-6.851-2.984,4.3-9.555-13.783-28.28-16.922-5.5-5.732-5.017,8.212-34.51L349.408,631l-24.774-7.429-10.264.025-6.453-4-6.347,1.934L284.6,612.789l-15.548-17,2.219-9.947,7.112,0.193,6.173-10.854,9.611-7.883,7.205-1.349L312.909,552.7l4.259-1.057L318.852,544l-1.791-4.9,1-7.734-3.562-9.8-1.672-2-9.984-2.164-3.382-3.9,1.424-4.893,9.9-12.129,8.5-30.114L388.6,482.709l8.181,9.81-8.449,24.115-4.078,2.866L379.7,531.437,391.042,534l2.984-15.374,6.938-13.963,7.641-1.237,30.7,5.744,2.537-.572,3.3-7.093,7.429,3.506L473,502.18,482.61,513.9l14.647,2.978,2.219,4.507-3.711,9.387,19.036,3.264,10.73,17.936,4.718,11.787,0.641,12.521-3.525,6.838-2.953,20.267-7.709,6.994-6.6,9.145,13.484,10.513,2.263,4.19,9.232-3.313,3.718,2.549-3.9,17.476-7.615,6.521-1.262,12.459,14.709,2.779,7.7,15.99-0.777,2.431,7.448,2.462,9.6,0.087,12.577-2.462,4.563,2.076,2.369,4.6-3.55,15.057,6.994-.423,7.354-6.217,1.629-4.495,4.625-.5,1.977,8.94,4.464,0.982,6.608,6.739,2.449,0.267,0.765,4.868,2.356,0.69,12.564-10.78,6.919-5.95,7.79-5.887,6.77-31.339,6.8,1.772L671.5,676.27l9.282-7.7,3.755,3.133,2.6,6.851,2.474-.112,6.677-20.155-11.016-4.725,1.007-2.176,6.926-.727-1.8-6.944,2.114-4.215-2.9-3.936,4.016-8.79-0.908-2.294,6.64-1.859,3.183-6.328,2.306-11.912,9.692-1.809,5.887-11.084,8.293-5.658,1.94-7.274,17.656,10.214,10.214,11.047,0.056,2.549,3.239,3.289,7.6-3.835,1.38,9.642,4.29,2.456,2.095,4.495-0.783,12.216-3.817,3-3.531-3.146-2.3.765-2.568,6.826-3.948,2.674,4.277,5.073,4.545-1.032,4.2,2.319,3.276,2.853,4.314-.062,3.823,2.754,4.37,10.854-1.685,1.081-3.544-2.1-4.532,5.782-2.474,1.989L786,683.206l1.89,4.625-3.432,3.351,0.864,14.584-9.462-.05-1.778-2.394-5.794,3.568L772.676,715l-1.84,6.944,3.86,3.276-0.448,7.467,4.178,9.325-0.746,2.456-2.5.485-2.611,3.9L784.3,751.44l1.337,7.15-14.846,13.273L757.5,778.907l3.251,12.1-7.044,7.348-1.15,4.98,1.473,2.1,7.491,1.237-1.871,5.315-1.591,6.583-6.826,1.3-1.386,3.811Z" transform="translate(-79.297 -170.149)" fill="#f6e1b9" stroke="#000"/><path d="M960.567,484.846l-2.537-6.69,2.052-3.848-53.49-4.762-4.787-5.657-15.374-8.511-0.131-.012-29.636-.665-14.734-3.8-9.947.777-4.321,2.6-7.622-.74-0.261-36.984-5.831-17.544-13.832-11.9-5.03-12.011-7.317-7.442-2.363-1.094-6.235,4.551-10.326-.423-1.144,7.616,2.493,35.834-21.541,7.479-4.986,1.275-19.527-6.665L691.2,413.276l-8.828-1.784-3.537-20.627,6.832-36.064-9.978-.634-14.448-10.6-1.169-15.542-25.141-1.846-20.2-10.357L609.2,296.941l-16.86-7.373-5.533-5.633L569.559,277.5l-20.273-6.863,8.274-5.925-0.8-15.567-0.392-10.04-6.08-4.445-17.115-5.57-2.568.131-3.164,4.029,1.61,1.884-3.115,3.693-6.932.367-14.9-3.556-24.9,5.5-2.2,1.3-1.075,7.578-7.541.062-8.542,5.633-17.991,1.324L407.99,244.129l-5.458-5.377L386.884,244.5l-11.967,4.75L344.4,254.032l11.321-10.227,8.076-18.458,6.037-17.277-3.14-15.443-2.356-4.588-10.413,1.082-9.978,1.337-29.138-17.506-11.532,21.9-49.057,17.071-28.585,8.89-11.016,97.418-2.8,20.826-3.718,27.311-15.48,104.58-5.048,28.921L174.087,564.7l-17.022,85.848L153.5,671.033l-4.986,14.74L142.2,713.929l-1.455,9.3-6.888,32.054-6.832,42.306L124.335,816.2l-1.647,12.192-9.624,22.7-8.237,17.376-5.707,11.569-16.68,29.785,12.384,2,11.526-8.915,8.5,4.4-1.125,12.1,4.762-1.044,14.647,4.153,5.943,11.2,1.815-.218,23.549,1.591L182.8,929.17l0.336,0.168,6.285-1.48,16.4,4.787,16.661-10.768,4.93-2.686,17.407-10.028,7.249-7.031,4.317-4.206,0.041,0.067,11.321,0.025,7.753,5.39,2.916,6.8,10.55,6.665,1.591,4.538-3.444,3.133-14.467.933-3.656,2.257,1.057,5.925,0.093,2.984,2.108,1.274,6.3-3.593,4.557,5.551,2.331-.777L287.066,932l2.462-.23,8.8-2.711,4.756-7.939,9.375,1.772,4.507-8.1,3.662,2.431,2.723,8.169,12.1-2.257,7.087,1.654,3.04,3.823,1.7,1.7,3-3.108,13.547,1.424-0.733-3.656,2.449-6.764-0.4-9.692-5.943-3.9,6.851-2.368,13.752,3.63,6.621,2.176,3.059-3.593,4.321-.025,4.041,2.779,2.282-.9,2.387-6.869,3.792-3.12,9.674-1.424,11.743,3.519,3.972,0.92,4.358,1.666,6.82-1.119,0.268-7.8,11.284-5.148,9.294,3.63,4.855-5.657,6.559-1.4-0.292-7.006,6.347-2.7L500.322,890.9l2.934,7.7,3.879,2.766,6.863,0.05,0.323-12.067,3.761-3.046,6.136,3.7,14.528-8.6L549.5,877l-8.908,10.991,7.958,4.83,4.793-.715,1.306,2.648,8.666,4.19,0.28,5.1,7.572-.665,17.426-14.268,2.816,4.028,2.418,7.212,2.331-.267,14.436-10.637,6.689-3.681,2.885-4.14-0.174-.559,22.405-14.877,1.791,1.467,6.671-6.328,4.134,2.027,5.11,7.249-9.226,10.817-5.937,3.058,5.664,10.687,6.341-2.151,16.736-11.246,2.835,3.656,6.149-3.618,18.731,4.663,2.512,4.09,6.509,3.606,16.139-6.024,2.288-4.433,0.236-4.19,3.656,2.462,3.768-4.868,2.021-6.982,14.032-2.941,2.71,4.028,2.431-.012,2.232-1.685-3.512-8.523-2.387-.025,3.593-14.05-14.355-.074-3.78-5.607-0.317-14.118,8,4.482,1.908-1.3,0.771-6.615,1.387-3.811,6.826-1.3,1.591-6.583,1.871-5.315-7.491-1.237-1.473-2.1,1.15-4.98,7.044-7.348-3.251-12.1,13.292-7.044,14.846-13.273L784.3,751.44l-11.731-2.586,2.611-3.9,2.5-.485,0.746-2.456-4.178-9.325,0.448-7.467-3.86-3.276,1.84-6.944-4.383-8.113,5.794-3.568,1.778,2.394,9.462,0.05-0.864-14.584,3.432-3.35L786,683.205l-8.181-12.944,2.474-1.989,4.532-5.782,3.544,2.1,1.685-1.081-4.37-10.854-3.823-2.754-4.314.062-3.276-2.854-4.2-2.319-4.545,1.032-4.277-5.073,3.948-2.674,2.568-6.826,2.3-.765,3.531,3.146,3.817-3,0.085-.176,4.793-2.126,12.421-15.443,5.807,4.762,4.607-1.679,4.551-5.707,7.2,2.176,5.141-5.284,12.061,11.9,3.736-2.549-1.629-8.66,3.233-3.973,6.639,3.289,2.425-.839,7.386-10.14,9.064-3.848,4.246-14.74,18.595,16.972,3.475,3.7-0.068,7.659-13.665,11.632L896.72,630l9.108,9.058,4.29-2.574,9.151,3.755,5.533-5.11,3.177-6.851-2.723-15.157-7.665-16,6.347-7.479L924,584.566l4.5-6.534-6.913-13.261L921.2,552.362l-1.063-5,5.054-.653,3.4-3.643,5.937-24.445,8.834-11.949-1.772-4.818,12.191-13.322Z" transform="translate(-79.297 -170.149)" fill="none" stroke="#000" stroke-width="4"/><text transform="translate(387.792 260.87)" font-size="68.039" font-family="DejaVu Sans" font-weight="700">1</text><text transform="translate(105.108 629.413)" font-size="68.039" font-family="DejaVu Sans" font-weight="700">2</text><text transform="translate(429.913 622.932)" font-size="68.039" font-family="DejaVu Sans" font-weight="700">3</text></svg>