<svg xmlns="http://www.w3.org/2000/svg" width="973.082" height="883.432" viewBox="0 0 973.082 883.432"><title>Députés sortants du Lot-et-Garonne en 2017</title><path d="M672.968,599.958l-7.2-1.384L651.66,587.523l4.946-5.114-0.356-10.883-16.175,8.508,0.14,9.845-11.472,7.592-11.519,14.773-9.864,4.787-13.492,2.908-11.351.234,6.246-12.688-5.684-4.862-7.461.8-19.906,10.687L534.15,628.56l-12.66-13.352H517.76l-3.039,1.86,0.2,7.031,6.19,7.854-4.824,5.077-15.147,3.506-11.043-3.758-14.652,5.61-11.659-1.206-10.042-7.891-4.47-5.554-12.547-.86-17.54,8.378-18.691-4.123-4.441-5.731-2.066-21.991-1.15-4.544-11.463,17.877,4.713,9.182,0.281,10.846-10.192,4.507-4.226,6.059,0.963,3.637-8.508,6.012L354.174,654.8l-2.973.346-5.208-7.321-11.828,14.754-26.395-1.4-9.677-6.938-10.378,4.637-10.762,10.846-7.583-.879L260.3,681.217l19.532,22.057,13.707,3.562-23.366,13.3,0.281,3.87,6.424,9.481,14.726,3.927,7.4,13.623-19.074-.729-3.45,10.519-14.23,4.983-26.76-1.646-3.086,5.788,3.815,10.079-10.2,5.516L207.68,805.6l2.664,7.227-13.286,17.989-8.929,36.764-5.114,5.48-7.6.982,1.6,7.508,0.58,18.682,10.4,19.925,24.908-2.469,15.9-14.6-0.449-3.7L239.6,908.55l-1.889,18.831,10.687,3.74,7.143-1.281,3.394-6.723,0.58-15.305,11.865-9.275,7.031-13.6,2.917,1.44,6.592-.6,10.322-9.444,3.17,1.823,5.76,1.552,5.4-2.936,0.177,14.371L326.78,896.8l14.539,0.2,3.693,6.648,7.059,0.075,16.344,7.47,1.982-3.049,9.949-3.6-2.029-14.063,7.358,2.413,25.647-8.415,12.557,7.779,7.583,0.15,9.163-12.435,3.31-2.048,7.676-.767,8.92-6.9,18.691-.533,6.246-17.259,0.29-1.5,7.218-10.686,17.55,2.15,3.048-5.806,12.66,2.393,2.478,6.461,5.451-13.333L555.5,842.955l16.157-5.844,6.535-2.627,7.62-15.848,6.8-1.936,6.021-2.852,6.8,1.383-1.515,3.375,21.14,14.52L629.6,846.75l16.344,7.3,1.786,11,6.433,9.256,13.53-5.255,2.534-14.239,9.369-3.2,10.631-14.576,7.339,0.767,19.653-8.4-2.365-10.537,6.957-13.052,0.271-7.49,5.068-12.744,16.418-13.371,5.47,4.385,13.249,3.123-4.31-9.238,3.5-13.22-7.817-13.7,7.022-2.646,19.018,2.505,27.751,13.567,1.907,3.394,8.966,1.169,8.751-5.844,0.281-7.124,2.87-2.141,6.377,3.123,1.047-6.778-4.02-5.956-2.487-13.81,3.637-6.208,0.187-3.758-6.19-4.077-9.518,5.5-5.049-5.058-8.172-1.356,0.038-10.5,4.787-9.406-44.945.2-0.8-11.052,7.1-8.77-3.824-5.04L763.272,666l-10.649.477L743.59,654.33,745,643.615l-0.627-2.431-6.938.477L727.424,650.7l-8.106-6.648-3.833-5.33-10.7.215-7.358-6.573,0.14-6.61,0.131-7.068,6.433-4.2,0.2-10.481-7.62-12.033-6.386,2.973-9.949-2.487Z" transform="translate(-13.335 -49.751)" fill="#06c" stroke="#000"/><path d="M104.642,502.373l-5.853-.729-18.344.972-8.153,7.592-7.386-.617-5.517,17.877,6.349,5.5,16.334,15.081,17.8,24.833L93.45,576.79l7.377,21.29-15.708,9.154-10.7,21.225-5.012-5.245-12.22,14.315-13,7.3-10.22-4.1-4.376-5.61-2.169,6.957-11.743,8.817,8.77,26.386,0.393,55.642,11.463,1.093,6.5-3.908,14.951-1.15,22.168,5.694,44.571,1,0.2,0.038,23.113,12.781,7.209,8.527,80.438,7.144,26.769,1.646,14.23-4.983,3.45-10.519,19.065,0.729-7.4-13.623-14.717-3.927-6.424-9.481-0.29-3.87,23.366-13.3-13.7-3.562-19.532-22.057,9.06-12.379,7.592,0.879,10.753-10.846,10.388-4.637,9.677,6.938,26.395,1.4L345.973,647.8l5.2,7.321,2.982-.346,10.229,2.188,8.508-6.012-0.963-3.637,4.226-6.059,10.192-4.507L386.065,625.9l-4.713-9.182,11.463-17.877,1.15,4.544,2.057,21.991,4.451,5.731,18.691,4.123,17.54-8.378,12.547,0.86,4.46,5.554,10.051,7.891,11.659,1.206,14.652-5.61,11.043,3.758,15.147-3.506,4.815-5.077-6.18-7.854-0.2-7.031,3.039-1.86-5.012-8.237,2.908-1.169L515.131,594.6l-11.781-7.611L505.707,580l-8.265-12.547,5.47-9.154-16.736-8.677-4.413-9.079-0.122-9.864,13.773-4.18-0.43-18.7-3.7-26.993,14.006,3.833L511.233,480l8.19-17.166,9.78,11.594,10.621,4.236-3.319-6.9,2.749-19.3-3.011-14.221-11.024-1-9.649-5-2.59-14.1,4.3-7.209,4.208-14.221,4.927-5.629-1.431-6.9-3.553-1.15-3.123-6.059,5.32-5.021-10.359-11.267-14.848-2.936-5.311,5.4L483.8,352.347l-7.04-3.086-4.871,8.032-6.087-4.217-7.022,1.758-8.49-6.76-7.583-6.9-3.749-9.425,7.078-11.65,12.482-5.227,11.856-9.35L467.8,276.417l6.283-.954,9.388,20.4,3.628,0.954,13.473-6.461L516.6,274.4l21.019,7.125,6.91-13.3,15.942-6.816,6.368-8.051,6.4-1.879,5.114-12.323-0.252-.187-21.533-7.49-7.059,1.664-21.9-4.843,4.376-17.316-1.374-10.753-5.722-4.123,12.436-3.74-2.908-9.135-4.03-18.868L521.5,157.3l-6.04,3.254-13.912-2.992-14.726,15.633L458.97,184.787l-20.729-10.331-11.351.57-7.985-8.2-8.77,7.087-4.713-6.573,0.72-15.745,7.181-18.316-14.352-12.342,1.6-7.583,3.478-1.4L401.8,97.374l-6.648-13.6L371.576,58.591,363.881,53.9,363.293,57.4l-19.775,6.685-14.334,3.123-6.8-2.833-7.274-12.622-7.424.038-1.3,3.487L301.1,60.667l-5.124,18.644,5.376,14.483-13.576,4.694L282,75.936l-3.909-6.685-3.833-.533-3.263,3.946-6.143,12.2L261.8,83.126l-5.965,2.992-6.947,2.954-9.079-7.49L235.714,111l-4.114,6.3-5.255-5.535-7.265-1.356-6.7,3.562-1.309,7.527-3.721.954,5.32,17.382,6.76,3.525,15-.168-2.609,9.771,1.935,6.377,6.778,2.487,16.718-5.208,3.581,2.263,7.265,1.786,4.759,6.04-4.591,7.854-6.853,9.163-2.487,14.81-11.547-.9-7.545-8.546-2.833,5.863,1.3,9.949,12,13.66-2.786,6.994-14.1,2.8-12.473,13.314-0.627.365-5.049,4.273-22.29,6.863,2.618,7.012-2.048,10.79-11.351,22.019-24.6-6.61-4.161,3.964-9.154,10.192-17.484-11.5,14.427,24.029-6.1,9.219-3.693-.112-3.824,3.16L115.232,341.4l-0.374,16.821,3.45,33.239,7.087-.982,7.162,7.592-1.131,9.92-6.152,2.721-3.675,9.752,2.029,10.5-5.385,4.488,14.624,25.582,9.5,8.911-6.208,8.751,8.378,6.7-5.208,9.808-16.849-6.171-7.265,2.393Z" transform="translate(-13.335 -49.751)" fill="#ff8080" stroke="#000"/><path d="M838.929,572.9l-8.957-12.2-11.407-1.758,4.039-9.331-0.982-6.573,7.985-5.33,10.173-19.831-3.272-4.1,1.066-6.844-4.8-9.537,5.255-9.425,3.7-9,9.733-1.935,7.162-1.627,3.011,7.125L872.478,493l3.16,26.9,0.9-.019,1.365-10.9,4.862-5.956,26.124,0.094L919.705,492.4l17.512,6.358,7.536-.917L959.6,499.56l10.6-3.721,0.346-11.248,2.711-2.571-3.581-13.81-6.685-1.515,8.368-10.715-3.329-28.648-8.19-3.721-1.739-3.319-11,1.019,0.056-7.162-7.592-7.891-0.561-10.715,3.216-10.463-1.608-10.921-11.108-5.133,4.47-10.865,1.328-15.484-27.638-45.413,9.247-5.535,10.659,1.992,5.245,12.8,16.007-20.289,6.5-3.581,0.655-.439,1.721-3.394,21.084-7.415,3.31-10.827,2.216-11.108-5.4-9.967-11.276-1.646-8.051-8.088-10.659-3.815-16.605-8.331-13.174-18.971-14.81-11.36-8.452,7.592-17.849-4.656-13.576,5.713-9.163,11.416-6.433,3.525-9.471,6.629L824.083,219.7l-5.041,18.558-9.752-.879-17.952-4.563,2.216-14.212-6.872,2.3-3.376-9.331-6.386-6.461,14.82-11.033-0.467-18.335,6.358-3.338,1.2-10.687,6.264-3.506-13.5-1.608-7.629-6.115,4.161-8.125-1.964-7.377-8.555-7.7-14.6-4.6-8.77,6.208-1.113,11.136L746.43,141.1l-12.276-6.3L731.7,145.552l-11.071-1.627-13.5,6.433-26.292-1.113-8.546,1.608-22.14-2.553-1.44-13.548-5.993-13.641-14.1-4.909-6.853,8.013,1.44,6.9-2.8,2.15-9.107-4.984-13.651-1.337-3.095-1.973-8.77,6.3-7.386,24.1-3.74-.9L562,162.474l-3.787-.655-5.863-9.92-10.135-4.46-7.817.917-12.884,8.892,8.883,7.068,4.039,18.868,2.908,9.135-12.436,3.74,5.722,4.142L532,210.954l-4.366,17.316,21.888,4.824,7.059-1.646,21.542,7.471,0.243,0.2-5.105,12.3-6.4,1.9-6.377,8.032-15.942,6.816-6.9,13.3-21.019-7.125L500.6,290.3l-13.473,6.479L483.5,295.8l-9.388-20.383-6.283.935,2.571,29.125-11.856,9.35-12.482,5.208-7.087,11.669,3.758,9.425,7.573,6.9,8.49,6.741,7.022-1.758,6.1,4.236,4.862-8.032,7.04,3.067,9.312,10.809,5.32-5.385,14.848,2.936,10.359,11.267-5.32,5,3.123,6.078,3.553,1.131,1.431,6.919-4.927,5.629L517.3,410.892,513,418.1l2.6,14.081,9.649,5,11.024,1.019,3.011,14.221-2.749,19.3,3.31,6.882-10.612-4.236-9.78-11.575-8.19,17.148-5.946,4.656-14.006-3.852,3.7,27.012,0.421,18.7-13.763,4.161,0.112,9.864,4.423,9.1,16.736,8.658-5.47,9.154,8.265,12.566-2.356,6.975,11.781,7.629,0.505,11.173-2.908,1.169,5.012,8.237h3.721l12.66,13.352,21.561-14.445,19.9-10.706,7.461-.8,5.694,4.862-6.246,12.707,11.351-.234,13.492-2.908,9.864-4.787,11.51-14.791,11.482-7.592-0.15-9.845,16.175-8.508,0.365,10.883-4.956,5.114,14.109,11.052,7.209,1.384,7.321-7.415,9.939,2.506,6.4-2.973,7.611,12.033L704.048,614.5l-6.433,4.2-0.131,7.068-0.131,6.61,7.349,6.573,10.7-.215,3.843,5.33,8.106,6.648,10-9.041,6.938-.5,0.636,2.45-1.421,10.715,9.032,12.127,10.659-.458,5.114-2.506,3.815,5.04-7.1,8.77,0.8,11.052,44.945-.2,1.028-.272,33.473,3.254,20.775-44.581L858,637.683l10.892-14.39L864.9,605.36l10.378,3.525,7.91-12.033-20.617-14.7-1.056-3.619-5.638-11.818Z" transform="translate(-13.335 -49.751)" fill="#ff8080" stroke="#000"/><path d="M978.909,239.5l-11.276-1.646-8.051-8.088-10.659-3.815-16.605-8.331-13.174-18.971-14.81-11.36-8.452,7.592-17.849-4.656-13.576,5.713-9.163,11.416-6.433,3.525-9.472,6.629L824.083,219.7l-5.041,18.558-9.752-.879-17.952-4.563,2.216-14.212-6.872,2.3-3.376-9.331-6.386-6.461,14.82-11.033-0.468-18.335,6.358-3.338,1.2-10.687,6.264-3.506-13.5-1.608-7.629-6.115,4.161-8.125-1.963-7.377-8.555-7.7-14.6-4.6-8.77,6.208-1.113,11.136L746.43,141.1l-12.276-6.3L731.7,145.552l-11.071-1.627-13.5,6.433-26.292-1.113-8.546,1.608-22.14-2.552-1.44-13.548-5.993-13.642-14.1-4.909-6.853,8.013,1.44,6.9-2.8,2.15-9.107-4.984-13.651-1.337-3.095-1.973-8.77,6.3-7.386,24.1-3.74-.9L562,162.474l-3.787-.655-5.863-9.92-10.135-4.46-7.817.917-12.884,8.892-0.017.051-6.04,3.254-13.913-2.992-14.726,15.633L458.97,184.787l-20.729-10.331-11.351.57-7.985-8.2-8.77,7.087-4.713-6.573,0.72-15.745,7.181-18.316-14.352-12.342,1.6-7.582,3.478-1.4L401.8,97.374l-6.648-13.6L371.576,58.591,363.882,53.9,363.293,57.4l-19.775,6.685-14.334,3.123-6.8-2.833-7.274-12.622-7.424.037-1.3,3.487L301.1,60.667l-5.123,18.644,5.376,14.483-13.576,4.694L282,75.936l-3.909-6.685-3.833-.533-3.263,3.945-6.143,12.2L261.8,83.126l-5.965,2.992-6.947,2.954-9.079-7.489L235.714,111l-4.114,6.3-5.255-5.535-7.265-1.356-6.7,3.562-1.309,7.527-3.721.954,5.32,17.382,6.76,3.525,15-.168-2.609,9.771,1.935,6.377,6.779,2.487,16.718-5.208,3.581,2.263,7.265,1.786,4.759,6.04-4.591,7.854-6.853,9.163-2.487,14.81-11.547-.9-7.546-8.546-2.833,5.863,1.3,9.949,12,13.66-2.786,6.994-14.1,2.8-12.472,13.314-0.627.365-5.049,4.273-22.29,6.863,2.618,7.013-2.047,10.79-11.351,22.019-24.6-6.61-4.161,3.964-9.154,10.192-17.484-11.5,14.427,24.029-6.1,9.219-3.694-.112-3.824,3.16L115.232,341.4l-0.374,16.821,3.45,33.239,7.087-.982,7.162,7.592-1.131,9.92-6.153,2.721-3.674,9.752,2.029,10.5-5.385,4.488,14.623,25.582,9.5,8.911-6.208,8.751,8.377,6.7-5.208,9.808-16.849-6.171-7.265,2.393-10.572,10.945-5.853-.729-18.344.973-8.153,7.592-7.386-.617-5.517,17.877,6.349,5.5,16.334,15.081,17.8,24.833L93.45,576.79l7.377,21.289L85.12,607.233l-10.7,21.225-5.012-5.245-12.22,14.315-13,7.3-10.22-4.1-4.376-5.61-2.169,6.956-11.743,8.817,8.77,26.386,0.393,55.642,11.463,1.093,6.5-3.908,14.951-1.15,22.168,5.694,44.571,1,0.2,0.038,23.113,12.781,7.209,8.527,80.438,7.144,0.03,0.025-3.086,5.788,3.815,10.079-10.2,5.516L207.681,805.6l2.664,7.227-13.286,17.989-8.929,36.764-5.115,5.48-7.6.981,1.6,7.508,0.58,18.681,10.4,19.925,24.908-2.469,15.9-14.6-0.448-3.7L239.6,908.55l-1.889,18.831,10.687,3.74,7.143-1.281,3.394-6.723,0.58-15.305,11.865-9.275,7.031-13.6,2.917,1.44,6.592-.6,10.322-9.443,3.169,1.823,5.76,1.552,5.4-2.936,0.178,14.371L326.78,896.8l14.539,0.2,3.693,6.648,7.059,0.076,16.344,7.47,1.982-3.048,9.949-3.6-2.029-14.063,7.359,2.413,25.647-8.415,12.557,7.78,7.582,0.149,9.163-12.435,3.31-2.047,7.676-.767,8.92-6.9,18.691-.533,6.246-17.26,0.29-1.5,7.218-10.687,17.55,2.151,3.048-5.806,12.66,2.393,2.478,6.461,5.451-13.333L555.5,842.955l16.157-5.844,6.536-2.627,7.62-15.847,6.8-1.936,6.021-2.852,6.8,1.383-1.514,3.375,21.14,14.52,4.554,13.623,16.344,7.3,1.786,11,6.433,9.256,13.529-5.255,2.534-14.239,9.369-3.2,10.631-14.576,7.339,0.767,19.653-8.4-2.365-10.537,6.956-13.052,0.271-7.489,5.068-12.745,16.418-13.371,5.47,4.385,13.249,3.123-4.31-9.238,3.5-13.22-7.817-13.7,7.022-2.646,19.018,2.505,27.751,13.567,1.907,3.394,8.966,1.169,8.751-5.844,0.281-7.124,2.871-2.141,6.377,3.123,1.047-6.779-4.02-5.956-2.487-13.81,3.637-6.208,0.187-3.758-6.189-4.077-9.518,5.5-5.049-5.059-8.172-1.356,0.037-10.5,4.787-9.406h-0.029l0.973-.257,33.473,3.254,20.776-44.581L858,637.683l10.893-14.39L864.9,605.36l10.378,3.525,7.91-12.033-20.617-14.7-1.056-3.619-5.638-11.818L838.93,572.9l-8.957-12.2-11.407-1.758,4.039-9.331-0.981-6.573,7.985-5.33,10.173-19.831-3.272-4.1,1.066-6.844-4.8-9.537,5.255-9.425,3.7-9,9.733-1.935,7.162-1.627,3.011,7.125L872.478,493l3.161,26.9,0.9-.019,1.365-10.9,4.862-5.956,26.124,0.094L919.705,492.4l17.512,6.358,7.536-.917,14.848,1.721,10.6-3.721,0.346-11.248,2.711-2.571-3.581-13.81-6.685-1.514,8.368-10.715-3.329-28.649-8.19-3.721-1.739-3.319-11,1.019,0.056-7.162-7.592-7.891-0.561-10.715,3.216-10.463-1.608-10.921-11.107-5.133,4.469-10.865,1.328-15.483-27.638-45.413,9.247-5.535,10.659,1.991,5.245,12.8,16.007-20.289,6.5-3.581,0.655-.439,1.721-3.394,21.084-7.415,3.31-10.827,2.216-11.108Z" transform="translate(-13.335 -49.751)" fill="none" stroke="#000" stroke-width="4"/><text transform="translate(455.354 716.03)" font-size="102.328" font-family="DejaVu Sans" font-weight="700">1</text><text transform="translate(262.883 412.895)" font-size="102.328" font-family="DejaVu Sans" font-weight="700">2</text><text transform="translate(666.101 382.244)" font-size="102.328" font-family="DejaVu Sans" font-weight="700">3</text></svg>