<svg xmlns="http://www.w3.org/2000/svg" width="889.366" height="968.563" viewBox="0 0 889.366 968.563"><title>Députés sortants de Dordogne en 2017</title><path d="M226.95,514.971l0.926-17.176-4.909-6.614,7.946-8.03-0.077-5.162,9.678-6.207,11.432-1.7,1.291,5.751-10.625,10.092-0.049,2.96,6.081,6.326,5.814-.217,6.537,5.576,11.607-.315,3.99,4.222,2.945-.042,19.785-24.5L303.48,484l2.889-.274,7.1-11.93,6.719,5.071L334,475.619l12.652-7.217,7.084-4.874,5.211-10.176,7.623-2.742,0.344,0.112,7.441,3.03,9.931-1.929,2.679-.217-2.35-4.741,2.77-7.56,16.012-3.275,2.728,0.891,3.409,7.876,2.868,0.042,5.015-2.588,4.131-7.518,2.9-.288L431.58,421.9l1.627-11.537,7.89-3.577,12.014,1.564,8.066,4.11,1.4-4.727,3.759,2.546L468.751,412l10.815-4.615,5.772,1.038,9.791-10.794,2.209-1.929,7.6,3.921,2.258-1.88,2.96-8.192-7.666-8.122,5.267-7.055,8.647-.288,2.5-11.327,6.3-.274-0.407,2.945,12.617,6.4,9.047,24.974,7.918,8.521-1.838,5.646,9.363,1.108,3.072,17.807,12.736-5.618,9.258-11.109,5.555,1.164,8,7.834,2.77,8.149-3.892,4.18-0.1,8.563-4.853,2.5-1.6,8.149-2.581,1.08L576.056,455.8,563.4,462.432l-7.1-4.327,2.371,6.466-7.238,2.3-2.56-.792-3.977,3.591-3.942,7.715,1.431,14.272-3.268,4.755-19.6-1.8,0.259,8.409,3.387,4.327-3.6,4.236-1.445,8.332-5.337.435-3.086,4.369-9.756,4.657-8.276,2.791-5.492-1.326-5.856,12.463,4.664,13.01-1.83,5-11.018.989-6.691,4.615-5.576.33,2.868,10.317-16.916,3.107-13.438-10.317-2.455,2.455-1.276-2.483-9.51,4-2.553-1.038,0.014-2.777-5.765.891-9.335,7.3-3.8,8.108-7.757-2.4-5.19,2.069-5.555-6.34-2.728.919-10.317,13.55-5.2,12.414L359.377,613l-6.137,5.562-5.071-2.532-10.478-16.355-7.413,1.851,1.171,14.427-5.611,13.382-2.721-.961-6.768-12.371-16.636-1.8-0.687,17.463-8.626,11.67-0.211,5.765-1.227,1.136-8.178-2.286-5.414,1.564-1.873,1.9-9.987-3.03-7.911.877-2.9-5.779-16.089,1.08-8.143-7.315-8.458-1.683-16.7,4.138-2.728.673-5.246-6.41-14.069-9.37-8.479.2-7.708,3.451-1.326-5.3L156.732,619l1.424-15.956-2.511-1.052-6.887,4.236-7.2-3.766L139.6,597.68,142.06,586.3l6.62-5.421,10.366-23.684-0.568-3.85,5.436-9.889,15.8-6.34,4.11-4.082,8.886-18.095,10.681,1,1.185,5.421,5.989,5.176L216,524.713l8.353,1.711,5.092-6.277Z" transform="translate(-90.134 -8.761)" fill="#ff8080" stroke="#000"/><path d="M609.327,877.177L602.91,871.4l-10.955-3.465-6.578,4.657-0.835,8.367-5.015.806-9.208-4.727-1.845,8.051-8.311-1.206-10.12,4.825-19.722-.848-6.41,1.22L507.3,887.15l-1.073-10.162-4.5-10.218-10.576-3.682-5.141,6,1.08,5.19-2.1,1.613-6.831-3.752-10.24-.989-2.321-1.48-6.578,4.727-5.54,18.066-2.806-.659-9.482,5.989-2.841-.477-4.4-7.441-7.6-3.345-5.856.687-9.664,6.67-4.524,2.441-10.436-2.244-11.053,11.726-20.886,8.7-15.549-7.75-8.514.428-5.989-6.151-6.578,5.316-3.542-4.93,0.54-11.811,5.393-13.739-10.765-9.258,1.2-5.688,2.609-1.052-1.7-10.934-4.98-10.19-17.681-18.9-5.772-3.521L282.4,806.16l-3.689-7.75,0.189-10.12-4.993-14.2-1.339-11.614,10.878,2.153,5.695-5.407,5.505,0.933,0.112-7.834,8.416-5.779-16.1-14.974-7.546-3.7-11.285.056-10.38-3.752,2.819,10.45-1.192,2.23L247.753,747.3l-7.364,2.6-10.071,17.288-5.232-2.244-1.115-1.22-19.9-3.493-14.651.919-5.632,6.838-0.463.358L180.5,767.8l-2.3-10.752-5.751.056-7.806,1.522-4.152,9.714-2.862.274-6.291-5.477-5.66,1.108-1.809-.07-5.078-2.714-0.161-8.339-10.008-9.959-7.967,2.932-25.69-5.2,0.989-2.658,13.424-3.794,3.121-7.4,3.591-6.284-0.077-.176,2.1-4.93,4.657-2.588,2.1-7.658,0.729-.4,9.973-17-7.069-8.7-2.286-2.286-7.8-15.345,2.448-13.929,3.156-7.834-0.484-5.674,2.392-1.55,4.924,3.2,2.847-.729,5.576-13.353-2.665-17.533,2.09-8.409,0.933,1.838,1.957,4.783,7.2,3.766,6.887-4.236,2.511,1.052-1.424,15.969,7.02,3.942,1.333,5.3,7.7-3.451,8.479-.2L195.364,634l5.246,6.41,2.728-.673,16.706-4.138,8.458,1.683,8.135,7.315,16.089-1.08,2.9,5.779,7.911-.877,9.994,3.03,1.865-1.9,5.421-1.564L289,650.272l1.22-1.122,0.211-5.779,8.626-11.67,0.687-17.463,16.636,1.8,6.775,12.386,2.714,0.947,5.611-13.382-1.171-14.427,7.413-1.851L348.2,616.061l5.078,2.532,6.137-5.562,1.564-5.961,5.2-12.421,10.317-13.55,2.728-.9,5.555,6.326,5.19-2.069,7.806,2.356,3.8-8.093,9.335-7.315,5.765-.891-0.021,2.777,2.553,1.052,9.517-4,1.27,2.469,2.462-2.455,13.438,10.317,16.909-3.093,11.334,13.3,10.268,0.659,0.2,2.875,7.848,7.448-1.683,5.113,8.2,0.414,7.048,11.368,4.825,2.111-2.02,1.957,0.708,5.519-3.7,4.082-2.265,11.193,7.266,4.468,0.315,8.016,7.827-1.753,10.331,1.136,3.668,10.261,2.419,1.339,4.713-1.466,5.618,4.068,2.371,1.494,0.7,13.838,4.587,1.683,7.1,0.848,0.267,4.846,20.213-1.038,0.442,10.667,7.49,2.371,6.144,9.685,5.744-1.291,4.8,3.03,0.512,17.947,5.653,6.7,12.421,0.9,6.7-8.079-0.968-10.45,4.7-7.126,11.4,1.108-1.024,11.4,1.326,8.753,16.944,0.6,5.176,1.894,6.789,8.164-2.651.414L672.2,750.7l8.36,6.684,0.638,5.33,6.284,9.272-1.024,5.562,7.722,8.381,1.031,1.725-14.293,9.658-3.886,7.575-0.729,5.548-4.678,6.782,1.171,5.421,5.113,2.153,2.553-.947,1.865,10.723-6.137,9.138,2.483,4.86-2.356,5.071,5.653,6.067,15.682,5.751,7.743,6.586,2.258,5.218-8.093,36.659-10.822,3.044-13.473-5.576,2.974,7.259-10.184,4.271-6.873,8.578-4.825,2.644-7.1,4.972L637.77,940.74l-3.763,13.914-7.315-.659-13.466-3.436,1.662-10.66-5.155,1.739-2.532-7.013-4.79-4.846,11.116-8.276-0.351-13.753,4.776-2.49,0.9-8.016,4.7-2.63-10.134-1.22-5.723-4.573,3.121-6.095Z" transform="translate(-90.134 -8.761)" fill="#00c000" stroke="#000"/><path d="M552.561,410.92l1.838-5.646-7.918-8.507-9.047-24.982-12.61-6.382,0.4-2.945-6.3.259-2.5,11.327-8.647.288-5.267,7.069,7.673,8.122-2.966,8.178-2.258,1.894-7.6-3.934L495.15,397.6,485.359,408.4l-5.772-1.052-10.815,4.629-2.413-1.725L462.6,407.7l-1.4,4.713-8.066-4.11-12.014-1.55-7.89,3.577L431.6,421.869,424.476,434.4l-2.9.288-4.131,7.518-5.015,2.588-2.868-.028-3.409-7.89L403.421,436l-16.012,3.261-2.77,7.56,2.35,4.755-2.679.2-9.931,1.929-7.441-3.016-0.344-.112-7.623,2.728L353.76,463.5l-7.084,4.86-12.652,7.231-13.809,1.235L313.5,471.77l-7.1,11.916-2.889.274-4.159-4.068-19.785,24.5-2.945.056-3.984-4.236-11.614.315-6.537-5.562-5.807.217-6.087-6.34,0.049-2.945,10.625-10.092-1.291-5.751-11.432,1.7-9.678,6.193,0.077,5.176-7.946,8.016,4.916,6.614-0.933,17.19,2.5,5.134-5.092,6.277-8.353-1.7-5.436,1.824-5.989-5.19-1.185-5.421-10.681-1-8.886,18.095-4.11,4.1-15.794,6.326-5.442,9.889-1.024-1.192-3.409-4.874-1.8-11.782-9.594-14.889-8.325-3.079-14.819-.561-5.492-1.326-13.62,3.921-9.005,10.422-0.771-8.738,7.1-12.806L93.486,497.5l23.656-9.7-1.508-5.246-8.619-1.276-2.995-4.425,12.371-15.422,1.585-6.971,3.71-9.573,8.655-1.851,6.866-5.26,11.32-13.382,6.466,5.548,5.744,0.3,9.5-6.137,4.79,1.22,8.486,9.7,0.947,0.891,9.812,3.865,2.518-4.468,5.33-.176,1.62-8.521,5.73-1.606,10.085-10.794-2.728-4.888,1.27-5.695,2.623-3.6-1.094-4.643,5.134,1.206,12.477-3.044,3.682-8.97L247.066,371l7.764-1.725,7.708,2.055,3.43,0.372,8.332-7.069,2.413-14.286-3.416-16.9-0.189-.176-4.531-15.535-4.5-8.928,2.4-14.728,5.625-13.522,2.826-9.44,1.922-9.3,4.313-7.217,6.992-4.671,8.17,0.6,7.434-3.219-7.617-8.108L295.78,227.88l4.853,0.112,10.955,12.722,3.1-13.627,0.176-.274,13.143-5.162,3.829-7.588,8.514-1.88,0.575-5.751,17.87-6.508,8.682,6.81,5.253-1.564,0.617-13.641L381.3,180.49l2.854-3.409-0.947-4.5,5.049-1.4,4.748-11.958,4.762,1.024,5.688-.414,9.363-6.025,4.531-7.126L417,141.173l-4.412-3.366,10.59-19.82-2.476-4.945,2.356-4.587-1.676-5.274L414.3,94.731l-0.624-3.591,2.883,0.736,1.9-2.3,2.518-8.591,7.855-8.809,5.709-.919L436.349,83.3,443.5,78.74l8.4-.259,6.5-5.562L453.391,62.4l11.909-6.67,0.54-5.618,7.434-3.465-2.258-4.383,3.3-4.194,1.718-10.618,2.4,1.739,8.311-8.318,4.04-10.794,4.8,10.738,7.455,3.752,1.971,5.59,5.057,3.044,11.46,0.028L529.1,30.2l4.825,2.658,6.522-5.113,5.386-.645L559,32.508l9.749,14.763,8.037,2.686,1.01,0.056L570.928,81l-8.051,12.4,10.036,10.646,5.807,10.408,14.433-3.2,2.665,0.821,3.359,16.257,16.986-4.615,5.646-10.19,6.1-16.986,5.758-8.809L638.2,90.86l2.539,7.89,7.455,8.135,2.883,0.547,3.472-4.769,8.465,0.561,16.418-6.151,8.227,3.058,5.821-.877,3.57,4.685,4.622,0.736,3.654-3.177,3.717-4.559,16.545,4.671,8.634,15.331-2.013,8.164,1.95,8.669,5.828,9.917,8.122,3,0.182-.491,7.448,7.89,6.221,12.07,0.827-2.806,10.92-3.7,3.2-4.755,5.723-1.094,7.771,3.942,19.68,12.7-0.617,2.918-10.022,6.382-7.75,8.97-3.331,8.3-6.27,6.179,0.715,8.605,9.545,5.632,15.977-6.095,7.694,8.108,1.01,8.578,4.825,3.072,16.1-6.179,13.01,6.263,0.147,11.523,1.922,2.216,2.735,1.038,6.628-5.618,5.274,0.533,6.2,5.344,9.468,3.2,0.547,13.781-5.555,1.851-8.479-2.258-4.131,3.395,0.9,11.509,2.315,1.782,8.22-.919-2.315,5.4,4.573,6.614,10.7-7.834,14.069,9.5-2,13.522-2.336,5.113-4.909,2.728-5.877.435-7.575,4.573-1.922,8.4-4.671,10.394-8.458,7.82-14.37-1.178,2.966,14.069-1.417,2.49,1.907,1.017-1.585,8.135-4.1,3.289-3,13.55-2.735.14-10.149-9.1-20.157-14.777-2.518-4.573-2.7.126-7.862,6.4-2.462,1.136-7.287-7.778,0.105,2.791-6.635,4.236-17.814-13.339-2.069,1.809,3.058,15.85-4.566,1.424-10.913-3.191-12.2-7.161-6.116,6.957-4.481,2.932-8.69,10.38-9.293,5.232-2.041,5.632,5.548,9.741-0.288,5.618,6.291,15.64,3.64,4.383-5.127,4-7.448-3.892-5.632.147-1.859-11.235-8.114-8.037-2.714-11.067-3.787,2.96-4.587-.042-1.529,2.188L691,410.907l1.606,5.576L691.711,422l-6.242,6.039,3.752,7.441,1.1,7.476-4.383,3.724-16.4,3.633-0.344-.126-9.075,6.943-14.02,2.9-4.958-2.974L630.5,461.228l-6.046-2.974,4.271-7.588-1.024-5.688L616.1,451.473l-8.563-1.354-5.344-6.866-2.9-.232,0.091-8.563,3.9-4.18-2.777-8.149-7.988-7.834-5.555-1.164-9.265,11.109-12.736,5.618-3.072-17.807Z" transform="translate(-90.134 -8.761)" fill="#ff8080" stroke="#000"/><path d="M681.951,859.644l-5.646-6.067,2.356-5.057-2.483-4.874,6.137-9.138-1.865-10.723-2.56.947-5.106-2.153-1.171-5.421,4.678-6.768,0.723-5.562,3.892-7.575,14.293-9.658-1.031-1.725-7.722-8.381,1.024-5.548-6.284-9.286-0.638-5.33-8.36-6.67,0.365-2.672,2.644-.414-6.782-8.164-5.183-1.88-16.944-.617-1.318-8.753,1.024-11.4-11.4-1.108-4.7,7.14,0.961,10.45-6.7,8.079-12.421-.9-5.653-6.712-0.512-17.933-4.8-3.03-5.744,1.291-6.144-9.7-7.49-2.356-0.442-10.667-20.213,1.024-0.267-4.832-7.1-.848-4.587-1.7-0.7-13.838-2.371-1.48-5.618-4.082-4.713,1.48-2.427-1.339L529.3,655.42l-10.338-1.136-7.82,1.753-0.315-8-7.266-4.468,2.258-11.208,3.7-4.082-0.708-5.519,2.02-1.943-4.825-2.111-7.048-11.368-8.2-.414,1.683-5.113-7.848-7.448-0.2-2.889-10.268-.645L462.79,577.516,459.922,567.2l5.576-.33,6.691-4.615,11.018-.989,1.83-5-4.664-13.01,5.856-12.463,5.492,1.326L500,529.327l9.756-4.657,3.086-4.369,5.344-.435,1.445-8.332,3.6-4.236-3.387-4.327-0.259-8.409,19.6,1.8,3.261-4.741-1.431-14.286,3.942-7.715,3.977-3.591,2.56,0.792,7.245-2.3-2.377-6.466,7.1,4.341,12.659-6.642,14.209-1.024,2.588-1.08,1.592-8.149,4.86-2.5,2.9,0.232,5.344,6.866,8.563,1.354,11.607-6.495,1.017,5.688-4.264,7.588,6.039,2.974,10.646-4.166,4.958,2.974,14.02-2.918,9.075-6.929,0.344,0.126,16.4-3.633,4.383-3.724-1.108-7.49-3.745-7.427,6.242-6.039,0.891-5.519-1.606-5.576-7.287-8.781,1.529-2.188,4.587,0.042,3.78-2.96,2.721,11.067,8.114,8.037,1.859,11.235,5.632-.147,7.448,3.892,5.127-4-3.64-4.383-6.3-15.64,0.295-5.618L709.4,391.7l2.041-5.632,9.293-5.232,8.69-10.38,4.481-2.932,6.116-6.957,12.2,7.161,10.913,3.177,4.566-1.41-3.065-15.864,2.069-1.8,17.814,13.339,6.642-4.236-0.105-2.791,7.287,7.778,2.462-1.136,7.862-6.4,2.7-.126,2.518,4.573L834.032,377.6l10.149,9.11,2.735-.14,8.844,4.685-1.494,4.972L865,400.855l11.249-.617,0.835,11.537L864.66,423.859l-13.851,4.755-1.382,6.466-1.725,8.626,3.03,5.028,23.067-2.3,10.394,10.373,1.073,2.742-5.891,9.658-7.932,7.743-7.848.259-0.372,5.3,15.352,7.806,6.123,6.249,10.906,4.11,7.3-4.587,7.6,3.969,10.878-3.3,0.007,6.438,8.578,1.41,8.437-2.833,10.653,5.043,2.02,1.108,6.747,2.974,0.253,5.646-2.749,4.832-9.819,5.6-8.465-.176,1.073,4.481,1.929-1.865,5.948,4.769-0.933,8.248,5.681,9.728,2.847,4.945-3.843,7.631,5.674,1.508,1.5,5.709,13.753,19,8.108,9.1-8.984,7.189-14.335,3.422,3.493,11.095-0.435,16.559,3.163,4.643-0.351,8.521,5.73,10.092,2.889,0.217,1.382,5.232-1.606,2.2,5.057,15.521-10.688.435-7.806,7.974,4.615,1.136,2.125,9.286,10.744,6.277,1.382,8.914-3.654,4.524-11.5,1.753-3.177-1.522-1.309,6.7-2.209,1.4-1.613,10.3-0.2,1.48-8.3-.779L937.07,748.2l-7.687-1.354-2.966,8.037,2.167,20.037-4.516,1.108L913.7,779.936l-8.143-.344-14.5,6.943-4.685,6.614,5.548,0.75,0.715,2.756-3.963,7.315,6.551,5.113,8,8.234L899.948,834.7l-9.461-3.275-1,13.3-6.866,11.726-10.113-6.4-5.071,9.987-10.085,4.545-1.024,8.493L848.61,876l-3.156,4.559-0.091,1.206L819.14,883.09l-8.1,3.422-3.528,4.727-8.542,1.809,1.845,13.22-1.964,1.838,3.942,11.039-1.318,5.709L787.39,938.32l-11.853,10.723-6.7,9.082,4.355,10.162-2.363.765,2.2,6.957-8.22.806L757,974.025l-0.7-2.7,1.669-8.332-4.061-7.476-8.458-1.235-6.039-6.067-8-2.862-12.456-6.249-9.882-14.23-11.109-8.521-6.333,5.688-13.4-3.478-2.974-7.259,13.473,5.59,10.822-3.044,8.093-36.673-2.258-5.218-7.743-6.578Z" transform="translate(-90.134 -8.761)" fill="#ff8080" stroke="#000"/><text transform="translate(198.867 544.513)" font-size="76.756" font-family="DejaVu Sans" font-weight="700">1</text><text transform="translate(324.966 746.378)" font-size="76.756" font-family="DejaVu Sans" font-weight="700">2</text><text transform="translate(407.277 266.437)" font-size="76.756" font-family="DejaVu Sans" font-weight="700">3</text><text transform="translate(621.94 628.086)" font-size="76.756" font-family="DejaVu Sans" font-weight="700">4</text></svg>