<svg xmlns="http://www.w3.org/2000/svg" width="297.254" height="184.131" viewBox="0 0 297.254 184.131"><title>Députés sortants des Pyrénées-Atlantiques en 2017</title><path d="M210.588,72.417l2.932,5.158,3-.971,2.558,2.343,1.359,0.449-0.276-1.345,1.084-.8-0.2-.656-0.28-1.32,1.875-1.915,2.427,1.18,1.138,1.832,2.5,1.293,1.159,0.679,3.327-.353v1.27l1.046,0.7-0.211,6.829-0.319,3.834,2.439,2.917,2.619-.971,1.953,0.034,1.011-.854,1.222,2.057,2.907-4.039-0.647-2.556-1.71-1.234-1.472-2.358-0.342-.274L240.8,82.051l0-.9-3.536-1.47-0.363-.66,0.587-.476L237.1,76.776l1.454-.614-0.023-.986-1.9-.42,0.7-2.226,0.622-1.289-0.668-.138-0.154-1.428,3.262,1.188,1.034-1.9-1.146-2.788,0.808-1.263-1-1.136-1.245.813-2.9.363,0.269,1.333-2.136-.04-0.015-1.809-0.693,0-2.051-1.042,1.8-3.4,0.186-4.4,3.792-.453,1.149-1.023-1.046-3.557-1.458-1.612-0.727.09-1.468.127-1.788-1.312-2.777-.85-0.852,1.888L225.7,50.12,224.31,49l1.479-1.635-0.263-1.416,1.071-1.986,1.3-1.792,0.687,0.3,1.119-.865-5.868-2.926-1.253,1.541-1.341-.2,0.737,1.942-1.351,2.669,0.176,5.34,0.265,1.8-3.9,2.3-1.385-.641-0.221.57-1.725.361-0.794,1.086,0.879,0.967-0.612,2.065-2.339,1.4-0.119,1.963-0.933.979,2.128,1.777-1.2,3L209.3,69.64l1.412,1.506Z" transform="translate(-4.04 -9.404)" fill="#ff8080" stroke="#000"/><path d="M277.321,71.831l0.04-2.328,0.992-1.211,3.46,0.888-0.484-5.718-2.134.173-0.645-2.729-0.391-.944-1.453-3.212-5.215,2.65-1.435-.319-0.288-2.941-1.479-.487-1.14-2.1L265.344,52l0.242,2.953-1.959,1-2.333-1.738-1.738-2.759-0.589-2.447-0.614-2.226-4.085,1.664-0.992,1.065L251.4,49.27l-2.024.986L245.7,47.39l-2.585,1.14-0.649,2.155,0.952,2.118-0.167,1.506,1,0.982-0.117,2.276-2.36-.157-1.232-.881-0.167-2.072-2.122-.33L237.1,55.149l-3.792.453L233.123,60l-1.8,3.4,2.051,1.042,0.693,0,0.015,1.809,2.136,0.04-0.269-1.333,2.9-.363,1.243-.817,1,1.14-0.808,1.263,1.146,2.784-1.034,1.907-3.262-1.188,0.154,1.428,0.668,0.138-0.622,1.289-0.7,2.226,1.9,0.42,0.023,0.982-1.454.618,0.393,1.765-0.587.476,0.363,0.664,3.536,1.47,0,0.9,0.886,1.293,0.343,0.274,1.472,2.358,1.71,1.23,0.647,2.56-2.907,4.039-1.948,3.327,0.081,0.775,1.857,1.238-0.146.668,1.2,0.626,0.017,1.078-2.258-.676-1.416.535-0.6,3.066-1.531,1.731,0.867,1.4,3.661,3.7-0.265,2.162,1.692,3.231-1.648,1.416,1.737,1.341,1.988,0.514-0.547,2.038,1.3,0.676-0.138,1.566,1.268,0.9,0.365,1.491-1.811,4.212-0.058.783,0.136,0.771L247.236,133l2.587,1.761,2.855-.723,0.881,1.263,3.934-.184,2.03,1.207,3.909-2.2,1.51-1.723,1.493-.288-2.734-2.433,0.042-1.533,1.742-3.421-0.273-1.5-1.393-1.7,0.919-1.057-0.311-2.3,2.79,0.908,1.641-2.347,3.318-1.5,1.259-4.678,0.616-.581,1.383-1.495,0.169-2.017,1.479-2.658L277.818,104l1.583,2.529,1.756-2.207,3.813-.044-1-10.122,0.639-.37,1.353,0.566,2.02,0.929,0.43-1.428,0.3-2.253,3.137-4.381,1.172-3.59-0.013-.771L291.8,81.9l0.328-.7-2.778-.779-0.487-1.353L288.8,76.115l1.65-1.487,1.071-3.141,0.382-1.353,3.63-.491,1.892,1.282,0.695-.322,1.865-2.489,0.221-.361,0.51-1.431-3.8-3.684-0.1-1.967-0.7.319-0.839-1.2,0.971-2.076-0.409-.551,0.629-1.215-1.134-.119,0.637-.645-0.556-.409,2.2-5.423-2.356-2.115,0.374-3.024-2.289.255L291.992,47.6l-1.176-.813-1,3.32-0.789,1.946-3.962-.044-0.349-.263-2.748,4.993-0.294.881-0.823,2.59,1.831,0.919,0.5,1.046,0.161,0.015,2.172,2.571,0.23,1.368-0.345,1.455-0.464,2.863-0.236,2.036-0.031,1.5-0.879,1.2-0.127.048-3.362-1.368-1.245.052-0.94,0-0.368.944,0.487-.086,3.239,1.777-0.9,3.759,1.641,1.585,0.835,1.243-0.244,2.237-1.445,1.717-0.7-.28-1.558,1.4,0.119,1.38-0.3-.023-2.2.345L275.8,88.8l-2.688-5.678,0.545-2.2-0.017-.959,1.24-.9,1.228-2.615,0.718-1.326,0.919-.28,0.368-.94-0.288-.723Z" transform="translate(-4.04 -9.404)" fill="#ff8080" stroke="#000"/><path d="M204.425,20.02l-0.869-1.24-5.378,4.4-2.337.209-0.086-1.573-2.675-1.293-0.4-.821-1.479.221-2.456-1.491,2.75-3.392-3.318,1.36-4.484,2.658-1.894-1.147-1.161.94-0.1,3.728-2.118-.019-1.2-.85-0.906-2.379-5.906-5.269-1.959.833,0.09,2.162-2.024.432-1.5,1.746-2.869-1.125L158.665,19.7l-0.083,2.41-2.1.342-1.347-.51-1.226-.288-3.625-1.082L147.3,21l-1.17.963-0.737,2.124-0.7.278-1.247-.862-1.334.011-0.944,1.105-2.044-.672-4.244-1.117-2.115.727,1.834,1.207,0.123,2.991-0.756,2.084,0.226,1.128-4.179-.436-0.927.956-0.526-.52-0.938-1.18-2.187-.514-3.736.7,0.921,3.078,1.1,2.233L122.566,39l0.622,2.2,3.066,2.053,0.629,4.684,1.073,2.042,2.118-.779,2.011-1.034,1.836-1.487-0.305-.589,1.159-2.312,0.7,0.3,1.32-.746,2.982,0.416,3.306,1.424,1.648-.063,0.879,1.007,1.973,0.251,1.5,1.266,0.631-.165,3.049-.4,1.029-1.953,2.635-1.3-0.639-2.042,0.806-1.238L157,39.552l1.5,2.665,1.7,1.466-0.507,3.642,0.57,1.412,1.276,1.529,2.571,1.566,2.251-.177,1.633,1.518,2.268,0.082,3.442,1.5,1.18,1.412,2.04,3.849,2.629,0.873-1.176.858-1.406.079,0.612,1.238-1.157,1.825,1.719,1.963,1.124-.971,0.691,0.288,0.925,2.54,0.708-.031,0.253,1.4,2.59-1.1,0.758,3.632,1.288,1.821L185.9,76.609l-0.679.342-0.7,1.263-2.159.274,1.7,1.424-0.182,2.107,2.984-.284,3.011,2.241,0.061,1.5,1.059,1.082-0.13,2.264-0.061.224,1.46,0.255,0.42-.626,0.892,1.957,1.048-.771,0.645-1.93,1.846-3.1,0.67-2.78,1.322-1.769,0.618,0.5,2.834,3.834-0.879,1.706,2.088,2.387,0.315,2.368,1.27,1.289L205.263,93,202.6,96.21l3.318,1.7,0.66-1.537,1.955,0.806,1.347,2.556,3.548,3.016,5.012,0.656,1.274,1.769-0.065,1.293,2.778,1.125,3.694,0.547,2.172-2.076,0.76-.008,1.172,0.806-0.931,1.151,1.973-.7,0.819-3.406,1.192-.382,1.836,0.6,3.108,2.049,1.531-1.727,0.6-3.07,1.416-.535,2.258,0.676-0.015-1.078-1.2-.626,0.146-.668L241.1,97.91l-0.081-.775,1.948-3.327-1.222-2.057-1.011.854-1.953-.034-2.619.971-2.439-2.917,0.319-3.834,0.211-6.829-1.046-.7v-1.27l-3.327.353-1.159-.679-2.5-1.293-1.138-1.832-2.427-1.18-1.875,1.915,0.28,1.32,0.2,0.656-1.084.8,0.276,1.345-1.359-.449-2.558-2.343-3,.971L210.6,72.419l0.119-1.266L209.3,69.646l1.552-2.032,1.2-3-2.128-1.777,0.933-.982,0.117-1.959,2.341-1.408,0.612-2.065-0.879-.967,0.794-1.086,1.725-.361,0.221-.566,1.385,0.637,3.9-2.3-0.265-1.8-0.176-5.34,1.351-2.665-0.737-1.946,1.339,0.2,1.255-1.541,5.868,2.926-1.119.869-0.687-.3-1.3,1.792-1.071,1.986,0.263,1.416-1.479,1.639,1.387,1.117,2.441-1.23L229,47.01l2.775,0.854,1.79,1.309,1.468-.127,0.727-.09,1.456,1.612,1.046,3.559,2.124,0.33,0.167,2.072,1.23,0.881,2.362,0.153,0.115-2.276-0.994-.979L243.43,52.8l-0.952-2.118,0.649-2.159,2.585-1.136,3.669,2.863,2.024-.982,1.879,0.244,0.992-1.065,4.085-1.667,0.614,2.23,0.589,2.443,1.738,2.759,2.333,1.742,1.959-1L265.353,52l1.806,1.552,1.14,2.1,1.479,0.487,0.288,2.945L271.5,59.4l5.213-2.65,1.454,3.212,0.39,0.948,2.314-.708,0.823-2.59,0.294-.881,2.748-4.993L285.086,52l2.28-2.713-2.659-2.627,0.455-2.162,0.789-2.2-0.614-2.214,5.486-.574,1.4,0.09,0.752-1-1.222-1.077-1.326-.169-0.265-2.968-2.115-.7,0.384-1.435,0.434-1.867,0.647-1.353-0.7-1.069,0.119-1.266-0.9-1.522-1.134-.743-2.21-3.084-2.836.986-0.716-.04-0.549-1.263,0.833-2.658-0.614-.84,0.259-1.431-0.785-2.777-4.148-.679-1.092.944-1.552.019-2.047-.975-1.115.9-0.7-.048-2.358-3.414-4.642,2.89-0.913-2.08-2.968.81L257.1,13.183l-0.641-.436-0.689.518-0.75.008-0.835-1.247-4.333.908-0.624,2.155L248.064,16.6l-1.128-.76-0.073,1.289L246.157,18.5l-4.981,1.856-2.009-1.113-0.775-1.263-5.781-1.439-1.9,1.117-0.875-1.128L224.672,20l-1.957.664-1.748-3.295,1.833-.944,2.849-3.342-1.579-2.233-1.276-.629-2.059,1.957-0.553-.453-6.915,4.588,0.054,0.173-0.89,1.278L210.365,18.9l-4.456,3.283-0.72.082Z" transform="translate(-4.04 -9.404)" fill="#ff8080" stroke="#000"/><path d="M189.04,175.2l-1.078-2.56-2.734-2.713-2.988.743-3.408-1.8-1.639-1.641-1.025-3.707,1.481-1.758-1-2,0.188-2.257-0.388-1.664-1.17-.6-2.013-4.033-2.234-.353-2.83.888-4.576,2.957-3.912-.472-4.7.543-2.98-1.027-2.37-.056-0.516-1.416-1.525-.361-2.27,2.057-3.868-.134-3.636-1.487-4.463-3.2-1.593-2.748-0.556-.57-0.7-.382-9.393-1.255-1.984-1.243,0.15-1.529-2.253-.5-2.45-1.9-4.377,2.938-0.856-1.243-0.18-2.328-4.557-2.93-0.257.716-1.4.052L98.3,132.376l-3-.764-2.725,2.78-2.3-.278-1.723-2.6-5.92-3.523,1.821-5.16,2.606-3.44,1.815-2.024-8.149,1.3-1.973,1.117-2.113,3.287,0.6,3.055-0.445,5.494-1.332,5.359-0.677.4-1.52-.412L61.22,133.585l-2.661-3.861-2.5-3.991-0.14-1.556,1.284-1.942,6.085-4.778,0.058-.783,1.742-1.372,0.846-2.913-0.476-2.118,1.015-1.128,0.754-.161,0.466-5.336,2.458-1.829,0.205-7.652,0.81-1.32,0.025-1.552-0.7-3.8L66.9,83.443l-1.36-.72,3.176-2.1,1.272-1.8,2.872-.948,0.812-1.3,1.357-.622,4.244,0.99,1.159-.982-1.1-2.87-2.989-.232-0.664-1.4-1.963-1.038L73.571,68.9l2-1.959L73.8,60.221l-3.285-4.294L69.449,54.45l-0.24-1.435,1.986-2.1-1.621-2.443,1.247-.593,1.913-2.608,5.238,1.278L81.064,46.6l4.588-.771,2.441-1.888,2.439,1.479,1.41-.177,0.576,0.543-2.028.862-1.639,1.612-1.213,3.567-1.558,3.44,2,1.011,0.261,2.26,1.276,1.871L90.361,62.8l-0.148,6.735,2.13-.221,0.919-1.09,0.445-2.038,1.19-.664,1.882-.641L98.715,65.4l0.936-1.215,2.172-.581,3.318-3.181-2.487-3.747-1.13-2.017-0.094-3.684L98,46.127l2.257-2.036,2.782,0.817,3.586,0.858,4.553,0.652,7.43-1.95,0.5,0.46,1.351-2.241,0.589,0.345,0.163,1.023-0.265,1.474-1.395.52-0.485,1.412-1.27.787,1.414,2.529,0.7,0.311,4.1,0.61,0.355,1.33,3.557-3.066,2.117-.779,2.011-1.034,1.836-1.487-0.305-.589,1.159-2.312,0.7,0.3,1.32-.746,2.98,0.416,3.308,1.424,1.646-.063,0.879,1.007,1.974,0.251,1.5,1.266,0.631-.165,3.049-.4,1.029-1.953,2.635-1.3-0.639-2.042,0.806-1.238,0.407-.971,1.5,2.665,1.7,1.466-0.507,3.642,0.57,1.412,1.276,1.529,2.571,1.566,2.251-.177,1.631,1.518,2.27,0.082,3.442,1.5,1.178,1.412L176.9,60l2.629,0.873-1.176.862-1.406.075,0.61,1.238L176.4,64.874l1.717,1.963,1.124-.971,0.693,0.288,0.925,2.54,0.708-.031,0.253,1.4,2.59-1.1,0.756,3.632,1.289,1.821L185.873,76.6l-0.679.342-0.7,1.263-2.159.274,1.7,1.424L183.851,82l2.982-.284,3.013,2.241,0.061,1.5,1.059,1.082-0.132,2.264-0.059.224,1.46,0.255,0.42-.626,0.89,1.957,1.048-.771,0.645-1.93,1.848-3.1,0.67-2.777,1.32-1.773,0.62,0.5,2.834,3.834-0.879,1.706,2.088,2.387,0.315,2.368,1.27,1.289-0.09.637L202.569,96.2l3.318,1.7,0.66-1.537,1.953,0.806,1.349,2.556,3.548,3.016,5.01,0.656,1.274,1.769-0.065,1.293,2.78,1.125,3.692,0.547,2.174-2.076,0.76-.008,1.172,0.806L229.264,108l1.973-.7,0.819-3.406,1.192-.382,1.836,0.6,3.108,2.049,0.867,1.4,3.659,3.7-0.263,2.162,1.692,3.235-1.648,1.412,1.735,1.341,1.99,0.514-0.549,2.038,1.3,0.679-0.138,1.562,1.268,0.9,0.365,1.491-1.811,4.216-0.058.783,0.136,0.768,0.484,0.618,2.587,1.765,2.855-.723,0.881,1.259,0.585,3.657-1.272,2.65-3.742.994-0.75,2.991,0.432,6.917,0.944,1.188,0.745,3-0.923,2.706-2.1-.173-2.485,2.761-2.262.378,0.418,3.012,1.357,1.844,0.021,2.28,1.4,3.527-1,4.361-2.1,3.227-1.476-.518-2.264.445-2.573,3.957-3.9,3.744-3.577-1.364-5,2.178-8.721-4.835-1.04-2.061-1.406.618-2.32,3.074-0.451,3.721-2.848.873-1.522,2.556-2.287-.386-0.413-2.2,0.762-1.349-0.094-1.518-1.216-.833-2.936.846-1.41-.629-0.34-5.261-3.147-2.124-2.368-3.024Z" transform="translate(-4.04 -9.404)" fill="#f90" stroke="#000"/><path d="M57,28.155l0.347-3.74-2.625-1.357-3.557,2.755L47.339,25.2l-4.07,7.954,2.345,2.061-0.023,5.476,2.262,0.589,0.768,1.255,3.55,0.349,1.738-1.2,1.665,1.514-0.029,2.316,2.235,0.66,0.938,2.761,5.321,1.053,1.414-.57,1.345-1.8,2.782,0.865,1.247-.589,1.913-2.611,5.238,1.278,3.091,0.048,4.588-.771L88.1,43.947l2.439,1.479,1.41-.173,0.576,0.539-2.028.862-1.639,1.612-1.213,3.567-1.558,3.44,2,1.015,0.261,2.257,1.276,1.871,0.746,2.391-0.148,6.735,2.13-.221,0.919-1.09L93.715,66.2l1.19-.668,1.882-.641,1.936,0.518,0.936-1.215,2.172-.581,3.318-3.181-2.487-3.744-1.13-2.02-0.094-3.684-3.431-4.845,2.257-2.038,2.782,0.817,3.586,0.858,4.553,0.652,7.43-1.946,0.5,0.46,1.351-2.245,0.589,0.345,0.163,1.027-0.265,1.47-1.395.52-0.485,1.412-1.27.787,1.414,2.529,0.7,0.315,4.1,0.606,0.355,1.33,3.557-3.062-1.075-2.046-0.629-4.68-3.064-2.057-0.624-2.2,1.147-3.7-1.1-2.233-0.923-3.078-0.84-2.521-1.13-.75-1.391,2.5-2.894-.547-1.468,2.45-2.715.837-0.76.067-0.5,2.193-0.72.24-1.408-1.713L105.9,33.837l-0.65-.4-0.029-.919-0.326-1.829,1.128-.7,4.463-.288,1.065-.967-0.491-1.4L107.8,25.283l-0.9-2.1L104.51,21.52l-3.494-.008-1.349,1.312-2.237,2.17-5.371,3.1-1.522.829-5.142,3.323-5.064-1.478-1.938.453-0.1-.048L72.625,33l-7.269-.5-0.56.067-1.834-3.452-4.523-1.282Z" transform="translate(-4.04 -9.404)" fill="#ff8080" stroke="#000"/><path d="M38.664,40.006l-5.129,8.151-1.186.119-0.721.9L27.852,52.83l-4.4,1.326,1.514,1.9L23.759,57l-2.2-.854,0.136-.754-0.721-.244-7.719,3.216-3.007-.637-1.56,1.788L5.852,60.831l1.172,1.545-2.28,3.08L7.2,67.191,8.669,66.9l0.165-.034,1.3,0.768,0.278,1.545,2.032,1.078-0.142,3.1,1.41,3.632,2.986-.547L18.265,74.7l1.355-.66,1.364,0.672,2.782-1.128,2.247,0.334,1.819,1.333,1.447-.46,0.046,0,1.982,1.159-1.032,4.58L31.7,85.079l1.5,1.832,0.725,0.326,5.482,0.153,2.276-5.029-0.361-2.991,5.294-1.125,3.82,0.031,1.944,2.443,1.541,0.13,2.535,1.809,3.73,1.094,2.855,0.416,2.506-1.451,3.176-2.1L70,78.828l2.872-.948,0.812-1.293,1.357-.626,4.244,0.99,1.159-.982-1.1-2.87-2.989-.232-0.664-1.4-1.963-1.038-0.146-1.541,2-1.959-1.763-6.716-3.285-4.294-1.069-1.478-0.24-1.435L71.2,50.918l-1.621-2.447L66.8,47.606l-1.345,1.8-1.414.57L58.72,48.919l-0.938-2.761-2.235-.66,0.029-2.316-1.665-1.514-1.738,1.2-3.55-.349-0.768-1.255-2.262-.589L45.614,35.2,43.269,33.14l-3.26,2.673-0.048,1.5Z" transform="translate(-4.04 -9.404)" fill="#ff8080" stroke="#000"/><text transform="translate(147.849 103.001)" font-size="21" font-family="DejaVu Sans" font-weight="700">4</text><text transform="translate(40.182 60.834)" font-size="21" font-family="DejaVu Sans" font-weight="700">6</text><text transform="translate(88.182 33.322)" font-size="15.941" font-family="DejaVu Sans" font-weight="700">5</text><text transform="translate(184.015 42.001)" font-size="21" font-family="DejaVu Sans" font-weight="700">3</text><text transform="translate(213.765 60.834)" font-size="21" font-family="DejaVu Sans" font-weight="700">1</text><text transform="translate(248.265 82.501)" font-size="21" font-family="DejaVu Sans" font-weight="700">2</text></svg>