<svg xmlns="http://www.w3.org/2000/svg" width="909.29" height="838.819" viewBox="0 0 909.29 838.819"><title>Députés sortants de la Creuse en 2017</title><path d="M896.421,459.3L896.1,438.851l4.222-4.842,2.128-16.035L905,418.147l1.973-4.73-4.558-33.172-12.692-2-9.762-9.15-0.155-9.779-4.8-9.09L870.2,312.358l0.818-.939-20.058-11.192-8.168-19.92,1.327-6.971,0.525-3.653-7.376-7.979-19.92-9.15-6.987,1.749-5.489,9.34-3.4-.861-4.213-13.346,3.7-12.941-23.815-22.738-1.525-.422L764.31,233.745l-3.223,1.629-6.066-12.924-17.353-1.922-14.406-10.046-2.171-6.712-6.971-1.482,4.179-5.617,1.293-9.477,10-9.745,10.176,0.035-0.509-3.5-3.7-9.943-13.854,2.49-8.435-6.161-10.262-1.533-1.577-3.179-4.661-23.746,2.654-2.309-2.43-6.884,1.706-3.3-17.645-2.895-2.413-2.679-24.177,2.189-16.707-5-9.477,5.471-12.537-.991-13.6.181-6.3,2.981-18.042-.456-9.168,11.442-10.856.741,0.1-.3-6.436-1.956-5.514-8.435-6.582-1.309-10.951.6-13.975-4.058-5.377-4.524-21.23-2.189-1.689-4.575-8.805-6.678L438.769,107.2l-4.825-8.565-5.859-3.317-8.581,4.8-8.8-2.386-2.818,8.7-22.118-.9-8.176,7.083-17.672-4.894-1.2-7.47L347.9,89.823l-2.783-7.048-37.1,5.2,3.714,4.8,4.127,5.937-2.223,2.878,3.274,10.33-8.039,16.1,1.3,7.151-13.915,11.192-2.714,6.462-13.5-4.73-18.878-26.3-16.086,14.638-4.713,9.866-10.33,10.115-10.072-4.076-9.469-14.811,4.989-17.051-8.917-3.989-6.066,3.774L194.1,132.731l-10.632-1.163-2.318,2.74L167.1,145.466l-6.582-.069-1.844-21.825-6.531-8.4-6.9-2.4-10.813,7.858-1.3,6.712-6.358,7.892-2.318,11.546-6.161-2.757-6.539,3.447-11.666,18.818-13.553,4.765L80.5,180.37l-0.216,7.419-15.7,9.322-4.032,5.617,12.028,7.083,10.365-.12,4.007,5-5.2,8.16,2.74,20.7L72.07,249.229,66.125,268.8,76,270.933l4.394,5.385-9.021,5.505-6.859-1.982-6.307,8.737,0.9,6.867,8.616,6.057-1.017,7L50.22,311.911l-12.1,20.618-3.308,1.309,8.917,19.653,5.945,3.886,2.688,10.615,6.049,2.826,8.659,5.807,10.434-1.517L83,378.427l8.978-5.42,6.109,3.722-1.508,6.582,4.532,9.443L91.078,403.138l13.726,3.231,8.547,11.322,10.158-1.413-0.948,7.151,5.73,4.136,1.973,6.694-8.323,5.842-3.671,10.046,8.418,6.04,0.534,7.134,5.23,6.8,3.412-4.558,9.84,4.713,0.1,7.453,11.08,6.729-6,17.6,2.714,6.307-0.888,2.4,1.844,7.117,7.1,8.366L153.579,538.4l-2.43,18.171,3.335,10.5,19.283-.1,3.042,0.637,3.886,11.21,2.654,8.6-1.826,2.386-6.281,12.743-7.186-.388L153.4,612.645l-13.01,3.783-0.525,9.624-6.591,1.112,3.567,9.728,13.639,1.258,10.856,13.734,6.393-2.455,12.743,3.516,2.878-2.1,2.86-13.561,17.37-2.473,9.409,3.179,5.842-2.722,1.654,6.531,6.678,0.491L219,653.108l11.407,20.5-0.06,4.024-6.591,2.507-7.444-6.582-2.955,9.926-4.7-3.653-7.186.655-8.082,6.953,9.262,3.972,2.413,13.476-3.36,9.477L220.8,724.742l17.835,2.068,5.2,12.433,5.446-5.066,6.987,1.008,13.191-6.462,14.6,2.74,10.882-2.421,7.358-8.3,11.8-4.489L314.95,705.2l10.1-2.327,6.566,17-4.652,9.8,3.292,10.133,13.682,3.231,13.95,16.612,6.454,3.317,3.292-1.62,0.172-7.307,3.774-6.006,6.462,12.045,9.073,3.9,0.612,3.5,3.584-.181,16.552,13.028,6.694,27.649,6.729-1.232-4.239,9.943-10.615.525-5.617,4.239,8.961,10.856-9.486,18.344,1.448,3.2,6.729-1.982,5.738,8.7-8.556,6.126,0.285,3.516,3.575,0.568,9.28,10.753,8.771-5.876,6.04-8.581,6.85,1.077,5.032,5.169,6.747-.9,2.688-13.966,6.1-3.9,14.294,0.069,4.833,4.748,6.152-3.783,5.342-9.237,2.43-17.784,9.21-5.971,18.085-1.378,7.186-8.263,3.628,0.534,5.084,9.71,16.31,8,1.258,10.4,0.164,8.737,8.875-6.074,12.028,7.625,11.735-8.013,13.019,11.882,7,1.309,3.162-14.9,9.779,3.989,7.565,12.028,13.786,3.6-6.987,16.509,2.981,2.034,9.512-3.266,1.284-10.719,7.307,15.681,6.875-.422,4.273,5.558,6.427-1.413,8.1,6.126,9.788-3.369,0.413,28.726,10.847-.9,8.444-6.729,6.5-3.214,9.7,4.239,15.535-14.337,5.523-9.374-0.913-7.22L745.8,872.74l2.447-2.679,14.1-4.11,4.575,0.44,5.652,4.273,21.118-.388,18.49,10.2,6.333-8.685,6.945-1.766,9.365-10.6,3.429-.138,0.913-10.046,14.208-9.038-5.049-9.658-10.236-2.706-3.1-6.617-8.969-5.67-6.651,2.352-8.444-11.494-2.386-19.687L777.159,746l10.3-10.245,17.749,2.964,4.661-4.929,1.56-6.393,9.521-.776,1.344-6.729-4.575-5.032,0.008-10.245,13-.285,3.007-4.54,6.609,0.181,6.315,7.014,6.815,0.491,6.867-12.39,0.276-10.891,7.246-.845,30.277-25.71,3.412-1.645-10.227-3.886-1.258-3.429,1.439-10.839,5.583-4.661-0.112-6.987,12.218-7.5-1.775-7.065,2.059-2.912,27.916-9.021,1.878-10.15-9.219-11.158-2.688-9.926,3.774-20.231,3.231-18.594-21.5-14.828-13.614-30.846-3.05-10.891,1.474-7.341Z" transform="translate(-32.125 -80.576)" fill="#ff8080" stroke="#000" stroke-width="4"/><text transform="translate(436.163 386.014)" font-size="94.296" font-family="DejaVu Sans" font-weight="700">1</text></svg>