<svg xmlns="http://www.w3.org/2000/svg" width="843.735" height="987.9" viewBox="0 0 843.735 987.9"><title>Députés sortants de Charente-Maritime en 2017</title><path d="M267.537,92.878l-3.159.607L249.566,99.2l-4.145,9.87L232.392,122.3l-15.4,8.884-3.551,6.913,2.18,1.384,0.594,8.505-2.963,4.739-4.935,1.965-3.159,10.268-7.3,2.963-2.174,1.58-0.594,2.774,1.188,2.37,4.145,3.545,2.37,1.194,7.9,2.37,2.565,0.385,12.637-4.543,8.088-1.188L236.537,177l0.594,2.565-4.347,3.355-0.594,5.131,7.7,1.58,4.145,3.159,1.58-4.935,5.131-.594,3.753-6.711h10.078l4.929,0.2,11.658,9.87,2.963-12.833,12.833-2.774,6.913-3.949,0.2-.183-0.6-.392,2.97-6.123-2.37-3.753-8.688-12.637,4.543-17.768-0.2-.392-4.543-10.268-7.507,1.972-6.508,4.347-12.833-8.688-0.594-.986,8.492-10.268-1.384-5.333ZM49.345,96.038l-6.319,5.131L34.142,106.7l-10.268-.79L21.9,107.683l2.37,7.507,7.9,10.464L37.3,138.1l14.609,6.913,17.376-6.123,7.9,0.79L103.054,153.3l13.825,7.109,12.037,9.87,5.529,5.927,16.587,7.109,7.709,1.776,13.231-1.58,2.565,0.79,11.247-14.413-10.072.79-3.949-9.282-6.319-11.254-5.131-1.58-7.507,2.37-12.246-10.072-12.448-5.529-18.956,2.963-13.029-1.384-10.666-6.913L98.1,125.849l2.37-7.3-22.115.2-2.37.986-2.963,6.711-8.688,6.123L62.558,137.1l-4.739-2.37-8.29-9.674-1.972-7.9v-3.355l4.145,7.109,2.565,0.594,3.159-9.674H59.8l0.986,5.131,2.37,0.986,4.543-2.565v-2.768l-2.963-7.7-7.3-7.9Z" transform="translate(-21.329 -6.968)" fill="#ffc0c0" stroke="#000"/><path d="M363.3,8.182l-13.029,7.507-6.913-3.355-4.935,10.072-2.565.986-21.13-1.384-17.768,7.7-1.58-4.935L284.919,42.347,281.166,45.9l1.188,2.37-9.282,3.949L263,50.043,261.224,45.3h-2.37l-1.188,6.5L254.7,55.358l4.145,9.478,5.529,28.63,3.159-.594,7.3,7.7,1.384,5.333-8.492,10.268,0.594,0.986,12.833,8.688,6.508-4.347,7.507-1.972,4.543,10.268,0.2,0.392-4.543,17.768,8.688,12.637,2.37,3.753-2.97,6.123,0.6,0.392-0.2.183L296.95,175l-12.833,2.774L281.154,190.6l-11.658-9.87-4.929-.2H254.489l-3.753,6.711-5.131.594-1.58,4.935,2.37,4.739,8.088,0.594,1.972,1.972,1.188,8.082-9.086,4.145,1.58,2.174,12.637,2.774,5.927,5.124,4.549,12.637,3.159,18.571,2.37,1.188,5.333,0.594,6.319,4.543,3.551,10.268-2.174,7.507,3.949,9.87v5.333l-4.739,6.515-15.993,1.776-12.037-8.688-3.355,1.972,18.76,17.572,3.159,13.023,8.094,6.925h0.594l3.753-.79,20.144-5.529,3.753-6.925,4.739-1.965,5.725,5.124-1.776,7.9-6.711,12.833-0.392,4.935,16.391,14.217,12.246-1.58,3.949-6.123-2.963-7.3,0.392-8.094,3.753-3.355,2.565,0.986,0.2-4.145,8.884-12.821,10.268-14.824-1.39-13.231,9.086-7.7,6.711-8.492L391.339,267l4.543-6.913,10.078-1.58,5.719-5.131,8.884,12.637,4.739-1.384,10.072-14.217,11.658,14.609,4.739,2.37,7.9-.594,7.3,3.551,4.347-9.295,1.58-6.5,25.275,5.333,6.913-3.159-0.79-7.7,7.109-2.774-9.478-8.688,2.174-7.507,7.3-2.37-4.347-9.282,7.109,1.384,7.507-2.37,3.551-3.753,15.4-4.145,12.043,4.935,3.159-4.145,0.986-2.565-8.29-6.515L548.131,187.8l-10.268-2.37-7.3,3.159-6.711-3.949-2.174-3.753,1.384-2.174,14.609-3.355-5.529-4.543-5.333.392-6.319-3.753-4.739.594-6.515-3.949-7.3-10.268-10.464.79-1.769-7.109-2.37-.986,0.79-2.565,4.929,0.594,1.776-1.776-2.174-12.442-2.37-4.543-6.515-3.949L457.7,105.857l-1.384-5.131,9.674-12.442L461.053,79,455.922,64l2.37-4.145-5.131-6.123-5.333-.594-3.159-4.347L430.06,43.656l-2.174-4.739,4.935-5.529-0.6-2.565L418,34.967l-3.159-4.347L409.714,32.4l-4.145,6.7,1.972,4.935-2.18,4.935-7.507-.594,1.188-4.935-2.174-1.58L393.9,45.81l-8.884-3.355-4.543,7.7-9.086,3.159-1.58-2.174L359.74,53.317l-13.231-8.284L355.594,32l3.949-15.6ZM234.957,276.525l-3.949.79-2.565,8.884,0.392,2.768,0.986,0.79,2.963-4.543v-3.949l7.7,0.2-0.79-2.37Z" transform="translate(-21.329 -6.968)" fill="#ff8080" stroke="#000"/><path d="M800.267,350.612l-7.551,1.914-6.812-3.741-5.725,3.8,2.666,8.7,6.534,3.159-3.09,6.319-4.126,1.712,0.347,2.237,1.447,4.827,7.058,0.531,0.575,10.059L794.649,394l5.08,0.467,1,2.344-1.769,1.839-3.842,6.976,0.853,5.257-1.813,1.94-7.2,2.243-3.943,6.54,2.591,0.133,2.654,12.6-8.41,16.523,1.845,7.785-4.158,7.38-3.38-3,2.515-4.309-2.1-1.371-9.819,1.63-1.87-1.681-4.707,1.889-6.041,7.987-9.529,2.149-0.2-.1-5.181-8.492-1.188-4.689-4.177-1.763,0.745-6.812-4.467-1.447-14.508-.594-1.832,1.668-7.165-1.207-4,2.755,0.764,5.124-7.728,7.045-4.095,1.188-10.363-1.656-14.356,5.453-2.18-.727-17.244-4.429-1.422,12.454-7.241,1.024-4.088,3.2-12.663-.878L612.6,487.342,614.295,497l23.721-1.839,6.66,4.272-0.461,2.641-8.006,6.812L635.6,519.561l2.66,9.541-4.044,9.194-10.666,2.591-5.074-.467-6.692,3.343-1.2-6.976-2.357-.79-4.272-2.679-3.6-3.122-4.575,1.308-2.382-4-7.1.051-2.357-4.107-4.549-1.554-11.418.284,4.676,2.161,2.325,4.429-0.234,5.156-4.606,8.9-1.434,3.406-2.534-.322-1.472-4.872-9.68-8.208-2.875-6.976-4.48-2.382,1.687,4.884-1.87,7.342-14.008,3.835,4.815,9.295-19.746,16.859-2.351,4.676-5.434-6.1-9.491,4.347L489.779,558.6l3.286-9.813-8.429-9.8-2.565-4.518,0.449-5.061-2.1-1.554-7.652.543L470.8,530.22l-0.379,7.9-4.354,3.046-7.911.3-8.935-4.8-4.183-3.949L443,526.258l13.642-6.477,7.033-7.21-2.6-2.887L468,506.55l-9.345-12.031-10.091,1.359-3.374,3.753-4.783-6.666,2.989-17.97,7.557-2.224,4.6-6.477,8.069,1.592-1.466-5.219,3.8-10.123,17.85-10.306,2.433,1.137,8.619,9.541,7.09-3.046,2.06,1.163,3.2,3.69,0.695,5.245,5.725-1.3,4.758-15.19-2.749-3.817,2.395-6.6-6.995-10.653-7.039-3.046-6.344,3.027L495.9,420.5l-1.554-3.482-1.106-6.875-9.415-2.306-0.651-2.407-10.622-4.272-9.415-3.962-1.238-10.059-1.972-1.049-15.026-.442-4.614,1.978-12.511-.467-5.213-5.788-4.96-14.685,2.572-2.433-2.439-2.5,1.7-3.835,8.733-4.379,8.859,2.578,12.012-18.078,0.051-13.491,1.643-2.186-0.986-6.464,1.858-1.447-2.919-3.058-3.3-6.395,3.406-9.8,8.455-5.655,1.188-5.112,15.715,0.866,2.907-6.824-10.135-8.107,4.347-9.156,1.611-6.641,25.332,5.383,6.888-3.109-0.834-7.69,7.115-2.825-9.446-8.6,2.18-7.538,7.424-2.483-4.41-9.131,7.178,1.283,7.456-2.332,3.482-3.823,15.481-4.183,11.968,4.973,3.242-4.17,0.9-2.515-8.277-6.565-0.329-13.364,2.015-6.748,6.995,3.848,10.432-.442,7.286,3.223L578.448,191l0.923,4.922,7.513,0.8-3.9,3.027,4.5,5.725-3.456,3.419,6.856,4.025,16.018,2.022,12.6,2,5.32,5.763,0.594-6.95,9.725-7.513-0.1,15.462,10.716,7.033,8.057-9.775,6.963,2.174L667,230.8l-0.455,6.679,16.751-5.358,2.338,0.916L698.586,235l5.257-6.072,7.121,7.507,3.759,15.152,21.471,6.862,2.117,0.417,9.908,1.927,9-4.442-0.828,4.985,2.395,0.866,0.98,13.528,13.238-7.456-1.813,9.491,2.641,3.469-0.657,4.84,3.052,5.971,7.368,0.284,4.278,11.98,2.268,1.207-1.617,7.008,9.819,0.815,7.734,6.047-0.556,7.443,4.948-.2,2.009,7.134,2.471,0.272-5.485,10.527,0.449,4.777-4.866,3.033Z" transform="translate(-21.329 -6.968)" fill="#ff8080" stroke="#000"/><path d="M688.6,653.935l0.126-5.415,4.663-1.5,8.663-15.708-12.486-11.772-4.853-3.817-1.485-2.022-4.967.607-2.6-6.369-6.995-2.11-9.434-9.011-2.268-7.576-3.671-5.662-9.87,5.687-5.042,1.668-9.023-5.655,12.353-24.358,7.033,2.768,7.228-2.2,0.145-2.679-15.279-18.8-6.653-1.706-10.666,2.591-5.074-.48-6.7,3.355-1.194-6.976L608.2,536l-4.278-2.679-3.6-3.122-4.581,1.308-2.382-4.012-7.1.063-2.351-4.107-4.556-1.567-11.412.284,4.676,2.161,2.319,4.442-0.228,5.144-4.606,8.9-1.434,3.406-2.534-.31-1.479-4.872-9.674-8.208-2.875-6.982-4.48-2.382,1.687,4.9-1.87,7.33-14.008,3.848,4.815,9.282L518.51,565.694l-2.357,4.663-5.428-6.1-9.491,4.347-11.481-10,3.279-9.813L484.6,539l-2.559-4.518,0.442-5.074-2.1-1.542-7.646.543-1.965,1.826-0.385,7.9-4.347,3.046-7.911.3-8.935-4.815,1.605,7.677L446.451,556.1l-0.228,2.654-10.287,1.712-10.35-8.082-2.666-4.569-9.459-4.05-14.514,5.826-6.344,8.069-0.689,2.553,7.216,2.825,8.473,10.1,10.236,7.109-0.057,5.219-4.853,1.58-2.584,4.493L395.333,593l-3.975,6.666-4.657.467-1.384-1.984L383.346,586.3l-3.1,4.272-2.629.158-10.4-7.873-2.464,4.676L352.391,591.8l-5.56-5.491-7.469,1.491-0.088-2.591-7.045-3.058L332.152,577l-6.571-3.911,1.8-7.469-2.142-1.447-9.718-2.938-15.14-.714,1.1,7.469-2.515,3.368,7.709,7.494,2.262,6.2-1.984,4.2,4.992-2.2,6.919,7.753-0.581,9.579,7.772,0.272,1.712,2.009,1.681,4.985-0.24,7.766,0.9,2.5,2.629-.063,6.748,10.242,8.132,6.653,4.992,1.58,4.252-3.109,5.118,0.385,5.383,3.665,6.407,9.75-1.852,2.332,7.431,5.542,2.629-2.009,3.039,1.112,5.232,7.525,11.38,4.827L421.5,686.8l-4.341,3.431,5.6,5.371,4.575,5.9,4.587-1.927,4.84,10.944,5.137,7.368,4.3,2.407,3.684,6.711,6.97,13.067,5.181,14.811,8.972,32.744,2.6,0.2-2.136,1.409,4.726,22.488,5.017,0.752-0.221.259,30.987,3.817,4.575,5.674,4.524-2.591,13.945-4.246,7.064,2.186,0.253-7.987,4.6-8.675,8.853,8.739-2.635,15.9,3.33,10.141,6.565,0.581,3.608,2.7,7.437,0.581,11.513,4.581,14.723-5.491,6.995-.051,8.24,4.038,13,5.933,7.974,5.358,1.346,4.7-1.611,4.625-2.635,9.737,7.583,0.455,2.123,4.493-3.886,14.388-3.216,9.775,0.923,4.96,7.987,10.811,1.675,7.861,8.632,27.448,2.673-10.293,8.448-10.281,12.934,3.172,8.265,6.9,5.156,14.849,3.273-9.093,17.282,6.23,0.663,5.219,2.414,1.036,6.736,14.129,6.129,4.872,13.124,0.347L748.743,986l9.826,4.17,15.86,1.712,4.631,2.471,5.232-.84,17.471-19.044,5.794-3.753,6.793-.973,11.791,15.9,4.594,1.308,1.794-1.605,4.1,2.515,3.166-3.507-0.7-7.873,6.4-11.538-3.835-9.8,21.313-8.726-1.359-4.739-7.766-1.137-2.692-3.987L862.3,922.65l1.434-6.281-3.45-2.471,0.164-8.044,4.1-12.561-1.169-4.948-10.2-.284-9.339-4.284-3.955-9.257-2.287-1.15-2.932-.607-14.609,2.458-12.385-.916-8.259-.973,1.453-4.594,2.066-27.164-11.462-3.7-8.113,4.872-1.245-8.574-1.807-1.738-5.781-3.817-8.89-1.283-9.611,1.953-2.894-4.076-14.6-8.044-0.872,5.169-5.219.2-8.991,4.493-0.373,7.6-13.787-7.267-0.657-10.5-3.336-3.52,6.123-6.938-1.251-1.94-0.619-.48,2.534-6.938,7.5,6.395,7.178-1.763,2.376-4.347-0.316-7.753-13.029-.063-4.556,2.319-1.219-7.185-4.651-1.58-2.54-3.589-4.866-.7-3.412-3.6,0.253-7.822,4.17,0.43,0.853-1.94,7.772,0.076,4.221-3.122,1.921-4.872,12.631-2.344,1.4-5.124,7.911-.234-1.422-7.21-7.8-.145-0.556-7.626,2.123-4.815-3.26-4.12-0.1-1.927-6.085-4.853-1.321-5.036-4.714-2.211-4.878,1.826,2.843-13.674,7.412,2.1,8.461-15.367,4.764,1.062,1.062-3.33-2.129-1.491-0.044-5.124-5.162.3-6.053-4.853,5.769-7.911-6.154-4.347-9.522,4.347,1.548-4.8-4.284-2.9-7.626.8-8.991-4.973H688.6Z" transform="translate(-21.329 -6.968)" fill="#06c" stroke="#000"/><path d="M435.38,250.46l-10.072,14.217-4.739,1.384-8.884-12.637-5.719,5.131-10.078,1.58-4.543,6.913-1.776,8.094-6.711,8.492-9.086,7.7,1.39,13.231L364.9,319.378l-8.884,12.833-0.2,4.145-2.565-.986-3.753,3.355-0.392,8.094,2.963,7.3-3.949,6.123-12.246,1.58-16.391-14.217,0.392-4.935,6.711-12.833,1.776-7.9-5.725-5.131-4.739,1.972-3.753,6.913L294,331.226l-3.753.79h-0.594l-0.986,2.565-13.231.79-3.949,2.963,11.058,6.711,1.776,7.7v11.058l-3.759,10.268-9.282,12.833,0.2,2.565-4.145,9.086-7.9,7.109-18.166-3.753,1.58,9.282-11.058-3.753,3.159,9.478,6.711-.986,2.174,10.862,5.529,5.927,3.551,12.043-3.349,6.123-2.37,1.58-7.3-3.545L223.1,457.8l-10.464-2.174L199.213,458.4l-4.347,2.963-0.79,16.391,3.551,54.9,3.159,10.464,5.529,7.3,9.288-1.58-9.674-2.174-1.972-5.333-3.159-8.884,5.529-1.776h5.339l33.363,22.507,18.362,15.007,16.587,7.109,2.37-1.194,10.666,10.268,2.174-1.384,2.565,4.543,4.739,2.37,4.543-.594,1.972-4.145-2.37-6.319-7.7-7.507,2.565-3.355-1.188-7.507,15.2,0.79,9.674,2.963,2.174,1.384-1.776,7.507,6.515,3.949,0.2,5.131,6.913,3.159,0.2,2.565,7.3-1.58,5.719,5.529,12.246-4.347,2.565-4.543,10.268,7.7h2.768l2.963-4.347,1.972,11.848,1.384,1.965,4.739-.385,3.949-6.711,15.007-1.58,2.565-4.347,4.935-1.58V580.2l-10.268-7.109-8.5-10.072-7.109-2.768,0.6-2.565,6.319-8.094,14.609-5.725,9.478,3.949,2.565,4.556,10.464,8.082,10.268-1.763,0.19-2.565,4.347-11.848-1.58-7.7-4.145-3.766-2.174-6.5,13.623-6.515,7.109-7.3-2.565-2.768,6.913-3.159-9.282-12.043L448.581,495.9l-3.551,3.753-4.739-6.711,2.963-17.97,7.709-2.174,4.543-6.515,8.094,1.58-1.58-5.131,3.949-10.072L483.738,442.2l2.37,1.194,8.688,9.478,7.109-2.976,1.972,1.194,3.159,3.545,0.79,5.346,5.719-1.4,4.739-15.007-2.768-3.949,2.37-6.5-6.913-10.672-7.109-3.159-6.319,3.159-1.776-1.965-1.58-3.355-0.986-6.913-9.478-2.37-0.594-2.37-10.666-4.354-9.478-3.949L461.8,387.1l-1.972-.986-15.007-.385-4.543,1.965-12.637-.594-5.131-5.725-4.935-14.6,2.565-2.565-2.37-2.37,1.58-3.949,8.688-4.354,8.878,2.565,12.043-18.166V324.509l1.776-2.174-0.986-6.515,1.776-1.384-2.963-3.159-3.159-6.319,3.349-9.674,8.5-5.725,1.188-5.124,15.6,0.79,2.97-6.711-10.078-8.094-7.3-3.551-7.9.594L447,265.094Zm-331.732,9.478,4.739,20.921,7.9,17.193-3.949,15.8,4.145,10.072,0.2,8.094,5.529,5.927,18.362,19.942,21.92,15.2,4.935,0.973,12.246,14.413,4.739,9.674,3.949,17.181,3.949,27.05,2.37,4.935,4.739,2.37,18.76-22.905-5.529-15.4,10.078-27.448-7.9-11.058-6.319-4.935-9.674-15.8,2.37-4.739-0.2-7.7-5.725-8.492,0.2-5.131,3.551-3.753-1.188-2.37-0.986-10.268-5.333-5.725-26.463.2L154.982,300.4l-4.347-6.319-17.97-16.587-6.711-4.556-1.972-7.507Z" transform="translate(-21.329 -6.968)" fill="#06c" stroke="#000"/><text transform="translate(209.429 165.405)" font-size="69.153" font-family="DejaVu Sans" font-weight="700">1</text><text transform="translate(343.896 189.005)" font-size="69.153" font-family="DejaVu Sans" font-weight="700">2</text><text transform="translate(576.052 360.789)" font-size="69.153" font-family="DejaVu Sans" font-weight="700">3</text><text transform="translate(524.463 717.534)" font-size="69.153" font-family="DejaVu Sans" font-weight="700">4</text><text transform="translate(324.686 477.657)" font-size="69.153" font-family="DejaVu Sans" font-weight="700">5</text></svg>