<svg xmlns="http://www.w3.org/2000/svg" width="610.271" height="728.508" viewBox="0 0 610.271 728.508"><title>1T Législatives 2017 Martiniquesvg</title><path d="M462.534,455.576l-24.888-5.1-9.45-12.06-2.91-18.383-13.865-10.594-15.5-2.369-19.87,6.226-8.159,13.519-24.009,20.5-10.378,18.467,0.014,15.3L319.288,475.7l-2.9-20.505-14.4-14.531,6.637-19.34-4.76-14.733-4.125-3.064-18.614,8.5,2.478-41.073L277.255,357.6,277,352.411l34.8-9.01,12.612-8.417,14.335-1.493-0.377-19.919,4.006-3.28-42.61-28.853-25.3-4.739-33.235-15.327-21.114-15.664-9.317-12.9,8.361-3.678L239.7,215.912l14.154-3.238,3.6-9.185,34.555,13.5,10.525-.356,10.267-.4,11.495-10.608,9.869-2.519,5.493-8.871,15.173-2.206,18.992-17.181,8.138,6.672,6.811,24.519,7.1,6.916,17.469-25.384,18.551-10.015,20.512,2,44.442-27.417,15.4,3.287,7.649,7.3-1.836,15.152-4.7,2.024-13.407-8.34-9.5,3.552,3.224,14.231L486.96,202.7l0.838,10.2-3.978,2.722-15.85-1.193-9.349-12.539-14.538-6.777-15.822-1.033-3.894,3.636L416.1,210.205l4.983,8.6-6.023,12.9,10.078,11.362,14.079-3.628-2.143,4.627L432.2,253.3l2.624,4.453,18.781-7.475,4.753,1.745,5.653,14.4,9.464,4.529-4.215,8.871-4.439,2.778-20.128,5.674-5.793,8.682-13.547,5.018-6.344,14.056,12.444,16.192,6.616,8.033,5.186-.077,19.9-15.717,24.867,4.376L501.47,322.3l2.743,4.439-3.42,9.82-11.614,8.605-10.329-.872-3.392,3.594,15.173,13.728-4.8,25.063,30.381,6.3-0.942,9.457,8.633,13.226-1.766,10.583,6.7,8.424,18.132-2.764,7.2,6.114-1.033,4.711-27.973,13.163-20.205,4.495L485,476.574Z" transform="translate(0 0.002)" fill="#f6e1b9" stroke="#000"/><path d="M151.421,8.2L117.25,0.5,91.65,2.757,72.05,6.575l-35.2,19.1-8.787,5.611L14.254,53.68,0.511,88.325l3.05,26.431,18.649,32.07,14.411,4.983,10.287,18.376,25.963,25.74,3.818,15.061-3.72,9.771-6.121,30.492-0.824,10.036,23.911,45.861,19.933,29.25,3.7,9.75,13.721,7.594L139,370.462l24.023,8.591,17.19,11.439,21.824,29.871,12.437-29-0.628-26.5-22.562-47.254-6.442-30.849,2.589-9.883,15.92-17.316,9.262-1.633,8.145,6.763,0.4,5.262-8.389,13.254,2.827,26.186,25.942,18.9,16.708,20.47,19.012,8.815-0.251-5.193,34.8-9.01,12.612-8.41,14.335-1.493-0.377-19.919,4.006-3.28-42.616-28.852-25.3-4.739-33.235-15.327L220.121,245.7,210.8,232.8l8.361-3.678L239.7,215.9l14.154-3.238,3.6-9.185,34.555,13.5,10.525-.356,10.267-.4,11.495-10.608,9.869-2.527,5.493-8.871,15.173-2.206,18.992-17.18-12.43-21.838-23.87-19.34-10.846-28.071-9.89,2.715-9.645-3.427L302.8,90.3l-12.012-8.861-0.237-5.088-13.617-4.69-6.393-7.705-8.819,5.383-9.939-2.01-14.833-13.89-14.719-4.3L211.042,38.961l-10.036-2.736L190.334,24.3Z" transform="translate(0 0.002)" fill="#f6e1b9" stroke="#000"/><path d="M276.787,414.908l1.131,10.469-4.488,2.561L252.541,425.2l-8.585-5.974-41.911,1.165,12.437-29-0.628-26.5L191.29,317.639l-6.442-30.849,2.589-9.883,15.92-17.316,9.262-1.633,8.145,6.763,0.4,5.269-8.384,13.249,2.827,26.186,25.942,18.9L258.257,348.8l19.012,8.808,6.344,13.351-2.478,41.073Z" transform="translate(0 0.002)" fill="#f6e1b9" stroke="#000"/><path d="M252.066,640.514l-9.911-3.42-7.761-13.686L216.276,614.2l1.214-20.819L207.469,581.7l1.452-15.152-17.337-10.232,3.238-15.431,11.593-17.358,15.264-14.657,5.227,0.817,10.448,0.007,20.345-23.22,19.214,5.981-0.084,14.322,14.14,6.756,36.271-.2,3.176-4.2,10.713-14.587,8.9,3.022-11.481-16.59-5.032.1-0.014-15.3,10.378-18.467,24.009-20.5,8.159-13.519,19.87-6.226,15.494,2.366,13.868,10.6,2.91,18.383,9.45,12.06,24.888,5.1,22.459,21.015L504.948,460.4l20.205-4.495,27.968-13.147,3.49,9.785-5.416,8.975,2.855,4.39,11.858,10.615,14.014-5.374,2.352,2.8-8.41,19.584,8.557,18.991L578,522.013l10.364-.286,0.468,10.092-11.614,8.653-1.452,10.05,14.538,2.847,1.27,20.352,1.075,5.06L601.9,582.7l2.715,4.4,5.109,14.6-5,8.871-9.785-.4-3.085,4.16,12.884,15.375-10.246,11.565L589.383,661.6l-14.462,21.559-14.489-.454-3.727,3.476,4.892,9.282,9.136,4.858-3.057,4.39-10.616-.181-12.444,17.5-9.157,5.151-5.332.824-10.65-.837-4.516-2.729-10.72-12.2-2.659-4.69-10.546-16.178,18.914-27.5-6.568-13.8,2.212-6.714,8.3,7.782,6.477-1.619,0.112-11.551,9.08,0.8,2.54-14.1-5.3-7.852-10.532-.656-35.245,30.569L469.81,635.67l-6.372-7.656,1.535-9.98L454.9,616.792l-23.737,10.232-30.583-4.474-13.154-8.32-14.629,3.734-12.871-20.08-3.064,10.036-12.179,9.408L302.7,602.058l-15.271,3.9L269.4,616.6l-4.711,14.943-8.019,6.393Z" transform="translate(0 0.002)" fill="#f6e1b9" stroke="#000"/><text transform="translate(363.721 302.041)" font-size="72" font-family="DejaVu Sans" font-weight="700" style="isolation:isolate">1</text><text transform="translate(418.721 560.041)" font-size="72" font-family="DejaVu Sans" font-weight="700" style="isolation:isolate">4</text><text transform="translate(222.721 402.041)" font-size="72" font-family="DejaVu Sans" font-weight="700" style="isolation:isolate">3</text><text transform="translate(93.721 144.041)" font-size="72" font-family="DejaVu Sans" font-weight="700" style="isolation:isolate">2</text><rect x="161" y="91.002" width="80" height="80" fill="#f6e1b9" stroke="#000" stroke-width="3"/><rect x="342.487" y="324.256" width="80" height="80" fill="#f6e1b9" stroke="#000" stroke-width="3"/><rect x="206.58" y="325.03" width="21.17" height="21.17" fill="#f6e1b9" stroke="#000"/><rect x="480.153" y="487.538" width="80" height="80" fill="#f6e1b9" stroke="#000" stroke-width="3"/></svg>