<svg xmlns="http://www.w3.org/2000/svg" width="941.02" height="1482.032" viewBox="0 0 941.02 1482.032"><title>1T Législatives 2017 Corse-du-Sud</title><path d="M606.539,478.374l4.5-8.978-11.971-43.315-13.83-5.543-4.5-8.782,0.941-25.216-3.521-21.468-24.275,6.089-18.126-7.525-3.851-7.981-9.088-.419-11.349-14.768-4.562.914-8.07-12.164-25.625-2.454-9.191-4.655L459.076,308.1l-9.643-10.777-3.658-3.521-19.928,3.99L401.2,271.751l3.432-19.32-8.719-11.821-17.624-8.935,0.775-44.559-4.615-2-40.09,20.919L301.7,193.072l-20.131.18-16.114-19.041-34.064-5.467-11.12-9.188-33.466.622-2.328-14.821-24.454-2.733L136.683,123.9l-24.67-1.463-14.2,5.414-15.3-12.087-14.631-4.4,4.143,8.616-7.625,6.152-18.392.023-1.453-10.4-5.543-2.085-2.6,17.424L41,132.844l7.219,6.827-1.816,19.842,3.6,19.559,9.557,0.1,25.548-24.058,9.736-2,18.645,7.918,11.971,15.6-2.973,9.643L97.2,203.081l1.766,9.876,7.575,5.63,19.789-3.851,10.052,10.345,7.5,4.818,18.05-2.973,0.023,4.918,12.862,6.9,6.228,17.73,9.76,0.2,3.658,10.345-1.792,16.726-49.091,9.484-8.2,5.859-29.262-.725-2.085,4.655L61.911,319.749,51.848,324.49l-8.962-7.415-11.372,4.738,13.634,15.093,9.164-6.035,9.9,0.888,3.877,5.547-6.8,9.331,8.885,8.616-7.169,1.932-2,11.223,13-2.76-1.589,18.289,5.108,16.753,4.373,2.95-4.689,3.621-17.5.914-6.651,7.818,9.381,5.567,21.072-4.017,6.408,8.44L74.534,438.042l-18.1,8.124-2.886,9.061L71,445.351l9.643,2.53,7.625,11.971-14.5,22.013,38.753-7.981,3.927,13.777,17.451-.6,1.144,5.653,9.507-1.639,7.129,6.152,8.2,17.222,4.476,1.905,18.572-4.3,9.953-10.308,13.078,3.9L214.671,527l-3.521,14.146,4.689,1.27,7.422,12.443,3.6,19.287,19.014-.665,6.252,7.5-0.572,3.229,4.449,13.7-8.516,12.224-15.073-2.63v8.616l-12.862,9.191-27.008,3.325-17.528,10.155L159.6,652.09l-1.882,9.557-2.085,4.017,4.792,12.636,9.012-.775,1.792,4.193-0.665,11.7L149.279,712.63l-14.249,1.842-13.7-4.093-9.76-1.17L90.039,720.452l16.776,34.483,9.786-.369,4.842,8.287-12.912,32.425,2,14.718-3.9,9.191,29.768-17.956,9.683-2.288,29.868,6.2,19.712-4.842,25.369,0.522,4.918-1.33,21.8-13.1,1.117-15.213-6.318-21.824,11.795-16.46,1.932-7.056,10.525,2.973-0.914,10.282,4.818,7.688,8.669,4.273,19.194-.725,19.167,6.355v7.894l7.143,1.17-1.27,10.727,11.146,4.562-6.062,7.765-9.457,3.495-3.967,9.264,1.563,4.373,12.367-5.414,4.273,1.742,10.894-8.746,8.978,2.058L381.6,774.6l-10.641-21.3,19.662-18.811,22.968-4.449,13.078-15.047,36.465-14.3L468,692.047l3.305-8.809,29.691-22.612,4.589-8.021,30.11-16.959,4.093-9.331,11.921-9.507-0.419-9.683,14.821,13.331,18.492-7.648,19.765,1.36,12.087-8.489,9.85,1.816,14.275-4.968,8.124-2.258,2.328-9.43,22.14-9.786-4.765-8.047,4.888-37.36L662.44,514.031l-19.559-15-14.528-1.486-9.164-11.7Z" transform="translate(-28.979 -108.955)" fill="#06c" stroke="#000" stroke-width="3"/><path d="M672.938,581.292l-21.847,9.534-2.391,9.534-8.326,2.391-14.3,4.765-9.926-1.589-11.921,8.336-19.852-1.194-18.289,7.548-15.1-13.5,0.4,9.926-11.934,9.534-3.954,9.138L505.307,652.8l-4.4,7.944L471.12,683.378l-3.179,8.746-5.161,8.755-36.149,14.3-13.1,15.11-23.018,4.373-19.852,18.671,10.727,21.455-28.205,21.049-9.138-2L333.32,802.6l-4.373-2-12.34,5.567-1.589-4.373,3.967-9.138,9.534-3.571,5.962-7.944-11.12-4.373,1.194-10.727-7.129-1.194V756.9l-19.064-6.355-19.064.775-8.755-4.373-4.765-7.548,0.788-10.308-10.308-3.179-1.959,7.143-11.934,16.294,6.355,21.847,7.548-6.355,4.765,0.788,9.534,11.921,9.534-3.571,9.534,2.391,20.653,28.6,5.161,18.695-6.355,7.129-17.478,7.944,1.589,13.5,7.143,6.75,1.194,21.847-7.143,7.548-30.187,3.967v3.571l9.534,2.391L292.808,914.2,284.5,926.5l-2.81,15.1-15.1,2.81-3.571-3.571-4.765,2-16.294,17.847-23.842-4.389-1.959,4.373,21.455,26.639-19.852,28.6L187.57,1033.38l-18.289-5.985-7.548,6.378-1.2,5.154,1.959,4.373,9.926-2.391,34.952,4.373,3.571,3.571-0.4,19.852,4.765,1.59,63.549-26.6,9.534,0.788,6.75,7.129-11.515,27.008,13.906,19.064,4.4,1.194,10.727-10.308,13.906-5.58,13.5,6.355,18.289,16.676,38.523,3.571,12.3,7.944,24.634-1.59,3.967,13.5-35.348,15.888-7.548,28.6-7.143,6.75-3.571-3.179-15.1,1.59-37.343,23.436-14.3-10.727-4.765,7.944-7.944,5.567-3.571,34.164-11.12,21.455,3.182,4.4,8.745,3.548,9.926,17.109-10.308,10.727-4.765,7.548,11.515,6.75,13.1-1.194,4.373,4.373,9.926,10.308,19.852,1.22,13.1,5.962,0.369,9.926-11.921,16.257,4.765,7.944,11.12-1.194,20.261-8.337,16.294,13.5-5.161,12.3,30.593-2,8.336,26.639,15.1-7.575,5.962,6.75,24.225-.4,20.653,20.284,13.906-13.1,4.4,9.926,7.548,6.355,11.921-5.985-1.194,11.515,9.534,13.1,14.3-12.3,2.783,18.289,12.3-5.962,20.653-21.455,9.534-2-12.3,21.049-1.194,19.064,5.567,7.944,9.138,3.179,15.492-11.12,4.386,8.759,19.064,3.571,1.589,4.765-12.3,15.1L644,1506.4l-9.9,10.308-6.355,19.064,4.373,8.746,5.161,1.194,29.791-5.962,11.921,9.534,14.694,0.788,3.179,2-3.611,3.565,19.064,4.373,9.534,22.229,4.373,2.391,39.721-2.783,3.967-14.3,23.031-31.776,6.71-13.514,7.944-5.567,5.58-19.064-4.765-1.194-12.709,7.143-21.847,20.653-4.4,2.391-4.393-1.593-2.783-9.534,8.746-3.179,3.967-14.3-3.571-9.534,1.194-13.906,18.695-7.548,21.455-21.468,9.534-3.179,0.4-9.138,11.921-9.138,4.373-9.138-2.783-23.031-8.746,4.765-4.765-8.337,11.12-17.082-8.336-17.082,1.194-4.373,14.3-4.765,13.1-15.888,24.228-19.07,14.3-3.571,11.921-7.143,3.967-19.064,17.478-23.427-2-4.373-9.926.4-14.3,2-10.727-10.727-14.694-2.783L851.3,1267.6l-4.373,2-7.944-6.355-3.571-9.138,2.783-15.1,20.261-14.3v-14.694l9.165-3.967-0.4,4.765,10.727,10.727,29.791-1.194,2.391-8.337-6.355-13.1,4.373-8.746,9.926-1.194,8.336,4.755,16.676-18.289,0.788-24.634-11.515-15.113,10.727-16.294,17.478-8.746,4.765-24.634-2.783-9.138,3.954-8.746-2.391-9.534,4.373-49.251-2-9.534-9.138-3.967,2.4-19.46-3.944-14.664,11.12-33.758-3.571-55.2-16.676-11.12-10.308.4-25.026,17.082-5.567,8.745-13.5,6.355-9.926,11.515L862.924,911.3l-0.788-9.9-7.143-6.355-19.46-1.22-14.3,5.161-27.4-11.921-9.926,1.59-9.138-11.515,9.138-28.6,1.22-9.534,13.906-21.049,0.775-9.926-1.589-4.765-3.179-3.954-12.709-8.336-14.668,1.194-8.336-4.765L778,765.556,763.3,753.635l6.355-12.709,3.571-32.993-5.962-6.724-0.4-18.695-5.161-7.538,5.962-47.665-37.343-4.373L702.124,628.5l-9.534-17.478-21.049-20.261Zm135.848,994.149-5.962,3.967v2.391l6.75,3.179,2.783,3.967,2.391,0.4,2.391-3.967,4.4,0.788,2.783-3.967-0.788-2-5.161-.369-2.391-3.967Z" transform="translate(-28.979 -108.955)" fill="#f6e1b9" stroke="#000" stroke-width="3"/><text transform="translate(131.56 341.123)" font-size="239.42" font-family="DejaVu Sans" font-weight="700" style="isolation:isolate">1</text><text transform="translate(503.878 906.974)" font-size="239.42" font-family="DejaVu Sans" font-weight="700" style="isolation:isolate">2</text><rect x="503.878" y="1046.524" width="242.746" height="242.746" fill="#f6e1b9" stroke="#000" stroke-width="3"/><rect x="305.468" y="282.181" width="198.41" height="198.41" fill="#ffeb00" stroke="#000" stroke-width="3"/></svg>