<svg xmlns="http://www.w3.org/2000/svg" width="313.713" height="699.539" viewBox="0 0 313.713 699.539"><title>1T Législatives 2017 Saint-Pierre-et-Miquelon</title><path d="M69.831,0.947c-18,21.3-55.1,15.6-61.1,46.1-11.7,13.7-9.8,30,4.4,38.1,13.6,26.5,8.7,56,3.6,83.1,8.2,24.8-3.4,66,28.8,76.2,13.1,23.6,22.7,51.3,34.2,76.7,11.1,36.4,16.4,75.1,11.5,113-23.4,17.1-6.3,51.3-33.4,64.8-25.7,5.5-38.3,25.4-53.8,44-8.1,6.1-.1,31.9,2.6,30.7,14.2-21.6,49.6-1.2,32.2,23.5-4.3,15.6-1.5,37.2,14.3,20.2,4.4,8.5,17.4,4.1,14.8,19.6,0.4,18.5,24.2-11.3,30.3-15.8,17.3-20.7,40.8-36.1,63.3-50.6,21-18.5,48.8-38.3,42.3-70.5,0.9-16-13.1-29.5-12.3-44.5-18,14-26.4-27.4-47-6.5-14-4.7-29.2-16.7-41.7-26.3-10.1-34.9-4.2-72.9,9-106.1,19.2-13.5-4.3-43.8-13.9-17.8-23.1,22.5-28-30.3-38.8-42.6,17.3-11.1,46.2,19.2,64.6-2.1,9.8,6.5,10,29.5-8.1,35.7,15.2,8.4,31.9-14.5,43.5-22.9,10.1-22.7,13.4-47.9,25.5-69.9,2.6-23.6,2-58.3-29.4-60.9-27.2-5-52.4-19.2-69-41.4-18.4-22.3-54.1,6.5-59-30.4-2.9-19.3,26.1-18.2,32.9-35.3C76.031,26.147,75.031,13.347,69.831.947Zm227.6,564.6c-17.7-2-15.9,19.9,2.1,9.2,7.2-2.3,4.1-9.7-2.1-9.2h0Zm-4.1,17c-29.5,3.2-47.5,23.8-62.8,47-7.8,17.2-20.4,36.9-28.6,49.1,14.3,1.2,15.9,4.4,17.8,17.1,15.2,13.9,8.7-21.2,27.1-13.4,12.5-7.1,15.5-13.6,15.5,5.4,4.9,3.4,19-.3,21.2,3.1-2.3-12.6,35.9-2.9,28.8-23.6-16.1-6.7-13.3-25.3-17.2-39,21.1-8.3,15.6-36.8-1.8-45.7h0Z" transform="translate(0 0)" fill="#f6e1b9" stroke="#333"/><text transform="translate(108.494 410.418)" font-size="156.406" font-family="DejaVu Sans" font-weight="700" style="isolation:isolate">1</text><rect x="27.322" y="154.87" width="67.324" height="67.324" fill="#ffd1dc" stroke="#000" stroke-width="3"/><rect x="98.822" y="154.87" width="67.324" height="67.324" fill="#f0f0f0" stroke="#000" stroke-width="3"/></svg>