<svg xmlns="http://www.w3.org/2000/svg" width="929.132" height="1463.28" viewBox="0 0 929.132 1463.28"><title>1T Législatives 2017 Corse-du-Sud</title><path d="M575.7,373.755l4.442-8.864L568.32,322.125l-13.654-5.473-4.442-8.671,0.929-24.9-3.477-21.2L523.709,267.9l-17.9-7.43-3.8-7.879-8.973-.414L481.833,237.6l-4.5.9-7.968-12.01-25.3-2.423-9.074-4.6L430.1,205.644,420.584,195l-3.611-3.477-19.676,3.94-24.331-25.713,3.388-19.075-8.608-11.671-17.4-8.822,0.765-43.993-4.557-1.97-39.581,20.654-32.25-12.8-19.876.177-15.91-18.8-33.632-5.4-10.979-9.071-33.041.614-2.3-14.633-24.144-2.7L111.8,23.781,87.445,22.336,73.43,27.681l-15.1-11.934-14.446-4.34,4.091,8.506-7.528,6.074-18.159.023L20.851,15.743l-5.473-2.059-2.571,17.2,4.531,1.72,7.128,6.74-1.793,19.59L26.226,78.25l9.436,0.1L60.885,54.6l9.613-1.97,18.408,7.817,11.819,15.4L97.79,85.365,72.819,101.954l1.743,9.751,7.479,5.558,19.538-3.8,9.925,10.214,7.4,4.757,17.821-2.935,0.023,4.856,12.7,6.812,6.149,17.505,9.636,0.2,3.611,10.214-1.77,16.514-48.468,9.363-8.093,5.785-28.891-.716-2.058,4.6L37.979,217.141l-9.935,4.682L19.2,214.5,7.968,219.18l13.461,14.9,9.048-5.959L40.254,229l3.828,5.476-6.714,9.212,8.772,8.506L39.063,254.1l-1.97,11.08,12.837-2.725L48.36,280.515l5.043,16.54,4.317,2.912-4.629,3.575-17.279.9-6.566,7.719,9.262,5.5,20.8-3.966,6.327,8.332-15.2,11.908-17.87,8.021-2.85,8.946,17.23-9.751,9.521,2.5L64,355.468,49.683,377.2l38.261-7.879,3.877,13.6,17.23-.591,1.129,5.581,9.386-1.619,7.039,6.074,8.093,17,4.419,1.881,18.336-4.242,9.826-10.178,12.912,3.851,8.608,21.077-3.477,13.966,4.629,1.254,7.328,12.285,3.552,19.042,18.773-.657,6.172,7.4-0.565,3.188,4.393,13.526L221.2,503.841l-14.882-2.6v8.506l-12.7,9.074-26.665,3.283-17.305,10.027-15.22,13.132-1.858,9.436-2.058,3.966,4.731,12.476,8.9-.765,1.77,4.14-0.657,11.547-21.012,18.973-14.068,1.819-13.526-4.041-9.636-1.156-21.258,11.1,16.563,34.046,9.662-.364,4.78,8.181L84.008,686.637l1.97,14.531-3.851,9.074,29.39-17.729,9.56-2.259,29.489,6.123,19.462-4.78,25.047,0.515,4.856-1.313,21.521-12.939,1.1-15.02-6.238-21.547,11.645-16.251,1.907-6.967,10.391,2.935-0.9,10.151,4.757,7.591,8.559,4.219,18.95-.716,18.924,6.274v7.794l7.052,1.156-1.254,10.591,11,4.5-5.985,7.666-9.337,3.451-3.917,9.147,1.543,4.317,12.21-5.345,4.219,1.72,10.755-8.635,8.864,2.032,27.906-20.706L343.1,645.191l19.413-18.572,22.676-4.393L398.1,607.37l36-14.117,4.806-8.536,3.263-8.7,29.315-22.325,4.531-7.919,29.728-16.744,4.041-9.212,11.77-9.386-0.414-9.56,14.633,13.162,18.257-7.551,19.515,1.343,11.934-8.382,9.725,1.793,14.094-4.9,8.021-2.229,2.3-9.311,21.859-9.662-4.7-7.945L641.6,430.3l-10.716-21.34-19.311-14.807-14.344-1.468-9.048-11.547Z" transform="translate(-5.433 -8.991)" fill="#06c" stroke="#000" stroke-width="3"/><path d="M641.254,475.366l-21.57,9.413-2.361,9.413-8.221,2.361-14.117,4.7-9.8-1.569-11.77,8.231-19.6-1.179-18.057,7.453L520.85,500.866l0.391,9.8-11.783,9.413-3.9,9.022-29.8,16.865-4.34,7.843L442,576.157l-3.139,8.635-5.1,8.644-35.69,14.117L385.14,622.472l-22.726,4.317-19.6,18.435,10.591,21.182-27.847,20.782-9.022-1.97-10.591,8.644-4.317-1.97-12.184,5.5-1.569-4.317,3.917-9.022,9.413-3.526,5.887-7.843-10.979-4.317,1.179-10.591-7.039-1.179v-7.843l-18.822-6.274-18.822.765-8.644-4.317-4.7-7.453,0.778-10.178-10.178-3.139-1.934,7.052-11.783,16.087,6.274,21.57,7.453-6.274,4.7,0.778,9.413,11.77,9.413-3.526,9.413,2.361L283.2,696.206l5.1,18.458-6.274,7.039-17.256,7.843,1.569,13.326,7.052,6.665,1.179,21.57-7.052,7.453-29.8,3.917V786l9.413,2.361,18.822,15.687L257.739,816.2l-2.774,14.909-14.909,2.774-3.526-3.526-4.7,1.97-16.087,17.62L192.2,845.61l-1.934,4.317,21.183,26.3-19.6,28.235-29.8,17.256-18.057-5.91-7.453,6.3-1.182,5.089,1.934,4.317,9.8-2.361,34.509,4.317L185.121,937l-0.391,19.6,4.7,1.569L252.178,931.9l9.413,0.778,6.665,7.039-11.369,26.665,13.73,18.822,4.34,1.179,10.591-10.178,13.73-5.509L312.6,976.97l18.057,16.465,38.035,3.526,12.147,7.843,24.321-1.569,3.917,13.326-34.9,15.687-7.453,28.235-7.052,6.665-3.526-3.139-14.909,1.569-36.869,23.139-14.117-10.591-4.7,7.843-7.843,5.5-3.526,33.73L263.2,1146.378l3.142,4.344,8.635,3.5,9.8,16.892L274.6,1181.707l-4.7,7.453,11.369,6.665,12.939-1.179,4.317,4.317,9.8,10.178,19.6,1.2,12.939,5.887,0.364,9.8-11.77,16.051,4.7,7.843,10.979-1.179,20-8.231,16.087,13.326-5.1,12.147,30.2-1.97,8.231,26.3,14.909-7.479,5.887,6.665,23.917-.391,20.391,20.027L493.4,1296.2l4.34,9.8,7.453,6.274,11.77-5.91-1.179,11.369,9.413,12.939,14.117-12.147,2.748,18.057,12.147-5.887,20.391-21.183,9.413-1.97-12.147,20.782-1.179,18.822,5.5,7.843,9.022,3.139,15.3-10.979,4.33,8.648,18.822,3.526,1.569,4.7-12.147,14.909-0.391,9.8-9.777,10.178-6.274,18.822,4.317,8.635,5.1,1.179,29.413-5.887,11.77,9.413,14.508,0.778,3.139,1.97-3.565,3.52,18.822,4.317,9.413,21.947,4.317,2.361,39.217-2.748L737,1449.108l22.739-31.373,6.625-13.342,7.843-5.5,5.509-18.822-4.7-1.179-12.548,7.052-21.57,20.391-4.34,2.361-4.337-1.573-2.748-9.413,8.635-3.139,3.917-14.117-3.526-9.413,1.179-13.73,18.458-7.453,21.182-21.2,9.413-3.139,0.391-9.022,11.77-9.022,4.317-9.022-2.748-22.739-8.635,4.7-4.7-8.231,10.979-16.865-8.231-16.865,1.179-4.317,14.117-4.7,12.939-15.687,23.921-18.828,14.117-3.526,11.77-7.052,3.917-18.822,17.256-23.13-1.97-4.317-9.8.391-14.117,1.97L854.6,1129.854l-14.508-2.748-22.739,25.864-4.317,1.97-7.843-6.274-3.526-9.022,2.748-14.909,20-14.117V1096.11l9.048-3.917-0.391,4.7,10.591,10.591,29.413-1.179,2.361-8.231-6.274-12.939,4.317-8.635,9.8-1.179,8.231,4.695,16.465-18.057,0.778-24.321-11.369-14.922,10.591-16.087L925.235,998l4.7-24.321-2.748-9.022,3.9-8.635-2.361-9.413,4.317-48.626-1.97-9.413-9.022-3.917,2.37-19.213-3.894-14.478,10.979-33.33-3.526-54.5-16.465-10.979-10.178.391-24.709,16.865-5.5,8.634-13.326,6.274-9.8,11.369-19.186,5.5-0.778-9.777L821,785.136l-19.213-1.2-14.117,5.1-27.056-11.77-9.8,1.569-9.022-11.369,9.022-28.235,1.2-9.413,13.73-20.782,0.765-9.8-1.569-4.7-3.139-3.9-12.548-8.231-14.482,1.179-8.231-4.7,18.435-21.57-14.508-11.77,6.274-12.548,3.526-32.575-5.887-6.638L733.994,575.3l-5.1-7.443,5.887-47.06-36.869-4.317-27.847,5.5-9.413-17.256-20.782-20ZM775.378,1456.9l-5.887,3.917v2.361l6.665,3.139,2.748,3.917,2.361,0.391,2.361-3.917,4.34,0.778,2.748-3.917-0.778-1.97-5.1-.364-2.361-3.917Z" transform="translate(-5.433 -8.991)" fill="#06c" stroke="#000" stroke-width="3"/><text transform="translate(129.923 336.825)" font-size="236.383" font-family="DejaVu Sans" font-weight="700" style="isolation:isolate">1</text><text transform="translate(497.517 895.499)" font-size="236.383" font-family="DejaVu Sans" font-weight="700" style="isolation:isolate">2</text><rect x="497.517" y="1000.445" width="239.666" height="239.666" fill="#fc3" stroke="#000" stroke-width="3"/><rect x="301.625" y="278.632" width="195.892" height="195.892" fill="#ffeb00" stroke="#000" stroke-width="3"/></svg>