<svg xmlns="http://www.w3.org/2000/svg" width="360.315" height="786.494" viewBox="0 0 360.315 786.494"><title>1T Législatives 2017 Corse</title><path d="M199.825,390.877l1.353-2.7-3.6-13.026-4.159-1.667-1.353-2.641,0.283-7.583L191.29,356.8l-7.3,1.831-5.451-2.263-1.158-2.4-2.733-.126-3.413-4.441-1.372.275-2.427-3.658-7.706-.738-2.764-1.4-1.487-4.212-2.9-3.241-1.1-1.059-5.993,1.2-7.411-7.832,1.032-5.81-2.622-3.555-5.3-2.687,0.233-13.4-1.388-.6-12.056,6.291-9.823-3.9-6.054.054-4.846-5.726-10.244-1.644L83.663,295l-10.064.187-0.7-4.457-7.354-.822-7.018-5.63-7.419-.44-4.269,1.628-4.6-3.635-4.4-1.322,1.246,2.591-2.293,1.85-5.531.007-0.437-3.127-1.667-.627-0.783,5.24,1.38,0.524,2.171,2.053-0.546,5.967,1.082,5.882,2.874,0.031,7.683-7.235,2.928-.6,5.607,2.381,3.6,4.69-0.894,2.9-7.606,5.053,0.531,2.97,2.278,1.693,5.951-1.158,3.023,3.111,2.255,1.449,5.428-.894,0.007,1.479,3.868,2.075,1.873,5.332,2.935,0.061,1.1,3.111-0.539,5.03L60.6,335.2l-2.465,1.762-8.8-.218-0.627,1.4-12.667,5.03L33.015,344.6l-2.695-2.23-3.42,1.425,4.1,4.539,2.756-1.815,2.978,0.267,1.166,1.668-2.045,2.806,2.672,2.591-2.156.581-0.6,3.375,3.91-.83-0.478,5.5,1.536,5.038,1.315,0.887-1.41,1.089-5.263.275-2,2.351,2.821,1.674,6.337-1.208,1.927,2.538-4.629,3.627-5.443,2.443-0.868,2.725,5.248-2.97,2.9,0.761,2.293,3.6-4.361,6.62,11.654-2.4,1.181,4.143,5.248-.18,0.344,1.7,2.859-.493,2.144,1.85,2.465,5.179,1.346,0.573,5.585-1.292,2.993-3.1,3.933,1.173,2.622,6.42-1.059,4.254,1.41,0.382,2.232,3.742,1.082,5.8,5.718-.2,1.88,2.255-0.172.971,1.338,4.12L91.848,430.5l-4.533-.791V432.3l-3.868,2.764-8.122,1-5.271,3.054-4.636,4-0.566,2.874L64.225,447.2l1.441,3.8,2.71-.233,0.539,1.261-0.2,3.517-6.4,5.779-4.285.554-4.12-1.231-2.935-.352L44.5,463.676l5.045,10.37,2.943-.111,1.456,2.492-3.883,9.751,0.6,4.426-1.173,2.764,8.952-5.4,2.912-.688,8.982,1.865,5.928-1.456,7.629,0.157,1.479-.4,6.555-3.941,0.336-4.575-1.9-6.563,3.547-4.95,0.581-2.122,3.165,0.894-0.275,3.092,1.449,2.312,2.607,1.285,5.772-.218,5.764,1.911v2.374l2.148,0.352-0.382,3.226,3.352,1.372-1.823,2.335-2.844,1.051-1.193,2.786,0.47,1.315,3.719-1.628,1.285,0.524,3.276-2.63,2.7,0.619,8.5-6.307-3.2-6.406,5.913-5.657,6.907-1.338,3.933-4.525,10.966-4.3,1.464-2.6,0.994-2.649,8.929-6.8,1.38-2.412,9.055-5.1,1.231-2.806,3.585-2.859L183.21,429.6l4.457,4.009,5.561-2.3,5.944,0.409,3.635-2.553,2.962,0.546,4.293-1.494,2.443-.679,0.7-2.836,6.658-2.943-1.433-2.42L219.9,408.1l-3.264-6.5-5.882-4.51-4.369-.447-2.756-3.517Z" transform="translate(0 0)" fill="#06c" stroke="#000"/><path d="M219.793,421.827l-6.57,2.867-0.719,2.867-2.5.719-4.3,1.433-2.985-.478-3.585,2.507-5.97-.359-5.5,2.27-4.541-4.059,0.119,2.985-3.589,2.867-1.189,2.748-9.078,5.137-1.322,2.389-8.959,6.807-0.956,2.63-1.552,2.633-10.871,4.3-3.939,4.544-6.922,1.315-5.97,5.615,3.226,6.452-8.482,6.33-2.748-.6-3.226,2.633-1.315-.6-3.711,1.674-0.478-1.315,1.193-2.748,2.867-1.074,1.793-2.389-3.344-1.315,0.359-3.226-2.144-.359v-2.389l-5.733-1.911-5.733.233-2.633-1.315-1.433-2.27,0.237-3.1-3.1-.956L93.9,467.467l-3.589,4.9,1.911,6.57,2.27-1.911,1.433,0.237,2.867,3.585,2.867-1.074,2.867,0.719,6.211,8.6,1.552,5.622-1.911,2.144-5.256,2.389,0.478,4.059,2.148,2.03,0.359,6.57-2.148,2.27-9.078,1.193v1.074l2.867,0.719,5.733,4.778-2.5,3.7-0.845,4.541-4.541.845-1.074-1.074-1.433.6-4.9,5.367-7.17-1.32-0.589,1.315,6.452,8.011-5.97,8.6-9.078,5.256-5.5-1.8L66.06,557.9l-0.36,1.55,0.589,1.315,2.985-.719,10.511,1.315,1.074,1.074L80.74,568.4l1.433,0.478,19.111-8,2.867,0.237,2.03,2.144-3.463,8.122,4.182,5.733,1.322,0.359,3.226-3.1,4.182-1.678,4.059,1.911,5.5,5.015,11.585,1.074,3.7,2.389,7.408-.478,1.193,4.059-10.63,4.778-2.27,8.6-2.148,2.03-1.074-.956-4.541.478-11.23,7.048-4.3-3.226-1.433,2.389-2.389,1.674-1.074,10.274-3.344,6.452,0.957,1.323,2.63,1.067,2.985,5.145-3.1,3.226-1.433,2.27,3.463,2.03,3.941-.359,1.315,1.315,2.985,3.1,5.97,0.367,3.941,1.793,0.111,2.985-3.585,4.889,1.433,2.389,3.344-.359,6.093-2.507,4.9,4.059-1.552,3.7,9.2-.6,2.507,8.011,4.541-2.278,1.793,2.03,7.285-.119,6.211,6.1,4.182-3.941,1.322,2.985,2.27,1.911,3.585-1.8-0.359,3.463,2.867,3.941,4.3-3.7,0.837,5.5,3.7-1.793,6.211-6.452,2.867-.6-3.7,6.33-0.359,5.733,1.674,2.389,2.748,0.956,4.659-3.344L208.7,690l5.733,1.074,0.478,1.433-3.7,4.541-0.119,2.985-2.978,3.1-1.911,5.733,1.315,2.63,1.552,0.359,8.959-1.793,3.585,2.867,4.419,0.237,0.956,0.6-1.086,1.072,5.733,1.315,2.867,6.685,1.315,0.719,11.945-.837,1.193-4.3,6.926-9.556L257.9,704.8l2.389-1.674,1.678-5.733-1.433-.359-3.822,2.148-6.57,6.211-1.322.719-1.321-.479-0.837-2.867,2.63-.956,1.193-4.3-1.074-2.867,0.359-4.182,5.622-2.27,6.452-6.456,2.867-.956,0.119-2.748,3.585-2.748,1.315-2.748-0.837-6.926-2.63,1.433-1.433-2.507,3.344-5.137-2.507-5.137,0.359-1.315,4.3-1.433,3.941-4.778L281.553,641l4.3-1.074,3.585-2.148,1.193-5.733L295.887,625l-0.6-1.315-2.985.119-4.3.6-3.226-3.226-4.419-.837-6.926,7.878-1.315.6-2.389-1.911-1.074-2.748,0.837-4.541,6.093-4.3V610.9l2.756-1.193-0.119,1.433,3.226,3.226,8.959-.359,0.719-2.507-1.911-3.941,1.315-2.63,2.985-.359L296.02,606l5.015-5.5,0.237-7.408-3.463-4.545,3.226-4.9,5.256-2.63,1.433-7.408-0.837-2.748,1.189-2.63-0.719-2.867,1.315-14.811-0.6-2.867-2.748-1.193,0.722-5.852-1.186-4.41,3.344-10.152-1.074-16.6-5.015-3.344-3.1.119-7.526,5.137-1.674,2.63-4.059,1.911-2.985,3.463-5.844,1.674-0.237-2.978-2.148-1.911-5.852-.367-4.3,1.552-8.241-3.585-2.985.478-2.748-3.463,2.748-8.6,0.367-2.867,4.182-6.33,0.233-2.985-0.478-1.433-0.956-1.189-3.822-2.507-4.411.359-2.507-1.433,5.615-6.57-4.419-3.585,1.911-3.822,1.074-9.922-1.793-2.022-0.119-5.622L246.489,450l1.793-14.334-11.23-1.315-8.482,1.674-2.867-5.256-6.33-6.093Zm40.853,298.967-1.793,1.193v0.719l2.03,0.956,0.837,1.193,0.719,0.119,0.719-1.193,1.322,0.237,0.837-1.193-0.237-.6-1.552-.111-0.719-1.193Z" transform="translate(0 0)" fill="#06c" stroke="#000"/><path d="M324.091,136.441l0.566-4.189,1.651-9.988,2.309-5.607,0.462-6.032L336.1,96.88l-1.441-13-1.716-4.231,0.768-7.7-1.33-2.813,0.291-2.874-2.091-3.979,1.009-2.764-1.189-2.53,0.2-5.569-1.575-2.72,0.291-7.793-1.418-4.4,0.994-1.215-4.552-8.883-1.067-2.928,2.806-10.114L313.367,2.321l-5.474,2.263-6.735-1.59-4.067,1.77-4.472-.44-4.56,3.769,0.007,8.608,2.092,3.833L289.2,23.313l0.925,1.151L289.21,27.2l3.493,4.957-2.358,5.7,2.882,3.463-10.745,9.624-1.528,2.385,2.075,4.113,0.069,4.667L287,66.7l-1.433.516-8.4,14.192,3.016,3.3,2.278,5.653,3.769,3.7,1.494,4.3-0.868,14.865,1.292,9.273-0.267,2.993-4.545,6.242-2.217,1.606-0.336,8.474-8.176,8.8-2.935.111-5.317-9.319-4.56-3.8-0.218-4.591-2.538-1.747-4.575-.015-3.979-6.314-2.912.722-4.95,3.1L229.6,124.034l-8.554,2.756-4.518-.134-2.075,2.24-2.978.409-2.412,3.838-4.606.462-1.12,4.388-2.672,3.822L199.648,143l-2.993-.26,1.88,4.067,5.03,2.97,3.524,8.271,4.113,1.606-3.463,4.293,1.613,4.315,10.893,12.625,0.08,2.978-2.978,6.769,2.576,6.876-2.343,3.815,1.353,0.7,0.3,4.464,2.4,3.845,11.849,13.6,5.6,1.582,3.868-4.411,5.508-.879L248.512,216l1.716-5.546-0.554-2.79,1.1-.978,4.419-3.3,15.35,3.264,1.559-1.189,8.741,3.283,7.247-2.507,7.511-2.309,2.725-.275-1.128,4.308,1.238,5.779,5.137,4.9,3.085,0.233,3.853-1.494,1.942,1.98,2.733,0.531,0.447,2.263,3.425-1.12,2.328-3.046,2.4-.688,6.2-4.04,8.845-.783,2.993,0.382,5.21,5,2.614,0.038,0.4,0.2-2.209-18.374-3.777-8.13-9.789-13.229-7.457-11.429-4.434-10.159-0.719-10.424,2.569-6.914Z" transform="translate(0 0)" fill="#fc3" stroke="#000"/><path d="M126.873,180.134l-5.076,3.1-2.7-1.441-5.787,1.552,1.193,4.369-2.523,3.82,0.493,5.936-2.164,2.148-3.214,3.116-6.375.994-3.4-2.943,1.051-2.935L91.2,199.127l-3.673,1.5-0.267-9.04-4.7,2.263-1.193,3.727,3.142,0.134-1.089,2.248,3.2,4.411-4.056,7.411,2.06,3.777,1.032,2.2-7.419-1.009-3.994,5.286-3.291-1.724-3.719,1.582,0.329,8.279-5.653,9.25,2.007-.21,7.362-.417L72.3,242.7l-5.443,5.045,2.641,5.011-7.182.367,3.815,4.12,1.024,3.18-2.309,4.143-3.092,2.178-3.331-2.515-4.62-1.246-0.776,1.754-4.308.2-0.007,2.083-1.59,1.552,3.383,2.515-3.352,1.659,2.5,5.137-5.317,2.022-2.584-.65L37.827,280.5l4.4,1.322,4.6,3.635L51.1,283.83l7.419,0.432,7.018,5.63,7.354,0.83,0.7,4.457L83.648,295l3.344,2.764L97.236,299.4l4.846,5.733,6.054-.061,9.823,3.9,12.056-6.288,1.388,0.589-0.233,13.409,5.3,2.687,2.622,3.555-1.032,5.81,7.411,7.824,5.993-1.2,1.1,1.059,2.9,3.241,1.479,4.22,2.771,1.4,7.706,0.738,2.427,3.658,1.372-.267,3.413,4.434,2.733,0.134,1.158,2.4,5.451,2.255,7.3-1.823,1.059,6.456-0.283,7.583,1.353,2.641,4.151,1.667,3.612,13.026-1.353,2.687,3.761,2.309,2.764,3.517,4.361,0.447,5.882,4.51,3.264,6.5-1.464,11.23,1.426,2.412-0.554,2.859,6.429,6.085,2.786,5.317,8.466-1.7,11.31,1.353-1.777,14.28,1.51,2.32,0.141,5.638,1.739,1.98-1.089,9.946-1.9,3.861,4.487,3.493-5.638,6.62,2.53,1.426,4.441-.352,3.769,2.485,0.994,1.151,0.409,1.464L257.673,493l-4.2,6.33-0.359,2.859-2.79,8.661,2.786,3.421,2.985-.44,8.218,3.578,4.262-1.529,5.967,0.291,2.129,1.98,0.164,2.943,5.829-1.6L285.68,516l4.067-1.988,1.7-2.561L299,506.279l3.054-.134L307.1,509.5l-1.667-6.884,1.7-10.159,2.144-3.868,2.312-9.609-1.024-4.136,0.2-7.472,8.546-14.2,0.5-.852,5.13-5.5,12.931-20.231,16.99-24.256,2.263-17-0.6-6.188,1.418-17.082-1.823-10.675,0.023-9.369,0.635-4.7,1.51-13.424-1.991-7.254-3.62-12.908-0.688-3.815-1.716-9.475-0.814-8.867,0.852-6.586,0.971-7.927,1.674-7.018-0.814-6.016,0.244-7.212-1.815-5.5-1.51-5.68-0.6-5.382L350,218.04l-0.4-.2-2.614-.031-5.21-5-2.993-.375-8.845.783-6.2,4.04-2.4.68-2.328,3.046-3.425,1.128-0.447-2.27-2.733-.531-1.942-1.98-3.853,1.5-3.085-.237-5.137-4.889-1.238-5.787,1.135-4.3-2.733.267-7.511,2.312-7.241,2.5-8.741-3.291L270.5,206.6l-15.35-3.264-4.419,3.3-1.1.978,0.558,2.786-1.724,5.546-0.046,4.239-5.516.879-3.868,4.4-5.592-1.582-11.857-13.6-2.4-3.845-0.3-4.457-1.353-.711,2.343-3.815L217.3,190.59l2.978-6.769-0.077-2.985-10.9-12.617-1.613-4.315,3.463-4.293L207.036,158l-3.524-8.271-5.03-2.962L196.6,142.7l-1.33.673-0.879,5.978,1.12,7.4-3.585,2.71L186.1,160.91l-4,4.487-2.507.94-2.194-1.559-0.925.978L170,166.827l-10.37,2.553-2.591-.9-1.6-2.24-3.65,1.166-5.967,4.285-7.583.417-2.375,5.426-2.553,2.947-5.374-1.277Z" transform="translate(0 0)" fill="#fc3" stroke="#000"/><path d="M356.117,351.389l0.023-9.369,0.635-4.7,1.51-13.424-1.991-7.255-3.62-12.908-0.688-3.815-1.716-9.475-0.814-8.867,0.852-6.586,0.971-7.927,1.674-7.018-0.814-6.016,0.244-7.212-1.815-5.5-1.51-5.68-0.6-5.382,1.543-12.2,0.04,0.02L347.832,199.7l-3.777-8.13-9.789-13.229-7.457-11.429-4.434-10.159-0.719-10.424,2.569-6.914-0.136-2.985,0.565-4.189,1.651-9.988,2.309-5.607,0.462-6.032L336.1,96.88l-1.441-13-1.716-4.232,0.768-7.7-1.33-2.813,0.291-2.874-2.091-3.979,1.009-2.764-1.189-2.53,0.2-5.569L329.026,48.7l0.291-7.793-1.418-4.4,0.994-1.215-4.552-8.883-1.067-2.928,2.806-10.114L313.367,2.321l-5.474,2.263-6.735-1.59-4.067,1.77-4.472-.44-4.56,3.769,0.007,8.608,2.092,3.833L289.2,23.313l0.925,1.151L289.21,27.2l3.493,4.957-2.358,5.7,2.882,3.463-10.745,9.624-1.528,2.385,2.075,4.113,0.069,4.667L287,66.7l-1.433.516-8.4,14.192,3.016,3.3,2.278,5.653,3.769,3.7,1.494,4.3-0.868,14.865,1.292,9.273-0.267,2.993-4.545,6.242-2.217,1.606-0.336,8.474-8.176,8.8-2.935.111-5.317-9.319-4.56-3.8-0.218-4.591-2.538-1.747-4.575-.015-3.979-6.314-2.912.722-4.95,3.1L229.6,124.034l-8.554,2.756-4.518-.134-2.075,2.24-2.978.409-2.412,3.838-4.606.462-1.12,4.388-2.672,3.822L199.648,143l-2.993-.26-0.047-.036-1.33.673-0.879,5.978,1.12,7.4-3.585,2.71-5.821,1.449-4,4.487-2.507.94-2.194-1.559-0.925.978L170,166.827l-10.37,2.553-2.591-.9-1.6-2.24-3.65,1.166-5.967,4.285-7.583.417-2.375,5.426-2.553,2.947-5.374-1.277-1.063.933-5.076,3.1-2.7-1.441-5.787,1.552,1.193,4.369-2.524,3.817,0.493,5.936-2.164,2.148-3.214,3.116-6.375.994-3.4-2.943,1.051-2.935L91.2,199.127l-3.673,1.5-0.267-9.04-4.7,2.263-1.193,3.727,3.142,0.134-1.089,2.248,3.2,4.411-4.056,7.411,2.06,3.777,1.032,2.2-7.419-1.009-3.994,5.286-3.291-1.724-3.719,1.582,0.329,8.279-5.653,9.25,2.007-.21,7.362-.417L72.3,242.7l-5.443,5.045,2.641,5.011-7.182.367,3.815,4.12,1.024,3.18-2.309,4.143-3.092,2.178-3.331-2.515-4.62-1.246-0.776,1.754-4.308.2-0.007,2.083-1.59,1.552,3.383,2.515-3.352,1.659,2.5,5.137-5.317,2.022-2.584-.65L37.827,280.5l4.4,1.322,4.6,3.635L51.1,283.83l7.419,0.432,7.018,5.63,7.354,0.83,0.7,4.457L83.648,295l3.344,2.764L97.236,299.4l4.846,5.733,6.054-.061,9.823,3.9,12.056-6.288,1.388,0.589-0.233,13.409,5.3,2.687,2.622,3.555-1.032,5.81,7.411,7.824,5.993-1.2,1.1,1.059,2.9,3.241,1.479,4.22,2.771,1.4,7.706,0.738,2.427,3.658,1.372-.267,3.413,4.434,2.733,0.134,1.158,2.4,5.451,2.255,7.3-1.823,1.059,6.456-0.283,7.583,1.353,2.641,4.151,1.667,3.612,13.026-1.353,2.687,3.761,2.309,2.764,3.517,4.361,0.447,5.882,4.51,3.264,6.5-1.464,11.23,1.426,2.412-0.554,2.859,6.429,6.085,2.786,5.317,8.466-1.7,11.31,1.353-1.777,14.28,1.51,2.32,0.141,5.638,1.739,1.98-1.089,9.946-1.9,3.861,4.487,3.493-5.638,6.62,2.53,1.426,4.441-.352,3.769,2.485,0.994,1.151,0.409,1.464L257.673,493l-4.2,6.33-0.359,2.859-2.79,8.661,2.786,3.421,2.985-.44,8.218,3.578,4.262-1.529,5.967,0.291,2.129,1.98,0.164,2.943,5.829-1.6L285.68,516l4.067-1.988,1.7-2.561L299,506.279l3.054-.134L307.1,509.5l-1.667-6.884,1.7-10.159,2.144-3.868,2.312-9.609-1.024-4.136,0.2-7.472,8.546-14.2,0.5-.852,5.13-5.5,12.931-20.231,16.99-24.256,2.263-17-0.6-6.188,1.418-17.082Z" transform="translate(0 0)" fill="none" stroke="#000" stroke-width="4"/><path d="M307.36,565.373l1.315-14.811-0.6-2.867-2.748-1.193,0.722-5.852-1.189-4.416,3.344-10.152-1.074-16.6-5.015-3.344-3.1.119-7.526,5.137-1.674,2.63-4.059,1.911-2.985,3.463-5.844,1.674-0.237-2.978-2.148-1.911-5.852-.367-4.3,1.552-8.241-3.585-2.985.478-2.748-3.463,2.748-8.6,0.367-2.867,4.182-6.33,0.233-2.985-0.478-1.433-0.956-1.189-3.822-2.507-4.411.359-2.507-1.433,5.615-6.57-4.419-3.585,1.911-3.822,1.074-9.922-1.793-2.022-0.119-5.622L246.489,450l1.793-14.334-11.23-1.315-8.482,1.674-2.867-5.256-6.33-6.093,0.422-2.841-1.37-2.494,1.472-11.23-3.264-6.5-5.882-4.51-4.369-.447-2.756-3.517-3.8-2.249,1.353-2.7-3.6-13.026L193.42,373.5l-1.353-2.641,0.283-7.583-1.059-6.456-7.3,1.831-5.451-2.263-1.158-2.4-2.733-.126-3.413-4.441-1.372.275-2.427-3.658-7.706-.738-2.764-1.4-1.487-4.212-2.9-3.241-1.1-1.059-5.993,1.2-7.411-7.832,1.032-5.81-2.622-3.555-5.3-2.687,0.233-13.4-1.388-.6L117.975,309l-9.823-3.9-6.054.054-4.846-5.726-10.244-1.644-3.344-2.764L73.6,295.2l-0.7-4.457-7.354-.822-7.018-5.63-7.419-.44-4.269,1.628-4.6-3.635-4.4-1.322,1.246,2.591-2.293,1.85-5.531.008-0.438-3.139-1.667-.627-0.783,5.24,1.38,0.523,2.171,2.052-0.546,5.967,1.082,5.882,2.874,0.031,7.683-7.235,2.928-.6,5.607,2.381,3.6,4.69-0.894,2.9-7.606,5.053,0.531,2.97,2.278,1.693,5.951-1.158,3.023,3.111,2.255,1.449,5.428-.894,0.008,1.479,3.868,2.075,1.873,5.332,2.935,0.061,1.1,3.111-0.539,5.03L60.6,335.2l-2.465,1.762-8.8-.218-0.627,1.4-12.667,5.03-3.023,1.418-2.695-2.225L26.9,343.8l4.1,4.539,2.756-1.815,2.978,0.267,1.166,1.668-2.045,2.806,2.672,2.591-2.156.581-0.6,3.375,3.91-.83-0.478,5.5,1.536,5.038,1.315,0.887-1.411,1.089-5.263.275-2,2.351,2.821,1.674,6.337-1.208,1.927,2.538-4.629,3.627-5.443,2.443-0.868,2.725,5.248-2.97,2.9,0.76,2.293,3.6-4.361,6.62,11.654-2.4,1.181,4.143,5.248-.18,0.344,1.7,2.859-.493,2.144,1.85,2.465,5.179,1.346,0.573,5.585-1.292,2.993-3.1,3.933,1.173,2.622,6.422-1.059,4.254,1.41,0.382,2.232,3.742,1.082,5.794,5.718-.2,1.88,2.255-0.172.971,1.338,4.12L91.847,430.5l-4.533-.791v2.584l-3.868,2.764-8.122,1-5.271,3.054-4.636,4-0.565,2.874-0.627,1.208,1.441,3.8,2.71-.233,0.539,1.261-0.2,3.517-6.4,5.779-4.285.554-4.12-1.231-2.935-.352L44.5,463.676l5.045,10.37,2.943-.111,1.456,2.492-3.883,9.751,0.6,4.426-1.173,2.764,8.952-5.4,2.912-.688,8.982,1.865,5.928-1.456,7.629,0.157,1.479-.4,6.555-3.941,0.336-4.575-0.008-.028,2.228-1.875,1.433,0.237,2.867,3.585,2.867-1.074,2.867,0.719,6.211,8.6,1.552,5.622-1.911,2.144-5.256,2.389,0.478,4.059,2.148,2.03,0.359,6.57-2.148,2.27-9.078,1.193v1.074l2.867,0.719,5.733,4.778-2.5,3.7-0.845,4.541-4.541.845-1.074-1.074-1.433.6-4.9,5.367-7.167-1.315-0.589,1.315,6.452,8.011-5.97,8.6-9.078,5.256-5.5-1.8-2.27,1.911L65.7,559.451l0.589,1.315,2.985-.719,10.511,1.315,1.074,1.074-0.119,5.97,1.433,0.478,19.111-8,2.867,0.237,2.03,2.144-3.463,8.122,4.182,5.733,1.322,0.359,3.226-3.1,4.182-1.678,4.059,1.911,5.5,5.015L136.77,580.7l3.7,2.389,7.408-.478,1.193,4.059-10.63,4.778-2.27,8.6-2.148,2.03-1.074-.956-4.541.478-11.23,7.048-4.3-3.226-1.433,2.389-2.389,1.674-1.074,10.274-3.344,6.452,0.962,1.322,2.63,1.067,2.985,5.145-3.1,3.226-1.433,2.27,3.463,2.03,3.941-.359,1.315,1.315,2.985,3.1,5.97,0.367,3.941,1.793,0.111,2.985-3.585,4.889,1.433,2.389,3.344-.359,6.093-2.507,4.9,4.059-1.552,3.7,9.2-.6,2.507,8.011,4.541-2.278,1.793,2.03,7.285-.119,6.211,6.1,4.182-3.941,1.322,2.985,2.27,1.911,3.585-1.8-0.359,3.463,2.867,3.941,4.3-3.7,0.837,5.5,3.7-1.793,6.211-6.452,2.867-.6-3.7,6.33-0.359,5.733,1.674,2.389,2.748,0.956,4.659-3.344L208.7,690l5.733,1.074,0.478,1.433-3.7,4.541-0.119,2.985-2.978,3.1-1.911,5.733,1.315,2.63,1.552,0.359,8.959-1.793,3.585,2.867,4.419,0.237,0.956,0.6-1.086,1.072,5.733,1.315,2.867,6.685,1.315,0.719,11.945-.837,1.193-4.3,6.926-9.556L257.9,704.8l2.389-1.674,1.678-5.733-1.433-.359-3.822,2.148-6.57,6.211-1.322.719-1.321-.479-0.837-2.867,2.63-.956,1.193-4.3-1.074-2.867,0.359-4.182,5.622-2.27,6.452-6.456,2.867-.956,0.118-2.748,3.585-2.748,1.315-2.748-0.837-6.926-2.63,1.433-1.433-2.507,3.344-5.137-2.507-5.137,0.359-1.315,4.3-1.433,3.941-4.778L281.552,641l4.3-1.074,3.585-2.148,1.193-5.733L295.886,625l-0.6-1.315-2.985.118-4.3.6-3.226-3.226-4.419-.837-6.926,7.878-1.315.6-2.389-1.911-1.074-2.748,0.837-4.541,6.093-4.3V610.9l2.756-1.193-0.119,1.433,3.226,3.226,8.959-.359,0.719-2.507-1.911-3.941,1.315-2.63,2.985-.359,2.507,1.43,5.015-5.5,0.237-7.408-3.463-4.545,3.226-4.9,5.256-2.63,1.433-7.408-0.837-2.748,1.189-2.63Z" transform="translate(0 0)" fill="none" stroke="#000" stroke-width="4"/><polygon points="263.527 722.116 262.808 720.923 260.645 720.793 258.853 721.986 258.853 722.705 260.882 723.66 261.719 724.853 262.438 724.971 263.157 723.779 264.479 724.016 265.316 722.823 265.079 722.227 263.527 722.116" fill="none" stroke="#000" stroke-width="4"/><text transform="translate(0 97.402)" font-size="40.615" font-family="DejaVu Sans" font-weight="700" style="isolation:isolate">Haute-Corse</text><text transform="translate(0 769.638)" font-size="40.615" font-family="DejaVu Sans" font-weight="700" style="isolation:isolate">Corse-du-Sud</text><text transform="translate(65.701 382.367)" font-size="72" font-family="DejaVu Sans" font-weight="700" style="isolation:isolate">1</text><text transform="translate(177.667 552.534)" font-size="72" font-family="DejaVu Sans" font-weight="700" style="isolation:isolate">2</text><text transform="translate(226.333 201.866)" font-size="72" font-family="DejaVu Sans" font-weight="700" style="isolation:isolate">1</text><text transform="translate(197.667 313.867)" font-size="72" font-family="DejaVu Sans" font-weight="700" style="isolation:isolate">2</text><rect x="249" y="331.892" width="65.5" height="65.5" fill="#ffeb00" stroke="#000"/><rect x="177.667" y="584.5" width="73" height="73" fill="#fc3" stroke="#000"/><rect x="118" y="364.642" width="59.667" height="59.667" fill="#ffeb00" stroke="#000"/><rect x="278.625" y="156.5" width="35.875" height="35.875" fill="#06c" stroke="#000"/></svg>