<svg xmlns="http://www.w3.org/2000/svg" width="966.04" height="1556.823" viewBox="0 0 966.04 1556.823"><title>1T Législatives 2017 Haute-Corse</title><path d="M862.133,403.285l1.7-12.542,4.943-29.9,6.913-16.787L877.067,326l21.02-41.151-4.314-38.921-5.138-12.667,2.3-23.053-3.982-8.422,0.871-8.6-6.26-11.913L884.585,173l-3.56-7.575,0.6-16.673L876.91,140.6l0.871-23.332L873.536,104.1l2.976-3.638-13.628-26.6L859.69,65.1l8.4-30.281L830.026,1.741,813.637,8.516l-20.164-4.76L781.3,9.056,767.909,7.737,754.256,19.021l0.021,25.772,6.263,11.476-2.883,8.32,2.769,3.446L757.7,76.227l10.458,14.841-7.06,17.065,8.628,10.368-32.17,28.813-4.575,7.14,6.212,12.314,0.207,13.973,11.676,13.745-4.29,1.545-25.149,42.49,9.03,9.88,6.82,16.925L748.77,276.4l4.473,12.874-2.6,44.5,3.868,27.763-0.8,8.961L740.1,389.189,733.466,394l-1.006,25.37-24.478,26.347-8.787.332-15.919-27.9-13.652-11.377-0.647-13.742-7.6-5.23-13.7-.045-11.913-18.9-8.718,2.162-14.82,9.281-33-14.152-25.61,8.251-13.527-.4-6.212,6.706-8.916,1.225-7.221,11.491L503.95,394.8l-3.345,13.128-8,11.443-3.045,3.548-8.961-.778,5.629,12.176,15.059,8.892,10.551,24.763,12.314,4.808-10.368,12.853,4.829,12.919,32.613,37.8,0.24,8.916-8.916,20.266,7.712,20.586-7.015,11.422,4.051,2.1,0.9,13.365,7.185,11.512,35.475,40.717,16.766,4.736,11.58-13.206,16.495-2.638,0.162-12.667L641,624.86l-1.659-8.353,3.293-2.928,13.23-9.88,45.957,9.772,4.667-3.56,26.17,9.829,21.7-7.506,22.487-6.913L785,604.5l-3.377,12.9,3.706,17.3,15.38,14.67,9.236,0.7,11.536-4.473,5.814,5.928,8.182,1.59,1.338,6.775,10.254-3.353,6.97-9.119,7.185-2.06,18.562-12.1,26.481-2.344,8.961,1.144,15.6,14.97,7.826,0.114,1.2,0.6-6.614-55.01-11.308-24.341-29.307-39.607L870.3,494.564l-13.275-30.415-2.153-31.209,7.691-20.7Z" transform="translate(0 -0.001)" fill="#fc3" stroke="#000" stroke-width="3"/><path d="M271.678,534.1l-15.2,9.281-8.084-4.314-17.326,4.647,3.572,13.08-7.55,11.434L228.566,586l-6.479,6.431-9.622,9.329-19.086,2.976-10.18-8.808,3.147-8.787-21.469,3.823-11,4.491-0.8-27.065-14.071,6.775-3.572,11.158,9.407,0.4-3.26,6.73,9.581,13.206L139.02,628.847l6.167,11.308,3.09,6.587-22.212-3.021-11.957,15.826-9.853-5.162-11.134,4.736,0.985,24.787L77.181,711.6l6.009-.629,22.041-1.248,3.06,11.691-16.3,15.1,7.907,15-21.5,1.1L89.82,764.951l3.066,9.521-6.913,12.4-9.257,6.521-9.973-7.53-13.832-3.73-2.323,5.251-12.9.6-0.018,6.243-4.76,4.647,10.128,7.53L33,811.372l7.485,15.38-15.915,6.053-7.736-1.946-11.751,3.73,13.173,3.958,13.772,10.88,12.781-4.874,22.212,1.293L88.031,862.7l22.017,2.485,2.1,13.344L142.27,878l10.012,8.275,30.67,4.9,14.509,17.164,18.125-.183,29.4,11.676L281.085,901l4.156,1.763-0.7,40.145,15.868,8.045,7.85,10.643-3.09,17.395,22.188,23.424,17.942-3.589,3.293,3.171,8.682,9.7,4.428,12.634,8.3,4.191,23.071,2.21,7.266,10.952,4.108-.8,10.218,13.275,8.182,0.4,3.467,7.185,16.32,6.751,21.856-5.458,3.171,19.329-0.847,22.7,4.051,7.907,12.428,4.991,10.814,39-4.051,8.045,11.26,6.913,8.275,10.53,13.056,1.338,17.61,13.5,9.772,19.46-4.383,33.622,4.269,7.221-1.659,8.56,19.248,18.218,8.341,15.919,25.347-5.09,33.861,4.051-5.32,42.753,4.521,6.946,0.422,16.88,5.206,5.928-3.26,29.778-5.688,11.56,13.434,10.458-16.88,19.82,7.575,4.269,13.3-1.054,11.284,7.44,2.976,3.446,1.225,4.383-0.56,8.916-12.574,18.951-1.075,8.56-8.353,25.93,8.341,10.242,8.937-1.317,24.6,10.712,12.76-4.578,17.865,0.871,6.374,5.928,0.491,8.811,17.452-4.79,9.03-10.449,12.176-5.952,5.09-7.667,22.613-15.485,9.143-.4,15.107,10.045-4.991-20.61,5.09-30.415,6.419-11.581,6.922-28.769-3.066-12.383,0.6-22.371,25.586-42.514,1.5-2.551,15.359-16.467,38.714-60.57,50.867-72.621,6.775-50.9-1.8-18.526,4.245-51.142-5.458-31.96,0.069-28.05,1.9-14.071,4.521-40.19-5.961-21.718-10.838-38.646-2.06-11.422-5.138-28.367L938.083,837.8l2.551-19.718,2.907-23.733,5.012-21.011-2.437-18.011,0.73-21.592-5.434-16.467-4.521-17.005-1.8-16.113,4.607-36.571-1.2-.6-7.826-.093-15.6-14.97-8.961-1.123-26.472,2.358-18.562,12.1-7.185,2.036-6.97,9.119-10.254,3.377-1.338-6.8-8.182-1.59-5.814-5.928-11.535,4.49-9.236-.71L785.183,634.6l-3.706-17.326,3.4-12.874-8.182.8-22.5,6.923-21.679,7.5-26.17-9.853-4.667,3.566-45.957-9.772-13.23,9.88-3.293,2.928,1.671,8.341-5.162,16.6-0.138,12.691L619.06,656.64l-11.58,13.173-16.742-4.736-35.5-40.717-7.185-11.512-0.9-13.344-4.051-2.129,7.015-11.422-7.712-20.55,8.916-20.266L551.09,536.2l-32.629-37.773-4.829-12.919L524,472.654l-12.32-4.823-10.55-24.763L486.07,434.2l-5.635-12.173-3.982,2.015-2.632,17.9,3.353,22.155-10.733,8.114-17.428,4.338-11.975,13.428-7.506,2.814-6.569-4.668-2.769,2.928L400.8,494.259,369.752,501.9l-7.757-2.7-4.79-6.706-10.928,3.491-17.865,12.829-22.7,1.248L298.6,526.314l-7.643,8.823-16.089-3.823Z" transform="translate(0 -0.001)" fill="#fc3" stroke="#000" stroke-width="3"/><text transform="translate(569.454 599.163)" font-size="215.562" font-family="DejaVu Sans" font-weight="700" style="isolation:isolate">1</text><text transform="translate(483.63 934.484)" font-size="215.562" font-family="DejaVu Sans" font-weight="700" style="isolation:isolate">2</text><rect x="726.012" y="463.339" width="107.407" height="107.407" fill="#06c" stroke="#000" stroke-width="3"/><rect x="656.524" y="844.339" width="107.407" height="107.407" fill="#ffeb00" stroke="#000" stroke-width="3"/></svg>