<svg xmlns="http://www.w3.org/2000/svg" width="971.605" height="645.33" viewBox="0 0 971.605 645.33"><title>Circonscription des Bouches-du-Rhône depuis 2010</title><path d="M592.735,395.875l-5,10.211-5.451.339-14.04-22.268-6.735-19.521,2.675-4.875-0.815-5.885-7.377-4.636-26.789-1.363-8.322,3.158-7.355-9.267-1.861-8.675-6.368-9.62,5.553-.945,5.913-9.678,7.961,7.269,5.481,1.406L527,310.4l-6.014-6.31L518.6,292.907l-2.971.165-13.817-11.185-5.87-.915-11.1-9.886L464.71,253.1l8-16.124,19.139,8.524,35.832-21.914,8.747-8.214,20.393,0.1,4.363-3.649,1.622,2.481,6.281-4.651,7.464-2.618,7.312,2.971,2.819,10.831,13.139,5.928,3.8,7.7-0.757,3.1,0.959,13.7,2.618,1.327,16.86-3.771,11.913,12.706,4.636,16.961,5.689,1.327,5.069-2.87-2.957,16.139-1.608,4.788,2.618,4.226,5.718,5.885,8.171-.353,15.972,7.55L692.5,325.5l8.689,1.493,2.026,11.336,2.228,1.947-8.718,14.393-16.86,3.577-7.73-3.829-1.45,5.718-13.636,14.66,1.283,8.264-8.214,2.113-5.04,6.771-16.311-3.353-3.057-6.958-9.59-3.224Z" transform="translate(-19.47 -10.767)" fill="silver" stroke="#000"/><path d="M806.293,570.449l0.858-3.577-5.1-6.057-0.238-5.481,5.069-6.072,2.7,0.49,7.269-8.985-4.579-18.6,15.735-12.692L839,510.005l26.508,9.562,8.228,0.736,7.283-3.915,7.3,3.757,8.747,5.156,4.961-1.983,7.687,0.31,5.7,5.113,21.8-3.707,6.368,13.031,8.833,11.509,6.988,4.947-1.139,12.649-13.9,4.406L921.671,584.15l2.012,4.636-13.55,5.228-2.466,15.749-1.493,21.943-2.51,9.562-15.828-7.377-14.364,2.084-5.971,6.3-1.421,8.524-3.533,4.672-21.057-10.254-9.115-11.6-3.75-4.55-1.269-11.589-5.055-2.985L808.866,618.3l-4.312,7.312,4.182-13.672-5.913-13,3.4-4.2,5.718-.757,1.154-2.646-2.733-4.774Z" transform="translate(-19.47 -10.767)" fill="silver" stroke="#000"/><path d="M779.4,380.212l-7.2,8.553L762.622,395l-5.026-1.76-16.369,2.589-11.869,7.3,2.56,22.254L721.59,438.464l2.7,4.55,8.242-1.565,3.3,13.42,6.93,8.379,9.295,6.115,9.353-5.761,4.7,2.747,9.915,21.857-7.046,13.139,1.687,8.214,7.168,10.715,5.185,6.973,13.918-.519,9.771-5.257,5.553,0.707L828,509.486l10.982,0.533,26.508,9.562,8.228,0.721L881,516.4l7.3,3.75,8.747,5.171,4.961-2,8.451-2.055,4.283-7.55-1.1-8.589,9.475-10.961-5.79-9.706-3-20.479-3.974-7.918-2.04-2-5.56,1.3-14.379-.4-4.832-3.057-6.692-4.716-10.846-1.861-3.606-16.65-10.478-9.367-14.883,8.127-2.747-.772-6.368-5.7-11.553.519-20.436-19.506,22.39-16.622,2.6-18.157-3.224-.915-16.478-3.158-8.257,1.658-7.24-4.493-4.961.562-4.067,7.153,0.281,5.336,3.454,4.3Z" transform="translate(-19.47 -10.767)" fill="silver" stroke="#000"/><path d="M646.033,297.861l2.618,4.226,5.718,5.885,8.171-.353,15.972,7.536,13.982,10.326,8.689,1.478,2.026,11.336,2.228,1.954-8.718,14.393-16.86,3.577-7.73-3.829-1.45,5.718-13.636,14.66,1.283,8.264,10.817,10.593,0.382,5.675,5.257,6.158,1.55,10.982,6.014,12.295-8.393.029-2.423,8.214-11.185,2.452-1.7,11.307-4.326,3.721,3.8,8.35,4.593,9.028,13.081-5.56,11.675,12.692,8.011,0.49,3.158-4.3,10.06-.151-2.113-4.889,12.929-5.142,3.461,4.053,0.519,11.156,8.365-1.283,14.422-5.56,5.776-4-9.295-6.115-6.944-8.379-3.3-13.42-8.228,1.565-2.7-4.55L731.9,425.361l-2.553-22.254,11.869-7.3,16.369-2.589,5.026,1.76,9.576-6.238,7.182-8.538,1.067-2.553-3.461-4.312L776.7,368l1.637-2.849-4.918-.562-2.553-1.774,0.072-.945-0.548-3.165-2.408-1.55-1.76-3.735-1.168-1.406-2.069-.786-2.069-.115-2.733,7.153-6.678,2.51,1.932-2.928-0.151-8.069,5.761-7.017,1.832,2.365,4.182-2.279-0.75-12.5,6.194,4.326V331.1l9.764-23.025-3.382-1.673,0.195-6.814-3-.692-6.5,4.774-10.932,1.579-7.521,4.392-10.86-.887-2.322,6.649-4.254-6.057-12.266-1.622-2.985-5,1.24-4.168-12.735-12.518-4.378,2.214-3.721,4.211-7.788-2.87-7.2,4.421-17.14,1.536-17.1-2.466Z" transform="translate(-19.47 -10.767)" fill="silver" stroke="#000"/><path d="M525.016,412.633l0.151,6.324,4.254,17.581-0.75,14.942,7.8,4.11,14.538-1.125,4.067,10.831-1.918,5.495,1.889,16.636L554.5,501.358l-8.35,11.185,5.156,2.747,23.494,0.058,7.932,2.279,10.875-1.168,6.576-4.622,5.011,0.75,24.128,3.547,8-2.9,12.678-5.6,14.956-12.872-2.1-10.478,2.733-7.507-2.762-4.636-4.593-9.028-3.815-8.35,4.341-3.721,1.7-11.293,11.17-2.466,2.437-8.214,8.393-.029-6.014-12.295-1.55-10.968-5.264-6.165-0.368-5.675-10.817-10.593-8.214,2.113-5.04,6.771-16.326-3.353-3-6.814-9.649-3.281-23.155,17.479-5.243,10.225-5.79-.043-13.391-21.28-7.182-20.393,2.834-4.593-1.017-5.985-6.988-4.536-26.847-1.363-8.538,3.029-7.168-8.776-1.9-8.574-6.454-10.11-4.788.3,1.046,23.631-7.86,12.071-2.452,8.574,2.69,17.537-1.522,6.115,2.9,4.449h21l4.961,2.957,3.325,5.026,0.115,4.211Z" transform="translate(-19.47 -10.767)" fill="silver" stroke="#000"/><path d="M525.276,517.195l-11.069-3.476-12.237-10.406,5.379-10.139-5.776-2.264-10.2-18.662-7.608-11.228,8.6-5.113-3.31-3.454-6.829-.519-0.707,5.293-4.658-3.129-2.084-17.17-4.168-3.944-20.66-5.819-13.744,5.675-0.353,6.75-11.833,6.988-2.055-2.524,5.156-8.574,5.928-4.1-10.11,1.168-2.264,6.692-6.973-11.7-2.675.649-4.2-9.5,0.238-10.3-6.1,3.757L417,445l-7.225,6.4L387.3,429.932l-3.664,5.422,21.828,18.958-3.18,2.365-7.846-4.341-2.661,5.35,10.168,3.635-1.687,11.66-10.831,2.228,20.2,5.6,10.168,10.7,19.124-17.083-0.339-7.8,2.971,8.214L406.509,507.7l-2.279,9.281-6,.072-7.269-12.987-1.954-20.746-47.76-35.861-11.928-17.17,9.115-25.138,8.956-12.028,5.1-3.086,17.35-.368,9.194,6.764,5.293-2.553,8.278,8.675,10.774-4.125,12.678-22.86,23.45-11.819,8.589-1.832,16.831,21.157,5.113-3.325,3.649-18.706,10.672-2.928L479.865,345.8l4.067-5.661,5.834,5.856,1.932-16.975-4.363-2.113-5.7-8.51,6.454-11.589,6.339,8.761-0.043,11.321,3.454-3.49,2.856,0.577,0.664,23.566-7.745,12.252-2.481,8.6,2.776,17.588-1.673,5.733,3.3,4.832,20.732-.368,5.1,3.057,3.086,5.026,0.649,14.8,4.254,17.465-0.75,14.675,7.521,4.031,14.8-1.053L555,465.016l-1.932,5.495,1.9,16.636-0.548,13.932-8.35,11.185-4.283,4.11-8.408-2.69Z" transform="translate(-19.47 -10.767)" fill="silver" stroke="#000"/><path d="M766.227,353.452l-1.168-1.392-2.069-.786-2.069-.115-2.733,7.153-6.663,2.51,1.918-2.928-0.144-8.069,5.747-7.017,1.846,2.365,4.182-2.279-0.757-12.5,6.208,4.326-0.014-3.577,9.771-23.025-3.382-1.673,0.18-6.814-2.985-.692-6.519,4.774-10.918,1.579-7.536,4.392-10.846-.887-2.336,6.649-4.254-6.057-12.266-1.622-2.971-5,1.226-4.168L704.94,286.078l5.589-2.379,5.819-12.843-0.606-5.495,28.138,1.846-10.846-22.874,2.856-8.2-1.154-14.2,4.932-1.947,5.113-12.295,19.975,10.875L791,229.119l26,7.11,11.847-.44,14.588-1.889,20.422,2.79,10.37-6.324,10.759-4.961,9.649-11.393,9.771-6.829,5.957,0.577,17.9,1.846L944.1,187.633l9.663-6.829,11.524,2.055,7.125,4.947-0.49,8.589,3.3,8.054,15.086,6.49-5.307,7.2-3.3,17.494-17.847-.447-31.339,9-5.538,6.93-5.733-.75-12.086,26.8,5.35,19.9-1.254,2.675-18.785,7.564,7.608,9,13.7,1.082,9.194,6.014,6.238,4.254,5.026-.058L931.8,341.274l-2.185,28.65-6.771,4.961-2.718,11.127,7.046,2.69,10.377,10.067,14.927,27.69,13.744,10.73,8.495,0.974,0.31,0.144-1.342,5.35-4.449,3.238L951.5,454.106l-16.788-5.856-11.862.411L910.314,456.1l-2.04-2-5.56,1.283L888.35,455l-4.846-3.057-6.692-4.716-10.846-1.861-3.606-16.65-10.478-9.367L837,427.461l-2.733-.757-6.382-5.7-11.553.519L795.9,402.014l22.39-16.622,2.6-18.157-3.224-.915-16.478-3.158-8.257,1.658-7.24-4.493-4.961.562-2.452,4.312-4.918-.562-2.553-1.774,0.086-.945-2.957-4.716Z" transform="translate(-19.47 -10.767)" fill="silver" stroke="#000"/><path d="M325.513,60.767l0.072-11.379L318.6,43.993l-4.961-10.507-2.87.562,0.49-1.76,10.507-5.574,7.932-8.942,2.171-6.439,21.186,3.757,22.917,4.565,26.861,2.957,16.268,7.86,13.254,11.833,11.675,0.757,5.214,2.026,24,12.454,13.376,16.167,3.771,4.968L508.827,92.51l4.672,7.168,4.449,11.589,3.382,14.257L547.4,140.465,567.69,151.8l9.194,5.055,29.1,14.675L636.7,161.378l5.632,0.281,11.35,2.466,13.672,3.461,17.718,3.043,6.5,6.208,10.9,8.87,16.449,8.127,10.774,5.928,15.086,7.875-5.113,12.295-4.947,1.947,1.154,14.2-2.856,8.2,10.86,22.874L715.735,265.3l0.606,5.495-5.805,12.843-9.987,4.579-3.721,4.226-7.788-2.87-7.2,4.421-17.14,1.536-17.1-2.481,2.957-16.124-5.069,2.856-5.689-1.327L635.166,261.5l-11.913-12.706-16.86,3.771-2.618-1.327-0.959-13.7,0.757-3.1-3.8-7.7L586.634,220.8l-2.819-10.831L576.5,207l-7.464,2.618-6.281,4.651-1.608-2.481-4.378,3.649-20.393-.1-8.747,8.214L491.8,245.467l-19.139-8.524L481,218.3l-0.8-29.1-10.06-4.86-0.382,50.1-16.326-6.519L449.413,214l-2.762-1.1,3.31,11.494-11.437,2.452L429.7,225.78l-13.686-5.819-32.45-1.3-14,.945-5.2-2-9-2.466-10.982-7.312-0.562-2.69-4.154-17.228,9.179-10.968,4.067-14.465-1.947-11.942,1.565-18.8-3.253-11.776-1.875-1.9-8.79-16.124-1.9,1.687-9.208-3.735,4.817-10.254,1-8.451L329,67.718Z" transform="translate(-19.47 -10.767)" fill="silver" stroke="#000"/><path d="M377.289,506.7l-25.65-8.451-27.028-.843-38.861,3.144-44.017-9.043-15.1-9.8-5.856-10.268,2.495-5.336L244.935,450.4l-6.129-17.011-7.593-9.281-12.764-7.947-20.1-6.3-42.07-1.269-16.889,5.618-14.956,1.2L110.16,411,19.992,404.58l0.815-17.523,4.745-10.817-0.872-2.834,3.858-3.707,30.056-10.9,16.946-11.228-7.182-15.778,5.733-9.339,2.185,4.716L72.4,331.294l0.974,2.7,9.237,6.721,9.843-5.538,3.158-4.341,11.35-1.745,10.564-9.771,11.494-.238,3.93-7.312-4.672-3.476,11.336-9.072L154,300.351l7.355-5.1,8.171-12.295-0.353-5.776-4.593-3.735-11.112,4.182-5.819-.915-6.129-6.635-0.988-5.618,15.086-32.616,16.016-7.168-0.721-11.819,6.1-10.268,8.495-2.718,14.956-.425,8.04-3.8,13.355,6.475,11.776,2.055,11.9,8.718,14.689-.325,2.856-.9,0.072-3L255.4,192.516l-1.24-11.9,9.706-27.957,14.523-22.621,1.622-21.071-7.031-19.492L287.52,76.647l-3.129-4.435-11.141.368,2.228-5.228-3.158-7.932,9.158-5.79L284.21,53.9l0.707,2.661,3.353-4.731,15.764-7.507,9.634-10.889,4.968,10.507,6.973,5.408-0.058,11.379,3.519,6.988,4.341,13.463-1,8.451-4.817,10.254,9.208,3.735,1.9-1.687,8.79,16.124,1.875,1.9,3.253,11.776-1.565,18.8,1.947,11.942-4.067,14.465-9.194,10.968,4.168,17.228,0.562,2.69,10.982,7.312,8.985,2.466,5.214,2,14-.945,32.45,1.3,13.686,5.819,8.819,1.067,11.437-2.452-3.31-11.494,2.747,1.1,4.031,13.918,16.326,6.519,0.368-50.1,10.067,4.86,0.786,29.1-8.322,18.648-8,16.124,20.14,17.985,11.1,9.886,5.87,0.915,13.817,11.185,2.957-.165,2.394,11.185,6.014,6.31,3.209,11.127-5.481-1.392-7.961-7.283-5.913,9.678-5.553.945-4.636.519-2.856-.577-3.454,3.476,0.043-11.307-6.339-8.761-6.454,11.589,5.689,8.495,4.378,2.113-1.947,16.982-5.819-5.87-4.067,5.661,2.452,7.3,2.026,5.026-10.665,2.942-3.649,18.692-5.113,3.339L448.091,361.9l-8.6,1.832-23.436,11.8L403.374,398.4,392.6,402.53l-8.293-8.675-5.279,2.553-9.194-6.764-17.35.368-5.1,3.086-8.956,12.028L329.3,430.263l11.928,17.17,47.76,35.861,1.968,20.746,7.269,12.987-6-.382Z" transform="translate(-19.47 -10.767)" fill="silver" stroke="#000"/><path d="M768.958,575.493l11.131,3.118,8.342-2.007,0.7-5.4,3.983-3.884,13.013,3.147,0.853-3.575-5.077-6.052-0.241-5.457,5.055-6.068,2.7,0.487,7.252-8.965-4.568-18.588-5.538-.7-9.742,5.257-13.88.523-5.171-6.964-4.265,3.781-9.491-2.171-9.7,7.472-10.839-2.333-0.953,16.229-1.849,4.358L741.785,552l11.172-1.113,4.836,6.386,4.994-2.7,2.27,4.922,5.7,1.148-0.7,2.83,0.3,4.74,2.184,3.374Z" transform="translate(-19.47 -10.767)" fill="silver" stroke="#000"/><path d="M705.162,554.675l5.747-9.79,8.4,0.223,0.7,2.209,1.023,9.9,9.119-3.326,6.784,7.17-2.551,8.187,0.07,14.378L730.61,594.7l-5.489,6.655,0.62,14.37-11.532,1.495-13.527-5.554,5.872-13.495,14.174-14.929,0.233-8.792-3.5-8.089Z" transform="translate(-19.47 -10.767)" fill="silver" stroke="#000"/><path d="M726.78,521.126l-0.419,3.274,6.5,1.507,0.282-.045,10.319,1.247,10.839,2.333,9.7-7.472,9.489,2.171,4.268-3.781-7.142-10.708-1.683-8.207,7.017-13.119-9.888-21.834-4.7-2.746-9.317,5.748-5.747,4-14.38,5.55,2.652,1.225-0.929,2.793-8.612,7.658-1.525,9.038,5.553,3.837,0.437,2.31,3.733,1.837,3.128,2.076,3.137,2.458,0.413,1.6-5.932,3.32-1.942,4.025-3.357-1.359Z" transform="translate(-19.47 -10.767)" fill="silver" stroke="#000"/><path d="M730.352,539.454l2.425-3.3-1.555-4.349,1.64-5.9-13.2-3.088-1.494,2.826-8.776-15.224-5.66-1.222,8.962,14.637,1.805,8.7-1.415,8.779,0.343,2.463,7.48,0.151,2.324-.795,0.268,2.888,2.318-.845,5.777,2.149Z" transform="translate(-19.47 -10.767)" fill="silver" stroke="#000"/><path d="M730.352,539.454l2.425-3.3-1.555-4.349,1.64-5.9,0.28-.045,10.319,1.247-0.953,16.229-1.846,4.358,0.247,1-8.807,3.841-1.956,1.356-9.119,3.326-1.023-9.9-0.7-2.209,1.592-1.18,2.324-.795,0.271,2.888,2.315-.845,3.2,1.181,2.578,0.968Z" transform="translate(-19.47 -10.767)" fill="silver" stroke="#000"/><path d="M772.83,615.223l-5.383,1.419-0.7,2.851-11.169-2.548-4.329,2.443-16.242-5.995-9.268,2.334-0.62-14.37,5.489-6.655,3.837-11.077-0.07-14.378,2.551-8.187-6.784-7.17,1.959-1.356,8.807-3.841L741.776,552l11.172-1.113,4.836,6.386,4.994-2.7,2.27,4.922,5.7,1.148-0.7,2.83,0.3,4.74,2.184,3.374-3.572,3.905,11.128,3.118,8.342-2.007,0.7-5.4,3.983-3.884,13.014,3.147,4.027,16.071,2.722,4.77-1.149,2.64-5.7.756-3.385,4.2,5.9,12.992-4.17,13.656-0.714-2.842-8.691.236Z" transform="translate(-19.47 -10.767)" fill="silver" stroke="#000"/><path d="M696.685,504.674l1.084-4.725-13.612-10.362-5.82-.754-13.274,5.721-2.08-10.466,2.725-7.494-2.758-4.621,13.041-5.557,11.646,12.671,8,0.488,3.128-4.282,10.039-.148L706.7,470.26l12.9-5.141,3.445,4.062,0.528,11.138,8.351-1.277,2.652,1.225-0.929,2.793-8.612,7.658-1.525,9.038,5.553,3.837,0.437,2.31,3.733,1.837,3.128,2.076,3.137,2.458,0.413,1.6-5.932,3.32-1.942,4.025-3.357-1.359-1.89,1.268-0.419,3.274-6.7-1.583-1.494,2.826-8.776-15.224-5.66-1.222-4.766-2.7Z" transform="translate(-19.47 -10.767)" fill="silver" stroke="#000"/><text transform="translate(253.262 318.627)" font-size="18" font-family="DejaVu Sans" font-weight="700">16</text><text transform="translate(428.262 146.667)" font-size="18" font-family="DejaVu Sans" font-weight="700">15</text><text transform="translate(798.262 296.04)" font-size="18" font-family="DejaVu Sans" font-weight="700">14</text><text transform="translate(785.924 461.706)" font-size="18" font-family="DejaVu Sans" font-weight="700">10</text><text transform="translate(846.225 567.844)" font-size="18" font-family="DejaVu Sans" font-weight="700">9</text><text transform="translate(736.225 588.344)" font-size="18" font-family="DejaVu Sans" font-weight="700">6</text><text transform="translate(753.561 538.718)" font-size="18" font-family="DejaVu Sans" font-weight="700">1</text><text transform="translate(702.061 571.621)" font-size="18" font-family="DejaVu Sans" font-weight="700">2</text><text transform="translate(696.487 530.771)" font-size="18" font-family="DejaVu Sans" font-weight="700">4</text><text transform="translate(712.325 534.118)" font-size="18" font-family="DejaVu Sans" font-weight="700">5</text><text transform="translate(727.325 495.618)" font-size="18" font-family="DejaVu Sans" font-weight="700">3</text><text transform="translate(688.658 492.951)" font-size="18" font-family="DejaVu Sans" font-weight="700">7</text><text transform="translate(669.944 401.234)" font-size="18" font-family="DejaVu Sans" font-weight="700">11</text><text transform="translate(574.945 451.734)" font-size="18" font-family="DejaVu Sans" font-weight="700">12</text><text transform="translate(431.945 401.234)" font-size="18" font-family="DejaVu Sans" font-weight="700">13</text><text transform="translate(567.329 307.683)" font-size="18" font-family="DejaVu Sans" font-weight="700">8</text></svg>