<svg xmlns="http://www.w3.org/2000/svg" width="733.204" height="977.891" viewBox="0 0 733.204 977.891"><title>Circonscription du Rhône et la métropole de Lyon depuis 2010</title><path d="M422.853,492.365l-2.5-22.784,5.381-4.318,0.4-.113,21.627-23.189-0.113-4.026,10.047-4.723,3.434,1.449,8.806,16.425,15.014,3.161,2.333,12.7-5.278,13.433,0.866,1.985,35.145-19,3.18,6.726,14.459,4.243,0.715,11.242,6.887-4.167,2.5,19.737,20.159,6.764-6.764,18.965-2.906,8.062-15.325,1.345-8.768,12.86-2.116,5.974,1.044,1.43,0.574,19.332-0.583.348,10.545,21.129-7.677,8.579-6.905,2.549-7.15.7-6.745,8.307-14.111-6.453-4.957-6.133L511.9,589.015l-3.64-5.437-14.939,10.085-9.6,11.2-2.85-2.408-4.318-9.718-9.483-5.861-2.54-7.018-2.521,7.131L455.3,590l-2.22-19.643-17.046-21.806-8.467,1.5-1.27-16.293-5.861,2.925-10.1,6.378-11.683,2.465L397.284,525.6l0.828-3.6,17.545-12.7,5.437-4.647,1.834-10.235Z" transform="translate(-33.386 -11.058)" fill="silver" stroke="#000"/><path d="M96.306,431.02l-7.77-1.138-14.459-13.1,5.324-5.663-2.258-7.629L69.994,394,59.542,388.7l-13.415-3.876-8.749-6.4-3.339-12.276,17.836-.188,4.1,6.011,14.77-3.819,8.269,7.77,9.52-18.7-1.326-3.311-3.6-15.635-0.621.131L69.128,341.99l-6.171-3.914L54.9,324.7l-6.924-4.008L39.8,305.536l2.135-2.813,25.315-1.138,9.577-11.543,4.468-9.991L80.1,272.76l7.206-3.744L88.149,253.9l-4.243-6.378,2.521-11.12,8.326-7.864,1.928-15.193,8.485-6.378,23.058-3.4,6.115-9.294,10.047-3.641,21.129,14.553,7.291,1.326,5.033-17.855,6.012-4.835,5.936-14.205,23.792-17.639,9.717-2.408-0.366-14.459,16,15.8,8.016,12.8L244.83,179.6l-3.274,6.209,1.872,6.745-5.305,4.515,19.088,21.75,5.729,5,1.43,11.505,14,22.089,1.158,7.479-8.043,21.439-0.169.715L267.9,307.587l-10.414,13.819-6.077,3.255,0.188,7.714,14.713,4.393,4.9,5.71,6.416,15.673-1.674,6.726,2.549-.329,9.887,4.431,2.7,6.961L309.92,377l11.872,9.849,11.43,1.326,16.387-2.888,1.044,3.415,6.8,2.041-0.536,13.4-7.554.131-6.651,8.382,4.892,9.7,6.048,4.3,13.669-6.077,1.75,0.771,0.31,1.307-2.991,15.86-2.832,8.909-2.521.64-10.893,3.274,7.224,17.216-1.158,2.7-0.6,11.524-1.138,7.384,7.224,8.5,2.2,14.732,2.935,2.277,2.022,6.4,5.626,3.725,2.832,1.082-2.154,2.163,4.026,14.459,9.774,5.748,9.774-3.716,11.683-2.465,10.1-6.4,5.861-2.925,1.27,16.293,8.467-1.487,17.046,21.806,2.22,19.624,6.708-3.01,2.521-7.131,2.54,7.018,9.483,5.861,4.318,9.718-11.185,2.5-1.778,3.029,6.5,12.437-1.712,3.142-16.35,10.1-8.636-7.131-4.76-5.2-2.154-17.545L424.3,607.226l-9.661-10.6-10.471,2.925-11.411,4.412-10.772-2.738-17.347,1.8-13.913,15.155-10.95,19.718-6.887,5.287-19-.809L308.93,631.75l-12.7-9.219-2.54,7.629-15.964,18.006-19.012-8.156,3.377-10.7-1.948-3.358-7.63-.978-4.205-6.5L234.2,621.731l-6.575-2.483,11.815-15.231L239,600.1,235.1,588.947l-12.183-9.539-3.434-6.961-15.419-11.063-5.55-9.812-7.188,2.5-3.7-1.025-12.342,8.617-23.9-11.74-6.012-9.736,6.03-4.957,4.43-10.95-1.364-6.115-26.68-1.157-14.9-12.333-4.43-15.231L99.9,481.158l-2.39-7.5,18.372-13.65-6.905-2.935,6.764-13.34Z" transform="translate(-33.386 -11.058)" fill="silver" stroke="#000"/><path d="M350.134,451.3l10.893-3.255,2.521-.659,2.832-8.909,2.991-15.842-0.31-1.326-1.75-.771-13.669,6.077-6.048-4.3-4.892-9.7,6.651-8.363,7.554-.15,0.536-13.377-6.8-2.06-1.044-3.4-16.387,2.888-11.43-1.345-11.872-9.849L291.077,375.9l-2.7-6.961-9.887-4.431-2.549.348,1.674-6.745L271.2,342.441l-4.9-5.71-14.713-4.393-0.188-7.714,6.077-3.236,10.414-13.819L271.3,287l0.169-.7,8.043-21.458-1.158-7.479-14-22.089-1.43-11.505-5.729-5-19.088-21.75,5.305-4.515-1.872-6.745,3.274-6.209,2.116-15.879-8.016-12.8-16-15.785,0.366,14.459-9.717,2.39L189.776,169.6l-4.149-5.748-15.249-8.345L164,152.988l-8.119-8.043,0.555-7.441,20.856-8.636-0.96-4.506-11.995-14.553-14.939-.2-1.486-6.8L152.231,89.1,147.4,79.122l2.163-2.041,7.018-21.844L156,46.291l1.91-11.317,6.67-9.736L163.574,21.4l14.939-.367,2.022-7.46,6.887,3.97,3.048,7.347,14.977-3.339,13.8,13.433,10.414-4.224,12.4,24.121,27.2-3.622,6.764-4.224,1.411-11.082,7.639-12.8,9.643,1.392,1.373,3.339,1.044,15.033,10.893,10.141,25.635,4.515,2.662-7.366-3.894-10.95,15-13.067,2.352-11.006,11.609-1.966,9.041,7.554L382.606,11.6l10.913,2.54,0.366,9.021,7.479,11.186,3.377,0.188,0.169,17.441-5.588,2.5-5.729-4.76-4.1,5.936-6.8-1.618L385.408,68.9l5.748,5.4,11.778-.6,2.935,2.644,9.426,5L427.675,94.1l-2.54,6.575-10.386-1.138,1.214,6.67,11.3,12.747-7.883,6.708-3.452,10.452,2.3,14.459,3.744,5.663,17.2,6.858,10.085-2.549,9.849-1.6,3.763,0.48,1.694,5.8,7.535,9.276,8.636,8.269-5.278,19.934-6.782,9.558-12.333,15.306-3.97,12.785-5.55,6.8-9.717,10.715,1.288,10.31,5.305,3.97,4.394,13.3-2.136,7.187-15.56,15.823,4.816,14.092,0.64,8.56-1.75,12.032,3.763,15.673-0.4,1.1,0.866,7.384,4.046,25.964L438.8,404.005l-1.364,2.39-14.308,13.452,0.64,10.8,10.451,4.487,13.321,2.794,0.132,4.045-21.627,23.189-0.424.094-5.381,4.337,2.5,22.766,0.132,2.079-1.816,10.235-5.456,4.647L398.053,522l-0.828,3.622,1.373,19.934-9.793,3.716-9.774-5.748-4.026-14.459,2.154-2.163-2.812-1.082L368.7,522.1l-2.022-6.378-2.926-2.3-2.22-14.732-7.206-8.5,1.12-7.384,0.6-11.524,1.158-2.681Z" transform="translate(-33.386 -11.058)" fill="silver" stroke="#000"/><path d="M429.9,739.185l-10.781-3.274,2.718-18.156-15.051-8.429-1.816-1.392-7.206,1.5-19.4,22.323-9.021,6.011L362.457,755.2l-13.923-13.01-30.094-1.411-9.623,11.571,5.823,5.184-2.738,11.2-9.991,15.889-0.424,3.763,3.66,0.978-5.842,4.487L295.3,804.179l-10.009,4.064-1.252,7.479L273.4,826.155l3.292,18.523-20.545,8.25-6.012-4.572-7.422.442-1.007-11.006-28.551.5,5.362-10.235-10.931-7.206-8.786-5.306-2.22-14.186-4.488-5.691-15.231-7.573-9.7-2.738-1.138-5.785L153.013,760.7l2.738-5.052-2.794-5.09-21.3-9.925,2.258-2.925-2.276-10.639,6.048-8.909-6.34-8.852L137.1,704l1.948-11.7,7.7-8.927,5.184-19.106,9.332-6.924-4.3-9.059-5.494-3.725-13.923,6.472-11.279-1.91-8.034-23,7.347-8.852,14.515-5.974-0.658-23.321,2.991-2.662,6.782,4.318-6.068-16.576,1.768-3.236-5.146-5.24,3.622-.574,2.521-9.963,5.513-4.008,23.9,11.74,12.342-8.617,3.7,1.044,7.188-2.521,5.55,9.812,15.419,11.082,3.434,6.942,12.183,9.539,3.894,11.157,0.442,3.914L227.65,619.352l6.575,2.483,14.111-3.255,4.205,6.519,7.63,0.959,1.948,3.358-3.377,10.7,19.012,8.156,15.964-17.987,2.54-7.639,12.7,9.219,4.957,10.621,19,0.809,6.887-5.287,10.95-19.718,13.923-15.155,17.329-1.8,10.772,2.738,11.411-4.393,10.471-2.935,9.661,10.6L440.9,603.9l2.154,17.545,4.76,5.221-14.441.64-13.048-7.733-11.891,3.339-0.113,5.823,2.662,1.176,15.014-3.161,7.978,17.178,0.188,3.6,6.557,2.568-19.8,14.242L420.1,667.7l7.309,10.856,28.843-3.895,6.67,6.745-1.345,3.7,21.5,18.486,2.888,6.228,9.313,2.888-2.484,7.244-19.858,18.7-0.536,7.639-2.352,1.12,0.4,3.819-9.21,11.2-7.385,2.2-9,10.781-3.744-.959L437.7,763.444l2.314-8.523Z" transform="translate(-33.386 -11.058)" fill="silver" stroke="#000"/><path d="M511.912,935.468l-13.575,6.472-8.711,12.239-9.849,5.532-1.731.978-15.287,10.1L463.8,984.32l-1.468,3.123-2.85.959-5.691-3.292-9.483,1.562-14.694-19.454,3.64-1.449-3.914-14.826-13.1-8.363L398.8,961.009l-14.459-1.8-3.4-1.468-5.222,5.2-7.168-11.486-6.416-1.232-2.85-10.753,2.625-2.888-3.471-19.219,0.978-15.418,8.692-7.592,2.935-7.093,0.941-.235,14.939-13.358,1.853-3.951-9.389-12.145-3.876-.988-9.849,6.8-7.46-1.307-0.884,11.853,8.984,12.719-11.759,3.292-1.232-2.794-5.711-5.691-8.156-22.982-8.768-8.429-9.6,5.785-12.605-.367L295.29,842.317l-18.646,2.39-3.312-18.5,10.659-10.433,1.252-7.479,9.991-4.083,4.026-10.329,5.842-4.468-3.678-.988,0.424-3.763,9.991-15.879,2.738-11.223-5.8-5.184,9.623-11.562,30.075,1.411,13.923,12.991,6.887-17.422,9.041-6.011,19.389-22.3,7.224-1.5,1.8,1.392,15.051,8.42-2.7,18.156,10.781,3.274,10.047,15.71-2.314,8.542,3.415,11.006,3.744,0.959,9-10.781,11.176,13.725,10.527,1.364,4.572,3.8,4.957-.574,0.621-2.041,9.793-5.146,1.656,7.206,10.545,3.236,11.12-3.933,3.763-7.15,2.154-24.073,24.4-2.888,6.595,7.883-3.1,18.156,19.934-7.328,1.308-12.879L584.032,742.2l1.891-15.692,14.883,1.007,13.359,6.867,6.115-5.033,11.185,4.12L636,739.289l11.467,2.606,12.107,1.487,22.248,9.944,3.218,7.658L671.681,768.9l-3.339,7.037-0.518,11.467,5.682,10.2-7.61,8.4-25.042-9.7-10.7,4.468,9.831,5.287-2.3,11.684-0.424.517-21.42-11.025-31.034,6.378-4.515,1.853-15.033-1.12-13.537,5.9-2.926-.038-3.97-.235-1.486,3.678-16.867,8.852-1.768,16.331-7.15-3.876-16.1-8.927L487.3,833.776l-26.933,2.644,3.218,7.225,21.824,9.981,6.048,8.015,3.744,7.77,12.681,15.673,24.5,9.963,4.488,5.917-0.772,3.725L527.712,917l-12.747,14.845Z" transform="translate(-33.386 -11.058)" fill="silver" stroke="#000"/><path d="M639.645,581.368l-6.632,2.662-10.029,2.239-8-1.778L588.921,625.3l-4.129,31.769,2.7,20.611-5.626,2.483,7.055,7.554,1.712,9.6-4.468,4.742,1.364,8.909,21.054,0.734,4.722-2.7,1.12,5.644-3.819,5.381-4.129,10.31,7.751,3.989,6.115-5.014,11.2,4.12,4.515,5.8,11.467,2.606,12.107,1.487,22.248,9.944,20.395-18.448,7.7-1.157,14.308-12.624-2.22-11.543,21.665-7.789,7.037,3.236,7.055-2.54,4.008,5.456,4.186-17.789-10.329-5.221L745.638,669.3l-5.664-4.779-25.7-2.163-3.725-15.089,2.935-15.381-19.369-.423-7.789-17.968-0.424-11.2,22.107,7.592,3.236-2.182,8.25-30.075-6.8,1.768-27.526,2.182-6.67-2.587-9.6,4.412-7.037-1.411-9.849,4.553Z" transform="translate(-33.386 -11.058)" fill="silver" stroke="#000"/><path d="M468.537,655.413l-7.464-1.647-4.592-4.243,8.381-5.59,3.462-9.676,6.4-13.553,5.758-.591,2.813,2.646,1.921,8.521,3.671,2.923,6.268-1.861,2.174-2.215,4.229,0.515,1.8,2.982-8.081,15.616,9.1,5.824,11.414,2.994,3.036,4.979,4.874,0.1,3.6-3.3,4.953,3.339-5.6,8.1-2.8,2.549L522.4,684.8l-11.8,2.171,0.78,11.308L497.428,690.8l-1.887-4.882-1.368-7.083-4.518-17.192,3.983-9.775-3.835,1.1-6.911-3.476Z" transform="translate(-33.386 -11.058)" fill="silver" stroke="#000"/><path d="M497.333,630.123l-2.174,2.219-6.268,1.86-3.671-2.919-1.921-8.525-2.813-2.646-5.758.591-6.487-12.4L470,605.291,481.17,602.8l2.842,2.4,9.589-11.16,14.9-10.069,3.626,5.417-17.8,15.83,4.963,6.1,14.08,6.426-2.646,6.325,0.015,7.765,0.156,3.1-1.107,7.78-6.58,11.631-7.94-5.111,8.081-15.612-1.8-2.982Z" transform="translate(-33.386 -11.058)" fill="silver" stroke="#000"/><path d="M503.219,654.349l6.58-11.627,1.107-7.78,8.627-.285,1.645,5.049,4.725,2.659,0.921,8.555,11.792,6.291L537.884,671.5l10.533,6.363-0.023,3.826-3.7.887-20.851-8.745,2.8-2.553,5.6-8.1-4.95-3.339-3.6,3.3-4.874-.1-3.04-4.982Z" transform="translate(-33.386 -11.058)" fill="silver" stroke="#000"/><path d="M510.735,624.079l0.015,7.765,0.156,3.1,8.627-.285,1.645,5.053,4.725,2.659,0.921,8.555,11.792,6.291-0.732,14.28,10.533,6.367,4.221-14.915L558,647.619l-17.946-3.165-5.191-9.676L525.712,623.4,527.2,608.8l-7.111.7-6.725,8.267Z" transform="translate(-33.386 -11.058)" fill="silver" stroke="#000"/><path d="M548.421,677.859l4.225-14.915,5.364-15.329,14.813,4.749,2-15.312-12.719-13.574,1.621-11.42-17.822-7.011-3.11-6.8-1.018-.549-10.51-21.058,0.584-.35L531.29,557.04l-1.037-1.425,2.1-5.944,8.731-12.806,15.3-1.332,2.876-8.035,8.444,7.353,7.944,21.065-2.319,26.414,4.459,6.43,14.4-5.729,7.7,0.277,9.709-2.412,5.336,3.993L588.9,625.53l-4.12,31.634,2.7,20.532-21.054,9.319Z" transform="translate(-33.386 -11.058)" fill="silver" stroke="#000"/><path d="M461.849,685.011l1.341-3.658-6.658-6.726-28.772,3.892-7.282-10.825,0.791-3.343,19.766-14.18-6.542-2.574L434.308,644l-7.948-17.1L411.4,630.04l-2.663-1.153,0.1-5.8,11.849-3.339,13.011,7.7,14.415-.65,8.608,7.085,16.31-10.058-4.7,10.424-3.458,9.676-8.385,5.586,4.592,4.247,7.464,1.647,14.356-5.921,6.907,3.476,3.835-1.1-3.98,9.775,4.518,17.192,1.368,7.079,1.883,4.886,13.959,7.473,2.8,10.166-4.722,8.607-1.661,5.395-4.83,29.8-1.119,7.6-13.211,13.319-2.686,7.309-0.62,2.025-4.955.564-4.558-3.788-10.51-1.354-11.132-13.671,7.364-2.207,9.18-11.152-0.405-3.826,2.34-1.109,0.531-7.6L493,719.7l2.475-7.2-9.3-2.876-2.861-6.185Z" transform="translate(-33.386 -11.058)" fill="silver" stroke="#000"/><path d="M510.6,686.963l0.784,11.308,2.8,10.162-4.722,8.61-1.661,5.395-4.83,29.8-1.119,7.6-13.211,13.323-2.686,7.305,9.776-5.131,1.645,7.19,10.514,3.2,11.079-3.915,3.766-7.1,2.14-23.973,24.328-2.868,6.572,7.843-3.095,18.083,19.888-7.3,1.3-12.829L584.1,741.893l1.876-15.631,14.851,1.009,5.566,2.868,4.132-10.253,3.808-5.353-1.119-5.628-4.708,2.69-21-.724-1.349-8.893,4.448-4.715-1.7-9.564-7.036-7.516-15.444,6.846-17.993-9.159-0.023,3.826-3.7.887-20.851-8.745-1.449,10.97-3.7.927-0.432.023Z" transform="translate(-33.386 -11.058)" fill="silver" stroke="#000"/><path d="M557.769,647.44l-17.757-3.178-5.137-9.734-9.057-11.434L527.3,608.4l6.834-2.579,7.576-8.58,1,0.552,3.081,6.842,17.635,7.046-1.607,11.487,12.588,13.648-1.982,15.4Z" transform="translate(-33.386 -11.058)" fill="silver" stroke="#000"/><text transform="translate(505.435 623.6)" font-size="24" stroke="#000" font-family="DejaVu Sans" font-weight="700">6</text><text transform="translate(603.424 666.806)" font-size="24" stroke="#000" font-family="DejaVu Sans" font-weight="700">13</text><text transform="translate(306.102 258.942)" font-size="24" stroke="#000" font-family="DejaVu Sans" font-weight="700">9</text><text transform="translate(192.102 436.276)" font-size="24" stroke="#000" font-family="DejaVu Sans" font-weight="700">8</text><text transform="translate(224.923 696.914)" font-size="24" stroke="#000" font-family="DejaVu Sans" font-weight="700">10</text><text transform="translate(373.59 837.13)" font-size="24" stroke="#000" font-family="DejaVu Sans" font-weight="700">11</text><text transform="translate(500.007 713.63)" font-size="24" stroke="#000" font-family="DejaVu Sans" font-weight="700">14</text><text transform="translate(401.859 661.44)" font-size="24" stroke="#000" font-family="DejaVu Sans" font-weight="700">12</text><text transform="translate(438.288 637.108)" font-size="24" stroke="#000" font-family="DejaVu Sans" font-weight="700">1</text><text transform="translate(452.288 618.275)" font-size="24" stroke="#000" font-family="DejaVu Sans" font-weight="700">2</text><text transform="translate(474.788 644.47)" font-size="24" stroke="#000" font-family="DejaVu Sans" font-weight="700">3</text><text transform="translate(479.288 622.637)" font-size="24" stroke="#000" font-family="DejaVu Sans" font-weight="700">4</text><text transform="translate(524.122 593.803)" font-size="24" stroke="#000" font-family="DejaVu Sans" font-weight="700">7</text><text transform="translate(449.909 531.303)" font-size="24" stroke="#000" font-family="DejaVu Sans" font-weight="700">5</text></svg>