<svg xmlns="http://www.w3.org/2000/svg" width="953.697" height="897.563" viewBox="0 0 953.697 897.563"><title>1T Législatives 2017 Alpes-de-Haute-Provence</title><path d="M793.334,753.472l4.861,7.668,11.456,3.849,1.765,15.4,2.693,1.575L799.4,785.3l-7.874,19.39,20.965,5.241,6.732,6.549-0.579,6.094-13.937,6.177-29.85,7.683-3.94,4.488,0.236,1.1-5.469-2.465-2.868-11.411-23.666-.791-3.713,6.435-17.519,13.176L712.745,854l-2.944-.137,2.168-5.911-2.335-9.121-1.841-2.6-11.677-10.338-21.422,13.153-11.175-4.663-8.482,3.91-11.661-4.13L641,839.419l-12.468,1.635-1.978,24.883-18.911,24.9-2.989-4.412-4.831-2.929-10.946,5.484-16.356-8.695-10.612-11.258-29.12-17.664L525.9,834.291l-4.845-3.568-16.447,1.544-8.733,1.963L481.458,853.5l-2.731,9.433L469,875.324,450.573,888l-7.759.73L431.327,880.7,421.255,895.14l-3.225.563,0.982,2.853-3.773,8.17L405.167,917.2l-5.333.715-3.629,3.644-3.225,2.107-10.962,4.488,2.7,11.723-11.023,10.1-6.816-6.314L362.33,932.1l-10.612-6.39-2.092-17.055-6-.358-6.208-6.923-8.916.982-5.051-3.568-2.883-5.333,1.4-6.048-2.259-9.045-7.98-3.7-0.152-3.1-1.947-1.415L298.217,874.4l-1.2,15.465-9.387,8.186-8.825,3-12.438-.16-4.321,4.488-3.895-14.933-7.25-9.943-32.642-8.68,1.37-1.932,15.679-15.123,10.634-26.686,1.4-5.972L264.1,800.9l5.157-10.939,12.05-24.738,5.257-13.982,1.711-17.8-9.54-10.939-6.078-13.16-0.905-7.874-7.09-20.767-8.961-8.9,7.592-9.022,9.09,7.98,4.025-10.924,10.634-5.409,0.829-18.47,3.012-5.3-5.439-14.438,0.137-.7,2.434-5.751L298.924,604l12.141-1.187,3.3-5.234-0.593-6.17,3.925-4.816-5.9-7.311-22.464-10.908-7.2-17.085,15.108-3.667,5.127-2.678,4.382-3.963,2.586-8.482-2.123-5.546,2.693-8.451,9.273-11.22,11.768,0.122-0.905,3.332,22.023-17.976,23.224,9.2,4.5-7.858,6.063,0.579,11.175-4.816,19.5,8.094,5.081-7.447,1.811-19.467,2.791-4.785-0.92-5.736,11.814-7.919,17.915-10.962,11.616,9.585,1.917-9.007,14.9,1.826,3.271,5.066,14.621-12.97,9.7,6.732,14.826-1.78,14.826,2.678,9.645-7.455,4.914-7.7,5.972,1.5,0.449,0.19,17.085,7.12,6.078-1.308,9.981-7.607,19.907-1.886,7.014-4.914,18.036-23.742,21.856-16.713,5.705,2.4,4.769,7.873L680.257,396l23.757-2.99,8.231-31.843,25.24,13.449,6.595,14.34,5.173,3.552,14.249-6.436,8.885,3.461,25.126-1.978,15.526,3.819,5.036,7.7-2.244,12.5,11.175,5.006,3.568,8.5-2.244,1.978-1.841,14.591,1.887,5.242-6.983,9.167,2.123,8.65-12.209,16.683,2.7,5.393-0.92,5.972-9.045,8.337,11.456,21.17,1.947,18.394,7.188,5.484,3.613,6.611L838.722,564l5.8,10.665,4.306,6.3-5.691,14.514-1.294,18.554,16.447,14.7,11.563,4.693L874.1,645.27l27.9,16.553-2.586,5.767,6.968,5.1,1.666,11.144,0.532,9.106,15.435,1.5,5.972,13.951,6.268,6.861,5.143,3.134,5.972-1.978,2.647,1.7L960.9,733.347l7.577,5.469,0.472,6.032-3.012.829-12.225,2.465-16.865,3.225-5.9-.776-5.333-7.546-16.386-13.327-9.007-1.187-2.374-2.716-19.984,7.28-12.78,24.039-21.7,10.505L822.974,760.7Z" transform="translate(-33.619 -54.456)" fill="#ffeb00" stroke="#000" stroke-width="3"/><path d="M121.121,517.118l4.945-14.142-5.842-7.044-8.292-4.085L107,480.939l-4.693-.715-5.036,3.613-9.418-.746-2.51,1.917-7.4,13.784,10.6,11.1,0.281,3.089-6.968,5.88-12.347-.92v0.372l-5.926,14.4-20.09,8.4-2.244,5.569-5.705,1.841L35.121,586.9l2.9,8.68,9.372,0.015,17.755-5.812-1.111,40.874L48.982,658.024l-4.161,18.554L41.481,690.56l3.027,11.129,10.946-.548,9.943,6.253,14.652-3.225,10.193,24.008,14.993-.16L94.7,753.9,83.365,775.19,75.979,780.6l-8.2,8.527-2.5,27.2,3.963,0.16,8.322-2.974,5.127-7.668,17.892,1.932,18.3-3.286,2.374,2.009,10.041,2.2,4.891,0.89,3.461,8.406,9.494,7.486,6.344,16.044,6.907,4.693,6.7,4.085,5.3-1.323,1.749,21.665,20.517,13.815,6.032,10.817,15.526-23.491,1.354-1.932,15.686-15.123,10.634-26.686,1.385-5.972,16.759-21.216,5.157-10.939,12.065-24.738,5.241-13.982,1.727-17.8-9.54-10.939-6.094-13.16-0.905-7.874-7.075-20.767-8.977-8.9,7.607-9.037,9.075,8,4.039-10.924,10.62-5.409,0.844-18.47,3-5.3L285.4,616.169l0.152-.7,2.419-5.751,10.924-5.767,12.141-1.187,3.3-5.234-0.593-6.17,3.91-4.816-5.9-7.311L289.3,568.327l-7.2-17.085,15.108-3.667,5.127-2.678,4.382-3.963,2.586-8.482-2.107-5.546,2.693-8.451,9.273-11.22,11.768,0.122-0.905,3.332,22.023-17.976,23.21,9.2,4.519-7.858,6.063,0.579,11.16-4.816,19.5,8.094,5.081-7.447,1.811-19.467,2.791-4.785-0.92-5.736,11.814-7.919L455,441.575l11.616,9.6,1.9-9.007,14.918,1.826,3.271,5.066,14.621-12.97,9.684,6.732,14.826-1.78,14.842,2.678,9.645-7.455,4.914-7.7,5.972,1.5,0.434,0.19,17.085,7.12,6.078-1.308,10-7.607,19.907-1.886,7.014-4.914,18.036-23.742L661.6,381.2l5.705,2.4,4.785,7.873,8.124,4.473,23.757-2.99,8.231-31.843,25.255,13.449,6.58,14.34,5.188,3.538,14.249-6.42,8.87,3.461,25.142-1.978,15.526,3.819,5.021,7.7-2.244,12.5,11.175,5.006,3.583,8.5,5.987-.654,3.818-4.861,8.718-3.241,3.963-14.621,17.618,5.5-2.51-14.826,6.192-10.308,0.517-14.933,4.975-3.712,3.492-8.543,8.71-3.195L903.322,340.9l8.839,1.742,5.439-2.525,5.546-5.645,10.3-7.455-0.251-3.195,5.751-7.3-0.358-41.5,11.335-5.553,9.54-.312,8.809-3.849,0.579-2.914-3.713-5.234L952.3,247.656l-2.062-2.465-5.926-14.872L928.3,219.92l-2.571-8.946-2.883-1.415-6.268-10.612-3.963-25.225,9.54-8.231,5.972-11.35,18.531-4.914,6.718-10.49,8-5.234,5.2-24.914,9.957-15.869,8.513-3.058-8.665-13.548L972.851,60.68,967.413,63.1l-15.96-6.953-4.945,3.089-3.956,8.4L930.129,82.018l-15.214,3.1-4.13,11.844-4.678,4.275-15.587,1.917-7.767,5.5-5.858-2.039-3.789,8.68-8.961,1.43-7.135,6.39-0.046,9.357-8.619,4.1L837.17,152.012l-21.65,13.236L799.7,163.582l1.559,8.916-9.387,28.435-9.616,5.242-7.729,8.124-6.063,35.008-18.881-.92-9.2,2.153-2.107-.4-5.987-1.856-12.2,1.856L705.62,244.8,697,248.25l-6.032-1.727-8.733.5-11.175-4.176-8.763,1.5-5.88-10.848-8.961-2.48-4.29-4.579-14.606,2.7-4.252-4.336-0.624-5.941-6.177-12.392-8.026-4.085-10.308-10.62L593.7,181.155l-2.989-.517-6.3,6.535-8.292,3.651-1.559,1.263,9.022,9.007-3.956,18.288-1.681,8.231-5.272,1.742-1.529,4.93-8.977-2.7-9.836-7.562-2.944-5.568-13.845,7.47-6.406,6.36-18.531,1.742-0.487.8,4.861,13.7,3.956,4.146,10.414,28.01-11.518,22.152L506.565,308.3l-10.46-19.641-7.235-10.49-9.684-8.246-7.09-14-7.486,4.663-3.956-6.953-0.4-17.976-15.42-5.6-5.188-1.042-5.455-5.705-3.644.046-4.754,3.1-7.1-4.754-5.614-.046-3.758,7.356,3.271,4.6L407.627,251l-1.963,2.259-9.669-6.268L380.628,258.42l-5.005,3.834L372.1,274.441,354.536,281.2l-9.4,4.07-3.94,3.446-11.616,7.562L321.7,316.5l-2.526,11.548-7.386,9.3-5.66,10.133-2.807.936-5.972.221,0.046,9.212-4.321,7.858,7.059,5.751,8.4-2.944,2.693,1.574-1.027,9.9,0.593,2.822,0.829,5.751-7.934,4.253,1.749,5.941L304,410.669l6.017,1.385,0.951,2.959-2.662,5.546,0.776,8.246-6.192-1-20.767-19.535-3.271-5.393,0.267-12.514-17.1-8.748-8.353,2.822-0.152,5.987-8.337,13.046,2.4,11.959,2.883,3.522,18.174,12.552,1.62,9.273,4.914,3.994,2.107,5.865,4.861,11.069,20.638,6.466-1.43,11.875-6.208.67-26.671-3.9-18.3-4.739-12.841-9.319-12.271-1-10.117,5.675L200.9,463.607l-10.041,7.28-15.572,2.929-10.977,5.911-3.6,5.127-10.581-4.663-1.826,2.153-13.982-.472-4.975,17.177,1.263,2.777,23.848,3.568-2.662,15.686-21.62-2.274Z" transform="translate(-33.619 -54.456)" fill="#ffeb00" stroke="#000" stroke-width="3"/><text transform="translate(516.968 602.455)" font-size="111.619" font-family="DejaVu Sans" font-weight="700">1</text><text transform="translate(516.968 320.453)" font-size="111.619" font-family="DejaVu Sans" font-weight="700">2</text><rect x="589.266" y="456.457" width="118.595" height="118.595" fill="silver" stroke="#000" stroke-width="3"/><rect x="699.734" y="202.599" width="104.111" height="104.111" fill="#d00" stroke="#000" stroke-width="3"/></svg>