<svg xmlns="http://www.w3.org/2000/svg" width="921.302" height="891.953" viewBox="0 0 921.302 891.953"><title>1T Législatives 2017 Vaucluse</title><path d="M249.235,707.043L231.322,691.05l-21.986-10.6-36.3-4.015-30.971-6.17-28.633-5.077,8.625-8.508,23.048-7.748,12.182-16.178,18.536-14.277-3.48-15.242,2.32-11.607,23.165,2.4,3.655-11.139,5.156,7.465,10.906-.623,16.276,8.888-0.341,33.573,28.214-1.3,4.512,2.339-3.352,41.438,9.463,6.013-3.041,6.11-7.426,7.728,3.138,13.575Z" transform="translate(-37.42 -79.245)" fill="#ffeb00" stroke="#000" stroke-width="3"/><path d="M551.273,745.849l-2.358,10.525-9.327,5.652-7.086.224-17.279-16.938-7.826-2-21.753-4.59-9.1-2.436-8.946-2.476-2.115-39.7,2.417-27.6-1.14-11.9-5.175-10.34,0.36-8.907-23.809-6.93-7.572-.556-5.535-5.156-15.193.1L401.5,629.27l-9.229-9.327-5.652-1.218-5.233,10.145-15.242,12.221L350.573,639.7,335.8,638.6l-7.748-17.192-18.1-6.666L295.6,609.73l-6.568-2.758-7.826,6.451L270.8,615l-12.465,8.849,3.411,6.988,4.512,2.339-3.333,41.438,9.443,5.993-3.031,6.13-7.446,7.728,3.157,13.575,7.046,2.739,32.434,16.811L322.6,749.462l5.077,6.714,24.92,18.692,6.315,9.687,6.033,15.662,4.571,19.247,35.23,20.212L432.17,855,444.6,861.83l39.324,19.833,41.517-13.721,7.592,0.379,15.36,3.333,18.468,4.678,23.964,4.113,8.79,8.391,14.716,11.987,22.23,10.983,14.56,8.011,20.388,10.643,27,14.677,7.1-33.808,9.385-5.789-9.824-16.811-7.709,1.1-5.886-4.931-7.484-.244-4.278-1.1L686,873.768l16.694-9.99,18.634-1.657,1.862-20.768-3.655-15.7,2.573-15.895-7.914-18.468-6.832,2.72-8.83-6.647L678.8,762.825l-11.763,2.7-2.553-10.369-15.72,1.676L637.894,752.6l-10.643,3.216-1.218,3.791L614.095,735.07l-6.988-2.037-14.2,5.428-5.886-4.775,6.812-3.791L587.4,712.724l-9.609,12.465,0.6,11.685-7.9.741Z" transform="translate(-37.42 -79.245)" fill="#ffeb00" stroke="#000" stroke-width="3"/><path d="M192.077,538.91l-12.864-8.985-7.172-9.59-11.5,2.262,9.843,9.385,4.873,6.607,5.516,19.628,12.085,1.793,6.091,5.029,0.721,12.3,1.842,5.554,5.136,7.465,10.906-.623,16.276,8.888-0.321,33.573,28.194-1.3-3.411-6.968,12.445-8.849,10.427-1.579,7.807-6.471,6.568,2.758,14.375,5.029,18.1,6.666,7.728,17.171,14.793,1.121,15.574,1.393,15.242-12.24,5.233-10.145,5.633,1.237,9.248,9.307,8.332-6.432,15.193-.117,5.535,5.175,7.553,0.556,23.828,6.93,3.557-1.481,7.231-3.178,19.208,4.3,0.623-7.748,8.7-13.117,2.934-11.247,10.545-5.389-8.148-8.109-19.51-4.649-6.491-9.95-6.568,3.48L463.461,573.1,447,552.182l-7.748.2,5.712-10.262,18.673-4.7,7.767,1.062,12.377-2.739-5.731-10.164-9.522-6.7L461.6,504.8l6.588-18.234-6.754-9.522-6.491,2.8-17.932-.36-10.35,3.333-12.7,3.615-16.694,10.164,4.094,11.139-8.449.556-11.666,3.878-8.811.6-6.832,1.939L350.07,526.97l-7.884-17.913-13.205,2.992-6.432-13.381L312.14,502.8,281.89,515.644l-3.178-19.3-4.512-5.916L259.319,458.5l-32.589-11.422-0.321-4-3.878-.877-21.772,16.85-3.771,7.007-0.263,19.793,20.933,25.2L215.6,536.374Z" transform="translate(-37.42 -79.245)" fill="#ffeb00" stroke="#000" stroke-width="3"/><path d="M305.077,80.865l-9.141,11.88-6.091-.3-5.477,5.789-22.23,8.225-7.007,14.618,1.52,8.225-3.957,15.837-11.578,7.611-0.3,3.655-19.189,22.844,7.914-.3,13.4,8.527-10.964,14.618,7.007,13.4-0.916,11.266,26.8-5.477,48.124,13.4,5.789,5.175,4.268-23.146,4.278-6.393,13.4-8.527-3.655-9.443,10.34-12.182,3.041-19.491L373.6,156.4,387.915,143l0.3-7.914-19.189,1.218L356.846,126.26l-11.88-2.134L340.7,109.205l3.655-1.832,0.916-10.35L334.607,101.9,320.291,88.8l-7.611-.594-3.655-6.715ZM40.124,196.878l2.134,40.5-0.6,4.279-2.72,24.062,2.134,13.1,21.323,27.717-3.655,19.189,0.6,4.268,6.7,3.655,14.921-5.175,7.309,3.041,1.52,7.611-5.477,10.662,3.655,7.008,10.662,4.278L97.72,372.65l-3.041,2.134,0.916,11.578-0.3,3.957,1.218,11.88-0.283,13.4L85.264,453.061,95.01,468.6l2.436,10.681,3.031,7.007,3.655,1.218,17.055-10.048,7.914-.916,1.832,10.964,2.436,3.957,19.793,12.182,0.3,10.964,7.007,7.9,11.578-2.134,7.309,9.746,12.786,8.83,23.448-2.739,2.134-25.28-21.012-24.968,0.3-19.793,3.655-7.007L222.6,442.107l3.957,0.916,0.3,3.957,32.589,11.587,15.223-21.928,13.7-7.611,1.52-23.146,12.465,8.225L317.28,433.6l5.789,28.321,3.655-7.309,15.837-.3,5.808-9.746,3.655-1.52,3.938,0.3,8.527,7.914,23.448,3.938-6.091-13.683,1.218-10.964,5.477-5.175,11.266-.3,6.091,3.041,18.887-12.182H439.4l5.477,5.468,2.739-3.655,0.916-7.611,10.35-12.465,13.7-7.309,63.63-12.182,23.769-.3,3.957-.6,20.407,12.182,15.534,4.268h0.3l23.448-.6,12.777,6.393,10.662-.595,2.739-27.736-4.268-15.213,1.52-7.611,1.218-2.436-6.7-4.571L624.22,331.6l-16.451,10.662-14.618-5.175H580.969v3.957l-18.9-16.753-20.086-11.88-6.393-1.218-6.714.283L526.744,331.9l-24.364-1.52-27.4-7.309-6.393-5.175L453.973,306.32l1.52-3.372,7.9-8.527-0.916-23.146-10.662-3.937,2.134-14.921,12.786-8.83,3.655-10.662,2.436-10.964-3.352-6.715-2.134-.916-10.964,5.477-3.041,10.964-32.892,23.146-19.189-3.957h-8.225l-13.4-28.019-25.582,11.88-10.35,6.715-12.182,7.007-10.662.594-14.618,7.309-24.062,11.9-8.225,7.9-29.539,4.279,3.352-6.715-17.357,3.041L211.22,294.128l-26.5,20.1-9.746-4.571-0.916-10.964,0.283-18.575-7.309-13.1,0.6-9.746V227.117l-7.309-1.52L148.147,211.28h-7.611l-7.309-8.83-34.412-1.842-6.7,3.041-0.3,3.957h-27.4Z" transform="translate(-37.42 -79.245)" fill="#ffeb00" stroke="#000" stroke-width="3"/><path d="M607.105,733.151l-14.2,5.428-5.9-4.775,6.832-3.791-6.451-17.171-9.59,12.484L578.4,737.01l-7.884.721L551.3,745.84l-2.378,10.506-9.327,5.672-7.086.2L515.234,745.3l-7.826-2-21.753-4.61-9.1-2.417-8.946-2.495-2.115-39.7,2.417-27.6-1.14-11.88-5.156-10.35,0.341-8.888,3.557-1.481,7.231-3.178,19.208,4.3,0.623-7.748,8.7-13.117,2.934-11.247,10.545-5.389-8.148-8.109-19.51-4.649-6.491-9.95-6.568,3.48-10.525-5.252-16.451-20.914-7.767.2,5.712-10.262,18.692-4.7,7.767,1.062,12.357-2.739-5.731-10.164-9.5-6.7-6.949-14.082,6.607-18.234-6.773-9.522-6.491,2.8-17.932-.36-10.34,3.333L414,486.354,397.3,496.518l4.094,11.139-8.449.556-11.666,3.878-8.811.6-6.832,1.939L350.1,526.895l-7.884-17.913-13.205,2.992-6.432-13.381-10.389,4.132-30.26,12.845-3.178-19.3-4.512-5.916-14.881-31.936L274.7,436.532l13.6-7.592,1.618-23.224,12.377,8.332,14.881,19.3,5.886,28.34,3.6-7.134,15.856-.458,5.9-9.551,3.713-1.481,4.015,0.117,8.244,8.109L387.9,455.2l-6.17-13.663,1.5-11.042,5.233-5.194,11.519-.341,5.954,3.157L424.86,415.8l14.579,0.1,5.331,5.477,3.011-3.85,0.682-7.63,10.34-12.3,13.9-7.348,63.444-12.338,23.925-.156,3.918-.76,20.426,12.387,15.4,4.229,0.419,0.1,23.341-.682,13,6.266,10.584-.6,11.343,3.431,15.642-2.68,9.706,6.354,6.793-3.576,2.173,15.515,7.611,2.378,1.618,14.6,4.3,5.614,36.507,4.054-0.516,49.167,3.713,11.139,11.987,0.019,22.746-7.465-1.413,52.383-19.3,35.065-5.312,23.769-4.3,17.894,3.878,14.277,14.024-.7,12.757,8.011,18.75-4.132,13.059,30.738,19.208-.2L818.656,707.51l-14.54,27.259-9.463,6.949-10.487,10.906-3.216,34.851,5.077,0.224,10.681-3.81,6.568-9.824,22.922,2.476,23.429-4.229,3.041,2.573,12.884,2.836,6.247,1.14,4.434,10.769,12.163,9.59,8.128,20.554,8.869,5.993L913.96,831l6.793-1.7,2.241,27.756,26.284,17.718,7.728,13.839-3.041,5.5-13.059,9.229L919.5,933.035l-24.189-2.515-8.05-.76-13.205,9.229-13.04,15.4-14.54,6.7-14.014,8.546-27.6-3.771-19.715,2.553-16.012.595L734,959.407l-35.465-14.277,7.1-33.808,9.4-5.77L705.2,888.721l-7.689,1.1-5.886-4.931-7.5-.244-4.268-1.081,6.17-9.8,16.713-9.969,18.615-1.676,1.881-20.749-3.674-15.72,2.573-15.895-7.9-18.468L707.373,794l-8.83-6.628-19.735-24.559-11.763,2.72-2.553-10.369-15.72,1.657L637.906,752.6l-10.643,3.216-1.218,3.81-11.938-24.559Z" transform="translate(-37.42 -79.245)" fill="#ffeb00" stroke="#000" stroke-width="3"/><text transform="translate(249.685 316.973)" font-size="142.996" font-family="DejaVu Sans" font-weight="700">4</text><text transform="translate(281.521 542.025)" font-size="122.35" font-family="DejaVu Sans" font-weight="700">3</text><text transform="translate(123.121 590.626)" font-size="49.5" font-family="DejaVu Sans" font-weight="700">1</text><text transform="translate(328.136 687.869)" font-size="142.996" font-family="DejaVu Sans" font-weight="700">2</text><text transform="translate(510.387 468.906)" font-size="142.996" font-family="DejaVu Sans" font-weight="700">5</text><rect x="535.279" y="479.379" width="136.444" height="136.444" fill="#06c" stroke="#000" stroke-width="3"/><rect x="103.078" y="248.884" width="97.731" height="97.731" fill="#404040" stroke="#000" stroke-width="3"/><rect x="521.898" y="687.87" width="97.731" height="97.731" fill="silver" stroke="#000" stroke-width="3"/><rect x="202.391" y="452.872" width="56.976" height="56.976" fill="silver" stroke="#000" stroke-width="3"/><rect x="149.884" y="526.012" width="37.985" height="37.985" fill="silver" stroke="#000" stroke-width="3"/></svg>