<svg xmlns="http://www.w3.org/2000/svg" width="870.282" height="842.526" viewBox="0 0 870.282 842.526"><title>1T Législatives 2017 Vaucluse</title><path d="M259.8,614.382l-16.96-15.142L222.028,589.2l-34.37-3.8-29.323-5.841-27.109-4.807,8.166-8.056,21.822-7.336,11.533-15.317,17.55-13.517L187,516.1l2.2-10.99,21.931,2.27,3.461-10.546,4.881,7.068,10.325-.591,15.409,8.415-.323,31.786,26.712-1.227,4.272,2.214-3.174,39.232,8.959,5.693-2.879,5.785-7.03,7.316,2.971,12.853Z" transform="translate(-60.191 -20.994)" fill="#ffeb00" stroke="#000"/><path d="M545.763,651.123l-2.232,9.964-8.83,5.351-6.709.212-16.359-16.037-7.409-1.891-20.595-4.345-8.617-2.307-8.47-2.344-2-37.59,2.289-26.131-1.079-11.265-4.9-9.79.342-8.433-22.542-6.561-7.169-.526-5.241-4.882-14.384.093-7.889,6.108-8.738-8.831-5.351-1.153-4.955,9.605-14.43,11.571-14.745-1.319-13.988-1.043L334.423,533.3l-17.135-6.311L303.7,522.249l-6.219-2.611-7.409,6.108-9.854,1.5-11.8,8.377,3.23,6.617,4.272,2.214-3.156,39.232,8.941,5.675-2.87,5.8-7.05,7.316,2.989,12.853,6.672,2.593,30.707,15.916,17.115,20.705,4.808,6.357,23.593,17.7,5.978,9.172,5.712,14.828,4.327,18.223,33.356,19.136L433,754.461l11.764,6.469L482,779.707,521.3,766.716l7.188.359,14.542,3.156,17.485,4.429,22.689,3.893,8.323,7.944,13.932,11.349,21.047,10.4,13.785,7.584,19.3,10.076,25.559,13.9,6.726-32.008,8.886-5.481-9.3-15.916-7.3,1.043L678.6,782.77l-7.086-.231-4.05-1.043,5.859-9.264,15.806-9.457,17.642-1.569,1.762-19.663-3.46-14.864L707.5,711.63l-7.492-17.485-6.468,2.575-8.36-6.293L666.5,667.194l-11.137,2.556-2.417-9.817-14.883,1.587-10.288-4L617.7,660.56l-1.154,3.59-11.3-23.233-6.616-1.928-13.443,5.139-5.574-4.521,6.45-3.59-6.09-16.257-9.1,11.8.573,11.062-7.484.7Z" transform="translate(-60.191 -20.994)" fill="#ffeb00" stroke="#000"/><path d="M205.687,455.2l-12.179-8.507-6.791-9.079-10.888,2.141,9.319,8.886,4.614,6.255,5.223,18.584,11.441,1.7,5.767,4.761.682,11.644,1.744,5.259,4.862,7.068,10.325-.591,15.409,8.415-.3,31.786L271.6,542.29l-3.229-6.6,11.783-8.378,9.872-1.5,7.391-6.126,6.218,2.611,13.61,4.761,17.135,6.311,7.316,16.258,14.006,1.061,14.745,1.318,14.431-11.588,4.954-9.606,5.334,1.172,8.756,8.811,7.888-6.09L426.2,534.6l5.241,4.9,7.151.526,22.559,6.561,3.368-1.4,6.846-3.009,18.185,4.07.59-7.336,8.24-12.419,2.777-10.648,9.984-5.1-7.714-7.677-18.472-4.4-6.145-9.421-6.219,3.294-9.965-4.972-15.583-19.8-7.336.194,5.407-9.716,17.679-4.448,7.354,1.006,11.718-2.593-5.425-9.623-9.015-6.348L460.863,422.9,467.1,405.64l-6.394-9.015-6.145,2.648-16.977-.342-9.8,3.156-12.023,3.423-15.806,9.624,3.876,10.546-8,.526-11.045,3.671-8.341.573-6.469,1.835L355.27,443.893l-7.464-16.959-12.5,2.833-6.09-12.669-9.854,3.912-28.641,12.161L287.711,414.9l-4.272-5.6-14.09-30.236L238.5,368.25l-.3-3.783-3.672-.83L213.906,379.59l-3.571,6.634-.249,18.74,19.819,23.861L227.958,452.8Z" transform="translate(-60.191 -20.994)" fill="#ffeb00" stroke="#000"/><path d="M312.673,21.534l-8.655,11.248-5.767-.286-5.186,5.48-21.046,7.788L265.385,59.6l1.439,7.787-3.746,14.994-10.961,7.206-.287,3.461-18.167,21.627,7.492-.286,12.687,8.074-10.38,13.84,6.634,12.687-.867,10.667,25.374-5.186,45.562,12.687,5.481,4.9,4.041-21.913,4.05-6.053,12.687-8.074-3.46-8.941,9.79-11.533,2.879-18.454,21.914-4.041L391.1,80.365l.286-7.493L373.22,74.026l-11.534-9.513-11.248-2.021L346.4,48.366l3.46-1.735.868-9.8-10.1,4.613-13.554-12.4-7.206-.562-3.46-6.358ZM61.822,131.372l2.02,38.347-.572,4.05L60.7,196.551l2.021,12.4L82.9,235.193l-3.46,18.168.573,4.041,6.348,3.46,14.126-4.9,6.92,2.879,1.44,7.207-5.186,10.094,3.46,6.634,10.094,4.051-.867,10.961-2.879,2.021.867,10.961-.286,3.746,1.154,11.248-.268,12.687-10.381,35.468,9.227,14.708,2.307,10.112,2.87,6.634,3.46,1.153,16.147-9.513,7.492-.867,1.735,10.38,2.307,3.746,18.74,11.534.286,10.38,6.634,7.484,10.961-2.021,6.92,9.227,12.106,8.36,22.2-2.593,2.021-23.935-19.894-23.639.287-18.74,3.46-6.634,20.76-16.147,3.746.867.286,3.746,30.855,10.971,14.413-20.761,12.973-7.206,1.439-21.914,11.8,7.787,14.126,18.454,5.481,26.814,3.46-6.92,14.994-.287,5.5-9.226,3.46-1.44,3.728.286,8.073,7.493,22.2,3.728-5.766-12.955,1.153-10.381,5.186-4.9,10.666-.286,5.767,2.879,17.881-11.534h13.841l5.185,5.177,2.593-3.46.867-7.207,9.8-11.8,12.974-6.921,60.242-11.533,22.5-.286,3.746-.573,19.321,11.534,14.707,4.041h.287l22.2-.572,12.1,6.053,10.094-.563,2.593-26.259-4.041-14.4,1.439-7.206,1.154-2.307-6.348-4.327-16.433-9.227-15.575,10.094-13.841-4.9H573.879v3.746L555.988,252l-19.017-11.248-6.053-1.153-6.357.267-2.02,19.34-23.068-1.439-25.937-6.921-6.053-4.9-13.84-10.962,1.439-3.192,7.484-8.074-.867-21.914-10.1-3.727,2.021-14.127,12.106-8.359,3.46-10.094L471.5,155.12l-3.174-6.357L466.3,147.9l-10.38,5.186-2.879,10.38L421.9,185.375l-18.168-3.746h-7.787L383.261,155.1,359.04,166.349l-9.8,6.358-11.533,6.634-10.1.562-13.84,6.921L290.992,198.09l-7.788,7.483-27.966,4.05,3.174-6.357-16.434,2.879-18.167,17.3-25.088,19.026-9.227-4.327-.867-10.38.268-17.587-6.92-12.4.572-9.227V160l-6.92-1.439L164.1,145.008h-7.206l-6.921-8.36-32.58-1.744-6.348,2.879-.286,3.746H84.817Z" transform="translate(-60.191 -20.994)" fill="#ffeb00" stroke="#000"/><path d="M598.624,639.1l-13.444,5.14-5.582-4.522,6.469-3.589-6.108-16.258-9.08,11.82.564,11.063-7.465.682-18.185,7.678-2.252,9.946-8.83,5.371-6.709.193-16.359-16.017-7.409-1.891-20.595-4.365-8.617-2.289-8.47-2.362-2-37.59,2.289-26.131-1.079-11.247-4.882-9.8.324-8.415,3.367-1.4,6.846-3.009,18.186,4.07.59-7.336,8.239-12.419,2.778-10.648,9.984-5.1-7.715-7.677-18.471-4.4-6.146-9.421-6.218,3.294-9.965-4.972-15.575-19.8-7.354.194,5.408-9.716,17.7-4.448,7.354,1.006,11.7-2.593-5.426-9.623-9-6.348L460.9,422.832l6.256-17.263-6.412-9.015L454.6,399.2l-16.978-.342-9.79,3.156-12.041,3.423-15.806,9.624,3.876,10.546-8,.526-11.044,3.671-8.342.573-6.468,1.836L355.3,443.822l-7.464-16.959-12.5,2.833-6.09-12.669-9.836,3.912L290.76,433.1l-3.009-18.269-4.272-5.6L269.39,378.993l14.523-20.723,12.872-7.188,1.531-21.989,11.719,7.889,14.089,18.269,5.573,26.832,3.4-6.755,15.012-.434,5.582-9.042,3.515-1.4,3.8.11,7.806,7.677,22.273,3.709-5.841-12.935,1.421-10.455,4.955-4.918,10.906-.323,5.638,2.989,17.909-11.663,13.8.093,5.047,5.185,2.85-3.645.646-7.224,9.79-11.644,13.158-6.957,60.067-11.681,22.652-.148,3.709-.72,19.339,11.728,14.578,4,.4.092,22.1-.645,12.308,5.932,10.021-.572,10.74,3.248,14.809-2.537,9.19,6.015,6.431-3.385,2.058,14.689,7.206,2.252,1.532,13.822,4.069,5.315,34.564,3.839-.489,46.55,3.515,10.546,11.349.018,21.536-7.068-1.338,49.6-18.269,33.2-5.029,22.5-4.07,16.941,3.672,13.518,13.277-.665,12.078,7.585,17.752-3.912,12.364,29.1,18.185-.194-12.761,31.409-13.766,25.808-8.959,6.579-9.928,10.325-3.045,33,4.807.211,10.113-3.607,6.218-9.3,21.7,2.343,22.182-4,2.879,2.437,12.2,2.685,5.915,1.079,4.2,10.2,11.516,9.08,7.7,19.459,8.4,5.675,8.111,4.955,6.431-1.605,2.122,26.278,24.885,16.774,7.317,13.1-2.879,5.2-12.364,8.738-20.272,28.114-22.9-2.381-7.622-.72-12.5,8.738L839.015,848.56l-13.766,6.348L811.981,863l-26.131-3.57-18.666,2.417-15.159.563-33.263-9.1L685.185,839.8l6.727-32.008,8.9-5.462L691.5,786.389l-7.28,1.043-5.573-4.668-7.105-.231-4.041-1.024,5.841-9.282,15.824-9.439,17.624-1.587,1.781-19.644-3.479-14.884,2.437-15.048-7.484-17.486-6.486,2.575-8.36-6.275L666.51,667.187l-11.137,2.575-2.417-9.817-14.883,1.569-10.288-4-10.076,3.044-1.154,3.608-11.3-23.252Z" transform="translate(-60.191 -20.994)" fill="#ffeb00" stroke="#000"/><text transform="translate(235.466 299.108)" font-size="135.385" font-family="DejaVuSansCondensed-Bold, DejaVu Sans" font-weight="700">4</text><text transform="translate(265.609 512.181)" font-size="115.837" font-family="DejaVuSansCondensed-Bold, DejaVu Sans" font-weight="700">3</text><text transform="translate(115.639 558.194)" font-size="46.866" font-family="DejaVuSansCondensed-Bold, DejaVu Sans" font-weight="700">1</text><text transform="translate(309.741 650.263)" font-size="135.385" font-family="DejaVuSansCondensed-Bold, DejaVu Sans" font-weight="700">2</text><text transform="translate(482.293 442.953)" font-size="135.385" font-family="DejaVuSansCondensed-Bold, DejaVu Sans" font-weight="700">5</text><rect x="505.859" y="452.869" width="129.181" height="129.181" fill="#06c" stroke="#000" stroke-width="2"/><rect x="96.663" y="234.642" width="92.529" height="92.529" fill="#404040" stroke="#000" stroke-width="2"/><rect x="493.19" y="650.262" width="92.529" height="92.529" fill="#06c" stroke="#000" stroke-width="2"/><rect x="190.689" y="427.772" width="53.944" height="53.944" fill="silver" stroke="#000" stroke-width="2"/><rect x="140.978" y="497.019" width="35.963" height="35.963" fill="silver" stroke="#000" stroke-width="2"/></svg>