<svg xmlns="http://www.w3.org/2000/svg" width="1286.175" height="911.694" viewBox="0 0 1286.175 911.694"><title>1T Législatives 2017 Var</title><path d="M214.934,758.412l1.793-10.952-7.853-7.559-7.08,2.069-5.122,5.425-14.133-1.36,0.34-4.4,7.346-5.977,7.291-2.069-3.862-1.83,3.558-5.48,8.211,0.919-2.51-4.615,3-.984,0.248-4.183-1.9-1.333,4.2-7.291,7.383-1.434,9.269-1.186,6.5,1.692,3.77,1.6,9.553-2.134,7.383,4.413,2.446,14.188,5.407,9.213L258.2,738.27l-3.935,18.087Z" transform="translate(0 0.004)" fill="#ffeb00" stroke="#000" stroke-width="3"/><path d="M114.993,700.134l4.22-10.326,21.673-12.661,16.358-19.935-4.92-17.866,8.515-6.308,6.97,8.781,18.748,0.469,18.16-4.69,18.693,1.434-8.083-15.521,14.694-9.269,17.351-.882-0.037-7.438,12.873-6.786,6.308-9,6.216,4.027,11.044,0.956-0.506,6.951,5.839,7.743L284.8,622.87l13.112,11.687,16.615,5.168,2.869,10.491,5.563,4.653,7.089-.919,13.977,4.22,1.959,10.684-3.374,10.537-6.179,13.323-8.138,7.466-10.381,8.552-13.4,1.729-13.881-5.785-6.989,17.563-25.451,15.927,2-3.126-5.425-9.213-2.446-14.17-7.365-4.433-9.553,2.152-3.788-1.6-6.5-1.692-9.269,1.167-7.383,1.434-4.2,7.291,1.922,1.342-0.267,4.165-2.961.846,2.51,4.763-8.239-.9-3.558,5.48,3.862,1.83-7.291,2.069-7.346,5.977-0.34,4.4-1.333-1.057-28.479-4.648-20.478,1.167,2.317-21.691L128.1,711.6l-1.241-10.814Z" transform="translate(0 0.004)" fill="#ffeb00" stroke="#000" stroke-width="3"/><path d="M359.792,626.666l-6.611,8.91-1.149,14.942-8.046,7.758L346,668.905l-3.448,10.629-6.013,13.226-8.331,7.466-10.344,8.625-13.233,1.725-14.06-5.747-6.9,17.526L258.1,738.161l-3.733,18.1L265.291,758l10.924,2.014,11.494,8.046,2.014,3.163-4.865,9.48,0.864,3.733,10.344,2.86,14.657-1.729,23.558-8.625,21.553,3.448,12.928,6.9,4.865,29.314-5.747,9.48-18.1.285-6.032,4.027,5.168,9.2,12.928-6.611,2.869,2.584,10.629-2.014,8.625,6.9,3.733,0.57,10.629-3.733,1.149-2.869L390,828.39l-2.3-14.657,4.027-26.151,7.466-17.241,12.358-14.078,16.376-9.48,25.857,2.584,29.314-8.625L493.725,721.2l5.159-44.541,21.838-4.6,2.869-2.584,0.57-11.494-12.928-6.9L496.576,655.4l-29.314-3.163-8.329-12.357L431.348,650.8l-33.332,2.584-22.123-4.6,4.883-5.168L378.192,637l-4.883-5.168ZM665.239,814.014l-1.729.285-12.643,4.312-7.466.864-1.729.285-3.448,2.3-1.434,1.149-4.027,6.326-0.864,1.729-3.448,8.634-14.078,4.312-4.6,5.747,0.561,3.733-1.149,7.163,3.448,4.036,5.747-4.312,4.883-8.046,8.634,2.3,6.611-2.584,1.729-3.448,0.57-5.462,4.883-5.747,4.865-10.344,3.181-2.032,9.462-.864,4.883-2.584,0.864-1.729-0.561-1.729-1.434-3.448ZM459.788,843.595l-1.729.57-4.312,12.643-2.869,2.3-9.2-1.729-3.163,6.611-4.312,3.448-7.466,1.149-15.227-6.9-5.462,1.434-1.43,1.155-5.462,5.168-0.864,1.434,1.434,0.561,20.689,8.634,2.869,2.566,0.864,5.48,1.434,1.417,7.466-1.149,5.462-7.163,10.344-3.448,8.046-4.6,7.181-.882,1.417-1.149,1.738-5.462-3.163-14.354-2.584-2.584Zm129.595,7.481-12.358,5.159-5.462.57-1.729.864-0.882,3.448-8.625,7.466,1.729,4.883,11.227-.864,7.761,5.462,6.326-3.448,10.059-13.507,0.57-3.448-4.6.57-0.864-5.48-1.434-1.417Z" transform="translate(0 0.004)" fill="#ffeb00" stroke="#000" stroke-width="3"/><path d="M378.126,540.14l1.112-11.1-3.108-14.564,3.678-18.1-1.057-10.832,7.163-1.527,14.455-10.629,7.2-.643,2.17-9.425-16.256-5.784,9.2-18.693-2.014-6.97,0.9-6.538,5.931-3.181,7.218-21.25,5.421-5.228,3.558-1.149,3.034-6.786,27.548-10.814-18.5-12.251-1.223-18.16,3.43-6.685,8.837,6.335,7.236,0.57,1.3,7.181,3.053,2.032,3.577,0.772,5.5-4.727,13.3,4.312,14.188,0.074,2.768-2.409-0.34-10.059,10.344-9.857,4.956-13.6,12.827-5.444,29.314,4.653,6.326-3.788L576.5,326.45l10.869,2.281L589,325.357l18.174,12.219,2.584-.57,13.149-5.407-0.34,7.089,5.876,4.183,38.38,9.379,11.8,2.924,5.241,14.023,0.34,18.555,7.006,8.257L687.5,421.866l2.942,14.469,5.048,3.108-0.432,4.883,10.234,3.558,17.048-5.912,2.17-2.906-5.168-9.5,9.553-10.739,8.5,7.254,20.2,9.535,7.9,8.009,13.378,18.1,3.218,10.759,7.006,8.57L787.3,499.462l16.56,5.315-10.473,10.381-2.262,11.007,1.83,7.273-27.7,9.232-9.425,10.509-27.662,17.927,1.057,10.739-1.4,2.621,7.218,4.92,23.025-3.374,15.981-8.892,16.468,8.23,4.275-10,6.427-1.885,13.456,12.711-5.48,13.83-8.781,6.9-9.756,3.77-2.244,18.482,2.189,14.675,10.114,10.739-0.248,3.733-14.354,3-11.8,8.928-2.676,14.381,4.386,6.014-9.949-3.954-10.151,10.739-6.014-3.99L741,677.1l-5.784-4.56-25.571-4.45-7.328,1.507-11.68,9.077-1.241,13.9-10.887,2.014L656.82,708.723l-3.034-2.106-19.309-4.22-13.47,4.433-5.94,8.386-8.855-6.124-32.431,6.933-8.211,7.346-7.181,1.711-3.283,10.574-2.749,10.2,1.02,11.264,3.788,6.446-2.014,10.851-29.617-3.108-10.3-15.354-18.519-1.793-2.3-3L494.6,747.7l-11.494-6.914L493.869,721.1l5.067-44.449,21.912-4.727,2.786-2.6,0.68-11.329-13.057-6.841-14.547,4.165L467.221,652.1l-8.313-12.34-0.754-22.647,5.563-9.59,0.791-11.062-0.607-9.443-4.128-13.977-10.647-9.627-8.687-19.988-5.186-5.168,0.662-10.4-6.859-2.225L399.6,530.421l-5.931,9.406-6.914,2.483Z" transform="translate(0 0.004)" fill="#ffeb00" stroke="#000" stroke-width="3"/><path d="M877.8,286.395l-3.558-5.186L863.5,278.984l-11.6-7.631-9.03,6.216L817.4,278.9l-21.957-2.96-19.88,9.682-1.674,9.517-2.8,1.729-9.82-5.186-22.141-2.3-7.835,12.174-6.611.772-2.939,6.646,9.287,16.073,1.259,18.16-25.611,3.267-28.109,8.8,5.26,14.023,0.322,18.555,7.025,8.257-3.733,25.857,2.961,14.473,5.03,3.108L695,444.432l10.234,3.558,17.048-5.931,2.189-2.887-5.186-9.5,9.553-10.739,8.515,7.254,20.183,9.535,7.9,8.009,13.4,18.1,3.218,10.759,6.988,8.57-1.779,18.416,16.541,5.315,24.744-5.278,3.283-13.378-2.749-10.491,12.7-21.709-1.3-7.061,4.846-13.922,8.947-11.742,13.231-6.289,18.824,16.755,31.07-9.3,7.2,1.3,13.645,4.828,4.055-6.032,0.662-14.731,3.466-1.314,8.873,6.326,10.988-1.582,6.216-12.45,18.179-12.625,2.566-22.362,7.144-8.625-14.133-3.181-2.62-10.39-6.538-2.6-15.392-8.046,8.588-20.9-0.542-3.751-12.036-7.576-12.588.607-8.4-6.685-7.346.414-17.526-18.427-19.07-9.857L885.626,283.4l-6.427-.211Z" transform="translate(0 0.004)" fill="#f90" stroke="#000" stroke-width="3"/><path d="M104.139,696.346L88.3,700.419l-1.582-.643-15.6-5.637-3.393.524L66.16,700.9l-7.881,5.554-1.87,17.765-5.444-9.645-18.013.469-9.03-11.687-0.147-3.733,7.236-8.478L30.2,683.851l-5.14-5.26-10.923-.165,3.2-12.174,1.9-27.976,3.145-20.1,17.278-6.648L37.1,605.616l28.932-16.04,17.728-5.618,1.452-16.128L76.3,561.5,65.039,546.828l-8.12-16.615-27.8,4.745-7.273-6.538-9.8-.4L22.823,525.4l5.462-9.627-1.4-10.952,12.082-13.977-7.385-12.367-3.825-26.114-5.067-10.1,15.981-9.48,15.126-.524L75.2,439.724l22.61-9.2,5.655-4.128,1.729-6.822-0.4-.184-10.832-1.241L76.445,404.47,57.412,369.162,44.18,356.325,35.2,352.9l3.466-14.188,8.634-6.326,2.786-36.532,5.657-17.433,6.556-2.786,16.339,7.816,14.188,2.621,8.57,6.556,24.836-5.839,9.7-5.122,9.93,5.784,9.783,27.4-0.662,21.985,10.436,9.756,25-.147,13.075-6.308,8.855,3.788-3.6,14.363,1.223,7.236-6.319,21.157L242.2,396.57l19.035,11.064,0.193-15.245,7.273-25.644,11.926,7.484,21.424,5.1,14.547-2.823,6.9-8.138,9.857,5.067,17.783,3.3,9.7-4.367,8.386,19.346,6.97-2.51,5.6,4.433,32.9-2.841,5.444,4.828-5.425,5.2L407.5,422.083l-5.931,3.163-0.9,6.538,2.014,6.97-9.2,18.693,16.256,5.784-2.17,9.443-7.2.643-14.455,10.612-7.163,1.527,1.057,10.832-3.678,18.1,3.11,14.6-1.112,11.08,8.588,2.244,6.914-2.483,5.912-9.406,29.452-4.791,6.859,2.225-0.643,10.4,5.186,5.168,8.671,19.99,10.667,9.627,4.11,13.977,0.625,9.443-0.809,11.062-5.554,9.59,0.735,22.647-27.571,11.06-33.148,2.446-22.215-4.543,4.846-5.122-2.464-6.731-5.085-5.2L359.6,626.6l-6.593,8.965-1.131,14.942-7.917,7.631-13.977-4.22-7.08.919-5.582-4.653-2.86-10.491-16.633-5.168-13.112-11.691,4.312-13.057-5.839-7.743,0.506-6.951-11.025-.938-6.216-4.036-6.326,9.011-12.873,6.767,0.055,7.438-17.37.882-14.693,9.267L223.332,639l-18.693-1.432-18.142,4.69-18.767-.469-6.97-8.781-8.515,6.308,4.92,17.866-16.358,19.935-21.675,12.662-4.2,10.326Z" transform="translate(0 0.004)" fill="#ffeb00" stroke="#000" stroke-width="3"/><path d="M75.839,729.807l-1.922-3.016-17.526-2.6,1.885-17.765,7.881-5.554,1.564-6.234,3.393-.524,15.6,5.637,1.582,0.643,15.843-4.073,10.869,3.788,11.889,0.7,1.241,10.814,6.482,8.12L132.3,741.434l20.478-1.167,28.458,4.649-0.184,13.94,17.076,4.413,0.984,3.5L189.35,781.9l6.179,3.972,9-5.48,9.875,3.577,6.731-2.924,6.712,2.823,2.492,2.768,1.259,3.5-0.643,3.659-2.657,2.566-10.8-2.18-14.133,4.413-8.1-6.8-5.462-4.672-7.126,1.379-11.457,9.462-9.553,19.972-10.436-.377-2.86,2.391-10.629-3.016L125.839,803l-13.268-6.666-1.507-3.393,7.08-8.5,4.009-14.354-1.656-7.181,3.77-6.409-4.257-10.059-10.537,1.941-17.747-3.09L98.512,728.8l-7.383-7.31Z" transform="translate(0 0.004)" fill="#ffeb00" stroke="#000" stroke-width="3"/><path d="M445.847,9.827l-10.555,2.354L417.867,35.476l-3.3,11.4-11.761,15-22.288,15.3-9.36.882-13.885-9.682L345.1,85.81l-3.9.7,1.186,3.43-4.56,9.894-12.174,12.661-6.446.846-4.386,4.413-3.9,2.547-13.25,5.407,3.27,14.168-13.323,12.229-8.239-7.651-5.5-13.977-12.827-7.706-2.529-20.615-7.254-.45-7.5-8.368L232.99,94.524l-6.1-4.312L223.4,83.785l1.692-7.328-2.731-10.933-9.645-4.468-0.184-3.751-2.354-1.711L196.39,60.753l-1.452,18.675-11.347,9.894-10.667,3.641-15.034-.211-5.251,5.424-4.69-18.032-8.763-12.018L99.73,57.615,80.963,86.01,78.094,91.2l14.694,2.621,9.085,6.308-0.626,10.951,4.2,10.27,19.236,8.276-6.767,9.177-4.2,22.307-22.757-.57L51,171.993l-7.059,8.855-7.31-.956L21.215,214.07l6.8,25.36-1.576,3.411L2.485,252.486l9.7,11.476,17.471,1.4,11.724,7.669,7.954,5.425,6.4-.08,6.556-2.786,16.344,7.818,14.188,2.621,8.57,6.538,24.836-5.821,9.7-5.122,9.93,5.784,9.783,27.392-0.662,21.985,10.436,9.765,25-.147,13.075-6.308,8.855,3.788-3.6,14.354,1.223,7.236-6.326,21.176,38.555,9.875,19.033,11.08,0.2-15.244,7.273-25.644,11.926,7.466,21.424,5.122,14.547-2.841,6.9-8.12,9.857,5.048,17.783,3.319,9.7-4.386,8.386,19.355,6.97-2.529,5.6,4.45,32.9-2.841,5.444,4.809,3.558-1.149,3.034-6.786,27.548-10.814-18.5-12.248-1.223-18.16,3.43-6.685,8.837,6.335,7.236,0.57,1.3,7.181,3.053,2.032L462,356.616l5.5-4.727,13.3,4.312,14.178,0.075,2.768-2.409-0.34-10.059,10.344-9.857,4.956-13.6,12.827-5.444,29.314,4.653,6.326-3.788L576.5,326.346l10.869,2.281L589,325.253l18.179,12.211,2.584-.57,13.149-5.407-0.34,7.089,5.876,4.183,38.38,9.379,11.8,2.924,28.091-8.8,25.626-3.255-1.259-18.179-9.3-16.073,2.942-6.648,6.611-.772,7.853-12.174,22.141,2.3,9.8,5.186,2.823-1.729,1.674-9.517,19.88-9.682,21.932,2.957,25.5-1.333,9.03-6.216,11.6,7.631,10.722,2.225,3.577,5.186,1.4-3.218,6.427,0.193,7.163-18.583,19.07,9.857,17.526,18.445,7.346-.432,8.4,6.7,12.588-.625,6.234-20.882,11.617-13.41,3.641,0.129,0.938-7.328-5.876-13.185,9.121-16.376-13.683-13.7-8.4,4.883-14.813,1.452-6.216-3.466-2.869,2.115-11.31-7.991-2.336-5.876L915.2,200.6l-8.625-7.025-10.722,1.452-7.917-16.22-11.476-17.544-7.08-.965-3.806-5.821,1.83-18.519,2.86-7.08,5.931-4.635-6.666-28.3-6.97-8.46-2.446-10.832-32.6-2.694-0.662-7.236-5.407-5.085-13.683-5.618-3.678-.7L784.509,64.9l-2.961-15.135-9.2-5.931,2.492-9.783-5.655-4.036-1.094-8.653-6.611-2.979L758.014,4.594l-28.6-.956-4.488,7.779L703.745,27.343l-6.253,8.5-3.558-.165,2.621-7.144L693.739,17.5l-2.225-3.145L677.4,1.856l-25.894,15.9-13.489-5.637-10.27,4.727-14.1-4.993-2.86,6.354L595.7,20.184l-2.391,30.077-22.858,30.1-3.613-5.333L561,71.483l-13.231,6.629L528,67.6,515.175,54l-35.2-21.351-8.331-20.634L465.787,7.7Z" transform="translate(0 0.004)" fill="#ffeb00" stroke="#000" stroke-width="3"/><text transform="translate(230.488 753.115)" font-size="42.881" font-family="DejaVu Sans" font-weight="700" style="isolation:isolate">1</text><text transform="translate(128.409 808.296)" font-size="71.219" font-family="DejaVu Sans" font-weight="700" style="isolation:isolate">7</text><text transform="translate(276.869 701.91)" font-size="71.219" font-family="DejaVu Sans" font-weight="700" style="isolation:isolate">2</text><text transform="translate(439.751 732.293)" font-size="95.628" font-family="DejaVu Sans" font-weight="700" style="isolation:isolate">3</text><text transform="translate(535.267 452.291)" font-size="134.917" font-family="DejaVu Sans" font-weight="700" style="isolation:isolate">4</text><text transform="translate(80.956 555.972)" font-size="134.917" font-family="DejaVu Sans" font-weight="700" style="isolation:isolate">6</text><text transform="translate(761.535 421.445)" font-size="134.917" font-family="DejaVu Sans" font-weight="700" style="isolation:isolate">5</text><text transform="translate(408.784 246.787)" font-size="134.917" font-family="DejaVu Sans" font-weight="700" style="isolation:isolate">8</text><rect x="199.761" y="164.897" width="163.78" height="163.78" fill="silver" stroke="#000" stroke-width="3"/><rect x="189.098" y="424.112" width="151.628" height="151.628" fill="silver" stroke="#000" stroke-width="3"/><rect x="519.589" y="471.023" width="151.628" height="151.628" fill="#06c" stroke="#000" stroke-width="3"/><rect x="852.42" y="307.73" width="88.645" height="88.645" fill="silver" stroke="#000" stroke-width="3"/><rect x="362.166" y="668.047" width="72.252" height="72.252" fill="#06c" stroke="#000" stroke-width="3"/><rect x="217.265" y="646.554" width="47.562" height="47.562" fill="silver" stroke="#000" stroke-width="3"/><rect x="103.102" y="716.721" width="23.781" height="23.781" fill="silver" stroke="#000" stroke-width="3"/><rect x="209.465" y="712.329" width="23.781" height="23.781" fill="#06c" stroke="#000" stroke-width="3"/><path d="M1191.647,748.784l3.677-22.46-16.1-15.5-14.519,4.243-10.5,11.125-28.983-2.789,0.7-9.023,15.065-12.257,14.952-4.243-7.92-3.753,7.3-11.238,16.839,1.885L1167,675.308l6.152-2.018,0.509-8.578-3.9-2.734,8.613-14.952,15.141-2.941,19.008-2.432,13.33,3.47,7.731,3.281,19.591-4.376,15.141,9.05,5.016,29.1,11.088,18.893-4.054,6.411-8.07,37.092Z" transform="translate(0 0.004)" fill="#ffeb00" stroke="#000" stroke-width="3"/><path d="M906.4,690.123l-3.942-6.185-35.941-5.332,3.866-36.431,16.162-11.39L889.753,618l6.958-1.075,31.991,11.56,3.244,1.319,32.49-8.353,22.289,7.768,24.381,1.436,2.545,22.177,13.293,16.652-4.752,44.482,41.995-2.393,58.36,9.534-0.377,28.587,35.018,9.05,2.018,7.178-20.025,31.019,12.671,8.145,18.457-11.238,20.251,7.336,13.8-6,13.765,5.789,5.11,5.676,2.582,7.178-1.319,7.5-5.449,5.262-22.14-4.471-28.983,9.05-16.611-13.945-11.2-9.581-14.614,2.828-23.5,19.4-19.591,40.957-21.4-.773-5.865,4.9-21.8-6.185-24.418-28.561-27.209-13.67-3.09-6.958,14.519-17.431,8.221-29.436L997.982,758l7.731-13.143-8.73-20.628-21.609,3.98-36.394-6.337L952.9,688.066l-15.141-14.991Z" transform="translate(0 0.004)" fill="#ffeb00" stroke="#000" stroke-width="3"/><text transform="translate(1223.544 737.916)" font-size="87.938" font-family="DejaVu Sans" font-weight="700" style="isolation:isolate">1</text><text transform="translate(1014.207 851.077)" font-size="146.051" font-family="DejaVu Sans" font-weight="700" style="isolation:isolate">7</text><rect x="962.31" y="663.283" width="48.769" height="48.769" fill="silver" stroke="#000" stroke-width="3"/><rect x="1180.432" y="654.276" width="48.769" height="48.769" fill="#06c" stroke="#000" stroke-width="3"/><polyline points="867.639 668.046 254.367 756.265 981.728 826.558" fill="none" stroke="#000" stroke-width="3"/></svg>