<svg xmlns="http://www.w3.org/2000/svg" width="1746.78" height="777.655" viewBox="0 0 1746.78 777.655"><title>1T Législatives 2017 Bouches-du-Rhône</title><path d="M1619.008,592.088l11.185,3.128,8.382-2.013,0.7-5.419,4-3.9,13.075,3.156,0.857-3.586-5.1-6.069-0.243-5.473,5.079-6.086,2.71,0.488,7.287-8.992-4.589-18.643-5.565-.7L1647,543.252l-13.947.524-5.2-6.985-4.285,3.793-9.537-2.178-9.745,7.494-10.891-2.34-0.957,16.277-1.857,4.371,1.123,4.318,11.225-1.116,4.859,6.4,5.018-2.713,2.281,4.937,5.728,1.152-0.705,2.838,0.3,4.754,2.194,3.384Z" transform="translate(-97.469 -21.929)" fill="#ffeb00" stroke="#000" stroke-width="3"/><path d="M1554.906,571.209l5.774-9.819,8.438,0.223,0.7,2.215,1.028,9.931,9.162-3.336,6.817,7.191-2.563,8.211,0.07,14.42-3.856,11.11-5.515,6.675,0.623,14.413-11.588,1.5-13.592-5.571,5.9-13.535,14.242-14.973,0.234-8.818-3.517-8.113Z" transform="translate(-97.469 -21.929)" fill="#ffeb00" stroke="#000" stroke-width="3"/><path d="M1576.628,537.56l-0.421,3.283,6.529,1.511,0.283-.045,10.368,1.251,10.891,2.34,9.745-7.494,9.534,2.178,4.288-3.793-7.176-10.74-1.691-8.231,7.051-13.157-9.936-21.9-4.721-2.755-9.362,5.765-5.774,4.011-14.449,5.566,2.665,1.228-0.933,2.8-8.653,7.681-1.532,9.065,5.58,3.848,0.439,2.317,3.751,1.842,3.143,2.082,3.152,2.466,0.415,1.6-5.96,3.33-1.952,4.037-3.373-1.363Z" transform="translate(-97.469 -21.929)" fill="silver" stroke="#000" stroke-width="3"/><path d="M1580.217,555.942l2.437-3.306-1.562-4.362,1.648-5.921-13.267-3.1-1.5,2.834-8.818-15.269-5.687-1.225,9.005,14.681,1.814,8.73-1.421,8.8,0.344,2.47,7.516,0.151,2.335-.8,0.27,2.9,2.329-.848,5.8,2.155Z" transform="translate(-97.469 -21.929)" fill="#d00" stroke="#000" stroke-width="3"/><path d="M1580.217,555.942l2.437-3.306-1.562-4.362,1.648-5.921,0.282-.045,10.368,1.251-0.957,16.277-1.854,4.371,0.249,1-8.849,3.853-1.965,1.36-9.162,3.336-1.028-9.931-0.7-2.215,1.6-1.183,2.335-.8,0.273,2.9,2.326-.848,3.217,1.185,2.59,0.971Z" transform="translate(-97.469 -21.929)" fill="#ffeb00" stroke="#000" stroke-width="3"/><path d="M1622.9,631.936l-5.409,1.423-0.7,2.859-11.222-2.555-4.35,2.451L1584.9,630.1l-9.312,2.341-0.623-14.413,5.515-6.675,3.856-11.11-0.07-14.42,2.563-8.211-6.817-7.191,1.968-1.36,8.849-3.853,0.872,3.318,11.225-1.116,4.859,6.4,5.018-2.713,2.281,4.937,5.725,1.152-0.7,2.838,0.3,4.754,2.194,3.384L1619,592.086l11.182,3.128,8.382-2.013,0.7-5.419,4-3.9,13.076,3.156,4.046,16.119,2.735,4.784-1.155,2.648-5.725.758-3.4,4.208,5.933,13.03-4.19,13.7-0.717-2.85-8.733.237Z" transform="translate(-97.469 -21.929)" fill="#f90" stroke="#000" stroke-width="3"/><path d="M1546.389,521.06l1.089-4.739L1533.8,505.928l-5.848-.756-13.337,5.738-2.09-10.5,2.738-7.516-2.771-4.634,13.1-5.574,11.7,12.708,8.039,0.49,3.143-4.294,10.087-.148-2.118-4.9,12.96-5.156,3.462,4.074,0.53,11.171,8.391-1.281,2.665,1.228-0.933,2.8-8.653,7.681-1.532,9.065,5.58,3.848,0.439,2.317,3.751,1.842,3.143,2.082,3.152,2.466,0.415,1.6-5.96,3.33-1.952,4.037-3.373-1.363-1.9,1.272-0.421,3.283-6.734-1.588-1.5,2.834-8.818-15.269-5.687-1.225-4.789-2.711Z" transform="translate(-97.469 -21.929)" fill="silver" stroke="#000" stroke-width="3"/><path d="M1441.034,411.386l-5.039,10.3-5.5.342L1416.34,399.57l-6.791-19.684,2.7-4.916-0.822-5.934-7.438-4.675-27.013-1.374-8.392,3.185-7.417-9.344-1.876-8.748-6.421-9.7,5.6-.952,5.962-9.759,8.028,7.33,5.526,1.418-3.235-11.22-6.064-6.362-2.4-11.278-3,.167-13.932-11.278-5.919-.923-11.19-9.969-20.309-18.135L1320,251.161l19.3,8.595,36.131-22.1,8.82-8.282,20.564,0.1,4.4-3.679,1.636,2.5,6.333-4.69,7.526-2.64,7.373,3,2.843,10.921,13.249,5.977,3.832,7.766-0.763,3.127,0.968,13.816,2.64,1.338,17-3.8,12.012,12.812,4.675,17.1,5.737,1.338,5.112-2.894-2.982,16.274-1.622,4.828,2.64,4.261,5.766,5.934,8.239-.356,16.106,7.613,14.1,10.4,8.762,1.505,2.043,11.431,2.247,1.963-8.791,14.513-17,3.606-7.8-3.861-1.462,5.766-13.75,14.782,1.294,8.333-8.282,2.13-5.083,6.828-16.448-3.381-3.083-7.017-9.671-3.25Z" transform="translate(-97.469 -21.929)" fill="#ffeb00" stroke="#000" stroke-width="3"/><path d="M1656.376,587.419l0.865-3.606-5.141-6.108-0.24-5.526,5.112-6.123,2.727,0.494,7.33-9.06-4.617-18.76,15.866-12.8,11.074,0.538,26.73,9.642,8.3,0.742,7.344-3.948,7.358,3.788,8.82,5.2,5-2,7.752,0.312,5.752,5.155,21.981-3.738,6.421,13.139,8.907,11.6,7.046,4.988-1.149,12.754-14.019,4.443-22.876,12.681,2.029,4.675-13.663,5.272-2.487,15.88-1.505,22.127-2.531,9.642-15.96-7.438-14.484,2.1-6.021,6.348-1.433,8.595-3.563,4.711-21.233-10.34-9.191-11.7-3.781-4.588-1.28-11.686-5.1-3.01-13.547,3.847-4.348,7.373,4.217-13.787-5.962-13.11,3.424-4.232,5.766-.763,1.164-2.668-2.756-4.814Z" transform="translate(-97.469 -21.929)" fill="#f90" stroke="#000" stroke-width="3"/><path d="M1629.254,395.593L1622,404.217l-9.656,6.29-5.068-1.774-16.506,2.61L1578.8,418.7l2.581,22.44-10.413,13.19,2.727,4.588,8.311-1.578,3.323,13.532,6.988,8.449,9.372,6.166,9.431-5.809,4.741,2.77,10,22.04-7.1,13.249,1.7,8.282,7.228,10.805,5.228,7.032,14.034-.524,9.853-5.3,5.6,0.713,15.866-12.8,11.074,0.538,26.73,9.642,8.3,0.727,7.344-3.934,7.358,3.781,8.82,5.214,5-2.014,8.522-2.073,4.319-7.613-1.105-8.661,9.554-11.053-5.839-9.787-3.025-20.651-4.007-7.984-2.058-2.014-5.606,1.309-14.5-.4-4.872-3.083-6.748-4.756-10.936-1.876-3.636-16.789-10.565-9.445-15.008,8.195-2.77-.778-6.421-5.752-11.649.524-20.607-19.669,22.578-16.761,2.625-18.309-3.25-.923-16.615-3.185-8.326,1.672-7.3-4.53-5,.567-4.1,7.213,0.283,5.381L1630.3,393Z" transform="translate(-97.469 -21.929)" fill="#ffeb00" stroke="#000" stroke-width="3"/><path d="M1494.777,312.553l2.64,4.261,5.766,5.934,8.239-.356,16.106,7.6,14.1,10.413,8.762,1.49,2.043,11.431,2.247,1.971-8.791,14.513-17,3.606-7.8-3.861-1.462,5.766-13.75,14.782,1.294,8.333,10.907,10.682,0.385,5.722,5.3,6.21,1.563,11.074,6.064,12.4-8.463.029-2.444,8.282-11.278,2.472-1.716,11.4-4.363,3.752,3.832,8.42,4.632,9.1,13.19-5.606,11.773,12.8,8.078,0.494,3.185-4.333,10.144-.153-2.13-4.93,13.037-5.185,3.49,4.087,0.524,11.249,8.435-1.294,14.543-5.606,5.825-4.036-9.372-6.166-7-8.449-3.323-13.532-8.3,1.578-2.727-4.588,10.4-13.19-2.574-22.44,11.969-7.358,16.506-2.61,5.068,1.774,9.656-6.29,7.242-8.609,1.076-2.574-3.49-4.348-0.283-5.381,1.651-2.872-4.959-.567-2.574-1.789,0.073-.952-0.553-3.192-2.429-1.563-1.774-3.766-1.178-1.418-2.087-.793-2.087-.116-2.756,7.213L1601.127,376l1.948-2.952-0.153-8.137,5.809-7.075,1.847,2.385,4.217-2.3-0.756-12.609,6.246,4.363v-3.606l9.845-23.218-3.41-1.687,0.2-6.871-3.025-.7-6.559,4.814L1606.311,320l-7.584,4.428-10.951-.895-2.342,6.7-4.29-6.108-12.369-1.636-3.01-5.039,1.251-4.2-12.841-12.623-4.414,2.232-3.752,4.246-7.853-2.894-7.257,4.458-17.284,1.549-17.24-2.487Z" transform="translate(-97.469 -21.929)" fill="#f90" stroke="#000" stroke-width="3"/><path d="M1372.748,428.285l0.153,6.377,4.29,17.728-0.756,15.066,7.868,4.144,14.659-1.134,4.1,10.921-1.934,5.541,1.9,16.775-0.553,14.048-8.42,11.278,5.2,2.77,23.691,0.059,8,2.3,10.966-1.178,6.631-4.661,5.053,0.756,24.33,3.577,8.064-2.923,12.784-5.65,15.081-12.98-2.116-10.565,2.756-7.57-2.785-4.675-4.632-9.1-3.847-8.42,4.378-3.752,1.716-11.387,11.263-2.487,2.458-8.282,8.463-.029-6.064-12.4-1.563-11.06-5.308-6.217-0.371-5.722L1507.3,398.748l-8.282,2.13-5.083,6.828-16.463-3.381-3.025-6.871-9.729-3.308-23.349,17.625-5.287,10.311-5.839-.043-13.5-21.458-7.242-20.564,2.857-4.632-1.025-6.035-7.046-4.574L1377.21,363.4l-8.609,3.054-7.228-8.85-1.92-8.645-6.508-10.194-4.828.3,1.054,23.828-7.926,12.172-2.472,8.645,2.713,17.684-1.535,6.166,2.923,4.486h21.174l5,2.982,3.353,5.068,0.116,4.246Z" transform="translate(-97.469 -21.929)" fill="#06c" stroke="#000" stroke-width="3"/><path d="M1373.01,533.72l-11.162-3.505-12.34-10.493,5.424-10.224-5.825-2.283L1338.827,488.4l-7.672-11.322,8.675-5.155-3.337-3.483-6.886-.524-0.713,5.337-4.7-3.155-2.1-17.313-4.2-3.977-20.832-5.868-13.859,5.722-0.356,6.806-11.932,7.046-2.073-2.545,5.2-8.645,5.977-4.13-10.194,1.178-2.283,6.748-7.032-11.8-2.7.654-4.232-9.584,0.24-10.383-6.151,3.788,16.164,33.136-7.286,6.449-22.665-21.647-3.694,5.468,22.01,19.117-3.207,2.385-7.911-4.378-2.683,5.395,10.253,3.665-1.7,11.757-10.921,2.247,20.367,5.65,10.253,10.791,19.284-17.226-0.342-7.868,3,8.282-35.332,33.136-2.3,9.358-6.05.073-7.33-13.1-1.971-20.919L1187.443,463.4l-12.027-17.313,9.191-25.348,9.031-12.128,5.141-3.112,17.5-.371,9.271,6.82,5.337-2.574,8.347,8.748,10.864-4.159,12.784-23.051L1286.523,379l8.661-1.847,16.971,21.334,5.155-3.353,3.679-18.862,10.762-2.952-4.53-12.427,4.1-5.708,5.882,5.9,1.948-17.117-4.4-2.13L1329,333.259l6.508-11.686,6.392,8.834-0.043,11.416,3.483-3.519,2.879,0.581,0.669,23.763L1341.08,375l-2.5,8.675,2.8,17.735-1.687,5.781,3.323,4.872,20.905-.371,5.141,3.083,3.112,5.068,0.654,14.928,4.29,17.611-0.756,14.8,7.584,4.064,14.928-1.062,4.116,10.921-1.948,5.541,1.92,16.775-0.553,14.048-8.42,11.278-4.319,4.144-8.479-2.713Z" transform="translate(-97.469 -21.929)" fill="#d00" stroke="#000" stroke-width="3"/><path d="M1615.976,368.608l-1.178-1.4-2.087-.793-2.087-.116-2.756,7.213-6.718,2.531,1.934-2.952-0.146-8.137,5.8-7.075,1.861,2.385,4.217-2.3-0.763-12.609,6.26,4.363-0.014-3.606,9.853-23.218-3.41-1.687,0.182-6.871-3.01-.7-6.574,4.814-11.009,1.592-7.6,4.428-10.936-.895-2.356,6.7-4.29-6.108-12.369-1.636-3-5.039,1.236-4.2-12.841-12.623,5.636-2.4,5.868-12.95-0.611-5.541,28.373,1.861-10.936-23.065,2.879-8.267-1.164-14.317,4.973-1.963,5.155-12.4,20.142,10.966,26.461,10.638,26.213,7.169,11.946-.444,14.71-1.9,20.593,2.814,10.456-6.377,10.849-5L1745.449,228l9.853-6.886,6.007,0.581,18.048,1.861,15.975-22.156,9.743-6.886,11.62,2.073,7.184,4.988-0.494,8.661,3.323,8.122,15.212,6.544-5.351,7.257-3.323,17.641-18-.451-31.6,9.075-5.584,6.988-5.781-.756L1760.1,291.687l5.395,20.069-1.265,2.7-18.942,7.627,7.672,9.075,13.816,1.091,9.271,6.064,6.29,4.29,5.068-.059-4.472,13.787-2.2,28.889-6.828,5-2.741,11.22,7.1,2.713,10.463,10.151,15.051,27.922,13.859,10.82,8.566,0.982,0.312,0.146-1.353,5.395-4.486,3.265-17.88,7.271-16.928-5.9-11.962.415-12.638,7.5-2.058-2.014-5.606,1.294-14.484-.385-4.886-3.083-6.748-4.756-10.936-1.876-3.636-16.789-10.565-9.445-15.008,8.18-2.756-.763-6.435-5.752-11.649.524-20.607-19.669,22.578-16.761,2.625-18.309-3.25-.923-16.615-3.185-8.326,1.672-7.3-4.53-5,.567-2.472,4.348-4.959-.567-2.574-1.789,0.087-.952-2.982-4.756Z" transform="translate(-97.469 -21.929)" fill="#ffeb00" stroke="#000" stroke-width="3"/><path d="M1171.578,73.477L1171.651,62l-7.046-5.439-5-10.595-2.894.567,0.494-1.774,10.595-5.62,8-9.016,2.189-6.493,21.363,3.788,23.108,4.6L1249.542,35l16.4,7.926,13.365,11.932,11.773,0.763,5.257,2.043,24.2,12.558,13.488,16.3,3.8,5.01,18.593,13.946,4.711,7.228,4.486,11.686,3.41,14.376,26.286,15.066,20.461,11.431,9.271,5.1,29.34,14.8,30.976-10.238,5.679,0.283,11.445,2.487,13.787,3.49,17.866,3.069,6.559,6.26,10.994,8.944,16.586,8.195,10.864,5.977,15.212,7.941-5.155,12.4-4.988,1.963,1.164,14.317-2.879,8.267,10.951,23.065-28.388-1.861,0.611,5.541-5.854,12.95-10.071,4.617L1546,307.094l-7.853-2.894-7.257,4.458-17.284,1.549-17.24-2.5,2.982-16.259-5.112,2.879-5.737-1.338-4.675-17.1-12.012-12.812-17,3.8-2.64-1.338-0.968-13.816,0.763-3.127-3.832-7.766-13.249-5.977-2.843-10.921-7.373-3-7.526,2.64-6.333,4.69-1.622-2.5-4.414,3.679-20.564-.1-8.82,8.282-36.131,22.1-19.3-8.595,8.406-18.8-0.807-29.34-10.144-4.9-0.385,50.515-16.463-6.574-4.05-14.034-2.785-1.105,3.337,11.591-11.533,2.472-8.893-1.076-13.8-5.868-32.721-1.309-14.114.952-5.242-2.014-9.075-2.487-11.074-7.373-0.567-2.713-4.189-17.372,9.256-11.06,4.1-14.586L1197.25,164l1.578-18.957-3.28-11.875-1.891-1.92-8.864-16.259-1.92,1.7-9.285-3.766,4.857-10.34,1.011-8.522-4.363-13.575Z" transform="translate(-97.469 -21.929)" fill="#ffeb00" stroke="#000" stroke-width="3"/><path d="M1223.787,523.14l-25.864-8.522-27.254-.85-39.186,3.171L1087.1,507.82l-15.226-9.882-5.9-10.354,2.516-5.381,21.843-15.837-6.181-17.153-7.657-9.358-12.871-8.013-20.265-6.348-42.421-1.28-17.03,5.665-15.081,1.207-14.4-4.443L863.5,420.164l0.821-17.67,4.785-10.907-0.88-2.857,3.89-3.738L902.427,374l17.088-11.322-7.242-15.91,5.781-9.417,2.2,4.756-3.9,4.159,0.982,2.727,9.315,6.777,9.925-5.584,3.185-4.378,11.445-1.759,10.652-9.853,11.591-.24,3.963-7.373-4.711-3.505,11.431-9.148,14.5,1.134,7.417-5.141,8.239-12.4-0.356-5.825-4.632-3.766-11.205,4.217-5.868-.923-6.181-6.69-1-5.665,15.212-32.888,16.149-7.228-0.727-11.918,6.151-10.354,8.566-2.741,15.081-.429,8.108-3.832,13.467,6.529,11.875,2.073,12,8.791,14.812-.328,2.879-.909,0.073-3.025-7.809-16.288-1.251-12,9.787-28.191,14.645-22.81,1.636-21.247-7.089-19.655,14.659-12.936-3.155-4.472-11.235.371,2.247-5.272-3.185-8,9.235-5.839,2.756,0.269,0.713,2.683,3.381-4.77,15.9-7.57,9.715-10.98,5.01,10.595,7.032,5.454-0.059,11.474,3.549,7.046,4.378,13.575-1.011,8.522-4.857,10.34,9.285,3.766,1.92-1.7,8.864,16.259,1.891,1.92,3.28,11.875-1.578,18.957,1.963,12.041-4.1,14.586-9.271,11.06,4.2,17.372,0.567,2.713,11.074,7.373,9.06,2.487,5.257,2.014,14.114-.952L1262.925,234l13.8,5.868,8.893,1.076,11.533-2.472-3.337-11.591,2.77,1.105,4.064,14.034,16.463,6.574,0.371-50.515,10.151,4.9,0.793,29.34-8.392,18.8-8.064,16.259,20.309,18.135,11.19,9.969,5.919,0.923,13.932,11.278,2.982-.167,2.414,11.278,6.064,6.362,3.235,11.22-5.526-1.4-8.028-7.344-5.962,9.759-5.6.952-4.675.524-2.879-.581-3.483,3.505,0.043-11.4-6.392-8.834-6.508,11.686,5.737,8.566,4.414,2.13-1.963,17.124-5.868-5.919-4.1,5.708,2.472,7.358,2.043,5.068-10.754,2.966-3.679,18.848-5.155,3.367-16.971-21.334-8.675,1.847-23.632,11.9-12.784,23.065-10.864,4.159-8.362-8.748-5.323,2.574-9.271-6.82-17.5.371-5.141,3.112-9.031,12.128-9.206,25.348,12.027,17.313,48.159,36.161,1.985,20.919,7.33,13.1-6.05-.385Z" transform="translate(-97.469 -21.929)" fill="silver" stroke="#000" stroke-width="3"/><text transform="translate(1104.125 161.834)" font-size="106.692" font-family="DejaVu Sans" font-weight="700">15</text><text transform="translate(950.24 383.931)" font-size="106.692" font-family="DejaVu Sans" font-weight="700">16</text><text transform="translate(1280.546 299.569)" font-size="106.692" font-family="DejaVu Sans" font-weight="700">8</text><text transform="translate(1549.701 304.424)" font-size="80.534" font-family="DejaVu Sans" font-weight="700">14</text><text transform="translate(1524.966 498.499)" font-size="77.295" font-family="DejaVu Sans" font-weight="700">10</text><text transform="translate(1565.66 595.981)" font-size="77.295" font-family="DejaVu Sans" font-weight="700">9</text><text transform="translate(1493.112 603.745)" font-size="47.067" font-family="DejaVu Sans" font-weight="700">6</text><text transform="translate(1461.995 604.812)" font-size="19.052" font-family="DejaVu Sans" font-weight="700">2</text><text transform="translate(1520.757 559.569)" font-size="47.067" font-family="DejaVu Sans" font-weight="700">1</text><text transform="translate(1471.147 530.505)" font-size="13.615" font-family="DejaVu Sans" font-weight="700">4</text><text transform="translate(1486.59 532.962)" font-size="13.06" font-family="DejaVu Sans" font-weight="700">5</text><text transform="translate(1503.122 486.07)" font-size="26.022" font-family="DejaVu Sans" font-weight="700">3</text><text transform="translate(1461.995 479.965)" font-size="19.581" font-family="DejaVu Sans" font-weight="700">7</text><text transform="translate(1444.599 378.814)" font-size="47.067" font-family="DejaVu Sans" font-weight="700">11</text><text transform="translate(1320.686 455.906)" font-size="70.554" font-family="DejaVu Sans" font-weight="700">12</text><text transform="translate(1159.046 414.532)" font-size="46.714" font-family="DejaVu Sans" font-weight="700">13</text><rect x="1123.762" y="234.459" width="70.567" height="70.567" fill="#ffeb00" stroke="#000" stroke-width="3"/><rect x="1237.86" y="147.582" width="50.012" height="50.012" fill="#06c" stroke="#000" stroke-width="3"/><rect x="1329.753" y="301.24" width="67.555" height="67.555" fill="silver" stroke="#000" stroke-width="3"/><rect x="1580.291" y="326.461" width="67.555" height="67.555" fill="#06c" stroke="#000" stroke-width="3"/><rect x="1499.391" y="395.023" width="42.731" height="42.731" fill="silver" stroke="#000" stroke-width="3"/><rect x="1443.57" y="392.07" width="27.294" height="27.294" fill="#06c" stroke="#000" stroke-width="3"/><rect x="1614.068" y="532.847" width="45.987" height="45.987" fill="#06c" stroke="#000" stroke-width="3"/><rect x="1262.648" y="458.141" width="32.664" height="32.664" fill="#ffeb00" stroke="#000" stroke-width="3"/><rect x="1272.55" y="349.141" width="34.834" height="34.834" fill="#ffeb00" stroke="#000" stroke-width="3"/><rect x="1458.249" y="484.203" width="13.647" height="13.647" fill="#ffeb00" stroke="#000" stroke-width="3"/><rect x="1497.088" y="491.026" width="19.68" height="19.68" fill="#ffeb00" stroke="#000" stroke-width="3"/><rect x="1504.562" y="526.74" width="15.17" height="15.17" fill="#06c" stroke="#000" stroke-width="3"/><rect x="1523.706" y="576.747" width="26.817" height="26.817" fill="#06c" stroke="#000" stroke-width="3"/><rect x="1476.228" y="552.707" width="8.672" height="8.672" fill="#06c" stroke="#000" stroke-width="3"/><rect x="1486.161" y="534.161" width="4.954" height="4.954" fill="#d00" stroke="#000" stroke-width="3"/><rect x="1473.751" y="531.149" width="4.954" height="4.954" fill="#ffeb00" stroke="#000" stroke-width="3"/><path d="M580.684,568.008l48.758,13.634,36.54-8.776,3.05-23.625,17.447-16.984,57,13.758,3.735-15.632-22.24-26.459-1.058-23.86,22.142-26.53,11.812,2.129,31.767-39.2L769.629,335.2l-24.258-3.062L702.7,355.119,641.9,357.4l-22.652-30.448-18.681,16.533-41.575-9.494L516.51,366.663l-47.478-10.2-4.173,70.959-8.1,19.054,4.9,18.825,48.934-4.865,21.183,27.921,21.874-11.825,9.944,21.522,24.97,5.021L585.49,515.45l1.3,20.725,9.566,14.751Z" transform="translate(-97.469 -21.929)" fill="#ffeb00" stroke="#000" stroke-width="3"/><path d="M301.243,476.99l25.172-42.8L363.2,435.16l3.05,9.658,4.48,43.292,39.942-14.542,29.717,31.349-11.173,35.8,0.307,62.862-16.807,48.431L388.67,681.1l2.716,62.829-50.514,6.536-59.251-24.284,25.72-59,62.085-65.271,1.019-38.441L355.114,528.1Z" transform="translate(-97.469 -21.929)" fill="#ffeb00" stroke="#000" stroke-width="3"/><path d="M395.937,330.305L394.1,344.619l28.463,6.589,1.234-.2,45.2,5.452,47.478,10.2,42.482-32.668,41.562,9.494,18.695-16.533-31.284-46.818-7.372-35.881L611.295,186.9,567.982,91.434,547.4,79.426,506.59,104.559l-25.172,17.487L418.432,146.31l11.617,5.354-4.068,12.211L388.258,197.36l-6.68,39.518L405.9,253.653l1.913,10.1,16.351,8.032,13.7,9.076L451.6,291.61l1.809,6.98L427.43,313.106l-8.508,17.6-14.7-5.942Z" transform="translate(-97.469 -21.929)" fill="silver" stroke="#000" stroke-width="3"/><path d="M411.583,410.438l10.624-14.411-6.81-19.015,7.183-25.812-57.834-13.5L358.2,350.051l-38.44-66.564-24.793-5.341,39.257,64,7.908,38.055-6.2,38.382,1.5,10.768,32.766,0.659,10.18-3.474,1.176,12.629,10.154-3.7,25.3,9.4Z" transform="translate(-97.469 -21.929)" fill="#d00" stroke="#000" stroke-width="3"/><path d="M411.583,410.438l10.624-14.411-6.81-19.015,7.183-25.812,1.228-.2,45.2,5.452-4.173,70.959-8.084,19.054,1.084,4.362-38.577,16.795-8.567,5.929L370.745,488.1l-4.48-43.292-3.05-9.658,6.974-5.158,10.18-3.474,1.188,12.629,10.141-3.7,14.026,5.165,11.29,4.231Z" transform="translate(-97.469 -21.929)" fill="#ffeb00" stroke="#000" stroke-width="3"/><path d="M597.641,741.718l-23.579,6.2L571,760.387l-48.92-11.14L503.117,759.93l-71.142-26.21-40.6,10.206L388.663,681.1,412.706,652l16.807-48.431-0.307-62.862,11.173-35.8-29.717-31.349,8.58-5.929,38.577-16.795,3.8,14.463,48.934-4.865,21.183,27.921,21.874-11.825,9.944,21.522,24.957,5.021L585.45,515.45l1.3,20.725,9.566,14.751L580.67,568l48.744,13.634,36.54-8.776L669,549.235l17.447-16.984,57,13.758,17.637,70.267,11.924,20.856-5.034,11.545-24.957,3.3L728.2,670.322l25.865,56.8L735.8,786.833l-3.128-12.426L694.6,775.438Z" transform="translate(-97.469 -21.929)" fill="#f90" stroke="#000" stroke-width="3"/><path d="M264.115,258.374l4.747-20.66-59.623-45.3-25.492-3.3-58.141,25.015-9.109-45.76L128.433,135.6l-12.08-20.2,57.123-24.3,51.01,55.4,35.045,2.135,13.7-18.721,43.971-.646-9.233-21.359,56.5-22.475,15.09,17.761,2.312,48.7,36.58-5.583,11.617,5.354-4.068,12.211L388.273,197.36l-6.68,39.518,24.323,16.775,1.913,10.1,16.351,8.032,13.7,9.076,13.739,10.748,1.809,6.98-25.982,14.516-8.508,17.6-14.7-5.942-8.279,5.544-1.835,14.313L364.76,337.7l-6.542,12.354-38.44-66.564-24.793-5.341-20.876-11.819Z" transform="translate(-97.469 -21.929)" fill="silver" stroke="#000" stroke-width="3"/><text transform="translate(359.296 692.497)" font-size="205.18" font-family="DejaVu Sans" font-weight="700">6</text><text transform="translate(223.65 697.146)" font-size="83.054" font-family="DejaVu Sans" font-weight="700">2</text><text transform="translate(479.808 499.913)" font-size="205.18" font-family="DejaVu Sans" font-weight="700">1</text><text transform="translate(263.542 373.22)" font-size="59.353" font-family="DejaVu Sans" font-weight="700">4</text><text transform="translate(330.864 383.931)" font-size="56.934" font-family="DejaVu Sans" font-weight="700">5</text><text transform="translate(402.933 179.511)" font-size="113.438" font-family="DejaVu Sans" font-weight="700">3</text><text transform="translate(223.65 152.9)" font-size="85.359" font-family="DejaVu Sans" font-weight="700">7</text><rect x="207.315" y="171.37" width="59.491" height="59.491" fill="#ffeb00" stroke="#000" stroke-width="3"/><rect x="376.627" y="201.115" width="85.792" height="85.792" fill="#ffeb00" stroke="#000" stroke-width="3"/><rect x="409.209" y="356.803" width="66.131" height="66.131" fill="#06c" stroke="#000" stroke-width="3"/><rect x="492.665" y="574.798" width="116.905" height="116.905" fill="#06c" stroke="#000" stroke-width="3"/><rect x="285.69" y="470.003" width="37.804" height="37.804" fill="#06c" stroke="#000" stroke-width="3"/><rect x="328.991" y="389.155" width="21.595" height="21.595" fill="#d00" stroke="#000" stroke-width="3"/><rect x="274.892" y="376.024" width="21.595" height="21.595" fill="#ffeb00" stroke="#000" stroke-width="3"/><rect x="2" y="23.984" width="700.465" height="746.086" fill="none" stroke="#000" stroke-width="4"/><polyline points="702.465 770.071 1457.437 549.279 702.465 23.984" fill="none" stroke="#000" stroke-width="4"/></svg>