<svg xmlns="http://www.w3.org/2000/svg" width="4237.114" height="4805.907" viewBox="0 0 4237.114 4805.907"><title>Députés sortants des Alpes-Maritimes en 2017</title><path d="M2547.273,3634.432L2452.8,3637.5l-54.214,17.362-3.326-122.09,31.233,19.836,8.173,33.246,53.875-33.267,19.05-16.821,34.068,6.679-10.5-23.594,4.537-12.255,19.822-10.416,3.34-20.824-24.2-25.52,11.353-30.865,47.051-23.5-10.372,36.095,32.445,43.856,69.5,2.049,10.063,2.806-32.546,14.412-51.228,70.834-3.015,35.7,29.329,44.542-10.51,43.813-47.405-6Z" transform="translate(1.612 1.644)" fill="#06c" stroke="#000" stroke-width="4"/><path d="M869.267,3254.133l39.978,79.455,15.587,85.4-23.056,49.437,73.415,60.868,56.584,5.393,40.349,80.052,94.485,15.4,104.127,48.371,35.829,38.83-33.848,44.408,12.772,54.782,12.452,23.884-20.338,23.794-43.3-1.154-40.349-17.478-49.339,10.7,16.049,20.7-14.94,7.931-22.134-11.9-27.391,20.7-18.261,29.1-68.112-27.3,5.95,102.512,29.007,21.537-31.45,67-42.145,24.487-74.2,7.194-31.174-17.293-14.388,10.6-56.719-40.074-11.714-29.468-43.4-21.441-43.254-35.323-53.769,7.38-39.612-81.346-57.642-87.983-35.413-4.841-19.184-29.193,9.175-92.875,14.343-35.553,29.744-23.147-33.341-141.938L475.6,3453.228,463.422,3399l-163.565-13.51-3.225-36.291-27.115-25.5-68.709-28.174-18.351-3.6-98.174,48.2-14.85-75.9-46.2-29.789,12.5-48.973L7.367,3165.225l-5.484-43.4-1.34-6.687,23.884-27.205,180.856-46.575,84.572-37.445,3.507-36.938-40.9-39.8-127-31.726,47.729-117.541,89.182-20.2L246,2748.161l-10.6-93.381-69.542-23.428-29.374-46.481L316.1,2629.279l123.677,41.965,131.609-63.592,77.473-145.721L769.994,2417.8l14.343,16.465,54.692,7.1,99.331,80.885,32.232,45.742,35.739,4.706,102.326-19.55,74.011-15.035,18.351-5.027-2.86-36.567-46.024-33.155-65.849-92.413-16.139-10.189-36.2,11.9-31.078-18.908-38.092-41.593-36.2-84.572-93.471-9.085-3.321-55.289-10.1-67.465-42.241-30.9,15.773-34.957L625.978,1929.548l-25.776-71.8-70-28.45-99.787-89.092,7.931-112.565,34.5-87.893-26.1-38.272-35.233-64.56-63.406-68.343-21.9-39.978-43.575-33.246-11.9-111.5-69.449-128.424,54.923-50.448,5.488-36.291-16.369-32.694,74.107-101.034-12.963-52.433L348.8,726.867l-11.343-31.726L348.524,606.6l13.7-11.99,36.291-3.873,23.147-29.466,52.8-19.646L498.577,453l106.8,33.341,39.291,81.529-8.9,53.862,36.381,39.795-7.47,36.66,16.049,53.676L699.175,784l33.938,13.788,19.736,51.416,49.9,56.488,119.067,57.273,25.6,71.152,1.43,0.09,55.1-72.582,49.159-25.871,36.843,4.52,57.456,7.1,85.726-43.671,45.145,106.615,1.706,77.378,49.9,22.6,18.03-5.95,49.621,56.674,12.5,93.2,30.9,22.089,18.12,53.674,73.781,58.8-22.871,71.248,1.34,94.3,24.3,51.326,78.442,37.721,24.762,27.391-8.207,51.968,27.205,45.652-24.115,84.3,68.343,105.371,37.811,48.652,52.249,12.5,25.916-68.985,122.664-51.416,1.43,1.244,19,50.538-0.647,108.873,22.781,66.035,15.773,2.629,21.813,42.241L2109.267,2144l37.811-87.8,49.711-27.025,38.272-65.2,74.383-12.176,17.94,33.527,34.4,225.631-58.982,45.562-35.137,85.033-105.461,41.5,4.334,44.96-14.85,26.564,37.811,34.034-25.6,61.149,7.841,86,28.821,47.634-4.52,54.782-1.244,55.013-3.969,28.174-18.537,58.886-21.717,48.928-1.244,52.525,35.925,59.533,30.527,21.441,18.351,22.871,37.631,58.47-13.606,67.093-32.328,41.869-16.234,22.967-56.815,75.21-9.451,29.558,6.5,122.388-53.859,13.42-26.1,125.844-32.97-6.687-19.921-27.577-33.617-4.149,5.027,45.742-32.97-15.773-18.537-51.416-37.811-39.522-36.015-3.045-60.963,39.978-32.142,11.618-30.9-15.773-6.5-108.18-48.973-75.993-34.309-11.618-18.447-29.007,14.157-24.672-64.926-65.945-81.436-45.562-87.431,22.409-31.45-19.088-16.831,4.244,26.744,79.179-17.107,7.47-31.078,64.374-73.5-10.189-12.176-14.343Z" transform="translate(1.612 1.644)" fill="#06c" stroke="#000" stroke-width="4"/><path d="M2296.392,3365.172l5.367,72.132,22.13-2.647,7.963,16.886,22.1,51.322,41.31,29.906,31.233,19.836,8.187,33.246,53.861-33.267,19.05-16.821,34.068,6.679-10.5-23.594,4.537-12.255,19.822-10.416,3.34-20.824-24.193-25.52,11.339-30.865,47.051-23.5-10.372,36.095,32.445,43.856,69.5,2.049,98.207-77.333L2874,3389.324l25.4-24.77,39.521-29.04,17.456-42.688L2936.8,3270.1l-74.5,8.4-28.161,25.354-30.3,20-109.309,17.059-18.063-3.485-2.763-53.623-30.785,1.291-11.809,29.832-35.049-11.245-7.776-17.24,1.255,19.851-64.132,1.724-41.966-56.494-17.276,4.35-10.329-14.542-27.194,25.059,3.751,36.924-30.461,21.748-24.179,1.536Z" transform="translate(1.612 1.644)" fill="aqua" stroke="#000" stroke-width="4"/><path d="M3047.124,3416.87l-2.167,15.587-12.958,10.1,23.984,22.318-41.689,41.965-56.9-9.175-28.174-15.677-49.525,21.261-50.448-14.343-37.124,39.291-21.9,2.815-52.249,65.483,19.736,57.09L2794.2,3680.7l-51.506,7.38-2.539,45.562-37.811,5.854-18.459-77.471,19.088-35.644-19.184-30.527-19.646-24.211-12.08,12.176-17.293,29.1,2.353,33.065-29.373-44.594,2.95-35.739,51.231-70.966,32.6-14.388-10.1-2.815,98.363-77.473,91.3-10.791,25.5-24.853,39.522-29.1,17.478-42.7-19.646-22.781-74.563,8.483-28.174,25.41-30.341,20.011-109.43,17.107-18.12-3.507-2.815-53.674-30.8,1.244-11.9,29.879-35.137-11.253-7.746-17.293,5.674-73.229-21.717-29.649-77.288-208.063-19.831-33.527,32.694-14.157-13.971-123.491,1.981-130.224,42.241-34.771,14.388-33.848,68.9-15.4,20.428-47.453,17.754-4.8-24.948-25.41,10.977-86.277-15.953-7.931-54.045-91.49-0.09-33.848,87.431,3.507,39.8-38,36.843-3.411L2876,2302.82l-2.353-34.771,27.391-45.145,14.94-69.818,43.946-33.938,4.8-36.938,34.585-44.037,41.318-35.508,53.308-13.048,31.636-21.165-39.8-78.622-43.254-30.617,40.535-62.669-10.791-54.692,12.5-35.508,15.5-11.438,12.356-189.757-12.5-147.01-1.891-38.182,24.762-51.692,114.913,10.6,152.5-80.975,72.767,20.011,61.239-42.331,76.64-4.059,48.281-31.54,191.924,16.555,29.193-23.884,17.017-54.782,21.075-51.326,30.527-21.165,152.588,8.021,11.714,32.6-44.87,82.68,25.686,50.955-5.3,18.537-35.323,63.22,26.93,69.17,58.61,50.082,35.925,68.709,56.719,51.6,11.714,36.2-12.452,95.734L4176.69,1738.99l-150.421,78.622-1.616,76.455,23.518,92.5-63.13,117.637-159.878,106.384-76.64,4.61-81.346,46.024-4.059,88.354-46.761,78.993,10.374,91.856-184.179,85.219-20.7,27.994-39.8,34.675-8.81,116.9,43.068,59.719,43.485,202.991,43.485,100.435-68.523,20.242-18.216,32.97-76.179,49.9-18.03,32.97,10.1,35.925-13.606,12.868-96.376-50.448-74.287,55.385-7.38-14.157Z" transform="translate(1.612 1.644)" fill="#06c" stroke="#000" stroke-width="4"/><path d="M2428.136,3265.892l3.783,37.028-30.527,21.813-24.211,1.52-81.436,38.644,5.3,72.216,22.134-2.719,30.065,68.247,41.318,29.975,3.321,122.2-56.122,50.262-29.278,109.708-52.846,76.179-50.358,6.5,9.547-31.45-11.253-16.921,1.8-36.567-46.49-160.934-13.606-148.53-6.5-122.388,9.547-29.649,56.815-75.21,16.234-22.967,32.232-41.779,13.606-67.093-37.631-58.565-18.351-22.871-30.437-21.351-35.925-59.623,1.244-52.429,21.717-48.973,18.537-58.8,3.873-28.174,1.244-55.013L2200,2683.4l-28.731-47.634-7.841-86,25.5-61.149-37.721-34.034,14.85-26.564-4.424-44.96,105.551-41.5,35.137-85.033,58.886-45.562L2326.9,1985.325l-17.94-33.527-74.383,12.176-38.368,65.2-49.711,27.025-37.721,87.707-88.54,26.468-21.813-42.241-15.677-2.629-22.781-66.035,0.552-108.968-19-50.538-1.34-1.154-122.751,51.416-25.916,68.985-52.154-12.5-37.811-48.652L1633.2,1852.687l24.115-84.3-27.205-45.652,8.207-51.968-24.762-27.391-78.442-37.721-24.3-51.326-1.34-94.3,22.781-71.248-73.781-58.8-18.03-53.674-30.989-22.082-12.5-93.2-49.525-56.674-18.03,5.854-49.9-22.6-1.8-77.288L1232.643,903.7l-85.726,43.575-57.456-7.008-36.843-4.52-49.159,25.871-55.2,72.582-1.43-.09-25.6-71.152L802.258,905.687l-49.9-56.581-19.736-51.323L698.684,784l-18.447-32.142-16.049-53.676,7.47-36.66-36.477-39.795,8.99-53.862L604.88,486.331l-15.311-89.874L627.2,333.881l3.045-90.429,30.251-22.6,21.075-51.785L734.417,149.7,802.85,84.588l53.583,10.56L889.4,79.84,923.02,45.716l62.348-45.19,74.473,19.091,48.579,31.008,40.535,106.708,109.981,107.629,14.388,92.872L1323.5,411.6l71.152,25.5,15.863,34.954,15.125,152.822,28.45,50.541,48.005,30.8,18.12-6.825,58.886,46.944,147.15-37.538,75.486,57.366,89.182,36.015,91.951,70.507,71.985-21.627,66.817,36.108,38-6.319,25.871,72.027,35.413,12.868,72.953,85.219,68.709-22.505,43.575,83.238,50.448,54.782,84.482,32.328,33.848-15.5,188.052-.968,70.69,153.281,38.092-.09,67.375-36.015,35.553-.923,125.383,59.809,12.5,146.92-12.356,189.847-15.5,11.438-12.5,35.508,10.791,54.692-40.535,62.579,43.3,30.617,39.7,78.717-31.636,21.075-53.218,13.144-41.408,35.508-34.5,44.037-4.832,36.936-43.946,33.848-14.85,69.908-27.481,45.145,2.443,34.771L2739.263,2255l-36.938,3.411-39.7,37.906-87.431-3.507,0.09,33.938,53.955,91.49,16.049,7.931-10.977,86.187,24.948,25.5-17.754,4.706-20.428,47.543-68.985,15.4-14.388,33.848-42.241,34.771-1.891,130.224,13.971,123.491-32.694,14.157,19.736,33.431,77.378,208.159,21.627,29.649-5.674,73.229,1.244,19.921-64.234,1.706-41.965-56.584-17.293,4.334-10.47-14.478Z" transform="translate(1.612 1.644)" fill="#06c" stroke="#000" stroke-width="4"/><path d="M1983.093,3604.089l33.662,4.149,19.831,27.577,32.97,6.687,26.1-125.844,53.859-13.42,13.51,148.53L2209.51,3812.7l-1.706,36.567-12.452-12.587-70,6.136-70.414,6.592-57.918,70.324-60.457,130.224-47.358-25.776-28.174-66.542-46.575-58.61-89,22.229-93.657,1.706-2.86-17.107,11.438-14.85,70.966-12.452,53.308-134.468,34.771-6.226-25.134-26.564-50.955-14.343-11.618-32.328,26.93-88.63,30.9,15.677,32.232-11.528,60.963-39.978,36.015,3.045,37.811,39.522,18.537,51.326,32.97,15.863Z" transform="translate(1.612 1.644)" fill="#06c" stroke="#000" stroke-width="4"/><path d="M1920.244,4169.532l16.369-119.709-47.358-25.686-28.174-66.632-46.575-58.61-89,22.229-93.657,1.706-2.86-17.107,11.438-14.85,70.966-12.448,53.308-134.468,34.771-6.136-25.134-26.654-50.955-14.342-11.618-32.328,26.93-88.63-6.412-108.18L1683.22,3391.6l-34.214-11.528-18.447-29.1,14.067-24.577-64.926-65.945-81.436-45.562-87.431,22.409-31.36-19.088-16.831,4.244,26.744,79.083-17.2,7.56-30.988,64.374-73.5-10.189-12.176-14.343-386.2-95.042,40.074,79.545,15.5,85.309-23.057,49.435,73.415,60.868,56.584,5.393,40.349,80.147,94.58,15.311,104.017,48.373,35.829,38.83-33.848,44.5,12.772,54.782,33.662,66.542,62.759,40.259,7.931,54.507,48.467,73.5,70.51,29.1,75.025,9.823,56.122,49.986,51.788-29.744-5.764,88.079,31.174,35.644-29.649,44.87-19.921,34.309-53.218,55.475,6.5,30.9,32.508,15.125,38-59.719,74.383-45.742,64.746-8.021,57.09,36.015,15.773,112.425,81.526-41.273-9.637-98.453-50.448-11.8,7.656-58.8-23.884-21.717,32.88-21.075Z" transform="translate(1.612 1.644)" fill="#06c" stroke="#000" stroke-width="4"/><path d="M1692.305,4109.909l-51.878,30.251-66.311,108.09-17.293,31.726,7.194,34.585-69.17,21.627-56.212-12.958-56.212,5.764-70.6,24.487-18.722-7.194-1.43-18.722,17.293-7.1-25.916-31.771-73.5,14.388-11.528,1.43-53.308-2.86-51.878,47.543-31.726-8.669-18.722-1.43-57.642,67.741-31.726,105.185,60.5,37.445,2.815,18.722-43.254,105.1,76.364,40.349L1082.6,4726.6l12.958,51.878,70.6,15.863,1.43-17.293,50.448-18.632,31.726-67.831-12.958-31.726-48.973-24.487-2.815-36.015,51.878-95.042,56.212-50.448,72.03-24.487,175.741-4.334,36.015,66.311,76.364-74.935-33.155-15.863-5.764-30.251,53.308-56.212,20.2-34.585,28.821-44.684-30.251-34.585Zm-76.415,451.038-54.782,5.764-7.194,7.194,10.1,15.863,25.916,10.1,85.033,2.86,14.388,10.1,10.1-14.388-4.334-8.669Z" transform="translate(1.612 1.644)" fill="#06c" stroke="#000" stroke-width="4"/><path d="M1013.1,4086.486l31.54-67-29.1-21.537-5.854-102.512,68.112,27.3,18.216-29.1,27.481-20.7,22.089,11.9,14.94-7.931-15.953-20.7,49.249-10.7,40.349,17.478,43.3,1.154,20.338-23.794,21.351,42.792,62.669,40.259,8.021,54.6,48.467,73.415,70.51,29.193,75.025,9.733,56.026,49.986-65.945,108-17.293,31.45,7.931,34.957-70.094,21.165-55.289-12.369-56.4,5.578-71.152,23.884-18.03-6.226-1.8-18.908,17.2-7.931-26.654-31.36-73.043,13.971-10.977,1.52-53.308-1.891-52.249,47.172-32.047-9.085,4.8-36.752-29.558-66.035,45.742-82.129Z" transform="translate(1.612 1.644)" fill="#06c" stroke="#000" stroke-width="4"/><text transform="translate(3170.414 2363.814)" font-size="676.618" font-family="DejaVu Sans" font-weight="700" style="isolation:isolate">4</text><text transform="translate(2148.438 1835.207)" font-size="676.618" font-family="DejaVu Sans" font-weight="700" style="isolation:isolate">5</text><text transform="translate(1428.744 2871.276)" font-size="676.618" font-family="DejaVu Sans" font-weight="700" style="isolation:isolate">2</text><text transform="translate(1351.225 3804.96)" font-size="472.564" font-family="DejaVu Sans" font-weight="700" style="isolation:isolate">7</text><text transform="translate(1130.609 4213.932)" font-size="313.779" font-family="DejaVu Sans" font-weight="700" style="isolation:isolate">9</text><text transform="translate(1011.311 4675.677)" font-size="313.779" font-family="DejaVu Sans" font-weight="700" style="isolation:isolate">8</text><text transform="translate(1839.459 3899.112)" font-size="313.779" font-family="DejaVu Sans" font-weight="700" style="isolation:isolate">6</text><text transform="translate(2558.328 3560.042)" font-size="100.231" font-family="DejaVu Sans" font-weight="700" style="isolation:isolate">1</text><text transform="translate(2377.486 3521.454)" font-size="237.677" font-family="DejaVu Sans" font-weight="700" style="isolation:isolate">3</text></svg>