<svg xmlns="http://www.w3.org/2000/svg" width="4720.668" height="4442.011" viewBox="0 0 4720.668 4442.011"><title>Députés sortants des Alpes-de-Haute-Provence en 2017</title><path d="M4008.83,3710.032l24.152,38.1,56.917,19.123,8.77,76.534,13.379,7.825-73.092,16.553-39.118,96.335L4104,3990.54l33.448,32.539-2.874,30.274-69.24,30.689-148.3,38.172-19.575,22.3,1.172,5.481-27.174-12.244-14.247-56.691-117.576-3.931-18.445,31.972-87.039,65.461-25.7,34.92-14.625-.678,10.773-29.365-11.6-45.314-9.144-12.927-58.015-51.363-106.43,65.346-55.519-23.169-42.14,19.428-57.937-20.521-11.792,26.117-61.946,8.124-9.827,123.624-93.955,123.7-14.851-21.919-24-14.551-54.384,27.248-81.258-43.2-52.724-55.935-144.676-87.759-34.242-84.811-24.073-17.725-81.71,7.672-43.386,9.753-71.621,95.731-13.568,46.864-48.341,61.568-91.537,62.966-38.551,3.626-57.069-39.875-50.038,71.731-16.023,2.8,4.877,14.173-18.745,40.59-50.038,52.041-26.5,3.552-18.03,18.1-16.023,10.468-54.463,22.3,13.416,58.241-54.763,50.191-33.863-31.367-22.6-57.448-52.724-31.746-10.394-84.732-29.817-1.776-30.841-34.394-44.295,4.877-25.093-17.725-14.325-26.5,6.953-30.048-11.225-44.936-39.644-18.366-0.757-15.418-9.675-7.031-56.691,21.125-5.97,76.834-46.638,40.668-43.842,14.929-61.794-.794-21.467,22.3-19.349-74.19-36.018-49.4-162.175-43.123,6.8-9.6,77.895-75.136,52.834-132.584,6.953-29.67,83.261-105.405,25.624-54.347,59.865-122.9,26.117-69.466,8.5-88.437-47.395-54.347-30.2-65.383-4.5-39.118-35.224-103.177-44.521-44.221,37.72-44.825,45.162,39.644,20-54.274,52.834-26.874,4.12-91.763,14.966-26.343-27.021-71.731,0.678-3.479,12.092-28.572,54.2-28.65,60.317-5.9,16.4-26-2.948-30.652,19.5-23.926-29.291-36.322-111.606-54.2-35.792-84.884,75.058-18.219L1569.6,2674l21.771-19.691,12.849-42.14-10.547-27.552,13.379-41.988,46.071-55.745,58.467,0.6-4.5,16.553,109.415-89.309,115.385,45.692,22.376-39.04,30.122,2.874,55.519-23.926,96.9,40.212,25.245-37,9-96.716,13.868-23.774-4.572-28.5,58.693-39.344,89-54.46,57.711,47.621,9.522-44.749,74.038,9.07,16.253,25.171,72.64-64.44,48.188,33.448,73.66-8.844,73.66,13.3,47.921-37.037,24.415-38.249,29.67,7.446,2.228,0.946,84.884,35.374,30.2-6.5,49.586-37.794,98.905-9.372,34.846-24.415,89.609-117.954,108.584-83.034,28.346,11.942,23.7,39.116,40.438,22.223,118.033-14.853,40.894-158.205,125.4,66.82,32.765,71.242,25.7,17.649,70.79-31.974,44.142,17.2,124.833-9.827,77.138,18.973,25.019,38.249-11.151,62.1,55.519,24.869,17.725,42.216L4182.7,2088.3l-9.144,72.49,9.375,26.041-34.694,45.543,10.547,42.973-60.659,82.885,13.416,26.8-4.572,29.67-44.936,41.42,56.917,105.179,9.675,91.385,35.713,27.248,17.951,32.844,52.041,55.935,28.8,52.986,21.393,31.294-28.272,72.11-6.427,92.178,81.71,73.018,57.448,23.317,21.125,58.846,138.628,82.241-12.849,28.65,34.62,25.324,8.277,55.367,2.644,45.24,76.686,7.446,29.67,69.314,31.141,34.089,25.55,15.571,29.67-9.827,13.153,8.429,54.048,75.74,37.642,27.174,2.344,29.97-14.966,4.12-60.737,12.244-83.791,16.023-29.291-3.857-26.5-37.49-81.41-66.213-44.747-5.9-11.792-13.495-99.283,36.17-63.5,119.431-107.791,52.193-101.438-34.468Z" transform="translate(-241.353 -244.991)" fill="#ff8080" stroke="#000"/><path d="M669.119,2535.772l24.567-70.26-29.024-35-41.194-20.295-24.489-54.2-23.317-3.552-25.019,17.951-46.79-3.7-12.47,9.522-36.775,68.483,52.645,55.141,1.4,15.345-34.62,29.213-61.342-4.572v1.85l-29.444,71.542-99.814,41.725-11.151,27.667-28.346,9.144-2.081,190.673,14.4,43.123,46.564,0.074,88.211-28.876-5.518,203.069-74.795,135.984L290.043,3328l-16.59,69.466,15.04,55.293,54.384-2.722,49.4,31.068,72.792-16.023,50.643,119.278,74.49-.794-52.345,128.575-56.313,105.784-36.7,26.874L404.1,3887.169l-12.4,135.154,19.691,0.794,41.347-14.777,25.471-38.1,88.894,9.6,90.933-16.327,11.792,9.979,49.886,10.92,24.3,4.42,17.195,41.762,47.169,37.19,31.52,79.708,34.315,23.317,33.3,20.295,26.343-6.574,8.692,107.638,101.931,68.636,29.97,53.743,77.138-116.709,6.727-9.6,77.932-75.136,52.834-132.584,6.879-29.67,83.261-105.405,25.624-54.347,59.944-122.9,26.039-69.466,8.581-88.437-47.395-54.347-30.274-65.383-4.5-39.118-35.151-103.177-44.6-44.221,37.794-44.9,45.088,39.723,20.069-54.274,52.76-26.874,4.194-91.763,14.929-26.343-27.021-71.731,0.757-3.479,12.018-28.572,54.274-28.65,60.317-5.9,16.4-26-2.948-30.652,19.428-23.926-29.291-36.322-111.606-54.2-35.792-84.884,75.058-18.219,25.471-13.305,21.771-19.691,12.849-42.14-10.468-27.552,13.379-41.988,46.071-55.745,58.467,0.6-4.5,16.553,109.415-89.309,115.311,45.692,22.449-39.04,30.122,2.874,55.445-23.926,96.9,40.212,25.245-37,9-96.716,13.868-23.774-4.572-28.5,58.693-39.344,89.083-54.537,57.711,47.7,9.449-44.749,74.116,9.07,16.253,25.171,72.64-64.44,48.11,33.448,73.66-8.844,73.738,13.3,47.921-37.037,24.415-38.249,29.67,7.446,2.155,0.946,84.884,35.374,30.2-6.5,49.66-37.794,98.905-9.372,34.846-24.415,89.609-117.954,108.506-83.034,28.346,11.942,23.774,39.116,40.364,22.223,118.033-14.853,40.894-158.205,125.474,66.82,32.692,71.242,25.776,17.575,70.79-31.9,44.069,17.2,124.912-9.827,77.138,18.973,24.945,38.249-11.151,62.1,55.519,24.869,17.8,42.216,29.743-3.25,18.971-24.15,43.312-16.1,19.691-72.64,87.533,27.326-12.47-73.66,30.763-51.21,2.57-74.19,24.719-18.443,17.347-42.442,43.275-15.873,56.087-53.365,43.916,8.655,27.021-12.547,27.552-28.043,51.173-37.037-1.246-15.873,28.572-36.244L4730.489,1333l56.313-27.589,47.395-1.55,43.764-19.123,2.874-14.475-18.445-26-63.8-47.243-10.242-12.244-29.444-73.888-79.556-51.665-12.775-44.447-14.325-7.029-31.141-52.724L4601.421,829.7l47.395-40.892,29.67-56.389L4770.553,708l33.374-52.119,39.723-26,25.85-123.777,49.471-78.838,42.292-15.192-43.049-67.312-17.5-76.684L4873.693,280.1,4794.4,245.554,4769.833,260.9l-19.654,41.725-61.72,71.468-75.588,15.421-20.521,58.846L4569.108,469.6l-77.438,9.525-38.588,27.326-29.1-10.129-18.823,43.123-44.521,7.1-35.45,31.748-0.226,46.486-42.823,20.371-55.519,76.684L4119.057,787.6l-78.61-8.277,7.746,44.295L4001.555,964.89l-47.773,26.041-38.4,40.364-30.122,173.928-93.807-4.572-45.692,10.7-10.468-2-29.743-9.222-60.622,9.222-71.884-26.493-42.823,17.121-29.97-8.579-43.386,2.494-55.519-20.749-43.538,7.446-29.213-53.9-44.521-12.32-21.315-22.752-72.566,13.416-21.125-21.543-3.1-29.517-30.689-61.568-39.875-20.295-51.21-52.76-27.174-52.724-14.851-2.57-31.294,32.465-41.194,18.14-7.746,6.274,44.825,44.749-19.654,90.857-8.351,40.892-26.191,8.655-7.6,24.491-44.6-13.416L2811.5,1079.6l-14.625-27.665-68.783,37.114-31.824,31.6L2604.2,1129.3l-2.417,3.968,24.152,68.068,19.654,20.6,51.741,139.158-57.222,110.056-56.013,27.174-51.967-97.583-35.944-52.119-48.11-40.968-35.224-69.542-37.19,23.167-19.654-34.544-2-89.307L2277.4,1109.6l-25.776-5.179-27.1-28.346-18.1.226-23.621,15.421-35.3-23.621-27.893-.226-18.671,36.546,16.253,22.865-24.641,86.358-9.753,11.225-48.036-31.141-76.345,56.767-24.867,19.049-17.5,60.546-87.265,33.6-46.712,20.219-19.575,17.121-57.711,37.568-39.118,100.457-12.549,57.372-36.7,46.223-28.12,50.341-13.947,4.648-29.67,1.1,0.226,45.769-21.467,39.042,35.072,28.572,41.725-14.627,13.379,7.822-5.1,49.171,2.948,14.021,4.12,28.572-39.418,21.128,8.692,29.517-7.142,59.185,29.9,6.879,4.724,14.7-13.227,27.552,3.857,40.968-30.763-4.95L1469.027,1995l-16.253-26.8,1.324-62.172-84.963-43.464-41.5,14.021-0.757,29.743-41.42,64.818,11.944,59.413,14.325,17.5,90.292,62.361,8.051,46.071,24.415,19.843,10.468,29.139,24.152,54.991,102.536,32.124-7.1,59-30.841,3.326-132.505-19.351-90.933-23.545-63.8-46.3-60.963-4.95-50.264,28.193-69.766-19.049-49.886,36.168-77.364,14.551L883.68,2350,865.8,2375.474l-52.571-23.169L804.161,2363l-69.466-2.344L709.976,2446l6.274,13.794,118.485,17.725-13.227,77.932L714.1,2544.15Z" transform="translate(-241.353 -244.991)" fill="#ffeb00" stroke="#000"/><text transform="translate(2561.459 2985.306)" font-size="554.547" font-family="DejaVu Sans" font-weight="700">1</text><text transform="translate(2561.459 1584.252)" font-size="554.547" font-family="DejaVu Sans" font-weight="700">2</text></svg>