<svg xmlns="http://www.w3.org/2000/svg" width="4548.653" height="4403.507" viewBox="0 0 4548.653 4403.507"><title>Députés sortants du Vaucluse en 2017</title><path d="M1388.836,3536.824l-88.728-79.217L1191.2,3405.084l-179.82-19.888-153.414-30.56-141.829-25.151,42.723-42.145,114.168-38.38,60.343-80.137,91.816-70.72-17.237-75.5,11.491-57.5,114.745,11.874,18.1-55.175,25.54,36.977,54.02-3.088,80.62,44.025-1.691,166.3,139.754-6.423,22.351,11.585-16.606,205.259,46.872,29.782-15.062,30.266-36.783,38.28,15.545,67.243Z" transform="translate(-346.627 -434.577)" fill="#ff8080" stroke="#000"/><path d="M2884.948,3729.048l-11.68,52.134-46.2,28-35.1,1.108-85.587-83.9-38.763-9.894-107.75-22.735-45.086-12.069-44.314-12.263-10.477-196.667,11.974-136.714-5.645-58.94-25.634-51.22,1.786-44.12-117.933-34.326-37.508-2.752-27.419-25.54-75.257.483-41.273,31.957-45.717-46.2-28-6.034-25.923,50.254-75.5,60.537-77.143-6.9-73.183-5.457-38.38-85.157-89.648-33.018-71.109-24.815-32.534-13.66-38.763,31.957-51.556,7.82-61.745,43.831,16.895,34.614,22.351,11.585L1456.621,3376.2l46.777,29.688-15.015,30.366-36.883,38.28,15.64,67.243,34.9,13.565,160.656,83.272,89.547,108.328L1777.4,3780.2l123.437,92.588,31.279,47.985L1962,3998.356l22.64,95.34,174.51,100.119,135.841,75.888,61.551,33.842,194.787,98.239,205.648-67.968,37.608,1.88,76.082,16.512,91.48,23.171,118.705,20.371,43.542,41.562,72.894,59.376,110.113,54.4,72.122,39.682,100.991,52.717,133.72,72.7,35.192-167.462,46.489-28.674-48.663-83.272-38.186,5.457-29.158-24.426-37.072-1.208-21.191-5.457,30.654-48.468,82.694-49.482,92.3-8.209,9.222-102.871-18.1-77.768,12.746-78.734-39.2-91.48-33.842,13.471-43.737-32.923-97.756-121.551-58.268,13.371-12.646-51.362-77.868,8.3-53.825-20.949-52.717,15.928-6.034,18.78-59.135-121.551-34.614-10.089-70.337,26.889-29.158-23.654,33.742-18.78-31.863-85.057-47.6,61.745,2.994,57.879-39.152,3.671Z" transform="translate(-346.627 -434.577)" fill="#06c" stroke="#000"/><path d="M1105.709,2704l-63.719-44.509-35.528-47.5-56.966,11.2,48.757,46.489,24.137,32.729,27.325,97.226,59.859,8.88,30.171,24.909,3.571,60.92,9.122,27.514,25.439,36.977,54.02-3.088,80.62,44.025-1.591,166.3,139.654-6.423-16.895-34.514,61.645-43.831,51.651-7.82,38.669-32.051,32.534,13.66,71.2,24.909,89.648,33.018,38.28,85.057,73.277,5.551,77.143,6.9,75.5-60.631,25.923-50.254,27.9,6.129,45.811,46.1,41.273-31.863,75.257-.577,27.419,25.634,37.414,2.752,118.027,34.326,17.62-7.337,35.817-15.74,95.146,21.291,3.088-38.38L2637.037,3077l14.532-55.711L2703.8,2994.6l-40.36-40.166L2566.8,2931.4l-32.151-49.288-32.534,17.237-52.134-26.017-81.533-103.6-38.38,1.014,28.291-50.832,92.494-23.271,38.474,5.262,61.309-13.565L2522.25,2638l-47.166-33.212-34.326-69.753,32.634-90.319-33.454-47.166-32.151,13.854-88.823-1.786-51.268,16.512-62.9,17.908-82.694,50.348,20.277,55.175-41.851,2.752-57.785,19.211-43.642,2.994-33.842,9.605-76.949,60.731-39.052-88.728-65.41,14.82-31.863-66.283-51.556,20.466-149.843,63.625-15.74-95.582-22.351-29.305-73.713-158.193-161.428-56.577-1.591-19.794-19.211-4.343-107.845,83.466-18.68,34.709-1.3,98.045,103.69,124.84-10.189,125.417Z" transform="translate(-346.627 -434.577)" fill="silver" stroke="#000"/><path d="M1665.445,435.118l-45.28,58.846-30.171-1.5-27.131,28.674L1452.75,561.884,1418.041,634.3l7.531,40.743-19.6,78.445-57.349,37.7-1.5,18.1-95.051,113.154,39.2-1.5,66.377,42.24-54.308,72.411,34.709,66.377-4.537,55.805,132.754-27.131,238.377,66.377,28.674,25.634,21.143-114.651,21.191-31.668,66.377-42.24-18.1-46.777,51.22-60.343,15.062-96.548,114.651-21.143,70.914-66.377,1.5-39.2-95.051,6.034-60.343-49.771L1863.032,649.4,1841.888,575.5l18.1-9.075,4.537-51.268-52.812,24.137-70.914-64.88-37.7-2.943L1685,438.205ZM353.025,1009.774L363.6,1210.4l-2.994,21.194-13.471,119.188,10.572,64.88,105.623,137.291-18.1,95.051,2.994,21.143,33.212,18.1,73.908-25.634,36.206,15.062,7.531,37.7-27.131,52.812,18.1,34.712,52.812,21.191-4.537,57.349-15.062,10.572,4.537,57.349-1.5,19.6,6.034,58.846-1.4,66.377-54.308,185.565L624.9,2355.7l12.069,52.906,15.015,34.709,18.1,6.034,84.48-49.771,39.2-4.537,9.075,54.308,12.069,19.6,98.045,60.343,1.5,54.308,34.709,39.152,57.349-10.572,36.206,48.274,63.336,43.737,116.148-13.565,10.572-125.223-104.079-123.679,1.5-98.045,18.1-34.709,108.617-84.48,19.6,4.537,1.5,19.6,161.428,57.4,75.4-108.617,67.874-37.7,7.531-114.651,61.745,40.743,73.908,96.548,28.674,140.285,18.1-36.206,78.445-1.5,28.769-48.274,18.1-7.531,19.505,1.5,42.24,39.2,116.148,19.505-30.171-67.779,6.034-54.308,27.131-25.634,55.805-1.5,30.171,15.062,93.555-60.343h72.411l27.131,27.083,13.565-18.1,4.537-37.7,51.268-61.745,67.874-36.206,315.184-60.343,117.739-1.5,19.6-2.994,101.086,60.343,76.949,21.143h1.5l116.148-2.994,63.289,31.668,52.812-2.946,13.565-137.385-21.143-75.357,7.531-37.7,6.034-12.069-33.212-22.64-85.976-48.274-81.486,52.812-72.411-25.634h-60.343v19.6l-93.6-82.983-99.494-58.846-31.668-6.034-33.259,1.4L2763.45,1678.6l-120.685-7.531-135.7-36.206-31.668-25.634-72.411-57.349,7.531-16.7,39.152-42.24-4.537-114.651-52.812-19.5,10.572-73.908,63.336-43.737,18.1-52.812,12.069-54.308-16.606-33.262-10.572-4.537-54.308,27.131-15.062,54.308-162.925,114.651-95.051-19.6h-40.743l-66.377-138.788-126.719,58.846-51.268,33.262-60.343,34.709-52.812,2.943-72.411,36.206-119.188,58.943-40.743,39.149-146.319,21.194,16.606-33.262-85.976,15.062-95.051,90.514-131.257,99.542L1021,1568.394l-4.537-54.308,1.4-92.011-36.206-64.88,2.994-48.274v-149.36l-36.206-7.531-60.343-70.914H850.4L814.2,1037.379l-170.456-9.125-33.212,15.062-1.5,19.6h-135.7Z" transform="translate(-346.627 -434.577)" fill="#404040" stroke="#000"/><path d="M3161.51,3666.148l-70.337,26.889-29.2-23.654,33.842-18.78-31.957-85.057-47.5,61.839,2.946,57.879-39.052,3.571L2885.1,3729l-11.78,52.04-46.2,28.1-35.1,1.014-85.587-83.8-38.763-9.894-107.75-22.835-45.086-11.974-44.314-12.357-10.477-196.667,11.974-136.714-5.645-58.846-25.54-51.268,1.691-44.025,17.62-7.337,35.817-15.74,95.146,21.291,3.088-38.38,43.106-64.974,14.532-55.711,52.234-26.695-40.36-40.166-96.642-23.029-32.151-49.288-32.534,17.237-52.134-26.017-81.486-103.6-38.474,1.014,28.291-50.832,92.588-23.271,38.474,5.262,61.209-13.565-28.386-50.348-47.066-33.212-34.42-69.753,32.729-90.319-33.548-47.166-32.151,13.854-88.823-1.786-51.22,16.512-63,17.908-82.694,50.348,20.277,55.175-41.851,2.752-57.785,19.211-43.642,2.994-33.842,9.605-76.949,60.731-39.052-88.728-65.41,14.82-31.863-66.283-51.462,20.466L1550.8,2588.38l-15.74-95.582-22.351-29.305L1439,2305.3l75.982-108.422,67.343-37.608,8.014-115.04,61.309,41.273,73.713,95.582,29.158,140.379,17.814-35.339,78.54-2.269,29.2-47.308,18.392-7.337,19.888,0.577,40.837,40.166,116.531,19.405-30.56-67.679,7.437-54.7,25.923-25.728,57.06-1.691,29.494,15.64,93.7-61.02,72.217,0.483L2357.4,2121.8l14.915-19.069,3.377-37.8,51.22-60.92,68.84-36.4,314.264-61.114,118.511-.772,19.405-3.766,101.18,61.356,76.271,20.949,2.074,0.483,115.617-3.377,64.4,31.038,52.428-2.994,56.188,16.995,77.479-13.277,48.08,31.474,33.648-17.714,10.766,76.854,37.7,11.78,8.014,72.317,21.291,27.808,180.833,20.083-2.557,243.545,18.392,55.175,59.376,0.094,112.671-36.977-7,259.473L3919.2,2930.735l-26.311,117.739-21.291,88.634,19.211,70.72,69.465-3.477,63.189,39.682,92.877-20.466,64.686,152.259,95.146-1.014L4209.4,3539.14l-72.022,135.022-46.872,34.42-51.945,54.02-15.928,172.63,25.151,1.108,52.906-18.875,32.534-48.663,113.543,12.263,116.053-20.949,15.062,12.746,63.819,14.048,30.943,5.645,21.963,53.342,60.248,47.5,40.26,101.81,43.931,29.688,42.434,25.923,33.648-8.4,11.1,137.486,130.2,87.762,38.28,68.551-15.062,27.225-64.686,45.717L4708.9,4656.255,4589.083,4643.8l-39.877-3.766-65.41,45.717-64.591,76.271-72.022,33.212-69.417,42.334-136.714-18.68-97.656,12.646-79.312,2.946-174.027-47.6-175.671-70.72,35.192-167.462,46.583-28.58-48.757-83.372-38.085,5.457-29.158-24.426-37.172-1.208-21.143-5.357,30.56-48.563,82.788-49.382,92.205-8.3,9.317-102.777-18.2-77.868,12.746-78.734-39.152-91.48-33.937,13.471-43.737-32.829L3516.683,3813.1l-58.268,13.471-12.646-51.362-77.868,8.209-53.825-20.949-52.717,15.928-6.034,18.875-59.135-121.651Z" transform="translate(-346.627 -434.577)" fill="#06c" stroke="#000"/><text transform="translate(1229.801 1562.61)" font-size="708.317" font-family="DejaVu Sans" font-weight="700">4</text><text transform="translate(1387.501 2677.374)" font-size="606.048" font-family="DejaVu Sans" font-weight="700">3</text><text transform="translate(673.964 2914.821)" font-size="417.574" font-family="DejaVu Sans" font-weight="700">1</text><text transform="translate(1618.397 3399.809)" font-size="708.317" font-family="DejaVu Sans" font-weight="700">2</text><text transform="translate(2786.786 2703.794)" font-size="708.317" font-family="DejaVu Sans" font-weight="700">5</text></svg>