<svg xmlns="http://www.w3.org/2000/svg" width="4597.681" height="3668.512" viewBox="0 0 4597.681 3668.512"><title>Députés sortants des Hautes-Alpes en 2017</title><path d="M901.213,2866.177l-35.1,6.133-49.2-40.845,25.61-90.986,1.86-6.557,18.661-13.506,12.624-47.27,21.859-10.374,3.262-32.428,26.459-55.492,25.152-2.74,9.362-36.833-18.335-19.051-8.22-38.985,5.089-65.507,27.275-16.116,21.465,16.246,67.106,4.144L1172.6,2454.57l65.573-42.8,12.887-36.833,48.118,24.4,54.024,3.751,28.872-83.908,34.025-19.8,46.259-44.172-12.5-37.973-35.494-15.724-31.026-6.883,27.275-28.284,20.975-64.854,29.131-46-6.3-67.4,38.692,12.984L1512.436,2020l103.939,16.572,21.27-32.362,25.152-9.428,48.186,20.258,50.273-41.53,37.223,14.908,1.338,98.13,38.756,74.74,72.749,50.4-42.376,66.714,36.016,84.559,31.938-.685,33.209,19.573,31.026-19.378,25.216,3.327,37.354,67.725-6.36,51.284,32.165,23.129,76.827-10.179,21.465-15.627-2.282,41.106,15.5,22.118,25.543,9.82,39.767-8.809,39.31,9.689,15.5,5.611,45.737-7.144,33.276,21.857,14.388,37.386-10.31,8.417,61.364,27.012,173.359-31.612,36.116-18.922,4.958,25.805-46.848,106.157,1.665,26.327-6.491,39.18,30.7,24.728-1.991,13.179-55.948,87.92-46.653-.816-12.624,45.542-49.946,2.35-22.249-11.841-18.171,15.366-30.405,70.662-21.6,10.635-19.378,9.036-13.245-.131-67.528,61.168-22.249-4.47-23.456-24.467-15.563.2-20.453,13.311-30.405-20.389-24.141-.2-16.116,31.482,14.093,19.8-21.337,74.543-8.351,9.689-41.464-26.881-65.931,49-21.4,16.443-15.169,52.2-75.326,29.067-40.321,17.453-16.833,14.778-49.815,32.362-33.766,86.777-10.832,49.522-31.743,39.9-24.272,43.453-12.039,4.012-25.543.946,0.131,39.507L1648.54,3705.6l30.274,24.728,36.016-12.626,11.549,6.688-4.468,42.444,2.608,12.168,3.492,24.663L1694.05,3821.9l7.471,25.479-6.133,51.087,25.738,5.938,4.142,12.69-11.485,23.782,3.329,35.3-26.554-4.209-89.029-83.776-14.03-23.129,1.143-53.666-73.4-37.581-35.753,12.1-0.685,25.74-35.753,55.884,10.374,51.348,12.365,15.1,77.938,53.829,6.949,39.7,21.074,17.192,8.972,25.152,20.911,47.4,88.507,27.795-6.133,50.924-26.622,2.808-114.376-16.638-78.492-20.324-55.1-39.963-52.555-4.273-43.455,24.272-60.221-16.443-43.061,31.219-66.716,12.56-47.075,25.415-15.5,21.923-45.315-19.932,25.479-8.741,1.923-13.506-25.479-62.767,12.17-66.911-23.52-57.971,4.468-39.441,34.419-39.507-30.6-38.039-79.961,34.091-3.262-26.393-36.048-37.973,1.075-26.132,20-12.626-17.781-27.86-23.52-6.752-25.674-26.2-21.465,12.69,13.572-37.452L908.4,3668.34l2.871-13.05-20.652-15.561L868.3,3650.69l-76.469.816-3.492.587-43.26-5.611-25.12-4.209-36.375,15.432-25.415-7.079-8.482-37.452-44.172-27.729-49.13,19.249-28.677,27.665-39.9-53.893-26.948-1.207-16.833-61.624-52.328-1.989-24.925-5.35-10.016-24.075,31.285-23-2.545-40.387-24.6-77.612L320.81,3292.3l56.015-34.091,94.672,49,24.336-7.471,12.624-23.717,20.975,2.937,11.712-31.938-6.491-9.233-74.8-29.425-12.982-22.054-10.079-64.235,18.335-19.183-17.909-49-4.014-9.3-2.935-37.386L466.28,3000l11.354,22.379,22.739,11.778,77.349-1.077,107.3,45.118,29.688,21.728,11.776-3.686,12.234-5.155,95.783,43.063,39.114-35.494,23.782-89.975,19.051-16.833,50.078,10.766,36.765-10.016-50.4-70.662Z" transform="translate(-320.068 -548.651)" fill="#ff8080" stroke="#000"/><path d="M4383.445,1642.319l-51.479-9.95-30.827-26.49-38.756-12.919-89.977-61.5-22.118-48.674-40.257-2.871-29.2-46.195-64.5-16.051-2.023-67.791,20.975-48.055L4010.755,1291l38.039-71.935,4.209-40.192-49.393-77.219-23.782-11.907-1.4-13.9,35.952-19.444-4.663-27.339-14.778-38.919-10.569-8.906-38.561-15.627-138.258-.2-9.625-10.016-17.387-37.778,6.165-40.584-18.108-36.9,2.023-55.362-5.285-12.887-36.506-19.378-8.614-40.257-47.86-67.465,8.287-26.457-45.606-45.673-65.442,6.883-37.159-15.366-35.036,36.44-15.5,36.309-64.171,22.054-26-6.133-42.7-33.308-79.567,72.881,19.509,79.569-4.663,54.09-94.182,15.79-50.6-41.659-40.257,7.015-39.377-11.907-25.674,8.841-88.766-32.1,26.948-47.6-26.391-77.349-85.572-82.309-3.751,13.05-43.977,30.21L2747,620.987,2701.4,596.193l-45.247-46.846L2569.309,628.1l38.919,144.781-64.43,17.976-29.2,90.594-2.413,54.741L2496.2,957.4l0.653,41.171,31.154,26.49,115.91,37.157,118.39-29.425,53.666-.587,12.429,24.467-17.909,36.9-0.653,27.6,33.894,58.1-12.039,52,17.192,20.911,77.938,24.207-11.158,67.66,10.505,66.584-9.1,39.963,10.764,38.3L2909.6,1509.61l-4.209,26.946,13.572,79.469-52.818,25.284-46.848-26.49-41.791-69.063-27.144-4.731-76.21,19.183-50.532,64.659-54.809,2.152-90.725-27.339-21.4,17.257L2404,1625.486l-32.623-23.064-76.142-16.572-47.987,66.453-43.909,28.545-113.17,87.691-72.881-87.169-38.856,11.027L1943,1750.76l-67.238,6.883-82.243,55,31.875,31.677,46.585,21.27,6.885,38.3-75.2,38.561-5.675,45.673,1.338,98.13,38.756,74.74,72.749,50.4-42.376,66.65,36.016,84.559,31.938-.653,33.209,19.573,31.026-19.378,25.152,3.327,37.386,67.66-6.427,51.348,32.233,23.129,76.8-10.179,21.465-15.627-2.218,41.106,15.5,22.054,25.543,9.884,39.767-8.841,39.31,9.689,15.5,5.677,45.737-7.21,33.209,21.923,14.452,37.386-10.374,8.417,61.364,27.012,173.426-31.612,36.116-18.922,4.958,25.805-46.848,106.157,1.665,26.261-6.559,39.246,30.763,24.663-1.991,13.245-56.015,87.92-46.585-.816-12.624,45.51-49.946,2.35-22.249-11.778L2450.97,2972.3l-30.405,70.662-21.6,10.635-19.378,8.972-13.245-.066-67.6,61.168,66.126,23.946,1.8,77.154,16.965,29.818,32.1-20,30.405,60.028,41.528,35.363,30.959,44.923,44.857,84.232,48.413-23.39,49.393-95.064-44.662-120.119-17-17.715-20.78-58.819,2.087-3.393,79.4-7.471,27.47-27.339,59.44-31.97,12.56,23.814L2802,3130.1l38.5,11.581,6.559-21.14,22.671-7.471,7.144-35.3,17-78.36-38.756-38.69,6.754-5.416,35.558-15.627,26.948-28.024,12.887,2.152,23.456,45.542,44.2,45.542,34.419,17.453,26.49,53.208,2.608,25.479,18.3,18.53,62.57-11.549,18.466,19.639,38.366,10.635,25.216,46.522,37.581-6.491,47.923,17.976,37.517-2.218,25.869,7.405,36.964-14.713,62.049,22.8,52.328-7.895,25.674,7.895,8.972,1.728,39.441-9.167,80.973,3.946,26-150.2,33.209-34.841,41.237-22.444,40.257-121.945-6.686-38.3,67.791,7.144,92.912-56.764,47.86-66.126,37.028-17.584,0.2-40.192,30.536-27.339,38.5-6.167,16.18-37.223,25.12,8.809,33.308-23.587,66.843-8.287,20.063-18.3,17.713-50.795,65.246-13.375,53.276-61.624,17-36.048,21.206-13.245,68.444,29.883,23.261-10.44,25.61-29.362,1.991-38.919,13.635-22.478,25.869-1.925,38.039-37.908,25.415-7.5,25.347,10.308,67.17-13.767,86.289,41.53,13.7,1.4,26.686-4.665,4.341-13.114-4.468-27.273-26.686-78.36-61.5-29.362-32.818-44.172-23.2-78.687,2.808-68.183-33.276-60.418-33.372-23.522,55.167-94.933,4.4-27.142-3.883-13.245-24.6-11.778-20.127-50.729-91.637-27.958-95.715-53.7-13.767-.131-52.686,61.985Z" transform="translate(-320.068 -548.651)" fill="#ffd1dc" stroke="#000"/><text transform="translate(2916.615 1704.73)" font-size="478.675" font-family="DejaVu Sans" font-weight="700">2</text><text transform="translate(1051.782 2462.63)" font-size="478.675" font-family="DejaVu Sans" font-weight="700">1</text></svg>