<svg xmlns="http://www.w3.org/2000/svg" width="748.933" height="939.29" viewBox="0 0 748.933 939.29"><title>2T Législatives 2017 Yvelines</title><path d="M608.513,509.884l-14.121-15.709-3.637-2.833-23.386,19.787-13.7-8.882-2.243-8.623,12.831-25.272-26.731-20.163,34.212,3.54,19.21-2.516,3.345,5.537,15.956,6.982L620,418.327l8.344-9.764,2.509,3.689,8.5-.493,11.573-6.367,1.277,9.667,16.312,10.2,4.85-.11,4.182-13.875,7.708-5.861,2.86,10.315-.681,3.728,10.1,8.837-2.846,2.477,5.206,9.057-3.417,6.6-1.7,2.574-13.894-.026-13.576-5.537-3.294,7.793,4.4,2.211-1.29,3.611-4.227,1.459-8.6-1.038-5.862-2.4-7.624,18.568,3.242,1.284-3.825,35.275-12.7,5.168-9.258-1.433Z" transform="translate(-12.273 -30.211)" fill="#ffeb00" stroke="#000"/><path d="M506.135,644.341,490.8,656.011l-15.158-10.97-4.837-8.869,9.953-22.886,2.58-3.157,5.154-10.665-3.4-8,2.114-12.7-4.168-2.58-.053-9.777-32.643-6.6,3.053-18.769,9.42,2.509L478.1,531.7l14.814,11.644,13.46-1.537,1.569,13.706,7.637,6.373,16.448-11.7-.888-23.878,3.786-3.106,18.731-20.941,13.7,8.882,23.386-19.787,3.637,2.834L608.5,509.9l9.725,4.058,9.245,1.433,12.714-5.167,3.813-35.276-3.229-1.284,7.611-18.568,5.861,2.4,8.61,1.037,4.214-1.458,1.29-3.612-4.4-2.21,3.293-7.793,13.576,5.536,13.894.026,1.7-2.573,3.417-6.6-5.206-9.057,2.859-2.476,14.815-1.79,8.823,20.65-2.872,3.786,18.88-1.712,6.243,7.067.849,9.466,13.589,3.753,2.328,4.182-.078,7.981.609,4.876-4.117,2.645-14.574.946-6.646-6.308-9.673-.609-2.911,3.669,4.649,12.915-2.839,13.777-13.674-4.876-12.928,7.327-9.99-.221-11.878,8.792-.065,5.031-3.747,8.7-16.526-6.146L643.2,537.139l-4.039,2.866,9.621,17.045-2.671,9.549,2.535,4.837-12.6,20.137.635,9.427-8.169-5.822-6.95,18.276-11.813-5.05-3.1,2.956-10.406.162-9.42.007-3.138,8.843-4.714.681-3.838,2.256-4.545,21.667-1.751,8.863L555.6,651.025l-1.544,8.7L536.2,653.217l-5.011,2.373-5.712-7.553Z" transform="translate(-12.273 -30.211)" fill="#f90" stroke="#000"/><path d="M657.735,376.619l-8.507-2.5-.266,12.96-7.65-2.418-9.55-5-11.184-10.121-9.777-2.191,9.472-24.4-3.215-3.281-13.751-7.151-4.143-1.932-11.411,7.5-9.219-4.292-16.247-7.209L541.32,313.751l-15.813-12.967-9.855,10.03L498.53,307.54l-3.682,20.416,7.507,17.167,11.476,8.63-.61,4.908-7.371,12.681,8.876,15.91-1.77,8.94,1.239-.064-3.067,19.054L529.9,447.359l7.6.83,1.964-18.705,3.786-2.865,23.386,3.034,9.589-20.851,12.4-.816,4.759-5.848L599.8,404.1l10.828,9.3,9.342,4.92,8.332-9.763,2.508,3.689,8.507-.493,11.573-6.367,1.263,9.667,16.312,10.2,4.85-.111,4.188-13.874,7.709-5.861L682.7,393.171l3.987-14.218,9.42-1.543L687.06,361.7l3.2-8.61-3.229-9.413-17.667-.163-7.294-4.966,7.054,17.5-8.888,16.9Z" transform="translate(-12.273 -30.211)" fill="#ffeb00" stroke="#000"/><path d="M681.84,325.447l-8.993-2.853-5.938,12.681L656.2,314.665l-7.6,4.869-3.041-2.866-5.75,5.641-3.494,7.857-12.688,2.088-6.575,7.43,3.216,3.28-9.473,24.4,9.79,2.192,11.171,10.12,9.55,5,7.664,2.418.265-12.96,8.5,2.5,2.561-3.657,8.876-16.9-7.054-17.5,7.294,4.966,17.667.162,7.6-14.2,10.588-22.167,4.726-4.746,25.227-14.017-1.343-15.008,5.206-6.957-5.459-16.811-15.385-1.88-14.348,14.535-6.775,9.2.493,17.907-18,5.115L671.1,284.245l-7.424,5.8,9.622,2.541,9.446,17.907Z" transform="translate(-12.273 -30.211)" fill="#ffeb00" stroke="#000"/><path d="M665.469,238.194l-4.862,1.485-.519,14.808-11.41,16.506-5.965,19.424,8.7,1.55,6.75,4.571-6.886,5.653,4.915,12.467,10.71,20.611,5.952-12.681,8.979,2.852.888-14.963-9.446-17.907-9.621-2.542,7.423-5.8,8.506,10.425,18-5.115-.5-17.907,6.788-9.2,14.347-14.536,15.385,1.88,6.879-7.89-.227-13.258-31.366-5.193,4.759-9.453.052-5.465L708.662,208l-24.39-2.036L671.811,219.7Z" transform="translate(-12.273 -30.211)" fill="#ffeb00" stroke="#000"/><path d="M588.2,233.183l-10.419,17.492-13.589,6.768-13.245-6.879,8.143,15.554-7.955,4.9-10.069-11.248-15.093-.817L522.266,234.8l-8.4,1.225-.252-2.094,9.42-18.1,16.156-12.487,6.1,19.08,1,18.5,4.558-.882,19.08-25.012,7.456.155-.674-3.669,9.829-.551,3.15,3.844,5.141-14.257,19.347-23.119,14.749-4.707,36.1-1.5,24.164,4.312,13.141,6.755,8.306,12.021,3,14.217-5.024-.512-24.4-2.035-12.461,13.738-6.334,18.477-4.863,1.485-.518,14.808-11.411,16.506-5.965,19.424,8.7,1.55,6.749,4.571-6.885,5.653,4.915,12.467-7.586,4.869-3.041-2.865-5.763,5.64-3.5,7.858-12.674,2.088-6.587,7.43-13.751-7.151-4.143-1.933-11.4,7.5-9.219-4.292-16.248-7.209-20.979-12.837-2.594-4.136,5.433-8.1,12.487-7.527,7.5-12.623,4.662,1.452,12.318-6.211,4.889-8.811,9.232-3.786,8.252-22.782,6.646-7.586L589.8,217.889Z" transform="translate(-12.273 -30.211)" fill="#ffeb00" stroke="#000"/><path d="M611.625,152.725l-6.977-9.5-17.167,9.29L568.245,154.2l-2.71,4.091-15.32-15.106-2.633-2.69L535.109,124.5l-9.939,2.535L511.393,121.3l-9.647,2.042-2.036-3.993-8.953-1.064-7.482,5.1L459,94.375l1.53-6.179-5.33-3.2-24.02,22.523-1.491,19.125L416.9,128.808l-6.574,5.763-2.354.221-7.494-4.1-.065,9.369L413.3,169.97l10.522-3.6,5.038-2.068,53.74-18.7,8.979.272L484.512,183.1l9.914,1.628,3.974,14.38,2.062,19.158L513.617,233.9l9.42-18.1,16.156-12.487,6.1,19.081,1,18.5,4.558-.881L569.944,215l7.442.156-.661-3.67,9.816-.551,3.15,3.845,5.155-14.257,19.346-23.12,14.736-4.707,36.112-1.5-5.634-8.545,5.011-20.124L659.1,128.166l-12.8,13.777-22.043-8.2Z" transform="translate(-12.273 -30.211)" fill="#f90" stroke="#000"/><path d="M304.329,84.715l-14.892-.675-3.43-2.535-8.24,7.962L249.214,72.351,239.2,81.084,200.6,100.534,176.97,113.053l-1.219,1.083-2.8,23.482-13.044,2.561-15.514-8.849-9.116,16.791-26.329,20.2,18.944,11.132,19.288-5.459,13.641,6.665,28.377-6.873,13.058,6.646,6.3,3.41,2.949-2.379,9.064,18.094,2.061-.927-.052.662,8.649,11.884,23.4,5.757,2.95-8.6,16.117,3.216,4.168-2.25,6.14-7.741,2.379-14.043,18.491,15.391,10.71.8,22.07-1.8,6.069-2.483,13.978-1.867,10.321-6.516,10.283-8.733,25.538-9.038,9.433-3.287-12.9-29.908.065-9.368,7.507,4.1,3.054-9.1-3.015-14.024-7.637-5.225,13.55-35.263-23.035-10.7-.759-6.665L373.75,43.092l-7.877.382L347.8,49.588l2.749,8.752-4.9,11.787-4.713.493-17.894.123L312.2,62.691,304.5,74.711Z" transform="translate(-12.273 -30.211)" fill="#06c" stroke="#000"/><path d="M368.021,191.048,357.7,197.563l-13.978,1.867-6.068,2.484-22.07,1.8-10.7-.8-18.5-15.391-2.366,14.043-6.153,7.741-4.168,2.249-16.117-3.215-2.95,8.6-23.4-5.757-8.649-11.884.065-.661-2.075.927-9.063-18.095-2.949,2.38-6.295-3.411-13.058-6.645-28.377,6.872L147.188,174,127.9,179.455l-18.944-11.131,26.329-20.2,9.115-16.792,15.528,8.85,13.032-2.561,2.8-23.482,1.225-1.083L200.6,100.541l38.6-19.45,10.017-8.733,3.4-12.792-9.232-9.4L227.31,39.824,204.086,36.3l-25.35,10.828-5.608,4.019-5.277-9.835-4.493-8.61-9.329,1.5-21.2,8.7-11.041,9.44-13.641-2.963-24.124,5.9L79.438,38.3l-6.055-6.348,2.458,9.421L66.712,68.818,50.64,79.58,40.98,76.7,26.594,62.639,13.005,76.987l3.825,3.144-2.989,9.427,7.722,12.623,1.484,14.607L36.558,128l5.025,5.595-2.924,7.469,6.087,6.036-9.03,21.109-8.9,3.287,8.8,20.52,7.08-6.47,14.97-.156,13.446-6.457,5.355,7.7,4.7.2L58.952,205.272l5.634,18.7,9.485-.927-9.077,18.276h.266l9.329,11.1-3.294,9.05,5.582,7.942,8.649-4.493,14.665,4.662,2.191,4.687,1.089,3.981,2.568,7.236-5.582,5.99,24.183,23.418-16.792,26.523,12.079,11.929.68-4.376,12.008,4.856,10.431,9.368-5.459,19.139,8.967,1.686,7.929,5.926-.382,5.011-12.169,8.552,8.331,18.192-.252,4.35-10.347,7.923-2.315,34.42,10.14,16.934-4.467,8.811,1.887,6.191,19.488,3.942,18.918,16.8-2.165,12.908-2.34,6.03-5,1.018-24,32.6-1.99,3.118,6.645,2.049-11.864,7.281-.292,11.974,27.9,11.041,8.674,2.736,8.241-3.565-2.814-8.455,13.991-3.585,8.078-17.44,18.944,5,16.06-10.244,9.79-.253,13.362.8,3.481,3.306,1.343-4.623L266.257,539.7l-34.874-10.432L250.476,508l18.932-.045-3.521-9.077L254.3,489.163l.453-4.914,5.9-7.884L275.32,475.2l5.661-8.078-3.774-16.28,4.026-1.387-23.048-1.939,1.368-3.351.622-14.348,7.877-5.524-2.846-24.176,8.208-23.937-2.379-9.225,10.587-6.438,1.647-17.317,2.153-4.007,8.117,3.67,1.3-4.111,8.4-1.718,2.1-3.76-3.721-2.146,21.187-24.163,12.143,6.788,5.738,7.948,19.982.195,12.739,13.666,8.545-3.261,6.017,10.834,18.121-1,16.636-7.41,8.092,3.637,7.916-5.828-1.77-14.5,9.433,1.634,3.708-3.053,8.4-17.1-8.1-5.712-9.232-17.557-9.874-.058,16.83-17.952L464,265.489l10.36-16.941,24.085-17.557-2.016-9.569,4.039-3.112-2.049-19.158-3.974-14.38-9.926-1.628,7.08-37.227-8.98-.272-53.739,18.7-5.051,2.068-10.51,3.6L403.9,173.3l-25.551,9.038Z" transform="translate(-12.273 -30.211)" fill="#f90" stroke="#000"/><path d="M419.369,448.111,391.167,446l5.886-17.589-18.121,2.1-17.083-5.387-6.231,6.788-1.128-4.435-4.558.136-7.358,5.362L333.1,423.04l3.319-2.892.519-17.375-6.879-2.891-4.422.778-11.8-13.492-20.222,4.687L286.79,379.79l-13.407-3.624L265.188,400.1l2.839,24.176L260.15,429.8l-.609,14.348-1.368,3.352,23.048,1.938-4.026,1.388,3.774,16.279-5.661,8.078-14.665,1.167-5.9,7.884-.467,4.914,11.586,9.712,3.534,9.077-18.932.045-19.106,21.272,34.886,10.432,3.106,33.065-1.342,4.622-3.494-3.306-13.363-.8-9.79.253-16.046,10.244-18.944-5-8.078,17.44L184.3,599.795l2.8,8.454-8.24,3.566-8.662-2.736-4.875,13.556L161.968,645.9l4.661,5.05,14.549,13.492,19.6-1.413-2.256,9.3,10.3,9.809-1.926,8.493,7.028,6.068.493,9.479,8.558,11.385,15.119-7.469,8.331,2.34-7.267,3.1,5.646,5.174,2.243-4.162,22.7,1.828,2.859,8.655L257.13,759.18l7.941,5.4-.972,4.707,28.312,7.274,8.992-3.89,12.74,5.8,3.332,13.7,12.715,13.913,8.7-1.621-10.5,39,.518,20.169,12.156,21.609-2.762,9.355,9.3,10.529-2.509,7.845,6.646,6.5,1.42,8.941,8.013,2.846,23.074-1.608,4.383,13.311,7.76,16.409,13.3,3.2,7.877,5.724,9.712-.24,4.48.947,19.554-.376,5.446-8.137,9.31-2.963,2.165-13.958-5.381-8.241.279-15.015,6.166-7.864,9.446-3.32,1.115-20.759,17.856-40.106,10.535-6.328,3.637,2.341,9.181-2.4-1.115-9.667-13.434-.616-26.8-19.774L483.4,792.79l23.69,1.873,16.286,8.908,3.177-3.617,33.162-1.109,4.168-29.784,13.245-15.534-2.567-13.518,1.873-9.647,19-4.506,2.632-13.466-14.322-13.226-.959-.758-5.537-7.229-1.037-13.888-13.893-.94-8.253-16.668L536.2,653.172l-5,2.372-5.712-7.553L506.129,644.3l-15.321,11.67L475.65,645l-4.85-8.87,9.952-22.886,2.594-3.157,5.154-10.665-3.416-8,2.126-12.7-4.168-2.58-.052-9.777-32.644-6.6L453.387,541l9.433,2.509L478.1,531.661l4.493-9.582,2.937-12.163,11.268-3.929.1-8.415-4.48-1.05L482.017,476.08l4.532-16.889L461.3,443.054l-15.741-10.179-4.61,1.387.3,4.422-8.557.292.784,1.627-9.647-1.07-3.08,9.317Z" transform="translate(-12.273 -30.211)" fill="#ffeb00" stroke="#000"/><path d="M593.517,402.066l-4.94,5.991-12.331.707-9.524,20.8-23.618-2.82-3.521,2.82L537.47,448.24l34.186,3.521,19.372-2.464,3.177,5.284,15.865,7.047,9.854-43.353-9.154-4.934-10.931-9.168Zm-56.041,46.175-7.41-.707h-.694l-15.158-.35-12.688,15.508-14.8-3.527-4.583,16.921,10.218,20.442,4.584,1.057v8.461l-11.281,3.877L482.5,522.261l-4.227,9.517,14.8,11.631,13.381-1.757,1.42,13.745,7.747,6.347,16.565-11.631-1.05-23.969,3.89-2.82L553.7,502.175l-2.114-8.46,12.688-25.383Z" transform="translate(-12.273 -30.211)" fill="#ffeb00" stroke="#000"/><path d="M330.081,399.875l-4.422.778-11.8-13.492-20.221,4.688-6.827-12.066L273.4,376.159l-2.366-9.226,10.588-6.438,1.647-17.316,2.152-4.007,8.117,3.669,1.3-4.11,8.4-1.718,2.087-3.76-3.708-2.146,21.187-24.164,12.143,6.788,5.738,7.949,19.982.194,12.74,13.667,8.545-3.261,6.016,10.834,18.108-1,16.649-7.41,8.091,3.637,7.916-5.829-1.77-14.5,9.433,1.634,3.709-3.054,8.4-17.1-8.1-5.711-9.245-17.557-9.862-.059,16.831-17.952L464,265.469l10.361-16.94,24.072-17.557-2-9.57,4.04-3.112,13.167,15.638.253,2.094,8.4-1.225L526,258.954l15.093.817,10.068,11.248,7.956-4.9-8.143-15.554,13.245,6.879,13.588-6.768,10.42-17.492L589.9,217.9l20.273,15.754-6.646,7.586-8.253,22.782-9.232,3.786-4.888,8.811-12.319,6.211-4.661-1.452L556.675,294l-12.487,7.527-5.433,8.1,2.593,4.136L525.542,300.79l-9.861,10.03-17.11-3.274-3.682,20.416L502.4,345.13l11.462,8.629-.6,4.908-7.372,12.681,8.876,15.91L513,396.2l1.239-.065-3.067,19.054,18.776,32.177-.532.058-15.236-.311L501.553,462.53l-14.989-3.307-25.239-16.137-15.742-10.179-4.622,1.388.3,4.421-8.557.292.8,1.627-9.66-1.069-3.066,9.316-1.394-.765-28.216-2.107,5.9-17.589-18.121,2.1-17.083-5.388-6.231,6.788-1.128-4.435-4.571.136-7.346,5.362-9.485-9.939,3.333-2.891.518-17.376Z" transform="translate(-12.273 -30.211)" fill="#ffeb00" stroke="#000"/><text transform="translate(272.74 118.567)" font-size="27.843" font-family="DejaVuSansCondensed-Bold, DejaVu Sans" font-weight="700">8</text><text transform="translate(196.945 260.875)" font-size="27.843" font-family="DejaVuSansCondensed-Bold, DejaVu Sans" font-weight="700">9</text><text transform="translate(558.337 156.078)" font-size="27.843" font-family="DejaVuSansCondensed-Bold, DejaVu Sans" font-weight="700">7</text><text transform="translate(611.977 212.758)" font-size="27.843" font-family="DejaVuSansCondensed-Bold, DejaVu Sans" font-weight="700">6</text><text transform="translate(593.233 371.855)" font-size="27.843" font-family="DejaVuSansCondensed-Bold, DejaVu Sans" font-weight="700">3</text><text transform="translate(568.183 537.757)" font-size="27.843" font-family="DejaVuSansCondensed-Bold, DejaVu Sans" font-weight="700">2</text><text transform="translate(618.841 414.371)" font-size="27.843" font-family="DejaVuSansCondensed-Bold, DejaVu Sans" font-weight="700">1</text><text transform="translate(480.788 500.505)" font-size="27.843" font-family="DejaVuSansCondensed-Bold, DejaVu Sans" font-weight="700">11</text><text transform="translate(327.818 604.528)" font-size="27.843" font-family="DejaVuSansCondensed-Bold, DejaVu Sans" font-weight="700">10</text><text transform="translate(450.82 310.504)" font-size="27.843" font-family="DejaVuSansCondensed-Bold, DejaVu Sans" font-weight="700">12</text></svg>