<svg xmlns="http://www.w3.org/2000/svg" width="867.443" height="963.811" viewBox="0 0 867.443 963.811"><title>2T Législatives 2017 Essonne</title><path d="M786.293,425.858l-5.9-8.094-5.606-1.673-35.7,2.7-3.825.249-22.466,7.6-13.833-28.363-11.14-6.828-12.521,3.41,15.771-11.893-9.271-23.449-5.934-2.285-6.438,10.644-18.765,1.1-4.17,4.809-12.335-3.109-3.684-32.853,16.878-5.11,4.322-11.583,10.414-6.889,20.615,11.636,18.4-23.724,11.4-15.541,5.693,3.152,14.913-12.176,19,21.51L775.8,323.117l.885.62,19.34,19.544,5.987,15.763-10.467,49.085-1.471,4.658Z" transform="translate(-56.315 -25.697)" fill="#ffc0c0" stroke="#000"/><path d="M256.459,639.767l-46.971-.886-.088,5.757-11.742-.237-6.2,9.013.737,5.942,11.3,2.764,11.584,13.243-22.818,16.544-4.476,5.055L191.75,735.8l-19.623,26.987-12.55-2.9-24,6.828-13.664,36.632,13.365,2.413,13.4,30.041-15.219,13.533-6.494,32.981,15.218,22.8-8.759,9.505,1.237,17.877-22.484,10.917,3.475,11.409,22.37,28.523,19.387,3.186L177.127,989l25.592-6.459,18.492,4.809,10.681-7.872,1.614-10.277,45.2,1.9,21.08-24.047,12.893-.816-4.047,20.1,66.164-2.9.412-8.171L364.78,943.978l1.1-11.953,18.562,3.581,2.351-4.573,13.814,2.44,1.711-19.685,31.525-41.134,9.856,16.157,22.23,13.48,18.807-.4-10.716,26.522,13.2,1.852-3.976,33.218,12.585-5.9L514.335,931l29.331,11.471,11.023-4.029,15.875-36.833,6.17-2.826,15.736-2.475,2.623,12.515,31.762,31.217,4.9,3.151L642.3,938.4l2.914,5.064,37.624-12.849,4.836-10.663-9.426-9.829-3.923-19.747,11.567,5.565,24.275-8.066,17.965,5.1-4.546-25.32,14.042-18.93-14.691-9.391,14.5-12.313,12.5,2.264-1.026-12.787,42.336-17.087L780.036,783.9,795.9,771.306l26.513,3.756,19.87-17.851,32.8,5.117-38.6-51.35-15.938-4.265-.808-35.641-.448-10.3-7.951-7.67,2.211-3.494,8.18-4.116-4.529-45.2,10.269-8.232,2.229-13.638,2.265-27.654-6.152-.184-2.9-12.059-11.98-2.861L826.3,485.92l-13.148-.561,24.171-37.484,2.281-12.646L855.048,425.1l-12.752.851L804.707,437.4l-14.8-12.172-.2-12.972-3.774,12.928-5.827-8.022-5.556-1.65-35.394,2.668-3.774.255-22.266,7.521-13.725-28.11-11.023-6.767-12.427,3.379,15.647-11.786-9.189-23.24-5.88-2.264-6.4,10.549-18.6,1.088-4.133,4.766-12.225-3.081-.755,6.135L606.03,386.1l-1.658,5.95L601.853,422.8l14.437,34.148-6.327,8.979,18.614,31.392-20.246-1.579-3.959,31.3L585.81,532.9l-22.142,36.746-23.977.3L524.728,560.3l-6.275,1.685-.649,25.539L508.791,604.8l7.539,5.441,3.036,9.461-8.829,8.284,11.585,13.893-10.058,7.478-7.495,17.157L487.684,668l-11.743,11.181-38.9-54.825-21.151-16.429-3.09,12.33-37.966-1.351-16.78-11.655-12.84,4.213-11.172,16.947-11.979,4.379-3.651-5.626,6.046-18.684-2.018-19.957L298.792,576.9l5.38-25.416-18.132-8.039-24.8,6.486L245.02,585.056,245.9,604l11.69,16.579Z" transform="translate(-56.315 -25.697)" fill="#06c" stroke="#000"/><path d="M469.986,395.024l-27.6,12.655-18.851,4.765L383.18,411.5l-18.9,6.749-7.7-13.024L355.07,398.7,332.357,387.09l-13.112,2.08-11.726,4.239-9.048-8.5L285.807,386.2l-7.539-.948-12-10.023-17.789,5.53-12.19-22.985-25.7,6.108-2.554,13.05,3.475,18.3-17.929,21.028-5.643,40.318-44.89,1.5-4.3,4.9-22.045-12.058-32.069-2.536-4.985,25.758L115.927,500.9l18.2.834,1.509,13.085-12.444,3.248-4.924-3.16-14.262,8.557-24.17,54.29-1.509,28.1-12.787,4.493L57.2,621l-.377,20.325L64.1,652.484l11,7.591,4.564,21.607,11.366,3.283-7.25,10.865,2.23,25.977L69,740.211l4.985,2.2.895,14.99,23.591-4.634,17.675,3.914,19.51,10.075,24-6.828,12.55,2.9,19.623-26.978-3.975-38.844,4.459-5.055,22.836-16.543L203.56,662.173l-11.3-2.765-.756-5.941,6.223-9,11.742.228.088-5.757,46.971.887,1.114-19.2-11.69-16.578L245.08,585.1,261.3,549.977l24.8-6.486,18.132,8.039-5.4,25.416,23.652,11.62,2.018,19.957-6.038,18.685,3.651,5.625,11.98-4.379,11.154-16.947,12.84-4.213,16.8,11.655,37.948,1.36,3.107-12.339L437.1,624.4l38.9,54.825,11.742-11.18L504.6,666.56l7.5-17.157,10.058-7.477-11.567-13.893,8.828-8.285-3.036-9.461-7.539-5.441,9.013-17.28.633-25.539,6.274-1.685,14.982,9.645,23.977-.3,22.125-36.747,18.561-5.853,3.976-31.305,20.23,1.58-18.6-31.393,6.327-8.978L601.9,422.845l2.519-30.752,1.658-5.951,28.383-9.478.772-6.135-3.651-32.551-12.252-4.133-25.231-.088-2.019,1.413-47-13.051-1.168,12.656-12.032,3.87-8.469-8.311-16.763-.123-6.977,17.017-27.715,1.624,8.469,17.368-8.847,10.137Z" transform="translate(-56.315 -25.697)" fill="#ffeb00" stroke="#000"/><path d="M356.579,405.2l-1.509-6.529-22.713-11.6-13.112,2.08-11.726,4.239-9.048-8.5-12.647,1.282-7.556-.948-12-10.023L248.5,380.736l-12.207-22.984,3.563-18.229-19.387-17.9-1.3-1.027-7.478-9.786-1.422-18.8-18.807-1.273-11.171-22.564,2.089-11.777,17.912,3.808,2.37-12,6.152-29.339,5.2-3.045,6.381-.921,4.248-11.971,12.752-.009,14.086-.22,4.2-3.993,15.991,6.828,9.408-24.74,11.058,7.881,18.685,4.915L299.765,209.5l.4,12.98,12.173,1.466,10.628-8,.448-6.564,25.469-4.792,11.242,3.73,4.081,11.075,10.268,5.564,3.651.992,6.327-1.887,28.936,15.253,5.432-1.219,17.465-16.3-5.433-15.7-.035-11.593,6.494-20.686,32.227,1.466,13.576-12.533,18.633,1.413,9.7-23.178,35.176,12.094-.176,13.805,11.672,4.616,9.224,23.178,5.486,3.247,2.606-5.239,15.614,8.75-2.282,2.027,11.506,17.193,3.686,20.422,4.968-.412L602.3,274.606l-16.254-12.234-7.267-17.9-12.067,16.876-13.648,13.6-1.386,11.216-6.687,35.868L543.843,334.7l-12.051,3.871-8.451-8.311-16.763-.123L499.6,347.15l-27.733,1.624,8.487,17.368-8.847,10.136-1.545,18.755-27.61,12.647L423.5,412.445l-40.353-.948-18.886,6.749Z" transform="translate(-56.315 -25.697)" fill="#ffeb00" stroke="#000"/><path d="M411.088,70.373,392.6,63.765l-17.5,9.926-13.524-.3L345.493,85.284l-.105,6.811-5.055,11.778-22.389-8.32-16.991,6.67-5.468,3.888,13.041,23.063L304.893,142.1l3.432,6.547-17.052,27.259.877,12.761,18.667,4.914-11.058,15.911.412,12.981,12.172,1.465,10.611-8,.465-6.564,25.468-4.792,11.243,3.73,4.08,11.075,10.269,5.565,3.633.991,6.327-1.887,28.952,15.254,5.433-1.22,17.447-16.3-5.414-15.7-.035-11.594,6.494-20.686-21.958-20.44.9-13.208,12.963-4.625,12.251-15.253,1.027-17.8-12.533,1.825L459,78.5l15.069,28.479,47.356-10.145L533.32,82.353l-9.785-16.886-8.9-7.837L489.658,56.5l-22.317-9.4-5.213-16.7-2.967-3.212.842,6.6-5.59,3.58-19.729,1.282-9-8.539-13.094-.825-3.94,4.967,6.293,17.491Z" transform="translate(-56.315 -25.697)" fill="#ffeb00" stroke="#000"/><path d="M511.436,140.987l-9.7,23.178-18.633-1.413-13.577,12.532L437.3,173.819l-21.941-20.44.878-13.209,12.98-4.625,12.243-15.253,1.026-17.8-12.532,1.825,29.059-25.811,15.069,28.479,47.356-10.145,5.038,12.164,6.546.807,24.206-10.382,2.246,19.5,12.515-2.018L581.4,81.027l4.063-3.686,8.952,4.967L607,96.271l17.535,4.616-10.75,14.192,4.493,18.008L611.8,143.619l12.8,2.58-3.019,25.873-30.515,29.347-15.6-8.75-2.606,5.24-5.5-3.247-9.206-23.178-11.672-4.617.157-13.8Z" transform="translate(-56.315 -25.697)" fill="#ffeb00" stroke="#000"/><path d="M646.248,137.248l-.36-15.13-.773-35.8-20.624,14.559-10.769,14.192,4.512,18.008-6.477,10.532,12.8,2.58-3.019,25.873-30.515,29.347-2.282,2.028,11.506,17.192,3.686,20.423,4.968-.413L626.44,234.3,638.4,261.941l-6.134,11.576,3.291,5.678,4.248,3.432,15.938-29.778,23.722-23.907-13.541-19.553,5.213-16.464,13.832-19.492,5.248-17.921,12.515-13.63-4.2-16.192L666.821,137.4Z" transform="translate(-56.315 -25.697)" fill="#06c" stroke="#000"/><path d="M805.185,214.9,772.4,234.384l-5.038-4.1-12.05-18.922-11.488,6.486-24.205-31.085L707,187.914,685,173.45l5.248-17.921L702.767,141.9l27.084-12.349,6.5-2.632,3.51,9.337,10.795,11.418-1.694-12.76L765.7,123.9l13.269-1.185,3.116-.061,11.891-2.914,33.1-10.988,14.657,44.005,10.681,12.014-3.492,2.852L827.083,188.87l-1.869,12.936,5.608,3.309-19.045,17.657Z" transform="translate(-56.315 -25.697)" fill="#8040c0" stroke="#000"/><path d="M662.9,314.528l10.233-25.96,20.291-47.585L679.5,228.96l-13.541-19.554,5.213-16.464L685,173.45,707,187.913l12.62-1.15,24.205,31.086,11.506-6.486,12.05,18.922,5.021,4.1L805.186,214.9l6.6,7.872,19.045-17.657-5.609-3.309,1.87-12.936,21.835-21.248,5.45,9.725,17.175,2.624,6.065,18.535,29.436-5.9,11.295,4.993,4.817,24.231L910.941,223.6l-12.269,13.56-10.7-6.925-12.34,1.887-17.772,28.733,18.448,15-7.143,11.067-2.335,20.045-25,3.809-5.072,4.063,11.294,29,21.169,12.251-1.369,23.38-30.085,26.75,4.545,19.677-37.588,11.444-14.8-12.173-.2-12.98,1.457-4.616,10.356-48.647L795.613,343.3l-19.15-19.369-.895-.614L752.1,299.5l-18.825-21.318-14.8,12.068-5.625-3.125-11.312,15.4L683.3,326.042Z" transform="translate(-56.315 -25.697)" fill="#ffeb00" stroke="#000"/><path d="M594.055,333.669l-2.018,1.413-47-13.05,6.687-35.869,1.387-11.216,13.647-13.6,12.068-16.877,7.266,17.9L602.349,274.6l6.6-33.937,17.535-6.346,11.962,27.646-6.117,11.575,3.274,5.679,4.265,3.431,15.938-29.778,23.722-23.906,13.9,12.023-20.283,47.585-10.25,25.96-10.321,6.828-4.283,11.48L631.565,337.9l-12.251-4.133Z" transform="translate(-56.315 -25.697)" fill="#ffeb00" stroke="#000"/><text transform="translate(514.866 127.201)" font-size="37.69" font-family="DejaVuSansCondensed-Bold, DejaVu Sans" font-weight="700">6</text><text transform="translate(583.964 151.264)" font-size="37.69" font-family="DejaVuSansCondensed-Bold, DejaVu Sans" font-weight="700">7</text><text transform="translate(667.98 153.375)" font-size="37.69" font-family="DejaVuSansCondensed-Bold, DejaVu Sans" font-weight="700">8</text><text transform="translate(714.133 253.921)" font-size="37.69" font-family="DejaVuSansCondensed-Bold, DejaVu Sans" font-weight="700">9</text><text transform="translate(656.202 344.79)" font-size="37.69" font-family="DejaVuSansCondensed-Bold, DejaVu Sans" font-weight="700">1</text><text transform="translate(477.004 726.575)" font-size="37.69" font-family="DejaVuSansCondensed-Bold, DejaVu Sans" font-weight="700">2</text><text transform="translate(325.719 487.198)" font-size="37.69" font-family="DejaVuSansCondensed-Bold, DejaVu Sans" font-weight="700">3</text><text transform="translate(334.791 291.188)" font-size="37.69" font-family="DejaVuSansCondensed-Bold, DejaVu Sans" font-weight="700">4</text><text transform="translate(269.009 119.697)" font-size="37.69" font-family="DejaVuSansCondensed-Bold, DejaVu Sans" font-weight="700">5</text><text transform="translate(502.588 288.692)" font-size="37.69" font-family="DejaVuSansCondensed-Bold, DejaVu Sans" font-weight="700">10</text></svg>