<?xml version="1.0" encoding="UTF-8" standalone="no"?>
<svg
   xmlns:dc="http://purl.org/dc/elements/1.1/"
   xmlns:cc="http://creativecommons.org/ns#"
   xmlns:rdf="http://www.w3.org/1999/02/22-rdf-syntax-ns#"
   xmlns:svg="http://www.w3.org/2000/svg"
   xmlns="http://www.w3.org/2000/svg"
   xmlns:sodipodi="http://sodipodi.sourceforge.net/DTD/sodipodi-0.dtd"
   xmlns:inkscape="http://www.inkscape.org/namespaces/inkscape"
   width="1936.205"
   height="1922.995"
   viewBox="0 0 1936.205 1922.995"
   version="1.1"
   id="svg84"
   sodipodi:docname="2T_Législatives_2017_Seine-Saint-Denis.svg"
   inkscape:version="0.92.1 r15371">
  <metadata
     id="metadata90">
    <rdf:RDF>
      <cc:Work
         rdf:about="">
        <dc:format>image/svg+xml</dc:format>
        <dc:type
           rdf:resource="http://purl.org/dc/dcmitype/StillImage" />
        <dc:title>1T Législatives 2017 Seine-Saint-Denis</dc:title>
      </cc:Work>
    </rdf:RDF>
  </metadata>
  <defs
     id="defs88" />
  <sodipodi:namedview
     pagecolor="#ffffff"
     bordercolor="#666666"
     borderopacity="1"
     objecttolerance="10"
     gridtolerance="10"
     guidetolerance="10"
     inkscape:pageopacity="0"
     inkscape:pageshadow="2"
     inkscape:window-width="1366"
     inkscape:window-height="745"
     id="namedview86"
     showgrid="false"
     inkscape:zoom="0.2932925"
     inkscape:cx="405.52415"
     inkscape:cy="961.4975"
     inkscape:window-x="-8"
     inkscape:window-y="-8"
     inkscape:window-maximized="1"
     inkscape:current-layer="svg84" />
  <title
     id="title10">1T Législatives 2017 Seine-Saint-Denis</title>
  <path
     d="M35.666,569.918l23.485,71.191-8.013,3.941,127.351,28.277,143,60.037,6.574,93.367-46.348,82.508-39.544,38.335L228.6,973.183l-37.272,17.941,37.73,126.975,62.129-6.574,134.694-3.4,86.024-.785,4.432-180.569-14.146-55.18-51.615-3.761-22.962-13.934-34.819-70.127-40.656-52.154L362.262,718.5,352.3,704.35l12.266-20.427,23.959,2.764L311.646,603.64l-30.6-40.1-50.568,11.808-42.735-35.783L98.139,500.82Z"
     transform="translate(-33.968 -67.138)"
     fill="#ffeb00"
     stroke="#000"
     stroke-width="3"
     id="path12"
     style="fill:#cc2443;fill-opacity:1" />
  <path
     d="M352.075,731.515L362.2,718.4l-9.96-14.146L364.5,683.826l23.959,2.764-76.817-82.95,63.946-110.85,60.053,14.834L513.738,427l60.185,20.689-16.584,93.351-41.147,48.049L546.513,679.1l85.19,23.567,81.1-30.713-67.462,65.009L566.578,900.653l-50.273,26.085-14.146-55.18L450.544,867.8l-22.928-13.934Z"
     transform="translate(-33.968 -67.138)"
     fill="#d00"
     stroke="#000"
     stroke-width="3"
     id="path14" />
  <path
     d="M1361.58,1522.495l-25.971,14.572-20.475-39.561,78.386-168.532,69.572,31.3,57.911,2.666,120.352,15.978,107.072,64.191,7.131-2.06,119.174,8.782-29.618,82.312-53.445,26.363,76.571,178.884,58.548,186.816-21.621,63.782-136.625-71.7-9.714-29.634,1.014-57.338L1562.854,1697.5l3.074-32.218-132.34-88.1L1421.42,1588.5Z"
     transform="translate(-33.968 -67.138)"
     fill="#ffeb00"
     stroke="#000"
     stroke-width="3"
     id="path16" />
  <path
     d="M1118.882,928.716l-14.408-94.741-37.239-53.135-24.564-21.228L981.948,773.84l-56.667-14.6,12.266-59.154L830,751.271l-16.8,58.68,44.37,34.966L805.026,942l-21.146,24.09-15.454-11.4-54.018-36.241L619.7,938.12l-53.12-37.468,78.763-163.708,67.462-64.992-81.1,30.713L546.515,679.1l-30.321-90.031,41.147-48.033,16.584-93.351,40.051,6.836,153.454,142.1,70.552-15.209L1014.4,599.681l52.251,0.246,21.407,6.754,57.911,28.784,76.947,141.6-12.364,160.11-31.6,12.609Z"
     transform="translate(-33.968 -67.138)"
     fill="#d00"
     stroke="#000"
     stroke-width="3"
     id="path18" />
  <path
     d="M811.141,1076.494L783.863,966.053l21.146-24.09,52.547-97.08-44.37-34.966,16.8-58.68,107.547-51.189L925.263,759.2l56.667,14.6,60.724-14.228,24.564,21.228,37.239,53.135,14.408,94.741,60.119,21.065,5.805,18.922-32.938,108.986L975.975,1138.4,892.5,1160.785Z"
     transform="translate(-33.968 -67.138)"
     fill="aqua"
     stroke="#000"
     stroke-width="3"
     id="path20" />
  <path
     d="M511.889,1107.274L516.305,926.7l50.273-26.085,53.12,37.468,94.708-19.674,54.018,36.241,15.454,11.4L811.157,1076.5l81.429,84.323-20.311,43.944-80.692,74.478-23.861-49.21-54.052-8.586-13.23-63.439-9.551-23.256L663.9,1111.51l-35.963-10.762-88.805,6.133Z"
     transform="translate(-33.968 -67.138)"
     fill="#ffeb00"
     stroke="#000"
     stroke-width="3"
     id="path22"
     style="fill:#cc2443;fill-opacity:1" />
  <path
     d="M803.667,1373.9l41.9-42.6,59.285-5.757,42.6,12.151-7.884,22.52,44.811,25.349,55.523-61.9,80.594,3.892,42.325,77.814,55.228,21.49,5.692,56.57L1056.112,1539.4l-44.238,39.921L951.216,1564l-49.7,36.7-62.768-4.35-16.159.883-6.3-55.539Z"
     transform="translate(-33.968 -67.138)"
     fill="#ffeb00"
     stroke="#000"
     stroke-width="3"
     id="path24"
     style="fill:#cc2443;fill-opacity:1" />
  <path
     d="M1641.388,1378.887L1521,1362.909l-57.877-2.666-69.6-31.3-78.354,168.532-91.454-14.049-5.658-56.57-55.262-21.49L1120.5,1327.55l73.088-99.123,62.539,15.258,53.086-27.2,27.181-54.3,47.951-25.971,24.875,84.029,27.72,12.609,12.364-27.933,76.637-12.92,9.012-25.055,36.634-34.622,52.383,0.343,20.181,117.555,58.746,9.338,68.3,62.556-15.618,118.913-7.131,2.06Z"
     transform="translate(-33.968 -67.138)"
     fill="#ffeb00"
     stroke="#000"
     stroke-width="3"
     id="path26" />
  <path
     d="M939.589,1360.211l7.884-22.52-42.637-12.151-59.253,5.757-41.9,42.6L787.8,1323.821l-63.717-49.374L713.7,1221.443l54.018,8.586,23.861,49.21,80.692-74.478,20.311-43.944,83.473-22.389,175.875-60.74L1184.87,968.7l-5.805-18.922,31.565-12.609,75.932,27.132-3.288,62.572-69,30.779-2.485,33.428,16.093,7.719-14.278,56.618-15.879-4.04-6.362,19.38,16.83,13.411-7.982,15.945-6.542,28.31-73.088,99.123-80.594-3.892-55.539,61.9Z"
     transform="translate(-33.968 -67.138)"
     fill="#ffeb00"
     stroke="#000"
     stroke-width="3"
     id="path28"
     style="fill:#cc2443;fill-opacity:1" />
  <path
     d="M1210.548,937.2l75.932,27.132-3.288,62.572-69,30.779-2.485,33.428,16.093,7.719-14.278,56.618-15.879-4.04-6.362,19.38,16.83,13.411-7.982,15.945-6.542,28.31,62.539,15.258,53.086-27.2,27.181-54.28,47.951-25.987,20.181-30.68,48.392-77.389-57.47-20.541-13.23-59.955,63.144-65.564-57.779-111.079,25.071-60.086,73.219-62.212-173.128-207.57-30.06-4.89-151.082,91.7-43.567,78.73,57.911,28.784,76.947,141.6Z"
     transform="translate(-33.968 -67.138)"
     fill="#ffeb00"
     stroke="#000"
     stroke-width="3"
     id="path30"
     style="fill:#0066cc;fill-opacity:1" />
  <path
     d="M1387.617,770.979l25.1-60.086,73.219-62.212-173.16-207.586,27.754-24.041,8.407-30.485,59.546-23.027L1539.257,143.8l91.618,0.638,33-51.222L1742.231,69l35.292,101.953,26.544,11.661,25.4,125.356-25.4,59.236-61.525,17.875,3.042,32.284L1902.9,660.195l24.825,100.547L1797.4,771.519,1762.1,717.452l-14.572,59.563-59.121,14.719,1.21,7.163-63.667.867-63.946,67.1L1445.45,882.074Z"
     transform="translate(-33.968 -67.138)"
     fill="#d00"
     stroke="#000"
     stroke-width="3"
     id="path32"
     style="fill:#dd0000;fill-opacity:1" />
  <path
     d="M1404.545,1105.54l-20.181,30.68,24.875,84.029,27.72,12.609,12.364-27.933,76.637-12.92,9.012-25.039,36.634-34.638,52.383,0.343,20.213,117.555,58.712,9.338,43.535-45.956,120.106-45.989L1863.2,1105.6l36.7-50.191,5.805-5.168-20.411-21.277,20.247-140.91,63.112-40.559-1.21-55.834-39.806-30.877-130.328,10.777L1762.019,717.5l-14.572,59.563-59.121,14.719,1.21,7.163-63.667.867-63.946,67.1-116.557,15.209-63.144,65.564,13.23,59.955,57.47,20.541Z"
     transform="translate(-33.968 -67.138)"
     fill="#ffeb00"
     stroke="#000"
     stroke-width="3"
     id="path34" />
  <text
     transform="translate(1434.749 563.447)"
     font-size="178.521"
     font-family="DejaVu Sans"
     font-weight="700"
     id="text36">11</text>
  <text
     transform="translate(1153.624 651.023)"
     font-size="178.521"
     font-family="DejaVu Sans"
     font-weight="700"
     id="text38">10</text>
  <text
     transform="translate(1434.75 988.557)"
     font-size="178.521"
     font-family="DejaVu Sans"
     font-weight="700"
     id="text40">12</text>
  <text
     transform="translate(1536.407 1538.475)"
     font-size="178.521"
     font-family="DejaVu Sans"
     font-weight="700"
     id="text42">3</text>
  <text
     transform="translate(1214.077 1359.451)"
     font-size="178.521"
     font-family="DejaVu Sans"
     font-weight="700"
     id="text44">8</text>
  <text
     transform="translate(793.32 1472.17)"
     font-size="178.521"
     font-family="DejaVu Sans"
     font-weight="700"
     id="text46">7</text>
  <text
     transform="translate(1036.458 1164.922)"
     font-size="178.521"
     font-family="DejaVu Sans"
     font-weight="700"
     id="text48">9</text>
  <text
     transform="translate(811.165 950.243)"
     font-size="178.521"
     font-family="DejaVu Sans"
     font-weight="700"
     id="text50">5</text>
  <text
     transform="translate(629.892 1038.264)"
     font-size="178.521"
     font-family="DejaVu Sans"
     font-weight="700"
     id="text52">6</text>
  <text
     transform="translate(204.225 1016.362)"
     font-size="178.521"
     font-family="DejaVu Sans"
     font-weight="700"
     id="text54">1</text>
  <text
     transform="translate(367.274 575.703)"
     font-size="178.521"
     font-family="DejaVu Sans"
     font-weight="700"
     id="text56">2</text>
  <text
     transform="translate(646.453 786.128)"
     font-size="178.521"
     font-family="DejaVu Sans"
     font-weight="700"
     id="text58">4</text>
</svg>
