<svg xmlns="http://www.w3.org/2000/svg" width="1700.476" height="920.887" viewBox="0 0 1700.476 920.887"><title>2T Législatives 2017 Paris</title><path d="M565.5,470.8L521.016,361.217,541.79,319.3,567.3,308.387l175.622-48.7,16.554-12.273,54.258,23.214,15.491,3.843,5.965,16.954L894.6,302.562l-7.923,92.751,43.635,14.254-22.66,62.628-5.27,14.667-38.388,84-36.148-37.256-45.109-18.793L698.971,475Z" transform="translate(-27.06 -59.485)" fill="#f6e1b9" stroke="#000" stroke-width="3"/><path d="M808.689,721.739l0.248-8.406L773.91,658.8l2.441-71.659-34.238,8.288L697.9,629.083l-11.095-32.929-30.253-1.863,0.343-21.788-62.651-5.223L563.2,597.98l-79.393-70.621,40.545-44.648L565.5,470.827l133.437,4.233,83.791,39.815,45.084,18.793,36.171,37.256,137.175,82.553,11.354,13.287-30.56,55.082L912.663,751.9l-66.129-15.468Z" transform="translate(-27.06 -59.485)" fill="#ffeb00" stroke="#000" stroke-width="3"/><path d="M733.788,218.43l11.424-60.907,83.331,20.9,9.208-37.81,10.316-33.507L814.1,108.585,797.406,70.727l-34.591,2.3-70.09,7.463L580.933,147.055,557.86,162.488l22.86,27.517,2.947,0.142,42,48.1,24.275,17.8,13.534,17.685,2.37,7.581,77.07-21.622Z" transform="translate(-27.06 -59.485)" fill="#ffeb00" stroke="#000" stroke-width="3"/><path d="M244.343,356.065l46.923,63.252,26.139-.6-6.615,17.873,20.7,39.331,18.652,0.094L368.7,463.859l30.417,3.455,24.311-42.526,36.124,16.141,4.657,33.966,35.511,34.45L524.339,482.7l41.146-11.884L521,361.229l20.75-41.889,25.537-10.918,98.551-27.105-2.37-7.581-13.534-17.685-24.275-17.8-42-48.1L580.72,190l-22.86-27.517-45.179,29.934-13.606,1.769-52.253,42.738-24.888,29.663-6.426,44.884L277,294.439Z" transform="translate(-27.06 -59.485)" fill="#06c" stroke="#000" stroke-width="3"/><path d="M902.382,486.908l5.27-14.667,22.66-62.628L886.677,395.36,898.3,257.042l62.038-7.392,43.269,1.544,28.212,2.44,9.974,14.926,1.4,53.95,14.065,14.183,32.009,45.084-91.3,47.348,31.643,123.381-31.62-8.111-31.643-18.557-16.742-19.229Z" transform="translate(-27.06 -59.485)" fill="#ffeb00" stroke="#000" stroke-width="3"/><path d="M1127.156,570.051l14.76,37.833,100.461,25.289-5.388-33.707L1209.448,542.2l24.275-3.985,28.248-20.49-10.221-17.755-3.726-24.782-10.482-19.76-27.635-51.769-29.545-35.534-31.643,21.328-18.239-22.636-41.217,14.95-64.985,33.92,32.257,7.392,45.45,82.694,17.036-9.184,40.615,62.038Z" transform="translate(-27.06 -59.485)" fill="#ffeb00" stroke="#000" stroke-width="3"/><path d="M863.994,570.911l38.388-84,47.23,19.666L966.354,525.8,998,544.36l31.62,8.111L997.974,429.09l26.339-13.428,32.257,7.392,45.45,82.694,17.036-9.208L1159.67,558.6l-32.563,11.472,14.76,37.833-11.236,56.9-75.16,53.3-54.317-64.632Z" transform="translate(-27.06 -59.485)" fill="#ffeb00" stroke="#000" stroke-width="3"/><path d="M1312.964,876.41l-41.241-44.483-91.807,37.4L1055.5,718.108l75.183-53.3,11.236-56.874L1242.378,633.2l-2.193-18.1,53.22-6.767L1291.86,585l63.877-18.817,6.5,54.917-2.534,27.541-12.226,72.484-22.342,58.808,21.327,6.237,52.335-21.163-7.251-48.928-8.454-19.111,7.2-16,10.752-7.687,16.423,26.551,88.719,10.964,5.529-37.881,18.239,0.142,2.252-18.1,39.555,1.356-0.625,13.959,9.81-2.44,134.711,60.352,10.269,49.022L1697.1,814.245l-7.97,47.784,2.511,38.847-17.131,49.577-24.429,22.318-60.766-8.654L1502.3,957.5l-50.838-57.476-63.925-13.605Z" transform="translate(-27.06 -59.485)" fill="#ffeb00" stroke="#000" stroke-width="3"/><path d="M846.546,736.406l-7.828,67.014,59.5,24.735,43.41-18.168,76.752,147.349,161.533-88.012L1012.561,666.751l-30.583,55.082-69.288,30.052Z" transform="translate(-27.06 -59.485)" fill="#ffeb00" stroke="#000" stroke-width="3"/><path d="M563.884,875.3L629.7,792.655l83.131,37.669-22.058,33.684,11.306,3.62,3.572,5.753,30.3,8.795,34.815,9.114,36.171-4.975,24.039-4.881,13.311-18.557L838.7,803.4l59.5,24.735,43.41-18.192,76.752,147.373L999.932,967.44l-54.045,4.515-24.229-23.792L893.008,963.7l-15.2,4.834-29.663-1.91-71.965-5.777,5.388-13.841L652.9,905.189Z" transform="translate(-27.06 -59.485)" fill="#ffeb00" stroke="#000" stroke-width="3"/><path d="M670.158,647.216l55.731,34.143L629.731,792.644l83.106,37.669L690.779,864l11.306,3.62,3.572,5.753,65.115,17.921,36.171-4.975,24.039-4.857,13.311-18.581-5.552-59.48,7.8-67.014-37.858-14.667,0.248-8.406-35.051-54.528,2.464-71.659-34.238,8.288L697.9,629.06Z" transform="translate(-27.06 -59.485)" fill="#f90" stroke="#000" stroke-width="3"/><path d="M670.158,647.216l55.731,34.143L629.731,792.644l-11.554-4.174-18.05-30.925-15.291-42.16-27.565,11.6-11.07-38.8-24.452,2.052-60.494-37.715L419.825,614.2l64-86.88,79.393,70.645,31.043-30.712,62.675,5.223-0.366,21.788,30.253,1.886,11.095,32.929Z" transform="translate(-27.06 -59.485)" fill="#ffeb00" stroke="#000" stroke-width="3"/><path d="M330,846.841l-1.816-36.867L348.4,796.3l-16.67-22.012L296.5,782.528l123.31-168.3,41.43,38.293,60.494,37.715,24.452-2.028,11.059,38.777,27.588-11.578,15.291,42.16,18.05,30.9,11.554,4.174-65.834,82.647-82.765-33.966-71.8-46.605-41.123,51.416Z" transform="translate(-27.06 -59.485)" fill="#ffeb00" stroke="#000" stroke-width="3"/><path d="M214.48,693.042l29.086,78.827,52.913,10.658L483.809,527.335l15.964-18.027-35.535-34.426-4.657-33.99-36.124-16.117-24.3,42.5-30.442-3.455L350.158,476l-18.652-.094-20.7-39.331L317.43,418.7l-26.162.6-46.923-63.276-66.554-22.224-35.947,45.25L80.867,411.819,38.824,513.742l-10.08,62.144,105.048,35.877,18.557,24.476,59.68,23.875,11.955,0.46Z" transform="translate(-27.06 -59.485)" fill="#06c" stroke="#000" stroke-width="3"/><path d="M1209.472,542.168l24.275-3.985,28.237-20.467-10.2-17.779-3.726-24.782-38.105-71.494-29.545-35.534-31.643,21.328L1130.5,366.817l16.554-5.27,10.564-8.265,11.6-1.4,13.7-6.5,25.371,1.179,32.352-1.5,53.4-18.911,28.991-13.559,17.932,56.532,14.76,197.044-63.877,18.817,1.544,23.332-53.22,6.767-3.2-15.586Z" transform="translate(-27.06 -59.485)" fill="#ff8080" stroke="#000" stroke-width="3"/><path d="M1129.573,186.562l-40.061-32.929-25.1-2.44-19.713-7.18,8.913-12.545-10.87-13.016-0.166-50.543L1142.718,61l40.569,12.132,30.442,26.209,10.8,26.209,14.926,71.564,11.719,59.821,71.895,55.66-28.991,13.559-53.42,18.911-32.327,1.5-25.4-1.179-13.7,6.473-11.6,1.426-10.564,8.265-57.746,20.22-32.009-45.108,12.037-8.748,2.1-29.427-7.392-16.187,38.128-33.412,22.342-14.643,17.9-7.852,0.023-13.912Z" transform="translate(-27.06 -59.485)" fill="#ffeb00" stroke="#000" stroke-width="3"/><path d="M1064.009,282.284l7.416,16.187-2.1,29.427-12.06,8.748L1043.2,322.464l-1.4-53.926-9.974-14.926-71.47-3.985L898.623,258.2l0.554-19.371,13.606-28.9-1.038-27.423,10.729-37.586-7.687-75.714,97.03-.872,30.76-.436,0.166,50.543,10.87,13.016L1044.7,144l19.713,7.18,25.1,2.44,40.061,32.929L1142.4,212.43l-0.023,13.936-17.873,7.852Z" transform="translate(-27.06 -59.485)" fill="#cc2443" stroke="#000" stroke-width="3"/><path d="M733.788,218.43l9.137,41.264,16.554-12.25,54.258,23.19,15.468,3.843,5.965,16.966,59.408,11.141,4.008-44.4,0.554-19.395,13.606-28.9-1.015-27.423,10.729-37.562L914.75,69.171,797.406,70.692,814.1,108.549l33.966-1.45-10.316,33.507-9.208,37.787-83.331-20.9Z" transform="translate(-27.06 -59.485)" fill="#06c" stroke="#000" stroke-width="3"/><text transform="translate(675.904 341.591)" font-size="103.121" font-family="DejaVu Sans" font-weight="700">1</text><text transform="translate(555.301 494.479)" font-size="103.121" font-family="DejaVu Sans" font-weight="700">2</text><text transform="translate(649.348 117.996)" font-size="103.121" font-family="DejaVu Sans" font-weight="700">3</text><text transform="translate(407.452 326.625)" font-size="103.121" font-family="DejaVu Sans" font-weight="700">4</text><text transform="translate(74.241 453.082)" font-size="103.121" font-family="DejaVu Sans" font-weight="700">14</text><text transform="translate(423.044 572.66)" font-size="76.212" font-family="DejaVu Sans" font-weight="700">12</text><text transform="translate(347.047 697.558)" font-size="103.121" font-family="DejaVu Sans" font-weight="700">13</text><text transform="translate(680.426 788.492)" font-size="103.121" font-family="DejaVu Sans" font-weight="700">11</text><text transform="translate(764.068 890.779)" font-size="72.543" font-family="DejaVu Sans" font-weight="700">10</text><text transform="translate(947.293 773.91)" font-size="103.121" font-family="DejaVu Sans" font-weight="700">9</text><text transform="translate(1014.191 580.496)" font-size="103.121" font-family="DejaVu Sans" font-weight="700">7</text><text transform="translate(1099.867 427.303)" font-size="103.121" font-family="DejaVu Sans" font-weight="700">6</text><text transform="translate(1190.585 378.303)" font-size="94.886" font-family="DejaVu Sans" font-weight="700">15</text><text transform="translate(1080.452 274.386)" font-size="103.121" font-family="DejaVu Sans" font-weight="700">16</text><text transform="translate(912.882 317.806)" font-size="103.121" font-family="DejaVu Sans" font-weight="700">5</text><text transform="translate(748.023 197.046)" font-size="103.121" font-family="DejaVu Sans" font-weight="700">18</text><text transform="translate(890.854 104.459)" font-size="103.121" font-family="DejaVu Sans" font-weight="700">17</text><text transform="translate(1174.181 719.209)" font-size="103.121" font-family="DejaVu Sans" font-weight="700">8</text></svg>