<svg xmlns="http://www.w3.org/2000/svg" width="472.811" height="836.234" viewBox="0 0 472.811 836.234"><title>2T Législatives 2017 Hauts-de-Seine</title><path d="M332.9,144.316l-14.933,7.163-6.194.172-30.843,35.915L265.267,203.89l.323,20.982-21.232,8.41-21.6-55.083,26.073-26.806,41.417-34.074L339.854,82l58.051-18.448,51.363,11.4L506.929,99.16l2.651,37.657L490.9,170.093l-15.962,15.461-10.8-7.3-46.819,22.215L388.67,173.925l-11.108-37.366-24.193-8.271-4,17.868Z" transform="translate(-37.279 -63.031)" fill="#d00" stroke="#000"/><path d="M334.578,220.3l2.335,11.985,24.813-.943,19.544,16.08,7.743-5.118,65.445-39.186,15.046-7.236,5.461-10.329-10.8-7.3L417.35,200.461,388.7,173.919l-11.121-37.366-24.194-8.271-3.99,17.868-16.5-1.827-14.933,7.17-6.187.165L265.261,203.9l.322,20.988,49.022-20.012,39.457-50.189,15.006,32.947Z" transform="translate(-37.279 -63.031)" fill="#ffeb00" stroke="#000"/><path d="M290.755,263.8,270.479,275.74l-14.492-3.357-5.356-18.792-6.246-20.309,70.247-28.428,39.457-50.189,14.993,32.947-34.5,32.683,2.335,11.985,24.814-.943,19.543,16.08-32.762,14.676L314.289,295.72Z" transform="translate(-37.279 -63.031)" fill="#ffeb00" stroke="#000"/><path d="M96.069,271.868l12.249-12.275L173.591,223.3l49.16-45.09,21.6,55.083L250.6,253.6l5.356,18.792-25.249,48.731,26.153,19.8-5.976,31.891L235.85,409.262l-54.878-4.6-7.176-9.221,26.33-20.626-8.746-21.456Z" transform="translate(-37.279 -63.031)" fill="#ffeb00" stroke="#000"/><path d="M381.264,247.43,348.5,262.1l33.237,48.17L400.4,295l4.868-.646,24.4-16.22,39.978-23.8-15.2-51.217L389,242.305Z" transform="translate(-37.279 -63.031)" fill="#ffeb00" stroke="#000"/><path d="M272.688,361.085l-21.8,11.708,5.976-31.891-26.14-19.8,25.25-48.731,14.477,3.35,20.29-11.938,23.5,31.931,34.24-33.627,33.236,48.171-8.9,10.606L370.5,336.9l-49.522-6.088L309.3,352.84,285.5,344.892Z" transform="translate(-37.279 -63.031)" fill="#06c" stroke="#000"/><path d="M89.308,490.96l1.787-11.9,30.928-17.453,6.972-22.8-56.468,14.5L49.052,412.646l8.324-22.275L48.993,366,68.662,329.24l27.374-57.385,95.331,81.473,8.746,21.457-26.33,20.625,7.176,9.222,54.878,4.6-3.608,22.215-.435,69.264-14.439,30.8-46.646-10.58-46.251-3.159,15.922-26.786Z" transform="translate(-37.279 -63.031)" fill="#ffeb00" stroke="#000"/><path d="M129.793,643.656l48.876-4.433,16.167,18.3,2.2,24.511,35.156,9.716,6.016,10.817L258.9,686.418l5.112-39.015,40.347-50.676-9.445.831L294.1,588.7l-12.519,3.713-2.73-2.671,9.135-8.984-13.706-5.2,5.369-6.543-10.962-8.851-11.273.639-6.787-13.225-14.439-20.915-4.379-25.936-14.432,30.8-46.659-10.58-46.251-3.16L140.393,491,89.3,490.96l1.788-11.9,30.928-17.453,6.972-22.8-56.468,14.5-24.4,3.984L37.793,494.1l6.464,31.706,7.42,26.708-1.787,9.649,26.14,22.868,38.362-4.636,22.829,53.453Z" transform="translate(-37.279 -63.031)" fill="#ffeb00" stroke="#000"/><path d="M231.813,500.728l4.379,25.936,22.249-7.8,36.739,20.961,32.8-34.49-18.911-3.819-10.408-28.171,3.416-11.589-4.274-.152-6.391-2.982-14.959-5.56-6.636-8.759-37.55-12.823Z" transform="translate(-37.279 -63.031)" fill="#06c" stroke="#000"/><path d="M300.839,571.456l51.376,7.487,13.937.554,33.2-14.036L423.583,538.5l-29.59-12.149-25.664-16.662L353.62,528.068l-13.653.257-.66-13.185,7.243-4.881-5.963-7.869-12.6,2.942-32.8,34.49L258.447,518.86l-22.248,7.8,14.438,20.922,6.788,13.225,11.272-.64,10.962,8.852-5.368,6.543,13.706,5.2-9.136,8.984,2.731,2.671,12.519-3.713.811,8.851,9.446-.824Z" transform="translate(-37.279 -63.031)" fill="#ffeb00" stroke="#000"/><path d="M401.012,648.385l28.033-35.493-2.085-21.575-6.246-.9-50.241,1.643-4.3-12.566,33.2-14.036L423.6,538.5,455.435,549.2l46.007,14.953-1.933,4.941-7.044,12.162-7.408,14.756-17.42-.376-2.051,13.614,11.134,4.683,7.895-5.013-4.881,18.423-13.04,51.105-9.611-4.459-12.69,16.074-15.857-1.859-15.652-35.084Z" transform="translate(-37.279 -63.031)" fill="#ffeb00" stroke="#000"/><path d="M370.46,592.062l-4.3-12.558-13.924-.554-51.376-7.487,3.516,25.249L264.042,647.4l-5.125,39.015-20.679,16.147-.178,20.678,5.666,6.141,21.384-6.88,6,10.818,49.252.409,49.3-34.537,5.95-2.559,52.906-8.4-15.639-35.084-11.866-4.749L429.053,612.9l-2.071-21.576-6.259-.9Z" transform="translate(-37.279 -63.031)" fill="#f90" stroke="#000"/><path d="M425.53,861.388l-46.3,19.854L366.72,879.7l-9.663-23.264,22.776-27.689L361.1,796.451l-17.018-14.979-47.754-2.158-42.656-17.987L243.7,729.383l21.383-6.88,6,10.818,49.252.409,49.3-34.537,5.949-2.559,52.906-8.4,15.857,1.86,12.7-16.075,9.6,4.459,17.69,22.888-14.6,42.168-10.026,14.854-15.072,45.842,27.07,21.971-17.974,68.631-23.936,3.859Z" transform="translate(-37.279 -63.031)" fill="#ffeb00" stroke="#000"/><text transform="translate(328.89 65.25)" font-size="72" font-family="DejaVuSansCondensed-Bold, DejaVu Sans" font-weight="700">1</text><text transform="translate(332.091 175.907)" font-size="39.204" font-family="DejaVuSansCondensed-Bold, DejaVu Sans" font-weight="700">2</text><text transform="translate(268.94 204.238)" font-size="44.443" font-family="DejaVuSansCondensed-Bold, DejaVu Sans" font-weight="700">3</text><text transform="translate(240.094 268.188)" font-size="53.895" font-family="DejaVuSansCondensed-Bold, DejaVu Sans" font-weight="700">6</text><text transform="translate(146.319 255.106)" font-size="72" font-family="DejaVuSansCondensed-Bold, DejaVu Sans" font-weight="700">4</text><text transform="translate(74.428 356.34)" font-size="72" font-family="DejaVuSansCondensed-Bold, DejaVu Sans" font-weight="700">7</text><text transform="translate(38.4 507.245)" font-size="72" font-family="DejaVuSansCondensed-Bold, DejaVu Sans" font-weight="700">8</text><text transform="translate(197.248 425.388)" font-size="60.252" font-family="DejaVuSansCondensed-Bold, DejaVu Sans" font-weight="700">9</text><text transform="translate(260.608 506.777)" font-size="47.771" font-family="DejaVuSansCondensed-Bold, DejaVu Sans" font-weight="700">10</text><text transform="translate(222.928 644.153)" font-size="72" font-family="DejaVuSansCondensed-Bold, DejaVu Sans" font-weight="700">12</text><text transform="translate(380.928 527.132)" font-size="46.89" font-family="DejaVuSansCondensed-Bold, DejaVu Sans" font-weight="700">11</text><text transform="translate(332.091 692.126)" font-size="72" font-family="DejaVuSansCondensed-Bold, DejaVu Sans" font-weight="700">13</text><text transform="translate(366.663 204.248)" font-size="35.239" font-family="DejaVuSansCondensed-Bold, DejaVu Sans" font-weight="700">5</text></svg>