<svg xmlns="http://www.w3.org/2000/svg" width="708.127" height="917.857" viewBox="0 0 708.127 917.857"><title>2T Législatives 2017 Seine-et-Marne</title><path d="M243.682,523.729l7.681-4.257,1.483-5.914-6.012-11.087,1.71-12.328-2.256.033L237.5,498.4l-8.429-3.407-1-5.979-13.252-3.238-6.148-.222.066,12.225-5.33,7.484,4.159,3.731,2.424,8.231-1.4,18.246-14.432,6.591,9.912,6.649,2.416,5.6-3.1,4.668-7.792,6.7L182.736,574.9l-6.07,1.545-7.841-4.347-5.153-7.989-11.214-5.852-7.25-1.5-8.629-3.139-3.14-5.2,1-5.975,8.481-8.868,1.447-5.642-9.735-4.561L127.4,528.11l-1.06,5.922-11.325,17.551,6.156.267-7.192,23.292,5.617,1.336,1.356,5.646,2.873.086-1.061,12.945-1.044,6.39-4.8,3.85,2.112,21.164-3.83,1.927-1.035,1.636,3.723,3.6.21,4.821.378,16.688,7.463,2,18.073,24.044,1.421,5.235,15.513,9.994,12.127-30.372,2.113-14.855-.321-2.992,13.06-7.257,6.719-9.834,9.019-11.708-8.991-20.189,2.207-5.56,4.22,2.244,10.964,4.43,3.6-7.73,5.095,10.844.777-1.935-.933-1.973,11.756-8.239,5.827-.621,4.32-7.421,12.673-.427,1.869-5.877-7.2-9.756-5.737-2.313.818-6.152,4.734-2.88-.715-5.359,5.17-2.486-2.938-19.01Z" transform="translate(-49.379 -20.331)" fill="#f90" stroke="#000"/><path d="M86.17,819.285l-4.43-3.7-2.655,1.167-5.733-2.33L67.9,807.014l-.978-2.58.394-29.72-11-19.61L51.9,750.5l-1.837-9.246,5.424,2.605,11.367-3.776,8.4,2.387-2.12-11.855,6.567-8.865-6.871-4.4,6.789-5.765,5.851,1.064-.489-5.987,19.824-8-5.24-7.266,7.418-5.9,12.414,1.755,9.312-8.354,15.353,2.4,1.421,5.235L161,696.525l12.127-30.373L175.24,651.3l-.321-2.992,13.06-7.257,6.719-9.834,9.02-11.707-8.992-20.19,2.207-5.56,4.22,2.244,10.964,4.43,3.6-7.73,5.087,10.845.785-1.936,4.743,4.365,9.39,2.087,28.4-5.079,2.441.9-.777,2.482,8.556,1.627,3.838,4.825,1.969,13.248,8.732,4.254,2.24,5.523L296.4,638.6l11.252-.616,2.654,21.147-8.621-.794-1.574,2.133-1.348,5.77-8.116,3.645-20.81,2.3-2.979,3.686,14.3-.213,2.232,2.059,1.2,14.391,1.454,9.41,9.509,7.849,3.645,7.874L294.149,730.9l-44.608-5.133,6.452,26.79,6.02-.613,3.185-7.89,11.058-4.286,5.051,6.8.448,8.474,5.6,9.2-.506,5.642-2.662.945,15.513,5.1,1.381,5.675,11.543-1.262,8.934,7.557,10.08,3.374,9.711-11.445,11.046,6.937,19.552-41.18-4.142-4.677,10.36-14.555,3.8-4.04.008,17.605,5.265,2.293.242,2.971,14.288,16.972-1.837-8.958,11.959-2.31,10.524-5.782,2.713,8.613-.411,12.082,4.126,1.557,7.158,6.1-4.512,3.887,5.892,10.011-3.024,8.93,11.519,3.472,2.342,20.214-9.037.875-12.077,24.3-4.151,11.556-5.391,2.811-4.952-2.437-10.515,5.112-.428,8.408-9.447,1.524-12.563,12.481.945,14.062-22.038,3.6-17.658,2.7-2.528.4L328.5,917.685l-18.044,11.687-11.227-1.632-1.784-5.4.58-14.77,6.078-6.566.3-2.963-7.274-3.608-5.3,2.482-5.626-1.878-4.7,3.657-5.947-.723-5.338,2.507L259.117,896l10.852,13.117.572,5.7-19.889,7.508-9.674,11.461-18.887-.317-4.808,4.1-1.717.115L200.324,920.91l-21.488,6.5-16.068.033-4.438-8.227-20.082.267L128.656,930.5l.288,2.917-27.138-3.538-11.3,3.177-1.886,2.022-8-1.911.954-5.445L91.8,921.588l6.686-9.418-.152-5.511,6.92-9.037,14.029,7.36,5.219-7.651-3.682-14.65,3.99-11.022,2.98-.83,1.644-4.409-3.4-14.243-2,0,.756-11.44-4.874-1.874-.7-8.712-13.38-.407-4-4.709-.5-6.106-4.673-4.061Z" transform="translate(-49.379 -20.331)" fill="#06c" stroke="#000"/><path d="M235.731,608.058l-9.39-2.088-4.743-4.364-.933-1.968,11.757-8.244,5.827-.62,4.319-7.422,12.673-.427,1.87-5.877-7.2-9.755-5.737-2.314.818-6.152,4.742-2.88-.723-5.359,5.17-2.486-2.931-19.01-7.577-5.367,7.68-4.257,1.484-5.914-6.012-11.087,1.709-12.328-2.256.033,3.082-16.458,11.227-6.814,3.386-7.265-2.309-5.116,3.2-2.684,11,5.334,10.524-11.12,2.779-1.5,5.913,2.137,5.371,4.081,6.082.97,1.278,2.811-6.929,6.114,19.1-9.176,6.14,1.558,1.237-4.652,5.675,1.167,6.67-5.075,8,1.4,7.368-14.568,2.81-.682,9.3,20.313,4.582-2.055,4.734,1.508-1.9,11.733-3.5,4.8,4.632,7.607,11.074-5.367,5.77,2.289,3.353,5.285,15.024-.255,2.828.222-2.688,4.935,4.4,10.376L426.5,486.12l14.72,5.774-.263,13.507-.6,7.977-3.156.246-6.71,10.241-21.188,4.376-5.219,3.6-2.281,5.832-4.59,24.742-9.55,8.014-8.75,3.488-3.829,12.111.961,3.024,6.2,1.06L380.8,601l8.453-1.89,14.255,4.837,11.8,20.727,1.5,8.725,10.82-5.671,5.1,17.9,13.179,7.512,10.721-1.672,3.847,3.3.242,6.321,9.2,19.741-4.438,4.159L465,704.772l10.882,2.688,14.383-2.392,3.419,6.209-4.717,3.855-6.855,13.623-2.317-1.915-.5-5.618-6.037.3-5.009-3.127-8.453,2.844-10.484-2.113-7.265,17.215,1.862,11.214-15.123,19.754-4.126-1.557.411-12.082-2.712-8.613-10.529,5.782-11.95,2.309,1.837,8.959-14.288-16.976-.243-2.967-5.264-2.293-.008-17.605-3.805,4.035-10.356,14.556,4.143,4.68-19.553,41.181-11.05-6.937-9.7,11.445-10.081-3.374-8.933-7.557-11.543,1.261-1.381-5.675-15.513-5.1,2.662-.946.506-5.642-5.609-9.2-.44-8.473-5.051-6.8-11.058,4.286-3.185,7.89-6.02.612-6.452-26.789,44.608,5.133,5.042-13.652-3.645-7.873-9.509-7.853-1.455-9.407-1.195-14.395-2.232-2.059-14.3.218,2.979-3.686,20.81-2.306,8.116-3.649,1.34-5.765,1.582-2.133,8.621.793-2.654-21.147-11.252.621-5.272-2.758-2.24-5.523-8.732-4.253-1.973-13.253-3.83-4.82-8.556-1.627.777-2.482-2.441-.9Z" transform="translate(-49.379 -20.331)" fill="aqua" stroke="#000"/><path d="M633.014,702.147l-3.267,4.915-5.938.057-3.891.97-8.153-3.44-2.947-.127-.707,2.843-16.717-7.754-.945,2.955-5.736-.152-12.859,12.094-14.9-4.706-7.286,2.425-6.1,3.1-6.493-4.743-5.371,1.151-2.408-5.885L523.729,703l-2.679,5.186-13.7,4.311-3.032-4.849-10.57,3.633-3.419-6.209-14.383,2.391-10.881-2.687.48-19.779,4.438-4.158-9.2-19.742-.242-6.32-3.847-3.3-10.721,1.673-13.17-7.512-5.113-17.9L416.881,633.4l-1.508-8.724-11.8-20.728-14.256-4.837L380.866,601l1.447-10.882-6.2-1.06-.962-3.025,3.83-12.11,8.749-3.489,9.55-8.013,4.59-24.743,2.281-5.831,5.219-3.6,21.188-4.377,6.711-10.24,3.156-.247.6-7.976.263-13.508-14.72-5.773-11.022,5.909-4.4-10.376,2.687-4.936-2.827-.222-15.024.255-3.353-5.284-5.77-2.289-11.075,5.366-4.631-7.606,3.5-4.8,1.9-11.732-4.734-1.508-4.582,2.054-9.3-20.312-1.734-6.082-25.289-1.426L320.1,429.6l-6.517-6.534-6.4-.522,3.386-15.64,9.887-7.775,6.238-14.934.818-4.306L320,375.528l-11.552-.863-3.476-12.032-9.7-7.993L299,345.793l6.711-6.086-6.012-7.229-4.183-11.859-11.741-13.976-3.066-8.7,7.808-8.864,10.722-1.381.411.382L305.4,285.7l12.11,1.369,5.289-2.926,5.153,3.02,4.1,1.04,6.526,10.056,5.087,3.168,8.363-12.653,2.1-8.712,9.188-1.192,6.509,3.341-.521,9.694,8.145,3.189,1.121,2.754-1.4,14.374,2.93-.805.547,20.74,2,1.841,9.5-3.44,6.115.678,4.151,8.306,6.081-.888,6.452,9.057,12.739,12.628,4.027,1.607,9.3-1.43,7.956,5.05,1.837,9.275,5.506,3.21.682,3.106,10.981,2.273,2.954-.395.041-2.983,13.911-3.173,7.006-26.7,6.029.961,3.226,5.145,9.4-7.039-7.352-9.9-.739-12.329,15.689-.949,1.6-28.4-.986.239,2.671-10.529-2.055-5.038L517.3,279.8l-11.284,3.049-11.075-3.168-.3-6.353-8.646-16.368.563-5.716,8.49-.427-2.289-1.833.44-5.823,11.284-7.993-4.117-4.52,4.935-15.213,8.388-4.7,3.5-9.057,17.12-18.115,17.407,9.23-4.742,11.256-.083,5.013,5.692,1.5,12.353,3.7,7.778,4.574,10.738-3.365,7.3,4.508,7.125,2.227,4.706-4.463,7-14.7,10.4,12.258,19.141-10.725,3.485-8.552,4.7,18.517-2.947,12.472,6.469,7.163.842,12.85,2.728,1.742,11.556-3.822-4.229,8.741,5.852,2.507,8.835-3.567,3.324,5.445,14.408,4.964L689.952,275.1l10.088,4.393,5.009-11.149,9.111-1.257,3.7,15.484-3.678,8.9,1.2,9.517-3.822,2.766-3.682-6.629-2.827-1.237-15.636,8.223-8.893-1.117-8.042-4.443-6.357,7.007.834,3.041,8.268,4.175,11.975.863,1.076,12.312L688,328.969l-8.277,3.637-5.239-2.938-6.029.349L660.638,350.6l1.2,5.893,6,1.964,11.728-3.949,5.055,3.67.127,9.192,3.6,4.977,14.983-.76-.395,9.081.251,5.462-.082,16,6.542,6.953-3.168.46-1.035,9.349-8.667,4.064-8.445,9.521,2.12,5.162-2.2,2.338,9.871,12.033-4.7,15.295,15.6-2.647,9.349-8.671,15.661,2.865,9.32-2.454-8.8,9.033,1.517,2.79,12.086,3.242,8.79,9.049.049,3.062-28.671,10.52-1.813,2.5,5.893,10.845L718.4,509.417l-4.167,7.684-9.9,6.8-2.128,2.359,10.232,18.981-.378,7.668-5.506,1.291L693.2,564.639l-8.638.106-13.524-4.512-5.379,5,11.806,14.358,6.123,14.235-.16,6.053-8.588-.456-10.187,4.365-11.942,7.294,8.033,9.057-.3,6.127,5.408,7.483L664.9,646.28l-4.52,4.327-2.317,8.856,11.5,3.567-4.2,5.367,9.575.008.11,5.9-3.69,17.157-8.851-.785-9.144-7.081-5.938.165-5.523,6.591-1.454,14.79-4.607,3.168.128-6.037Z" transform="translate(-49.379 -20.331)" fill="#06c" stroke="#000"/><path d="M485.96,256.96l.571-5.716,8.49-.428-2.3-1.832.44-5.824,11.285-7.992-4.11-4.521,4.936-15.213,8.387-4.7,3.5-9.057,17.12-18.114,17.4,9.23-4.733,11.255-.087,5.014,5.692,1.5,12.353,3.7,7.787,4.574,10.738-3.366,7.286,4.508,7.125,2.228,4.71-4.463,6.99-14.7-.514-13.134-4.54-12.357-12.748,7.964-8.683,2.507-2.626-1.492-3.025-5.3,1.652-3.83-4.681-12.139-3.451-11.276-11.125-2.33-1.245-10.8-2.642,1.011-.941-2.893-8.49-3.086-1.027-5.277-5.248-5.843-16.664-6.214-5.2-6.9-2.865,5.626-9,1.072-3.107-1.446-7.15,1.294,2,5.778-1.652,9.143,3.209,4.944-10.693,3.6-2.19-2.318-8.716,3.937-3.546,5.1L455.748,149.6l-.456,3.164-15.336,5.511L435.333,154l-11.572-3.624-4.361,4.368.6,8.934-1.614,4.142,8.469,12.242-4.886,10.882-4.6,4.031-6.029-6.5-8.884-1.521-.917-2.88-.953.534-7.3,4.668.136,2.918-7.344,1.488-3.595,3.961-9.181-3.193-4.849,2.975-.925,9.4-5.128,2.758-.387,2.868-5.658.773-18.275-4.479-9.743,7.849-2.021-.859-6.374,6.016-4.849-3.916-2.811,1.376L301.745,209l.731,2.717-3.875,3.867,3.706,17.206,2.848.916-5.2,10.183-2.072,13.2-8.42,2.273-8.621,5.457,1.364,3.062,1.279,5.843-2.055,5.618,7.023,9.7,10.729-1.381.4.383,5.753-2.376,12.119,1.369,5.28-2.926,5.162,3.02,4.093,1.04,6.533,10.056,5.079,3.168,8.363-12.653,2.113-8.712,9.188-1.191,6.509,3.34-.53,9.695,8.153,3.188,1.114,2.754-1.406,14.374,2.93-.805.547,20.74,2.013,1.841,9.5-3.44,6.123.678,4.151,8.306,6.082-.888,6.451,9.057L427.639,360.3l4.027,1.607,9.3-1.43,7.956,5.05,1.837,9.275,5.5,3.21.682,3.106,10.988,2.273,2.955-.395.041-2.983,13.91-3.173,7-26.7,6.029.961,3.234,5.145,9.39-7.039-7.343-9.895-.74-12.329,15.681-.949,1.607-28.4-.994.239,2.671-10.529-2.046-5.038-2.088-2.552-11.277,3.049-11.074-3.168-.3-6.353Z" transform="translate(-49.379 -20.331)" fill="#06c" stroke="#000"/><path d="M280.346,116.443l-5.474.941-4.536,2.947-.2,11.514-.674,6.941-3.7.045-13.573-5.893,1.644-2.568-4.007-7.923-5.071.686L226.7,119.18l-1.718-2.5,1.685-8.79-8.108-8.416,3.156-.666,3.765-8.617,14.44-6.962-1.068-13.1L251.783,55.55l6.476,18.55,15.682-2.359L288.8,60.206l-10.3-7.253,12.078.358-2.569-5.351,4.71-1.4L303.36,39.7l9.986,11.49,5.8,2,5.909-1.746,6.765,13.775,9.64-1.184L352.5,57.326l2.955,1.364,3.982-7.7L373.2,57.543l5.9-1.565,2.449,1.849,2.84-.785,1.981-8.568,5.482,1.973,7.585-4.361,2.486,1.558,1.936,13.113,8.219,2.285,2.5-10.976,7.109-4.2,5.388-1.911,10.771,3.7,2.35-1.668,19.24,3.152-5.675-9.793-.254-5.708,9.455-14.514,4.521,4.479,21.389,5.174,4.142-1.615,1.447,1.8,9.061.457,7.1,5.58,9.078.736-5.733,13.137,1.751,4.726,5.584,3.255,8.4,13.664L529.2,78.09l5.954,5.729-.033,3.016-5.8,2.219-2.643,12.032-8.033,4.73-.3,5.831-2.864,5.626-9,1.073-3.106-1.447-7.159,1.3,2.006,5.778-1.661,9.143,3.21,4.944-10.693,3.595-2.182-2.317-8.716,3.936-3.555,5.1L455.757,149.6l-.448,3.164-15.345,5.511L435.341,154l-11.572-3.624-4.36,4.368.6,8.934-1.615,4.142,8.47,12.242-4.886,10.881-4.6,4.032-6.028-6.5-8.877-1.521-.924-2.881-.954.535-7.294,4.668.135,2.918-7.351,1.487-3.6,3.962-9.18-3.193-4.841,2.975-.933,9.4-5.129,2.758-.386,2.868-5.659.772-18.274-4.479-9.743,7.849-2.022-.859-6.374,6.017L315.1,217.83l-2.8,1.377L301.753,209l-.642-2.375-1.989-14.112-7.191,3.329-2.367.481-2.063-8.91,5.043-8.14.394-19.125,6.5,2.831-4.007-23.592,6.333-3.123-12.953-10.545-7.36-4.146.691-2.8Z" transform="translate(-49.379 -20.331)" fill="#06c" stroke="#000"/><path d="M251.741,220.033l-8.49-1-4.405-4.7-9.2-1.52,3.1,9.908,1.2,11.625,5.392,6.164,14.518-2.338,4.344.476-3.074.333-.095,12.242-1.282,8.626-11-4.623.251,9.677-7.647,0-9.111,4.685-12.119-.879,1.854-11.19-2.055-11.449-.7.575-4.566-2.971-.916-5.19,3.443-13.331-7.738-5.983-11,8.819-8.621-9.345L171.6,215.537l-2.014-2.1,2-13.914,6.238-4.007L177.7,190l-3.933-3.049-2.449-9.932-15.538-23.979-.3-3.184,6.078-1.763,2.511-5.852-2.5-12.378-2.626-1.15-3.493-10.068-7.738,2.392-1.455-2.589-7.528-1.73-1.981-8.647,5.909,1.114,11.075-4.623L157.6,93.439l6.25-6.4,9.02-.587-13.4-11.244,11-18.915,9.711-8.248,2.326-5.934,5.482.44,8.461-12.908,4.5,8.043,6.25-.5,16.623,13.471,8.428,8.5-.624,5.515-.683,2.84,7.932,2.621,1.068,13.1L225.5,90.192l-3.765,8.618-3.155.665,8.107,8.416L225,116.681l1.718,2.5,18.052,3.953,5.071-.686,4.007,7.923-1.644,2.568,13.573,5.893,3.7-.045.674-6.941.2-11.514,4.537-2.947,5.473-.941,1.784,2.347-.691,2.8,7.368,4.146,12.945,10.545-6.324,3.123,4,23.592-6.493-2.831-.4,19.125-5.042,8.141,2.062,8.909-5.44,7.076L267.8,201.027l-5.071.6-5.564.818-3.337,17.633Z" transform="translate(-49.379 -20.331)" fill="#ffeb00" stroke="#000"/><path d="M215.887,359.037l-8.844,2.351-3.612-5.055,2.256-4.413-4.734-3.165.1-4.992,5.026-5.5L192.1,326.811l.226-3.069,4.808-3.465-4.212-7.894-.419-.2.673-15.267,6.23-10.536,12.41-1.352-12.656-11.967L194.074,262.2l5.971-1.73,13.179-13.807.707-.576,2.055,11.449-1.854,11.19,12.119.879,9.1-4.684,7.647,0-.242-9.678,10.988,4.623,1.29-8.626.095-12.241,3.065-.333-4.344-.477-14.51,2.338-5.391-6.164-1.2-11.625-3.09-9.908,9.2,1.521,4.4,4.7,8.5,1,2.079.054,3.333-17.634,5.564-.818,5.071-.6,16.327,2.388,5.44-7.077,2.376-.48,7.191-3.329,1.989,14.112.641,2.375.731,2.716-3.875,3.867,3.707,17.206,2.84.917-5.195,10.183-2.071,13.2-8.42,2.272-8.63,5.458,1.365,3.061,1.282,5.844-2.055,5.617,7.023,9.7-7.8,8.864,3.057,8.7-8.321,1.619-4.7-6.534-2.745-.152-1.919,8.918-8.613,2.334-3.411,4.684,4.192,14.967-2.881,1.171-9.937,4.015-2.433,1.944,2.61,12.057-6.172,10.807-10.964.567-7.611,3.818Z" transform="translate(-49.379 -20.331)" fill="#ffeb00" stroke="#000"/><path d="M164.306,416.864l-5.3-2.338,3.653-6.435-2.021-1.829-3.362-5.732-.411-1.611,7.455-12.908L173,377.887l-4.2-11.305,7.167-6.148-1.221-9.057,10.491-.509-5.087-11.235-9.349.9-2.375-2.113,7.105-17.292-4.422-3.694,3.008-8.034-2.56-1.258,2.137-6.3,3.106-.929,15.715,11.251.419.206,4.212,7.894-4.808,3.464-.226,3.07,13.98,11.449-5.026,5.5-.1,4.993,4.734,3.164-2.256,4.414,3.612,5.054,8.844-2.35,4.943,7.812,7.6-3.818,10.963-.567,6.181-10.808-2.618-12.056,2.433-1.944,9.945-4.015,2.881-1.171-4.195-14.967,3.41-4.684,8.613-2.334,1.919-8.918,2.745.152,4.706,6.534,8.321-1.619L295.482,320.6l4.183,11.86,6.012,7.228-6.711,6.086-3.731,8.848,9.7,7.993,3.477,12.032,11.551.863,7.512,4.36-.817,4.307-6.238,14.933-9.887,7.775-3.386,15.64,6.4.522,6.518,6.534,10.828-6.464,25.289,1.426,1.735,6.082-2.811.682-7.368,14.568-7.993-1.4-6.677,5.075-5.675-1.167-1.237,4.651-6.14-1.557-19.1,9.176,6.928-6.114-1.278-2.811-6.082-.97-5.371-4.081-5.913-2.137-2.778,1.5-10.516,11.12-11-5.334-3.2,2.684,2.31,5.116-3.386,7.265L249.4,473.7l-3.082,16.458-8.79,8.219-8.428-3.407-1-5.979-13.253-3.238-5.777-6.078-5.643.892-4.664-3.28-4.648-1.134-.793-12.271-9.349-7.59-3.049.518-1.438,2.811-14.872-3.456-4.734,2.679-11.741-1.257-3.5-4.093-8.646-7.023,8.33-13.454,5.769-.884,5.018,3.243,5.744-6.345,5.717-.826Z" transform="translate(-49.379 -20.331)" fill="#ffeb00" stroke="#000"/><path d="M156.761,254.137,158.31,242.4l-6.752-6.176,4.3-4.537,11.863-4.541-.328-6.127,3.62-4.96.579-.51,12.234,3.115,8.622,9.345,11-8.819,7.729,5.984L207.742,238.5l.916,5.19,4.566,2.971-13.179,13.807-5.979,1.73,5.087,10.857,12.657,11.967-12.4,1.352-6.23,10.536-.673,15.267L176.79,300.926l-3.115.929L167.9,283.408l-7.561-17.662,5.272-2.606,2.93-8.132Z" transform="translate(-49.379 -20.331)" fill="#ffeb00" stroke="#000"/><path d="M134.656,523.359l-5.963.4-2.128-9.213,14.087-12.521.641-10.952-9.912-5.737-5.289-13.581,2.375-1.9,11.7-1.783,1.085-9.386,3.353-5.182,3.5,4.093,11.741,1.257,4.734-2.679,14.872,3.456,1.438-2.811,3.049-.517,9.349,7.59.793,12.27,4.647,1.134,4.665,3.28,5.642-.892,5.778,6.078-6.148-.222.066,12.225-5.33,7.484,4.159,3.731,2.424,8.231-1.4,18.246-14.432,6.591,9.912,6.649,2.416,5.6-3.1,4.668-7.792,6.7-12.858,9.225-6.07,1.545-7.841-4.347-5.153-7.989-11.218-5.852-7.241-1.5-8.63-3.139-3.147-5.2,1.01-5.975,8.482-8.868,1.447-5.642Z" transform="translate(-49.379 -20.331)" fill="#ff8080" stroke="#000"/><text transform="translate(487.963 469.314)" font-size="17.648" font-family="DejaVuSansCondensed-Bold, DejaVu Sans" font-weight="700">4</text><text transform="translate(275.795 590.955)" font-size="17.648" font-family="DejaVuSansCondensed-Bold, DejaVu Sans" font-weight="700">3</text><text transform="translate(158.265 788.753)" font-size="17.648" font-family="DejaVuSansCondensed-Bold, DejaVu Sans" font-weight="700">2</text><text transform="translate(109.24 584.43)" font-size="17.648" font-family="DejaVuSansCondensed-Bold, DejaVu Sans" font-weight="700">1</text><text transform="translate(107.349 467.05)" font-size="17.648" font-family="DejaVuSansCondensed-Bold, DejaVu Sans" font-weight="700">11</text><text transform="translate(147.016 390.819)" font-size="17.648" font-family="DejaVuSansCondensed-Bold, DejaVu Sans" font-weight="700">9</text><text transform="translate(371.775 239.318)" font-size="17.648" font-family="DejaVuSansCondensed-Bold, DejaVu Sans" font-weight="700">5</text><text transform="translate(327.931 102.692)" font-size="17.648" font-family="DejaVuSansCondensed-Bold, DejaVu Sans" font-weight="700">6</text><text transform="translate(147.016 136.262)" font-size="17.648" font-family="DejaVuSansCondensed-Bold, DejaVu Sans" font-weight="700">7</text><text transform="translate(119.16 230.856)" font-size="17.648" font-family="DejaVuSansCondensed-Bold, DejaVu Sans" font-weight="700">10</text><text transform="translate(195.196 271.97)" font-size="17.648" font-family="DejaVuSansCondensed-Bold, DejaVu Sans" font-weight="700">8</text></svg>