<svg xmlns="http://www.w3.org/2000/svg" width="957.46" height="909.639" viewBox="0 0 957.46 909.639"><title>Députés sortants du Pas-de-Calais en 2017</title><path d="M604.974,629.868l0.22-4-6.311-11.092-7.082-1.791,2.446-5.429-2.466-8.625-2.832,1.164-10-6.786-6.524-9.459-2.219.517,1.13,4.347-6.124-1.2-15.329-14.784-5.532-1.33-9.617,23.582-1.7,12.738-3.693,1.3-2.9-2.046-6.028,1.66-3.7-4.9-14.42,4.926-2.439-1.943-1.936-3.548-4.5.475-5.036-6.448-1.943,1.109-8.563.53-7.33,4.3-1.2-4.616-5.539-1.991-4.485,4.375-15,5.525-0.227,4.292-1.447.951-9.039,1.419-5.835-8.185L412,612.286l-4.54-7.179-4.113,3.6,0.717,11.939,6.069,8.123-8.253,3.3-7.723,8.467,1.261,12.049,0.344,0.737-2.473,1.474,2.942,10.947,0.861,10.2-1.867,2,12.449,13.379-2.962,8.185-6.083,2.708-7.84,3.755-8.7,12.042,1.867,8.384-2.7,4.292-4.871.806-2.611-1.33-5.146,2.549-6.986-10.334,5.677-10.548-5.553-2.59-3.3-5.1-2.728-.572-3.8-7.447-1.481,2.728-11.7,3.955-3.672,6.641-18.484-3.968L316,709.853l2.115,0.813,5.167,17.444-12.945,10.561L298.411,734.3l-10.169-11.2,0.234,9.149-4.892,7.723,5.326,4.885,5.036,2.212,8.433-1.454,6.751,5.029,6.386,6.676,9.218,1.047,7.861,6.317-7.8,7.468-0.42,5.6,2.432,1.35,0.317,5.388,8.853,9.266,1.24,14.6,6.393-5.133,10.493,3.445,4.32-6.793,8.06,2.6,3.5,4.561,4.74,11.009,13.785-15.969,3.038,0.544,0.407-2.487,5.016,0.3,6.883-2.5,0.241-2.528,14.357-2-0.985,7.785,4.726-1.626,13.248-3.713,9.328-11.863,12.484,8.3,6.455,5.146,9.776-5.663,2.8,0.365,2.322,5.174,2.439-7.9-6.145-10.175-2.68,1.323-0.868-2.77,10.6-4.264,2.211,3.741,14.688,25.546,3.575-.861L510.9,785.43l1.488,0.6,2.714,0.592,10.258-8.729,6.09,5.491,11.388,0.944,8.908-2.7,4.416,9.762,9.328,10.417,5.67,0.338,2.177,2.694,3.589,4.857,0.379,4.568-6.042,2.949-6.731,2.459-13.51,9.266-6.152-1.833-11.395,5.381-3.528,1.4-0.172,8.171-6.6-.572-2.6,7.633-5.3.875,1.261,9.445-3.4,5.222-3.7,18.5-2.535,9.066,11.374-.854,1.468,3.369,10.024,5.346,3.121,11.064,5.746,0.31,9.638-26.71,2.26-6.352,2.97-6.187,8.412-2.26,3.851-2.942,8.846-.73,13.972-2.887,10.183,23.52L608,878.67l-1.991-2.253,0.772-8.681,3.107-5.153,2.976-.434,7.013,5.677,4.726-3.024,2.466,1.343,3.506,0.406-9.948,13.482-0.159,2.012,3.7,6.462,7.778,1.412,2.315,4.774,14-3.4,8.143,2.735-0.041,1.977,3,4.65,6.889,5.119,5.263-5.36,9.108,6.07,6.042-1.309,5.422,2.735,7.144,10.113,8.866-6.076-12.553-13.627,0.751-3.073,8.584-3.886-3.741-14.833,2.329-1.578,11.037,2.094,11.478,11.925,8.57,1.929,8.247-2.99,1.55,2.563-1.637,10.706,2.163,7.592-4.32,10.851-8.219,8.756,1.936,8.24-12.525,11.484,5.773,7.013,5.759,1.15,8.033-3.41,3.025-5.064,7.95-1.557,0.717-1.109,6.731-10.21,1.936,2.459,7.2-5.642,4.94,2.535,3.9-8.005,10.251-5.518,0.751,15.508,4.7,0.978,6.731,14.3-3.658,8.481-8.77,2.356,0.269,5.739,0.551,2.267,8.681,2.287,4.334-3.141-1.653-2.26,4.065-3.83,7.888-4.878,12.194,0.937,1.867-11.912,3.259,3.762,5.353-.71,3.017-4.767,5.195-2.6,7.565,2.9,4.32,3.148,1.385,4.857,13.062-8.253,7.606-3.824,3.017-3.128,7.578,3.548,3.217-3.038,18.229,7.385,7.592,3.727,9.232-7.7-2.556-1.461-0.028-8.1,7.186-3.844-6.124-6.5,0.7-6.028,8.722,1.109,6.042-10.424-2.6-11.319-2.935.138-0.186-6.159-6.256-9.376L928.9,878.3l23.066-14.826,0.124-3.162-11.719-3.665-8.474-12.5-3.025-1.13-16.445,14.3,2.68,15.232-2.976,1.9-8.811-3.328-8.908,1.647-7.254,12.966L878.951,889l-5.9-6.669,1.075-9-4.478-7.482,5.291-10.968,2.384,1.343,6.662-4.6,4.161,2.459,7.751-2.384,0.51-5.553,11.56-7.461,1.523-5.408,16,1.846,3.39,7.819,3,1.13,8.6-4.271,12.807-.276,5.436-10.775,5.608-2.59-7.048-8.557-0.847-5.091-6.848-2.749,0.806-2.825,5.973-15.239,21.136,0.145-0.737-2.639,3.81-3.906,1.6-7.964-5.195-.365-1.895-5.58L958.928,767l1.116-14.888-6.407-2.542-3.107-.9-14.8-2.136-17.63-5.312-8.963,2.329-0.214-.248-4.182-2.962-4.926-.765-5.759,6.187-1.213,2.411-9.19,2.184-3.755-3.286,1.791-14.481,12.2-3.452,4.788,4.065,6.311,0.744,0.069-6.841-4.45-3.748,6.325-7.723,4.023-4.623,6.166,0.069,4.981-3.624-3.417-4.533L908.1,691.2l0.427-3.541-8.453-11.96-4.616,1.647-14.84-14.123-2.666.779-1.44-2.384-7.344,7.936-14.881,3.706-12.5,4.375-8.474-5.284-11.464,9.769-3.017,1.461,3.727,8.522-0.806,6.228-5.635,3.018-4.21,1.4-3.093,2.487-4.292,11.023,3.81,8.584,4.788,3.589-4.884,1.357,0.083,4.547-12.015,1.895-9.583,8.7-1-.3-11.574,3.079-2.811,4.981,8.839,15.818-4.76,7.427-10.644,2.542-1.386,2.495-0.138.3-8.57-15.68-13.634,6.628-6.283,2.838-5.463-1.006-9.7,4.857-7.344-.675-2.8,1.915L704.8,769.3l-15.136-8.543-1.653-1.578,5.277-4.457,0.889-7.675-5.339-5.443-1.963-5.9,6.793-5.932-16.224-3.086,2.728-5.525-2.439-5.684,0.751-11.822-4.671-5.057,1.695-5.022-8.088-3.024-0.592-2.859-5.126-5.174,4.547-11.877,0.186-9.514,4.547-.9,0.833-4.891-4.657-4.533-3.052-12.3-11.615-4.382-0.792,1.86-15-2.143-1.164,3.231-10.024,4.3-7.475-5.057-5.863,1.674-6.393-8.143Z" transform="translate(-25.911 -64.109)" fill="#ff8080" stroke="#000" stroke-width="2"/><path d="M729.231,774.068l-9.7,4.857-7.33-.675-2.811,1.915-4.643-10.851-15.136-8.543-1.667-1.578,5.291-4.457,0.889-7.675-5.353-5.443-1.95-5.9,6.779-5.932L677.381,726.7l2.721-5.525-2.439-5.684,0.751-11.822-4.657-5.057,1.695-5.022-8.1-3.024-0.592-2.859-5.112-5.174,4.533-11.877,0.2-9.514,4.547-.9,0.82-4.891-4.643-4.533-3.052-12.3,3.459-5.16,1.24,1,3.245-5.022,5.353,1.895,2.528-5.629-4.857-7.716,1.426-2.728,2.8-1.3,7,5.594,12.056,0.71,13.875,3.665,4.533-3.562,16.052,9.542,7.751-8.088,8.866-1.392,6.214,12.3,25.9,7.881,4.009,3.328,7.482-.186,0.51-6.028,10.4-5.759,5.828,1.957,3.162,5.415L824,637.4l7.51,7.861,9.287-2.149L844.8,643.6l3.052,3.934,8.612-3.989,12.608-.82,5.181,10,3.865,6.882-1.695,2.053-7.358,7.936L854.188,673.3l-12.5,4.375-8.474-5.284-11.464,9.769-3.017,1.461,3.727,8.522-0.806,6.228-5.635,3.018-4.21,1.4-3.093,2.487-4.292,11.023,3.81,8.584,4.788,3.589-4.884,1.357,0.083,4.547-12.015,1.895-9.583,8.7-1-.3-11.574,3.079-2.811,4.981,8.839,15.818-4.76,7.427-10.644,2.542-1.316,2.494-0.138.3-8.57-15.68-13.634,6.628-6.283,2.838Z" transform="translate(-25.911 -64.109)" fill="#ffeb00" stroke="#000" stroke-width="2"/><path d="M738.669,590.523l-9.149-2.6,1.867-2.425-1.584-9.025,4.444-3.624,1.523-7.964,7.991-11.746,5.918,5.821,4.547,3.479,8.247-2.776,1.805,10.189,0.889,5.139,8.005-2.6,6.366,9.4,12.194-8.439-1.3-2.432,3.768-3.879,8.853-8.715-0.055-9.459,1.977-1.757,7.537,3.1,8.157-6.421,6.662,6.049-5.008,3.713-2.3,9.122,1.061,0.179,14.44,0.028,2.487,5.794-13.255,13.372L824.09,588.2l2.611,1.777,2.625,0.965L825.048,604.9l3.162,11.636-1.468,3.906-3.713-4.478-14.261.165-0.241-6.6-1.867-.792-5.3,1.874,0.11,1.908h4.375l0.214,0.9-4.147,6.731L798.6,622.6l-4.168,1.667-2.556-.076-1.564-1.1L789,628.7l4.168,2.322-7.64,12.787-4.009-3.328-25.89-7.881L749.4,620.3l8.77-7.33,7.668-1.281,2.962-4.03-10.9-2.342-9.955-17.168Z" transform="translate(-25.911 -64.109)" fill="#ff8080" stroke="#000" stroke-width="2"/><path d="M218.434,701.069L214,696.88l-3.638-10.768-9.948-6.049-0.255-1.695L187.846,675.5,182.72,671.6l-10.086-8.55-7.454.131-17.63-1.97-3.982,4.182-8.618,2.322-6.021,6.145-20.62,8.205-1.35-3.693-8.949,8.336-8.763,2.163,1.192-2.825-7.42-4.843L80,680.959l-2.9-11.078-5.98-7.661,1.185-3.431L69.28,653.25l-6.083-1.8-3.528,2.308-4.76-4.623-1.44-2.756-2.59,4.01-2.749-4.878-4.361.827L43.6,648.482l-4.251-5.374L36.1,634.78l-9.094-7.7,7.585-37.85,3.086-28.722,1.213-15.074L40,516.283l4.326-15.48,3.08-.682,3.017,5.7,8.618,4.423,14.178,13.3,3.362,2.342,12.993,2.122-16.8-7.323L64.96,503.868l-6.731-6.421L41.6,474.912l-2.439-9.128,1.213-6.125,30.169-1.13,6.352-11.078,2.266-1.777,6.538,5.332,5.27-2.315,8.391-3,7.7,4.471,4.884-4.32,7.193,3.961,9.824-3.486,7.42,5.408,14.888-2.191,8.811-8.853,4.141-11.76,9.349-1.419,11.037,6.455,3.093,5.422,6.414-10.32,13.655-7.647,13.462-8.894-2.859-2.962,1.1-15.935,10.375,2.446,11.016,1.867,5.208,2.1,5.656,1.364,5.312,7.778,9.507,1.709,1.963,2.584,7.682-4.2,5.718,1.488,2.666-5.2,4.257,1.846,2.487,5.656,5.911,1.895,6.9,9.79-5.167,11.147-7.881,3.865,7.261,3.975,0.572,2.776,8.508-4.216-1.509,2.845,5.808,17.83,12.594,9.845,8.109,13.779,10.479-3.183,0.468,2.28,20.509-4.078,0.806-2.935,10.5-5.264,0.62-.248-0.427,2.48,4.409,1.571,5.257-2.143,14.171,1.033,8.364,7.351-7.875,5.567,4.354,4.926,8.371,0.641-0.159,8.267-11.484,9.6-0.868,20.985,10.279,10.534,6.483,4.375-1.578,5.539,5.635,10.127-12.952,6.662-5.911-1.212-4.54,3.734L395.98,572.2l-8.088-.73-7.441,3.679,5.243,5.615-0.833,2.459,0.9,3.011,6.069,1.474,6.745,6.462,4.781,14.516,0.717,11.939,6.069,8.123-8.253,3.3-7.723,8.467,1.261,12.049,0.344,0.737-2.473,1.474,2.942,10.947,0.861,10.2-1.867,2L407.684,691.3l-2.956,8.185-6.09,2.708-7.84,3.755-8.7,12.042,1.867,8.384-2.7,4.292-4.871.806-2.611-1.33-5.146,2.549-6.979-10.334,5.67-10.548-5.553-2.59-3.3-5.1-2.728-.572-3.8-7.447-1.481,2.728-11.7,3.955-3.672,6.641L316.62,705.45l-0.613,4.382,2.115,0.813,5.167,17.444L310.344,738.65l-11.926-4.375-10.169-11.2,0.241,9.149-4.9,7.723-14.275-6.173-5.78-7.365-6.173,3.934-2.163-1.419-6.545-10.637,14.709-11.409,2.556-5.739-3.355-7.234-7.034-5.084L250,691.286l-10.107,14.805-12.077-.613-0.91-4.609-2.363.179Z" transform="translate(-25.911 -64.109)" fill="#06c" stroke="#000" stroke-width="2"/><path d="M45.03,326.537l-2.935,1.219,5.057-5.1-2.68-2.694L40.2,324.181l-1.977,6.6,1.006,2.136-0.847.875L36.026,331.3l1.309-7.826L35.4,326.585l-4.892-.448,6.5,8.922-6.82,15,0.682,6.545,5.594,26.035,3.8,22.962-0.179,30.113,0.269,23.968,30.169-1.13,6.352-11.078,2.266-1.777,6.538,5.332,5.27-2.315,8.391-3,7.7,4.471,4.884-4.32,7.193,3.961,9.824-3.486,7.42,5.408,14.888-2.191,8.811-8.853,4.141-11.76,9.349-1.419,11.037,6.455,3.093,5.422,6.414-10.32,13.648-7.647,13.469-8.894-2.859-2.962-12.132,1.95-27.53-3.321-5.422-.276-5.718-.565-7.13-8.8-3.562-10.231-0.9-4.933-2.453-.723-8.2-1.908,1.674-5.656-6.531-4.671-6.235-7.11,6.228-6.889-2.556-8.935,3.652-8.612-0.448-9.48L139.3,327.9l-0.165-4.657,1.653-5.339-3.879-4.03-4.919-11.953-6.586-.3L114.1,288.949l-7.626-4.278L90.494,295.094,84.122,291.2l-0.427-8.543,2.122-1.915-0.51-6.318,6.958-6.566-8-16.211-5.477.675-10.059,3.217-5.539.372-5-3.018-3.011,1.068L55.772,288.8l-6.111,14.55,0.606,3.224-1.254,11.884L48,321.2l3.961,2.57,2.26,5.877-3.279-5.642Z" transform="translate(-25.911 -64.109)" fill="#ff8080" stroke="#000" stroke-width="2"/><path d="M261.748,184.182l-4.416-3.81-5.16,2.639-12.7-1.068-21.715-12.022,0.11-.31-1.1-12.222-3.555-5.16-8.219-4.5-4.147-4.016,3.025,6.262,3.548,1.316-19.325,29.025L179,189.246,167.791,174.3l-19.359,9.652-14.206-8.143-1.991-3.279L126,166.463l-5.884-.971-13.062-15.625L91.981,171.389,73.986,185.464l-13.634,4.044-16.087,1.137-2.411,2.191L40.214,205.76,46.16,227.7l3.121,12.773L52.7,251.388l5.463,1.488,5.008,3.018,5.539-.372L78.774,252.3l5.477-.675,8,16.211-6.958,6.566,0.51,6.318-2.122,1.915,0.427,8.543,6.373,3.892,15.969-10.424,7.633,4.278,11.3,12.676,6.586,0.3,4.919,11.953,3.886,4.03-1.653,5.339,0.165,4.657,1.791,1.522,0.448,9.48-3.652,8.612,2.556,8.935-6.228,6.889,6.235,7.11,6.531,4.671-1.674,5.656,8.192,1.908,2.459,0.723,0.9,4.933,3.555,10.231,7.137,8.8,5.718,0.565,5.422,0.276,27.53,3.321,12.132-1.95,1.1-15.935,10.375,2.446,11.016,1.867,5.208,2.1,5.649,1.364,5.312,7.778,9.507,1.709,1.963,2.584,7.682-4.2,5.711,1.488,2.673-5.2,4.257,1.846,2.48,5.656,5.918,1.895,6.9,9.79-5.167,11.147-7.881,3.865,7.261,3.975,0.572,2.776,8.5-4.216-1.509,2.845,5.815,17.83,12.587,9.845,8.115,13.779,10.479-3.183,0.468,2.28,20.509-4.078,0.806-2.935,10.5-5.264,0.62-.248-0.427,2.48,4.409,1.571L385,475.071l14.165,1.033,8.364,7.351-7.868,5.567,4.354,4.926,8.364,0.641-0.151,8.267-11.484,9.6-0.868,20.985,10.272,10.534,6.49,4.375-1.578,5.539,5.635,10.127-12.952,6.662-5.918-1.212L397.3,573.2l-1.364-1.006-8.088-.73-7.441,3.679,5.243,5.615-0.833,2.459,0.9,3.011,6.069,1.474,6.745,6.462,4.781,14.516,4.113-3.6,4.54,7.179,15.776-7.378,5.835,8.185,9.039-1.419,1.454-.951,0.227-4.292,15-5.525,4.485-4.375L469.3,598.5l1.206,4.616,7.33-4.3,8.563-.53,1.943-1.109,5.036,6.448,4.5-.475,1.936,3.548,2.439,1.943,14.412-4.926,3.707,4.9,6.021-1.66L529.3,609l3.686-1.3,1.708-12.738,9.617-23.582-0.71-.875,1-1.013-7.082-5.629-2.087-12.139,2.115-1.826,12.3-10.568-8.763-16.652-3.141,2.143-5.332-.689-3.644-7.213-8.1,7.434-5.553-1.633-4.692-6.531-5.2-18.174-1.233-1.66-8.137-7.372,0.62,5.629-4.21,3.582-9.617,2.508-4.74-9.032-2.873-.468-2.824-5.071,1.426-11.574,2.57-13.3-2.411-5.408-8.15-3.018-2.28-17.575-1.984-2.149-2.639-10.871-10.851-3.555-20.33,17.375-2.466-2.067L423.9,424.5l4.63-14.75-8.756-8.949-1.481-2.852-12.807-.048-0.434-5.133,2.8-4.34,5.277-1.433,2.39-7.427,5.649-1.192-1.13-2.418,4.347-6.152-7.165-14.592,4.636-6.476-18.3-18.753,8.756-5.284L410,320.515,399.526,318.1l-2.942-4.685-0.868-9.714,1.881-.978-1.261-5.532-9.2-9.714-4.471.138L362.538,303.63l-7.075-.5-1.412,2.122-7.833-9.17-16.059,6.889-0.021-.6,14.406-12.821,12.1-4.492,9.184-8.977-9.631-1.75,16.831-14.158,25.511-12.456,12.215-8.949-1.888-17.2-3.2-4.5-6.269-1.1L387.787,221.2l-18.581-4.843-0.324-11.546L362.565,191.6l-11.629,19.318L337.75,215.66l-5.511-1.357-12.752,12.463-9.087,1.543-4.161,8.763-1.619-.207,2.907-14.006L300.734,218l-8.088-21.426,2.584-1.557-2.914-.544-4.85-18.112-3.038-12.594-6.745-6.82Z" transform="translate(-25.911 -64.109)" fill="#ffeb00" stroke="#000" stroke-width="2"/><path d="M284.434,163.8l-6.745-6.82-15.928,27.206-4.423-3.81-5.16,2.639-12.7-1.068-21.715-12.022,0.11-.31-1.1-12.222-3.555-5.16-8.219-4.5-4.147-4.016,3.025,6.262,3.548,1.316L188.1,180.318l-9.094,8.929L167.8,174.3l-19.359,9.652-14.206-8.143-1.991-3.279-6.235-6.069-5.884-.971-13.062-15.625,7.716-7.826,14.061-13.476,23.176-12.318,34.55-10.086,5.277-1.123,3.617-3.4,2.473,3.589-4.368,4.113,8.35-4.175-4.257-4.051,10.782-.586-8.412-2.749,16.624-3.052,5.739,1.833,13.317-9.183L253.26,82.3l17.892-1.461,38.7-7.241,7.2-6.221,9.624-2.246L339.081,67.9l12.4,14.716-0.468,3.3,7.068,4.85,2.219,8.2,6.166,6.545,3.6,14.523,5.566,13.854,8.336,19.428,13.606,34.357,0.916,3.038,1.164,9.452,6.614,10.644-0.565,6.283-6.269-1.1-11.6,5.229-18.587-4.843-0.317-11.546-6.317-13.214-11.636,19.318-13.186,4.747-5.511-1.357-12.745,12.463-9.094,1.543-4.161,8.763-1.626-.207,2.907-14.006-6.793-4.857L292.681,196.6l2.584-1.557-2.914-.544-4.85-18.112Z" transform="translate(-25.911 -64.109)" fill="#ff8080" stroke="#000" stroke-width="2"/><path d="M530.708,381.038l-0.951-3.328-6.345-9.686-2.983-.572-12.476,8.185-3.472-5-4.6-6.979,13.262-12.883-11.595-10.093v-0.165l-6.283-5.966-4.643-10.8-4.712-2.646,1.474-9.28,12.553-10.058,10.823-3.169,17.189-10.871-4.588-1.984,0.407-2.556-10.417-5.456-7.165-5.1-3,1.02-2.032,5.973L498,279.7l-11.588-5.1-12.594-1.426-3.775-4.416-14.075,9.418-0.558-9.053-8.164,3.314-11.051-4.444-7.062-7.861-9.4-10.479-7.778-2.528-1.213-8.329-12.222,8.949L373.01,260.192,356.179,274.35l9.631,1.75-9.184,8.977-12.1,4.492-14.4,12.821,0.014,0.6L346.2,296.1l7.833,9.17,1.412-2.122,7.082,0.5,20.124-16.018,4.471-.138,9.2,9.714,1.261,5.532-1.881.978,0.868,9.714,2.942,4.685,10.479,2.418,2.308,4.182L403.537,330l18.3,18.753-4.636,6.476,7.165,14.592-4.347,6.152,1.13,2.418-5.649,1.192-2.39,7.427-5.27,1.433-2.811,4.34,0.434,5.133,12.807,0.048,1.481,2.852,8.756,8.949-4.636,14.75,1.392,9.494,2.466,2.067,20.33-17.375,10.858,3.555,2.632,10.871,1.991,2.149,2.28,17.575,8.143,3.018,2.411,5.408-2.57,13.3-1.426,11.574,2.824,5.071,2.873,0.468,4.74,9.032,9.617-2.508,4.21-3.582L496.02,489l8.137,7.372,1.233,1.66,5.208,18.174,4.685,6.531,5.553,1.633,8.109-7.434,3.638,7.213,5.332,0.689,3.141-2.143,8.763,16.652,4.3-1.922,1.564,1.8,5.029-3.514,5.367,2.749,5.491-2.48,2.377-11.292,2.914,0.7,7.592-4.733,0.372-3.424-7.744-5.477-8.26,4.981-4.884-.338L565,507.5l5.45-7.227-13.31-8.253-11.636,10.734-1.984-1.695-1.4-1.419,0.007-1.033,0.634-10.306,3.107-5.091,8.2-4.361-3.031-8.625,0.813-5.043-5.222-6.579,1.261-2.577,20.923-5.195-0.82-1.95-5.787.785-2.976-4.2,6.9-6.007,8.46-20.048L561.8,413.253l-0.889-2.714,3.155-4.354-13.1-13.71-12.084-3.1-5.064-8.054Z" transform="translate(-25.911 -64.109)" fill="#ff8080" stroke="#000" stroke-width="2"/><path d="M760.791,377.842l-7.317,5.815-15.7-.648-6.028,11.409-0.214.648,19.593,15.715-4.74,4.092L734.749,411l-2.584,1.722-5.815,16.8,0.861,6.028,10.334,21.743,3.658,6.889,4.953,10.761,6.028,13.779,5.594-1.936,5.381,1.722,1.075-15.287-3.872-11.843-11.2-3.872,1.722-3.018,9.473-19.807,11.843-10.12,1.722-1.3,5.815-6.889H791.8l4.519-3.231L782.113,393.55l-5.815-6.242-8.4-2.149Zm-160.6,25.621-6.235.214-4.306,4.74-6.028,1.722-8.825,2.149-10.761-6.028-3.017,4.306,0.861,2.584,12.7,6.242-8.4,20.02-6.889,6.028,3.017,4.306,5.821-.861,0.861,1.936-21.1,5.167-1.075,2.584,5.167,6.676-0.861,4.953,3.017,8.612-8.184,4.306-3.017,5.167-0.648,10.334v1.075l1.3,1.3,1.936,1.722,11.629-10.761,13.351,8.4-5.381,7.1-1.075,9.039,4.96,0.214,8.184-4.953,7.751,5.381-0.427,3.445L597,535.215l7.537-4.74,1.075-8.825,4.953,2.8H623.7l4.092-4.74,3.017,0.214,7.1,1.3,1.3,6.676,5.167,2.584,10.334-7.1,2.584,4.953-0.648,8.4,11.629,9.473,3.231-1.722,6.242-1.3,3.231-7.964V524.881l-7.964-6.889L673.66,504l6.676-5.167,3.445-4.74-0.648-8.4,12.056-10.12,7.964,10.334,4.092-1.075,1.722-6.242,9.686-7.964,0.427-3.018-11.843-9.686,7.317-6.242,4.953-11.629-11.843,4.092,2.783-4.953-1.922-5.381,3.644-4.74-4.306-14.426-12.056.214-9.473-6.462-3.231.214-2.8,9.039L656.2,425.185l-8.612-8.825-1.509-6.028-12.056,1.936L632.3,407.1l-2.584.648-4.092,4.092h-6.028l-2.15,7.316-1.509-2.8-9.039.427-2.584-1.722-1.936-2.37Z" transform="translate(-25.911 -64.109)" fill="#ffd1dc" stroke="#000" stroke-width="2"/><path d="M588.95,600.1l-10-6.786-6.524-9.459-2.219.517,1.13,4.347-6.124-1.2-15.329-14.784-5.532-1.33-0.7-.875,0.992-1.013-7.082-5.629-2.087-12.139,2.115-1.826,12.3-10.568,4.3-1.922,1.564,1.8,5.029-3.514,5.367,2.749,5.491-2.48,2.377-11.292,2.914,0.7,7.592-4.733,12.387,14.481,7.5-4.692,1.15-8.7,4.974,2.652,13.227,0.1,3.927-4.719,3.059,0.22,7.02,1.185,1.3,6.662,5.195,2.652,10.375-7.124,2.666,4.981-0.765,8.467,11.615,9.307,3.272-1.764,6.214-1.164,3.272-8.026-0.055-10.306-7.964-6.9,0.806-13.916,6.717-5.181,3.362-4.829-0.717-8.329,12.2-10.134,7.847,10.341-2.019,5.766,9.08,6.3L711.84,513.1l-7.034,3.693,3.307,8.143-8.371,22.859,2.287,2.046-2.962,3.086-5.084,3.031-5.222,8.088,8.088,7.151,2.584,7.4-4.63,7.344,3.217,5.456,8.143,4.871,12.3,0.62,0.51,4.258-2.032,2.253,2.487,11.519-2.721,5.312-4.533,3.562-13.875-3.665-12.056-.71-7-5.594-2.8,1.3-1.426,2.728,4.857,7.716-2.528,5.629-5.367-1.895-3.231,5.022-1.24-1-3.459,5.16L652.433,634.1l-0.806,1.86-15-2.143-1.164,3.231-10.024,4.3-7.475-5.057-5.863,1.674-6.4-8.143-0.737.028,0.22-4-6.311-11.092-7.082-1.791,2.446-5.429-2.466-8.625Z" transform="translate(-25.911 -64.109)" fill="#ff8080" stroke="#000" stroke-width="2"/><path d="M819.991,562.669l2.3-9.122,5.022-3.713-6.662-6.049L820,534.133l9.783-7.337,13.951-3.775,7.254,1.571,0.957-2.37,17.306,14.84,8.247,3.589,1.481,2.294,8.184,8.24-4.32,7.806-0.592,4.14-4.774,11.485,4.912,3.486-0.172,9.177,7.9-2.535,5.029,2.439,1.86-2.129,2.68-5.532,7.4-5.2,4.506-2.156,0.751,10.741,8.184,2.873-4.133,4.678L912.763,602.4l-17.306,2.267-5.546,10.7-8.722,7.413-11.223,3.252-2.177-1.619-6.566-1.089,5.8,7.289,2.06,12.1-12.608.82-8.612,3.989-3.052-3.934L840.8,643.1l-9.287,2.149-7.51-7.861-11.112,1.839-3.162-5.415-5.828-1.957-10.4,5.759-0.51,6.028-7.482.186,7.626-12.787-4.168-2.322,1.33-5.615,1.564,1.1,2.556,0.076,4.161-1.667,3.307-2.446,4.161-6.731-0.214-.9h-4.389l-0.11-1.908,5.3-1.874,1.867,0.792,0.241,6.6,14.275-.165,3.713,4.478,1.468-3.906-3.176-11.636,4.278-13.958L826.693,590l-2.611-1.777,0.648-6.159L838,568.69l-2.5-5.794-14.426-.028Z" transform="translate(-25.911 -64.109)" fill="#ff8080" stroke="#000" stroke-width="2"/><path d="M699.723,547.809l8.371-22.859-3.307-8.143,7.034-3.693-1.667-15.108-9.08-6.3,2.019-5.766,4.051-1.144,1.708-6.1,9.769-8.04,0.51-3.141L707.1,457.972l7.372-6.221,4.995-11.767-11.87,4.2,2.728-4.953-1.86-5.443,3.727-4.747,12.366,7.93,2.542-1.516,10.43,21.825,3.631,6.986,4.94,10.6,6.166,13.786,3.954,10.616-1.089,8.4,2.57,1.529,6.214-1.123L770,510.393l16.038-2.749,5.8-1.075,11.974-5.718,2.611-1.55,0.041,4.306-2.907,23.238,2.921-.069,2.88,5.084,5.663,1.192,1.86-2.246L820,534.14l0.648,9.652-8.171,6.421-7.537-3.1-1.977,1.757,0.069,9.459-8.853,8.715-3.782,3.879,1.3,2.432-12.194,8.439-6.366-9.4-8.005,2.6-0.889-5.139-1.791-10.189-8.247,2.776-4.547-3.479-5.918-5.821-7.991,11.746-1.523,7.964-4.444,3.624,1.584,9.025-1.867,2.425,9.149,2.6,9.245-2.37,9.941,17.168,10.9,2.342-2.962,4.03-7.668,1.281-8.756,7.33-8.866,1.392-7.751,8.088-16.052-9.542,2.721-5.312-2.487-11.519,2.032-2.253-0.51-4.258-12.3-.62L698,591.419l-3.217-5.456,4.63-7.344-2.584-7.4-8.088-7.151,5.222-8.088,5.084-3.031,2.962-3.086Z" transform="translate(-25.911 -64.109)" fill="#ff8080" stroke="#000" stroke-width="2"/><text transform="translate(256.002 118.33)" font-size="114.762" font-family="DejaVu Sans" font-weight="700">7</text><text transform="translate(170.653 271.578)" font-size="149.883" font-family="DejaVu Sans" font-weight="700">6</text><text transform="translate(20.548 368.74)" font-size="149.883" font-family="DejaVu Sans" font-weight="700">5</text><text transform="translate(137.398 565.684)" font-size="149.883" font-family="DejaVu Sans" font-weight="700">4</text><text transform="translate(561.531 762.359)" font-size="149.883" font-family="DejaVu Sans" font-weight="700">1</text><text transform="translate(676.163 675.843)" font-size="124.112" font-family="DejaVu Sans" font-weight="700">2</text><text transform="translate(803.147 550.723)" font-size="44.322" font-family="DejaVu Sans" font-weight="700">11</text><text transform="translate(743.973 553.585)" font-size="44.322" font-family="DejaVu Sans" font-weight="700">3</text><text transform="translate(687.916 482.087)" font-size="44.173" font-family="DejaVu Sans" font-weight="700">12</text><text transform="translate(578.884 527.53)" font-size="44.173" font-family="DejaVu Sans" font-weight="700">10</text><text transform="translate(574.678 438.91)" font-size="98.046" font-family="DejaVu Sans" font-weight="700">9</text><text transform="translate(728.786 352.251)" font-size="30.623" font-family="DejaVu Sans" font-weight="700">9</text><text transform="translate(402.123 339.353)" font-size="106.864" font-family="DejaVu Sans" font-weight="700">8</text></svg>