<svg xmlns="http://www.w3.org/2000/svg" width="950.928" height="903.433" viewBox="0 0 950.928 903.433"><title>Députés sortants du Pas-de-Calais en 2017</title><path d="M608.656,641.736l0.219-3.975-6.268-11.016-7.034-1.779L598,619.574l-2.449-8.566-2.812,1.156-9.928-6.74-6.48-9.394-2.2.513,1.122,4.317-6.083-1.191-15.224-14.683-5.494-1.321L538.9,607.087l-1.69,12.651-3.668,1.293L530.661,619l-5.987,1.649L521,615.784l-14.321,4.892-2.422-1.929-1.923-3.524-4.468.472-5-6.4-1.929,1.1-8.5.527-7.28,4.27-1.191-4.584-5.5-1.977L464,612.971l-14.9,5.487-0.226,4.263-1.437.944-8.977,1.409-5.8-8.129L417,624.275l-4.509-7.13-4.085,3.572,0.712,11.858,6.028,8.067-8.2,3.277-7.67,8.409,1.252,11.967,0.342,0.732-2.456,1.464,2.922,10.872L402.2,687.49l-1.854,1.991,12.364,13.288-2.942,8.129-6.042,2.689-7.786,3.729-8.642,11.96,1.854,8.327-2.682,4.263-4.837.8-2.593-1.321-5.111,2.532-6.938-10.263,5.638-10.475-5.515-2.573-3.277-5.07-2.709-.568-3.77-7.4-1.471,2.709-11.618,3.927-3.647,6.6-18.358-3.941-0.6,4.352,2.1,0.807,5.132,17.325L316.033,749.8l-11.844-4.345-10.1-11.119,0.233,9.086-4.858,7.67,5.289,4.851,5,2.2,8.375-1.444,6.705,4.995,6.343,6.63,9.155,1.04,7.807,6.274-7.746,7.417-0.417,5.563,2.415,1.341,0.315,5.351,8.792,9.2,1.232,14.5,6.349-5.1,10.421,3.421,4.29-6.746,8.005,2.58,3.476,4.529,4.707,10.934,13.691-15.86,3.017,0.541,0.4-2.47,4.981,0.3,6.836-2.484,0.239-2.511,14.259-1.991-0.978,7.732,4.694-1.615,13.157-3.688,9.264-11.782,12.4,8.245,6.411,5.111,9.709-5.624,2.778,0.363,2.306,5.139,2.422-7.841-6.1-10.106L476.8,791.4l-0.862-2.751,10.53-4.235,2.2,3.715L503.256,813.5l3.551-.855,8.423-16.408,1.478,0.6,2.7,0.588,10.188-8.669,6.048,5.453,11.31,0.937,8.847-2.682,4.386,9.7,9.264,10.345,5.631,0.335,2.162,2.675,3.565,4.824,0.376,4.536-6,2.929L568.5,830.24l-13.418,9.2-6.11-1.82-11.317,5.344-3.5,1.389-0.171,8.115-6.555-.568-2.586,7.581-5.269.869,1.252,9.381-3.373,5.186-3.674,18.371-2.518,9,11.3-.848,1.457,3.346,9.956,5.31,3.1,10.989,5.706,0.308,9.572-26.527,2.244-6.309,2.949-6.144,8.354-2.244,3.825-2.922,8.785-.725,13.876-2.867,10.113,23.359,9.175-8.183-1.977-2.237,0.766-8.621,3.086-5.118,2.956-.431,6.965,5.638,4.694-3L630.6,876.4l3.483,0.4-9.88,13.39-0.157,2,3.674,6.418,7.725,1.4,2.3,4.742,13.9-3.373,8.088,2.716-0.041,1.964,2.983,4.618,6.842,5.084,5.227-5.323,9.046,6.028,6-1.3,5.385,2.716,7.1,10.044,8.806-6.035-12.467-13.534,0.746-3.052,8.525-3.859-3.716-14.731,2.313-1.567,10.961,2.08,11.4,11.844,8.512,1.916,8.19-2.969,1.539,2.545L745.46,911.2l2.149,7.54-4.29,10.777-8.163,8.7,1.923,8.183L724.639,957.8l5.734,6.965,5.72,1.143,7.978-3.387,3-5.029,7.9-1.546,0.712-1.1,6.685-10.14,1.923,2.443,7.15-5.6,4.906,2.518,3.873-7.951,10.181-5.481,0.746,15.4L795.812,947l6.685,14.2-3.633,8.423-8.71,2.34,0.267,5.7,0.547,2.251,8.621,2.272,4.3-3.12-1.642-2.244,4.037-3.8,7.834-4.844,12.111,0.93,1.854-11.83,3.237,3.736,5.316-.7,3-4.735,5.159-2.58,7.513,2.881L856.6,959l1.375,4.824,12.973-8.2,7.554-3.8,3-3.106,7.526,3.524,3.2-3.017,18.1,7.335,7.54,3.7,9.169-7.643-2.538-1.451-0.028-8.046L931.6,939.3l-6.083-6.459,0.7-5.987,8.662,1.1,6-10.352-2.58-11.242-2.915.137-0.185-6.117-6.213-9.312,1.375-2.607,22.908-14.725L953.4,870.6l-11.639-3.64-8.416-12.419-3-1.122L914,867.625l2.661,15.128-2.956,1.888-8.751-3.3-8.847,1.635-7.2,12.877-8.149,3.25-5.864-6.623,1.067-8.936-4.448-7.431,5.255-10.893,2.367,1.334,6.616-4.564,4.133,2.443,7.7-2.367,0.506-5.515,11.481-7.41,1.512-5.371,15.888,1.834,3.366,7.766,2.983,1.122,8.539-4.242,12.72-.274,5.4-10.7,5.57-2.573-7-8.5-0.841-5.056-6.8-2.73,0.8-2.805,5.932-15.135,20.992,0.144L977.9,800l3.784-3.879,1.587-7.91-5.159-.363-1.882-5.542-16.038-4.372,1.108-14.786-6.363-2.525-3.086-.9-14.7-2.121-17.509-5.275-8.9,2.313-0.212-.246-4.153-2.942-4.892-.759-5.72,6.144-1.2,2.395L885.43,761.4l-3.729-3.264,1.779-14.382,12.118-3.428,4.755,4.037,6.268,0.739,0.068-6.794-4.42-3.722,6.281-7.67,4-4.591,6.124,0.068,4.947-3.6-3.394-4.5-10.516-11.645,0.424-3.517-8.4-11.878-4.584,1.635-14.738-14.027-2.648.773-1.43-2.367-7.294,7.882-14.779,3.681-12.412,4.345-8.416-5.248-11.385,9.7-3,1.451,3.7,8.464-0.8,6.185-5.6,3-4.181,1.389-3.072,2.47-4.263,10.948,3.784,8.525,4.755,3.565-4.851,1.348,0.082,4.516-11.933,1.882-9.517,8.642-0.992-.294-11.495,3.058-2.792,4.947,8.779,15.71-4.728,7.376-10.571,2.525-1.377,2.478-0.137.3-8.512-15.573L743.8,783.117l-6.24,2.819-5.426-1-9.634,4.824-7.294-.67-2.778,1.9L707.8,780.216l-15.033-8.484-1.642-1.567,5.241-4.427,0.883-7.622-5.3-5.405L690,746.853l6.747-5.891L680.629,737.9l2.709-5.487-2.422-5.645,0.746-11.741L677.024,710l1.683-4.988-8.033-3-0.588-2.839-5.091-5.139,4.516-11.8,0.185-9.449,4.516-.9,0.828-4.858-4.626-4.5-3.031-12.213-11.536-4.352-0.787,1.847-14.9-2.128L639,648.893l-9.956,4.27-7.424-5.022L615.8,649.8l-6.349-8.088Z" transform="translate(-33.544 -79.839)" fill="#ff8080" stroke="#000" stroke-width="2"/><path d="M732.062,784.951l-9.634,4.824-7.28-.67-2.792,1.9-4.612-10.777-15.033-8.484-1.656-1.567,5.255-4.427,0.883-7.622-5.316-5.405-1.936-5.857,6.733-5.891-16.107-3.065,2.7-5.487-2.422-5.645,0.746-11.741-4.626-5.022,1.683-4.988-8.047-3-0.588-2.839-5.077-5.139,4.5-11.8,0.2-9.449,4.516-.9,0.814-4.858-4.612-4.5-3.031-12.213,3.435-5.125,1.232,0.992,3.223-4.988,5.316,1.882,2.511-5.59-4.824-7.663,1.416-2.709,2.778-1.293,6.952,5.556,11.974,0.7,13.78,3.64,4.5-3.537,15.943,9.476,7.7-8.033,8.806-1.382,6.172,12.22,25.727,7.827,3.982,3.3,7.431-.185,0.506-5.987,10.332-5.72,5.789,1.943,3.14,5.378,11.036-1.827,7.458,7.807,9.223-2.135,3.982,0.486,3.031,3.907,8.553-3.962,12.521-.814,5.145,9.928,3.838,6.835-1.683,2.039-7.307,7.882-14.779,3.681-12.412,4.345-8.416-5.248-11.385,9.7-3,1.451,3.7,8.464-0.8,6.185-5.6,3-4.181,1.389-3.072,2.47-4.263,10.948,3.784,8.525,4.755,3.565-4.851,1.348,0.082,4.516-11.933,1.882-9.517,8.642-0.992-.294-11.495,3.058-2.792,4.947,8.779,15.71-4.728,7.376-10.571,2.525-1.307,2.477-0.137.3-8.512-15.573-13.541,6.582-6.24,2.819Z" transform="translate(-33.544 -79.839)" fill="#ff8080" stroke="#000" stroke-width="2"/><path d="M741.436,602.66l-9.086-2.58,1.854-2.408-1.574-8.963,4.413-3.6,1.512-7.91,7.937-11.666,5.878,5.782,4.516,3.455,8.19-2.757,1.793,10.12,0.883,5.1,7.951-2.586,6.322,9.333,12.111-8.382-1.293-2.415,3.743-3.852,8.792-8.655-0.055-9.394,1.964-1.745,7.485,3.079,8.1-6.377,6.616,6.008-4.974,3.688L822.23,575l1.054,0.178,14.341,0.027,2.47,5.754L826.93,594.237l-0.657,6.117,2.593,1.765,2.607,0.958-4.249,13.862,3.14,11.556-1.457,3.88-3.688-4.447-14.163.164-0.239-6.555-1.854-.787-5.269,1.861,0.109,1.9h4.345l0.212,0.9-4.119,6.685-3.284,2.429-4.139,1.656-2.538-.075L792.727,635l-1.307,5.576,4.139,2.306-7.588,12.7-3.982-3.3-25.713-7.827-6.185-12.22,8.71-7.28,7.615-1.273,2.942-4-10.824-2.326L750.647,600.3Z" transform="translate(-33.544 -79.839)" fill="#ff8080" stroke="#000" stroke-width="2"/><path d="M224.759,712.451l-4.4-4.16L216.747,697.6l-9.88-6.008-0.253-1.683-12.234-2.853-5.091-3.866-10.017-8.491-7.4.13-17.509-1.957-3.955,4.153-8.559,2.306-5.98,6.1-20.479,8.149-1.341-3.667-8.888,8.279-8.7,2.148,1.184-2.805-7.369-4.81-3-.246-2.881-11-5.939-7.609,1.177-3.407-3-5.5-6.042-1.786-3.5,2.292-4.728-4.591-1.43-2.737-2.573,3.982-2.73-4.844-4.331.821-0.171,2.128L46.9,654.887l-3.223-8.272-9.032-7.643,7.533-37.591,3.065-28.525,1.2-14.971,1.1-28.956,4.3-15.374,3.059-.677,3,5.665,8.559,4.393L80.539,536.14l3.339,2.326,12.9,2.107L80.1,533.3l-7.766-16.7-6.685-6.377L49.133,487.841l-2.422-9.066,1.2-6.083,29.962-1.122,6.309-11,2.251-1.765,6.493,5.3,5.234-2.3,8.334-2.976,7.649,4.441,4.851-4.29,7.143,3.934,9.757-3.462,7.369,5.371,14.786-2.176,8.751-8.792,4.112-11.68,9.285-1.409,10.961,6.411,3.072,5.385,6.37-10.25,13.561-7.595,13.37-8.833-2.839-2.942,1.095-15.826,10.3,2.429,10.941,1.854,5.173,2.087,5.617,1.355,5.275,7.725,9.442,1.7,1.95,2.566,7.629-4.174,5.679,1.478,2.648-5.166,4.228,1.834,2.47,5.617,5.87,1.882,6.856,9.723-5.132,11.071-7.827,3.839,7.212,3.948,0.568,2.757,8.45-4.187-1.5,2.826,5.768,17.708,12.508,9.778,8.053,13.684,10.407-3.161,0.465,2.265,20.369-4.051,0.8-2.915,10.427-5.228,0.616-.246-0.424,2.463,4.379,1.56L390.238,488l14.075,1.026,8.306,7.3-7.821,5.529,4.324,4.892,8.313,0.636-0.157,8.211-11.406,9.538-0.862,20.841,10.209,10.462,6.438,4.345-1.567,5.5,5.6,10.058-12.863,6.616-5.87-1.2-4.509,3.709-1.355-1-8.033-.725-7.39,3.654,5.207,5.576-0.828,2.443,0.9,2.99,6.028,1.464,6.7,6.418,4.748,14.417,0.712,11.858,6.028,8.067-8.2,3.277-7.67,8.409,1.252,11.967,0.342,0.732-2.456,1.464,2.922,10.872,0.855,10.126-1.854,1.991,12.364,13.288-2.935,8.129-6.048,2.689-7.786,3.729-8.642,11.96,1.854,8.327-2.682,4.263-4.837.8-2.593-1.321-5.111,2.532L367,733.593l5.631-10.475-5.515-2.573-3.277-5.07-2.709-.568-3.77-7.4-1.471,2.709-11.618,3.927-3.647,6.6L322.273,716.8l-0.609,4.352,2.1,0.807,5.132,17.325L316.04,749.775,304.2,745.43l-10.1-11.119,0.239,9.086-4.865,7.67-14.177-6.131-5.741-7.314-6.131,3.907-2.149-1.409-6.5-10.564,14.608-11.331,2.538-5.7-3.332-7.184-6.986-5.05-5.494,2.443-10.037,14.7-11.994-.609-0.9-4.577-2.347.178Z" transform="translate(-33.544 -79.839)" fill="#06c" stroke="#000" stroke-width="2"/><path d="M52.54,340.48l-2.915,1.211,5.022-5.063-2.661-2.675-4.242,4.187-1.964,6.555,1,2.121-0.841.869-2.34-2.47,1.3-7.773-1.923,3.086-4.858-.445,6.452,8.861-6.774,14.9,0.677,6.5L44.029,396.2,47.8,419l-0.178,29.907,0.267,23.8L77.85,471.59l6.309-11,2.251-1.765,6.493,5.3,5.234-2.3,8.334-2.976,7.649,4.441,4.851-4.29,7.143,3.934,9.757-3.462,7.369,5.371,14.786-2.176,8.751-8.792,4.112-11.68,9.285-1.409,10.961,6.411,3.072,5.385,6.37-10.25,13.555-7.595,13.377-8.833-2.839-2.942-12.049,1.936-27.341-3.3-5.385-.274-5.679-.561-7.082-8.737L163.6,401.862l-0.89-4.9-2.436-.718-8.142-1.9,1.663-5.617-6.486-4.639-6.192-7.061,6.185-6.842-2.538-8.874,3.627-8.553-0.445-9.415-1.779-1.512L146,337.21l1.642-5.3-3.852-4L138.9,316.033l-6.541-.294-11.228-12.59-7.574-4.249L97.694,309.252l-6.329-3.866L90.941,296.9l2.107-1.9-0.506-6.274,6.911-6.521-7.944-16.1-5.439.671-9.99,3.2-5.5.369-4.968-3L62.62,268.4,63.209,303,57.14,317.449l0.6,3.2-1.245,11.8-1.006,2.73,3.934,2.552,2.244,5.836-3.257-5.6Z" transform="translate(-33.544 -79.839)" fill="#ff8080" stroke="#000" stroke-width="2"/><path d="M267.776,199.1l-4.386-3.784-5.125,2.621-12.61-1.061-21.567-11.94,0.109-.308L223.1,172.489l-3.531-5.125L211.41,162.9l-4.119-3.989,3,6.22,3.524,1.307L194.626,195.26l-9.032,8.868-11.132-14.841-19.227,9.586-14.109-8.088-1.977-3.257-6.192-6.028-5.843-.965-12.973-15.518L99.17,186.393,81.3,200.371l-13.541,4.016-15.977,1.129-2.395,2.176-1.628,12.836,5.9,21.792,3.1,12.686,3.4,10.838,5.426,1.478,4.974,3,5.5-.369,9.99-3.2,5.439-.671,7.944,16.1L92.527,288.7l0.506,6.274-2.107,1.9,0.424,8.484,6.329,3.866,15.86-10.352,7.581,4.249,11.221,12.59,6.541,0.294,4.885,11.871,3.859,4-1.642,5.3,0.164,4.625,1.779,1.512,0.445,9.415-3.627,8.553,2.538,8.874L141.1,377.01l6.192,7.061,6.486,4.639-1.663,5.617,8.136,1.9,2.443,0.718,0.89,4.9L167.114,412l7.089,8.737,5.679,0.561,5.385,0.274,27.341,3.3,12.049-1.936,1.095-15.826,10.3,2.429L247,411.392l5.173,2.087,5.611,1.355,5.275,7.725,9.442,1.7,1.95,2.566,7.629-4.174,5.672,1.478,2.655-5.166,4.228,1.834,2.463,5.617,5.878,1.882,6.856,9.723L304.7,449.086l-7.827,3.839,7.212,3.948,0.568,2.757,8.443-4.187-1.5,2.826,5.775,17.708,12.5,9.778,8.06,13.684,10.407-3.161,0.465,2.265,20.369-4.051,0.8-2.915,10.427-5.228,0.616-.246-0.424,2.463,4.379,1.56L390.19,488l14.068,1.026,8.306,7.3-7.814,5.529,4.324,4.892,8.306,0.636-0.15,8.211-11.406,9.538-0.862,20.841,10.2,10.462,6.445,4.345-1.567,5.5,5.6,10.058-12.863,6.616-5.878-1.2-4.5,3.709-1.355-1-8.033-.725-7.39,3.654,5.207,5.576L390,595.407l0.89,2.99,6.028,1.464,6.7,6.418,4.748,14.417,4.085-3.572,4.509,7.13,15.669-7.328,5.8,8.129,8.977-1.409,1.444-.944,0.226-4.263,14.9-5.487,4.454-4.345,5.494,1.977,1.2,4.584,7.28-4.27,8.5-.527,1.929-1.1,5,6.4,4.468-.472,1.923,3.524,2.422,1.929,14.314-4.892,3.681,4.865,5.98-1.649,2.887,2.032,3.66-1.293,1.7-12.651,9.552-23.421-0.7-.869,0.992-1.006-7.034-5.59-2.073-12.056,2.1-1.813,12.22-10.5-8.7-16.538-3.12,2.128-5.3-.684-3.619-7.164-8.047,7.383-5.515-1.622-4.66-6.486-5.166-18.05-1.225-1.649-8.081-7.321,0.616,5.59-4.181,3.558-9.552,2.491-4.707-8.97-2.853-.465L477,498.98l1.416-11.495,2.552-13.205-2.395-5.371-8.094-3-2.265-17.454-1.971-2.135-2.621-10.8-10.777-3.531L432.653,449.25,430.2,447.2l-1.382-9.429,4.6-14.649-8.7-8.888-1.471-2.833-12.72-.048-0.431-5.1,2.785-4.311,5.241-1.423,2.374-7.376,5.611-1.184-1.122-2.4,4.317-6.11-7.116-14.492,4.6-6.432L408.616,343.9l8.7-5.248L415.02,334.5l-10.407-2.4-2.922-4.653-0.862-9.648,1.868-.972-1.252-5.494-9.135-9.648-4.441.137-19.993,15.908-7.027-.5-1.4,2.107-7.78-9.107-15.949,6.842-0.02-.6,14.307-12.733,12.022-4.461,9.121-8.915-9.566-1.738L378.3,274.569,403.635,262.2l12.131-8.888-1.875-17.085-3.182-4.468-6.226-1.088-11.529,5.193-18.454-4.81-0.322-11.468L367.9,206.461l-11.55,19.186-13.1,4.714-5.474-1.348L325.12,241.391l-9.025,1.533-4.133,8.7-1.608-.205,2.887-13.91-6.747-4.824-8.033-21.279,2.566-1.546-2.894-.541-4.817-17.988L290.3,178.825l-6.7-6.774Z" transform="translate(-33.544 -79.839)" fill="#ff8080" stroke="#000" stroke-width="2"/><path d="M290.308,178.853l-6.7-6.774L267.79,199.1l-4.393-3.784-5.125,2.621-12.61-1.061L224.1,184.935l0.109-.308-1.095-12.138-3.531-5.125-8.163-4.468-4.119-3.989,3,6.22,3.524,1.307L194.633,195.26l-9.032,8.868-11.132-14.841-19.227,9.586-14.109-8.088-1.977-3.257-6.192-6.028-5.843-.965-12.973-15.518,7.663-7.773,13.965-13.383,23.017-12.234,34.314-10.017,5.241-1.115,3.592-3.38,2.456,3.565-4.338,4.085,8.293-4.146-4.228-4.023,10.708-.582-8.354-2.73,16.51-3.031,5.7,1.82,13.226-9.121,17.434-5.036,17.769-1.451,38.433-7.191L322.7,83.1l9.558-2.231,12.323,2.751L356.9,98.231l-0.465,3.277,7.02,4.817,2.2,8.142,6.124,6.5,3.579,14.423,5.528,13.76,8.279,19.3,13.513,34.122,0.91,3.017,1.156,9.387,6.569,10.571-0.561,6.24-6.226-1.088L393,235.89l-18.46-4.81-0.315-11.468-6.274-13.123L356.4,225.674l-13.1,4.714-5.474-1.348L325.17,241.418l-9.032,1.533-4.133,8.7-1.615-.205,2.887-13.91-6.747-4.824L298.5,211.435l2.566-1.546-2.894-.541-4.817-17.988Z" transform="translate(-33.544 -79.839)" fill="#ff8080" stroke="#000" stroke-width="2"/><path d="M534.9,394.608l-0.944-3.3-6.3-9.62-2.963-.568L512.3,389.244l-3.449-4.967-4.564-6.931,13.171-12.795-11.515-10.024v-0.164l-6.24-5.925-4.612-10.729-4.68-2.627,1.464-9.216,12.467-9.99,10.749-3.147,17.071-10.8L527.6,299.96l0.4-2.538L517.661,292l-7.116-5.063-2.983,1.013-2.018,5.932-3.134.075-11.509-5.07-12.508-1.416-3.749-4.386-13.979,9.353-0.554-8.991L452,286.741l-10.975-4.413-7.013-7.807-9.333-10.407-7.725-2.511-1.2-8.272-12.138,8.888-25.337,12.371L361.562,288.65l9.566,1.738-9.121,8.915-12.022,4.461-14.3,12.733,0.014,0.6,15.949-6.842,7.78,9.107,1.4-2.107,7.034,0.5,19.986-15.908,4.441-.137,9.135,9.648,1.252,5.494-1.868.972,0.862,9.648,2.922,4.653L415,334.52l2.292,4.153-8.7,5.248,18.173,18.625-4.6,6.432,7.116,14.492-4.317,6.11,1.122,2.4-5.611,1.184L418.1,400.54l-5.234,1.423-2.792,4.311,0.431,5.1,12.72,0.048,1.471,2.833,8.7,8.888-4.6,14.649,1.382,9.429,2.449,2.053,20.191-17.256,10.783,3.531,2.614,10.8,1.977,2.135,2.265,17.454,8.088,3,2.395,5.371-2.552,13.205L476.964,499l2.805,5.036,2.853,0.465,4.707,8.97,9.552-2.491,4.181-3.558-0.616-5.59,8.081,7.321,1.225,1.649,5.173,18.05,4.653,6.486,5.515,1.622,8.053-7.383,3.613,7.164,5.3,0.684,3.12-2.128,8.7,16.538,4.27-1.909,1.553,1.793,4.995-3.489,5.33,2.73,5.453-2.463,2.36-11.214,2.894,0.691,7.54-4.7,0.37-3.4-7.691-5.44-8.2,4.947-4.851-.335,1.061-8.84,5.412-7.177-13.219-8.2-11.557,10.66-1.971-1.683-1.389-1.409,0.007-1.026,0.629-10.236,3.086-5.056,8.142-4.331-3.011-8.566,0.807-5.008-5.186-6.534,1.252-2.559,20.78-5.159-0.814-1.936-5.748.78-2.956-4.174,6.856-5.966,8.4-19.911-12.706-6.11-0.883-2.7,3.134-4.324-13.007-13.616-12-3.079-5.029-8Z" transform="translate(-33.544 -79.839)" fill="#ff8080" stroke="#000" stroke-width="2"/><path d="M763.407,391.434l-7.267,5.775-15.593-.643L734.56,407.9l-0.212.643,19.459,15.607-4.707,4.064-11.557-3.845-2.566,1.711L729.2,442.757l0.855,5.987,10.263,21.594,3.633,6.842,4.92,10.688,5.987,13.684,5.556-1.923,5.344,1.711,1.067-15.183L762.982,474.4l-11.119-3.845,1.711-3,9.408-19.671,11.762-10.051,1.711-1.286,5.775-6.842H794.2l4.489-3.209-14.109-19.459-5.775-6.2-8.341-2.135ZM603.9,416.88l-6.192.212-4.276,4.707-5.987,1.711-8.765,2.135-10.688-5.987-3,4.276,0.855,2.566,12.617,6.2-8.341,19.884-6.842,5.987,3,4.276,5.781-.855,0.855,1.923-20.951,5.132-1.067,2.566,5.132,6.63-0.855,4.92,3,8.553-8.128,4.276-3,5.132L546.4,511.385v1.067l1.286,1.286,1.923,1.711,11.55-10.688,13.26,8.341-5.344,7.054-1.067,8.977,4.926,0.212,8.128-4.92,7.7,5.344-0.424,3.421,12.4,14.54,7.485-4.707,1.067-8.765,4.92,2.778h13.041l4.064-4.707,3,0.212,7.054,1.286,1.286,6.63,5.132,2.566,10.263-7.054,2.566,4.92-0.643,8.341,11.55,9.408,3.209-1.711,6.2-1.286,3.209-7.91V537.467l-7.91-6.842,0.643-13.9,6.63-5.132,3.421-4.707-0.643-8.341L698.253,488.5l7.91,10.263,4.064-1.067,1.711-6.2,9.62-7.91,0.424-3-11.762-9.62,7.267-6.2,4.92-11.55-11.762,4.064,2.764-4.92L711.5,447.02l3.619-4.707-4.276-14.328-11.974.212-9.408-6.418-3.209.212-2.778,8.977-23.948,7.485-8.553-8.765-1.5-5.987L637.5,425.624l-1.711-5.132-2.566.643-4.064,4.064h-5.987l-2.135,7.266-1.5-2.778-8.977.424L608,428.4l-1.923-2.354Z" transform="translate(-33.544 -79.839)" fill="#ffd1dc" stroke="#000" stroke-width="2"/><path d="M592.741,612.171l-9.928-6.74-6.48-9.394-2.2.513,1.122,4.317-6.083-1.191-15.224-14.683-5.494-1.321-0.7-.869,0.985-1.006-7.034-5.59-2.073-12.056,2.1-1.813,12.22-10.5,4.27-1.909,1.553,1.793,4.995-3.489,5.33,2.73,5.453-2.463,2.36-11.214,2.894,0.691,7.54-4.7,12.3,14.382L608.1,543l1.143-8.642,4.94,2.634,13.137,0.1,3.9-4.687,3.038,0.219,6.972,1.177,1.286,6.616,5.159,2.634,10.3-7.075,2.648,4.947-0.76,8.409,11.536,9.244,3.25-1.752,6.172-1.156,3.25-7.971-0.055-10.236-7.91-6.856,0.8-13.821,6.671-5.145,3.339-4.8-0.712-8.272,12.118-10.065,7.793,10.27-2,5.727,9.018,6.254,1.656,15-6.986,3.667,3.284,8.088-8.313,22.7,2.271,2.032-2.942,3.065-5.049,3.011-5.186,8.033,8.033,7.1,2.566,7.349-4.6,7.294,3.2,5.419,8.088,4.837,12.213,0.616,0.506,4.228-2.018,2.237,2.47,11.44-2.7,5.275-4.5,3.537-13.78-3.64-11.974-.7-6.952-5.556-2.778,1.293-1.416,2.709,4.824,7.663-2.511,5.59-5.33-1.882-3.209,4.988-1.232-.992-3.435,5.125-11.536-4.352-0.8,1.847-14.9-2.128-1.156,3.209-9.956,4.27-7.424-5.022-5.823,1.663-6.357-8.088-0.732.027,0.219-3.975L602.6,626.731l-7.034-1.779,2.429-5.392-2.449-8.566Z" transform="translate(-33.544 -79.839)" fill="#ff8080" stroke="#000" stroke-width="2"/><path d="M822.2,575l2.285-9.059,4.988-3.688-6.616-6.008-0.643-9.586,9.716-7.287,13.856-3.75,7.2,1.56,0.951-2.354,17.188,14.738,8.19,3.565,1.471,2.278,8.128,8.183-4.29,7.752-0.588,4.112L879.3,586.861l4.879,3.462-0.171,9.114,7.841-2.518,4.995,2.422,1.848-2.114,2.661-5.494,7.348-5.166,4.475-2.142,0.746,10.667,8.128,2.853-4.105,4.646-3.606,11.864-17.188,2.251-5.508,10.626-8.662,7.362-11.146,3.23-2.162-1.608-6.521-1.081,5.761,7.239L870.96,654.5l-12.521.814-8.553,3.962-3.031-3.907-3.982-.486-9.223,2.135-7.458-7.807-11.036,1.827-3.14-5.378-5.789-1.943-10.332,5.72-0.506,5.987-7.431.185,7.574-12.7-4.139-2.306,1.321-5.576,1.553,1.095,2.538,0.075,4.133-1.656,3.284-2.429,4.133-6.685-0.212-.9h-4.359l-0.109-1.9,5.269-1.861,1.854,0.787,0.239,6.555,14.177-.164L828.9,632.4l1.457-3.88L827.2,616.96l4.249-13.862-2.593-.958-2.593-1.765,0.643-6.117,13.178-13.281-2.484-5.754-14.328-.027Z" transform="translate(-33.544 -79.839)" fill="#ff8080" stroke="#000" stroke-width="2"/><path d="M702.757,560.238l8.313-22.7-3.284-8.088,6.986-3.667-1.656-15-9.018-6.254,2-5.727,4.023-1.136,1.7-6.062,9.7-7.985,0.506-3.12-11.946-9.476,7.321-6.179,4.96-11.686-11.789,4.174,2.709-4.92L711.44,447l3.7-4.714,12.282,7.875,2.525-1.505,10.359,21.676,3.606,6.938,4.906,10.53,6.124,13.691,3.927,10.544-1.081,8.341,2.552,1.519,6.172-1.115,6.042,2.3,15.929-2.73,5.761-1.067,11.892-5.679,2.593-1.54,0.041,4.276-2.887,23.079,2.9-.068,2.86,5.05,5.624,1.184,1.848-2.231,3.1,3.312,0.643,9.586-8.115,6.377-7.485-3.079-1.964,1.745,0.068,9.394-8.792,8.655-3.756,3.852,1.293,2.415L782,593.991l-6.322-9.333-7.951,2.586-0.883-5.1-1.779-10.12-8.19,2.757-4.516-3.455-5.878-5.782-7.937,11.666-1.512,7.91-4.413,3.6,1.574,8.963-1.854,2.408,9.086,2.58,9.182-2.354,9.873,17.051,10.824,2.326-2.942,4-7.615,1.273-8.7,7.28-8.806,1.382-7.7,8.033L719.6,632.185l2.7-5.275-2.47-11.44,2.018-2.237L721.347,609l-12.213-.616-8.088-4.837-3.2-5.419,4.6-7.294-2.566-7.349-8.033-7.1,5.186-8.033,5.049-3.011,2.942-3.065Z" transform="translate(-33.544 -79.839)" fill="#ff8080" stroke="#000" stroke-width="2"/><text transform="translate(254.261 117.529)" font-size="113.977" font-family="DejaVu Sans" font-weight="700">7</text><text transform="translate(169.495 269.73)" font-size="148.858" font-family="DejaVu Sans" font-weight="700">6</text><text transform="translate(20.416 366.227)" font-size="148.858" font-family="DejaVu Sans" font-weight="700">5</text><text transform="translate(136.468 561.823)" font-size="148.858" font-family="DejaVu Sans" font-weight="700">4</text><text transform="translate(557.7 757.155)" font-size="148.858" font-family="DejaVu Sans" font-weight="700">1</text><text transform="translate(671.546 671.229)" font-size="123.264" font-family="DejaVu Sans" font-weight="700">2</text><text transform="translate(797.664 546.964)" font-size="44.018" font-family="DejaVu Sans" font-weight="700">11</text><text transform="translate(738.894 549.807)" font-size="44.018" font-family="DejaVu Sans" font-weight="700">3</text><text transform="translate(683.22 478.799)" font-size="43.871" font-family="DejaVu Sans" font-weight="700">12</text><text transform="translate(574.935 523.931)" font-size="43.871" font-family="DejaVu Sans" font-weight="700">10</text><text transform="translate(570.758 435.916)" font-size="97.375" font-family="DejaVu Sans" font-weight="700">9</text><text transform="translate(723.811 349.85)" font-size="30.414" font-family="DejaVu Sans" font-weight="700">9</text><text transform="translate(399.382 337.041)" font-size="106.133" font-family="DejaVu Sans" font-weight="700">8</text></svg>