<svg xmlns="http://www.w3.org/2000/svg" width="973.526" height="793.79" viewBox="0 0 973.526 793.79"><title>Députés sortants du Nord en 2017</title><path d="M852.05,868.772l-1.4-1.391-3.285,5.189-18.45,14.97-2.343-4.93,4.078-4.549-4.877.164-6.21-3.925,1.746-6.586-3.306-3.359-6.284-1.83,0.122-6.8-3.793,1.947L801.5,869.746l-1.322-.217-9.7-5.411L787.771,858l8.215-5.67,4.671-5.9,4.607-1.724-0.64-4.3,3.989,0.312,2.819,2.782,7.025,5.11,8.781-.085,1.55-1.613v-0.159l1.238-4.047,4.237,0.085,0.889-1.931-1-1.767,4.348-6.623,4.031-1.582,3.782-7.416-0.249-1.767,8.585,2.238,0.423,2.185,8.183-1.677,3.2-1.391,1.28-3.454,7.12,0.661,3.057,3.7,0.328-8.918,4.131-7.95-2.893-4.491-3.512-2.814-3.184-8.31-5.194-4.338-1.952.751L851.5,775.484l1.238-1.656-6.818-3.364-4.792-.005-3.565,3.274-5.136-5.29L826,767.581l-3.274,3.057-8.9-1.185-5.205,3.65-2.169-2-1.418,1.428-4.771,5.11-6.85.291-8.834,1.455-10.537-9.352-0.185.148-0.746.809-9.939-5.692-2.058-3.988,0.952-4.189-0.555-1.529-4.618-6.067h-0.164l-1.767-3.105,2.851-3.306-1.095-6.279,5.5,4.2,2.322-.767-0.868-10.542,2.105-3.846,0.249-4.872,3.47-6.215,9.342-.005,0.868-2.222,6.993-1.439,6.982,1.349,4.11-2.29,3.814,2.322-1.148,4.539,4.555-.751,1.465-4.322,6.787-1.248,7.823,4.2,5.919,6.48,6.765-.55,1.4,4.369-1.259,4.385,6.644-.28L849.075,726l18.884-11.2,2.4,0.439,0.106,4.845,2.126-4.174,6.644,2.846,2.851-3.7,9.2-2.56,5.184-4.623,5.57,10.563,6.548,2.983,11.2,12.785,0.794,7.273,0.132,0.365,9.072-1.74,4.089,5.8,4.464,1.143,3,9.008-0.466,11.754,4.391-.889,2.058,8.77-1.529,1.74,12.9,1.264,1.428-6.877-6.644-6.966,3.772-6.284,4.6,0.222,4.01,6.2,2.222,1.09L977.73,768l6.676,12.8-7.316,9.659-2.47.085-7.056,5.84-7.612,11.986-7,1.18,4.348,10.7-1.92,3.761,0.143,4.755-2.936,6.649,2.254,6.639-0.825,4.745-5.66,4.676-6.168,13.182,8.649,4.184,7.633-4.279,14.441,0.323,3.655,13.526-2.571,4.115,3.142,3.438,0.323,4.591,9.971,12.833,1.169,6.892-2.613,3.824-10.468,5.242-4.681,5.237-8.8,1.693-4.607-.365L946.9,943.944l-0.878,4.607,5.3,7.8,6.21,2.957,0.619,2.285-2.756,6.527-6.924,5.909-16.16,5.025-9.215.635-2.037-6.5L909.9,969.4l-7.067-.249-3.719,2.544-4.3-2.825-4.565.048-2.539-6.4-11.209,1.137-0.3-6.982,6.787-17.414-2.56-9.029-3.253-2.163,2.354-8.532,11.807-6.353,4.671-.212,6.734,0.323,12.674-4.412,5.517-6.549-14.187-1.492,0.1-7.125,3.068-6.406-3.174-3.179-3.978,2.3-4.486-.994L892.53,889.4l-2.317-.418L887.9,885l-6.363,15.462-6.548,7.855-9.876-7.871,3.338-3.428,0.693-4.84,5.819-4.549,2.19-4.417,0.339-4.935-3.449-2.819-4.486,1.063-6.665-2.428-2.264-3.967-2.47-1.227-0.772,3.227-5.237-1.582Z" transform="translate(-16.123 -186.954)" fill="#ff8080" stroke="#000" stroke-width="2"/><path d="M340.709,548.821l1.344-2.285,7.369-15.181,9.051-7.855,1.259-.862,4.454-5.364,9.31,0.058,7.987,17.271,5.909-5.343,2.19,4.137,6.242,2.719,4.089,8.114,4.8-4.777-0.994-1.486,3.232-1.068,15.33-3.634-0.587-3.983,2.2-3.354,1.217-1.941,8.8,0.016,6.644,11.489,7.564,6.824,3.9,0.434,5.581-6.5,2.5,0.021,3.449,2.581,1.433,8.416,2.767,2.952,7.935,0.947-1.158-6.284,0.836-2.248,4.607-.587,7.242-12.06L495.553,537l2-1.032-2.2,10.849L484.884,555.4l-6.57,1.941,0.36,0.894L470,562.157l-3.491,5.549-2.6,17.921-6.189,1.83-4.517,7.231-11.2-9.96-3.078,3.11-3.957-.413,0.735,3.83,4.29,5.718v7.21l1.613,1.772-2.317,6.744-6.342-2.756L419.674,598.55l-0.746,1.82-5.57-1.206-10.7,2.9-7.522,5.634-2.386-2.56-1.433,1.724-4.348-.915-2.2-3.9-2.243.053,2.232-17.842-0.042-3.306-2,1.19-9.193,4.39-4.443.825-12.314,2.111-4.681-1.777-4.761.862-1.973-1.174,0.825-6.448-3.036-8.151,4.195-1.4,4.216,1.328,0.846-11.791-3.068-9.125Z" transform="translate(-16.123 -186.954)" fill="#06c" stroke="#000" stroke-width="2"/><path d="M536.469,496.3l-1.645,1.486-5.787,7.437-0.825,7.109h0.5l-1.486,7.437-0.989-2.148-2.322.328-7.606,6.115-1.486,4.464,1.82,1.65-3.306,5.29-15.7.5-2.317,10.907L484.895,555.3l-6.612,1.984,0.328,0.994-8.6,3.8-3.47,5.618L463.9,585.553l-6.115,1.82-4.628,7.273-11.077-9.918-3.142,3.142-3.967-.5,0.661,3.8,4.29,5.787v7.273l1.65,1.65-2.317,6.776,1.158,1.82,6.284,6.284-3.306,5.951-0.5,3.306-3.639,8.76,3.8,2.645-0.164,7.109,6.115-1.984,3.8,1.82,1.486-1.65,1.984-4.131,5.618-3.967,3.47-1.82,0.661,8.262,6.284,2.317,4.3-4.464,6.115-1.65,6.612,2.148,2.137,4.131,4.475,0.661-0.508,4.628L499.917,654l1.476-1.65,3.153,0.5,11.738-3.47,6.776,2.973,4.121,6.115,4.792,1.322,4.628-5.29-1.158-6.612,2.317-6.612,7.781,1.322L549,645.4l2.148,6.284,18.017,0.5,4.3,1.65,2.148-.5-0.5-6.94,4.29,0.164-4.29-8.262,3.47,2.317,6.1-.661,0.508-1.322,8.749-3.142,2.973-3.639,0.164-4.628-1.984-3.47-2.148.825-5.126-5.126-3.639-11.4L586,601.93l-2.645-.164-3.639-6.448-15.372-7.273-3.142-8.6,0.994-9.257-2.645-3.967,3.8-2.481-2.809-3.47,1.65-6.612-2.481-3.8,0.825-8.929-3.306-7.935-0.661-4.628-5.951-7.109,1.158-4.464-3.639-5.618-2.809-3.306,1.984-3.967-1.65-3.47Zm-17.355,13.557-2.317,3.8,3.639,2.809,2.317,0.164,1.322-4.464Z" transform="translate(-16.123 -186.954)" fill="#06c" stroke="#000" stroke-width="2"/><path d="M361.148,482.1l-7.85-3.946-3.242,8.5-0.3.984,5.432,5.745,6.353,1.576,4.533,4.808,10.9,15.017-3.481,2.544,7.977,17.271,5.919-5.343,2.179,4.137,6.252,2.719,4.089,8.114,4.8-4.777-1-1.486,3.242-1.068,15.33-3.634-0.6-3.983,2.211-3.354,1.217-1.941,8.8,0.016,0.91-3.782,6.623-1.518,3.639,2.433L448.5,530.1l3.75,2.983,2.354-.45,2.449-5.909,0.085-1.619,1.873-2.7-1.433-4.777L454,511.164l-2.481-2.333-3.1,2.375L436.79,499.723l-8.564-6.295-5.829,2.216-8.3-11.415,3.438-4.316,4.269-.889,5.612-8.691-6.765-11.674-5.972-2.925-2.55-6.226-4.8-4.935-3.1,3.385-0.1,9.622-3.481,6.342-4.576-.487-0.994,6.48-4.279.762-7.263-8.95-6.332,2.116-6.29,11.986Z" transform="translate(-16.123 -186.954)" fill="#ff8080" stroke="#000" stroke-width="2"/><path d="M847.369,872.565l-18.45,14.97-2.343-4.93,4.078-4.549-4.877.164-6.21-3.925,1.746-6.586-3.306-3.359-6.284-1.83,0.122-6.8-3.793,1.947L801.5,869.74l-1.322-.217-9.7-5.411-2.708-6.12,8.215-5.67,4.671-5.9,4.607-1.724-0.64-4.3,3.989,0.312,2.819,2.782,7.025,5.11,8.781-.085,1.55-1.613v-0.159l1.238-4.047,4.237,0.085,0.889-1.931-1-1.767,4.348-6.623,4.031-1.582,3.782-7.416-0.249-1.767,8.585,2.238,0.423,2.185,8.183-1.677,3.2-1.391,1.28-3.454,7.12,0.661,3.057,3.7,0.328-8.918,4.131-7.95-2.893-4.491-3.512-2.814-3.184-8.31-5.194-4.338-1.952.751L851.5,775.478l1.238-1.656-6.818-3.364-4.792-.005-3.565,3.274-5.136-5.29L826,767.576l-3.274,3.057-8.9-1.185-5.205,3.65-2.169-2-1.418,1.428-4.771,5.11-6.85.291-8.834,1.455-10.537-9.352-0.185.148-0.746.809-9.939-5.692-2.058-3.988,0.952-4.189-0.555-1.529-4.618-6.067h-0.164l-1.767-3.105-1.053-1.185-7.76-9.373-2.655-6.612-5.062-5.189-8.088,4.02-1.841,4.232-4.163,1.7,0.064-1.978-5.591-1.941-2.343.19-2.925,6.427-5.115,4.57-2.407-1.243-5.692,6.11-14.721,2.952-2.275,3.174,1.809,3.766-3.576,5.7-6.263,2.449-3.555-.376-5.972.878-8.2-1.19-1.714,1.322-1.788,1.465,2.158,4.084-4.866,12.822-0.413,3.031-1.433.614-6.147-7.2-11.759-1.952-12.4,12.283-6.014-1.322-11.611,13.013-3.1,4.951-2.158-.587-5.422,3.623-8.553-1.481,5.1,16.493,2.428,4.449-7.379,10.929-2.243.021,0.217,5.247-8.432,1.814-1.333,4.041,2.946,3.121-0.693,4.237-2.079-1.158-5.723,4.211,3.814,2.222-2.047,6,1.851,6.263,8.738,3.708,3.327-3.348,2.354,0.487,2.333-.846L588.611,877l7.046,1.73,13.039-1.3,5.279-9.7,5.216-5.8,2.973,3.491,4.269-1.317L635.149,867l-0.555-8.522,9.96,8.85,0.238-1.735,3.428,0.561,3.645-.349,1.92-6.945,12.616-7.411,14.589,8.59L681.974,864l3.576,2.915-2.275,3.846,2.751,3.407,1.661,0.153,3.3-3.417,8.791-3.3,4.692-.719,3.835,2.275,2.386-1.566,14.208,8,6.3,5.967,4.422,0.957,3.417,5.808,2.275-.217,1.9,4.189,5.385,4.195-2.46,6.014,8.77,10.109,2.169-1.952,13.743,11,13.256,3.147,1.217,2.163,9.389-1.005,7.644,5.871,9.548-6.136,4.967,5.094,9.289,2.042,6.083,3.671,0.455,2.343-2.254.793,3.761,3.057,0.28,9.675,15.991-11.59,11.436-2.3,0.683,1.862,14.61-12.283,2.354-8.532,11.807-6.353,4.671-.212,6.734,0.323,12.669-4.412,5.528-6.549-14.187-1.492,0.085-7.125,3.078-6.406-3.174-3.179-3.978,2.3-4.5-.994-5.745,3.957-2.317-.418L887.89,885l-6.374,15.462-6.548,7.855-9.876-7.871,3.338-3.428,0.7-4.84,5.819-4.549,2.179-4.417,0.349-4.935-3.449-2.819-4.5,1.063-6.654-2.428-2.264-3.967-1.4-.6-1.084-.629-0.767,3.227-2.428-.682-2.809-.9-0.164-1.777-1.4-1.391-0.381.571Z" transform="translate(-16.123 -186.954)" fill="#ff8080" stroke="#000" stroke-width="2"/><path d="M130.079,252.489l-1.555,1.666,0.349,0.439-13.42,11.838-1.968,2.989L94.072,237.271,93.9,224.681l10.807-4.195,17.17-4.7,21.576-6.6,7.733,6.258,7.331,1.772,5.39-1.423,4.607,11.082,11.156,15.308,8.395,19.746-6.279,9.193-5.512-.735-14.451-16.737-6.945,11.807-2.423.312-7.009-6.892-1.8-7.088Z" transform="translate(-16.123 -186.954)" fill="#c66" stroke="#000" stroke-width="2"/><path d="M128.53,254.155l0.344,0.439-13.42,11.838-1.968,2.989L94.073,237.271,93.9,224.681l-14.182,4.263-6.771-5.586-4.147-.042-6.263-2.93,5.517,3.941,4.078,0.042,0.994,7.977-8.263,3.5,6.337,3.756-4.375,1.545,0.138,6.237-4.237-4.623,1.862-1.6-3.206-5.194-6.12,1.978-1.83-8.633-3.5,6.612-8.395,6-5.819,7.21,4.338,8.9-7.559-9.468-9.035-2.3-7.131,1.344,9.527,2.126,9.521,11.3-0.36,2.534,5.427,3.724,1.7,6.295,4.734,5.025,2.767,11.151L53.934,300.4l6.4,14.917L70.782,341.7l0.7,2.333,0.894,7.257,5.078,8.173-0.434,4.824,2.46,3.454,1.455,13.208,0.931,6.4,5.972,1.941,7.215,8.046,5.427,6.036,8.479,3.412,6.268-2.544,0.428,6.951,10.807-7.231,2.015-3.9-0.037-5.205-0.423-12.727,5.528,0.667,3.713-11.558-2.2-4.507,16.419-11.055,6.982,2.232,3.856-2.782,14.049-5.427,6.009,13.78,6.073-3.237,1.317-2.846,9.992,14.351,5.528-2.285,5.475-12.738,8.744-7.2,5.141,11.087,4.528-5.919-0.053-4.972,4.152-6.083,9.082-18.265,15.43-6.263,0.868-4.528-6.538-2.317L251.182,310l8.538-8.506L269.2,290.95l-0.175-2.518-10.442-28.257-12.674-7.94-2.6-9.342,1.365-2.021-4.237-21.534-3.1-17.176-5.919-13.843L208.065,199.9l-9.368,3.962-2.851.873-15.552,6.374-16.4,4.681,4.607,11.082,11.161,15.308,8.389,19.746-6.279,9.193-5.512-.735-14.451-16.737-6.945,11.807-2.423.312-7-6.892-1.809-7.088-13.557.7Z" transform="translate(-16.123 -186.954)" fill="#06c" stroke="#000" stroke-width="2"/><path d="M325.078,412.9l-7.088-4.258-6.083-10.764-0.651-9.8-1.682-1.814-16.943-1.333-5.385-5.062-3.523,3.38-3.708,2.163-8.585.349-4.565-16.588-3.528-3.438-1.058-4.824-6.972-1.534,0.026-2.47,5.507-7.347-1.851-6.406,0.719-16.89-1.878-7.173-15.43,6.263-9.082,18.265-4.152,6.083,0.047,4.972-4.523,5.919-5.141-11.087-8.744,7.2-5.475,12.738-5.528,2.285-9.992-14.351-1.317,2.846-6.073,3.237-6.009-13.78-14.049,5.427-3.856,2.782-6.982-2.232L135.105,366.72l2.19,4.507-3.713,11.558-5.522-.667,0.418,12.727,0.037,5.205-2.015,3.9,2.9,3.391,9.664,1.095,8.9,3.92,2.423-.058,1.56-4.586,2.306-.783,5.5,3.914,8,4.189-0.317,1.962,3.523,1.523-13.2,8.347-8.3,2.433-9.643,7.723-1.127,7.125,3.613,2.031,3.565,8.294,4.824,4.581v0.127l8.908,7.749-10.188,9.892,3.528,5.358,2.666,3.84,9.579-6.284,2.29,0.439,4.872,7.437,0.735,2.555,2.428,0.222,3.883,6.184,9.278,2.38,10.056,10.526,8.2,4.724,6.765-1.7,4.671-1.365,3.343-3.608,4.724-.222,1.608,7.131,1.524,1.931,2.068,1.322,6.94-.344,1.148,2.174,1.555-5.7,4.655-.042,3.095-3.116,2.084-.545,1.344,4.073,9.236-1.476,1.211,4.671,6.607,6.728,18.524-5.856,2.148-6.861,2.46-.291,7.263,5.073,9.215-.153,3.348,11,9.495,6.088,1.952-1.164-0.539-4.639,4.422-12.759,1.962-1.349,9.008,2.909,3.544-3.131-14.959-12.066,0.153-.513,4.576-8.67,12.087,0.471,5.671-4.549,0.291-.984,3.253-8.5,7.839,3.946,9.754-6.279,6.284-11.986-9.722-13.383-15.869,3.417-9.907-7.511-4.131-14.324L327.49,421.5l0.651-4.787Z" transform="translate(-16.123 -186.954)" fill="#ff8080" stroke="#000" stroke-width="2"/><path d="M499.378,671l3.825-2.021,0.64-9.759-2.365-6.951,3.174,0.582,11.622-3.5,6.861,2.962,4.041,6.21,4.771,1.227,4.771-5.194-1.238-6.639,2.317-6.623,7.829,1.233,3.417,2.946,2.095,6.274,18.112,0.407,4.205,1.73,2.148-.619-0.539-6.855,4.464,0.233,0.846,5.528,2.222,8.019,6.115,0.085,4.671,3.369,0.508,2.925-3.629,1.28,2.851,2.7-1.312,3.512,0.011,0.243,2.539,8.733-0.413,11.986-2.449,4.189,0.857,7.157-2.6,6.829-0.312,2.121-6.189-.365-1.873,3.174-5.951-.661-5.374-.18-1.994,2.412-6.221,5.009-3.534,1.592,0.487,4.205-4.163,1.465-0.164,2.317-3.793,2.576-4.422,1.338-1.671-1.635-3.856,3.052-8.67-1.857-0.735-4.517-1.962-1.2-3.37,1.582-8.03-3.369-5.866-1.106-3.608,2.01-0.2-4.628-5.671-3.676-6.046.407-2.893,7.342-1.55.3-1.137-1.994-6.686-.243-1.354-1.846-3.618-5.893-1.444-2.322,0.487-5.1-1.756-3.793,3.47-9.722-1.148-9.67,5.692-7.929,6.29-2.793,1.645,1.809-0.349,4.74,7.956-4.517,2.534-3.465Z" transform="translate(-16.123 -186.954)" fill="#d00" stroke="#000" stroke-width="2"/><path d="M483.905,770.781L470.38,766.7l-6.892,1.788-0.153-.19-3.221-2.275-3.772-.587-4.433,4.75-0.92,1.851-7.067,1.677-2.872-2.523,1.365-11.119,9.379-2.65,3.666,3.121,4.856,0.571,0.042-5.253-3.417-2.878,4.866-5.93,3.089-3.549,4.724,0.053,3.835-2.782-2.634-3.481-8.12-9,0.328-2.719-6.49-9.183-3.544,1.264L441.6,706.814l-2.047.6-1.105-1.83,1.3-1.576-2.957-5.284-3.989-7.675-1.582-9.294-4.454-5.6,5.041,0.836,1.671,1.243,8.617-2.5,6.707-5.692,4.258-8.215,13.277-1.74,2.788-9.172,3.184-3.592,4.369-4.47,6.073-1.582,6.58,2.137,2.095,4.137,4.6,0.693-0.555,4.554,4.433,1.132,1.56-1.677,2.365,6.951-0.651,9.759-3.814,2.021,3.348,7.167-2.539,3.465-7.945,4.517,0.349-4.74-1.65-1.809-6.284,2.793-5.692,7.929,1.137,9.67-3.459,9.722,1.756,3.793-0.487,5.1,1.444,2.322,3.608,5.893,1.365,1.846,6.676,0.243,1.148,1.994,1.539-.3,2.893-7.342,6.046-.407,5.671,3.676,0.206,4.628,3.6-2.01,5.866,1.106,8.03,3.369,3.37-1.582,1.973,1.2,0.735,4.517,8.67,1.857L539,746.825l7.707,2.714,3.211,6.337-0.984,7.046-3.719,2.338-6.157-.1-0.434,4.142,2.55,3.28-1.407,1.55-9.648,3.433-6.892-1.09-5.528,1.09-9.008.682-6.115-3.2-4.919-1.952-2.386-.693Z" transform="translate(-16.123 -186.954)" fill="#d00" stroke="#000" stroke-width="2"/><path d="M551.677,772.85l-6.1,3.142-5.8-1.82-9.579,3.47-6.94-1.158-5.454,1.158-9.093.661L502.594,775l-0.825,11.574,12.4,3.306,1.486,4.3,3.967,0.328-1.322,6.115-2.809,2.973,0.5,1.984-16.192-.164-4.628,11.738-0.661,2.148,5.29,2.148,0.661,3.967,5.454,6.448-4.3,1.984-4.3,8.432-9.754.164-5.454,2.645-1.158.661,6.612,9.585,8.929,2.809v2.481l-17.853,11.4L477.648,874l4.792,7.109,0.164,4.792,2.317-.164,1.984,8.76-4.628,7.935-6.776-.825-0.5,4.628,4.628,4.962-5.454,2.973v6.284l1.984,1.158,2.481,5.618,7.77,4.464,0.5,3.967,4.3,6.448,11.4-.661-0.825,4.628,8.929-1.65,2.491,6.284,13.885-4.131,11.574-8.6,2.148,1.322,4.464-1.82,0.328,0.328,4.962,3.639,1.322-4.3,2.148,0.5,3.306,0.825,3.142,5.618-1.984.825,3.142,3.639,9.093-1.65,3.967-1.322,8.263,2.481,4.131-.994,2.967-6.284,3.645-2.481-0.661-2.148,1.322-1.984,9.421-.5,8.257,3.639,2.645-2.317,5.454,4.464,4.3-.164,3.8,2.481-0.328,1.984,28.1,2.148,7.606-10.082,0.5-1.486,9.765-2.317,5.29-9.257,6.612-1.322,5.126,0.661,5.126,4.131,6.776,2.148,6.448,9.754,2.481,3.47,4.962-3.967,8.1-4.3,6.448,2.973,1.984-4.3-3.639-2.481,1.984-4.3,2.481-3.639,4.3-1.82,16.694-7.109-8.76-10.251,2.317-5.951-5.29-4.131-1.984-4.3-2.148.328-3.47-5.787-4.464-.994-6.284-5.951-14.219-8.1-2.322,1.65-3.8-2.317-4.792.661-8.749,3.306-3.306,3.47-1.65-.164-2.809-3.47,2.317-3.8-3.639-2.973-0.825-3.967-14.711-8.432L653.894,858.8l-1.984,6.94-3.639.328-3.306-.5-0.328,1.82-9.918-8.929,0.5,8.6-8.76-2.973-4.121,1.322-2.973-3.47-5.29,5.787-5.29,9.754-13.06,1.322-6.94-1.82-3.142-.994-2.317.825-2.322-.5-3.306,3.47-8.76-3.8-1.984-6.284,2.148-5.951-3.8-2.148,5.618-4.3,2.148,1.158,0.661-4.131-2.973-3.142,1.322-4.131,8.432-1.82-0.164-5.126,2.322-.164,7.273-10.907-2.322-4.464-5.126-16.366,8.6,1.486,5.29-3.639,2.148,0.5,3.142-4.962-3.306-3.306-2.148-6.94-3.639-2.809-0.994-4.628-6.115-3.639-8.6,4.628-4.3-.994,0.164-2.645-4.131-.825-2.973,3.142-0.994-1.984-1.984.825-1.984.328-3.306-5.454Zm-87.941,64.465-1.158,4.3-8.929,5.618-0.328,4.3-5.951,1.82-3.142-1.82-5.126,3.47-1.82-.994-4.131,8.432,3.47,5.618-0.825,6.94,4.464,5.126,6.284-2.481,5.618-9.918,6.94-1.322,6.612,2.645,2.317-1.486-1.984-11.738,12.563-10.907-0.825-1.984-1.82-4.131Z" transform="translate(-16.123 -186.954)" fill="aqua" stroke="#000" stroke-width="2"/><path d="M598.221,798.33l-2.015-6.892-3.772-2.93-0.889-4.554-6.221-3.682-8.453,4.681-4.316-1.053,0.053-2.565-4.041-.841-3.057,3.121-0.868-2-2.015.82-2.09.3-3.274-5.369-5.528-4.443L545.62,776l-5.845-1.846,1.407-1.55-2.55-3.28,0.434-4.142,6.157,0.1,3.719-2.338,0.984-7.046-3.211-6.337-7.707-2.714,1.735-7.226,3.856-3.052,1.661,1.634,4.433-1.338,3.793-2.576,0.153-2.317,4.174-1.465-0.5-4.205,3.534-1.592,6.231-5.009,1.984-2.412,5.385,0.18,5.94,0.661,1.878-3.174,6.178,0.365,0.323-2.121,2.6-6.829-0.857-7.157,2.439-4.189,0.423-11.986-2.55-8.733,1.18,3.057,5.194,2.1-0.767,2.285,3.586,2.412-3.327,8.908,5.041,15.98,0.349,7.088-1.91,1.439,0.555,2.6,5.66-4.539L607.17,711.3l12.272-11.082,5.787,10.415,3.914-4.216,5.432-1.915-1.095-4.438-4.29-1.418-0.444-4.66,1.312-.994,0.539,0.169,6.221,4.025,3.047,6.66,6.189,4.052,1.322-3.243,2.676,0.233,1.158,4.57,6.85,6.506-2.539,3.449,3.978,2.428,4.475-1.4,1.841,1.444,2.386-.492,11.209,4.978,7.326,0.714,3.317,7.3-5.432,2.967-1.582,3.83,2.592,7.919-2.275,3.174,1.809,3.766-3.576,5.7-6.263,2.449-3.555-.376-5.972.878-8.2-1.19-1.714,1.322-1.788,1.465,2.158,4.084L651.386,783.2l-0.413,3.031-1.433.614-6.147-7.2-11.759-1.952-12.4,12.283-6.014-1.322-11.611,13.013Z" transform="translate(-16.123 -186.954)" fill="#ff8080" stroke="#000" stroke-width="2"/><path d="M693.725,674.06l-4.205.656-0.042.254-2.407-.106-2.946,3.824-1.682,11.69-1.841,1.566-1.841-3.253-3.825,1.058-3.6,6.379-6.961,6.432-4.713.545-3.729-3.057,2.386-3.491L648,686.162l-5.147,5.2-4.443-1.952,0.328-7.215-7.416,6.131-0.735,4.819-0.55-.169-4.565-18.3-2.915,2.994-7.8-4.808-9.722,6.5-6.882.1-5.194-2.1-1.18-3.057-0.011-.243,1.312-3.512-2.851-2.7,3.639-1.28-0.519-2.925-4.66-3.369-6.115-.085-2.232-8.019-0.836-5.528-4.422-8.278,3.544,2.206,6.073-.651,0.566-1.233,8.717-3.142,2.893-3.671,0.185-4.65-1.878-3.417-2.264.783-5.009-5.157-3.7-11.373L586,602.014l11.5,2.973,7.633,8.982,5.787-4.078,6.94-1.428,13.526-7.316,1.714,1.344h4.782l2.687-9.569,6.263-7.633,2.211-1.153,14.155,3.454,4.269,2.544,1.01,2.269-0.413,2.454-8.236,11.955-0.577,2.423,0.587,4.93,1.539,1.947,2.3-.957,6.3-3.734,16.715-2.7,4.486-1.2,6.612,6.432-1.735,6.781,1.433,25.332,4.586,1.359,7.22,6.03-2.232,6.718,1.269-2.026L710.562,659l2.973,3.7,1.433,11.812-4.073,2.068-1.746-1.635-8.934-3.724-3.75-.471Z" transform="translate(-16.123 -186.954)" fill="#d00" stroke="#000" stroke-width="2"/><path d="M708.88,610.023L697.8,613.99l-1.65,6.776,1.322,25.29,4.628,1.322,7.273,6.115-2.317,6.612,1.322-1.984,2.148,0.825,2.973,3.8,1.476,11.738-4.121,2.148-1.65-1.65-8.929-3.8-3.814-.5-2.8,3.306-4.131.661v0.328l-2.481-.164-2.973,3.8-1.65,11.738-1.82,1.65-1.82-3.306-3.8.994-3.645,6.448-6.935,6.448-4.792.5-3.639-2.973,2.317-3.639-10.251-10.251-5.136,5.126-4.464-1.984,0.328-7.109-7.437,6.115-0.825,4.792,6.29,3.967,3.142,6.612,6.115,4.131,1.322-3.306,2.645,0.328,1.158,4.464,6.935,6.612-2.645,3.47,3.967,2.317,4.475-1.322,1.82,1.486,2.481-.5,11.241,4.962,7.273,0.661,3.306,7.273L684.58,737.3l-1.486,3.8,2.481,7.935,14.711-2.973,5.787-6.115,2.317,1.322,5.136-4.628,2.967-6.284,2.322-.328,5.612,1.984V734l4.131-1.65,1.82-4.3,8.1-3.967,0.994-4.628-4.782-5.29,0.5-9.421-3.8-5.787,3.306-6.612,3.459-6.448,0.164-14.547-1.984-18.842-3.8-5.787,0.164-9.093-3.142-3.639-4.628-.328-6.284-12.9Zm-94.056,62.815-9.754,6.448-6.94.164-0.661,2.317,3.47,2.317-3.306,8.929,5.126,16.033,0.328,7.109-1.984,1.486,0.661,2.481,5.618-4.464-0.164-4.3,12.23-11.077,5.787,10.415,3.967-4.3,5.454-1.984-1.158-4.3-4.3-1.486-0.5-4.628,1.322-.994-4.464-18.35-2.973,2.973Z" transform="translate(-16.123 -186.954)" fill="aqua" stroke="#000" stroke-width="2"/><path d="M433.571,524.352l6.68,11.562,7.6,6.871,3.938,0.436,5.611-6.535,2.522,0.023,3.469,2.6,1.441,8.471,2.784,2.971,7.99,0.955-1.167-6.329-6.9-12.828,4.345-6.048-0.7-5.647-4-6.63-3.689-3.991-4.273-.137-5.457,1.345,3.6,6.507,1.45,4.806-1.876,2.714-0.084,1.629-2.458,5.946-2.376.455-3.768-3.006-3.432-9.024-3.662-2.455-6.658,1.53Z" transform="translate(-16.123 -186.954)" fill="#f6e1b9" stroke="#000" stroke-width="2"/><path d="M477.859,508.38l3.9,3.48-1.1,4.926-6.619-1.907-6.856-.662,4,6.63,0.7,5.647-4.345,6.048,6.9,12.83,0.855-2.265,4.639-.589,7.281-12.14,8.395,7.061,2.01-1.042,15.843-.545,3.284-5.216-1.752-1.7,1.427-4.558,7.636-6.063,2.411-.38,1.008,2.226,1.519-7.465-0.472-.137-4.22-.076-1.335,4.413-2.359-.106-3.6-2.916,2.268-3.759-2.9-11.193-4.5.686-3.354-2.893L506,492.931l-4.2-1.737,0.064-4.55-4.26-1.567-0.771,6.675-4.088,7.6-3.832-.377,0.282,3.689-7.317-2.7Z" transform="translate(-16.123 -186.954)" fill="#ff8080" stroke="#000" stroke-width="2"/><path d="M463.49,510.229l-4.273-.14-5.457,1.345-2.494-2.349-3.114,2.388-11.709-11.559-8.615-6.334-5.87,2.232-8.353-11.489,3.46-4.345,4.3-.894,5.641-8.741-6.821-11.749-6-2.947-2.57-6.264-4.834-4.969,2.9-2.67-2.687-6.279,1.125-2,7.694-5.324,6.708,1.813,5.125-4.943,12.04-7.777,2.421-3.979,9.06,2.485,2.447-3.876,8.172-3.678,0.988,12.037-1.6,7.046,2.742,4.024-2.693,4.254-4.424,2.075-3.985,1.65-1.762,3.882,6.119,6.127,3.991-1.061,3.829,3.806,2.866,6.649,0.791,16.221,4.764,3.545-6.988,11.383L473,500.487l-3.683,5.527Z" transform="translate(-16.123 -186.954)" fill="#06c" stroke="#000" stroke-width="2"/><path d="M516.312,498.988l-4.5.686-3.354-2.9L505.938,493l-4.2-1.737,0.067-4.55-4.26-1.564-0.774,6.675-4.085,7.6-3.832-.38-2.461-9.264,2.066-6.962-1.817-6.781,8.043-4.261,5.119-1.081,8.529-4.627,7.2,5.374,0.26,3.542-3.6,3.17-2.033,3.449-2.813,2.388,6.211,3.024,10.224,1.184,1.579-1.617,5.722-6.343,1.02-4.041,0.569-2.645,17.247-1.257,3.683,10.836-8.116,4.433-0.8,2.195,1.341,10.886-9.35-4.094-1.583,1.46-5.884,7.6-0.751,7.012-4.22-.073-5.033-2.368Z" transform="translate(-16.123 -186.954)" fill="aqua" stroke="#000" stroke-width="2"/><path d="M513.981,455.887l10.006-16.4,1.215,2.171-3.077,6.535,8.471,8.655,16.725,1.933,5.421,8.087-0.38,4.94-2.429.489-17.247,1.254-1.589,6.689-7.3,7.956-10.227-1.184-6.211-3.024,2.813-2.388,2.033-3.449,3.6-3.17-0.26-3.542-7.2-5.374Z" transform="translate(-16.123 -186.954)" fill="#ff8080" stroke="#000" stroke-width="2"/><path d="M489.225,447.006l-3.65,2.913-4.251-.905-3.12-3.435-4.591-.3-4.254,5.524-4.377,1.225,2.866,6.649,0.791,16.221,4.764,3.545-6.988,11.383L473,500.487l-3.683,5.527-5.828,4.211,3.689,3.991,6.856,0.662,6.619,1.9,1.1-4.926-3.9-3.477,4.021-8.409,7.314,2.692-0.282-3.689-2.458-9.264,2.066-6.959-1.817-6.783,8.043-4.261,5.122-1.081L508.388,466l15.647-26.579-3.7-2.268-5.632,8.99-4.348,1.321-4.3,5.684-5.927,2.192-4.568-.516-0.352-4.563Z" transform="translate(-16.123 -186.954)" fill="#06c" stroke="#000" stroke-width="2"/><path d="M461.166,427.274l2.742,4.024-2.69,4.254-4.424,2.075-3.985,1.65-1.762,3.882,6.119,6.127,3.991-1.061,3.829,3.806,4.377-1.225,4.254-5.524,4.594,0.3,3.117,3.435,4.251,0.905,3.653-2.913,5.993,3.247,0.349,4.563,4.571,0.516,5.927-2.192,4.3-5.684,4.345-1.321,5.632-8.99-1.752-6.312L508.326,414.23l-6.56-12.623-9.652,1.524-6.138-3.768-4.3,8.658-5.661,4.686-4.31,1.1-9.921-5.614,0.988,12.037Z" transform="translate(-16.123 -186.954)" fill="#06c" stroke="#000" stroke-width="2"/><text transform="translate(72.471 165.251)" font-size="98.086" font-family="DejaVu Sans" font-weight="700">14</text><text transform="translate(90.852 62.716)" font-size="42.83" font-family="DejaVu Sans" font-weight="700">13</text><text transform="translate(171.599 293.119)" font-size="98.086" font-family="DejaVu Sans" font-weight="700">15</text><text transform="translate(348.45 320.418)" font-size="41.42" font-family="DejaVu Sans" font-weight="700">11</text><text transform="translate(414.515 293.119)" font-size="41.42" font-family="DejaVu Sans" font-weight="700">4</text><text transform="translate(449.81 257.356)" font-size="34.52" font-family="DejaVu Sans" font-weight="700">10</text><text transform="translate(500.674 289.422)" font-size="24.125" font-family="DejaVu Sans" font-weight="700">8</text><text transform="translate(456.204 285.859)" font-size="27.664" font-family="DejaVu Sans" font-weight="700">9</text><text transform="translate(516.741 306.02)" font-size="21.096" font-family="DejaVu Sans" font-weight="700">7</text><text transform="translate(473.386 345.266)" font-size="34.52" font-family="DejaVu Sans" font-weight="700">2</text><text transform="translate(442.89 342.982)" font-size="15.905" font-family="DejaVu Sans" font-weight="700">1</text><text transform="translate(373.681 408.555)" font-size="64.113" font-family="DejaVu Sans" font-weight="700">5</text><text transform="translate(462.73 445.073)" font-size="115.081" font-family="DejaVu Sans" font-weight="700">6</text><text transform="translate(590.828 481.959)" font-size="68.054" font-family="DejaVu Sans" font-weight="700">20</text><text transform="translate(487.762 524.722)" font-size="64.532" font-family="DejaVu Sans" font-weight="700">16</text><text transform="translate(423.645 515.173)" font-size="34.552" font-family="DejaVu Sans" font-weight="700">17</text><text transform="translate(553.632 585.897)" font-size="64.532" font-family="DejaVu Sans" font-weight="700">19</text><text transform="translate(643.04 660.735)" font-size="103.165" font-family="DejaVu Sans" font-weight="700">12</text><text transform="translate(861.481 674.829)" font-size="115.081" font-family="DejaVu Sans" font-weight="700">3</text><text transform="translate(475.748 721.192)" font-size="62.761" font-family="DejaVu Sans" font-weight="700">18</text><text transform="translate(667.15 530.166)" font-size="34.541" font-family="DejaVu Sans" font-weight="700">21</text></svg>