<svg xmlns="http://www.w3.org/2000/svg" width="968.248" height="657.048" viewBox="0 0 968.248 657.048"><title>Députés sortants de la Somme en 2017</title><path d="M234.5,530.616l-15.459,3.457-4.285,2.13-0.087,2.473-3.9-1.9,4.073,3.612-6.241,4.908,2.728,10.383-0.492,5.463-2.741.013L212.554,576l4.671-.785L220.9,578.2l9.6,5.244,10.832-8,0.386,7.661-4.285,6.06,7.362,3.145,0.492,5.263,6.851,3.363,3.015,4.41-2.741,4.329,1.451,7.437,4.8-3.2,11.336-1.757,7.381-7.761,5.02-2.734L287.79,603l2.174,1.339-1.545,4.852,3.619,3.656,10.277,2.635,0.71-7.35,4.827,2.03,6.471,4.073,12.713,2.111-3.233,4.217,7.63,10.887,5.631-4.79,7.642-.947,3.9,3.8-3.581,17.839,4.428,14.681-2.442.66-1.084,6.085,4.111,3.139,3.581,9.766,2.018,6.876-5.288,5.637,1.507,9.953,21.445-2.871,1.021,4.958-1.065,11.722,14.537,5.02,11.448,6.546,3.17-1.738,11.542-12.6,5.1-1.732,3.077,4.5-2.149,7.873,5.132,4.827,1.526,4.534,6.3,3.357-4.042,9.337,15.391,2.566,3.637-.884,2.5-8.172-4.516,2.466-1.177-7.474,5.163-.318-0.66-7.381,7.755-1.127,3.027-18.6,2.765,1.159,17.247,5.114,11.8,5.382,3.295,5.655,3.289,5.07,2.734,0.86,0.673-2.66,2.3-.343,1.283-6.615,6.552,0.137,1.233-1.943,1.445,4.21,7.138-3.245,0.28-7.842-1.968-1.644,4.852-4.323,7.786,2.927,4.653,3.17-5.923,12.656-9.112,6.434-2,5.251-2.006,2.336-3.046-1.557-2.89,4.534,2.927,3.874-2.062,2.373,0.716,3.183,5.531-1.6,2.043,3.276,0.878-.131,4.2,6.64,2.087-.853,0.5,1.364,6.4-1.688,1.053-2.248,4.746,1.277,2.654-4.161-7.032-9.729,10.464-1.769-1.931-4.541,6-21.09-1.165-4.528-1.264.087-0.86-2.678,5.394-6.241,0.5-8.3-2.685-7.916-1.053-2.535-4.74-2.124L532.371,696.83l-13.011,2.155,2.149-4.485-8.34-10.7,3.992-10.221-2.217-1.657,1.264-8.178,4.491-1.688-3.1-4-5.45,1.426,0.324,2.859-4.535,3.463-1.85,5.463-0.3,8.614L491.4,689.02l-1.85-7.213L476.127,683.4l-3.743,3.943-6.509-3.488-2.454-6.833-10.769,2.261-1.557,2.311-4.248.262-3.394-7.057,0.417-5.244L437.7,660.83l8.645,6.764,5.481,0.436,4.665-2.734,1.6-6.876,2.249-.691,3.856-4.329-1.021-11.517,3.955-10.875,2.952-3.233,4.5,0.467,6.72,0.517,7.985,2.41,13.591-2.554,3.893-.847L503.6,620.7l6.951-10.9,7.605-2.535-0.6-5.213,9.779-9.119L522.194,581.4l-6.247,9.137-5.139,1.993-1.669,1.37-3.1-4.186-4.889,1.333-5.475-1.32-2.859-16.481-16.83-2.167-2.174-1.451,1.607-2.074-7.91.847-5.026-2.248-4.5-6.976-8.184.517,0.206,5.518-3.75,7.624-7.051-7.207-5.213-.754-2.087-7.48-7.923,6.945-2.118-5.089,2.927-4.622-7.624,1.171-0.716-5.126,1.763-4.684-2.6-4.9-7.854-2.211-11.38,7.879-7.287,1.1-2.846-7.225,1.109-1.788-2.815-6.908-5.008,1.588,5.033-12.65-2.03-8.047-6.1-4.329-4.92.66-1.227-9.922L351.407,511.07l-1.183.523-5.132,2.037-8.078-2-4.715,3.015-3.382-4.254-0.585,2.8-10.794,2.784-0.885,2.722-5.543,4.148-2.772,12.818-5.151,5.693-5.226-1.159,0.118-5.17-4.4-2.323-4.379-6.49-2.566.523-3.949-5.873,2.516-4.111-18.2-.959-1.171-5.275-2.641-.585-0.181,6.5,1.134,2.473-4.7,6.633-1.906,9.611-5.618.878-6.521-5.064-2.778-6.839-6.689-1.109Z" transform="translate(-15.155 -344.158)" fill="#ff8080" stroke="#000" stroke-width="2"/><path d="M449.239,728.659l0.66,7.381-5.163.318,1.177,7.474,4.516-2.466-2.5,8.172-3.637.884,2.105,4.111-2.965,3.563-0.293,4.815,6.733,2.934-7.991,12.974,0.785,3.538,11.018-1.694,12.8,5.749,1.3,4.871,5.506,3.139,2.2,4.827,4.746,2.728-2,10.713-2.747.149-4.777,6.571-2.678-.623,1.146,14.251,2.311,4.541,12.9-2.379,8.888-10.4,2.5-.181,8.689,12.083,8.141-2.672,9.623,2.89,5.095-1.383,7.642,6.316,6.689-6.035,1.887,4.447,10.015,0.38,3.83-3.357,2.024-7.512,7.013-1,1.993-4.26,2.049,2.728,2.111-4.933,10.333-8.62-0.386-6.422,2.454-2.691-0.262-8.5,2.728-8.234,2.983-3.438,4.8-3.731,5.207-5.581,5.431-1.053,2.927-3.008-0.243-5.394-4.752-2.13-1.981-10.1-4.285,2.479-11,.293L584.6,742.33l-4.889,2.834-5.469-1.7-11.23-.492-3.538.772-11.971-.274-10.464,1.769,7.032,9.729-2.654,4.161-4.746-1.277-1.053,2.242-6.4,1.688-0.5-1.364-2.087.853-1.171-2.124-3.033-4.528-0.878.131-2.043-3.276-5.531,1.6-0.716-3.183,2.062-2.373-2.927-3.874,2.89-4.534,3.046,1.557,2-2.336,2.006-5.251,9.112-6.44,5.923-12.65-4.653-3.177-7.786-2.921-4.858,4.323,1.975,1.644-0.28,7.835-7.138,3.251-1.445-4.21-1.233,1.943-6.552-.137-1.283,6.615-2.3.336-0.673,2.666-2.734-.866-6.6-10.732-11.8-5.382-17.247-5.114-2.765-1.159-3.027,18.6Z" transform="translate(-15.155 -344.158)" fill="#7f7" stroke="#000" stroke-width="2"/><path d="M38.809,575.362l-1.975,1.24L23.6,586.6l-6.839,8.614,15.646,6.552,6.827-10.146,5.213-1.794,8.054,1.557,3.245,4.354,3.083,1.557-3.65,16.35,3.214,4.466,7.892,2.934,6.932,8.807,3.581,3.743,2.473-.81,8.851,5.593,5.693,11.286,0.909,1.956L112.9,666.629l6.945,3.855,1.9,8.06,4.329,3.4,5.238,9.673,6.578,5.07,8.514,6.2,12.277,4.7,16.256,8.583,0.112,4.024,2.273,0.941,4.6,10.975,2.846,4.447,4.846,1.551,3.127,4.142-0.131,10.04,3.656,6.951,0.685,3.314-0.436,10.925,3.725,6.914,19.059-5.724-0.685-2.5,8.614-5.568,1.775-.013,8.172-10.327-3.233-3.494,4.933-.392,1.875-7.835,4.646-2.734,0.517-.23,5.68,6.129,2.174,1.688,6.976-4.366,1.663,4.883,2.5,0.741L287.023,734.8l-0.99-2.242,9.031-15.328,7.792-6.577,1.171,4.983,5.911,9.536-7.263,4.092L300.1,740.157l-0.287.891,9.119-.654,3.681-3.357,2.018-10.2,4.073-6.739,1.906,1.794,0.984,15.16-4.578,11.809,6.639,4.3,7.817-.941,3.556,7.424-1.526,5,4.846,2.641-2.429,7.991-10.339,8.95,5.07-.922,4.535,5.961,10.208-2.018,5.163,5.008,7.78-7.892,2.66,0.922,1.351,7.561,4.092,3.189,4.584-2.666,2.84,3.905-0.753,2.516,4.248,2.822,2.155,10.146-8.178,6.92,5.263-1.134,3.856,3.687,6.235-4.671-1.5-8.265,6.179-9.368,7.761-3.139,6.571-4.784,4.541,2.915,7.456-3.121,11.33,2.242,4.186-6.789,9.48-4.933-0.785-3.538,7.991-12.974-6.733-2.934,0.293-4.815,2.965-3.563-2.105-4.111-15.384-2.566,4.042-9.337-6.3-3.357-1.526-4.534-5.132-4.827,2.149-7.873-3.077-4.5-5.1,1.732-11.542,12.6-3.17,1.738-11.448-6.546-14.537-5.02,1.065-11.722-1.021-4.958L351.886,704.1l-1.507-9.953,5.288-5.637-2.018-6.876-3.581-9.766-4.111-3.139,1.084-6.085,2.442-.66L345.054,647.3l3.581-17.839-3.9-3.8-7.642.947-5.631,4.79-7.63-10.887,3.233-4.217-12.713-2.111-6.471-4.073-4.827-2.03-0.71,7.35L292.068,612.8l-3.619-3.656,1.545-4.852-2.18-1.339-5.388-1.339-5.02,2.734-7.381,7.761-11.336,1.757-4.8,3.2-1.451-7.437,2.741-4.329-3.015-4.41-6.851-3.363-0.492-5.263-7.362-3.145,4.285-6.06-0.386-7.661-10.825,8-9.6-5.244-3.675-2.983-4.671.785-4.454-14.843,2.741-.013,0.492-5.463-2.728-10.383,6.241-4.908-4.073-3.612,3.9,1.9,0.087-2.473,4.285-2.13,15.465-3.457,1.551-7.611,6.689,1.109,2.772,6.839,6.527,5.064,5.618-.878,1.906-9.611,4.7-6.633-1.134-2.473,0.181-6.5,2.641,0.585,1.171,5.275,18.2,0.959-2.516,4.111,3.949,5.873,2.566-.523,4.379,6.49,4.4,2.323-0.118,5.17,5.226,1.159L308.4,535.6l2.772-12.818,5.543-4.148,0.885-2.722,10.794-2.784,0.585-2.8,3.382,4.254,4.715-3.015,8.078,2,5.132-2.037,1.177-.523,18.885-11.828,1.227,9.922,4.92-.66,6.1,4.329,2.037,8.047-5.033,12.65,5.008-1.588,2.815,6.908,2.809,0.062,10.981-8.577L399.579,518.2l-4.279-6.858,4.653-14.625-5.082,1.557-2.5-.567-4.484-9.05,2.685-5.817-1.121-13.2-8-8.377-0.287-4.871-2.192-1.221,0.374-5.064,7.051-6.752-7.107-5.712-8.334-.947-5.774-6.035-6.1-4.547-7.618,1.314-4.559-2-4.815-4.416-12.906-5.581-5.226-6.658-5.581,3.557-1.956-1.283-5.917-9.617,13.3-10.315,2.311-5.188-3.033-6.54-6.359-4.6-5,2.224-9.137,13.385-10.919-.554-0.822-4.167-2.136.162h-5.525l-4-3.787-3.289-9.735-8.994-5.469-0.23-1.532-11.137-2.6-4.634-3.519-9.119-7.73-6.739.118-15.945-1.781-3.594,3.781-7.792,2.1-5.444,5.556-18.642,7.418-1.221-3.338-8.091,7.537-7.923,1.956,1.077-2.554-6.708-4.379-2.728-.224L155.4,357.649l-0.947.249-7.244-6.932,0.2-4.833-6.951,4.852-5.755.305-16.692.779,1.775-3.606-9.349.075-5.195,29.193-2.554,19.034L100.77,417.3,107,433.637l7.854,3.693,14.419-.349L130.81,448l11.6,19.7,4.111,3.905,7.861-2.111,11.548,2.79,4.528,7.007,1.644,10.757,5.662,7.7-4.665,6.285-4.784-1.831-20.361-9.467-8.577-1.04-7.96,3.457-2.66-1.165-9.006-6.976-7.879-12.376,2.261-1.806-1.09-2.622-8.39,1.812L83.367,486.555,71.483,506.318l-7.966,27.761-7.568,24.03Z" transform="translate(-15.155 -344.158)" fill="#ff8080" stroke="#000" stroke-width="2"/><path d="M534.937,841.875l-7.642-6.316-5.095,1.383-9.623-2.89-8.141,2.672-8.689-12.083-2.5.181-8.888,10.4-12.9,2.379-2.311-4.541L468,818.8l2.678,0.623,4.777-6.571,2.747-.149,2-10.713-4.752-2.728-2.2-4.827-5.506-3.139-1.3-4.871-12.806-5.749-11.012,1.694-9.486,4.933-4.186,6.8-11.323-2.248-7.456,3.121-4.547-2.915-6.565,4.784-7.761,3.139-6.185,9.368,1.507,8.265-6.235,4.671-3.862-3.687-5.257,1.134,8.178-6.92-2.161-10.14-4.242-2.828,0.753-2.516-2.84-3.905-4.584,2.666-4.1-3.189-1.345-7.561-2.66-.922-7.78,7.9-5.163-5.014-10.208,2.018-4.535-5.961-5.07.922,10.339-8.95,2.429-7.991-4.846-2.641,1.526-5-3.563-7.424-7.811.941-6.639-4.3,4.578-11.809-0.984-15.16-1.906-1.788-4.073,6.739-2.018,10.19-3.681,3.357-9.125.654,0.293-.891,2.573-10.894,7.263-4.092-5.911-9.536-1.171-4.983L295,717.28l-9.038,15.328,1,2.236-22.118,15.839-2.5-.741-1.663-4.877-6.976,4.36-2.174-1.688-5.68-6.129-0.517.23-4.646,2.734-1.875,7.835-4.933.392,3.233,3.494-8.172,10.327-1.775.013-8.614,5.568,0.685,2.5-19.059,5.724,4.03,21.694,5.581,8.153,4.41,9.374,3.457,9.636,7.649,3.307,3.837,7.325,2.068,7.8,3.924,1.713-0.909,2.018,4.97,1.451,5.126-1.868,5.749,12.121,8.508-.978,2.192,5.176-1.221,2.622-9.424,6.689,0.922,2.466,5.213,0.311,3.949,3.363-0.872,5.139,5.836,5.849,7.667-1.812,9.306,4.9,7.263-1.582,11.081-11.33,9.2-5.114,8.483,15.627L330,878.811l3.295,7.038,8.066,1.065,4.715-2.728,6.478,4.248,7.63-2.062,0.181,0.143,2.747-.075,2.08,5.095,11.068,7.611,0.094,5.307-5.456.5,1.171,1.283,8.172,1.582,8.95-6.166,2.361,1.576,3.88-2.3,8.427-.747,6.926,4.765,7.487-2.466,4.784-6.247,4.435-2.784,18.3-1.458,0.99,0.81,7.082,3.488,12.831-2.915,1.5,0.1,7.786,0.361,2.466,3.905,4.472,1.2,12.694,4.727,3.351,4.391,7.985,1.246,4.74-3,0.48-2.778,8.888,7.207,1.551,7.6,7.942,7.051,2.529-.816,3.737-2.167,6.272,8.751,7.942,0.094,7.02-3.762,5.4-.592,17.583,6.752,1.894,4.8,1.975,4.889,2.037,4.933L591.6,945.9l4.13,2.186-3.475,6.764,5.992,5.107,14.494-15.478,0.137,2.822,8.234,7.586L623.9,952.9l10.532,10.869L645,961.4l-0.561,5-3.307,3.849,6.608,9.094,5.275-1.825,3.158-6.615,4.422-2.2-1.7-1.812,7.25,3.276,4.8-2.7L676.512,968l0.666,0.816-1.482,2.3,3.345,7.25-1.557,10.57,2.2,5.058,9.355,6,11.168-7.885-0.8-15.1,2.591-.1-0.087-1.931,7.237-12.569,0.692-6.453,4.964-.486,1.968,1.925,5.437-.872,4.285,3.2,2.554-3,4.3-13.1-3.332-7.3-5.22-2.952-0.548-12.912-4.086-.255-2.784-4.142,1.339-7.013L714.2,906.89l-2.273-4.31,2.249-6.422,6.876,0.585,11.485-19.713-11.423-7.207-3.918-2.236-3.992-2.535-4.354,2.859-7.655-2.828-4.865,2.454-2.18-1.651,1.557-7.661-3.2-4.3,1.458-2.242-8.384-5.151,3.27-11.043-2.628-.23,1.364-15.845-7.53-3.015-5.487-6.073-2.66-12.98,2.068-4.983L670,792.272l3.65-16.362-1.819-4.933-5.749-2.952,2.678-18.374-6.8-7.96-0.915-12.339L664.959,728l-7.574-4.8-8.284-6.658-5.064.006-1.252-1.04,4.273-3.2,1.084-7.8,3.326-4-13.18,2.747-8.234-1.221-5.282-3.121,12.052-9.579,14.481-8.222,2.765,0.43L651.4,664.219l-6.92-6.459,0.131-3.251,6.011-7.462,0.081-7.5-7.487-.7,1.495-2.473-6.97-18.929-2.84-2.491-16.836,10.258-7.674,3.164-2.292-6.858-3.8-2.89-7.25,9.548-13.273,1.37-7.53-7.493,1.539,12.2-1.233,2.386-10.04,2.716-4.273-6.073-0.76-5.537-7.892-3.3-3.675-4.4,2.1-4.154-4.616-7.038,0.386-8.409-5.033-6.048L544.255,592l19.165-3.718,0.125-2.853,8.408-7.443,0.629-1.819-5.195-.28-2.822-10-9.063-4.833L554.178,558l-10.277.772,2.286-8.2,3.345-16.724,3.071-4.721-1.134-8.539,4.79-.791,2.354-6.9,5.967,0.517,0.162-7.387,3.183-1.264,10.308-4.865,5.556,1.657L596,493.182l6.092-2.224,5.463-2.666-0.343-4.129-3.245-4.391-1.962-2.435-5.126-.305-8.433-9.418-3.986-8.826-8.054,2.442-10.3-.853-5.5-4.964-9.28,7.892-2.448-.536-1.345-.542-7.674,14.936-3.226.779-13.285-23.1-1.993-3.382-9.586,3.855,0.785,2.5,2.417-1.2,5.562,9.2-2.2,7.138-2.093-4.678-2.535-.33-8.838,5.12-5.83-4.653-11.292-7.505L479.3,471.644,467.327,475l-4.279,1.47,0.9-7.038-12.98,1.812-0.218,2.286-6.222,2.261-4.541-.274-0.361,2.248-2.753-.492-12.463,14.438-4.285-9.953-3.164-4.123-7.287-2.348-3.911,6.141-9.48-3.114-5.78,4.64-2.691,5.817,4.491,9.05,2.492,0.567,5.089-1.557-4.653,14.625,4.273,6.858,1.638,12.071-10.987,8.577-2.809-.062-1.109,1.788,2.846,7.225,7.287-1.1,11.38-7.879,7.854,2.211,2.6,4.9-1.756,4.684,0.71,5.126,7.63-1.171-2.934,4.622,2.124,5.089,7.916-6.945,2.087,7.48,5.213,0.754,7.051,7.207,3.75-7.624-0.206-5.518,8.191-.517,4.5,6.976,5.026,2.248,7.91-.847-1.6,2.074,2.168,1.451,16.83,2.167,2.859,16.481,5.475,1.32,4.889-1.333,3.1,4.186,1.669-1.37,5.139-1.993,6.247-9.137,5.139,11.535-9.779,9.119,0.611,5.213-7.611,2.535-6.951,10.9,3.177,7.069-3.893.847-13.6,2.554-7.985-2.41-6.714-.517-4.509-.467-2.952,3.233-3.949,10.875,1.021,11.517-3.856,4.329-2.255.691-1.6,6.876-4.665,2.734-5.475-.436-8.651-6.764,6.173,8.726-0.411,5.244,3.394,7.057,4.242-.262,1.557-2.311,10.769-2.255,2.454,6.827,6.509,3.488,3.743-3.943,13.423-1.595,1.85,7.213,14.4-9.137,0.293-8.62,1.85-5.463,4.541-3.463-0.33-2.859,5.45-1.426,3.1,4-4.491,1.688-1.264,8.178,2.224,1.657-4,10.227,8.34,10.694-2.149,4.485,13.011-2.155L545.7,683.669l4.734,2.124,1.053,2.535,2.685,7.916-0.5,8.3-5.394,6.241,0.86,2.678,1.27-.087,1.158,4.528-6,21.09,1.931,4.547,11.977,0.274,3.532-.772,11.23,0.492,5.469,1.694,4.889-2.834,1.937,13.865,10.993-.293,4.292-2.485,1.975,10.1,4.758,2.13,0.243,5.394-2.934,3.015-5.431,1.053-5.2,5.512-4.8,3.743-2.983,3.444-2.728,8.228,0.268,8.5-2.46,2.691,0.392,6.422-10.339,8.62-2.111,4.933-2.049-2.728-1.993,4.26-7.013,1-2.024,7.512-3.824,3.357-10.022-.374-1.887-4.453Z" transform="translate(-15.155 -344.158)" fill="#06c" stroke="#000" stroke-width="2"/><path d="M593.691,538.576l-7.605,2.043-2.678,5.593-2.043,5.743-8.72,24.148-0.629,1.819-8.408,7.443-0.125,2.853-19.165,3.718-1.507,2.392,5.026,6.048-0.386,8.409,4.616,7.038-2.1,4.154,3.675,4.4,7.892,3.3,0.76,5.537,4.273,6.073L576.6,636.57l1.239-2.386-1.539-12.2,7.53,7.493,13.273-1.37,7.25-9.548,3.8,2.89,2.292,6.858,7.674-3.164,16.836-10.258,2.84,2.491,6.97,18.929-1.495,2.473,7.487,0.7-0.081,7.5-6.017,7.462-0.125,3.258,6.92,6.459,2.672,17.328-2.772-.43-14.481,8.222-12.046,9.579,5.275,3.121,8.24,1.215,13.18-2.741-3.326,4-1.084,7.8-4.273,3.2,1.246,1.04,5.07-.006,8.284,6.658,7.574,4.8-3.911,1.352,0.909,12.333,6.808,7.966-2.685,18.374,5.749,2.946,1.813,4.933-3.644,16.362,3.974,0.1-2.068,4.983,2.66,12.98,5.487,6.067,7.53,3.021L686.272,835.2l2.628,0.23-3.282,11.037,8.4,5.151-1.458,2.248,3.189,4.291-1.557,7.667,2.192,1.644,4.865-2.448,7.655,2.828L713.254,865l3.992,2.535,3.918,2.236,11.423,7.207L721.1,896.687l-6.876-.585-2.249,6.415,2.273,4.316,4.528,2.155L717.44,916l2.784,4.142,4.086,0.255,0.548,12.918,5.22,2.946,3.332,7.306-4.3,13.1,10.134-.386,6.982,3.457,1.134,2.653,8.639,2.329,5.4,1.619,4.646-3.22,1.937-2.08-1.2-8.39-3.2-10.234,1.837-10.62,4.541-2.959-1.021-2.143,20.766,0.492,1.956,1.825,3.613-3.139-2.4-6.833,0.947-1.165,5.631-4.883,1.19-2.192-1.9-1.619,2.056-1.744,7.885,0.909,1.351,5.064,5.68,5.631,1.458-2.024-1.669-7.25-0.891-5.232L803.73,893.012l7.15-4.329,1.047-4.8,1.109-.143,4.5,12.407,7.711-2.118,3.482-6.752,11.3,26.907,1.956-1.757,4.248,3.015,3.588,6.988,1.482-9.623-3.781-3.743,0.7-8.116,10.315-3.1,4.073-6.621,2.628,0.617,5.269-3.046,6.359,4.784,2.093,7.443,2.691,0.156,1.9,4.939,5.986,5.263,2.747-2.466L896,899.178l7.848,0.8,1.19-8.3-2.728-7.879,16.35,1.046-2.18,17.054,2.579-.293,4.491-6.229,2.492-5.114,11.323,0.031,0.909,0.094L934.71,874.2l-6.876-7.966-2.068-10.52-1.109-7.543,3.052-7.107-14.139-.386-4.466-3.339,0.853-4.97-2.971-3.974,13.03-8.5,0.112-10.452L917.04,805l2.479-6.359-1.264-1.3L913.97,795.1l-7.3,1.539-0.9-6.185-1.034-2.579,8.782-6.652,2.093-.648,4.285-2.9-0.679-2.485L916.6,759.453l-4.541-6.565,1.607-2.13,4.584-2.049,0.318,9.785,2.46,0.716,16.568-14.239-0.666-5.948,2.5-7.518-2.641-11.965L940,716.214l7.518-14.668,14.319-9.611,0.866-2.211-2.616-.716,1.071-10.078,3.588-3.818,11.809-7.854,5.294-6.546-5.4-2.79-7.91,1.831-6.584-4.447-5.026.249,8.334-15.017,0.679-1.657-3.015-7.406-10.4,1.825,0.828-5.363-13.4.648-4.914-7.462-0.692-4.684-9.112-5.356-2.934-6.609-8.346,6.957-6.864-3.37-16.475-6.677-2.921,2.747-6.851-3.208-2.728,2.828-6.876,3.457-11.809,7.462-1.252-4.391-3.905-2.846-6.839-2.622-4.7,2.348-2.609,4.365-4.852.642-2.934-3.4-1.688,10.769-11.025-.847L812.5,623.1l-3.687,3.463,1.495,2.043-3.905,2.84-7.848-2.068-0.5-2.049-0.243-5.188,7.929-2.13,3.295-7.667-6.073-12.924-4.26-.884-0.666-14.02-9.268,4.989-3.538,7.237-4.454-2.292-6.509,5.1-1.763-2.224-6.085,9.231-0.635,1-7.188,1.408-2.747,4.578-7.263,3.083-5.195-1.04-5.22-6.341L749.5,598.862l-1.75-7.449,7.418-7.916,3.905-9.81-1.943-6.864,1.445-9.679-1.4-2.317-7.443,2.7-7.748-1.744L731.6,545l-9.978-1.893-2.105,1.426,3.382,13.41-7.761,3.513-0.679,2.778,11.336,12.32-8.016,5.494-6.459-9.143-4.889-2.473-5.463,1.183-8.234-5.487-4.758,4.846-6.229-4.628-2.728-4.2,0.05-1.788-7.368-2.473-12.656,3.071-2.093-4.316-7.032-1.277-3.345-5.842,0.149-1.819,8.988-12.189-3.17-.367-2.23-1.215-4.273,2.734-6.335-5.132-2.7.392-2.809,4.659-0.7,7.848,1.8,2.037-8.352,7.449-9.206-21.264-12.632,2.61-8,.66Z" transform="translate(-15.155 -344.158)" fill="aqua" stroke="#000" stroke-width="2"/><text transform="translate(339.205 319.993)" font-size="135.507" font-family="DejaVu Sans" font-weight="700">1</text><text transform="translate(484.151 476.01)" font-size="68.688" font-family="DejaVu Sans" font-weight="700">2</text><text transform="translate(758.436 442.954)" font-size="135.507" font-family="DejaVu Sans" font-weight="700">5</text><text transform="translate(86.384 287.256)" font-size="135.507" font-family="DejaVu Sans" font-weight="700">3</text><text transform="translate(539.023 383.902)" font-size="107.293" font-family="DejaVu Sans" font-weight="700">4</text></svg>