<svg xmlns="http://www.w3.org/2000/svg" width="673.062" height="981.796" viewBox="0 0 673.062 981.796"><title>Députés sortants de l&amp;apos;Aisne en 2017</title><path d="M246.043,465.112l4.137-4.587-0.3-14.309-5.4.87-4.624-2.793-8.554-10.9-0.213-.462,3.468-3.145,12.453-6.607,7.13-5.883,5.871-4.6,1.131-7.313-11.017-5.658-2.914-4.484-5.183-.56L237.7,397.8l-2.117-1.637-2.4-1.332-3.614,4.222-2.78-.128-3.875-3.912-0.347-5.439-5.1-1.935-1.046-5.189,5.962-5.676-4.739-2.464-6.656-12.8,8.7-6.132,7.106-4.532,4.435-8.493-3.851-3.17-2.4-12.222-10.312.773-1.795,1.874-6.954-13.786,5.074-13.329,1.162-.87,26.878-1.855-1.594-4.471,24.11-7.787,1.758-1.837,3.431,3.565,5.92,1.612,7.045-6.887,6.954-3.09,2.294,1.326,4.435-8.323,4.563-2.014,3.815,3.334,2.792,2.6,7.592-2.671,12.289,14.577,8.365,0.128,2.008-1.941,7.282-7.4,11.395-4.995,0.487-5.007,4.952-5.573,1.843,1.624L372.9,265.8l2.306-.906,0.128-4.983,4.587-5.573,4.685,5.883,4.989,1.582,0.572,2.592,8.7,1.089-1.357,2.92,0.663,8.274,13,14.059-3.431,15.653-0.487,4.745-5.524,4.672,2.969,4.526,7.52,2.762,7.5,7.836-14.534,4.155-0.858,4.976,0.347,5.031,4.934,1.314,0.724,2.458L406,355.033l2.665,1.2-0.913,10.64-0.62,5.323,7.7,1.88,9.138-3.346,1.247-7.763,5.238-.018,9.1-4.989,1.819-2.914,7.319-7.538,15.337,10.427,3.93-1.734-2.434-7.465,2.184-15.812,5.536-2.689-1.01-1.947,5.147-2.452-2.72-7.836,5.761-15.355,2.945-4.24L488,300.389l2.683,1.43,11.79,2.829,6.418,4.721-3.924,9.332,2.245,1.436,13.068-1.411,2.665,4.66,7.745-1.758,2.02,1.722,5.737-5.336-5.81-9.758,11.705-18.3,2.707,4.587,5.36,0.481,5.737-5.84,2.58-7.872-5.147-1.825-7.878,2.2-4.076-12.989-1.2-3.912,1.783,1.643,11.255-13.664,17.016,0.1,5.6-18.6,10.72-5.488,7.282,2.257,1.284,1.868-10.148,7.97,7.38,6.382,5,0.383,6.1,4.4,2.342-.906,0.8-12.368,8.128,0.913,0.687,1.965,4.137,0.377,11.778-3.072,12.8,1.144,5.451-6.613,10.835,0.316,8.189,2.567-1.868,1.941,4.1,6.759,5.3-1.405,9.065,5.974,2.506,7.781-8.462,6.972-1.509,12.776L678.82,280.2l-10.47,3.656-7.13,5.652-3.626,11.535,0.45,1.886L647.483,306.9l-7.13,2.6-3.48,3.188,1.235,7.033-10.184-.061-2.245,13.688,1.131,8.195-3.93,7.2-0.809,6.595-10.2,3.267L599.208,353.2l-10.823.809-1.57-2.294-2.671-.28-1.971,10.257-6.333,4.3,2.72,4.642,8.28,10.744,6.747,3.419,1.983,1.795-2.16,4.934,1.32,10.738,7.227,3-8.84,12.934-4.776,2.318,0.76,5.2,8.079,1.539,4.192,3.334-0.3,13.627-0.3,2.6-7.155-2.026-2.494,9.722-7.83.316,0.025,10.361,0.39,9.132-0.049,2.628,0.359,7.982,12.429,20.125-2.446-1.022-7.355,1.235-4.964,5.64,2.932,10.719,0.335,5.427,3.09,4.259-0.985,5.4-4,6.716-1.618,10.385-0.834,19.237-11.778,1.265-2.33-7.227-11.157-9.138-13.1,1.253-13.749-16.736-5.122-7.4-7.507,9.849-7.52,2.026-18.573,8.943-1.947,10.464-4.435,2.981,5.4,8.675-1.63,4.989-1.795,1.935-9.576-4.222-4.66-5.341-10.7-1.454L455.3,575.44l-6.856,3.066-1.247-2.2-10.2,6.51-5.871-.426-2.78.444L424.5,572.24l-4.338-5.9-4.776,1.107-10.172-7.489-2.519.347-4.24-1.393-0.31-4.721-9.041-8.237-2.355-.377-1.381,3.985-2.33.5-5.287-1.345-5.1-6.011-5.6-.5,0.973-5.25-2.914-10.269,1.3-5.226-12.831-.049-3.5-3.936-2.22-11.954-5.2-1.466-3.778.456,3.516-12.575L330.5,486l-0.608-6.424-3.413-2.7-2.22-7.325,2.056-4.569-3.042-4.125-6.771.712-6.357.937-1.211-.018-7.878,1.484-15.082,19.005-7.745,1.558-6.485-4-2.16,7.094-8.487,7.319-7.033-3.516-12.818-.523-1.46.055-0.821-17.679,7.6-1.253Z" transform="translate(-22.598 -4.272)" fill="#ffc0c0" stroke="#000" stroke-width="2"/><path d="M171.409,36.532l-5.214,2.02-2.4-1.454-13.342,9.88-15.945,4.763-0.663,1.618L125.7,68.027l4.922-.243,6.418,4.344,7.726-1.789,5.275,2.725-5.171,6.394L133.337,87.13l-3.492,3.729-1.059,9.844,2.555,0.7-0.845,2.16-13.987,9.387-7.343,14.327-3.139,3.249,2.58,11.687-2.446,7.343,0.651,5.81L90.63,169.272l-2.4-.7-0.31-9.558-4.478,2-1.57,2.081L86.3,169.51l2.555,15.367,0.675,2.427-4.192,2.835-2.044.633-8.578,6.5,1.01,2.519,0.882,6.041,7.13-1.5,4.186,2.184,1.235,1.272L86.743,214l3.017,4.344-0.11,10.209-12.727,8.3,2.9,3.881-0.834,4.855,4.362,3.261,13.81,0.377-2.981,6.941,1.083,7.367,2.02,10.275L104,281.59l3.48,15.805,4.885-.487,1.88,5.019,5.238,1.15,1.211,2.44-1.083,10.939,12.027-1.138,1.922-.645,3.577,4.441,12.666-1.539,5.761-14.57-0.45-7.842,5.238,1.29,0.882,5.348,2.306,1.43,7.976-.377,4.7,2.665,7.531-10.014,12.143,6.449,1.308-4.624,4.715-2.2,2.269,9.217,2.421,1.071,4.435-2.926,1.162-.87,26.878-1.855-1.594-4.478L261.6,287.5l1.758-1.843,3.431,3.571,7.2-7.306-3.376-4-3.206-11.194-19.224-15.647-0.913-3.869,1.959-1.734,10-12.928,4.453,2.263,4.66-2.135-0.176-4.794-14.175-10.7L240.2,213.824l-0.548-.14,0.633-7.227,1.393-2.36,5.214,0.322-0.085-6.309,5.512-6.771,10.549-11.687,7.52,1.2,7.081-3.65-1.174-4.9,0.061-7.234,1.235-5.1,4.076-6.905,2.628-.651,1.557-7.769-3.729-3.419,3.115-13.019-13.95.985-7.045,4.119-1.545-2.622-10.47,1.211-6.643-3.729-3.912,3.5-5.25.444L234.31,133l-5.147-4.417-1.345-3.139-1.211-4.983,4.4-11.614-4.727-4.076-8.377-1.192-9.46-4.538,0.8-5.281,8.213-13.853,0.377-.183,7.234-.955,4.374-6.309,5.275-.31,4.277-1.795,1.758-6.51-4.161-7.331-7.38-4.082-9.685-5.08L214.635,48.6l-9.5-2.817L200.576,47.2l-10.409,1.916-3.529-4.076,2.281-.967-3.729-6.437-3.705-.943-2.458-.627-1.521,4.812-5.694-4.167Z" transform="translate(-22.598 -4.272)" fill="#06c" stroke="#000" stroke-width="2"/><path d="M677.19,133.385l-2.257-4.691,1.259-13.92L682.361,96.8l0.487-1.5-18.464,2.677L663.4,87.556l-11.133-6.905-10.233.724-6.856-2.914-18.586,5.78-10.6.73-2.342-7.477L590.82,73.138l-8.128-.286-4.277,2.926-4.94-3.249-5.25.055-2.92-7.361-12.892,1.308L552.066,58.5l7.806-20.028-2.945-10.385L553.186,25.6,536.395,39.726l-0.8-2.141-13.153,2.646L504.054,53.56l-0.31-11.127-4.326-3.516L502,38l-0.523-2.7-7-4.222-10.671-2.348-5.725-5.859L467.1,29.937l-8.791-6.753-10.8,1.156-1.393-2.488-15.246-3.62L415.055,5.584l-2.482,2.245-19.085,8.329-4.922,1.971-2.993,4.277-2.208,4.849,4.24,2.932-2.342,4.831-7.5-3.431-9.29,5L362.8,41.192,360,37.147,352.5,26.026l-7.745-2.561-5.92-4.727-5.871-.754-7.592,1.551-6.145,10.537-11.243,2.719-0.572,1.734-8.767,11.589L266.418,43.6l0.359-2.166-4.4-2.92-4.873.249-6.248-5.214-3.09,2.774-9.448-4.246-10.92.56-1.5,2.3,0.748,2.519-4.173,2.786-3.364,7.136,9.685,5.08,7.38,4.082,4.161,7.331-1.758,6.51L234.7,72.177l-5.275.31L225.055,78.8l-7.246.955-0.371.183-8.213,13.853-0.8,5.281,9.46,4.538,8.377,1.192,4.727,4.076-4.4,11.614,1.211,4.983,1.345,3.139,5.135,4.417,2.129-.888,5.25-.444,3.912-3.5,6.643,3.729,10.458-1.211,1.557,2.628,7.045-4.125,13.95-.985-3.115,13.019,3.729,3.419-1.557,7.769-2.628.657-4.076,6.9-1.235,5.1-0.061,7.234,1.174,4.9-7.081,3.65-7.52-1.2L252.31,191.363l-5.512,6.771,0.085,6.309-5.214-.322-1.393,2.36-0.633,7.227,0.548,0.14,13.786,3.364,14.175,10.7,0.176,4.8-4.66,2.129-4.453-2.263-10,12.928-1.959,1.734,0.913,3.869L267.4,266.752l3.206,11.194,3.376,4-7.2,7.306,5.92,1.612,7.045-6.887,6.954-3.09,2.294,1.326,4.435-8.323,4.563-2.014,3.815,3.334,2.792,2.6,7.592-2.671,12.289,14.577,8.365,0.128,2.008-1.941,7.282-7.4,11.395-4.995,0.487-5.007,4.952-5.573,1.843,1.624,12.131-.724,2.318-.906,0.128-4.983,4.587-5.573,4.685,5.883,4.989,1.582,0.572,2.592,8.7,1.089-1.357,2.92,0.663,8.274,13,14.059-3.431,15.653-0.487,4.745-5.524,4.672,2.969,4.526,7.52,2.762,7.5,7.836-14.534,4.155-0.87,4.976,0.359,5.031,4.934,1.314,0.724,2.458-4.326,6.163,2.652,1.2-0.9,10.64-0.633,5.323,7.714,1.88,9.138-3.346L425.27,363l5.238-.018,9.1-4.989,1.807-2.914,7.331-7.538,15.337,10.427,3.93-1.734-2.434-7.465,2.184-15.812,5.536-2.689-1.01-1.947,5.135-2.452-2.707-7.836,5.749-15.355,2.957-4.24,4.624,1.977,2.683,1.43,11.778,2.829,6.431,4.721-3.924,9.332,2.245,1.436,13.068-1.411,2.665,4.66,7.745-1.758,2.02,1.722,5.737-5.336-5.81-9.758,11.705-18.3,2.707,4.587,5.36,0.481,5.737-5.84,2.58-7.872-5.147-1.825-7.878,2.2-4.076-12.989-1.2-3.912,1.783,1.643,11.255-13.67,17.016,0.1,5.6-18.6,10.72-5.481,7.282,2.257,1.284,1.868-10.148,7.97,7.38,6.382,5,0.383,6.1,4.4,2.342-.906,0.8-12.368L617,239.7l0.687,1.965,4.137,0.377,11.778-3.072,12.8,1.144,5.445-6.607,10.847,0.316,8.189,2.567,6.656-4.173,2.184-4.751L675.84,218l-2.458-.888,4.526-20.648,3.431-3.389,1.819-10.1,7.927-6.637,0.56-5.043,2.92-32.688-9.722.152-1.71-4.283Z" transform="translate(-22.598 -4.272)" fill="#ff8080" stroke="#000" stroke-width="2"/><path d="M211.013,361.53l8.712-6.126,7.106-4.538,4.423-8.493L227.4,339.2l-2.391-12.222-10.312.779-1.795,1.868-6.966-13.78,5.086-13.335-4.441,2.926-2.421-1.071-2.269-9.217-4.715,2.208-1.3,4.618-12.143-6.449L176.2,305.542l-4.7-2.665-7.964.377-2.306-1.43-0.882-5.348-5.25-1.29,0.462,7.842-5.773,14.577-12.654,1.539-3.59-4.447-1.922.651-12.027,1.132,1.1-10.939-1.211-2.44-5.25-1.15-1.88-5.019-4.873.487-0.9-.091,3.754,7.471-4.976,12.3,5.585,9.253-1.783,6.68-3.1-3.6-4.825.8-0.377,4.837-4.24,1.649-1.521,4.721L100,342.829l2.494,4.538,1.034,9.5-8.365,6.272-1.57.736,4.374,5.4,10.61,10.987,0.858,4.605,7.179,14.09,0.475,2.184-6.206,2.342-0.359,5.457,2.8,4.66L113.2,427.028l-2.878,1.253,1.022,8.3-2.817,7.732L95.02,447.329l0.748,5.3,4.873,6.035,7.282,7.951,1.046,10.263-8.815,5,0.426,4.995,11.717,4.922,13.165,6.254,5.694,5.78-2.22,3.431,1.661,1.393-19.857,7.185-2.665.067-5.737-5.354-5.275-.633-3.03,3.979,0.164,7.489,0.286,2.871,0.164,18.482-2.482-.207L94,558.192l-6.856,3.334L85.3,563.4l-0.347,13.1L82.8,582.521l-2.117.462-10.634,8.335-6.071,8.773,0.633,1.576,9.3-4.5,9.4,9.472,11.279-6.248,1.12-7.027,5.1,0.408,1.284,2.288,5.585-6.51,7.653,6.729-0.487,12.466,8.2-1.071,7.629,3.492,4.125,10.172,14.114,4.368,7.745,0.548,7.081-11.1-3.492-4.575,7.678-9.314-1.649-1.661,8.578-.541,14.26,0.785-1.594,12.709-6.893,7.161,2.281,7.136,14.272-6.461,3.34-7.4,4.137-3.376,7.465,2.47,4.66-.043-0.888-6.674,2.531-3.687,0.426-2.5,4.812-1.253,5.2-.852,4.587,2.549,11.31-10.434,3.34-.237,3.626-6.242-1.533-4.94,4.088-2.592,0.14-2.6,5.883-3.523-1.071-4.435-10.458.894-6.211-10.367-7.38-2.275-2.318-7.4-2.616-.268-1.271-1.119,13.056-1.624,12.2-10.738-0.322-4.465-6.272-3.516-0.4.475-6.522,3.084-7.6-1.028-8.091,1.059,4.015-15.83-4.35-3.133-0.913-11.529,12.307,0.426,3.827-6.406-0.821-17.679,7.6-1.253L246.08,465.1l4.137-4.587-0.31-14.309-5.384.87-4.636-2.793-8.554-10.9-0.213-.462,3.48-3.145,12.453-6.607,7.118-5.883,5.871-4.6,1.131-7.313-11.017-5.658-2.914-4.484-5.171-.554-4.338,3.109-2.129-1.637-2.4-1.332-3.614,4.222-2.768-.128L222.944,395l-0.347-5.439-5.11-1.935-1.046-5.189,5.962-5.676-4.727-2.464Z" transform="translate(-22.598 -4.272)" fill="#c66" stroke="#000" stroke-width="2"/><path d="M323.428,460.792l-6.844.76-6.272.949-1.332-.189-7.793,1.521-15.209,19.012-7.6,1.521-6.455-3.985-2.281,7.227-8.365,7.227-7.033-3.419-12.928-.572H239.79l-3.8,6.461-12.167-.377,0.76,11.407,4.374,3.224-3.991,15.787,8.176-1.144,7.6,1.144,6.461-3.042,0.377-.578,6.272,3.62,0.371,4.374-12.167,10.835-13.117,1.521,1.345,1.144,2.458,0.189,2.47,7.416,7.234,2.281,6.26,10.464,10.47-.949L260.322,569l-5.9,3.614-0.189,2.665-4.186,2.464,1.7,4.94-3.614,6.272-3.413.189L233.317,599.6l-4.563-2.47-5.147.76-4.739,1.332-0.584,2.47-2.458,3.614,0.937,6.656-4.739.189-7.428-2.47-4.186,3.23-3.23,7.416-14.26,6.461-2.281-7.033,6.844-7.227L189,599.786l-14.26-.76-8.554.572,1.71,1.71-7.6,9.308,3.419,4.563L156.68,626.2l-7.793-.578-14.066-4.374-4.186-10.075-7.6-3.419-8.176.949,0.377-12.356-7.6-6.844-5.512,6.461-1.332-2.281-5.135-.377L94.5,600.34,83.28,606.606l-9.5-9.5-9.126,4.563-0.76-1.521-2.458-4.751-9.71-4.374-5.706-2.281-5.512,6.272-13.877,8.548,7.428,9.5-2.671,3.8-1.71,1.521,9.886,4.751,2.281,6.461,10.47-1.332,2.093,1.521-1.9,5.135,2.665,0.377,3.042-4.38,2.47-.572,2.47,1.332,0.76,2.47-0.572,2.665-3.991,3.614v2.665l1.71,3.614-2.093,4.94,3.413,13.311v0.377L65.424,675.6l-6.26,8.176-5.147.377-4.563-3.042,2.47-4.563-5.9-5.141-19.395,3.042-2.853,4.186,6.272,10.646-0.76,2.47,1.332,17.874,4.94,2.281,5.323-5.9,12.538,9.5,3.419,7.227,7.982,1.332L63.307,712.67l-2.853-.189-1.71-5.135-9.5,3.23-1.9-1.9L44.49,692.137l3.23-4.186,5.512-1.144,7.793,3.042,2.093,5.323,4.563-2.665,4.374,1.9,4.751,2.093-1.71,4.751,2.665,4.186,4.94-2.281,4.751,2.281,1.9,5.141L87.07,721.224l1.332,7.982,5.512,4.374-3.991-12.545,8.176-19.2,6.272,5.141-1.9,15.97,1.332,2.464,7.033,4.186,7.982,1.144-1.521,4.94-6.656,4.751,0.189,2.665-10.276-.76,4.94,5.9-3.614,3.614-8.176-6.266-0.572,10.269-3.042,4.563-5.135.949-2.671,3.614,3.8,3.8,18.251,4.38,3.419-1.338,1.332,1.521,7.6,0.377,6.084,4.745,7.793,0.578-4.94,11.218,1.521,3.991,4.751,2.853,7.227,11.6-0.572,4.745,5.135,4.751v2.665l-4.934,1.9-2.281,10.269-6.844,3.985-0.189,4.94,4.374,5.9,14.26,5.323,4.374,4.94,0.949,4.374,7.227,2.665,0.76,2.47,2.281-.76,0.949,9.126,9.5,1.9,3.042,9.7,3.991,10.269-1.521,3.23,2.665,4.563,2.093,1.332,7.416-2.093,10.835-6.844,3.991,10.458,0.377,11.224,8.937,10.458,16.158-9.126,3.042-7.227,3.991,15.787-2.47,10.458,5.512,6.084,0.572,11.024,2.47,1.521,9.7-3.224-3.614,7.416,5.135,2.093,7.416-3.042,2.853,4.563,12.356,4.38-3.614,10.269,8.554,3.614,4.186-9.5,7.793-.949,0.949-4.374-2.853-7.033,4.186-1.144,7.033-2.853,2.853-15.4,6.461-11.218,3.8-5.323,9.7-2.281,10.075,1.144,2.853-3.991,1.144-16.158,9.7-4.374,4.186-1.521-0.572-4.94-4.563-5.9,5.9-3.985,9.5-.578,2.47-15.392,7.227-14.449,13.117-1.338,6.461-8.176L388.2,828.3l-6.844-3.23-4.563,2.665-5.135-1.332-7.6,2.464-1.15,2.47-12.356-.572-2.853-3.8,1.332-16.158,1.345-.377,6.26-3.042,2.671-6.272,12.739-.572,3.614-7.033-3.614-3.8-6.272-16.73-3.419-6.656-4.563.572-2.281-4.374L360.825,757l-0.189-4.94,4.94-5.706V741.22l0.76-1.71,1.71-1.332,15.587,2.093,15.209-4.563,4.374,1.144,2.853,3.419,2.665,4.374,7.227-3.042,11.6-7.793,4.751-1.332,1.332-15.021-5.512-.76-7.6,2.853-10.062-4.186L405.9,706.05l3.614-6.844-3.614-4.751-8.189,6.272-2.665-6.656-7.227-1.521-3.991-3.042-1.71-6.844,7.416-1.144,5.713-11.218-0.949-2.281-2.47-.578-7.793-17.491,5.135-5.135-7.033-7.416,3.8-6.461-1.521-3.419-6.656-3.8-2.47-4.374,2.093-1.338,2.671-10.069,7.781-2.665,3.419-4.374,9.314-1.9,3.042-1.144,9.886-4.374,12.356-1.144,3.042-2.665-0.572-7.033-3.8-10.458-4.374-5.9-4.751,1.144-10.075-7.6-2.665.377-4.192-1.332-0.371-4.751-8.937-8.365-2.47-.377-1.332,3.991-2.281.572L377.75,548.6,372.6,542.52l-5.5-.377,0.937-5.323-2.853-10.269,1.332-5.141-12.928-.183-3.413-3.8L347.9,505.44l-5.135-1.521-3.8.377,3.413-12.545-11.79-5.9-0.76-6.461-3.23-2.665-2.281-7.227,2.093-4.751Z" transform="translate(-22.598 -4.272)" fill="#ffd1dc" stroke="#000" stroke-width="2"/><text transform="translate(390.055 472.034)" font-size="132.356" font-family="DejaVu Sans" font-weight="700">1</text><text transform="translate(372.138 198.339)" font-size="132.356" font-family="DejaVu Sans" font-weight="700">3</text><text transform="translate(185.832 762.691)" font-size="132.356" font-family="DejaVu Sans" font-weight="700">5</text><text transform="translate(96.235 478.759)" font-size="132.356" font-family="DejaVu Sans" font-weight="700">4</text><text transform="translate(96.236 224.5)" font-size="132.356" font-family="DejaVu Sans" font-weight="700">2</text></svg>