<svg xmlns="http://www.w3.org/2000/svg" width="982.766" height="666.884" viewBox="0 0 982.766 666.884"><title>Députés sortants de la Somme en 2017</title><path d="M237.779,490.6L222.087,494.1l-4.35,2.162-0.088,2.51-3.958-1.928,4.135,3.667-6.335,4.982,2.769,10.539-0.5,5.545-2.782.013L215.5,536.66l4.742-.8,3.73,3.028,9.743,5.323,10.994-8.118,0.392,7.776-4.35,6.151,7.473,3.193,0.5,5.342,6.954,3.414,3.06,4.476-2.782,4.394,1.473,7.549,4.868-3.25,11.507-1.783,7.492-7.878,5.1-2.775,5.475,1.359,2.206,1.359-1.568,4.925,3.673,3.711,10.432,2.674,0.721-7.46,4.9,2.061,6.569,4.135,12.9,2.143-3.281,4.28,7.745,11.051,5.715-4.862,7.757-.961,3.958,3.856-3.635,18.107,4.5,14.9-2.479.67-1.1,6.177,4.173,3.186,3.635,9.913,2.048,6.98-5.368,5.722,1.53,10.1,21.767-2.915,1.037,5.032-1.081,11.9,14.756,5.1L405,692.5l3.218-1.764,11.715-12.79,5.178-1.758,3.123,4.565-2.181,7.991,5.209,4.9,1.549,4.6,6.4,3.408-4.1,9.477,15.622,2.6,3.692-.9,2.535-8.295-4.583,2.5-1.2-7.587,5.241-.322-0.67-7.492,7.871-1.144,3.073-18.878L469.5,672.8,487,677.986l11.974,5.463,3.344,5.741,3.338,5.146,2.776,0.872,0.683-2.7,2.333-.348,1.3-6.714,6.651,0.139,1.252-1.973,1.467,4.274,7.245-3.294,0.284-7.96-2-1.669,4.925-4.388,7.9,2.971,4.723,3.218-6.012,12.847-9.25,6.531-2.029,5.33-2.036,2.371-3.092-1.581-2.933,4.6,2.971,3.932-2.093,2.409,0.727,3.231,5.614-1.625,2.074,3.326,0.891-.133,4.267,6.74,2.118-.866,0.512,1.385,6.493-1.713,1.068-2.282,4.818,1.3,2.693-4.223-7.138-9.875,10.621-1.8-1.96-4.609,6.088-21.407-1.182-4.6-1.283.089-0.872-2.719,5.475-6.335,0.506-8.428-2.725-8.036-1.068-2.573-4.811-2.156-13.53,13.409L526.92,661.5l2.181-4.552-8.465-10.862,4.053-10.375-2.251-1.682,1.283-8.3,4.558-1.713-3.142-4.065-5.532,1.448,0.329,2.9-4.6,3.515-1.878,5.545-0.3,8.744-14.611,9.281-1.878-7.321-13.625,1.619-3.8,4-6.607-3.54-2.491-6.935-10.931,2.3-1.581,2.346-4.312.265-3.446-7.163,0.424-5.323-6.266-8.857,8.775,6.866,5.564,0.443L463.1,627.3l1.625-6.98,2.282-.7,3.914-4.394-1.037-11.69L473.9,592.5l3-3.281,4.571,0.474,6.822,0.525,8.105,2.447,13.8-2.592,3.951-.86-3.218-7.176,7.056-11.064,7.72-2.573-0.613-5.292,9.926-9.256L529.8,542.141l-6.341,9.275-5.216,2.023-1.694,1.391-3.142-4.249-4.963,1.353-5.557-1.34-2.9-16.729-17.083-2.2-2.206-1.473,1.631-2.105-8.029.86-5.1-2.282-4.571-7.081-8.308.525,0.209,5.6-3.806,7.738-7.157-7.315-5.292-.765-2.118-7.593-8.042,7.049-2.15-5.165,2.971-4.691-7.738,1.189-0.727-5.2,1.789-4.754-2.643-4.969-7.972-2.244-11.551,8-7.4,1.119-2.889-7.334,1.125-1.814-2.858-7.011-5.083,1.612,5.108-12.841-2.061-8.168-6.189-4.394-4.994.67L375.6,458.75l-19.163,12.006-1.2.531-5.209,2.067-8.2-2.03-4.786,3.06-3.433-4.318-0.594,2.839-10.956,2.826-0.9,2.763-5.627,4.211-2.813,13.011-5.229,5.779-5.3-1.176,0.12-5.247-4.463-2.358-4.445-6.588-2.6.531-4.008-5.962,2.554-4.173-18.474-.974-1.189-5.355L267,469.6l-0.183,6.6,1.151,2.51-4.767,6.733-1.935,9.755-5.7.891-6.619-5.14-2.82-6.942-6.79-1.125Z" transform="translate(-15.155 -301.362)" fill="#ff8080" stroke="#000" stroke-width="2"/><path d="M455.745,691.618l0.67,7.492-5.241.322,1.2,7.587,4.583-2.5-2.541,8.295-3.692.9,2.137,4.173-3.009,3.616-0.3,4.887,6.834,2.978-8.112,13.169,0.8,3.591,11.184-1.72,12.992,5.835,1.315,4.944,5.589,3.186,2.238,4.9,4.818,2.769-2.029,10.874-2.788.152-4.849,6.67-2.719-.632,1.163,14.465,2.345,4.609,13.093-2.415,9.022-10.552,2.541-.183,8.82,12.265,8.263-2.712,9.768,2.933,5.172-1.4,7.757,6.411,6.79-6.126,1.916,4.514,10.166,0.386,3.888-3.408,2.055-7.625,7.119-1.012,2.023-4.324,2.08,2.769,2.143-5.007,10.489-8.75-0.392-6.518,2.491-2.731-0.265-8.624,2.769-8.358,3.028-3.49,4.868-3.787,5.285-5.665,5.513-1.068,2.971-3.054-0.247-5.475L612.63,727l-2.01-10.255-4.35,2.516-11.165.3-1.96-14.067-4.963,2.877-5.551-1.726-11.4-.5-3.591.784-12.151-.278-10.621,1.8,7.138,9.875-2.693,4.223-4.818-1.3-1.068,2.276-6.493,1.713-0.512-1.385-2.118.866-1.189-2.156-3.079-4.6-0.891.133-2.074-3.326-5.614,1.625-0.727-3.231,2.093-2.409-2.971-3.932,2.933-4.6,3.092,1.581,2.029-2.371,2.036-5.33,9.25-6.537,6.012-12.841-4.723-3.224-7.9-2.965-4.932,4.388,2,1.669-0.284,7.953-7.245,3.3-1.467-4.274-1.252,1.973-6.651-.139-1.3,6.714-2.333.341-0.683,2.706-2.776-.879-6.7-10.893-11.974-5.463-17.506-5.191-2.807-1.176L463.6,690.448Z" transform="translate(-15.155 -301.362)" fill="#ffeb00" stroke="#000" stroke-width="2"/><path d="M39.14,536.015l-2,1.258L23.7,547.42l-6.942,8.744,15.882,6.651,6.929-10.3,5.292-1.821,8.175,1.581,3.294,4.419,3.129,1.581-3.7,16.6,3.262,4.533,8.01,2.978,7.037,8.94,3.635,3.8,2.51-.822,8.984,5.677,5.779,11.456,0.923,1.985,18.448,15.237,7.049,3.913,1.928,8.181,4.394,3.452,5.317,9.818,6.676,5.146,8.643,6.291,12.461,4.767,16.5,8.712,0.114,4.084,2.308,0.955,4.672,11.14,2.889,4.514,4.919,1.574,3.174,4.2L195.256,715.6l3.711,7.056,0.7,3.364-0.443,11.089L203,744.124l19.346-5.81-0.7-2.542,8.744-5.652,1.8-.013,8.295-10.482-3.281-3.547,5.007-.4,1.9-7.953,4.716-2.775,0.525-.234,5.766,6.221,2.206,1.713,7.081-4.432,1.688,4.957,2.535,0.752,22.45-16.077-1.005-2.276,9.167-15.559,7.909-6.676,1.189,5.058,6,9.679-7.372,4.154-2.611,11.058-0.291.9,9.256-.664,3.736-3.408,2.048-10.349,4.135-6.841,1.935,1.821,1,15.388-4.647,11.987,6.739,4.369,7.934-.955,3.61,7.536-1.549,5.077,4.919,2.681-2.466,8.111-10.495,9.085,5.146-.936,4.6,6.05L350.34,751.1l5.241,5.083,7.9-8.01,2.7,0.936,1.372,7.675,4.154,3.237,4.653-2.706,2.883,3.964-0.765,2.554,4.312,2.864,2.188,10.3-8.3,7.024,5.342-1.151,3.914,3.743,6.328-4.742-1.524-8.39L397,763.97l7.877-3.186,6.67-4.856,4.609,2.959,7.568-3.167,11.5,2.276,4.249-6.891L449.1,746.1l-0.8-3.591,8.112-13.169-6.834-2.978,0.3-4.887,3.009-3.616-2.137-4.173-15.616-2.6,4.1-9.477-6.4-3.408-1.549-4.6-5.209-4.9,2.181-7.991-3.123-4.565-5.178,1.758-11.715,12.79-3.218,1.764-11.62-6.645-14.756-5.1,1.081-11.9-1.037-5.032-21.767,2.915-1.53-10.1,5.368-5.722-2.048-6.98-3.635-9.913-4.173-3.186,1.1-6.177,2.479-.67-4.5-14.9,3.635-18.107-3.958-3.856-7.757.961L336.2,592.9l-7.745-11.051,3.281-4.28-12.9-2.143-6.569-4.135-4.9-2.061-0.721,7.46-10.432-2.674-3.673-3.711,1.568-4.925-2.213-1.359-5.469-1.359-5.1,2.775-7.492,7.878-11.507,1.783-4.868,3.25-1.473-7.549,2.782-4.394-3.06-4.476-6.954-3.414-0.5-5.342-7.473-3.193,4.35-6.151-0.392-7.776-10.988,8.118-9.743-5.323-3.73-3.028-4.742.8-4.521-15.066,2.782-.013,0.5-5.545-2.769-10.539,6.335-4.982-4.135-3.667,3.958,1.928,0.088-2.51,4.35-2.162,15.7-3.509,1.574-7.726,6.79,1.125L249,490.887l6.626,5.14,5.7-.891,1.935-9.755,4.767-6.733-1.151-2.51,0.183-6.6,2.681,0.594,1.189,5.355,18.474,0.974-2.554,4.173,4.008,5.962,2.6-.531,4.445,6.588,4.463,2.358-0.12,5.247,5.3,1.176,5.229-5.779,2.813-13.011,5.627-4.211,0.9-2.763,10.956-2.826L333.675,470l3.433,4.318,4.786-3.06,8.2,2.03,5.209-2.067,1.2-.531,19.169-12.006,1.246,10.071,4.994-.67,6.189,4.394,2.068,8.168-5.108,12.841,5.083-1.612L393,498.891l2.851,0.063,11.146-8.706L405.338,478l-4.343-6.961,4.723-14.845-5.159,1.581-2.535-.575-4.552-9.186,2.725-5.9-1.138-13.4-8.124-8.5-0.291-4.944-2.225-1.239,0.379-5.14,7.157-6.853-7.214-5.8-8.459-.961-5.861-6.126-6.2-4.615-7.732,1.334-4.628-2.03-4.887-4.483-13.1-5.665-5.3-6.758-5.665,3.61-1.985-1.3-6.006-9.762,13.5-10.47,2.345-5.266-3.079-6.638-6.455-4.666-5.077,2.257-9.275,13.586-11.083-.563-0.835-4.23-2.169.164h-5.608l-4.059-3.844-3.338-9.882-9.129-5.551-0.234-1.555-11.3-2.636-4.7-3.572-9.256-7.846-6.84.12-16.185-1.808-3.648,3.838-7.909,2.131-5.526,5.639-18.922,7.53-1.239-3.389-8.213,7.65-8.042,1.985,1.094-2.592-6.809-4.445-2.769-.228-2.662-10.166-0.961.253-7.353-7.037,0.2-4.906-7.056,4.925-5.842.31-16.944.79,1.8-3.661-9.49.076-5.273,29.632-2.592,19.321-1.947,20.844,6.328,16.583,7.972,3.749,14.636-.354,1.555,11.184,11.772,20,4.173,3.964,7.979-2.143,11.721,2.832,4.6,7.113,1.669,10.918,5.747,7.821-4.736,6.379-4.856-1.859-20.667-9.61-8.706-1.056-8.08,3.509-2.7-1.182L121.3,446.34l-8-12.562,2.295-1.834-1.106-2.662-8.516,1.84-21.6,14.75L72.306,465.932,64.22,494.111,56.538,518.5Z" transform="translate(-15.155 -301.362)" fill="#ff8080" stroke="#000" stroke-width="2"/><path d="M542.732,806.537l-7.757-6.411-5.172,1.4-9.768-2.933-8.263,2.712-8.82-12.265-2.541.183-9.022,10.552L478.3,802.194l-2.345-4.609-1.163-14.465,2.719,0.632,4.849-6.67,2.788-.152,2.029-10.874-4.824-2.769-2.232-4.9-5.589-3.186-1.315-4.944-13-5.835-11.178,1.72-9.629,5.007-4.249,6.9-11.494-2.282-7.568,3.167-4.615-2.959-6.664,4.856-7.877,3.186-6.278,9.509,1.53,8.39-6.328,4.742-3.92-3.743-5.336,1.151,8.3-7.024-2.194-10.293-4.306-2.87,0.765-2.554-2.883-3.964-4.653,2.706-4.16-3.237-1.366-7.675-2.7-.936-7.9,8.017-5.241-5.089-10.362,2.048-4.6-6.05-5.146.936,10.495-9.085,2.466-8.111-4.919-2.681,1.549-5.077-3.616-7.536-7.928.955-6.739-4.369,4.647-11.987-1-15.388-1.935-1.814-4.135,6.841L317,700.166l-3.736,3.408-9.262.664,0.3-.9,2.611-11.058,7.372-4.154-6-9.679-1.189-5.058-7.909,6.683-9.174,15.559,1.011,2.27-22.45,16.077-2.535-.752-1.688-4.95-7.081,4.426-2.206-1.713-5.766-6.221-0.525.234-4.716,2.775-1.9,7.953-5.007.4,3.281,3.547-8.295,10.482-1.8.013-8.744,5.652,0.7,2.542-19.346,5.81,4.09,22.02,5.665,8.276,4.476,9.515,3.509,9.78,7.764,3.357,3.895,7.435,2.1,7.922,3.983,1.739-0.923,2.048,5.045,1.473,5.2-1.9,5.835,12.3,8.636-.993,2.225,5.254-1.239,2.662-9.566,6.79,0.936,2.5,5.292,0.316,4.008,3.414-0.885,5.216,5.924,5.937,7.783-1.84,9.446,4.976,7.372-1.606,11.247-11.5,9.338-5.191,8.611,15.863,12.012-15.913,3.344,7.144,8.187,1.081,4.786-2.769,6.575,4.312,7.745-2.093,0.183,0.145,2.788-.076,2.112,5.172,11.234,7.726,0.095,5.386-5.538.512,1.189,1.3,8.295,1.606,9.085-6.259,2.4,1.6,3.939-2.339,8.554-.759,7.03,4.837,7.6-2.5,4.856-6.341,4.5-2.826,18.575-1.479,1.005,0.822,7.189,3.54,13.024-2.959,1.524,0.1,7.9,0.367,2.5,3.964,4.539,1.22,12.885,4.8,3.4,4.457,8.105,1.265,4.811-3.047,0.487-2.82,9.022,7.315,1.574,7.713,8.061,7.157,2.567-.828,3.793-2.2,6.367,8.883,8.061,0.095,7.125-3.819,5.481-.6,17.848,6.853,1.922,4.868,2,4.963,2.068,5.007,4.736-2.39,4.192,2.219-3.528,6.866L607,926.4l14.712-15.711,0.139,2.864,8.358,7.7,2.826-2.023,10.691,11.032,10.729-2.4-0.569,5.07-3.357,3.907,6.708,9.23,5.355-1.852L665.8,937.5l4.489-2.238-1.726-1.84,7.359,3.326,4.874-2.744,5.646,0.556,0.676,0.828-1.5,2.333L689,945.084l-1.581,10.729,2.238,5.134,9.5,6.095,11.336-8-0.816-15.331,2.63-.1-0.088-1.96,7.346-12.758,0.7-6.55,5.039-.493,2,1.954,5.519-.885,4.35,3.243,2.592-3.041,4.369-13.3-3.382-7.41-5.3-3L734.9,886.306l-4.147-.259-2.826-4.2,1.359-7.119-4.6-2.194-2.308-4.375,2.282-6.518,6.98,0.594,11.658-20.01L731.7,834.906l-3.977-2.27-4.053-2.573-4.419,2.9-7.77-2.87-4.938,2.491-2.213-1.675,1.581-7.776-3.249-4.362,1.479-2.276-8.51-5.228,3.319-11.209-2.668-.234,1.385-16.084-7.643-3.06-5.57-6.164-2.7-13.176,2.1-5.058-4.027-.095,3.7-16.609-1.846-5.007-5.835-3,2.719-18.651-6.9-8.08L670.74,692.32l3.97-1.372-7.688-4.868-8.409-6.758-5.14.006-1.271-1.056,4.337-3.25,1.1-7.916,3.376-4.059-13.378,2.788L639.28,664.6l-5.361-3.167,12.234-9.724,14.7-8.345,2.807,0.436-2.712-17.589-7.024-6.556,0.133-3.3,6.1-7.574,0.082-7.612-7.6-.714,1.517-2.51-7.075-19.213L644.2,576.2l-17.089,10.413-7.789,3.212-2.326-6.961-3.856-2.933-7.359,9.692-13.473,1.391-7.643-7.606,1.562,12.379-1.252,2.421-10.191,2.757-4.337-6.164-0.771-5.621-8.01-3.351-3.73-4.463,2.13-4.217L555.377,570l0.392-8.535-5.108-6.139,1.53-2.428,19.454-3.774,0.127-2.9,8.535-7.555,0.639-1.846-5.273-.285-2.864-10.153-9.2-4.906-1.347-3.092-10.432.784,2.32-8.32,3.395-16.975,3.117-4.792-1.151-8.668,4.862-.8,2.39-7.005,6.057,0.525,0.164-7.5,3.231-1.283,10.463-4.938,5.64,1.682,12.4-8.5,6.183-2.257,5.545-2.706-0.348-4.192-3.294-4.457-1.992-2.472-5.2-.31-8.56-9.559L593,417.688l-8.175,2.478-10.457-.866-5.583-5.039-9.42,8.01-2.485-.544-1.366-.55-7.789,15.161-3.275.79-13.485-23.443-2.023-3.433-9.73,3.913,0.8,2.542,2.453-1.214,5.646,9.338-2.238,7.245-2.124-4.748-2.573-.335-8.971,5.2-5.917-4.723-11.462-7.618-8.56,10.887-12.158,3.408-4.343,1.492,0.91-7.144-13.175,1.84-0.221,2.32-6.316,2.3-4.609-.278-0.367,2.282-2.795-.5-12.651,14.655-4.35-10.1-3.212-4.185-7.4-2.384-3.97,6.234-9.622-3.161-5.867,4.71-2.731,5.9,4.558,9.186,2.529,0.575,5.165-1.581-4.723,14.845,4.337,6.961,1.663,12.252-11.152,8.706L392.916,499l-1.125,1.814,2.889,7.334,7.4-1.119,11.551-8,7.972,2.244,2.643,4.969L422.46,511l0.721,5.2,7.745-1.189-2.978,4.691,2.156,5.165,8.036-7.049,2.118,7.593,5.292,0.765,7.157,7.315,3.806-7.738-0.209-5.6,8.314-.525,4.565,7.081,5.1,2.282,8.029-.86-1.625,2.105,2.2,1.473,17.083,2.2,2.9,16.729,5.557,1.34,4.963-1.353,3.142,4.249,1.694-1.391,5.216-2.023,6.341-9.275L535,553.9l-9.926,9.256,0.62,5.292-7.726,2.573-7.056,11.064,3.224,7.176-3.951.86-13.8,2.592-8.105-2.447-6.815-.525-4.577-.474-3,3.281-4.008,11.039,1.037,11.69-3.914,4.394-2.289.7-1.625,6.98-4.736,2.775-5.557-.443-8.781-6.866,6.266,8.857L449.867,637l3.446,7.163,4.306-.265,1.581-2.346,10.931-2.289,2.491,6.929,6.607,3.54,3.8-4,13.625-1.619,1.878,7.321,14.617-9.275,0.3-8.75,1.878-5.545,4.609-3.515-0.335-2.9L525.128,620l3.142,4.065-4.558,1.713-1.283,8.3,2.257,1.682-4.059,10.381L529.091,657l-2.181,4.552,13.207-2.188,13.536-13.409,4.8,2.156,1.068,2.573,2.725,8.036-0.506,8.428-5.475,6.335,0.872,2.719,1.29-.089,1.176,4.6-6.088,21.407,1.96,4.615,12.158,0.278,3.585-.784,11.4,0.5,5.551,1.72,4.963-2.877,1.966,14.073,11.159-.3,4.356-2.522,2,10.255,4.83,2.162,0.247,5.475-2.978,3.06-5.513,1.068-5.281,5.6-4.874,3.8-3.028,3.5-2.769,8.352,0.272,8.624-2.5,2.731,0.4,6.518-10.495,8.75-2.143,5.007-2.08-2.769-2.023,4.324-7.119,1.012-2.055,7.625-3.882,3.408-10.173-.379-1.916-4.52Z" transform="translate(-15.155 -301.362)" fill="#06c" stroke="#000" stroke-width="2"/><path d="M602.37,498.676l-7.72,2.074-2.719,5.677-2.074,5.829-8.851,24.511-0.639,1.846-8.535,7.555-0.127,2.9-19.454,3.774-1.53,2.428,5.1,6.139-0.392,8.535,4.685,7.144-2.13,4.217,3.73,4.463,8.01,3.351,0.771,5.621,4.337,6.164,10.185-2.757,1.258-2.421-1.562-12.379,7.643,7.606,13.473-1.391,7.359-9.692,3.856,2.933,2.326,6.961,7.789-3.212,17.089-10.413,2.883,2.529,7.075,19.213-1.517,2.51,7.6,0.714-0.082,7.612-6.107,7.574-0.127,3.307L661,626.151l2.712,17.589L660.9,643.3l-14.7,8.345-12.227,9.724,5.355,3.167,8.364,1.233,13.378-2.782L657.7,667.05l-1.1,7.916-4.337,3.25,1.265,1.056,5.146-.006,8.409,6.758,7.688,4.868-3.97,1.372,0.923,12.518,6.91,8.086L675.9,731.518l5.835,2.99,1.84,5.007-3.7,16.609,4.034,0.1-2.1,5.058,2.7,13.176,5.57,6.158,7.643,3.066-1.385,16.084L699.012,800l-3.332,11.2,8.523,5.228-1.479,2.282,3.237,4.356-1.581,7.783,2.225,1.669,4.938-2.485,7.77,2.87,4.419-2.9,4.053,2.573,3.977,2.27,11.595,7.315L731.7,862.173l-6.98-.594-2.282,6.512,2.308,4.381,4.6,2.188-1.359,7.119,2.826,4.2,4.147,0.259,0.556,13.112,5.3,2.99,3.382,7.416-4.369,13.3,10.286-.392,7.087,3.509,1.151,2.693,8.769,2.364,5.481,1.644,4.716-3.269,1.966-2.112-1.22-8.516-3.249-10.387,1.865-10.779,4.609-3-1.037-2.175,21.078,0.5,1.985,1.852,3.667-3.186-2.434-6.935,0.961-1.182,5.715-4.957,1.207-2.225-1.928-1.644,2.086-1.77,8,0.923,1.372,5.14,5.766,5.715,1.479-2.055-1.694-7.359-0.9-5.311-11.038-11.7,7.258-4.394,1.062-4.874,1.125-.145,4.571,12.594,7.827-2.15,3.534-6.853,11.469,27.312,1.985-1.783,4.312,3.06,3.642,7.094,1.5-9.768-3.838-3.8,0.714-8.238,10.47-3.148,4.135-6.72,2.668,0.626,5.349-3.092,6.455,4.856,2.124,7.555,2.731,0.158,1.928,5.014,6.076,5.342,2.788-2.5,3.768-9.882,7.966,0.809,1.207-8.428-2.769-8,16.6,1.062-2.213,17.31,2.617-.3,4.558-6.322,2.529-5.191,11.494,0.032,0.923,0.095L948.52,839.35l-6.98-8.086-2.1-10.678-1.125-7.656,3.1-7.214-14.352-.392-4.533-3.389,0.866-5.045-3.016-4.034,13.226-8.624,0.114-10.609-3.136-4.514,2.516-6.455-1.283-1.321-4.35-2.276-7.41,1.562-0.917-6.278-1.05-2.617,8.914-6.752,2.124-.658,4.35-2.946-0.689-2.522-2.655-15.97-4.609-6.664,1.631-2.162,4.653-2.08,0.323,9.932,2.5,0.727,16.817-14.453-0.676-6.038,2.541-7.631-2.681-12.145,3.262-3.376,7.631-14.889,14.535-9.755,0.879-2.244-2.655-.727,1.087-10.229,3.642-3.876L991,629.293l5.374-6.645-5.481-2.832-8.029,1.859-6.683-4.514-5.1.253,8.459-15.243,0.689-1.682-3.06-7.517-10.558,1.852,0.841-5.443-13.605.658-4.988-7.574-0.7-4.754-9.25-5.437-2.978-6.708-8.472,7.062-6.967-3.42-16.722-6.777-2.965,2.788-6.954-3.256-2.769,2.87-6.98,3.509-11.987,7.574-1.271-4.457-3.964-2.889-6.942-2.662-4.767,2.384-2.649,4.431-4.925.651-2.978-3.452L842.9,580.852l-11.19-.86-7.239,4.476-3.743,3.515,1.517,2.074-3.964,2.883-7.966-2.1-0.506-2.08-0.247-5.266,8.048-2.162,3.344-7.783-6.164-13.119-4.325-.9L809.79,545.3l-9.407,5.064-3.591,7.346-4.521-2.327-6.607,5.178-1.789-2.257-6.177,9.37-0.645,1.018-7.3,1.429-2.788,4.647L759.6,577.9l-5.273-1.056-5.3-6.436,11.494-10.539-1.777-7.561,7.53-8.036,3.964-9.958-1.973-6.967,1.467-9.825-1.422-2.352-7.555,2.744-7.865-1.77L742.357,505.2l-10.128-1.922-2.137,1.448,3.433,13.612-7.877,3.566-0.689,2.82,11.507,12.505-8.137,5.576-6.556-9.281-4.963-2.51-5.545,1.2-8.358-5.57-4.83,4.919-6.322-4.7-2.769-4.267,0.051-1.814-7.479-2.51-12.847,3.117-2.124-4.381-7.138-1.3-3.395-5.93,0.152-1.846,9.123-12.373-3.218-.373-2.263-1.233-4.337,2.775-6.43-5.21-2.737.4-2.851,4.729-0.708,7.966,1.827,2.067-8.478,7.561-9.344-21.584-12.822,2.649-8.118.67Z" transform="translate(-15.155 -301.362)" fill="aqua" stroke="#000" stroke-width="2"/><text transform="translate(344.284 324.778)" font-size="137.545" font-family="DejaVu Sans" font-weight="700">1</text><text transform="translate(491.411 483.142)" font-size="69.722" font-family="DejaVu Sans" font-weight="700">2</text><text transform="translate(769.82 449.587)" font-size="137.545" font-family="DejaVu Sans" font-weight="700">5</text><text transform="translate(87.66 291.548)" font-size="137.545" font-family="DejaVu Sans" font-weight="700">3</text><text transform="translate(547.107 389.648)" font-size="108.907" font-family="DejaVu Sans" font-weight="700">4</text></svg>