<svg xmlns="http://www.w3.org/2000/svg" width="949.794" height="693.611" viewBox="0 0 949.794 693.611"><title>Députés sortants de l&amp;apos;Oise en 2017</title><path d="M391.728,352.81L376.2,356.338l-8.573-4.222-1.2-.98L344.273,352.9l-5.368,3.37-5.791,7.562-9.063,2.986,0.988,4.411-3.235,9.432-7.675,5.474,1.584,3.023-8.821.686-9.576-6.273-2.6,9.756-3.1,1.078-7.939-5.195-10.752,7.065-5.308,13.813L252.884,420.3l-9.892,8.233-12.4,6.326-5.685-3.732-4.946-12.011-13.564,10.171,2.79,1.787,1.372,13.179-11.762,4.177-0.7,5.76-2.82,1.8-9.04.7L183.677,469l-8.686,4.441-5.029,5.677,24.172,11.1,8.346,4.139,2.277,1.417-4.931,6.281,1.568,3.581,6.756,4.637,1.772,12.018-1.531,15.818,5.391,4.109-1.3,3.167-13.421,10.133,1.7,2.631,6.145,0.166,3.514,5.165-4.184,2.76,3.3,4.531-4.32,2.865-1.131,1.244-4.7,4.818,4.041,12.772-1.108,6.725,13.5,5.285,8.415-4.735,9.99-1.47,5.285-4.63,8.912-5.1,20.636,11.1,1.674,5.444-2.549,5.067,1.832,5.9,4.569,3.672,5.248,4.245,8.5-.92,3.732-5.542,7.683,4.984,2.1,3.008,10.94,0.784,12.471,5.851,8.874-2,12.109,18.714,7.132-3.913-1.591,9.176,2.141,2.322,5.918,2.058,5.775-2.367,2.307,2.141,2.541,5.406,6.884,3.7,18.97,14.363,5.564-.822,12.908-13.767,7.185-3.928,1.757-.709-3.672-9.839,3.566-31.094-1.2-7.8-10.412-20.214,21.443-4.7,4.305-2.639,1.116-11.868,11.151-3.325,13.345,9.349,9.741,0.415,1.259,3.167-2.865,6.167,9.545,9.281,4.6,8.95,2.428-.935,8.256-1,3.106-9.206,2.247-2.352,2.888,1.5,9.342-3.875,9.462,3.8,12.591-3.612,1.855,2.6-4.388,14.959,4.569,4.335,1.485-2.85,14.28,5.5,6.424-5.926,5.414,3.272,3.543,8.965,2.888-.754,7.1-3.129,3.461-3.219,5.135,3.182,8.671-.505L597.8,621.8l7.253-2.956,3.016,1.4,6.16-11,12.8,2.405,4.886,1.025-0.762,2.4,12.8,3.167,9.892-8.437-0.822-3.257,7.57-11.023,3.212,0.92,5.187-17.945-3.167-5.368,2.533-7-0.648-.46-13.443-7.864-1.711-9.47,5.843-11.31-4.155-3.906V529.94l3.461-16.308,7.585-6.092V496.056l-0.958-3.265-6.243-2.594,4.848-6.567-2.058-1.764L649.549,474.6l-2.669-6.122,1.885-12.8L644.7,446.9l1.809-2.782-0.822-.988-6.718-.664-5.813,3.28-8.776-3.966,2.058,2.194-5.353,2.662-3.823,8.007-6.386,2.209-8-11.008,4-4.667,0.679-6.039L594.758,438l-12.742-13.164-3.37,2.42-9.968-9.183-0.166-3.416-17.545,18.729-7.253-6.175,4.207-8.188-5-2.654-5.647,2.85-2.473-5.971-2.382-5.919-2.3-5.8-21.277-8.173-6.537.709-8.5,4.554-9.613-.121L476.6,387.914l-4.524,2.624-3.061.988L459.4,382.99l-1.878-9.2-10.759-8.724-0.581,3.363-5.738,3.627-9.666-1.508-4.057-5.315-15.366-5.723-5.414-1.448-2.986-4.735-9.425-.437Z" transform="translate(-43.629 -292.073)" fill="#06c" stroke="#000" stroke-width="2"/><path d="M263.87,749.211l-5.579-.566-6.138-13.888L235.5,763.642l0.9,5.971-3.272,5.255,11.031-.958,0.5,5.9,5.323,2.933,8.874,3.943,9.311-2.39,5.889-.015,0.739,6.122-5.881,2.051-8.859,8.731-8.55-.362-4.373,8.105L241,810.879l-1.3,9.7-1.568,3.988-6.017,1.41-0.173,6.288,8.542,3.717-2.745,1.372-3.559,14.4-11.332,2.88-2.1,5.195,7.215,4.433-7.306,8.542-9.409,3.664-6.771.106-2.254-2.533L169.314,884.67,165.6,872.117l-1.448,1-16.286,3.725L138.25,882.1l1.651-6.3-3.461-5.323-9.131,1.093-12.32-9.093-2.684,4.773L101.63,862.39l-0.354.136L88.3,872.539l-8.625-4.833-2.39-12.139-8.346-1.779-0.671-6.371-5.949-2.307,0.015-3.325,11.777-5.64,1.161-9.771,2.986-1.455L59.249,811.241l-4.132,5.082L52.961,814.6l0.407-8.2-0.136-9.3,6.552-12.5,9.907-.55,5.15-4.207,9.877,1.319,2.669-1.953,7.939,10.925-0.136,6.725,15.162,5.361-0.158-6.989,7.932-19.385-5.4-3.212,1.289-9.839-7.585-6.4-4,2.85-3.71-3.295,1.312-12.78-4.418-12.4,2.006-6.183,2.141-9.945-10.5-20.991,1.1-11.031-6.054-3.174-4.554-9.168-14.6-14.3L78.2,645.743l-6.092-1.191L63.577,647.7l-2.337-5.451,5.18-12.086,2.616-16.331L70.4,610.8l3.318-.075,4.192-7.977,7.562-4.554-2.745-5.451,11.49-6.394,6.665-7.4-0.211-13.24,1.938-2.722,6.522-.513-0.694-15.864-12.486-5.723-8.113,5.5-3.928,12.7-2.827,1.847-2.79-6.16-9.643-1.779L64.67,549.9l-1.923-1.553,2.352-4.35,12.094-11.521,4.3-18.352-0.407-.354-11.86-2.82,2.217-18.691-6.054-8.2-6.4-7.562-8.15,4.954-1.99-8.218L64.731,471.5l1.425-6.439-0.942-.829-5.768,2.4-3.777-8.037-7.389-5.64,14.242-12.742,3.679-9.266-2.843-9.568-8.233-6.7-3.664-4.554,6.017-1.772L66.9,393l0.867-10.051,17.975-9.078-1.206-14.71-2.42-1.727-2.186-2.729-6.514,1.749L63.261,370.324l-5.987,3.159L45.015,361.269l10.6-11.536,5.9-1.832,0.468-6.288-1.636-16.459,1.915-2.707,6.258,1.3,11.265-6.921,1.651-.023-3.325-11.581,1.584-2.579,4.577-9.191,8.807,4.81,13.609-.633,4.743,2.073-1.1,2.443,6.017,1.757,6.205-2.262,6.959,14.672,10.3-1.184,2.662,6.265-1.485,3.174-11.4,8.1,1.108,2.986L137,336.026l4.78,4.072-1.056,6.22,7.065,7.08,9.282-2.194,11.265,5.934,8.791-1.915,13.421-13.715,11.129-6.19,10.269,18.917,14.326-18.978,3.988,8.52,9.764,1.289,5.708-3.3,7.841,5.142,9.244-2.5,0.211,0.173,3.325-.09,2.518,6.167,13.406,9.213,0.105,6.424-6.6.611,1.417,1.553,9.892,1.915,10.835-7.464,2.858,1.907,4.7-2.79,10.2-.9,8.392,5.768,0.98,4.4-3.235,9.432-7.675,5.474,1.584,3.023-8.821.686-9.568-6.273-2.609,9.756-3.1,1.086-7.939-5.2-10.752,7.065-5.308,13.813-14.732,10.209L243,428.6l-12.4,6.326-5.685-3.732-4.946-12.011L206.4,429.361l2.79,1.779,1.372,13.179L198.8,448.5l-0.7,5.76-2.82,1.8-9.04.7-2.556,12.312L175,473.513l-5.029,5.677,24.172,11.1,8.346,4.147,2.277,1.417-4.931,6.281,1.568,3.581,6.756,4.637,1.772,12.018L208.4,538.189l5.391,4.109-1.3,3.167L199.068,555.6l1.7,2.639,6.145,0.158,3.514,5.172-4.184,2.752,3.3,4.531-4.313,2.865-1.139,1.244-4.7,4.818,4.041,12.772-1.108,6.725,13.5,5.285,8.415-4.735,9.99-1.47,5.285-4.622,8.912-5.1,20.636,11.1,1.674,5.444-2.549,5.067,1.832,5.9,9.832,7.932,8.5-.92,3.732-5.534,7.683,4.976,2.1,3.008,10.94,0.784,12.478,5.843,8.867-2,12.116,18.714,7.125-3.913-1.591,9.176,2.141,2.33,5.918,2.051,5.775-2.36,2.307,2.134,2.549,5.413,6.876,3.694,18.97,14.363,5.572-.822,12.908-13.76,7.185-3.936,1.108,18.759-3.913,4.954-1.809,18.4-6.379-.468-2.2,2.337-3.589,11.958,13.1,14.891-2.466,2.375,8.995,7.7-5.127,4.207-2.556,9.409L402.2,771.12l7.9,6.273-4.961,4.554-9.364,2.722,0.189,9.817-5.24,2.669-4.833-3.4-8.919,1.568-4.335,1.553-11.3,3.152-5.232-20.84-5.722-2.066-2.631,1.636-1.41-2.752-3.906-5.383-9.636,2.322-6.236-2.1,0.475-2.782-3.981-3.521-16.452-1.176,1.727-17.289-11.1-9.523-6.6,17-12.629,4.109-4.3,5.187-3.25-7.268-3.084-.958Z" transform="translate(-43.629 -292.073)" fill="#06c" stroke="#000" stroke-width="2"/><path d="M328.063,856.969l-9.213,2.7-12.84-2.036L302.4,842.538l-6.077-1.727,0.091-3.189-7.072,6.974-12.426,4.486-7.751,6.251-0.1.256-10.533,3.393-14.31,12.84-16.248-7.592-7.215-4.433,2.1-5.195,11.332-2.88,3.559-14.4,2.752-1.372-8.55-3.717,0.173-6.288,6.017-1.417,1.568-3.981,1.3-9.7,6.122-1.93,4.373-8.105,8.55,0.362,8.859-8.731,5.881-2.051-0.739-6.122-5.889.015-9.311,2.39-8.874-3.943-5.323-2.933-0.5-5.9-11.031.958,3.28-5.255-0.9-5.971L252.16,734.75l6.138,13.888,5.579,0.566,3.566,5.233,3.084,0.958,3.242,7.276,4.305-5.187,12.629-4.109,6.6-17,11.1,9.515-1.727,17.289,16.452,1.184,3.981,3.514-0.475,2.79,6.236,2.1,9.636-2.33,3.906,5.383,1.41,2.752,2.631-1.629L356.171,779l5.232,20.847,11.3-3.152,4.335-1.553,8.919-1.568,4.833,3.4,5.24-2.669-0.189-9.809,9.364-2.729,4.961-4.554-7.9-6.273,14.974-13.277,2.556-9.409,5.127-4.215,2.036,2.254,9.364-2.541,5.73,2.187,15.14-5.5,11.581,17.017,9.651,8.135,9.425-5.338,0.121,2.986L496,759.36l10.5-5.821,5.753,8.565,9.756,3.385,1.621,2.624,7.223,11.686,8.844,5.187-2.413,12.071,8.935-7.9,12.923-5.014,2.986-9.018,1.644,9.417,9.583,8.633-0.852,12.75-15.683,5.8-19.362-9.915-0.8-2.119-1.417,3.958L515.8,834.787l-4.554,7.532-11.6,1.267-4,.143-10.216,18.457-3.016.671-0.633,9.711,2.458,2.089-0.43,13.1L474.923,899.5l-24.044-36.349-7.155-.43-6.032.965-1.093,6.6-6.884,7.3-1.5,9.591L415.479,890.6l-2.767-1.832-4.358,4.539-8.859,2.051-16.18-2.745,10.933-11.332-8.422-13.006-8.384,4.252-12.7,1.6-6.914-3.257,1.772,5.745-7.1,5.813-2.774-1.327-3.959-6.288,3.619-5.014-6.65-6.167-6.258-1.591-2.247,2.36Z" transform="translate(-43.629 -292.073)" fill="#ffc0c0" stroke="#000" stroke-width="2"/><path d="M856.516,959.63l-5.775-2.073-2.088,9.04-2.986.814-2.594-1.953-6.213,1.651L822.338,960.2l-4.2,8.128-3.106-1.433-11.649,7.072-10.164,1.244-7.14-14.529-6.228,1.847-6.122-2.111L763.2,948.3l-11.219,7.238-4.961,1.47,2.707,5.647L737,962.269l10.85,7.653-15.668,12.162-16.535,2.488-6.831-19.566-13.64,15.381-8.362-2.76,0.724-2.993,0.664-5.813-8.9-8.957L661.78,945.652l-6.6.52-4.743-8.482-8.912,13.617-5.8-.468-2.451,6.251-10.239,8.7-4.81-.98-4.1-11.536-10.985-5.059-3.167-20.35-1.847-2.194-6.122,1.757,0.347-3.152-5.61,2.9-1.809,19.106-26.359-6.627,7.065-9.749-1.1-5.821L550.29,918.5l0.392-3.031-10.45-5.429-0.158-3.023-2.986-.407-13.458,6.047,2.247-7.4,1.282-4.222L507.6,894.887l-10.035,2.269-13.828-9.364,0.43-13.1-2.466-2.089,0.633-9.7,3.023-.679,10.209-18.45,4-.151,11.6-1.267,4.554-7.532,19.437-31.139,1.425-3.958,0.8,2.119,19.355,9.915,15.683-5.8,0.86-12.75-9.583-8.633-1.644-9.417,0.347-.573,7.879-4.758,1.629-8.957,2.435-5.421,7.381-4.939,14.144-1.455,18.352-2.858,0.664-3.046,16.535-3.913-0.317-20.576,0.136-1.289,2.986-6,5.361,6.884,5.414,0.015,3.212,6.085,6.477-1.689,8.98,4.222,11.777,3.136,10.337,5.926,10.178-.392,12.8,2.5,7.7-18.676,6.213-11.777,6.688-.792-3.785,5.368,2.639,9.229,1.425,6.032,9.779-.633-0.46,6.386-3.83,5.383-5.549.06-2.284,22.159-3.031,12.312-6.243.1,3.725,8.814-4,4.916,13.752,10.623-6.183,14.31,5.391,11.325,20.6-1.6,0.105,26.947,0.4,2.948,5.67,1.681L762.9,860.1l6.409,2.729,0.264,6.477,2.518-2.217,9.455,0.249,9.191-9.1,6.243,2.42,11.4-2.827-3.679-6.447,6.507,0.392,8.671-4.343,2.707-12.727,6.628-.1,7.743-6.183,2.767-1.108-0.5-5.8,5.112-3.114-0.151-2.986,8.7-3.28,7.351,4.7,2.382-.2-3.612,5.2,7.774,13.315-0.882,3.039,1.485,21.978,6.122,2.986,6.628-7.344,15.562,11.754,4.253,8.98,9.779,1.568-1.809-14.122-3.441-.332-2.058-6.333-11.853,4.019-2.4-2.39-3.536-20.463,4.049-5.059,6.831-1.531,9.53,3.9,2.737,6.447,5.5-3.212,5.595,2.367,5.828,2.428-2.194,5.911,3.476,5.217,6.115-2.85,5.873,3,2.284,6.318-2.767,13.119,1.636,9.8,6.688,5.5-4.728-15.517,10.043-23.826,7.743,6.416-2.3,19.822,1.7,2.9,8.513,5.285,9.953,1.365-1.885,6.205-8.143,5.851,0.189,3.363-12.8-1.033,6.273,7.306-4.577,4.562-10.149-7.939-0.573,12.84-3.8,5.662-6.439,1.116-3.31,4.418-9.953,15.306,0.249,6.017,5.994,10.329-20.289-3.318-2.473,1.757-11.355-3.913-5.685,2.021-7.495,4.441-2.669,11.574-8.656-2.405-2.043-13.828-2.624-1.651Z" transform="translate(-43.629 -292.073)" fill="#06c" stroke="#000" stroke-width="2"/><path d="M943.079,531.516L934.6,536.7l-1.417,6.6-9.892,8.716-1.651,3.061-5.889,2.827-5.421-3.3-2.352,2.119-4.23,4.237,4.479,3.3-0.234,5.421-5.889-2.119-11.777,4.486L879.956,559.8l-10.133,3.536-4.479,19.558-17.2,10.6-6.838,14.838,2.119,6.122-10.133,12.478,7.54,9.892-0.942,2.352-3.3.468-12.252,16.022L812.559,662.5l-8.482-9.2-32.753-10.133-4.712-7.072L752.241,620.78l-12.018-6.6,0.468-1.885-9.658-1.417-11.777-11.543-6.122-1.162-3.77-11.777-4.946-4.939-7.774-4-6.363-1.417-6.363-7.766-9.425-4-6.122,1.885-2.594,7.072,3.31,5.187-5.2,18.141-3.3-.942-7.54,10.842,0.942,3.3-9.892,8.482-12.953-3.061-1.417,9.658,6.831,7.072,0.709,9.658,3.77,0.709-2.119,6.122,3.529,5.655,7.774,12.252-0.234-6.122,10.367-4.237-8.248,40.292,7.072-1.885-8,5.187L650,715.561l-4.946,2.827,3.061,5.889,6.6-1.651,8.957,4.237,11.777,3.054,10.367,6.122,10.133-.468,12.727,2.6,7.774-18.849,6.363-11.777,6.6-.709-3.77,5.421,2.594,9.191,1.417,5.889,9.892-.468-0.468,6.371-3.988,5.421h-5.436l-2.345,22.152-3.061,12.252-6.122.226,3.77,8.716-4,4.946,13.662,10.593-6.122,14.371,5.421,11.31,20.5-1.651v26.857l0.468,3.054,5.655,1.659,5.421,6.823,6.363,2.827,0.468,6.371,2.352-2.119,9.425,0.234,9.191-8.957,6.363,2.352,11.31-2.827-3.536-6.6,6.363,0.468,8.716-4.237,2.827-12.727,6.6-.234,7.774-6.122,2.594-1.176-0.468-5.655,5.2-3.3L844.2,815.44l8.716-3.3,7.306,4.712,2.345-.234,24.044-3.77,7.306,6.363-3.061,5.655,5.655,3.77,6.363-.468,7.774-10.133-3.77-12.727v-0.468l-4.237-16.5,2.594-6.122-2.119-4.486v-3.3l4.946-4.479,0.709-3.3-0.942-3.054-3.046-1.659-3.061.716-3.77,5.421-3.31-.468,2.352-6.363-2.594-1.885-12.961,1.651L878.607,753l-12.252-5.889,2.119-1.885,3.3-4.712-9.191-11.777,17.2-10.6,6.831-7.774,7.072,2.827,12.018,5.421,3.061,5.889,7.54-10.842L929.5,703.294l2.594-.716,2.827-7.306,0.234-16.256,2.352-2.352,8.482-4.237-2.352-19.317,3.3,0.226-0.234-22.845-0.46-3.544-0.234-9.425,3.77-4.939,6.6,0.942,7.072,6.6,3.3-.234,24.738-8.716-2.119-1.885,2.594-4.237-6.831-7.072-16.5-7.766-14.371-6.122-0.709-6.122,11.076-6.122-1.417-12.727-8.957-9.892-6.122-7.54-0.942-6.6ZM883.937,824.857l-1.417.716-1.176.226h-0.468l-0.234-.709-1.176.709-1.417.468,0.468,1.417,0.234,1.176h-0.234l-2.827,1.176-1.885,1.417v0.234l2.119,0.234V833.1h0.709l-0.468,1.885,0.942,0.942,0.468-.234h0.468l-0.709,1.417,0.709-.226,1.176,0.468,0.942-.234,0.46-1.169,1.425-.234,0.219,1.176H882.5v-0.942l0.942-1.885,0.709,0.226,0.468-1.169,0.709-.234-0.234-.709-0.709-.234-0.46-.468v-0.716l0.219-1.417,0.234-.234,2.827,0.234-0.234-.716-1.161-3.054-1.666-.716h-0.2Z" transform="translate(-43.629 -292.073)" fill="#06c" stroke="#000" stroke-width="2"/><path d="M812.664,662.436l-8.618-9.168L771.414,643.12l-4.916-7.065-14.152-15.276-12.094-6.688,0.528-1.681-9.643-1.417-11.792-11.747-6.183-1.131-3.875-11.686-4.976-4.886-7.615-3.988-6.446-1.621-6.258-7.592-9.394-4.072-6.2,1.847-0.648-.46-13.443-7.864-1.711-9.47,5.843-11.31-4.155-3.906v-3.189l3.461-16.308,7.585-6.092V496.034l-0.958-3.265-6.243-2.594,4.848-6.567-2.058-1.764,13.519-9.553-0.973-18.284,3.137-.113-0.121-2.345,8.776-15.208,0.837-7.811,6.009-.6,2.382,2.337,6.582-1.063,5.187,3.868,3.091-3.619,12.267-.468,8.452,4.192,1.372,3.212,10.458,2.82,6.537,1.96,5.624-3.9,2.345-2.518-1.455-10.164-3.875-12.38,2.224-12.855,5.5-3.581-1.221-2.594,25.122,0.588,2.368,2.209,4.373-3.792-2.9-8.271,1.146-1.41,6.816-5.911,1.44-2.654-2.3-1.96,2.488-2.111,9.545,1.1,1.636,6.13,6.876,6.816,1.764-2.451-2.021-8.776-1.063-6.333L799.68,352.409l8.656-5.24,1.267-5.813,1.357-.173L816.4,356.2l9.334-2.563,4.215-8.173,13.677,32.572,2.368-2.126,5.142,3.649,4.343,8.46,1.794-11.649-4.577-4.531,0.852-9.824,12.486-3.755,4.931-8.015,3.182,0.746,6.379-3.694,7.7,5.8,2.533,9.01,3.257,0.188,2.3,5.979,7.246,6.371,3.325-2.986,4.494-11.792,9.5,0.973,1.44-10.051-3.3-9.538,19.807,1.267-2.654,20.644,3.121-.354,5.436-7.54,3.016-6.19,13.707,0.038,4.637,9.259-6.152,15.238,6.922,11.468-2.224,8.279-3.845-4.456-5.979,1-0.46,5.994-5.255,2.043-1.885,5.851,6.1,1.719,3.076,5.625,1.3,11.777-10.382,7.774-1.93.912,5.406,6.688,13.149,13.609,1.063,5.715,8.9,17.462,0.6,2.707-7.7,2.9-0.445,6.756,3.476,5.783-0.151,16.64-3.581,1.553L967.35,521.7l-3.476,9.583-16.761,3.732L942.9,531.38l-8.294,5.195-1.546,6.537-9.922,8.935-1.621,2.865-5.775,2.9-5.451-3.332-2.345,2.224-4.237,4.094,4.463,3.318-0.2,5.406-6.054-2.043-11.777,4.584L879.753,559.82l-9.937,3.506-4.607,19.528-17.258,10.5-6.831,14.883,2.149,6.137L833.1,626.969l7.743,9.854-0.958,2.262-3.416.468Z" transform="translate(-43.629 -292.073)" fill="#d00" stroke="#000" stroke-width="2"/><path d="M481.089,599.4l-9.545-9.281,2.865-6.167-1.259-3.167-9.741-.415-13.345-9.357-11.151,3.332L437.8,586.21l-4.305,2.639-21.443,4.7,10.412,20.214,1.2,7.8-3.566,31.094,3.672,9.839-1.757.709,1.116,18.759-3.913,4.946L417.4,705.322l-6.386-.475-2.2,2.345-3.581,11.958,13.1,14.883-2.466,2.383,8.987,7.69,2.043,2.262,9.364-2.541,5.73,2.179,15.14-5.5,11.581,17.017,9.651,8.135,9.425-5.338,0.121,2.993,8.03-3.89,10.5-5.813,5.753,8.558,9.756,3.385,1.621,2.624,7.223,11.686,8.844,5.187-2.413,12.071,8.935-7.9,12.923-5.014,2.986-9.018,0.347-.566,7.887-4.765,1.629-8.957,2.428-5.421,7.381-4.939,14.144-1.455,18.352-2.858,0.664-3.046,16.535-3.913L631.116,718.7l0.143-1.289,2.978-6,5.361,6.884,5.414,0.015,5.112-2.79,1.161-15.984,8-5.187-7.11,1.96,8.143-40.277L650,660.242l0.173,6.032-7.728-12.124-3.445-5.6,2.043-6.311-3.71-.716-0.626-9.485-6.922-7.14,1.455-9.764,0.754-2.4-4.886-1.025L614.317,609.3l-6.167,11-3.016-1.4-7.253,2.956-1.387-2.684-8.671.505-5.135-3.182-3.461,3.219-7.1,3.129-2.888.754-3.536-8.965-5.414-3.272-6.432,5.926-14.273-5.5-1.493,2.85-4.569-4.335,4.388-14.959-1.855-2.594-12.591,3.612-9.462-3.8-9.334,3.875-2.9-1.493-2.247,2.352-3.106,9.206-8.256,1.01-2.428.935Z" transform="translate(-43.629 -292.073)" fill="#06c" stroke="#000" stroke-width="2"/><text transform="translate(705.918 287.271)" font-size="164.033" font-family="DejaVu Sans" font-weight="700">6</text><text transform="translate(705.918 513.575)" font-size="164.033" font-family="DejaVu Sans" font-weight="700">5</text><text transform="translate(548.719 607.428)" font-size="164.033" font-family="DejaVu Sans" font-weight="700">4</text><text transform="translate(368.177 558.014)" font-size="118.512" font-family="DejaVu Sans" font-weight="700">3</text><text transform="translate(78.785 436.393)" font-size="164.033" font-family="DejaVu Sans" font-weight="700">2</text><text transform="translate(308.887 239.443)" font-size="164.033" font-family="DejaVu Sans" font-weight="700">1</text><text transform="translate(413.686 452.341)" font-size="164.033" font-family="DejaVu Sans" font-weight="700">7</text></svg>