<svg xmlns="http://www.w3.org/2000/svg" width="607.578" height="976.551" viewBox="0 0 607.578 976.551"><title>2T Législatives 2017 Haute-Corse</title><path d="M551.948,257.9l1.061-7.856,3.1-18.731,4.33-10.515,0.866-11.312,13.167-25.776-2.7-24.379-3.218-7.935,1.44-14.44-2.494-5.275,0.546-5.39-3.921-7.462,1.892-5.183-2.23-4.745,0.375-10.444-2.954-5.1,0.546-14.614-2.659-8.251,1.864-2.279L552.417,51.55l-2-5.491,5.262-18.967L531.837,6.377l-10.266,4.244-12.63-2.982-7.627,3.319-8.387-.825L484.376,17.2l0.013,16.143,3.923,7.188-1.8,5.212,1.735,2.159-1.716,5.131,6.551,9.3-4.422,10.689,5.4,6.494-20.15,18.048-2.866,4.473,3.891,7.713,0.129,8.752,7.318,8.61-2.687.968L463.95,154.691l5.656,6.189,4.272,10.6,7.068,6.939,2.8,8.064-1.628,27.877,2.423,17.39-0.5,5.613-8.523,11.706-4.158,3.012-0.63,15.892-15.333,16.5-5.5.208-9.971-17.476-8.552-7.126-0.409-8.61L426.2,248.2l-8.58-.028-7.462-11.841L404.7,237.68l-9.283,5.814-20.672-8.865L358.7,239.8l-8.473-.251-3.891,4.2-5.585.767-4.523,7.2-8.638.866-2.1,8.229-5.011,7.168-1.907,2.222-5.613-.488,3.526,7.627,9.433,5.57,6.609,15.511,7.713,3.012-6.494,8.051,3.025,8.092L357.2,341.248l0.15,5.585-5.585,12.694,4.831,12.895-4.394,7.154,2.537,1.313,0.563,8.371,4.5,7.211,22.221,25.5,10.5,2.967,7.254-8.272,10.329-1.648,0.1-7.925,3.218-10.4-1.039-5.232,2.063-1.834,8.287-6.189,28.786,6.121,2.924-2.23,16.392,6.157,13.591-4.7,14.086-4.33,5.11-.516-2.115,8.079,2.322,10.838,9.634,9.189,5.785,0.437,7.226-2.8,3.642,3.713,5.125,1,0.838,4.244,6.423-2.1,4.366-5.712,4.5-1.29L563,401.956l16.587-1.468L585.2,401.2l9.77,9.377,4.9,0.071,0.75,0.375-4.143-34.457L589.4,361.323l-18.358-24.809-13.984-21.433-8.315-19.052-1.348-19.548,4.818-12.966Z" transform="translate(-10.024 -4.636)" fill="#fc3" stroke="#000" stroke-width="3"/><path d="M182.1,339.835l-9.519,5.814-5.063-2.7-10.853,2.911,2.237,8.193-4.731,7.164,0.925,11.132-4.058,4.028-6.027,5.844-11.955,1.864-6.376-5.519,1.971-5.5L115.2,375.454l-6.888,2.813-0.5-16.953L99,365.557l-2.237,6.989,5.892,0.251-2.042,4.216,6,8.272L99,399.184l3.863,7.083,1.935,4.126L90.89,408.5l-7.49,9.913-6.172-3.233-6.974,2.967,0.617,15.526L60.27,451.02l3.764-.394,13.806-.782,1.917,7.323-10.207,9.461,4.953,9.4-13.469.688,7.154,7.726,1.92,5.964-4.33,7.77-5.8,4.084-6.247-4.716L45.068,495.2l-1.455,3.289-8.079.375-0.013,3.906-2.982,2.911,6.344,4.716L32.6,513.514l4.688,9.634-9.971,3.792-4.846-1.219-7.361,2.335,8.251,2.479,8.627,6.817L40,534.3l13.913,0.81,13.161,10.558,13.791,1.557,1.313,8.358,18.86-.336,6.271,5.183L126.52,563.5l9.088,10.751,11.353-.114,18.421,7.314,22.609-11.792,2.6,1.1-0.437,25.146,9.939,5.039,4.917,6.667-1.935,10.9,13.9,14.673,11.239-2.25,2.063,1.986L235.716,639l2.774,7.914,5.2,2.625,14.451,1.384,4.551,6.86,2.573-.5,6.4,8.315,5.125,0.251,2.172,4.5,10.222,4.229,13.69-3.419,1.986,12.107-0.531,14.221,2.537,4.953,7.785,3.126,6.774,24.428-2.537,5.039,7.053,4.33,5.183,6.6,8.178,0.838,11.031,8.458,6.121,12.19-2.745,21.06,2.674,4.523-1.039,5.362L367.4,809.8l5.225,9.971,15.877-3.188,21.21,2.537-3.332,26.78,2.832,4.351,0.264,10.573,3.261,3.713-2.042,18.652-3.563,7.241,8.415,6.551-10.573,12.415,4.745,2.674,8.328-.66,7.068,4.66,1.864,2.159,0.767,2.745-0.351,5.592-7.876,11.871-0.673,5.362-5.232,16.242,5.225,6.415,5.6-.825,15.411,6.71,7.993-2.867,11.19,0.546,3.993,3.713,0.308,5.519,10.931-3,5.656-6.552,7.627-3.728,3.188-4.8,14.164-9.7,5.727-.251,9.463,6.292-3.126-12.91,3.188-19.052,4.021-7.254,4.336-18.02-1.92-7.756,0.375-14.012,16.027-26.63,0.938-1.6,9.62-10.314,24.25-37.94,31.862-45.488,4.244-31.881-1.125-11.6,2.659-32.034-3.419-20.019,0.043-17.57,1.191-8.814,2.832-25.174-3.734-13.6-6.789-24.207-1.29-7.154L601.048,546.7l-1.527-16.629,1.6-12.351,1.821-14.866L606.08,489.7l-1.527-11.282,0.458-13.525-3.4-10.314-2.832-10.652-1.125-10.093,2.886-22.907-0.75-.375-4.9-.058-9.77-9.377-5.613-.7-16.587,1.468-11.627,7.576-4.5,1.275-4.366,5.712L536,418.556l-0.838-4.257-5.125-1-3.642-3.713-7.226,2.813-5.785-.444-9.634-9.169-2.322-10.853,2.129-8.064-5.125.5-14.086,4.336L470.763,393.4l-16.392-6.172-2.924,2.25-28.786-6.121-8.287,6.189-2.063,1.834,1.046,5.225L410.124,407l-0.086,7.95L399.694,416.6l-7.254,8.251-10.487-2.967-22.236-25.5-4.5-7.211-0.563-8.358-2.537-1.333,4.394-7.154-4.831-12.882,5.585-12.694-0.144-5.6-20.441-23.661-3.025-8.092,6.494-8.051-7.717-3.021-6.609-15.511-9.433-5.555-3.529-7.627-2.494,1.262-1.648,11.211,2.1,13.877-6.723,5.082-10.926,2.717-7.5,8.415-4.7,1.763-4.114-2.924-1.735,1.834-12.141,2.008-19.447,4.788-4.859-1.688-3-4.2-6.845,2.187L217.635,324l-14.221.782-4.454,10.176-4.788,5.527-10.078-2.395Z" transform="translate(-10.024 -4.636)" fill="#fc3" stroke="#000" stroke-width="3"/><text transform="translate(358.595 375.953)" font-size="135.024" font-family="DejaVu Sans" font-weight="700" style="isolation:isolate">1</text><text transform="translate(304.837 585.992)" font-size="135.024" font-family="DejaVu Sans" font-weight="700" style="isolation:isolate">2</text></svg>