<svg xmlns="http://www.w3.org/2000/svg" width="617.702" height="972.032" viewBox="0 0 617.702 972.032"><title>2T Législatives 2017 Corse-du-Sud</title><path d="M402.918,256.314l2.947-5.88-7.84-28.368-9.058-3.63-2.947-5.752,0.616-16.515L384.33,182.1l-15.9,3.988-11.871-4.928-2.522-5.227-5.952-.274-7.433-9.672-2.988.6-5.286-7.966L315.6,157.011l-6.02-3.049-3.238-9.173-6.316-7.058-2.4-2.306-13.052,2.613-16.14-17.057,2.248-12.653-5.71-7.742-11.543-5.852,0.507-29.183-3.023-1.307-26.256,13.7-21.393-8.494-13.185.118L179.529,57.092l-22.31-3.58-7.283-6-21.918.407-1.524-9.707-16.016-1.79L95.194,24.159,79.037,23.2l-9.3,3.545L59.722,18.83l-9.582-2.879,2.714,5.643-4.994,4.029-12.046.015-0.952-6.81-3.63-1.366L29.526,28.874l3.005,1.141,4.728,4.471-1.189,13,2.356,12.81,6.259,0.068L61.418,44.6,67.795,43.3l12.211,5.185,7.84,10.214L85.9,65.011l-16.565,11,1.156,6.468,4.961,3.687,12.96-2.522L95,90.424l4.911,3.156,11.821-1.947,0.015,3.221,8.424,4.519,4.079,11.612,6.392,0.133,2.4,6.775-1.174,10.955-32.151,6.211L94.34,138.9l-19.165-.475L73.81,141.47,46.223,152.425l-6.59,3.106-5.869-4.857-7.448,3.1,8.929,9.885,6-3.953,6.486,0.581,2.539,3.633-4.454,6.111,5.819,5.643-4.7,1.265-1.307,7.35,8.515-1.808L53.11,194.463l3.345,10.972,2.864,1.932-3.071,2.372-11.462.6-4.356,5.12,6.144,3.646,13.8-2.631,4.2,5.527L54.49,229.9l-11.854,5.32-1.89,5.935,11.429-6.468,6.316,1.657,4.994,7.84-9.5,14.417,25.38-5.227L81.94,262.4,93.369,262l0.749,3.7,6.226-1.074,4.669,4.029,5.368,11.279,2.931,1.248,12.163-2.814L132,271.624l8.565,2.555,5.71,13.982-2.306,9.265,3.071,0.832,4.861,8.149,2.356,12.631,12.453-.436,4.094,4.911-0.375,2.115,2.914,8.973-5.577,8.006-9.872-1.723v5.643l-8.424,6.02-17.688,2.178L120.3,361.375l-10.1,8.711-1.233,6.259-1.365,2.631,3.138,8.276,5.9-.507,1.174,2.746-0.436,7.659-13.938,12.586-9.332,1.206-8.973-2.681-6.392-.767-14.1,7.363,10.987,22.584,6.409-.242,3.171,5.427-8.457,21.236,1.307,9.639-2.555,6.02L95,467.762l6.342-1.5,19.561,4.062,12.91-3.171,16.615,0.342,3.221-.871,14.276-8.583,0.732-9.964-4.138-14.293,7.725-10.78,1.265-4.621,6.893,1.947-0.6,6.734,3.156,5.035,5.678,2.8,12.57-.475,12.553,4.162v5.17l4.678,0.767-0.832,7.026,7.3,2.988-3.97,5.085-6.194,2.289-2.6,6.067,1.024,2.864,8.1-3.545,2.8,1.141,7.135-5.728,5.88,1.348L255.6,450.322l-6.969-13.951,12.878-12.32,15.042-2.914,8.565-9.855,23.882-9.365,3.188-5.662,2.165-5.769,19.446-14.809,3.005-5.253,19.72-11.107,2.681-6.111,7.808-6.226-0.274-6.333,9.707,8.731,12.111-5.009,12.945,0.891,7.916-5.56,6.451,1.189,9.349-3.254,5.32-1.479,1.524-6.176,14.5-6.409-3.121-5.27,3.2-24.477-7.108-14.156-12.81-9.822-9.515-.973-6-7.659Z" transform="translate(-23.781 -13.535)" fill="#06c" stroke="#000" stroke-width="3"/><path d="M446.4,323.718L432.1,329.962l-1.566,6.244-5.445,1.566-9.365,3.121-6.5-1.041-7.808,5.46-13-.782-11.978,4.944-9.89-8.84,0.259,6.5-7.816,6.244-2.589,5.985-19.77,11.188-2.879,5.2-19.511,14.825-2.082,5.728-3.373,5.734L285.106,411.4l-8.578,9.9-15.075,2.864-13,12.229,7.026,14.051L237,464.229l-5.985-1.307-7.026,5.734-2.864-1.307L213.048,471l-1.041-2.864,2.6-5.985,6.244-2.339,3.9-5.2-7.283-2.864,0.782-7.026-4.669-.782v-5.2L201.1,434.569l-12.486.507-5.734-2.864-3.121-4.944,0.516-6.751-6.751-2.082-1.285,4.678-7.816,10.671,4.162,14.308,4.944-4.162,3.121,0.516,6.244,7.808,6.244-2.339,6.244,1.566,13.527,18.729,3.38,12.244-4.162,4.669-11.447,5.2,1.041,8.84,4.678,4.421,0.782,14.308-4.678,4.944-19.77,2.6v2.339l6.244,1.566,12.486,10.406-5.445,8.058-1.84,9.89-9.89,1.84-2.339-2.339-3.121,1.307-10.671,11.688-15.615-2.875-1.283,2.864,14.051,17.447-13,18.729L128.535,619.8l-11.978-3.92-4.957,4.177-0.784,3.376L112.1,626.3l6.5-1.566L141.49,627.6l2.339,2.339-0.259,12.991,3.121,1.041,41.621-17.423,6.244,0.516,4.421,4.669-7.542,17.688,9.108,12.485,2.879,0.782,7.026-6.751,9.108-3.654,8.84,4.162,11.978,10.922,25.23,2.339,8.058,5.2,16.133-1.041,2.6,8.84-23.15,10.406L264.3,711.843l-4.678,4.421-2.339-2.082-9.89,1.041-24.457,15.349-9.365-7.026-3.121,5.2-5.2,3.646-2.339,22.375-7.283,14.051,2.084,2.881,5.728,2.324,6.5,11.2-6.751,7.026-3.121,4.944,7.542,4.421,8.583-.782,2.864,2.864,6.5,6.751,13,0.8,8.583,3.9,0.242,6.5-7.808,10.647,3.121,5.2,7.283-.782,13.27-5.46,10.671,8.84-3.38,8.058,20.036-1.307,5.46,17.447,9.89-4.961,3.9,4.421,15.866-.259,13.527,13.285,9.108-8.583,2.879,6.5,4.944,4.162,7.808-3.92-0.782,7.542,6.244,8.583,9.365-8.058L380.608,895l8.058-3.9,13.527-14.051,6.244-1.307-8.058,13.786L399.6,902l3.646,5.2,5.985,2.082,10.147-7.283,2.873,5.747,12.486,2.339,1.041,3.121-8.058,9.89-0.259,6.5-6.486,6.751-4.162,12.485,2.864,5.728,3.38,0.782,19.511-3.9,7.808,6.244,9.624,0.516,2.082,1.307-2.365,2.335,12.486,2.864,6.244,14.559,2.864,1.566,26.014-1.823,2.6-9.365L525,948.836l4.395-8.851,5.2-3.646,3.654-12.485-3.121-.782-8.324,4.678L512.5,941.277l-2.879,1.566-2.877-1.043-1.823-6.244,5.728-2.082,2.6-9.365-2.339-6.244,0.782-9.108,12.244-4.944,14.051-14.06,6.244-2.082,0.259-5.985L552.3,875.7l2.864-5.985-1.823-15.084-5.728,3.121-3.121-5.46,7.283-11.188-5.46-11.188,0.782-2.864,9.365-3.121,8.583-10.406,15.868-12.49,9.365-2.339,7.808-4.678,2.6-12.485,11.447-15.343-1.307-2.864-6.5.259-9.365,1.307-7.026-7.026-9.624-1.823-15.084,17.157-2.864,1.307-5.2-4.162-2.339-5.985,1.823-9.89,13.27-9.365v-9.624l6-2.6-0.259,3.121,7.026,7.026,19.511-.782,1.566-5.46-4.162-8.583,2.864-5.728,6.5-.782,5.46,3.114,10.922-11.978,0.516-16.133-7.542-9.9,7.026-10.671,11.447-5.728,3.121-16.133-1.823-5.985,2.589-5.728-1.566-6.244,2.864-32.256-1.307-6.244-5.985-2.6,1.572-12.745-2.583-9.6,7.283-22.109-2.339-36.152-10.922-7.283-6.751.259-16.39,11.188L598.9,524.5l-8.84,4.162-6.5,7.542-12.727,3.646-0.516-6.486-4.678-4.162-12.745-.8-9.365,3.38-17.948-7.808-6.5,1.041-5.985-7.542,5.985-18.729,0.8-6.244,9.108-13.786,0.507-6.5-1.041-3.121-2.082-2.589-8.324-5.46-9.606.782-5.46-3.121L515.211,444.4l-9.624-7.808,4.162-8.324,2.339-21.608-3.9-4.4-0.259-12.244-3.38-4.937,3.9-31.217-24.457-2.864-18.472,3.646-6.244-11.447-13.786-13.27Zm88.971,651.1-3.9,2.6v1.566l4.421,2.082,1.823,2.6,1.566,0.259,1.566-2.6,2.879,0.516,1.823-2.6-0.516-1.307-3.38-.242-1.566-2.6Z" transform="translate(-23.781 -13.535)" fill="#fc3" stroke="#000" stroke-width="3"/><text transform="translate(145.839 259.09)" font-size="156.804" font-family="DejaVu Sans" font-weight="700" style="isolation:isolate">1</text><text transform="translate(330.881 594.84)" font-size="156.804" font-family="DejaVu Sans" font-weight="700" style="isolation:isolate">2</text></svg>