<svg xmlns="http://www.w3.org/2000/svg" width="568.979" height="363.705" viewBox="0 0 568.979 363.705"><title>2T Législatives 2017 Saint-Barthélemy et Saint-Martin</title><path d="M411.157,1.62c-15.479-2.171-61.147,25.694-37.214,31.7,21.527-.873,39.37-12.939,34.546-27.087l3.565-3.565-0.9-1.05h0ZM260.8,5.92c-9.278,8.669-5.079,32.263-25.013,14.477-21.519-9.174-8.2,66.834-45.29,36.99-20.687,4.19-14.5,32.062-38.049,40.123,12.482,15.928,6.906,40.547-8.4,51.5-13.476,5.993-27.753,20.75-42.47,8.869-27.9-.545,2.3-57.741-26.487-27.039-14.3,24.492-33.369-6.914-52.589-.512-25.814,4.943-30.332,38.776.585,40.555,14.461,29.4,33.689-18.091,52.965-21.111,20.238,6.273,19.26,30.669,39.818,24.019,22.841,2.836,9.742-17.65,27.456-12.146,7.034-7.515,2.139,36.068-13.075,20.438-3.621,23.49,35.091,18.539,45.33,4.254,9.967-8.933,18.363-23.114,29.379-28.746,17.1,3.316,34.09,6.826,48.054,18.011,18.307,3.742,39.041-5.151,56.827-.1,22.585,19.292,8.284-30.076,10.3-35.116-8.3,21.295-26.9-12.851-9.454-18.435,29.395-18.571-8.885-15.727-12.034-34-5.969-10.544-11.653-31.558-3.774-39.682,27.728-7.483,6.722-55.786-21.327-41.733-4.254.087-8.517-.866-12.763-0.618h0ZM389.617,237.16c-19.252,3.845,4.35,24.532-19.6,19.917,3.677,4.583,18.283,11.521,27.256,21.3,11.457,10.672,27.128,18.17,30.893,34.547-18.435.986,2.836,20.574,7.819,28.289,10.623,23.395,27.232,28.025,37.1,9.887,11.777,23.955,28.081-26.134,40.844,4.566,6.345-13.428,10.968-28.337,27.208-31.7,11.649-14.55,23.6,14.838,22.593-11.345,3.02-13.877,10.047-44.225-9.4-19.308,2.444-27.208-16.68,4.174-15.543-18.539-15.551,9.2-14.3,4.943-14.2-9.782-13.412,8.917-15.519-15.679-23.4,10.511-5.472,18.636-33.553,7.947-41.613,23.611-9.975-14.726-18.227-31.189-29.6-44.577C405.865,260.882,397.925,262.789,389.617,237.16Z" transform="translate(0 0)" fill="#06c" stroke="#000" stroke-width="3"/><text transform="translate(389.596 210.656)" font-size="104.756" font-family="DejaVu Sans" font-weight="700" style="isolation:isolate">1</text></svg>