<svg xmlns="http://www.w3.org/2000/svg" width="862.372" height="709.019" viewBox="0 0 862.372 709.019"><title>2T Législatives 2017 Guadeloupe</title><path d="M349.441,157.044L321.865,161.7,307.9,159.911l-10.03,3.578-6.087,7.521L281.4,169.936l-6.087,3.223-6.8,7.881-0.36,20.77-11.1,13.968,1.435,6.447-5.372,4.3,2.863,32.589-2.146,2.86,21.13,34.378,1.789-4.3,6.447-2.5,9.31-11.1,52.644-21.484,9.31-4.3v-13.61l1.435-3.223,6.447-1.435-0.714-6.087-3.223-1.435,0.36-3.578L371.3,206.468l9.67,3.938,16.117-6.447-4.658-20.415-13.968-.354-8.237-11.816-6.092,3.578ZM517.756,513.37l-13.6,3.583-16.477,23.633-6.8,2.149-3.223,21.13-3.938,5.733-12.179,7.161-1.435,3.223,6.807,41.9,5.372,9.31L492.338,644.8l23.639,8.236h10.385l9.67-3.943,10.385-1.429,12.894-6.447,18.621-16.832,12.179-7.161L596.2,603.97l1.435-14.323L593.7,575.684l-23.639-20.766-10.385-21.484-27.931-15.757Z" transform="translate(0 0)" fill="#ffeb00" stroke="#000"/><path d="M331.179,0.547L314.707,18.813l-15.4,8.95-5.732,9.31-9.67,4.652-17.19,17.553-4.3,13.248,11.826,40.825,7.161,7.521,9.67,4.3,3.223-1.429,11.1,12.534-2.154,19.693,4.658,3.944,13.963,1.789,27.579-4.653,14.683,17.906,6.092-3.578,8.236,11.819,13.968,0.354,4.657,20.419-16.117,6.447-9.67-3.938-12.534,16.832-0.36,3.578,3.223,1.435,0.714,6.087-6.447,1.435-1.435,3.223v13.6l-9.31,4.3L292.5,278.454l-9.31,11.1-6.447,2.5-1.789,4.3,3.578,4.658,13.608,1.074,6.8,7.521,34.378,7.876,17.192-2.863,12.179-7.161,17.546-1.789,10.03-2.149,5.012-5.372,12.534-5.018,10.385-.354,13.608-11.1,40.11-10.03,6.447,2.863,24.353-3.583,40.465-11.1,57.3,5.732,16.832,4.3-11.459-8.236-17.906-2.509-32.229-15.4-7.161-7.876L537.1,212.919l-19.341-15.4-32.583-13.608-21.129-3.571-7.161,1.429L422.5,172.1l-23.991-31.515L393.5,126.976l0.354-7.161,6.807-29.725-5.73-23.99-7.161-22.919-8.236-7.161-19.7-14.32-5.372-8.956-13.963-2.5-5.732-8.959Zm448,163.3-6.8,1.429-3.223,4.3h-3.583l-8.6,5.732-13.964,7.162-1.789-.354L738,186.054h-1.789l-6.8,5.732-6.8,2.863-7.161.714-3.95,6.087-10.382,2.15-7.161,8.236-0.714,8.95,2.863,1.074,21.13-9.67,24.713-6.087,20.41-15.4,16.832-6.447,6.087-3.938L781.7,168.139ZM678.906,342.187l-15.757,1.074-1.429.714,1.429,2.863,8.6,2.509,10.385-2.147,1.429-2.863Z" transform="translate(0 0)" fill="#ffc0c0" stroke="#000"/><path d="M66.175,153.107l-8.6,5.727-13.964,1.074-12.17,7.516-8.6,10.746-3.223,13.608-8.95,6.447L9.6,201.448l2.509,6.447-5.018,9.67-1.075,17.9-5.369,8.956,2.869,2.5,4.658,24.353,15.4,19.7,2.509,13.968L22.139,318.91l4.3,9.31,12.174,6.8,7.161,0.714,12.894-4.658,12.534,4.3,5.372,12.894L78,362.238l4.3,5.372,0.714,13.968,6.8,1.789,5.732,15.757,10.025-1.789,20.055,5.012,8.236,6.092,2.509,6.447,6.087,7.881,20.415,3.223,19.7,7.161,18.266-10.025,13.6-3.936,10.025-9.31,9.67-3.583-0.358-10.027,7.516-10.745L228.041,375.5l0.354-10.025-5.372-3.938-2.5-6.8-1.435-6.8,4.3-5.372-0.36-3.583-7.161-7.876-1.789-6.8,0.36-3.583,5.012-9.31-3.224-16.839,4.3-13.608,2.863-2.149,16.472,3.938,3.223-1.789L254.9,292.425l2.863-6.447-3.938-5.732-1.787-14.32,2.149-17.906-1.435-6.8L246.308,238v-6.8l-6.8-1.435-13.967,3.22L217.3,244.8l-3.223,1.789-3.223,1.074-3.583-.714-4.658-7.516-8.236,6.447-3.583-9.31-10.385,2.869-0.354-6.447,5.012-5.012,6.087,0.714,7.161-11.819,4.3-3.938-2.509-2.149-8.95.354-10.745,1.789-15.757-7.876-5.372-8.955-21.13-.714-27.576-15.4-13.963-3.223L82.3,160.642Zm152.554,7.876-5.012.714-4.658,7.881L213,168.143l3.583,0.714,5.372-.354,1.435-1.074v-3.578Z" transform="translate(0 0)" fill="#ffc0c0" stroke="#000"/><path d="M26.425,328.225L25,338.97l7.161,6.8,0.714,7.161-2.5,21.13L37.9,385.52l-2.87,13.964,1.07,25.067,6.092,2.509-3.223,31.16,4.658,9.67,13.248,15.757L61.523,508l22.918,25.428,6.087,2.863,6.447,12.179,2.866,20.77,10.025,2.509,20.415-5.372,9.31-10.385,6.8,1.435,8.59-6.447,17.552,0.36,9.67-3.943,7.876-14.683,0.714-3.583,40.825-34.378L245.941,466.1l-3.578-13.608,1.429-28.651-3.938-13.608-5.732-3.938-9.67,3.583-10.025,9.31-13.608,3.938-18.268,10.025-19.7-7.161-20.41-3.222-6.087-7.881-2.513-6.449-8.236-6.092-20.055-5.012-10.025,1.789L89.8,383.37,83,381.581l-0.714-13.968-4.3-5.372L76.555,348.27l-5.373-12.9-12.534-4.3-12.894,4.658-7.161-.714ZM230.189,638.71l-2.863,6.447-1.435.36-3.223-3.583-1.429.715-1.789,3.223,1.074,6.8-2.149,2.863-12.534,1.435-5.372,4.3-0.714,1.789,4.3,2.509,6.8,2.5,3.938-5.733,10.385,1.789,1.429-8.6,8.6-5.733-1.789-3.223,0.36-5.372-2.149-2.5H230.2v0.011ZM170.024,651.6l-6.087,6.087-4.658,2.509L155.7,672.37l15.757,8.6,4.658-2.863,6.8-10.385,4.658-.715,1.074-2.863-7.521-3.938-1.074-5.012-1.435-1.075Z" transform="translate(0 0)" fill="#ff8080" stroke="#000"/><path d="M231.618,494.753l26.147,51.217s15.976,62,15.976,65,5,57.1,5,57.1l-25.623,38.9-112.377-5-21-56-9.877-74.221" transform="translate(0 0)" fill="none" stroke="#000" stroke-width="4" stroke-dasharray="12"/><path d="M274.951,296.362l12.79,52.987,91,49.621s92,30,107,42,90,36.565,99,53.783,26,61.217,27,69.217,1,51-1,60-59,44.1-59,44.1l-99,12.9-99-70-55-121-40.976-107,4.652-96-8.676-23v-5.875l-1.75-20.5,1.127-16.625,3.938-5.2" transform="translate(0 0)" fill="none" stroke="#000" stroke-width="4" stroke-dasharray="12"/><path d="M447.269,277.817l129.557,50.408,60,80.839s124.494,1.5,133.493,0,58.5-80.839,58.5-80.839l31.5-112.449-19.5-102.2-101.556-31.5-135.432,1.5-143.725,52.5L447.269,179.07" transform="translate(0 0)" fill="none" stroke="#000" stroke-width="4" stroke-dasharray="12"/><text transform="translate(495.866 226.698)" font-size="72" font-family="DejaVu Sans" font-weight="700" style="isolation:isolate">2</text><text transform="translate(270.241 262.072)" font-size="72" font-family="DejaVu Sans" font-weight="700" style="isolation:isolate">1</text><text transform="translate(109.864 340.068)" font-size="72" font-family="DejaVu Sans" font-weight="700" style="isolation:isolate">3</text><text transform="translate(117.849 571.749)" font-size="72" font-family="DejaVu Sans" font-weight="700" style="isolation:isolate">4</text></svg>