<svg xmlns="http://www.w3.org/2000/svg" width="505.484" height="673.459" viewBox="0 0 505.484 673.459"><title>2T Législatives 2017 Mayotte</title><path d="M16.587,0.535L13.259,1.2,0.6,15.2l1.335,2.664,15.32,5.326,5.327,10.66,17.99-12.659-0.664-2.675ZM151.172,34.509l-17.987,5.327L134.52,46.5l-14.659,12.66L115.2,77.821l-9.326,8.661-12.66-1.329,2,17.328L77.891,120.462l-17.322-3.328-1.335,1.329L45.91,158.429,63.9,160.44l5.327,10.66L43.241,198.423v6.656l44.64-22.638,49.967-5.333,11.989,14.664,43.976,25.313L253.106,232.4l25.983,2.653,45.969,3.34,69.953-20.656L371.7,199.746l-16.658-6-4-4.657,2-11.989-4,4-15.988-8L308.4,171.771l-23.32-.665L267.1,154.443,252.44,181.766H241.117l-6-11.325-6-.665-14.659,5.992L199.8,167.783l-6-2.011,5.327-17.317-8-16.663,5.327-11.325L173.8,109.142l-7.314-17.323-27.318-25.31-10.66-5.327,20.656-15.329ZM480.964,231.057l-17.322,25.977-12.659,21.321L433,273.028l22.649,15.981L478.3,327.657l4.663-17.328,17.987-17.98,1.335-18.657,0.664-.665,2-6L494.29,243.709Z" transform="translate(0.001 0)" fill="#ff8080" stroke="#333"/><path d="M356.9,463.815l-14.925,10.66L325,481.551l-7.038,17.158,3.283,11.9L333.731,523.8,304,521.321,285.968,544.7l4,16.783-2.38,5.6-11.9,1.618-4.532,11.16,22.1,34.178,34.315,17.68-0.863,5.992-10.009,8.42L297.315,647.7,282.685,658l-4.208-18.458-8.241-9.218-12.421-2.686-8.5,9.371,0.6,6.344,0.7,4.646,0.324,6.3-16.1,18.623-12.24-1.927-11.637-14.2-15.84,8.82-4.81-24.416-12.029-1.92-16.134,18.134-4.765-3.76,8.5-42.55-2.158-12.359-5.782-2.5-25.023,16.084-23.694-8.894,25.958-13.525,11.592-13.358,5.873-24L149.5,540.857l-23.14-1.748-11.11-14.024L95.819,487.737l18.339-1.42,31.788,2.959L149.6,507.7l7.173,23.1,28.511,11.427,8.258,9.03,1.034-.119,18.549,5.8,18.742-4.39,14.352-21.411-1.857-6.276L216.8,473.292l-11.609-5.327-1.71-3.618-14.755-10.814L167.3,422.3l-21.8-11.1-7.718-10.439,3.53-5.448,10.155-8.11,30.129-9.348-24.053-8.182-8.474-7.1,8.457-29.641-10.2-14.852-0.954-12.37,5.475-8.809,16.629-3.016-1.437-5.492L143.8,286.481l-4.345-11.255,10.331-14.13,2.1-12.2-7.349-9.218-10.95,6.332-16.581-8.9-12.2,3.459L76.7,214.509l-18.43,2.454-15.079-11.9,44.765-22.6,49.933-5.282L149.916,191.9l43.9,25.205,59.06,14.954,26.352,2.863,46.02,3.419,69.635-20.951,0.948,17.958-6.272,17.959-4.646-4.447,0.659-15.118-11.489,21.133,10.177,3.771L392.6,269.3l-3.4,2.641L367.621,286.1,353.78,306.955l-15.437,11.461-3.112,18.526-10.768,6.9-0.454.21-7.491,8.985,1.511,11.734-14,10.629-1.869,5.634L307.783,383l11.347,3.606,2.312,12.114,13.693,20.446,11.949,3.43,2.7,12.233,17.839,0.721Z" transform="translate(0.001 0)" fill="#06c" stroke="#333"/><text transform="translate(90.456 163.388)" font-size="107.951" font-family="DejaVu Sans" font-weight="700" style="isolation:isolate">1</text><text transform="translate(219.127 382.388)" font-size="107.951" font-family="DejaVu Sans" font-weight="700" style="isolation:isolate">2</text></svg>