<svg xmlns="http://www.w3.org/2000/svg" width="947.885" height="913.898" viewBox="0 0 947.885 913.898"><title>Députés sortants de Charente en 2017</title><path d="M425.721,588.856l-18.99-1.085-0.238,3.152-5.068,3.294-5.472,17.976-8.157-5.029-5.916-7.9-6.517-1.069-10.691,7.594-6.81,18.546-14.2-6.248L325.647,609.5l4.585-15.355,9.733-8.893-2.012-15.791,6.209-2.954,15.7-.047,10.366-6.3,4.015-8.584-0.214-6.422,1.006-6.525,15.236-6.763,17.517-4.657-2.012-12.623-5.67-2.273-8-10.144-6.161-1.782-1.853-2.89,12.14-11.538,2.146-13.257,3.96-5.448,5.963,4.3,5.116-.372L426.361,457.7l13.518-8.117,0.84-8.877,4.807-2.209,2.09-5.907,12.773-8.7,8.671-3.231,2.8,1.473,4.57,4.189,6.731-5.86,10.944,4.332L489.88,437.54l7.816,6.3,3.611,8.972,23.844,18.974,0.562,0.491,12.361-3.991,3.619-5.456,11.2-6.771,9.788,4.688-6.137,28.152-4.458,4.482,2.186,15.5,11.886,4.467-10.96,6.977-3.247-.618,4.4,8.909,26.592,13.209,0.768,9.733,20.835-.57,8.125,5.955L597.7,573.921l-3.437,16.535-5.29,4.189-13.415-1.251-5.623-17.43,1.338-9-4.767-4.252-9.289,2.146L545.09,563.04l2.36,11.277-2.1,2.075-3.936,13.826-2.154-2.487-7.578,6.248-6.51-.824-9.36,3.168-8.846-3.405-26.22-20.605-8.822-4.672-3.223.99-2.613-1.117-1.7,2.289,0.166,8.149-7.309,13.367,2.8,11.7-3.294.491-11.712-19.671-5.52-3.761Z" transform="translate(-32.829 -48.499)" fill="#ff8080" stroke="#000"/><path d="M462.845,894.88l5.8,1.362,14.088-3.437,4.158-10.128,6.945-15.331L502.6,865.4l8.7,2.3,3.873,0.42,9.408-7.982,2.716-16.131-3.849-19.069-0.214-.2-5.116-17.556-5.084-10.065,2.716-16.63,6.343-15.284,3.191-10.659,2.17-10.485,4.87-8.165,7.9-5.274,9.226,0.681,8.394-3.635-8.6-9.154-0.4-12.773,5.48,0.127,12.37,14.365,3.508-15.387,0.19-.309,14.84-5.829,4.324-8.568,9.614-2.122,0.649-6.494,20.178-7.365,9.8,7.689,5.932-1.75,0.7-15.4,8.98-12.48,3.223-3.849-1.069-5.06-24.05-9.48-6.985-6.462L613.6,628.84l-0.95-6.446-6.874-6.85-31.518-17.723,1.259-4.4L569.9,575.98l1.338-9-4.767-4.252-9.289,2.146-12.124-1.8,2.36,11.261-2.1,2.075-3.936,13.826-2.146-2.487L531.654,594l-6.517-.824-9.36,3.168-8.838-3.405-26.228-20.605-8.822-4.672-3.223.99-2.613-1.117-1.695,2.289,0.166,8.149-7.317,13.375,2.8,11.7-3.294.491L445,583.859l-5.52-3.761-13.779,8.75-18.982-1.085-0.238,3.152-5.068,3.294-5.472,17.976-8.165-5.029-5.907-7.9-6.517-1.069-10.691,7.594-6.81,18.546-14.2-6.248-18.016-8.584,4.585-15.355,9.733-8.893-2.012-15.791,6.209-2.954,3.136-4.9-3.429-17.786-7.555-3.033-0.982-21.239-3.128-.57-10.651,6.51-9.3-.166-7.04-6.9-8.489-13.47-6.066-1.98,1.821-2.756,3.1,0.665,3.065-5.179,6.24,0.895,5.551-7.626,15.727-2.178,2.495-4.236-9.733-1.5,1.1-9.9-9.257-9.408-12.71-3.215-5.971-7.365-11.808-.372-5.9-1.98-1.734-6.035-11.9-3.746,0.159-2.09-3.326-5-1.916-14.682L235.775,419.4l-18.95,1.869L211.186,409.1,196.3,401.278l-0.253-.127-6.485-10.643-1.489-5.892-5.235-2.193,0.934-8.537-5.6-1.821-18.182-.744-2.3,2.09-8.98-1.512-5.013,3.468,0.958,6.422-9.685,8.83-5.132,1.473-13-2.059-17.984,6.818-2.732-.911L74.52,390.389l-1.782,15.624-9.075,1.267-5.123,4.007L42.662,410.2l-9.3,13.66,2.13,12.124,29.728-2.3,8.347,5.353-0.586,3.294-10.025,8.537-0.768,13.391L65.517,476.2l-5.068,11.538,8.331,2.138,19.149,23.559-0.182,3.358-9.059,2.756-8.814-3.468L54.391,546.6,65.7,553.7l6.327-2.09,12.37-7.127,4.6,7.1,2.843,9.495,11.831,11.277,8.759,2.645,3.255,8,6.224-.76,1.861,2.534,6.082,4.783L145.5,604.282l-10.849,19.7-5.852,1.885-0.159,6.787,1.156,0.079,11.269,6.232,9.558-1.006,5.369,3.635-1.94,6.035,11.934-5.456,7.713,5.456-7.23,9.9,7.587,6.082,6.47-.372,0.063,6.422,2.669,1.869-1.331,4.189-5.971-1.346-10.612,19.259L156.055,691,152.5,708.141l6.106-2.289,5.907,2.771,1.655,6.311,7.626,6.082,0.127,2.415,4.094,5.163-2.661,6.035,0.689,9.558,9.772,0.182,1.79,9.036-9.915.293-1.766,6.43-15.83,2.922-2.408,6.106-5.29,3.912-9.733-.1-1.077,2.431-5.226-.538-0.317,9.8,4.276,4.514,6.1,0.879,3.191,4.5,5.82,1.98,1.528,9,5.71-2.906L179,802.718l0.388,9.717-2.977,5.456-8.988,2.193-9.408-8.014-3.176,8.7,0.776,0.6,1.576,2.447-7.681,8.679L153.7,836.9l0.824,13.161,17.279,9.107,0.467-9.527,11.269-5.63,6.541-.246,1.1-6.478,18.293,10.081,3.627,5.116,12.053-2.463,11.134,1.608,7.246,4.783,2.265,2.178,1.56,10.746,10.176-6.106,14.357,4.641-2.59,34.044-1.821,5.757,10.35,1.219,15.522,1.148,18.309-3.08,3.667,0.76,2.867,1.441,4.965,11.6,11.7,5.369,12.789,0.356,1.457,6.2-5.132,15.743-0.214,10.081,4.324,3.1,4.189-10.809,9.764-2.09,7.753-5.939,12.781-15.11,7.3,6.264,6.478,0.341,10.722-6.929,5.409,1.378,9.582,10.952,1.061,1.006,11.087,4.364L437.047,940l6.019-.2,1.829-9.622,6.47-1.821,11.388-12.187-3.08-5.5,1.434-6.43,2.962-4.07Z" transform="translate(-32.829 -48.499)" fill="#ff8080" stroke="#000"/><path d="M274.578,254.648L268.6,252.51l-9.463,2.4-8.537-4.688-7.175,4.751,3.342,10.921,8.188,3.96-3.873,7.919-5.171,2.138,0.435,2.811,1.813,6.035,8.846,0.681,0.721,12.592,3.833,4.854,6.367,0.57,1.259,2.954-2.218,2.3-4.815,8.743,1.069,6.573-2.273,2.447-9.02,2.811-4.942,8.2,3.247,0.159,3.326,15.806-10.54,20.708,2.312,9.74-5.211,9.25-4.236-3.761,3.152-5.4-2.637-1.718-12.306,2.059-2.344-2.122-5.9,2.368-7.571,10.025-11.942,2.693,14.888,7.824,5.638,12.171,18.95-1.869,19.885-2.138,1.916,14.682,3.326,5-0.15,2.09,11.9,3.746,1.726,6.035,5.9,1.98,11.815,0.372,5.971,7.365,12.7,3.215,9.257,9.408-1.1,9.9,9.733,1.5-2.5,4.236-15.727,2.178-5.551,7.626-6.232-.895-3.073,5.179-3.1-.665-1.821,2.756,6.074,1.98,8.481,13.47,7.048,6.9,9.289,0.166,10.651-6.51,3.136,0.57,0.982,21.239,7.547,3.033,3.429,17.786-3.136,4.9,15.7-.047,10.366-6.3,4.023-8.584-0.222-6.422,1.006-6.525,15.236-6.763,17.517-4.657L405.8,514.592l-5.67-2.273-7.99-10.144-6.2-1.775-1.853-2.89,12.14-11.538,2.146-13.257,3.967-5.448,5.955,4.3,5.116-.372,12.948-13.486,13.518-8.117,0.84-8.877,4.815-2.209,2.083-5.907,12.781-8.7,8.663-3.231,2.8,1.473,4.57,4.189,6.739-5.86,10.936,4.332-4.229,12.742,7.824,6.3,3.611,8.972,23.836,18.974,0.57,0.491,12.354-3.991,3.619-5.456,11.2-6.771,9.8,4.688L556.536,488.9l-4.458,4.482,2.186,15.5,11.886,4.467-10.96,6.977-3.247-.618,4.4,8.909,26.592,13.209,0.768,9.717,20.835-.554,8.125,5.955L597.7,573.929l-3.445,16.535-5.29,4.189L575.549,593.4l-1.259,4.411,31.518,17.723,6.874,6.85,0.95,6.446,2.922-1.473,6.985,6.462,24.066,9.463,5.7-1.576,5.361-13.518,5.377,1.156,6.422-.467,10.572-6.8,5.116-8.046-0.4-6.216L680.778,604l11.958-22.379-2.8-5.567,2.661-5.195-1.9-5.939-7.99-9.558-0.7-4.055,3.255,0.831,2.146-2.6,2.843-9.685,8.869-9.946,6.446-1.037,2.043,13.6,8.078-5.163,9.487-.293,7.341-6.28-5.662-11.879,13.447-7.531,0.61-6.343,8.394-3.912-2.55-4.949,3.73-4.72,1.94-12.005,2.708,1.98,9.384-9.408,4.561-12.187,2.526-5.726,5.425,3.152,2.677-1.639L783,446.8l-1.877-2.518,3.524-8.426,8.37-.016,0.634-8.473,19.624-13.439,10.976-.713,2.09-6.122-4.894-8.727,2.035-23.124,5.52-3.263,16.068,1.156,6.588,7.024,6.47,0.159,5.527,8.165,6.106,0.435,3.025-5.242-4.411-8.275L872,370.2l-0.341-12.528L881,348.521l16.82-35.818-9.075-2.97,13.367-12.314L892.8,283.743l1.647-19.734-4.688-4.316,2.083-9.218,6.613-.277,10.809,7.887,6.668-.618,8.885,4.126,15.8-3.9,14.619-13.534,9.891-.111,1.037-7.776,2.764-1.718-2.043-2.518,2.106-2.487,9.962-7.436,1.235-12.67-5.852-2.661,0.024-15.3-10.9-6.2,4.062-11.261-9.8-7.1-10.715-5-0.562-5.583-4.728-3.168-13.241,14.785-3.35-.4-3.555-12.433-7.428-6.573L895.757,137.5l-0.847-9.376,6.375-7.285-4.664-11.958,5.353-8.386,0.008-2.178,3.445-5.456,0.047-10.128-5.282-8.7-8.125-6.019-0.333-3.389,7.769-5.456L889.3,51.191,873.75,56.774l-25.119-7.436-12.56,3.54L824.708,49.1l-0.3.507-3.168,9.154-14.532,8.03-6.145,7.966,7.412,14.832-13.28.246-18.61,5.148-13.145-1.457-4.68,4.482-3.136-1.148-1.093,11.6-7.856,4.981-3.247-8.26-11.269,2.938-7.325-10.659-6.66-.879-9.013,4.341-1.845-9.74-11.1-16.29-11.1-6.8,3-12.187-9.067-3.247L672.5,59.65l-9.4-1.98-6.288,18.237-4.878,4.332-3.08-1.085L643.551,85.4l3.73,5.211-2.083,2.6,1.156,6.28,13.106-.4,5.923,2.708L664.917,115l3.793,5.456-6.43-1.3-3.374,5.63-13.3,9.431-22.26,2.09L616.27,122.7l-8.711-3.88-5.44,3.619L582.8,120.816l-5.425,1.283-9.3-1.251-5.836,2.55-5.464-2.6-5.52,3.793-10.01,1.576-9.7-1.655-1.726-5.939-8.656-4.514-3.136-5.781-11.57-5.029-8.743-6.716-4.6-4.039-15.141-1.283-13.344,12.005-5.4,1.148-1.346-2.463L436.547,82.971l-11.229,6.264-9.067-.372-6.042-7.175-2.487,1.964,4.419,11.49-1.8,2.55-7.531-4.126-8.576-.728-13.621,13.439,5.907,7.531-6.042,2.336-9.931,1.283-12.56,15.236-9.6-6.478-5.02,3.928-15.917-.847-8.949,3.152,1.837,9.511,9.463,12.948L324.08,162.7l-9.646,1.2,0.1,6.375-4.245,11.752,6.407,5.583-5.5,6.866-5.741,2.922-2.13,6.122-9.733.356-17.826,9.392-0.7,9.328,6.2-.246,2.518,8.956,3.1,0.325-6.874,13.209,0.562,5.987Z" transform="translate(-32.829 -48.499)" fill="#ff8080" stroke="#000"/><text transform="translate(420.344 495.135)" font-size="86.668" font-family="DejaVu Sans" font-weight="700">1</text><text transform="translate(284.417 714.727)" font-size="86.668" font-family="DejaVu Sans" font-weight="700">2</text><text transform="translate(473.944 312.169)" font-size="86.668" font-family="DejaVu Sans" font-weight="700">3</text></svg>