<svg xmlns="http://www.w3.org/2000/svg" width="798.598" height="995.617" viewBox="0 0 798.598 995.617"><title>Députés sortants de la Vienne en 2017</title><path d="M159.463,344.932l-4.721,3.666-11.255-2.938,1.212,14.364-2.425,1.726-11.219-3.188-0.314,4.572L122,360.444l-5.157,6.868-6.019-1.006-5.164,2.938-4.764,11.019,3.973,8.109,2.09,8.829-2.8,1.184-5.484-.442L87.1,406.817l-2.582,1.6,1.911,8.915-1.619,5.684-11.133,4.443,5.306,10.263L65.611,449.5l9.015-.7,9.293-7.617,17.11,4.386,14.35-1.348,1.99,2.268,5.984-6.982L133.6,427.721l2.817-1.034,13.152,6.868,3.758-4.636,7.524-9.058,3.973-4.543,11.618-1.933,5.877,6.868,1.819,9.208L175,440.174l4.279,21.118,22.438,4,3.537-4.6,3.566,2.5,4.835,2.368,0.135,8.287-3.823,4.008,12.06,2.047,8.68,8.473,6.034,1.212,4.379-.442,4.044,4.358,11.354,3.438,14.692,10.42,3.345,5.1-1.376,5.863,14,6.711,7.011-1.1,2.468-2.311,5.085,3.787,5.5-2.24,2.917,8.344-1.027,4.793,7.368,6.561,9.849,9.029-3.01-11.632,1.947-8.886,11.739-1.448,7.988,8.173,0.157,5.791,5.492,2.076,9.343,3.637-9.472,10.727,1.541,8.651,5.5,9.707,5.52,2.453,12.56,12.8,13.08,7.353,4.907-15.141,2.51,5.435,12.46,7.524,5.435,7.1,14.25,4.151-2.489-10.862,13.986-5.877,9.037-.457,1.676-2.561,1.9-8.944-4.607-7.745,7.011-8.009-2.689-.963-1.762-5.42,6.241-9,7.282-12.3-1.448-2.5L453.819,538l-2.1-2.076,3.48-7.981-1.869-2.354,8.024-3.68,2.111-8.58,14.357-19.1-4.943-16.49-2.824-.571-17.788-2.282-8.858,2.675-2.931-.977-1.84-5.877-2.032-7.018-8.245-10.534-10.748,4.957-15.106-.5L391.812,462l-8.195-18.765-0.385-4.5,10.7-13.872-2.261-8.316-9.942-6.647,3.495-10.292-9.935-10-7.453,4.736-8.637,1.712L348.92,406.63l-8.516-2.839-5.791,1.683-0.885-2.924-5.741-1.64,4.978-26.482-6.112.1-7.467-9.357-0.913-2.938,6.084-14.115-6.6-.435-1.3,9.165-7.589,12.859-8.886,2.161-7.717-5.014-4.607-5.977-0.628-4.907,4.165-3.509L288,348.4l1.134-2.5-14.956-.642-17.474-5.784-9.158-.335-2.739-1.448,0.414-6.184-3.595-8.523-2.96-.685-7.739,4.051-2.525-1.476-4.636-3.566-5.484,1.74-17.153,16.8-8.566,3.052-8.886-1.576-5.67,7.089-11.4,3.73-1.94-2.368Z" transform="translate(-22.437 0.739)" fill="#ff8080" stroke="#000"/><path d="M403.332,671.156l14.007,0.364,5.67-1.962,1.576-8.9,7.139-9.472-2.632-5.085-8.074-3.652-9.878-14.222-0.585-8.109L424.35,620l3.937-9.643-14.25-4.151-5.435-7.1-12.46-7.524-2.51-5.449-4.907,15.141-13.08-7.353-12.56-12.788-5.52-2.468-5.5-9.707-1.548-8.637,9.472-10.741-9.343-3.623-5.492-2.076L345,538.091l-7.988-8.173-11.739,1.448-1.947,8.873,3.01,11.632-17.217-15.577,1.034-4.807-2.924-8.331-5.5,2.24-5.085-3.787-2.468,2.3-7.011,1.1-14-6.711,1.376-5.863-3.381-4.892,0.036-.192L256.5,496.91l-11.354-3.438-4.044-4.358-4.379.442-6.034-1.2-8.68-8.473-12.06-2.047,3.823-4.023-0.135-8.287-4.835-2.354-3.559-2.5-3.545,4.586-22.438-3.987-4.279-21.118,9.143-10.713-1.826-9.222-5.877-6.854L164.806,415.3l-3.973,4.529-7.524,9.065-3.758,4.636L136.4,426.665l-2.817,1.02-10.249,11.8-5.984,6.982-1.99-2.268-14.35,1.348-17.11-4.4-9.293,7.617-9.015.713-0.228.086-3.537,4.807,1.968,2.311-0.542,8.958-14.143,11.2L44.3,484.521l0.592,6.034L67.7,485.527l6.662-9.614,7.46-4.679,3.259,4.386-6.39,20.434,8.045,4.472,11.925-2.646,0.706,17.131,11.347,3.466-7.346,5.42-6.105.335-14.443,11.4L78.7,549.994l10.441,8.915-8.116,18.822,4.508,3.987,11.533-.057,3.117,8.024,5.948,0.442,2.525,1.2,6.554-5.157,2.582,1.034,6.69,5.791,4.087,14.25,2.86,0.892,9.208-7.2-1.056-5.791,5.406-13.665,9.222,17.688,1.954,11.59,4.051-.086,9.436-21.175,14.671,0.392,9.2-7.76,16.6,1.391,6.062,6.077,4.55,10.42-0.549,6.112-20.155,6.447-5.385,10.584-0.214,11.868,8.53,7.325,3.752,2.981-3.545,4.914,4.158,7.874-3.88,14.471,0.984,2.881,3.438,4.957,8.637-1.491,4.287,4.279-7.988,16.44-7.553,4.85-0.442,3.01,2.81,1.141,2.817-.67,7.153,4.907,14.521-9.778,10.548,5.791,2.81-1.127,16.575,6.768,3.894,13.109,2.618-.5,17.51-9.693,5.37,2.254,7.532,8.68,4.607-10.506,15.712-7.089,0.086-1.5L318,706.651l2.026-5.613-5.4-2.019-1.041-5.292,3.488-8.2L329.751,678l14.414,0.92,12.217,0.043,20.405,5.392,8.858-1.448,6.89,5.77,2.289,8.666,2.953-8.494,6.854-5.784Z" transform="translate(-22.437 0.739)" fill="#ff8080" stroke="#000"/><path d="M489.645,952.483l-16.76,4.636-11.847-1.3-4.208,4.023-2.824-1.02-0.991,10.449-7.075,4.472-2.917-7.425-10.149,2.646-6.6-9.6-5.991-.806-8.109,3.916-1.669-8.787-9.992-14.656-10-6.141,2.7-10.976-8.166-2.91-5.449,6.3-8.459-1.8-5.663,16.425-4.394,3.9-2.774-.963-4.778,5.613,3.359,4.707-1.876,2.339,1.041,5.656,11.8-.364,5.335,2.439-0.428,11.9,3.416,4.914-5.791-1.17-3.031,5.071-11.975,8.494-20.056,1.883-6.369-12.274-7.845-3.48-4.9,3.259-17.4-1.462-4.885,1.141-8.373-1.113-5.263,2.282-4.914-2.339-4.971,3.423-9.015,1.405-8.744-1.476-1.548-5.349-7.8-4.065-2.824-5.206-10.42-4.529-7.874-6.048-4.144-3.652L204.4,953.723l-4.023-8.081-1.12-5.7,6.747-5.363,1.847-7.246-2.767-.977,1.262-2.646,9.557-10.741L217.5,901.4l-0.492-2.9-2.9-.321-9.1-.777-6.982,9.307-6-.713-3.052-5-10.171-1.17-4.243-13.487-2.846-.742-2.3-5.42-19.35-5.6,3.466-22.958,2.8-.863,8.052-11.954,2.774,0.963,4.137-4.137-1.954-8.551-1.22-4.179-5.2-19.485,20.134-.236,6.226-9.735-11.739-22.331,1.548-2.525,5.77,1.241,2.725-4.529-2.147-5.6,6.925-9.707-12.838-13.3-11.276-5.378-8.658,2.282-3.259,5.185-10.049,6.854-3.537,4.957,0.849,6.048L132.248,770.35l-18.829-15.32-10.805-5.513-8.644,2.133,4.814-14.264,5.085-3.245-10.648-9.5,12.346-14.471-7-5.206-4.907-9.985-8.58-1.348-5.1,2.867,0.007-6.091-7.417-8.694,4.515-17.595L78.429,643l-5.249-2.981,5.32-13.244-1.255-2.589-3.416-3.374-13.3,4.429-1.918-2.09,0.442-8.723,6.276-5.542-4.287-3.93,0.264-5.82,4.614-7.567-0.114-14.7,15.213,0.877,4.508,3.987,11.533-.057,3.117,8.024,5.948,0.442,2.525,1.2,6.554-5.157,2.582,1.034,6.69,5.791,4.087,14.25,2.86,0.892,9.208-7.2-1.056-5.791,5.406-13.665,9.222,17.688,1.947,11.59,4.058-.086,9.436-21.175,14.671,0.392,9.2-7.76,16.6,1.391,6.055,6.077,4.557,10.42-0.549,6.112-20.142,6.47-5.385,10.584-0.214,11.868,8.53,7.325,3.752,2.981-3.545,4.914,4.158,7.874-3.887,14.471,0.991,2.881,3.438,4.957,8.63-1.491,4.293,4.279-7.988,16.44-7.553,4.85-0.442,3.01,2.8,1.141,2.824-.67,7.153,4.907,14.521-9.778,10.548,5.791,2.81-1.127,16.575,6.768,3.894,13.109,2.618-.5,17.51-9.693,5.37,2.254,7.532,8.68,4.607-10.506,15.719-7.089,0.086-1.5-1.362-2.646,2.026-5.613-5.4-2.019-1.041-5.292,3.488-8.2,12.667-7.524,14.414,0.92L356.388,679l20.405,5.392,8.858-1.448,6.89,5.77,2.289,8.666,2.946-8.494,6.861-5.784-1.305-11.911,14.007,0.35,5.67-1.962,1.576-8.886,7.139-9.472-2.632-5.085-8.074-3.652-9.878-14.222-0.585-8.109,13.794-.114,3.937-9.657L425.8,599.52l13.986-5.877,9.037-.457,1.676-2.561,1.9-8.944-4.607-7.745,7.011-7.995-2.689-.977-1.762-5.42,6.241-9,7.282-12.3-1.448-2.5-8.623,2.282-2.1-2.09,3.48-7.981-1.869-2.354,8.024-3.68,2.111-8.58,14.357-19.1-4.943-16.49-2.824-.571L452.258,474.9l-8.858,2.675-2.931-.977-1.84-5.877-2.032-7-8.245-10.548L417.6,458.125l-15.106-.5-10.7,4.386L383.6,443.247l-0.385-4.486,10.7-13.886-2.261-8.316-9.942-6.647,3.495-10.292-9.935-10-7.453,4.736-8.63,1.712-10.285,10.584-8.516-2.853-5.791,1.683-0.885-2.924-5.734-1.64,4.971-26.482,3.851-7.589,13.751-5.713,11.746,2.282,0.221,10.976,10.135,5.435,5.028,6.783,3.758-4.108,6.091,6.062,5.841,0.335,1.633-2.482-3.559-4.943,0.093-5.806,4.664-7.881,9.357-7.774L405.685,354l2.8-1.17,6.982-3.345,0.813,5.392,7.96-3.288,13.016,5.741,11.526,15.1,3.523,4.807,17.338-3.8,8.794,1.227-11.283,21.7,11.854,21.66,0.128,9.165,12.089,1.056,2.5-1.754,1.205-9.044,8.537,0.834,7.76-4.664,12.16-.35,5.2-6.8,4.443,3.274,7.752-2.047,4.2,3.609,13.9-15.027,1.419,5.948,9.094,12.289,10.983-3.973,9.272,6.8,8.494-2.532,11.518,3.8,1.405-2.717,15.1-.086,5.977-20.269,5.064,2.953-0.457,8.537,8.737,15.2,1.405,5.848-5.449,2.76-9.643,11.326,5.442,1.448-2.354,8.48L639.919,466l-4.857,3.495-7.339,13.152-0.885,2.824,6.633,9.678,6.6,18.558,13.273,1.933-1.262,5.028,3.438,6.94,8.623,2.867,4.151,4.472,11.868-.642,4.993,6.49,14.856-1.633,6.034,15.9-2.6,11.076,27.338-1.854,8.865,2.7,6.041-1.241,8.516,3.666,11.868,9.792,15.413,17.716-7.46,4.778-0.442,2.924,10.213,18.151-1.648,2.282-8.922-.556,9.343,18.123,10.669,3.466,10.277,6.034,0.185,9,5.841-.321,4.793-3.709,5.891,0.67-11.918,20.5,1.212,8.566-10.991,14.115-12.289-4.636-5.164,10.7,0.35,5.962-12.424,7.075,0.77,2.881-1.277,8.858-11.112-4.372-4.879-7.5-14.621,3.359-16.461-3.716-0.92,5.478-13.009,11.518-0.571,17.859-3.067,8.594-6.84,5.834-0.2,8.8-3.516,4.778,1.3,8.944-1.519.67-5.078-2.839-5.313,1.64-8.3-3.452-11.975-.1-10.6-4.914-0.685,8.694-19.97-5.42-7,16.632-17.017,5.905,1.041,2.717-3.416,8.052-5.706,1.113-2.881,8.216,5.057,2.561-2.019,5.556-24.349,1.405-5.484,10.948-2.8,1.284L570.1,853.3l-0.2,7.745,7.967,3.331,4.771,10.7,7.353,4.251-2.824,7.4,1.305,4.051,4.451,1.591-3.5,8.2,2.011,8.9,6.127,6.84-3.473,4.094-4.1,4.572-6.013-.128-9.193-7.189-13.993,5.028-22.623-6.69-11.312,3.174-10.242-3.4-0.271.457-2.846,8.245L500.405,931.7l-5.542,7.175,6.675,13.358Z" transform="translate(-22.437 0.739)" fill="#ffeb00" stroke="#000"/><path d="M424.251,351.558l-7.96,3.288-0.813-5.392L408.5,352.8l-2.8,1.17-0.121,6.019-9.357,7.774-4.664,7.881-0.093,5.806,3.559,4.928-1.633,2.5-5.841-.335-6.091-6.062-3.758,4.108-5.028-6.783-10.135-5.435-0.221-10.976-11.746-2.282-13.751,5.713-3.851,7.589-6.112.114-7.467-9.372-0.906-2.938,6.077-14.1-6.6-.442-1.3,9.165-7.589,12.859-8.886,2.161-7.717-5.014-4.607-5.977-0.628-4.907,4.165-3.509L288,348.383l1.134-2.5-14.956-.642-17.474-5.77-9.158-.35-2.739-1.448,0.414-6.184-3.595-8.523-2.96-.685-7.739,4.051-2.525-1.476-4.636-3.566-5.484,1.74-17.153,16.8-8.566,3.052-8.886-1.576-5.67,7.089-11.4,3.73-1.94-2.368-5.171-4.879-4.721,3.68-11.255-2.953,1.212,14.378-2.425,1.726-11.219-3.2-0.314,4.572-8.744-2.689-5.157,6.883-6.019-1.02-5.164,2.938-4.764,11.019,3.973,8.123-5.406-2.175L83.677,368.168l-6.512,6.127-5.271-10.848-0.307-8.608,2.525-1.476-3.958-7.425,0.956-2.76,9.457-10.848,8.416-7.774-0.121-2.9-6.69-5.335-10.577,4.415L55.1,313.478l2.24-.849-0.178-7.189,5.962-.114,5.478-7.046,9.792-6.4,8.666,2.118,6.854,9.457,1.027-.542,10.4-16.939-6.07.128L91,281.976l-5.114-3.452-5.912-7.018-8.694-3.259-5.941,1.562L63.257,267.5l4.465-3.745L70.8,249.988l8.544-11.739-2.874-12.367-5.014-14.414-5.214-3.259L65.7,201.968l-7.988-9.514-0.863-6.212,7.96-12.2-3.4-8.024-10.07-4.764-8.858,1.591-10.013,6.711-3.609-17.787,0.407-5.57,5.52,1.269,0.756-2.66-4.2-10.584-1.212-6.811-0.7-4.622L22.94,98.859,23.832,81.25l1.576-6.034,7.581-8.1,8.338,1.312L43.773,73.4,58.03,73.611l5.413,5.727,5-14.207-0.606-2.981-5.72-1.9-1.091-2.824,2.946-8.287L64.4,42.964,77.75,17.4,96.38,0l10.684,13.737,6.013-5.613,4.358,1.833,6.783,16.49,2.439,1.812,5.72-2.011,1.847,11.632-2.04,8.494,2.646,5.292,4.707-3.609,8.8,0.949,4.258-7.489,6.013,1.106,6.34,5.841,5.2-2.839-3.966,8.3,0.478,6.141,16.354,7.353,2.261-5.82L195,53.841l3.117,11.811,8.259,9.279-14.307,15.99-0.706,11.561,2.817,1.127,8.523-3.145,8.366,8.694,14.3-8.93,2.04-5.249,5.285-1.591,11.932,2.175,0.407,19.642,2.1,2.133,8.53-2.575,10.114-6.255,5.77,6.019-1.205,8.509,2.411,8.551-5.663,6.155,4.607,18.822,1.555,2.325-6.091,5.891-5.606.378,9.186,10.07-5.078,6.811,4.957,6.519-2.653,7.646,5.192,13.858,6.333,6.283,2.624,1.491,7.838-4.5,5.941-.321,10.035-10.827,14.064,4.308,10.634,6.726L339.95,213l10.884,6.048,3.709-10.277,28.172-12.581,8.437-4.065,4.672,3.595,16.311-3.873,8.73,1.548,8.551,2.5,18.123-.67,2.118-2.19-1.754-14.25-15.227-7.524,0.457-8.445-4.55-8.58,0.471-3.331,5.471,1.491,8.366-1.9,16.939-.7,3.124,4.543L461.9,157l1.269,5.1,8.373,7.5,5.471-2.675,5.506,2.732,2.782,5.513,17.994,3.552,3.1,5.142-0.064,6.169,0.485,2.546,6.177,20.655-1.819,9.122,3.473,7.2-3.131,7.41,0.563,5.756L527.1,260.2l3.716,7.425,4.807,2.853,6.005,9.75,10.256-3.374,0.892,2.774-3.3,4.807,3.052,4.329,11.775-1.155,3.523,4.344-5.4,2.5-0.514,2.938,4.721,7.382,8.081,3.331,1.127,11.733,0.178,1.519,3.295,8.138-1.355,11.8,7.731,4.308,2,8.815,9.357,12.26,8.423,3.416,0.613,3.038,4.686,6.647,7.474,8.388,11.226,2.6,2.732,4.764-5.977,20.284-15.1.071-1.412,2.717L598.2,414.8l-8.487,2.532-9.272-6.8-10.983,3.973-9.094-12.289-1.427-5.948L545.041,411.3l-4.208-3.609-7.752,2.047-4.443-3.274-5.192,6.8-12.16.35-7.76,4.664-8.537-.834-1.205,9.044-2.5,1.754-12.089-1.056-0.135-9.165-11.847-21.66,11.283-21.7-8.794-1.227-17.338,3.8-3.523-4.807-11.526-15.1Z" transform="translate(-22.437 0.739)" fill="#7f7" stroke="#000"/><text transform="translate(184.474 278.8)" font-size="78.056" font-family="DejaVu Sans" font-weight="700">4</text><text transform="translate(221.643 448.802)" font-size="78.056" font-family="DejaVu Sans" font-weight="700">1</text><text transform="translate(207.966 611.114)" font-size="78.056" font-family="DejaVu Sans" font-weight="700">2</text><text transform="translate(397.579 796.956)" font-size="78.056" font-family="DejaVu Sans" font-weight="700">3</text></svg>