<svg xmlns="http://www.w3.org/2000/svg" width="951.213" height="863.568" viewBox="0 0 951.213 863.568"><title>Députés sortants du Lot-et-Garonne en 2017</title><path d="M688.071,642.67l-7.054-1.356L667.2,630.487l4.846-5.011-0.348-10.663-15.847,8.336,0.138,9.646-11.24,7.438-11.285,14.473-9.664,4.69-13.218,2.849-11.121.229,6.119-12.431L600,645.281l-7.31.788-19.5,10.47-21.124,14.153-12.4-13.081h-3.655l-2.977,1.823,0.192,6.889,6.064,7.695-4.727,4.974-14.84,3.435L508.9,678.744l-14.354,5.5-11.423-1.182-9.838-7.731-4.379-5.441-12.293-.843-17.185,8.208-18.312-4.04L416.77,667.6l-2.025-21.545-1.127-4.452-11.231,17.514,4.617,9,0.275,10.626L397.3,683.15l-4.141,5.936,0.944,3.563-8.336,5.89L375.741,696.4l-2.913.339-5.1-7.173-11.588,14.455-25.86-1.374-9.481-6.8-10.168,4.543-10.544,10.626-7.429-.861-8.885,12.128,19.136,21.609,13.429,3.49-22.892,13.026,0.275,3.792,6.293,9.289,14.428,3.848,7.246,13.347L303,789.968l-3.38,10.305-13.942,4.882-26.217-1.612-3.023,5.67,3.738,9.875-9.994,5.4-17.963,19.649,2.61,7.08-13.017,17.624-8.748,36.019-5.011,5.369-7.447.962,1.567,7.356,0.568,18.3,10.186,19.521,24.4-2.419,15.582-14.3-0.439-3.627L263.492,945l-1.851,18.449,10.47,3.664,7-1.255,3.325-6.586,0.568-15,11.624-9.087,6.889-13.328,2.858,1.411,6.458-.586,10.113-9.252,3.105,1.786,5.643,1.521,5.295-2.876,0.174,14.079,13.741,5.542,14.244,0.192,3.619,6.514,6.916,0.074,16.012,7.319,1.942-2.987,9.747-3.527L399.395,927.3l7.209,2.364,25.127-8.245,12.3,7.622,7.429,0.146L460.439,917,463.682,915l7.52-.751,8.739-6.761,18.312-.522,6.119-16.91,0.284-1.466,7.072-10.47,17.194,2.107,2.986-5.688,12.4,2.345,2.428,6.33,5.341-13.063,20.9,10.589,15.829-5.725,6.4-2.574,7.466-15.526,6.659-1.9,5.9-2.794,6.659,1.355-1.484,3.307,20.711,14.226,4.461,13.347,16.012,7.154,1.749,10.773,6.3,9.069,13.255-5.148,2.482-13.951,9.179-3.133,10.416-14.281,7.191,0.751,19.255-8.226-2.317-10.323,6.815-12.788,0.266-7.338,4.965-12.486,16.085-13.1,5.359,4.3,12.98,3.059-4.223-9.051,3.426-12.952-7.658-13.42,6.879-2.592,18.632,2.454,27.188,13.292,1.869,3.326,8.785,1.145,8.574-5.725,0.275-6.98,2.812-2.1,6.247,3.059,1.026-6.641-3.939-5.835-2.437-13.53,3.563-6.082,0.183-3.682-6.064-3.994-9.325,5.386-4.946-4.956-8.006-1.328L818.48,738.3l4.69-9.215-44.034.192-0.788-10.828,6.952-8.592-3.747-4.937-5.011,2.455-10.433.467-8.849-11.9,1.383-10.5-0.614-2.382-6.8.467-9.811,8.858-7.942-6.513-3.755-5.221-10.479.211-7.209-6.44,0.138-6.476,0.128-6.925,6.3-4.113,0.192-10.268-7.466-11.789-6.256,2.913-9.747-2.437Z" transform="translate(-42.942 -104.581)" fill="#ff8080" stroke="#000" stroke-width="2"/><path d="M131.269,547.064l-5.734-.715-17.972.953-7.988,7.438-7.236-.6-5.4,17.514,6.22,5.386,16,14.775,17.441,24.33-6.293,3.829,7.228,20.858L112.143,649.8l-10.479,20.794-4.91-5.139L84.781,679.477l-12.733,7.154L62.035,682.61l-4.287-5.5-2.125,6.815-11.505,8.638,8.592,25.851,0.385,54.514L64.326,774l6.367-3.829,14.647-1.127,21.719,5.579,43.668,0.981,0.192,0.037,22.644,12.522,7.063,8.354,78.807,7,26.226,1.612,13.942-4.882,3.38-10.305,18.678,0.715-7.246-13.347-14.418-3.848-6.293-9.289-0.284-3.792,22.892-13.026-13.42-3.49-19.136-21.609,8.876-12.128,7.438,0.861L310.6,700.364l10.177-4.543,9.481,6.8,25.86,1.374,11.588-14.455,5.093,7.173,2.922-.339,10.021,2.144,8.336-5.89-0.944-3.563,4.141-5.936,9.985-4.415-0.275-10.626-4.617-9L413.6,641.575l1.127,4.452,2.015,21.545,4.36,5.615,18.312,4.04,17.185-8.208,12.293,0.843,4.369,5.441,9.847,7.731,11.423,1.182,14.354-5.5L519.7,682.4l14.84-3.435,4.718-4.974-6.055-7.695-0.192-6.889,2.977-1.823-4.91-8.07,2.849-1.145-0.495-10.947-11.542-7.457,2.309-6.852-8.1-12.293,5.359-8.968-16.4-8.5-4.324-8.895-0.119-9.664,13.493-4.095L513.7,552.38l-3.627-26.446,13.722,3.755,5.826-4.543,8.024-16.818,9.582,11.359,10.406,4.15-3.252-6.76,2.693-18.907-2.95-13.933-10.8-.98-9.453-4.9-2.537-13.814,4.214-7.063,4.122-13.933,4.827-5.514-1.4-6.76-3.481-1.127-3.059-5.936,5.212-4.919-10.149-11.038-14.547-2.877-5.2,5.295L502.74,400.08l-6.9-3.023-4.773,7.869-5.963-4.131-6.879,1.722-8.318-6.623-7.429-6.76-3.673-9.234,6.935-11.414,12.229-5.121,11.615-9.16-2.519-28.516,6.156-.934,9.2,19.988,3.554,0.934,13.2-6.33,15.7-15.636,20.592,6.98,6.77-13.026,15.619-6.678,6.238-7.887,6.266-1.841,5.011-12.073L595.123,289l-21.1-7.338-6.916,1.63-21.453-4.745,4.287-16.965L548.6,251.051l-5.606-4.04,12.183-3.664-2.849-8.95-3.948-18.486-8.7-6.925-5.918,3.188-13.63-2.931L505.7,224.559l-27.289,11.359L458.1,225.8l-11.121.559-7.823-8.034-8.592,6.944-4.617-6.44,0.706-15.426,7.035-17.945-14.061-12.092,1.567-7.429,3.408-1.374L422.4,150.277l-6.513-13.328L392.791,112.28l-7.539-4.6-0.577,3.435-19.374,6.55-14.043,3.059-6.659-2.775-7.127-12.366-7.273.037-1.273,3.417-5.185,5.276-5.02,18.266,5.267,14.189-13.3,4.6-5.661-22.095-3.829-6.55-3.755-.522-3.2,3.866-6.018,11.954-2.986-1.7-5.844,2.931-6.806,2.894-8.895-7.338-4.012,28.818-4.031,6.174-5.148-5.423-7.117-1.328-6.568,3.49-1.283,7.374-3.646.934,5.212,17.029,6.623,3.454,14.693-.165-2.556,9.572,1.9,6.247,6.641,2.437,16.379-5.1,3.508,2.217,7.117,1.749,4.662,5.918-4.5,7.695-6.714,8.977-2.437,14.51-11.313-.879-7.392-8.373-2.775,5.744,1.273,9.747L273.964,269l-2.73,6.852L257.421,278.6,245.2,291.64l-0.614.357-4.946,4.186L217.8,302.907l2.565,6.87-2.006,10.571L207.241,341.92l-24.1-6.476-4.076,3.884-8.968,9.985-17.13-11.267L167.1,361.589l-5.972,9.032-3.619-.11-3.747,3.1-12.119,15.747-0.366,16.48,3.38,32.565,6.944-.962,7.017,7.438-1.108,9.719-6.028,2.666-3.6,9.555,1.988,10.287-5.276,4.4,14.327,25.063,9.307,8.73-6.082,8.574,8.208,6.568-5.1,9.609L148.744,534l-7.117,2.345Z" transform="translate(-42.942 -104.581)" fill="#ff8080" stroke="#000" stroke-width="2"/><path d="M850.668,616.16l-8.776-11.954-11.175-1.722,3.957-9.142-0.962-6.44,7.823-5.221,9.967-19.429L848.3,558.24l1.044-6.705-4.7-9.344,5.148-9.234,3.627-8.822,9.536-1.9,7.017-1.594,2.95,6.98,10.617,10.251,3.1,26.354,0.879-.018,1.337-10.681,4.764-5.835,25.594,0.092,10.6-10.5,17.157,6.229,7.384-.9,14.547,1.686,10.388-3.646,0.339-11.02,2.656-2.519-3.508-13.53-6.55-1.484,8.2-10.5-3.261-28.068L969.13,469.9l-1.7-3.252-10.773,1,0.055-7.017L949.27,452.9l-0.55-10.5,3.151-10.251-1.576-10.7-10.882-5.029,4.379-10.644,1.3-15.17-27.078-44.492,9.06-5.423,10.443,1.951,5.139,12.541,15.682-19.878,6.367-3.508,0.641-.431,1.686-3.325,20.657-7.264,3.243-10.608,2.171-10.882-5.295-9.765-11.047-1.612-7.887-7.924-10.443-3.738-16.269-8.162L929.256,249.5l-14.51-11.13-8.281,7.438-17.487-4.562-13.3,5.6L866.7,258.029l-6.3,3.454-9.279,6.495-15,2.144L831.183,288.3l-9.555-.861-17.588-4.47,2.171-13.924-6.733,2.253-3.307-9.142-6.256-6.33,14.519-10.809-0.458-17.963,6.229-3.27,1.172-10.47,6.137-3.435-13.227-1.576-7.475-5.991,4.076-7.961-1.924-7.228-8.382-7.548-14.309-4.507-8.592,6.082-1.09,10.91-6.55,1.053-12.027-6.174-2.409,10.535-10.846-1.594-13.227,6.3-25.759-1.09-8.373,1.576-21.692-2.5L664.3,186.9l-5.872-13.365-13.814-4.809-6.714,7.85,1.411,6.76-2.748,2.107-8.922-4.883-13.374-1.31-3.032-1.933-8.592,6.174L595.406,207.1l-3.664-.879-12.385,7.832-3.71-.641L569.9,203.7l-9.93-4.369-7.658.9-12.623,8.711,8.7,6.925,3.957,18.486,2.849,8.95-12.183,3.664,5.606,4.058,1.337,10.535-4.278,16.965,21.444,4.727,6.916-1.612,21.106,7.319,0.238,0.192-5,12.055-6.266,1.86-6.247,7.869-15.619,6.678-6.76,13.026-20.592-6.98-15.7,15.636L506,345.636l-3.554-.953-9.2-19.969-6.156.916,2.519,28.534L478,363.324l-12.229,5.1-6.944,11.432,3.682,9.234,7.42,6.76,8.318,6.6,6.879-1.722,5.972,4.15,4.764-7.869,6.9,3,9.123,10.589,5.212-5.276,14.547,2.877,10.149,11.038-5.212,4.9,3.059,5.954,3.481,1.108,1.4,6.779-4.827,5.514-4.131,13.933-4.214,7.063,2.547,13.8,9.453,4.9,10.8,1,2.95,13.933L554.4,517.034l3.243,6.742-10.4-4.15-9.582-11.34-8.024,16.8-5.826,4.562L510.1,525.874l3.627,26.464,0.412,18.321-13.484,4.076,0.11,9.664,4.333,8.913,16.4,8.483-5.359,8.968,8.1,12.311-2.309,6.833,11.542,7.475,0.495,10.947-2.849,1.145,4.91,8.07h3.646l12.4,13.081,21.124-14.153,19.493-10.489L600,645.2l5.579,4.764-6.119,12.449,11.121-.229,13.218-2.849,9.664-4.69,11.277-14.491,11.249-7.438-0.146-9.646,15.847-8.336,0.357,10.663-4.855,5.011,13.823,10.828,7.063,1.356,7.173-7.264,9.737,2.455,6.266-2.913,7.457,11.789-0.183,10.268-6.3,4.113-0.128,6.925-0.128,6.476,7.2,6.44,10.479-.211,3.765,5.221,7.942,6.513,9.8-8.858,6.8-.485,0.623,2.4-1.392,10.5,8.849,11.881,10.443-.449,5.011-2.455,3.738,4.937-6.952,8.592,0.788,10.828,44.034-.192,1.008-.266,32.794,3.188,20.354-43.677-7.9-8.711,10.672-14.1-3.911-17.57,10.168,3.454,7.75-11.789-20.2-14.4-1.035-3.545L867.267,610.1Z" transform="translate(-42.942 -104.581)" fill="#06c" stroke="#000" stroke-width="2"/><text transform="translate(444.996 700.55)" font-size="100.253" font-family="DejaVu Sans" font-weight="700">1</text><text transform="translate(256.423 403.559)" font-size="100.253" font-family="DejaVu Sans" font-weight="700">2</text><text transform="translate(651.468 373.534)" font-size="100.253" font-family="DejaVu Sans" font-weight="700">3</text></svg>