<svg xmlns="http://www.w3.org/2000/svg" width="883.054" height="956.041" viewBox="0 0 883.054 956.041"><title>Députés sortants de la Haute-Vienne en 2017</title><path d="M542.327,408.831L541.695,399l-6.429-2.043-13.976,8.585L517.374,411l-9.728.843-4.694,4.8-7.474,10.466-2.3,9.866,7.961,9.866,0.105,3.373-6.583,7.677L492.048,460l-12.436-4.5-10.977,7.312-25.5,1.127,0.17,6.583-7.953,10.466,1.013,6.542,9.4,0.333,11.269-6.047,3.162,5.666,0.34,9.72-3.632,9.6,4.483,16.043-4.451,5.115,0.486,6.729-4.434,9.25-0.041,13.336-6.526,7.994-3.048,3.575,2,3.907,5.853-1.711,3.421,1.095-2.432,5.318-4.353,2.789-5.091,9.007,5.821,4.418,3.138,2.173,10.409,2.456L462,601.175l2.237,1.929-0.13,4.572,2.626,2.724,8.61,10.369-1.565,4.637-2.87,1.6-8.131-4-0.308,6.6,11.106,6.745,16.011,3.437,8.593-5.083,9.793,1.929,7.734-6.38,9.98,0.681,1.443-6.3-6.583-7.41,11.406-6.064,3.048,1.394L533.23,625.8l4.523,4.572,12.85-10.15,8.261,5.27-6.267,7.045,1.718,6.315,3.3,0.033,5.78-3.227,3.218,1.111,14.025,14.6,12.93,3.77,4.483,5.132,15.606-5.529,2.927,1.759,3.064,9.169,8.674,3.77,11.585-2.059-0.162,9.007-4.159,7.677-8.715,4.921-1.378,16.432-4.994,4.6-0.77,10.052-9.615,8.934,3.972,8.626L610.5,750.763l6.526,12.112-1.159,10.352,6.559-.762,4.872,6.875,5.586-3.47,13.011-1.857,7.523,5.683,8.909,3.259,1.873,9.971-2.2,6.242,9.161,13.571L670.1,822.776l6.729,7.442-0.9,6.712,5.472,7.937,5.172-4.353,17.073,0.746,16.643-11.666,6.615-6.283,0.64-9.283,3.373-5.253L752.65,787.13l9.947-7.572,9.274,2.44,17.941-6.745,2.245-9.631,7.118,0.867,0.867-3.138,6.445-.568,1.775-2.724L814.35,738.8l6.193,2.359,3.689,5.3,9.169-4.086,6.858,7.012,2.084,6.777,12.841,1.646,6.186-7.11,14.333,5.845,2.894-1.694,2.01-13.32,13.271,1.248,5.675-3.1-1.492-9.85-5.918-3.089,0.033-3.373-8.731-10.117-3.364-.535-0.268-3.308,8.05-5.764-5.4-8.172-6.331,1.864-1.362-3.024,8.934-17.243-8.431-10.231,5.278-3.972,9.988-.5,4-9.355-6.339,1.159-6.3-26.015-15.573-12.241-3.373.162-0.568-3.291-8.545-3.672-6.08-11.333-3.551,5.666-0.162,6.858-3.1,1.524-6.072-3.121-13.125-15.614-12.874-3.04-3.1-9.534,4.378-9.234L803.988,555.3l-9.5,2.189-0.81,10.385L782.57,572.1l-6.923,7.807-10.231,2.278L751.675,579.6l-12.412,6.1-6.567-.965-5.132,4.767-4.889-11.7-16.781-1.946L687.93,566.1l3.162-8.934-2.262-12.663-8.723-3.754,7.6-6.542,6.761-.616,4.427,3.437,2.781-9.339,7,6.21,6.193-2.359,0.057-3.786-10.733-19.3,7.677-10.182-6.283-.462-1.557-6.129-5.5,2.546-8.853-2.992-16.343,2.327-2.691,12.76-2.708,1.994L655.958,505l-6.007,2.31-10.223-12.922L626.895,493.2l-3.348-9.153L629.74,483l0.494-9.055,12.241-3.551,13.79-9.882,6.761,0.365,5.91-11.99,1.718-2.245-2.489-8.091L664.51,428l-2.87-.6-18.143.113-8.828-3.259-6.907,6.891-6.615-.843-0.251,6.242-7.393,5.229-2.035,5.683-5.213-8.2-3.032-1.548-5.958,2.87-2.8-1.962L580.126,420.96l-13.044,2.959-11.811-5.764-6.583-1.459Z" transform="translate(-17.046 -24.597)" fill="#ff8080" stroke="#000"/><path d="M383.992,606.785l5.383-2.611,7.166-9.5,2.2-9.971-19.611-26.2,3.665-9.42-9.218-4.3L370.64,547.5l-1.005,3.2-6.583,1.216-7.588,5.91-12.622-10.814-12.979-2.854-4.815-4.434-22.991-3.972,0.429-10.417-3.048-6.21,7.232-6.964,16.173-3.559,1.986-9.882-5.043-8.375,0.721-9.963-7.872-10.28-11.049-6.283-5.788,7.888-5.861-3.373-7.5-6.615,2.594-9.8-2.489-2.31-11.787,5.132-2.87,1.711-3.835-5.383-6.631-.746L232.4,434.807l-4.669-2.075-0.024,15.679,5.991,2.724-1.265,12.971-10.2,7.613-2.165,2.529,2.1,2.578-2.829,1.775-1.062,7.945-10.126.13-14.965,13.854-16.173,3.989-9.1-4.224-6.826.632-11.066-8.074-6.769.284-2.132,9.436,4.8,4.4-1.686,20.219,9.542,14L140.1,553.8l9.29,3.024-17.219,36.667-9.566,9.372,0.349,12.841-3.713,5.3,4.516,8.472-3.1,5.367-6.25-.429-5.651-8.358-6.623-.17-6.745-7.191L78.93,617.519l-5.642,3.324L71.2,644.531l5,8.917-2.132,6.283-11.236.73L42.749,674.2l-0.657,8.674-8.561.033-3.616,8.626,1.929,2.578-3.373,8.974-2.74,1.662-5.561-3.21L17.593,707.4l5.545,12.412,8.617,4.337,2.27,6.461,5.853,3.519,13.246,0.033,8.756-3.5,5.57,3.073L75,727.822l6.226-.746,15.217,6.25,11.269,17.065,9.29,3.1,1.167,0.065-7.937,35.816-9.315,14.333,11.609,12.306,6.712,12.031,16.684-3.7L139,825.291l3.883,18.792,19.635-5.334,6.526-11.779,7.053-19.635,6.656-10.182,5.237,3.624,2.935,9.12,8.61,9.4,3.34,0.632,4.013-5.513,9.785,0.649,18.978-7.11,9.5,3.534,6.729-1.013,4.126,5.416,5.35,0.851,4.224-3.672,4.3-5.27L289,813.2l9.98,17.721-2.327,9.436,2.254,10.02,6.737,11.463,9.388,3.47,0.211-.568,8.61,9.12,7.2,13.952,0.956-3.243,12.622-4.272,3.7-5.5,6.607-1.265,8.991,4.556,22.74,14.681-0.705,3.373-11.585,7.377L365.418,913.9l-3.843,9.6-7.247,7.142,0.827,9.947,11.034,6.51,18.459-7.045,8.9,9.372,1.167,9.915,5.577,3.551,18.605-7.142,15.038,7.239,0.17,13.32,2.213,2.562,3.17,1.2,7.653-6.494,1.605-6.032,5.416-3.47,0.365-13.174,3.64-8.917,6.68-.714,5.213-3.591-0.754-9.355L513.935,951.3l15.119-24.766,12.112-3.989,1.281-10.96,3-1.362,9.039-17.373,5.788-3.2,6.388-.187,8.917,9.218,9.055-14.39,0.5-16.895,13.587-1.184,5.026-12.323,8.131,5,0.17,11.293,13-2.708,3.883-5.318,0.284-6.615,20.283,9.655,8.245,3.454,8.569-4.256,9.428-.778,5.529-18.654-5.48-7.937,0.908-6.712-6.737-7.442,1.054-10.036-9.161-13.571,2.213-6.25-1.881-9.963-8.9-3.259-7.523-5.683-13.011,1.857-5.586,3.47-4.872-6.875-6.559.762,1.159-10.352-6.526-12.128,3.583-13.109-3.964-8.626,9.615-8.934,0.762-10.052,5-4.6,1.37-16.432,8.723-4.921,4.151-7.693,0.17-8.991L628.2,669.534l-8.674-3.77-3.064-9.169-2.927-1.759-15.606,5.529-4.483-5.148-12.939-3.77-14.017-14.584-3.227-1.111-5.78,3.227-3.3-.033-1.718-6.315,6.275-7.045-8.261-5.27-12.85,10.15-4.523-4.572,1.767-13.271-3.048-1.378-11.4,6.064,6.583,7.41-1.443,6.3-9.988-.681-7.734,6.38-9.793-1.929-8.585,5.083-16.011-3.437-11.106-6.745,0.308-6.615,8.131,4.021,2.87-1.613,1.572-4.621L464,607.767l0.13-4.572-2.245-1.929,0.138-2.878-10.409-2.456-8.95-6.583-3.77.146,1.508,3.64-0.17,3.754-2.245,4.151-4.264,2.724,0.235,3.64-3.875,2.546,7.807,6.113-14.163,17.721-10.79,7.11-9.039-.568-11.18-5.967-6.5-.146Z" transform="translate(-17.046 -24.597)" fill="#ff8080" stroke="#000"/><path d="M583.81,273.309l12.914,3.056L604.766,287l9.566-1.33L613.44,292.4l5.391,3.891,1.857,6.3-7.831,5.5-3.445,9.453,7.912,5.683,0.5,6.712,4.921,6.4,3.21-4.288,9.25,4.434,0.105,7.012,10.425,6.331L640.1,366.384l2.546,5.934-0.827,2.262,1.735,6.7,6.68,7.872-7.613,11.43-2.278,17.1,3.138,9.882-8.828-3.243-6.915,6.891-6.607-.851-0.259,6.25-7.393,5.213-2.035,5.7-5.2-8.2-3.032-1.565-5.967,2.878-2.789-1.962L580.1,421.007l-13.036,2.943L555.25,418.2l-6.591-1.459-6.3-7.937-0.632-9.834-6.429-2.059-13.984,8.6-3.907,5.464-9.736.843-4.694,4.8L495.5,427.087l-2.3,9.866,7.969,9.866,0.1,3.373-6.583,7.677-2.611,2.108-12.436-4.5-10.977,7.312-25.5,1.127,0.17,6.583-7.953,10.466,1.013,6.542,9.4,0.333,11.269-6.047,3.162,5.651,0.34,9.736-3.624,9.6,4.475,16.043-4.451,5.115,0.486,6.729-4.434,9.234-0.041,13.344-6.518,7.994-3.048,3.575,2,3.907,5.845-1.711,3.421,1.095-2.432,5.318-4.353,2.789-2.116,3.689-2.975,5.318-3.77.146,1.5,3.64-0.17,3.754-2.254,4.151-4.264,2.724,0.235,3.64-3.867,2.546,7.807,6.113-14.163,17.706-10.79,7.11-9.047-.551-11.171-5.967-6.5-.146-2.278-27.312,5.383-2.611,7.166-9.5,2.2-9.971-19.618-26.2,3.665-9.42-9.218-4.3-2.935,2.724-1.005,3.21-6.583,1.2-7.588,5.918L342.9,546.98l-12.971-2.837-4.823-4.434-22.991-3.989,0.438-10.417-3.048-6.193,7.223-6.98,16.173-3.551,1.994-9.882-5.05-8.375,0.721-9.971L312.7,470.087l-11.058-6.3-5.788,7.9-5.861-3.389-7.5-6.6,2.594-9.817-2.481-2.294-11.787,5.115-2.878,1.711-3.835-5.383-6.631-.746L232.46,434.773l-4.669-2.059-11.155-6.348,4.159-11.528-10.028-7.264-10.96-5.115-0.6-5.707-4.832-3.243L180.81,408.645l-3.429-.414-3.64-12.728-7.6-6.729-18.824-11.309-0.867-9.615,6.526-7.458L148.2,348.151l5.48-8.585,0.008-2.23,3.534-5.586,0.041-10.369-5.407-8.9-8.318-6.161-0.34-3.47,7.953-5.586,6.834,0.146,4.662-5.2,3.94-4.653-6.955-7.774-2.286-10.117,3.981-9.323-5.059-1.808-1.492-4.6,3.21-8.407-8.358-4.832-5.424-12.16-9.063-3.786,0.235-8.8-4-3.7,3.186-1.459,6.234-12.46,27.677-1.581,2.294-6.315-5.748-2.91,3.267-9.339,6.494-1.265,3.883-9.153-1.184-3.089,19.343-6.712,7.945-18.9,22.707,6.161,0.778-9.882,12.047,5.586,13.612,0.113,9.436,3.907,6.04-1.857,5.772,3.227,1.727-.762L275.4,135.379l3.989-5.431,0.235-10.02,7.774-6.615,3.478-9.769,0.649-20.3,14.8-13.092,1.046-6.226,18.71,4.224L342.7,64.33l5.545,8.521,12.63,4.969,1.451-10.069-0.884-3.275,14.13-8.042-0.4-6.777,5.861-12.16,13.976,5.27,4.9,6.923,5.853-.381,7.961-9.753,5.853-.827L419.834,52.3l3.21,6.145,13.919,2.075,8.61-10.547,6.583-1.962,13.328,2.213,2.391,4.272,18.946-2.173,0.373-6.648,7.442-5.529L488.3,33.005l22.075-7.888,7.969,1.792,4.345,4.183,9.671,12.29,5.27,8.326,5.3,3.924,3.186-.843-0.981,3.243,8.172,6,5.642,15.387L555.162,84.7l11.317,6.664,9.753-.13,3.77,4.7-4.9,7.693,2.578,19.472L566,128.455l-5.594,18.411,9.29,2.01,4.135,5.067-8.488,5.164-6.453-1.857-5.934,8.22,0.843,6.461,8.107,5.7-0.956,6.583-15.509,3.21-11.382,19.4-3.113,1.232,8.39,18.492,5.594,3.656,2.529,9.971,5.691,2.675L561.3,248.3l9.817-1.411,5.164,3.121,8.447-5.115,5.748,3.519-1.419,6.193,4.272,8.885Z" transform="translate(-17.046 -24.597)" fill="#ff8080" stroke="#000"/><text transform="translate(339.128 381.331)" font-size="88.723" font-family="DejaVu Sans" font-weight="700">3</text><text transform="translate(294.065 727.773)" font-size="88.723" font-family="DejaVu Sans" font-weight="700">2</text><text transform="translate(522.212 532.02)" font-size="88.723" font-family="DejaVu Sans" font-weight="700">1</text></svg>