<svg xmlns="http://www.w3.org/2000/svg" width="930.125" height="576.101" viewBox="0 0 930.125 576.101"><title>Députés sortants des Pyrénées-Atlantiques en 2017</title><path d="M685.186,578.408l9.176,16.142,9.392-3.038,8,7.332,4.252,1.405-0.865-4.21,3.393-2.51-0.63-2.054-0.877-4.131,5.867-5.993,7.6,3.693,3.561,5.735,7.837,4.047,3.627,2.126,10.413-1.1v3.975l3.273,2.192-0.66,21.372-1,12,7.633,9.128,8.2-3.038,6.113,0.108,3.165-2.672,3.825,6.438,9.1-12.641-2.024-8-5.351-3.861-4.606-7.38-1.069-.858-2.78-4.047,0.006-2.816-11.068-4.6-1.135-2.066,1.838-1.49-1.231-5.537,4.552-1.921-0.072-3.087-5.933-1.315,2.186-6.966,1.946-4.035-2.09-.433-0.481-4.468,10.209,3.717,3.237-5.957-3.585-8.726,2.528-3.951-3.135-3.555-3.9,2.546-9.062,1.135,0.841,4.173-6.684-.126-0.048-5.663-2.168.012-6.419-3.261,5.639-10.635,0.582-13.77,11.866-1.417,3.6-3.2L768.5,510.015l-4.564-5.044-2.276.282-4.594.4-5.6-4.107-8.69-2.66-2.666,5.909-7.633,3.838-4.348-3.5,4.63-5.117-0.823-4.432,3.351-6.216,4.078-5.609,2.15,0.937,3.5-2.709-18.364-9.158-3.921,4.822-4.2-.625,2.306,6.077-4.228,8.353,0.552,16.712,0.829,5.639L705.8,521.022l-4.336-2.006-0.691,1.784-5.4,1.129-2.486,3.4,2.75,3.027-1.915,6.462-7.32,4.4-0.372,6.143-2.919,3.063,6.66,5.561L686,563.36l-4.852,6.359,4.42,4.714Z" transform="translate(-38.86 -381.291)" fill="#ff8080" stroke="#000" stroke-width="3"/><path d="M894.033,576.577l0.126-7.284,3.1-3.789,10.827,2.78-1.513-17.9-6.678.54-2.018-8.539-1.225-2.954-4.546-10.052-16.322,8.293-4.492-1-0.9-9.206-4.63-1.525-3.567-6.581-5.651-4.858,0.757,9.242-6.131,3.14-7.3-5.441-5.441-8.635-1.844-7.657-1.922-6.966L821.881,503.4l-3.1,3.333-5.879-.762-6.335,3.087-11.482-8.972-8.089,3.567-2.03,6.744,2.978,6.63-0.522,4.714,3.117,3.074-0.366,7.122-7.386-.493-3.855-2.756L778.4,522.2l-6.642-1.033-3.6,3.2L756.3,525.786l-0.589,13.77-5.633,10.635,6.419,3.261,2.168-.012,0.048,5.663,6.684,0.126-0.841-4.173,9.062-1.135,3.891-2.558,3.141,3.567-2.528,3.951,3.585,8.714-3.237,5.969-10.209-3.717,0.481,4.468,2.09,0.433-1.946,4.035-2.186,6.966,5.933,1.315,0.072,3.074-4.552,1.934,1.231,5.525-1.838,1.49,1.135,2.077,11.068,4.6-0.006,2.816,2.774,4.047,1.075,0.858,4.606,7.38,5.351,3.849,2.024,8.011-9.1,12.641-6.1,10.413,0.252,2.426,5.813,3.873-0.456,2.09,3.765,1.958,0.054,3.375-7.068-2.114-4.432,1.676-1.892,9.6-4.792,5.417,2.714,4.384L785.8,700.026l-0.829,6.768,5.3,10.112-5.158,4.432,5.435,4.2,6.221,1.609-1.711,6.378,4.06,2.114-0.433,4.9,3.969,2.828,1.141,4.666-5.669,13.181-0.18,2.45,0.426,2.414,1.513,1.934,8.1,5.513,8.936-2.264,2.756,3.951,12.311-.576,6.353,3.777,12.232-6.876,4.726-5.392,4.672-.9-8.557-7.614,0.132-4.8,5.453-10.707-0.853-4.7-4.36-5.326,2.876-3.309-0.973-7.212,8.731,2.841,5.134-7.344,10.383-4.7,3.939-14.641,1.928-1.819,4.33-4.678,0.529-6.312,4.63-8.317,2.306,0.643,4.954,7.915,5.495-6.906,11.932-.138-3.123-31.677,2-1.159,4.234,1.772,6.323,2.907,1.345-4.468,0.925-7.05,9.818-13.71,3.669-11.235-0.042-2.414-3.777-2.978,1.027-2.192-8.7-2.438-1.525-4.233-0.192-9.254,5.164-4.654,3.351-9.83,1.195-4.233,11.362-1.537,5.921,4.011,2.174-1.009,5.837-7.789,0.691-1.129,1.6-4.48-11.9-11.53-0.3-6.155-2.18,1-2.624-3.741,3.038-6.5L952,530.682l1.97-3.8-3.549-.372,1.994-2.018-1.741-1.279,6.87-16.971-7.374-6.618,1.171-9.464-7.164.8-4.228,9.783-3.681-2.546-3.123,10.389-2.468,6.089-12.4-.138-1.093-.822-8.6,15.626-0.919,2.756-2.576,8.107,5.729,2.876,1.579,3.273,0.5,0.048,6.8,8.047,0.721,4.282-1.081,4.552-1.453,8.959-0.739,6.372-0.1,4.69-2.75,3.753-0.4.15-10.521-4.282-3.9.162-2.942-.012-1.153,2.954,1.525-.27,10.137,5.561-2.816,11.764,5.134,4.961,2.612,3.891-0.763,7-4.522,5.375-2.192-.877-4.876,4.4L900,632.146l-0.937-.072-6.882,1.081L889.27,629.7l-8.413-17.769,1.705-6.876-0.054-3,3.879-2.8,3.843-8.185,2.246-4.15,2.876-.877,1.153-2.942-0.9-2.264Z" transform="translate(-38.86 -381.291)" fill="#ff8080" stroke="#000" stroke-width="3"/><path d="M665.9,414.426l-2.72-3.879-16.832,13.77-7.314.655-0.27-4.924L630.389,416l-1.261-2.57-4.63.691-7.687-4.666,8.605-10.617-10.383,4.258L601,411.412l-5.927-3.591-3.633,2.942-0.306,11.668-6.63-.06-3.747-2.66-2.834-7.446-18.484-16.49-6.131,2.606,0.282,6.768-6.335,1.351-4.69,5.465-8.978-3.519-10.9,4.972-0.258,7.542-6.582,1.069-4.216-1.6-3.837-.9-11.344-3.387-9.344,1.363-3.663,3.014-2.306,6.648-2.2.871-3.9-2.7-4.174.036-2.955,3.459-6.4-2.1-13.283-3.5-6.618,2.276,5.741,3.777,0.384,9.362-2.366,6.522,0.708,3.531-13.079-1.363-2.9,2.991-1.645-1.627-2.937-3.693-6.846-1.609L406.973,445.6l2.882,9.632,3.441,6.99-3.585,11.59,1.946,6.894,9.6,6.425,1.97,14.659,3.357,6.389,6.63-2.438L439.5,502.5l5.747-4.654-0.955-1.844,3.627-7.236,2.18,0.937,4.131-2.336,9.332,1.3,10.347,4.455,5.158-.2,2.75,3.153,6.173,0.787,4.69,3.964,1.976-.517,9.542-1.267,3.219-6.113,8.245-4.084-2-6.389,2.522-3.873,1.273-3.038,4.708,8.341,5.32,4.588-1.585,11.4,1.784,4.42,3.993,4.786,8.047,4.9,7.044-.553,5.11,4.75,7.1,0.258,10.773,4.69,3.693,4.42L579.83,539.6l8.227,2.732-3.681,2.684-4.4.246,1.915,3.873-3.621,5.711,5.381,6.143,3.519-3.038,2.162,0.9,2.894,7.951,2.216-.1,0.793,4.366,8.107-3.435L605.713,579l4.03,5.7-1.814,6.828L605.8,592.6l-2.2,3.951-6.756.858,5.327,4.455-0.57,6.594,9.338-.888,9.422,7.014,0.192,4.69,3.315,3.387-0.408,7.086-0.192.7,4.57,0.8,1.315-1.958,2.793,6.125L635.222,633l2.018-6.041,5.777-9.7,2.1-8.7,4.138-5.537,1.934,1.561,8.87,12-2.75,5.339,6.534,7.471,0.985,7.41,3.975,4.035-0.276,1.994-8.341,10.041,10.383,5.315,2.066-4.81,6.119,2.522,4.216,8,11.1,9.44,15.685,2.054,3.987,5.537-0.2,4.047,8.7,3.519,11.56,1.712,6.8-6.5,2.378-.024,3.669,2.522-2.912,3.6,6.173-2.192,2.564-10.659,3.729-1.195,5.747,1.885,9.728,6.413,4.792-5.4,1.892-9.608,4.432-1.676,7.068,2.114-0.048-3.375-3.771-1.958,0.456-2.09-5.813-3.873-0.252-2.426,6.1-10.413-3.825-6.438-3.165,2.672-6.113-.108-8.2,3.038-7.633-9.128,1-12,0.66-21.372-3.273-2.192v-3.975l-10.413,1.1-3.627-2.126-7.837-4.047-3.561-5.735-7.6-3.693-5.867,5.993,0.877,4.131,0.63,2.054-3.393,2.51,0.865,4.21-4.252-1.405-8-7.332-9.392,3.038-9.176-16.142,0.372-3.964-4.426-4.714,4.858-6.359L689.8,554l-6.66-5.561,2.919-3.074,0.366-6.131,7.326-4.408,1.915-6.462-2.75-3.027,2.486-3.4,5.4-1.129,0.691-1.772,4.336,1.994,12.191-7.212-0.829-5.639-0.552-16.712,4.228-8.341-2.306-6.089,4.192,0.625,3.927-4.822L745.038,482l-3.5,2.72-2.15-.949-4.078,5.609-3.351,6.216,0.823,4.432-4.63,5.128,4.342,3.5,7.638-3.849L742.8,498.9l8.683,2.672,5.6,4.1,4.594-.4,2.276-.282,4.558,5.044,3.273,11.139,6.648,1.033,0.522,6.485,3.849,2.756,7.392,0.48,0.36-7.122-3.111-3.063,0.522-4.714-2.978-6.63,2.03-6.756,8.089-3.555,11.482,8.959,6.335-3.074,5.879,0.762,3.1-3.333,12.785-5.219,1.922,6.978,1.844,7.644,5.441,8.635,7.3,5.452,6.131-3.14-0.757-9.242,5.651,4.858,3.567,6.57,4.63,1.525,0.9,9.218,4.492,0.984,16.316-8.293,4.552,10.052,1.219,2.967,7.242-2.216,2.576-8.107,0.919-2.756,8.6-15.626,1.093,0.822,7.134-8.491-8.323-8.221,1.423-6.768,2.468-6.882-1.922-6.93,17.169-1.8,4.384,0.282,2.354-3.123-3.825-3.369-4.149-.529-0.829-9.29-6.618-2.18,1.2-4.492,1.357-5.843,2.024-4.233L930,439.3l0.372-3.964-2.822-4.762L924,428.246,917.08,418.6l-8.876,3.087-2.24-.126-1.718-3.951,2.606-8.317-1.922-2.63,0.811-4.48-2.456-8.69L890.3,391.363l-3.417,2.954-4.858.06-6.408-3.051-3.489,2.828-2.18-.15-7.38-10.683-14.527,9.044-2.859-6.509-9.29,2.534-5.152,4.642-2.006-1.363-2.156,1.622-2.348.024-2.612-3.9-13.56,2.841-1.952,6.744-3.639,4.714-3.531-2.378-0.228,4.035-2.21,4.293-15.589,5.807-6.287-3.483-2.426-3.951-18.094-4.5-5.939,3.5-2.738-3.531-16.166,10.863-6.125,2.077-5.471-10.311,5.735-2.954,8.918-10.461-4.942-6.99-3.993-1.97-6.444,6.125-1.73-1.417-21.643,14.358,0.168,0.54-2.786,4-6.461,3.555-13.944,10.275-2.252.258Z" transform="translate(-38.86 -381.291)" fill="#ff8080" stroke="#000" stroke-width="3"/><path d="M617.748,900.069l-3.375-8.011-8.557-8.491-9.35,2.324L585.8,880.258l-5.128-5.134-3.207-11.6,4.636-5.5-3.141-6.263,0.589-7.062-1.213-5.206-3.663-1.885-6.3-12.623-6.99-1.1-8.857,2.78L538.2,835.91l-12.245-1.477-14.713,1.7-9.326-3.213-7.416-.174-1.615-4.432-4.774-1.129-7.1,6.438L468.9,833.2l-11.38-4.654-13.968-10.029-4.984-8.6-1.741-1.784-2.186-1.195-29.4-3.928-6.209-3.891,0.468-4.786-7.05-1.573-7.668-5.933-13.7,9.194-2.678-3.891-0.564-7.284-14.262-9.17-0.8,2.24-4.39.162-14.641-12.022-9.386-2.39-8.527,8.7-7.194-.871-5.393-8.131-18.526-11.026,5.7-16.148,8.155-10.767,5.681-6.336-25.5,4.06-6.173,3.5-6.612,10.287,1.874,9.56-1.393,17.193-4.167,16.772-2.12,1.267-4.756-1.291L217.72,769.843l-8.329-12.082-7.831-12.49-0.438-4.87,4.017-6.077,19.042-14.953,0.18-2.45,5.453-4.293,2.648-9.115-1.489-6.63,3.177-3.531,2.36-.5,1.459-16.7,7.693-5.723,0.643-23.949,2.534-4.131,0.078-4.858-2.192-11.9L235.5,612.917l-4.258-2.252,9.939-6.558,3.982-5.621,8.99-2.967,2.54-4.06,4.245-1.946,13.283,3.1,3.627-3.074-3.441-8.984-9.356-.726-2.078-4.378-6.143-3.249-0.456-4.81,6.245-6.131L257.1,540.242,246.821,526.8l-3.345-4.624-0.751-4.492,6.215-6.558-5.074-7.644,3.9-1.855,5.987-8.161,16.394,4,9.674,0.15,14.358-2.414,7.638-5.909,7.633,4.63,4.414-.553,1.8,1.7-6.347,2.7-5.128,5.044-3.8,11.164-4.876,10.767,6.251,3.165,0.817,7.074,3.993,5.855,2.336,7.482L308.457,569.4l6.666-.691L318,565.294l1.393-6.378,3.723-2.077,5.891-2.006,6.059,1.622,2.93-3.8,6.8-1.819,10.383-9.956-7.783-11.728-3.537-6.312-0.294-11.53-10.737-15.175,7.062-6.372,8.708,2.558L359.819,495l14.25,2.042,23.252-6.1,1.579,1.441,4.228-7.014,1.844,1.081,0.511,3.2-0.829,4.612-4.366,1.627-1.519,4.42-3.975,2.462,4.426,7.915,2.2,0.973,12.833,1.91,1.111,4.162,11.134-9.6,6.624-2.438,6.293-3.236,5.747-4.654-0.955-1.844,3.627-7.236,2.18,0.937,4.131-2.336,9.326,1.3,10.353,4.455,5.152-.2,2.75,3.153,6.179,0.787,4.69,3.964,1.976-.517,9.542-1.267,3.219-6.113,8.245-4.084-2-6.389,2.522-3.873,1.273-3.038,4.708,8.341,5.32,4.588-1.585,11.4,1.784,4.42,3.993,4.786,8.047,4.9,7.044-.553,5.1,4.75,7.1,0.258,10.773,4.69,3.687,4.42,6.39,12.046,8.227,2.732-3.681,2.7-4.4.234,1.91,3.873-3.615,5.711,5.375,6.143,3.519-3.038,2.168,0.9,2.894,7.951,2.216-.1,0.793,4.366,8.107-3.435,2.366,11.367,4.035,5.7-1.819,6.828-2.126,1.069-2.2,3.951-6.756.858,5.32,4.455-0.564,6.594,9.332-.888,9.428,7.014,0.192,4.69,3.315,3.387-0.414,7.086-0.186.7,4.57,0.8,1.315-1.958,2.786,6.125,3.279-2.414,2.018-6.041,5.783-9.7,2.1-8.69,4.131-5.548,1.94,1.561,8.87,12-2.75,5.339,6.534,7.471,0.985,7.41,3.975,4.035-0.282,1.994-8.335,10.041,10.383,5.315,2.066-4.81,6.113,2.522,4.222,8,11.1,9.44,15.68,2.054,3.987,5.537-0.2,4.047,8.7,3.519,11.554,1.712,6.8-6.5,2.378-.024,3.669,2.522-2.912,3.6,6.173-2.192,2.564-10.659,3.729-1.195,5.747,1.885,9.728,6.413,2.714,4.384,11.452,11.566-0.823,6.768,5.3,10.125-5.158,4.42,5.429,4.2,6.227,1.609-1.718,6.378,4.066,2.126-0.433,4.888,3.969,2.828,1.141,4.666-5.669,13.193-0.18,2.45,0.426,2.4,1.513,1.934,8.1,5.525,8.936-2.264,2.756,3.939,1.832,11.446-3.982,8.293L805.755,798l-2.348,9.362,1.351,21.648,2.955,3.717,2.33,9.374-2.889,8.467-6.558-.54-7.777,8.641-7.08,1.183,1.309,9.428,4.245,5.771,0.066,7.134,4.378,11.038-3.129,13.649-6.558,10.1-4.618-1.622-7.086,1.394L766.3,929.133,754.1,940.85l-11.194-4.27L727.268,943.4l-27.293-15.133-3.255-6.449-4.4,1.934-7.26,9.621-1.411,11.644-8.912,2.732-4.762,8-7.158-1.207-1.291-6.882,2.384-4.222-0.294-4.75-3.807-2.606-9.188,2.649-4.414-1.97-1.063-16.466-9.849-6.648-7.41-9.464Z" transform="translate(-38.86 -381.291)" fill="#adc1fd" stroke="#000" stroke-width="3"/><path d="M204.5,439.887l1.087-11.7-8.215-4.246-11.134,8.624-11.962-1.934-12.737,24.892,7.338,6.449-0.072,17.139,7.08,1.844,2.4,3.928,11.109,1.093,5.441-3.765,5.212,4.738-0.09,7.248,7,2.066L209.9,504.9l16.652,3.3,4.426-1.784,4.21-5.621,8.708,2.709,3.9-1.844,5.987-8.173,16.394,4,9.674,0.15,14.358-2.414,7.638-5.909,7.633,4.63,4.414-.54,1.8,1.687-6.347,2.7-5.128,5.044-3.8,11.164-4.876,10.767,6.251,3.177L302.615,535l3.993,5.855,2.336,7.482-0.463,21.078,6.666-.691,2.876-3.411,1.393-6.372,3.723-2.09,5.891-2.006,6.059,1.622,2.93-3.8,6.8-1.819,10.383-9.956-7.783-11.716-3.537-6.323-0.294-11.53L332.85,496.156l7.062-6.378,8.708,2.558,11.224,2.684,14.25,2.042,23.252-6.089,1.579,1.441,4.228-7.026L405,486.469l0.511,3.213-0.829,4.6-4.366,1.627-1.519,4.42-3.975,2.462,4.426,7.915,2.2,0.984,12.833,1.9,1.111,4.162,11.134-9.584-3.363-6.4-1.97-14.646-9.59-6.438-1.952-6.894,3.591-11.59-3.441-6.99-2.889-9.632-2.63-7.891-3.537-2.348-4.354,7.825-9.056-1.712-4.594,7.668-8.5,2.618-2.378.21-1.573,6.864-2.252.751-4.408-5.362-6.083,3.471-2.036-1.243-0.09-2.876-1.021-5.723,3.531-2.18,13.968-.9,3.333-3.027-1.537-4.384L363.507,430.9l-2.816-6.57-7.488-5.206-10.935-.024-4.222,4.107-7,6.792-16.809,9.687-4.762,2.594-16.094,10.4-15.847-4.624-6.065,1.417-0.324-.15-17.727,5.723-22.748-1.55-1.753.21-5.741-10.8-14.154-4.011Z" transform="translate(-38.86 -381.291)" fill="#ff8080" stroke="#000" stroke-width="3"/><path d="M147.13,476.975l-16.052,25.51-3.711.372-2.258,2.816-11.818,11.434-13.758,4.15,4.738,5.945-3.789,2.954L93.6,527.486l0.426-2.36-2.258-.762L67.61,534.428l-9.41-1.994-4.882,5.6-8.876,4.12,3.669,4.834-7.134,9.638,7.669,5.429,4.612-.9,0.516-.108,4.072,2.4,0.871,4.834,6.359,3.375-0.444,9.687,4.414,11.367L78.389,591l4.9-5.429,4.24-2.066,4.27,2.1,8.708-3.531,7.032,1.045,5.693,4.173,4.528-1.441,0.144-.012,6.2,3.627L120.876,603.8l4.468,14.238,4.69,5.735,2.27,1.021,17.157,0.48,7.122-15.739-1.129-9.362,16.568-3.519,11.956,0.1,6.083,7.644,4.822,0.408,7.933,5.663,11.674,3.423,8.936,1.3,7.843-4.54,9.939-6.558,3.982-5.621,8.99-2.967,2.54-4.047,4.245-1.958,13.283,3.1,3.627-3.074-3.441-8.984-9.356-.726L263,575.448l-6.143-3.249-0.456-4.822,6.245-6.131-5.519-21.018-10.281-13.44-3.345-4.624-0.751-4.492,6.215-6.545-5.074-7.657-8.708-2.709-4.21,5.621-4.426,1.784-16.652-3.3-2.937-8.641-7-2.066,0.09-7.248-5.212-4.738-5.441,3.765-11.109-1.093-2.4-3.928-7.08-1.844,0.072-17.139-7.338-6.449-10.2,8.365-0.15,4.7Z" transform="translate(-38.86 -381.291)" fill="#ff8080" stroke="#000" stroke-width="3"/><text transform="translate(462.617 322.267)" font-size="65.722" font-family="DejaVu Sans" font-weight="700">4</text><text transform="translate(125.662 190.301)" font-size="65.722" font-family="DejaVu Sans" font-weight="700">6</text><text transform="translate(275.885 104.197)" font-size="49.89" font-family="DejaVu Sans" font-weight="700">5</text><text transform="translate(575.805 131.359)" font-size="65.722" font-family="DejaVu Sans" font-weight="700">3</text><text transform="translate(668.912 190.301)" font-size="65.722" font-family="DejaVu Sans" font-weight="700">1</text><text transform="translate(776.885 258.107)" font-size="65.722" font-family="DejaVu Sans" font-weight="700">2</text></svg>