<svg xmlns="http://www.w3.org/2000/svg" width="635.103" height="937.231" viewBox="0 0 635.103 937.231"><title>Députés sortants des Deux-Sèvres en 2017</title><path d="M323.439,587.86l-0.393,10.264-3.18,6.991,3.838,3.532,0.858,5.221,4.816,2.208,7.157,2.481,5.262,5.667-4.716,8.94,7.829,6.692-0.878,2.468-1.084,9.585,2.947,4.3L345,661.388l2.182,1.443-2.967,3.379,6.372,8.468-0.166,5.168,15.405,4.936-5.947,5.029-2.109,7.782,5.122,5.781-2.661,7.9,4.118,7.184-2.321,7.949-3.965,3.705,15.612,11.235-2.608,1-3.086,10.1,1.237,5.394,11.354,1.69,12.086,6.978L380.9,777.355l-1.523,5.235,3.353,4.064-3.126,6.326-2.827-.326-10.317,9.392-5.5,9.924-5.468-.532-5.355-6.545-7.144-8.727-1.53-2.2-2.96-3.093-7.55-2.355L318.3,778.353l2.913-7.576-23.142-4.769-2.089,1.756,1.337-5.248-4.969-2.288,1.6-5.122-4.344-6.545,1.2-5.381,1.863-7.21-4.53-12.924-0.146-8.195-2.933-4.483-7,7.889-10.277-2.341,0.758-16.191-21.479.692-2.188,5.2-9.951,5.2-10.583,2.834L219.7,711.1l-7.171-11.261-0.738-10.8-16.23,7.8-10.27-1.47-4.849-5.887,3.811-4.264-0.153-8.028,10.071-4.25,6.379-5.714,2.913-10.616,13.8,2.933,10.65-4.038,1.3-2.561,11.015-18.372-6.692-5.122-10.962-1.523-1.889-5.042-5.435-1.25-10.9-8.521-5.508-.352-5.588,18.525-9.811-5.168,4.45-6.612-5.128-6.485,1.463-16.057,9.386-5.681,2.514-10.417L200.427,579l-4.53-7.064-1-8.448-5.966-5.614,1.716-13.809-4.982-6.532-5.667-5.082,3.206-6.884-2.009-4.51,7.929-2.794,11.042,0.027,3.7-4.237-0.545-7.836-2.947-16.191-5.441.818-3.811-13.124,6.372-8.368-3.12-4.4,1.257-4.856-5.913-5.534,7.456-11.953,16.769,2.262-0.186-4.882,1.956-1.443,5.627-.665,8.481,7.55-3.931-10.457L246.2,415.546l12.466,9.691L271.5,421.16l5.84-6.107L277.9,395.8l-2.175-10.809-4.45-3.106,4.822-9.119,14.135-1.962,7.2-4.444,6.951,8.873,7.523,4.051-0.466,8.588,3.685-.585,4.663,2.574,1.683,7.676,2.341,1.364,2.036-1.976,4.922,2.82,5.508-1.337,7.61,3.492L363.8,391.66l5.82-6.093,7.65-2.414,7.024,9.007-0.532,13.9,6.545,12.5L373.52,420.5l-20.627,9.525,10.969,1.39,2.262,10.782-4.683,6.772,5.455-.273,3.359,4.3,5.242,1.523,10.3-.013,4.882-2.441,4.483,0.585,3.266-3.146,5.348,8.94,16.709,8.681,3.153-4.55,6.033-4.7,9.765,3.965,7.916-1.051,2.215,4.849-4.038,12.644,3.911,3.505-4.576,16.217-12.918-1.523-3.831,7.443L427.28,517.83l8.288,0.612,6.239,5.394,7.776,0.858-3.239,4.523-0.326,11.029-4.211,10.184-3.931,3.532-1.018,11.029-4.975,1.716-2.142,8.94-4.956,2.428-8.508-6.472-16.6,9.2-2.827.053-0.605-10.949L385.806,553.29l-5.461,5.9L374.3,550.45l-2.428,1.324,4.45,18.984-4.743,6.785-9.545,5.4-3.153,7.7-5.893,4.756-4.556-2.222-4.383,2.361-13.23-5.235-5.062-6.758Z" transform="translate(-33.505 -38.305)" fill="#ff8080" stroke="#000"/><path d="M247.423,845l-0.971-5.182-3.672-3.406-7.676-3.392-10.982.466-7.363-4.051-2.122,7.1-10.882-2.468-7.643,3.366-6.978-4.171-2.308-4.018,1.437-2.315,15.326-3.479-5.88-4.849-5.528.479-6.685-3.925-5.055.572-6.692-4.018-7.836-10.976L155,801.707l-1.929-7.536-2.567-1.038,0.785-2.661,5.388,0.678,1.783-2.056-2.215-13.084-2.614-4.6-6.711-4.277L119.4,750.369l-1.443-5.394,10.184-13.211-5.228-9.638-5.321-15.878,2.355-4.3,13.7,0.858,4.45-1.769-1.656-5.055,2.807-4.377,5.228-.911L150,684.809l14.175,7.344,11.421-1.024,4.836-1.61,4.849,5.873,10.27,1.47,16.23-7.782,0.738,10.8,7.171,11.248,4.63,2.534,10.583-2.82,9.951-5.2,2.188-5.2,21.479-.692-0.758,16.191,10.277,2.341,7-7.9,2.94,4.483,0.14,8.195,4.537,12.924-1.869,7.21-1.2,5.381,4.344,6.545-1.6,5.122,4.969,2.3-1.337,5.248,2.089-1.756,23.142,4.756-2.913,7.576,12.658,10.184,7.55,2.355L341.46,794l1.53,2.2,7.144,8.72,5.355,6.559L360.957,812l5.5-9.924,10.317-9.392,2.827,0.326,3.133-6.312-3.359-4.064L380.9,777.4l11.76-10.849-12.086-6.978-11.354-1.7-1.237-5.394,3.093-10.1,2.6-1L358.07,730.148l3.958-3.705,2.321-7.949-4.118-7.184,2.661-7.9-5.115-5.794,2.1-7.782,5.953-5.016-15.412-4.936,0.173-5.168-6.372-8.468,2.96-3.392L345,661.409l0.9-5.182-2.953-4.3,1.084-9.572,0.878-2.481-7.829-6.679,4.716-8.953-5.262-5.654-7.157-2.481-4.816-2.208-0.851-5.235-3.845-3.519,3.18-6.991,0.4-10.277,2.282-4.291,5.062,6.772,13.23,5.235,4.383-2.361,4.556,2.222,5.893-4.756L362,582.985l9.545-5.394,4.743-6.791-4.45-18.971,2.428-1.324,6.046,8.727,5.468-5.887,10.436,16.616,0.605,10.949,2.834-.067,16.6-9.186,8.5,6.459,4.956-2.428,2.142-8.927,4.975-1.73,1.018-11.015,3.938-3.546,4.2-10.171,0.326-11.029,3.239-4.523-7.769-.871-6.239-5.394-8.288-.6,0.831-13.915,3.831-7.443,12.918,1.51,4.576-16.217-3.911-3.505,4.018-12.625-2.215-4.849-7.922,1.064-9.765-3.965-6.033,4.69-3.146,4.55-16.716-8.667-5.348-8.94-3.266,3.133-4.483-.585-4.882,2.441-10.3.013-5.242-1.51-3.359-4.3-5.448.259,4.676-6.772-2.262-10.782-10.962-1.39,20.62-9.525,16.8-1.936-6.552-12.485,0.532-13.915-7.018-8.993-7.656,2.4-5.82,6.093-19.909,10.25-7.61-3.492-5.508,1.337-4.922-2.834-2.036,1.976-2.341-1.35-1.683-7.689-4.656-2.561,15.871-9.419-1.683-2.182,5.74-5.7-3.552-13.211,1.3-2.414,4.031-10.577-7.3-12.106,10.064-4.6,11.075-1.716,16.337-18.944,12.944,10.536,13.762,3.146,1.35,2.508-2.76,4.949,0.452,5.654,5.128,6.625,7.064-1.61,5.947-1.61,6.166,5.055,3.519,7.6-0.858,8.368-5.681,6.213-0.712,8.235,9.951,17.215,3.978,3.572,16.663-10.6,15.931,1.976,3.153-7.8-2.255-16.5,5.062-.233,9.585-5.727-8.541-11.548,16.969-9.213-0.406-5.627,2.022-1.976,4.377-5.781,4.636-2.913,9.239,5.275,6.572,8.727,0.891,7.823L526.7,333.71l1.49-5.4-2.508-11.042L529.3,312.9l2.634,1.011,0.286,8.042,4.922,10.117,6.073-5.714,14.74,16.769L563,345.158l1.949,8.222-2.608,1.1-5.122-.406-10.789,8.275-2.4,1.5,1.776,8.315-1.5,5.288-10.39,4.157,4.949,9.572-12.472,10.976-0.213.08-3.3,4.5,1.836,2.142-0.505,8.368-13.184,10.443-4.5,7.157,0.552,5.641,21.272-4.7,6.219-8.953,6.958-4.364,3.04,4.091L538.6,445.6l7.5,4.171,11.122-2.468,0.659,15.977,10.583,3.246-6.852,5.042-5.687.326-13.477,10.63-3.838,13.4,9.738,8.3-7.57,17.567-14.182-.831,0.1,13.716-4.3,7.057-0.246,5.415,3.991,3.665-5.854,5.168-0.412,8.148,1.789,1.949,12.412-4.131,3.18,3.133,1.177,2.414-4.962,12.352,4.889,2.781-1.244,19.7-4.211,16.41,6.918,8.108-0.006,5.687,4.756-2.687,8,1.27,4.576,9.313,6.532,4.849-11.521,13.51,9.931,8.847-4.743,3.027-4.483,13.3,8.062-1.976,10.071,5.142L588.568,701.4l10.589-12.785-0.792-5.641,3.3-4.623,9.366-6.379,3.04-4.849L622.145,665l10.516,5.016,11.98,12.419-6.465,9.053,2,5.208-2.541,4.237-5.381-1.171-1.437,2.361,10.949,20.827-5.807,9.066-18.784.22,4.876,18.186,1.138,3.9,1.816,7.975-3.851,3.858-2.587-.9-7.51,11.149-2.608.8-3.233,21.412,18.046,5.221,2.142,5.055,2.647,0.692,3.965,12.578,9.486,1.091,2.847,4.663,5.594,0.665,6.512-8.681,8.481,0.725,2.707,0.3,0.459,2.7-1.49,10.809-8.907,10-1.177,2.468,2.574,0.911-1.716,6.758-6.3,5,1.051,5.315,3.752,7.536L644.676,882.5l-4.53.971-1.131-2.069-17.927-15.9-9.432,5.262-7.61-.326-5.082-6.013-2.082,1.65,3.705,9.652-1.5,2.129-6.326-3.459-7.2-.625-11.441,11.288,4.962,6.339-5.082,1.962-8.342,1.078-10.55,12.8-8.055-5.441-4.217,3.286-13.37-.7-7.523,2.634,1.543,8,7.955,10.862-4.816,6.585-8.1,1.011,0.086,5.341-3.559,9.885,5.381,4.69-4.623,5.767-4.816,2.441-1.789,5.155-8.175.3-14.973,7.889-8.142-6.379-10.343-.845,1.7-7.377-2.381-1.27-4.5-12.612-7.756-.3-3.213-6.286,0.692-5.109-2.787-3.639,1.909-9.991L437.3,928.985l-1.038-14.241-2.521-.911,0.871-5.248-9.479,4.676-10.43-2.029-2.228-.439-22.6-7.224-3.958-15.951-7.5-7.9-5.534,6.392-13.643-2.075-2.455-.951-17.634,5.641,0.479-7.031-6.559-8.069-7.287-2.257-8.481,10.3-11.281-7.417,0.106-16.277L295.9,865.9l-0.625,7.3-5.6-6.053-13.264-2.115L259.549,862.9l-7.217-4.237,3.639-3.6-4.736-6.027,4.111-3.186Z" transform="translate(-33.505 -38.305)" fill="#ff8080" stroke="#000"/><path d="M518.462,267.83l5.561-.12,5.115-6.572,9.133-5.973,8.075,1.989,6.392,8.807,0.958-.492,9.7-15.8-5.661.12-7.716-3.858-4.769-3.206-5.514-6.559-8.1-3.04-5.541,1.457-1.942-2.142,4.164-3.505,2.867-12.824,7.969-10.949-2.681-11.548-4.676-13.443-4.856-3.027-0.512-5.834-7.45-8.86-0.8-5.807,7.424-11.381-3.173-7.483-9.386-4.444-8.268,1.5-9.339,6.259-3.339-16.59,0.379-5.2,5.148,1.2,0.705-2.481L494.4,108.14l-1.131-6.339-0.652-4.31-6.053-22.33-15.126,8.78-4.377-3.04-0.692-5.381L462.2,72.208l-5.189-1.483-6.526,4.6-4.956-2.414-2.149-1.9,6.685-9.286,14.614-13.111L464.47,42.9l-8.428,1.716-16.45-5.681-2.8,7.29-9.087,5.368-19.3-9.924-10.037,4.038L395.7,41.4l-4.071,3.559-5.4.911-2-1.856-10.443,3.22-6.213,5.315-15.552,3.978L343.76,50.1,341.3,51.328l-12.9,4.131-2.681-.452-0.206-2.727-5.075,1.8-2.681,16.164-4.444,3.546-10.1-4.769-10.716,3.792-8.547-.559L272.732,84.461l-1.9-10.756,11.108-7.876,0.426-4.822-16.077-.8L253.1,64.279l-25.21,13.47,2.029,2.042,0.033,11.315,7.131,8.72-2.015,5.262-8.215-.625-2.947,8.028-7.536,4.077-4.044,7.277-3.731,2.561-0.931,4.264-13.969,3.778-7.5-2.92-8.2,1.9-13.058-5.3-5.275,6.419,0.113,4.623-10.337-5.714-9.087,7.1L129.4,131.3l-2.86-.505-7.057,4.523-5.714-.692-6.539-8.834-8.175-1.1-4.723,6.831-7.091,4.2,1.956,1.976-2.634.985-3.871-4.157-2.847.106-7.1,4.636-7.689,1.144-4.211,6.8,0.525,5.275-2.641.924-13.1-4.836-5.588.393-5.8,4.576,2,2.089,8.481-1.311,2.248,7.8,7.217,1.523,0.9,5.627-7.443-.692-2.215,1.962,0.812,2.767,16.49,1.869-0.452,4.936,12.459,5.873,3.532,7.823,8.175,1.65L84.243,200.2l-3.7,4.144,1.171,5.3L73.7,224.407l9.6,4.856L95.59,246.631l3.951,4.909,3.013,7.3,4.663,2.262,8.607,7.47,10.949,2,5.069,6.066,11.075-.013,6.193,10.5-9.419,5.913-2.74,10.264-2.581,5.248-0.792,11.694L137.43,331l6.778,4.975,5.4-1.583,1.55,5.155-1.47,7.782,5.328,8.315,2.4-1.483L163.8,359.8l9.778,16.889-12.958,11.248,11.88,8.222,11.734,11.015-6.12,5.394-0.379,8.028-5.761,5.468,0.9,5.3,7.9-3.173,5.681,1.224,10.8,13.343,16.769,2.262-0.186-4.882L215.8,438.7l5.627-.678,8.481,7.563-3.925-10.457,20.308-19.423,12.466,9.691,12.838-4.091,5.84-6.093,0.559-19.257-2.175-10.809-4.45-3.12,4.829-9.106,14.135-1.962,7.2-4.444,6.944,8.873L312,379.44l-0.466,8.588,3.685-.585,15.878-9.419-1.683-2.168,5.74-5.714-3.552-13.2,1.3-2.428,4.031-10.563-7.3-12.12,10.064-4.583,11.075-1.73,16.337-18.944,12.938,10.536,13.769,3.146,1.35,2.508-2.76,4.949,0.452,5.667L398,339.995l7.064-1.61,5.947-1.6,6.166,5.042,3.519,7.6-0.858,8.381-5.681,6.2-0.712,8.235,9.951,17.228,3.978,3.572,16.663-10.6,15.931,1.976,3.153-7.8-2.255-16.51,5.062-.233,9.585-5.727-8.541-11.534L483.94,333.4l-0.406-5.627,2.022-1.976,4.377-5.781,4.636-2.913,9.239,5.275,6.572,8.727,0.891,7.823,15.572-5.128,1.49-5.4-2.508-11.042,3.619-4.35,2.634,1.011,2.355-1.377-3.692-6.925,0.891-2.574,8.82-10.117,7.849-7.251-0.113-2.714-6.239-4.962-9.864,4.1-15.379-6.758,2.089-.792Z" transform="translate(-33.505 -38.305)" fill="#ff8080" stroke="#000"/><text transform="translate(213.066 540.156)" font-size="72.799" font-family="DejaVu Sans" font-weight="700">1</text><text transform="translate(410.292 718.124)" font-size="72.799" font-family="DejaVu Sans" font-weight="700">2</text><text transform="translate(265.314 210.265)" font-size="72.799" font-family="DejaVu Sans" font-weight="700">3</text></svg>