<svg xmlns="http://www.w3.org/2000/svg" width="961.627" height="925.939" viewBox="0 0 961.627 925.939"><title>1T Législatives 2017 Lot</title><path d="M313.7,955.956l-5.613-4.751-7.429.9-6.3-3.293-10.318,2.559-16.949-7.649,3.494-5.6L269.5,925.039l14.464-11.409-5.117-12.648,5.934-21.314-3.155-.9-13.473,5.356-7.8,8.117-11.2-.376-2.348-2.935-3.788,17.38-4.906,4.017-4.843-9.639-9.951-4.512-3.65.339-6.09,8.493-7.347-12.574-3.082,1.788-11.648-6.5-5.42-8.74,1.192-17.142-7.741,7.126-7.364-6.411-6.393,2.761-9.713-8.667-6.576-1.788-5.971,1.449-1.954-2.669-8.493-7.181,3.247-14.06-7.337-8.383-6.218-4.063-7.264.037-4.458-5.9,6.172-3.907L121,799.509l7.355,0.881,13.959-5.751,7.466,0.092,2.733-2.5L151,771.032,127.5,773.2l-15.1,11.253L97.695,787.8,94.182,774.27l-6.558-1.486,8.209-10.529-3.265-28.1-8.043-3.632-1.7-3.256-10.786,1,0.055-7.025L64.641,713.5,64.1,702.972l3.155-10.245-1.577-10.712-10.9-5.054L59.165,666.3l1.3-15.188L33.357,606.589l9.071-5.448,10.456,1.972,5.145,12.556,15.7-19.92,6.374-3.513,0.642-.413,1.688-3.329,20.682-7.273,3.247-10.621,0.917,3.531,10.217,3.632,10.749-1.055-2.889-9.08,3.091-1-5.7-13.308,8.759-11.859,15.509-14.041,18.407-17.609,1.724-7.447L162,487.93l2.577-2.4-2.412-17.288,11.171-2.385,4.613-6.163,10.593-4.494,34.283-1.724,0.128-1.577,4.118-5.98,10.1-3.815,1.33-11.088,13.188-5.943L258.3,411.99l13.234,8.364,8.97-15.316,1.321-17.407,12.363,4.3,4.283-22.745L288.02,358.438l-8.566-6.686,5.173-9.584-0.926-3.586-7.255-.981,6.127-8.667,18.957-9.08,10.648,0.45,13.565-5.109,5.9-1.449-2.825-26.2,3.879-10.5,10.042,1.77,7.988-7.31,10.859,1.036,0.266-1.935,2.119-13.473,2.88-1.843,1.7-8.777,4.155,1.99,15.041-2.293,4.769-5.9,16.508,14.17-0.724,10.941-6.154,4.173,3.586,7.126L427.8,278.39l2.907-2.366,7.713,10.6L449,294.9l1.082-5.769,14.418,2.6L470.2,305l7.337-.77,6.6,7.841,3.247,18.59,9.759,6.053,11.409-.193,2.981,7.044,7.071,2.687-12.125,16.087-3.384.605-11.152,9.85-22.213-1.935,4.87,16.215,7.108,5.86,7.328-7.814,12.822,7.649,7.8,8.117,0.587,18.847,8.814,12.235,17.444,6.411,11.354,9.492-0.339.5,6.035,3.119,5.916,13.023,6.9,2.256,16.958-29.715,8.383-7.007,11.446,9.364,2.073,22.177-7.2,3.687,10.538,10.088,1.972,7.071-6.851-1.092-7.291,7.5-5.567,10.107,5.971,25.882-10.033,16.334-0.275,13.574,6.062,3.669,11.272-2.33,15.674-11.272,22.543,2.834,8.786,11.712L636,570.589l-1.569,14.849-5.485,13.867,2.494,2.8-2.366,22.323,3.6,6.576-3.247,6.521L618.4,652.692l-0.963,7.071-3.063,1.862-14.05-.587-4.65,4.732-2.88,7.062,4.265,6.273,3.522,18.737,4.4,5.145,0.605,18.792,8.694,16.3,1.339,6.933-3.494,1.559-15.014-17-7.19-1.339-4.393,21.91-4.448,6.145-15.665,6.732-4.889-5.356L554.3,736.895l-6.989-3.669-0.945.395-6.668,2.834-5.54,9.282-11.923,8.172-3.678,10.446,2.421,24.717,12.6-7.612,3.861,6.31,7.071,2.146,7.612,7.97,10.538-1.092,13.023-17.031,7.291-1.431,3.2,1.109-1.569,7.347,4.265,36.4,3.063,0.395,11.372,14.491,0.23,3.687-8.979,5.017,0.7,10.859-20.856,18.15-3.476-.468-0.6,5.3-0.5,2.9-6.053,1.6-1.889,6.558-6.576-14.656L541.967,878.8l12.565,12.9-7.154,13.152-7.209.807-12.033-8.236,0.358-21.461-11,1.651-4.54-5.842-7.154.11-10.685.523-2.5,2.8,3.87,14.261-8.621,6.952,0.578,3.687,8.914,6.576,3.219,10.8,4.008,9.382-5.457,7.878-4.613,9.08-21.021,5.622-6.686-.092-8.218-7.557-6.814-16.426,4.668-9.639-11.62-13.757-10.217,2.779-6.851-1.6-2.284-6.686-8.5-5.86-8.218,16.243-6.521,3.632-1.954,10.96-20.544,15.1-2.1-.826-22.525,15.014-13.234,6.686-15.27,21.2Z" transform="translate(-31.291 -55.449)" fill="#ffeb00" stroke="#000" stroke-width="3"/><path d="M739.365,154.347l-28.083,11.125-6.456,10.107-3.3-1.22-2.063-6.75-3.366.963-1.724,10.446-3.824,6.429-14.573,2.008-3.87,6.521-0.5.092,1-6.732-12.29-11.556-0.908,7.044-7.75,7.686-0.45-1.092-5.485-9.382-12.822-6.31,2.678-2.274-4.044-17.609-6.282-4.118-14.307-8.346-6.979.395-1.889.559-1.761-2.577-4.2-18.664-8.649-6.613-6.154-11.125L571.2,101.547l-14.207-16.16L555.983,78.4,540.776,70.62l-14.124-.9-3.659.917-0.468,3.779-0.7-5.127-25.176-7.347L478.145,74.856l-6.31-3.063L469.01,57l-10.565.431-5.787,4.393L442.1,62.7l-20.15,14.06-2.183-.184L419.9,84.1l-9.676,5.485-3.531,1.275-9.428-5.9L385.5,94.346l-18.746,4.475,4.567,14.509L370.757,135l4.136,6.053-0.468,11.161,7.5,13.188,3.779,0.284,1.807,6.842-2.1,2.88,6.6,20.3-13.968.569L367.84,206.7l6.035,1.486,2.779,12.143,14.05,8.209,1.807,11.657,16.5,14.17-0.724,10.96-6.154,4.155,3.586,7.126,22.075,1.688,2.916-2.366,7.7,10.584,10.575,8.291,1.082-5.787,14.418,2.6,5.7,13.271,7.337-.77,6.6,7.86,3.247,18.59,9.759,6.035,11.409-.184,2.981,7.044,7.071,2.687-12.134,16.087-3.384.605-11.152,9.832-22.213-1.917,4.87,16.215,7.108,5.86,7.328-7.814,12.822,7.63,7.8,8.135,0.587,18.847,8.814,12.235,17.453,6.411,11.345,9.492-0.339.486,6.035,3.136,5.925,13.023,6.9,2.238,16.949-29.715,8.383-6.989,11.446,9.364,2.073,22.158-7.19,3.705,10.529,10.088,1.972,7.062-6.851-1.073-7.291,7.5-5.567,10.088,5.971,25.9-10.033,16.334-0.275,13.574,6.062,3.669L603.8,555.97,619.478,544.7l22.543,2.852,8.786,11.712-14.821,11.217-1.569,14.849-5.475,13.885,2.485,2.8-2.366,22.323,3.6,6.576-3.247,6.521-11.033,15.151-0.963,7.09-3.063,1.843-14.041-.569-4.659,4.714-2.88,7.071,4.265,6.255,3.522,18.737,4.4,5.154,0.605,18.774,8.694,16.316,1.348,6.916-3.5,1.559L597.1,729.456l-7.19-1.357-4.393,21.929-4.448,6.145L565.4,762.885l-4.889-5.356-6.228-20.764-6.989-3.65-0.945.395-6.668,2.834-5.54,9.263-11.923,8.172-3.669,10.446,2.412,24.717,12.6-7.612,3.861,6.319,7.071,2.146,7.612,7.97,10.529-1.092,13.023-17.031,7.291-1.431,3.21,1.092-1.577,7.364,4.274,36.383,3.063,0.395,11.364,14.491,0.23,3.687-8.979,5.035,0.7,10.841,6.759,2.99,17.242-6.686,6.117-9.153,14.546,3.4,10.813,9.676,7.163-2.128,4.274-6.182-3.733-6.558h6.246l1.825-6.521,9.566-2.953,2.44,7.255,13.556,6.97,5.631-12.592,10.538-2.9,3.54,6.31,23.635-8.777L739.88,819.3l2.953-2.385,11.134,0.981,3.834-6.411-2.027-7.291-9.263-6.558-3.843-10.565L729.4,773.635l-4.32-6.31,4.21-10.529-2.642-15.05,1.9-3.311-0.1-.486L711,723.55l0.724-26.175-3.192-6.787-6.236-9.355,0.862-3.742,16.234-8.566,12.391,3.531,5.989-2.274-0.624-13.987,2.788-6.356,10.676,1.312,5.081,16.857,6.5,2.045,3.4-6.127-7.447-11.969,5.952-1.632,7.291-.77,8.236-12.051,7.291-1.33,7.585-1.9,10.786-14.757,6.081-9.282,3.65-6.824,15.555-10.6,11.409,1.541,7.163-2.669,0.642-.247,4.7-5.567,0.395-7.447,15.16-11,6.713,0.789-1.623,10.73,2.577,1.843,2.916-2.293,8.942-16.445,3.715,0.037,8.309,7.722,6.75,7.163,9.566-1.788L922.6,569.6l3.632-.055,5.751,8.63,14.216-1.339,13.243-21.59,0.193-.11L972.1,555.9l5.677,3.494,4.127-6.2-0.2-10.73,7.218,0.184,2.412-6.916-2.339-7.025-12.363-13.867-11.74-7.97-5.567-2.761,0.1-10.639,3.265-6.09-6.017-8.8,10.245-14.436-19.049-27.331L935.1,443.93l-6.411-7.044,2.494-11.033,11.556-14.793,4.21-33.209-3.384-18.215,1.412-.358,10.667-2.816,3-10.263,2.449-9.134-4.366-9.639,0.193-14.326-20.654-12.914-9.447-18.49-2.165-5.98-5.98-2.4-18.49-26.533-6.2-13.849-0.092-15.206,1.33-3.623,16.343-9.382-4.5-10.263-20.251-16.371L890.2,159.6l-13.867-27.459-6.668-.23-7.218-7.667-28.725,8.209-18.664,2.779-21.608,16.2-4.384,6.448-7.209-1.788-1.247-18.792-10.116-7.667-2.375,2.238L755.36,130.23l-15.124,16.894Z" transform="translate(-31.291 -55.449)" fill="#ffeb00" stroke="#000" stroke-width="3"/><text transform="translate(250.66 621.091)" font-size="201.76" font-family="DejaVu Sans" font-weight="700">1</text><text transform="translate(658.386 361.098)" font-size="201.76" font-family="DejaVu Sans" font-weight="700">2</text><rect x="643.673" y="382.962" width="142.913" height="142.913" fill="#ff8080" stroke="#000" stroke-width="3"/><rect x="373.259" y="440.408" width="142.913" height="142.913" fill="#06c" stroke="#000" stroke-width="3"/></svg>