<svg xmlns="http://www.w3.org/2000/svg" width="976.097" height="713.651" viewBox="0 0 976.097 713.651"><title>1T Législatives 2017 Hérault</title><path d="M765.829,425.919l19.384-22.249-7.121-8.568-7.959-1.73L769.58,383.13l-12.45-9.882,4.485-3.121-1.094-5.273,3.785-7.315-4.242-6.028-4.893-.408,0.083-2.45-1.232-4.041-6.865-2.907L742.4,336.03l3.869-11.952-5.052-5.73,13.3,0.269,4.782-.609,1.4,7.079,13.979-14.042,0.381-4.651-14.111-.3-3.606-7.758,2.395-5.149-4.2-6.934,7.246-3.391,4.609,2.187,8.464,8.152-2.74,4.028,8.422,4.748,2.706,2.865L782,320.956l-8.207,3.135,5.675,7.3,12.028-14.11,4.18,3.052,1.661-5.232,4.2-.471,5.287,1.758,6.81,8.422,19.37-3.688-3.945,6.637,3.675,3.336L849.4,345.035l3.094,13.4-1.322,2.422-0.367,5.661-36.146,18.678-32.45,24.111-15.626,16.989Z" transform="translate(-8.194 -14.448)" fill="#ffeb00" stroke="#000" stroke-width="3"/><path d="M773.746,324.113l8.194-3.135,2.256-16.124,2.824,3.246,3.162-4.484,1.516-1.606-1.841-5.349,2.395-2.962-0.637-6.2-2.554-7.19,3.986-1.474,4.962-.637,6.028,4.056,2.436,3.855-1.4,4.449,2.692,5.246-7,9.315,4.879-.65,2.353,4.623-1.592,3.584-6.436-.678-2.65,3.163-1.675,5.218-4.18-3.038-12.014,14.11Z" transform="translate(-8.194 -14.448)" fill="#ffeb00" stroke="#000" stroke-width="3"/><path d="M797.781,236.582l3.038-7.363-1.363-8.256-3.959-3.716-1.232-7.287,1.01-3.8,7.315-3.107-0.962-7.772,7.08,3.883,1.689-2.422,0.284-1.8,10.111,4.837,13.7-9.841,14.014-1.08,7.716-2.768,3.855-4.111-6.055-15.018,2.381-5.052-2.72-7.855,12.519-6.865,3.363-2.582L887.3,156.126l12.72,11.315-0.678,5.744-0.139,3.031,6.948,3.107,2.159,4.852,9.772-2.609,4.256,3.191,0.893,7.944,3.889,3.606,7.342,7.661,6.367,2.484,6.45-2.851,4.72,2,2.083,4.651,5.2,14.208-12.623,5.052-3.931,6.893-4.99,2.471L932.641,237l1.287-2.069-10.581,3.972L910,234.4l-3.274,4.069-1.163,5.135-2.65.339L900.89,248.6l-11.218,4.623,8.339,5.46-1.474,7.647,3.882,3.447-3.945,6.229-7.315-4.678-2.637-.65-2.54,7.246-7.162,2.678-0.111,5.433-3.647-3.3L860.44,274.1l-21.183,8.069-7.689,10.207-2.041,1.931-7.689,8.194-11-2.45-5.772-9.571,1.419-4.449-2.436-3.855-6.028-4.056-4.962.637-3.986,1.474,2.554,7.2,0.637,6.194-2.395,2.962,1.841,5.349-1.516,1.606-4.027-2.326-2.014-7.758-4.139-2.74-4.471-11.73,9.135-4.54-7.855-8.18-0.512-5.585,12.014-6.823-0.526-2.8,12.311-4.228Z" transform="translate(-8.194 -14.448)" fill="#ffeb00" stroke="#000" stroke-width="3"/><path d="M720.673,285.738l-3.557-3.73,12.54-10.166,12.166-6.775,10.1,3.813,6.325-5.5,9.342,0.754,6.395,12.789,1.571,2.111,9.135-4.54-7.855-8.166-0.512-5.6,12-6.823-0.512-2.8,12.3-4.228L797.781,236.6l3.031-7.363-1.35-8.256-3.972-3.716-1.232-7.3,1.024-3.785,7.315-3.121-0.976-7.772,7.08,3.889,1.689-2.422,0.3-1.8,10.1,4.837,13.7-9.841,14.014-1.08,7.716-2.768,3.855-4.111L854,166.97l2.381-5.052-2.706-7.868-8.367-3.716,1.149-8.449,7.121-8.809-0.27-8.069,3.4-4.54-12.581-1.177,0.5-7.647-12.409-.056-8.692-4.256-3.162-7.785,1.052-11.122-3.038-4.637-8.395,7.287-25.273,2.1-5.391,6.042-5.488-1.336-4.6,3.246-4.976-6.242-9.938-3.675-3.488-9.973L765.235,59l2.5-4.906L766.4,43.523,763.062,39.1l-14.581.111-4.962-9.446,0.145-10.637-33.059-3.121-8.166,7.931-6.824-.6-3.647,2.838-8.8,5.364,2.948,9.585-3.432-.568-4.166,6.719,1.218,5.149-4.152,13-5.377-.893-10.505-1.418,0.408,8.664-4.229,2.879L654.226,72.8,655.7,61.563l-8.339-1.689L634.793,77.5l-2.65,7.571-8.678,7.094-3.585,10.6,13.516,9.357-0.229,2.734-8.041,1.433L621.07,119.8l-10.18-9.585-7.571,2.962-10.8-3.883-5.135-6.948,1.094-17L581.513,77.3l-11.827,3.557-5.585.692L551.6,97.107l-8.069,2.055-7.031,4.824-7.986-7.647,5.543-1.08L537.6,84.554l-0.74-11.1-6.962-8.934-13.073-2.8-4.3,3.232-7.7-1.308-7.3-3.031L493.451,64.1l-2.139-1.633-9.758,8.395,0.457,7.647-14.055,2.471-13.841-3.121-5.474,1.349-4.934-2.823-6.477.553-2.256,4.166-2.284,8.367-9.744,5.516-3.744,7.744,0.637,8.505,8.512,11.432-1.35,8.54-1.308,12.852-1.7,8.353,0.284,11.045L420.3,180.209l0.055,5.045,5.377,11.37,3.287,14.153,0.429,13.357,4.166,3.148,7.2-5.869,2.526,4.325-0.339,8.124,8.512,13.4-2.152,8.824,12.464,5.121,5.432-.934,5.017,2.242,19.017-3.052,5.052-2.582,1.855-5.364,7.232,3.5,2,7.744,5.066,2.187-0.125-2.706,5.391,0.145,6.81-4.014,6.242,5.108,5.35,0.3,1.287-2.678,8.194,3.9,9.094-3.972,12.041,2.214-5.446,14.014,0.395,2.74,8.353,6.692-3.35,4.3L559.45,287.8l4.069,12.92,3.647,3.758,3.758-.948,3.689,5.391-1.094,10.6-5.135,1.772,2.083,10.27-4.229,2.027L563.2,330.6l-1.7,1.827,0.242,7.35-4.367,2.838,5.031,6.153,0.5,1.218,1.336,7.987-2.768,11.855,0.27,3.661,1.149,6.582,9.274-4.367,32.588,20.533,1.661,4.228-3.038,3.377,2.325,1.052-0.139,5.135,8.851,9.218L599.748,431.8l-4.353,10.125,0.395,8.367-6.083,5.529,14.353,19.274,25.827,13.626,25.626-18.263,14.263-10.125,6.242-4.471-3.9-11.9,0.865-4.921-0.554-5.26,10.477-7.827,8.464-10.111,8.311,1.287,3.633,4.312,5.5,1.19,12.464-10.325,2.457-7.924-5.91-9.758L705.8,383.193l-6.45,1.772-0.139-5.364-8.083-1.917-11.855-12.028-1.875-5.315,3.35-7.8-13.869-9.5,8.014-11-0.311-11.031,8.526-5.744,2.6-4.5H690.4l-0.72,2.5,4.623,4.761,7.419,0.215,0.242-7.716-3.446-3.529,0.429-2.8,10.92-1.218,4.1-6.879,5.329-1.945,1.5-4.436Z" transform="translate(-8.194 -14.448)" fill="#ffeb00" stroke="#000" stroke-width="3"/><path d="M316.215,242.527l-7.315-3.391-9.959,3.675-7.432-2.893-3.135-4.422-10.194-4.111-8.194-1.26L265.2,232.88l-9.46,4.056-8.962,6.325-2.81.187-1.4-2.457-9.149,5.633-1.066,21.751-6.229,5.349-13.7-2.2-2.65,1.038-3.882,7.612-16.533,1.606-9.744,5.758-8.041-1.543-7.744,7.944-3.785,3.972-7.959-.976-8.284,6.734-7.647,2.768-4.581-3.176-4.893-9.869-9.26-10.125L96.6,276.519l-1.529-2.339-7.516,3.148L76.8,277.259,74.54,269.6l-2.526-1-6.477,28.048-4.865,13.412-5.481,6.678-0.547,2.838,3.266,4.54,2.74-.187,2.5,7.868L55.032,346.04l8.713,13.869,26.208,28.263-10.1-2.81,0.824,10.907-2.99,7.543,1.363,10.747,6.18,8.809-1.986,5L70.5,424.455l-2.041,1.758,2.99,7-15.827,15.71L50.437,447.4l-1.453,6.823-2.45.526-2.464-1.108-11.017,7.627-7.931.284,10.6,8.325,5.426,0.768L37.537,480.4l-7.9.145-2.616-.623-1.592,2.159-5.446,6.311-2.74,10.81,1.668,8.139L10,524.429l6.727,7.612,2.374-1.308,16.471,2.879,4.99,12.865,4.526,3.35,0.865,12.595,9.8,8.54-0.519,2.623,4.505-2.567,3.869-6.719,7.488,1.149,9.031,1.246,0.284-2.734,8.893-5.945L90.679,550l4.906-2.394,1.3-5.19,5.53,5.045,1.176,6.81,3.744,12.989-3.066,7.64,1.571,4.837,3.516,2.554,5.176-1.543,13.557,8.865L135,597.684l11.744-2.768,4.422-5.827,4.166-7.107-0.069-.325,0.159-10.706L164,560.742l4.609-3.287,4.083-3.46-6.18-8.54,7.08-3.841,11.329,1.246,5.045-2.582,13.274-3.6,3.052-7.73-2.45-13.613-8.207-13.772,7.959-8.228,0.81,2.138,1.01,6.526,9.08,5.121,1.287,7.488-0.229,4.512,0.99,8.055-3.571,6.92,5.772,5.647,9.446,5.032,6.041-4.879,14.6,11.419,6.747-.429,19.516-5.446,8.055-.395,1.094,15.813-0.325,11.232,3.744,4.284-0.581,2.692,2.311,1.446,6.934-4.312,16.194,0.906,13.315,13.827,5.419-.727,6.623,4.768,7.474,3.246,2.65-.678,2.484-4.837,13.37,0.989,6.92-23.883-0.637-10.893-20.9-6.962-4.471-6.5,10.526-2.81,4.152-6.782,8.125-.1,0.2-2.706-9.37-9.626-2.215-1.516,1.35-10.554-2.159-1.543-6.664-3.018-4.526,1.689-13.73-3.322-12.817-21.245L308.9,476.8l-10.166-2.637,11.716-7.094,7.377-1.744,20.208-4.72,5.218-6.1,9.689,5.26,8.139,0.215,1.391,7.972-7.287,3.031,2.664,12.962,2.484,1.08,8.72-5.647,1.135,2.457,1.26,4.395,4.485,2.152,2.367-4.768,7.986-14.533,8.1-7.363,5.855-2.664L404,462.743l2.567-.741,7.149-2.45,1.931-4.761-12.879-16.263,3.474-7.516,12.678-5.6,9.585-9.557,3.945,10.539,5.419,6.664,5.855-2.408,9.432-11.53,1.592-1.543,4.069,1.661,9.91-2.838,0.443-2.567,7.516-2.283,2.242-7.868-4-18.11,4.408-7.107,13.329-4.581,5.432,0.526L506.66,382l14.921,16.111,3.619,1.433,1.661,5.017,5.8,5.758,11.924,5.433-1.446,3.889-0.408,2.637,10.477,14.762,2.754,4.623,4.18-3.432,10.692-1.273,9.474,9.273,5.121,12.111,4.284-2.637,6.083-5.529L595.4,441.8l4.339-10.125,14.665-12.553-8.837-9.218,0.139-5.135-2.325-1.052,3.038-3.377-1.661-4.228-32.588-20.533-9.274,4.367-1.149-6.582-0.27-3.661,2.768-11.868-1.336-7.972-0.5-1.218-5.045-6.153,4.381-2.838-0.242-7.35,1.7-1.841,3.038,3,4.229-2.027-2.083-10.284,5.135-1.758,1.08-10.6-3.675-5.391-3.772.948-3.633-3.758-4.069-12.92,7.287,3.191,3.35-4.3-8.353-6.692-0.408-2.74,5.46-14.014-12.055-2.214-9.08,3.972-8.207-3.917-1.274,2.692-5.35-.3-6.242-5.108-6.81,4.014-5.391-.145,0.125,2.706-5.08-2.187-1.986-7.758-7.232-3.488-1.855,5.364-5.052,2.582-19.031,3.038-5-2.242-5.432.948-12.464-5.121,2.152-8.824-8.512-13.4,0.339-8.124-2.526-4.325-7.2,5.869-4.166-3.148-0.429-13.357-3.287-14.153-5.377-11.37-0.055-5.045,3.972-16.748L424,152.3l1.7-8.353,1.308-12.852-7.53,1.945-7.972,7.661-10.221,3.931-13.488.111-13.342-3.661-4.851,2.069-0.443.824L355.644,141l-10.339-9.08-12.865-5.336-13.73-.381-3.7,10.153,2.242,10.526-8.152,7.094,4.166,7.19,0.824,8.041,10.152,12.38-5.176,9.661-5.419.637-1.869,8.243,2.381,5.108-2.041,5.246,2.242,5.149-1.474,8.028,8.325,7.377-4,3.619Z" transform="translate(-8.194 -14.448)" fill="#ffeb00" stroke="#000" stroke-width="3"/><path d="M367.551,535.836l-8.139.1-4.139,6.8-10.526,2.8,4.471,6.5,20.886,6.962,0.65,10.893-6.92,23.9L367,598.086l-0.3,5.474,7.46,3.35,8.207-.484,6.409-5.08,5.419-.215,4.879,2.138,16.152,23.1,6.8,5.108,18.111-16.609,23.7-17.032,18.789-12.789,12.491-5.7,6.526-12.312-0.948-11.149-1.01-2.637-5.232-2.042L488.2,538.654l-4.215-3.7-4.242-2.678-4.408-4.678,2.311-5.232-2.173-11.045,4.734-7.135-0.229-2.851-4.381-3.675-10.194,4.256L462.3,497.3l-17.114-7.758-10.152-7.19,6.477-12.505-10.54-9.6-2.74-.824-7.031-5.26-5.543.706-1.931,4.768-7.135,2.436-2.567.754-3.758-3.7-5.855,2.664-8.111,7.377-7.972,14.519-2.381,4.782-4.471-2.159-1.274-4.395-1.121-2.457-8.734,5.647-2.471-1.08L355.2,471.07l7.3-3.031-1.391-7.972-8.139-.215-9.7-5.26-5.2,6.1-20.208,4.733-7.391,1.744-11.7,7.079,10.152,2.651,8.747,7.121,12.817,21.245,13.716,3.336,4.526-1.689,6.678,3,2.159,1.543-1.363,10.554,2.229,1.516,9.356,9.64Z" transform="translate(-8.194 -14.448)" fill="silver" stroke="#000" stroke-width="3"/><path d="M584.071,580.466l-4.824,2.865-37.765-7.868-8.609-6.491-16.789,2.367-20.962,8,6.512-12.312-0.948-11.149-1-2.637-5.232-2.042-6.242-12.553-4.215-3.7-4.256-2.678-4.408-4.678,2.325-5.232-2.173-11.045,4.72-7.135-0.215-2.851-4.395-3.675-10.18,4.256-3.121-4.609-17.1-7.758-10.152-7.19,6.477-12.505-10.554-9.6-2.74-.824-7.031-5.26-5.53.706L402.8,438.619l3.474-7.53,12.665-5.6,9.6-9.557,3.931,10.539,5.419,6.678,5.855-2.422,9.432-11.53,1.592-1.543,4.069,1.674,9.91-2.851,0.443-2.567,7.516-2.283,2.242-7.855-4-18.125,4.408-7.107,13.329-4.568,5.432,0.512,8.567,7.6L521.6,398.2l3.619,1.433,1.661,5.017,5.8,5.744,11.924,5.446-1.446,3.883-0.408,2.637,10.477,14.762,2.754,4.623,4.18-3.432,10.692-1.273,9.474,9.273,5.121,12.111,4.284-2.637,14.353,19.274,25.827,13.626,25.626-18.263L669.8,460.294l6.242-4.471,28.706,6.609,2.187,4.921,0.256,11.46-21.183,7.959-13.9-.934-7.585,3.917-19.64,16.581-31.045,33.536-15.813,19.515Z" transform="translate(-8.194 -14.448)" fill="#ffeb00" stroke="#000" stroke-width="3"/><path d="M672.147,443.961l3.9,11.9,28.706,6.6,2.187,4.921,40.941-19.627,18.637-21.453-0.72-.381,19.4-22.249-7.121-8.568-7.972-1.73-0.554-10.242-12.436-9.882,4.485-3.121-1.107-5.273,3.785-7.315-4.229-6.028-4.893-.408,0.083-2.45L754,344.6l-6.865-2.907-4.761-5.674,3.869-11.952-5.045-5.73,13.287,0.269,4.782-.609,1.4,7.079,13.986-14.042,0.367-4.651-14.111-.3-3.606-7.758,2.408-5.149-4.2-6.934,7.232-3.391,4.623,2.187,8.464,8.152-2.74,4.028,8.409,4.748,5.53,6.111,3.176-4.5-4.027-2.326-2.014-7.758-4.139-2.734-4.471-11.744L774,276.915l-6.409-12.789-9.329-.754-6.325,5.5-10.1-3.813-12.18,6.775L717.117,282l3.557,3.73,0.187,3.959-1.5,4.436-5.329,1.945-4.1,6.879-10.92,1.218-0.429,2.8,3.46,3.529-0.256,7.716-7.419-.215-4.623-4.761,0.72-2.5H685.76l-2.6,4.5-8.526,5.744,0.311,11.031-8.014,11,13.869,9.5-3.35,7.8,1.875,5.315,11.855,12.028,8.083,1.917,0.139,5.364,6.45-1.772L717.885,394.6l5.91,9.758-2.457,7.924L708.875,422.6l-5.5-1.19L699.74,417.1l-8.311-1.287-8.464,10.111-10.477,7.827,0.554,5.26Z" transform="translate(-8.194 -14.448)" fill="#ffeb00" stroke="#000" stroke-width="3"/><path d="M932.633,237.025l1.287-2.069-10.567,3.972-13.342-4.512-3.287,4.083-1.149,5.121-2.65.339-2.028,4.678-11.232,4.623L898,258.706l-1.474,7.647,3.889,3.447-3.959,6.242-7.315-4.692-2.637-.65-2.54,7.246-7.162,2.678-0.111,5.433-3.647-3.287-12.623-8.637-21.17,8.069-7.7,10.207-2.041,1.931-7.689,8.194-10.99-2.45-3.08-4.325-7,9.315,4.879-.65,2.353,4.623-1.592,3.571-6.436-.664-2.65,3.163,4.187-.484,5.287,1.772,6.81,8.422,19.37-3.7-3.945,6.637,3.675,3.336,16.665,13.952,3.094,13.384-1.322,2.436-0.367,5.647,20.817-8.72,19.343-4.353,17.3-.809,20.007,2.408,4.5-11.419-14.844-16.167-5.19-.2,0.27-.312L918,324.7l9.53,5.26,13.516-2.5,16.083,2.27-0.353-8.568,12.014-11.938,13.446-25.245,0.526-8.028-17.758-31.225,0.422-2.187,1.308-4.865L959.291,224.5l-12.623,5.052-3.945,6.907-4.976,2.471Z" transform="translate(-8.194 -14.448)" fill="#ffeb00" stroke="#000" stroke-width="3"/><text transform="translate(240.408 381.211)" font-size="152.241" font-family="DejaVu Sans" font-weight="700">5</text><text transform="translate(693.96 201.348)" font-size="152.241" font-family="DejaVu Sans" font-weight="700">4</text><text transform="translate(794.398 257.501)" font-size="72.165" font-family="DejaVu Sans" font-weight="700">3</text><text transform="translate(895.6 302.499)" font-size="89.751" font-family="DejaVu Sans" font-weight="700">9</text><text transform="translate(792.845 356.967)" font-size="48.267" font-family="DejaVu Sans" font-weight="700">1</text><text transform="translate(785.081 281.882)" font-size="15.968" font-family="DejaVu Sans" font-weight="700">2</text><text transform="translate(687.087 359.525)" font-size="74.867" font-family="DejaVu Sans" font-weight="700">8</text><text transform="translate(363.512 530.123)" font-size="102.642" font-family="DejaVu Sans" font-weight="700">6</text><text transform="translate(467.383 474.269)" font-size="102.642" font-family="DejaVu Sans" font-weight="700">7</text><rect x="343.873" y="257.313" width="107.838" height="107.838" fill="silver" stroke="#000" stroke-width="3"/><rect x="555.319" y="122.42" width="107.838" height="107.838" fill="silver" stroke="#000" stroke-width="3"/><rect x="844.301" y="281.881" width="46.389" height="46.389" fill="silver" stroke="#000" stroke-width="3"/><rect x="845.568" y="178.153" width="46.389" height="46.389" fill="#d00" stroke="#000" stroke-width="3"/><rect x="720.376" y="372.47" width="33.67" height="33.67" fill="silver" stroke="#000" stroke-width="3"/><rect x="508.144" y="462.485" width="77.31" height="77.31" fill="silver" stroke="#000" stroke-width="3"/><rect x="394.602" y="536.226" width="47.185" height="47.185" fill="#ffeb00" stroke="#000" stroke-width="3"/><rect x="779.845" y="287.05" width="11.63" height="11.63" fill="#d00" stroke="#000" stroke-width="3"/><rect x="759.174" y="323.297" width="33.67" height="33.67" fill="silver" stroke="#000" stroke-width="3"/><path d="M758.489,679.048L810.62,659.1l14.353-102.587,17.965,20.65,20.12-28.529L872.7,538.42l-11.711-34.032,15.235-18.844-4.05-39.45L855.926,400.35l25.36-9.379,31.568-4.053,38.348,25.8,15.5,24.525-8.938,28.308,17.126,33.377-44.559,59.261,31.041-4.139,14.971,29.41-10.126,22.8-40.947-4.316-16.863,20.123-10.655,33.2-26.594-19.327-76.436,89.773Z" transform="translate(-8.194 -14.448)" fill="#ffeb00" stroke="#000" stroke-width="3"/><text transform="translate(874.544 487.848)" font-size="101.594" font-family="DejaVu Sans" font-weight="700">2</text><rect x="863.232" y="532.498" width="49.634" height="49.634" fill="#d00" stroke="#000" stroke-width="3"/><polyline points="847.732 385.901 798.197 298.167 904.661 372.47" fill="none" stroke="#000" stroke-width="3"/></svg>