<svg xmlns="http://www.w3.org/2000/svg" width="970.139" height="696.822" viewBox="0 0 970.139 696.822"><title>1T Législatives 2017 Gers</title><path d="M258.532,591.765l4.313,2.909,9.41,11.4,11.136,3.239,11.6-2.755,6.838,6.163,2.962-.852,3.308,4.812,5.841,1.95,8.2,8.527,11.5,3.868,1.535,9.141,2.441,1.888,3.047,5.265,12.564,8.112,0.023,9.141-0.506,11.359,4.091,7.391-1.166,5.679,5.449,5.932,1.005,8.949,13.247,15.7,4.129-1.62,5.71-10.745L383.98,695.23l3.692,0.315,7.568,3.96,2.717,8.1,5.373-1.4,9.755,6.524-2.425,8.964,5.549,2.609,24.03-1.727,1.443,7.552,4.252-6.807,13.838-4.183,1.735-5.91-1.259-20.853-14.974,2.832-0.952-21.928-3.815-11.888,8.972,2.486,11.835-1.243,7.813,5.127,12.257,0.974,2.556,8.381-3.722,4.95,7.514,3.645,7.759-4.467,2.349-5.426,8.841,0.9,5.112,14.689,8.2,4.482,7.061-13.938,15-4.59-0.837-9.141,1.19-2.671,5.6,1.873-0.43-3-2.786-8.32-13.73-10.883,1-5.771,4.4-4.152,25.6-.706,2.778,1.082,1.343,5.549,5.058,0.062,3.86-3.285-0.438-2.97-5.219-2.909,0.8-5.917-7.99-8.32L575.9,607.864l4.313-10.507,7.637,4.075,16.01-6.578-3.745-8.649,4.152-12.863,20.009,1.666-0.829,10.377,5.081,6.939,12.779-3.032,3.914,1.021,3.407-7.69,11.436,2.97,5.265-2.387,6.1-5.979,2.3-8.067,7.706,6.263,5.6,2.5-0.491,9.057,2.717,5.365,18.113,0.822,0.545,5.948,2.571,1.65,2.318-2.011,9.348,7.675-2.717,2.816,0.537,3.085-8.059,9.44,1.52,2.717-11.182,4.03,7.36,4.859-2.625,5.549-11.5,2.395-2.279,1.857,1.558,2.517,12.518,17.614-10.622-5.694-12.1-.077-12.142,2.294-1.3,2.816L673.38,668l-5.656-1.8-7.33,4.528-3.745,9.341-4.075,8.8,0.706,2.717,8.09,2.041,0.767,5.081-0.952,7.452,4.206,10.254,24.061,14.567,5.227-3.27,17,14.076L724,743.627l13.953,6.463,3.692-3.477,5.656,6.278,10.553,3.6,6.908,3.347,1.543-2.095,8.4-16.086,16.808,13.116,18.842,9.041-0.837,5.963,2.525,5.35,7.015,1.527,7.383,2.356,15.028-8.036,14.352,2.426-9.44,12.3,8.719,11.988,19.518,6.892,12.265-20.4,10.991,5.741,5.887,6.954-5.3,2.97-8.557-1.136-1.466,5.917,13.032,12.5-8.849.253-5.18,13.493-11.5,2.08,2.441,1.121L868.363,839.8l-3.016,5.035L881.1,856.312l1.658,2.095-4.467,2.94,1.121,2.441-2.671-.837-0.729,5.549-1.059,5.441-6.577,4.735-2.118,4.735,1.4,1.827,4.928,7.345-3.792,7.836L856.736,898.5l-6.769,5.91,5,14.583-1.758,5.948,4,3.96-1.42,2.8-4.9,2.126-1.113,7.138-8.565,3.131-9.149-7.3,1.5-5.756-3.438-8.143-10.852,1.289-1.7,3.9-11.09-12.741-1.174-5.265-5.28-2-0.092-2.863-8.181-1.335-1.619,2.279-10.821-4.26-3.316-.537-5.948-.767-4.566-3.914-1.988,2.249-2.824-1.036-8.258,4.121-15.565-6.37-4.3,4-4.106,11.09-0.23.407L704.135,895.8l-12-.315,3.277,8.442-1.366,2.74L690.8,911.9l-1.75,2.5,2.84,5.41-4.8,7.437-8.32,8.6L668.2,929.844l-8.051,12.924-1.919,3.039-0.913,1.712-3.277,6.163-11.965,17.99-0.392,2.5-12.042,10.852-7.836,4.5-21.267-2.955-3.162,4.306-4.636-2.486-13.063-6.761-5.6,1.228-15.68-8.949-4.82,2.395-1.75-.407-14.552-5.173-5.695.138-5.38,6.463-2.724.468-8.957-6.37-4.459.092-7.729-3.661L491.8,964.106l-1.313,11.5-15.81-.138-14.951-5.549-1.427-2.863,3.285-12.564-13.124-3.523-9.571,5.2-11.566,1.289-4.114,3.914-5.557,1.005-3.876-28.812-8.665,6.869-7.26-3.9-1.443-15.365-17.983,5.35-17.668,8.872-8.112,4.5-5.441-1.9-11.1,1.842-5.4-6.417-10.461,3.369-3.93-8.32,2.656,1.182L314.884,908.4l-11,3.462-5.611-5.6-2.548-8.918-6.455-6.624,2.325-9.486-0.422-.852,18.665-7.521L302.88,859.7l-0.061-.767-4.674-6.877-2.356,1.589-5.234-1.919-3.761-7.345-2.256-14.912,1.758-2.172-1.635-5.319-9.931-16.516-13.27,6.4L255,805.46l-0.928-5.917-8.373,4.075-9.21.584-8.98-16.324L221.119,781l-9.31,1.051-4.129-12.994-7.253-6.746-3.208-24.767-5.5-11.436-12.073.721-0.238-2.471-2.747,1.1-3.96-4.29-7.79,4.075-11.819.269-0.891,12.065-14.3,3.032,0.476,6.324-16.593-2.717-4.367,3.776-6.209.077-8.189-3.9-4.459,3.614-2.786-.192-9.433-13.654L67.782,745.494l-3.653-8.32-11.873,3.239-6.585,5.948L43.107,744.6l-4.336-10.522-2.947-.046L40.26,716.69l-17.722-.077-4.666-6.939L17.48,692.253l9.878,5.533,2.356-1.62,1.021-8.3,1.712-4.705,8.427-1.6,1.965-8.127,2.31-6.578-9.256-1.527-1.811-2.579,1.42-6.163,8.7-9.072-4.014-14.943,16.409-8.7L74.92,607.5l-1.65-8.826-14.483-3.193,3.223-4.828,3.085-.584,0.921-3.032-5.158-11.512,0.553-9.233-4.766-4.03,2.272-8.588L53.5,543.654l7.161-4.39,2.2,2.94,11.681,0.077-1.067-18.021,4.237-4.136-2.333-5.694-10.1-15.979,3.055-2.456,5.6-7.153L78.3,491.45l2.08-1.351,11.7,16.7,5.8,2.188,15.357,13.224,5.441,1.934,0.737,0.092,7.606,9.31,13.776,5.127,3.868,4.152,11.313-.077,2.625,5.127,2.64-8.649,8.442-.721,2.241-2.041,0.2-9.01,8-3.822,0.936-2.755,19.64-12.609-0.545-5.457,16.785,6.447,2.51-8.365,8.727,3.131,18.842,11.65,14.322,16.516,3.047,0.822,10.576-6.908,2.863,1.351,1.773,9.141,1.588,5.848-4.4,7.829-0.069,6.055,3.193,8.112,7.253,4.958-3.715,3.792,2.149,7.268-17.238,6.209-8.818-2.441Z" transform="translate(-15.922 -295.991)" fill="#ffeb00" stroke="#000" stroke-width="3"/><path d="M200.034,502.858l16.793,6.447,2.5-8.365,8.727,3.131,18.842,11.65,14.322,16.516,3.047,0.837,10.576-6.908L277.7,527.5l1.773,9.141,1.588,5.848-4.4,7.836-0.069,6.055,3.193,8.1,7.253,4.958-3.715,3.807,2.149,7.252L268.242,586.7l-8.818-2.426-0.891,7.483,4.313,2.909,9.41,11.4,11.136,3.239,11.6-2.755,6.838,6.163,2.962-.852,3.308,4.812,5.841,1.95,8.2,8.527,11.5,3.868,1.535,9.141,2.441,1.888,3.047,5.265,12.564,8.112,0.023,9.141-0.506,11.351,4.091,7.406-1.166,5.679,5.449,5.932,1.005,8.949,13.247,15.7,4.129-1.62,5.71-10.745-1.236-11.988,3.692,0.315,7.568,3.96,2.717,8.1,5.373-1.4,9.755,6.524-2.425,8.964,5.549,2.609,24.03-1.727,1.443,7.552,4.252-6.807,13.838-4.183,1.735-5.91-1.259-20.853-14.974,2.832-0.952-21.928L440.507,661.4l8.972,2.486,11.835-1.243,7.813,5.127,12.257,0.974,2.556,8.381-3.722,4.95,7.514,3.645,7.759-4.467,2.349-5.426,8.841,0.9,5.112,14.689,8.2,4.482,7.061-13.938,15-4.59-0.837-9.141,1.19-2.671,5.6,1.873-0.43-3-2.786-8.32-13.73-10.883,1-5.771,4.4-4.152,25.6-.706,2.778,1.082,1.343,5.549,5.058,0.062,3.86-3.285-0.438-2.97-5.219-2.909,0.8-5.917-7.99-8.32L575.9,607.869l4.313-10.507,7.637,4.075,16.01-6.578-3.745-8.649,4.152-12.863,20.009,1.666-0.829,10.377,5.081,6.939,12.779-3.039,3.914,1.036,3.407-7.69,11.436,2.97,5.265-2.395,6.1-5.963,2.3-8.067,7.706,6.263,5.6,2.5L686.542,587l2.717,5.365,18.113,0.806,0.545,5.963,2.571,1.65,2.318-2.011,9.348,7.675-2.717,2.816,0.537,3.07-8.059,9.456,1.52,2.717-11.182,4.03,7.36,4.859-2.625,5.549-11.5,2.395-2.279,1.857,1.558,2.517,12.518,17.614-10.622-5.694-12.1-.077-12.142,2.294-1.3,2.816,2.256,5.35-5.656-1.8-7.33,4.528-3.745,9.325-4.075,8.81,0.706,2.717,8.09,2.041,0.767,5.081-0.952,7.452,4.206,10.254L689.452,731l5.227-3.27,17,14.076L724,743.646l13.953,6.463,3.692-3.477,5.656,6.278,10.553,3.6,6.908,3.347,1.543-2.095,8.4-16.086,16.808,13.116,18.842,9.041-0.837,5.963,2.525,5.334,7.015,1.543,7.383,2.356,15.028-8.036,14.352,2.426-9.44,12.3L855.1,797.7l19.518,6.892,12.265-20.4,5.91,1.527,9.962-6.37,6.063-.062,4.743,3.585,3.676,8.335,5.6-3.362,8.2-7.737-3.983-10.062,8.527,2.026,20.339-2.111,4.889-13.607-1.765-2.341,8.112,3.4,8.573-1.65,8.2,3.07,0.622-24.046L976.81,726l-4.928-7.629-6.194,6.493-8.327,1.543-10.469-14.544L949.579,699l-5.35-5.618-5.173-.752-4.666,3.07-5.58-.476,0.384,2.74-16.47-6.731,0.23-5.633,7.061-9.125-5.173-3.446-12.157,2.41-8.028-8.512-2.939.269-0.783-2.7-5.1-1.965,1.512-2.371,0.576-5.756,4.359-3.792,0.653-5.725,3.776-4.2-6.255-4.09-10.031-6.685-8.719,1.573-1.98-2.31-2.533-5.6,1.926-2.41-7.468-5.265-17-14.552,4.083-.062-11.459-13.907-5.6-.238,2.5-1.635-7.046-9.433-3.346-14.061-7.767-4.06-11.988.822-4.068,4.6-8.742,1.412-4.413-3.822,5.664-19.993,5.741-7.168L805,521.649l-19.525-7.122,0.1-8.473,11.3,0.69-5.6-11.274-11.789-10.223-2.072-12.3,1.826-5.05,9.755-4.935,2.625-1.873-10.07-4.828-0.675-4.859-8.427-2.909-6.915-9.387-5.611,1.965-2.563-1.527-1.819,5-5.879,1.067-13.3-8.143-6.946-6.624-25.634,9.2-6.171-14.974-0.284-6.009,15.442-8.711,0.883-2.878,4.62-7.3-0.468-3.1,6.132-6.969,2.395,0.376,2.456-3.929,0.453-.783,11.651-14.015-1.121-6.263-5.035-4.229,3.3-5.05-5.18-7.422,3.477-4.421,5.6-1.051,7.552,4.106,6.04-9.2,5.6-.392,4.429-3.446-7.253-3.177-1.888-4.973-9.11.63-9.54-7.813-5.58,3-10.53,7.552L699.9,342.606l-4.889-10.522,1.4-8.98-3.492-4.751-1.934-8.32-5.549.3L669.3,317.224l-6.025-.63-8.727,11.965-7.69,2.609-2.072,11.689-11.106,4.313-5.28-7.6-1.458-9.026-13.416-5.979-3.745-11.183-17.345-11.919,1.243-2.786-5.588-1.121-4.935,2.341-5.588,1.589L571.317,314.5l-5.373,2.157-13.255,4.782-17.514-8.872-4.475,10.96-2.034-5.3-10.392-1.981-2.51,4.782-14.406-1.765-5.917,8.772-0.238,1.212-5.127,14.183-15.342.423-7.322,5.664-6.309.63-2.717,1.7-7.529,10.207-6.217-.123-10.315-6.386-21.045,6.892-6.04-1.965,1.665,11.543-8.174,2.955-1.627,2.486L385.69,371.33l-5.795-.077-3.024-5.441-11.942-.176-11.512-4.643-0.146-11.8-4.436,2.41-4.728-1.274-2.6-1.5L333.04,356.6l-5.411.491-2.395-1.2-5.772,11.167-9.732,7.613-0.476,12.58-2.778,5.518L300.6,393.81l-8.765-3.054,1.551-15.473-9.233-7.514,0.368,3.039-13.063,11.965-20.446,2.041-5.549,8.067-0.077,6.263-7.836,9.233,9.471,19.755,3.354,18.711-3.914,8.458-6.831,6.309-11.305-4.636-5.288,3.177L211.789,448.97l-23.708-15.35,16.869-14.36,0.084-9.456-4.282-4.574-22.963-20.952-5.234,18.2-11.19,4.751-9.118,12.518-2.985,1.036-8.2-4.06-3.983,4.9,2,10.691-4.6,3.147-14.9-14.689-6.347,6.524-8.88-2.686-5.618,7.045-5.695,2.072-7.161-5.879L70.541,446.913l-5.925,2.625-4.7,3.7-4.359-3.883L52.7,450.3l-3.17,8.442-4.866,3.285,5.28,6.263,5.618-1.258,5.18,2.847L64.8,473.4l5.319-.077,4.72,3.415,5.4,13.385,11.712,16.685,5.8,2.2,15.357,13.224,5.441,1.934,0.729,0.092,7.614,9.295,13.776,5.127,3.86,4.152,11.313-.062,2.633,5.112,2.64-8.634,8.435-.721,2.241-2.041L172,527.462l8-3.822,0.936-2.74,19.632-12.625Z" transform="translate(-15.922 -295.991)" fill="#ffeb00" stroke="#000" stroke-width="3"/><text transform="translate(473.063 600.822)" font-size="168.839" font-family="DejaVu Sans" font-weight="700">1</text><text transform="translate(418.879 267.425)" font-size="168.839" font-family="DejaVu Sans" font-weight="700">2</text><rect x="541.405" y="139.194" width="119.594" height="119.594" fill="#ff8080" stroke="#000" stroke-width="3"/><rect x="329.771" y="448.806" width="119.594" height="119.594" fill="#ff8080" stroke="#000" stroke-width="3"/></svg>