<svg xmlns="http://www.w3.org/2000/svg" width="950.352" height="658.766" viewBox="0 0 950.352 658.766"><title>1T Législatives 2017 Tarn-et-Garonne</title><path d="M734.7,426.979l-5.842,1.54-1.823,6.329L720.692,420.7l-12.879,1.726,12.127,12.445-6.9,12.693-6.957.779L694.464,440.4l0.345-20.713L684.2,421.279l-4.382-5.639-6.9.106-10.312.5-2.407,2.7,3.727,13.782-8.321,6.692,0.558,3.558,8.6,6.346,3.107,10.427,3.868,9.055-5.258,7.6-4.461,8.763L641.726,490.6l-6.453-.089-7.931-7.294-6.577-15.853,4.505-9.3-11.215-13.277-9.861,2.682-6.612-1.54-2.2-6.453-8.205-5.656L579.242,449.5,572.948,453l-1.886,10.578-19.828,14.57-2.027-.8-21.731,14.49L514.7,498.3l-14.738,20.465-12.41-21.784-5.417-4.585-7.17.85-6.081-3.178-9.958,2.487-16.358-7.382,3.381-5.409-1.054-12.623-13.225,1,4.718,9.869-8.347,16.34-5.825,3.877-0.354,10.666-16.3,15.057-1.921,3.142-0.194,3.629,2.346,2.832,24.652,15.694,1.5,3.408-7.719,7.887L406.8,548.005l-8.94,5.709-10.144.708-10.569,14.42-0.921,1.284-11.153,13.436,1.018,10.135L391.65,612.87l5.9-4.081,17.951,3.248,4.249,5.709-0.823,10.807,11.923,12.3,5.391,4.859,4.24,13.968,6.09,11.136,2.9,6.294-2.213,2.665,1.69,16.871,1.23,7.143,9.126,5.771L456.08,719.2l3.054,10.215,5.8,4.32,0.142,7.019L449.1,755.107l1.345,3.319,6.639-2.646,16.429,6.656,13.375-4.223,1.292,7,9.445,15.163,0.5,1.292,6.108,12.729,3.036,17.287,11.959,7.188,4.842,0.832,32.079,7.126,3.222,0.948L584.4,838.986l5.364-11.286,8.055,6.8,3.142,13.6,3.567,0.186,13.215-11.613,0.735-6.533,6.108,2.47,5.9-8.311,1.991-9.975,16.411,2.9,10.533,0.186,2.938-1.708,0.239-13.26,2.762-6.621-8.7-5.515L636.194,786.9l0.61-6.913-3.222-5.948,9.852,2.939,2.948-6.462,10.631-2.39,17.225,5.134,25.13-.31L696.3,760.275l6.471-11.029,7.409-11.826,6.1,2.921,6.842-1.159,2.452-6.073-4.815-13.074,10.047-.222,3.523,0.416,2.753-6.567,12.693-6.134,10.879-22.093-8.028-16.473-9.861-4.683-10.206-.363-2.169-6.949,3.868-17.739-12-8.311-0.212-12.658,4.426-8.507,2.461,2.646,6.825-2.107,13.941,3.505,10.18-3.594,14.313,1.159-0.044-3.461,8.515,6.5,9.861-2.612,23.66,18.774,11.675-3.7-4.479-8.993,9.772-9.143,4.143-9.268,14.535,19.367,9.1,4.948,2.328-11.428-7.86-18.721,5.036-12.428,3.186-.292,3.877,8.763,3.134,0.673,11-8.674,13.393,5.134,6.612-2.9,8.816,11.047,8.365-5.691,3.036-4.3-17.677-16.42,11.2-7.967,6.975,0.522,10.233,7.674,6.559,8.285,10.569-.929,9.914,4.223,11.091-7.948,5.116,3.009L981,566.2l-16.039-6.842-1.593-6.913,4.85-5.329-4.594-5.222-10.073-2.8-10.613,1.31L938.6,554.1l-4.727-5.063-0.77-10.215-4.134-5.355-12.667,4.2,1.425-3.116-6.825-7.02,1.328-6.639-11.551-6.453,3.231-5.5,10.312,0.363,17.907-31.689,8.205-5.2,4.514,4.665,9.764,0.85,1.655-23.342,4.842-12.375-9.869-4.081-10.613.222-2.364-2.682L909,439.285,884.474,425.7l8.569-11.613-14.809-19.81L889.909,380.6l7.223-.345-2.665-5.045-22.811,8.453-3.417-6.072-10.17,2.8-5.435,12.135-13.083-6.71-2.354-7-9.233,2.85-1.761,6.294-6.028-.018,3.6,6.346-4.125,5.966-6.9,2.054L802.3,392.965l-14.039-3.284-5.9,8.834-16.641,6.453-6.524-2.886L739.067,419.6l-3.346-.434-0.584,5.1Z" transform="translate(-32.776 -316.825)" fill="#ffeb00" stroke="#000" stroke-width="3"/><path d="M120.63,687.687l-2.186-5.754-10.507.743-11-9.029L90.5,677.126l-12.145,8.693L53.287,700.8l-5.639-12.135,1.611-10.357-4.028-5.479L43,663.238l-6.4.345-2.239-9.975,6.586-12.357,0.248-7.09,4.8-12.065,15.543-12.676,5.187,4.169,12.534,2.956L75.177,607.8l3.311-12.516-7.4-12.967,6.647-2.5,18,2.372,26.272,12.844,1.806,3.213,8.489,1.106,8.294-5.532,0.257-6.745,2.726-2.036,6.028,2.975,1-6.417-3.806-5.638-2.364-13.092,3.452-5.86,0.177-3.558-5.869-3.86-9,5.2-4.78-4.806-7.737-1.265,0.036-9.941,4.523-8.9,0.983-.257,31.689,3.081,19.66-42.2-7.63-8.418,10.312-13.641-3.78-16.978,9.834,3.355,7.479-11.392L174.27,429.5l-1-3.426-5.338-11.188-16.066,5.789-8.48-11.551-10.8-1.664,3.824-8.834-0.929-6.223,7.559-5.045,9.622-18.774-3.089-3.886,1.009-6.462-4.55-9.037,4.983-8.922,3.505-8.506,9.215-1.85,6.78-1.54,2.85,6.762,10.25,9.887,3,25.484,0.85-.036,1.292-10.3,4.6-5.639,24.732,0.071,10.241-10.144,16.579,6.037,7.135-.885,14.057,1.646,10.038-3.523,0.327-10.649,2.567-2.452,14.207-3.231,14.57-10.861,22.687-2.089,1.452,20.456-2.638,2.417-7.205-.106-13.472,5.55-7.1-.832-3.647,10.3-5.957,3.771,4.3,5.692,7.01-.036,6,3.921,7.081,8.09-3.134,13.57,8.2,6.931,1.886,2.576,5.762-1.4,6.346,1.726,9.374,8.347,6.17-2.647,7.108,6.187,7.479-6.878-1.159,16.544,5.24,8.436,11.233,6.276,2.974-1.726,7.09,12.135,5.877-8.2,3.523-.327,9.6,4.355,4.674,9.3,4.745-3.877,3.647-16.774,2.275,2.833,10.8,0.363,7.524-7.834,13-5.169,3.045,0.868-5.727,20.571,4.948,12.207L444.866,467.1l-13.225,1,4.718,9.869-8.347,16.34-5.825,3.886-0.354,10.666-16.3,15.039-1.921,3.142-0.194,3.647,2.346,2.815L430.412,549.2l1.5,3.408L424.2,560.49l-17.42-12.534-8.94,5.709-10.144.708-10.569,14.42-0.921,1.284-11.153,13.436,1.018,10.135,25.555,19.173,5.9-4.081,17.951,3.248,4.249,5.718L418.9,628.5l11.923,12.3,5.391,4.877,4.24,13.951,6.09,11.136,2.9,6.294-2.213,2.682,1.69,16.854,1.23,7.143,9.126,5.789-3.222,9.648,3.054,10.215,5.8,4.32,0.142,7L449.07,755.069l1.345,3.319,6.639-2.665,16.429,6.656,13.375-4.2,1.292,6.983,9.445,15.163,0.5,1.31L504.2,794.36l3.036,17.287,11.959,7.188,4.842,0.832,32.079,7.108,3.222,0.948,25.041,11.206-8.772,11.7L568.621,867.3l-0.894-3.337-12.6,4.24-9.684-2.523-7.17-11.428-6.683-1.691-6.55,2.921L505.606,847.2l-6.975,7.346,0.194,6.763-5.2,4.32,9.17,14.455-1.974,5.824L483.1,887.2l-11.959-7.108L456.2,887.763l-4.311,5.329,6.94,1.761,8.586,11.242,12.932-4.532,17.154,1.089,4.222,20.058-9.294,1.505-3.249,5.461-12.826,2.089-11.038,8-7.329.549-2.142.549-12.95,3.682-2.9-5.621-8.338,3.142,2.2,6.763,5.727,3.319-2.319,2.753L390.94,973.75l-2.054-2.956-2.266-6.533,8.223-6.674-1.664-6.8-24.51-3.957-5.9-10.773-9.294-4.612-4.24-9.905-9.6-4.151-1.744,6.983-12.561,6.745L317.4,942.962l-3.125,1.292-4.417-5.063,2.257-2.523-1.655-2.956-6.586-1.54-10.4-8.542-0.885.921L275.285,942.13l-10.64-.965-6.17-3.647-27.423,4.859-9.6,2.886-3.824,5.346-8.179,4.045-5.709-3.337-6.019.487-1.567,2.027-8.967-4.683-13.826.965-4.692,5.293-10.082,1.647-5.09-4.426,6.541-23.058,6.621-8.25,7.807-14.039-22.51-8.2,0.106-9.772,13.029,0.8-6.453-13.02-13.6-11.772-2.39-14.2,2.106-5.807,11.25-5.709,3.027-2.16-11.613-5.55-0.779-5.621-9.719-3.355-7.975-10.807-6.471,2.249-2.956-1.744-2.1,5.754-6.78,1.248L95.3,810.224l-8.011-7.639-29.565,10.6-7.117-17.252L50.282,789l17.81-10.047,1.018-3.319,5.338-8.436L73.9,763.62l7.073-8.02,2.762,0.433,2.833-4.532,0.522-.921,13.437-16.145L99.232,727.2l-5.807-4.877,3.806-5.824-5.975-8.56,4.01-5.1,6.453-1.2,8.7,4.736,6.966-10.631,6.453-.452,5.1-3.974Z" transform="translate(-32.776 -316.825)" fill="#ffd1dc" stroke="#000" stroke-width="3"/><text transform="translate(508.333 345.825)" font-size="194.725" font-family="DejaVu Sans" font-weight="700">1</text><text transform="translate(163.366 413.436)" font-size="194.725" font-family="DejaVu Sans" font-weight="700">2</text><rect x="263.336" y="421.708" width="137.93" height="137.93" fill="silver" stroke="#000" stroke-width="3"/><rect x="704.107" y="117.349" width="125.691" height="125.691" fill="#ff8080" stroke="#000" stroke-width="3"/></svg>