<svg xmlns="http://www.w3.org/2000/svg" width="810.223" height="963.363" viewBox="0 0 810.223 963.363"><title>1T Législatives 2017 Lozère</title><path d="M519.939,981.408l-28.7-7.114-3.79-.8-16.571,9.588L462,975.89,439.81,970l-19.148,2.147-33.655-6.788-4.593-5.966-3.463-14.256-25.02-15.516-3.52-6.638-14.975-2.3-1.363-11.1-10.792-15.441,1.662-7.441-22.5-2.24-10.886,3.482-13.714-6.75-7.534.579-3.1,6.787-18.634-.495-19.764,10.615-10.288.075-18.4.345,0.9-3.557,6.4-2.866,5.471-9.317,8.99-28.605-27.662-11.436-6.237-9.14-10.652,4.033L166.318,837.1l-4.976-29.669-6.423-3.3L148.683,817.5l-7.076,3.352-5.984-3.884,2.736-23.246,22.975-26.383-6.488-8.767,3.846-14.2-10.923-2.119-6.274-13.7,2.147-14.424-9.336-6.806,1.8-7.441,0.709-11.324-2.9-6.806,13.752-5.872,0.149-18.485-8.356-6.329,2.53-7.1,8.822-7.17,0.859-11.6-5.6-5.321,1.018-3.735L146.4,604.887l-8.421-6.423-6-13.891-14.1-7.385-24.31-24.758,5.8-18.653-1.055-15.385,6.806-30.108L99.661,478.07l-0.327-3.407-13.126-10.1-5.947-8.439L68.34,449.064l-5.088-5.8-9.625-11.52-3.94-10.559L24.34,394.273l2.586-6.348-1.783-3.539,13.033-24.31,13.471-41.012,10.6-5.032,7.674,1.736-3.352-13.434-6.022-3.557,1.129-3.314L63.737,277.1,72.4,266.2l4.761-5.508L73.848,250.38l4.705-9.336-3.193-17.775,1.839-7.235,12.622-17.962,10.157-4.453L96.17,180.212l17.215,3.5,4.21,0.234,0.8-12.3-4.229-12.949,8.038-12.071-1.456-20.567,13-7.73,7.039-13.49,11.474,1.456,6.834,9.355,6.983,10.6,3.5,10.409,6.927,2.773,6.507,8.972,6.871,2.427,4.5-10.7,15.021-3.193,8.552-8.02,7.4-7.478-5.6-9.429-1.223-14.33,18.476-7.021-4.07-17.336,4.472-5.452-1.4-3.286,6.143-2.353,7.6-.019L247.2,69.425l3.753,6.329,14.583,3.631,12.2-14.694,10.6-.42,3.333-6.806,15.385-11.287L320.194,47.4l5.415-18.6,9.028-4.855,1.335,18.672,9.224,6.927L358.853,45.1l7.618,13.471,2.278,17.178L364.52,88.89l7.039,10.484,0.038,11.689,13.024,19.894,4.855,29.137L402,174.536l-1.129,11.287,10.979,10.39,6.544,13.714,6.908,3.613,3.211-2.259,2.24-7.132,10.736-10.5,26.747-4.266,11.306,2.66,10.671-9.523,10.867,9.028,5.76-3.669-2.24-7.459,8.682-25.365-2.222-19.129,10.54-3.977,4.724,5.07,8.916-5.032,5.6,2.24,9.336,0.187,12.566,7.422,5.247,13.948,5.471,4.4-3.1,14.368-9.775,5.779,7.1,8.225,22.481-3.249,5.639-5.144,17.794,4.63,7.385-1.839,1.475-7.1,6.731,2.568,5.639,16.589,7.039,7.749,3.407,17.523,2.409-3.118,3.79,0.971,20.147,17.7,7.655,21.136,2.9,1.9,6.927-7.459,11.035-3.043,6.806,3.52-0.616,7.272-8.841,12.267,7.553,8.384,18.345,3.65,10.39,4.9,1.186,3.669-11.072,19.11-0.038,7.711,5.377,5.508-0.215,11.483,11.035,0.271,0.822,3.65-10.269,15.759,10.9,24.413,7.459,8.365,0.784,8.552-1.3,30.108,9.934,4.836,1.129,3.65L758.3,452.508l9.466,5.583-1.316,7.422,5.359,9.849,20.007-1.111,9.625,21.22,3.79,17.962L816.039,533.2l-1.951,3.267,3.37,1.8,4.556,14.694,0.271,30.631,8.7,16.506-17.635,18.868-2.315,17.887-1.036.383-8.131,12.986-9.719,5.564,0.075,7.674-3.156,2.138-22.042-4.957-8.841,5.07-4.761,9.046-4.472,2.773-4.855-3.156-2.278,5.545,20.24,19.6,10.867,19.549V726.2l10.008,11.361,10.577,2.932-1.7,10.615-0.579-3.576-3.482,10.176-16.534,14.041,1.68,4.883,8.663,7.618,3.3,11.156-4.537,9.336,9.887,9.5,9.373-4.519,8.477,6.871,4.323,5.686-2.847,10.232-13,.915-6.582,9.466,3.557,26.766-2.913.98-6.908,21.407,2.063,3.137,14.116,3.268,5.583,21.295,6.329-.971,0.168,9.009L775.7,908.552l-3.753.421,2.847,22.172-6,2.931-6.433-1.643-0.784,10.9-12.949,3.426L731.5,967.217l-32.236-9.588-5.947.84-3.463,4.574-7.478,4.285-10.979,1.3-19.017-15.721-6.768-1.242-3.884-9.354-3.463-.252-16.086-6.311-7.441-7.879-17.318-2.185-9.028-5.7-6.367-8.879,0.495-3.632-11.091-1.681-2.464,7.1-6.386,3.864-8.15-7.235-9.466,5.984-5.686,18.326,1.876,6.964,10.045,5.583,1.26,3.594-8.972,6.815-2.39,18.69Z" transform="translate(-22.588 -21.531)" fill="#06c" stroke="#000" stroke-width="3"/><rect x="464.87" y="433.175" width="145.475" height="145.475" fill="#ffeb00" stroke="#000" stroke-width="3"/><text transform="translate(312.705 584.186)" font-size="205.376" font-family="DejaVu Sans" font-weight="700">1</text></svg>