<svg xmlns="http://www.w3.org/2000/svg" width="944.858" height="711.648" viewBox="0 0 944.858 711.648"><title>1T Législatives 2017 Ariège</title><path d="M803.849,797.363l-1.207-4.056-11.742-3.9-2.8-5.649,0.369-3.03,8.934-1.905,4.631-3.941-19.2-24.78-2.151-1.954-1.963-5.937-18.081-5.772-7.168-5.534,0.542-6.289,10.756-11.5-0.386-6.125,0.607-6.076,9.172-.37,40.545-3.786,9.139-4.475,17.308-9.032-2.184-6.027,5.173-31.7-6.109-18.2-32.688-9.106L786.5,610.458l-2.948.509-2.184,5.551-0.46,9.016-2.866-.9L772.392,608.6l-17.514-7.439-16.307-.337-7.562,1.33-0.287-6.224,1.9-2.488,6.191,0.64,3.6-8.277-13.991-8.022-7.891-3.563-5.69-7.792-16.947-7.669-5.862,7.053-10.567,6.306L672.605,558.2l3.572-9.188-2.89-5.657,4.237-4.607,0.115-12.489,9.155,0.32,5.4-18.508-8.7-5.633-5.887-2.759-8.153,16.1-4.549,4.893-15.7-9.41-2.045-4.68,2.562-10.33-0.066-6.364-8.95-1.445-3.482-5.3-2.118-5.994,2.422-5.888-9.779,2.02L605.07,470.4l-6.421,1.733-5.756,17.078-2.619,5.017-2.98-.288-12.423-.993-5.658-3.1,2.972-11.594-19.763-5.452-4.959,2.488-1.15,8.835-8.523,3.653-10.518,15.231-4.959-4.221-2.135-6.306,5.3-10.534-2.775-5.6L523.7,463.99l-21.89,5.469-3.547,5.3-17.941,6.306-8.038,8.038-1.577,5.69,1.806,1.142-1.88,8.712-11.446,2.241-0.575,2.915-17.982,7-2.685-1.864,1.133-6.38-6.265.188-9.631,7.554-17.9-6.011-17.965,12.735-2.98-.353-9.754,1.314-1.823,5.649-15.231,3.514-0.263,13.072,15.872,3.112,3.482,5.584,10.789,1.142,26.858-10.009L412.2,554.36l2.734,5.034,3.416,3.063,0.731,9.525,14.549,6.61-2.562.69-11.11,6.683-2.422,19.3,7.349,14.435-0.148,6.642-4.023,5.3-6.257,1.987-4.139-4.844-25.183-5.436-15.576.591-14.8,4.121-10.641-7.653-15.8,2.562-14.837-6.224L297.44,628.1l-2.5,12.415-7.472.756-5.8,6.642-8.876-.164-2.069,2.34-6.429,5.937,0.3,3.03-3.358,8.95-13.819,7.874L246,685.406l-12.39-.739-8.03-5.181-5.042-12.152-5.214-6.273-4.245-4.779,3.588-15.568-1.478-9.459-23.065-42.228-0.912-1.265-8.5-1.831-7.012-7.1L150.211,568.9l-11.159,15.634L129,588l-18.573,4.926-7.291-.993L92.652,598.9,66.32,600.449l7.308,21.028-5.165,7.537-9.172.37-5.345,3.268-9.377-1.142L42.475,633.9l-9.8,6.848,5.28,14.016,4.778,4.311,1.256,6.347-5.321,15.231,2.915,5.772L47.7,688.51l1.987,12.013,6.15,13.729-1.1,11.98,6.175,7.5,12.456,4.524L90.658,753.7l11.2,6.815,3.251,0.69,11.709-11.462,8.728-4.409,16.75,17.67,15.223-3.563,9.139,3.563,13.146,0.509,8.219,4.631L204.534,767l4.015-5.263,7.669,10.379,11.807,5.4,15.428,16.29,4.738,25.947L268.8,836.666l6.454,0.509,10.994-7.488,19.435-4.27,7.981-6.043,9.221,3.5,9.656,8.375,9.007-2.644,9.04,2.709,9.131-3.7,9.8,1.109,11.537-5.888,6.569,0.066,3.35,4.959,12.078-.574-3.867,15.7,7.842,5.986,9.738,2.356,7.62,6.462,1.141,16.643,16.389,16.249,6.142,26.184L460,936.51l13.178,0.525,11.265-7-2.414-22.433,6.429-15.223,9.771-2.225,5.7,7.57,12.579-.993,1.544-2.759,8.342-.574,10.551-5.6,2.513,1.634,15.412,5.649,5.575,11.946,13.819,8.548,22.695-2.693,9.713,2.225,7.776,6.109,16.019-3.835,21.348,8.646,15.913-2.307L668.7,929.9l-7.291,10.97,0.509,9.656,25.142,8.293,9.861-1.191,5.394,8.005,9.475,1.232,17.465-8.449,9.369-2.611,18.984,3.917,6.38-1.461-0.69-6.429,9.172-2.455,4.13-4.91,0.673-9.557,4.729-8.4L789.313,933l9.9-.452,6.043,2.808,5.92-2.791,5.838-8.005L830,924.752l5.091-4.105-0.172-6.027,10.215-18.22,5.017-13.531,2.9-.172,11.4,7.053,6.01,0.96,11.331-4.615,2.6-5.772,9.779,1.651,8.975-3.6,22.793,0.756,14.878-6.832,10.641,7.759,6.4,1.683,9.607-1.749,0.485-6.528,6.125-11.356-3.58-9.253-6.216-7.62-9.713-.69-4.877-4.344-0.8-6.043L930.96,822.468,921.7,815.6l-7.669-4.7-2.225-14.64-0.985.386-18.713-3.621-9.919,7.669-6.281.558L873,806.341l-7.529,1.4L854.163,813.9l-3.678-2.291L845.55,812.7,816.8,809.971l-4.631-8.113Z" transform="translate(-30.857 -256.761)" fill="#ffeb00" stroke="#000" stroke-width="3"/><path d="M469.19,357.275l-7.16-3.5-7.16-2.184L444.8,343.6l6.232-28.082-16.249-19.9-0.575-1.026-15.8-10.773-9.5-16.438,5.115-3.974-19.214-5.116-9.91,1.569-5.115,4.27-5.091,11.5-6.4.64-4.139,8.785-6.314-.772,6.076,14.853-4.967,7.62,25.388,4.105-0.369,3.285-8.038,5.805,12.76,2.644,8.1,5.034,2.98-1.428,8.818,2.5,5.46-2.742,1.289,5.986,5.132,7.1-1.6,8.5-6.8,11.175-9.443-2.225-20.133,8.08,1.248,7.218-5.042,5.772-5.427.944-6.207-4.7-6.585,5.386-13.721-5.994-7.177,3.9,1.24,0.674-10.395,6.683-2.7.468-3.572-5.485-9.746,1.569-1.806,12.817L305.061,404.1l0.172,6.413,4.59,4.311,9.656,1.987,12.431,1.954,12.908-.435,1.971,6.109,18.162,18.573-8.761-.821-5.879,9.976-1.963,2.611-12.694,2.184,0.78,15.617L325.02,475.99l-15.305,2.053-9.131-20.059,1.888-2.217-1.708-5.6-8.63-9.878L275.8,425.411l-5.214,8.613-3.35.049-11.766-6.323-15.206-17.579-8.383,8.113-2.521,4.007-11.865,2-2.431,7.94-17.481-4.615-6.561-6.495-1.174,1.478-2.414,5.518,2.726,4.984-1.026,12.538-8.8,18.647-8.884-1.765-11.167-10.838-5.994-.756,2,8.342-5.205,7.069-2.939.131-0.3,6.544,9.286,9.139-3.728,4.877-5.058,4.139-9.829-.8,5.1,10.091-1.273,8.983,3.621,4.967,3-.525,0.78,8.178-0.854.271-6.068-5.066,3.219,20.511,5.419-.558,7.759,4.967,3.867,8.358,6.224-.172-11.775,3.933-7.283,14.541,23.492,9.927,7.012,7.1,8.5,1.847,0.912,1.265,23.065,42.228,1.47,9.443-3.58,15.568,4.237,4.8,5.222,6.273,5.033,12.144,8.038,5.2,12.39,0.723,1.42-9.525,13.819-7.874,3.35-8.95-0.3-3.03,6.429-5.937,2.069-2.34,8.876,0.172,5.8-6.642,7.472-.756,2.5-12.415,16.036-11.356,14.845,6.207,15.8-2.554L354.791,628l14.8-4.105,15.576-.607,25.174,5.452,4.139,4.844,6.265-1.987,4.023-5.3,0.148-6.642L417.563,605.2l2.431-19.279,11.11-6.683,2.553-.69-14.541-6.626-0.731-9.525-3.416-3.046-2.734-5.05,2.069-8.309L387.446,556l-10.781-1.125-3.482-5.584-15.872-3.128,0.263-13.055,15.231-3.514,1.823-5.649,9.754-1.33,2.989,0.353,17.965-12.735,17.9,6.027,9.631-7.57,6.257-.172L438,514.895l2.685,1.847,17.974-6.979,0.583-2.932,11.446-2.225,1.88-8.712-1.806-1.142,1.568-5.69,8.047-8.038,17.933-6.306,3.555-5.32,21.89-5.469-0.993,12.382,2.775,5.6-5.3,10.534,2.135,6.289,4.959,4.237,10.526-15.231,8.523-3.653,1.141-8.851,4.959-2.488,19.763,5.469L569.267,489.8l5.649,3.112,12.431,0.993,2.972,0.271,2.628-5,5.756-17.078,6.421-1.733L627.8,473.25l9.779-2.037-2.431,5.9,2.126,5.986,3.482,5.3,8.95,1.445,0.066,6.347-2.562,10.346,2.045,4.664,15.7,9.426,4.549-4.91,8.153-16.085,5.887,2.759,8.7,5.616-5.394,18.508-9.155-.3-0.123,12.489-4.229,4.607,2.89,5.649-3.572,9.2,8.851,13.9,10.567-6.306,5.862-7.037,16.947,7.669,5.69,7.776,7.891,3.563,13.991,8.022-3.6,8.293-6.2-.64-1.888,2.472,0.287,6.24,7.562-1.346,16.3,0.337,17.522,7.455,5.649,16.02,2.866,0.9,0.46-9,2.176-5.567,2.956-.509,18.852,7.759,1.675-12.3,11.15-3.67-0.566-3.046,7.234-2.775,12.365,1.428,6.429,6.8,5.961-.657,5.427-7.135-9.262-1.831-3.974-4.762-1.749-19.033,2.57-5.805-1.38-8.564-11.093-4.27,11.315-14.837,0.189-6.174-4.4-7.6-2.455-4.2-10.37-6.93-4.885,2.644-5.731-2.5-3.818-11.643,2.66-5.116,11.832,0.222,1.322-2.759-4.3-8.022-4.959-3.547,4.179-3.6-3.6-16.2,0.591-8.531-4.483-10.567-11.914-1.749-0.41-5.083-7.767-3.753-8.277,2.184-8.2,13.425-1.79-6.076-6.634-6.75,0.033-16.257-4.294,4.68L751.7,421.906l-3.407-15.28-4.3,3.917,1.806,8.769L730.322,420.9l-3.317-3.177-14.122-7.669-12.316,2.562L697.7,406.84l-17.186-10.1-10.633-12.817L660.3,380.7l-9.845.8-1.5-3.03,0.287-9.459,10.165-12.078-2.628-9.065,2.143-2.356-5.46-3.786-11.027-16.422,0.509-12.924-8.8-13.934L623.8,290.994,607.75,311.619l3.613,8.482-0.353,6.577-7.6,6.273-6.5.452,1.445-16.216-21.587-6.323-3.686-5.386-12.809-2.537-2.619-5.986-5.986,1.8,1.659,9.286-2.431,5.937-2.586,1.888-5.838-7.6-6.01-10.716-2.135-2.217-2.586,1.634,0.033-.96-16.816,4.27-1.215-12.234-0.345-6.092-2.611-1.618-3.514,5.034-7.242-5.32-0.846,15.223-4.434,7.94,2.767,5.567-1.182,5.633,4.7,2.184,4.77,4.926-8.424,12.152,7.989,5.1-0.008,6.364,0.082,3.753-11.832-5.32-5.846,2.948-2.209,6.158-4.7,7.1Z" transform="translate(-30.857 -256.761)" fill="#ffeb00" stroke="#000" stroke-width="3"/><text transform="translate(471.817 516.001)" font-size="180.63" font-family="DejaVu Sans" font-weight="700">1</text><text transform="translate(473.221 207.229)" font-size="180.63" font-family="DejaVu Sans" font-weight="700">2</text><rect x="300.802" y="410.207" width="127.946" height="127.946" fill="#d00" stroke="#000" stroke-width="3"/><rect x="370.253" y="113.506" width="90.481" height="90.481" fill="#d00" stroke="#000" stroke-width="3"/></svg>