<svg xmlns="http://www.w3.org/2000/svg" width="987.588" height="708.815" viewBox="0 0 987.588 708.815"><title>1T Législatives 2017 Aude</title><path d="M536.923,543.563l-3.308,4.776-5.834-.827-6.46,22.279-7.98-3.651-5.73,1.192-11.117-3.525-4.813,15.864,1.125,7.652-10.014-2.474L472.6,575.081,475.98,564.4l-1.066-5.313-0.656-.186-29.588-4.671-0.045.276,1.975,2.019-0.618,5.588-6.959,7.25,5.372,6.386-6.736,3.8-15.215-7.012-8.241.917-4.12,7.466-3.748-1.021,1.363-4.732-1.863-4.523,2.138-5.574-8.122-12.778-11.512-1.4,3.83-3.681,0.171-5.484,7.876-2.138,1.736-8.322L408,533.415l2.563-5.387,8.114-2.384,0.075-3.681,6.78-4.307-2.973-4.046,7.824-8.137L427.2,498.1l-8.926-9.925-6.52-.67-2.966-.246L389.047,474.03,391.7,468.4l3.845-4.426,5.73,1.162,1.878-2.258,0.469-17.525,10.916,3.9,11.02-2.9-0.127-7.741,10.484,0.976-6.989-9.664-2.831-14.507-4.612-3.9-14.8-.871-7.138-5.558-4.493-3.927,0.469-2.965-4.813-7.6-0.253-8.875,5.931,6.49,8.8-1.051,1.55-14.842-1.952-5.432-2.377-5.387,0.432-11.616L391.521,336.2,389,328.256l9.686-6.594-0.738-8.733-5.059-10.64,11.2-4.873,2.8-.976,6.11,6.2,21.914,7.012,12,8.368,4.97,0.156,14.924,5.178,5.126-1.923-1.282-2.78,1.855-2.414,12.57-8.092,14.895,1.982,11.668-2.734,2.638-1.006,13.106-.38,2.951,5.1,8.539,2.138,4.091,4.307,18.412-.812,8.517,3.219,2.57-1.706,0.156-.045,11.415,8.978,5.842,0.827-3.889,10.506-8.5.149-2.816-.656-1.714,2.318-5.864,6.8-2.951,11.639,1.8,8.763-9.6,18.411,7.242,8.181,2.556-1.408,17.734,3.1,5.372,13.866,4.873,3.592,0.931,13.561,10.551,9.209-0.559,2.809,4.851-2.764,4.165-7.235,8.062,1.237,9.724,1.356,0.306-2.943,9.574-6.415,1.483-8.614,5.283-2.593,1.408-5.588,5.939,5.432,1.267,7.332,4.031,13.985-3.3,8.226,1.706,5.208,3.77,2.764,5.573-1.662,14.6,9.545,7.436,8.673,12.645-2.965,4.761-6.289L712.8,447.9l-0.075-.35,0.171-11.527,9.239-11.006,4.963-3.539,4.4-3.711-6.654-9.195,7.623-4.136,12.2,1.342L750.09,403l14.291-3.875,3.286-8.338-2.638-14.641L756.192,361.3l8.569-8.852,0.872,2.288,1.088,7.026,9.776,5.528,1.386,8.062-0.246,4.843,1.066,8.688-3.845,7.451,6.214,6.065,10.171,5.417,6.5-5.253,15.714,12.294,7.265-.455,21.012-5.878,8.673-.425,1.177,17.041-0.35,12.093,4.031,4.612-10.8,9.559-2.75.842-4.456-3.495-9.373,6.371-3.025,13.665-3.2,4.165-5.1-1.282-10.417,2.064-3.845,7.026-7.071,3.569-4.828-5.387,1.572,4.717-7.541-.455-4.888-6.639-5.558-1.937-5.357,7.041-2.966.03-5.722-.976-5.208-5.775-4.277,1.714-5.3,2.019-9.851-4.657-4.106,4.582-5.834,1.863-6.229,11.541,6.11,5.082,22.5,9.955,3.927,5.037-0.551,2.064L760.8,519.8l-3.465,10.826-9.91,6.013-3.085,8.338,0.075,11.422-3.495,12.183,3.465,4.9,11.683,0.857,0.671,11.907,7.638,15.99,8.919-.715,5.052,1.207-0.857,14.2L767,621.545,763.763,632.4l-5.5,6.653,8.278,2.928-2.548,8.472,3.815,7.972,15.282,8.978-8.584,28.061,11.437,25.93-13.39,11.862L766.282,753.2l-4,3.13-17.316,5.208-17.592,12-9.113-12.414L698.32,753.2l-4.791-7.727-13.956-5.834-4.7-11.088-8.4,15.394-13.9-4.456-2.869-5.126-3.04-4.873,0.425-11.363L636.38,700.883l13.345,6.974,3.01-.089,6.065-6.691-7.116-5.745-2.273-8.7,2.638-8.793,9.88-15.558-5.678-13.5,1.118-5.849-2.4-8.569-15.677-6.669,6.043-13.591-3.129-8.278,6.416-6.14-9.851-6.639-2.534-5.208-15.6-8.018,0.2-2.913-11.773-8.166,3.115-4.9-0.715-5.618-7.056.715-39.252-14.522-0.387-.089-10.089.507-1.967,5.6Z" transform="translate(-14.675 -282.098)" fill="#ffeb00" stroke="#000" stroke-width="3"/><path d="M882.043,442.7l-17.436-.976-7.466,4.642-2.489-1.557,0.626-2.9-10.8,9.575-2.75.842-4.456-3.509-9.373,6.386-3.025,13.665-3.2,4.165-5.1-1.3-10.417,2.064-3.845,7.026-7.071,3.576-4.828-5.387,1.572,4.7-7.541-.455-4.888-6.624L774,474.707l-5.357,7.026-2.966.03-5.722-.976-5.208-5.759-4.277,1.714-5.3,2.012-9.851-4.642-4.106,4.568-5.834,1.877L719.153,492.1l6.11,5.067,22.5,9.97,3.927,5.037-0.551,2.049,9.664,5.663L757.34,530.71l-9.91,6.013-3.085,8.322,0.075,11.438-3.495,12.168,3.465,4.918,11.683,0.857,0.671,11.892,7.652,16,8.9-.715,5.067,1.207-0.872,14.2L767,621.629l-3.234,10.856-5.5,6.639,8.278,2.943L764,650.539l3.83,7.972L783.1,667.49l-8.584,28.046,11.437,25.945-13.39,11.847L766.3,753.282l-4.016,3.13L774.277,772.9l14.44,3.1,6.4,9.358,37.7,12.719,7.786,4.791,14.992,10.565,19.6,12.279,10.4-69-3.1-5.283-9.694-6.87,1.967-24.35L882.98,687.4l7.295-13.129-1.557-5.707,12.443-31.511,21.012-39.9,8.539-8.047,11.132-24.186,22.033-26.66L1000,501.108l-7.317-5.5-17.391-24.872-5.268-2.3-5.819.231-6.9,5.469-8.852.521-8.017-3.606,0.321-5.894-3.4-4.642-14.411-1.081-2.675,5.208-2.854.73-8.047-3.495-7.13-5.126-5.834.775Z" transform="translate(-14.675 -282.098)" fill="#ffeb00" stroke="#000" stroke-width="3"/><path d="M182.987,597.039l3.256,14.7L182.451,615l4.508,3.219,3.9,7.28-1.2,2.5-10.73-.2-2.422,4.642,3.465,10.565,5.2,2.273,4.433-2.4,9.411,6.289,2.235,3.815,3.986,6.9-0.171,5.6L194.8,678.958l10.067,3.875,1.252,7.771-2.325,5.268,1.579,17.272,3.614,4.321,8.4,1.662-4.925,6.475-5.417.6-5.834-6.17-11.221-1.3-6.564,2.519,0.514,2.764-10.118,3.331-1.52,11.162,29.663,8.278,5.544,16.5-4.694,28.784,1.982,5.469-15.707,8.2-8.293,4.046L144,813.234l-8.323.336-0.551,5.514,0.35,5.558-9.761,10.416-0.492,5.722,6.5,5.022,16.415,5.238,1.773,5.387,1.96,1.774,17.413,22.472-4.2,3.576-8.107,1.729-0.335,2.75,2.541,5.126,10.655,3.555,1.1,3.681,7.638,4.076,4.195,7.362L208.858,915l4.485-.991,3.331,2.079,10.26-5.588,6.833-1.267,2.638-4.612,5.692-.507,9-6.959,16.989,3.286,0.894-.35L271,913.377l6.967,4.262,8.4,6.23,16.251,10.61,0.738,5.484,4.426,3.942,8.807,0.611,5.641,6.93,3.256,8.4-5.558,10.305-0.447,5.924,6.363,9.388,0.037,0.365,0.045,3.189,10.23-2.474-0.127-6.289,16.78-11.512,16.318-6.371,7.749-15.878,4.933-3.315,0.156-5.969,6.751,5.268,8.36,1.952,21.481-6.415,12.913-12.749,7.9-4.44,1.125-8.949-2.265-8.747-0.693-.976L436.3,895.6l1.162-5.268-5.73-9.239,0.566-5.574-0.186-17.83-5.707-.961-2.049-14.276-6.177-5.969,1.982-8.151,6.989-4.762,22.01-4.858,7.176-1.833,12.145,3.971,35.147,5.514,3.4-.931,24.223-10.26,5.275,0.537,4.1,3.756,2.087,2.012,25.371-2.034,8.74,1.848,17.54,5.849,24.276,2.153,16.43-2.3,0.492,0.089,10.7,5.134,28.754-3.189,10.58-4.947,6.46-10,4.806-18.688,15.983-18.218,14.552-3.48-9.113-12.414-19.924-7.928-4.806-7.727-13.956-5.834L674.908,728.7l-8.4,15.394-13.9-4.456-2.884-5.126-3.04-4.873,0.44-11.363-10.722-17.242,13.36,6.974,3.01-.089,6.065-6.691-7.116-5.745-2.288-8.7,2.645-8.793,9.865-15.558-5.663-13.5,1.118-5.849-2.4-8.569-15.684-6.669,6.05-13.591-3.129-8.278,6.416-6.14-9.851-6.639-2.534-5.208-15.6-8.018,0.2-2.913-11.787-8.166,3.129-4.9-0.73-5.618-7.049.715L565.19,544.565l-0.395-.089-10.089.507-1.96,5.6-15.856-6.974-3.3,4.776-5.834-.842-6.467,22.293-7.973-3.651-5.73,1.192-11.124-3.525-4.813,15.864,1.118,7.652L482.759,584.9l-10.2-9.769,3.383-10.685-1.058-5.313-0.656-.186-29.6-4.671-0.037.276,1.975,2.012-0.626,5.6-6.952,7.25,5.365,6.386-6.728,3.8-15.215-7.012-8.241.917-4.12,7.466-3.748-1.021,1.363-4.732-1.87-4.523,2.146-5.574-8.122-12.778-11.512-1.4,3.83-3.681,0.171-5.484,7.876-2.138,1.736-8.322,6.043,2.153,2.556-5.387,8.114-2.384,0.082-3.681,6.78-4.307-2.973-4.046,7.816-8.137-3.174-7.377-8.926-9.925-6.527-.67-2.958-.246-19.738-13.226,2.653-5.633,3.845-4.44,5.722,1.177,1.885-2.258L403.59,445.4l10.908,3.9,11.02-2.9-0.134-7.741,10.491,0.976-6.989-9.664-2.839-14.507-4.6-3.912-14.8-.857-7.138-5.558-4.5-3.927,0.477-2.965-4.813-7.6-0.246-8.889,5.931,6.505,8.8-1.051,1.55-14.842-1.952-5.432-2.377-5.387,0.432-11.616-11.318-13.681-2.526-7.943,9.679-6.594-0.73-8.733-5.067-10.64-10.506-10.2-4.508-6.289-1.021,5.663-9.724,9.545-1.259,2.563L355.152,313.64l0.537,9.157,3.792,8.278-9.068,22.368L332.545,342.8,322.159,324.5l-8.9.812-11.43,9.753-3,.119-4.135,3.83-8.382.41-1.729,2.2-1.438,1.513-8.658-1.513-2.176,2.012-3.792-3.651-8.174,2.079-3.487-7.913,1.684-2.369-5.417-6.653L247.849,311.9l-15.156-5.745,5.872,9.955-0.715,2.883-5.387,2.243-4.985-3.114-5.268,7.115-13.777,4.918-11.5-8.553-4.284,3.509-1.386-6.609-3.539-2.489-6.736,4.538-8.226-2.965-8.435,2.474-0.581,5.722L158,335.689l2.138,2.012-2.481,2.928-4.5,2.943-5.082-2.228,4.15-10.565-2.846-4.858L134.4,312l-0.663-5.849L123.3,300.469l-8.546,9.515,2.451,4.046-1.46,4.627-2.623,5.112-8.621-.871-6.02,6.184L98,334.758l3.248,4.671,2.854,3.592-13.665,2.66,2.757,8.032-3.055,5.164,0.618,14.962,6.728,9.709-1.393,5.775-10.454.812-7.615-4L72.7,388.407l-2.69,4.858-14.6-10.887L53.7,387.587l-7.034,5.037-7.928-3.331,3.294,4.933-1.1,2.764L39.7,399.628,47,411.5l-5.357,2.138L26.776,423l6.661,4.977L28.445,437.6l-3.4,3.786L22.171,446.3,16.9,448.47l7.98,12.645-0.462,11.728,10.007,14.9,4.955,3.42L37.431,493.3l2.392,8.233-9.232,10.946-0.261,8.6,1.363,2.75,8.934-.745,8.7,2.943,9.649,11.616,15.6,9.18,2.6,5.224,11.177-2.318,12.816,6.959,3.01,2.883,14.045-1.438-1.639-7.972,3.9-3.539,3.092,13.866,11.177,1.714,3.9-4.247-0.03,14.746,6.02,6.14,1.624,5.5,7.444-12.183,7.518-1.967,7.041,3.405,0.372,4.612,10.811,1.587,4.068,9.589Z" transform="translate(-14.675 -282.098)" fill="#ffeb00" stroke="#000" stroke-width="3"/><text transform="translate(446.073 226.392)" font-size="163.915" font-family="DejaVu Sans" font-weight="700">1</text><text transform="translate(818.192 304.667)" font-size="163.915" font-family="DejaVu Sans" font-weight="700">2</text><text transform="translate(280.644 473.56)" font-size="163.915" font-family="DejaVu Sans" font-weight="700">3</text><rect x="232.835" y="144.283" width="116.107" height="116.107" fill="#ff8080" stroke="#000" stroke-width="3"/><rect x="592.711" y="187.12" width="78.543" height="78.543" fill="silver" stroke="#000" stroke-width="3"/><rect x="782.338" y="323.525" width="78.543" height="78.543" fill="silver" stroke="#000" stroke-width="3"/></svg>