<svg xmlns="http://www.w3.org/2000/svg" width="981.474" height="794.066" viewBox="0 0 981.474 794.066"><title>1T Législatives 2017 Tarn</title><path d="M688.189,434.953l6.571-.172,20.034,11.092,0.336,6.588,6.53,1.173,4.709,4.586-0.706,12.88L724.4,477.1l0.7,9.681,16.916,9.5,2.576,5.382-11.034,9.517-0.386,3.027,0.533,11.838-1.8,4.84,20,26.761,3.938-.5,2.519,1.665-0.525,3.315,7.08,6.621,3.191,9.484,7.367,6.924,3.445,9.245,19.2,16.916,2.223,6.137,15.21,12.4,9.533,0.353,12.847,1.157,18.623,12.544,5.784-3.413,22.782-4.29,5.316-15.063,17.688-8.713,6.522,0.37,8.3,9.746,15.7,1.813,0.189,0.1,8.3,9.631L969.55,631.1l13.217,6.6-1.682,2.871,4.57,25.99,6.809,10.476-10.846,6.678L980.354,709.5l-7.384,6.341-16.243-2.609-3.142,1.214-4.6,9.024-19.6,1.9L917.833,732.2l-9.533-1.813-9.18,9.4-4.487,4.709-9.435-1.141-9.82,7.983-9.065,3.282-5.431-3.765-5.8-11.7-10.977-12-24.661-8.016-1.83-2.757-8.909,3.732-12.757-.082-2.674-9.082-2.994-1.19L782.6,742.995,776.834,758.9l-6.5,7.916-0.648,3.347,3.872,5.4,3.249-.238,2.962,9.327-9.623,16.891L780.476,818l31.084,33.488-11.969-3.315-6.374-1.863L776.1,856.533l-9.861,1.362-1.911,2.773,6.079,18.729-0.755,10.034-2.863,1.781-2.067,1.649-4.053-2.707-3.511-23.3,2.855-13.143-2.248-2.56-36.212-7.933-7.892-6.3-9.2-13.249-9.672-.254-17.327-5.176,3.84-11.346-6.169-10.271-10.927-6.268-8.2,4.98,2.921,5.5-2.756,1.846-9.074-3.864-12.921,1.846-2.609-2.018-7.958-14.324,4.98-8.491,6.145-2.453-3.38-8.713,2.067-2.5-6.538-21.034-9.065-3.38-27.828,11.133-9.886,1.009L572.535,763.2l-0.517,4.857-3.29,14.627-5.841-1.542-12.806,5.431L537.6,776.861,527.4,789.167l9.418,8.713,4.611,12.067-15.686-4.627-8.524,3.987-8.384-4.955,0.353-6.727-22.3-13.159,8.089-10.124,5.5,5.611,9.8-12.593L511.7,752.4l11,1.846-3.831-11.568,4.8-4.693,8.63-1.813-0.435-10.016L530.5,716.7l-26.818-16.235-3.191,5.562-6.309-1.55-4.036-10.067,4.725-3.618-4.955-7.351-8.13-1.247,3.528-17.417,2.551-1.55,14.783-10.476-2.625-2.1-5.48-19.451-1.206-23.316-1.78-3.749-9.369,1.108-5.94,7.834-12.027-4.454-11.92-5.562L450,597.056l-4.832-3.56-8.917.016-5.275-.484-6.481-.164-8.294,4.611L406.2,584.964l-8.335-5-1.567,1.879-7.162-9.278,1.214-5.718-2.33-1.863-1.329-4.939-10.247-20.026,5.973-1.781,5.62-11.182,5.414-2.166,0.058-9.18-9.984-1.9,0.172-3.076-6.982-5.7,0.96-23.118,0.172-2.945,6.177-11.715,18.294-5.915,31.889-2.625,7.121-10.239L451.76,441.8l2.723-8.622-4.5-3.971,1.428-3.971,3.692-.37,8.655,15.316,6-2.149,6.588-9.345,16.227-1.7,12.019,4.939,7.515,11.231,8.1,5.767,8.95-3.864,4.553-8.778,2.511-1.649,1.091,9.131,2.847,1.025,5.833-7.194,6.153-1.2-3.29,7.58,0.435,2.871,2.88,0.287,6.079-.959,12.544,0.336,9.3-8.688,3.093-15.907,8.458-9.631-6.424-7.367-6.432-.386-19.566-10.722,9.115-3.634,3.716-8.991-1.2-6.554-10.034-13.38,1.2-3.143,9.746,2.117,9.369,8.656,1.206-16.1-16.646-5.194,4.742-15.218,8.36,3.429,2.256-2.256-1.871-5.915-6.546-5.652,6.087-16.219,5.234-5.366,5.7-17.13,21.954,6.777V293.4l7.326,6.875,7.818,14.308-0.509,13.044,35.334,5.349,1.928,15.112,4.389,4.29,10.427,5.464,7.334,13.077-2.543,7.449,2.248,7.769,4.75,8.605,14.948,6.284-0.115,6.711-1.542,9.787-3.257,4.775-8.614,3.224Z" transform="translate(-13.085 -185.23)" fill="#adc1fd" stroke="#000" stroke-width="3"/><path d="M376.729,505l0.96-23.118,0.172-2.945,6.177-11.715,18.286-5.932,31.9-2.609,7.113-10.239,10.427-6.678,2.723-8.622-4.5-3.971,1.428-3.971,3.692-.386,8.647,15.333L469.753,438l6.588-9.345,16.219-1.7,12.019,4.922,7.515,11.247,8.1,5.767,8.95-3.864,4.562-8.778,2.5-1.665,1.091,9.147,2.847,1.025,5.841-7.194,6.153-1.2-3.29,7.58,0.427,2.871,2.888,0.287,6.071-.959,12.544,0.336,9.3-8.7,3.093-15.9,8.458-9.631-6.424-7.367-6.432-.4-19.566-10.706,9.123-3.634,3.716-8.991L570.84,374.6l-10.025-13.38,1.2-3.143,9.746,2.1,9.361,8.672,1.214-16.1-16.654-5.21,4.742-15.21,8.36,3.429,2.256-2.256-1.862-5.915-6.546-5.669,6.079-16.2,5.242-5.382,5.693-17.114-4-4.676-8.122-4.873-5.513-11.313-6.35-1.378L554.5,266.709l-11.617-4.889,4.832-11.969-8.852-9.18-16.08.64-17.015,10.083-8.754-4.217L474.06,246.1l-2.437,2.289-3.216-.64-0.812-3.192,7.539-6.3,9.139,2.239,21.617-12.773-9.59-8.155-12.708-3.478-4.044,5.176-6.136,1.764-6.293-7.834-0.853-6.571-6.169-2.2-9.615,1.264-2.387-2,2.822-5.529-4.274-4.356-2.4-8.844-24.513,4.611-7.622,4.2,3.249,8.376-4.922,4.389-2.921-.706-2.47-5.932-12.191,3.043-5.562-7.851-11.428,3.175,5.111,14.185-19.1,3.413-2.806,1.781,2.207,9.1-18.451,6.235-9.5,1.649-4.742-2.789L318.308,241.2l-9.18-3.914-9.8.861-6.079-7.679-9.492-7.112-6.465-.484-10.369,7.384,16.383,15.218-2.814,3.987-7.753,5.275L264.573,244.5l-6.128,2.691-12.412-4.758-10.2,8.04-2.9-.624-3.593-8.122-2.953.27-4.668,11.519L229,270.868l-2.158,10.591-8.434-4.586L204.94,258.915l-3.84,8.605-9.057,8.474,4.151,8.335-10.829,3.429-21.921-17.4-9.139,2.42-7.892-6.022,0.041,3.208-13.266-1.075-9.435,3.331-12.929-3.249-6.317,1.953-2.281-2.47-4.1,7.9,0.2,11.732,11.125,7.7-3.585,16.424,2.01,6.456,9.451,0.336,9.147,4.34,7.441,15.267-10.091,20.477-11.756,5.685-2.551,6.087-3.265-.386-9.311.205L101.4,382.8l-2.272,5.628L92.784,389.5,87.131,386.8l-6.866,10.961L74.26,407.98l2.855,11.748-23.291.287L37.86,415.257l-9.853,2.215-2.732,5.989-9.139-2.724,2.994,5.513-0.574,6.407,18.975,3.159,8.064,5.111-2.56,6.137-0.23,12.29-2.723,1.583-9.755-.172-5.644,18.007,2.231,9.517,6.046,7.662-2.1,5.981,5.3,3.765L30.1,506.706l-0.164,2.272,12.2,19.033,13,5.045,1.345,0.435-3.191,25.1,25.744,14.865,13.454,1.493,2.617,6.006-4.512,11.9,0.672,3.224,5.915,2.437,6.9-6.76,6.128-1.329,8.86-1.075,0.353,6.793,3.027,1.526,6.744,0.336,8.729,4.955,13.438,0.049,4.151-.082-0.09-6.654,6.44-11.666,9.385-1.411,4.955,4.438,3.306-.353,5.045-15.653,5.653-3.06,41.085,28.107,6.005,8.138,1.37,10-7.867,2.789,1.132,5.546,5.973,2.806L251.382,644.3l1.3,9.885,25.243-.484,5.168,3.65,4.742-8.253,1.813-1.19,4.274-4.922,13.044-3.667,5.784,1.329,3.011,11.969,4.069,8.877,13.315-2.535,7.515,10.846,26.416,12.642,1.436-2.871,6.325-.943-0.984-12.47-16.875-12.142,6.1-.673,6.325-6.538-1.3-9.3,2.642-5.562,4.783-21.9,5.726-1.632,3.667-5.243-7.08-5.9,2.059-6.325,15.448-6.087,0.984-3.208-7.162-9.278,1.206-5.718-2.322-1.863-1.329-4.955-10.247-20.009,5.964-1.8,5.62-11.165,5.414-2.166,0.066-9.18-9.992-1.9,0.172-3.076Z" transform="translate(-13.085 -185.23)" fill="#ffeb00" stroke="#000" stroke-width="3"/><path d="M204.982,788.087l-5.21-3.06-3.889-.992-14.308-8.442-0.82-6.621-5.218-4.2-1.206,1.714-11.978-1.6-0.205-.861-2.781-1.542-10.083-5.3-2.264-5.078-8.606-4.086-8.762.689-7.227-10.05,2.723-8.893,7.744-10.37,15-5.865,3.159-.771,1.165-6.325-7.047-10.607,0.221-12.74-39.838-5.513,0.615-9.213-2.387-1.969,12.363,4.069L126,662.174l6.538-.3,2.9-5.669-9.361-12.995-2.953,1.19-6.506-7.031-13.75-6.2-1.764-5.718-4.963-3.364,3.946-14.775-2.945-8.672,6.9-6.744,6.12-1.345,8.86-1.075,0.353,6.793,3.035,1.526,6.744,0.336,8.729,4.963,13.438,0.033,4.151-.066-0.09-6.654,6.44-11.682,9.385-1.411,4.955,4.454,3.306-.353,5.045-15.67,5.653-3.06,41.085,28.107,6.005,8.155,1.37,9.984-7.867,2.806,1.132,5.546,5.973,2.806,13.479,18.344,1.3,9.869,25.243-.468,5.16,3.634,4.75-8.237,1.813-1.19,4.274-4.922,13.044-3.683,5.784,1.345,3.011,11.953,4.069,8.877,13.315-2.535,7.515,10.862,26.416,12.625,1.436-2.855,6.325-.943-0.984-12.478L356.942,654.15l6.1-.673,6.325-6.554-1.3-9.278,2.642-5.579,4.783-21.9,5.726-1.616,3.667-5.259-7.08-5.883,2.059-6.325,15.448-6.1,0.984-3.208,1.559-1.879,8.344,5,9.992,12.527,8.286-4.627,6.481,0.172,5.275,0.468,8.926-.016,4.832,3.56,2.3,6.006,11.92,5.562,12.027,4.454,5.948-7.834,9.361-1.108,1.78,3.749,1.206,23.316,5.48,19.451,2.633,2.1L487.86,663.141l-2.551,1.55-3.52,17.417,8.122,1.247,4.955,7.351-4.725,3.618,4.036,10.067,6.309,1.55,3.2-5.562,26.81,16.235,1.37,9.451,0.435,10.016-8.63,1.83-4.8,4.676,3.831,11.568-11-1.846-1.428,14.981-9.8,12.576-5.5-5.611-8.089,10.124,22.306,13.159-0.353,6.727,8.376,4.955,8.524-3.987,15.686,4.627-4.611-12.067-9.418-8.713L537.6,776.79l12.478,9.7,12.815-5.431,5.841,1.55,3.282-14.644,0.517-4.857L580.1,749.79l9.886-.992,27.828-11.149,9.065,3.38,6.538,21.034-2.067,2.5,3.38,8.713-6.145,2.453-4.98,8.491,7.966,14.324,2.6,2.018,12.921-1.83,9.082,3.848,2.756-1.846-2.929-5.5,8.2-4.98,10.927,6.268,6.169,10.271-3.84,11.346L694.8,823.32l9.672,0.254,9.2,13.249,7.892,6.3,36.212,7.933,2.24,2.56-2.855,13.143,3.511,23.3,4.053,2.724,2.067-1.665,2.863-1.764,0.763-10.05-6.087-18.729,1.911-2.773,9.861-1.362,17.113-10.222,6.374,1.863,0.96,12.93L797,869.936l1.616,12.74,7.343,10.46-2.354,5.915-15.128-4.627-2.42,2.084,3.561,8.286-18.762,18.631-6.153-1.813-1.723,8.089-2.912.624-2.912-1.313-13.06,9.041-9.4.319-0.172.049-2.839,1.879-9.377-3.544-20.263.894-4.512-4.742-9.4-2.354-3.249-5.611-14.43.419-2.9,1.124L654.7,929.48,638.3,927.3l-13.831,8.91-2.043,2.658,1.411,3.06-5.653,2.117-16.432-5.7-5.472-.172-13.2-9.213-24.136-7.72-6.727-6.826-3.084,1.075-12.33,5.366L525.227,909.62l-4.955-6.908-1.124,6.219-10.706,10.525-1.387,2.806L495.3,933.288l0.591,10.083,4.176,9.131-9.992,24.612L470.409,965.4l-11.436-20.157-9.8.894-12.585,10.739-3.314.147-4.545,4.2-9.229.452-1.911,2.42-1.575,1.665-9.533-1.665-2.4,2.223-4.176-4.036-9,2.289-3.848-8.713,1.862-2.593-5.973-7.343-5.808-14.562-16.687-6.325-4.709-8.795-5.21-3.315,3.084-19.739,4.012-5.226,9.82-2,6.35-7.834-3.159-4.454,3.011-7.613-3.889-12.142-2.511,8.729-2.764,1.632-7.006-6.317-6.005-2.305-2.691,1.781,1.854,19.312-1.748,2.806-1.92,2.724-15.694,2.305-6.99-7.08-14.816-7.384L307,873.6l-22.274-14.118-2.437,3.528-19.312-14.151-1.165-.722-9.7-15.637-0.509-3.159,5.1-3.683-11.28-4.57-9.435-3.971L235.13,799.46l-7.186-9.951L215.753,786.3Z" transform="translate(-13.085 -185.23)" fill="#ffeb00" stroke="#000" stroke-width="3"/><text transform="translate(618.357 557.331)" font-size="180.475" font-family="DejaVu Sans" font-weight="700">1</text><text transform="translate(172.872 272.946)" font-size="180.475" font-family="DejaVu Sans" font-weight="700">2</text><text transform="translate(203.892 600.364)" font-size="162.456" font-family="DejaVu Sans" font-weight="700">3</text><rect x="318.569" y="87.627" width="127.836" height="127.836" fill="silver" stroke="#000" stroke-width="3"/><rect x="506.864" y="287.912" width="127.836" height="127.836" fill="silver" stroke="#000" stroke-width="3"/><rect x="309.257" y="522.701" width="127.836" height="127.836" fill="#06c" stroke="#000" stroke-width="3"/></svg>