<svg xmlns="http://www.w3.org/2000/svg" width="920.286" height="999.674" viewBox="0 0 920.286 999.674"><title>1T Législatives 2017 Aveyron</title><path d="M497.984,464.48l-5.349,6.186-7.585-1.714-2.564,7.686,8.288,5.2,6.735,10.906-1.62,3.5-3.648,4.211-8.2,1.741,6.487,3.883L489.99,514.2l-1.962,1.727L477.88,511.9l-5.463.89-1.306,1.895,4.03,6.681L464.8,523.942l-5.162-9.312,9.506-4.606-5.229-6.554-2.049-7.96-10.839,7.451-7.438-.4-1.567-2.115-4.566,2.356-1.466,4.773,4.6,2.209-1.292,7.96,4.037,7.009-9.038,12.1-1.834-1.988-5.081.121-0.763-5.376-3.769-3.91-10.658,1.232-7.31-3.568-8.3-12.961,6.681-7.766-6.648-10.919-8.449-2.939-0.435-2.732-10.022-3.8-1.788-7.873-5.5.315-8.449-6.434-5.054,2.236-9.513-9.687-4.137,5.322-3.428-3.441-2.33.683-0.7-7.913,4.546-18.357-10.008-3.374-6.467-11.836-4.358,3.207-1.794-2.37,26.939-10.471,5.878-8.629-2.356-6.748-12.68-4.472-5.925-5.624-5.363.864,4.7-6.735-0.743-5.463-15.6-15.364-0.328-4.981,2.062-1.54,5.771,4.967,6.012-4.472,8.978,2.4,3.749-6.065-1.158-7.726,5.162-6,4.358-12.372,21.423,3.153,7.94-13.51,1.895-.134,31.358,4.318,2.591,0.7-0.007,2.678,2.531,0.469,7.793-6.34,7.639-1.084-10.638-13.637-4.4-5.463,0.977-2.2-3.32-3.977-1.125-7.625-5.61,4.867-4.606-2.289-3.943-10.042,4-10.176-3.9-7.391-6.554-5.242-2.336-8.014-9.178-1.1,2.236-7.3,5.276,1.58,1.962-2.042,2.752-4.887-0.194-8.449,6.44-15.652,10.464-8.174,1.707-4.746,8.254-5.61,11.287-8.228,0.295-2.524-4.178-2.618,1.547-2.263,1.2-6.159-0.321-14.648,3.983-2.906,2.169-13.664,5.349-5.583,7.217,0.85,7.712-7.753L454.9,99.755l7.357-7.886-4.077-10.015,7.893-7.94,6.286-15.478,13.637,2,1.808-2.115,1.359-10.758,13.235-17.3,4.325,2.879,9.627-2.665,5.925-17.466,4.432,1.178,1.647-5.075,5.818-5.376,0.328-.7,2.182,7.424,7.86-.134L556.04,28.418l-2.182,7.726L557.466,46.2l-4.077,7.217-1.44,10.919,1.647,5.309,5.416,0.5,4.365-6.775,9-6.159,4.693,2.665,21.838-1.192,2-1.895,2.7-.134-2.343,18.658,4.579,3.113-1.279,7.572,4.827,6.668,5.463,21.262,5.8,11.856,4.679,2.578,5.155-.275,7.558-7.11,7.726,10.972,0.141,10.812-1.828,2.1-8.2-.328-1.084,2.564,0.991,2.618,7.377,3.729,2.356,4.994-1.138,8.174-4.606,7.009,4.325,12.5,1.895,13.456,4.1,7.2-1.178,7.726,7.846,7L658,226.82l4.211,3.454-0.442,2.718,4.76,4.967,6.5,2.865,18.176,19.3,2.825,7.572,6.9,8.261,3.662,4.157,8.536,5.061,4.265,6.052,9.426,7.243,0.234,2.43,3.91,7.337-4.88,21.59,0.743,11.033-4.157,13.376,17.439,17.754-6.929,14.929-2.551,1.1-9.205-5.911L710.413,380.7l-14.28.77L691.36,384l-2.745,4.606-7.491,1.1L679.27,400.13l5.624,5.751-7.572,8.917-11.14-6.253,0.107-10.37-4.265-2.645-3.267,9.781-6.226,4.512-3.488,6.942,11.059,6.668,5.557,11.836L656.4,449.1l-18.551,3.541,2.417,5.048,13.209,3.541,2.939,10.645-7.726.141-6.038,15-7.5,1.306-6.052,5.242-10.852-11.233-7.94.743-16.616,3.648-0.7.536-13.322,2.3L564.6,483.618l-2.249-.509-14.815.971-3.715,3.086-13.075.04-3.581-3.1,5.048-6.253-0.054-5.416-7.96-11.287-9.613-5.624Z" transform="translate(-21.505 1.165)" fill="#ffeb00" stroke="#000" stroke-width="3"/><path d="M168.641,294.141l-6.065-5.65-2.718-.013-6.521,12-2.135,1.66-1.875-1.346,1.185-7.833-4.907-.576-11.059,8.04-0.288,5.436-3.441,4.05-0.462.194-5.229,1.948-8.328-1.125-11.361,7.739-2.658,4.981-4.439,6.762L90.467,341.2l-5.537,1.386-5.322.957-6.052,8.83-5.322.562-4.352,1.2,5.436,8.736-2.484,4.472-4.746-1.506-3.709-12.3-7.793-.944-2.035,4.626,0.455,10.223-4.378,1.66-9.038-2.578-11.85,6.253-0.629,2.718,4.552,6.829,2.33,4.967L29.466,406.4l12.733,10.5,0.074,0.368-1.386,2.417,1.928,10.986-3.073,7.686,3.153,4.606,9.687,9.794,2.805,7.726,6.762,4.787,1.48,5.322-2.8,4.679-8.134-.73-2.149,1.754-3.274,7.558,2.015,3.816-5.463.261L35,498.268,46.2,513.25l-6.481,8.783L58.267,532.31,80.4,529.578l1.788,2.028,8.027-.168,7.464,3.086-3.668,9.359-1.245,17.654-7.391-.643-3.407-3.528L75.76,561.3,62.217,585.271l-7.8-.275-2.443,4.157,8.736,4.88L59.7,599.055l5.162,5.309-1.078,2.357,9.573-3.18,3.133,4.05,0.582,7.726,3.575,3.829,3.28-10.357,8.027-.99,7.619,2.116,3.474,3.95L99.379,617.9l1.2,5.229,12.131,5.175-3.917,6.955,7.753-1.346,15.056-5.088-1.8-7.424,2.289-1.453,15.585-2.785-4.171-11.575,9.326-2.591,4.539,6.407,9.948-2.484,2.022,4.84,2.376,0.576,4.017-3.582-2.651-6.835,6.219-3.428,20-3.762,1.955,7.216,3.488,3.555-2.3,4.512,1.948,1.634,7.846-1.031,5.034,1.794,0.7,5.363,5.135,6.393,5.008-1.439,3.3-4.224,10.37,2.838,7.826,6.655-17.64,10.424-7.458-1.827-6.152,5.141,0.663,2.6,2.624,0.522,1.988-1.868,18.731,0.877,7.143,3.441,13.885-8.228,13.122-.522,7.223,7.491-3.943,9.767,9.48,3.99,9.112-4.679,5.182,1.124,4.5,9.232,6.628,3.977,3.26,3.816,17.922,5.53,4.659-2.785,1.238-5.155-5.931-11.636,10.7,1.292,10.236,8.081,5.342-.7,3.943-4.031,5.483-11.689-1.841-4.954,4.967-5.952-4.914-5.965,6.554-3.595,7.806-.382,4.713,2.2,0.549,2.564,5.8-12.485-6.916-8.75,3.782-5.831-3.24-4.472-1.419-8.275-2.658-7.377-5.209.522-3.7,3.843-2.182-1.553,7.6-19.428,2.578-4.365,7.773-1.854L403.959,548.3l-1.038-5.142-5.664-5.871,0.5-10.758-1.031-7.753-3.153-4.318,3.006-4.03,6.681-7.766-6.648-10.919-8.449-2.952-0.435-2.732-10.015-3.8-1.794-7.873-5.5.315-8.449-6.434-5.054,2.236-9.513-9.687-4.137,5.322-3.421-3.428-2.336.683-0.7-7.927,4.546-18.343-10.008-3.387-6.467-11.823-4.358,3.193-1.794-2.37,26.946-10.457,5.878-8.629-2.363-6.748-12.68-4.485-5.918-5.61-5.369.85,4.7-6.722-0.736-5.463-15.6-15.364-0.335-4.994,2.062-1.533,5.777,4.967,6-4.485,8.978,2.4,3.749-6.065-1.151-7.712,5.162-6,4.358-12.372,21.423,3.14,7.94-13.5,1.895-.141,31.358,4.318,2.591,0.7v2.691l2.531,0.455,7.786-6.326,7.639-1.084-10.638-13.65-4.4-5.463,0.977-2.2-3.32-3.977-1.125-7.612-5.617,4.867-4.606-2.3-3.943-10.028,4-10.183-3.9-7.391-6.554-5.229L389.9,243.4l-9.178-1.1-10.2-4.144-8.228,6.668-17.573-5.951-4.338.8-2.537.991-6.715-3.789-8.864,6.266-8.147.5-9.065-6.092,0.9-7.94-2.5-4.666-4.606-3.648-9.178,4.606-12.385-2.417-6.7,4.184-2.51.5-2.752-.194-8.355,7-13.316-1.607L233,241.553l3.387,13.168,3.528,4.291-7.451,5.189,1.707,5.115-1.761,5.048-5.269-.121,0.147,7.833-3.013,4.512-4.144-2.551-9.1-.562-0.141.08-9.667,15.766-10.377.971-4.2-6.286-2.651.04-3.421,4.077-6.983,1.292Z" transform="translate(-21.505 1.165)" fill="#ffeb00" stroke="#000" stroke-width="3"/><path d="M520.592,957.333l-10.484-.944-7.779-.288L489.917,945.98l-1.814-5.008-15.666-13.8-2.812-7.545-6.012-5.65-2.6-7.739-5.784-5.4,0.435-2.7-2.055-1.359-3.213.409-16.321-21.838,1.473-3.95-0.435-9.66,0.308-2.47,9.011-7.766-2.1-4.392-13.8-7.752-0.569-7.9,1.031-4.9,0.576-10.51-3.843-3.742-5.336-.957-0.275-5.376-16.342-9.052-5.363.141,2.7-7.712,7.029-2.645,2.658-3.9,1.259-7.987,0.094-5.476-12.2-5.128-3.876-7.022-1.828-6.326,2.069-6.092-5.978-10.658-8.509-4.459-3.581-3.515-1.567-12.318-28.84-4.379,0.415-10.644-6.387-11.676-5.978-5.61v-2.745l4.666-2.771,1.238-5.162-5.938-11.622,10.7,1.279,10.236,8.081,5.342-.7,3.943-4.017,5.476-11.7-1.834-4.941,4.967-5.965-4.914-5.952,6.554-3.595,7.806-.382,4.72,2.2,0.549,2.564,5.8-12.485-6.916-8.75L392.068,609l-3.24-4.459-1.419-8.288-2.658-7.364-5.209.522-3.7,3.829-2.182-1.54,7.6-19.428,2.578-4.378,7.773-1.854,12.365-17.754-1.038-5.142-5.664-5.871,0.5-10.758-1.031-7.753-3.153-4.318,3.006-4.044,8.3,12.961,7.31,3.568,10.658-1.232,3.769,3.91,0.763,5.376,5.081-.121,1.834,1.988,9.038-12.1-4.037-7.009,1.292-7.96-4.6-2.209,1.466-4.773,4.566-2.356,1.567,2.115,7.438,0.4,10.839-7.451,2.055,7.96,5.222,6.554-9.506,4.606,5.162,9.312,10.343-2.578-4.03-6.681,1.306-1.895,5.463-.89,10.149,4.03L490,514.2l0.536-8.121-6.487-3.883,8.2-1.741,3.648-4.211,1.62-3.5-6.735-10.906-8.288-5.2,2.564-7.686,7.585,1.714L498,464.473l16.583-8.864,9.613,5.624,7.953,11.287,0.054,5.416-5.034,6.266,3.568,3.086,13.075-.04,3.715-3.086,14.829-.971,2.236,0.509,15.063,5.938,13.322-2.3,0.716-.536,16.6-3.648,7.94-.743L629.1,493.642l6.052-5.229,7.5-1.319,6.038-15,7.712-.134-2.939-10.658-13.2-3.541-2.43-5.034,18.564-3.555,9.245-13.831-5.543-11.836-11.059-6.668,3.488-6.942,6.212-4.512,3.28-9.781,4.251,2.645-0.107,10.37,11.14,6.253,7.585-8.917-5.624-5.751,1.854-10.424,7.478-1.1,2.745-4.606,4.773-2.537,14.293-.77,11,1.413,9.219,5.911,2.551-1.1,6.916-14.929,10.109,5.3,4.3,9.961,6.038,4.606,0.5,8.067-0.73,2.691,4.03,3.816-0.629,8.315-6.313,5.142-1.828,5.088,5.992,4.539-0.107,13.255-9.861,4.211,2.082,4.88-0.509,8.121-1.292,5.336,6.695,4.88-1.54,10.343,4.5,9.821,7.833,1.52-2.758,10.183,4.653,6.286-16.476,18.919-1.962,16.67,4.291,2.785,5.075-2.4,4.472-9.587,4.606,2.37,3.568,21.262,7.9,0.81,7.639-2.892,4.472,6.554,19.836,8.2-6.447,20.513-3.923,6.681-4.592,2.055-0.643,2.551,13.2-.248,7.377-.054,14.186-7.625,13.349,0.368,2.222-4.867,5.4-.415,9.834,4.84,7.806-2.5,16.134,1.607-1.178,5.336,7.726,11.073,0.977,7.96-21.041,10.029L871.4,641.091l-5.61,4.914,1.828,7.1,0.141,14.333-7.531,2.966-10.906.154-16.02,9.847,6.574,4.044,11.99,14.266,5.429,0.221,10.015-8.462,1.373,1.808,1.948-1.151,2.37,4.017,2.618,12.238,5.818,4.826,2.2,1.714,9.065-6.3,2.966,4.472L903.5,710.2l7.5,8.041,10.317,3.923,15.244,11.976,2.825,1.138,0.7,0.589-4.238,15.98-14.24,7.953-7.351,17.888-15.993,2.2-0.944,8.094-9.52,5.128-4.3,9.935,3.856,18.792-9.439,8.121,0.442,7.4-13.6,2.4-13.376-3.033-5.309,1.305-4.76-2.718-6.28.535-2.182,4.017-2.209,8.094-9.426,5.336-3.622,7.491,0.616,8.228,8.234,11.059-1.306,8.261-7.27,1.881-7.712,7.424-9.9,3.789-13.048.107L774.309,898l-4.679,2-0.429.8-13.088-2.865-10-8.783-12.432-5.162-13.3-.382-3.581,9.834,2.182,10.176-7.9,6.862,4.03,6.955,0.8,7.792,9.821,11.963-5.008,9.359-5.242.6-1.808,7.987,2.3,4.927L714,965.149l2.182,4.981-1.426,7.752,8.04,7.137-3.87,3.5-0.957,7.558-7.09-3.28-9.634,3.555-7.177-2.8-3.033-4.278-9.874-3.99-7.927-1.205-4.613,2.664-9.152,3.923-8.669,6.119-2.732.168-1.346-2.37-5.557-8.549-3.742-21.208,1.386-2.343-10.785-5.39-18.3,2.443-6.762-7.859-0.154-.067L590,950.119l-6.788-7.953-5.309-.3-14.434,7.11-4.352,12.292-18.578,3.515-4.72,2.771Z" transform="translate(-21.505 1.165)" fill="#06c" stroke="#000" stroke-width="3"/><text transform="translate(472.981 332.45)" font-size="147.274" font-family="DejaVu Sans" font-weight="700">1</text><text transform="translate(138.091 479.443)" font-size="147.274" font-family="DejaVu Sans" font-weight="700">2</text><text transform="translate(565.594 765.9)" font-size="147.274" font-family="DejaVu Sans" font-weight="700">3</text><rect x="347.509" y="337.493" width="104.319" height="104.319" fill="#06c" stroke="#000" stroke-width="3"/><rect x="226.249" y="495.506" width="104.319" height="104.319" fill="#06c" stroke="#000" stroke-width="3"/><polygon points="226.249 599.825 226.249 579.421 310.174 495.506 330.578 495.506 330.578 515.91 246.653 599.825 226.249 599.825"/><rect x="669.007" y="650.612" width="104.319" height="104.319" fill="#ffeb00" stroke="#000" stroke-width="3"/></svg>