<svg xmlns="http://www.w3.org/2000/svg" width="976.935" height="857.445" viewBox="0 0 976.935 857.445"><title>1T Législatives 2017 Gard</title><path d="M750.94,716.5l-11.114-30.211-0.145-5.973,1.366-9.053-3.276-.535-8.909-7.333-2.343-8.475-7.9-7.954-7.9.369L707,654.92l-9.48,2.936-2.206,2.625-4.238,1.4-3.405,5.6,0.694,3.276,17.709,14.773-17.355,14.7,1.953,3.391-11.042,6.964L663.21,685.378l9.762-6.595-3.9-6.783,6.978-2.813,2.813,6,3.464-6.862-5.156-12.444-7.8-5.9-3.645-5.467L649.8,625.071l-9.9-6.551-3.985-11.23-8.576-.441-8.446,8.178-4.592,1.706-0.21,5.575-6.58,11.946,0.861,13.884,23.024,4.238,7.289,4.773-0.665,5.72,7.542,18.938-9.5.8-6.132,5.156,1.034,10.405,20.941,27.058,3.941-3.674,2.416,1.425L671.793,740.7l0.636-7.145,14.361,3.276,11.352,9.125,5.633,0.34,6.1-5.821,3.247-8.005-2.8-11.172,7.657-2.5,14.744,23.964,3.189,19.437,4.165,7.274,6.833,4.845,13.457,8.576,8.533-2.726,15-.426,8.048-3.811,13.392,6.493,11.809,2.061,11.946,8.742,14.715-.326,2.863-.9,0.087-3.008L839,772.808l-1.258-11.946,9.748-28.035,14.549-22.684,1.627-21.115-7.05-19.56L871.191,656.6l-3.138-4.447-11.172.369,2.234-5.242-3.153-7.954-2.314-11.288,1.07-8.561-7.8,2.683-2.27,5.011-4.505,12.5-5.944,5.279,4.578,2.444,0.875,8.063-2.458,1.316,6.241,5.423,0.087,2.784-15.916-.817-14.39-3.3-12.373-8.28-1.554-.145-8.576-2.841-1.056,11.454-6.891,12.684,7.614,16.06,2.683,7.824-7.643,9.777-29.6,5.539Z" transform="translate(-5.706 -130.015)" fill="#ffeb00" stroke="#000" stroke-width="3"/><path d="M512.741,876.828l-5.423-.21,0.282-.326,5.271-2.343,9.957,5.5,14.122-2.61,16.8,2.372-0.369-8.952,12.553-12.473L579.99,831.4l0.549-8.388-18.555-32.626,0.441-2.285,1.367-5.083L556,769.25l-5.438-14.831-2.177-4.859-4.932-2.089-6.739,2.965-6.652-2.582-7.672-8.019-4.064-3.767-0.933-8.3-4.432-3.334-10.21,2.741-2.256-5.069-7.274-3.247,0.152-3.174,0.694-5.987-13.276-11.823-18.555-12.061,4.338-3.985,5.864-11.736-2.712-4.375,7.086-4.338L489,673.055l1.359-1.128-2.8-5.025,4.65-19.177,2.531-2.386,9.1,7.4,10.731-3.124,7.246,15.482,7.925-3.405,5.792,0.521,4.946,3.11,0.058,2.922,4.758-4.505,10.9,2.1,4.042,3.42-1.895,10.622,17.1,1.692,14.122,8.894,3.066-2.653,8.8-3.76,7.383-3.464,1.331,2.56,8.3-1.425,4.375,3.76,10.695-4.107,2.567,1.33-6.132,5.156,1.02,10.4,20.941,27.058,3.955-3.674,2.4,1.439,13.544,17.724,0.636-7.145,14.347,3.276,11.367,9.125,5.633,0.34,6.1-5.821,3.247-8.005-2.813-11.186,7.672-2.487,14.744,23.964,3.174,19.437,4.165,7.274,6.833,4.83L760.4,783l-6.117,10.3L755,805.152l-16.06,7.188-15.128,32.692,0.99,5.648,6.146,6.653,5.836,0.918,11.143-4.194,4.606,3.745,0.354,5.792L744.7,875.922l-7.376,5.113-14.433-1.128L711.536,889l4.685,3.486-3.941,7.333-11.526.238-10.593,9.8-11.382,1.75-3.174,4.353-9.856,5.553-9.263-6.739-0.976-2.712,3.883-4.136-2.205-4.73-5.734,9.365,7.2,15.822-16.993,11.259-30.139,10.919-3.868,3.731,0.875,2.841-4.758,10.847-0.817,17.572-40.827-10.405-20.45-12.387L534,946.642l3.485-11.526,7.629-4.549,0.463-5.734-6.37-10.239-15.677-8.873,4.7-11.931Z" transform="translate(-5.706 -130.015)" fill="silver" stroke="#000" stroke-width="3"/><path d="M853.657,628.115l1.07-8.561-7.8,2.683-2.27,5.011-4.49,12.5-5.944,5.294,4.563,2.444,0.89,8.048-2.473,1.316,6.241,5.423,0.087,2.784-15.916-.817-14.376-3.3-12.387-8.28-1.554-.145-8.576-2.841-7.5-3.883-1.366-7.513,1.808-7.513,5.6-1.07,3.912-7.376,5.38-1.584-0.8-8.178-1.425-2.458-5.482-1.005L788.288,601l-5.677-8.742,0.383-11.273-8.28-1.128-6.833-5.025-2.191,1.822-4.223,19.307-5.589-1.034-7.455-8.164-14.151-.311-0.448-16.8,2.075-8.33,4.9-6.595,1.366-8.033,10.181-2.075,2.827-13.674,8.417-3.008,0.622-1.735,13.66,3.167,7.513-2.922,0.817,2.712,2.827-.181,0.145-11.78,3.7,1.454,4-4.223,13.146-5.7-4.194-7.557-5.734.412-2.018-2.046,6.595-15.973,0.55-8.641-3.745-4.064,0.152-5.648-5.337,1.974-2.841-.535v-2.893l-13.1-3.435,2.827-5.113,1.96-17.34L767.115,435.5l-0.267-5.525-4.671-2.625-2.979-2.56,3.022-6.429,7.643-1.2,2.249-4.715-3.717-4.519-0.145-5.677,10.9-9.689,4.592-6.624,2.582-10.593-14.968.723-3.138-6.653,0.861-4.946,4.353-7.47,1.23-8.67,5.17-1.707,8.048,5.423,10.283-13.768,3.811-16.979,5.734-1.273-3.189,8.3,1.381,5.806,3.362,4.917,8.656,2.191,1.482,2.581,11.469,0.506,1.345,4.122,22.344-5.279,4.83-2.487,16.154,1.808,5.069,2.545L891.7,341.3l5.308,2.235,1.056,5.72-3.97,7.868,2.755,5.083,7.868,3.189-0.651,8.561-2.343,1.692,0.651,8.656-0.116,2.936,0.99,8.67-0.369,10.029-8.019,27.839,7.188,11.454,1.822,7.882L906,458.431l2.841,0.774,12.611-7.376,5.763-.752,1.425,8.207,1.75,2.965,14.7,9,0.369,8.077,5.2,5.987,7.318,6.964,3.616,4.9,4.078,14.549,8.981,1.33,4.519,3.731,0.521,9.14,1.366,4.121-2.712,8.265-17.188-1.779-1.721,8.613,2.582,11.309-13.753,10.593-9.039,12-17.1,5.749-6.4,6.313-2.177,6.457-7.954,8.981-10.536,5.575-0.492,1.765,2.878-.564-9.661,10.933-15.822,7.528-3.362,4.73-0.694-2.668-2.741-.253-9.184,5.792Z" transform="translate(-5.706 -130.015)" fill="#ffeb00" stroke="#000" stroke-width="3"/><path d="M507.043,338.828l7.159-4.252,2.372-.145-0.492-4.758-5.1-2.7-1-5.705-4.432-3.717-8.135-2.1,4.65-7.4-3.76-17.261,11.736,0.991,10.876,9.588,8.077-1.439,4.338,9.972,4.744,2.863,3.218-1.555L538.1,307.12l3.167-14.491,4.375-2.726-0.579-5.864,6.949-5.481-5.821-6.161,0.3-10.182,2.741-4.389,11.6,1.02,10-4.787,5.279,15.467,18.316,9.191,10.861,11.989,6.8,6,8.46,3.138,9.14-6.284,9.364-17.514L638.67,256.4l8.446,0.152,9.827-5.944,6.848-9.14-2.148-5.112,27.282-1.555,10.384-5.944,5.271,2.343,4.136,8-0.55,5.872-6.06,20.11,1.056,8.728,6.3,5.51,17.47-1.3,2.22,5.467,2.965-.087,7.853-12.4-2.726.991,1.41-32.113,2.625-5.293,5.792-1.215,11.157,2.994,14.252-1.765,3.645,4.165,1.663,5.409,5.792,0.3,4.3,4.013,11.042-.354-0.832,1.4-1.3,2.726,7.079,13.349,7.9,4.136,2.625-1.2,15.185,7.708,4,0.622,6.848,11.2,9.856-6,10.181,12.553,1.381,9.617,15.9,20.746-2.726,14.035,0.448,3.348-16.154-1.808-4.845,2.487-22.344,5.279-1.345-4.122-11.454-.506-1.482-2.6-8.67-2.177-3.362-4.917-1.381-5.806,3.189-8.3-5.734,1.273-3.8,16.979-10.3,13.768-8.033-5.423-5.185,1.707-1.215,8.67L769,364.44l-0.875,4.946,3.153,6.653,14.968-.723-2.582,10.593-4.592,6.624-10.919,9.689L768.3,407.9l3.731,4.519-2.256,4.715-7.629,1.185-3.037,6.443,2.993,2.56,4.664,2.625,0.267,5.525,18.019,2.358-1.953,17.34-2.841,5.113-5.734-.043-1.88,2.22-8.475-4.845-14,1.953-12.1-.463-7.05.636-7.145-7.969L713.4,460.643l-10.55-3.276-5.17,6.7L684.566,469.5l-9.9-.116L668.8,458.921l-13.913-11.707L630.3,437.965l-0.759,17.3-4.237,7.585,15.807,7.036,0.058,14.3,11.367,4.281L649.387,499.6l1.41,5.553,3.095,0.9,1.989-5.127,13.9,8.251,1.244,23.234,4.534,3.645,5,10.7-7.245,3.572-3.051,7.05,6.905,9.111,7.484,4.324,10.536-4.042,4.73,2.567-2.582,7.643,2.234,5.17,2.162,1.822,11.042-.311-7.26,10.449-2.8-1.056-7.289,4.649,5.806,6.754,0.521,2.8-2.343,1.554-23.6-3.051-10.493,9.191-11.6-.752-17.456-9.487-0.412,2.639-8.576-.448-8.446,8.178-4.592,1.706,0.282-2.863-4.744-3.189-2.56-8.135-7.441-8.5-4.744,3.167-2.256-1.75,5.141-5.633H583.264L569.85,584.9l-0.311-1.974,0.383-6.175,4.028-12.4,0.68-3.022,2.09-4.338,9.5-6.71,5.676-.3-9.191-14.954,4.338-7.882-8.489-1.75-11.4-13.262,2.473-1.526-7.347-4-6.175,6.341-4.519,3.486-5.662-.774,4.62-13.081L546.537,499l-7.882.426-5.944-5.242-7.086-14.8,3.731-15.944-8.533-23.219,0.817-2.517-2.343-6.522,0.875-4.064-2.56-4.447-8.829.622-3.348-3.405,0.506-5.987,3.912-4.121-0.412-4.873-2.625-3.167-2.3,2.531-5.293,1.822-1.6-16.892-3.586-4.15-2.1-5.279,4.664-9.748,6.3-4.787,11.085,0.521L512.557,351.6Z" transform="translate(-5.706 -130.015)" fill="#ffeb00" stroke="#000" stroke-width="3"/><path d="M491.988,379.712l4.671-9.733,6.3-4.8,11.071,0.535-1.41-14.166-5.575-12.741,7.159-4.252,2.372-.145-0.492-4.758-5.1-2.683-1-5.705-4.432-3.717-8.135-2.119,4.65-7.383L498.3,290.77l11.736,0.991,10.876,9.588,8.077-1.425,4.338,9.957,4.744,2.863,3.218-1.54L538.1,307.1l3.167-14.477,4.375-2.741-0.579-5.85,6.949-5.5-5.821-6.161,0.3-10.182,2.741-4.389-0.737-9.126-9.184-11.837-5.5,6.71-5.156-.774-3.42-2.625-18.461,4.194-8.417,7.614-5.336,2.444-2.075-1.4-7.6-9.379,9.545-5.886,1.5-18.967,2.09-4.606-3.081-7.217,0.549-5.293-5.662-5.04-0.832-8.193,2.415-1.54,8.063,1.678,5.524-9.588-8.388-8.359-10.42-5.271,4.664-10.832L484.2,143.8l-8.12-.311-5.409-6.175-10.4-5.438-13.659,14.614-1.793,13.84-0.8.3-6.3,10.058-7.528,4.324,0.058,5.93-2.444,1.656-17.087-3.825-6.833,3.927L400.2,189.7l-3.464,2.148-3.76-2.444-1.765,4.3,15.677,15.171,8.417,15.156v5.524l7.752,8.8,8.193,2.256-1.316,8.236-0.448-2.769-2.7,7.882-12.806,10.876,1.287,3.767,6.725,5.9,2.56,8.656-3.514,7.231,7.658,7.347,7.26-3.485,6.566,5.322,3.348,4.4-2.205,7.925-10.073.694-5.112,7.347,2.769,20.717-2.256.759L423.64,358l1.6,2.43,10.934,2.531,4.324,16.494,4.888-.738,0.145,6.978-28.078-14.911-2.907.326,2.191,17.188-4.635,2.256-5-1.258-0.607,8.446-10.015,2.639L383.22,416.222l-24.969-7.412-4.606.651-2.683,3.529-5.792,3.334-8.518,1.005-14.715-12.177-5.242-.976-3.008-7.245L311,396.749l-12.459-4.9-5.763-6.1-13.428-1.692-6.978-4.4-4.932-6.877,0.383-2.813-8.59-1.316-1.909,5.51-4.946,2.993-6.313-5.6-7.347,4.635-4.389,14.195,1.453,5.394,7.781,4.309,0.976,2.8-6.949,5.271-1.851,14.476-16.415,4.563-22.228-5.51-2.936-.622-12.835,7.426-6.877-5.568-17.188-4.563L142.432,420l-26.068-5.242-3.543-4.621-2.7-11.042L90.745,387.078l-2.726-5.142-11.6-1.779L53.692,390.99l-3.97,13.688-6.06,5.308,1.974,7.672,0.152,15.482-8.135,3.2-11.78.166L8.57,447.146l7.1,4.368,12.951,15.409,5.864,0.238,10.8-9.14,1.5,1.953,2.1-1.244,2.56,4.338,2.827,13.218,6.284,5.213,2.372,1.851,9.791-6.8,3.2,4.83L84.4,479.33l8.106,8.685,11.143,4.238,16.465,12.936,3.051,1.23,0.759,0.636-4.577,17.26-15.381,8.59-7.94,19.321L78.754,554.6l-1.02,8.742L67.452,568.88,62.8,579.611l4.165,20.3,2.235,1.706,4.252-3.645,7.629,3.167,8.048,1.366,4.49-3.362,13.659,2.907,7.274,9.335,0.774,11.6-3.7,11.186-5.792,1.142,8.345,7.983,7.347-5.04,8.432-2.148,13.067-16.256,5.836-.723,12.358-3.7,7.274,8.388L167.348,641.6l5.365,7.245L184,652.9l7.911-3.095,10.637,10.015,4.237-3.674,8.4-1.5,0.239-2.856-14.122-9.777,3.746-11.071,9.068-7.4,2.769-7.925L230.02,597.2l8.714,1.765-1.54,11.736,1.735,1.96,4.418-3.008L242.92,600.6,253.9,602.07,259.516,603l4.338-13.587-1.273-5.365,4.353-7.036,3.586,0.593-3.081-10.015,9.191-5.6,3.811-2.965,7.13,0.622,8.533-8.287,34.543,3.262-0.152,11.114,5.185,9.87,15.236-.116,3.485,4.621,1.4,11.042-2.611,5.127-15.041,23.234,3.645,10.42,10.384,3.84,5.2,6.522,4.8-3.391,5.734,1.41,5.633-6.327,26.408-2.191,8.771-7.614,3.175,4.845-1.1,11.635,3.3,8.135,9.082,4.433,12.966,0.058-0.521,7.99,13.146,1.23-3.558,4.744,0.282,8.432-7.441,9.2-1.2,8.829,8.742,3.9,13.067-7.173,3.514-2.7,4.338-3.97,5.864-11.736-2.712-4.39,7.086-4.324,12.191,11.664,1.359-1.114-2.8-5.025,4.65-19.177,2.531-2.4,9.1,7.4,10.731-3.11,7.246,15.482,7.925-3.42,5.806,0.521,4.932,3.124,0.058,2.922,4.758-4.505,10.9,2.1,4.042,3.405-1.895,10.622,17.1,1.692,14.122,8.909,3.066-2.668,8.8-3.745,7.383-3.471,1.331,2.56,8.3-1.425,4.375,3.76,10.695-4.107,2.567,1.33,9.487-.8-7.528-18.938,0.651-5.72-7.274-4.773-23.038-4.238-0.861-13.884,6.58-11.946,0.21-5.575,0.282-2.863-4.729-3.189-2.56-8.135-7.455-8.5-4.729,3.167L592.8,595.5l5.141-5.633H583.3l-13.414-4.975-0.311-1.974,0.4-6.175,4.028-12.4,0.68-3.022,2.09-4.338,9.5-6.71,5.662-.3-9.184-14.954,4.324-7.882-8.475-1.75-11.411-13.262,2.487-1.526-7.361-4-6.161,6.341-4.519,3.486-5.662-.774,4.62-13.081-4.013-3.586-7.9.426-5.944-5.242-7.079-14.8,3.731-15.944L520.858,440.2l0.8-2.517-2.329-6.522,0.861-4.064-2.56-4.447-8.829.622-3.334-3.405,0.492-5.987,3.927-4.121-0.412-4.873-2.625-3.167-2.314,2.531-5.293,1.822-1.584-16.892-3.586-4.15Z" transform="translate(-5.706 -130.015)" fill="#ffeb00" stroke="#000" stroke-width="3"/><path d="M781.838,638.3l1.808-7.513,5.618-1.07,3.9-7.376,5.38-1.584-0.788-8.178-1.425-2.458-5.5-1.005-2.567-8.092-5.662-8.742L782.987,581l-8.287-1.128-6.819-5.025-2.206,1.822-4.223,19.307-5.575-1.034-7.469-8.164-14.136-.311-0.448-16.8,2.061-8.33,4.9-6.595,1.366-8.033,10.2-2.075,2.813-13.674,8.432-3.008,0.622-1.735,13.645,3.167,7.513-2.922,0.817,2.712,2.827-.181,0.152-11.78,3.688,1.454,4-4.223,13.146-5.7-4.18-7.557-5.734.412-2.032-2.046,6.609-15.973,0.535-8.641-3.745-4.064,0.152-5.648-5.337,1.974-2.841-.535v-2.893l-13.1-3.435-5.734-.043-1.88,2.22-8.475-4.845-14,1.953-12.1-.463-7.05.636-7.145-7.969L713.475,460.7l-10.55-3.276-5.17,6.71-13.117,5.437-9.9-.13-5.865-10.464-13.913-11.692-24.586-9.263-0.759,17.3-4.237,7.585,15.807,7.036,0.058,14.3,11.367,4.281-3.153,11.128,1.41,5.553,3.095,0.9,1.989-5.127,13.9,8.251,1.244,23.234,4.534,3.645,5,10.7-7.245,3.572-3.051,7.05,6.905,9.111,7.484,4.324,10.536-4.042,4.73,2.567-2.582,7.643,2.234,5.17,2.162,1.822,11.042-.311-7.26,10.449-2.8-1.049-7.289,4.635,5.806,6.754,0.521,2.8-2.343,1.554-23.6-3.051L665.381,615l-11.6-.752-17.456-9.487-0.412,2.639,3.985,11.216,9.9,6.566,15.93,19.437,3.645,5.482,7.8,5.886,5.156,12.444-3.464,6.862-2.813-6-6.978,2.813,3.9,6.783-9.762,6.595L679.619,710.7l11.042-6.978-1.953-3.391,17.174-14.52-17.528-14.94L687.66,667.6l3.405-5.618,4.238-1.4,2.206-2.625,9.48-2.936,3.731-7.571,7.9-.383,7.9,7.969,2.343,8.461,8.909,7.333,3.276,0.535-1.366,9.053,0.145,5.973L750.934,716.6l4.9-3.471,29.6-5.553,7.629-9.762-2.683-7.824-7.6-16.06,6.891-12.684,1.049-11.454-7.5-3.883Z" transform="translate(-5.706 -130.015)" fill="#ffeb00" stroke="#000" stroke-width="3"/><text transform="translate(790.319 604.024)" font-size="88.485" font-family="DejaVu Sans" font-weight="700">1</text><text transform="translate(556.262 663.212)" font-size="120.692" font-family="DejaVu Sans" font-weight="700">2</text><text transform="translate(804.297 476.833)" font-size="159.075" font-family="DejaVu Sans" font-weight="700">3</text><text transform="translate(720.174 536.54)" font-size="88.217" font-family="DejaVu Sans" font-weight="700">6</text><text transform="translate(665.261 283.727)" font-size="159.075" font-family="DejaVu Sans" font-weight="700">4</text><text transform="translate(362.256 427.96)" font-size="159.075" font-family="DejaVu Sans" font-weight="700">5</text><rect x="244.814" y="300.297" width="112.678" height="112.678" fill="silver" stroke="#000" stroke-width="3"/><rect x="549.269" y="180.129" width="112.678" height="112.678" fill="silver" stroke="#000" stroke-width="3"/><rect x="804.297" y="259.592" width="68.323" height="68.323" fill="silver" stroke="#000" stroke-width="3"/><rect x="683.078" y="346.323" width="57.814" height="57.814" fill="silver" stroke="#000" stroke-width="3"/><rect x="745.311" y="592.032" width="49.427" height="49.427" fill="silver" stroke="#000" stroke-width="3"/><rect x="594.258" y="672.556" width="91.116" height="91.116" fill="#f90" stroke="#000" stroke-width="3"/></svg>