<svg xmlns="http://www.w3.org/2000/svg" width="734.929" height="968.285" viewBox="0 0 734.929 968.285"><title>1T Législatives 2017 Hautes-Pyrénées</title><path d="M305.524,546.82l4.052,8.74L316.7,564.1l-7.042,16,1.168,0.54,11.854,0.637,1.619,2.99-5.67,19.266,3.494,20.788,5.378,12.765-6.431,2.68-9.014-4.972-6.21-8.466-6.909-.964,14.189,15.552,4.635,9.279,0.036,16.86-2.849,6.457-6.617,2.229-1.61,13.773-4.37,5.617,1.743,3.14,25.14,13.7,10.438-.6,12.349,7.253,17.038-2.5,2.53,2.389,0.973,10.315,3.972,5.635-0.646,9.969,8.262,22.292,12.986,4.237-0.451,7.174-14.136,16.348-17.471,3.079-5.67,4.406-6.166,6.873-0.221,11.712-5.662,6.706-1.3,18.108-4.3,9.642,11.491,13.3-2.026,17.833,18.753,21.593-4.157,9.828,3.406,17.656,17.055-1.433,12.075-12.349,23.061,6.652,13.357,11.057,27.166,2.751,5.281,13.3-0.725,10.553,22.266,17.869,18.913-10.35,5.3-20.629,12.96-6.147,11.394-13.286,10.58,9.447,13.862,2.008,2.486,13.809,22.4,9.023,27.652-2.99,11.465-6.4,4-5.653-1.009-6.687L605.88,924.179l8.138-6.2-0.424-7.015,1.433-13.756L608.8,885.495l0.6-9.88,4.52-9.032,0.867-.761L615,853.26l-2.7-2.663-2.76-12.942,1.973-6.431,4.016-16.48,2.53-6.962-5.458-5.13,9.368-7.757-0.6-10.155,4.122-9.262,16.489,3.786,3.565,5.927,3.45-.4,12.73,1.663,6.475,6.457,9.757-3.459,5.192,4.626,6.237-.673L699.6,783.075l1.291-6.033,1.433-6.431,4.582-11.676,4.98-14.56,2.4-1.574,1.574-8.173,1.973-10.262,4.1-6.147,7.307-2.866,8.465-5.184,8.129-11.057,3.424-.257,2.99-8.687-1.822-2.486-5.405-4.786-0.593-.54-11.606-3.592-4.671-9.863,1.566-2.353-3.414-4.079,9.775-2.592L738.3,650.7l-1.787-2.663-7-9.023,0.575-9.607-0.619-1.141-5.714-12.836-11.164-1.486-0.434,9.695-0.6,3.769-4.582-1.088-0.734,3.282-13-.54-4.609,4.8-11.632,12.7-2.884,2.8-5.7-1.574-5.652-6.563,5.865-8.413,0.274-20.5,3.671-5.44,6.307-1.69,10.757,7.776,3.158-1.017-1.044-3.539-5.007-22.636-2.91-1.433,5.069-8.342,1.619-1.937-23.8-10.155,0.336-10.04-7.732,1.327-13.357-2.866-3.406-12.366-6.661-1.344-1.442-6.687-18.5,3.936-8.864-1.247,8.227-6.449-6.829-7.776-9.342-4.7-0.486-.053,11.1-14.286,2.344-4.237,29.864-26.051,16.055-19.646-11.2-6.652,8.731-13.066,12.349,4.459,8.4-5.149,5.184,4.025,13.817-8.466,1.964-16.259-16.445-2.99,11.915-16.825,6.917-.867,0.549-5.706,15.1-15.295,13.384-4.512,0.549-2.8,2.716-10.19,10.359-2.574,2.274-6.431L722.85,329.974l-5.343-2.866-15.056-7.793L696,320.731,677.93,310.416l-5.547,2.76-2.017-.469-16.772-5.962-6.555.159-6.2,7.449-3.14.54-10.323-7.342-5.139.106-8.908-4.22-12.145-4.317-1.513,13.252-18.223-.177-17.232-6.377-1.654-3.3,3.8-14.48-15.127-4.06-11.031,6-13.34,1.486-4.732,4.512-6.4,1.159L511.254,263.9l-9.987,7.926-8.368-4.494-1.663-17.709L470.5,255.775l-20.355,10.243,10.42,23.035,7.439,2.45,3.353,2.194,0.584,6.979-3.884,12.836,0.133,3.822-17.153,15.9-8.412-4.06-2.114-8.882-8.253-3.8,1.9-2.37-2.4-1.813-8.749-.566-0.336.257-4.149,5.582-6.794,1.469-13.561-2.866-0.884-10.42-12.57,7.272-14.667-.726-1.858-.186-6.608-.69-0.955,9-0.84,10.058-12.685,3.229L343.8,349.746l-2.769,2.389-6.219-1.99-9.51,9.519,1.424,17.949-5.971,3.246-0.549,6.82L315.2,392.3l-16.392,3.874,5.785,13.3,29.422,1.194,2.645,13.738,9.819,7.121,6.042,0.947-4.609,18.108L339,448.176l-3.689,12.269,2.875,6.272-3.132,8.66,2.441,5.892,8.227,0.017,0.964,11.022-1.911,6,6.422,12.163-4.919,4.246-6.334.8-4.211,5.007-6.6.743-0.434,18.019-20.284-3.5-1.911,1.69Z" transform="translate(-18.999 -17.135)" fill="#ffeb00" stroke="#000" stroke-width="3"/><path d="M233.314,19l-8.846,4.7-13.817.274-0.84,13.809-16.586,3.592,0.549,7.183,3.592,12.995-1.106,6.36,2.76,3.874-3.874,12.437,2.477,5.8,3.317,0.274,13.269-4.7,9.952,14.375,5.263,3.317,4.149,6.909-0.549,5.8,3.317,4.972-3.043,6.36-1.937,8.572-1.663,6.634,9.686,3.317,1.106,13.543,6.086,0.831,5.8,4.972-3.592,4.423-6.36-.274-25.432,2.486,3.043,10.226-3.874,10.209-1.946,9.952,12.163,12.163-10.509,12.437,18.24,0.274,3.592-8.846,4.7-15.48,5.529,3.874,6.086-14.375,10.509-1.363-1.663,14.1,10.792,9.677L263.7,239.566l2.477,1.937-2.76,3.043,4.972,0.549-2.76,5.529,1.937,2.468-4.423,9.695,3.874,5.529,3.043-1.38,0.549,8.846,17.426,17.143-2.211,6.634-1.106,1.663-8.58,11.332-3.317,1.663-8.572-6.086-16.86,2.486-1.663,6.086-4.972,14.375-7.74,6.909,0.549,13.817,2.211,6.086,12.72,3.592-1.371,3.317,5.529,4.423v3.592l-5.529,16.312-14.375,20.452-1.38,10.226-1.937,6.634-9.395-4.423-6.086-2.486-3.052,1.663,4.7,46.716-17.692.274-8.014,10.226L182.424,466.5l-3.317-.831L172.2,477.832l-0.549,9.395-6.36,6.909-3.052,2.76-5.794,21.283-15.215,7.174-7.74,10.783-12.72-4.149,1.38,10.518-4.157,4.963,6.369,7.74,1.371,6.909-8.3,15.755v7.183l12.437,11.057-6.909,1.38-6.909,8.014-17.966,9.952-9.395-5.529-17.966.831,2.486,16.86-5.8,12.42-17.143,4.423-3.592,13.817,1.937,31.792,4.423,5.529,3.592,13.817L52.2,721.858l-9.677-.831-11.332,12.72-10.509,1.937L22.631,749.5l6.36,8.572v10.509l6.36,16.312-4.423,19.9,6.086,8.306,20.169,5.8,2.486,6.086,14.375,9.952,9.395-3.043,3.583,5.254,1.663,10.509,18.24,10.783,10.509,2.486,11.606,8.3,6.909-1.38,11.332-8,2.76,13.526,5.529,8.846-1.106,3.592,8.846,5.8,10.509,14.649,8.846,15.755,1.38,3.317,0.266,7.466,2.486,2.486,27.918,6.086,4.149,17.418,4.149,5.529,38.435,9.12,12.72-6.634,3.874-9.677,6.9-1.663,20.452,5.254,12.72-6.086,8.014-11.606,6.909-2.211,12.72,6.086h7.183l13.269-5.254,3.043-6.634-3.592-17.692,4.157-9.677-18.532-21.566,1.946-17.966-11.606-13.269,4.423-9.677,1.38-17.966,5.529-6.909,0.274-11.606,6.086-6.909,5.8-4.423,17.418-3.043L396.638,778l0.549-7.183-12.995-4.149-8.3-22.389,0.549-9.952-3.874-5.529-1.106-10.509-2.486-2.211-17.143,2.486L339.671,711.1l-10.509.831L304,698.115l-1.663-3.043,4.423-5.8,1.371-13.543,6.634-2.211,3.052-6.634-0.274-16.86-4.423-9.1-14.375-15.755,6.909,1.106,6.36,8.572,8.846,4.972,6.634-2.76-5.529-12.72-3.317-21.009,5.529-19.072-1.663-3.043-11.889-.549-1.106-.549,7.183-16.029-7.183-8.572-4.149-8.846,1.106-9.395,1.937-1.663L328.6,539.2l0.274-17.966,6.634-.831,4.423-4.972,6.086-.831,4.972-4.149-6.369-12.163,1.946-6.086-1.106-11.057h-8.014l-2.486-5.8L338,466.491l-2.76-6.086,3.592-12.437,8.846,2.486,4.689-17.966-6.086-1.106L336.6,424.2l-2.76-13.543-29.3-1.38-5.8-13.269,16.312-3.874,4.972-4.7,0.549-6.634,6.086-3.317-1.38-17.966,9.395-9.386,6.086,1.937,2.76-2.486,3.317-16.029,12.72-3.317,0.831-9.952,1.106-9.12L368.128,312l1.663,0.274,14.64,0.549,12.72-7.183,0.831,10.509,13.543,2.76,6.909-1.38L422.584,312l0.274-.274,8.846,0.549,2.211,1.663-1.946,2.486,8.3,3.883,2.211,8.846,8.3,3.874,17.143-15.755v-3.874l3.874-12.729-0.549-7.174-3.317-2.211-7.466-2.211-10.509-23.221-9.395,5.254-6.086-2.211L421.478,271.1l-6.086-7.466-12.163,3.874-4.423-9.677,3.052,1.38-4.7-24.326-12.72,3.874-6.36-6.36-3.043-10.226-7.466-7.74,2.76-11.057-0.549-.831,21.566-8.846-8.014-14.932v-1.106l-5.529-7.74-2.76,1.663-5.8-2.211-4.423-8.3-2.76-17.152,2.211-2.751-1.946-6.095L351,116.005l-15.48,7.483-7.475-7.483-1.106-6.634-9.677,4.7-10.509.549-10.226-18.8L289.063,87.8l-10.792,1.38-4.689-14.932-8.3-8.014-3.874-28.475-6.369-13.269-13.817.831-0.274-2.76-3.043,1.38ZM196.55,264.749l-10.783,3.317L188.81,280.5l9.952-.849,2.211,26.538-16.029-4.149-4.423,5.529-0.274,10.783,3.592,9.395h10.226l15.48,6.086h0.549l4.149-5.529v-7.174l1.106-9.12,2.211-13.269,1.663-6.634-1.106-6.36-9.952-11.889h-0.831l-2.211-4.972Zm-12.163,67.176-6.36,1.663-3.317,6.086-5.8,12.163-5.529,3.883v4.423L160.9,370.352l12.429,26.281,4.157,4.963,10.217-1.663,1.38,0.274-0.549-6.36,7.183-6.634,3.043,1.38,6.909-8.014,1.106-10.226-3.874-5.8-7.74-7.183,4.149-17.418Z" transform="translate(-18.999 -17.135)" fill="#ffeb00" stroke="#000" stroke-width="3"/><text transform="translate(158.319 620.67)" font-size="194.6" font-family="DejaVu Sans" font-weight="700">2</text><text transform="translate(413.811 620.668)" font-size="194.6" font-family="DejaVu Sans" font-weight="700">1</text><rect x="413.813" y="708.024" width="137.842" height="137.842" fill="#d00" stroke="#000" stroke-width="3"/><rect x="158.319" y="708.024" width="137.842" height="137.842" fill="#ffd1dc" stroke="#000" stroke-width="3"/></svg>