<svg xmlns="http://www.w3.org/2000/svg" width="959.361" height="754.377" viewBox="0 0 959.361 754.377"><title>1T Législatives 2017 Pyrénées-Orientales</title><path d="M812.346,246.282l2.635,1.814L799.5,249.56l-7.99-4.511-2.984.806-2.6,5.417,0.728,13.788,3.666,4.495-1.558,2.62-6.371,6.223-8.843-1.364L767,267.858l-1.093-8.828-14.307.876-7.975-4.193-6.069-.062-2.8-5.317L729.04,248.2l-0.829-1.62-1.775-5.254,8.812-8.246,2.953-8.022,9.1-.364-0.256-8.959,7.75,4.813,1.8,6.859,4.332-2.209,6.541-2.061L770.9,217.9l5.13-2.844,5.844-3.069,6.619-.7,2.464,3.162,5.069-1.7,4.418-2.379,2.511-.333,0.031-2.7-4.875-.255-3.069-5.48-19.74,5.317,2.875-5.332,2.131-5.239,12.292-1.318,5.735-.922,5.619-1.333,1.542-5.7,4.89-3.208,0.907-4.781,5.7-6.48,5.6,1.224,7.572-3.239,2.751,0.7,1.8,5.34-1.364,9.51,1.8,4.968,8.223,3.557,5.921-.481-3.542,4.65-1.814,16.911-8.293,2.86L850.3,225.9l-3.271,4.766-8.541.364-1.333,5-22.39,1.527Z" transform="translate(-18.805 -8.626)" fill="#ffeb00" stroke="#000" stroke-width="3"/><path d="M607.951,204.928L597.109,202.1l-12.757-8.114L580.09,185.9l-16.957.589,2.333,14.423-12.85,11.516-6.8-1.457,2.426,5.34-0.682,11.78,3.464,8.146-1.767,5.386,2.441,5.968-9.044.24-9.936,6.371-3.418-4.921-14.826-1.845-9.138-16.151-11.625-9.913-18.027,2.681-4.162-2.712-21.344-3.875,0.449-5.526-5.038-2.255L441,202.8l-2.178,2.3-24.157-5.937L428.1,185.9l8.208-4.619,1.178-9.292-2.356-9.114-0.721-1-1.287-6.828,1.209-5.48-5.96-9.61,0.589-5.8-0.194-18.546-5.937-1L420.7,99.781l-6.425-6.223,2.061-8.463,7.27-4.968L446.5,75.073l7.463-1.891L466.6,77.3l36.55,5.735,3.542-.969,25.2-10.672,5.487,0.558,4.262,3.921,2.17,2.093,26.389-2.131,9.091,1.922,18.244,6.084,25.257,2.255L639.857,83.7l0.511,0.093L651.5,89.125l29.908-3.317,11.005-5.13,6.735-10.416,4.983-19.422L720.76,31.875l15.136-3.6,18.3-12.5,18.011-5.4,12.47,17.151,15.02,3.224,6.657,9.734,39.208,13.23,8.1,4.983L869.253,69.68l20.39,12.772-3.24,52.6,0.163,32.5,0.938,18.011-1.178,15.275-5.355,2.193,4.983,3.394L884.365,246.3l0.155,13.183L889.4,295.9l-9.9,3.433-3.5-3.782-7.293,5.3-6.037.031L854.5,285.038l-3.193-4.875,2.1-14.439-5.022,3.526-9.176.442-3.317-3.968-0.442-9.641-20.468-8.022h-0.163l-2.464-1.814,2.418-8.7,22.39-1.527,1.333-5,8.541-.364,3.271-4.766-14.655-7.293,8.293-2.86,1.814-16.911,3.542-4.65-5.921.481-8.223-3.557-1.8-4.968,1.364-9.51-1.814-5.34-2.744-.7-7.587,3.239-5.588-1.224-5.7,6.48-0.907,4.781-4.89,3.208-1.542,5.689-5.619,1.348-5.735.922-12.307,1.3-2.116,5.254-4.65-3.921-9.672-19.12-9.688-4.511-5.735-2.379,1.775-15.275-2.046-9.215-12.989-2.178-20.282,1.542-10.036-6.92-12.1-.24-5.8-1.891-3.364,5.115-1.317,8.913,5.3,10.958-11.021,10.672,2.464,2.635-15.338,6.6-11.153-1-8.146,2.239-2.767,7.463-4.069,3.4-5.433-1.108-10.8,8.463-8.525.109Z" transform="translate(-18.805 -8.626)" fill="silver" stroke="#000" stroke-width="3"/><path d="M623.808,266.611l-8.246-.333-1.465,2.48,5.572,17.864-6.324,6.308-5.945-.457,1.906,7.432,9.61,7.595,5.192-3.3,9.083-1.078L640.4,320.1l8.9,2.433-11.416,3.588-7.293,5.254,1.7,17.787L628.4,353.6l-7.146-8.944-14.648-.791-4.262,4.193-7.8-3.953,0.535-3.131-2.891.155-2.015-5.34-18.027-8.8-2.139,4.983-3.8,11.532,2.131,5.386-1.8,24.056-23.064,13.385L525.822,382.4l-15,3.193-2.581,4.983-5.216,1.379-2.643,5.038-8.192,3.348-15.268,13.788-28.838,24.413-26.226,11.4-9.68,2.449-5.363-3.069-10.974,4.89L371.556,440.36,363.217,449l-11.92,2.7-16.453,8.146L305.6,453.869l-15.663,8.052-5.766,6.007-1.767,8.308-4.5,3.379-0.814,11.431L261.2,498.16l-2.379,8.9-6.069-.558-11.1,5.115-23.979,3.03-3.945,4.937-3.1.255-15.64-10.37-12.71-13.927-9.052-29.652L174.7,453.34l-10.858-5.8,0.728-12.47L158.6,426.4l-10.238,6.7-11.873-2.984-8.657.031-4.022-8.052-7.626-4.953-8.7.7-4.976-3.526-3.5-8.463-7.812-5.317L79.12,399.08l-5.239-3.511-24.769,1.7-13.865-7.208-9.316,1.411-1.844-2.542-3.712-21.584,6.192-10.958,3.069-18.569,8.393-9.052,12.4-.984,10.881-8.161,8.944,1.163,16.485-7.975,8.843-2.464,17.918,3.681,6.022-1.364-0.651-6.068,8.657-2.317,3.9-4.635,0.635-9.021,4.464-7.928,6.9,6.13,9.347-.442,5.7,2.666,5.588-2.651,5.51-7.541,12.253,0.178,4.805-3.875-0.163-5.689,9.641-17.213,4.736-12.757,2.736-.163,10.757,6.642,5.673,0.922,10.7-4.356,2.457-5.448,9.23,1.558,8.471-3.394,21.514,0.7,14.043-6.448,10.044,7.34,6.037,1.588,9.068-1.651,6.611,9.765,0.046,0.379,0.046,3.3,10.641-2.557-0.14-6.541,17.453-11.974,16.98-6.626L371.269,208l5.13-3.433,0.163-6.208,7.029,5.464,8.7,2.046,22.336-6.673,24.157,5.921,2.178-2.287,4.6,6.874,5.038,2.255-0.449,5.526,21.336,3.875,4.17,2.712,18.027-2.681,11.625,9.913,9.129,16.151,14.826,1.845,3.426,4.921,9.936-6.371,9.037-.225-2.434-5.975,1.759-5.371-3.456-8.146,0.682-11.78-2.434-5.34,6.8,1.442,12.857-11.516-2.333-14.408,16.957-.589,4.271,8.068,12.757,8.129,10.842,2.829,4.836-2.938,8.525-.124,10.8-8.447,5.433,1.108,4.069-3.418,2.767-7.448,8.146-2.255,11.153,1,15.345-6.587-2.464-2.635,11.005-10.672L682.243,151.6l1.317-8.928,3.348-5.1,5.8,1.891,12.106,0.225,10.021,6.937,20.282-1.542,12.989,2.178,2.046,9.215-1.775,15.26,5.735,2.379,9.688,4.511,9.672,19.135,4.665,3.906L775.244,207,795,201.687l3.061,5.48,4.875,0.24-0.031,2.712-2.511.318-4.4,2.379-5.084,1.712-2.449-3.178-6.626.713-10.959,5.921-3.449,5.239-6.541,2.061-4.332,2.209-1.8-6.859-7.75-4.8,0.256,8.944-9.083.364-2.953,8.022-8.827,8.246-15.074-2.969-20.553,6.417-9.277.155-3.255-1.209-11.881-9.494-3.464.954-0.38,6.13-16.244,14.058-2.875,8.765L636.534,270l-2.8-4.387-4.813-1.682Z" transform="translate(-18.805 -8.626)" fill="#ffeb00" stroke="#000" stroke-width="3"/><path d="M881.733,408.236L868.6,414.855l-6.99-5.271-9.339-.078L848,413.7l-9.021,1.209-12.834-13.2-9.385,6.626-5.417,13.757-2.7,1.348-22.421-2.62-10.37-5.859-2.813,1.364-3.03,8.765-2.844,1.24-8.641-3.394-3.03-.876-6.192,14.09-10.819,5.332-10.339,15.469-2.782,1.457-14.485,5.34-7.587-5.48-2.666-5.72-3.1-.473-16.136,2.449-2.255-.109-21.452,14.741-11.486,1.333-2.255,14.563L641.6,486.9l-8.673-1.209-0.62,2.891,4.1,4.239,2.131,12.276,8.525,9.083,0.108,9.462-1.844,2.588-6.146,1.093-30.931-4.433-17.585-7.037-1.418-2.844-16.911-.046-4.386,3.953-2.356,8.944-6.223,6.626-2.79,1.348-3.085.178-22.941-8.146-8.92,2.271-5.65-6.8-6.192-10.517-9.207-8.308-10.912-5.587-2-15.027-15.144-.178-17.291-7.192-18.329-3.635-5.348-3.224-2.155-5.844-11.85-2.333-5.34-7.1,9.68-2.449,26.226-11.4,28.838-24.413,15.276-13.788L500.425,397l2.643-5.038,5.216-1.379,2.581-4.983,15-3.193,17.655,3.938,23.064-13.385,1.8-24.056-2.131-5.386,3.8-11.532L572.191,327l18.027,8.8,2.015,5.34,2.891-.155-0.535,3.131,7.8,3.953,4.262-4.193,14.655,0.791,7.13,8.944,3.906-4.433-1.7-17.787,7.278-5.254,11.416-3.588-8.9-2.433-7.192-16.981-9.083,1.078-5.192,3.3-9.626-7.595-1.9-7.432,5.937,0.457,6.34-6.308-5.588-17.864,1.48-2.48,8.246,0.333,5.084-2.728,4.828,1.682,2.782,4.4,6.875-5.8,2.875-8.765,16.229-14.058,0.4-6.13,3.464-.954,11.881,9.494,3.255,1.209,9.277-.155,20.538-6.417,15.09,2.969,1.775,5.254,0.829,1.62,5.719,2.131,2.8,5.317,6.069,0.078,7.975,4.193,14.307-.891L767,267.9l6.541,9.176,8.843,1.364,6.371-6.223,1.558-2.62-3.666-4.48-0.728-13.8,2.6-5.417,2.984-.791,7.99,4.495,15.338-1.465h0.155l20.484,8.022L835.9,265.8l3.332,3.968,9.176-.427,5.022-3.542-2.1,14.439,3.193,4.875,8.176,15.849,6.037-.031,7.278-5.3,3.511,3.8,9.9-3.448,1.271,5.689,4.084,43.277,4.6,7.7,11.943,2.666,9.129,7.587,5.859,1.481,5.7-1.3,18.949,7.889-7.052,9.7,5.634,6.417-0.969,2.875-2.418,5.177,1.759,5.8,14.322,4.666,4.859,10.564-2.464,5.069,5.022,3.379,0.046,5.975,6.828,9.843-0.814,2.938L954.483,444.9,942.54,443.26l-1.891-2.411-8.4,3.938-5.906,7.192-9.191-.7-19.484-19.708-9.99-22.583Z" transform="translate(-18.805 -8.626)" fill="#ffeb00" stroke="#000" stroke-width="3"/><text transform="translate(278.373 392.983)" font-size="170.493" font-family="DejaVu Sans" font-weight="700">3</text><text transform="translate(658.43 403.639)" font-size="170.493" font-family="DejaVu Sans" font-weight="700">4</text><text transform="translate(730.653 152.102)" font-size="153.61" font-family="DejaVu Sans" font-weight="700">2</text><text transform="translate(741.309 245.534)" font-size="37.067" font-family="DejaVu Sans" font-weight="700">1</text><rect x="383.378" y="245.531" width="120.766" height="120.766" fill="silver" stroke="#000" stroke-width="3"/><rect x="428.666" y="89.47" width="92.126" height="92.126" fill="#f90" stroke="#000" stroke-width="3"/><rect x="492.503" y="392.982" width="92.126" height="92.126" fill="silver" stroke="#000" stroke-width="3"/><rect x="777.81" y="193.407" width="31.661" height="31.661" fill="silver" stroke="#000" stroke-width="3"/><path d="M843.173,683.531l6.39,4.4-37.547,3.551L792.64,680.542,785.4,682.5l-6.314,13.136,1.766,33.433,8.889,10.9-3.777,6.352-15.448,15.09L749.079,758.1l-15.861-22.25-2.65-21.406-34.691,2.124L676.539,706.4l-14.715-.151-6.785-12.892-13.869-5.168-2.011-3.927-4.3-12.741,21.368-19.995,7.16-19.451,22.063-.883-0.621-21.724,18.793,11.67,4.36,16.632,10.505-5.357,15.861-5,8.325-12.7,12.441-6.9,14.17-7.442,16.049-1.691,5.976,7.667,12.29-4.115,10.712-5.769,6.088-.807,0.076-6.54-11.821-.619-7.442-13.287L753.344,588.1l6.972-12.929,5.168-12.7,29.805-3.2,13.906-2.237L822.82,553.8l3.739-13.831,11.858-7.779,2.2-11.594,13.832-15.712,13.588,2.968L886.4,500l6.671,1.691,4.36,12.947-3.308,23.06,4.36,12.046,19.939,8.626,14.357-1.165-8.588,11.275-4.4,41.006L899.68,616.42,935.217,634.1l-7.93,11.557-20.709.883-3.232,12.122-54.292,3.7Z" transform="translate(-18.805 -8.626)" fill="#ffeb00" stroke="#000" stroke-width="3"/><text transform="translate(697.714 694.008)" font-size="89.882" font-family="DejaVu Sans" font-weight="700">1</text><rect x="786.225" y="567.61" width="76.773" height="76.773" fill="silver" stroke="#000" stroke-width="3"/><polyline points="874.262 493.064 796.184 239.507 746.68 553.84" fill="none" stroke="#000" stroke-width="3"/></svg>