<svg xmlns="http://www.w3.org/2000/svg" width="951.696" height="990.237" viewBox="0 0 951.696 990.237"><title>1T Législatives 2017 Haute-Garonne</title><path d="M721.559,184.306l-10.353-3.394,2,1.635-0.515,7.728-11.658-.2-1.182,5.1,2.837,7.309-14.35-8.161-7.3,3.14-9.714-9.9,0.481-2.748-13.567-6.334-2.988,11.108,2.143,1.621-3.62,7.069,1.683,5.1-4.452,9.583-1.827,4.252-5.894,3.14L637.648,224l2.432,4.911,13.1,3.394-5.31.941L642,238.849l-7.584-2.658-6.471,3.648-8.01-7.543-8.573,7.124-5.331,5.7,2.81,16.438-5.317.3-4.623-1.9-6.725,2.184-2.535-5.867-2.769-2.589-2.727.041-3.668-.646-0.124-7.687,1.168-5.633-0.687-1.573,0.749-1.339,0.1-8.854,2.411,0.405-0.254-3.62,5.523-.721,4.479-6.938,0.151-2.7,7.722-2.548,1.532-7.618-8.47-6.039-1.374.185,1.34-5.888-2.775-4.788-11.033-8.532-0.646-2.734,2.432-1.353,3.881-3.325,2.6-7.405,1.793-2.1,7.989,1.477,2.253,1.56,8.635-6.6,5.028,0.6,3.455-3.971-0.852-7.556,3.888-6.883-3.236-11.259-2.782-4.885,0.041-5.619L630.181,99.2l2.466-1,5.585,5.557,5.3,0.309,2.459-.439,7.632-9.913,6.938,2.48,8.36-5.434,21.557,12.448,11.266,1.25,2.191,5.029-3.778,9.968,0.563,2.7,4.953,2.04,2.466,7.261-3.3,12.372,4.156,2.8,1.477,4.788,11.514,5.208,5.448,5.888,2.473-1,7.838,10.881-2.432,4.761-5.475.254Z" transform="translate(3.515 -4.83)" fill="#f90" stroke="#000" stroke-width="3"/><path d="M671.329,187.569l0.481-2.748-13.567-6.334-2.988,11.108,2.143,1.621-3.62,7.069,1.683,5.1-4.452,9.583-1.827,4.252-5.894,3.14L637.648,224l2.432,4.911,13.1,3.394-5.31.941L642,238.856l-7.584-2.658-6.471,3.648-8.01-7.543-8.573,7.124-5.331,5.7,2.81,16.438-12.8,5.578-0.083,3.592-6.444-1.312-0.433-3.545-3.771-.11-4.788,1.237L575.6,278.252l12.757,0.982,6.08-3.181,8.958,25.335,10.566,2.212,6.918-3.249,4.548-7.179-0.694-8.5,13.849-1.367,13.808,9.109,3.284,0.254,2.13-6.952,10-3.971,6.7,4.816,0.79,4.953,7.5,2.171-1-7.248,4.829-9.041,5.221-6.148,2.363-7.687,4.548-2.8,5.091,1.862,8.017-1.353,9.734,4.349-2.982-7.571-4.156-3.476,1.175-7.584,4.726,1.353,6.512-6.993,2.28-7.433,6.478-8.683,12.564-4.911,2.645-.646,0.976-5.31-5.9-8.882,0.185-10.655-33.359-4.616-11.658-.2-1.182,5.111,2.837,7.3-14.35-8.161-7.3,3.153Z" transform="translate(3.515 -4.83)" fill="#ffeb00" stroke="#000" stroke-width="3"/><path d="M499.831,104.812l-10.05,2.858-2.253-4.349-6.464,2.439,1.7,5.249,4.438,2.576-1.793,2.122-35.948,14.639-1.587-2.294-1.758-5.07,6.382-5.18-1.291-5.29-19.022-3.057-4.582-8.361-7.213-3.579L417.1,89.828l-7.454-3.222-1.346,5.42-9.748,5.234-6.148,9.192-0.769,9.308,3.572,10.16-2.3,1.635-0.1,5.592,6.561,4.9,7.062,3.043,0.536,18.273-12.379,6.224-3.5,20.189,3.936,0.8,5.3-.522,2.336,1.291-0.577,2.617,9.933,1.855L416.545,198l6.78,3.572,4.857,8.828,4.342,2.391,11.067-7.488,3.84-6.725,1.5-3.462,3.538,7.405,0.6,16.205,4.767,2.7,0.22,2.72,5.276,1.422L481.868,212.3l3.043-4.616,15.2-7.673-0.694-8.415,6.313,12.613,0.652,8.477,12.564-3.579,8.161,6.842,7.7-.323,0.385-1.608-5.063-11.527,8.181,5.647,5.6-4.067,4.974-1.573,2.15,9.473,7.783,0.508,6.931-.158,3.3,3.957,7.776,2.432,0.275-5.462,4.891-2.391,1.8,13.883,5.523-.721,4.479-6.938,0.151-2.7,7.722-2.548,1.525-7.618-8.463-6.039-1.374.185,1.34-5.888-2.775-4.788-11.033-8.532-0.646-2.72,2.432-1.367,3.881-3.325,2.59-7.405,1.8-2.1,7.989,1.477,2.247,1.56,8.642-6.6,5.028,0.618,3.455-3.984-0.852-7.556,3.888-6.883L618.1,129.61l-2.782-4.885,0.041-5.619,14.77-19.935,2.466-1,5.585,5.571,5.3,0.3,2.459-.439,7.625-9.913,6.945,2.48,8.36-5.434,2.672-21.014-1.127-.351-10.888-4.238L649.3,49.189l0.144-1.889,5.077-.845-4.438-3.167,1.752-5.008-5.056-6.416-1.868-7.969,4.726-15.078L636.891,6.562,635.352,14.3l-4.575,6.45-4.747-1.917-0.57,5.07L615.2,32.92l-2.761-.144L610,22.218l-6.251-5.275L599.59,25.7l-6.808,9.082L587.362,47.7l-0.694-2.576-9.789,3.291-7.515-1.958-5.558-8.882-5.187-1.3-5.083,2.253-15.085-6.416-5.413,5.7,0.158,5.234-4.032,3.366,7.117,11.2-1.539,4.534-13.76,1-9.274-5.53-11.6,5.97-3.339,4.122,5.379,1.367,6.67,8.731,10.036-3.531,13.306,0.859L535.449,90.7l-7.22,1.182-2.514,4.225-9.954,1.635-8.566,6.21-5.688.419Z" transform="translate(3.515 -4.83)" fill="#ffeb00" stroke="#000" stroke-width="3"/><path d="M379.785,214.229L368.9,216.386l-7.186-7.632-2.631.254-0.7-2.418-4.561-1.758,1.353-2.122,0.515-5.152,3.9-3.394,0.584-5.124,3.373-3.771-5.592-3.648-8.979-5.983-7.8,1.408-1.772-2.081-2.267-5.015,1.724-2.143-6.684-4.713-15.216-13.038,3.654-.055-10.256-12.441-5.008-.226,2.239-1.463-6.306-8.443-2.995-12.585,1.223-1.573,4.671-.378,4.424,2.589,6.354-3.14,2.968-4.149,7.454-2.24,21.275-3.771,4.795,2.83,8.257,0.749,13.43-13.643,0.687-.714,8.065,6.629,5.111,1.195,1.291,2.309-1.752,1.944,3.428,3.93,2.425-1-0.776,9.3,3.579,10.167-2.3,1.621-0.1,5.606,6.561,4.9,7.062,3.043,0.536,18.273-12.379,6.21-3.5,20.189,3.936,0.8,5.3-.522,2.336,1.291-0.577,2.617L412,191.764l4.534,6.183,6.78,3.579,4.857,8.813,4.342,2.391,11.067-7.488,3.84-6.725,1.5-3.462,3.538,7.405,0.6,16.219,4.767,2.686,0.22,2.734,5.276,1.408,13.018,2.714,7.495-2.521,4.9,2.04,3.826,6.966,12.468,5.208,2.514-.687,5.867,5.166,14.543-5.3,11.232,6.787-6.293,5.571-2.212,11.053L537.064,268l-0.508,4.98,7.1,3.366-5.715,6.265,0.818,7.81-3.723,7.784-2.769,4L519.4,297.542l-2.308,1.5-7.192,3.73-3.036,13.038-0.351,1.326-2.775,4.307-4.7-1.717-4.712,6.024-2.961,5.578-7.694,2.645-13.506-2.7-2.4,10.991-7.584,8.106,13.643,2.968,11.823,7.618-2.294,4.589-5.049,1.573L457.8,362.465l0.714-13.3-7.3,3.7-7.982-.927-3.847,3.888,0.873,2.054-3.586,2.439-2.26,4.685,5.413,5.324-2.961,12.908,1.676,2.054-2.8,6.21-7.955-2.418-8,2.294-6.059,3.291-1.4-2.109-7.515-.336-2.507-4.335,1.346-4.953-3.84-6.732-18.232-2.376-8.367-6.547-2.734.762L347.1,358.262l-2.184-1,10.3-1.862,4.637-12.077,7.921-.226L356.1,331.9l1.319-5.3,7.659,1.016,4.733-2.658-5.262-6.224-9.837-5.139,5.29,1.367,8.916-5.7,5.427-.055,4.245,3.208,3.291,7.461,5.008-3.009,7.343-6.925-3.565-9.006,7.632,1.814,18.2-1.875,4.383-12.194-1.58-2.081,7.261,3.03,7.667-1.477,7.343,2.748,0.556-21.508-6.924-7.872-4.417-6.828-5.537,5.811-7.454,1.381-9.37-13.018,2.4-11.514-4.788-5.029-4.63-.673-4.176,2.748-4.994-.426,0.343,2.453-14.749-6.024,0.213-5.042,6.32-8.168Z" transform="translate(3.515 -4.83)" fill="#ffeb00" stroke="#000" stroke-width="3"/><path d="M603.018,429.748l2.3-10.49-1.553-3.888-1.319-2.294,2.178-1.58,7.474,3.084,1.669-2.122,2.446-13.2-2.72-4.685-11.788-4.713L604.1,385.3l-1.717-4.506-5.317,6.093-9.775,4.252-12.509-1.422-0.8-1.958-3.119,2.137-12.674,1.381,2.13,7.22,1.628,8.223,5.544,9.7L567,421.993l-2.878,7.659-12.29,6.148-10.3-12.853-6.808-3.73-12.448,3.744-1.133-2.548-7.5-2.322,0.694-2.7,2.878-4.733L533.293,395.5l2.432-7.886,6.9-8.209,1.25-4.939-5.365,1.422-6.114-5.942-7.1.138,1.875-5.008-1.312-7.982,2.006-2.04-5.083-1.814-5.083,1.93,1.91-13.924,4.28-7.914,18.191-5.571,2.164,1.745,1.133-2.122-2.933-8.361-3.977-7.165,1.594-5.29,3.552-3.353-8.566-4.967-2.769,4.012L519.411,297.6l-2.308,1.491-7.192,3.73-3.036,13.038-0.351,1.339-2.775,4.307-4.7-1.717-4.712,6.024-2.961,5.571-7.694,2.658-13.506-2.7-2.391,10.978-7.584,8.12,13.643,2.968,11.823,7.618-2.294,4.589-5.049,1.573-20.505-4.672,0.714-13.285-7.3,3.7-7.982-.941-3.847,3.9,0.873,2.04-3.586,2.439-2.26,4.7,5.413,5.31L436.887,383.3l1.676,2.054-2.8,6.21,7.3,7.728-5.867,12.372,2.219,7.81-2.219,5.042,15.5,7.433-6.052,5.166,1.271,7.584-21.77,15.319-3.579,7.233-7.653.268L411,464.158l-7.179,6.657-2.391,6.87,7.9-.735L425.7,485.9,418.2,488.07,414.768,492l7.536-.577L432.9,498l2.247,7.488-3.737,7.248-8.937,7.124-8.161,16.879-2.652.069-1.711-5.029-2.548-.7-6.9,3.84-9.755-10.147L374.8,545.334l7.886,11.025,14.8,6.684,6,2.954-0.563,4.967-7.337,2.521-2.322,7.378-4.946,1.56-3.572,1.855,0.22,12.867,1.649,9.542,9.741-3.744,10.387,2.253,1.415-9.377,9.768-.158,3.071,9.81,2.288,1.264,0.1,5.249,4.85,0.9,3.861,9.274-5.99,3.572-1.154,4.87,2.432,4.349,13.67,12.441,7.22,8.264,1.436,4.685-1.587,1.862,7.646,16.769,12.8-1.717,9.555-2.858-0.652-13.066,10.62-1.827,1.635-2.171,4.925-8.361,7.323,0.687-15.2-15.525-1.649-5.124-10.792.364-10.407-1.635-8.079-1.662-3.833-3.607-0.144-5.365,6.313-8.587,1.518-10.709,8.147-1.326,2.988,4.589,2.26-.392,8.7-5.592-1.044-.564,6-3.263,11.479,5.015,5.509-4.506,5.193,3.93,4.541-.777,4.218-4.843-1.044-6.039,16.844-6.76,7.9,1.862L547.1,569.8l1.34-7.124-4.293-5.942-1.078-5.008-4.568,2.294-7.385-2.1-2.493,1.209-6.766-4.211L511.176,546.7l6.725-4.857,0.309-2.748-21.234-3.435,4.149-6.375-5.077-12.427,5.276,0.646,3.462-7.35,5.358-.522L514.405,500l4.28-3.558,8.291-1.326,16.075,4.28-4.28,3.325,7.948,13.752,13.217,9.013,0.474,0.859L574.005,543,568.8,566.494l8.415,6.7,5.99,1.814,5.99,2.927,9.741,2.137,3.943-5.956,1.841-5.152,4.891-2.453,9.906,4.438-0.069-3.14,0.007-5.324-6.691-4.266,7.048-10.16-3.991-4.122-3.93-1.827,1-4.713-2.315-4.672,3.709-6.643,0.7-12.736,6.059,4.465,2.94-4.211,2.184,1.353,0.271,5.069,1.023,10.236,14.069-3.572-0.028.79,2.157-1.367,1.786,1.855,5.028,8.965,4.884,6.361,2.171-1.573,2.034-4.98-1.388-7.769,5.008-1.5-0.824-7.742,6.155-11.74,4.218-3.249,4.376,3.167,2.521-1.058,1.113-2.494-3.648-7.1,13.382-13.32-9.439-8.923-19.784-21.68-6.863,1.875-2.995,9.878-4.678,5.8,1.628,2.054-5.2,1.209-7.337-3.971-5.317,1.649-2.37-1.463-6.313-8.724,7.872-1.58,3.73-3.861-5.022-6.183-15.1-7.405-5.441-9.885Z" transform="translate(3.515 -4.83)" fill="#ffeb00" stroke="#000" stroke-width="3"/><path d="M282.973,774.18l-8.772,5.826-22.03,1.3,6.121,17.593L253.97,805.2l-7.68.309-4.472,2.734-7.838-.941-1.752,2-8.209,5.716,4.417,11.727,4,3.607,1.051,5.31-4.452,12.743,2.439,4.829,5.118,1.745,1.669,10.05,5.145,11.486-0.927,10.023-13.5-2.04L209.3,874.771l-12.97,3.462-23.047-9.645-5.482-5.956-12.86-4.506-9.665,4.911-8.147.11,0.467,5.462-9.418,5.688-2.013,4.713,1.731,5.221,4.389,3.277-2.823,7.461,3.05,9.192-5.826,4.156-4.506,8.546-4.527,3.634,11.479,6.615-13.038,15.876,10.517,2.109,6,15.525,3.682,4.184-0.8,8.051,3.174,7.673-4.252,12.908-30.13-3.462L89.739,982.15l-1.656,1-3.441,7.22-34.086-5.929-1.889.082-5.922,8.669-13.389-1.126-9.075-5.475,3.105-4.39L22.6,977,4.839,960.236l6.32-4.816-0.33-5.434,1.113-10.7-4.836-9.1,0.467-7.673,3.51-7.014,0.673-.591,0.165-9.755-2.088-2.068-2.15-10.037,1.539-5.008,3.112-12.8,1.965-5.406-4.239-3.984,7.275-6.011-0.467-7.9,3.2-7.192,12.8,2.94,2.769,4.6,2.679-.309,9.885,1.291,5.028,5.015,7.577-2.686,4.032,3.592,4.843-.522,7.935-8.023,1-4.685,1.113-4.98,3.558-9.082L87.165,820.6l1.862-1.223,1.23-6.347,1.525-7.969,3.187-4.761,5.674-2.24,6.574-4.012,6.313-8.6,2.659-.2,2.322-6.746L117.1,776.59l-4.19-3.73-0.467-.419-9.006-2.789L99.8,762.006l1.216-1.841L98.362,757l7.591-2.013,1.717-7.124-1.381-2.068-5.434-7.007,0.44-7.461-0.481-.886-4.438-9.968-8.662-1.154-0.343,7.529L86.9,729.773l-3.558-.845-0.57,2.548-10.1-.419-3.579,3.73-9.033,9.865-2.239,2.171L53.4,745.6l-4.383-5.1,4.555-6.533,0.206-15.924,2.851-4.225,4.9-1.312,8.36,6.039,2.446-.777-0.81-2.761-3.881-17.579-2.267-1.113,3.936-6.478,1.257-1.5L52.083,680.45l0.261-7.8-6,1.031-10.373-2.226-2.645-9.59L28.15,660.81l-1.12-5.193-14.358,3.071-6.89-.982,6.389-4.995-5.3-6.052-7.254-3.634-0.371-.055,8.615-11.094,1.821-3.291,23.191-20.217,12.475-15.257-8.7-5.166,6.78-10.16,9.59,3.462,6.526-4,4.026,3.125,10.73-6.574,1.525-12.626-12.763-2.322L72.3,545.786l5.379-.673L78.1,540.7l11.726-11.884,10.394-3.5,0.426-2.171,2.109-7.914,8.044-1.985,1.772-5.008L95.677,498.8l2.83-3.84,19.035,2.631,7.014-4.026,10.778-9.713,0.351-2.24,10.71-16.1,2.933-5.5,0.818-1.545,1.717-2.714,7.206-11.582,9.459,5.379,7.446-7.7,4.293-6.657-2.542-4.843,1.566-2.24,2.906-4.685,1.223-2.453-2.933-7.556,10.744,0.282,21.543,13.739,0.206-.364,3.675-9.926,3.847-3.579,13.932,5.7,7.392-3.689,2.528,0.927,1.779-2.013,4.087,3.5,5.324,0.687,2.968,0.48,9.686,3.813,1.449-2.04,7.323,1.209,0.083,2.548,4.726,1.786,1.051,4.713,9.927,11.4,1.525-3.49L304,437.949l3.078,7.289-1.34,5.152,8.189,6.533,7.667-2.789,1-6.4,4.389-1.9,1.271-2.507-3.579-3.545,1.573-5.324L321.76,421.4l6.059-5.29,10.792,1.717,3.394-7.014-4.41-6.574-1.257-1.635,1.9-4.238,5.887-4.238,0.948-4.87,0.652-4.967,2.391,0.749-1-2.184,4-2.631-1.484-1.875-14.1-10.277,2.7-4.506,8.965-5.124,23.377,9.782,2.734-.762,8.374,6.547,18.225,2.376,3.84,6.732-1.346,4.967L404.9,392.4l7.515,0.336,1.4,2.109,6.059-3.291,8-2.294,7.955,2.418,7.3,7.728-5.867,12.372,2.226,7.825-2.226,5.029,15.5,7.433-6.052,5.166,1.271,7.584-21.77,15.319-3.579,7.233-7.653.282-3.909-3.366-7.179,6.643L401.5,477.8l7.9-.735,16.37,8.965-7.495,2.157-3.435,3.943,7.536-.591,10.593,6.574,2.247,7.488-3.73,7.248-8.944,7.124-8.161,16.879-2.645.069-1.717-5.029-2.542-.687-6.9,3.826-9.762-10.147-15.937,20.568,7.886,11.025,14.8,6.7,6,2.94-0.563,4.967-7.33,2.521-2.329,7.378-4.946,1.56L384.83,584.4l0.22,12.867L386.7,606.8l9.741-3.744,10.394,2.253,1.408-9.377,9.775-.158,3.064,9.81,2.288,1.278,0.1,5.249,4.85,0.886,3.861,9.288-5.99,3.572-1.154,4.87,2.432,4.335-4.369,7.192-2.8.055-9.851-5.3L397.731,622.3l-7.014,6.8-2.1,3.338-9.933,1.69-2.034,6.643L362.03,636.9l-5.489-5.42-0.989,1.237-2.02,4.616,2.28,4.156-0.859,10.49-7.364,15.6-7.426-1.463-9.342-9.067L325.8,656.4l1.676,6.979-4.355,5.914-2.452.123-0.247,5.475,7.769,7.646-3.119,4.08-4.239,3.462-8.223-.673,4.266,8.429-1.065,7.529,3.029,4.149,2.514-.439L322,715.92l-0.714.241-5.077-4.252,2.686,17.16,4.534-.467,6.5,4.17,3.236,6.979,5.2-.138-9.844,3.277-6.093,12.179-9.342,13.08-8.408,2.9-15.539,4.122Z" transform="translate(3.515 -4.83)" fill="#ffeb00" stroke="#000" stroke-width="3"/><path d="M575.65,309.647l0.268,10.222-3.187,9.824,1.14,2.439,5.255,1.154-2.226,6.9-7.722-.123-2.672-4.321-9.48,5.488,8.092,10.572,1.147,2.122-3.943,5.488,1.69,1.69,6.2,8.8-2.528,9.981,3.195,9.995L558.2,391.242l2.13,7.22,1.628,8.223,5.544,9.7-0.488,5.578-2.878,7.673-12.29,6.148-10.3-12.867-6.808-3.717-12.448,3.73-1.133-2.535-7.5-2.335,0.694-2.7,2.878-4.733,16.088-15.147,2.425-7.9,6.9-8.2,1.244-4.953-5.358,1.436-6.114-5.942-7.1.123,1.875-5.008-1.312-7.982,2.006-2.027-5.083-1.814-5.083,1.93,1.91-13.939,4.28-7.9,18.191-5.578,2.164,1.745,1.133-2.109-2.927-8.361-3.984-7.165,1.594-5.3,10.3,9.274L575.6,278.279l12.757,0.969,6.08-3.167,8.958,25.335,10.566,2.212,4.41,8.292-19.386,9.59-2.706-.549-1.6-.549Z" transform="translate(3.515 -4.83)" fill="#ffeb00" stroke="#000" stroke-width="3"/><path d="M821.964,307.127l-0.728-14.783-6.018-8.333-10.2-2.673-9.054,1.477-4.362-2.563-3.256-.831-11.981-7.069-0.687-5.544-4.369-3.517-1.01,1.436-10.03-1.339-0.172-.721-2.329-1.291-8.443-4.438-1.889-4.252-7.213-3.421-7.337.577-6.045-8.415-6.512,6.979-4.726-1.353-1.175,7.584,4.156,3.476,2.982,7.571-9.734-4.349-8.017,1.353-5.091-1.855-4.555,2.789-2.356,7.687-5.221,6.155-4.829,9.026,1,7.248-7.5-2.171-0.79-4.953-6.7-4.816-10,3.971-2.13,6.952-3.284-.254-13.808-9.109-13.849,1.367,0.694,8.5-4.548,7.192-6.918,3.235,4.4,8.305-19.379,9.583-2.714-.549-1.594-.536-12.145-7.289-6.931-3.517,0.337,10.236-3.187,9.837,1.14,2.432,5.248,1.168-2.219,6.9-7.722-.123-2.672-4.335-9.48,5.5,8.092,10.572,1.14,2.109-3.936,5.488,1.69,1.69,6.2,8.813-2.535,9.981,3.2,9.981,3.112-2.137,0.8,1.958,12.509,1.422,9.775-4.252,5.317-6.093,1.717,4.506-2.391,4.561,11.788,4.713,2.72,4.685-2.446,13.2-1.669,2.122-7.474-3.084-2.178,1.58,1.319,2.294,1.553,3.888-2.3,10.49,4.85,2.912,5.441,9.878,15.1,7.419,5.022,6.183-3.73,3.861-7.872,1.58,6.313,8.71,2.37,1.477,5.31-1.649,7.343,3.957,5.193-1.195-1.621-2.054,4.678-5.8,2.988-9.885,6.863-1.862,19.791,21.68L690.5,483.9l-13.375,13.313,3.648,7.11-1.113,2.494-2.521,1.058-4.376-3.167-4.218,3.249L662.39,519.7l0.824,7.742,2.191,5.008,10.716,2.137,3.084,4.493,18.06,5.3-1.209,13.554,5.441-.378,6.361-5.249,0.3-5.5-3.016-7.1,13.43-17.256,8.649,6.237,4.864-2,2.645-4.534,3.139-3.476,4.6-8.869-6.148-4.6,13.711-8.628,4.939-1.958-6.732-10.95,1.147-2.439,1.01-2.535-3.036-4.548,7.309,3.071,6.485-4.644,1.573-4.8,13.457,10.023,2.473-4.465,4.919-2.1,7.02,3.675,9.638-.735,1.285-5.337-6.2-8.937-0.57-13.794,2.81-4.774-2.535-7.405,12.6-2.439-2.631-3.312-2.995-4.307,0.447-5.234,5.55-5.7,7.948,0.8,2.418-4.726,1.346-4.266-2.26-3.73,7.872-8.759,9.624,5.221,0.611,5.393,13.808,12.853,2.631,4.465-3.826,9.741,4.685,2.054,4.149-2.714,2.288-2.686-1.971-1.862,5.29-9.136,0.536-5.275,7.776-2.281,7.584,2.734,6.21-4.17,3.263,2.294,1.278,6.08,3.95-3.222,10.607,7.872,12.7-4.534,4.857-6.547,4.6,2.871,4.967-2.068,0.66-2.658-5.413-9.178-3.95-7.378-4.355-2.776,2.583-16.515,3.352-4.39,8.223-1.676,5.317-6.547-2.638-3.744,2.514-6.375-3.256-10.167-2.1,7.309-2.315,1.367-5.867-5.275-5.022-1.93-2.253,1.477,1.545,16.178-1.463,2.35-1.608,2.281-13.142,1.93-5.853-5.942-12.4-6.168-2.088,2.912-18.651-11.836-2.04,2.954-16.171-11.85-0.982-.6-8.113-13.093-0.426-2.631,4.273-3.1-9.446-3.826Z" transform="translate(3.515 -4.83)" fill="#ffeb00" stroke="#000" stroke-width="3"/><path d="M530.061,202.08l8.288,5.733,5.677-4.126,5.027-1.59,2.188,9.591,7.87,0.511,7.016-.156,3.348,4.006,7.868,2.461,0.28-5.523,4.951-2.424,1.818,14.07,0.258,3.659-2.434-.4-0.1,8.972-0.762,1.356,0.686,1.591-1.178,5.717,0.118,7.781,3.716,0.644,2.769-.033,2.807,2.624,2.569,5.927-5.364.141-7.034.078-5.31,1.193-9.433-4.191-5.276,2.809L558,265.078l-0.6,4.139-8.185-.135-10.929-4.6-7.665-1.594,2.243-11.2,6.375-5.63-11.372-6.877-14.725,5.375-5.929-5.239-2.556.7-12.624-5.27-3.868-7.055-4.969-2.062-7.578,2.55-13.178-2.736,18.765-13.425,3.093-4.679,15.383-7.765-0.7-8.52,6.388,12.775,0.659,8.593,12.72-3.642,8.258,6.925,7.8-.326,0.385-1.619Z" transform="translate(3.515 -4.83)" fill="#ffeb00" stroke="#000" stroke-width="3"/><path d="M540.161,307.046l3.579-3.4-8.673-5.01,3.767-7.883-0.831-7.9,5.793-6.338L536.6,273.1l0.518-5.033-6.448-5.553,7.665,1.594,10.926,4.6,8.188,0.135,0.593-4.139,2.431-2.575,5.273-2.81,9.436,4.191,5.307-1.193,12.4-.216,6.818-2.221,4.676,1.935,5.391-.3-12.963,5.659-0.078,3.643-6.528-1.333-0.437-3.593-3.819-.105-4.846,1.258-4.982,11.378-25.529,38.014Z" transform="translate(3.515 -4.83)" fill="#ffeb00" stroke="#000" stroke-width="3"/><text transform="translate(170.392 659.594)" font-size="151.122" font-family="DejaVu Sans" font-weight="700">8</text><text transform="translate(459.66 489.512)" font-size="99.23" font-family="DejaVu Sans" font-weight="700">7</text><text transform="translate(726.59 380.629)" font-size="89.838" font-family="DejaVu Sans" font-weight="700">10</text><text transform="translate(663.898 255.282)" font-size="74.389" font-family="DejaVu Sans" font-weight="700">3</text><text transform="translate(534.189 361.633)" font-size="43.818" font-family="DejaVu Sans" font-weight="700">9</text><text transform="translate(645.008 164.274)" font-size="74.389" font-family="DejaVu Sans" font-weight="700">2</text><text transform="translate(509.365 186.227)" font-size="112.566" font-family="DejaVu Sans" font-weight="700">5</text><text transform="translate(445.152 315.309)" font-size="112.566" font-family="DejaVu Sans" font-weight="700">6</text><text transform="translate(543.004 248.508)" font-size="43.818" font-family="DejaVu Sans" font-weight="700">1</text><text transform="translate(545.103 294.94)" font-size="34.178" font-family="DejaVu Sans" font-weight="700">4</text><rect x="266.381" y="463.469" width="107.044" height="107.044" fill="#ff8080" stroke="#000" stroke-width="3"/><rect x="560.542" y="440.065" width="49.448" height="49.448" fill="silver" stroke="#000" stroke-width="3"/><rect x="625.419" y="311.05" width="101.17" height="101.17" fill="#d00" stroke="#000" stroke-width="3"/><rect x="626.461" y="239.742" width="34.028" height="34.028" fill="#06c" stroke="#000" stroke-width="3"/><rect x="613.292" y="167.067" width="34.028" height="34.028" fill="#d00" stroke="#000" stroke-width="3"/><rect x="394.602" y="321.401" width="40.234" height="40.234" fill="#d00" stroke="#000" stroke-width="3"/><rect x="460.688" y="130.393" width="50.771" height="50.771" fill="silver" stroke="#000" stroke-width="3"/><rect x="522.584" y="213.215" width="18.771" height="18.771" fill="#d00" stroke="#000" stroke-width="3"/><rect x="564.57" y="261.587" width="11.533" height="11.533" fill="#d00" stroke="#000" stroke-width="3"/><rect x="577.825" y="279.099" width="22.678" height="22.678" fill="#d00" stroke="#000" stroke-width="3"/><path d="M872.509,770.349l0.462,17.615-5.493,16.929,1.965,4.2,9.056,1.988-3.835,11.886-13.306-.212-4.6-7.446-16.336,9.458,13.945,18.218,1.977,3.657-6.795,9.458,2.912,2.912,10.678,15.164-4.356,17.2,5.5,17.224-21.841,2.355,3.67,12.442,2.806,14.17,9.553,16.715-0.84,9.613-4.96,13.222-21.178,10.6-17.757-22.173L802,959.137l-21.45,6.428L778.6,961.2l-12.927-4.024,1.2-4.652,4.96-8.156,27.724-26.1,4.179-13.614,11.886-14.123,2.143-8.535-9.234,2.474-10.536-10.24-12.229.212,3.232-8.63-2.261-13.756,3.457-3.493-8.76-3.126-8.76,3.327,3.291-24.02,7.375-13.614,31.347-9.613,3.729,3.007,1.953-3.634-5.043-14.407-6.866-12.347,2.746-9.127,17.757,15.981,43.469-64.694,21.983,1.669,10.477-5.458,15.437,43.658,18.207,3.812,7.6,14.289-33.407,16.526-4.664-.947L905.3,788.9Z" transform="translate(3.515 -4.83)" fill="#ffeb00" stroke="#000" stroke-width="3"/><path d="M793.948,584.983l14.282,9.88,9.783-7.11,8.662-2.739,3.771,16.528,13.562,0.881,12.091-.268,5.77,6.9,13.559,4.241,0.482-9.518,8.532-4.177,3.133,24.246,0.444,6.306-4.194-.692-0.174,15.461-1.312,2.336L883.521,650l-2.03,9.852,0.2,13.408,6.4,1.111,4.772-.056,4.838,4.521,4.427,10.215-9.244.242-12.122.135-9.15,2.055-16.255-7.222-9.091,4.84-4.184,4.44-1.026,7.133-14.105-.232-18.833-7.925-13.209-2.747,3.865-19.306,10.986-9.7-19.6-11.851-25.374,9.262-10.217-9.027-4.4,1.21-21.754-9.081-6.666-12.157-8.563-3.554-13.059,4.394-22.709-4.715,32.336-23.135,5.331-8.062,26.508-13.38-1.2-14.682L751.4,588l1.136,14.807,21.92-6.275,14.23,11.933,13.439-.562,0.664-2.79Z" transform="translate(3.515 -4.83)" fill="#ffeb00" stroke="#000" stroke-width="3"/><path d="M811.352,765.867l6.168-5.857-14.945-8.634,6.492-13.585-1.432-13.613,9.982-10.922-12.395-5.885,0.893-8.672L795,689.131l13.209,2.747,18.828,7.925,14.11,0.232,1.021-7.133,4.189-4.437,9.086-4.843,16.26,7.222,9.145-2.055,21.366-.373,11.749-3.827,8.057,3.334,9.29-.516-22.339,9.753-0.135,6.278-11.249-2.3-0.753-6.191-6.582-.181-8.351,2.168-8.586,19.607L829.33,782.05Z" transform="translate(3.515 -4.83)" fill="#ffeb00" stroke="#000" stroke-width="3"/><text transform="translate(798.519 863.427)" font-size="75.509" font-family="DejaVu Sans" font-weight="700">9</text><text transform="translate(813.708 668.482)" font-size="75.509" font-family="DejaVu Sans" font-weight="700">1</text><text transform="translate(817.326 748.498)" font-size="58.897" font-family="DejaVu Sans" font-weight="700">4</text><rect x="778.52" y="607.665" width="32.347" height="32.347" fill="#d00" stroke="#000" stroke-width="3"/><rect x="850.873" y="691.021" width="19.874" height="19.874" fill="#d00" stroke="#000" stroke-width="3"/><rect x="873.714" y="721.2" width="39.08" height="39.08" fill="#d00" stroke="#000" stroke-width="3"/><polyline points="797.463 580.154 602.48 316.714 680.937 620.417" fill="none" stroke="#000" stroke-width="3"/></svg>