<svg xmlns="http://www.w3.org/2000/svg" width="668.552" height="976.041" viewBox="0 0 668.552 976.041"><title>Députés sortants de la Drôme en 2017</title><path d="M202.381,244.689l-2.863-10.629-4.221-3.095,1.657-17.355-8.462-4.493-4.281.636-5.8-9.549,5.176-.676,0.232-5.2-3.479-22.882-6.832-3.433-15.765,9.264-4.261-2.618-1.9-1.06-1.246-5.348-6.461-5.123-7.634-1.193-0.079,1.518-13.77,18.356-0.166,1.71,0.119,5.321,6.056,8.787,5.772,5.951,2.578,4.778,0.477,11.172-1.491,4.347,0.749,4.559,3.751,3.651,10.006,3.558,4.036,6.693-3.737,7.316-6.845,6.653-1.166,7.223,2.379,4.361,0.722,2.73-4.891,9.913,3.247,4.4,5.281,6.574,0.4,11.3,0.285,1.292,4.181,9.834,7.766,7.316,4,9.37,2.936,6.329-8.734,16.242-1.372,5.268-6.236,5.348-1.823,5.063,13.346,2.213,2.319,4.89,15.957-1.7,3.247-4.7,6.766-4.062,5.049,0.623-1.995-11.067,2.28-5.176,5.335-5.692,0.066-5.374,3.121-4.208,12.982,0.908,0.093-11.855-2.28-4.765-4.2.364,10.43-11.133-2.094-10.079-4.877-1.968-4.023-3.366-5.335.709L201.5,299.4l-10.133.908-8.688-6.759L170.114,304.3l-15.751-5.374,5.149-8.416,7.077-3.028,2.267-5,10.636-1.723,3.99-7,7.932,1.6,9.45-5.176,0.689-2.651-4.943-2.266-1.524-4.864,9.562-5.023,7.4-1.849,16.428,7.091,1.5-22.173-9.019.205-16.606,5.692Z" transform="translate(-32.765 -10.573)" fill="#06c" stroke="#000" stroke-width="2"/><path d="M147.538,499.506l1.59-10.331-1.564-7.74,1.279-2.293,10.092-1.153,4.659,0.543,6.706-23.889,0.921-11.054-0.066-.338,2.678,0.351,6.759-7.74,15.334-5.149,5.215,1.047,1.915-6.149-3.949-6.507-2.564.179,2.77-4.579,7.455-2.823,3.651-4,7.779-5.931L219.392,397l0.4-12.657-4.235-2.28-2.809-.232L197.338,366.1l-5.049-.623-6.759,4.075-3.26,4.7-15.944,1.7-2.333-4.9-13.333-2.213,3.91,14.559-2.538,6.885-3.817,3.777-3.406,7.289,0.106,8.078-3.936,3.3-7.793,1.451-1.71,7.375,0.689,10.172-7.389,2.068-4.559,1.955,0.4,5.036-2.107,1.59-0.961,7.879-6.706,7.906-9.629,4.221-2.69,4.089-0.411,1.9,4.672,9.231-5.527,8.8,2.624,13.048-0.093,2.379,0.119,11.107,4.36,7.157,5.421,21.51,0.351,5.01-3.081,6.819,1.306,7.289-3.465,9.562-8.35,9.41-3.181,9.343L86.5,602.113l2.134,1.193-1.71,9.576-4.672,2.293-12.385,3.068-2.525,4.506-0.961,10.119-5.049.351-1.862,13.088,5.938,8.23,2.034,1.6L65.5,663.661l-5.659,6.216L56.91,680.752l0.868,8.363,5.692,9.682,0.49,8.449L61.071,725.86l-3.38,4.168-7.508,3.015-5,5.348-2.292,18.071,0.749,6.368-8.622,20.384-1.252,19.529,1.538,11.067,0.583,3.479,16.488,7.183L71.025,824.5l0.133-2.624,4.752-2.048-0.749-5.321L79.9,804.99l-0.3-18.754L92,790.962l3.353-4.155,7.766-.3,4.546-2.889,5.95-17.017,3.8-3.519-3.174-3.545,0.961-2.333-10.629-6.216-1.564-1.007,1.292-16.646-8.151-14.559,10.291-9.317,6.369,3.678,6.627-3.327,6.693-3.791,16.309-1.372,1.425-6.991-1.683-6.912,1.021-3.327,21.02,3.247,2.333-6.793,9.722-2.352,1.332-2.121,4.791,5.772,6.779,2.909,9.562-8.31-1.644-4.778-1.127-10.755-5.348-12.465-6.793-4.181-16.01-2.306,2.69-9.516,4.4-2.366,11.987-3.751,2.319-17.925,4.44-2.743,2.406,1.02,0.218,13.121,1.564,2.107,2.28-1.332,17.229-6.137-2.187-9.251,8.078-.65,4.632-9.615-6.64-1.789-3.174,3.327-11.312.967,0.272-8-3.313-7.21,4.32-10.093,9.874-9.8-6.216-8.118-12.876,2.578-5.732-8.92-14.221-6.938,0.013-.351-7.428,1.537-2.757-6.494-4.619,2.068-0.815-13.565-3.558-7.263,2.081-7.574-7.322-3.34-0.311-7.223Z" transform="translate(-32.765 -10.573)" fill="aqua" stroke="#000" stroke-width="2"/><path d="M317.361,854.864l-1.577,10.146,7.362,2.8,0.57,15.765-5.474,5.719-1.007,2.405,10.079,7.806,4.32,3.492,18.674,5.063L366.862,909l1.292-13.823,4.559-.232,4.493,0.828,13.618,8.078,12.749,11.312,0.179-2.677,8.091,0.013,9.993,3.519,11.3-7.3,11.763,6.653,4.426,3.095-0.749,1.67-1.073,5.255,3.015,10.3L448.6,954.53l7.713,2.319,10.636-1.809,6.6,4.308,4.619-2.419,1.478,10.55,5.176,1.6,1.1,9.94,2.923,3.817,24.823,2.757,4.97-1.6,1.968-4.851,17.488-7.316,5.163-12.544,0.013-.324,10.755,0.815,6.056-5.136-0.232-2.69-9.231-9.668,6.448-12.008,2.187-1.67,8.19,0.65,4.387-3.148,4.1,0.623,4.281,9.516,7.223,3.546,5.089,6.137-4.308,12.319,7.906,1.551,18.833,1.968,2.319-13.658L596.5,945l-1.1-2.419,4.334-14.964,12.18,0.411,1.59-1.875,5.176-1.776,0.391-2.743-5.176-12.75,2.485-13.592L611.6,883.514l0.908-8.012,6.978-8.025-6.216-7.727-16.242,6.925-0.663-5.361-7.316-7.714,0.205-5.321,4.062-2.551-3.612-5.659-4.778-1.372-5.215-5.321-4.36,2.578,2.757-7.608,9.575-9.5,0.57-2.651-4.181-3.161-4.532,2.227L564,815.425l-0.7.119-8.8-1.14-5.1-.855-7.389,3.135-5.149-1.438-1.736-7.608-8.973-5.633-9.98,3.91-5.825,5.62-8.091-10.947-5.474-.245-3.432-12.518-10.629-.4-5.049-1.087-2.047-4.89,6.355-4.685-0.517-8.191-5-15.765-8.131-10.344,11.365-6.925,19.231,9.953,4.943-1.518,2.564-4.818,4.261,0.583,2.392-6.474-1.332-1.875-15.195-5.99-2.637-4.466-2.034-13.048,3.724-3.9-3.651-9.953-0.815-1.888-0.6-7.608,7.322-1.451,2.292,4.546,4.619,2.392,15.712-.232,21.795,9.178,6.031,4.413,2.392-.749,2.485-1.047,19.469,8.747,7.945-7.21,4.831-18.276,3.857-3.419,10.172,2.187,7.468-2.034-10.239-14.354L586.2,655.941l-7.144,1.246-9.993-8.3,5.2-18.482,0.378-1.345,3.8-2.743,2.551-9.589,4.44-2.107,0.663-6.6,5.381-11.272,5.1-.557,1.9-7.482-3.724-3.857-1.657-7.919,1.021-13.32,5.54-3.274,4.36,3.3,13.631,0.855,23.671,7.833,13.32-8.694,2.6-7.482,9.774,4.943L678,561.875l5.878-17.044,6.9-4.022,9.4-8.979-2.538-7.714-7.21-3.181-6.3-1.4-15.1,6.547-10.9,1.232-10.675-12.452-10.364-2.147-7.833-11.04-4.592,5.659-15.7-1.995-4.142,2.624-7.634-2.16-1.763-5.938-4.685-1.5L587,489.385l-1.538-6.733-2.213-.6-8.27-1.451-12.14-6.547-2.319-10.908-18.946-12.1-1.438,4.128,4.532,10.318-2.85,3.366-37.64-12.617-2.267-4.155-7.82-1.643-2.2-4.818,8.363-6.355,5.46-12.008-11.8-2.306,6.262-33.3-2.525-8.1,5.659-15.97,1.736-19.747-3.313-34.817,6.017-18.25,2.637-4.566-7.1-14.082,1.789-7.727-4.036-3.174,0.722-5.321-7.031-8.065,0.722-8.363,5.2-12.968,4.957-2.187,5.421,1.087-4.4-7.276-7.144-4.466-5.5-.424-3.638,4.195-5.447,7.872-6.666,11.908-7.376,3-5.95,5.692-8.065.762-7.077-8.038-0.338,4.877,7.017,8.462-7.415,1.875-8.065-6.355-9.821-2.392-4.48-2.061-2.147-9.847-4.062,1.518-6.925,3.844-0.338,2.638-8.27-2.81-1.007-4.361-6.978-2.419-0.994,2.352-7.415.868-1.127,2.306-3.22,1.995-1.478-1.359-0.663-2.578-10.5-1.06-1.14-4.983-7.21-3.353-2.366-4.818-1.127,2.485,5.646,5.8,0.815,13.539-1.776,5.149-1.981,5.281-4.632,28.462,2.717,0.736-1.551,9.834-2.253,5.05-6.328,8.244-8.774,27.527-5.891,14.6-12.816-.232-6.461,7.322L293.4,346.924l-4.347,3.121-7.428-1.942-10.3-2.783-8.144-13.8-0.272-7.959-4.685-2.743-0.61-2.677-2.664-.749-1.166,2.525-20.993-6.766-7.727,7.2-8.177-1.438,2.267,4.765-0.079,11.855-12.982-.908-3.135,4.208-0.066,5.374-5.321,5.692-2.28,5.176,1.981,11.067L212.7,381.88l2.8,0.232,4.235,2.28-0.4,12.657-1.193,4.943-7.779,5.931-3.651,4-7.455,2.823-2.77,4.579,2.564-.179,3.949,6.507-1.915,6.149-5.215-1.047-15.334,5.149-6.759,7.74-2.678-.351,0.066,0.338-0.921,11.054-6.706,23.883-4.646-.543-10.106,1.166-1.279,2.293,1.564,7.74-1.59,10.331,6.627,2.6,0.3,7.21,7.336,3.34-2.081,7.574,3.558,7.276,0.8,13.552,4.632-2.068,2.743,6.494L178.813,544v0.351l14.214,6.938,5.732,8.92,12.889-2.578,6.2,8.118-9.861,9.8-4.334,10.093,3.313,7.21-0.272,8,11.312-.967,3.174-3.313,6.653,1.776-4.632,9.615-8.078.65,2.174,9.251L200.084,624l-2.28,1.332-1.564-2.107-0.232-13.121-2.392-1.02-4.44,2.743-2.319,17.925L174.87,633.5l-4.4,2.366-2.7,9.516,16.01,2.306,6.805,4.181,5.335,12.465,1.127,10.755,1.644,4.778-9.562,8.31-6.766-2.909-4.791-5.772-1.345,2.134-9.708,2.346-2.333,6.793-21.02-3.247-1.034,3.327,1.683,6.912-1.425,6.991-16.295,1.372-6.706,3.791-6.614,3.327-6.382-3.678L96.1,718.884l8.164,14.559-1.292,16.646,1.564,1.007,10.629,6.216-0.961,2.333,3.174,3.545-3.8,3.519-5.964,17.017-4.532,2.889-7.779.3-3.34,4.155-12.4-4.725L79.846,805.1l-4.738,9.516,0.762,5.321,23.287,1.179,5.036,5.931,5.063,0.093,8.435,9.721,4.877,0.961-0.053,20.669-0.272,6.627,4.8,8.8-0.218,12.544,0.735,7.588,6.706,3.135,17.885-13.8L165.2,870.973l11.842-1.968-2.379,4.606,20.2-2.936,5.593-5.421,16.255-8.164,9.967-4.93-1.425-5.567-3.884-3.519-32.743-9.085L170.4,837.74l0.709-7.634-4.8-9.112,7.389-10.059-9.138-5.759-5.394.245,13.174-15.573,0.218-2.392,7.766-5.334,2.624-10.7-0.908-5.46,4.712-9.967,15.209-5.659,3.638-4.009,4.115,0.205,6.342-7.932,2.564,0.311,2.485,4.559,5.136,0.378,9.887,9.059,7.077-3.366-0.583,6.978-2.379,1.345,2.889,10.119,7.972,1.332,8.363,6.912,13.114-.868-0.324,5.348-9.6,9.112-15.878,3.068L244.738,806l-7.017,8.336,2.432,6.395-9.032,5.732-2.876,4.533-2.909,15.659,1.451,5.474,7.263-.258,8.27-4.837,6.951-4.44,17.514-8.078,8.973,18.932,5.62,0.119,13,2.664,22.517-15.844,2.094-7.495,7.428-3.678,1.345,0.583,2.253,4.645-1.524,7.455-2.578,7.21Z" transform="translate(-32.765 -10.573)" fill="#06c" stroke="#000" stroke-width="2"/><path d="M255.017,317.384l-1.166,2.525-20.993-6.766-7.727,7.2-8.19-1.438-4.2.364,10.444-11.133-2.094-10.079-4.877-1.968-4.036-3.366-5.321.709-5.374,5.964-10.133.908-8.688-6.759L170.089,304.3l-15.751-5.374,5.149-8.416,7.09-3.028,2.267-5,10.636-1.723,3.976-7,7.945,1.6,9.45-5.176,0.676-2.651-4.93-2.266-1.538-4.864,9.575-5.036,7.389-1.835,16.434,7.091,1.491-22.173-9.006.205-16.606,5.692-1.955.311-2.863-10.629-4.221-3.095,1.67-17.355-8.476-4.493-4.281.636-5.785-9.549,5.163-.676,0.232-5.2-3.465-22.882-6.832-3.433-15.778,9.264-4.261-2.618-1.9-1.06-1.246-5.348-6.461-5.123-7.634-1.193-2.6-4.089-6.9-3.194-0.908-7.727,0.815-7.051-3.287-6.395,0.013-4.645,3.558-5.9-5.063-16.242-0.895-16.58,4.049-10.291,0.663-6.11-0.218-2.405L125.4,56.71l-5.076-8.542,4.9-1.942,27.945-6.547-0.106,8.363,11.352,0.65L178.094,38.7l14.148-10.046,11.246-4.7,5.394-.636,11.557-6.872,6.693-4.831,10.987,1.412,6.2,18.376,6.911,0.948,11.192-.709,3.558,4.308,4.943,14.433,3.181,9.9,1.047,1.126,7.389-3.545L293.45,56.6l4.765-2.77L300.833,49l8.091-.762,1.928,1.491-4.579,10.212-4.765,30.6,10.629,0.152,6.766-8.853,5.335,7.674,7.879-1.345,4.261,12.564,9.927,12.233-13.32.583-6,5.228-1.034,7.872,2.352,4.672,3.393,10.523,7.131,8.416,0.5,5.421,0.775,7.753-3.83,3.519,3.22,7.091-0.775,10.172-0.775,6.461-7.223,11.842-6.289,5.474-3.843,12.478-9.642,2.213-2.485,4.261,2.134,1.524,4.413-2.8,9.278,8.542,4.672-2.6,5.434-12.061L352.9,220.5l6.031,2.266,1.875,2.147-1.127,2.5,5.646,5.8,0.815,13.525-1.776,5.162-1.981,5.281-4.632,28.462,2.717,0.736-1.551,9.834-2.253,5.05-6.328,8.23-8.761,27.541-5.9,14.585-12.816-.232-6.461,7.336L293.38,346.881,289.033,350l-7.415-1.942L271.3,345.278l-8.144-13.8-0.258-7.972-4.7-2.73-0.61-2.677Z" transform="translate(-32.765 -10.573)" fill="#ff8080" stroke="#000" stroke-width="2"/><text transform="translate(294.165 584.413)" font-size="140.644" font-family="DejaVu Sans" font-weight="700">3</text><text transform="translate(167.702 180.655)" font-size="140.644" font-family="DejaVu Sans" font-weight="700">4</text><text transform="translate(62.528 661.321)" font-size="120.43" font-family="DejaVu Sans" font-weight="700">2</text><text transform="translate(121.74 254.946)" font-size="68.941" font-family="DejaVu Sans" font-weight="700">1</text></svg>