<svg xmlns="http://www.w3.org/2000/svg" width="968.386" height="785.656" viewBox="0 0 968.386 785.656"><title>Députés sortants de Savoie en 2017</title><path d="M193.013,298.887L187.295,292l-0.539-12.209-11.99-.7-2.645-1.522,0.655-2.986-4.764-3.73-0.073-3.059,3.2-19.253-1.552-2.418-5.747-31.375-0.67-4.793-1.938-11.182,1.974-2.047-2.287-11.983-16.376-.4-2.746-5.012-5.609,7.3,4.48,14.5-1.923,9.149-6.9,23.573-4.72,14.722-3.97,13.2L119.9,275.984l-5.522,5.849-1.449,23.092-1.988,14.54,1.041,7.438-2.251,9.062,2.579,15.123-1.967,2.032-6.643,1.865,4.123,11.422L99.754,374.8l-3.955,8.2-4.968,3.329-10.9-4.152-2.222.779-16.806-.6,1.938,10.46,3.387,11.721-14.583,15.88-0.925,6.032,2.287,5.806,0.029,8.581-7.154,5.238-14.569,1.224-2.775,8.21-6.148,3.868-1.267,5-2.579,5.223-5.238-1.566,0.2,8.749L21.9,488.94,27,494.855l0.627,5.238,15.014,13.884,0.044,5.879,2.462,1.675-1.639,5.136,4.909,2.251,0.372,2.688-4.779-1.836-1.239,6.017,3.584,5.012,8.654,2.732,0.087,5.376,2.746,1.639,3.314,2,8.013,17.84,3.569,12.449,10.4,10.184-2.688,16.9,4.822,13.36,10.941,2.331,1.894-1.268,1.668-2.521,11.808-1.675,8.61,2.688,9.288,11.182L143.9,638.6l0.4-.029,11.779,3.8,3.271,5.31,12.194,2.673,7.015,6.192,0.24,9.36,2.134,1.078,10.183-5.42L198.916,645,188.3,647.6l-2.4-5.449,1.493-12.209-0.269-2.032,5.376-2.863,4.612-7.823,2.885-18.08-6.1-10.2-13.3-17.854-13.3,2.331-2.033-2.076-2.375,1.6-4.509-7.343,2.12-11.379-4.48-6.957-4.225,7.867-7.736-3.868-11.881-.284,1.267-1.865,0.627-.568,6.928-24-5.82-15.6-1.967-11,7.969,3.511,8.866-1.69,5.66,9.747,11.058-3.81,2.193-11.808,7.43-4.852,2.8-8.224-4.407-14.285,8.392-1.165,3.854-4.837-1.3-12.3,4.539-1.792,1.835-4.626,11.094,23.617,5.15,2.491,11.138-28.628,5.478,0.969,0.6-18.364,2.775-1.136,3.241-8.363-1.166-5.879,3.256,0.226,11.073,6.192,3.613,1.165,8.254-8.421,1.166-11.808,8.348-15.975,1.479-8.953,4.866-12.6-21.5-10.169-8.508,2.673,0.284-13.775L230.2,330.23l0.131-5.689,4.925-7.168-1.013-11.553-13.914,1.122,2.914-15.822-9.179,1.967-8.581-3.628-1.522,5.748Z" transform="translate(-12.278 -177.509)" fill="#06c" stroke="#000" stroke-width="2"/><path d="M449.452,427.088L438.94,416.147l-1.967-18.663,12.02,0.044,11.655-27.317,3.045-4.925,0.014-.153,1.122-2.506-3.256-4.356,14.1-13.986,2.6-8.734-7.015-4.6L489.8,315.9l16.63-15.407,2.746-1.406,4.706-14.657,7.452-9.805,3.431-7.255-2.885-4.7,5.631-9.4-2.12-5.281,5.31-3.118,7.751-17.3,14.569-6,9.717-16.033,3.06,5.281,10.417,5.463,14.722,3.329,1.552,5.733,7.182,5.478,1.369,2.746-3.882,4.495,0.969,8.96-20.346.386,5.478,11.094,5.3,20.586,7.94,9.448,2.207-1.974,5.347,1.974,4.356,13.433,8.923,7.314,1.552-2.4,14.088-.852,7.78-3.584,13.841-.088,2.163,5.944,15.735,19.647-0.765,15.349,7.073,9.346-5.478,13.6,13.841,4.655,17.629-20.812,1.537-5.988,9.135-12.449,14.868-2.746,12.9-7.2,2.914,27.47,5.376,7.525-4.043,11.583L758.7,386.659l9.717,7.088,1.807,5.849,16.048,9.091,18.138,1.056,2.52,1.821,0.568,6.192-2.586,5.616,7.926,2.506-0.073,8.137,11.379,4.524,20.761-6.418,6.207,6.8,13.855,7.117-1.107,5.988-7.51,9.943-3.9,27.9,9.236,12.223,0.7,3.074,0.014,3.147-2.732,5.66,2.8,15.392-1.894,9.252,7.9,13.243-2.958,12.151L878.942,571l18.211,0.554,3.133,4.968-6.119,10.147,2.061,5.718,17.8-.525,14.54,4.2-1.369,8.953,0.823,2.928,8.61,12.406-0.823,6-18.2,1.836-8.079,4.48-17.483-4.72-2.6,1.668-5.077,11.255-7.554,5.281-5.391,10.745-0.983,15.123-6.017,13.928-6.258-.415-11.6-9.7-15.014-2.032-5.194-3.212-6.061.583-5.107-2.878-0.9-27.048-8.953-7.088-7.823,2.564-3.475,5.267L783.118,648.1l-24.644,4.211-3.8,4.852-8.85,2.389-6.884,6.177-1.668,5.777,3.759,8.3-3.314,5.238-8.88,8.6-6.032,1.253-12.347,9.033,0.743,12.092-5.631,7.168,0.525,6.177-6.869,17.213-8.013,4.239-6.134-.728-14.314,4.422-2.645,8.654,2.389,8.6-13.032-.342-5.806-1.522-6.207-6.345-2.7,1.326-5.929.779-4.014-4.553-5.121,3.089-3.715,11.269-26.662-.357-20.5,11.67-7.627-5.252-8.581-12.6L558.2,756.845l-33.21-9.762-1.974-14.03-8.953-7-2.878.182L507.7,711.8l-4.283-4.239-4.793-.357-5.66-6.389-1.479-.539,3.46-17.454-6.819-12.806-1.355-5.82,2.477-5.267,11.342-20.462,0.582-5.82-3.8-.823-13.87-4.138-17.541-10.446,6.8-18.255,7.139-19.464-1.923-5.791,1.479-2.644,3.788-11.094,7.525-8.705,6.032-16.434-0.969-4.953-6.315-4.626-8.866-10.81-8.61-4.822,7.059-13.629,6.541-9.863,2.331-9.12L464.258,457.7l1.377-5.988-3.475-5.077-1.69.029-12.689-12.493,4-4.509Z" transform="translate(-12.278 -177.509)" fill="#06c" stroke="#000" stroke-width="2"/><path d="M378.916,496.874L367.6,503.052l-7.212,5.536,1.552,2.615-8.552,8.436-14.125,6.192,1.064,1.989-21.2,10.133-5.959,11.721L299.442,559.69l-7.139-8.975-3.344-4.028-19.078,8.341-2.79-.525-4.582-17.33L256,532.9l-6.731-8.639-3.788,4.211-0.014-9.149-3.584-8.268-11.9,5L229.86,504.9l-1.406-2.273-12.945,2.928-6.221,2.135,0.146,5.791-2.549,1.391-3.941,10.912-2.885,6.8,3.3,5.092-2.673,17.17-7.51,9.6-8.923,1.879-3.672,4.837,13.3,17.854,0.284-.146,34.157-13.061,5.223,3.176,6.658,10.213,11.67,3.759,1.449,11.626-2.222,4.152,25.663,14.4,3.2-2.586,4.982-2.885,8.567,0.685,8.508-.67,2.629,1.479,0.146,9.062,5-1.435,11.612-4.058,5.463,2.878,9.849,19.18,18.226,16.915,9.179,23-6.4,6.731-6.162.743,4.123,3.8L366.89,698.6l-2.061,11.123-2.251,5.762-2.076,13.3-16.521,4.983-3.045,7.656-7.2,4.254,0.728,2.986-7.168,9.557,5.333,23.034-8.508,12.376,1.923,12.18,6.84,6.258-0.116,8.989,11.983,9.419,1.792,12.267-11.226,29.721,10.774,3.03,4.866-2.644,7.415-9.433,16.587,7.226,8.836,12.333,14.117-5.318,5.806,0.852,6.418,6.585-2.492,11.692,10.1,10.46,10.183,5.522,14.671-2.885,9.82-6.746,0.838-2.9,19.108,18.379,5.893,17.271-6.017,10.628,19.821,7.153,5.733-1.967,8.793,2.644,8.989-1.566,11.3,9.317,21.03-3.54,1.027-12.063L544.6,928.731l17.767-16.274,9.535,7.438,5.806,1.369,14.314-4.939,3.475-8.093L603.3,900.1l8.312,3.431,14.613-1.552,10.183,10.2,3.191-5.252,9.222-.357L661.8,898.58l4.779-11.255,20.178-6.258,17,6.4,5.252-2.928,13.812-16.259,16.915,5.595,29.284,16.259,3.191,5.281,3.088-.153,25.467-10.075-5.719-14.2,4.225-8.239,30.005-4.407,2.287-2.076-1.377-2.761,5.238-3.132,1.6-8.763,6.76-6.119,0.881-8.61L859.4,823.1l6.956-5.835,14.941,0.5,9.943-6.8,5.988-.67,9.434,12.3,5.879-.7,4.735-11.029L934.5,793.311l9.12-1.326,5.58-7.416-2.586-15.254,2.673-8.72-8.209-13.178-2.629-12.136-3.745-4.953-0.627-9.106,13.615-3.628,1.835-15.152,15-10.359,0.342-12.238,3.773-8.523,6.869-6.148,4.094-11.765-1.056-2.943-11.138-5.58-8.807-8.763-22.778-9.834-18.2,1.836-8.079,4.48-17.5-4.72-2.586,1.668-5.077,11.24-7.554,5.3-5.4,10.745-0.983,15.123-6,13.928-6.258-.415-11.6-9.7-15.021-2.032-5.18-3.212-6.061.583-5.107-2.878-0.9-27.048-8.953-7.088-7.823,2.564-3.489,5.267-10.913,6.119L758.5,652.253l-3.8,4.852-8.866,2.389-6.869,6.177-1.675,5.777,3.773,8.3-3.314,5.238-8.88,8.6-6.032,1.253-12.362,9.033,0.758,12.092-5.631,7.168,0.525,6.177-6.884,17.213-8,4.239-6.134-.728L670.8,754.448l-2.645,8.654,2.375,8.6-13.017-.342-5.82-1.522-6.207-6.345-2.688,1.326-5.929.779-4.028-4.553-5.107,3.089L624.007,775.4l-26.662-.357-20.484,11.67-7.627-5.252-8.6-12.6-2.4-12.078-33.225-9.776-1.974-14.016-8.939-7-2.878.182-3.5-14.438-4.269-4.239-4.808-.357-5.66-6.389-1.465-.539,3.46-17.454-6.819-12.806-1.355-5.82,2.462-5.267L500.625,638.4l0.582-5.82-3.8-.823-13.884-4.138L466,617.178l6.8-18.255,7.132-19.479-1.908-5.777,1.479-2.644,3.788-11.094,7.525-8.705,6.032-16.434-0.969-4.953-6.315-4.626L480.7,514.4l-8.61-4.822-5.522,1.552L461.6,507.56l-17.57-4.538-14.984.809-6.855-4.167,6.614-9.149-10.512-8.778-4.582,12.049-7.94,2.462-10.475-3.7-8.676.073Z" transform="translate(-12.278 -177.509)" fill="#ff8080" stroke="#000" stroke-width="2"/><path d="M166.753,505.783l-11.073,3.81-5.66-9.747-8.866,1.69-7.969-3.511,1.967,11,5.835,15.6-6.942,24-0.612.568-1.267,1.865,11.867,0.284,7.736,3.853,4.225-7.853,4.48,6.957-2.12,11.379L162.863,573l2.389-1.581,2.018,2.076,13.3-2.331,3.672-4.837,8.923-1.879,7.5-9.6,2.688-17.17-3.3-5.092,2.885-6.789,3.941-10.912,2.535-1.406-0.131-5.791,6.207-2.135,12.96-2.928,1.406,2.273,0.116,11.153,11.9-5,3.6,8.268v9.164l3.8-4.211,6.716,8.625,6.52,4.269,4.582,17.33,2.79,0.525,19.078-8.326,3.344,4.014,7.139,8.975,13.731-10.016,5.959-11.721,21.2-10.133-1.078-1.989,14.14-6.192,8.537-8.421-1.552-2.63,7.226-5.536,11.313-6.177,7.613-4.211,8.676-.088,10.475,3.715,7.94-2.477,4.582-12.034,10.512,8.778-6.614,9.135,6.855,4.181,14.984-.809L461.5,507.6l4.968,3.569,5.522-1.566,7.059-13.615,6.541-9.863,2.331-9.135L464.2,457.676l1.369-5.973-3.46-5.092-1.7.029L447.73,434.147l4-4.509-2.287-2.549-10.5-10.942-1.967-18.663L419.844,404.7l-12.18-1.625-1.566,2.7-8.88-1.355-8.676,2.135,1.18-17.767-2.134-1.093-8.625-4.422-1.027,5.718-7.67,3.431-2.52,5.238-3.868-7.153,1.224-17.09,2.251-10.839-7.839-.823-3.4-4.211,0.612-8.108-7.751-2.105,0.24-5.493-17.73-4.983-1.865,5.449-5.165,3.271-14.329-10.6-0.342,23.078-0.51,2.885-2.834.51-0.655-8.18-11.837,1.675-13.571-7.328-3,.9-4.954,7.926-4.852,12.6-1.479,8.953-8.348,15.99-1.166,11.794-8.254,8.421-3.613-1.165-11.08-6.192-3.256-.226,1.18,5.879-3.256,8.363-2.761,1.136-0.612,18.364-5.478-.969L208.321,468.02l-5.15-2.506-11.094-23.6-1.835,4.611-4.539,1.792,1.3,12.3-3.854,4.837-8.392,1.165,4.407,14.285-2.819,8.224-7.415,4.852Z" transform="translate(-12.278 -177.509)" fill="#ff8080" stroke="#000" stroke-width="2"/><text transform="translate(579.888 395.991)" font-size="154.606" font-family="DejaVu Sans" font-weight="700">2</text><text transform="translate(380.392 659.226)" font-size="154.606" font-family="DejaVu Sans" font-weight="700">3</text><text transform="translate(266.583 322.609)" font-size="154.606" font-family="DejaVu Sans" font-weight="700">4</text><text transform="translate(105.538 256.04)" font-size="154.606" font-family="DejaVu Sans" font-weight="700">1</text></svg>