<svg xmlns="http://www.w3.org/2000/svg" width="991.254" height="929.471" viewBox="0 0 991.254 929.471"><title>Députés sortants du Cantal en 2017</title><path d="M88.764,483.706l-0.1-.187-8.889-4.151L66.47,478.115l-4.009,5.209-3.609-.382L35.286,503.964l-1.44.142-0.764,5.849-3.049.551,11.405,18.65,5.031,17.778,18.107,17.707L58.834,585.63l-20.472,4.534-9.556-4.48-3.351,1.351L5.65,595.505,19.09,622.12l-3.28,17.938,19.627,15.867,4.365,9.947-15.84,9.076-1.289,3.52,0.089,14.738,6.009,13.423,17.921,25.716,5.8,2.311,2.1,5.813,9.156,17.9L83.76,770.889l-0.187,13.9,4.231,9.325-2.374,8.871-2.9,9.929-10.338,2.747-1.378.329,3.28,17.671-4.08,32.17L58.826,880.191,56.4,890.867l6.213,6.827,12.374-6.871L93.493,917.3l-9.929,13.991,5.831,8.525-3.155,5.9-0.107,10.311,5.4,2.676,11.378,7.707,11.983,13.458,9.893-6.889-4.684-5.7-4.5-17.467,14.143-10.907,17.681,2.133,11.094-9.289,3.654,0.258,3.333-.658,8.9-5.556,16.445,3.209,12.187-6.116,6.116,4.844,3.325,6.2-1.191,10.542,12.036,8.089,10.818-.658,11.769-8.32,8.916,5.031,3.369-1.316,5.76-1.058,23.334,7.9,10.925-8.853,13.538,5.5,2.969-9.689,7,2.08,2.6-2.711,3.654-6.489-0.249-11.2L336.284,902l13.885-10.872,2.267-6.284L363.4,877.4l14.987-10.934,0.391-3.351-5.547-3.476,2.054-2.987,1.6-8.178-0.426-19.449,5.289-3.858,2.88-18.143,7.1-7.431,9.583,1.147,10.24-10.311-1.3-28.854L420.02,751.1l-5.414-13.316L425.1,727.262l8.338-20.57,18.125,2.658,2.4-2.809,1.8-14.267,17.574-22.987,5.742,3.822,12.783-3.52,7.867-23.21-3.369-17.5,1.04-18.419,8.649-6.249,0.329-10.951-4.534-17.45L516.4,554.82l-1.271-7.209,3.538-10.418-1.511-3.875,15.956-23.894,3.68-9.965-14.027-15.52L510.3,477.4l-10.6-1.476,2.364-13.094-6.685-9-13.281,6.543-12.64-6.907-0.436.018-5.831,4.623-11.04,1.529L444,470.2l-0.675,10.329-19.583,7.92-12.907,3.422-6.213,7.538-12.338-.418-24.774-1.316-6.116,3.84-6.383-2.88-8.889,5.316-20.845-.436,1.92-10.489,2.445-9.893-2.391-2.774-25.459,4.987-29.441-2.64-2.96-5.974L270.734,464l-9.369-5.627-24.908,3.111L232.2,447.857l-10.329,4.587-6.427,16.809,4.507,5.974-9.591,7.983-12.454,7.654-42.579,3.787-3.485-.507-3.725-10.125,5.4-4.631-0.942-3.627-7.316-.382-5.422,9.067-10,4.631-7.3-.871-5.218-5.316-6.854,2.88-10.6-3.369Z" transform="translate(-4.277 -51.731)" fill="#ff8080" stroke="#000" stroke-width="2"/><path d="M674.89,239.208l-12.5-22.347-5.716-17.725,0.124-3.956-3.244-13,1.769-6.373-6.907,1.733-6.373-3.28-9.2-10.436-9.325-4.151-5.369,8.32-9.476-5.351-6.489-12.916-18.348,1.7-9.618-10.365-19.378,10.623-3.458,6.391-3.476-1.129-13.956-.933-9.094-5.138-6.614-1.8-9.822,3.44-10.383,8.942-7.538-8.125-3.8-10.16L473.256,131.7l-1.351-14.632,7.6-9.858-1.182-6.284-10.818-.471-10.365,3.591-6.854-8.56-9.929-3.262-10.329,2.018-3.3-25.228-10.9,14.81-6.782,2.551-10.658-1.6L385.707,71.647l-13.725,2.364-9.049,5.574,6.187-23.147-17.165-3.662-9.707,4.169,0.667,6.6-4.24,11.547-3.023,1.334,1.422,9.6-3.556,4.684-3.476,24.916-3.582,6.3,22.632,17.343,3.582-.569,3.8,12.747-2.934,9.911-5.653-2.916-5.635,4.427-13.92.089-5.716,4.1-1.689,7.049L312,159.988l-20.276-1.84-2.791-3.538-11.12-9.822-14.365-1.147-5.8-4.462-2.151-6.845-9.511-5.4-14.578-1.565-4.969-.053-3.7,5.831,14.018,25.4-4.018,6.125,0.862,6.062-0.142,18.214L223.683,197.8l5.333,9.325L225.159,217l-10.223,4.267-17.974,4.062-7.511,12.916L177.5,261.4l-10.729.311-4.862-1.84-6.018,7.156-3.307,14.587-10.347,4.32-1.982,3.227-1.413,3.52,0.525,11.3L129.281,308.8l-6.258,9.44L111.21,327.7l0.355,3.769-6.48,2.48-2.516-2.382,3.236,6.614-3.129,14.5,5.343,5.191,3.084,18.348,14.481,11.476,7.253,0.16,1.334,3.493-1.955,5.76-14.4,1.582L117.1,412.948l-9.787,10.729-14.125.907,6.907,20.97-6.854,12.792,0.391,11.111-5,14.027,0.1,0.178,11.085-1.289,10.6,3.369,6.854-2.88,5.218,5.316,7.3,0.871,10-4.631,5.422-9.067,7.316,0.382,0.942,3.627-5.4,4.631,3.725,10.125,3.485,0.507,42.579-3.787,12.454-7.654,9.591-7.983-4.507-5.974,6.427-16.809,10.329-4.587,4.258,13.627,24.908-3.111,9.369,5.627L269.348,476.7l2.96,5.974,29.441,2.64,25.459-4.987L329.6,483.1,327.155,493l-1.92,10.489,20.845,0.436,8.889-5.316,6.383,2.88,6.116-3.84,24.774,1.316,12.338,0.436,6.213-7.556,12.907-3.422,19.583-7.92,0.675-10.329,8.143-10.56,11.04-1.529,5.831-4.623,0.436-.018,12.64,6.907,13.281-6.543,6.685,9-2.364,13.094,10.6,1.476,12.462,6.543,14.027,15.52-3.68,9.965-15.956,23.894,1.511,3.875-3.538,10.418,1.271,7.209L501.8,575.781l4.534,17.45L506,604.182l-8.649,6.249-1.04,18.419,3.369,17.5,5.885,1.565,2.186-6.738,7.725-7.138,0.436-.907,2.88,9.858,10.454-.187,15.263,24.028-2.916,10.24,4.791,13.37-5.4,9.583-1.911,14.5,2.169,7.031,7.209,0.658,5.8-8.978,11.929-8.178,6.249,3.52L601.412,707l2.676-2.516,3.573-.16-3.111,24.756,6.08,4.151-1.68,10.036,6.409,8.871,7.253,28.232L630.3,796.1l6.213,3.44,6.854-.365,10.018-9.44,10.276,14.552,0.178,14.374-2.409,2.774-10.907-.418-1.44,3.4L650.4,827.9l9.814,4.933,3.129,6.631-1.511,10.872-6.116,9.289,5.742,16.614,2.5,17.867,5.449,9.565-1.565,10.24,10.418,9.307,1.618,7.049,5.609,4.587-0.6,3.627,6.338,6.578,8.631,3.8,2.462-6.045-1.7-3.351,12.409-23.147,12.827-39.068,10.089-4.773,7.307,1.653-3.191-12.809-5.734-3.369L735.4,854.8l1.982-17.5,8.232-10.365,4.534-5.262-3.155-9.814,4.48-8.889-3.04-16.925,1.751-6.889,12.036-17.085,9.672-4.24-3.644-12.783,16.392,3.351,4.009,0.2,0.764-11.716-4.027-12.312,7.654-11.511-1.387-19.583,12.383-7.36,6.7-12.845,10.932,1.438,6.525,8.907,6.649,10.107,3.316,9.893,6.6,2.64,6.2,8.542,6.543,2.311,4.285-10.187,14.3-3.04,8.143-7.618,7.049-7.12-5.333-9-1.147-13.627,17.574-6.685-3.875-16.507,4.258-5.209-1.334-3.111,5.849-2.24,7.236-.036-2.445,6.889,3.573,6.027,13.885,3.44L941.131,635.1l10.089-.382,3.191-6.489L969.043,617.5l12.516,1.147,5.156-17.707L976.679,597l-1.653-10.854,13.111-5.227,6.213-12.845-2.311-2.791-10.294,2.764-7.218-11.334-13.716,2.934,7.636-16.321-6.72-2.382-12.765,6.2-2.987-1.982-6.827-12.951,3.7-10.187-2.676-14.392,9.254-23.663-2.329-5.645-15.85-5-1.022-6.391-2.036-6.462,12.9-4.338L945.344,462l16.578,6.978,24.845-10-7.253-.693-1.787-7.049-14.463.258L950.9,444.041l-1.422-.382-8.507-6.3-9.689,4.24-9.049-23.805,4.2-9.618-1.716-2.445-8.6-.178-5.085-21.094,1.235-10.951,6.1-8.96,0.987-18.365L900.249,339.6l-6.738-2.969L889.573,315l-7.591-7.6,4.391-20.97-1.289-7.289-3.627-.2-0.675-3.573-8.96-6.16L853.9,270.969l-0.436,3.493-15.352,8.3,3.369-13.609-5.92-8.382-0.507-6.809-11.681,8.143L813.1,263.965l-14.649,1.458-8.4-6.845-10.969,1.164-0.836-7.182,9.4-4.48,7.014-1.44,4.791-9.876L789.81,231.7l-6.845-8.729,5.663-4.116,10.783,1.075-1.565-25-5.92-4.338-5.333,2.516-6.1,13.227-13.876,3.751-5.191,5.227,1.947,14.649-6.685,8.507,1.894,3.191-17.138,9.289-9.725,2.845-4.2,9.094-14.445-3.92-1.129-3.627L689.5,241.608Z" transform="translate(-4.277 -51.731)" fill="#06c" stroke="#000" stroke-width="2"/><text transform="translate(176.885 713.066)" font-size="188.662" font-family="DejaVu Sans" font-weight="700">1</text><text transform="translate(537.219 382.763)" font-size="188.662" font-family="DejaVu Sans" font-weight="700">2</text></svg>