<svg xmlns="http://www.w3.org/2000/svg" width="659.336" height="635.805" viewBox="0 0 659.336 635.805"><title>2T Législatives 2017 Charente</title><path d="M283.622,384.841l-13.2-.754-.165,2.191-3.524,2.29-3.8,12.5-5.671-3.5-4.113-5.494-4.531-.744-7.433,5.28-4.734,12.894-9.872-4.344-12.526-5.968,3.188-10.675L224,382.336l-1.4-10.979,4.316-2.053,10.912-.033,7.207-4.377,2.792-5.968-.149-4.465.7-4.537,10.593-4.7,12.178-3.237-1.4-8.776-3.943-1.58-5.56-7.053-4.284-1.239-1.288-2.009,8.44-8.022,1.492-9.216,2.753-3.788,4.146,2.99,3.556-.259,9-9.376,9.4-5.644.584-6.171,3.342-1.537,1.453-4.107,8.881-6.045,6.028-2.246,1.949,1.023,3.177,2.913,4.68-4.074,7.609,3.011-2.94,8.859,5.434,4.377,2.511,6.238,16.577,13.192.391.341,8.594-2.775,2.516-3.794,7.785-4.707,6.805,3.259-4.267,19.573-3.1,3.116,1.519,10.775,8.264,3.105-7.619,4.85-2.258-.429,3.056,6.194,18.488,9.184.534,6.766,14.485-.4,5.649,4.14-10.406,11.81-2.389,11.5-3.678,2.912-9.327-.87-3.909-12.118.931-6.26-3.315-2.956-6.458,1.492-8.429-1.261,1.64,7.84-1.459,1.443-2.736,9.612-1.5-1.729-5.269,4.344-4.526-.572-6.508,2.2-6.15-2.367L321.879,373.34l-6.133-3.248-2.241.688L311.688,370,310.5,371.6l.116,5.665-5.082,9.293,1.949,8.132-2.29.342-8.143-13.676-3.838-2.616Z" transform="translate(-10.305 -8.977)" fill="#ffeb00" stroke="#000"/><path d="M309.433,597.6l4.03.947,9.794-2.39,2.891-7.042,4.828-10.658,6.1-1.355,6.051,1.6,2.692.291,6.541-5.549,1.889-11.215-2.676-13.258-.149-.138-3.556-12.206-3.535-7,1.888-11.562,4.41-10.626,2.219-7.41,1.509-7.29,3.386-5.676,5.489-3.667,6.414.474,5.836-2.527-5.979-6.365-.281-8.881,3.81.088,8.6,9.988,2.439-10.7.132-.214,10.318-4.053,3.006-5.957,6.684-1.475.451-4.515,14.028-5.12L425.5,449.5l4.124-1.217.485-10.708,6.243-8.677,2.241-2.676-.743-3.518-16.721-6.591-4.856-4.493-2.032,1.024-.66-4.481-4.779-4.763-21.913-12.321.876-3.056-3.909-12.129.93-6.26-3.314-2.957-6.458,1.492-8.43-1.249,1.641,7.829-1.459,1.442-2.737,9.613-1.492-1.729-5.268,4.344-4.531-.572-6.508,2.2-6.145-2.367-18.235-14.326L315.72,370.1l-2.241.688-1.817-.776-1.178,1.591.116,5.666-5.087,9.3,1.949,8.132-2.291.341-8.143-13.676-3.837-2.615-9.58,6.084-13.2-.755-.165,2.192-3.524,2.29-3.8,12.5-5.677-3.5-4.107-5.5-4.531-.743-7.433,5.28L236.438,409.5l-9.871-4.344-12.526-5.968,3.188-10.676L224,382.33l-1.4-10.978,4.316-2.054,2.18-3.408-2.384-12.365-5.252-2.109-.683-14.766-2.175-.4-7.405,4.526-6.463-.116-4.895-4.8-5.9-9.365-4.217-1.376,1.266-1.917,2.158.463,2.131-3.6,4.339.622,3.859-5.3,10.935-1.514,1.734-2.945-6.767-1.041.766-6.882-6.437-6.541-8.836-2.235-4.152-5.121-8.209-.258-4.1-1.377-1.206-4.195-8.275-2.605.11-1.453-2.312-3.474-1.333-10.207-13.824,1.486-13.175,1.3-3.92-8.463-10.351-5.439-.176-.088-4.509-7.4-1.035-4.1-3.64-1.525.65-5.935-3.892-1.266L98.873,233.6l-1.6,1.454L91.034,234l-3.485,2.412.666,4.464-6.734,6.139-3.568,1.024-9.035-1.431-12.5,4.74-1.9-.633-15.025-3.859-1.239,10.863-6.309.88-3.562,2.786L17.3,260.633l-6.469,9.5,1.48,8.429,20.669-1.6,5.8,3.722-.407,2.29-6.97,5.935-.534,9.31,2.318,8.3-3.524,8.022,5.792,1.486,13.313,16.38-.127,2.334-6.3,1.916-6.128-2.411L25.456,355.463l7.862,4.933,4.4-1.454,8.6-4.955,3.2,4.933,1.977,6.6,8.225,7.841,6.09,1.838,2.263,5.561,4.327-.528,1.294,1.761,4.228,3.326L88.8,395.566l-7.543,13.7-4.069,1.31-.11,4.719.8.055,7.834,4.333,6.645-.7,3.733,2.527-1.349,4.2,8.3-3.794,5.363,3.794-5.027,6.882,5.275,4.228,4.5-.258.044,4.465,1.855,1.3-.925,2.913-4.151-.936-7.378,13.39-6.458-1.828-2.472,11.914,4.245-1.591,4.107,1.927,1.15,4.388,5.3,4.228.089,1.68,2.846,3.589-1.85,4.2.479,6.645,6.794.126,1.245,6.282-6.894.2-1.228,4.471-11.006,2.031-1.673,4.245-3.678,2.72-6.767-.066-.749,1.69-3.633-.374-.22,6.816,2.973,3.138,4.239.611,2.219,3.128,4.047,1.376,1.062,6.26,3.97-2.02,11.358.055.27,6.755-2.07,3.794-6.249,1.525L97.5,540.03,95.3,546.075l.54.418,1.1,1.7-5.341,6.034L94.5,557.3l.573,9.15,12.013,6.332.325-6.624,7.835-3.914,4.547-.171.766-4.5,12.718,7.008,2.521,3.557,8.38-1.712,7.741,1.118,5.037,3.325,1.575,1.514,1.085,7.471,7.075-4.244,9.981,3.226-1.8,23.669-1.266,4,7.2.847,10.791.8,12.729-2.142,2.549.529,1.993,1,3.452,8.066,8.132,3.733,8.892.247,1.013,4.311-3.568,10.946-.148,7.008L229.64,644l2.913-7.515,6.788-1.454,5.39-4.129,8.886-10.5,5.076,4.355,4.5.237,7.455-4.817,3.76.958,6.662,7.614.738.7,7.708,3.034,1.976-3.507,4.185-.138,1.272-6.689,4.5-1.267,7.917-8.473-2.142-3.826,1-4.471,2.059-2.83Z" transform="translate(-10.305 -8.977)" fill="#ffeb00" stroke="#000"/><path d="M178.54,152.484,174.384,151l-6.58,1.668-5.935-3.259-4.988,3.3L159.2,160.3l5.693,2.753-2.692,5.506-3.6,1.486.3,1.955,1.261,4.195,6.15.474.5,8.754,2.665,3.375,4.426.4.876,2.054-1.542,1.6-3.347,6.079.743,4.569-1.58,1.7-6.271,1.954-3.436,5.7,2.258.111,2.312,10.989-7.328,14.4,1.608,6.772-3.623,6.431-2.946-2.615,2.192-3.755L152,243.989l-8.556,1.432-1.63-1.476-4.1,1.646-5.264,6.971-8.3,1.872,10.35,5.439,3.92,8.462,13.176-1.3,13.824-1.487,1.333,10.208,2.312,3.474-.1,1.453,8.275,2.6,1.2,4.2,4.1,1.376,8.214.259,4.151,5.12,8.832,2.236,6.436,6.54L209.4,309.9l6.766,1.04-1.74,2.946L203.492,315.4l-3.859,5.3-4.333-.622-2.137,3.6-2.158-.463-1.266,1.916,4.223,1.377,5.9,9.365,4.9,4.795,6.458.116,7.405-4.526,2.18.4.683,14.767,5.247,2.108,2.383,12.366-2.18,3.408,10.913-.033,7.207-4.377,2.8-5.968-.154-4.465.7-4.536,10.594-4.7,12.178-3.238-1.4-8.776-3.942-1.58-5.555-7.053-4.311-1.233-1.288-2.01,8.44-8.022,1.492-9.216,2.759-3.788,4.14,2.99,3.557-.259,9-9.376,9.4-5.644.583-6.171,3.348-1.536,1.448-4.108,8.886-6.045,6.023-2.246,1.949,1.024,3.177,2.912,4.685-4.074,7.6,3.011-2.94,8.859,5.439,4.377,2.511,6.238,16.572,13.192.4.341,8.589-2.775,2.516-3.794,7.785-4.707,6.811,3.259-4.273,19.573-3.1,3.116,1.519,10.775,8.264,3.105-7.619,4.85-2.258-.429,3.056,6.194,18.488,9.184.534,6.755,14.485-.385,5.649,4.14-10.4,11.81-2.4,11.5-3.678,2.912L387.79,388l-.876,3.067,21.913,12.321,4.779,4.763.66,4.482,2.032-1.024,4.856,4.492,16.732,6.58,3.964-1.1,3.727-9.4,3.739.8,4.465-.325,7.35-4.73,3.556-5.593-.28-4.322-3.458-2.654,8.314-15.559-1.944-3.87,1.85-3.612-1.321-4.129-5.556-6.646-.489-2.819,2.262.578,1.492-1.806,1.977-6.733,6.166-6.915,4.482-.721,1.421,9.453,5.616-3.59,6.6-.2,5.1-4.367-3.937-8.258,9.349-5.236.424-4.41,5.836-2.72-1.773-3.441,2.593-3.282,1.349-8.346,1.883,1.376,6.524-6.54,3.172-8.474,1.756-3.98,3.771,2.191,1.861-1.14,2.291-6.094-1.305-1.751,2.45-5.858,5.819-.011.441-5.892,13.643-9.343,7.631-.5,1.453-4.255-3.4-6.068,1.415-16.076L564,234.057l11.171.8,4.58,4.884,4.5.11,3.843,5.677,4.245.3,2.1-3.644-3.066-5.754,2.521-3.611-.236-8.71,6.5-6.365,11.694-24.9-6.309-2.065,9.293-8.561-6.48-9.508,1.145-13.721-3.259-3,1.448-6.409,4.6-.192,7.515,5.483,4.635-.429,6.178,2.868L641.6,154.6,651.76,145.2l6.877-.077.721-5.406,1.922-1.195-1.421-1.751,1.465-1.729,6.926-5.17.859-8.809-4.069-1.849.016-10.637-7.575-4.312,2.824-7.829L653.5,91.5l-7.45-3.474-.391-3.881-3.286-2.2-9.206,10.279-2.329-.28L628.361,83.3l-5.164-4.57-12.784-7.686-.589-6.519,4.432-5.065-3.243-8.314,3.722-5.83,0-1.515L617.135,40l.033-7.042L613.5,26.916l-5.649-4.185-.231-2.356,5.4-3.794-7.1-5.549-10.807,3.881-17.464-5.17L568.917,12.2l-7.9-2.626-.209.353L558.6,16.3l-10.1,5.583-4.272,5.539,5.153,10.312-9.233.17-12.938,3.579-9.14-1.013-3.254,3.116-2.18-.8-.76,8.066-5.461,3.463-2.258-5.743-7.834,2.043L491.231,43.2l-4.63-.611-6.266,3.018-1.283-6.772-7.719-11.325-7.719-4.73,2.087-8.473-6.3-2.257-4.2,4.861-6.535-1.376-4.372,12.679L440.9,31.227l-2.142-.754-3.689,4.344,2.594,3.622-1.448,1.806.8,4.367,9.113-.281,4.118,1.882-.325,9.184,2.637,3.794-4.471-.9L445.743,62.2,436.5,68.759l-15.477,1.454L416.1,60.749l-6.056-2.7-3.782,2.516-13.434-1.129-3.772.892-6.463-.87-4.058,1.773-3.8-1.806L370.9,62.064l-6.959,1.1L357.2,62.009,356,57.88l-6.018-3.139-2.18-4.019-8.044-3.5-6.078-4.669-3.2-2.808-10.527-.891L310.672,47.2l-3.755.8-.936-1.713L291.149,33.126l-7.807,4.355-6.3-.258-4.2-4.989L271.108,33.6l3.072,7.989-1.25,1.772-5.236-2.868-5.962-.506-9.47,9.343,4.107,5.236-4.2,1.624-6.9.892-8.732,10.593-6.673-4.5-3.49,2.731L215.3,65.313,209.081,67.5l1.277,6.612,6.579,9-3.98,5.44-6.706.836.071,4.432L203.371,102l4.454,3.881-3.82,4.774-3.992,2.032-1.481,4.256-6.766.247-12.394,6.53-.484,6.485,4.311-.17,1.751,6.227,2.152.225-4.779,9.184.391,4.162Z" transform="translate(-10.305 -8.977)" fill="#ffeb00" stroke="#000"/><text transform="translate(257.97 344.422)" font-size="60.256" font-family="DejaVuSansCondensed-Bold, DejaVu Sans" font-weight="700">1</text><text transform="translate(130.471 497.092)" font-size="60.256" font-family="DejaVuSansCondensed-Bold, DejaVu Sans" font-weight="700">2</text><text transform="translate(329.665 217.216)" font-size="60.256" font-family="DejaVuSansCondensed-Bold, DejaVu Sans" font-weight="700">3</text></svg>