<svg xmlns="http://www.w3.org/2000/svg" width="891.692" height="809.526" viewBox="0 0 891.692 809.526"><title>2T Législatives 2017 Lot-et-Garonne</title><path d="M621.742,589.279l-6.62-1.273L602.15,577.845l4.548-4.7-.327-10.007L591.5,570.959l.129,9.052-10.548,6.98-10.591,13.583-9.069,4.4-12.4,2.673-10.436.215,5.743-11.665-5.227-4.471-6.86.74-18.3,9.826-19.824,13.281L482.469,603.3H479.04l-2.794,1.711.18,6.465,5.691,7.221-4.436,4.668-13.926,3.224L453.6,623.132l-13.471,5.158-10.72-1.109-9.232-7.256-4.11-5.106-11.536-.791-16.127,7.7-17.185-3.791-4.083-5.27-1.9-20.219-1.057-4.178-10.54,16.437,4.333,8.441.258,9.972-9.37,4.144-3.886,5.57.886,3.344-7.823,5.528-9.4-2.012-2.733.318-4.788-6.731-10.875,13.565L285.97,645.56l-8.9-6.379-9.542,4.264-9.894,9.971-6.972-.808-8.338,11.382,17.958,20.279,12.6,3.275L251.4,699.769l.259,3.558,5.906,8.717,13.539,3.611,6.8,12.526-17.537-.671-3.172,9.671-13.084,4.582-24.6-1.513-2.837,5.321,3.508,9.267L210.8,759.91l-16.858,18.44,2.45,6.644-12.216,16.54-8.21,33.8-4.7,5.039-6.989.9,1.47,6.9.533,17.176,9.559,18.319,22.9-2.269,14.622-13.42-.412-3.4,10.342,8.424-1.737,17.314,9.826,3.439,6.567-1.178,3.121-6.18.533-14.073,10.909-8.527,6.464-12.508,2.683,1.325,6.06-.55,9.491-8.683,2.914,1.676,5.3,1.427,4.969-2.7L290.553,857l12.895,5.2,13.367.18,3.4,6.113,6.491.069,15.026,6.868,1.822-2.8,9.147-3.31-1.865-12.93,6.765,2.219,23.581-7.737,11.545,7.152,6.972.138,8.424-11.433,3.043-1.883,7.058-.705,8.2-6.345,17.185-.49,5.742-15.869.267-1.375,6.636-9.826,16.136,1.977,2.8-5.338,11.64,2.2,2.278,5.94,5.012-12.259,19.617,9.938,14.855-5.373,6.009-2.415,7.006-14.571,6.25-1.78,5.536-2.622,6.25,1.271-1.393,3.1,19.437,13.35,4.186,12.525L596.9,822.9l1.642,10.11,5.914,8.51,12.44-4.831,2.329-13.092,8.614-2.94,9.775-13.4,6.748.7,18.069-7.719-2.174-9.688,6.4-12,.249-6.886,4.659-11.717,15.1-12.294,5.029,4.032,12.181,2.871-3.963-8.494,3.215-12.155-7.186-12.593,6.455-2.433,17.486,2.3,25.514,12.474,1.754,3.12,8.244,1.075,8.046-5.373.258-6.55,2.639-1.969,5.863,2.871.963-6.232-3.7-5.476-2.287-12.7,3.344-5.708.172-3.455L765,689.516l-8.751,5.055L751.6,689.92l-7.514-1.246.035-9.655,4.4-8.648-41.324.181-.739-10.161,6.524-8.064-3.516-4.633-4.7,2.3-9.791.439-8.3-11.167,1.3-9.852-.576-2.235-6.378.439-9.207,8.313-7.453-6.113-3.525-4.9-9.834.2-6.765-6.043.129-6.078.12-6.5,5.914-3.859.181-9.637L643.57,581.94l-5.871,2.733-9.147-2.286Z" transform="translate(-16.833 -84.747)" fill="#ffeb00" stroke="#000"/><path d="M99.209,499.556l-5.382-.67-16.866.894-7.5,6.98-6.791-.567L57.6,522.63l5.837,5.054L78.457,541.55l16.368,22.833-5.906,3.594L95.7,587.551l-14.443,8.416-9.834,19.514-4.608-4.822L55.582,623.82l-11.95,6.714-9.4-3.774L30.213,621.6l-2,6.4-10.8,8.107,8.064,24.259.361,51.159,10.539,1,5.975-3.593,13.746-1.058,20.382,5.236,40.98.92.18.035L138.9,725.819l6.628,7.84,73.956,6.568L244.1,741.74l13.084-4.582,3.172-9.671,17.528.671-6.8-12.526-13.53-3.611-5.906-8.717-.267-3.558,21.483-12.225-12.594-3.275-17.958-20.279,8.33-11.382,6.98.808,9.887-9.971,9.551-4.264,8.9,6.379,24.268,1.289L321.1,633.261l4.78,6.731,2.742-.318,9.4,2.012,7.823-5.528-.886-3.344,3.886-5.57,9.371-4.144-.259-9.972-4.333-8.441,10.54-16.437,1.057,4.178,1.891,20.219,4.092,5.27,17.185,3.791,16.127-7.7,11.536.791,4.1,5.106,9.241,7.256,10.72,1.109,13.471-5.158,10.153,3.456,13.926-3.224,4.428-4.668-5.683-7.222-.18-6.464,2.794-1.711-4.608-7.573,2.673-1.075-.464-10.273-10.832-7,2.167-6.431-7.6-11.536,5.03-8.416L450,543l-4.057-8.348-.112-9.069,12.663-3.843-.4-17.193-3.4-24.819,12.877,3.525,5.468-4.264,7.53-15.783,8.992,10.66,9.766,3.894-3.052-6.344L498.8,453.67,496.034,440.6l-10.135-.92-8.872-4.6-2.381-12.963,3.955-6.628,3.868-13.076L487,397.234l-1.316-6.344-3.266-1.057-2.872-5.571,4.892-4.616-9.525-10.359-13.652-2.7-4.882,4.969-8.562-9.938-6.473-2.837-4.479,7.384-5.6-3.877-6.455,1.616-7.806-6.215-6.972-6.344-3.447-8.665L413.1,331.97l11.476-4.806,10.9-8.6-2.364-26.761,5.776-.876,8.632,18.757,3.335.877,12.388-5.94,14.734-14.674L497.3,296.5l6.353-12.224,14.657-6.267,5.855-7.4,5.88-1.728,4.7-11.33-.232-.172-19.8-6.886-6.491,1.53-20.133-4.453,4.023-15.921-1.263-9.886-5.261-3.791,11.433-3.439-2.673-8.4-3.7-17.348-8.167-6.5-5.553,2.992-12.792-2.751L450.6,196.9,424.986,207.56l-19.058-9.5-10.436.524-7.342-7.539-8.063,6.516-4.333-6.043.662-14.477,6.6-16.84-13.195-11.348,1.47-6.971,3.2-1.29-2.072-13.4-6.112-12.509-21.672-23.15-7.075-4.316-.541,3.224-18.182,6.147-13.179,2.871-6.249-2.605-6.689-11.6-6.825.035L284.7,88.489l-4.866,4.952-4.71,17.142,4.943,13.316-12.483,4.315-5.312-20.734-3.594-6.147-3.524-.49-3,3.627-5.648,11.219-2.8-1.6-5.485,2.751-6.387,2.716-8.347-6.886-3.766,27.045-3.782,5.794-4.831-5.089-6.68-1.246-6.163,3.275-1.2,6.92-3.421.877,4.891,15.981,6.215,3.241,13.789-.155-2.4,8.983,1.779,5.863,6.232,2.287,15.371-4.789,3.293,2.081,6.679,1.642,4.375,5.553-4.221,7.221-6.3,8.425L241.056,220.2l-10.617-.825-6.938-7.857-2.6,5.39,1.2,9.147,11.029,12.56-2.561,6.43-12.964,2.57-11.468,12.242-.576.335-4.642,3.928-20.494,6.31,2.408,6.448-1.883,9.92-10.436,20.245-22.617-6.078-3.826,3.645-8.416,9.371L119.57,303.4,132.835,325.5l-5.605,8.477-3.4-.1-3.516,2.906-11.374,14.778-.343,15.465,3.172,30.561,6.516-.9,6.585,6.981-1.04,9.12-5.657,2.5-3.378,8.967,1.865,9.653-4.951,4.127,13.445,23.52,8.734,8.192-5.708,8.047,7.7,6.163-4.788,9.018-15.491-5.673-6.679,2.2Z" transform="translate(-16.833 -84.747)" fill="#ffeb00" stroke="#000"/><path d="M774.33,564.4,766.1,553.182l-10.488-1.616,3.714-8.579-.9-6.044,7.341-4.9,9.353-18.233-3.008-3.765.98-6.293-4.41-8.769,4.831-8.665,3.4-8.278,8.95-1.78,6.584-1.5,2.769,6.551,9.963,9.62,2.906,24.732.825-.017,1.255-10.024,4.471-5.476,24.018.086,9.947-9.851,16.1,5.845,6.929-.842,13.651,1.581,9.749-3.421.317-10.342,2.493-2.364-3.292-12.7-6.147-1.393,7.694-9.851-3.06-26.34-7.531-3.422-1.6-3.051-10.11.937.051-6.585-6.98-7.256-.516-9.851,2.957-9.62-1.479-10.041-10.212-4.72,4.109-9.989,1.221-14.236-25.411-41.753,8.5-5.089,9.8,1.831,4.823,11.769,14.717-18.654,5.974-3.293.6-.4,1.582-3.12,19.385-6.817,3.044-9.955L908,267.029l-4.969-9.164-10.367-1.513-7.4-7.436-9.8-3.508-15.268-7.659-12.112-17.442-13.617-10.445-7.771,6.98-16.411-4.281L797.8,217.814l-8.424,10.5-5.914,3.241-8.709,6.095-14.072,2.012-4.635,17.063-8.967-.808-16.5-4.2,2.037-13.067-6.318,2.114-3.1-8.579-5.871-5.94L730.944,216.1l-.43-16.858,5.846-3.068,1.1-9.826,5.759-3.224-12.413-1.479-7.014-5.622,3.825-7.47-1.8-6.783-7.866-7.083-13.428-4.23-8.063,5.708-1.023,10.239-6.147.988L678,161.6l-2.261,9.886-10.179-1.5-12.413,5.915-24.174-1.024-7.857,1.479-20.356-2.347-1.324-12.456-5.51-12.542L580.96,144.5l-6.3,7.367,1.324,6.345L573.4,160.19l-8.373-4.583-12.551-1.229-2.846-1.814-8.063,5.794L534.78,180.52l-3.439-.825-11.623,7.35-3.481-.6-5.391-9.121-9.318-4.1-7.187.843L482.5,182.24l8.167,6.5,3.714,17.347,2.673,8.4-11.433,3.439,5.261,3.808,1.255,9.887-4.015,15.92,20.125,4.436,6.49-1.513,19.807,6.869.223.18-4.693,11.313-5.881,1.745-5.863,7.385-14.657,6.266-6.344,12.225L478,289.894l-14.734,14.674-12.388,5.957-3.335-.894-8.631-18.74-5.777.859,2.364,26.779-10.9,8.6-11.477,4.788-6.516,10.729,3.455,8.665,6.964,6.344,7.805,6.2,6.456-1.616,5.6,3.895,4.47-7.385,6.474,2.82L456.4,371.5l4.892-4.951,13.651,2.7,9.525,10.359-4.891,4.6,2.871,5.588,3.266,1.04,1.316,6.362-4.53,5.175-3.877,13.075-3.955,6.628,2.39,12.946,8.872,4.6,10.135.937,2.768,13.075L496.3,471.375l3.043,6.327-9.757-3.894L480.6,463.166l-7.531,15.766-5.467,4.281-12.877-3.542,3.4,24.835.386,17.193-12.654,3.826.1,9.069,4.066,8.365,15.388,7.96-5.029,8.416,7.6,11.554-2.167,6.413,10.832,7.015.464,10.272-2.673,1.075,4.608,7.573h3.421l11.64,12.276,19.824-13.281,18.294-9.844,6.859-.739,5.236,4.47L538.579,607.8l10.436-.215,12.4-2.673,9.069-4.4,10.583-13.6,10.557-6.981-.138-9.052,14.872-7.822.335,10.006-4.556,4.7,12.972,10.161,6.628,1.273,6.731-6.817,9.138,2.3,5.88-2.733,7,11.063-.172,9.637-5.914,3.86-.121,6.5-.12,6.078,6.757,6.043,9.835-.2,3.533,4.9,7.453,6.112,9.2-8.313,6.379-.455.585,2.252-1.307,9.852,8.3,11.149,9.8-.421,4.7-2.3,3.508,4.634-6.525,8.063.739,10.161,41.324-.18.945-.25,30.776,2.992,19.1-40.988-7.411-8.176,10.015-13.23-3.67-16.488,9.542,3.241,7.272-11.064-18.955-13.514-.971-3.327-5.184-10.866Z" transform="translate(-16.833 -84.747)" fill="#ffeb00" stroke="#000"/><text transform="translate(417.094 656.993)" font-size="94.083" font-family="DejaVuSansCondensed-Bold, DejaVu Sans" font-weight="700">1</text><text transform="translate(240.128 378.281)" font-size="94.083" font-family="DejaVuSansCondensed-Bold, DejaVu Sans" font-weight="700">2</text><text transform="translate(610.858 350.103)" font-size="94.083" font-family="DejaVuSansCondensed-Bold, DejaVu Sans" font-weight="700">3</text></svg>