<svg xmlns="http://www.w3.org/2000/svg" width="734.02" height="915.076" viewBox="0 0 734.02 915.076"><title>2T Législatives 2017 Vienne</title><path d="M149.191,346.185l-4.338,3.369-10.343-2.7,1.114,13.2-2.229,1.587-10.31-2.93-.289,4.2-8.035-2.471-4.739,6.312-5.532-.924-4.746,2.7-4.378,10.127,3.651,7.452,1.92,8.114-2.576,1.089-5.04-.407L82.69,403.058l-2.373,1.475,1.757,8.193-1.488,5.224-10.231,4.083,4.876,9.432L62.942,442.28l8.284-.643,8.541-7,15.724,4.031,13.187-1.239,1.829,2.084,5.5-6.416,9.419-10.828,2.589-.951L140.1,427.63l3.454-4.26,6.915-8.324,3.651-4.176,10.678-1.776,5.4,6.312,1.672,8.462-8.4,9.845,3.933,19.407,20.62,3.677,3.251-4.227,3.277,2.293L199,457.039l.124,7.617-3.513,3.683,11.084,1.881,7.976,7.787,5.545,1.114,4.025-.406,3.716,4,10.435,3.16,13.5,9.576,3.074,4.686-1.265,5.388,12.866,6.168,6.443-1.01,2.268-2.123,4.674,3.48,5.053-2.058,2.681,7.669-.944,4.4,6.771,6.03,9.051,8.3L299.8,525.7l1.789-8.167,10.789-1.33,7.34,7.511.144,5.322,5.048,1.908,8.586,3.343-8.7,9.858,1.415,7.95,5.054,8.921,5.073,2.255,11.542,11.765,12.021,6.758,4.509-13.915,2.307,4.994,11.451,6.915,5,6.528,13.095,3.815-2.287-9.983,12.853-5.4,8.305-.42,1.54-2.353,1.75-8.22-4.234-7.118,6.443-7.36-2.471-.885-1.619-4.982,5.735-8.272,6.692-11.306-1.331-2.294-7.924,2.085-1.927-1.908,3.2-7.334-1.718-2.164,7.374-3.382,1.94-7.885L441.767,483.4l-4.542-15.154-2.6-.525-16.346-2.1-8.141,2.458-2.694-.9-1.691-5.4-1.868-6.45-7.577-9.681-9.878,4.556-13.882-.459-9.831,4.031L355.19,436.53l-.354-4.135,9.831-12.749L362.589,412l-9.136-6.109,3.211-9.458-9.13-9.189-6.849,4.352-7.938,1.573-9.445,9.713-7.825-2.608-5.323,1.547-.813-2.688-5.276-1.507,4.575-24.337-5.617.092-6.863-8.6-.838-2.7,5.591-12.971-6.07-.4-1.193,8.422-6.974,11.818-8.167,1.986-7.091-4.608-4.234-5.493-.577-4.509,3.827-3.225-3.113-3.736,1.042-2.294-13.744-.59L238.56,341.17l-8.416-.308-2.516-1.331.38-5.683-3.3-7.832-2.72-.63-7.112,3.723-2.32-1.356-4.26-3.278-5.041,1.6L187.488,341.51l-7.872,2.806-8.167-1.449-5.211,6.515-10.48,3.428-1.783-2.176Z" transform="translate(-23.223 -28.454)" fill="#ffeb00" stroke="#000"/><path d="M373.308,645.986l12.872.334,5.211-1.8,1.449-8.18,6.561-8.7-2.419-4.673-7.42-3.356-9.078-13.07-.537-7.452,12.676-.105,3.618-8.862L383.146,586.3l-5-6.528L366.7,572.858l-2.307-5.008-4.509,13.915-12.021-6.757-11.542-11.753-5.073-2.267-5.054-8.921-1.422-7.938,8.7-9.87-8.586-3.33-5.047-1.908L319.7,523.7l-7.341-7.511-10.788,1.33-1.79,8.154,2.766,10.69-15.822-14.315.95-4.417-2.687-7.656-5.053,2.058-4.674-3.48-2.268,2.11-6.443,1.01L253.683,505.5l1.265-5.388-3.107-4.5.033-.177-13.5-9.589L227.937,482.7l-3.716-4-4.025.406-5.545-1.1-7.976-7.787-11.084-1.881,3.513-3.7-.124-7.616-4.444-2.163-3.271-2.294-3.257,4.215-20.621-3.664L163.455,433.7l8.4-9.845-1.678-8.475-5.4-6.3L154.1,410.857l-3.651,4.163-6.915,8.33-3.454,4.261L128,421.3l-2.59.937-9.418,10.841-5.5,6.417-1.829-2.084-13.188,1.239L79.748,434.6l-8.54,7-8.285.655-.209.079-3.251,4.417,1.809,2.124-.5,8.232-13,10.291-4.424,7.065.544,5.546,20.961-4.621,6.122-8.836,6.856-4.3,3,4.031-5.873,18.779,7.393,4.109,10.959-2.431.649,15.743,10.428,3.186-6.751,4.981-5.611.308L78.752,521.438l-3.782,13.2,9.6,8.193-7.459,17.3,4.143,3.664,10.6-.052,2.864,7.374,5.467.406,2.32,1.1,6.024-4.739,2.372.951,6.148,5.322,3.756,13.1,2.628.819,8.462-6.62-.97-5.322,4.968-12.559,8.475,16.255,1.8,10.651,3.723-.078,8.672-19.461,13.482.361,8.455-7.131,15.253,1.278,5.571,5.584L205.5,580.6l-.5,5.617-18.523,5.925-4.949,9.727-.2,10.907,7.839,6.731,3.448,2.74-3.258,4.516L193.173,634l-3.566,13.3.905,2.648,3.159,4.556,7.937-1.37,3.94,3.932-7.341,15.108-6.942,4.457-.406,2.766,2.582,1.049,2.589-.616,6.574,4.509,13.345-8.986,9.694,5.322,2.583-1.035,15.232,6.22,3.579,12.047,2.405-.459,16.092-8.908,4.935,2.071,6.922,7.977,4.234-9.655,14.439-6.515.079-1.383-1.252-2.431,1.862-5.159-4.962-1.855-.957-4.863,3.2-7.538,11.647-6.915,13.247.846,11.228.039,18.752,4.955,8.141-1.331,6.332,5.3,2.1,7.964,2.714-7.806,6.3-5.316Z" transform="translate(-23.223 -28.454)" fill="#ffeb00" stroke="#000"/><path d="M452.629,904.526l-15.4,4.26-10.887-1.193-3.868,3.7-2.595-.937-.911,9.6-6.5,4.11-2.681-6.823-9.327,2.431-6.069-8.822-5.506-.74-7.453,3.6-1.534-8.075-9.182-13.469-9.19-5.644,2.485-10.087-7.5-2.675-5.008,5.788-7.773-1.652-5.2,15.1-4.038,3.585-2.55-.885-4.391,5.159,3.087,4.325-1.724,2.15.957,5.2,10.848-.334,4.9,2.241-.393,10.933,3.139,4.516-5.322-1.075-2.786,4.661-11,7.806L310.811,943l-5.853-11.28-7.21-3.2-4.5,3-15.993-1.344-4.489,1.048-7.695-1.022-4.837,2.1-4.517-2.15-4.568,3.146-8.285,1.292-8.036-1.357-1.422-4.916-7.164-3.736-2.6-4.784-9.576-4.163-7.236-5.558-3.808-3.356-12.532-1.048-3.7-7.427L185.765,893l6.2-4.929,1.7-6.659-2.543-.9,1.16-2.432,8.783-9.87,1.462-10.638-.452-2.661-2.661-.295-8.364-.715-6.416,8.554-5.513-.655-2.805-4.6-9.347-1.075-3.9-12.394-2.615-.682-2.111-4.982-17.782-5.145,3.185-21.1,2.57-.793,7.4-10.986,2.549.885,3.8-3.8-1.8-7.859-1.121-3.841-4.778-17.907,18.5-.216,5.722-8.947-10.788-20.522,1.422-2.32,5.3,1.141,2.5-4.163-1.973-5.145,6.365-8.92-11.8-12.224-10.363-4.943-7.957,2.1-3,4.765-9.235,6.3-3.251,4.555.78,5.558-10.428,12.6-17.3-14.079L96.947,718,89,719.959l4.425-13.109,4.673-2.982-9.786-8.73,11.346-13.3-6.43-4.785-4.509-9.176-7.885-1.239-4.687,2.635.006-5.6-6.816-7.99,4.149-16.17,1.232-19.407-4.824-2.74L74.786,605.2l-1.153-2.379-3.14-3.1-12.224,4.07-1.763-1.921.406-8.016,5.768-5.093-3.939-3.611.242-5.349,4.241-6.954-.1-13.508,13.981.806,4.142,3.664,10.6-.052,2.864,7.373,5.467.407,2.32,1.1,6.023-4.739,2.373.951,6.148,5.322,3.756,13.1,2.628.819,8.462-6.62-.97-5.322,4.968-12.559,8.475,16.255,1.79,10.651,3.729-.079,8.672-19.46,13.482.36,8.455-7.131,15.252,1.278,5.565,5.585,4.188,9.576-.5,5.617-18.51,5.945-4.949,9.727-.2,10.907,7.839,6.731,3.447,2.74-3.257,4.516,3.821,7.236-3.572,13.3.911,2.648,3.159,4.556,7.931-1.37,3.946,3.932-7.341,15.108-6.941,4.457-.407,2.766,2.576,1.049,2.6-.616,6.574,4.509,13.345-8.986,9.694,5.322,2.582-1.035,15.232,6.22,3.579,12.047,2.406-.459,16.091-8.908,4.935,2.071,6.922,7.977,4.234-9.655,14.446-6.515.079-1.383L294.9,678.64l1.862-5.159-4.962-1.855-.957-4.863,3.2-7.538,11.641-6.915,13.246.846,11.228.039,18.752,4.955,8.141-1.33,6.332,5.3,2.1,7.964,2.707-7.806,6.305-5.316-1.2-10.945,12.872.321,5.211-1.8,1.449-8.167,6.561-8.7-2.419-4.673-7.42-3.356-9.078-13.07-.537-7.453,12.676-.1,3.618-8.875-2.287-9.983,12.853-5.4,8.305-.42,1.54-2.353,1.75-8.219-4.234-7.119,6.443-7.347-2.471-.9-1.619-4.982,5.735-8.271,6.692-11.307-1.331-2.294-7.924,2.1-1.927-1.921,3.2-7.334-1.718-2.163,7.374-3.382,1.94-7.885L441.755,483.4l-4.542-15.154-2.6-.524-16.346-2.1-8.141,2.458-2.694-.9-1.691-5.4-1.868-6.436-7.577-9.694-9.878,4.555-13.882-.459-9.831,4.031-7.531-17.244-.354-4.123,9.831-12.762-2.078-7.643-9.136-6.108,3.211-9.458-9.13-9.19-6.849,4.353-7.931,1.573-9.452,9.726-7.826-2.622-5.322,1.547-.813-2.687-5.27-1.507,4.569-24.337,3.539-6.974,12.637-5.25,10.8,2.1.2,10.088,9.314,4.994,4.621,6.233,3.454-3.775,5.6,5.571,5.367.308,1.5-2.281-3.27-4.542.085-5.336,4.286-7.242,8.6-7.145.111-5.531,2.576-1.075,6.417-3.074.748,4.955,7.314-3.022,11.962,5.276,10.593,13.876,3.238,4.418,15.934-3.494,8.081,1.128-10.369,19.945,10.894,19.906.118,8.422,11.109.97,2.3-1.612,1.108-8.311,7.846.767,7.131-4.287,11.175-.321,4.779-6.246,4.083,3.008,7.124-1.881,3.861,3.316,12.774-13.81,1.305,5.466,8.357,11.294,10.093-3.651,8.521,6.246,7.806-2.326,10.586,3.493,1.291-2.5,13.876-.079,5.493-18.627,4.653,2.713-.419,7.846,8.029,13.968,1.291,5.374-5.007,2.537-8.862,10.409,5,1.33-2.163,7.794,4.614,12.787-4.464,3.212-6.744,12.086-.813,2.6,6.1,8.894,6.062,17.055,12.2,1.776-1.16,4.621,3.159,6.377,7.925,2.635,3.814,4.11,10.907-.59,4.588,5.964,13.653-1.5L651.5,539.3l-2.392,10.178,25.123-1.7,8.147,2.485,5.552-1.141,7.825,3.369,10.907,9,14.164,16.281-6.856,4.392-.406,2.687,9.386,16.681-1.515,2.1-8.2-.511,8.586,16.655,9.806,3.186,9.444,5.545.171,8.272,5.368-.295,4.4-3.409,5.414.616-10.952,18.844,1.114,7.872-10.1,12.971-11.293-4.26-4.746,9.832.322,5.479-11.418,6.5.707,2.648-1.173,8.141-10.212-4.018-4.483-6.889-13.437,3.087-15.127-3.415-.846,5.034L652.826,706.1l-.524,16.412-2.819,7.9-6.285,5.362-.184,8.088-3.231,4.391,1.193,8.22-1.4.616-4.667-2.609-4.883,1.508-7.629-3.173-11.006-.091-9.74-4.517-.629,7.99-18.352-4.981-6.43,15.285-15.639,5.427.957,2.5-3.14,7.4-5.243,1.023-2.648,7.55,4.647,2.353-1.855,5.106-22.377,1.291-5.04,10.061-2.576,1.18,3.238,3-.184,7.118,7.321,3.061,4.385,9.832,6.758,3.906-2.595,6.8,1.2,3.723,4.09,1.462-3.218,7.538,1.848,8.18,5.63,6.285-3.192,3.762-3.769,4.2-5.525-.118-8.449-6.607-12.86,4.621-20.79-6.148-10.4,2.916-9.412-3.126-.249.42-2.615,7.577-12.028,6.646-5.092,6.593,6.135,12.277Z" transform="translate(-23.223 -28.454)" fill="#ffeb00" stroke="#000"/><path d="M392.532,352.275l-7.315,3.021-.748-4.955-6.416,3.074-2.576,1.075-.112,5.532-8.6,7.145-4.287,7.242-.085,5.336,3.271,4.529-1.5,2.293-5.368-.308-5.6-5.571-3.454,3.776-4.621-6.234-9.314-4.994-.2-10.088-10.8-2.1-12.637,5.25-3.539,6.974-5.617.105-6.863-8.613-.832-2.7,5.584-12.958-6.07-.406-1.192,8.422-6.975,11.817-8.166,1.986-7.092-4.608-4.234-5.492-.577-4.51,3.828-3.224-3.113-3.737,1.042-2.293-13.745-.591-16.058-5.3-8.416-.321-2.517-1.331.38-5.683L224.7,326l-2.72-.63-7.111,3.723-2.321-1.356-4.26-3.278-5.04,1.6L187.482,341.5,179.61,344.3l-8.166-1.449-5.211,6.515L155.752,352.8l-1.782-2.176-4.752-4.483-4.339,3.382-10.343-2.713,1.114,13.213-2.229,1.586-10.31-2.942-.288,4.2-8.036-2.471-4.739,6.325-5.532-.937-4.745,2.7L95.392,378.61l3.651,7.465-4.968-2L79.544,367.539l-5.985,5.63L68.716,363.2l-.283-7.911,2.321-1.357-3.638-6.823.878-2.537,8.691-9.969,7.735-7.144-.112-2.662-6.148-4.9-9.72,4.057L53.286,317.28l2.058-.78-.164-6.607,5.48-.1,5.034-6.476,9-5.886,7.964,1.947,6.3,8.691.944-.5L99.455,292l-5.577.118-7.6-3.788-4.7-3.173-5.433-6.449-7.99-3-5.46,1.435-1.914-2.124,4.1-3.441,2.832-12.65,7.852-10.788-2.642-11.366-4.608-13.246-4.791-3-.5-5.735-7.341-8.743-.793-5.709,7.315-11.215-3.126-7.373-9.255-4.379-8.141,1.462-9.2,6.167-3.317-16.346.374-5.119,5.073,1.166.7-2.444-3.86-9.727-1.115-6.26-.642-4.247-5.964-21.99.819-16.183,1.448-5.545,6.968-7.439,7.662,1.206,2.248,4.568,13.1.19,4.974,5.263,4.595-13.056-.557-2.74L59.73,84.565l-1-2.6,2.707-7.616.393-5.677L74.1,45.185,91.218,29.193l9.818,12.624,5.526-5.159,4,1.685L116.8,53.5l2.241,1.665,5.257-1.848L126,64l-1.874,7.806,2.431,4.864,4.326-3.317,8.088.872,3.913-6.882,5.526,1.016,5.826,5.368,4.779-2.609-3.645,7.629L155.8,84.4l15.03,6.758,2.078-5.349,8.933-7.131,2.865,10.854,7.59,8.528L179.152,112.75l-.649,10.624,2.589,1.036,7.833-2.89,7.688,7.99,13.142-8.207,1.874-4.824,4.857-1.462,10.966,2,.373,18.051,1.927,1.96,7.839-2.366,9.295-5.748,5.3,5.532-1.107,7.819,2.215,7.859-5.2,5.656,4.234,17.3,1.429,2.137-5.6,5.414-5.151.347,8.442,9.255-4.667,6.259,4.556,5.991-2.439,7.026,4.772,12.736,5.821,5.774,2.411,1.37,7.2-4.136,5.46-.295,9.222-9.949,12.925,3.958,9.773,6.181,8.573-.2,10,5.558,3.408-9.444,25.891-11.562,7.753-3.736,4.294,3.3L381.4,205.5l8.022,1.422,7.859,2.294,16.655-.616,1.946-2.012-1.612-13.1-13.994-6.915.42-7.761-4.182-7.885.433-3.06,5.027,1.369,7.688-1.743,15.567-.642,2.871,4.175-.97,2.445,1.166,4.686,7.695,6.889,5.028-2.458,5.06,2.51,2.556,5.067,16.537,3.264,2.851,4.726-.059,5.669.446,2.34,5.676,18.982-1.671,8.383,3.192,6.62-2.878,6.81.518,5.29,13.81,16.065,3.415,6.823,4.418,2.622,5.519,8.96,9.425-3.1.819,2.55-3.035,4.418,2.805,3.978,10.822-1.062,3.238,3.992-4.962,2.294-.472,2.7,4.339,6.784,7.426,3.061,1.036,10.782.164,1.4L535.039,332l-1.246,10.841L540.9,346.8l1.836,8.1,8.6,11.267,7.741,3.14.564,2.792,4.306,6.109,6.869,7.708L581.13,388.3l2.51,4.379-5.493,18.641-13.876.065-1.3,2.5-10.586-3.494-7.8,2.327-8.52-6.247-10.094,3.651-8.357-11.293-1.311-5.467-12.768,13.811-3.867-3.317-7.125,1.881-4.083-3.008-4.772,6.246-11.175.321-7.132,4.287-7.846-.767-1.107,8.311-2.3,1.612-11.11-.97-.124-8.422-10.887-19.906L442.378,373.5,434.3,372.37l-15.934,3.494-3.238-4.418-10.592-13.875Z" transform="translate(-23.223 -28.454)" fill="#f90" stroke="#000"/><text transform="translate(169.574 256.277)" font-size="71.733" font-family="DejaVuSansCondensed-Bold, DejaVu Sans" font-weight="700">4</text><text transform="translate(166.158 394.289)" font-size="71.733" font-family="DejaVuSansCondensed-Bold, DejaVu Sans" font-weight="700">1</text><text transform="translate(191.164 561.675)" font-size="71.733" font-family="DejaVuSansCondensed-Bold, DejaVu Sans" font-weight="700">2</text><text transform="translate(365.416 732.464)" font-size="71.733" font-family="DejaVuSansCondensed-Bold, DejaVu Sans" font-weight="700">3</text></svg>