<svg xmlns="http://www.w3.org/2000/svg" width="903.188" height="788.864" viewBox="0 0 903.188 788.864"><title>2T Législatives 2017 Landes</title><path d="M184.623,546.866l-4.405,2.446-1.194,5.114-18.355,9.04-1.424,9.711-8.695-3.627,2.637.16.964-2.458-1.762-4.84L139.741,559l-13.253-8.7-4.233-1.807,1.143-4.642-6.021-8.114-3.237-9.691L107.833,496l-4.891,6.2L89.887,503.76,88.3,505.88l17.48-88.161,13.853-66.575,5.184-29.7,15.9-107.4L144.536,186l2.873-21.388L158.722,64.573l29.355-9.13,50.378-17.531L250.3,15.42,280.221,33.4l10.247-1.372,10.694-1.111,2.42,4.711,3.224,15.859-6.2,17.742-8.293,18.954-11.626,10.5,31.335-4.916,12.289-4.878,16.07-5.9,5.605,5.522,34.782,13.254,18.476-1.36,8.772-5.784,7.744-.064,1.1-7.782,2.26-1.334,25.57-5.651L460,83.444l7.118-.377,3.2-3.792-1.653-1.934,3.249-4.137,2.637-.134,17.576,5.72,6.244,4.565.4,10.311.817,15.986-8.5,6.084,20.819,7.049,17.71,6.607,5.682,5.784,17.314,7.572,5.682,19.389,20.743,10.636,25.818,1.9,1.2,15.961,14.837,10.885,10.247.652L624.123,239.2l3.633,21.183,9.066,1.832,33.83,3.033,20.053,6.844,5.12-1.309,22.122-7.681-2.56-36.8,1.175-7.821,10.6.434,6.4-4.673L736,215.37l7.515,7.642,5.165,12.334,14.205,12.22,5.988,18.016.268,37.981,7.827.76,4.437-2.669,10.215-.8,15.131,3.9,30.434.683.134.013,15.789,8.74,4.916,5.81,54.93,4.89-2.107,3.952,2.605,6.87-6.965,3.78-12.52,13.681,1.819,4.948-9.072,12.27-6.1,25.1-3.492,3.742-5.19.67,1.091,5.14.4,12.743,7.1,13.618-4.623,6.71-.063,5.21-6.519,7.68,7.872,16.433,2.8,15.565-3.262,7.036-5.682,5.248-9.4-3.856-4.405,2.642-9.353-9.3-19.721-12.768,14.033-11.945.07-7.866-3.569-3.805-19.1-17.429-4.36,15.137-9.309,3.952-7.584,10.413-2.49.862-6.818-3.378-3.32,4.08,1.672,8.893-3.837,2.618-12.385-12.219-5.28,5.426-7.393-2.234-4.673,5.86-4.731,1.724-5.963-4.89L730.37,483.066l-4.922,2.183.8-12.545-2.152-4.616-4.4-2.508-1.417-9.9-7.8,3.927-3.327-3.365-.057-2.63L696.6,442.264l-18.132-10.489-1.992,7.47-8.516,5.823-6.046,11.383-9.954,1.844L649.6,470.528l-3.269,6.5-6.818,1.909.932,2.356-4.124,9.027,2.981,4.042-2.171,4.328,1.845,7.131-7.112.746-1.034,2.235,11.313,4.852-6.857,20.7-2.541.115-2.669-7.036-3.856-3.218-9.532,7.9-11.063-4.788-6.985-1.82-6.952,32.184-8,6.058-7.105,6.1-12.9,11.07-2.42-.708-.785-5-2.515-.274-6.787-6.921-4.577-1.008-2.036-9.181-4.75.524-1.673,4.6-7.553,6.384-7.182.447,3.645-15.475-2.432-4.725-4.686-2.12-12.916,2.522-9.863-.089-7.649-2.528.8-2.5-7.91-16.42L467.28,525.6l1.3-12.794,7.82-6.7,4.01-17.933-3.818-2.618-9.481,3.4-2.324-4.315-13.847-10.8,6.78-9.391,7.916-7.182,3.033-20.813,3.62-7.01-.658-12.87-4.846-12.1-11.019-18.419L436.213,382.7l3.812-9.64-2.28-4.628L422.7,365.375l-9.877-12.034-20.972,2.9-7.629-3.6-3.39,7.284-2.605.588-31.526-5.9-7.846,1.271-7.131,14.339-3.058,15.788L317.018,383.4l4.686-12.27,4.189-2.944,8.676-24.765-8.4-10.074L254.989,316.56l-8.734,30.926-10.17,12.456-1.462,5.024,3.467,4,10.259,2.222,1.724,2.056,3.652,10.062-1.028,7.942,1.839,5.037-1.73,7.852-4.373,1.086L236.59,418.844l-7.4,1.386-9.87,8.082-6.34,11.147-7.3-.2-2.28,10.228,15.967,17.442,17.423,8.976,6.518-1.972,6.627,4.092L260.474,478l25.441,7.643-6.1,20.461-8.434,35.439-13.547,3.378-29.049-4.8-10.744.536L202.313,544.2l-11.613,6.27Z" transform="translate(-10.881 -14.719)" fill="#f90" stroke="#000"/><path d="M257.742,544.983,228.687,540.2l-10.738.524-15.725,3.556-11.613,6.27-5.988-3.678-4.405,2.446-1.194,5.114-18.355,9.04-1.424,9.71-8.695-3.613,2.637.146.964-2.458-1.762-4.84L139.741,559l-13.253-8.7-4.233-1.807,1.143-4.642-6.021-8.114-3.237-9.691L107.833,496l-4.891,6.2L89.887,503.76,88.3,505.88l-3.665,21.036-5.12,15.137-6.487,28.915-1.493,9.551-7.074,32.917-7.016,43.445L54.691,676,53,688.516l-9.883,23.315-8.459,17.845L28.8,741.557,11.667,772.144,24.384,774.2l11.837-9.155,8.733,4.514L43.8,781.989l4.89-1.072,15.041,4.264,6.1,11.5,1.864-.224,24.184,1.634,18.846-6.084.345.172,6.455-1.52,16.841,4.917,17.11-11.058,5.063-2.758,17.876-10.3,7.444-7.22,4.482-4.367L187.8,755.7l-8.542-5.472L178.9,747.7l2.305-1.06,9.774-.46.677-2.458-4.5-5.5.128-.861,1.092-4.412-5.3-4.578-7.049-5.35-6.639-7.546L172,699.949l10.668-10.362,2.509-4.3,5.446-6.008,4.871-1.334,12.073,3.639,5.854-4.5,5.383-1.844-1.207,6.83,4.245,5.184,7.393,1.973,2-1.622,4.277,2.043,4.846-.85,3.964,3.033.613,4.934,7.6,6.513,9.25-1.348,5.606-.434,6.461-3.914L280.937,691l2.86-8.619,13.982-3.716,8.344-6.071L308,662.624l9.015,4.066,4.826-1.87-2.828-12.871,2.681-2.841-7.916-9.691-2.375-7.156,2.534-9.462,3.863,2.528,6.939-1.3,4.335-4.628-2.969-3.7,6.257-2.26-.772-9.251-3.359-3.306-10.042.983-6.85-7.572-7.036-3.058,4.412-9.813-14.154-29.041-17.378-5.651-5.886-5.164Z" transform="translate(-10.881 -14.719)" fill="#ffeb00" stroke="#000"/><path d="M696.26,690.475l-1.96,1.334-8.217-4.6.326,14.5,3.881,5.758,14.742.077-3.69,14.428,2.451.026,3.607,8.753-2.292,1.73-2.5.012-2.783-4.137-14.41,3.02-2.075,7.17-3.869,5-3.754-2.528-.243,4.3-2.349,4.552-16.574,6.187-6.684-3.7-2.579-4.2-19.236-4.789-6.314,3.716-2.911-3.754-17.187,11.549-6.512,2.209-5.816-10.975,6.1-3.141,9.474-11.108-5.248-7.444-4.245-2.082-6.851,6.5-1.838-1.506L563.7,742.6l.179.574-2.963,4.252-6.869,3.78-14.825,10.924-2.394.274L534.341,755l-2.892-4.137-17.895,14.653-7.776.683-.288-5.235-8.9-4.3-1.341-2.72-4.922.734-8.172-4.96,9.148-11.288-11.038,4.527-14.92,8.83-6.3-3.8-3.863,3.128L454.85,763.5l-7.048-.051-3.984-2.841-3.013-7.9L421.154,735.16l-6.518,2.77.3,7.2-6.736,1.437-4.986,5.809-9.544-3.728-11.588,5.286-.275,8.006-7,1.15-4.475-1.711-4.08-.944-12.06-3.614-9.934,1.462-3.894,3.2-2.451,7.054-2.344.926-4.149-2.854-4.438.026-3.141,3.69-6.8-2.234-14.122-3.729-7.035,2.433,6.1,4,.409,9.953-2.515,6.946.753,3.754-13.912-1.462-3.077,3.192-1.749-1.742-3.122-3.926-7.278-1.7-12.431,2.318-2.8-8.389-3.76-2.5-4.629,8.319-9.627-1.82-4.884,8.153-9.034,2.783-2.528.237-1.673,7.284-2.394.8-4.679-5.7-6.474,3.69-2.164-1.308-.1-3.065-1.085-6.084,3.754-2.317,14.856-.958,3.537-3.218-1.634-4.661-10.834-6.844-3-6.984-7.961-5.535-11.625-.026-2.541-4.175-8.543-5.472-.357-2.528,2.3-1.06,9.775-.46.677-2.458-4.508-5.5.134-.85,1.092-4.424-5.305-4.578-7.048-5.35-6.64-7.546,2.605-15.527L182.651,689.7l2.516-4.3,5.439-6.008,4.877-1.334,12.073,3.639,5.854-4.5,5.383-1.844-1.207,6.844,4.245,5.178,7.393,1.985,2.005-1.634,4.277,2.043,4.846-.85,3.964,3.033.607,4.934,7.6,6.512,9.251-1.347,5.605-.422,6.461-3.926,7.087-6.582,2.854-8.606,13.988-3.729,8.338-6.071,1.877-9.966L317,666.814l4.827-1.858-2.822-12.883,2.681-2.828-7.917-9.7-2.375-7.157,2.535-9.449,3.862,2.522,6.934-1.3,4.341-4.628-2.975-3.7,6.263-2.26-.772-9.251-3.359-3.306L318.182,602l-6.85-7.558-7.036-3.065,4.412-9.812-14.154-29.042-17.378-5.65-5.887-5.153,8.434-35.439,6.1-20.474-25.441-7.629-10.54.025-6.627-4.1L236.7,476.08,219.276,467.1,203.31,449.649l2.279-10.214,7.3.2,6.34-11.147,9.87-8.095,7.4-1.386L248.344,405.4l4.373-1.085,1.73-7.853-1.838-5.037,1.027-7.942-3.658-10.062-1.717-2.056-10.253-2.221-3.473-4L236,360.117l10.17-12.457,8.734-30.925,71.178,16.784,8.4,10.075L325.8,368.359l-4.188,2.943L316.93,383.56l11.651,2.631,3.065-15.789,7.125-14.339,7.846-1.27,31.526,5.9,2.6-.588,3.391-7.284,7.629,3.6,20.979-2.9,9.87,12.034,15.041,3.058,2.28,4.629-3.812,9.64,19.549,3.352,11.019,18.419,4.846,12.1.658,12.858-3.62,7.023-3.033,20.813-7.916,7.182-6.78,9.391,13.847,10.8,2.324,4.3,9.481-3.4,3.818,2.618-4.01,17.946-7.82,6.7-1.3,12.795,15.105,2.853,7.91,16.421-.8,2.5,7.649,2.528,9.863.09,12.916-2.528,4.686,2.132,2.432,4.724L523.31,569.95l7.182-.434,7.553-6.384,1.673-4.616,4.75-.511,2.03,9.181,4.584,1.008,6.786,6.921,2.515.274.786,5,2.419.708,12.9-11.07,7.106-6.11,8-6.046,6.953-32.184,6.984,1.82,11.064,4.788,9.531-7.9,3.856,3.218,2.669,7.036,2.541-.115,6.857-20.7-11.313-4.852,1.034-2.234,7.112-.747-1.845-7.131,2.171-4.328-2.981-4.042,4.124-9.027-.932-2.356,6.818-1.909,3.269-6.5,2.369-12.233,9.953-1.858,6.046-11.383,8.517-5.81,1.991-7.469,18.132,10.489,10.489,11.344.058,2.618,3.326,3.378,7.8-3.939,1.418,9.9,4.405,2.522,2.151,4.616-.8,12.545-3.92,3.078-3.626-3.231-2.363.786-2.636,7.01-4.054,2.745,4.392,5.21,4.667-1.06,4.316,2.382,3.364,2.93,4.431-.064,3.926,2.829,4.488,11.146-1.73,1.111-3.639-2.158-4.654,5.938-2.541,2.042,8.4,13.293,1.941,4.75-3.524,3.44.887,14.978-9.716-.052-1.826-2.458-5.951,3.665,4.5,8.331-1.89,7.131,3.964,3.365-.46,7.668,4.291,9.576-.767,2.522-2.566.5-2.681,4,12.047,2.656,1.373,7.342-15.246,13.63L704.911,637.7l3.339,12.43-7.234,7.547-1.181,5.113,1.513,2.158,7.693,1.271-1.921,5.458-1.635,6.761-7.01,1.334-1.424,3.914Z" transform="translate(-10.881 -14.719)" fill="#ff8080" stroke="#000"/><text transform="translate(395.797 265.718)" font-size="69.871" font-family="DejaVuSansCondensed-Bold, DejaVu Sans" font-weight="700">1</text><text transform="translate(105.498 644.187)" font-size="69.871" font-family="DejaVuSansCondensed-Bold, DejaVu Sans" font-weight="700">2</text><text transform="translate(439.051 637.533)" font-size="69.871" font-family="DejaVuSansCondensed-Bold, DejaVu Sans" font-weight="700">3</text></svg>