<?xml version="1.0" encoding="UTF-8" standalone="no"?>
<svg
   xmlns:dc="http://purl.org/dc/elements/1.1/"
   xmlns:cc="http://creativecommons.org/ns#"
   xmlns:rdf="http://www.w3.org/1999/02/22-rdf-syntax-ns#"
   xmlns:svg="http://www.w3.org/2000/svg"
   xmlns="http://www.w3.org/2000/svg"
   xmlns:sodipodi="http://sodipodi.sourceforge.net/DTD/sodipodi-0.dtd"
   xmlns:inkscape="http://www.inkscape.org/namespaces/inkscape"
   width="892.945"
   height="966.566"
   viewBox="0 0 892.945 966.566"
   version="1.1"
   id="svg4505"
   sodipodi:docname="2T_Législatives_2017_Haute-Vienne.svg"
   inkscape:version="0.92.1 r15371">
  <metadata
     id="metadata4511">
    <rdf:RDF>
      <cc:Work
         rdf:about="">
        <dc:format>image/svg+xml</dc:format>
        <dc:type
           rdf:resource="http://purl.org/dc/dcmitype/StillImage" />
        <dc:title>1T Législatives 2017 Haute-Vienne</dc:title>
      </cc:Work>
    </rdf:RDF>
  </metadata>
  <defs
     id="defs4509" />
  <sodipodi:namedview
     pagecolor="#ffffff"
     bordercolor="#666666"
     borderopacity="1"
     objecttolerance="10"
     gridtolerance="10"
     guidetolerance="10"
     inkscape:pageopacity="0"
     inkscape:pageshadow="2"
     inkscape:window-width="1366"
     inkscape:window-height="745"
     id="namedview4507"
     showgrid="false"
     inkscape:zoom="0.58350905"
     inkscape:cx="446.4725"
     inkscape:cy="483.28299"
     inkscape:window-x="-8"
     inkscape:window-y="-8"
     inkscape:window-maximized="1"
     inkscape:current-layer="svg4505" />
  <title
     id="title4485">1T Législatives 2017 Haute-Vienne</title>
  <path
     d="M549.577,404.181l-0.638-9.92-6.485-2.061-14.1,8.66-3.95,5.512-9.813.851-4.735,4.841-7.54,10.557L500,432.573l8.03,9.952,0.106,3.4-6.64,7.744-2.633,2.126-12.545-4.539-11.073,7.376-25.727,1.137,0.172,6.64-8.022,10.557,1.022,6.6,9.478,0.335,11.367-6.1,3.189,5.716,0.343,9.8-3.664,9.683,4.522,16.184-4.49,5.16,0.491,6.788-4.473,9.331-0.041,13.452-6.583,8.063-3.075,3.606,2.02,3.942,5.9-1.725,3.451,1.1-2.453,5.365-4.391,2.813-5.135,9.086,5.872,4.457,3.165,2.192,10.5,2.478-0.131,2.9,2.257,1.946-0.131,4.612,2.649,2.748,8.685,10.459-1.578,4.678-2.895,1.611-8.2-4.04-0.311,6.657,11.2,6.8,16.151,3.467,8.668-5.128,9.879,1.946,7.8-6.436,10.067,0.687,1.455-6.354-6.64-7.474,11.506-6.117,3.075,1.407L540.4,623.048l4.563,4.612,12.962-10.239,8.333,5.316-6.321,7.107,1.733,6.37L565,636.247l5.831-3.255,3.246,1.121,14.147,14.728,13.043,3.8,4.522,5.176,15.742-5.577,2.952,1.774,3.091,9.249,8.75,3.8,11.686-2.077-0.164,9.086-4.2,7.744-8.791,4.964-1.39,16.576-5.038,4.645-0.777,10.14-9.7,9.012,4.007,8.7-3.623,13.24,6.583,12.218-1.169,10.443,6.616-.769,4.915,6.935,5.635-3.5,13.125-1.873,7.589,5.732,8.987,3.287,1.889,10.058-2.224,6.3,9.241,13.69-1.063,10.124,6.788,7.507-0.908,6.771,5.52,8.006,5.217-4.391,17.222,0.752,16.789-11.768,6.673-6.338,0.646-9.364,3.4-5.3,21.925-21.834,10.034-7.638,9.355,2.462,18.1-6.8,2.265-9.715,7.18,0.875,0.875-3.165,6.5-.572,1.791-2.748,6.141-21.45,6.248,2.38,3.721,5.348,9.249-4.122,6.918,7.074,2.1,6.837,12.953,1.66,6.24-7.172,14.458,5.9,2.919-1.709,2.028-13.436,13.387,1.259,5.724-3.132-1.5-9.936-5.97-3.116,0.033-3.4-8.808-10.206-3.394-.54-0.27-3.337,8.12-5.814-5.446-8.243L886.3,695.2l-1.374-3.05,9.012-17.394-8.5-10.32,5.324-4.007,10.075-.507,4.031-9.437-6.395,1.169-6.354-26.242L876.4,613.063l-3.4.164-0.572-3.32-8.619-3.7-6.133-11.432-3.582,5.716L853.93,607.4l-3.124,1.537-6.125-3.148-13.24-15.75-12.986-3.067-3.124-9.617,4.416-9.314-6.223-16.118-9.584,2.208-0.818,10.476-11.2,4.261-6.984,7.875-10.32,2.3-13.861-2.6-12.52,6.15-6.624-.973-5.176,4.809-4.931-11.8-16.928-1.963-18.122-9.838,3.189-9.012-2.282-12.774-8.8-3.786,7.671-6.6,6.82-.621,4.465,3.467,2.805-9.42,7.066,6.264,6.248-2.38,0.057-3.819-10.827-19.471,7.744-10.271-6.338-.466-1.57-6.182-5.544,2.568-8.93-3.018-16.486,2.347-2.715,12.871-2.731,2.011L664.2,501.185l-6.06,2.33L647.829,490.48l-12.945-1.194-3.378-9.233L637.753,479l0.5-9.134,12.348-3.582,13.91-9.969,6.82,0.368,5.962-12.095,1.733-2.265-2.511-8.161-3.688-10.639-2.895-.6-18.3.114-8.905-3.287-6.967,6.951-6.673-.851-0.254,6.3-7.458,5.275-2.052,5.732-5.258-8.276L611,433.31l-6.01,2.895-2.821-1.979-14.466-17.811L574.549,419.4l-11.915-5.814-6.64-1.472Z"
     transform="translate(-18.619 -15.556)"
     fill="#ffeb00"
     stroke="#000"
     stroke-width="3"
     id="path4487" />
  <path
     d="M389.859,603.863l5.43-2.633,7.229-9.584,2.216-10.058-19.782-26.43,3.7-9.5-9.3-4.342-2.96,2.748-1.014,3.23-6.64,1.227-7.654,5.962L348.349,543.57l-13.093-2.878-4.857-4.473-23.192-4.007L307.64,521.7l-3.075-6.264,7.295-7.025,16.314-3.59,2-9.969-5.087-8.448,0.728-10.05-7.941-10.369-11.146-6.338-5.839,7.957-5.913-3.4-7.564-6.673,2.617-9.887-2.511-2.33-11.89,5.176-2.895,1.725-3.868-5.43-6.689-.752-25.236-15.652-4.71-2.093-0.024,15.816,6.043,2.748-1.276,13.084-10.287,7.679-2.184,2.552,2.118,2.6-2.854,1.791-1.071,8.014-10.214.131-15.1,13.976L181.074,500.7l-9.175-4.261-6.885.638-11.162-8.145-6.829.286-2.151,9.519,4.841,4.441-1.7,20.4,9.625,14.123-13.8,12.716,9.372,3.05-17.37,36.988-9.65,9.453,0.352,12.953-3.745,5.348,4.555,8.546-3.124,5.414-6.3-.433-5.7-8.431-6.681-.172-6.8-7.254-16.6-1.186-5.692,3.353-2.1,23.9,5.046,9-2.151,6.338-11.334.736L45.635,671.869l-0.662,8.75-8.636.033-3.647,8.7,1.946,2.6-3.4,9.053-2.764,1.677-5.61-3.238-2.6,5.913,5.594,12.52,8.693,4.375,2.29,6.518,5.9,3.549L56.1,732.352l8.832-3.533,5.618,3.1,7.614-5.962,6.28-.752,15.35,6.3,11.367,17.214,9.372,3.132,1.177,0.065-8.006,36.129-9.4,14.458,11.71,12.414,6.771,12.136,16.83-3.737,3.108,0.957,3.917,18.956,19.806-5.381,6.583-11.882,7.115-19.806,6.714-10.271,5.283,3.656,2.96,9.2,8.685,9.486,3.369,0.638,4.048-5.561,9.87,0.654,19.144-7.172,9.584,3.565,6.788-1.022,4.162,5.463,5.4,0.858,4.261-3.7,4.334-5.316,19.291,5.446,10.067,17.876-2.347,9.519,2.274,10.108,6.8,11.563,9.47,3.5,0.213-.572,8.685,9.2,7.262,14.074,0.965-3.271,12.733-4.309,3.737-5.544,6.665-1.276,9.069,4.6,22.938,14.81-0.711,3.4L380.167,903.2l-9.045,10.459-3.876,9.683-7.311,7.2,0.834,10.034,11.13,6.566,18.62-7.107,8.979,9.453,1.177,10,5.626,3.582,18.768-7.2,15.169,7.3,0.172,13.436,2.233,2.584,3.2,1.21,7.719-6.551,1.619-6.084,5.463-3.5,0.368-13.289,3.672-9,6.738-.72,5.258-3.623-0.761-9.437,45.018,23.175L536.188,926.4l12.218-4.023,1.292-11.056,3.026-1.374,9.118-17.525,5.839-3.23,6.444-.188,9,9.3,9.134-14.516,0.507-17.042,13.706-1.194,5.07-12.43,8.2,5.046,0.172,11.392,13.117-2.731,3.917-5.365,0.286-6.673,20.461,9.739,8.317,3.484,8.644-4.293,9.511-.785,5.577-18.817-5.528-8.006,0.916-6.771-6.8-7.507,1.063-10.124-9.241-13.69,2.233-6.3-1.9-10.05-8.979-3.287-7.589-5.732L640.8,774.516l-5.635,3.5-4.915-6.935-6.616.769,1.169-10.443-6.583-12.234,3.615-13.223-4-8.7,9.7-9.012L628.3,708.1l5.046-4.645,1.382-16.576,8.8-4.964,4.187-7.76,0.172-9.069L636.2,667.16l-8.75-3.8-3.091-9.249-2.952-1.774-15.742,5.577-4.522-5.193-13.052-3.8L573.953,634.2l-3.255-1.121-5.831,3.255-3.328-.033-1.733-6.37,6.329-7.107-8.333-5.316L544.84,627.751l-4.563-4.612,1.783-13.387-3.075-1.39-11.5,6.117,6.64,7.474-1.455,6.354L522.6,627.62l-7.8,6.436-9.879-1.946-8.66,5.128-16.151-3.467-11.2-6.8,0.311-6.673,8.2,4.056,2.895-1.627,1.586-4.661-11.334-13.207,0.131-4.612-2.265-1.946,0.139-2.9-10.5-2.478-9.028-6.64-3.8.147,1.521,3.672-0.172,3.786-2.265,4.187-4.3,2.748,0.237,3.672-3.909,2.568,7.875,6.166L429.937,631.1l-10.884,7.172-9.118-.572-11.277-6.019-6.559-.147Z"
     transform="translate(-18.619 -15.556)"
     fill="#ffeb00"
     stroke="#000"
     stroke-width="3"
     id="path4489" />
  <path
     d="M591.422,267.475l13.027,3.083,8.112,10.729,9.65-1.341-0.9,6.788,5.438,3.925,1.873,6.354-7.9,5.544-3.475,9.535,7.982,5.732,0.507,6.771,4.964,6.452,3.238-4.326,9.331,4.473,0.106,7.074,10.517,6.387L648.2,361.363l2.568,5.986-0.834,2.282,1.75,6.755,6.738,7.941-7.679,11.53-2.3,17.247,3.165,9.969L642.7,419.8l-6.976,6.951-6.665-.858-0.262,6.3-7.458,5.258-2.052,5.749-5.25-8.276-3.059-1.578-6.019,2.9-2.813-1.979-14.475-17.811-13.149,2.968-11.915-5.8-6.648-1.472-6.354-8.006-0.638-9.92-6.485-2.077-14.106,8.676-3.942,5.512-9.821.851-4.735,4.841-7.54,10.557-2.322,9.952,8.038,9.952,0.1,3.4-6.64,7.744-2.633,2.126-12.545-4.539-11.073,7.376-25.727,1.137,0.172,6.64-8.022,10.557,1.022,6.6,9.478,0.335,11.367-6.1,3.189,5.7,0.343,9.821-3.656,9.683,4.514,16.184-4.49,5.16,0.491,6.788-4.473,9.314-0.041,13.46-6.575,8.063-3.075,3.606,2.02,3.942,5.9-1.725,3.451,1.1-2.453,5.365-4.391,2.813-2.134,3.721-3,5.365-3.8.147,1.513,3.672-0.172,3.786-2.274,4.187-4.3,2.748,0.237,3.672-3.9,2.568,7.875,6.166-14.286,17.86-10.884,7.172-9.127-.556-11.269-6.019-6.559-.147-2.3-27.551,5.43-2.633,7.229-9.584,2.216-10.058-19.79-26.43,3.7-9.5-9.3-4.342-2.96,2.748-1.014,3.238-6.64,1.21-7.654,5.97-12.733-10.925-13.084-2.862-4.865-4.473-23.192-4.023,0.442-10.508-3.075-6.248,7.286-7.041,16.314-3.582,2.011-9.969-5.095-8.448,0.728-10.058-7.932-10.353-11.154-6.354-5.839,7.973-5.913-3.419-7.564-6.657,2.617-9.9-2.5-2.314-11.89,5.16-2.9,1.725-3.868-5.43L262.239,446,237,430.349l-4.71-2.077-11.252-6.4,4.2-11.629-10.116-7.327-11.056-5.16L203.458,392l-4.874-3.271L184.9,403.992l-3.459-.417-3.672-12.839-7.671-6.788-18.989-11.408-0.875-9.7,6.583-7.523L152,342.97l5.528-8.66,0.008-2.249,3.565-5.635,0.041-10.459-5.454-8.979-8.39-6.215-0.343-3.5,8.022-5.635,6.894,0.147,4.7-5.242,3.975-4.694-7.016-7.842L161.23,263.8l4.015-9.4-5.1-1.824-1.5-4.645,3.238-8.48-8.431-4.874-5.471-12.266-9.142-3.819,0.237-8.881-4.04-3.737,3.214-1.472,6.288-12.569,27.919-1.595,2.314-6.37-5.8-2.936,3.3-9.42,6.551-1.276L182.729,161l-1.194-3.116,19.512-6.771,8.014-19.07,22.906,6.215,0.785-9.969,12.152,5.635,13.73,0.114,9.519,3.942,6.092-1.873,5.822,3.255,1.742-.769-1.488-10.255,4.023-5.479,0.237-10.108,7.842-6.673,3.508-9.854,0.654-20.477,14.924-13.207,1.055-6.28,18.874,4.261L348.2,56.67l5.594,8.595,12.741,5.013L368,60.121l-0.891-3.3,14.254-8.112-0.4-6.837L386.877,29.6l14.1,5.316,4.947,6.984,5.9-.384,8.03-9.838,5.9-.834,0.254,13.69,3.238,6.2,14.041,2.093,8.685-10.639,6.64-1.979,13.444,2.233,2.412,4.309,19.111-2.192,0.376-6.706,7.507-5.577-6.387-7.2,22.268-7.957,8.038,1.807,4.383,4.22,9.756,12.4,5.316,8.4,5.348,3.958,3.214-.851-0.989,3.271,8.243,6.051,5.692,15.521-3.827,5.332,11.416,6.722,9.838-.131,3.8,4.743-4.939,7.76,2.6,19.643-11.784,5.4-5.643,18.571,9.372,2.028,4.171,5.111-8.562,5.209-6.51-1.873-5.986,8.292,0.851,6.518,8.178,5.749-0.965,6.64-15.644,3.238-11.481,19.569-3.14,1.243,8.464,18.653,5.643,3.688,2.552,10.058,5.741,2.7,8.219,5.5,9.9-1.423,5.209,3.148,8.521-5.16,5.8,3.549-1.431,6.248,4.309,8.963Z"
     transform="translate(-18.619 -15.556)"
     fill="#ffeb00"
     stroke="#000"
     stroke-width="3"
     id="path4491" />
  <text
     transform="translate(343.178 385.698)"
     font-size="89.498"
     font-family="DejaVu Sans"
     font-weight="700"
     id="text4499">3</text>
  <text
     transform="translate(297.721 735.163)"
     font-size="89.498"
     font-family="DejaVu Sans"
     font-weight="700"
     id="text4501">2</text>
  <text
     transform="translate(527.861 537.702)"
     font-size="89.498"
     font-family="DejaVu Sans"
     font-weight="700"
     id="text4503">1</text>
</svg>
