<svg xmlns="http://www.w3.org/2000/svg" width="950.206" height="587.646" viewBox="0 0 950.206 587.646"><title>2T Législatives 2017 Pyrénées-Atlantiques</title><path d="M675.041,236.606l9.4,16.536,9.622-3.112,8.2,7.511,4.356,1.439-.886-4.312,3.476-2.572-.646-2.1-.9-4.233,6.01-6.14,7.783,3.784,3.648,5.875,8.028,4.146,3.716,2.178,10.668-1.132v4.073l3.352,2.245-.676,21.895-1.022,12.292,7.82,9.351,8.4-3.113,6.263.111,3.242-2.738,3.919,6.595,9.32-12.95-2.073-8.194-5.481-3.956-4.719-7.56-1.1-.88-2.848-4.146.006-2.885L760.585,259.9l-1.163-2.116,1.883-1.526-1.261-5.672,4.663-1.968-.074-3.163-6.078-1.347,2.239-7.136,1.994-4.135-2.142-.443-.492-4.577,10.459,3.808,3.316-6.1-3.673-8.939,2.59-4.048-3.211-3.642-3.993,2.608-9.283,1.163.862,4.275-6.848-.129-.049-5.8-2.221.012-6.576-3.34,5.777-10.9.6-14.106,12.156-1.452,3.685-3.279-3.353-11.406-4.675-5.167-2.332.289-4.706.406-5.734-4.207-8.9-2.726-2.732,6.054-7.819,3.931-4.454-3.58,4.743-5.242-.843-4.541,3.433-6.367,4.177-5.746,2.2.96,3.586-2.775-18.812-9.382-4.018,4.94-4.3-.64,2.362,6.226-4.331,8.557.566,17.121.849,5.776-12.488,7.389-4.442-2.054-.708,1.827-5.53,1.156-2.547,3.483,2.818,3.1-1.963,6.62-7.5,4.5-.381,6.293-2.99,3.138,6.822,5.7-3.863,9.61-4.971,6.515,4.528,4.829Z" transform="translate(-14.373 -36.071)" fill="#f90" stroke="#000"/><path d="M889,234.729l.129-7.462,3.181-3.882,11.092,2.848L901.847,207.9l-6.841.554-2.067-8.748-1.255-3.027-4.657-10.3-16.721,8.5-4.6-1.021-.923-9.431-4.743-1.563-3.654-6.742-5.789-4.977.775,9.468-6.281,3.217-7.481-5.574-5.574-8.846-1.889-7.844-1.968-7.137-13.1,5.334-3.181,3.414-6.023-.781-6.49,3.163-11.763-9.192-8.286,3.655-2.08,6.909,3.051,6.791-.535,4.83,3.193,3.15-.375,7.3-7.567-.5-3.95-2.823-.535-6.644-6.8-1.058-3.685,3.278L747.893,182.7l-.6,14.106-5.771,10.9,6.576,3.34,2.221-.012.05,5.8,6.847.129-.862-4.275,9.283-1.162,3.987-2.621,3.218,3.654-2.591,4.048,3.673,8.927-3.316,6.115-10.458-3.808.492,4.577,2.141.443-1.993,4.134-2.239,7.137,6.078,1.347.074,3.149-4.664,1.982,1.262,5.66-1.883,1.526,1.163,2.128,11.338,4.712-.006,2.886,2.842,4.146,1.1.879,4.719,7.561,5.482,3.943,2.073,8.207-9.321,12.95-6.244,10.668.258,2.485,5.955,3.968-.467,2.141,3.857,2.006.056,3.458-7.241-2.166-4.54,1.717-1.938,9.831-4.909,5.549,2.78,4.491L778.112,361.2l-.849,6.933,5.426,10.359-5.285,4.541,5.568,4.3,6.373,1.648-1.753,6.534,4.159,2.166-.443,5.02,4.067,2.9,1.169,4.78-5.808,13.5-.184,2.51.436,2.473,1.551,1.981,8.293,5.648,9.154-2.319,2.823,4.047,12.612-.59,6.509,3.87,12.531-7.044,4.842-5.525,4.786-.922-8.766-7.8.135-4.915,5.586-10.969-.874-4.817L845.7,394.05l2.947-3.39-1-7.389,8.945,2.91,5.26-7.524L872.5,373.84l4.035-15,1.975-1.864,4.436-4.793.541-6.466,4.743-8.52,2.363.658,5.075,8.108,5.629-7.075,12.224-.141-3.2-32.452,2.049-1.187,4.337,1.815,6.478,2.978,1.378-4.577.947-7.223,10.059-14.044,3.759-11.511-.043-2.473-3.87-3.051,1.052-2.245-8.908-2.5-1.563-4.337-.2-9.48,5.291-4.768,3.433-10.071,1.224-4.337,11.639-1.575,6.067,4.11,2.227-1.034,5.979-7.979.708-1.156L964,217.065l-12.193-11.813-.308-6.305-2.233,1.021-2.688-3.833,3.112-6.657-1.31-1.765,2.018-3.895-3.636-.381,2.042-2.068-1.784-1.31,7.038-17.386-7.555-6.78,1.2-9.7-7.339.819-4.331,10.021-3.771-2.608-3.2,10.643-2.529,6.239-12.7-.142-1.12-.842L903.9,186.335l-.942,2.823-2.639,8.305,5.869,2.947,1.618,3.353.517.05,6.964,8.243.738,4.387-1.107,4.663-1.489,9.179-.757,6.527-.1,4.8-2.818,3.845-.406.154-10.778-4.386-3.993.166-3.014-.012-1.181,3.026,1.562-.277,10.385,5.7-2.885,12.051,5.26,5.082,2.676,3.987-.782,7.173-4.632,5.506-2.246-.9-5,4.5.381,4.424-.959-.074-7.05,1.108-2.984-3.544-8.619-18.2,1.747-7.044-.055-3.076,3.974-2.873,3.937-8.386,2.3-4.251,2.947-.9,1.182-3.014-.923-2.319Z" transform="translate(-14.373 -36.071)" fill="#f90" stroke="#000"/><path d="M655.281,68.613l-2.787-3.974L635.25,78.745l-7.494.671-.276-5.045L618.9,70.225l-1.292-2.633-4.743.708-7.875-4.78,8.816-10.877-10.637,4.362L588.8,65.526l-6.072-3.679L579,64.861l-.314,11.953-6.792-.061-3.839-2.726-2.9-7.628L546.218,49.506l-6.282,2.669.29,6.933-6.491,1.385-4.805,5.6-9.2-3.6-11.166,5.093-.264,7.727L501.56,76.4l-4.319-1.636-3.931-.923-11.621-3.47-9.573,1.4-3.752,3.088L466,81.668l-2.258.892-4-2.762-4.276.037-3.027,3.544-6.552-2.153-13.608-3.581L425.5,79.977l5.881,3.869.394,9.591-2.424,6.682.726,3.617-13.4-1.4L413.71,105.4l-1.686-1.667-3.008-3.783L402,98.3l-11.978,2.246,2.953,9.868,3.525,7.16-3.672,11.874,1.993,7.062,9.831,6.582,2.018,15.018,3.439,6.545,6.792-2.5,6.447-3.315,5.887-4.768-.978-1.889,3.716-7.413,2.233.96,4.232-2.393L448,144.678l10.6,4.564,5.284-.2,2.818,3.23,6.324.8,4.805,4.061,2.024-.53,9.775-1.3,3.3-6.262,8.447-4.184-2.049-6.546,2.584-3.968,1.3-3.113,4.823,8.546,5.45,4.7-1.624,11.676,1.828,4.528,4.091,4.9,8.243,5.02,7.217-.566,5.235,4.866,7.272.265,11.036,4.805,3.784,4.527,6.539,12.341,8.429,2.8-3.771,2.75-4.51.252,1.963,3.969-3.71,5.85,5.512,6.294,3.6-3.113,2.215.923,2.965,8.145,2.27-.1.812,4.473,8.3-3.519,2.431,11.646,4.128,5.838-1.858,6.994-2.178,1.095-2.258,4.048-6.921.879L590,260.635l-.584,6.755,9.566-.91,9.652,7.185.2,4.805,3.4,3.469-.418,7.26-.2.719,4.682.819,1.347-2.006,2.861,6.275,3.359-2.473,2.067-6.188,5.918-9.936,2.147-8.914,4.239-5.672,1.981,1.6,9.087,12.292-2.818,5.47,6.693,7.653,1.009,7.592,4.073,4.134-.283,2.042-8.545,10.287,10.637,5.444,2.116-4.928,6.269,2.584,4.318,8.195,11.376,9.671,16.069,2.1,4.084,5.673-.209,4.146,8.908,3.605,11.843,1.754,6.964-6.657,2.436-.025,3.759,2.584-2.983,3.691,6.324-2.245,2.627-10.92,3.82-1.224,5.888,1.931,9.966,6.571,4.909-5.537,1.938-9.843,4.54-1.717,7.241,2.166-.049-3.458-3.864-2.006.468-2.141-5.956-3.968-.258-2.486,6.244-10.667-3.919-6.6-3.242,2.737-6.262-.11-8.4,3.112-7.819-9.351,1.021-12.292.677-21.894-3.353-2.246v-4.072l-10.667,1.131-3.716-2.178-8.028-4.146-3.649-5.875-7.782-3.783-6.011,6.14.9,4.232.645,2.105-3.475,2.571.885,4.313-4.355-1.44-8.2-7.511-9.622,3.113-9.4-16.537.381-4.06-4.534-4.83,4.977-6.514,3.864-9.6-6.823-5.7,2.99-3.15.375-6.281,7.5-4.515,1.963-6.62-2.818-3.1,2.547-3.482,5.531-1.157.707-1.815,4.442,2.043,12.488-7.389-.849-5.777-.565-17.12,4.33-8.546-2.362-6.238,4.294.64,4.024-4.94,18.812,9.382-3.586,2.787-2.2-.972L726.39,145.4l-3.432,6.367.843,4.541-4.744,5.253,4.448,3.581,7.826-3.943,2.731-6.054,8.9,2.737,5.739,4.2,4.707-.406,2.331-.289,4.67,5.167,3.352,11.412,6.811,1.058.535,6.644,3.943,2.824,7.573.492.369-7.3-3.186-3.138.535-4.829-3.051-6.792,2.079-6.921,8.287-3.642,11.762,9.178,6.491-3.149,6.022.781,3.181-3.415,13.1-5.346,1.969,7.148,1.888,7.832,5.574,8.846,7.481,5.586,6.281-3.217-.775-9.468,5.789,4.977,3.654,6.73,4.743,1.563.923,9.443,4.6,1.009,16.715-8.5,4.663,10.3,1.249,3.04,7.419-2.271,2.64-8.305.941-2.823,8.81-16.008,1.119.842,7.309-8.7-8.527-8.422,1.458-6.933,2.529-7.051-1.969-7.1,17.589-1.84,4.491.29,2.411-3.2-3.919-3.451-4.25-.542-.849-9.517-6.78-2.233,1.231-4.6,1.39-5.986,2.073-4.337-2.239-3.427.381-4.06-2.891-4.879-3.636-2.38-7.087-9.887-9.093,3.163-2.294-.13-1.76-4.047,2.67-8.521-1.968-2.695.83-4.589-2.516-8.9-13.3-2.178-3.5,3.027-4.977.061-6.564-3.125-3.575,2.9-2.233-.154-7.56-10.945-14.882,9.265-2.929-6.669-9.517,2.6L824.159,46.7,822.1,45.3,819.9,46.959l-2.406.025-2.676-4L800.923,45.9l-2,6.909-3.728,4.83L791.578,55.2l-.234,4.135-2.264,4.4-15.971,5.949-6.441-3.568-2.485-4.047L745.647,57.45l-6.085,3.58-2.805-3.617L720.2,68.541l-6.275,2.129-5.605-10.563,5.875-3.027,9.136-10.716L718.264,39.2l-4.091-2.018-6.6,6.275L705.8,42.009,683.628,56.718l.172.554-2.854,4.1-6.62,3.642L660.041,75.538l-2.307.264Z" transform="translate(-14.373 -36.071)" fill="#ff8080" stroke="#000"/><path d="M605.954,566.132l-3.458-8.207-8.766-8.7-9.579,2.38-10.926-5.77-5.254-5.26-3.285-11.886,4.749-5.635-3.217-6.417.6-7.235-1.243-5.333-3.753-1.931-6.453-12.932-7.161-1.132-9.074,2.848-14.673,9.481-12.544-1.513-15.072,1.74-9.554-3.291-7.6-.179-1.655-4.54-4.891-1.157-7.277,6.6-12.4-.43-11.658-4.768L427.5,482.588l-5.107-8.81-1.784-1.827-2.239-1.224L388.259,466.7l-6.361-3.986.48-4.9-7.223-1.612-7.856-6.078-14.033,9.419-2.743-3.987-.579-7.462L335.333,438.7l-.824,2.3-4.5.166-15-12.316L305.4,426.4l-8.736,8.914-7.37-.892-5.525-8.33-18.979-11.3,5.838-16.542,8.355-11.031,5.819-6.49-26.127,4.159-6.325,3.58-6.773,10.539,1.919,9.794-1.427,17.613L241.8,443.6l-2.172,1.3-4.872-1.322-38.61-10.853-8.533-12.377-8.023-12.8-.449-4.99,4.116-6.225,19.508-15.319.185-2.509,5.586-4.4,2.713-9.338-1.526-6.792,3.255-3.618,2.417-.516,1.5-17.109,7.881-5.863.658-24.534,2.6-4.233.08-4.977-2.245-12.193-11.5-12.975L210,269.651l10.182-6.718,4.079-5.759,9.209-3.039,2.6-4.159,4.349-1.993,13.608,3.175,3.716-3.15-3.525-9.2-9.585-.745-2.129-4.484-6.293-3.329-.468-4.928,6.4-6.281-5.654-21.532-10.532-13.768L222.53,179l-.769-4.6,6.367-6.719-5.2-7.831,4-1.9,6.134-8.36,16.795,4.1,9.911.154,14.709-2.473,7.826-6.054,7.819,4.744,4.521-.567,1.846,1.741-6.5,2.762-5.254,5.168L280.844,170.6l-5,11.031,6.4,3.242.837,7.247,4.091,6,2.393,7.665-.474,21.594,6.828-.708,2.947-3.494,1.427-6.534,3.815-2.128,6.035-2.055,6.207,1.662,3-3.9,6.964-1.864,10.637-10.2-7.973-12.015-3.623-6.466-.3-11.812-11-15.546,7.235-6.527,8.92,2.621,11.5,2.75,14.6,2.091L380.137,147l1.618,1.476,4.331-7.185,1.889,1.108.523,3.278-.849,4.725-4.473,1.667L381.62,156.6l-4.073,2.522,4.534,8.108,2.258,1,13.147,1.956,1.138,4.264,11.406-9.831,6.786-2.5,6.447-3.316,5.887-4.768-.978-1.888,3.716-7.413,2.233.959,4.233-2.393,9.553,1.335,10.607,4.565,5.278-.2,2.817,3.23,6.331.806,4.805,4.06,2.023-.529,9.776-1.3,3.3-6.262,8.447-4.184-2.049-6.545,2.584-3.968,1.3-3.113,4.823,8.545,5.451,4.7-1.624,11.676,1.827,4.527,4.091,4.9,8.244,5.02,7.216-.566,5.229,4.866,7.278.264,11.037,4.805,3.777,4.528,6.546,12.34,8.428,2.8-3.771,2.762-4.509.24,1.956,3.968-3.7,5.851,5.506,6.293,3.605-3.113,2.221.923,2.965,8.146,2.27-.1.813,4.473,8.3-3.519,2.423,11.645,4.135,5.838-1.864,7-2.178,1.095-2.258,4.048-6.921.879,5.451,4.565-.579,6.755,9.561-.911,9.658,7.186.2,4.805,3.4,3.469-.424,7.26-.191.719,4.682.819,1.347-2.006,2.854,6.275,3.359-2.473,2.067-6.189,5.925-9.935,2.147-8.9,4.232-5.684,1.988,1.6L649.2,275.67l-2.818,5.47,6.694,7.653,1.009,7.591,4.072,4.135-.289,2.042-8.539,10.286,10.637,5.445,2.116-4.928,6.263,2.584,4.325,8.195,11.375,9.671,16.063,2.1,4.085,5.672-.209,4.146,8.914,3.606,11.836,1.753,6.971-6.656,2.436-.025L737.9,347l-2.984,3.691,6.325-2.245,2.627-10.92,3.82-1.224,5.887,1.931,9.966,6.57,2.781,4.491,11.732,11.849-.843,6.933,5.426,10.373-5.285,4.527,5.562,4.3,6.379,1.649-1.759,6.533,4.165,2.178-.443,5.008,4.066,2.9,1.169,4.78-5.807,13.516-.185,2.51.437,2.461,1.55,1.981,8.293,5.66,9.154-2.319,2.824,4.036,1.876,11.725-4.079,8.5-12,3.187-2.406,9.59,1.385,22.178,3.026,3.809,2.387,9.6-2.959,8.675-6.718-.554-7.967,8.853-7.253,1.212L779.4,534.6l4.35,5.912.067,7.309,4.485,11.307-3.205,13.984-6.718,10.347-4.731-1.661-7.259,1.428-8.25,12.685-12.5,12-11.467-4.374-16.02,6.982-27.961-15.5-3.334-6.607-4.509,1.981-7.438,9.856-1.446,11.929-9.129,2.8-4.879,8.2-7.333-1.237-1.323-7.05,2.442-4.325-.3-4.866-3.9-2.67-9.412,2.713-4.522-2.017-1.089-16.869-10.089-6.811-7.592-9.695Z" transform="translate(-14.373 -36.071)" fill="#adc1fd" stroke="#000"/><path d="M182.6,94.7l1.113-11.99L175.3,78.358l-11.4,8.834-12.255-1.981-13.049,25.5,7.518,6.607-.074,17.558,7.253,1.889,2.461,4.024,11.382,1.119,5.573-3.857,5.34,4.854-.092,7.425,7.167,2.117,3.008,8.852,17.06,3.377,4.534-1.827,4.312-5.758,8.921,2.775,4-1.889,6.133-8.373,16.8,4.1,9.911.154,14.71-2.473,7.825-6.054,7.819,4.743,4.522-.553,1.845,1.728-6.5,2.763-5.253,5.167-3.889,11.437-5,11.03,6.4,3.255.837,7.235,4.091,6L289.6,205.8l-.474,21.594,6.828-.708,2.947-3.494,1.428-6.528,3.814-2.141,6.035-2.054,6.207,1.661,3-3.9,6.964-1.864,10.637-10.2-7.973-12-3.623-6.478-.3-11.812-11-15.534,7.235-6.534,8.921,2.621,11.5,2.75,14.6,2.092,23.821-6.239,1.618,1.477,4.331-7.2L388,142.418l.523,3.292-.849,4.712-4.473,1.667-1.556,4.528-4.073,2.522,4.534,8.109,2.258,1.008,13.147,1.945,1.138,4.263,11.406-9.818-3.445-6.559-2.018-15-9.824-6.595-2-7.062,3.679-11.874-3.525-7.161-2.959-9.868-2.7-8.083-3.623-2.406-4.46,8.016L369.908,96.3l-4.707,7.856-8.705,2.682-2.436.216-1.612,7.031-2.307.769-4.516-5.493-6.232,3.556-2.085-1.274-.092-2.947-1.046-5.863,3.617-2.233,14.31-.923,3.414-3.1-1.575-4.491L345.5,85.487l-2.885-6.73-7.672-5.333-11.2-.025-4.325,4.208-7.174,6.957-17.219,9.924-4.879,2.657L273.653,107.8l-16.235-4.737-6.214,1.452-.332-.154-18.161,5.863-23.3-1.588-1.8.215-5.882-11.067-14.5-4.109Z" transform="translate(-14.373 -36.071)" fill="#f90" stroke="#000"/><path d="M123.827,132.692l-16.444,26.134-3.8.382-2.313,2.885L89.161,173.807l-14.094,4.251,4.853,6.091-3.881,3.026-7.051-2.737.437-2.418-2.313-.781L42.363,191.55l-9.641-2.043-5,5.734-9.093,4.221,3.759,4.952-7.308,9.874,7.856,5.562,4.725-.923.529-.11,4.171,2.461.892,4.952,6.515,3.458-.456,9.923,4.522,11.646,9.573-1.754,5.02-5.562,4.343-2.116,4.374,2.153,8.92-3.617,7.2,1.07,5.832,4.275,4.638-1.476.148-.012,6.355,3.716-3.31,14.684,4.577,14.586,4.805,5.875,2.326,1.046,17.576.492,7.3-16.124-1.157-9.591,16.974-3.6,12.249.1,6.232,7.831,4.939.419,8.127,5.8,11.959,3.506,9.155,1.336,8.034-4.651,10.182-6.718,4.079-5.759,9.21-3.039,2.6-4.146,4.349-2.006,13.608,3.174,3.716-3.149-3.525-9.2-9.585-.744-2.129-4.473-6.293-3.328-.468-4.94,6.4-6.281-5.653-21.532-10.532-13.769-3.427-4.737-.769-4.6,6.367-6.7-5.2-7.844-8.921-2.775-4.312,5.758-4.534,1.828-17.06-3.378-3.008-8.852-7.167-2.116.092-7.426-5.34-4.854-5.573,3.857-11.382-1.119-2.461-4.024-7.253-1.889.074-17.558-7.518-6.607-10.452,8.57-.154,4.817Z" transform="translate(-14.373 -36.071)" fill="#f90" stroke="#000"/><text transform="translate(472.467 328.744)" font-size="67.329" font-family="DejaVuSansCondensed-Bold, DejaVu Sans" font-weight="700">4</text><text transform="translate(84.59 193.55)" font-size="67.329" font-family="DejaVuSansCondensed-Bold, DejaVu Sans" font-weight="700">6</text><text transform="translate(175.631 117.365)" font-size="51.11" font-family="DejaVuSansCondensed-Bold, DejaVu Sans" font-weight="700">5</text><text transform="translate(535.522 114.322)" font-size="67.329" font-family="DejaVuSansCondensed-Bold, DejaVu Sans" font-weight="700">3</text><text transform="translate(698.188 164.876)" font-size="42.269" font-family="DejaVuSansCondensed-Bold, DejaVu Sans" font-weight="700">1</text><text transform="translate(773.76 193.55)" font-size="67.329" font-family="DejaVuSansCondensed-Bold, DejaVu Sans" font-weight="700">2</text></svg>