<svg xmlns="http://www.w3.org/2000/svg" width="693.692" height="856.474" viewBox="0 0 693.692 856.474"><title>2T Législatives 2017 Gironde</title><path d="M307.351,470.329l-4.6-11.784,3.158-6.72,3.758-3.161-2.83-3.066,1.307-3.979-1.716-6.028,7.841-1.579,3.429-4.474,9.949-.8,1.9.562,12.457-5.007,5.288,16.864-2.547,12.205-3.882,5.615-17.183,4.224-9,10.917Z" transform="translate(-28.129 -13.047)" fill="#ffeb00" stroke="#000"/><path d="M314.743,481.884l-1.516-1.506,1.454-6.255,9-10.917,17.181-4.224,3.882-5.615,1.995.643-.45,4.17.1,8.027-2,3.51-1.918,3.726-4.919,4.192-4.509-.2-2.365,11.581-1.109-3.88-4.559-4.132-6.97,3.318Z" transform="translate(-28.129 -13.047)" fill="#ffeb00" stroke="#000"/><path d="M318.038,484.325,315,486.816l1.909,3.475.177,9.572,5.818,3.707,2.139,7.256-1.406,7.551,2.145,5.84,5.993,5.534,3.943,1.3-1.541-6.147,10.9-6.01,2.615-3.272,10.281-1.148-.2-2.686-5.081-10.764-1.506-9.166-2.507-6.168-2.3-3.986.536-3.818-4.434-4.443-4.919,4.192-4.509-.2-2.366,11.581-1.108-3.88-4.56-4.132Z" transform="translate(-28.129 -13.047)" fill="#cc2443" stroke="#000"/><path d="M382.86,400.765l-6.371-10.655-1.426-5.983-.765-8.81-3.818-5.059-3.39-1.183-1.69.93-13.181-8.851-13.238-10.143L332.94,349.3l-3.787,1.375-5.844-2.362-2.707-1.421-2.015,3.855,2.681,5.994,3.659,5.27,11.786,9.363,1.173,3.968,6.458,6.206.951,6.428-.17,10.163-3.576,11.709-.321,9.538.92,4.217,5.358,17.1-2.583,12.364,2.025.657-.459,4.226.108,8.133-2.036,3.555-1.948,3.772,4.5,4.511-.538,3.865,2.331,4.046,2.542,6.246,3.074,2.16,9.368-1.684L374.272,480.2l9.523-.243,2.4-5.694-.4-8.691-4.888-9.678,4.485-1.142,10.892-3.823,6.118.1-1.214,5.72,10.37-.563,12.758,7.43,12.809-11.151-8.262-12.06-.884-5.642-3.865-1.834-1.581-6.025-6.138-1.163-6.712-5.006,1.136-4.129,3.39-6.9-3.157-3-3.726-2.269-4.4-.062-13.274,7.792-3.617-2.278-1.53-4.181Z" transform="translate(-28.129 -13.047)" fill="#ff8080" stroke="#000"/><path d="M295.459,427.851l.031-4.3-7.317-3.984,0-4.247-8.071-.362-3.622,1.834-12.52-17.831-12.69-6.4-13.553,12.8-4.072.594L231.992,422.3l-14.5-3.834-5.581,18.6-8.934,6.077-8.536-.171,1.318,17.32-1.638,4.806L175.6,470.727l-13.594,6.278-21.495.424-14.871-11.507-4.372,15.63-14.917-3.208L80.317,480.9l-11.1,6.743-28.083,2.723,8.107-69.321L58.109,329.4l3.172-37.42,7.725-75.76L71.2,194.366l2.444-43.858-.583-21.971-.083-9.517L77.1,95.4,75,80.266l.667-8.535,7.575-18.023,8.81-9.595,7.43-11.053L103.6,20.215l9.166-3.514,4.088-2.594-2.026,9.487,4.4,6.118,5.1,1.989,2.331,7-1.582,2.464-3.648-4.3-4.712.516,4.387,5.973-2.449-1.6-5.488.64.279,8.092,9.058,9.114,8.727,4.966,4.832,6.355,16.622,14.964L173.118,97.71l12.644,19.728,11,6.107L203,129.188l9.26,8.515,8.944,8.609,5.6,8.386,3.049,2.847,9.125,21.433,6.743,16.1,8.892,35.6,3.953-1.384,10.872,27.731,5.606,10.929,3.157,13.667,2.579,21.665.429,4.852,1.193,8.195,3.276,6.428,4.227,4.914,3.3,4.015,2.635,3.379,4.733,6.882,1.736,2.465.615,1.886,10.923,12.664,1.943.755,5.467-3.028,3.658,5.27,11.786,9.363,1.173,3.979,6.459,6.206.951,6.417-.171,10.174L341.534,409.8l-.32,9.538.92,4.206-12.629,5.074-1.932-.573-10.076.806-3.483,4.542L306.073,435l1.741,6.108-1.333,4.036,2.878,3.11-3.808,3.2-3.2,6.81-5.653-1.2-6.753,2.8,2.139-8.065-3.488-4.712.171-10.4,11.915.321Z" transform="translate(-28.129 -13.047)" fill="#ffeb00" stroke="#000"/><path d="M307.219,486.616l-10.825.765-3.885,1.979-8.335-1.184L273.117,495.1l-10.738-.2-3.921,10.195.873,6.541-9.818,11.9-15.754,6.831-18.741,4.614-19.449-14.359-10.014-28.714,8.542-26.843,1.638-4.805-1.318-17.32,8.536.181,8.934-6.087,5.58-18.6,14.5,3.834,1.659-16.338,4.072-.594,13.553-12.788,12.69,6.386,12.52,17.832,3.622-1.829,8.071.361,0,4.237,7.317,4-.031,4.288,5.2,9.182-11.916-.32-.17,10.4,3.482,4.723-2.134,8.065,6.754-2.8,5.652,1.2,4.661,11.941,7.43,3.844-1.472,6.35,1.545,1.525Z" transform="translate(-28.129 -13.047)" fill="#ffeb00" stroke="#000"/><path d="M249.513,523.524l-15.754,6.831-18.741,4.625L221,544.126l8.376,7.032,14.468,10.861,18.214,12.634,3.611-5.286,28.6-1.493-1.669-3.938-5.115-3.028,9.889-16.178,5.033-3.854,1.054-1.845-4.139-.909,3-3.039,1.892.414.552-3.855,7.059-4.34,3.968-4.976,7.673-3.379,1.421-7.647-2.165-7.358-5.9-3.767-.175-9.7-1.938-3.524,3.085-2.521-3.338-2.48-7.255,4.671-10.825.764-3.886,1.979-8.334-1.183-11.063,6.924-10.732-.2L258.431,505.1l.874,6.542Z" transform="translate(-28.129 -13.047)" fill="#ffeb00" stroke="#000"/><path d="M194.143,465.028l-18.576,5.653L162,476.979l-21.47.486-14.855-11.626L121.313,481.5,106.3,478.271l-26,2.584-11.141,6.779-28.1,2.744L28.951,584.517l-.32,15.341L30.894,606l2.1.806,2.9-2.744,1.292-8.722L35.9,591.3l2.9-19.537.32-2.1,3.715-10.494,4.361-7.59L65.6,529.942l1.447-4.036-1.612-6.3,6.945-8.237,5.007,6.619,9.688,7.911,5.327-3.079-2.583,3.229,1.937,3.726,7.591,3.555,9.688,10.654,18.245,17.439H115.335l5.652,6.138,11.786,4.2,2.9,5.653-.485,2.1,5.487,6.138.646,4.036-5.968.315.971,3.875-10.819-5.963-1.452,1.442-17.6,4.681L94.03,591.771l-2.743,2.9-.646-4.035-2.1-.321H82.405l-4.847,3.555-1.612-1.131v-2.1l5.167-3.23-2.429-5.482-8.4-1.612-8.552.646-3.389,2.583L53.665,595.5l-.32,15.341L49.79,621.012l-8.4,17.764L29.282,653.792,33.317,677.2l-1.291,23.9,23.737-7.43,40.691-14.209,9.528-18.245,24.223,14.53,8.4-1.142,30.511-24.859,15.016-9.363,13.889-16.793,4.2.486,13.723-10.98,8.557,1.612,3.385-10.174-5.167-6.619,1.136-6.3-3.389-2.583L221.59,585l2.9-5.813,19.377-17.113-14.53-10.98-8.4-6.945-5.973-9.2L195.6,520.574l-10.014-28.739ZM131.977,581.6l-.806.5-1.452,5.167.646,1.777,2.429-1.937,2.9,1.131,1.452-1.131Z" transform="translate(-28.129 -13.047)" fill="#ffeb00" stroke="#000"/><path d="M506.787,696.218l-8.97-4.18-1.1-3.813-10.881,6.035-4.041-1.059-3.436-11.734,2.857-8.9,6,1.555,2.93-7.389,4.811,1.654-.372-10.335,6.2,3,1.478.677,10.184,1.184,3.421-2.042,7.8,2.625,6.79-5.673.144-.362.59-1.865-2.305-3.137,1.871-9.476-7.591-2.915-1.9-3.591-4.935,3.994-4.1.941-6.314-2.2-2.294.051-11.946,1.209-4.883,1.654-8.515,2.795-3.2.977-3.033-1.364-.594-.516L461.958,633.3,458.2,629.29,453.35,625.1l-2.3-6.035-.7-1-.486-8.345-4.661-7.234-2.939-2.7L438.5,596.8l-1.943-3.41-3.043-6.015-7.642-3.767-4.465-4.49-1.71-8.143-1.132-3.24-.382-.656-3.266-1.979-7.626,1.25-2.517-1.968.6-1.633,3.591-4.723-3.8-4-3.726-.869-9.306,2.925-1.3-.951-.522-.775-4.562-10.205-4.232-2.914-11.244-5.844L362.383,533,358,529.384l.17-11.828.124-2.563-10.427,1.173-2.656,3.323-11.052,6.087,1.565,6.236-3.988-1.323-6.077-5.6-2.175-5.921-7.679,3.379-3.968,4.976-7.053,4.341-.558,3.854-1.891-.413-3,3.038,4.139.909L302.42,540.9l-5.033,3.855-9.89,16.178,5.115,3.027,1.669,3.938-28.6,1.493-3.612,5.286L243.861,562.04l-19.309,17.165-2.883,5.8-1.2,4.088,3.441,2.562-1.224,6.289,5.275,6.588-3.363,10.143-8.64-1.576-13.636,11.011-4.361-.543-13.786,16.912L169.208,649.7l-30.626,25.009,8.655-.9,1.959,3.813,2.609,12.835-5.017,14.349-6.712,15.352-9.41,8.5,25.361-3.984,9.946-3.938,13.006-4.785,4.537,4.48,28.15,10.717,14.953-1.1,7.095-4.671,6.272-.052.894-6.309,1.829-1.069,20.694-4.583,12.386,2.965,5.761-.315,2.589-3.069-1.339-1.565,2.63-3.349,2.135-.108,14.224,4.629,5.054,3.695.325,8.355.662,12.928-6.878,4.925,16.85,5.709,14.334,5.348,4.6,4.671,14.013,6.128,4.6,15.692,16.788,8.609,20.891,1.545L394,803.068,406,811.878l8.293.537-5.678,29.964,2.94,17.145,7.337,1.493,27.38,2.454L462.506,869l4.144-1.059,17.9-6.216-2.067-29.783.951-6.32,8.582.352,5.183-3.793,1.963.909,6.082,6.186,4.18,9.993,11.492,9.879,6.49-4.872,1.2-3.845,2.419,3.1,5.647,2.269,7.183-4.036,6.753-7.91,2.77,2.9,5.911-11.729,8.68-5.059L563.889,808.2l3.555-2.16L557.6,792.315l-9.027-8.324-3.5-3.049,3.043-9.879,4.082.341,4.511-4.2,10.132-.538,3.235.4,5.8-6.045,4.009-1.323,9.311,3.411,2.883-5.431-4.629-3.695,3.431-4.836-5.245-4.924-8.086-14.138,2.976-2.48-1.121-5.8,2.03-5.39,3.4-1.5-5.7-2.512-6.2.93-4.629,6.852-3.783,1.4-1.007,6.128-4.17.465-2.749-3.1-5.828-2.361,1.126-2.2,3.757-.869,2.046-9.435-6.563,4.108-3.42-2.077-3.033-9.8-7.6,3.292-.754.594-6.056.636-17.842-4.723.2-6.356Z" transform="translate(-28.129 -13.047)" fill="#f90" stroke="#000"/><path d="M440.153,493.468l-2-3.261-5.151-16.126-9.265.9-.336-3.612.863-7.75,12.809-11.151-8.262-12.06-.884-5.652-3.865-1.83-1.581-6.025-6.138-1.162-6.712-5.007,1.136-4.128,3.39-6.9-3.157-3-3.726-2.268-4.4-.062-13.274,7.781-3.617-2.268-1.53-4.18-1.612-4.945,18.756-10.417,2.956-3.292,5.5-14.6,13.708,1.695,1.85-2.8,1.514-7.467-3.415-7.074,4.955-13.491,5.451,1.261,8.128-3.7,1.245,1.344,12.4,20.818,2,1.5,6.324,7.58,5.452-2.434,4.02.785-1.494,8.469,2.558,5.7-3.379,2.475,4.345,2.915,5.694-.879,4.021,2.966,10.262-.775,9.863,3.591,1.328-1.183,19.527-18.416,3.121,2.454,3.586-4.417,3.565-1.251,6.609,2.16.888-1.829,1.927.625,5.049-3.059L560,374.433l2.971-2.351.666-3.736,9.017-1.323,2.408,5.317,3.575,1.271,1.793-3.42,1.788.775,3.638,6.49,5.363-8.3-.832-5.994,9.461-6.417-1.539,6.195,1.963,12.918-4.108,9.838-2.1.537-3.627-2.361-1.762,1.142.356,4.18-2.325,5.772-1.8,10.262,5.746,11.305,1.684,1.685,5.208,6.417L590.2,437.146l-.538.295-1.545,5.642-3.43,1.907-1.551,3.632.057.129-2.645,4.63-2.3,5.451-9.89,2.8-.728,1.958,18.927,3.834,5.87-2.16L599.8,472.6l.119,6.144,3.741,2,1.333.052,4.165-.817,4.64,4.036,2.108-.2,3.059-7.156,5.751-1.121,4.232-.042,1.7,7.922,2.083.4.341-.264,4.149-5.038,10.794-.677,14.659,2.574.821.9,3.855,1.653,7.42-12.737,5.425-1.917,8.639-7.7.884-1.643-2.077-7.7,7.647,2.765,8.314-.042,5.56,2.723,11.863,11.032-6.2,4.258-.083,5.771-4.056-.687-4.2,3.984-8.008-1.586.986,8.556,3.679,10.464-.139,7.456,2.718,5.709,7.513,7.487-.331,1.938-10.929,3.7-7.916,1.725-3.761-1.565-4.015-6.976-4.108.021-.718,1.938L678.54,522.9l-2.832,10.3,2.966,8-7.5,2.594-3.188-12.453-2.16-3.7-2.118-.294-1.808,2.18L657,524.734l-6.841,1.809-3.441-1.411-3.261-1.9-4-6.237-.077-7.823-3.152-1.565-3.555-6.531-3.906,4.583-5.932-1.968-1.922.8-.889,4.046-8.035.2-.945,5.6-7.673-2.31-4.62-3.746-5.58,1.9L581.983,507l-10.541-4.584-4.413-1.767-1.136,3.938-7.978-1.613-3.767,1.737-1.623-5.5-8.324-6.428-2.17-.223L534.8,508.82l-.884.222,1.189,3.814-2.31,5.57-1.917.666-4.268-4.34-4.025-.2-1.37,2.491-3.833-.444-5.86-4.439-2.01-3.25-6.159,4.722-3.839.677-4.118-1.049-3.514-5.529-3.968-1.172-.248.093-2.8-1.664-8.449,4.118-4.552-3,2.1-2.33-2.134-1.747L465.91,508.1l-3.555,2.139-4.227-.222-.594-3.906-11.709-2.987-1.612-3.441,1.246-3.545Z" transform="translate(-28.129 -13.047)" fill="#ffeb00" stroke="#000"/><path d="M280.769,303.3l-2.579-21.665-3.157-13.667-5.606-10.929-10.872-27.731,21.009-4.573-3.844-30.2L268.812,169.8l.656-2.057,2.15.109,25.334,3.121,3.746,4.64,3.7-2.119,11.4-3.472,5.777,1.788.206-6.531,3.757-7.095,7.244,7.146-2.155,13,2.718,8.293,5.369.475,2.956,2.212,6.076.475,9.42,3.746,12.039-4.49,5.715-.042,6.743,3.3,10.624,4.852,6.521,4.382,1.105,3.844-1.322,3.782-2.155,7.963,6.2.372,1.736,3.674L401.2,232.938l-2.63,7.994.76,4.056,6.526,8.841,1.369,6.427,7.058,22.446,2.186-8.417,6.913-8.407,10.577,2.594,6.754,5.642,4.221,12.143,2.672-7.436,14.137,5.095.538,4.268,1.974.858,5.508,11.543,5.011,3.984,10.733.284,5.058,4.682,8.03,3.41,12.969,1.4,3.793,2.02,4.278-.687,14.282-15.573,4.738-3.07,5.56-.8,9.642,13,3.751,1.069L559.079,309l3.348,2.056,2.589-2.867,6.634-7.679,10.035-2.888,4.046.976,10.918.414,6.133,2.268,7.068,10.97,1.323,8.681,2.511,3.591.755.878.418,2.837-7.637,17.449-4.877,3.994-1.814,8.4-.682-1.354-9.461,6.407.832,5.994-5.364,8.314-3.637-6.5-1.788-.776-1.793,3.421-3.576-1.271-2.408-5.317-9.016,1.333-.667,3.726L560,374.412l-8.836-4.418-5.048,3.059-1.927-.625-.889,1.829-6.609-2.16-3.565,1.251-3.586,4.417-3.121-2.454-19.526,18.416-1.328,1.183-9.864-3.591-10.262.775-4.02-2.966-5.694.879-4.346-2.9,3.38-2.481-2.558-5.7,1.493-8.469-4.014-.785-5.457,2.434-6.324-7.57-2-1.5L443.5,342.2l-1.246-1.344-8.128,3.705-5.451-1.261-4.955,13.5,3.416,7.074-1.515,7.456-1.849,2.8-13.709-1.685-5.5,14.592-2.955,3.3-18.757,10.406-6.371-10.649-1.426-5.984-.765-8.82-3.818-5.058-3.39-1.173-1.689.919L352.2,361.122l-13.238-10.133-6.04-1.715-3.788,1.364-5.849-2.351-2.7-1.421-2.016,3.844,2.682,5.994-5.467,3.028-1.942-.754-10.924-12.665-.615-1.886-1.736-2.464-4.733-6.883L293.2,331.7l-3.307-4.015-4.222-4.914-3.281-6.428-1.188-8.195Z" transform="translate(-28.129 -13.047)" fill="#ffeb00" stroke="#000"/><path d="M551.064,714.324l-3.421-2.077-3.033-9.8-7.6,3.292-.755.594-6.056.635-17.842-4.722.2-6.356-5.767.341-8.97-4.19-1.1-3.813-10.881,6.035-4.041-1.059-3.436-11.735,2.857-8.9,6,1.566,2.93-7.389,4.811,1.653-.372-10.334,6.2,3,1.478.667,10.184,1.183,3.421-2.041,7.8,2.635,6.79-5.673.149-.362.584-1.875-2.3-3.126,1.87-9.477-7.59-2.914-1.9-3.591-4.934,3.994-4.1.93-6.314-2.191-2.294.041-11.946,1.209-4.883,1.664-8.51,2.8-3.2.971-3.033-1.354-.594-.516-9.492-10.717-3.756-4-4.852-4.191-2.3-6.035-.7-1-.481-8.345-4.666-7.234-2.94-2.7-3.767-3-1.942-3.411-3.044-6.014-7.642-3.756-4.464-4.491-1.71-8.153-1.132-3.24-.382-.657-3.266-1.979-7.627,1.251-2.516-1.959.6-1.643,3.591-4.722-3.8-3.995-3.726-.878-9.306,2.925-1.3-.941-.522-.785-4.563-10.195-4.231-2.924L370.263,535.4l-7.88-2.393-4.387-3.6.171-11.828.124-2.562-.207-2.713-5.151-10.918-1.525-9.285,3.08,2.16,9.363-1.685,10.386-12.354,9.528-.243,2.392-5.684-.4-8.7-4.888-9.678,4.485-1.132,10.9-3.834,6.112.109-1.214,5.72,10.375-.563,12.753,7.43-.863,7.75.336,3.612,9.265-.9,5.151,16.116,2,3.26,5.322,2.692-1.24,3.555,1.612,3.431,11.709,3,.594,3.907,4.227.211,3.555-2.128,5.921-6.067L474,503.818l-2.1,2.34,4.552,2.987,8.449-4.108,2.8,1.664.253-.093,3.964,1.173,3.513,5.529,4.118,1.049,3.84-.677,6.159-4.733,2.01,3.25,5.859,4.449,3.834.444,1.374-2.49,4.02.2,4.268,4.361,1.917-.666,2.315-5.581-1.194-3.8.884-.222,7.234-16.256,2.17.212,8.33,6.438,1.617,5.5,3.767-1.747,7.978,1.623,1.131-3.937,4.413,1.767,10.536,4.572,11.192,3.189,5.58-1.907L603.4,512.1l7.673,2.31.946-5.611,8.035-.192.888-4.045,1.923-.8,5.931,1.968,3.907-4.583,3.555,6.531,3.151,1.556.078,7.833,4,6.236,3.261,1.886,3.441,1.421,6.841-1.808,4.9,4.795-3.394,6.743-1.685-.961-3.3,1.643-3.839,1.643L644.7,534.53l-2.263,16.256-2.273,3.483-2.9-3.059-4.02-.75-3.7,1.969-.723,4.159-2.057.527,2.94,9.606,3.736,1.948,8.288-.093-1.442,5.4,1.07,3.524,3.741,1.374L654.334,576l1.979,1.25,4.014.987,2.625,3.338-2.532,4.341-3.787,5.063-1.374,8.185-6.382-.5-4.17-4.723-1.57,3.24.723,5.5,6.629,7.549-1.545,3.865-7.786,1.534L634.265,623l-.347.2-2.79,2.351-12.318,3.8,1.447,3.876-1.131,5.962-6.273,12.164L599.258,647.7l-2.3,2.2-5.059,5.632-9.662-6.355,7.973,13.279-3.369,5.1-2.041-.062-2.113,1.747-6.836,8.882-.207,9.3,1.907,18.368,3.916-.542,3.958,4.2-.625,5.482-5.7-2.511-6.2.93-4.629,6.851-3.788,1.4-1,6.128-4.175.466-2.744-3.1-5.833-2.361,1.131-2.2,3.751-.878,2.047-9.425Z" transform="translate(-28.129 -13.047)" fill="#ffeb00" stroke="#000"/><text transform="translate(285.098 445.706)" font-size="28.162" font-family="DejaVuSansCondensed-Bold, DejaVu Sans" font-weight="700">1</text><text transform="translate(296.893 461.748)" font-size="14.607" font-family="DejaVuSansCondensed-Bold, DejaVu Sans" font-weight="700">2</text><text transform="translate(300.933 498.969)" font-size="23.469" font-family="DejaVuSansCondensed-Bold, DejaVu Sans" font-weight="700">3</text><text transform="translate(325.921 424.348)" font-size="44.668" font-family="DejaVuSansCondensed-Bold, DejaVu Sans" font-weight="700">4</text><text transform="translate(121.025 318.721)" font-size="56.55" font-family="DejaVuSansCondensed-Bold, DejaVu Sans" font-weight="700">5</text><text transform="translate(190.592 475.973)" font-size="56.55" font-family="DejaVuSansCondensed-Bold, DejaVu Sans" font-weight="700">6</text><text transform="translate(234.466 534.871)" font-size="44.841" font-family="DejaVuSansCondensed-Bold, DejaVu Sans" font-weight="700">7</text><text transform="translate(133.144 576.517)" font-size="56.55" font-family="DejaVuSansCondensed-Bold, DejaVu Sans" font-weight="700">8</text><text transform="translate(285.289 653.98)" font-size="56.55" font-family="DejaVuSansCondensed-Bold, DejaVu Sans" font-weight="700">9</text><text transform="translate(431.602 576.517)" font-size="56.55" font-family="DejaVuSansCondensed-Bold, DejaVu Sans" font-weight="700">12</text><text transform="translate(431.602 466.498)" font-size="56.55" font-family="DejaVuSansCondensed-Bold, DejaVu Sans" font-weight="700">10</text><text transform="translate(267.112 232.55)" font-size="56.55" font-family="DejaVuSansCondensed-Bold, DejaVu Sans" font-weight="700">11</text></svg>