<svg xmlns="http://www.w3.org/2000/svg" width="920.31" height="998.662" viewBox="0 0 920.31 998.662"><title>Députés sortants de l&amp;apos;Yonne en 2017</title><path d="M407.741,456.348l2.36-13.055-0.739-3.114-9.493-8.24-7.864,5.88-2.02-2.18-3.128-.239-2.549-5.6-8.7-3.244-5.576,2.114-7.791,9.645-8.074-2.093-9.348-6.85-8.458-.811-1.275-6.763-9.5-3.143-10.253-.21-10.043,5.93-4.851,7.342-10.76,5.677-3.708,8.247-6.169.036-5.894,4.851-4.75,2.418-3.012.782-12.259-9.21-12.107,2.1-0.92-2.911-4.967.072-2.035-5.908-8.8-9.167-0.536-6.408,2.867-.449,1.188-5.547-4.453-10.5-2.846-.659-11.962,3.309-3.128-8.668-14.649-2.339L192.6,381.8l2.73-5.684-9.985.217-2.259,5.583,3.4,5.228-0.225,6.437-9.051,8.428-5.018,15.075-5.612-.181-4.6,3.642-2.911.7-3.193,8.414-8.313,2.534-8.682,8.291-1.752,9.341-10.832,3.2-11.6,2.766,2.223,5.814-5.047,2.94L114.5,483.08l-10.21,7.1L121.773,496l6.481,15.727L126.3,517.6l-10.326,5.17L116.045,529l3.323,5.119-2.418,5.416,5.46,0.427,1.991,12.208-2.317,12.266-21.484.225-5.206,3.295-15.966,7.567-4.511,7.755-5.966-.456-1.158,2.8-13.96-5.619-8.161,4.084-26.574,2.9L17.482,589.8l2.8,9.16-3.62,18.79-2.39,2.151,0.181,8.189,7.523,5.4,10.181-7.226,3.548,4.945-2.36,8.848,2.715,1.557,5.561,2.918,19.123,14.981-3.693,11.607,6.191,10.4,8.219,0.811,7.791,10.825-11.129,8.465-2.36,8.566,6.959,17.617-2.006,8.718,3.295,5.438,8.385,4.33,3.411,11.919,6.126,1.593,1.057,3,9.095,1.252,15.843,9.327,8.5-2.505,4.692-4.091,12.433-3.374,8.175-9.855,9.884-6.777,6.1-.854,8.4,3.678,5.358,4.562,1.991,2.505-4.41,8.313,4.1,25.191,5.612-2.078,2.773,1.434,7.849,9.681,7.907,5.011,1.81,5.923,8.428-1.789,4.453-3.765,11.31,0.369,18.783,30.571,9.421,1.123,5.489-3.186,9.5-.043,6.5-10.919,6.763,10.34,6.083-.985,18.189,11.122,2.375,1.991-0.92,6.148,5.192,2.563-0.464-6.3,2.223-2.259,10.108-6.785,9.022-1.188,6.575-10.76,0.152-6.285L357,818.147l4.156,0.753,12.3,0.485L382.3,816.7l1.81,5.844,5,3.1,2.94-.652,10.058,6.633,5.844,0.065,3.99-25.01-1.665-35.293,3.888-.8-0.666-3.027,4.823-3.838,8.8,2,1.767-2.556L427.7,751.718l4.142,2.665,8.516-5.822,5.358-3.041L450.3,749.7l2.969-.978,8.074-9.471,5.626-2.686,3.65-8.458-7.386-20.362,10.507-11.129-2.491-5.706,4.344-.3,8.624-11.535,0.753-3.049,6.126-1.3,8.61-8.834,9.29,0.586,2.375-2.042,1.962-11.984,0.789-7.885,13.548-7.936,31.324,1.057,5.583,2.556,10.4-7.038-14.649-5.105-9.022,1.6-9.138-1.8,7.893-13.244-0.413-3.114-11.882-2.288,0.384-12.165-11.383-1.332-10.224-14.482,4.272-7.364,12.049-8.146,9.884-6.387-9.2-13.251-2.7-9.2,1.057-5.88,9.493-11.745,1.542-9.044-0.442-.289-24.808,3.411-11.557,3.642-1.644,2.592,3.027,5.337-7.748-.753-6.944-20.246,5.373-6.792-10.412-4.88,0.666-5.858-2.563-1.072L465.4,491.041l-2.259,8.8-5.489,2.867-6.126,1.151-1.072-2.925L443.3,481.607l-5.445-2.9-1.911-9-5.756-1.622-1.1-2.889-13.236,1.868-7.422-4.736Z" transform="translate(-13.265 1.009)" fill="#06c" stroke="#000" stroke-width="2"/><path d="M861.836,669.515l13.591,11.622-12.7,16.147-2.165,8-5.105,1.39-1.709,2.694,1.991,24.663-9.095-1.043-2.259,2.078-6.915,16.784,0.637,9.862-8.964,17.936-5.177-2.505-5.047,2.766-1.557,5.728-4.641,3.468,2.94,7.248-5.583,6.35-2.39,5.525-14.229,4.3,1.6,5.5-2.954,4.757,2.274,5.134,3.28,4.634-3.367,7.588,1.289,5.148,1.542,0.9,3.1,0.681,1.977,6.017-5.786,24.5-2.36,1.745-4.6-3.613-2.643,1.3,1.955,5.5-5.134,6.995-8.161-8.588-2.94.362,1.615,5.431,0.507,12.129-6.814,5.959-1.767,5.793-3.012.022,1.586,6.148,11.187,5.887-4.866,11.158,2.672,5.626,9.109,1.839,5.894-2.491-0.681,9.319-4.627,7.748,5.5,7.393-0.623,9.167-6.1,1.934-11.854-3.273-5.8,2.288L752.5,971.962l-5.047,10.985-2.773-1.5-2.151,2.317L738.587,995.5l-2.983.978-12.223.167-8.131-9.515-3.128.21-5.872-11.274-5.518-28.03,4.555-7.951L698.6,929.914l-6.111-6.6-5,10.753-2.788,1.267-17.95-2.02-13.121,14.692-9.869-1.173-6.14-23.8L648.7,917.09l8.588-9.442-1.962-8.66-5.033-3.237-1.318-5.858-2.7.912-6.843-5.025-8.045-1.144,0.253,7.3-6.083,17.2-2.02,2.324-6.155.116-3.787,4.591,4.156,8.067-0.681,9.116-8.827,1.521-8.3-8.436-8.993-.608-2.4-5.127,0.978-8.371-5.344-.941-1.245,2.839-20.731,5.684-8.827-2.4-6.01-6.7-1.47-6.894-6.676-10.977L528.376,886.2l-5.33,1.014-1.13-2.578,3.65-10.586-1.231.347-1.825-2.433-11.585.659L497.746,866l-3.381,1.252-5.938-1.586-2.317-8.544-6.1-.34-7.465,7.719-3.28-3.787-2.846.347-4.381-18.79-0.268-.941,2.94-10.666-0.326-2.831-2.773-.659-14.337-4.3-6.6-9.869-9.464-6.546-7.3-5.279-2.39-21.231-7.357-9.464-0.666-3.027,4.823-3.838,8.8,2.006,1.752-2.563-1.188-11.448,4.142,2.665,8.516-5.822,5.358-3.034,4.6,4.185,2.954-.985,8.088-9.471,5.612-2.686,3.65-8.458-7.371-20.354,10.507-11.129-2.505-5.713,4.359-.3,8.61-11.527,0.753-3.056,6.126-1.3,8.61-8.834,9.29,0.586,2.375-2.042,1.962-11.984,0.789-7.885,13.562-7.936,31.31,1.057,5.6,2.556,10.384-7.038-14.649-5.1-9.008,1.593-9.138-1.8,7.893-13.244-0.427-3.106-11.882-2.3L538.131,597l-11.368-1.332-10.239-14.482,4.272-7.364,12.049-8.146,9.884-6.387-9.2-13.251-2.715-9.2,1.057-5.88,9.5-11.745,1.542-9.044-0.449-.289-24.808,3.411L506.1,516.931l-1.644,2.592,3.041,5.337-7.748-.753L492.8,503.861l5.373-6.792-10.412-4.88,0.666-5.858-2.563-1.072L465.4,490.942l-2.259,8.8-5.5,2.867-6.126,1.158-1.057-2.933L443.3,481.507l-5.445-2.9-1.911-9-5.771-1.622-1.1-2.889-13.236,1.875-7.422-4.743-0.724-5.945,2.36-13.055-0.739-3.114-9.493-8.24-7.864,5.88-2.02-2.187-2.4-5.532,2.6-28.884L375.2,397.063l2.983-5.59-0.55-6.452,13.461-4.678-11.2-23.388,0.876-6.329,4.54-4.613,1.26-1.427,3.323-21.636,2.6,1.839,2.643-1.759,2.18-8.885-4.953-4L387,298.818l6.488-6.988,11.354-5.4,24.764,1.694,7.639,5.366,4.2,0.811,7.451,4.989,5.148,7.553,30.926-2.5L478.9,294.207l7.386-5.257,0.724-6.213,4.482-3.881-2.078-12.223,11.057-10.847-0.818-5.279,11.006-3.432,1.839,9.37,6,1.883,5.583,1.875,20.55,4.374,0.71-6.452,8.5-17.407,2.585-1.962,6.235,1.709,0.522,6.184,7.581,5.568,9.826-6.365,20.137,24.091,2.462,5.72-3.476,4.5-0.862,8.711,17.081,20.869,1.412,14.236-4.113,3.809,6.263,7.082,6.929,0.789,2.831,5.51,13.693,12.034,0.355,12.375-4.909-3.143-14.185,2.194,6.293,18.6L639.4,384l-1.665,5.865,11.484-4.6,1.021-15.206,2.288-2.122,6.111,0.413,4.909,7.545,6.437,14.75-5.235,15.126-2.006,19.16-5.148,8.276,1.035,0.681,5.829,1.9,5.46-2.867,2.745,1.47,4.9-6.017,14.142,2.3,8.428-3.121,11.115,4.859,2.73-.326L726.238,421.2l6.068,11.064,6.039,1.564,5.018-3.374,7.762,4.96,5.489-2.918,3.722-14.352,17.762,1.6,1.8,2.476,1.188,11.9,11.723,0.159L798,431.068l6.452-5.518,5.684,0.492-0.029-6.256,15.727-14.779,10.412,5.648,0.739,12.585,9.2-1.535,3.476-5.076-0.92-12.614-5.655-2.962-0.029-3.171,4.07-4.431,14.764,0.579-1.26,21.556L874.358,432.2l14.2,6.1,14.866-1.738,7.509,4.844,0.71,9.2,3.65,4.967-7.777,3.563-11.557.927-4.569,3.468-4.272,8.392-12.049,10.108,10.507,4.272L884.5,511.515l5.373,3.367,14.381-5.8,18.515-.478,2.389,5.047-4.374,7.19,2.006,12.013-3.042,8.537,12.52,10.869L924.24,565,929.3,575.72l-3.056.912-0.594,3.143,0.919,12.31-8.016,4.989-5.235-1.586-10.138,17.863-10.861-6.387-9.232-.739L880.583,618.7l-9.182,2.5-1.26,5.952,8.74,3.193,2.39,5.865,5.206,3.577-2.505,8.892,13.693,10.586-5.872,1.644-11.9-2.4-2.73,4.953-14.88-.123Z" transform="translate(-13.265 1.009)" fill="#ff8080" stroke="#000" stroke-width="2"/><path d="M454.127,306.924l-5.148-7.56-7.451-4.982-4.2-.818-7.639-5.366-24.764-1.687-11.354,5.4-6.488,6.988,5.358,11.318,4.953,4.012-2.18,8.885-2.643,1.759-2.6-1.839-3.323,21.629-1.26,1.427-4.54,4.613-0.876,6.336,11.2,23.388L377.713,385.1l0.55,6.452-2.983,5.583,14.931,4.1-2.6,28.884,2.4,5.532-3.128-.239-2.549-5.6-8.682-3.244-5.583,2.114-7.791,9.645-8.059-2.093-9.363-6.85-8.458-.811-1.275-6.763-9.5-3.143-10.253-.21-10.043,5.93-4.851,7.342-10.76,5.677-3.708,8.247-6.169.036-5.894,4.851-4.75,2.418-3.012.782-12.259-9.21-12.107,2.1-0.92-2.911-4.967.072L233.9,437.89l-8.783-9.167-0.55-6.408,2.867-.449,1.188-5.547-4.453-10.5-2.846-.659-11.962,3.309-3.128-8.668-14.649-2.339,1.057-15.648,2.73-5.691-9.985.225-2.418.4-0.992-4.678-0.167-12.346-8.8-3.519-3.338-5.366,0.637-3.164,13.591-7.987-16.393-7.755-4.374-7.979,2.969-5.293-21.593-9.877-6.039-7.031-0.355-14.663-1.557-4.888-2.745.159-4.808-20.514-11.824-.08,7.016-13.808,0.167-3.121-2.73-1.477-6.1-7.19-5.756-1.289-4.019,4.026-6-10.854L93.976,229.6l-8.964-2.107-7.154-10.608-9.645.883L67.25,203.523,79.98,190.88l9.544-1.542,0.449-8.516,10.637-5.185,5.033,2.476,5.46-2.846,4.2-11.709,12.223-24.619,9.167-.883-2.375-20.47-11.665-3.5,3.07-9.044-5.952-10.13,4.569-3.946-7.256-6.184L132.4,64.764l-1.9-11.347,7.357-17.443,10.622,2.143,8.573-2.882,5.061,3.171,6.111-.311,0.507,5.691,2.346,1.941,6.944-13.8,4.779-3.91,10.709-3.671,3.07,4.917,13.874-4.374,2.715-5.25,5.641,2.882,2.448,5.952,5.431-1.166,6.575,4.808,6.184-3.143,7.386-2.469,15.1,4.764,13.027-12.245,5.814,0.152,0.948-2.99L298.67,24.04l0.724-2.875,2.983,0.13,8.262,3.483,3.946-.992,6.024-.058,3.309-4.982,3,0.152-0.145,6.111,4.678-3.208,1.47-14.967L338.5,0.152,344.512,0l9.261,7.161,8.964,0.789-0.492,12.73,7.748,13.758,3.07,0.767,11.412-11.115L397,22.411l0.2,0.21,2.505,4.786,12.824-.08L417.87,30.9,435.1,53.938l7.82,5.626-0.739,13.664,12.4-1.195-0.536,9.5,14.989,11.412L464.314,104.6l1.629,2.809,20.108,9.522,5.286,12.244,0.507,3.041L477.76,148.15l-1.072,2.889,2.9,5.3,4.765-1.658,5.641,5.6-7.451,13.924-21.1,20.137L473,203.616l18.2-12.288,10.449,6.814,6.235,15.177,5.532,7.943,5.061,18.79,14.287-5.72,2.063-8.892,3.787,8.689,3.171,0.4,9.109-8.87,0.225-6.249-4-8.711,1.332-2.911,17.805,6.148,5.583,14.25-9.08,12.36-6.235-1.709-2.585,1.962-8.5,17.415-0.71,6.445-20.55-4.374-5.583-1.875-6-1.883-1.839-9.37-11.006,3.432,0.818,5.279-11.057,10.847,2.078,12.223-4.482,3.881-0.71,6.213L479,294.287l6.068,10.138Z" transform="translate(-13.265 1.009)" fill="#06c" stroke="#000" stroke-width="2"/><text transform="translate(196.493 681.66)" font-size="193.331" font-family="DejaVu Sans" font-weight="700">1</text><text transform="translate(613.545 677.185)" font-size="193.331" font-family="DejaVu Sans" font-weight="700">2</text><text transform="translate(213.455 258.3)" font-size="193.331" font-family="DejaVu Sans" font-weight="700">3</text></svg>