<svg xmlns="http://www.w3.org/2000/svg" width="959.987" height="755.473" viewBox="0 0 959.987 755.473"><title>Députés sortants de la Haute-Saône en 2017</title><path d="M514.11,362.167l-11.577-14.673-3.22.023-5.456,3.258-22.869-1.153-0.619-12.089,9.179-6.632,13.737-9.078,1.695-12.855-1.95-13.915-6.849.534,0.5-20,11.609-12.731,9.373-4.133,5.6-8.552,6.044-1.262,0.349-7.9-2.709-4.11-15.587-.967-8.769-2.059-23.264,13.853-9.581,13.613,0.472,9.473-8.931,9.953-0.441,6.331-4.28,5.216-20.71-1.107-1.239,9.62-13.985,11.028-9.883-1.718,3.251-12.468,14.573-15.641-8.01-12.932L397.3,274.32l-3.978,3.32-2.16,23.249-6.911.7-9.3,8.613,2.267,6.114-7.979,5.495,3.838,15.811L370.4,344.8l-2.175,2.345-9.325-.812-11.64-4.744-2.074,2.43-2.043,6.23L327.862,377.7l1.842,9.511,2.538,7.305-15.052,4.535-5.967.542,1.525-8.776-19-.727-5.789-2.833-5.123,7.553-6.059,2.74,2.825,18.705-1.6,6.052-3.838,4.558-5.789,1.277-2.252-.8-9.449-3.049-10.115-1.757-8.343,10.347L232.3,465.817l3.715,3.691-1.509,5.317,15.386,0.387,2.6,1.811,0.333,6.06-0.967,10.177,2.027,6.037-13,10.8-0.572,3.421,4.682,5.116-7.043,2.415-0.65,10.177,5.928,8.142,0.41,13.412-3.328,5.324-11.972,1.85-1.92-2.538-5.216.929-4.264,7.205-15.6.41-9.31,3.336-6.106-1.819-6.106,3.475-7.6-18.5-1.06-10.084-8.3-5.781-2.407-.309-24.2,32.365-13.366-.209-2.407-2.376-15.7-7.817-8.83,9.589-13.087,3.188-10.022.3-8.513-5.061L54.585,569,49.64,589.079,54,593.908,42.287,605.54l-8.482,14.5L33.248,636.45l7.577,3.838,2.33,5.239,7.027-1.873L67.138,609.6l9.6,2.244,20.3,21.035L102,635.63l5.216,26.12-2.725,12.832,5.882,2.028,3.506,15.842-6.725,19.642-9.643-.48-11.624,20.2-4.349,10.231-7.259,5.642-5.7-5.944-18.79-2.422-5.324,10.564-2.523,6.779,13.381,3.9L36.831,771.32l-5.882,1.594L38.1,778l-1.254,8.474L53.338,776.3l6.137,1.045,2.763,9.008,8.978,2.376,2.507-1.974,3.552,3.63-1.695,2.268L70.9,801.41l-0.6,13.482,7.917,13.915-6.044,14.116,11.926,8.3,17.506-9.968,12.437,5.518L110.739,862l-2.027,16.546L109.524,880l3.251,12.537-1.966,9.488-1.981,2.554-6.3-.6-3.746,5.185,0.379,8.753,15.919,1.045,6.981,5.951,6.2,3.785,2.476-1.6,7.2,18.729,14.843,7.228-0.395,9.782,8.978-.572,3.026,7.847,1.826,8.142,4.976-1.974,11.531-4.906,6.246,1.114,8.219,4.883,12.483-2.1,2.933-2.632,4.349-5.928,6.563-1,8.753-9.388,4.883,3.955,5-.627,4.643,7.066,8.328-5.4,15.656,6.927,12.545-9.194,2.1-3.32,6.47,0.217,5.046-3.993,7.1-10.595,6.277,1.416,12.986-5.286,10.641-3.46,9.117-2.113,5.324-9.743,7.2-4.922,6.044,1.331,6.214-6.787,7.948,9.511,4.759-3.065-3.506-13.667,5-3.838,14.557,5.781,2.778-1.772-3.6-9.07,1-6.315,7.817,2.283,2.09-1.741,0.79,2.809,13.559,3.924,0.3,0.062,9.55,9.04,2.856-1.617,2.747-.356,0.712,2.678,2.57-1.331,3.026-11,5.5,1.757,3.6,4.744,8.6,0.8,4.551-5.061,5.533-7.135,7.964-3.908,0.774-3.243,1.826,0.913,1.71,1.61,9.48-.8,5-4.032,1.857-6.006-0.24-10.548,12.321,0.983,1.145,9.109,0.395,0.124,5.5-.8,5.441-6.23-8.583-8.288,3.39-1.633-3.761-4.434,6.787-9.628,2.252-2.283,9.148,7.979,12.2,1.13,2.415-3.661,2.9,1.47,5.611-3.266,2.507-5.889-2.476-5.866-9.766-8.962-1.3,2.918-3.266-.325-4.837-8.675,3.962-19.27-7.043-6.865,2.221-2.469-8.552,3.568-4.612-5.456,6.485-10.688-1.222-15.548-5.851-11.524-1.192-14.766-8.01-5.054-9.434.487-4.156-.844-2.09-10.108,2.98-6.191-1.03-6.648,7-4.4,11.291-13.938,3.761-16.5,3.173-5.061,0.225-.341,18.334-6.006,5.5-10.626,13.032-3.135,9.9,8.923,9.233,8.83,1.207,9.806,15.323,6.044-3.142-26.429L582.355,647l-1.014-3.2-4.961-13.667-5.108-3.235,11.562-10.928,6.23-.828,6.029-9.418,8.629,2.662,6.679-5.812,7.259-21.251-3.583-8.637-0.983.209L607.686,560.2l0.557-6.826,1.106-6.3,11.926-10.556-0.526-3.243-3.188.4-2.345-6.044-5.293-3.723-8.931-20.8-7.259-7.716-3.568.008-5,11.911-5.348,3.343-10.974,13.327-0.364-.279,4.233-8.73-4.365-21.461,2.043-2.562,1.362-.944-6.261-29.61,1.254-3,13.149-1.114,3.428-9.55-2.461-2.02-12.081,2.306-8.946-3.042,0.572-2.407-6.563-1.176-5.348,8.312-5.789,3.01-4.6-8.281L527.2,446.222l-4.233-16.183,5.169-12.437,12.089-4.667,2.074-1.927-2.476-8.544,1-1.633,1.3-12.971-7.167-11.082-11.988-4.7Z" transform="translate(-28.645 -224.144)" fill="#06c" stroke="#000" stroke-width="2"/><path d="M951.673,539.9l0.983-8.97-8.219-10.007,0.333-15.981-1.285-8.536,11.152-18.465,7.662-15.223,18-15.3,7.267-11.492-0.743-3.343-20.8-16.763-1.935-4.574,2.112-6.114-4.775-8.335L930.63,384.564l-0.557-3.374-1.346.534-16.554-10.688-4.233-5.487-8.118-4.349-2.965-2.376L869.483,343.3l-3.521-5.859,0.666-6.841-7.615-10.959-11.051-7.716-4.28-8.265-3.127.085-21.406,9.705-6.88,11.322L801.6,344.832,776.219,351l-16.584,10.6-2.012-6.493-10.8-13.04,0.062-13.257-6-3.413-11.732-21.1-15.463.6-2.57-9.465L700.5,288.383l-6.362,1.331-9.008-3.838-27.977,12.267-10.309-.681-9.194-4.783-10.185,1.8L618,302.012l-8.01,6.934-6.029.557-2.391,5.572-12.089-2.755-3.4,5.185-6.044-1.64,1.9-10.108-0.712-3.343-16.446-11-7.244,4.218-6.454-5.564-1.161-5.588-2.763-.449-3.731-4.288,8.614-3.777-2.3-18.473-4.156-4.6,2.1-10.649-16.237-16.864L520.207,231.3l-3.328,5.51,2.709,4.1-0.364,7.9-6.029,1.262-5.611,8.544-9.356,4.14L486.618,275.49l-0.5,20,6.849-.534,1.95,13.915-1.695,12.855L479.475,330.8l-9.163,6.632,0.619,12.089,22.869,1.161,5.441-3.258,3.22-.023,11.577,14.673,8.946,9.767,11.988,4.7,7.167,11.082-1.3,12.979-1,1.633,2.492,8.544-2.074,1.927-12.1,4.674-5.169,12.429,4.233,16.183,10.912-2.778,4.6,8.273,5.789-3.01,5.348-8.312,6.563,1.176-0.557,2.407,8.931,3.042,12.081-2.3,2.461,2.012-3.413,9.558-13.165,1.107-1.254,3,6.277,29.61-1.377.944-2.043,2.562,4.365,21.468-4.233,8.73,0.364,0.279,10.974-13.335,5.363-3.343,5-11.911,3.552-.008,7.259,7.716,8.931,20.8,5.293,3.723,2.345,6.052,3.188-.4,0.526,3.243-11.91,10.548-1.122,6.307-0.557,6.818,5.409,12.692,0.983-.2,3.6,8.637-7.267,21.244-6.679,5.812-8.629-2.662-6.029,9.418-6.214.828L571.3,626.675l5.108,3.227,4.976,13.667,1.014,3.2,11.895,5.766,3.157,26.429-15.339-6.044-1.207-9.8-9.233-8.83-9.9-8.923L548.739,648.5l-5.5,10.626-18.318,6-0.225.341-3.173,5.061-3.777,16.5-11.291,13.938-6.981,4.4,1.014,6.656-2.98,6.191,2.1,10.1,4.156,0.851,9.419-.5,8.025,5.061,1.176,14.766,5.851,11.516,1.239,15.556-6.5,10.688,4.612,5.456,8.552-3.568L533.91,790.6l7.043,6.865-3.962,19.27,4.852,8.675,3.251,0.325,1.316-2.918,9.751,8.962,2.492,5.866,4.551-4.086,6.106-.41,0.225-3.065-7.5-1.13-2.9-.069-1.95-5.324,4.682-3.684,5.9,1.772,5.216-.82-0.24-2.647,3.026-.1,0.89-9.008,4.141-4.032,1.06,2.415,2.391,2.925,8.614,3.637,5.263,7.995,5.836,3.01,1.424-2.879-6.246-10.881,0.472-6.067,10.262,6.292,6.757-3.723,0.712-8.637,0.983-8.459,11.036,2.059,5.959-3.513-4.171-3.8,7.468-14.077,4.946-3.785-1.695-13.017,2.19-8.087,6,3.15,5.882,0.519,7.244-15.293,1.92-2.469,9.341,0.426,12.754-7.724,6.981,2.074,7.3,5.069L706.2,720.31l9.31-3.421,2.314,2.4,1.362-1.633,7.8,4.086,9.5,2.1L742.8,722.3l5.309,3.785,7.135,24.757,2.763-1.594,0.077-6.424,16.268-14.6,3.731,7.9,7.562,5.324,3.08-.572,4.868-3.281,2.043-5.518,7.344,5.564,6.423,10,3.08-5.889,9.836,0.828L829,728.11l-2.662-15.192,1.161-3.266-6.029.751-1.633-2.678,7.77-9.465-0.727-3.057,9.218,1.726,7.848,5.348,1.68,5,5.9,0.673,5.982,1.137,13.892-6.106,4.063-5.526,3.08-4.69,7.344-11-10.835-13,4.024-8.467,3.537,7.174,15.587,1.71-2.376,7.468,22.536,10.347,1.811-6.749,2.415-.921,9.31,3.506,5.758,7.972,6.091,6.88,7.36,3.753,7.754,1.316,10.215-12.468,3.041-12.878,3.792-.418,1.842-5.758,7.832-4.5-0.472-.991-0.589-1.13L974,657.257l-1.176-6.454-7.259-6.47,1.3-2.918-2.585-5.294-0.743-.17-1.695-6.315-5.123-3.955,1.68-9.612,7.012-1.579L971.2,604l-1.014-6.222-5.015-3.792-2.112-3.684-4.326-4.868-2.415-9.14,0.936-9.651,0.983-13.59-0.875-6.246Z" transform="translate(-28.645 -224.144)" fill="#ff8080" stroke="#000" stroke-width="2"/><text transform="translate(256.956 524.332)" font-size="206.632" font-family="DejaVu Sans" font-weight="700">1</text><text transform="translate(670.135 377.314)" font-size="206.632" font-family="DejaVu Sans" font-weight="700">2</text></svg>