<svg xmlns="http://www.w3.org/2000/svg" width="866.318" height="959.605" viewBox="0 0 866.318 959.605"><title>Députés sortants du Doubs en 2017</title><path d="M168.639,262.985l2.843-7.836-14.054-5.575-4.821,3.7,3.4,13.18-4.59,2.955-7.68-9.172-5.978,6.545-5.843-1.284-6.941,4.747-5.135,9.4-8.792,2.038-10.262,3.336-12.523,5.1L82.2,288.748l-6.851,10.217-4.866,3.851-6.24-.209-2.023,3.2-12.1,8.866L35.03,308l-8.015,5.209,12.829,21.987L39.478,338.4l-2.754,1.9,4.9,7.038L40.963,352.8l-0.171,2.4,4.172,2.261,7.173,9.433-0.425,5.822L63.152,368.9l2.067,2.247L64.1,377l2.665,2.344,11.412,1.321,3.672,3.963-0.06,16.762,5.12-3.732,11.62,5.135,1.4,17.882,9.158,8.127L101.8,434.76l-7.523,17.434-9.224,12.859-1.679,5.874-6.038-1.4-5.754,6.956,6.1,14.225,3.881,18.487L67.66,517.4l-9.516-8.7-6.023,1.149,0.828,6.09,7.173,6.515-0.762,6.329-5.135,3.762,4.985,11.717,9.463,4.433,3.5-4.821,13.919-4.62,4.665-8.516-1.344-9.59,2.037-2.538,6.224-1.866,3.03,0.858,1.455,6.15-0.776,15.524,0.6,5.463,8.672,3.642,5.6-2.373,0.762,6.374,4.284-.06-0.291,5.105,7.217-4.821,14.755,2.955,1.851,6.15,5.859,1.836,8.866-2.873,6.12-13.822,2.665-.045-3.486,9.18-0.671,16.2,6.194,5.717,8.948-2.463,3.948-4.784-0.157-4.635,5.411-3.194,4.739-8.105,3.776-21.472-1.866-5.769-0.306-.507,3.657-13.471,10.493-9.359,2.986-.41,0.671-2.955-3.089-7.9,7.65,3.821,8.777-2.649,1.426-4.851,5.448-3,0.477-3.209,7.217-8.687-1.6-5.478,2.642-1.314,3.672-10.688,5.045-13.785,7.389,3.2,5.934-7.739,0.4-6.374-24.883-29.077-3.792.157-8.747,7.023-7.292-20.263-7.889-9.538-1.4,2.172-3.089-3.306-2.261-1.762,1.47-2.448,4.985-2.038,10.755-14.591,8.209-.664,8.948-7.374-2.665-4.739-6.881-.575-0.291-5.695,4.941-4.261-2.359-5.321L217.059,307.6l4.284-4.941-2.478-5.9-5.948-1.508,1.358-11.307-2.97-7.142-2.582-3.545-6.254.717-3.9-5.06-6.053-1.918-9.142,2.47-0.336-.1-11.106,1.306Z" transform="translate(-25.67 -15.646)" fill="#ff8080" stroke="#000" stroke-width="2"/><path d="M211.523,380.488l-1.388,2.172-3.1-3.306-2.261-1.762,1.485-2.448,4.985-2.03,10.739-14.591,8.209-.664,8.964-7.381-2.679-4.732-6.881-.582L229.3,339.47l4.955-4.254-2.373-5.321-14.755-22.226,4.3-4.941-2.493-5.9L213,295.316l1.358-11.307-2.97-7.142-2.582-3.538-6.254.709-3.918-5.06-6.038-1.91-9.142,2.47-0.336-.1-11.106,1.306-3.381-7.732,2.829-7.844,2.679-1.709-3.47-8.747,0.963-6.09,7.538,2.2,2.023-1.679,0.746,2.709,13.075,3.784,0.291,0.06,9.224,8.717,2.739-1.56,2.649-.343,0.687,2.582,2.478-1.284L216,243.2l5.321,1.694,3.47,4.575,8.277,0.776,4.389-4.881,5.352-6.881,7.665-3.769,0.746-3.127,1.761,0.881,1.649,1.552,9.142-.776,4.821-3.888,1.791-5.792-0.217-10.172,11.882,0.948,1.09,8.784,0.4,0.119,5.307-.776,5.232-6.008-8.277-7.993,3.269-1.575-3.612-4.269L292,193.33l2.156-2.2,8.822,7.695,11.763,1.09,2.343-3.523,2.784,1.411,5.411-3.15,2.433-5.679,4.389-3.941,5.888-.4,0.217-2.955-7.232-1.082-2.8-.067-1.88-5.135,4.515-3.553,5.687,1.709,5.03-.791-0.246-2.56,2.933-.09,0.858-8.687,3.978-3.888,1.038,2.329,2.306,2.814,8.307,3.508,5.075,7.71,5.628,2.911,1.373-2.776-6.038-10.493,0.463-5.851,9.9,6.068,4.866,10.284,1.3,0.911,9.971-4.224,5.06,23.6-1.88,2.388,2.329,5.15,5.4,1.731-0.7,9.7-9.418,3.836,2.709,5.314-2.769,8.486,0.582,2.6,7.232,6.18,1.926,4.314,0.456,4.575,0.425,2.866,5.441,1.806,0.947,6.12-12.039,6.381,5.747,18.718,3.016,1.284,8.762-4.276L409.4,296.048l3,0.157,3.836,7.933-2.986,14.673-2.8-.7-8.426,7.747,19.442,7.762,4.284,4.008-0.365,3.052-8.262,8.956,1.388,6.008,5.291,1.575,1.388,5.807-9.769,11.546-13.807-3.142-9.389.231-18.233,13.4-0.217,1.709-10.934,10.695,0.456,8.866-9.158.47,13.15,17.039,12.158,1.239,5.075,14.658,3.612,7.882-5.508,7.142,7.083,13.5,5.934,2.112L397,473.227l-2.217,2.261,5.06,5.142-3.254,2.112,0.231,8.209-3.15,7.307,6.374-.216,2.306,2.329,7.419-1.149-10.949,6.486-4.194,4.784,0.351,3.18,7.971,5.045,5.717,10.919,10.157-7.538-12.6,12.911,1.314,8.531-5.411,1.9-8.352-8.277L383.15,548.219l-1.6,2.97-5.628-4.478L354.4,551.884l-16.472,6.941-6.545,2.388-0.732-3.09,4.6-7.754-2.523-5.8-3.1-.612-3.292-8-8.247-.06-18.322-26.629-2.329-1.5-1.91,2.015,0.6-4.374-16.33-7.754,0.538-6.254,4.866-1.881-11.717-18.569,5.4-2.321-2.478-2.023-9.254,2.053-2.769,1.575-5.642,7.478-3.135-.627-2.679-5.8-9.21-1.224-2-2.508,3.672-10.688,5.045-13.777,7.389,3.194,5.934-7.732,0.381-6.374L239.249,403.1l-3.776.157-8.747,7.016-7.292-20.263Z" transform="translate(-25.67 -15.646)" fill="#00c000" stroke="#000" stroke-width="2"/><path d="M437.057,327.678l-9.24-.56-1.344-1.679-5.045,8.172-19.442-7.762,8.441-7.747,2.784,0.7,2.986-14.673-3.836-7.933-3-.157,7.068-14.554-8.762,4.276-3.016-1.284L398.9,265.754l12.039-6.374-0.963-6.12-5.441-1.813-0.425-2.858-0.456-4.575-1.926-4.314-7.217-6.18-0.582-2.6,2.769-8.478-2.709-5.314,9.4-3.836,0.7-9.7-5.4-1.731-2.329-5.157,1.9-2.381-5.06-23.6-9.986,4.217-1.3-.9-4.866-10.292,6.516-3.582,0.687-8.337,0.963-8.15,10.643,1.978,5.731-3.388-4.022-3.657,7.2-13.576,4.769-3.657-1.634-12.546,2.127-7.8,5.769,3.03,5.672,0.5,7-14.74,1.836-2.388,9.008,0.41,12.3-7.448,6.732,2.008,7.038,4.889,4.56-11.471,8.978-3.306,2.231,2.321,1.314-1.582L490,77.189l9.158,2.038,6.1-1.493,5.1,3.65,6.881,23.868,2.665-1.53,0.075-6.195,15.7-14.091,3.582,7.627,7.292,5.127,2.97-.545,4.695-3.172,1.971-5.321,7.1,5.366,6.18,9.643,2.97-5.679,9.5,0.806,6.426-13.949-2.567-14.651,1.134-3.15-5.814.724-1.575-2.582,7.493-9.135L586.33,51.6l8.889,1.657,7.583,5.165,1.6,4.821,5.687,0.649,5.769,1.1,13.412-5.889,3.9-5.329,2.986-4.53,7.083-10.613L632.781,26.109l3.888-8.165,3.4,6.919L655.111,26.5l-2.306,7.2,21.733,9.978,1.746-6.508,2.329-.881,8.993,3.374,5.537,7.687,5.874,6.635,7.1,3.62,7.478,1.269,9.867-12.024,2.918-12.412,3.657-.41,6.12,13.986-5.06,15.285,6.374,11.762L736.9,80.807l3.642,4.239-2.478,1.687,1.47,14.591-15.7-1.485-8.307-7.15-3.016-8.725L708.5,93.092l7.389,9.635,0.6,6.463-5.441-1.9-3.486,4.246-5.687.918-5.934-.037-9.71,1.664-8.06-2.329-8.642,8.478-7.314,4.374-0.477.47-11.008,10.844-11.672,2.433,0.538,6.426,7.374,10.366-2,18.509-2.873,4.986-6.053,1.037-3.866,3.791-2.448,5.664,8.09,8.463-2.359,5.814L621.235,214.37l2.873,5.15-1.91,5.836,10.277,4.418-2.754.6-2.829,13.7-9.1,2.575,1.941,5.754-2.463,5.642,3.672,8.381-1.791,11.837,8.568-1.03,2.067-5.687,2.918,8.822,9.254-.8,0.858-.291,2.359-.881,16.853-10.9,5.441-2.836L665.342,252.4l7.919-2.5,2.97-4.821,5.523,0.858,0.149-2.843,5.172-2.038,5.06-4.194,6.47-.433,1.47,5.672-2.567,5.269,1.866,2.261,6.591,5.262,5.672,0.157-7.695-4.956,2.127-5.06,2.291-2.12-0.716-9.172-3.351-5.209,2.523-5.687-2.083-2.306,14.651,1.149,4.814-2.59,18,3.978,11.994,0.478,9.008,1.642,6.4,7.038,6.314,1.06,0.276-1.888,13.472-5.926,12.345,2.993,9.374-1.888,34.443-5.516,6.21-1.321,7.62-6.254,12.665,2.8,10.7,7.53,1.4,2.986,0.828,6.56,5.441,7.926-4.679,4.65,1.194,2.955-6.9,6.359-6.254-1.045-15.434,3.463,3.642,8.217-4.493,12.038-8.015,5.531-9.694.732-5.336,3.717L818.911,289l-1.59,1.9-2.359,2.075,6.381,17.561-2.388,15.165,5.015,7.926L816,338.955l-1.955,5.926-6.12,1.411-5.045,8-18.247,12.359-6.941,6.374-6.47,14.322-6.687,5.851-10.8,6.791-0.612,3.142,7.344,5.254-1.3,2.94-16.792,14.7L718.1,403.245l-4.314-6.508-17.815-34.107,4.56-3.134-3.888-7.135-2.784-8.262,1.388-2.59-8.866,1.157-2.829,5.381-8.762-.276-2.754,1.12,0.814,5.919L667,353.935l-2.277-5.105-2.813-.119-4.433-.157-1.038,3.015-12.113,3.56-6.545,6.926-6.1,1.642,0.06-1.784,5.814-2.642,3.381-5.418-2.582-8.754-1.56-9.4-5.6-2.836-8.978,2.217-1.59-5.657-8.874,1.672-9.971,6.18-4.448-1.634L595.521,327l5.859-6.448-6.224-.761,0.507-9.419-7.613-5-6.3-.985L551,312.8l1.314-10.329,0.844-6.4-14.068,2.881-7.187-4.508L519.724,299.8l-17.591,7.575-2.9-.231-8.045-1.687-13.6,6.045-2.329,11.531L447.068,311.55l-4.9,3.575-1.746,7.232Z" transform="translate(-25.67 -15.646)" fill="#06c" stroke="#000" stroke-width="2"/><path d="M723.926,99.829l-8.322-7.15-3-8.725L708.6,93.082l7.389,9.635,0.582,6.463-5.441-1.9-3.47,4.254-5.687.911-5.948-.037-9.71,1.664-8.06-2.329-8.628,8.478-7.314,4.374-0.477.47-11.024,10.844L639.15,138.34l0.522,6.426,7.374,10.366-1.985,18.509-2.888,4.986-6.053,1.037-3.866,3.791-2.433,5.664,8.09,8.463-2.373,5.814-14.225,10.964,2.873,5.15-1.91,5.844,10.277,4.411-2.739.6-2.829,13.7-9.112,2.575,1.955,5.754-2.463,5.642,3.657,8.389-1.791,11.83,8.568-1.03,2.083-5.687,2.9,8.822,9.254-.8,0.858-.291,2.359-.881,16.853-10.9,5.448-2.836-2.142-12.255,7.919-2.5,2.97-4.821,5.537,0.858,0.134-2.836,5.172-2.045,5.06-4.194,6.486-.433,1.47,5.672-2.567,5.269,1.851,2.269,6.605,5.254,5.672,0.157-7.709-4.956,2.127-5.06,2.291-2.12-0.716-9.172-3.351-5.209,2.537-5.679-2.1-2.314,14.651,1.149,4.821-2.59,17.987,3.978,11.994,0.478,9.023,1.642,6.381,7.038,6.329,1.06,0.276-1.888,2.537-17.7,7.083-9.673,10.9-4.65-1.664-8.948,3.963-3.359,0.947-5.344,12.844-1.134,1.575-2.836-0.522-22.509-3.075-4.56,0.4-7.926-1.679-8.255-8.209-11.62-7.62-4.4,5.307-5.023-5.135-15.322,9.755-5.262,5.232,2.261,2.277,8.68,4.985,3.366,1.709-2.232,2.388,1.493L817.528,94.65l2.508-8.493-2.388-5.672-4.709-3.844-1.88-.321-5.888-1.664L794.109,67.58l5.1-3.15-5.642-11.15-1.985-5.732-8.934-1.6-4.022-4.941-14.971,7.307-2.642-.366L745.1,49.362l-8.866-1.4-5.06,15.285,6.374,11.762-0.568,5.739,3.642,4.239-2.478,1.687,1.455,14.583Z" transform="translate(-25.67 -15.646)" fill="#ff8080" stroke="#000" stroke-width="2"/><path d="M226.054,494.087l-8.777,2.649-7.65-3.806,3.089,7.9-0.671,2.948-2.986.425-10.493,9.359-3.657,13.456,0.306,0.507,1.866,5.769L193.3,554.787l-4.739,8.105-5.411,3.18,0.157,4.65,0.568,5.135,4.784,2.067,9.546,0.776,0.2,3.194-0.075.672,4.038,2.627-0.321,5.135,3.254,4.008-14.755,13.919,5.672,0.978,20.143,12.957L207.9,633.824l-1.224,11.852,11.038,10.613,5.754,1.134,0.918,20.771L229.7,681.4l7.538-4.389,1.358,2.814-2.2,10.307-2.627,3.56-0.918,2.9,14.375,4.21L248,703.762,258.1,692.1l5.747,1.254,7.449,5.105,3.03,8.075,2.986,0.306,5.993-2.321,1.791-.455,4.926,8.411,24.711,15.479-2.172,3.277,3.06,0.717,6.4,10.538,12.113,8.851,8.135,13.277,4.866,6.747,2.037,5.874-14.516,10.844-2.2,12.2-10.173,6.605-5.658,2.6-11.284,7.083-4.038,3.918-0.306.187-11.21,10.8-5.934,3.747-11.076,7.008-9.479,7.9,20.353,32.436-2.6,8.456-11.061,6.284-14.33,10.8,2.023,10.493-5.448.522-3.292,4.8,24.427,23.233,27.913,26.748,4.463-3.776-15.964-16.106,0.217-3.254L305.472,934.4l14.957-12.315,8.792-3.933,23.89-24.622L381.329,866.6l6.68-6.456,1.709-5.948,17.576-10.434,28.189-15.083,9.389-8.381,1.761-2.986,3.18,0.761,5.731-7.538,8.672-3.851,4.6-11.971,18.322-6.515,7.635-5.963,9.329-13.2,4.068-12.389-9.867-8.516-4.56-4.284-2.217-9.21,5.583-3.411,1.328-13.031,11.344-19.972,0.993-9.822,2.037-25.726L501.973,643l-9.158-15.524,7.449-5.187,17.606-21.793,11.957-12.814,3.381-3.291,5.874,7.493,35.846-12.262,13.822-7.71,7.553-4.575,9.561,1.425,14.419-7.053,12.874-22.144,15.061-11.956,12.7-2.948,11.441-11.777L659.89,498.448l9.224-17.248L689.84,473.1l-1.91-12.4,2.277-2.388,12.725-9.516,24.085-9,9.725-7.5,5.717-6.217-24.27-22.785-4.314-6.508-17.8-34.107,4.56-3.134-3.9-7.135-2.784-8.255,1.388-2.6-8.866,1.157-2.829,5.381-8.747-.269-2.754,1.112,0.814,5.919-5.874-.873-2.277-5.105-2.813-.112-4.433-.157-1.038,3.015-12.1,3.56-6.545,6.926-6.12,1.649,0.06-1.791,5.829-2.642,3.366-5.418-2.567-8.754-1.56-9.389-5.612-2.836-8.978,2.217-1.59-5.657-8.874,1.664-9.956,6.187-4.463-1.642-1.791-8.635,5.859-6.456-6.24-.754,0.522-9.426-7.62-5-6.3-.985L551.1,312.85l1.3-10.329,0.844-6.4L539.172,299l-7.187-4.508-12.158,5.351-17.606,7.583-2.888-.239-8.06-1.687-13.6,6.045-2.329,11.531L447.156,311.6l-4.881,3.575-1.746,7.239-3.456,5.3-9.24-.56-1.344-1.672-5.045,8.165,4.284,4.008-0.365,3.06-8.247,8.948,1.373,6.008,5.291,1.575,1.388,5.807L415.4,374.6l-13.807-3.15-9.374.231-18.247,13.4-0.217,1.709L362.82,397.483l0.463,8.866-9.172.463,13.15,17.039,12.158,1.239,5.075,14.658,3.612,7.882-5.493,7.142,7.068,13.5,5.934,2.127,1.358,2.843-2.217,2.261,5.06,5.157-3.254,2.1,0.231,8.209-3.15,7.307,6.381-.216,2.291,2.329,7.419-1.149-10.949,6.486-4.194,4.784,0.351,3.18,7.971,5.045,5.717,10.919,10.157-7.538-12.6,12.911,1.328,8.531-5.426,1.9-8.352-8.277-10.627,11.061-1.6,2.97-5.628-4.478L354.364,551.9l-16.472,6.941-6.545,2.388-0.732-3.09,4.6-7.754-2.523-5.8-3.1-.612-3.276-8-8.262-.06-18.322-26.629-2.321-1.5-1.926,2.015,0.6-4.374-16.33-7.754,0.552-6.254,4.851-1.881-11.717-18.569,5.4-2.321-2.478-2.023-9.254,2.053-2.769,1.575-5.642,7.478-3.135-.627-2.679-5.8-9.21-1.224-2-2.508-2.642,1.328,1.6,5.478-7.217,8.672-0.477,3.224-5.448,3Z" transform="translate(-25.67 -15.646)" fill="#06c" stroke="#000" stroke-width="2"/><text transform="translate(412.307 545.567)" font-size="199.269" font-family="DejaVu Sans" font-weight="700">5</text><text transform="translate(71.889 471.871)" font-size="199.269" font-family="DejaVu Sans" font-weight="700">1</text><text transform="translate(224.187 363.287)" font-size="199.269" font-family="DejaVu Sans" font-weight="700">2</text><text transform="translate(427.992 264.707)" font-size="199.269" font-family="DejaVu Sans" font-weight="700">3</text><text transform="translate(664.164 198.888)" font-size="139.774" font-family="DejaVu Sans" font-weight="700">4</text></svg>