<svg xmlns="http://www.w3.org/2000/svg" width="859.052" height="987.974" viewBox="0 0 859.052 987.974"><title>Députés sortants de la Côte-d&amp;apos;Or en 2017</title><path d="M548.348,665l-0.4.174-4.562,10.185-13.811-.839-3.952,3.9-2.157-10.608-12.161,5.214-3.439-4.181-4.472,2.87-2.6-1.186-1.449-5.443-8.2-.749-3.508-7.4-5.5.125-5.484-5.734,3.328-4.41-3.71-6.947,1.394-2.281,5.214,2.468,7.363-15.5-1.609-9.083-7.3-9.8,0.4-8.937-7.689-7.53,2.759-8.355,7.856-7.641,6.788-13.014,10.483-5.159,7.148,3.744,5.054-1.47,5.214-2.752,3.9,3.168,0.908-5.186,7.655-6.919,19.719-12.473,8.237-1.685-1.65-17.43,5.089-3.092,5.81,5.81,5.908-9.783,14.338,14.56,0.382-8.965,9.616,7.051,11.71-.035,3.89,4.514,11.052,3.8,0.825,10.012,16.2,6.33-0.229.735-12.889,24.628,1.421,0.756-8.708,15.358-5.2-2.524-5.269,15.323-1.8,10.99,7.9,5.352-3.182,11.9-8.951-.256-6.975,5.616-11.28,3.64L571.611,642.9l-4.444,5.616-7.814,3.4Z" transform="translate(-32.365 -4.788)" fill="#ff8080" stroke="#000" stroke-width="2"/><path d="M847.621,734.91l3.626,3.495L855,748.7l-3.91,13.59L848.946,768l-6.095,6.628,0.409,7.828-5.928,5.221-8.465,3.633-3.224,6.608,1.775,4.562-1.005,5.228-5.782,5.429-4.777-3.779-2.385-11.613-9.887-11.017-2.982,7.433-10.018,3.057-8.556,2.808-7.418,9.644-5.374,2.746-10.74-24.607L757.627,770.6l-5.554-6.67-8.209-2.912-6.566-6-2.7-1.331,4.008-3.4,14.012-18.755L747.053,725l8.826-6.968,8.438-.638,1.775-2.226,5.013,2.621,6.621-9.728-3.037-6.358-6.282-3.2,7.572-9.173-2.531-14.789,3.862-8.064,1.49-3.377-23.344-2.358-0.936-2.808L742.533,650l3.009-6.15L732.7,640.727l-4.035-3.952-0.028-5.644-5.324-1.629-0.159-8.306,5.5-9.769-5.484-9.638L704.343,593l-16.328,7.952-8.993-.867-1.962,5.533-1.435,1.082-8.736.16-4.972,7.245-7.3.645-5.567,9.652-6.892,5.3-5.727.347-2.642,4.424-2.157,2.967-4.132,1.179-8.611-4.042-5.727.867-1.22,5.8-3.127,6.212-7.363,1.747-7.4-4.188,4.972-12.771,6.989-5.609,8.951,0.256,3.169-11.9-7.883-5.352,1.8-10.99,5.256-15.323,5.2,2.524,8.723-15.364-1.421-.749L642.693,545.1l0.215-.735,6.226-11.655,9.929,3.245,8.528,3.543,11.96-2.413,0.367-.111,7.5-.242,4.008-2.822,15.157-7.96,6.788-15.94,7.031-9.18,2.843-.541,3.2-11.378,8.778-7.807L728,464.714l7.661-4.569,9.575-21.258,8.209,2.76,8.084-2.989,3.612,4.514,7.8-2.475,2.087,2.025-1.366-5.567-6.92-5.054,1.92-16.4,4.431,13.492,9.679-6.337,6.434-6.108-2.246-14.567,2.018-2.149,5.754,0.867-0.513-8.861,5.928-9.7,4.888-1.532,6.774,3.439,2.087,4.694,6.3-1.678,15.2-30.514,8.584,2.011,18.2,18.845,4.431,2.468,4.673,23.394-2.427,11.5,5.256,1.81,3.154,14.2-6.039,17.6-8.639-.43-10.414,18.1-3.9,9.166-6.5,5.054-5.1-5.332-16.834-2.163-4.757,9.464-2.274,6.074L824.8,491.99l-16.564,9.638-5.269,1.428,6.406,4.555-1.11,7.592,14.761-9.117,5.5,0.936L831,515.092l8.043,2.129,2.246-1.768,3.182,3.252-1.518,2.032-4.195,7.842-0.527,12.085,7.079,12.466-5.415,12.646,10.685,7.44,15.683-8.93,11.142,4.944-2.954,13.638-1.816,14.824,0.728,1.3,2.912,11.232-1.761,8.493-1.775,2.295-5.644-.541-3.356,4.652,0.339,7.842,14.262,0.936,6.254,5.332,5.554,3.391L882.388,660.1l-7.259-3.585-2.711.035,0.056,2.725-0.326,4.2-0.256,11.828-2.614,5.346L870,700.068l-2.489.873-2.829,4.985,2.261,11.107-2.912,4.722-6.538,5.658-8.154,2.9Z" transform="translate(-32.365 -4.788)" fill="aqua" stroke="#000" stroke-width="2"/><path d="M661.924,614.1l-7.3.645-5.567,9.652-6.892,5.3-5.727.347-2.642,4.424-2.163,2.967-4.118,1.179-8.625-4.042-5.727.867-1.22,5.8-3.127,6.212-7.357,1.747-7.4-4.188,4.957-12.771-11.267,3.647-15.857,7.176-4.742,5.47-7.814,3.4-11,13.1,5.741-.873,3.009,4.458,10.359,5.117,16.806,4.625,14.491,17.514-1.49,2.385,0.742,2.246,2.967,0.146,5.928-6.573-2.461-5.429,1.193-11.877,0.187-5.547,7.231,2.642,19.011,28.684,3,2.975,13.354,9.09,4.049,7.724,0.069,7.883,0.443,7.391-8.1.1-1.518,2.344,5.346,2.85,0.908,6.011-6.351,10.213-1.588,13.25-1.11,5.914,4.631,7.495L653.15,789l1.151-2.649,2.233-1.394,5.8,11.5,2.967,0.361,21.528-13.783-0.554-7.655,1.879-1.823,7.058-3.238,3.737-10.379,6.108,5.907,2.441-5.179,7.959-3.349,1.692,2.246,5.582-6.081,3.058,1.83,3.28-1.983,5.526,0.409,4.008-3.4L752.611,731.6l-5.567-6.538,8.826-6.961,8.424-.638,1.775-2.233,5.027,2.628,6.621-9.728-3.044-6.358-6.268-3.2,7.572-9.173-2.531-14.789,3.862-8.064,1.49-3.377-23.344-2.358L754.517,658l-11.988-7.939,3-6.157-12.827-3.12-4.035-3.952-0.028-5.651-5.324-1.622-0.159-8.306,5.5-9.769-5.484-9.638-18.824-8.8L688,601.01l-8.993-.867-1.948,5.533-1.449,1.082-8.736.16Z" transform="translate(-32.365 -4.788)" fill="#ff8080" stroke="#000" stroke-width="2"/><path d="M320.737,62.16L308.4,60.3l-8.826,3.127-12.362-1.5-28.6,10.428L253.4,69.566,240.615,61.8,202.966,71.985,179.552,66.82l-4.209,7.349-3.765,4.888,1.65,9.076-5.1,11.1,7.19,4.645,0.693,8.812,3.495,4.749-7.446,3.411-11.066.887-4.375,3.321-4.091,8.036-11.551,9.679,10.074,4.091-1.026,24.142,5.145,3.224,13.756-5.554,17.728-.465,2.3,4.84-4.195,6.885,1.92,11.5-2.9,8.175,11.988,10.407-7.7,12.2,4.846,10.269L190,233.36l-0.569,3.009,0.867,11.787-7.675,4.777-5.013-1.525-9.693,17.1-10.4-6.115-8.84-.7-2.4,11.939-8.806,2.385-1.193,5.706,8.355,3.057,2.288,5.616,4.985,3.425-2.385,8.507,13.1,10.144-5.609,1.574-11.392-2.3L143,316.485l-14.248-.111-0.527,5.88,13.014,11.128-12.175,15.461-2.059,7.661-4.9,1.338-1.622,2.579,1.893,23.609-8.708-1-2.163,1.99L104.9,401.094l0.61,9.443-8.6,17.174-4.944-2.4-4.833,2.649-1.491,5.484L81.2,436.767l2.815,6.94-5.346,6.081-2.3,5.29L62.757,459.2l1.532,5.269-2.843,4.555,2.191,4.916,3.127,4.437-3.224,7.266,1.248,4.93,1.477,0.86,2.967,0.652,1.893,5.762L65.586,521.3l-2.26,1.671-4.417-3.46-2.517,1.241,1.872,5.262-4.93,6.7-7.8-8.223-2.815.347,1.532,5.207,0.485,11.607-6.511,5.706L36.535,552.9l-2.884.021,1.5,5.886,10.712,5.637-4.645,10.685,2.559,5.387,8.708,1.761,5.658-2.385-0.666,8.923-4.43,7.419,5.269,7.079-0.582,8.778,0.568,2.864,2.843,0.562,6.309-5.977,4.9-10.518,5.269-2.115,2.045,2.1L68.906,615.2l-0.756,5.311,3.911,7.821-8.854,11.336,5,3.071,5.117-3.037L62.749,652.638l6.337,37.433,5.768,10.546L99.947,687.27l5.325,6.594,3.37-7,6.067-5.2,14.623,3.259,10.261-5.235,10.754,9.984,4.687-.714,11.551-2.073,6.122,6.5,2.2,8.258,2.614,1.421,5.6-1.976,7.675,4.313,0.652-2.774,5.339-1.768,16.342,1.525L216.2,685.03l4.9-10.865-13.867-16.321L206,652.152l5.921,1.012,2.642-5.374,18.339-9.984v-5.97l0.88-1.033,10.2,5.318,7.911,7.017,5.4-.354,7.9-15.136,2.856-.354,5.131,6.067,3.536,10.407,17.631-10.074,2.046,3.5,18.159-7.225L337.6,642.618l2.461,2.295,20.121-.277,6.212,6.254-2.5,8.251,6.49,2.2,5.928,16.12,17.472,7.474,4.861-4.028,6.691-2.122,2,3.46,4.646,13.582,4.8,14.241,10.969,10.15,4.916,6.947-0.784,8.459,13.569,1.289,7.974,0.756,3.55-7.218,6.76-12.785,10.1,3.009,2.967-8.071,8.528-11.648-3.564-17.521-1.935-4.236,6.178-13.062,5.172-1.8-3.508-7.4-5.5.125-5.484-5.741,3.328-4.4-3.71-6.947,1.394-2.281,5.214,2.468,7.363-15.5-1.609-9.083-7.3-9.8,0.4-8.937-7.689-7.53,2.759-8.355,7.856-7.648,6.795-13.014,10.47-5.159,7.162,3.744,5.041-1.47,5.214-2.746,3.9,3.168,0.908-5.186,7.655-6.919,19.719-12.473,8.237-1.685-1.65-17.438,5.089-3.085,5.81,5.81,5.908-9.783,14.338,14.553,0.382-8.965,9.631,7.058,11.7-.035,3.9,4.507,11.038,3.8,0.825,10.019,16.2,6.33,6.226-11.655,9.929,3.245,8.528,3.543,11.96-2.413,0.354-.111,7.516-.242,4.008-2.822,15.157-7.96,6.788-15.94,7.016-9.18,2.843-.541,3.21-11.378,8.778-7.807L728.04,464.7l7.661-4.576,9.589-21.251,8.2,2.752,8.084-2.981,3.612,4.514,7.8-2.475,2.087,2.025-1.366-5.567-6.905-5.054,1.907-16.4,4.444,13.492,9.672-6.344,6.448-6.1-2.246-14.567,2.018-2.149,5.741,0.86-0.5-8.854-7.911-4.368,0.839-5.991-3.495-4.791-2.669-1.4-5.893-1.193-4.292,4.181-5.685-.049-15.191,13.971-1.588,8.681L742.941,401l-7.315,4.257-9.846-18.408,11.239-21.521-9.277,3.515-3.495,1.255L719.6,359.54,709.188,348.35,695.634,341.4l-8.826-3.432,2.912-24-10.7,2.454-1.151,5.79-8.639,12.529-9.423,7.655-6.011-.881-0.3-2.219-5.582.6-2.967-5.256-8.826-.686-6.365-6-8.584-1.928-5.567-2.33-3.4-5.013,5.554-16.862-14.734.6,1.1-11.9-2.316-1.928-14.831,8.362-1.123,5.977-4.818,3.723-14.935,1.713,1.65-2.538-9.979-11.092,1.421-5.394,4.292-3.827,0.146-8.237,4.174-7.245-4.188-3.286-2.33,1.761,2.7-8.237L560.4,243.053l-7.446-3.578-4.25,3.411-8.465,1.262,0.256-2.829-4.957-2.6,3.723-5.554-3.044-3.46,14.816-7.564,7.246-3.515,18.1-12.175,4.742-14.179-5.429-4.833-0.382.582-1.463-4.59-5.041-1.206-2.884-.936-4.049-7.3,0.485-11.96-4.846-11.059-8.369-.354-7.329-3.848,0.4-13.548-5.054-6.455-8-19.49-6.663-5.394L510.656,104.6l-10.5,20.995-13.423-9.8-2.683-4.826,1.99-5.276,7.661-4.063,11.406-16.411-5.346-10.3-6.538-6.3L478.3,66.82l-5.144,2.288-5.484-2.35-8.182-2.392-1.22-5.464,5.754-10.643,7.557-4.6-8.708-8.237-2.427-8.577-23.511,3.134-17.444-4.042-9.263-9.991-5-2.323L391.8,20.547l-14.949-8.521-15.129.305-3.023-6.2L353.412,8.76,347.8,6.9l-11.649,1.9L322.086,22.946,319.5,28.32l-8.569-.347,4.236,14.213,7.357,4.992,2.669,11.745Z" transform="translate(-32.365 -4.788)" fill="#f6e1b9" stroke="#000" stroke-width="2"/><path d="M268.07,627.282l-2.815.43-8,14.942-5.415.43-7.8-6.933-10.185-5.415-0.867,1.082v6.067l-18.415,9.97-2.6,5.415-6.067-1.082,1.3,5.63,13.867,16.252-4.985,11.052-3.037,17.334-16.265-1.518-5.4,1.733-0.665,2.815-7.585-4.333-5.623,1.948-2.6-1.518-2.163-8.237-6.282-6.5L154.986,689l-4.548.652-10.83-9.97-10.185,5.2-14.734-3.252-6.067,5.2-3.467,6.933,3.467,8.452,15.815,13.867,5.63,13.652,1.3,5.852-11.052,13.867-1.733,11.267,0.215,11.052,2.6,1.082,0.652,5.63,2.385,1.733,8.452,0.652,4.777-3.037,0.652,13.208,5.2,1.3,4.77,15.163,9.97,5.2,13-3.467,1.948,4.118,4.548,3.044,19.719,1.518,3.682,4.333-3.037,21.23,7.8,8.237,2.815-.867,4.77-11.052,4.333-4.118,14.734-.666,7.8,4.333-5.415,6.732-2.163,11.267,1.948,5.623,12.348,8.244,17.764,0.2,8.237,8.466,10.615-1.311,5.415,5.415v4.985l3.89,3.252,4.132,3.467h8.667l16.467-6.933,1.068,11.267-5.4,10.2,4.118,4.118,5.623-1.518,2.4,1.3-0.215,7.148,3.467,7.8,10.823,5.2-1.518,8.667,3.682,4.548,10.185,2.6,2.6,4.534-1.733,1.948,8.882,1.948,11.919-1.733,1.518,2.163,15.4,7.363,0.423,2.815-5.415,5.4-2.157,7.363,11.052,9.748,16.467-4.77,4.333-6.067-1.082-5.415,4.118-1.518,1.518,1.948,9.533-4.548,6.718,6.282,8.882-.43,4.985-.867,6.933-5.852-1.3-5.852,10.4-.652,1.3,2.156,4.548-2.156,0.215-2.4,31.852-10.6,13.215-2.815-1.3-5.2,3.252-7.585L534.41,934l21.882,2.385,1.935,1.532,29.044,4.333,0.652-.867-4.985-1.733,3.682-9.533h8.868l6.067-6.511,12.133-1.518,4.548,5.2,5.2,7.363,2.815-.215,2.385,5.2,14.082,3.467,1.518,2.385-2.157,8.237,3.252-3.467,1.733-7.134,8.237-5.2,13.652,0.423,4.333-3.252,8.237,1.948,10.185-9.1,6.51,3.044,5.2-10.4,2.385-.867,3.9,3.467,5.852-7.363,19.49,7.585,9.748-8.015,1.948-7.585,2.385-.867,11.267-2.385,3.467-7.363,8.244-1.733-0.665-3.037-24.69-9.533v-0.215l4.985-16.682,9.1-10.615,1.733-1.948,4.985,0.43,8.015-11.482,4.985-2.385,7.8-.215,8.237-3.9,2.163,2.6,8.452-.867,4.77-2.156,3.252-6.933,3.9-4.333,1.518-11.052-4.77-3.9-2.385-11.482L803.732,786.7l-3.037,7.363-9.977,3.037-8.667,2.822-7.357,9.748-5.415,2.8-10.83-24.69-0.867-17.119-5.415-6.725-8.237-3.037-6.5-5.852-2.815-1.518-5.415-.215-3.252,1.948-3.252-1.948-5.415,6.067-1.733-2.163-8.015,3.252-2.385,5.2-6.067-5.852-3.9,10.4-6.933,3.252-1.948,1.733,0.652,7.8-21.667,13.659-2.815-.215-5.852-11.482-2.163,1.3-1.3,2.6-8.015-3.252-4.548-7.363,1.082-5.852L643.4,758.97l6.282-10.185-0.867-6.067L643.4,739.9l1.518-2.385h8.015l-0.423-7.363v-7.8l-4.132-7.8-13.2-9.1-3.044-3.037-19.067-28.6-7.148-2.6-0.2,5.408-1.31,11.925,2.6,5.408-6.067,6.725-2.815-.215-0.867-2.385,1.532-2.392-14.532-17.334-16.668-4.77-10.4-4.992-3.044-4.542-5.623.867-0.43.208-4.548,10.192-13.867-.867-3.9,3.9-2.163-10.615-12.133,5.2-3.467-4.118-4.535,2.815-2.6-1.082-1.532-5.415-8-.867-5.2,1.733-6.282,13.215,1.948,4.118,3.668,17.549-8.667,11.7-3.037,8.008-9.97-3.037L457.1,730.349l-3.682,7.148-7.8-.652-13.652-1.3,0.867-8.452-4.985-6.933-11.052-10.185-4.777-14.3-4.548-13.437-2.157-3.467-6.718,2.163-4.777,3.9-17.549-7.363-5.852-16.252-6.5-2.163,2.6-8.237-6.282-6.282-20.149.215-2.385-2.163L314.51,629.8l-17.985,7.363-2.163-3.467-17.549,9.97-3.682-10.4ZM102.32,775.914l-22.1,6.5-17.334-2.6-1.733,1.948,2.815,7.8-4.548,3.252v2.815l4.118,3.889,6.067-6.067,6.718,9.1,7.363,4.985,5.852-6.5,4.333,3.682,4.777,0.867-0.666-5.852,7.148-9.97,1.082-9.1Z" transform="translate(-32.365 -4.788)" fill="aqua" stroke="#000" stroke-width="2"/><text transform="translate(275.189 418.949)" font-size="185.12" font-family="DejaVu Sans" font-weight="700">4</text><text transform="translate(700.692 634.26)" font-size="156.766" font-family="DejaVu Sans" font-weight="700">2</text><text transform="translate(496.718 618.726)" font-size="114.714" font-family="DejaVu Sans" font-weight="700">1</text><text transform="translate(622.06 719.38)" font-size="114.714" font-family="DejaVu Sans" font-weight="700">3</text><text transform="translate(360.021 902.216)" font-size="185.12" font-family="DejaVu Sans" font-weight="700">5</text></svg>