<svg xmlns="http://www.w3.org/2000/svg" width="624.242" height="940.685" viewBox="0 0 624.242 940.685"><title>Députés sortants du Territoire de Belfort en 2017</title><path d="M490.74,812.727l-19.182-12.483-67.075,23.842,9.173,20.76L413.5,874.873l5.728,2.95-0.4,12.882,13.377,4.966-2.969,30.408-13.491,8.486-31.662,2.492L371.6,965.124l-37.789,3.863-7.877-11.627,1.048-20.208-4.281-21.046-20.97-29.627-19.428-11.207,13.53-12.806L282.746,823.4l24.87-13.415,13.377,5.765,5.8,22.13,12.673,8.582,4.376-5.69,6.051,3.806-6.982-30.065,6.395-21.654L343.26,778.4l-12.006-9.8-4.834-.819-15.012-4.244-28.2-18.039,13.054-8.03-14.425-28.429-5.061-14.614L254,690.353l-10.255-12.6-14.9-26.335,16.536-35.031L234.648,606.8l-12.483,7.478L207.7,613.06l-3.463-6.128,0.4-9.248,6.241-8.829L187.723,562.5l-14.308,1.18-1.979-10.161,1.789-2.492,11.93-32.634,11.856-5.461-1.161-20.284-2.492-8.107-9.914-29.228,16.687-6.241L189.8,424.394l41.52,24.927,29.7-9.932,3.159-8.354,0.19-7.63,20.74-8.543L308.782,427.1l6.355-9.248-1.638-64.7,12.94-5.5,32.919-.019,4.68,9.076,15.679-2.549,17.43-9.685,36.078-24.852L476.82,317.8l17.906,30.712-3.709.876,3.709,10.275,11.493,11.074-13.11,19.657,6.546,6.6,5.842,4.891-16.25,25.764,6.508,22.226-31.434-.665-5.233,13.529-4.643,37.124-5.138-1.37-6.241,8.924-2.606,16.4,8.03,35.659L447.2,572.3l13.186,5.937,3.54,20.113,8.22-1.655,1.257-8.334,28.656-17.469,49.986,2.644,0.513,0.019,6.546,4.814,11.3,9.115,1.675,18.02,4.016,4.358,8.848,24.509,17.354,13.377,3.939,22.378-2.111,17.354,20.285,8.962,20.74,17.544,1.942,1.523,8.3,21.559,6.908,13.491-9,40.131-10.1,12.521-31.969,19.446-22.454-.571-28.979,14.557Z" transform="translate(-39.107 -29.357)" fill="#06c" stroke="#000" stroke-width="2"/><path d="M42.454,275.748l20.208,24.6-2.416,22.054L74.327,339.8l2.188,15.356L74.06,388.567,71.8,412.3l5.937,22.453,10.636,11.969,5.157,9.076,12.329,9.324,2.492,15.3L94.152,506.2l-17.277,3.881-4.09,23.633,12.559,9.723,4.2,15.546,1.826,0.418,6.355,13.016-3.2,7.174L112.381,595.5l2.855,15.851,25.86,18.1,1.447,2.778,1.18,2.455-19.256,11.037L119.9,659.874l15.642,35.659,22.605,3.577,40.549-3.6,6.755,0.933,38.133-18.629-14.9-26.335,16.536-35.013-10.731-9.609-12.445,7.478-14.5-1.218-3.463-6.108,0.437-9.267,6.2-8.829-23.158-26.335-14.308,1.16-1.979-10.161,1.789-2.492L185,518.455l11.856-5.461-1.122-20.284-12.445-37.333,16.687-6.223-10.332-24.7,41.52,24.927,29.7-9.932,3.159-8.354,0.19-7.63,20.74-8.543,23.672,12.235,6.355-9.248-1.638-64.7,12.977-5.481,32.9-.019,4.68,9.058,15.679-2.549,17.43-9.666,36.078-24.87,43.594-1.827,15.946-38.913-8.62-11.132-18.592-19.847-7.8-21.731-6.622,4.4-21.444-10.086-38.914-13.872L332.5,159.619l-24.222,2.644-1.751-4.891-24.013-13.548-8.81,3.044-16.8-4.548-43.25-15.09L188.039,87.177l-0.476-16.421-9.4-13.377L183.3,34.945l-7.022-4.414-7.136,4.281L146.689,58.806l1.826,8.22L130.666,95.283l-44.3,37.638L67.531,170.35,40.15,215.732l3.159,20.989Z" transform="translate(-39.107 -29.357)" fill="aqua" stroke="#000" stroke-width="2"/><text transform="translate(268.08 718.94)" font-size="282.602" font-family="DejaVu Sans" font-weight="700">1</text><text transform="translate(63.451 347.811)" font-size="279.784" font-family="DejaVu Sans" font-weight="700">2</text></svg>