<svg xmlns="http://www.w3.org/2000/svg" width="882.184" height="957.27" viewBox="0 0 882.184 957.27"><title>Députés sortants de l&amp;apos;Yonne en 2017</title><path d="M419.521,442.35l2.262-12.513-0.708-2.984-9.1-7.9-7.537,5.636L402.5,422.5l-3-.229-2.443-5.365-8.335-3.109-5.344,2.026-7.468,9.244-7.738-2.006-8.96-6.565-8.106-.777-1.222-6.482-9.106-3.012-9.827-.2-9.626,5.684-4.65,7.037-10.313,5.441-3.554,7.9-5.913.035-5.65,4.65-4.553,2.318-2.887.749-11.75-8.828-11.6,2.013-0.882-2.79-4.761.069-1.95-5.663-8.433-8.786-0.513-6.142,2.748-.43,1.138-5.316-4.268-10.063-2.728-.632-11.465,3.171-3-8.308-14.04-2.242,1.013-15,2.617-5.448-9.571.208L204.2,371.01l3.255,5.011-0.215,6.17-8.675,8.078-4.81,14.449-5.379-.174-4.407,3.491-2.79.666-3.06,8.064-7.967,2.429-8.321,7.947-1.68,8.953-10.382,3.068-11.118,2.651,2.131,5.573-4.837,2.818,2.519,17.767-9.786,6.808,16.754,5.573,6.212,15.074-1.874,5.628-9.9,4.955,0.069,5.976,3.185,4.907-2.318,5.191,5.233,0.41,1.909,11.7-2.221,11.757-20.592.215-4.99,3.158-15.3,7.252-4.324,7.433-5.719-.437-1.11,2.686L80.31,560.873l-7.822,3.914L47.018,567.57l-1.548,2.693,2.686,8.779-3.47,18.01-2.29,2.061,0.174,7.849,7.211,5.177,9.758-6.926,3.4,4.74-2.262,8.481,2.6,1.492,5.33,2.8,18.329,14.359L83.4,648.208l5.934,9.966,7.877,0.777,7.468,10.376L94.01,677.44l-2.262,8.21,6.67,16.885-1.922,8.356,3.158,5.212,8.037,4.15,3.269,11.424,5.871,1.527,1.013,2.873,8.717,1.2,15.185,8.939,8.148-2.4,4.5-3.921,11.916-3.234,7.836-9.446,9.473-6.5,5.844-.819,8.05,3.526,5.136,4.372,1.909,2.4-4.227,7.967,3.928,24.145,5.379-1.992,2.658,1.374,7.523,9.279,7.579,4.8,1.735,5.677,8.078-1.714,4.268-3.609,10.841,0.354,18,29.3,9.029,1.076,5.261-3.054,9.106-.042,6.232-10.466,6.482,9.911,5.83-.944,17.434,10.66,2.276,1.909-0.882,5.892,4.976,2.457-0.444-6.038,2.131-2.165,9.689-6.5,8.647-1.138,6.3-10.313L362.535,791l8.349-1.881,3.984,0.722,11.791,0.465,8.474-2.575,1.735,5.6,4.8,2.97,2.818-.625,9.64,6.357,5.6,0.062,3.824-23.971-1.6-33.827,3.727-.763-0.638-2.9,4.622-3.679,8.433,1.916,1.694-2.45-1.138-10.972,3.97,2.554,8.162-5.58,5.136-2.915,4.393,4.011,2.845-.937,7.738-9.078,5.392-2.575,3.5-8.106L472.7,683.311l10.07-10.667-2.387-5.469,4.164-.285,8.266-11.056,0.722-2.922,5.871-1.242,8.252-8.467,8.9,0.562,2.276-1.957,1.881-11.486,0.757-7.558,12.985-7.607,30.023,1.013,5.351,2.45,9.966-6.746-14.04-4.893-8.647,1.534-8.759-1.728,7.565-12.694-0.4-2.984-11.389-2.193,0.368-11.66L533.6,575.98l-9.8-13.88,4.095-7.058,11.549-7.808,9.473-6.121-8.821-12.7-2.589-8.821,1.013-5.636,9.1-11.257,1.478-8.669-0.423-.277-23.777,3.269-11.077,3.491L512.243,503l2.9,5.115-7.426-.722-6.656-19.405,5.15-6.51-9.98-4.678,0.638-5.615-2.457-1.027L474.786,475.6l-2.165,8.433-5.261,2.748-5.871,1.1-1.027-2.8L453.6,466.559l-5.219-2.776-1.832-8.627-5.517-1.555-1.055-2.769-12.687,1.791-7.114-4.539Z" transform="translate(-41.386 -3.946)" fill="#06c" stroke="#000" stroke-width="2"/><path d="M854.757,646.663L867.784,657.8l-12.173,15.477-2.075,7.669-4.893,1.333L847,684.862l1.909,23.638-8.717-1-2.165,1.992L831.4,725.581l0.611,9.453-8.592,17.191-4.962-2.4-4.837,2.651-1.492,5.49-4.449,3.324,2.818,6.947-5.351,6.087-2.29,5.3L789.22,783.74l1.534,5.275-2.832,4.56,2.179,4.921,3.144,4.442-3.227,7.273,1.235,4.934L792.731,816l2.97,0.652,1.895,5.767L792.051,845.9l-2.262,1.673-4.407-3.463-2.533,1.242,1.874,5.267-4.921,6.7L771.98,849.1l-2.818.347,1.548,5.205,0.486,11.625-6.531,5.712-1.694,5.552-2.887.021,1.52,5.892,10.723,5.642-4.664,10.7,2.561,5.392,8.731,1.763,5.65-2.387-0.652,8.932-4.435,7.426L784.792,928l-0.6,8.786-5.844,1.853L766.99,935.5l-5.559,2.193-11.465-1.145-4.837,10.529-2.658-1.436-2.061,2.221-3.782,11.25-2.859.937-11.715.16-7.794-9.12-3,.2-5.628-10.806-5.289-26.865L704.709,906l-6.413-9.751-5.858-6.323-4.8,10.306-2.672,1.214-17.2-1.936-12.576,14.082-9.459-1.124-5.885-22.812,10.626-5.7,8.231-9.05-1.881-8.3L652,863.5l-1.263-5.615-2.589.874-6.559-4.816-7.711-1.1,0.243,7-5.83,16.483-1.936,2.228-5.9.111-3.63,4.4,3.984,7.732-0.652,8.738-8.46,1.458-7.953-8.085-8.62-.583-2.3-4.914,0.937-8.023-5.122-.9-1.194,2.721-19.87,5.448-8.46-2.3-5.761-6.42-1.409-6.607-6.4-10.521-10.4-6.454-5.108.972-1.083-2.471,3.5-10.146-1.18.333-1.749-2.332-11.1.632-12.631-6.343-3.241,1.2-5.691-1.52-2.221-8.189-5.844-.326-7.155,7.4-3.144-3.63-2.728.333-4.2-18.01-0.257-.9,2.818-10.223-0.312-2.714-2.658-.632-13.742-4.122-6.329-9.459-9.071-6.274-7-5.059-2.29-20.349-7.051-9.071-0.638-2.9,4.622-3.679,8.433,1.922,1.68-2.457-1.138-10.972,3.97,2.554,8.162-5.58,5.136-2.908,4.407,4.011,2.832-.944,7.752-9.078,5.379-2.575,3.5-8.106-7.065-19.509,10.07-10.667-2.4-5.476,4.178-.285,8.252-11.049,0.722-2.929,5.871-1.242,8.252-8.467,8.9,0.562,2.276-1.957,1.881-11.486,0.757-7.558,13-7.607,30.009,1.013,5.365,2.45,9.952-6.746-14.04-4.886-8.634,1.527-8.759-1.728L555.927,594l-0.41-2.977-11.389-2.2,0.368-11.66-10.9-1.277L523.786,562l4.095-7.058,11.549-7.808,9.473-6.121-8.814-12.7-2.6-8.821,1.013-5.636,9.106-11.257,1.478-8.669-0.43-.277-23.777,3.269L513.8,500.417l-1.575,2.484,2.915,5.115-7.426-.722-6.67-19.405,5.15-6.51-9.98-4.678,0.638-5.615-2.457-1.027-19.613,5.448-2.165,8.433-5.275,2.748-5.871,1.11-1.013-2.811L453.6,466.464l-5.219-2.776-1.832-8.627-5.531-1.555-1.055-2.769-12.687,1.8-7.114-4.546-0.694-5.7,2.262-12.513-0.708-2.984-9.1-7.9-7.537,5.636-1.936-2.1-2.3-5.3,2.492-27.685-14.311-3.921,2.859-5.358-0.527-6.184,12.9-4.483-10.737-22.417,0.84-6.066,4.352-4.421,1.208-1.367,3.185-20.737,2.492,1.763,2.533-1.686,2.089-8.516-4.747-3.838-5.136-10.855,6.218-6.7,10.882-5.177,23.735,1.624,7.322,5.143,4.025,0.777,7.141,4.782,4.934,7.239,29.642-2.394-5.816-9.716L494.8,281.9l0.694-5.955,4.3-3.72L497.8,260.514l10.6-10.4-0.784-5.059,10.549-3.29,1.763,8.981,5.747,1.8,5.351,1.8,19.7,4.192,0.68-6.184,8.148-16.684,2.478-1.881L568,235.432l0.5,5.927,7.266,5.337,9.418-6.1,19.3,23.09,2.36,5.483-3.331,4.317-0.826,8.349,16.372,20,1.353,13.645-3.942,3.651,6,6.788,6.642,0.757,2.714,5.281,13.124,11.535,0.34,11.861-4.705-3.012-13.6,2.1,6.031,17.829,8.536,0.736-1.6,5.622,11.007-4.407,0.979-14.574,2.193-2.034,5.858,0.4,4.705,7.232,6.17,14.137-5.018,14.5-1.922,18.364L659,420.173,660,420.826l5.587,1.825,5.233-2.748,2.631,1.409,4.692-5.767,13.554,2.2,8.078-2.991,10.653,4.657,2.617-.312,11.75-10.438,5.816,10.6,5.788,1.5,4.81-3.234,7.44,4.754,5.261-2.8,3.567-13.756,17.024,1.534,1.721,2.373,1.138,11.4,11.236,0.152,4.976-3.074,6.184-5.289L805.2,413.3l-0.028-6,15.074-14.165,9.98,5.414,0.708,12.062,8.821-1.471,3.331-4.865L842.2,392.19l-5.42-2.839-0.028-3.04,3.9-4.247,14.151,0.555L853.6,403.281l13.159,15.928,13.61,5.844,14.248-1.666,7.2,4.643,0.68,8.821,3.5,4.761-7.454,3.415-11.077.888-4.379,3.324-4.095,8.044-11.549,9.689,10.07,4.095-1.027,24.159,5.15,3.227,13.783-5.559,17.746-.458,2.29,4.837-4.192,6.892,1.922,11.514-2.915,8.183,12,10.417-7.7,12.208,4.851,10.279-2.929.874-0.569,3.012,0.881,11.8-7.683,4.782-5.018-1.52-9.716,17.121-10.41-6.121L875.127,586l-2.4,11.951-8.8,2.394-1.208,5.705,8.377,3.06,2.29,5.622,4.99,3.429-2.4,8.523L889.1,636.833l-5.628,1.575-11.4-2.3-2.617,4.747-14.262-.118Z" transform="translate(-41.386 -3.946)" fill="#ffeb00" stroke="#000" stroke-width="2"/><path d="M463.98,299.131l-4.934-7.246-7.141-4.775-4.025-.784-7.322-5.143-23.735-1.617-10.882,5.177-6.218,6.7,5.136,10.848,4.747,3.845-2.089,8.516-2.533,1.686-2.492-1.763L399.3,335.3l-1.208,1.367-4.352,4.421-0.84,6.073,10.737,22.417-12.9,4.483,0.527,6.184-2.859,5.351,14.311,3.928-2.492,27.685,2.3,5.3-3-.229-2.443-5.365-8.321-3.109-5.351,2.026-7.468,9.244-7.724-2.006-8.974-6.565-8.106-.777-1.222-6.482-9.106-3.012-9.827-.2-9.626,5.684-4.65,7.037L306.4,424.2l-3.554,7.9-5.913.035-5.65,4.65-4.553,2.318-2.887.749-11.75-8.828-11.6,2.013-0.882-2.79-4.761.069-1.95-5.663-8.419-8.786-0.527-6.142,2.748-.43,1.138-5.316-4.268-10.063-2.728-.632-11.465,3.171-3-8.308-14.04-2.242,1.013-15,2.617-5.455-9.571.215-2.318.382-0.951-4.483-0.16-11.833-8.433-3.373-3.2-5.143,0.611-3.033,13.027-7.655L189.264,323.1l-4.192-7.648,2.845-5.073-20.7-9.467-5.788-6.739-0.34-14.054-1.492-4.685-2.631.152-4.608-19.662-11.333-.076,6.725-13.235,0.16-2.991-2.617-1.416-5.844-6.892-5.517-1.235-3.852,3.859-5.747-10.4-5.551,1.481L110.195,223l-6.857-10.168-9.244.847-0.923-13.651,12.2-12.117,9.147-1.478,0.43-8.162,10.2-4.969,4.824,2.373,5.233-2.728,4.025-11.222,11.715-23.6,8.786-.847-2.276-19.62L146.271,114.3l2.943-8.669-5.705-9.709,4.379-3.782-6.954-5.927,14.679-19.183-1.819-10.875,7.051-16.719,10.181,2.054,8.217-2.762,4.851,3.04,5.858-.3,0.486,5.455,2.248,1.86,6.656-13.228,4.58-3.748,10.265-3.519L217.129,33l13.3-4.192,2.6-5.032,5.406,2.762,2.346,5.7,5.205-1.117,6.3,4.608,5.927-3.012,7.079-2.367,14.477,4.567,12.486-11.736,5.573,0.146,0.909-2.866L314.98,28l0.694-2.755,2.859,0.125,7.919,3.338,3.782-.951,5.774-.055,3.171-4.775,2.873,0.146-0.139,5.858,4.483-3.074,1.409-14.345L353.157,5.1l5.761-.146,8.877,6.864,8.592,0.757-0.472,12.2,7.426,13.186,2.943,0.736,10.938-10.653,12.006-1.61,0.187,0.2,2.4,4.588,12.291-.076,5.122,3.428L445.74,56.652l7.5,5.392-0.708,13.1L464.416,74,463.9,83.1l14.366,10.938-4.525,11.174,1.561,2.693,19.273,9.126,5.066,11.736,0.486,2.915-13.5,15.269L485.6,149.72l2.776,5.08,4.567-1.589,5.406,5.372-7.141,13.346-20.224,19.3,11.077,8.884,17.448-11.778,10.015,6.531,5.976,14.547,5.3,7.613,4.851,18.01,13.693-5.483,1.978-8.523,3.63,8.328,3.04,0.382,8.731-8.5,0.215-5.989-3.838-8.349,1.277-2.79L571.449,210l5.351,13.659-8.7,11.847-5.976-1.638-2.478,1.881-8.148,16.691-0.68,6.177-19.7-4.192-5.351-1.8-5.747-1.8-1.763-8.981-10.549,3.29,0.784,5.059-10.6,10.4,1.992,11.715-4.3,3.72-0.68,5.955-7.086,5.039,5.816,9.716Z" transform="translate(-41.386 -3.946)" fill="#06c" stroke="#000" stroke-width="2"/><text transform="translate(188.374 653.394)" font-size="185.302" font-family="DejaVu Sans" font-weight="700">1</text><text transform="translate(588.106 649.104)" font-size="185.302" font-family="DejaVu Sans" font-weight="700">2</text><text transform="translate(204.633 247.615)" font-size="185.302" font-family="DejaVu Sans" font-weight="700">3</text></svg>