<svg xmlns="http://www.w3.org/2000/svg" width="851.24" height="978.986" viewBox="0 0 851.24 978.986"><title>Députés sortants de la Côte-d&amp;apos;Or en 2017</title><path d="M532.852,657.643l-0.392.172-4.52,10.092-13.685-.831-3.916,3.868L508.2,660.433l-12.05,5.166-3.407-4.143-4.431,2.844-2.576-1.175-1.436-5.393-8.121-.742-3.476-7.337-5.448.124-5.434-5.682,3.3-4.369-3.676-6.884,1.381-2.26,5.166,2.446,7.3-15.355-1.594-9-7.234-9.708,0.392-8.856-7.619-7.461,2.734-8.279,7.784-7.571,6.726-12.9,10.387-5.112,7.083,3.71,5.008-1.456,5.166-2.727,3.861,3.139,0.9-5.139,7.585-6.856L536,527.1l8.162-1.669-1.635-17.271,5.043-3.064,5.757,5.757,5.854-9.694,14.207,14.427,0.378-8.883,9.529,6.987,11.6-.034,3.854,4.472,10.951,3.765,0.818,9.92,16.049,6.273-0.226.728-12.772,24.4,1.408,0.749-8.629,15.218-5.153-2.5-5.221,15.183L594.2,602.758l7.825,5.3-3.153,11.789L590,619.6l-6.911,5.565-11.177,3.607-16.007,6.98-4.4,5.565-7.742,3.366Z" transform="translate(-21.564 -3.44)" fill="#ff8080" stroke="#000" stroke-width="2"/><path d="M829.4,726.915l3.593,3.463,3.717,10.2-3.875,13.466-2.123,5.661-6.039,6.568,0.405,7.757L819.2,779.2l-8.388,3.6-3.194,6.547,1.759,4.521-1,5.18-5.73,5.379-4.733-3.744-2.363-11.507-9.8-10.917-2.955,7.365-9.927,3.03-8.478,2.783L757.047,801l-5.325,2.721-10.642-24.382-0.859-17.058-5.5-6.609-8.134-2.885-6.506-5.943-2.673-1.319,3.971-3.366,13.885-18.584-5.517-6.472,8.745-6.9,8.361-.632,1.759-2.205,4.967,2.6,6.561-9.639-3.009-6.3-6.224-3.167,7.5-9.089L755.9,667.1l3.827-7.99,1.477-3.346-23.132-2.336-0.928-2.783-11.879-7.866,2.981-6.094-12.724-3.1-4-3.916-0.028-5.593-5.276-1.614-0.158-8.23,5.448-9.68-5.434-9.55L687.424,586.3l-16.179,7.88-8.911-.859L660.39,598.8l-1.422,1.072-8.656.158-4.926,7.179-7.234.639-5.517,9.563-6.829,5.249L620.13,623l-2.617,4.383-2.137,2.94-4.094,1.168-8.532-4.005-5.675.859-1.209,5.743-3.1,6.156-7.3,1.731-7.337-4.15,4.926-12.655,6.926-5.558,8.87,0.254,3.14-11.789-7.811-5.3,1.786-10.889,5.208-15.183,5.153,2.5,8.643-15.224-1.408-.742,12.772-24.4,0.213-.728,6.169-11.549,9.838,3.215,8.45,3.511,11.851-2.391,0.364-.11,7.434-.24,3.971-2.8,15.018-7.887,6.726-15.795,6.967-9.1,2.817-.536,3.168-11.274,8.7-7.736-7.152-16.241,7.591-4.527,9.488-21.064,8.134,2.734,8.011-2.961,3.579,4.472,7.729-2.453,2.068,2.006-1.354-5.517-6.857-5.008,1.9-16.255,4.39,13.369,9.591-6.279,6.375-6.053-2.226-14.434,2-2.13,5.7,0.859-0.508-8.78,5.874-9.611,4.843-1.518,6.713,3.407,2.068,4.651,6.238-1.663,15.066-30.236,8.506,1.992,18.034,18.673,4.39,2.446,4.63,23.18-2.4,11.4,5.208,1.793,3.126,14.07-5.984,17.437-8.56-.426-10.319,17.931-3.861,9.083-6.444,5.008-5.056-5.283-16.681-2.144-4.713,9.378-2.253,6.018,11.879,3.463-16.413,9.55-5.221,1.415,6.348,4.514-1.1,7.523,14.627-9.034,5.448,0.928,2.453,8,7.97,2.109,2.226-1.752,3.153,3.222-1.5,2.013-4.156,7.77-0.522,11.975,7.014,12.352-5.366,12.531,10.587,7.372,15.54-8.849,11.041,4.9-2.927,13.514-1.8,14.688,0.721,1.292,2.886,11.13-1.745,8.416-1.759,2.274-5.592-.536-3.325,4.61,0.336,7.77,14.132,0.928,6.2,5.283,5.5,3.36-7.688,17.32-7.193-3.552-2.686.034,0.055,2.7-0.323,4.163-0.254,11.72-2.59,5.3,0.715,19.236-2.466.865-2.8,4.94,2.24,11.006-2.886,4.679-6.479,5.606-8.08,2.872Z" transform="translate(-21.564 -3.44)" fill="#06c" stroke="#000" stroke-width="2"/><path d="M645.392,607.209l-7.234.639-5.517,9.563-6.829,5.249-5.675.343-2.617,4.383-2.144,2.94L611.3,631.5l-8.547-4.005-5.675.859-1.209,5.743-3.1,6.156-7.29,1.731-7.337-4.15,4.912-12.655-11.164,3.614-15.712,7.11-4.7,5.421-7.742,3.366-10.9,12.978,5.689-.865,2.981,4.418,10.264,5.07,16.653,4.582,14.358,17.354-1.477,2.363,0.735,2.226,2.94,0.144,5.874-6.513-2.439-5.379,1.182-11.769,0.185-5.5,7.165,2.617,18.838,28.422,2.968,2.947,13.232,9.007L636,714.445l0.069,7.812,0.439,7.323-8.024.1-1.5,2.322,5.3,2.824,0.9,5.956-6.293,10.12-1.573,13.129-1.1,5.86,4.589,7.427,7.9,3.2,1.141-2.625,2.212-1.381,5.744,11.4,2.94,0.357,21.332-13.658-0.549-7.585,1.862-1.807,6.993-3.208,3.7-10.285,6.053,5.853,2.419-5.132,7.887-3.318,1.676,2.226,5.531-6.025,3.03,1.814,3.25-1.965,5.476,0.405,3.971-3.366,13.885-18.584-5.517-6.479,8.745-6.9,8.347-.632,1.759-2.212,4.981,2.6,6.561-9.639-3.016-6.3-6.211-3.167,7.5-9.089L755.9,667.165l3.827-7.99,1.477-3.346-23.132-2.336-0.928-2.783-11.879-7.866,2.968-6.1-12.71-3.092-4-3.916-0.028-5.6-5.276-1.608-0.158-8.23,5.448-9.68-5.434-9.55-18.652-8.718-16.193,7.887-8.911-.859-1.931,5.482-1.436,1.072-8.656.158Z" transform="translate(-21.564 -3.44)" fill="#ff8080" stroke="#000" stroke-width="2"/><path d="M307.317,60.3L295.095,58.46l-8.745,3.1L274.1,60.068,245.761,70.4l-5.166-2.762-12.669-7.695L190.621,70.037l-23.2-5.118L163.25,72.2l-3.731,4.844,1.635,8.993-5.057,11,7.124,4.6,0.687,8.732,3.463,4.706-7.378,3.38-10.965.879-4.335,3.291-4.054,7.963-11.446,9.591,9.982,4.054-1.017,23.922,5.1,3.195,13.631-5.5,17.567-.46,2.281,4.8-4.156,6.822,1.9,11.4-2.872,8.1,11.879,10.312L175.856,218.9l4.8,10.175-2.886.865-0.564,2.982,0.859,11.679-7.605,4.734-4.967-1.511-9.6,16.949-10.305-6.06-8.76-.694-2.377,11.83-8.725,2.363-1.182,5.654,8.279,3.03,2.267,5.565,4.94,3.394-2.363,8.43,12.978,10.051-5.558,1.559L133.8,307.615l-2.59,4.692-14.118-.11-0.522,5.826,12.9,11.027L117.4,344.37l-2.04,7.591-4.857,1.326-1.608,2.556,1.876,23.393-8.629-.989-2.144,1.972-6.547,15.925,0.6,9.357-8.519,17.017-4.9-2.377-4.789,2.625L74.369,428.2l-4.4,3.291,2.789,6.877-5.3,6.025-2.281,5.242L51.69,453.716l1.518,5.221-2.817,4.514,2.171,4.871,3.1,4.4-3.195,7.2L53.7,484.8l1.463,0.852,2.94,0.646,1.876,5.709-5.489,23.242-2.24,1.656-4.376-3.428-2.494,1.23,1.855,5.214-4.885,6.637-7.729-8.148-2.789.343,1.518,5.159,0.481,11.5-6.451,5.654-1.676,5.5-2.858.021,1.491,5.833L34.954,558l-4.6,10.587,2.535,5.338,8.629,1.745,5.606-2.363-0.66,8.842-4.39,7.351,5.221,7.014-0.577,8.7,0.563,2.838,2.817,0.556,6.252-5.922L61.2,592.267l5.221-2.1,2.027,2.082L57.783,608.3l-0.749,5.263,3.875,7.75-8.773,11.233,4.953,3.043,5.07-3.009L51.683,645.394l6.279,37.092,5.716,10.45L88.541,679.71l5.276,6.533,3.339-6.932,6.011-5.153,14.489,3.229,10.168-5.187,10.656,9.893,4.644-.708,11.446-2.054,6.066,6.444,2.185,8.182,2.59,1.409,5.544-1.958,7.605,4.273,0.646-2.748,5.29-1.752,16.193,1.511,3.043-17.2,4.857-10.766-13.74-16.172-1.223-5.64,5.867,1,2.617-5.325,18.172-9.893v-5.915l0.872-1.024,10.106,5.27,7.839,6.953,5.352-.351,7.825-15,2.83-.351,5.084,6.011,3.5,10.312,17.471-9.982,2.027,3.469,17.993-7.159,22.836,12.531,2.439,2.274,19.937-.275,6.156,6.2-2.48,8.176,6.431,2.178,5.874,15.973,17.313,7.406,4.816-3.992,6.629-2.1,1.985,3.428,4.6,13.459,4.761,14.111,10.869,10.058,4.871,6.884-0.777,8.381L430.9,728.9l7.9,0.749,3.517-7.152,6.7-12.669,10.01,2.982,2.94-8,8.45-11.542-3.532-17.361-1.917-4.2,6.121-12.943,5.125-1.779-3.476-7.331-5.448.124-5.434-5.689,3.3-4.363-3.676-6.884,1.381-2.26,5.166,2.446,7.3-15.355-1.594-9-7.234-9.708,0.392-8.856-7.619-7.461L462,574.375l7.784-7.578,6.733-12.9,10.374-5.112,7.1,3.71,4.995-1.456,5.166-2.721,3.861,3.139,0.9-5.139,7.585-6.856,19.539-12.36,8.162-1.669-1.635-17.279L547.6,505.1l5.757,5.757,5.854-9.694,14.207,14.421L573.8,506.7l9.543,6.994,11.6-.034,3.861,4.466,10.938,3.765,0.818,9.927,16.049,6.273,6.169-11.549,9.838,3.215,8.45,3.511,11.851-2.391,0.351-.11,7.447-.24,3.971-2.8,15.018-7.887,6.726-15.795,6.952-9.1,2.817-.536,3.181-11.274,8.7-7.736-7.165-16.241,7.591-4.534,9.5-21.057,8.121,2.727,8.011-2.954,3.579,4.472,7.729-2.453,2.068,2.006-1.354-5.517-6.843-5.008L751.2,410.6l4.4,13.369,9.584-6.286,6.39-6.046L769.351,397.2l2-2.13,5.689,0.852-0.495-8.773-7.839-4.328,0.831-5.936-3.463-4.747-2.645-1.388-5.839-1.182-4.253,4.143-5.633-.048-15.053,13.844-1.573,8.6-5.407-.055-7.248,4.218-9.756-18.241L719.8,360.706l-9.192,3.483-3.463,1.244-4.6-10.463-10.319-11.089-13.431-6.891-8.745-3.4,2.886-23.778-10.6,2.432-1.141,5.737-8.56,12.414L643.3,337.98l-5.956-.873-0.3-2.2-5.531.6-2.94-5.208-8.745-.68-6.307-5.943-8.506-1.91-5.517-2.308-3.366-4.967,5.5-16.708-14.6.6,1.085-11.789-2.295-1.91-14.7,8.285-1.113,5.922-4.774,3.689-14.8,1.7,1.635-2.515-9.888-10.99,1.408-5.345,4.253-3.792L548,273.469l4.136-7.179-4.15-3.256-2.309,1.745,2.673-8.162-3.558-17.072L537.414,236l-4.212,3.38-8.388,1.25,0.254-2.8-4.912-2.576,3.689-5.5-3.016-3.428,14.681-7.5,7.18-3.483,17.938-12.064,4.7-14.049-5.379-4.789-0.378.577-1.45-4.548-4.995-1.2-2.858-.928-4.012-7.234,0.481-11.851-4.8-10.958-8.293-.351-7.262-3.813,0.392-13.424-5.008-6.4-7.929-19.312-6.6-5.345L495.5,102.354l-10.4,20.8-13.3-9.714-2.659-4.782,1.972-5.228,7.591-4.026,11.3-16.262-5.3-10.209L478.231,66.7l-14.784-1.779-5.1,2.267-5.434-2.329-8.107-2.37L443.6,57.073l5.7-10.546,7.488-4.555-8.629-8.162-2.4-8.5-23.3,3.106-17.285-4.005-9.179-9.9-4.953-2.3-13.314,6.856-14.812-8.443-14.991.3-3-6.142-5.235,2.6-5.558-1.848L322.594,7.423l-13.94,14.022-2.563,5.325-8.491-.343,4.2,14.084,7.29,4.946,2.645,11.638Z" transform="translate(-21.564 -3.44)" fill="#f6e1b9" stroke="#000" stroke-width="2"/><path d="M255.131,620.269l-2.789.426L244.413,635.5l-5.366.426-7.729-6.87-10.092-5.366-0.859,1.072v6.011l-18.247,9.879-2.576,5.366-6.011-1.072,1.292,5.579,13.74,16.1-4.94,10.951-3.009,17.175-16.117-1.5-5.352,1.718-0.659,2.789-7.516-4.294L165.4,695.4l-2.576-1.5-2.144-8.162-6.224-6.444-11.377,2.144-4.507.646-10.731-9.879-10.092,5.153-14.6-3.222-6.011,5.153-3.435,6.87,3.435,8.375,15.671,13.74,5.579,13.527,1.292,5.8-10.951,13.74-1.718,11.164,0.213,10.951,2.576,1.072,0.646,5.579,2.363,1.718,8.375,0.646,4.734-3.009,0.646,13.088,5.153,1.292,4.727,15.025,9.879,5.153,12.882-3.435,1.931,4.081,4.507,3.016,19.539,1.5,3.648,4.294L185.818,834.5l7.729,8.162,2.789-.859,4.727-10.951,4.294-4.081,14.6-.66,7.729,4.294-5.366,6.671-2.144,11.164,1.931,5.572,12.236,8.169,17.6,0.2,8.162,8.389,10.518-1.3,5.366,5.366v4.94l3.854,3.222,4.094,3.435h8.588l16.317-6.87L309.9,890.53l-5.352,10.106,4.081,4.081,5.572-1.5,2.377,1.292-0.213,7.083,3.435,7.729,10.725,5.153-1.5,8.588,3.648,4.507,10.092,2.576,2.576,4.493-1.718,1.931,8.8,1.931,11.81-1.718,1.5,2.144,15.258,7.3L381.412,959l-5.366,5.352-2.137,7.3,10.951,9.66,16.317-4.727,4.294-6.011-1.072-5.366,4.081-1.5,1.5,1.931,9.447-4.507,6.657,6.224,8.8-.426,4.94-.859,6.87-5.8-1.292-5.8,10.305-.646L457,955.962l4.507-2.136,0.213-2.377,31.562-10.5,13.095-2.789L505.088,933l3.222-7.516,10.731-1.3,21.682,2.363,1.917,1.518,28.779,4.294,0.646-.859-4.94-1.718,3.648-9.447h8.787l6.011-6.451,12.023-1.5,4.507,5.153,5.153,7.3,2.789-.213,2.363,5.153,13.953,3.435,1.5,2.363-2.137,8.162,3.222-3.435,1.718-7.069,8.162-5.153,13.527,0.419,4.294-3.222,8.162,1.931,10.092-9.014,6.451,3.016,5.153-10.305,2.363-.859,3.861,3.435,5.8-7.3,19.312,7.516,9.66-7.942,1.931-7.516,2.363-.859,11.164-2.363,3.435-7.3L754.565,886l-0.659-3.009-24.465-9.447v-0.213l4.94-16.53,9.014-10.518,1.718-1.931,4.94,0.426,7.942-11.377,4.94-2.363,7.729-.213,8.162-3.861,2.144,2.576,8.375-.859,4.727-2.136,3.222-6.87,3.861-4.294,1.5-10.951-4.727-3.861-2.363-11.377-9.66-10.958-3.009,7.3-9.886,3.009-8.588,2.8-7.29,9.66-5.366,2.775-10.731-24.465-0.859-16.962-5.366-6.664-8.162-3.009-6.444-5.8-2.789-1.5-5.366-.213-3.222,1.931-3.222-1.931-5.366,6.011-1.718-2.144-7.942,3.222L688.22,757.4l-6.011-5.8-3.861,10.305-6.87,3.222-1.931,1.718,0.646,7.729-21.469,13.534-2.789-.213-5.8-11.377-2.144,1.292-1.292,2.576-7.942-3.222-4.507-7.3,1.072-5.8,1.718-13.314,6.224-10.092-0.859-6.011-5.366-2.789,1.5-2.363h7.942l-0.419-7.3v-7.729l-4.094-7.729-13.081-9.014-3.016-3.009-18.893-28.34-7.083-2.576-0.2,5.359-1.3,11.817,2.576,5.359-6.011,6.664-2.789-.213-0.859-2.363,1.518-2.37-14.4-17.175-16.516-4.727-10.305-4.946-3.016-4.5-5.572.859-0.426.206-4.507,10.1-13.74-.859-3.861,3.861-2.144-10.518-12.023,5.153-3.435-4.081-4.493,2.789-2.576-1.072-1.518-5.366-7.929-.859-5.153,1.718L465,671.735l1.931,4.081,3.635,17.388-8.588,11.6-3.009,7.935-9.879-3.009L442.431,722.4l-3.648,7.083-7.729-.646-13.527-1.292,0.859-8.375-4.94-6.87L402.5,702.205l-4.733-14.166-4.507-13.314-2.137-3.435-6.657,2.144-4.733,3.861L362.339,670l-5.8-16.1L350.1,651.75l2.576-8.162-6.224-6.224-19.965.213-2.363-2.144-22.974-12.669-17.821,7.3-2.144-3.435-17.388,9.879L260.145,626.2ZM90.893,767.546l-21.9,6.444-17.175-2.576L50.1,773.344l2.789,7.729L48.38,784.3v2.789l4.081,3.854,6.011-6.011,6.657,9.014,7.3,4.94,5.8-6.444,4.294,3.648,4.734,0.859-0.66-5.8,7.083-9.879,1.072-9.014Z" transform="translate(-21.564 -3.44)" fill="#06c" stroke="#000" stroke-width="2"/><text transform="translate(272.693 415.142)" font-size="183.432" font-family="DejaVu Sans" font-weight="700">4</text><text transform="translate(694.316 628.49)" font-size="155.336" font-family="DejaVu Sans" font-weight="700">2</text><text transform="translate(492.201 613.096)" font-size="113.667" font-family="DejaVu Sans" font-weight="700">1</text><text transform="translate(616.399 712.833)" font-size="113.667" font-family="DejaVu Sans" font-weight="700">3</text><text transform="translate(356.749 894.001)" font-size="183.432" font-family="DejaVu Sans" font-weight="700">5</text></svg>