<svg xmlns="http://www.w3.org/2000/svg" width="946.291" height="939.487" viewBox="0 0 946.291 939.487"><title>Députés sortants de la Nièvre en 2017</title><path d="M290.346,455.891l-3.15,5.618L267.585,474.34l-2.148,9.97-8.279,14.738,0.441,6.291-3.927,4.6L252.9,525.183l2.877,5.57-9.577.954-2.909,9.722-10.162-1.515-11.02-7.934L211.5,540.7l2.052,9.184-6.339.3-1.266,2.925L200,551.133l10.3,20.2-3.847,16.077-7.75,5.947,2.444,1.843-0.753,8.736,2.268,12.462,6.171-.577,6.764-.689,10.611-8.5,6.748-1.282,15.2-25.061,1.595,8.936,12.9,3.462,5.963-2.893,6.716-3.3,21.775-13.552,4.432-8.72,12.807,4.825,10.178-.5,4.272,5.274,16.7-2.845,3.1-1.395,7.638-14.883L349.067,539.3l3.382-12.743,19.787,0.265,9.177-3.943,11.444-4.48,3.038,38.148,4.616,4.713,15.211,6.179,3.911,9.177,13.007-.329,6.139,2.581,1.411-3.038,5.177,3.117,12.334,0.377,4.744,3.534,1.547,9.738,7.389,6.916-0.8,6.123,9.177,3.975,4.977-4.713,9.817,2.3,6.356-2.148,3.9,8.8-2.629,5.795,5.009,3.807,0.737,6.435,15.716,3.534,9.2-3.005,15.748,4.961,9.786-1.507,5.522,7.854-7.181,7.782-5.978,12.519-15.948,5.995,8.343,10.3,9.313,3.614,1.114,6.684-3.414,9.144-2.821,12.366-2.925,1.266-3.975,12.118-4.272,4.48-14.979-7.886L508.8,725.413l-17.343,1.162-4.087-4.945-6.2-.529,6.484-22.584-10.771-8.111-13.1,2.709L446.939,691.5l-3.086-1.443-1.723-6.468-6.275-2.517,0.857-3.286-13.5,8.014,4.135,11.413-0.144,5.466-6.371,5.947-5.778,8.736-6.139-.144L401,706.251l0.361-6.852-3.807-5.45-9.393,1.787-10.491,6.916-6.452.216-13.168-9.048-1.907-2.693,2.413-6.011-8.848,4.168-12.318.641-8.64,9.577-13.665,7.966-8.752-5.522-6.556,7.654-1.443,9.986v6.868l6.027,12.118-3.879,5.65-8.92-4.48L270.07,722.464l-18.834,7.87-4.384,9.489-10.363,9.265L220,744.408l-5.57,4.087-6.339-1.331-8.343-5.338-3.678-12.254-6.764-.377-10.787-8.183-6.275,2.549-3.038-1.515-1.675-7.405L160.1,702.9l9.769-26.52,1-2.693,8.343-14.963,0.722-6.8-5.274-4.24-5.177-12.446,0.922-20.2,5.682-15.187,0.753-17.608-7.59-16.173-6.572-2.084-21.615-15.4-2.364-6.5,2.549-10.018,6.027-12.727L146.5,505.146l-0.16-1.25-1.17-20.148-2.268-2.677-5.289-8.687,1.443-16.526-2.284-2.829-12.4-41.851-2.661-5.842-10.082-22.456,1.875-24.54,1.082-6.147-6.7-10.347L86.1,326.578,73.67,310.814,66.61,303.3l-9.2-4.456-11.6-5.3L39.865,282.4l-2.348-13.3,6.5-12.246,7.341-11.525,19.908-44.752,0.905-13.047L79.3,176.8v-6.636l-8-18.193-0.441-1.907L66.008,137.72,55.862,125.346,52.608,111.4l-1.923-8.848L40.506,89.778,24.886,74.807l-4.432-9.762,7.8-6.524,8.143,5.45,6.668-6.724,3.414-.048,9.593-1.643L64.2,50.243l3.35-6.42,30.214,8.671,7.574,19.2-1.3,6.941L107.6,99.218l-4.168,5.722,1.146,6.235L115.1,117.4,117,119.166l-2.068,4.632,2.709,5.866,9.97-2.845,6.716,1.226,9.489,21.919,10.018,0.93,9.441-9.056,5.947,3.47L179.46,146.1l4.151-9.225,6.684,0.5,16.173,11.46,3.927,5.21L202.349,180.2l5.522,3.983-2.46,5.826-9.625-3.735-13.536,4.5-28.379,2.052,12.022,38.926-0.641,3.43-10.411.168-1.707,6.083,4.223,4.656,7.486-6.852,20.493,3.847,2.613,13.7,5.5,8.9,17.327,11.365-5.931,3.11L194.31,311.5l13.713,2.685,5.338,4.287,10.491-.12,4.865,15.989,2.068,10.21,16.67,4.392,14.386-9.329,3.382,0.946,1.819,9.738,3.334,1.114-4.223,3.062-3.823,16.566,3.022,0.4,0.841,5.866,8.391,3.446,9.048,9.128-4.055,11.14,7.7-5.931,20.941,9.249-8.126,6.387,17.952,33.092-9.393,2.468-7.325,6.8-0.457,6.316Z" transform="translate(-19.23 -20.585)" fill="#ff8080" stroke="#000" stroke-width="2"/><path d="M807.641,625.988l-3.238-.529-0.593,10.331,9.265,4.151,3.446-.441,9.5-10.018,6.435-1.971,11.38,24.884-1.892,6.259-7.7,6.508,3.614,9.2-1.218,6.435-4.432,4.9,0.184,6.684,5.193,18.457,16.029,4.336,4.6,4.913,13.809,19.427,3.839,13.24-6.78,1.771L840.1,773.837l-3.583,4.32,1.923,2.364,7.574,9.128,0.938,6.059,2.428,24.155,0.1,6.139-4.664,7.846-5.995-.689-5.434-8.455-13.192,9.377L807,833.815l-21.286,9-1.218,3.166-2.4-.545-7.077,11.629-13.224,3.6-3.519,9.265-22.2,8.159-4.4,4.929-8.752-4.023-2.861,5.65-12.695,1.627-5.85,2.925-5.21,11.757-7.293,6.291-12.631-.938-9.1,2.741L664.016,892.7l-6.884-11.365,2.645-6.107L629.114,859.4,605.5,864.5l-9.177,4.744-20.036,4.3-9.016-4.865-5.322,2.861-7.229-9.657-5.025-4.384-13.5,1.892-6.508-11.052-9.97,13.384,12.15,23.931L521.632,894.1,519,888.257l-5.514,6.965-14.434-6.468,0.817,16.75,7.469,15.468-3.823,5.354-4.384,5.137-3.422-.024-5.762-8-9.473,2.252-22.913,24.516-0.112,6.7-2.428,2.148-18.938-.737-2.877-6.339-6.123-3.19,3.069-1.426-0.08-6.588,4.777-4.729L434.838,926l-2.877-5.795L420,915.162l-1.25-6.54,2.989-9.705-13.352,1.114-16.75-3.775-6.356,2.549-2.413,9.938-7.325,11.549-6.484,2.252-6.011,3.55-20.46-3.583L333.359,908.2l-4.4-12.943-9.986.737-0.28.168-9.834-.954-5.963,8.2-17.423,10.219-3.19.905-1.771,6.42-7.293,6.812-8.031,4.368-25.213-12.15-12.382-17.127-1.531-1.987L213.857,883.7l-16.606-5.65-14.45-4.568L159.793,853.57l-8.279-14.931-3.727-21.975,4.777-14.634,12.647-15.452,0.577-6.42L163.127,773l10.1-13.448-3.943-37.571,3.038,1.515,6.259-2.549,10.787,8.183,6.764,0.377,3.678,12.27,8.343,5.338,6.339,1.314,5.57-4.071,16.486,4.664,10.363-9.265,4.384-9.489,18.85-7.87,21.478,17.279,8.92,4.5,3.879-5.65-6.027-12.118v-6.868l1.443-10,6.556-7.654,8.752,5.522,13.665-7.966,8.64-9.577,12.318-.641,8.856-4.151-2.428,5.995,1.907,2.693,13.168,9.064,6.452-.232,10.491-6.9,9.393-1.8,3.807,5.45-0.361,6.852,7.918,10.972,6.139,0.144,5.795-8.736,6.356-5.931,0.144-5.466-4.135-11.413,13.5-8.031-0.857,3.3,6.275,2.5L443.9,690l3.086,1.443,16.862,1.627,13.087-2.725,10.771,8.111-6.468,22.6,6.179,0.513,4.087,4.961,17.343-1.162,12.366-5.322,14.979,7.886,4.272-4.48,3.975-12.118,2.941-1.25,2.8-12.382,3.414-9.144-1.114-6.684-9.313-3.614-8.343-10.283,15.948-6.011,5.978-12.519,7.181-7.766-5.514-7.87-9.8,1.515-15.748-4.961-9.2,3.005-15.716-3.55-0.722-6.42-5.025-3.807,2.629-5.81-3.879-8.8-6.371,2.148-9.817-2.3-4.977,4.729-9.177-3.991,0.8-6.123-7.389-6.916-1.547-9.722-4.744-3.534-12.318-.377-5.193-3.117-1.411,3.022-6.139-2.581-13.007.345-3.9-9.184-15.227-6.171-4.616-4.713L392.9,518.33l-11.444,4.5-9.177,3.943L352.49,526.5l-3.382,12.727,7.157,15.387-7.638,14.9-3.1,1.395-16.7,2.837-4.272-5.257-10.178.489-12.807-4.808-4.432,8.7L275.36,586.428l-6.716,3.3-5.963,2.909-12.9-3.462-1.595-8.936L233,605.285l-6.748,1.282-10.6,8.5-6.78.689-6.171.577-2.268-12.462,0.753-8.72-2.444-1.859,7.75-5.947,3.847-16.061-10.283-20.2L206,553.047l1.266-2.925,6.323-.3-2.052-9.184,10.611-8.7,11.02,7.934,10.178,1.507,2.893-9.722,9.577-.938-2.877-5.586,0.786-15.227,3.911-4.616-0.441-6.275,8.295-14.754,2.132-9.962,19.611-12.831,3.15-5.626,10.515,3.526,0.441-6.316,7.341-6.8,9.377-2.468-17.936-33.092,8.126-6.387-20.941-9.249-7.7,5.931,4.055-11.14-9.048-9.136-8.391-3.438-0.841-5.874-3.038-.4,3.839-16.557,4.223-3.069-3.35-1.106-1.8-9.738-3.382-.946L247.485,348.9l-16.67-4.392-2.068-10.219-4.865-15.989-10.491.128-5.338-4.287-13.713-2.685,10.515-31.344,5.947-3.11-17.327-11.365-5.5-8.9-2.613-13.7L164.874,239.2l-7.486,6.852-4.24-4.656,1.723-6.083,10.411-.168,0.641-3.422L153.9,192.8l28.379-2.06,13.536-4.5,9.625,3.735,2.444-5.826-5.514-3.983,8.047-26.151-3.943-5.21L190.32,137.35l-6.684-.5-4.168,9.225-10.219-.8-5.947-3.462-9.441,9.056-10.018-.938-9.5-21.911-6.7-1.226-9.97,2.837-2.709-5.859,2.052-4.632-1.892-1.763-10.515-6.227L103.46,104.9l4.168-5.722L104.045,78.6l1.314-6.941-7.574-19.2,3.19-6.4,8.984-5.762,10.05,1.386L137.553,52l9.409-2.773,5.193-4.528,13.76-3.735,9.048-10.908,10.94-7.5,6.748-.946,9.3,4.071,5.914,5.049,2.2,2.781-4.881,9.192,4.552,27.882,6.211-2.3,3.069,1.595L227.706,80.6l8.752,5.538,2,6.556,9.329-1.98,4.929-4.159,12.519,0.4,20.789,33.837,10.427,1.242,6.075-3.526,10.507-.048,7.2-12.086,7.486,11.444,6.748-1.09,20.132,12.31,2.629,2.2-1.018,6.8,5.746,2.837-0.513-6.972,2.46-2.5,11.18-7.5,10-1.314,7.261-11.917,0.184-6.956,9.625-2.164,4.616,0.834,13.616,0.537,9.769-2.973,2.02,6.468,5.538,3.43,3.254-.722,11.132,7.341,6.468,0.072,4.4-27.674-1.835-39.062,4.3-.89,8.143,10.475,2.645,23.5,8.078,5.842,10.491,7.245,7.293,10.916,15.884,4.768,3.053,0.729,0.361,3.134-3.254,11.805,0.3,1.042,4.865,20.8,3.134-.384,3.631,4.192,8.263-8.543,6.748,0.377,2.581,9.457,6.572,1.763,3.727-1.395,14.6,7.325,12.807-.729,2.036,2.693,1.347-.384-4.023,11.717,1.234,2.853,5.9-1.122,12.005,7.453,7.405,12.15,1.611,7.63,6.652,7.413,9.786,2.661L652.235,208l1.378-3.142,5.931,1.042-1.082,9.265,2.661,5.674,9.954,0.673,9.184,9.337,9.753-1.683,0.753-10.09-4.584-8.928,4.175-5.081,6.812-.128,2.236-2.572,6.748-19.034-0.3-8.078,8.9,1.266,7.574,5.562,3.005-1.01,1.459,6.484,5.554,3.583,2.172,9.577-9.5,10.459-12.254,6.572,6.78,26.351,10.94,1.3,14.522-16.261,19.851,2.236,3.086-1.4,5.538-11.893,6.764,7.293,7.422,11.26-5.041,8.808,6.091,31.016,6.5,12.478,3.478-.232,9,10.531,13.512-.184,3.3-1.082,4.384-12.991,2.364-2.565,3.069,1.659,5.586-12.158,13.256,1.322,6.4-2.532,13.12,3.623,6.764-2.14,0.657,3.31,3.286,0.649,7.277-6.908,5.682-12.158,6.091-2.444,2.364,2.428-12.462,18.722-0.857,6.139,4.52,9.04-10.234,13.1,5.778,3.55,5.914-3.51-12.222,14.947,7.325,43.269,6.668,12.19,29-15.428L934.4,366.7l3.847,9.7L956.5,392.527l6.6,15.676,1.347,6.772-12.743,15.932-1.835,13.1,0.232,12.663-10.6,6.78-5.57-3.583-2.845,1.723-25.734,7.437-19.8-3.077-2.2,2.492,3.27,8.8L881.332,481l0.048,3.326,4.808,4.5-1.362,4.192-11.116-7.053-3.382.473,1.459,3.11-3.446,5.57L848.3,491.424l-3.662,5.522-4.32,5.169,1.739,16.405-7.437,7.141-0.986,6.8,8.607,5.65,13.384,16.245-9.16,18.722,0.705,6.916,1.331,10.05-2.284,6.356-14.137,13.7Z" transform="translate(-19.23 -20.585)" fill="#ff8080" stroke="#000" stroke-width="2"/><text transform="translate(219.945 682.605)" font-size="125.938" font-family="DejaVu Sans" font-weight="700">1</text><text transform="translate(467.56 435.743)" font-size="213.981" font-family="DejaVu Sans" font-weight="700">2</text></svg>