<svg xmlns="http://www.w3.org/2000/svg" width="970" height="766.041" viewBox="0 0 970 766.041"><title>Députés sortants de Saône-et-Loire en 2017</title><path d="M594.769,945.407l-0.8-4.391,6.825,0.76,1.668-4.317-8.128-8.394-6.188-3.28-1.927-1.736-7.745.4-3.773-3.533-1.773-9.771L577.4,912.2l2.68-3.885,3.773,3.125,3.669-1.655-0.111-11.438-2.217-.13-4.922-7.344-0.228-5.91-7.177-1.668-8,6.01-5.923-4.947-7.622,1.291-1.544,7.214-9.857,8.591,2.557,7.177-1.748,4.836-16.83-2.958-7.14-6.67-0.685-9.87-0.9-2.186-6.331-.914-5.027,8.394L502.9,906.54l-4.441,2.785L480.6,911.69l-8.152-15.836-6.825,2.785-9.073-8.82-9.833,2.186-1.989-4.824-4.521-2.594,3.73-8.326-10.012,2.39-7.165-2.582-2.823-4.428L424,863.837l-9.783-15.212,10.444-7.782,7.047-11.111,15.972,11.617,4.545-2.4-0.685-10.327,5.911-5.367,0.883-5.275,9.641-12.087,0.377-5.355,1.353,2.316L482,807.689l5.886-5.515,0.772-9.913-3.39-9.8,1.192-7.658,4.719,2.446,2.483-.939,6.6-7.7,1.736-4.787-4.812-2.026,2.594-15.15-15.261-1.013L470.277,739.6l-2.205-3.113,12.34-4.49,4.669-6.213,5.25-.883,5.151-5.824,0.871-6.5-4.052-2-2.946-13.606,2.088-1.544,12.859,1.038,2.545-11.414,1.136-2.23,2.446,0.519,2.618-16.3-0.1-.278-1.167-6.948,3.632-5.861,21.437,4.959,1.167-3.934,2.989-1.723-0.939-1.723,4.947-.809,5.454-4.706,3.341-6.306-0.179-4.762,3.934-2.125,3.694,2.958,6.43-2.909,5.948,5.213-2.328,10.592-1.229,10.111,10.24,7.974,4.453,2.508,7.288,6.331,6.114,1.112,10.036,7.115,3.44-3.774,7.01,4.886,2.483,3.656-4.089,10.833-2.705,3.212,2.341,3.86,11.47,5.065-0.9,10,12.693,0.086,4.187-1.2,4.187-5.91,1.748,7.1,2.446,0.1,4.49,2.112,10.747-4.354,6.01,2.724-2.186,9.505-14.15,3.354,3.175,4.706,1.544-2.137,16.67,7.529,5.2-.3,12.2,4.787-0.05,13.681L685.66,776.117l-0.809,2.137-0.581,3.063-0.13,8.394-1.494,7.671-0.253,11.024L674.9,822.1l-4.33,7.023-3.749,5.9-3.934,11.933,0.846,7.263-0.642,12.717-5.354,10.845-4.354,9.394-3.378,17.553-5.25,8.313-2.977,8.239L640.4,933.729l-3.922,6.442-1.519,3.885-1.217,3.341-1.457,9.58-0.216,4.972-5.886,8.288-0.47,10.135-2.471-.315-6.454,1.062-6.633,1.674-11.29-4.509-2.446-3.706-1.519-9.493,2.279-6.862,5.176-4.416Z" transform="translate(-16.813 -230.388)" fill="#ffc0c0" stroke="#000" stroke-width="2"/><path d="M76.614,655.247l-7.85-1.278-3.218-4.027,5.138-9.2,0.241-2.681-3.934-3.594-3.749-3.521L60.9,623.588l-2.619-5.126-0.13-2.279-1.8-5L42.835,602.8l1.353-7.566-9.073-4.212-2.267-12.618-7.09-2.483,0.037-12.785-7.832-12.8,3.484-6.559,5.559,7.442,4.1-2.2,6.961,3.749,15.441-3.317L60.58,545.8l18.189-3.934,23.643,12.2-2.038,4.706,5.305,8.758,2.5,12.593,7.01-2.112,9.734,0.723,2.569,15.125,10.679,6.85,2.186,4.694,4.886,1.075-1.9,14.236-3.378,6.479,5.1,7.356,13.477,2.088,8.381-12.241,4.9,0.784,6.572,7.591,7.356-2.038,0.9-7.683,3.545-6.9,6.355-3.737,5.719,7.782,2.125-4,1.532-5.015,31.511-12.822,15.274,2.569,6.646,3.9,9.721-3.113,6.065-8.19,1.686-7.554-1.9-4.861,3.934-3.317,7.239-3.218,0.648-5.281,2.705-9.87,4.354-1.964,5.305,5.491,1.328,7.7,6.176,4.558,2.606-.29,7.683-.951,2.606,4.62L319.384,589l1.1,2.446,2.668-.025,4.57-.155,3.86-7.671,4.317-1.532,12.112,4.787,31.3,4.546,2.137,4.848,2.656-.049,6.047,7.177-2.68,3.934,0.278,6.683-0.605,5.1-12.97,12.075,1.3,2.217,11.111,2.545,0.47,2.279,27.176,3.354,6.9-7.622,7.09-13.754,4.367-2.569L426,614.144l-6.213-7.782,14.718-1.013,16.083-8.251,0.241-5.077-3.718-7.059,2.3-4.682,4.367-2.378,4.861,1.63,12.556-2.378,7.022-1.8,2.545-9.036,6.837,6.707,7.263-.29,15.058,2.162,0.988,13.705,3.471,3.835,5.354,0.482,3.773,2.712-2.964,10.938-0.42.642L524,610.2l-0.228,4.509,5.67,13.52,5.176,6.263,3.959,8.48-0.544,7.1,1.927,1.458,0.939,1.723-2.989,1.723-1.167,3.934-21.437-4.959-3.632,5.861,1.167,6.948,0.1,0.278-2.618,16.3-2.446-.519-1.136,2.23L504.2,696.467l-12.859-1.038-2.088,1.544,2.946,13.606,4.052,2-0.871,6.5-5.151,5.824-5.25.883L480.306,732l-12.34,4.49,2.205,3.113,14.237,6.047,15.261,1.013-2.594,15.15,4.812,2.026-1.736,4.787-6.6,7.7-2.483.939-4.719-2.446-1.192,7.658,3.39,9.8-0.772,9.907-5.886,5.528L469.6,802.87l-1.353-2.316-0.377,5.355L458.232,818l-0.883,5.275-5.911,5.367,0.685,10.327-4.545,2.4-15.972-11.63-7.047,11.124-10.444,7.782,9.783,15.212-0.062,7.807,2.823,4.428,7.165,2.582,10.012-2.39-3.73,8.326-1.328,4.886-9.82.253,0.673,2.52-4.379,6.392L424,906.076l0.377,5.886L419.767,926.3l-1.433,1.328,3.187,6.559-2.835,8.987,0.976,4.478,0.167,5.077-7.152,2.712-6,8.3L412,972.335l-1.414,2.2-6.454,1.254-6.238-3.471-6.164,4.187-4.33-2.39-5.367,10.3-2.415.086-4.706-2.365-6.609,3.786-4.113,9.468-15.354-.76-2.378-7.035,2.5-.179,4.466-5.935-1.976-7.1L344.73,971.6l-9.87,7.467-0.834.568-2.847-5.67-7.023-7.115-8.9,4.441-2.267-1.137-0.037,7.782,1,2.446-4.521,2.23-18.275-1.748-4.984-1h-0.241l-0.4-2.52-15.113-13.5-10.642,5.528-8.406,3.354-3.984-1.3-5.318,5.707-9.808,6.806-1.927,1.8-4.959-1.847-15.5,1.655-8.937-15.033,0.568-7.622-3.885-2.378-15.212-2.532-10.024,1.76-4-3.063-10.16-5,3.873-9.388-0.062-7.782,5.262-5.138,0.71-12.717-2.619-10.16-2.217-1.445-3.632-6.794,4.91-6.306,15.564-2.329,8.517-5.67v-1.458l0.617-10.432,10.555-1.038,7.658,2.063,10.951-7.214-5.367-.13-4.57-.784,0.914-16.781,2.186-14.959L206.4,821.985l-2.254-9.66,5.466-7.442-1.76-6.72-0.266-2.44,5.874-4.138-3.162-9.06,7.035-2.681,0.846-2.446-3.545-6.744,2.112-4.719-1.482-4.694-10.314-6.923-2.483-4.249-4.824,1.192-6.769-.617,3.088-9-12.544-.253-9.326-3.946-7.1,3.341L162.8,745.6l-3.267,3.453L145.2,742.368l-2.545-4.509,1.8-13.05L139.9,722.8l-4.9,1.822-0.408-.111-2.582-4.1,3.23-4.249-4.858-5.8-13.254,8.406-4.719.7-4.391-5.861-7.226-.772-1.519-4.836-3.946-3.243-7.6,2.149L80.419,704.3l-4.811-6.263,0.834-5.052,3.533-4.466-0.29-12-0.747-6.053Z" transform="translate(-16.813 -230.388)" fill="#ffc0c0" stroke="#000" stroke-width="2"/><path d="M400.626,441.734l-5.608,11.216,3.508,2.705-18.238,3.088-12.871-2.681-2.242.9,0.086,7.189-2.242,4.225,1.834,4.478-1.192,14.261,5.781,17.189-13.415,9.616,2.192,4.237,1.038,13.754-10.821,7.819L351.9,554.76l-4.8,9.456-0.315,5.318-10.531,7.381-0.34,5.114L331.6,583.56l-3.86,7.671-4.57.167-2.668.012-1.1-2.44,0.13-10.432-2.606-4.62-7.683.951-2.606.29L300.46,570.6l-1.328-7.7-5.305-5.478-4.354,1.952-2.705,9.882-0.648,5.281-7.239,3.212-3.934,3.329,1.9,4.861-1.7,7.541-6.053,8.19-9.721,3.113-6.658-3.9L237.45,598.32l-31.524,12.822-1.519,5.015-2.125,4-5.719-7.782-6.368,3.737-3.533,6.9-0.9,7.7-7.368,2.038-6.559-7.591-4.9-.8L158.548,636.6l-13.464-2.088-5.1-7.356,3.378-6.479,1.9-14.236-4.886-1.062-2.186-4.706-10.679-6.837-2.569-15.125,5.62-4.861,4.015-9.048,4.509-2.254,9.783-1.266,2.2-4.342,6.744,3.088,3.391-3.786,17.114-6.287,2.705-7.152,10.2-2.773,5.441-8.949,1.847,0.408,0.939-2.427,16.417-6.948,10.16,0.216,10.166-7.226,4.2,6.516,4.62,0.519,3.582-6.047-0.074-4.719-1.871-18.615-0.71-4.669L240.1,481.04l-1.495-1.81,2.773-3.341,22.327-14.873,5.238-1.365-2.964-10.215-10.642-14.959-3.545-3.8-12.352-3.329-3.99-14.236-0.155-5.138,3.428-3.774,0.927-4.959-2.785-7.09,5.935-5.015,1.458-4.836-8.77-19.171-4.947,1.507-7.337,7.72-2.656.34-7.14-3.187,0.469-7.961,2.5,0.408,18.807-12.223,10.895-10.555,1.76-4.9-1.025-7.733-0.544-5.342,7.059-14.415L243.013,294.27l-6.633-4.354,0.76-5.25,5.731-5.491-1.34-12.643,3.329-3.99,2.822-4.256,15.441,2.86,2.656-4.3-1.124-2.39,2.606-.365,8.567,5.429,1.05-3.23,5.454-5.33,5.861,8.1,6.553,4.4,5.342-5.719,3.91,3.23,4.237,0.747-0.642-5.2,6.355-8.838,0.883-8.165L311.5,235.3l2.192-1.328,4.3,2.761,8.153-5.225,2.353,0.982,0.519,5.1,2.112,1.433,7.541,0.76,4.317-2.724,0.568,11.71,4.546,1.192,4.249,13.5,8.869,4.645,11.655-3.125,1.7,3.718,4.039,2.748,17.553,1.34,3.255,3.835-2.705,18.912,6.973,7.275,2.545-.821,4.162-9.857,3.91-3.521,13.186-.673,6.985,3.9-4.824,5.985-1.939,10.1,1.581,4.91,11.025,7.381,15.824,0.2,7.442,7.43,9.468-1.161,4.824,4.959,0.025,4.428,3.292,2.884,3.669,3.15,7.85-.111,14.545-6.1,1.025,10.086-4.762,8.962,3.694,3.594,5.009-1.18,2.038,0.988-0.2,6.454,3.113,7.035,9.641,4.478-1.266,7.77,3.255,4.076,9.1,2.4,2.291,3.946-1.674,1.723,7.949,1.736,10.71-1.495,1.291,1.964,13.705,6.442,0.482,2.532-4.935,4.922-1.952,6.454,9.975,8.746,14.681-4.212,3.73-5.429-0.927-4.836,3.737-1.39,1.316,1.686,8.492-3.885,5.886,5.5,8.06-.4,4.441-.834,6.047-5.065-1.062-5.188,9.141-.735,1.3,1.964,3.91-1.822,0.216-2.174,28.441-9.505,11.71-2.557-1.1-4.607,2.86-6.646,9.629-1.241,19.6,2.137,1.643,1.365,25.829,3.922,0.648-.846-4.429-1.47,3.243-8.48,7.85-.124,5.584-5.781,10.654-1.377,4.052,4.756,4.682,6.467,2.557-.155,2.174,4.657,12.365,3.039,1.377,2.162-1.884,7.337,2.977-3.014,1.47-6.392,7.442-4.682,12,0.365,3.885-2.8,7.442,1.655,8.937-8.153,5.886,2.681,4.533-9.122,2.186-.858,3.428,3.212-2.125,4.669,5.25,11.7-0.784,5.089,6.164,3.644,2.631,12.223-3.73,3.3-4.429-.556,2.606,6.621-7.72,6.343-8.758-9.647-0.951-7.566-11.414,6.238-5.281.1-4.441,9.505,0.507,4.922L820.943,428l-7.529,12.389,0.661,4.4,7.343,0.63-6.263,16.225-27.781-3.026-7.393-2.643-4.719,8.116,3.761,8.1-8,3.378-3.8-9.907-9.036-12.7-5.213.432-6.973-3.786-5.491-3.063-7.325,15.731-6.874-2.822-4.6,2.279,0.4,9.06-1.445,4.787-5.25,5.392-3.076-4.329-1.655-10.215-12.328-4.249-7.6,1.7-8.128-6.695-7.177-11.161-4.533-2.761-4.558,2.557-0.34,13.013-3.835,6.911-2.631-.179-7.393-2.724-3.014-7.418-0.648,9.647-7.1,2.088,0.278,2.508-4.774-.2-3.533,3.267,1.748,6.85-1.062,7.381,4.416,3.415-3.934,3.2-1.908-1.76-1.037,2.378-0.241,7.745,3,3.9,0.408,2.606-6.769,8,2.922,6.769-4.33,5.719,1.674,4.873,2.316,1.1,1.519-2.075,7.986,6.139-7.368,7-4.5.124-3.62,3.051,1,7.1-8.048,8.912L622.066,571l-4.354-.3-12.328-5.793,1.7-6.368-18.67-2.39-8.6-5.608,1.939-5-1.76-12.581-16.287-.927,0.951-2.341-5.861-7.912L547.186,523.2l-3.823,1.507-5.225-8.77-26.212,11.111-4.533-10.685-5.8,3.508-2.038-1-2.192-1.149-7.5,6.318-3.718,1.025-17.948,3.73-15.367-14.236-2.051-1.643L438.243,515l-9.734-4.6-5.658-5.793-1.618-5.009,3.669-13.773-4.873-1.05-0.976-2.378,2.026-7.43L432,465.013l-7.85-6.886-2.39-9.938-7.541-1.569-7.85-10.179Z" transform="translate(-16.813 -230.388)" fill="#ff8080" stroke="#000" stroke-width="2"/><path d="M857.625,359.992l-5.213,6.559-2.125,4.811,5.213,11.58-0.772,5.225,6.176,3.669L863.412,404l-3.669,3.28L855.3,406.7l2.705,6.553-7.72,6.368-8.881-9.647-0.964-7.529-11.389,6.176-5.213.191-4.453,9.456,0.593,5.015,0.951,4.632L813.4,440.265l0.581,4.441,7.343,0.581L815.151,461.5l-27.793-2.9-7.343-2.705-4.812,8.1,3.86,8.1-8.1,3.471-3.669-10.036L758.218,452.8l-5.225.581-6.948-3.86-5.584-3.088-7.343,15.824-6.757-2.9-4.632,2.316,0.383,9.073-1.353,4.824-5.4,5.4-3.088-4.441L710.723,466.3l-12.352-4.249-7.529,1.736-8.3-6.769-7.14-10.987-4.441-2.909-4.632,2.508-0.383,13.125-3.86,6.948-2.508-.191-7.337-2.705-3.088-7.529-0.772,9.647-6.948,2.125,0.191,2.508-4.824-.191-3.471,3.28,1.736,6.757-0.964,7.529,4.249,3.28-3.86,3.28,3.669,3.86,14.28,7.14,2.508-4.256,4.441,0.191,1.353,5.6,3.28-5.015,1.927,4.824,2.125-3.465,0.772,9.641,3.669,4.632,6.559-5.4-0.581-4.441,5.6-3.86,8.492,4.441,7.128-8.1,2.137,4.811L714,513.355l-0.191,2.508,5.015,5.213,4.632,0.964-0.964,9.845-4.824,6.948h-7.337l-8.887,5.015,0.383,15.632-8.684,4.824,9.073,6.559,3.86,3.28,4.632,11.76,0.772,5.015-5.4,1.353-16.4-8.684-4.812-.179-9.647,8.1-3.28-7.337-7.529-2.125-7.14,2.125-12.933-3.28-1.161,2.125-4.453,6.176-4.812,1.736-2.508,4.632-6.948,3.088-4.255,2.705-2.5-.772,1.544,4.824,7.128,13.316-1.161,4.249-2.508-.179L620,627.226l-18.72,12.161-4.632,5.985-8.684,5.213,0.964,2.316-1.736,11.969-2.508,4.256,7.343,6.355,5.985,1.167,10.036,7.14,3.471-3.86,6.948,5.009,2.5,3.471-4.04,11-2.711,3.088,2.316,3.86,11.58,5.015-0.964,10.036,12.735,0.191,4.052-1.365,4.249-5.793,1.736,7.14h2.508l4.441,2.125,10.808-4.441,5.985,2.9-2.316,9.456-14.088,3.28,3.28,4.824,1.544-2.125,16.608,7.529,5.213-.383,12.161,4.824V748.6l0.383-5.213,6.176-8.492,1.353-3.669,2.125-6.368,0.964-1.353,6.176,0.383-0.191,5.009,3.669,2.316,4.632-1.921,4.052-5.8,5.213-.772,13.705,4.256,2.125-1.167,1.927,8.1,21.425,12.352,8.684-1.161,12.544-8.881,9.264,3.267,11-6.176,1.353-5.009,2.316-.581,12.161,2.9,0.964-9.845,5.985,4.811,12.544,2.712,1.161,2.316-1.544,1.736,4.632,7.9-1.353,4.632,3.28,3.471,1.161,10.036h5.015l5.985,8.1,6.176-1.161,4.441,5.6,9.073,2.5,19.3,1.365,1.544-4.256,4.441-.772,0.772-2.316v-4.632l26.441,1.544,1.353-1.921,4.824-5.6,6.559,2.9,8.3-4.052,3.28-6.176-0.191-.964,0.772-14.669H955.08l-7.912-5.793-2.705-4.249-14.86-4.824V716.3l0.383-.581,1.353-20.845-2.705-6.757,5.4-4.824-2.9-7.912,6.948-2.316,15.818-1.161,3.28-12.735-6.948-10.987,7.912-1.365,10.425-10.036,3.669-7.72L958.73,616.53,965.1,611.9l-1.161-.772-1.353-9.085L948.5,592.967l6.757-10.228-0.772-4.249-5.793-4.249v-4.632l-2.508-8.3,1.353-1.736-16.6-3.471,2.508-14.669,2.5,0.581,6.948-7.72,2.909-6.948-3.471-3.669-5.213-1.161-1.544-5.015-8.3-5.793-6.948.191-4.824-5.213-2.125-11.772,3.86-5.985,4.812-.191,3.28,3.86,12.544-8.492,3.669-.581,14.669-3.669,3.471,4.441,24.513-1.353-2.125-1.736,2.508-7.14-3.28-3.86,0.772-7.72-7.337-3.28-2.316.191,0.772,3.669-5.985-4.632-3.088.383-5.213-1.353-5.8-5.6-1.921-10.617,1.723-5.225-6.356-3.465-4.632,1.921L939.2,435.85l-9.073,4.249-5.015-5.985-5.009,1.544-3.088,4.249-3.471-3.669-1.161-7.337-7.72-9.857-0.964-7.337-1.353-11.58-7.912-3.28-4.824.964-6.368,7.72-4.824,1.544,0.581-7.72-5.793-5.4,1.161-2.316h2.711L879,387l-4.052-20.456Z" transform="translate(-16.813 -230.388)" fill="#ff8080" stroke="#000" stroke-width="2"/><path d="M579.823,550.5l8.616,5.6,18.67,2.4-1.7,6.355,12.328,5.793,4.354,0.3-4.521-5.861,8.048-8.912-1.013-7.1,3.62-3.051,4.5-.124,7.38-7-7.986-6.139-1.519,2.088-2.316-1.112-1.686-4.873,4.33-5.719-2.909-6.769,6.757-8-0.408-2.606-2.989-3.9,0.241-7.745,1.037-2.378,1.908,1.76,3.644,3.959,14.28,7.14,2.5-4.256,4.5,0.142,1.254,5.571,3.317-5.065,2.014,4.922,1.976-3.471,0.809,9.6,3.773,4.694,6.417-5.4-0.432-4.441,5.571-3.91,8.363,4.49,7.239-8.1,2.174,4.719,12.124,9.277-0.29,2.582,5.089,5.126,4.719,1.112-1.037,9.684-4.743,6.948-7.368.1-8.924,5.052,0.315,15.552-8.684,4.762L702.237,571l3.99,3.162,4.657,11.772,0.63,5.151-5.293,1.278-16.4-8.783-4.935-.111-9.616,8.165-3.175-7.356-7.671-2.23-7.165,2.23-12.933-3.23-0.988,2-4.582,6.176-4.812,1.822-2.378,4.6-6.948,3.076-4.392,2.705-2.458-.809,1.494,4.972,7.189,13.211-1.112,4.225-2.594-.086-2.606,4.3L601.4,639.392l-4.644,6.1-8.659,5.225,0.834,2.291-1.655,11.957-2.545,4.293-4.453-2.52-10.228-7.974,1.217-10.1,2.328-10.592-5.948-5.213-6.43,2.909-3.694-2.964-3.922,2.137,0.167,4.762-3.341,6.306-5.454,4.706-4.947.809-1.927-1.47,0.544-7.09-3.959-8.48-5.176-6.275-5.67-13.514,0.228-4.509L520.2,607.2l0.42-.642,2.964-10.938-3.773-2.712-5.342-.482-3.483-3.835-0.988-13.705-15.058-2.162-7.263.29-6.837-6.707-2.545,9.036-7.022,1.8-12.556,2.378-4.861-1.63-4.367,2.378-2.3,4.682L450.9,592l-0.241,5.089-16.083,8.239-14.718,1.025,6.213,7.782,6.584,3.471-4.367,2.569-7.09,13.754-6.9,7.622-27.176-3.354-0.47-2.279-11.111-2.557-1.3-2.217,12.97-12.062,0.605-5.1-0.265-6.683,2.668-3.946-6.047-7.164-2.656.049-2.137-4.848-31.3-4.546-12.112-4.787,0.34-5.126,10.531-7.381,0.327-5.318,4.787-9.456L348.5,539.738l10.821-7.819-1.038-13.754-2.2-4.237,13.415-9.6-5.769-17.189,1.18-14.273-1.834-4.478,2.242-4.212-0.074-7.189,2.23-.9,12.884,2.693,18.226-3.1-3.5-2.705,5.6-11.2,5.744-5.342,7.85,10.179,7.541,1.569,2.39,9.938,7.85,6.886-10.919,9.962-2.026,7.43,0.976,2.378,4.873,1.05-3.669,13.773L422.9,504.6l5.658,5.793,9.734,4.6,12.532-2.088,2.038,1.643,15.379,14.236,17.948-3.73,3.706-1.025,7.517-6.318,2.192,1.149,2.038,1,5.8-3.508,4.533,10.685,26.212-11.111,5.225,8.77,3.823-1.507,11.605-1.42,5.861,7.924-0.951,2.341,16.274,0.927,1.773,12.581Z" transform="translate(-16.813 -230.388)" fill="#f6e1b9" stroke="#000" stroke-width="2"/><text transform="translate(233.713 587.865)" font-size="164.904" font-family="DejaVu Sans" font-weight="700">2</text><text transform="translate(512.974 634.815)" font-size="164.904" font-family="DejaVu Sans" font-weight="700">1</text><text transform="translate(733.289 413.799)" font-size="164.904" font-family="DejaVu Sans" font-weight="700">4</text><text transform="translate(262.619 191.08)" font-size="164.904" font-family="DejaVu Sans" font-weight="700">3</text><text transform="translate(355.385 353.776)" font-size="108.106" font-family="DejaVu Sans" font-weight="700">5</text></svg>