<svg xmlns="http://www.w3.org/2000/svg" width="617.047" height="985.792" viewBox="0 0 617.047 985.792"><title>Députés sortants du Jura en 2017</title><path d="M243.758,346.71L230.971,355l8.522,9.234,3.553,8.522-2.364,2.364-9.469-2.606-8.522,3.318-16.1-1.424-7.105-6.863-5.681.947,3.076,9-9.469-.47L182.2,373.7l-8.522,8.522,0.47,4.5-10.2,1.182-5.447-2.364-5.681,2.364-4.735,7.575-3.076-.947-2.114,6.393,2.356,13.022,7.113,6.863,6.393,1.659,3.788-.47,7.34,5.681-0.947-4.5,2.841-.235,9,4.022-0.947,9.469,4.022,4.735-3.076,8.757,2.606,2.129-30.066,1.659-4.257-5.447-17.991,4.5-4.5.712L111.192,463.9l-4.022-4.735-5.9.235-4.735,7.34,2.606,14.438,5.916,6.393,8.522-.235,10.181,7.113,1.894,6.143,6.393,1.432,4.257,4.5-3.568,8.522-8.522,9.469-3.061-.712-3.076,17.991,20.362,4.25-1.659,2.129,3.076,10.181v5.681l7.105,5.22,0.947,5.212-8.287,12.545L156.9,598.139l1.659,11.128,1.424,0.947-7.81,5.681,16.574,15.385-4.5,9.469-12.787,12.31-9.7,1.659,8.522,13.492-4.022,15.62-19.4,1.424-8.522,2.841,3.553,9.7-6.628,5.916L118.577,712l-1.659,25.566-0.47.712V741.6l18.226,5.916,3.318,5.212,9.7,7.113h8.522l-0.947,17.991L155.506,779l-4.022,7.575L141.3,791.542l-8.045-3.553-5.916,6.863-1.659,2.364-32.43-1.894V801l-0.947,2.841-5.447.947L84.965,810l7.34,16.809-7.81,4.969L83.329,837.7l2.841,1.182-8.757.47,0.712,3.06,5.916,1.894,16.1,9.7,9,0.235,12.31,10.181,6.863,5.916-8.045,8.522-1.182,2.841,7.81,4.969,0.235,5.916-1.659,5.681,6.393,6.863,11.363,5.212,0.47,6.151,1.659,15.862v0.947l3.788,5.212,4.5-31.483,4.257-4.5,8.757,30.536,11.128-2.841,6.863-5.212,6.393,7.81-5.447,20.6-4.969,2.364-0.947,12.787,9,9,2.606,1.894,15.62-2.841,1.894-1.894,5.681,5.447,17.991-4.257,14.2-16.317,2.129-5.681,14.438,0.22,6.848-5.212,4.257-10.651,0.712-4.022,4.5-11.825,12.31-4.022,3.788-5.212-5.9-2.364L293.306,899l2.356-7.34,2.621-6.863,4.25-15.15,14.438-17.044,2.841-9L309.4,837.926l14.2-6.863v-5.212l10.893-9.469-0.22-5.681v-8.757l-4.735-2.841-9.469-7.34-0.235-12.795,6.863-6.143-1.894-5.916-4.969-4.022-1.431.712,2.129-8.757-1.659-6.151,2.841-5.681L336.864,739l-4.257-5.22-8.522-2.129-3.318-9.234-19.173-7.34-1.424-2.129,0.712-17.756,3.553-1.182,4.022-18.468,2.364-9.7,4.735-7.81-1.424-5.916,6.144,0.47,19.665,9-0.47-9.469,9.939-16.317-1.431-3.076,3.788-.712,1.659-2.129,3.788-6.863,11.833-3.553,2.841-5.22-3.076-.947-5.681-18.468,16.809-9.469v-5.916l-2.841-1.424,6.863-21.3-2.606.947-9.469-6.628,16.332-21.779,3.318-6.143,1.182-4.022L407.4,500.866l5.219-16.574-2.841-12.09-1.431-6.143,7.575-5.22,9.469-.947,4.969,8.045,5.219-11.6-6.151-10.651-2.841,1.674-15.15-4.735-4.5-4.969-8.522,8.287-26.051-21.3-8.742-7.105,0.712-5.447L359.6,408.3l-3.076-9.007-5.447-1.659-8.522-8.287,7.575-9.234-5.447-2.606-1.674,2.129-2.114-1.894-6.151-6.393-8.287,8.287-16.332-1.659-0.712-.47,4.25-12.075-3.318-1.182-5.681,2.606-6.151-1.182-12.787-8.757-8.757-4.022v-0.947l-2.356-.22-5.681-3.568-9.469,2.364-9.7-3.076Zm-74.327,83.327-0.47.235-0.462.947-0.235,1.659,0.712,0.462h0.712l-0.712,2.129,0.47,0.47,0.947-.235,0.712,0.47,0.235-.235,0.947,0.235,0.462-.47,0.712,0.235,0.235-.712-0.235-.235,0.47-1.182h-0.712l-0.712-.47-0.235-.947-2.129-.462,0.47-.947-0.947-.235v-0.712h-0.235Z" transform="translate(-46.075 0.675)" fill="#06c" stroke="#000" stroke-width="2"/><path d="M461.092,959.538l-8.954,13.742-7.424,6.409-2.917-5.507-9.022,8.567-15.7-.015-5.152-1.083L378.3,976.559l-20.847,4.25-5.477,2.871-5.931-18.332L348,952.387l-2.856-12.855-19.294-2.666-0.811-4.6-9.56-7.484-14.946-.826,2.917-8.757-2.378-8.045-5.56,5.932-5.817-2.174,3.614-11.893,2.364-7.454,2.454-6.878,4.288-15.135,14.574-16.885,2.856-9.082-10.385-5.53,14.128-6.863,0.076-5.355,10.893-9.333-0.22-5.8-0.174-8.643-4.613-3.015-9.5-7.3-0.174-12.65,6.863-6.257-1.97-6.007-5.015-3.818-1.424.651,2.143-8.712-1.614-6.181L321.55,743l15.211-4.114-4.189-5.015-8.613-2.083-3.151-9.249-19.4-7.53-1.348-1.954,0.727-17.885,3.568-1.083,3.977-18.6,2.454-9.605,4.72-7.825-1.538-5.886,6.182,0.326,19.809,9-0.53-9.393,9.9-16.393-1.364-2.917,3.727-.727,1.689-2.113,3.773-6.939,11.923-3.507,2.841-5.341-3.121-.916-5.681-18.287,16.719-9.53,0.121-5.946-2.917-1.477,6.939-21.173-2.765.773-9.439-6.644,16.5-21.733,3.227-5.992,1.182-4.053,14.681-18.317,5.311-16.559-2.856-12.135-1.644-6.022,7.749-5.182,9.439-1.053L430.255,468l5.212-11.552-6.2-10.833,3.924-8.348,11.658-.159,2.651-1.333-0.757-2.9,6.689-2.068,1.106,2.932,15.089,3.924-2.561-12.976,14.469-22.044,5.545-.28,3.849-4.484,2.159,5.53,1.773,5.341,8.878,2.765,1.735,5.477,21.316,2.621,20.673,2.591-2.651,3.6-0.932,2.962,14.574,4.273,0.788,3L569.487,424.2l5.833,1.273,7.56,5.182,3.076,8.2,3.03,0.311,6.083-2.356,1.833-.462,4.984,8.537,25.082,15.711-2.2,3.326,3.106,0.727,6.492,10.7,12.295,8.984,8.257,13.476,4.939,6.848,2.083,5.962-14.749,11.007L644.952,534l-10.325,6.689-5.742,2.651-11.439,7.189-4.113,3.977-0.311.19-11.363,10.962-6.037,3.8-11.242,7.113-9.621,8.022,20.658,32.922L592.8,626.1l-11.242,6.378L567.01,643.44l2.053,10.651-5.53.53-3.341,4.871,24.793,23.581,28.331,27.149,4.53-3.833,11.189,11.318L623.354,732l-6.1.53L606.719,744.5l-15.136,32.255-15.15,16.885,0.7,9.469,7.326,10.4-14.325,25.135-2.2-1.182-5,5.7-14.044,21.763-11.363,11.287-18.832,12.461L512.9,900.195l-21.627,38.277-10.06-4.2-4.5,4.174L474.774,953.8l-4.317,8.257Z" transform="translate(-46.075 0.675)" fill="#06c" stroke="#000" stroke-width="2"/><path d="M309.981,378.034l-0.56-.606,4.1-12.06-3.258-1.106-5.667,2.515-6.151-1.212-12.787-8.674-8.681-4.007-0.159-.9-2.364-.311-5.56-3.477-9.6,2.28-9.5-2.962-6.023-.886L231.1,355.013l8.348,9.265,3.666,8.6-2.364,2.25-9.393-2.53-8.674,3.181L206.6,374.353l-7.06-6.78-5.757.992,3.106,9.007-9.408-.546-5.371-3.318-8.363,8.431,0.485,4.643-10.2,1.083-5.522-2.265-5.667,2.356-4.856,7.56-2.947-.871-7.886-4.287-5.667,2.189-3.242,1.659-11.227,5.325-6.151-7.34L104.76,394.1l-3.7,5.121-4.378-4.378-1.379-9.113-9.348-11.984-1.318-9-1.72-14.355L73.231,346.4l-5.962,1.288-7.81,9.393-5.742,1.863,0.56-9.514-6.984-6.454L48.7,340l3.273,0.174,2.47-5.886-5.091-24.87,10.787-8.939,2-8.2,2.621-1.068,12.264-2.469,3.757-8.121,9.158-1.97-0.682-3.167L62.3,264.981l-0.076-.22,5.325-18.1,10.029-11.643,1.818-2.144,5.508,0.371L93.616,220.7l5.522-2.651,8.522-.061,9.068-4.25,2.235,2.651,9.2-.932,5.166-2.3L137,205.592l4.158-4.613,1.787-12.219,6.318-5.932,1.106-5.7-1.955-4.992,3.538-7.219,9.234-3.977,6.477-5.7-0.447-8.553,6.659-7.242,2.356-6.242,4.257-14.855-4.1-11.242-3.947-3.818,1.848-5.091,8.909-3.167,7.143-6.181,3.182-5.159-2.47-12.135,3.09-5.447,2.72-.954-0.788-21.211,2.856-5.84,0.28-12.923L199.57,20.6l-0.076-2.977,2.977-.038L210.4,21.5l8.477-19.1L221.3,0.834l7.045,18.332,14.529,7.075-0.4,9.575,8.8-.56,2.962,7.674,1.787,7.977,4.87-1.932,11.272-4.81,6.128,1.1,8.045,4.78,12.219-2.053,2.871-2.568,4.257-5.8,6.424-.977,8.567-9.189,4.78,3.871,4.894-.614,4.545,6.916,13.022,22.316L347.566,65.2l-2.81,1.924,4.969,7.143-0.667,5.545L348.9,82.252l4.234,2.3,7.28,9.568-0.432,5.916,11.6-3.879,2.114,2.28-1.136,5.946,2.689,2.379,11.6,1.341,3.727,4.022-0.061,17.006,5.2-3.788,11.795,5.22,1.424,18.15,9.279,8.249L410.819,163l-7.651,17.7-9.348,13.052-1.72,5.962-6.128-1.424-5.833,7.045,6.182,14.438,3.947,18.779-14.128,8.318-9.643-8.818-6.113,1.151,0.841,6.181,7.28,6.628-0.773,6.409-5.212,3.818,5.06,11.893,9.6,4.5,3.538-4.886,14.128-4.7,4.735-8.643-1.348-9.734L400.3,248.1l6.3-1.894,3.076,0.886,1.477,6.242-0.773,15.757,0.606,5.53,8.8,3.712,5.667-2.409,0.788,6.469,4.333-.061-0.295,5.166,7.34-4.894,14.977,3.015,1.863,6.242,5.962,1.848,9-2.917,6.211-14.014,2.7-.045-3.553,9.317-0.682,16.423,6.3,5.8,9.068-2.485,4.022-4.856,0.576,5.2,4.841,2.113,9.7,0.788,0.19,3.242-0.076.682,4.113,2.666-0.341,5.212,3.318,4.068-14.977,14.128,5.757,0.992,20.431,13.135-8.6,11.825-1.242,12.03,11.211,10.772,5.84,1.151,0.932,21.082,5.4,3.257,7.651-4.454,1.364,2.856-2.219,10.461-20.68-2.591-21.3-2.621-1.735-5.477-8.893-2.765L493,403.342l-2.159-5.53-3.833,4.484-5.56.28-14.469,22.044,2.561,12.976-15.075-3.924-1.121-2.932-6.674,2.068,0.757,2.9-2.667,1.333-11.643.159-3.924,8.348-2.78,1.735-15.165-4.826-4.348-4.81-8.522,8.272-26.157-21.453-8.817-7.045,0.788-5.522-4.628-3.727-3.106-8.833-5.636-1.735-8.416-8.333,7.7-9.31-5.522-2.621-1.674,2.235-2.143-1.788-6.068-6.583-8.432,8.287Z" transform="translate(-46.075 0.675)" fill="#06c" stroke="#000" stroke-width="2"/><text transform="translate(128.209 604.493)" font-size="202.256" font-family="DejaVu Sans" font-weight="700">1</text><text transform="translate(349.245 789.318)" font-size="202.256" font-family="DejaVu Sans" font-weight="700">2</text><text transform="translate(138.08 295.854)" font-size="202.256" font-family="DejaVu Sans" font-weight="700">3</text></svg>