<svg xmlns="http://www.w3.org/2000/svg" width="873.417" height="967.463" viewBox="0 0 873.417 967.463"><title>Députés sortants du Doubsen 2017</title><path d="M171.9,264.17l2.867-7.9L160.6,250.648l-4.861,3.732,3.423,13.289-4.628,2.98-7.743-9.248-6.027,6.6-5.892-1.294-7,4.786-5.177,9.473-8.864,2.054-10.346,3.364-12.626,5.139-6.1-1.377-6.907,10.3-4.906,3.883-6.291-.211-2.039,3.228-12.2,8.939-15.222-6.735L29.112,314.8l12.935,22.168-0.368,3.236L38.9,342.118l4.936,7.1-0.662,5.508L43,357.145l4.206,2.28,7.232,9.511L54.011,374.8l11.535-3.853,2.084,2.265L66.5,379.124l2.687,2.363,11.506,1.332,3.7,4-0.061,16.9,5.162-3.762,11.716,5.177,1.415,18.029,9.233,8.194-7.352,6-7.585,17.578-9.3,12.965-1.693,5.922-6.087-1.415-5.8,7.013L80.2,493.762,84.11,512.4l-14.019,8.277L60.5,511.9l-6.072,1.159,0.835,6.14,7.232,6.569-0.768,6.381-5.177,3.793,5.026,11.814,9.541,4.47,3.529-4.861,14.033-4.658,4.7-8.586-1.355-9.669,2.054-2.559,6.275-1.881,3.055,0.865,1.467,6.2-0.783,15.651,0.6,5.508,8.744,3.672,5.644-2.393,0.768,6.426,4.319-.06-0.293,5.147,7.277-4.861,14.877,2.98,1.866,6.2L153.8,567.2l8.939-2.9,6.17-13.936,2.687-.045-3.514,9.255-0.677,16.328,6.245,5.764,9.022-2.483,3.981-4.823-0.158-4.673,5.455-3.22,4.778-8.172,3.807-21.649-1.881-5.817-0.309-.512,3.687-13.582,10.58-9.436,3.01-.414,0.677-2.98-3.115-7.969L220.9,499.8l8.849-2.671,1.438-4.891,5.493-3.025,0.481-3.236,7.277-8.759-1.618-5.523,2.664-1.325,3.7-10.775,5.087-13.9,7.449,3.228,5.982-7.8,0.4-6.426-25.087-29.316-3.823.158-8.819,7.081-7.352-20.43-7.954-9.617-1.415,2.19-3.115-3.333-2.28-1.776,1.483-2.468,5.026-2.054,10.843-14.711,8.277-.67,9.022-7.434-2.687-4.778-6.938-.58-0.293-5.741,4.981-4.3-2.378-5.365-14.877-22.4,4.319-4.981-2.5-5.952-6-1.52,1.37-11.4-2.994-7.2-2.6-3.574-6.306.722-3.935-5.1-6.1-1.934-9.218,2.491-0.339-.1-11.2,1.317Z" transform="translate(-27.768 -14.817)" fill="#ff8080" stroke="#000" stroke-width="2"/><path d="M215.137,382.639l-1.4,2.19-3.13-3.333-2.28-1.776,1.5-2.468,5.026-2.047,10.828-14.711,8.277-.67,9.038-7.442-2.7-4.77-6.938-.587-0.293-5.741,5-4.289-2.393-5.365L220.787,309.22l4.335-4.981-2.513-5.952-5.982-1.52,1.37-11.4-2.994-7.2-2.6-3.567-6.306.715-3.951-5.1-6.087-1.926-9.218,2.491-0.339-.105-11.2,1.317-3.409-7.8,2.852-7.909,2.7-1.723-3.5-8.819,0.971-6.14,7.6,2.22,2.039-1.693,0.752,2.731,13.183,3.815,0.293,0.06,9.3,8.789,2.761-1.573,2.671-.346,0.693,2.6,2.5-1.294,2.942-10.693,5.365,1.708,3.5,4.612,8.345,0.783,4.425-4.921,5.4-6.938,7.728-3.8,0.752-3.153,1.776,0.888,1.663,1.565,9.218-.783,4.861-3.92,1.806-5.839-0.219-10.256,11.98,0.956,1.1,8.857,0.4,0.12,5.35-.783,5.275-6.057-8.345-8.059,3.3-1.588-3.642-4.3,6.6-9.368,2.174-2.22,8.894,7.758,11.859,1.1,2.362-3.552,2.807,1.422,5.455-3.175,2.453-5.726,4.425-3.973,5.937-.4,0.219-2.98-7.291-1.091-2.822-.068-1.9-5.177,4.552-3.582L341.136,174l5.071-.8-0.248-2.581,2.957-.09,0.865-8.759,4.01-3.92,1.046,2.348,2.325,2.837,8.375,3.536,5.117,7.773,5.674,2.935,1.384-2.8-6.087-10.58,0.467-5.9,9.978,6.117,4.906,10.369,1.309,0.918,10.053-4.259,5.1,23.793-1.9,2.408,2.348,5.192,5.441,1.746-0.707,9.782-9.5,3.868,2.732,5.357-2.791,8.556,0.587,2.619,7.291,6.23,1.942,4.349,0.459,4.612,0.429,2.889,5.486,1.821,0.955,6.17-12.138,6.433,5.794,18.872,3.04,1.294,8.834-4.312-7.11,14.673,3.025,0.158,3.868,8-3.01,14.794-2.822-.707-8.5,7.811,19.6,7.825,4.319,4.041-0.368,3.078-8.33,9.03,1.4,6.057,5.335,1.588,1.4,5.854-9.85,11.641-13.92-3.168-9.466.233-18.383,13.507-0.219,1.723L367.7,399.749l0.459,8.939-9.233.474,13.258,17.179,12.258,1.249,5.117,14.778,3.642,7.946-5.553,7.2,7.141,13.612,5.982,2.13,1.37,2.882-2.235,2.28,5.1,5.185-3.281,2.13,0.233,8.277-3.175,7.367,6.426-.218,2.325,2.348,7.48-1.159-11.039,6.539-4.229,4.823,0.354,3.206L408.137,522l5.764,11.009,10.241-7.6-12.7,13.018,1.325,8.6-5.455,1.911-8.42-8.345-10.715,11.152-1.618,2.995-5.674-4.515-21.694,5.215-16.607,7-6.6,2.408-0.738-3.115,4.642-7.818-2.543-5.847-3.13-.617-3.319-8.067-8.315-.06-18.473-26.848-2.348-1.512L299.834,513l0.6-4.409-16.464-7.818,0.542-6.306,4.906-1.9-11.813-18.721,5.441-2.34-2.5-2.039-9.331,2.069-2.791,1.588-5.689,7.54-3.161-.632-2.7-5.847-9.286-1.234-2.016-2.528,3.7-10.775,5.087-13.891,7.449,3.22,5.982-7.8,0.384-6.426L243.091,405.44l-3.807.158-8.819,7.073-7.352-20.43Z" transform="translate(-27.768 -14.817)" fill="#00c000" stroke="#000" stroke-width="2"/><path d="M442.525,329.394l-9.316-.564-1.355-1.693-5.087,8.239-19.6-7.825,8.51-7.811,2.807,0.707,3.01-14.794-3.868-8L414.6,297.5l7.126-14.673-8.834,4.312-3.04-1.294-5.794-18.879,12.138-6.426-0.971-6.17-5.486-1.828-0.429-2.882-0.459-4.612-1.942-4.349-7.277-6.23-0.587-2.626,2.791-8.548-2.732-5.357,9.481-3.868,0.707-9.782-5.441-1.746-2.348-5.2,1.911-2.4-5.1-23.793L388.248,175.4l-1.309-.91-4.906-10.377L388.6,160.5l0.693-8.405,0.971-8.217L401,145.869l5.779-3.416-4.055-3.687,7.261-13.687,4.809-3.687-1.648-12.649,2.145-7.863,5.816,3.055,5.719,0.5,7.058-14.861,1.851-2.408,9.083,0.414,12.4-7.51L464,82.1l7.1,4.929,4.6-11.565,9.052-3.333,2.25,2.34,1.325-1.6,7.585,3.973,9.233,2.054,6.155-1.505,5.147,3.68,6.938,24.064,2.687-1.543,0.075-6.246,15.832-14.207,3.612,7.69L552.935,96l2.994-.549,4.733-3.2,1.987-5.365,7.156,5.41,6.23,9.722L579.03,96.3l9.579,0.812,6.478-14.064L592.5,68.275l1.144-3.175-5.862.73-1.588-2.6,7.555-9.21-0.722-2.965,8.962,1.67,7.645,5.207,1.618,4.861,5.734,0.654,5.816,1.114,13.522-5.937,3.935-5.373,3.01-4.567,7.141-10.7L639.858,25.347l3.92-8.232L647.2,24.09l15.17,1.655-2.325,7.262,21.912,10.06,1.761-6.562,2.348-.888,9.067,3.4,5.583,7.751,5.922,6.689,7.156,3.649,7.539,1.279,9.948-12.122,2.942-12.514,3.687-.414,6.17,14.1-5.1,15.41,6.426,11.859-0.572,5.786,3.672,4.274-2.5,1.7,1.483,14.711-15.832-1.5-8.375-7.209-3.04-8.8-4.041,9.2,7.449,9.714,0.6,6.517-5.486-1.919-3.514,4.281-5.734.925-5.982-.038-9.79,1.678-8.126-2.348-8.713,8.548-7.374,4.409-0.481.474-11.1,10.933-11.768,2.453,0.542,6.479,7.435,10.452L652.145,174.1l-2.9,5.027-6.1,1.046-3.9,3.823-2.468,5.711,8.157,8.533-2.378,5.862-14.342,11.054,2.9,5.192-1.926,5.884,10.361,4.454-2.777.6L633.92,245.1l-9.173,2.6,1.956,5.8-2.483,5.689,3.7,8.45-1.806,11.934,8.638-1.038,2.084-5.734,2.942,8.894,9.331-.805,0.865-.293,2.378-.888,16.991-10.994,5.486-2.859-2.145-12.356,7.984-2.521,2.994-4.861,5.568,0.865,0.151-2.867,5.215-2.054,5.1-4.229,6.523-.436,1.483,5.719-2.588,5.312L707,250.7l6.645,5.305,5.719,0.158-7.758-5,2.145-5.1,2.31-2.137-0.722-9.248-3.378-5.252L714.5,223.7l-2.1-2.325,14.771,1.159,4.854-2.611,18.149,4.011,12.093,0.482,9.083,1.655,6.449,7.1,6.365,1.069,0.278-1.9,13.582-5.975,12.446,3.017,9.451-1.9L854.65,221.9l6.261-1.332,7.683-6.306,12.77,2.822,10.79,7.592,1.415,3.01,0.835,6.614,5.486,7.991-4.718,4.688,1.2,2.98-6.952,6.411-6.306-1.054-15.561,3.491,3.672,8.285-4.53,12.137-8.081,5.576-9.774.738-5.38,3.747-15.945,1.1-1.6,1.911-2.378,2.092L829.97,312.1l-2.407,15.29,5.057,7.991-8.036,5.38-1.971,5.975-6.17,1.422-5.087,8.067-18.4,12.461-7,6.426-6.523,14.44-6.742,5.9L761.805,402.3l-0.617,3.168,7.4,5.3-1.309,2.965-16.931,14.823-24.47-22.973-4.349-6.562-17.961-34.388,4.6-3.16-3.92-7.194-2.807-8.33,1.4-2.611-8.939,1.167-2.852,5.425-8.834-.278-2.777,1.129,0.82,5.967-5.907-.88-2.3-5.147-2.836-.12-4.47-.158-1.046,3.04-12.213,3.589-6.6,6.983-6.155,1.655,0.061-1.8,5.862-2.664,3.409-5.463-2.6-8.826-1.573-9.473-5.644-2.859L629.2,336.86l-1.6-5.7-8.947,1.686-10.053,6.23-4.484-1.648-1.821-8.714,5.907-6.5-6.275-.767,0.512-9.5-7.675-5.041-6.351-.993L557.4,314.4l1.325-10.414,0.851-6.456-14.184,2.9-7.246-4.545-12.273,5.4-17.736,7.638-2.927-.233-8.112-1.7-13.71,6.095-2.348,11.625-28.421-11.573-4.936,3.6-1.761,7.291Z" transform="translate(-27.768 -14.817)" fill="#06c" stroke="#000" stroke-width="2"/><path d="M731.751,99.673l-8.39-7.209-3.025-8.8-4.041,9.2,7.449,9.714,0.587,6.517-5.486-1.919-3.5,4.289-5.734.918-6-.038-9.79,1.678-8.126-2.348-8.7,8.548-7.374,4.409-0.481.474-11.114,10.933L646.279,138.5l0.526,6.479,7.435,10.452-2,18.661-2.912,5.027-6.1,1.046-3.9,3.823-2.453,5.711,8.157,8.533-2.393,5.862L628.3,215.146l2.9,5.192-1.926,5.892,10.361,4.447-2.761.6-2.852,13.808-9.187,2.6,1.971,5.8-2.483,5.689L628,267.631,626.2,279.558l8.638-1.038,2.1-5.734,2.927,8.894,9.331-.805,0.865-.293,2.378-.888L669.427,268.7l5.493-2.859-2.159-12.356,7.984-2.521,2.994-4.861,5.583,0.865,0.135-2.859,5.215-2.062,5.1-4.229,6.539-.436,1.483,5.719-2.588,5.312,1.866,2.288,6.659,5.3,5.719,0.158-7.773-5,2.145-5.1,2.31-2.137-0.722-9.248-3.378-5.252,2.558-5.726-2.114-2.333,14.771,1.159,4.861-2.611,18.135,4.011,12.093,0.482,9.1,1.655,6.433,7.1,6.381,1.069,0.278-1.9,2.558-17.849,7.141-9.752,10.994-4.688-1.678-9.022,4-3.386,0.955-5.388,12.95-1.144,1.588-2.859L822.5,155.537l-3.1-4.6,0.4-7.991-1.693-8.322-8.277-11.716-7.683-4.432,5.35-5.064-5.177-15.448,9.835-5.305,5.275,2.28,2.3,8.751,5.026,3.394,1.723-2.25,2.407,1.505-2.761-11.889,2.529-8.563-2.407-5.719L821.5,76.294l-1.9-.324-5.937-1.678-11.152-7.133,5.147-3.175L801.97,52.741l-2-5.779-9.007-1.61-4.055-4.981-15.094,7.367-2.664-.369L753.1,48.791l-8.939-1.415-5.1,15.41,6.426,11.859-0.572,5.786,3.672,4.274-2.5,1.7,1.467,14.7Z" transform="translate(-27.768 -14.817)" fill="#ffeb00" stroke="#000" stroke-width="2"/><path d="M229.788,497.172l-8.849,2.671-7.713-3.838,3.115,7.969-0.677,2.972-3.01.429-10.58,9.436-3.687,13.567,0.309,0.512,1.881,5.817-3.807,21.664-4.778,8.172-5.455,3.206,0.158,4.688,0.572,5.177,4.823,2.084,9.624,0.783,0.2,3.22-0.075.677,4.071,2.649-0.323,5.177,3.281,4.041-14.877,14.033,5.719,0.986,20.309,13.063-8.541,11.731-1.234,11.949,11.129,10.7,5.8,1.144,0.926,20.941,5.365,3.236,7.6-4.425,1.37,2.837-2.22,10.391-2.649,3.589-0.926,2.927,14.493,4.244,0.783,2.98,10.174-11.754,5.794,1.264,7.51,5.147,3.055,8.141,3.01,0.309,6.042-2.34,1.806-.459,4.967,8.48,24.914,15.606-2.19,3.3,3.085,0.722,6.449,10.625,12.213,8.924,8.2,13.386,4.906,6.8,2.054,5.922-14.635,10.933-2.22,12.3L326.8,812.547l-5.7,2.619-11.377,7.141-4.071,3.951-0.309.188-11.3,10.888-5.982,3.777-11.167,7.066-9.556,7.969,20.52,32.7-2.619,8.525-11.152,6.336L259.631,914.6l2.039,10.58-5.493.527-3.319,4.838,24.628,23.424,28.142,26.968,4.5-3.807-16.1-16.238,0.219-3.281,15.606-16.5,15.08-12.416,8.864-3.965L357.888,899.9l28.451-27.157,6.735-6.509,1.723-6,17.72-10.52,28.421-15.207,9.466-8.45,1.776-3.01,3.206,0.767,5.779-7.6,8.744-3.883,4.642-12.07,18.473-6.569,7.7-6.012,9.406-13.3,4.1-12.491-9.948-8.586-4.6-4.319-2.235-9.286,5.629-3.439,1.339-13.138,11.438-20.136,1-9.9,2.054-25.938-10.933-19.843-9.233-15.651,7.51-5.23L524,604.453l12.055-12.92,3.409-3.318,5.922,7.555,36.141-12.363,13.936-7.773,7.615-4.612,9.639,1.437,14.538-7.111,12.98-22.326,15.184-12.054,12.8-2.972,11.535-11.874-12.567-14.553,9.3-17.389,20.9-8.172L695.459,463.5l2.3-2.408,12.829-9.594,24.283-9.075,9.8-7.562,5.764-6.268-24.47-22.973-4.349-6.562-17.946-34.388,4.6-3.16-3.935-7.194L701.524,346l1.4-2.619-8.939,1.167-2.852,5.425-8.819-.271-2.777,1.121,0.82,5.967-5.922-.88-2.3-5.147-2.836-.113-4.47-.158-1.046,3.04-12.2,3.589-6.6,6.983-6.17,1.663,0.061-1.806,5.877-2.664,3.394-5.463L645.565,347l-1.573-9.466-5.658-2.859-9.052,2.235-1.6-5.7-8.947,1.678-10.038,6.238-4.5-1.655-1.806-8.706,5.907-6.509L602,321.5l0.526-9.5-7.683-5.041-6.351-.993L557.5,314.445l1.309-10.414,0.851-6.456-14.184,2.9-7.246-4.545-12.258,5.4-17.751,7.645-2.912-.241-8.126-1.7-13.71,6.095-2.348,11.625L452.707,313.18l-4.922,3.6-1.761,7.3-3.484,5.343-9.316-.564-1.355-1.686-5.087,8.232,4.319,4.041-0.368,3.085-8.315,9.022,1.384,6.057,5.335,1.588,1.4,5.854-9.85,11.648-13.92-3.175-9.451.233-18.4,13.507L378.7,388.99l-11.023,10.783,0.467,8.939-9.248.467,13.258,17.179,12.258,1.249,5.117,14.778,3.642,7.946-5.538,7.2,7.126,13.612,5.982,2.144,1.37,2.867-2.235,2.28,5.1,5.2L401.7,485.75l0.233,8.277-3.175,7.367,6.433-.218,2.31,2.348,7.48-1.159L403.94,508.9l-4.229,4.823,0.354,3.206,8.036,5.087,5.764,11.009,10.241-7.6-12.7,13.018,1.339,8.6-5.471,1.911-8.42-8.345-10.715,11.152-1.618,2.995-5.674-4.515-21.694,5.215-16.607,7-6.6,2.408-0.738-3.115,4.642-7.818-2.543-5.847-3.13-.617-3.3-8.067-8.33-.06-18.473-26.848-2.34-1.512-1.942,2.032,0.6-4.409-16.464-7.818,0.557-6.306,4.891-1.9-11.813-18.721,5.441-2.34-2.5-2.039-9.331,2.069-2.791,1.588-5.689,7.54-3.161-.632-2.7-5.847-9.286-1.234-2.016-2.528-2.664,1.339,1.618,5.523-7.277,8.744-0.481,3.251-5.493,3.025Z" transform="translate(-27.768 -14.817)" fill="#06c" stroke="#000" stroke-width="2"/><text transform="translate(415.685 550.031)" font-size="200.907" font-family="DejaVu Sans" font-weight="700">5</text><text transform="translate(72.471 475.731)" font-size="200.907" font-family="DejaVu Sans" font-weight="700">1</text><text transform="translate(226.021 366.254)" font-size="200.907" font-family="DejaVu Sans" font-weight="700">2</text><text transform="translate(431.498 266.864)" font-size="200.907" font-family="DejaVu Sans" font-weight="700">3</text><text transform="translate(669.61 200.503)" font-size="140.923" font-family="DejaVu Sans" font-weight="700">4</text></svg>