<svg xmlns="http://www.w3.org/2000/svg" width="886.43" height="612.111" viewBox="0 0 886.43 612.111"><title>1T Législatives 2017 Haute-Loire</title><path d="M642.236,107.207l-.728,3.028-7.132,4.854-1.8,15.058-2.538-.044-1.232-4.839L621.173,105.2l-6.026-.155-4.624-13.827-4.623-3.7-10.888,4.854L586.559,89l-5.6,2.36-2.679,8.713-10.161,6.6.594,11.281,10.4,5.462.883,12.276L583.241,141l-1.766,8.365L590,151.2l2.887,5-10.643,4.928L582.12,167l-5.781.475-7.83,13.018-5.625.987-3.563-7.7-5.67-.683L542.14,181.21l-5.551-.958-8.743,2.887-.883,2.954-.809,12.26,4.594,17.263,2.375,7.986,5.077-.119-.015,5.566-17.4,13.092.52,8.913,8.757-.134,1.381,2.724-.779,9.062-3.941,8.179,4.7,3.072,24.915-1.944,11.088-5.656,10.279,6.694.742,3.028-4.549,4.2-1.685,6.019,1.811,8.742L569.586,309.6l10.086,4.824-.379,8.365,4.439,3.814,11.221-2.753,2.813-8.1,10.628,6.174,7.667,16.959-2.086,8.623-3.844,4.535-5.656,1.886.609,2.872-.972,2.419-10.784.579-6.739,5.106-4.668-3.273-11.831-.089,1.537,5.277-2.45,7.162-3.829-.779-4.825.215-2.612-.794-2.011,2.709-2.39,3.288.171.838-5,5.685-1.395,1.128-.809,5.106,1.551,2.085-1.336,5.018,1,3.028,2.279,2.694-2.234,2.345-1.128,1.566-3.251,8-.319,4.2-4.334,3.9,4.928-.438,5.752.987,6.434,12.9,10.339,5.581-2.828,2.887,6.042,6.346,3.421,8.5-4.483,7.875,1.7,8.824-.2,3.8-5.715,9.218,4.824,9.93L562,505.549l-.46,5.93,3.51,4.8-7.607,4.393,8.624,1.262L568.3,533.18l2.509,8.119,6.739,5.047,11.013-2.115,6.769,5.276,14.034,3.771,5.782,6.739,8.728-1.292,8.349,2.36,3.251-4.549,2.234-13.508,6.419-5.87,11.3.623,7.874,3.882,5.2-1.886,6.524-.452,12.958-6.769,6-.155,11.942,3.607,12.468.059,6-7.088,8.408-4.074,3.043-19.423,4.653-3.377-1.031-1.84,9.336-11.957L756.211,483l4.594-26.132,7.177-4.394,13.477,7.073,14.391-6.085,9.352-.09,4.364-3.785L817.9,447.7l-.727-5.722-3.726-5.626-5.4-2.568-4.824-7.637,5.41-20.261,11.608-8.824,21.108,2.026,3.013-5.076,14.353-2.539,1.625-5.915-1.84-8.987-5.351-2.813-6.019.549-8.194-8.8-.853-8.773,5.41-1.989,2.316-8.015,2.65-1.128-2.279-10.769,7.726-4.3,8.275,2.953,7.912-3.725,1.6-8.713-17.108-11.7,2.523-14.569,13.426,4.364,8.409-1.2,11.585,9.337-1.06,11.525,5.417,7.207,3.525-2-3-5.032,1.06-2.724,11.586,1.321-.913-5.781L901.2,305.4l-1.8-8.654,2.872-17.7,6.338-6.175,1.4-5.811L917.7,263l5.047-13.931-2.293-13.626,2.769-4.7,2.983-.779,1.8-5.93-3.637-11.667-2.448-1.321-14.1-13.916-7.206-5.447-7.191-13.6-9.121-.624-17.946,10.569-2.508,5.41-7.756-3.911-2.346,1.841-13.262-15.957,5.945-6.873,1.06-5.841,4.06-3.77-.9-4.668-8.817-2.6L828.8,138.836l20.017-17.062,2.916.334-12.365-20.959-7.555-5.114L814,91.7l-.289,5.886-2.464,1.432-5.158-1.083-3.711,4.482-11.437-.623-.519-13.611-8.6,2.9-8.09-12.209-3.028.245-8.193-4.245-16.165,6.739-12.683-8.5-11.83,2.508L710.7,79.924l7.756,9.989L717.165,96l-21.641-1.944-7.117,5.915-.809,6.278-5.856-4.289L670.157,105.6l-2.308,12.261-3.607,5.217-5.233-3.176-5.276-11.318-5.522-3.117Z" transform="translate(-42.093 -40.145)" fill="#06c" stroke="#000"/><path d="M526.168,198.352l.794-12.26.884-2.954,8.757-2.887,5.537.958,11.511-8.1,5.67.683,3.577,7.7,5.611-1,7.829-13L582.12,167l.133-5.87,10.628-4.928-2.872-5-8.52-1.84L583.241,141l-3.222-5.307-.9-12.275-10.4-5.463-8.231,7.681-2.2-4.9-3.392-16.5-14.42,1.491-13.73-5.522-4.772-7.421-4.987,3.176-.639-15.088-8.52,2.493-3.057-5.2-7.556-4.958-9.188,6.16-2.679,11.652,1.292,11.912-5.656,6.2-2.419,1.871L467.5,105.239l-1.855,1.871-8.728.771-6.338-5.737-8.453-1.335-7.7.17-4.869-1.7,3.318-8.03-5.752-1.522-6.391-6.1-1.87-2.248-5.766.638-3.333,4.742L407.14,98.968,395.889,103.5l-2.827,8.5-8.521,8.565-6.026.653-17.048-16.988-3.74-10.049,2.026-5.032-4.394-7.986-7.451-17.537-3.043,5.351L339.4,71.2l-4.839-3.725L317.954,63.8l-9.41-8-3.563-14.932-13.767,6.612L281.2,58.9l-1.855,5.752-2.983.757-17.931-1.187-4.549,4.015-8.624-5.492-5.381,2.709-5.522-2.627-5.84,1.84-7.971-9.277L213.332,45.3l-4.5,2.768-5.017-1.566.215,5.945-6.917,15.771-6.961-12.8-6.464-6.279-5.752-1.64-2.583,1.684-2.524,12.38-2.664,4.49L152.912,74.01l-8.393,1.084-6.754-4.565-8.439,11.192L126.7,93.113l-1.752-.46-2.768,2.524L117.6,91.8l-13.121,6.8-3.911,4.713,2.463,5.232-18.843,1.062-7.756-3.014-5.143,2.828L54.071,106.71l4.943,3.607,1.321,20.87-9-.9L46.6,133.725l5.7,7.288,8.06,4.231-4,8.245-5.871,1.2-7.86,3.71.728,5.975,9.173-.972,7,5.722L71.764,167.9l8.594-1.536,9.737-6.8.439,5.67,4.928,7.014-2.814,11.347,12.818-6.932.378-2.916,14.947-1.463,7.5,5.144.549,2.968,3.028.186,1.084,6.071-3.666,17.523,6.323,6.338,3.288,18.079,5.64,2.479,15.942,5.492-.824,15.318-5.091,7.481-1.032,9.158,4.26,17.612,7.162.133,1.433,2.056-3.511,8.03,7.57,19.861,8.075-3.525,7.1,5.261,1.188.305,10.323,6.219,12.075-.215,1.507,5.886,6.041.579-20.729,8.364-13.856-5.841-3.555-4.883-10.769,3.621,1.707,5.4.854,5.321,13.218,4.171,1.944,4.713-7.726,19.771,2.234,12L177,391.873l5.685,10.8,2.493,1.669,10.673-5.173,5.6,1.989-6.376,13.626,11.452-2.463,6.042,9.477,8.594-2.308,1.93,2.316-5.2,10.724-10.946,4.379,1.38,9.047,8.379,3.288,7.177-3.845,1.061,14.843,7.347,5.507,10.843-3.54,6.056,10.71,1.826,13.656-3.377,10.45,5.611,8.334.014,9.292,10.361,15.815,3.845,23.163,9.959,11.481-.9,8.973,8.743,8.26,5.188,10.9,5.506,2.857,2.538-1.781,1.782-5.67,8.535-8.349L330.1,576.91l8.987,2.115,8.483-7.57,8.624,7.176,4.579-2.931-1.781-5.915,6.917-20.165-1.766-15.207,8.364-3.162,3.756,4.031,7.087-4,4.468,1.766,7.407.156,10,5.9,4.171,11.088,4.335,3.5-2.464,11.422L403.5,569.7l5.656,6.539,17.856-2.583,4.49-4.1,14.131,3.7,5.886-1.462,1.157-5.655,5.352,2.055,4.482,13.189,5.611,6.145,2.694,13.945,1.915-2.479,3.028.772,16.016,14.065,6.086,16.817,2.293,1.507,5.507-5.945,8.772-2.4,5.418,2.8-.49,5.782-7.028,9.752,5.989,6.665,14.584,2.9,6.1-10.056,2.709-1.417,11,4.623,2.665-1.506,1.261-8.683,8.5-3.088,7.1-2.739-.364-1.2-4.29-4.215.32-2.783,11.86-17.107,4.824-20.38.668-2.954,11.132-4.809L599,583.9l9.188,7.555,3.317-4.171-3.592-8.52,2.2-5.106,2.932.319,5.7,6.917,6.612-9.826,7.682,3.785,4.623-3.785-5.4-10-8.35-2.375-8.728,1.291-5.781-6.739-14.034-3.77-6.769-5.277L577.6,546.31l-6.739-5.046-2.508-8.12-2.234-11.251-8.624-1.261,7.607-4.394-3.51-4.794.46-5.93,6.917-4.943-4.824-9.93,5.714-9.218.2-3.8L568.37,468.8l4.468-7.859-3.422-8.506-6.026-6.345,2.813-2.872-10.338-5.6-6.435-12.885-5.752-1-4.928.438,4.334-3.9.319-4.2,3.251-8,2.316-2.843,1.046-1.076-2.278-2.694-1-3.028,1.335-5.017-1.551-2.086.824-5.106,1.381-1.128,5-5.7-.171-.824,4.409-6.018,2.612.794,4.824-.215,3.83.779,2.449-7.162-1.536-5.277,11.83.1,4.668,3.258,6.754-5.106,10.769-.579.987-2.419-.624-2.873,5.656-1.885,3.844-4.535,2.086-8.624-7.667-16.958-10.628-6.175-2.813,8.105L583.8,326.539l-4.452-3.815.378-8.364-10.086-4.824,4.439-14.554-1.811-8.743,1.684-6.018,4.55-4.2-.742-3.028-10.28-6.694-11.088,5.67L531.477,273.9l-4.7-3.072,3.941-8.164.779-9.077-1.38-2.708-8.758.118-.519-8.913,17.4-13.092.015-5.566-5.076.119-2.375-7.986Z" transform="translate(-42.093 -40.145)" fill="#06c" stroke="#000"/><text transform="translate(264.432 313.079)" font-size="157.515" font-family="DejaVuSansCondensed-Bold, DejaVu Sans" font-weight="700">1</text><text transform="translate(638.53 287.917)" font-size="157.515" font-family="DejaVuSansCondensed-Bold, DejaVu Sans" font-weight="700">2</text><rect x="297.944" y="347.591" width="115.924" height="115.924" fill="#ffeb00" stroke="#000"/><rect x="561.352" y="333.944" width="115.924" height="115.924" fill="#ffeb00" stroke="#000"/></svg>