<svg xmlns="http://www.w3.org/2000/svg" width="947.763" height="694.927" viewBox="0 0 947.763 694.927"><title>1T Législatives 2017 Allier</title><path d="M411.015,349.434l-8-.58-12.45-5.928-5.111,1.23-2.126,4.9-2.642.341-8.713-5.754.677-5.536-2.139-5.149-14.287-8.635-.393-.148-6.231-9.125-16.2-10.459-8.874-13.4,5.413,1.173,18.379-5.716L355.184,282l7.92,1.36,3.17-4.492-1.475-7.643-7.662-13.339,22.895-14.789.941-10.337,4.885-2.59-13.823-21.033-6.921-3.88-.4-11.187-2.4-.528-1.044,2.23-4.543-6.431L337.894,179l-1.546-5.187,1.333-5.271-6.579-4.821,6.908-3.75-3.2-12.4,1.321-5.007,7.514,2.165,6.734-16.7-12.211-7.63-.593-12.585L354.392,93.2l2.783-7.514,10.156-4.5,6.56-4.543L373,71.41l4.253-3.37,7.7-2.507,4.794,1.624,6.908.413,4.054-8.977,10.948.38,9.151,5.175,10.7-2.3,6.27,5.175,2.468-1.231,3,17.67,6.657,12,18.5,16.007L480,115.146l13.365,4.544L503.18,133.5l1.23,1.6,9.944,13.784,20.273,9.756,6.457-3.511,5.877-5.478,1.424-5.162,2.565-.728,14-8.216,4.807-6.592,7.907.766.212-.135,8.043-.593,3.537,10.408,7.411,11.5,16.452,2.881,4.846-2.855,5.2-1.811,5.889-9.286,1.94-7.99,5.123-2.049,13.456,3.035,10.736-.9-2.391,7.8,1,5.258,9.615,4.054,2.313,4.659.013,8.094-3.853,3.789.064,5.3-2.468,1.147,4.936,2.565,2.3,5.1,15.24.593,1.952-1.727.091-5.387,18.423-19.7,7.617-1.824,4.621,6.431,2.745.026,3.538-4.13,3.061-4.305-5.993-12.437-.658-13.469,11.593,5.2,4.441-5.6,2.113,4.7,8.217-6.786-9.77-19.242,8.03-10.762,5.232,8.887,10.852-1.521,4.041,3.525-3.635,6.844,8.171,13.352-.026,13.339,7.385,2.591,2.365,13.165,9.467,4.4-1.412,7.894,14.107,8.745,1.875,5.213.135,2.378,2.733,5.349,2.442,7.674,3.912,3.674,4.105,3.75-.252,2.8-5.361,9.6,3.358,4.2,8.19,1.334,2.442,15.872.78,6.315.316,12.52-3.686,4.66-.883,5.271,5.02,6.534,7.642,2.707,7.92-2.243,4.118,3.37,1.6,5.059,7.539.805,4.569,6.115,4.923-.728,13.829-8.77,5.084,6.044-3.37,4.434,2.681,4.279.425.116,5.111-1.9,4.755,2.1-1.862,13.616,2.655,4.7,14.937,6.972,3.409-3.615,2.287-5.007,7.411-3.486,9.731,4.118,13.075.264-3.209,9.389,7.05.631-7.74,11,.742,8.133L937.21,345.5l2.287,4.962-4.594,1.424-5.285,5.491-7.475,2.036-4.188-15.672-9.254-9.563-4.266,3.357-2.075,7.778-5.123-1.231-3.093,7.424,3.3,7.024-.464,5.284-5.851,7.6-14.287,7.063-2.745.213-2.326-5-5.465-8.454-9.576,3.66-3.261-9.4-4.949-1.94-5.954,5.214-9.918-4.118-9.086,5.033-3.087-7.385-10.059,2.8-4.717-2.694,2.481-10.31-4.369-2.733.754-2.629-2.745.541-2.668,4.911-8.2,1.475-12.27,6.547-2.268,5.1,2.049,4.659-2.088,1.6-10.884-7.34-2.455.741L761.608,364l-7.952-1.108-5.4-9.376-7.766,1.508-7.752-10.588-10.008,8-1.965,7.488-4.7,1.23,4.569,12.824L717.994,389.7l-4.781,2.011-8.081-1.437-4.982,2.339-12.308-5.774.135,2.287-7.552,4.608-3.46,7,.831,5.175,3.551,3.828,2.152-1.412,12.74,15.859,7.134,4.647,6.908,3.827L710,446.327l3.989,7.263,9.756,14.422,2.506.567,2.617.393-3.087,7.4,1.663,2.14-5.877,8.435-7.237,3.184-1.121,7.952-7.437,1.411-.064,13.352,5.02-1.173,4.214,2.823,4.44,14.564-2.049,1.81L706.2,537.209l-5.271.148L694,541.513l-5.9,5.123-10,.49-6.193-4.105-2.378.844-9.479,9.048-3.7,3.763-7.462,2.39-.4-5.232,3.422-7.012-.908-13.036,2.416-4.5-17.657,1.649-4.382-2.578-7.7-29.391-16.7-8.745-2.655-.135-4.028,5.226-7.965-.844-1.211-2.455L585.3,500.96l2.062,7.339-3.235,4.189-12.108,2.327-6.606-3.023,4.144,18.8L566,537.833l-9.705,7.978-2.822,9.531-4.144,4.62-9.827,2.919-12.257-5.69-4.73,2.049-7.642,10.588-9.576-9.363-5.284-.4-.065-7.037-3.892-1.978-8.861-4.717-2.984-5.033-2.339,1.385-8.042-6.811,3.673-15.369-7.236-10.878L461,505.335l1.3-7.3-3.976-6.482-4.633,6.141-2.655.174-5.651-5.323-6.271-11.406L437,479.713l-7.185,2.3-4.408-2.468-.819-5.5,3.686-13.481,10.395-11.252,3.222-9.614-5.2-5.864,1.953-4.743-4.937-6.309-4.543-3.087-.29-5.509-2.087-1.785-10.9-.174-7.366-3.525,1.94-13.062,2.655-4.543-.922-5.188-.354-4.794L405.7,369.746l3.879-15.054,5.084-1.218Z" transform="translate(-26.844 -58.082)" fill="#ffeb00" stroke="#000"/><path d="M245.37,133.041,252.1,124.8l7.952-.9.94-13.43,14.132-7.146,2.127,1.411,5.084,12.534,6.193,5.3,1.863,4.981,4.433-2.771,4.466,1.74,4.382-2.809,5.838-8.861,18.662-1.424,5.02,5.768,4.968,1.211,12.212,7.63-6.734,16.7-7.527-2.165-1.321,5.007,3.2,12.4-6.908,3.751,6.579,4.82-1.333,5.271,1.546,5.187,18.843,10.337,4.53,6.431,1.044-2.23,2.4.528.4,11.187,6.934,3.88,13.81,21.033-4.872,2.591-.954,10.336-22.9,14.789,7.663,13.339,1.475,7.643-3.17,4.492-7.92-1.36-6.869,4.646-18.379,5.716-5.4-1.173,8.861,13.4,16.213,10.459,6.219,9.125.393.148,14.286,8.635,2.139,5.149-.676,5.536,8.725,5.754,2.642-.341,2.114-4.9,5.11-1.23,12.463,5.928,7.991.58,3.763,4.067-5.084,1.218-3.893,15.053,6.142,11.367.354,4.782.934,5.2-2.654,4.543-1.953,13.05,7.366,3.525,10.91.187,2.087,1.785.29,5.509,4.53,3.087,4.95,6.309-1.966,4.743,5.214,5.864-3.235,9.614-10.395,11.239-3.686,13.494.832,5.5,4.408,2.468,7.172-2.3,2.126,1.424,6.258,11.406,5.651,5.31,2.655-.161,4.633-6.142,3.989,6.483-1.308,7.3,9.273,4.292,7.224,10.878-3.673,15.369,8.042,6.8,2.352-1.372,2.984,5.033,8.847,4.717,3.893,1.978.064,7.037-2.494-.187L486.27,569.54l3.46,4.079-5.98,9.228,3.647,12.888-3.144,4.517,1.23.793-1.108,4.408,4.73,1.462-2.945,4.421,2.391,7.262-6.129,4.092,2.179,10.272-6.683-.67-.767-10.523-4.659-12.74-2.681-.5-9.112,6.116-10.446,3.073-6.154-5.322-7.12,3.6-5.02.38-4.369-9.53-8.055-6.857-7.74-1.044-4.594,2.243-4.028-5.826-4.962-15.131-1.759-18.288-4.73,2.114-15.215-4.331-2.694-3.589,4.53-2.971.477-5.587-3.95-13.114,1.714-5.335,4.408-3.409,6.844-3.01,1.449-2.281-3.66-6.843,7.488-7.34-5.058-1.147-5.942-4.962-11.064.541-10.62-3.512-11.116,1.65-3.422-4.395-22.238,11.728-.819,7.662,3.093,9.615-2.378,1.218-.921,10.607-3.79,6.96L305.9,540.284l-9.377-9.563-5.374.58-7.353-7.817-7.578-2.809-5.7,9.086,4.33,12.4-4.105,6.483.278,5.2-11.175.4-9.666,4.189-4.659,2.771-.767,10.749-3.351,4.162-2.706,10.195-1.212,2.127-4.13,9.878-4.131,3.577-5.271,1.07-7.385-2.694L204.61,593.86l-5.754,3.261-9.228-10.394-5.02-2.455-3.4-24.81-9.5-1.5-7.3-6.837L164.3,543.8l-3.6-6.8-3.6-28.322.612-.7-15-8.371-6.1-14.9.986-5.213.4-2.733-5.522-5.954-14.892-6.857-5.233,1.308-4.1,6.986-2.539-.632-3.151-10,2.764-9.679L87.514,434.935l-1.14-.316-8.468,15.267L75.5,451.1l-4.537-9.667L57.987,440l-10.774-7.514-1.624-5.02-5.22-1.108,3.132-4.2.967-7.089,7.475-7.288,7.617.026-.387-2.616L56.4,397.753,46.04,399.629l-6.309-4.621-7.674-1.147-1.18-2.378-3.486-17.759,1.985-1.714-1.811-5.162,1.269-2.468L27.4,358.966l3.416-19.2,11.393-19.145,6.315,5.509,5.677-3.95,1.238-6.644-2.558-4.7,5.071-9.388,9.35-9.68,9.318-5.348,8.661.116,16.729-2.011,7.211-4.105,5.542.554,4.5,3.371,13.281-4.357,6.863-4.923,7.45,1.218.019,5.374,2.01,1.785,5.233-1.031,3.2-4.317,5.22-.477,6.308,7.778L190.7,270.418l18.907-10.343,1.218-2.429-4.163-6.934L208.123,243l-5.413-17.824-7.978.58-3.57-9.679-4.93-2.127,11.11-6.031-2.223-7.5,6.418-8.268-1.76-7.868-14.3-4.7,1.952-5.414,19.5-8,.477,5.31,9.253,4.794,4.176-9.705.148-2.719-5.587-5.651,1.006-8.017,2.6-.793,10.878,1.083,4.433-6.708,11.844-5.8Z" transform="translate(-26.844 -58.082)" fill="#ffeb00" stroke="#000"/><path d="M688.176,546.649l-9.982.49-6.2-4.105-2.365.844-9.493,9.047-3.686,3.751-7.462,2.39-.413-5.226,3.435-7.011-.922-13.036,2.417-4.518-17.644,1.65-4.382-2.565-7.713-29.391-16.691-8.745-2.655-.135-4.04,5.226-7.952-.857L591.205,492l-5.813,8.963,2.062,7.34-3.248,4.189-12.1,2.326-6.606-3.022,4.131,18.8L566.1,537.84l-9.718,7.977-2.809,9.531-4.144,4.621-9.84,2.919-12.256-5.7-4.73,2.062-7.643,10.588-9.563-9.364-5.3-.4-2.494-.187-11.329,9.627,3.46,4.08-5.98,9.228,3.648,12.888-3.132,4.517,1.218.78-1.109,4.42,4.73,1.463-2.944,4.42,2.39,7.263-6.128,4.092,2.178,10.272,2.881,2.281,5.226,5.6,17.644,3.976,10.561-.116.065-5.426,14.589.645,4.62-1.824,4.028,5.98,1.108-2.165,4.73.328.3,4.453,5.123.941,7.753-2.314,10.51,2.269,4.717-2.378,4.884,2.191,4.969-2.049-.393,2.4,8.409,2.842,8.648,4.408-.4,7.462,20.311-8.19,7.54-7.965,10.839-1.76,9.35-5.98,2.139,5.111,6.193,5.587,5.374.425,4.834-2.784,2.023,3.474,1.772,7.036L681.1,665.5l-4.73,2.178,2.339,7.566-1.773,15.543,4.95-2.024,7.384-2.822,18.489-.09.148-4.7,7.263-1.476,2.39.716,1.424,4.53,4.253-.2,2.365.451.857-2.468,12.715.425,5.787-4.994,7.011,7.275,6.76,13.772,6.785,10.884,3.358,17.837,3.924-3.435,15.054,3.371,6.231,4.092,2.468,12.147,6.231,7.552.149-13.558,5.664-5.812-1.482-8.017,4.279-6.631,17.786,5.877,4.7-2.629,2.506-7.714,2.629-.677,11.883,6.219,4.936-2.049,5.2-6.18,5.226-1.121,7.385-2.758.689-5.258,3.976-3.635.174-.174-2.578-.425-1.449-5.033-4.807-9.879-1.222-13.873-4.434-12.94,8.6-29.366-10.1-15.717-5.123-1.624,4.24-15.189-4.3-9.563-.954-10.336,8.886-3.95-9.5-19.055-1.006-10.923,2.971-7.134-5.007-9.6-6.341-5.188L844.1,507.237l4.911-2.075,13.4,3.6,2.732-14.815,23.489-3.867,10.046-1.243,4.808-9.441,5.084,1.424,6.895-1.688-3.789-7.1,5.123-6.573,16.239-2.429,8.887-5.916v-1.534l.644-10.884,11.013-1.07,8,2.152L973,438.252l-5.6-.135-4.769-.818.954-17.509,2.281-15.608-5.3-11.715-2.352-10.079,5.7-7.777-1.836-7.012-.277-2.532,6.128-4.318-3.3-9.453,7.34-2.8.883-2.552-3.7-7.037,2.2-4.936-1.547-4.884-10.761-7.224-2.59-4.44-5.033,1.243-7.753,11,.754,8.12-7.088,7.778,2.3,4.962-4.595,1.424-5.284,5.49-7.488,2.037-4.189-15.672-9.254-9.564-4.253,3.351-2.075,7.791-5.123-1.23-3.093,7.41,3.3,7.037-.464,5.285-5.852,7.6-14.286,7.062-2.746.213-2.326-4.994-5.477-8.455-9.576,3.647-3.248-9.389-4.963-1.939-5.941,5.2-9.918-4.1-9.086,5.033-3.093-7.4-10.059,2.809-4.717-2.693,2.494-10.324-4.382-2.719.754-2.63-2.732.529-2.681,4.923-8.2,1.476-12.257,6.547-2.281,5.084,2.062,4.672-2.088,1.6-10.884-7.353-2.455.754-1.424,5.033-7.952-1.108-5.4-9.376-7.766,1.508-7.765-10.588-10,8L720.907,360l-4.685,1.218,4.569,12.837-2.655,15.718-4.782,2.01-8.068-1.437-4.981,2.339-12.321-5.774.135,2.288-7.54,4.607-3.46,7,.832,5.174,3.537,3.815,2.166-1.4,12.727,15.859,7.146,4.646,6.908,3.828-.277,13.667,3.989,7.263,9.744,14.422,2.519.554,2.617.4-3.087,7.4,1.65,2.127-5.864,8.448-7.237,3.184-1.121,7.939-7.437,1.424-.077,13.352,5.02-1.173,4.227,2.81,4.433,14.577-2.049,1.81-11.142,6.341-5.271.136-6.921,4.163Z" transform="translate(-26.844 -58.082)" fill="#ffeb00" stroke="#000"/><text transform="translate(734.222 456.113)" font-size="136.768" font-family="DejaVuSansCondensed-Bold, DejaVu Sans" font-weight="700">3</text><text transform="translate(498.743 291.801)" font-size="136.768" font-family="DejaVuSansCondensed-Bold, DejaVu Sans" font-weight="700">1</text><text transform="translate(174.871 372.533)" font-size="136.768" font-family="DejaVuSansCondensed-Bold, DejaVu Sans" font-weight="700">2</text><rect x="621.42" y="158.639" width="100.706" height="100.706" fill="#d00" stroke="#000"/><rect x="282.35" y="329.309" width="86.444" height="86.444" fill="#06c" stroke="#000"/><rect x="696.452" y="503.484" width="86.444" height="86.444" fill="#06c" stroke="#000"/></svg>