<svg xmlns="http://www.w3.org/2000/svg" width="564.477" height="854.934" viewBox="0 0 564.477 854.934"><title>1T Législatives 2017 Ardèche</title><path d="M422.552,864.182l-3.843-3.6-5.2-.266-1.488-4.826-3.261-3.727-12.753,1.579-9.984-2.679-2.277-7.253,1.869-7.215-4.587-.873-3.856,3.145-1.353-4.452,2.679-9.841,3.158-3.909-1.806-4.762,6.043-4.989,5.092-1.177,1.605-4.723,10.631-7.454,2.879-4.387-3.236-10.061-12.876-3.792-2.335-4.484,2.491-.983,3.792-15.394,6.309-4.956,7.822-1.216-.873-7.81,9.31-4.587-7.674-6.341,5.8-13.763,7.635-1.9,10.553,7.57,4.562-12.248-1.223-10.553,1.753-2.019,2.8-4.122-6.07-7.493,1.766-.744-.439-3.765,2.491-7.61,12.662-2.387L453.8,658.67l3.339-4.1-2.654-3.87,1.961-15.593-1.766-1.844-4.691,1.074-2.31-4.717.291-4.723,4.723-1.469,4.458,2.1,4.51-5.61-.44-.091-7.052-5.888,6.308-6.962-2.122-7.292-6.1-8.327-12.727-1.249-6.069,3.384-7.784.013-1.605,2.058-2.252-1.327L411.525,576.05l-.129-.492-7.784-9.045-2.2-6.309-7.117-2.562-7.415.925-7.306,6.9-7.408.647-4.717-1.973,2.161-1.288-3.5-11.666,6.606-18.272-13.684-7.454-9.266-9.336-5.027-.809-1.935-1.935-4.044-2.122-4.613,1.216,2.478-10.107-7.732-6.91L339.9,472.149l-3.513-4.484-5.157-.4-.557,7.694-4.749,2.044-12.676-7.8-.634-2.53-10.993,14.85-7.583-.634-4.459,5.8-12.2-2.239-2.11,1.327-4.257-2.589-4.853.861-2.627-2.109-5.888-4.044-1.669-4.439-1.34-7.687-10.883-6.852-6.761-13.853-4.31-.162.343-4.982-4.626-5.383.7-4.879,2.666-16.933,4.057-2.957-.913-1.605,8.153-10.424,6.445-4.626,3.992-22.776,6.27-3.83,11.737,6.166,12.546-5.306,8.153-.078,3.805-3.3,7.279-1.656-.634-4.989-3.262-4.891,2.492-1.01L303.14,340.9l7.118-3.287,3.06,7.28,7.648.317,5.2,5.978,10.806-1.3,7.609,2.666,9.59,3.966,13.354,1.818,7.053,14.455,2.64-.013,10.184,8.178,2.388,4.717,7.117,2.867,3.94,6.645,4.472,2.7,21.43-.9,5.674.013,1.236-3.248,9.311-3.882,12.513-.887,5.332-4.69,6.056.317,9.013,3.461,2.453-1.779,9.932-9,7,7.914,7.985,1.249,8.088-6.367,7.227,7.3,6.884,3.365,4.587,12.384,5.889,4.879,3.351,6.91L535.64,430.02l4.284-2.757,10.689,6.536,9.919.342.466,2.517,11.161-4.257,7.105,1.488,8.049-2.692,10.54,15.315-3.312,7.105.091,7.887-3.831,3.223-7.61,1.417-1.682,7.214.673,9.932-7.2,2.012-4.451,1.909.395,4.93-2.058,1.54-.945,7.706-6.535,7.719-9.414,4.109-2.614,4-.4,1.844,4.562,9.014-5.4,8.605,2.556,12.727-.078,2.336.116,10.832,4.258,6.988,5.292,21,.343,4.891-3.008,6.658,1.274,7.131-3.383,9.323-8.153,9.188-3.106,9.123-6.606,12.792,2.084,1.152-1.67,9.363-4.575,2.225-12.093,3.009-2.453,4.4-.938,9.868-4.944.356-1.805,12.778,5.791,8.037,2,1.566-1.909,7.33-5.513,6.07-2.867,10.631.835,8.165,5.571,9.454.479,8.237L512.785,770.5l-3.3,4.07-7.318,2.931-4.879,5.235-2.238,17.631.718,6.218-8.419,19.916-1.216,19.056,1.5,10.818.569,3.4,1.417,26.891-.453,2.718-1.721,16.072-9.11-11.245-8.819,5.383-6.14-10.036-3.566-.543-13.587-6.911-2.349,1.075-7.066-3.7-6.341-11.944,1.177-2.439.732-1.249Z" transform="translate(-54.092 -55.625)" fill="#ffeb00" stroke="#000"/><path d="M452.064,151.26l-13.077-2.465-10.158,3.94-3.462,4.18-9.971-3.856-6.9,6.813-8.14.647-4.206-3.313,3.184,10.171-1.566,5.17-2.6.68-2.414,4.095,1.987,11.88-4.387,12.145-6.71,3.539-1.216,5.067-5.526,5.383-2.5,15.432,1.553,7.545,5.2,5.571.8,5.04-10.1-1.151-.925,2.374,2.6,4.387-3.073,1.747L365.729,250l.912-10.048-10.087-8.14-7.344,1.048-11.692-3.8-2.2,12.7,14.914,10.2-1.4,7.6-6.9,3.248-7.214-2.575-6.723,3.753,1.987,9.388-2.323.983-2.013,6.989-4.723,1.734.744,7.648,7.144,7.673,5.254-.478,4.664,2.452,1.605,7.836-1.417,5.157L326.4,315.57,323.776,320l-18.4-1.766-10.12,7.693-4.717,17.665,4.206,6.658,4.7,2.238,2.478-1,1.249-10.566,7.118-3.287,3.06,7.292,7.648.317,5.2,5.966,10.806-1.3,7.609,2.666,9.6,3.979,13.342,1.819,7.053,14.442,2.64-.013,10.184,8.191,2.387,4.7,7.118,2.879,3.94,6.645,4.484,2.7,21.424-.912,5.674.013,1.236-3.248,9.311-3.87,12.527-.9,5.319-4.678,6.056.3,9.013,3.474,2.453-1.792,9.932-8.987,7,7.913,7.985,1.236,8.1-6.354,7.215,7.305,6.884,3.365,4.587,12.371,5.889,4.892,3.351,6.91-3.63,15.089,4.283-2.756,10.677,6.535,9.918.33.466,2.517,11.162-4.245,7.117,1.482,8.036-2.679,10.553,15.3,3.727-3.689,2.479-6.722-3.818-14.216,1.78-4.943,6.075-5.209,1.353-5.144,8.515-15.872-2.866-6.179-3.909-9.136-7.583-7.15-4.07-9.589-.291-1.262L598.9,346.4l-5.157-6.432-3.171-4.3,4.776-9.679-.706-2.653-2.31-4.27,1.126-7.04,6.683-6.5,3.649-7.149-3.927-6.523-9.771-3.474-3.675-3.565-.731-4.452,1.469-4.258-.479-10.9-2.517-4.665-5.623-5.824-5.914-8.579-.129-5.183.162-1.683L586.1,221.36l.078-1.469-2.543-4L576.9,212.78l-.886-7.544.8-6.885-3.209-6.244.013-4.536,3.487-5.765-4.956-15.872-.874-16.176,3.967-10.061.634-5.953-.213-2.361-.065-14.2-4.944-8.353-10.423-9-10.631-10.7-.77-10.074.13-1.527,1.261-4.678,2.4.394,3.326-3.365-.672-4.8-9.1-8.91-16.59,3.022-1.488,5.649-10.9,3.927-2.905,3.591-9.841-1-22.86,15.71,2.543,5.7L479,95.865l-9.919,3.65.66,7.958L473,111.647l-.717,2.588-5.345-.466-7.306,2-3.992,12.979,3.928,3.061,3.753,4.147v8.01Z" transform="translate(-54.092 -55.625)" fill="#ffeb00" stroke="#000"/><path d="M334.167,512.464l2.491-10.107-7.732-6.9,11.007-23.32-3.513-4.471-5.157-.4-.557,7.694-4.749,2.057-12.676-7.809-.647-2.53-10.98,14.849-7.583-.634-4.459,5.8-12.2-2.225-2.11,1.313-4.257-2.575-4.853.86-2.627-2.109-5.888-4.057-1.669-4.438-1.34-7.687-10.883-6.839-6.774-13.853-4.3-.175.343-4.969-4.639-5.384.718-4.891-7.318,3.552-5.247,6.18-10.87-.052L195.294,436.2l-5.235.136-11.3,5.9-5.688.394-4.535,1.644-6.865-3.384-9.855-.543-5.6,5.118-1.947,11.776-2.834,3.979,4.7,8.735-4.031,3.3-6.7-3.3-5.765,8.554-4.969-6.017-2.556-.279-1.922,4.452,3.132,7.428-2.893,3.636-8.01-6.6-2.277-7.415-9.706,4.193-.583,2.576-4.2,17.767-10.34,14.914-.279,2.427,3.74,3.675L89.1,520.3l-6.192,2.388L75.5,525.379l-1.1,7.584-2.323,1.3-9.589-4.031-2.362,1.249-5.319,8.761,7.215,3.4.822,2.556L55.171,559.44l-.039,5.344,3.727,3.818-.136,7.952,7.635.188.57,2.543-7.1,10.922,7.545,16.907,5.183,5.8.543,5.927-.9,20.88,6.871,3.352.783,2.517L79,657.428l6.56,3.869-.9,5.144,3.7,6.813,13.866-.77L108.9,687.2l2.627,12.449,7.492,13.7-1.352,2.265,2.349,1.249,3.145,10.184.2,21.216,6.018,11.44,9.311,4.879,4.826,5.526,7.28.278,4.574,9.589-4.18,9.693,9.337,4.717,7.5,7.479-4.943,8.58-7.227-1.5-2.161,1.378.744,7.331,5.079,4.51-.505,4.736,2.769,6.458-1.883,4.122-1.326,16.971-8.541,5.268,6.787,8.392,1.87,1.248,4.775-2.187L171,860.359l16.519-3.753,3.06,2.349,4.6.692,4.93-6,8.218,10.592.66,8.166,10.365.925,8.962-4.3,4.717,13.84,16.389,8.223,9.719,10.741,6.1,5.358,7.57,2.808,8.178-5.623,8.379-15.671-.342-17.58,7.544.149,8.794-5.319,6.127-8.179-1.922-4.574L334,851.8l9.279-5.319L348,848.59l3.713,7.162L351.217,861,345.8,878.994l.938,7.809,5.636,4.944L368,890.582l2,4.892,2.639-.078,7.04-11.11-2.452.9,1.275-28.734,2.349-4.737,5.169-1.087-2.278-7.253,1.87-7.228-4.588-.86-3.856,3.132-1.352-4.452,2.678-9.835,3.158-3.908-1.805-4.763,6.056-4.988,5.08-1.191,1.605-4.723,10.63-7.441,2.879-4.387-3.235-10.062-12.876-3.8-2.336-4.471,2.492-1L393.935,758l6.308-4.956,7.823-1.2-.874-7.823,9.311-4.587-7.674-6.341,5.8-13.763,7.636-1.9,10.553,7.583,4.561-12.248L436.16,702.2l1.747-2.012,2.8-4.122-6.069-7.506,1.779-.731-.452-3.778,2.491-7.61,12.663-2.374,2.678-15.445,3.351-4.109-2.665-3.857,1.96-15.606-1.766-1.844-4.691,1.074-2.31-4.717.3-4.717,4.717-1.468,4.458,2.1,4.51-5.61-.44-.091-7.04-5.887,6.3-6.976-2.123-7.292-6.1-8.327-12.728-1.236-6.069,3.384h-7.784l-1.605,2.071-2.252-1.327-10.287-18.2-.116-.478-7.8-9.059-2.187-6.3L394.3,557.6l-7.415.912-7.292,6.911-7.415.647-4.7-1.974,2.161-1.287-3.5-11.666,6.6-18.273-13.684-7.453-9.266-9.337-5.015-.809-1.948-1.935-4.044-2.122Z" transform="translate(-54.092 -55.625)" fill="#ff8080" stroke="#000"/><text transform="translate(378.913 254.449)" font-size="137.326" font-family="DejaVuSansCondensed-Bold, DejaVu Sans" font-weight="700">2</text><text transform="translate(369.853 484.494)" font-size="137.326" font-family="DejaVuSansCondensed-Bold, DejaVu Sans" font-weight="700">1</text><text transform="translate(141.943 626.589)" font-size="137.326" font-family="DejaVuSansCondensed-Bold, DejaVu Sans" font-weight="700">3</text><rect x="299.403" y="373.248" width="70.449" height="70.449" fill="#ff8080" stroke="#000"/><rect x="257.969" y="542.843" width="101.066" height="101.066" fill="#06c" stroke="#000"/><rect x="309.975" y="222.636" width="70.449" height="70.449" fill="#ff8080" stroke="#000"/></svg>