<svg xmlns="http://www.w3.org/2000/svg" width="900.77" height="761.142" viewBox="0 0 900.77 761.142"><title>1T Législatives 2017 Haute-Savoie</title><path d="M132.1,683.592l-12.888,4.244-6.718-8.087-.633-14.343-14.086-.822L94.67,662.8l.77-3.508-5.6-4.382-.085-3.594,3.756-22.619-1.823-2.841-6.751-36.859-.788-5.631-2.276-13.137,2.319-2.4-2.687-14.079,7.77-13.342,5.383-.855,9.979-18.006,13.89,8.592,4.732,7.857,1.156,9.431,8.874.017.035-10.98,20.539-13.924,5.682-3.945,13.488,2.67-.5-6.05,3.175-5.1-6.316-20.556-3.663-5.717.6-6.787-.873-3.423,9.276-5.066,9.379,6.016,17.4.171,7.086-.265,4.279-5.751,6.7-1.857,14.942,10.176,3.243-1.635-1.857,6.6,3.808,5.75,3.38-.915,1.37-6.889,6.3-1.335,2.944,17.133,7.5,6.632,9.542-2.507,3.226-.548-1.506-9.56,2.978-17.167,5.229-1,10.081-14.8.89-7.086,14.925-8.729L322.8,435.24l-.4-6.787,5.383-8.592-.7-6.573,8.438.1,4.946-4.048,20.873,7.54-5.529,4.33.172,3.56L364.3,443.7l1.07,3.979,12.383,6.983,10.261-3.328,10.663.581,34.848,25.144,2.79,14.411-15.66,20.411,11.587,23.355-5.418,9.208L410.642,537.3,393.7,561.4l-20.325,15.191-7.317-.668L357.4,592.073l14.1,2.876,5.63,9.191-1,6.949-6.205,8.874-.821,10.561,4.1,5.1-1.557,9.747,17.467,15.5.7,3.928-.9,3.492-3.542.633-8.489-5.819-6.89.521-11.853,12.64-1,10.784-13.205,3.876-5.486-20.71-6.5-15.866-10.526.316-13.341-15.909L301.027,625.9l-5.716-20.394-5.153-14.994-14.24-28.344-2.927-2-1.018,21.78-1.456.034.805,2.79-7.335,1.634-.949-2.208,2.943-6.135-5.8-7.668-9.379,9.242-6.59-.351-.932,6.034-9.38-.437-5.048-4.176-5.247,7.822-4.527,4.544L206.187,595.5l-8.66-3.174-1.053,15.293,6.033,14.206,3.14,15.241L200.4,640.1l-7.419-5.965-7.368,6.4-8.661,12.854-.453,3.243,15.815,4.211.172,3.423-14.454,8.361-20.865-2.576-2.456,8.678-10.783,2.319-10.081-4.262Z" transform="translate(-39.77 -53.822)" fill="#ffeb00" stroke="#000"/><path d="M157.212,670.122l-2.473,8.677-3.423,18.588,16.346-1.3,1.19,13.573-5.785,8.422-.137,6.666,14.711,5.7-.334,16.2,10-3.158,25.255,11.947,5.8-9.311,3.526-1.053,15.944,8.609,13.923-1.959.753,9.61,3.346-.616.6-3.381.385-27.128,16.851,12.452,6.067-3.826,2.174-6.419,20.83,5.854-.282,6.453,9.123,2.473-.736,9.525,4,4.964,9.225.967-2.644,12.717-1.455,20.1,4.544,8.386,2.961-6.136,9.029-4.048,1.206-6.718,10.116,5.195,2.507,1.284-1.386,20.89,10.193-2.525,10.449,1.592,1.839-3.175,14.309,1.909,20.111-8.473L420,803.7l13.675-32.076,3.577-5.8.017-.179,1.319-2.944-3.826-5.118,16.568-16.431,3.056-10.244-8.241-5.417,21.78-17.664L487.465,689.7l3.225-1.652,5.529-17.2,8.754-11.536L509,650.806l-3.389-5.528,6.615-11.031-2.491-6.2,6.239-3.68,9.105-20.325L542.2,597l11.416-18.853,3.193-7.171,11.2-9.064,6.872-19.837,11.245-12.786-12.067-8.206-10.151-19.008-14.239,3.038-10.681-2.7-22.328-18.4-1.121-.171L486.5,514.691l-3.123,6.555-7.035,16.534,2.842,6.351-5.153,9.242-11.048-8.053-10.03,2.773-16.226,10.8L424.6,548.846l2.311-4.4-16.183-7.138-16.945,24.1L373.453,576.6l-7.317-.668-8.66,16.15,14.1,2.875,5.631,9.191-1,6.949-6.2,8.875-.821,10.56,4.1,5.1-1.558,9.747,17.467,15.5.7,3.928L389,668.3l-3.543.633-8.489-5.819-6.889.522-11.853,12.64-1,10.783-13.2,3.877-5.485-20.71-6.5-15.867-10.526.317-13.342-15.91-7.052-12.854-5.716-20.393-5.152-14.994L276,562.179l-2.927-2-1.019,21.78-1.455.034.8,2.79-7.334,1.635-.95-2.208,2.944-6.136-5.8-7.668-9.379,9.243-6.59-.351-.933,6.033-9.379-.436-5.049-4.177-5.246,7.822-4.528,4.545L206.268,595.5l-8.66-3.175-1.053,15.293,6.033,14.206,3.14,15.242-5.247,3.038-7.419-5.965-7.368,6.4-8.66,12.854-.454,3.244,15.816,4.21.171,3.424-14.454,8.361Z" transform="translate(-39.77 -53.822)" fill="#ffeb00" stroke="#000"/><path d="M438.555,256.164l1.284-14.172,3.381-6.521,13.923-4.732,8.293-9.765,19.306-8.755,6.539,7.069,7.941-6.35,7.523.616.471.172,4.579-4.648,5.067-16.362,15.892,1.557,7.5,10-3.808,9.329,1.456,3.038,5.032,9.781-5.349,13.342-.1,3.911,3.662-.068,7.668-7.292,10.467.266,5.485,20.89,16.963.136,5.579,9.26.368,7.291-5.914,8.627L579.1,296.455l-15.045,9.4-13.838,4.082-13.205-5.118L532,309.968l-2.49,2.688-.18,10.868,15.713,28.1,21.515,19.957,9.781,2.037,10-1.737-4.013,6.1,5.82,9.209-1.036,7.24-2.755,8.677-5.212,3.329-6.838-.6-6.05-1.651-9.475,2.789-5.6,11.665-.351,3.628,7.317,7.7-8.575,23.885,3.21,6.453-21.395,14.172-10.6,3.381-4.1,6.221-1.121-.171L486.515,514.76l-3.124,6.555-7.017,16.534,2.842,6.35-5.169,9.243-11.031-8.053-10.047,2.773-16.217,10.817-12.135-10.064,2.293-4.4,5.418-9.208-11.571-23.355,15.661-20.411-2.791-14.412-34.865-25.143-10.663-.582-10.244,3.329-12.383-6.983-1.07-3.962-8.327-18.939-.171-3.543,5.52-4.348L340.56,409.42l-4.964,4.065-8.438-.12.719,6.573-5.383,8.592.385,6.787-16.217,5.751L291.737,449.8l-.9,7.086-10.081,14.8-5.212,1.018-3,17.168,1.523,9.559-3.226.53-9.542,2.508-7.5-6.615L250.857,478.7l-6.3,1.336-1.369,6.889-3.381.915-3.825-5.751,1.874-6.589-3.244,1.617-14.942-10.167-6.7,1.841-4.279,5.751-7.1.265,3.226-5.563-12.735-5.169L190.8,460.76l10.7-13.453-.523-5.948.266-16.765-1.84-2.944-9.91-1.72,4.844-15.207,7.223-6.239,9.577,3.106,9.824-2.661-1.249-4.065L233,391.586l4.03,4.93,12.555,4.766.453,3.407,8.122,7.668,12.657-8.139,3.363-4.176-.035-.522,16.38-21.129,3.26-1.087,6.735-11.853,6.033-7.685,2.037-13.924,6.966-7.754,6.488-12-1.609-3.029,9.559-10.895,16.046-7.873,13.992,3.714-2.208,5.52,14.745,14.309,13.368-2.319,6.667,2.336.488-9.328,19.075-2.721,19.256-6.222,4.861-23.706.2-3.209-1.506-6.555,3.945-12.923.737-2.19Z" transform="translate(-39.77 -53.822)" fill="#ffeb00" stroke="#000"/><path d="M337.665,279.716l-20.479,16.363,1.617,10.629-9.474,10.329-16.4,6.667-4.142,5.485-8.473,5.631-6.384.9-20.958-5.169-4.458-5.665-25.186-.351-5.8,3.491-.9,7.206-9.08,5.015-12.666-6.436-17.749-1.634-6.984,1.669-2.592,6.7-16.783,8.327-.89-4.365L142,348.822l-6.016-.685-6.572.667-5.485-3.192-9.877,8.927-7.274,2.91-2.756.9-4.946,9.747,5.118,13.009-2.371,10.577-17.252,1.686-7.489-1.189L64.153,375.515l-6.239-3.261-6.487,2.858.684,13.676-7.472,12.033-2.421,18.416,4.03,6.872-4.81,10.98,1.7,11.4,2.156,9.577L40.334,466.5l3.7,7.959-.265,15.464,1.541,7.052,15.815,15.31-.9,10.8,1.472,9.748-2.354,9.593-4.612,4.527,4.381.453,3.226,5.888,19.221.471,7.788-13.342,5.383-.856,9.961-18.006,13.89,8.592,4.733,7.857,1.172,9.431,8.857.034.052-11,20.521-13.924,5.682-3.927,13.5,2.661-.523-6.05,3.175-5.1-6.316-20.556-3.646-5.717.6-6.787-.89-3.423,9.276-5.066,9.4,6.016,17.381.171,3.226-5.563-12.734-5.177-1.3-3.3,10.7-13.47-.5-5.93.265-16.765-1.857-2.944-9.893-1.72,4.844-15.208,7.206-6.238,9.577,3.106,9.842-2.661-1.267-4.065,13.309-3.278L237,396.5l12.555,4.75.453,3.423,8.121,7.668,12.658-8.138,3.362-4.176-.034-.522,16.379-21.13,3.261-1.087,6.735-11.852,6.033-7.686,2.019-13.941,6.984-7.736,6.487-12-1.609-3.03,9.559-10.894,16.03-7.873,14.009,3.7-2.225,5.528,14.762,14.309,13.367-2.319,6.668,2.336.471-9.328,19.084-2.721,19.255-6.222,4.844-23.706.214-3.209-1.506-6.555,3.946-12.923.736-2.19-1.035-2.79,1.284-14.19-5.451-4.493L430,214.018l-1.609-3.106-6.615-1.207-2.593-6.239-10.466,2.311-10.33-2.088-2.054,1.618.017,7.12,9.893,2.943.471,13.171-10.68,18.468L382.858,257.2l-19.923,9.61-11.014.1-2.7,2.576Z" transform="translate(-39.77 -53.822)" fill="#ffeb00" stroke="#000"/><path d="M766.359,269.909l12.768-22.268.8-7.317,8.593-6.718,4.63-9.961,10.38-9.765,6.6-24.587L810,185.6l-5.948-9.046-3.26,1.7-14.06-10.732-6.47-12.888-15.678-8.789-3.44-10.278-6.89-1.857-8.909-15.524-2.473-13.556,7.976-6.837,7-.6,6.572-8.361,3.807-5.169-3.14-8.737,2.456-6.068-11.048.967-23.655-9.979-29.371-5.52-3.825.231-53.257,2.311L632.494,58.9l-4.048.2-33.3,5.332L577.6,68.026l-22.6-10.518L535.319,68.257,531.956,82.6l-4.716,5.786-23.285,12.169-10.081,4.382-11,.565-6.983,8.506-3.732,1.558-6.153,9.208-3.68.351-16.834-7.488-9.808-20.693-4.048-2.388-12.186-2.122-7.89,3.038-9.808,2.738-8.027,7.608-10.244,10.4-5.8,13.1-8.156,12.571-5.767,17.647-6.453,3.629,5.117,4,2.542,9.576-.565,3.629-9.063,6.239.137,7.351L371.853,218l2.311,2.858,3.423,1.284,6.539-3.244,12.134-13.658,2.054-1.609,10.33,2.088,10.483-2.319,2.576,6.247,6.633,1.189,1.592,3.107,4.433,23.483,5.451,4.493,3.363-6.521,13.923-4.733,8.293-9.764,19.324-8.755,6.521,7.069,7.941-6.35,7.523.633.471.171L511.75,209l5.083-16.345,15.875,1.557,7.5,9.979-3.808,9.345,1.472,3.03,5.016,9.781-5.332,13.342-.12,3.928,3.662-.068,7.668-7.308,10.483.282,5.469,20.873,16.979.137,5.563,9.259.368,7.309,2.174,10.629-5.032,9.277,1.635,2.944,9.747,4.082,2.91,6.6,8.172-5.195,7.189-.667,5.914-16.183,8.823-5.469,9.91,2.02,9.611-4.3,7.684,6.264,16.8-4.416,3.029,1.721-.214,1.189,9.893,14.625L687,314.693l14.558,19.94,6.949-1.138,5.169,4.81,9.8-10.612,10.295,1.575,12.2-7.069,10.834-1.07,2.26-10.466L769.113,296.4l3.363-5.751-3.509-13.29Z" transform="translate(-39.77 -53.822)" fill="#ffeb00" stroke="#000"/><path d="M882.277,451.029,873.7,431l-9.559-4.809-1.284-10.518-10.26,1.558-9.124,11.313-15.7,8.49L816.629,428.5l5.768-17.381,6.906-8.344-3.611-21.223,5.888-9.38,2.892-18.083-32.341-3.894-13.051-5.819-14.188,3.055-4.143-5.7-8.943-3.7L756.859,321.2l-10.817,1.07-12.2,7.068-10.295-1.574-9.808,10.611-5.169-4.809-6.949,1.138-14.557-19.94-1.121-17.485-9.877-14.608.2-1.189-3.03-1.72-16.8,4.416-7.685-6.282-9.611,4.3-9.909-2-8.824,5.451-5.914,16.2-7.171.667-8.191,5.2-2.892-6.6-9.765-4.082-1.617-2.944,5.015-9.277-2.156-10.646-5.93,8.626-2.662,13.676-15.046,9.4-13.821,4.082-13.2-5.118-5.032,5.152-2.473,2.687-.2,10.869,15.713,28.1,21.532,19.957,9.765,2.036,10.013-1.737-4.014,6.1,5.8,9.208-1.018,7.24-2.756,8.678-5.229,3.329-6.837-.6-6.051-1.652-9.474,2.79-5.579,11.664-.352,3.629,7.309,7.7-8.575,23.886,3.226,6.452-21.4,14.173-10.595,3.38-4.1,6.222,22.311,18.4,10.681,2.722,14.24-3.055,10.167,19.024,12.049,8.19-11.245,12.786-6.872,19.837-11.2,9.063-3.192,7.189,3.594,6.188,12.255,6.418,17.288,3.911,1.822,6.735,8.438,6.435,1.609,3.244-4.544,5.28,1.121,10.518-23.9.471,6.435,13.034,6.222,24.167,9.328,11.117,2.593-2.319,6.281,2.319,5.135,15.764,10.466,8.592,1.823-2.824,16.551-.984,9.14-4.211,16.26-.1,2.542,6.967,18.485,23.1-.9,18.015,8.309,10.98L683.6,767.024l16.242,5.486,20.711-24.467,1.806-7.035L733.094,726.4l17.467-3.227,15.156-8.472,1-10.629,5.682-9.226.214-11-3.6-6.068-1.737-3.055,12.306-21.181,13.488-3.174,9.979,3.012,5.5,4.8,3.209,6.5,3.038-2.14,2.662-14.66,4.262-5.8,21.062,5.52,21.275-5.015,12.5-13.607,27.616-10.561,2.645-2.61,4.7-10.149,4.348-21.532,9.046-11.87L940,561.831l-4.33-29.08-16.979-13.8.12-7.12,5.246-9.14-8.07-16.594-16.166-8.344-4.108-14.291Z" transform="translate(-39.77 -53.822)" fill="#ffeb00" stroke="#000"/><text transform="translate(244.314 518.678)" font-size="158.963" font-family="DejaVuSansCondensed-Bold, DejaVu Sans" font-weight="700">1</text><text transform="translate(366.05 616.183)" font-size="148.743" font-family="DejaVuSansCondensed-Bold, DejaVu Sans" font-weight="700">2</text><text transform="translate(366.05 397.59)" font-size="158.963" font-family="DejaVuSansCondensed-Bold, DejaVu Sans" font-weight="700">3</text><text transform="translate(27.384 450.631)" font-size="140.305" font-family="DejaVuSansCondensed-Bold, DejaVu Sans" font-weight="700">4</text><text transform="translate(548.372 182.406)" font-size="181.632" font-family="DejaVuSansCondensed-Bold, DejaVu Sans" font-weight="700">5</text><text transform="translate(610.415 473.773)" font-size="181.632" font-family="DejaVuSansCondensed-Bold, DejaVu Sans" font-weight="700">6</text><rect x="149.99" y="453.785" width="60.619" height="60.619" fill="#06c" stroke="#000"/><rect x="305.431" y="287.92" width="60.619" height="60.619" fill="#06c" stroke="#000"/><rect x="466.251" y="58.956" width="60.619" height="60.619" fill="#adc1fd" stroke="#000"/><rect x="101.727" y="300.586" width="48.417" height="48.417" fill="#06c" stroke="#000"/><rect x="180.109" y="584.597" width="78.064" height="78.064" fill="#06c" stroke="#000"/><rect x="598.117" y="504.812" width="97.505" height="97.505" fill="#06c" stroke="#000"/></svg>