<svg xmlns="http://www.w3.org/2000/svg" width="694.403" height="926.112" viewBox="0 0 694.403 926.112"><title>1T Législatives 2017 Rhône</title><path d="M502.516,632.5l-7.022-1.551-4.319-4,7.884-5.266,3.257-9.115L508.34,599.8l5.417-.556,2.647,2.493,1.807,8.027,3.453,2.754,5.9-1.754,2.045-2.086,3.978.485,1.691,2.809-7.6,14.711,8.563,5.486,10.736,2.82,2.856,4.69,4.585.1,3.387-3.11,4.66,3.145-5.27,7.631-2.636,2.4-1.367,10.334-11.1,2.045.734,10.653-13.128-7.044-1.775-4.6-1.286-6.673-4.25-16.2q.707-3.471,1.414-6.943l-1.274-1.228-6.5-3.274Z" transform="translate(-89.864 -21.46)" fill="#ffeb00" stroke="#000"/><path d="M529.6,608.672l-2.045,2.09-5.9,1.752-3.454-2.75-1.807-8.031-2.647-2.493-5.417.557-6.1-11.68,1.658-2.838,10.5-2.342,2.674,2.265,9.02-10.513,14.015-9.485,3.411,5.1-16.74,14.913,4.668,5.749,13.245,6.054-2.489,5.959.015,7.315.147,2.918-1.042,7.33-6.19,10.956-7.468-4.815,7.6-14.707-1.691-2.809Z" transform="translate(-89.864 -21.46)" fill="#ffeb00" stroke="#000"/><path d="M535.14,631.494l6.19-10.953,1.042-7.329,8.115-.269,1.547,4.757,4.445,2.5.866,8.06,11.093,5.926-.689,13.457,9.908,5.994-.021,3.6-3.481.836-19.614-8.239,2.636-2.4,5.27-7.626-4.656-3.146-3.387,3.11-4.585-.1-2.859-4.693Z" transform="translate(-89.864 -21.46)" fill="#ffeb00" stroke="#000"/><path d="M542.211,602.978l.014,7.315.147,2.919,8.115-.269,1.548,4.76,4.445,2.5.866,8.06,11.092,5.927-.689,13.452,9.908,6,3.971-14.051,5.046-14.441-16.881-2.981-4.884-9.115-8.61-10.715,1.4-13.762-6.688.656-6.326,7.788Z" transform="translate(-89.864 -21.46)" fill="#ffeb00" stroke="#000"/><path d="M458.72,477.283l-2.37-21.577,5.1-4.089.383-.107,20.48-21.96-.106-3.813,9.514-4.472,3.252,1.372,8.338,15.554,14.218,2.994,2.21,12.026-5,12.721.82,1.88,33.282-18,3.011,6.37,13.693,4.018.677,10.646,6.522-3.946,2.37,18.69L594.2,492l-6.4,17.96-2.752,7.635-14.513,1.274-8.3,12.178-2,5.657.989,1.354.543,18.307-.552.33,9.986,20.008-7.27,8.125-6.539,2.414-6.77.659-6.388,7.866-13.363-6.111-4.695-5.808,16.882-15.038L539.6,563.66l-14.147,9.55-9.1,10.61-2.7-2.28-4.089-9.2-8.98-5.55-2.406-6.646-2.387,6.753-6.352,2.851-2.1-18.6L471.2,530.493l-8.018,1.426-1.2-15.43-5.551,2.77-9.567,6.04L435.8,527.633l-1.292-18.877.784-3.412L451.9,493.317l5.15-4.4,1.736-9.692Z" transform="translate(-89.864 -21.46)" fill="#ffeb00" stroke="#000"/><path d="M586.681,625.151,569.8,622.173l-4.884-9.119-8.61-10.711,1.4-13.763,6.5-2.415,7.2-8.038.954.517,2.929,6.409,16.765,6.6-1.528,10.761L602.5,615.2l-1.884,14.426Z" transform="translate(-89.864 -21.46)" fill="#ffeb00" stroke="#000"/><path d="M577.661,653.642l3.974-14.051,5.046-14.44,13.934,4.473L602.5,615.2l-11.964-12.787,1.525-10.758-16.765-6.605-2.926-6.406-.957-.517-9.887-19.838.55-.329-.528-18.136-.976-1.342,1.972-5.6,8.214-12.064,14.388-1.255L587.851,512l7.943,6.927,7.473,19.845-2.181,24.883,4.194,6.057,13.549-5.4,7.242.261L635.2,562.3l5.02,3.762-24.486,38.284-3.876,29.8,2.537,19.342-19.8,8.779Z" transform="translate(-89.864 -21.46)" fill="#ffeb00" stroke="#000"/><path d="M149.483,419.19l-7.359-1.078L128.432,405.7l5.042-5.363-2.138-7.224-6.771-8.98-9.9-5.025-12.7-3.67-8.285-6.058-3.162-11.626,16.891-.178,3.884,5.692,13.986-3.617,7.831,7.359,9.016-17.71-1.256-3.136-3.412-14.806-.588.124-13.122,3.394-5.844-3.706L110.267,318.5l-6.557-3.8-7.742-14.352,2.022-2.664,23.973-1.078,9.069-10.93,4.232-9.461-1.132-6.9,6.824-3.546.8-14.316-4.018-6.04,2.388-10.53,7.884-7.447,1.826-14.388,8.036-6.039,21.835-3.217L185.5,195l9.514-3.448,20.009,13.782,6.9,1.256,4.767-16.909,5.693-4.579,5.621-13.452,22.53-16.7,9.2-2.28-.347-13.693,15.154,14.967,7.59,12.125-2,15.037-3.1,5.88,1.772,6.387-5.024,4.276,18.076,20.6,5.426,4.73,1.354,10.9,13.256,20.918,1.1,7.082-7.617,20.3-.159.677L311.979,302.3l-9.862,13.087-5.755,3.082.178,7.306,13.933,4.16,4.642,5.407,6.075,14.842-1.585,6.37,2.414-.311,9.363,4.2,2.557,6.592,17.835,1.006,11.242,9.328,10.824,1.256,15.518-2.735.988,3.233,6.442,1.933-.508,12.686-7.154.125-6.3,7.937,4.632,9.185,5.728,4.071,12.944-5.755,1.658.73.293,1.239-2.833,15.019-2.681,8.437-2.387.606-10.316,3.1,6.841,16.3-1.1,2.557-.57,10.913-1.078,6.993,6.842,8.053,2.084,13.951,2.78,2.156,1.915,6.057,5.328,3.528,2.681,1.025-2.04,2.048,3.813,13.693,9.256,5.443,9.255-3.519,11.064-2.334,9.568-6.058,5.55-2.77,1.2,15.43,8.018-1.408,16.143,20.65,2.1,18.583,6.352-2.85,2.387-6.753,2.4,6.645,8.981,5.55,4.089,9.2-10.593,2.37-1.683,2.869,6.156,11.777L506,601.511l-15.484,9.568-8.178-6.753-4.507-4.926-2.04-16.615-15.7,3.27-9.149-10.04-9.916,2.77-10.806,4.178-10.2-2.592-16.428,1.7-13.176,14.352L380.048,615.1l-6.522,5.006-18-.766-4.695-10.058-12.026-8.73-2.406,7.225-15.118,17.051-18-7.724,3.2-10.129-1.844-3.181-7.226-.926-3.982-6.156-13.363,3.082-6.227-2.351,11.189-14.423-.418-3.707-3.688-10.565-11.537-9.033-3.252-6.592-14.6-10.477-5.256-9.292-6.807,2.369-3.5-.971-11.689,8.161-22.637-11.118-5.692-9.22,5.71-4.7,4.195-10.37-1.292-5.791-25.265-1.1-14.111-11.679-4.2-14.423-8.107-7.849-2.263-7.1,17.4-12.926-6.539-2.78,6.405-12.633Z" transform="translate(-89.864 -21.46)" fill="#ffeb00" stroke="#000"/><path d="M389.856,438.4l10.316-3.083,2.387-.623,2.682-8.437,2.832-15L407.78,410l-1.657-.731-12.945,5.755-5.728-4.071-4.632-9.184,6.3-7.92,7.153-.143.508-12.668-6.441-1.951-.989-3.216L373.83,378.6l-10.824-1.274L351.764,368,333.929,367l-2.557-6.593-9.363-4.2-2.414.33,1.586-6.388-6.076-14.842-4.642-5.407-13.932-4.16-.179-7.3,5.755-3.065,9.863-13.087,3.234-19.474.16-.659,7.616-20.32-1.1-7.083-13.256-20.917-1.354-10.9-5.426-4.73-18.076-20.6,5.024-4.276-1.772-6.387,3.1-5.88,2-15.038-7.59-12.124-15.154-14.949.347,13.692-9.2,2.264L238,171.629l-3.929-5.443-14.441-7.9-6.04-2.388-7.688-7.617.525-7.047,19.751-8.178-.909-4.267-11.359-13.782-14.147-.187-1.407-6.441,4.089-12.98-4.58-9.452,2.049-1.933,6.646-20.686-.544-8.472,1.809-10.717,6.316-9.22-.954-3.635,14.147-.347,1.915-7.065,6.522,3.759,2.886,6.958,14.183-3.162,13.069,12.721,9.863-4,11.741,22.842,25.755-3.43,6.4-4,1.337-10.495,7.234-12.124,9.131,1.318,1.3,3.162.988,14.237,10.316,9.6,24.276,4.276,2.521-6.975-3.688-10.37,14.2-12.374,2.228-10.423,10.993-1.862,8.562,7.154L420.607,22l10.334,2.406.347,8.543,7.083,10.592,3.2.179.16,16.516-5.292,2.37L431.012,58.1l-3.885,5.622-6.441-1.533,2.574,14.076,5.443,5.113,11.153-.57,2.78,2.5,8.926,4.731,11.724,12.089-2.406,6.227-9.835-1.078,1.15,6.316,10.7,12.071-7.465,6.352-3.269,9.9,2.174,13.692,3.545,5.363,16.285,6.5,9.55-2.414,9.328-1.515,3.563.455,1.6,5.5,7.136,8.784,8.178,7.831-5,18.877-6.423,9.051-11.679,14.5-3.759,12.107-5.256,6.441-9.2,10.147,1.221,9.763,5.024,3.76,4.16,12.6-2.022,6.806-14.736,14.984,4.561,13.345.606,8.107-1.657,11.394,3.563,14.842-.382,1.042.82,6.993,3.831,24.588-3.377,10.165-1.292,2.263-13.55,12.739.606,10.227,9.9,4.25,12.615,2.646.125,3.83-20.481,21.96-.4.089-5.1,4.107,2.37,21.559.125,1.969-1.719,9.693-5.167,4.4-16.615,12.009-.784,3.43,1.3,18.877-9.274,3.519-9.256-5.443-3.812-13.693,2.04-2.048-2.663-1.025-5.345-3.528-1.915-6.039-2.771-2.174-2.1-13.951-6.824-8.053,1.06-6.993.57-10.913,1.1-2.539Z" transform="translate(-89.864 -21.46)" fill="#ffeb00" stroke="#000"/><path d="M465.392,711.019l-10.209-3.1,2.574-17.194L443.5,682.743l-1.72-1.319-6.824,1.425L416.591,703.99l-8.544,5.692-6.521,16.5L388.341,713.86l-28.5-1.336-9.113,10.957,5.514,4.909L353.652,739l-9.461,15.047-.4,3.563,3.466.927-5.532,4.249-3.8,9.782-9.479,3.849-1.185,7.082-10.076,9.88,3.118,17.541-19.456,7.813-5.693-4.33-7.028.419-.954-10.423-27.038.472,5.077-9.693-10.351-6.824-8.321-5.025-2.1-13.434-4.25-5.389-14.423-7.172-9.185-2.592-1.077-5.479-12.322-17.871,2.593-4.783-2.646-4.82-20.169-9.4,2.138-2.77-2.156-10.076,5.728-8.436-6-8.383,5.443-5.025,1.844-11.082,7.287-8.454,4.909-18.094,8.837-6.557-4.071-8.579-5.2-3.528-13.184,6.129-10.682-1.808-7.608-21.782,6.958-8.383,13.746-5.657-.623-22.084,2.833-2.522,6.422,4.089-5.746-15.7,1.675-3.065-4.873-4.962,3.43-.543,2.387-9.434,5.221-3.8,22.637,11.118,11.688-8.16,3.5.989,6.807-2.388,5.256,9.292,14.6,10.494,3.252,6.575,11.537,9.033,3.688,10.565.418,3.707-11.189,14.423,6.227,2.351,13.363-3.082,3.982,6.174,7.226.908,1.844,3.181-3.2,10.129,18,7.724L336.43,607.89l2.406-7.233,12.026,8.73,4.695,10.058,18,.766,6.522-5.007,10.369-18.672,13.185-14.352,16.41-1.7,10.2,2.593,10.806-4.16,9.915-2.78,9.149,10.04,15.7-3.269,2.04,16.614,4.508,4.945-13.675.605-12.356-7.323-11.261,3.163-.107,5.514,2.521,1.114,14.218-2.993,7.555,16.267.178,3.412,6.209,2.432-18.752,13.487-.767,3.181,6.922,10.28,27.314-3.688,6.316,6.387-1.273,3.5,20.357,17.506,2.735,5.9,8.819,2.735-2.352,6.86-18.806,17.71-.508,7.234-2.227,1.061.383,3.617-8.722,10.61-6.993,2.084-8.526,10.21-3.545-.909-3.235-10.423,2.192-8.071Z" transform="translate(-89.864 -21.46)" fill="#ffeb00" stroke="#000"/><path d="M543.058,896.9,530.2,903.027l-8.25,11.59-9.327,5.238-1.639.927-14.476,9.568.988,12.81-1.39,2.958-2.7.908-5.389-3.118-8.981,1.479-13.915-18.423,3.447-1.372-3.706-14.039-12.409-7.92L435.94,921.085l-13.692-1.7-3.216-1.39-4.945,4.926L407.3,912.042l-6.076-1.166-2.7-10.183,2.486-2.735-3.287-18.2.926-14.6,8.232-7.189,2.779-6.717.891-.223,14.147-12.65,1.755-3.742-8.891-11.5-3.671-.935-9.327,6.441L397.5,827.4l-.837,11.225,8.507,12.044-11.136,3.118-1.167-2.646-5.408-5.39-7.723-21.763-8.3-7.982-9.087,5.478-11.937-.347-12.49-12.454-17.657,2.263-3.137-17.524,10.094-9.879,1.186-7.083,9.461-3.866,3.812-9.782,5.532-4.231-3.483-.936.4-3.563,9.461-15.038,2.592-10.628-5.5-4.909L359.8,712.56,388.28,713.9l13.185,12.3,6.521-16.5,8.562-5.692,18.361-21.123,6.842-1.425,1.7,1.319,14.254,7.973-2.557,17.194,10.21,3.1,9.514,14.878-2.191,8.089,3.234,10.423,3.545.908,8.526-10.209,10.583,13,9.969,1.292,4.33,3.6,4.694-.544.589-1.933,9.274-4.873,1.568,6.824,9.986,3.065,10.53-3.724,3.564-6.771,2.04-22.8,23.109-2.735L584.468,727,581.529,744.2l18.877-6.94,1.239-12.2,9.71-11.189,1.791-14.86,14.094.953,12.651,6.5,5.79-4.766,10.593,3.9,4.294,5.515,10.86,2.467,11.465,1.408,21.069,9.417,3.047,7.252-12.651,7.5-3.162,6.664-.491,10.86,5.381,9.656-7.207,7.956-23.714-9.185-10.129,4.231,9.31,5.007-2.174,11.065-.4.49-20.285-10.441-29.389,6.04-4.276,1.755L593.585,782.2l-12.82,5.586-2.771-.036-3.759-.222-1.407,3.483-15.973,8.383-1.675,15.465-6.77-3.67-15.244-8.454L519.75,800.6l-25.506,2.5,3.047,6.842,20.668,9.452,5.728,7.59,3.545,7.358,12.009,14.842,23.2,9.435,4.25,5.6-.731,3.527-7.937,11.662L545.95,893.469Z" transform="translate(-89.864 -21.46)" fill="#ffeb00" stroke="#000"/><path d="M496.224,660.379l1.262-3.446-6.263-6.337-27.065,3.667-6.85-10.2.744-3.149,18.594-13.359-6.154-2.424-.175-3.384-7.476-16.108-14.074,2.952-2.5-1.086.1-5.467,11.147-3.145,12.239,7.256,13.561-.612,8.1,6.674,15.342-9.475-4.425,9.821-3.253,9.115-7.888,5.263,4.319,4,7.022,1.551,13.5-5.577,6.5,3.274.648,2.875-.784,5.3,4.25,16.2,1.287,6.669,1.771,4.6,13.131,7.04,2.632,9.577-4.441,8.108-1.563,5.082L534.911,723.7l-1.052,7.162-12.428,12.547-2.526,6.886-.584,1.907-4.661.532-4.288-3.568-9.886-1.276-10.472-12.879,6.927-2.079,8.636-10.506-.381-3.6,2.2-1.045.5-7.161,18.628-17.561,2.328-6.788-8.745-2.709-2.691-5.826Z" transform="translate(-89.864 -21.46)" fill="#f90" stroke="#000"/><path d="M664.02,561.568l-6.281,2.521-9.5,2.12-7.572-1.684-24.685,38.646-3.911,30.084,2.557,19.519-5.328,2.352,6.682,7.153,1.621,9.1-4.231,4.49,1.292,8.437L634.6,685l4.472-2.557,1.06,5.345-3.617,5.1-3.91,9.764,7.34,3.777,5.791-4.748,10.611,3.9,4.276,5.5,10.859,2.468,11.466,1.408,21.068,9.416,19.314-17.47,7.287-1.1,13.55-11.956-2.1-10.93,20.517-7.377,6.664,3.065,6.681-2.406,3.795,5.167,3.964-16.846-9.782-4.944-9.514-14.735-5.363-4.525-24.339-2.049-3.528-14.29,2.78-14.565-18.343-.4-7.376-17.015-.4-10.61,20.935,7.189,3.065-2.067,7.812-28.481-6.441,1.675-26.067,2.066-6.316-2.45-9.087,4.178-6.664-1.336-9.327,4.312Z" transform="translate(-89.864 -21.46)" fill="#ffeb00" stroke="#000"/><path d="M542.082,662.219l.737,10.652,2.632,9.573-4.441,8.112-1.563,5.082L534.9,723.71l-1.052,7.158-12.428,12.551L518.9,750.3l9.2-4.833,1.548,6.773,9.89,3.013,10.421-3.688,3.543-6.692,2.013-22.584,22.885-2.7,6.182,7.388-2.911,17.035,18.708-6.875,1.221-12.085,9.629-11.086,1.764-14.725,13.97.95,5.236,2.7,3.887-9.659,3.582-5.043-1.052-5.3-4.429,2.534-19.757-.682-1.269-8.378,4.184-4.441-1.6-9.01-6.619-7.08L594.59,662.28l-16.926-8.629-.022,3.6-3.48.836-19.614-8.239-1.363,10.334-3.484.873-.407.022Z" transform="translate(-89.864 -21.46)" fill="#ffeb00" stroke="#000"/><text transform="translate(227.261 205.749)" font-size="189.075" font-family="DejaVuSansCondensed-Bold, DejaVu Sans" font-weight="700">9</text><text transform="translate(117.056 469.665)" font-size="189.075" font-family="DejaVuSansCondensed-Bold, DejaVu Sans" font-weight="700">8</text><text transform="translate(268.874 654.356)" font-size="62.592" font-family="DejaVuSansCondensed-Bold, DejaVu Sans" font-weight="700">10</text><text transform="translate(276.333 782.931)" font-size="91.069" font-family="DejaVuSansCondensed-Bold, DejaVu Sans" font-weight="700">11</text><text transform="translate(547.605 591.485)" font-size="52.431" font-family="DejaVuSansCondensed-Bold, DejaVu Sans" font-weight="700">13</text><text transform="translate(465.445 654.356)" font-size="17.053" font-family="DejaVuSansCondensed-Bold, DejaVu Sans" font-weight="700">14</text><text transform="translate(480.216 545.895)" font-size="36.451" font-family="DejaVuSansCondensed-Bold, DejaVu Sans" font-weight="700">7</text><text transform="translate(494.933 599.653)" font-size="13.805" font-family="DejaVuSansCondensed-Bold, DejaVu Sans" font-weight="700">6</text><text transform="translate(454.828 586.489)" font-size="17.331" font-family="DejaVuSansCondensed-Bold, DejaVu Sans" font-weight="700">4</text><text transform="translate(452.347 604.626)" font-size="14.639" font-family="DejaVuSansCondensed-Bold, DejaVu Sans" font-weight="700">3</text><text transform="translate(428.302 581.308)" font-size="14.639" font-family="DejaVuSansCondensed-Bold, DejaVu Sans" font-weight="700">2</text><text transform="translate(421.019 601.888)" font-size="14.639" font-family="DejaVuSansCondensed-Bold, DejaVu Sans" font-weight="700">1</text><text transform="translate(382.203 600.817)" font-size="14.639" font-family="DejaVuSansCondensed-Bold, DejaVu Sans" font-weight="700">12</text><text transform="translate(379.523 470.126)" font-size="62.927" font-family="DejaVuSansCondensed-Bold, DejaVu Sans" font-weight="700">5</text><rect x="217.172" y="476.88" width="80.751" height="80.751" fill="#06c" stroke="#000"/><rect x="131.367" y="610.096" width="108.995" height="108.995" fill="#06c" stroke="#000"/><rect x="258.405" y="224.281" width="111.597" height="111.597" fill="#06c" stroke="#000"/><rect x="410.428" y="478.939" width="53.051" height="53.051" fill="#06c" stroke="#000"/><rect x="506.337" y="553.458" width="19.865" height="19.865" fill="#06c" stroke="#000" stroke-width="0.5"/><rect x="581.448" y="610.096" width="53.051" height="53.051" fill="#06c" stroke="#000"/><rect x="351.116" y="807.053" width="63.457" height="63.457" fill="#06c" stroke="#000"/><rect x="463.639" y="660.001" width="33.323" height="33.323" fill="silver" stroke="#000" stroke-width="0.5"/><rect x="410.594" y="616.756" width="16.661" height="16.661" fill="#06c" stroke="#000" stroke-width="0.5"/><rect x="439.809" y="616.756" width="16.661" height="16.661" fill="#cc2443" stroke="#000" stroke-width="0.5"/><rect x="439.559" y="575.117" width="8.111" height="8.111" fill="#ffc0c0" stroke="#000" stroke-width="0.5"/><rect x="458.331" y="605.986" width="8.111" height="8.111" fill="#cc2443" stroke="#000" stroke-width="0.5"/><rect x="481.305" y="605.329" width="8.111" height="8.111" fill="#06c" stroke="#000" stroke-width="0.5"/><rect x="474.151" y="569.461" width="16.642" height="16.642" fill="#ff8080" stroke="#000" stroke-width="0.5"/></svg>