<svg xmlns="http://www.w3.org/2000/svg" width="892.955" height="931.786" viewBox="0 0 892.955 931.786"><title>1T Législatives 2017 Isère</title><path d="M587.329,528.705l-7.437,20.059-3.385,3.832-3.377-1.65,1.825,13.881-1.494,7.535,9.568,4.326,4.54-1.422,1.449,3.9,5.008-5.554L591.181,563.4l1.221-2.423,3.17-6.138,4.605.747,1.968-.624,4.43-2.728,4.619,6.242,7.373,2.436,2.3-1.195-1.74-9.88,4.4-2.371,7.346,2.573,1.065-.163,8.892-10.594,2.715-2.475,1.508-4.54-4.209-2.852.175-2.566,2.007-1.6,6.443,3.994,1.852-1.773-.52-6.924,1.241,2.306,10.061,2.637,2.436-.975,1.533-5.008,4.086-12.218-10.685-11.763-8.893-5.71-2.007-4.833-2.222,3.924-4.442.253-2.89-13.03-4.683,2.7-3.4,7.626-2.066,2.917-2.3-4.073-12.66-1.65-8.158,6.19-6.587,10.315-1.715,9.808,2.514,7.217-9.945.332-.13,7.547Z" transform="translate(-36.599 -13.467)" fill="#ffeb00" stroke="#000"/><path d="M567.057,628.217l6.56-10.887L571.61,613l1.585-9.691-6.333-4.735-7.716-1.624,6.041-13.673,14.375.961,2.955,3.449,6.495-8.548,5.008-5.547-2.845-10.211,1.222-2.423,3.17-6.138,4.605.734,1.968-.624,4.43-2.715,4.619,6.229,7.372,2.449,2.3-1.208-1.741-9.88,4.4-2.358-.358,7.334,4.859,9.3,2.209,4.605,4.631,1.091,2.488,4.209-8.7,6.659-5.482-.52-1.773,3.02,6.535,10.393,2.566,9.068,4.683-1.254,21.9,14.057,4.884-1.942-1.345,10.49,2.754,7.268-2.26,1.41,3.858,2.273-2.332,4.755-6.976,3.871-5.391,15.135-6.9,8.334,9.262,6.7-3.286,4.086-7.548,2.091-4.339,15.057-4.06,3.3-9.515-12.355-6.321,8.094-10.477,1.4-4.047,3.768-2.7,13.7-10.607-1.195-6.307-14.8-2.247,4.416-6.632,4.379-3.832,5.553-9.373-2.1-3-5.71-.7-2.527,6.391-10.86-.928-8.042,3.767-21.247,5.924-8.463,6.839-13.829-.506-.267Z" transform="translate(-36.599 -13.467)" fill="#ffeb00" stroke="#000"/><path d="M504.3,522.612l-2.754-4.54-3.956.624-2.818-4.456.506-10.419,13.524-15.693-1.039-4.4,4.456-9.373,6.612,4.1,2.969,18.143,9.438,12.5.9.416,8.522,10.718,2.625,5.605,9.983,16.135,1.65-.162,18.221,9.12,1.812,13.894-1.487,7.534,9.568,4.313,4.527-1.409,1.462,3.884-6.509,8.548-2.942-3.449-14.375-.961.949-21.539-1.7-3.339-8.8.039,2.565,5.722L548,565.834l-9.133-5.456-.331-.533-.136-6.216-7.509,2.027-2.17-1.585-.8-5.288-5.787-5.313,1.676-7.814-2.078,1.611-7.08-3.553-5.593-8.88Z" transform="translate(-36.599 -13.467)" fill="#ffeb00" stroke="#000"/><path d="M705.808,590.348l2.7-4.274,15.616-8.919,2.007-1.714-1.221-13.018,7.2-15.771,14.213-7.106,7-17.6,7.372,1.507,4.709,6.1,7.639-1.253,8.211,7.19,2.728-.188,6.2-14.258L800.43,517.6l1.715,10.861,6.1,5.579-.091,8.016,10.671,8.4,1.6,10.925-10.01,26.515,9.607,2.7,4.339-2.37,6.612-8.4,14.791,6.43,7.879,11,12.588-4.735,5.177.747,5.723,5.885-2.222,10.419-17.291,15.68,7.749,28.827-12.829,3.592-5.813,18.025-.481,10.9-3.183,4.222.13,8.2,6.2,5.274,23.079,7.4,23.572-5.846,10.686-.13,2.475,4.872-3.58,7.346-.116,5.5,6.748,11.569-2.4,10.354,3.423,4.164,15.518,4.819L926.578,767.8l2.091,13.257-1.812,7.957L929,796.64l-3.631,4.125-.838,5.365,2.7,15.823-10.516,5.034-9.328-5.274-8.321-13.751-5.4-.942-15.174,3.819-10.062,12.874-10.925.429L839.451,818.7l-4.261,3.436-10.49,1.7-6.5-4.592-15.16-3.3-9.555,13.231-8.742,5.684-22.533,17.46L747.7,834.977l-7.736,2.182-7.055,11.621-13.387,1.37L703.149,861.1l6.346,6.307,9.276,4.235,1.37,7.626-14.972,7.691-1.13,9.081-7.424-2.969-10,8.269-9.6-4.033-5.008,1.877-4.235,6.443-20.695-3.312-3.845-3.768-7.7-2.572,1.253,13.407-5.8,9.172-4.176,12.913L621.37,937.1l-14.8,6.431-10.686,1.2L585.43,932.521l-10.172-2.1L567.593,919.6l-4.514,5.553L547.69,923.18l-4.059,2.572-7.483-2.117-1.728-5.814-4.579-1.487-3.65-8.795-1.508-6.613-2.183-.584-8.106-1.423-11.9-6.417-2.261-10.692-18.571-11.848L480.24,874l4.442,10.113-2.78,3.3-36.895-12.367-2.222-4.073-7.677-1.611-2.144-4.722,8.185-6.229,5.366-11.764-11.582-2.273,6.138-32.627-2.475-7.957,5.554-15.654,1.7-19.357-3.261-34.128,5.9-17.876,2.6-4.488-6.976-13.8,1.76-7.574L441.9,687.8l.721-5.216-6.9-7.9.708-8.2,5.112-12.711,4.846-2.144,5.313,1.066,7.723,1.24-8.268-23.014.61-32.348,7.561-17.544.091-.442,11.139-24.69,4.541-21.467,4.631-9.822,13.524-2.728,4.3-3.248,3.956-.636,2.754,4.553,4.722,2.209,5.606,8.879,7.067,3.553,2.092-1.611-1.676,7.815,5.775,5.313.812,5.287,2.156,1.585,7.522-2.026.13,6.216.344.545,9.12,5.444,10.211-1.663-2.565-5.736,8.8-.038,1.7,3.351-.345,12.017-.61,9.529-6.054,13.673,7.723,1.624,6.333,4.735-1.585,9.691,2.007,4.326-6.561,10.874,12.049,9.945.507.266-6.84,13.829-5.924,8.451-3.767,21.26.929,8.042-6.392,10.86.7,2.527,2.981,5.71,9.373,2.1,3.846-5.567,6.631-4.365,2.248-4.416,6.306,14.8,10.6,1.2,2.7-13.7,4.047-3.768,10.477-1.409,6.333-8.093,9.5,12.367,4.072-3.3,4.326-15.07,7.561-2.079,3.273-4.1-9.249-6.684,6.9-8.334,5.392-15.135,6.976-3.871,2.332-4.755,2.741-.37,10.158-12.965,14.68-12.634.137-2.768,6.333-8.184,7.385-2.462Z" transform="translate(-36.599 -13.467)" fill="#ffeb00" stroke="#000"/><path d="M824.885,427.121l5.5-.663,5.709-6-8.184-20.513-16.252-15.082-8.782-17.1L798,365.192l-10.353,3.618-4.457,1.28-.13-8.081-2.344-1.319-7.587.6-7.639-.611-4.443,2.573-2.851,2.305-22.883-12.841,1.981-3.7L736,338.644l-10.393-3.351-5.95-9.107-4.644-2.832L684.543,335l-.253.13,5.456,9.094-2.572,16.122-4.112,6.976-4.794,2.54.24,1.825-1.331,10.887,2.143,4.845,9.464-2.306-6.963,14.765-9.068,4.833-1.9-.975-.214-8.334-6.255-5.521-10.887-2.4-2.9-4.722-10.5-3.4-.37.038-12.842-4.085-8.282-9.971-7.678-2.4-10.529,1.488L598.9,366.7l-1.688,1.131-9.756-2.092-4.313-11.913,2.4-15.057-9.263-9.08-3.195-11.1-8.588,10.3-6.839.136-8.081,4.1-2.287-9.614-11.231-4.91-3.91-5.872-6.138-1.358-1.813-9.5L513.4,291.617l-4.138-.838-.649,2.027-14.362-1.877-5.177,9.607,5.482,12.523-2.065.344-7.015,3.365-15,17.252-2.754,17.408,1.318,2.2,4.872-1.52.189-.137,24.228-1.409-.162.6-2.676,11.394,11.458,17.3,7.788-1.371,5.761,4.963,5.658-5.314,4.605,2.131,21.526-7.386,3.1,22.839-2.865,4.339-5.9,11.783.091,13.017-1.13,5.1,6.724,7.626,5.215-.747,16.123,8.905-3.93,18.7,1.17,2.488-6.138,7.191-1.091-.709-9.023,12.485-6.2,4.592-1.624,7.6-5.189,8.308-9.491,3.143,8.522,10.718,2.625,5.606L553.258,542l1.65-.163,21.578,10.783,3.384-3.846,7.438-20.045,2.572-3.663.13-7.548,9.945-.332-2.514-7.216,1.715-9.809,6.587-10.328,8.158-6.177,12.66,1.637,2.3,4.073,2.066-2.9,3.4-7.639,4.683-2.7,2.877,13.03,4.456-.24,2.222-3.93,1.994,4.833,8.906,5.71,10.685,11.77-4.086,12.218-1.533,5.008-2.436.961-10.061-2.624-1.241-2.319.52,6.937-1.852,1.76L643,525.236l-1.994,1.6-.175,2.573,4.209,2.845-1.52,4.553-2.715,2.462-8.879,10.594-1.065.175-7.346-2.572-.358,7.334,4.859,9.3,2.208,4.6,4.619,1.091L637.331,574l-8.7,6.658-5.469-.519-1.787,3.02,6.548,10.393,2.566,9.068,4.683-1.241,21.9,14.044,4.885-1.943L660.6,623.975l2.741,7.268-2.247,1.41,3.858,2.273,2.741-.37,10.159-12.965,14.68-12.634.149-2.767,6.321-8.185,7.385-2.462-.572-5.19,2.7-4.274,15.616-8.918,2.007-1.715-1.221-13.017,7.191-15.771,14.218-7.107,7-17.6,7.373,1.507,4.709,6.1,7.639-1.254,8.211,7.19,2.728-.188,6.2-14.258,10.237-3.449,7.587-11.036-4.755-20.552,6.392-8.522-.65-2.65,6.418-3.807,2.715-6.813,14.732-4.444,1.851-11.86,2.007-5.138,1.838-9.932-10-2.332Z" transform="translate(-36.599 -13.467)" fill="#ffeb00" stroke="#000"/><path d="M326.247,88.073,320.03,92.08l-8.516,5.5-8.768,6.749-13.336-2.04-5.073-.4L282.311,94.7l-5.645-9.795-5.047-1.877-5.567-5.911-7.535-1.065-12.673-5.58-4.9,1.76.682,7.905-2.527.864-4.418-11.926-5.709,20.767-2.235,1.507-15.252-5.242.293,7.736,5.378,12.406,13.362.292L228.5,117.166l2.566,10.419,17.759,1.494,3.9,3.3,6.95,10.744,7.133,3.6-2.9,12.283-3.923,15.557-1.475,18.6,3.111,1.689,1.026,1.754,3.261,4.164,5.268.026,2.344,4.768,4.086-.2.358,2.04,4.2,3.411,12.316,1.838,24.942,3.2,2.261,4.988L315.2,229.65l3.5,2.092,7.041,5.833,3.729,8.678,14.232-.306,3.605,8.73,6.255,6.853,12.381-.838,7.678-11.458,21.76,3.6,4.741-11.517-1.221-4.884-16.09-2.274,4.047-8.574,18.942,2.852,5.046-2.183-10.581-8.4-.838-5.4,3.7-13.179,14.6,3.78,7.749,2.793-.116,2.624-5.391,4.657,1.422,10.224,12.647-1.994,4.723,2.1,5.164-1.091,6.762-11.621,3.4-2.487,11.939,15.654,17.356,4.67,8.7-6.067,9.094,5.469,4.619,2.222,8.678-5.775,3.885-6.749-5.775-8.5-1.4-12.978-12.75-9.5.305-2.6-6.645-4.073-6.658,1.182-2.741-8.106-2.78-4.657,1.182-8.016,5.061.949,5.073,9.3,2.7-.214,2.5-4.58-2.794-4.553-7.574-2.891-2.091-7.346-3.924-3.085-10.087-1.475-5.391-12.432L453.89,123.674l-7.814-7.041L433.059,96.827l-7.36-6.242-4.391-7.028L412.136,74l-.974-10.685,1.091-2.475,7.4-2.1-.266-2.689-1.091-2.008-8.7-6.989-.877-5.482-6.6-7-14.55-10.14L374.813,14.01l-7.737,1.8-2.955,5.125-2.793,7.346-9.048,5.164-6.418,8.041-6.561,26.9Z" transform="translate(-36.599 -13.467)" fill="#ffeb00" stroke="#000"/><path d="M208.034,458.962l-10.964.695-6.775-.929-6.08-18.012-10.769-1.383-6.573,4.735L155.558,450.8l-5.288.623-11.035,4.606-13.868,9.847-13.394,9.8-11.14-.637.117-8.2-27.392,6.417-4.807,1.9-10.464-9.049-10.672-10.73-.76-10.114.117-1.533,1.266-4.7,2.41.383,3.339-3.365-.663-4.833-9.146-8.944.572-4.54,15.576-1.319,11.023-14.335,2.553-9.146.987-3.618,5.671,1.52,1.117,2.832L94.694,397.9l16.376-1.423,4.644-2.182,2.118-4.58,4.819-.253,5.352.175,3.449-4.021,7.8-1.838,5.268,1.156-4.528-8.171-2.527-11.2-3.514-11.315,1.143-2.54,10.7-5.1,10.25.2,2.143.2,16.1,3.313,25.118,3.631-.65-15.745,4.2-9.438-3-4.58,7.853-1.384-4.683-12.062.507-5.3,4.222-2.832-.065-2.663-3.858-3.689,5.885-2.345,10.049-8.068,10.113-3.183-1.383,4.327,7.242,10.925,6.8,4.755,11.049-5.509-3.209-7.041,2.131-4.475,4.723-2.2-2.768-7.08,7.535.149L266.475,274l4.2,2.488,4.846-.331-.332,2.572,7.723.136,5.288.4,4.287,2.9-.383,5.19,5.19.961,11.062-7.534,3.553-6.892,1.916,1.812,13.154-.877-.053.4,4.177,9.627-2.917,4.209,4.151,4.845,7.717,3.45-4.567,2.728.429,10.3-2.929,4.469,15.693,1.266,4.43-3.033,6.8,4.7,2.65,4.9,13.536-15.557,7.815-4.631,16.68,9.347,2.078,5.112,8.016-7.373,2.663-7.457,11.517.533,12.594.961,5.684-5.073,7.6-.675.136.078,7.892-10.049.572-5.164,3.384,4.138,7.639,2.371,5.58,5.138.091-2.488,9.932,1.092,8.236-2.118-5.177,9.607,5.47,12.524-2.066.344-7.015,3.377-14.985,17.24-2.767,17.421,1.318,2.2,4.872-1.533.189-.13,24.241-1.422-.175.6-2.676,11.406-9.425,5.365-6.99-2.637-4.391,2.553-.507,5.313-5.1,5.469,5.567,5.125-.4,13.07-.637.877-3.663,3.644-12.79,2.247-2.5,7.321-3.793,3.65,1.65,5.034-4.768,1.241-5.82-13.842L425.9,419.858l-1.741,1.241-.344.519-15.745-.383-6.71,31.77,2.17-.013,1.8,3.923,1.8,4.911-1.052,5.125,4.833,6.027,10.172.468.975,1.027-4.723,10.288-7.411-.733-3.4,6.294-19.3-7.639-2.2,1.474-3.553.786-7.483.649-.636.942L362.4,491.179l-8.561,18.765-3.364,3.93L348.029,526.8l-.091.637-12.316,2.877-3.26,9.276-1.852-1.052-10.048,3.884-4.807,6.379-1.195-4.846-10.022-3.663-6.333,5.047-5.216.721-2.7-7.4-9.731-11.99-4.164-12.316-7.736,1.319-5.216-7.522-6.632,8.678-10.419-.137,4.658-30,4.5-10.01-1.89-1.461-7.931.747-2.572,4.735-4.658,2.716-10.7,1.24-7.23,3.475-1.026-1.1-3.131-9.7-4.845-14.148Z" transform="translate(-36.599 -13.467)" fill="#ffeb00" stroke="#000"/><path d="M235.881,297.9l-7.255-10.926,1.4-4.326-10.114,3.2L209.86,293.9l-5.885,2.345,3.858,3.69.065,2.676-4.222,2.819-.507,5.3,4.683,12.063L200,324.179l3,4.58-4.2,9.438.649,15.745-25.118-3.631L158.227,347l-2.144-.2-10.25-.2-10.7,5.1-1.156,2.54,3.514,11.315,2.54,11.205,4.527,8.171-5.268-1.156-7.8,1.838-3.449,4.021-5.353-.162-4.819.24-2.118,4.592-4.644,2.183L94.727,397.89,81.7,393.668l-1.105-2.832-5.671-1.52-.987,3.618-2.552,9.146L60.359,416.415l-15.576,1.319L45.8,407.315l-2.222-10.276-5.553-7.534-.9-10.263,9.289-9.581-.013-4.645-2.436-6.722-.331-3.131,1.1-3.69,6.548-1.078,3.93,2.273,1.968-.662,1.013-2.157-.721-9.34,10.556-6.976,1.195-.663,6.8-3.832,6.015-8.451,9.373-4.469,2.17-2.566,8.8-10.25,5.788-8.5.533-2.572-3.1-4.086-16.915-6.879L79.93,270.441l-2.585-5.366-4.176-5.534L58.1,252.65l-2.222-4.989,18.6-1.825,9.782,1.558,11.114,6.165,4.937,2.689,1.221-11.289,11.647-6.113,1.039-2.539,2.728.162,2.021.026,9.347-4.059,10.38.76,3.118-1.28,21.428-4.4,14.79,7.613.293-.357,1.585-8.068-6.788-3.65,7.385-3.073,17.291,6.684,5.255-5.8-3.924-7.041.371-7.905,2.3-4.871,9.224-5.469-2.222-5.288,14.07-12.738,5.326-.812,4.592,5.352-4.112,6.139.865,5.138L221.5,199.9l-1.65,4.872.078,5.547,3.195,4.3-.89,10.939-3.384,9.756,5.061-6.268,2.676.675,18.18,16.785-2.4,7.716L244.6,253.2l6.644,3.021L253.2,260.9l-5.547,4.469,4.9,8.691,2.1,2.286,2.767,7.068-4.709,2.195-2.131,4.489,3.2,7.041-11.049,5.5Z" transform="translate(-36.599 -13.467)" fill="#ffeb00" stroke="#000"/><path d="M347.728,665.489l-.975-4.275-6.84-2.371-.987,2.306-7.255.838-1.1,2.274-3.157,1.955-1.461-1.332-.637-2.526-10.289-1.039-1.13-4.885-7.054-3.287-2.332-4.735-1.838-2.1-5.911-2.222-18.142-.942-5.326,11.822-4.579,2.553-9.094-8.373-4.327,2.741L253.2,650.4l2.436-4.19,9.45-2.169,3.767-12.232,6.165-5.365,7.08-11.607.773-6.333.747-9.971-3.144-6.95,3.754-3.449-.76-7.6-.506-5.313-6.99-8.25-3.313-10.315-2.319-4.579,1.014-7.717,5.885-5.125,13.056-.572,2.688,7.4,5.216-.721,6.347-5.047,10.009,3.663,1.209,4.846,4.807-6.379,10.048-3.884,1.852,1.052,3.26-9.276,12.368-2.864.091-.637,2.462-12.926,3.364-3.93,8.549-18.778,10.964-4.645.637-.942,7.483-.636,3.54-.786L387.4,482.7l19.286,7.626,3.4-6.294,7.424.747,4.709-10.289-.975-1.026-10.172-.481-4.833-6.027,1.065-5.112-1.8-4.911-1.813-3.923-2.169.013,6.709-31.77,15.745.37.345-.519,1.74-1.228,15.972-12.952,5.833,13.842,4.755-1.228-1.65-5.035,3.793-3.65,2.5-7.334,12.8-2.234,3.65-3.651.637-.864.4-13.069-5.553-5.138,5.086-5.469.506-5.3,4.4-2.566,6.976,2.637,9.426-5.365,11.471,17.3,7.788-1.371,5.761,4.963,5.657-5.313,4.606,2.117,21.513-7.373L555.5,395.65,552.62,400l-5.9,11.783.1,13.017-1.13,5.1,6.723,7.626,5.216-.76,16.123,8.918-3.93,18.688,1.169,2.5-6.138,7.19-1.1-.708-9.023,12.485-6.2,4.592-1.624,7.6-5.189,8.3-9.491,3.157-.9-.428L521.9,496.571l-2.981-18.142-6.6-4.1-4.469,9.373,1.052,4.4L495.376,503.8l-.507,10.405,2.819,4.469-4.3,3.248-13.524,2.728-4.632,9.821-4.54,21.481-11.14,24.677-.091.442-7.56,17.544-.611,32.348,8.269,23.014-7.723-1.241-4.313-7.119-6.989-4.391-5.391-.416-3.566,4.112-5.34,7.723-6.548,11.659-7.216,2.956-5.846,5.567-7.905.747L391.8,665.7l-.344,4.781,6.878,8.295-7.268,1.838-7.892-6.229-9.64-2.345-4.391-2.02-2.091-9.652-4,1.494-6.775,3.754-.331,2.585Z" transform="translate(-36.599 -13.467)" fill="#06c" stroke="#000"/><path d="M333.034,314.9l2.93-4.469-.429-10.3L340.1,297.4l-7.716-3.449-4.138-4.833,2.9-4.222-4.176-9.613.052-.4-13.154.877-1.916-1.812-3.553,6.891-11.062,7.535-5.19-.961.4-5.19-4.3-2.9-5.287-.4-7.723-.136.331-2.573-4.845.332-4.19-2.488-4.378,2.514-7.535-.149-2.1-2.274-4.9-8.691,5.534-4.469-1.941-4.683-6.659-3.033-2.234,1.039,2.41-7.724L226.549,229.8l-2.689-.663-5.047,6.256,3.384-9.757.877-10.938-3.182-4.3-.092-5.534,1.663-4.885,8.042-6.535-.864-5.138,4.112-6.138-4.606-5.34,9.88-8.716-1.533-7.97,14.96-5.379L256.313,157l4.871-1.754,2.767,3.767-3.923,15.557-1.487,18.6,3.111,1.689,1.026,1.754,3.261,4.163,5.268.026,2.358,4.768,4.086-.2L278,207.4l4.209,3.41,12.315,1.838,24.93,3.2,2.261,4.989-6.47,8.814,3.515,2.079,7.041,5.846,3.715,8.678,14.232-.3,3.606,8.73,6.268,6.853,12.368-.851,7.69-11.446,21.747,3.6,4.742-11.516-1.208-4.885-16.1-2.273,4.06-8.574,18.927,2.851,5.047-2.182-10.581-8.4-.838-5.4,3.715-13.193,14.589,3.78,7.749,2.807-.116,2.624-5.379,4.657,1.41,10.211,12.647-1.981,4.723,2.1,5.164-1.091,6.762-11.621,3.4-2.487,11.952,15.641,17.343,4.683,8.7-6.067,9.094,5.469,4.618,2.222,8.679-5.775,3.9-6.749,4.884,9.594.176,7.8,7.482,10.861,4.554,5.268.559,4.683,13.388,12.368.039,5.255,2.182,1.493-1.448,4.58,4.365,1.994.344,2.4-4.261-1.637-1.1,5.378,3.183,4.456,7.723,2.449.078,4.781,2.448,1.461,2.955,1.787,7.133,15.92-8.588,10.3-6.839.137-8.081,4.086L547.3,323.5l-11.23-4.924-3.911-5.859-6.125-1.357-1.826-9.516-10.795-10.237-4.138-.851-.649,2.027-14.362-1.865-8.223,2.105-9.932-1.092-.092,2.5-5.579-5.138-7.639-2.371-3.385-4.138-.584,5.152-7.892,10.048-.13-.078-7.6.676-5.684,5.073-12.608-.962-11.5-.532-2.664,7.47-8.015,7.359-2.078-5.112-16.681-9.34-7.814,4.631-13.537,15.544-2.663-4.9-6.788-4.683-4.43,3.033Z" transform="translate(-36.599 -13.467)" fill="#ffeb00" stroke="#000"/><text transform="translate(568.377 521.011)" font-size="57.278" font-family="DejaVuSansCondensed-Bold, DejaVu Sans" font-weight="700">1</text><text transform="translate(542.287 661.103)" font-size="91.978" font-family="DejaVuSansCondensed-Bold, DejaVu Sans" font-weight="700">2</text><text transform="translate(493.699 533.986)" font-size="28.229" font-family="DejaVuSansCondensed-Bold, DejaVu Sans" font-weight="700">3</text><text transform="translate(544.442 824.985)" font-size="137.86" font-family="DejaVuSansCondensed-Bold, DejaVu Sans" font-weight="700">4</text><text transform="translate(635.828 485.601)" font-size="137.86" font-family="DejaVuSansCondensed-Bold, DejaVu Sans" font-weight="700">5</text><text transform="translate(314.602 595.954)" font-size="137.86" font-family="DejaVuSansCondensed-Bold, DejaVu Sans" font-weight="700">9</text><text transform="translate(220.823 440.184)" font-size="137.86" font-family="DejaVuSansCondensed-Bold, DejaVu Sans" font-weight="700">7</text><text transform="translate(92.046 299.079)" font-size="89.046" font-family="DejaVuSansCondensed-Bold, DejaVu Sans" font-weight="700">8</text><text transform="translate(274.4 176.872)" font-size="137.86" font-family="DejaVuSansCondensed-Bold, DejaVu Sans" font-weight="700">6</text><text transform="translate(377.86 267.991)" font-size="68.781" font-family="DejaVuSansCondensed-Bold, DejaVu Sans" font-weight="700">10</text><rect x="553.774" y="517.551" width="16.335" height="16.335" fill="aqua" stroke="#000"/><rect x="560.026" y="565.696" width="20.167" height="20.167" fill="silver" stroke="#000"/><rect x="469.498" y="487.74" width="15.346" height="15.346" fill="#cc2443" stroke="#000"/><rect x="646.672" y="655.005" width="125.381" height="125.381" fill="#ff8080" stroke="#000"/><rect x="551.995" y="389.999" width="56.395" height="56.395" fill="#06c" stroke="#000"/><rect x="321.63" y="312.954" width="74.145" height="74.145" fill="#06c" stroke="#000"/><rect x="395.775" y="413.162" width="66.463" height="66.463" fill="#f90" stroke="#000"/><rect x="363.326" y="117.393" width="56.395" height="56.395" fill="silver" stroke="#000"/><rect x="37.255" y="318.858" width="49.998" height="49.998" fill="silver" stroke="#000"/><rect x="223.483" y="207.111" width="43.904" height="43.904" fill="silver" stroke="#000"/></svg>