<svg xmlns="http://www.w3.org/2000/svg" width="834.794" height="758.881" viewBox="0 0 834.794 758.881"><title>1T Législatives 2017 Ain</title><path d="M422.646,329.654l-8.514-6.727,1.316-8.105-13.8.109-.028,2.627-6.993,2.933-.5,1.747-2.8,2.892-1.889,3.4-4.168-.1-1.985-4.864-6.727-2.2-2.742-3.2L371,321.44l.962,10.417-6.89,2.906-4.435-2.49-9.632-10.3-4.9,3.131-3.65,7.941L334.3,331.1l-10.527-12.935-7.409,3.173-7.94-1.849-4.407,9.073-12.58-11.475-5.7-9.857-.416-2.743,4.837-6.33,16.284-.812.948-2.6L305,282.091l-14.19-1.944L279.588,282l-7.5-4.386-4.421-7.354-2.626-4.892,1.535-5.328,6.61-7.818.682-8.459L258.528,237.2l-1.917-8.05L267,224.6l5.226-11.195-9.769-12.328-7.647-7.538L242.046,190.7l-4.012,5.731L228,191.522l-6.726-9.183-8.3,1.522-1.4-4.387-19.77-9.817.949-11.843-5.636-3.582.28-12.164,1.651-8.473.156-9.285.628-3.37.908-2.374,11.59-14.122.055-15.111V88.269l.423-5.786,6.795-9.271,1.535-4.066,2.306-7.047,1.16-1.508,6.808.423-.32,5.554L225.1,69.1l5.253-2.224,4.476-6.29,5.648-.825L255.644,64.4l2.449-1.146,2.122,8.943L283.7,85.812l9.674-1.29,13.787-9.83,10.288,3.677,12.218-6.993,1.358-5.369,2.7-.655,13.405,3.241.976-10.9,6.583,5.26,13.937,3.036,1.357,2.544-1.862,1.89,5.3,8.807-1.624,4.98,3.677,3.9,1.186,11.1,5.581.014,6.7,8.889,6.809-1.317,4.8,6.3,10.09,2.77,21.387,1.534,6.474,14.989-6.979,4.489-1.077,5.437,2.613.948-7.831.423.668,2.715,5.328,1.706,14.47,8.862,8.125.266,11,9,6.249,5.355-7.422,7.77-.934,2.572,6.917,4.359.212,5.383-1.33,5.212,5.744,6.181,10.234,4.693.4,5.465,1.357,14.374.013.743,3.568,4.755,3.888-28.352,3.828-4.08,7.886,27.384,10.062-2.415,6.209-4.653,5.86,6.85-5.089,18.589-4.36,2.265-.771,11.489,7.9,8.09,2.36,1.665,14.06-2.49,1.747-1.692,5.075,4.919.293,5.451-5.225,10.431-5.089,2.742-14.51,24.955-2.64,1.256-2.238-1.863-3.772-3.1-2.183,1.358.519,5.41,7.436,3.677,1.2,11.113-3.267,4.169-3.425,3.847,4.08,3.425-8.821,21.148-9.5,10.711,2.558,11.447-1.562,2.49-5.861.082-5.171-1.187-1.958,4.421-2.4.389-4.079,16.775,2.156,8.234-1.242,2.613-7.9,3-1.76,5.478-3.971,13.473,1.283,4.878-2.122,4.182-4.53,3.159-8.288-.478-.669,8.036-7.3-3.581-2.436,1.316-5.847-3.131-7.491,13.672-.852,11.577-2.545,8.09-4.012,4.141-4.837,2.8-2.169,5.478-6.46-9.244-1.229-14.176-9.714-5.369,3.663-10.485-1.118-2.64-1.562-5.315-2.422-4.154-5.41,5.58-11.966,6.078L373.94,462l-4.892-12.191-8.111-2.04-6.638-9.326.975-14.414,2.729.225,2.067-5.3,4.516-3.37,23.9-7.62,2.558-10.445-2.518-13.685,1.958-5.41-2.613-8.063,6.8-3.063,1.65-4.694,5.567-1.317,10.861,3.664,7.607-2.531,9.9,1.3,2.715-6.461-2.6-4.359,1.678-1.917-3.719-3.145-1.944-7.225Z" transform="translate(-95.187 -56.719)" fill="#f90" stroke="#000"/><path d="M431.59,539.493l-.477-7.156-4.516,2.879-5.506-.137-16.748,15.7L397.4,548.15l1.7-5.1-3.09-13.029-2.436-4.448-5.035-1.187-5.116,5.341-1.815,5.24-8.023,2.667-5.717-6.112-8.248-.028-3.676-7.606-8.091-1.467-4.769-10.138-4.98-1.146-5.287,5.464-8.125.853-30.741,2.292-2.892,6.57,1.269,4.837-5.259-1.44-1.986,1.89-9.312,19.825-1.733-2.081-15.418-2.988-6,5.785-16.748-9.032-6.113-8.487-2.387-1.651-8.6,1.051-7.006,4.728-5.833-3.466,3.916-7.395-1.583-8.152,1.733-11.23-5.117-1.971L191.372,508.6l-8.486-4.994-6.666,5.035-18.985,5.594-.028-14.094-2.7-11-5.567-1.01-7.982-2.531-4.012.294-5.635-.559-17.321,1.412-7.607,1.985-.293.812.628,5.342,2.934,18.842-2.586,7.77-.989,1.747L95.7,532.986l.464,7.845,7.579,3.24,9.66,2.04,7.286-3.425,2.49,1.051,6.385,11.911,10.888,2.292,1.692,9.21-3.827,9.742.628,1.453,25.487-13.788,2.305,4.878,10.486,3.077.519,8.152,4.994-3.022,1.814,14.313,14.62,4.9-4.905,13.753,6.14,5.355,5.771,15.336L204.5,650.543l3.24,4.679,10.472-4.168,5.594.2,7.061-1.76,3.861,2.919,5.8,1.283,7.273-1.624,4.809-1.93,8.978,3.759,7.143-3.3,5.1,1.023,6.965-3.2,4.837,1.876,19.961-1.583,4.933-1.282,4.639,12.525,2.654-.907-.716-8.3,5.144-1.848,13.31,5.86,7.914,1.132,5.847,6.2,5.287,1.972,5.942,10.287,2.128,7.538,5.329.437,14,2.129,9.2-7.088,8.951-5.772,6.529-4.209,13.766-20.637,6.877-28.25,6.754-8.446,9.49-5.423,2.947-7.716,3.1-5.382,8.126-1.876,13.392,10.928,15.281,10.65,6.931,7.354.921,5.771,9.141,7.327,1.146,2.108,8.569.614,5.437-6.61,10.887-1.214-5.437-16.326,2.21-5.2L525,602.441l4.093-.334-5.539-6.038-7.061-4.195-2.142,1.7-3.213-4.346L492.124,578.55l-8.316-6.331-5.26-1.651-4.612-10.2-6.835-8.036-2.558-7.355-2.64-.5-11.537-6.679-2.421-1.508-4.9,2.92Z" transform="translate(-95.187 -56.719)" fill="#f90" stroke="#000"/><path d="M737.967,406.143l-4.973-2.6-5.171,2.278.545,10.9-5.956,9.592L720.482,441l3.213,5.477-3.834,8.753,1.357,9.087,1.719,7.634-3.971,6.727,2.961,6.344-.212,12.328,1.228,5.621,12.608,12.2-.716,8.609,1.173,7.77-1.876,7.648-3.677,3.608,3.493.362-5.26,6.836,4.2,13.575L731.1,572.15l-6.474,22.076-4.42,13.787-3.718,12.362-3.05,13.31-5.171,5.478-1.358,21.626-1.862,13.616.975,6.965-2.108,8.487,2.422,14.163-1.849,1.9-6.221,1.746,3.875,10.7-7.566,7.859-3.7,7.675-4.64,3.117-10.219-3.888-2.081.73-15.739-.56L660,743.1l3.186,10.976-13.672,14.873-.852,5.648,2.128,5.437.041,8.037-6.713,4.9-13.631,1.146-2.613,7.688-5.745,3.623-1.2,4.68L618.517,815l-4.905-1.467-5.13-10.076-6.079-8.944-1.453-13.63L587.558,770.9l10.343-4.277,5.7,5.26,7.634-3.384-1.228-5.58-7.1-27.957-5.1-7.354-2.463-8.528-6.726-9.817.4-1.48L582.927,697.2l7.811-7.647,3.677,2.129,1.16-32.528,7.061,4.96,5.771.266,13.712,10.369,4.741,7.2,4.2-10.656-6.515-19.177,7.061.307,6.194,3.888-1.16-10.458,12.075,5.58,10.09-2.64,2.436,8.078-2.2,4.836,6.181,4.387,12.314-4.025-1.133-3.691,13.884-7.818.348-5.663,5.846-6.61-2.026-.7.533-7.845,3.09-26.142L691,590.67l.545-2.2,1-4,4.305-29.315-.4-9.783-1.2-4.223-2.518-14-6.918-4.332-.361-2.865-.731-14.047-1.05-8.61-11.7-23.263-2.067-3.547.041-.948,3.145-34.5-3.227-8.124-3.424-12.723,3.274-11.073,2.988-16.093,9.605-13.392,1.33-16.339-4.12-4.12-13.672-3.595L665,346.127l-6.726-3.718,5.621-21.387,11.113,4.141,8.262,1.269,11-2.77,2.183-4.994-3.834-10.11,6.781-15.207,4.653-3.267,10.553,4.53,13.644-4.558,2.49-1.269,2.1-7.831-1.815-8.166,14.136.013,8.138-7.7,2.614,4.946,6.7-5.758,8.051-12.389,8.446,2.252,3.9-7.45,1.746-13.828,4.039-3.759,9.06,3.786,19.491-34.458,5.212-10.376,16.959-11.223,10.234-10.165,12.634-19.6,4.5-5.131,2,1.065,19.429,6.678,5.226,7.1,8.05,3.268L917.1,173.624l8.037,2.756,3.288,4.878,1.024,2.756-.99,2.784-5.328,10.328-4.836,7.381-5.172,2.668-1.507,5.689-7.73,13.324-3.05,8.023.2,10.417-9.913,8.766,7.927,16.093,2.374,1.692,1.4,8.637-3.848,7.477-7.211,4.836-8.889-7.019-10.246,4.434-4.946-2.626-8.7,10.847-2.64-.976-4.571-3.479-10.342,4.543-7.968,7.757-5.287,1.8-.642,2.729-10.622,2.026-1.76,10.445L811,326.165l-.307.894,17.151,10.178-1.733,8.33-4.694,2.224L816.3,361.237l-5.008,9.619,1.037,5.287-6.051,5.24-6.29,3.438-4.8-.559-5.239.546-4.372-2.545-7.873,7.116-5.8,2.32-2.2.709-3.943,7.784,4.08,10.356-1.89,8.432L754.2,420.324l-5.969-.948Z" transform="translate(-95.187 -56.719)" fill="#ffeb00" stroke="#000"/><path d="M165.516,196.767l.934,8.023-.716,14.047-5.9,11.979-4.809,10.377-3.732,19.4-5.813,9.169-3.274,9.1-1.535,13.753-4.319,7.129-1.678,4.277-1.357,3.691-1.6,10.6-.239,5.478-6.5,9.169-.519,11.194,1.229,4.21,5.464,6.726,6.263,6.01-3.828,14.443-4.918,6.931-8.944,11.1-2.879,9.272-4.025,4.932-7.033,7.77.921,7.477,3.847,2.893,3.2,9.633-1.563,5.212L100.91,452.232l3.507,10.22.451,6.207-1.269,8.726,2.729,11.365,7.619-2,17.321-1.412,5.621.56,4.025-.294,7.968,2.545,5.567,1,2.7,11.017.027,14.081,19-5.58,6.651-5.035,8.487,4.994,13.535-2.081,5.1,1.972-1.733,11.243L209.8,527.9l-3.9,7.395,5.832,3.48,6.993-4.742,8.609-1.037,2.375,1.651,6.112,8.487,16.748,9.019,6-5.772,15.418,2.975,1.733,2.094,9.325-19.825,1.985-1.9,5.253,1.439-1.255-4.823,2.879-6.569,30.74-2.306,8.126-.853,5.3-5.451,4.98,1.146,4.769,10.138,8.077,1.467,3.676,7.606,8.248.014,5.717,6.127,8.036-2.668,1.8-5.239,5.116-5.355,5.048,1.2,2.422,4.434,5.41-1.146,1.889-7.969,10.09-9.271,1.61-2.32,3.289-6.624-6.461-9.244-1.228-14.176-9.715-5.369,3.664-10.5-1.119-2.626-1.562-5.315-2.436-4.154-5.4,5.566-11.98,6.092-8.166-1.023-4.9-12.191-8.1-2.04-6.652-9.326.99-14.414,2.715.211,2.081-5.287,4.516-3.37,23.9-7.621,2.559-10.444-2.518-13.685,1.958-5.41-2.613-8.064,6.781-3.063,1.651-4.693,5.58-1.317,10.847,3.663,7.62-2.53,9.9,1.3,2.7-6.46-2.585-4.359,1.678-1.917-3.719-3.145-1.944-7.225-3.732-10.888-8.5-6.727,1.3-8.1-13.8.095-.028,2.64-6.993,2.92-.5,1.746-2.8,2.907-1.876,3.383-4.182-.082-1.985-4.864-6.727-2.2-2.729-3.2-2.823,3.254.961,10.417-6.89,2.906-4.434-2.476-9.62-10.315-4.918,3.131-3.65,7.955-8.139-1.944L323.7,318.185l-7.409,3.173-7.941-1.863-4.42,9.087-12.58-11.489-5.7-9.858-.417-2.742,4.837-6.317,16.284-.826.948-2.6L304.914,282.1l-14.19-1.944L279.5,282.008l-7.5-4.387-4.42-7.368-2.627-4.878,1.535-5.341,6.61-7.812.682-8.473-15.336-6.556-1.917-8.036,10.39-4.571,5.225-11.2-9.769-12.313-7.647-7.539L241.96,190.7l-4,5.717-10.049-4.891-6.727-9.2-8.3,1.535-1.4-4.4-19.769-9.81.948-11.856-5.621-3.568-8.289,15.124-4.768,7.757-4.155,6.515Z" transform="translate(-95.187 -56.719)" fill="#ffeb00" stroke="#000"/><path d="M425.313,494.406l-4.836,2.811-2.17,5.464-3.274,6.638-1.624,2.306-10.09,9.272-1.89,7.981-5.4,1.147,3.09,13.03-1.7,5.1,6.944,2.627,16.735-15.7,5.519.137,4.516-2.879.464,7.156L443,539.152l4.9-2.92,2.436,1.508,11.522,6.679,2.64.5,2.558,7.354,6.836,8.036,4.612,10.206,5.259,1.651,8.316,6.33L511.1,589.185l3.213,4.345,2.142-1.7,7.061,4.195,5.54,6.038-4.093.321,1.228,2.626-2.21,5.2,5.437,16.325-10.888,1.214-5.437,6.611-8.568-.615.28,2.825-7.771,2.21-1.146,2.6L496.9,652.6l9.646,10.036,4.6,7.381,7.743,6.556,13.672,20.8,8.207,7.395,11.229,10.963,5.662,13.058,10.594,1.548,4.121,3.241,2.2,7.715,7.954,3.05,2.934,4.782-2.626,4.8-2.838.225-5.329-9.769-5.314-1-1.242,8.418,2.92,4.892L573.9,765.2l6.992-1.228,6.979,4.263-.321,2.729,10.343-4.291,5.7,5.26,7.634-3.384-1.228-5.58-7.1-27.957-5.1-7.354-2.463-8.528-6.726-9.81.4-1.48-6.091-10.581,7.811-7.647,3.677,2.128,1.16-32.527,7.061,4.959,5.785.266,13.7,10.356,4.755,7.2,4.182-10.656-6.514-19.163,7.061.307,6.194,3.875-1.16-10.459,12.075,5.581,10.09-2.627,2.449,8.078-2.21,4.836,6.194,4.387,12.3-4.025-1.133-3.691,13.883-7.818.348-5.676,5.861-6.61-2.04-.7.532-7.832,3.091-26.142L691,590.712l.546-2.183,1-4,4.3-29.314-.4-9.783-1.2-4.223-2.517-14.019-6.918-4.319-.361-2.865-.731-14.047-1.051-8.623-11.7-23.249-2.067-3.548.041-.948,3.145-34.5-3.227-8.139-3.424-12.709,3.274-11.072,2.988-16.107,9.605-13.392,1.33-16.339-4.107-4.12-13.685-3.582-.825-3.466-6.741-3.718,5.636-21.373,11.1,4.127,8.262,1.269,11.017-2.756,2.17-4.994-3.834-10.11,6.794-15.207,4.64-3.267,10.553,4.53,13.644-4.571,2.49-1.256,2.1-7.831-1.815-8.166-4.625-.976-30.3-4.584-18.761,3.827-4.932,2.585-5.342-16.509,1.747-11.672-2.559-11.578-17.389-2.4-.73-4.141-8.609-6.74-13.446-.744,2.613-7.886-2.142-7.245-4.994,5.342-3.411,4.837-11.058,3.479-3.971,10.847-.6,3.534-3.9,9.687-6.167,4.516-13.1-.211-1.8,5.2-12.928,14.832-16.189,3.813.28,5.465L543.5,286.551l-5.089,2.729L523.9,314.248l-2.64,1.256-2.237-1.863-3.773-3.1-2.182,1.357.518,5.41,7.436,3.664,1.2,11.126-3.268,4.169-3.424,3.834,4.08,3.425-8.821,21.148-9.5,10.724,2.559,11.448-1.569,2.49-5.847.082-5.172-1.188-1.958,4.421-2.4.389-4.08,16.762,2.156,8.247-1.242,2.6-7.913,3.009-1.747,5.478-3.97,13.46,1.282,4.891-2.122,4.182-4.529,3.159-8.289-.478-.669,8.023-7.3-3.582-2.436,1.317-5.846-3.118L432.7,470.657l-.853,11.577-2.545,8.077Z" transform="translate(-95.187 -56.719)" fill="#06c" stroke="#000"/><text transform="translate(229.913 212.267)" font-size="144.789" font-family="DejaVuSansCondensed-Bold, DejaVu Sans" font-weight="700">1</text><text transform="translate(98.169 376.383)" font-size="144.789" font-family="DejaVuSansCondensed-Bold, DejaVu Sans" font-weight="700">4</text><text transform="translate(430.983 455.764)" font-size="144.789" font-family="DejaVuSansCondensed-Bold, DejaVu Sans" font-weight="700">5</text><text transform="translate(239.182 584.171)" font-size="110.012" font-family="DejaVuSansCondensed-Bold, DejaVu Sans" font-weight="700">2</text><text transform="translate(629.71 313.173)" font-size="94.995" font-family="DejaVuSansCondensed-Bold, DejaVu Sans" font-weight="700">3</text><rect x="331.869" y="184.276" width="67.217" height="67.217" fill="#06c" stroke="#000"/><rect x="178.785" y="376.31" width="67.217" height="67.217" fill="silver" stroke="#000"/><rect x="466.988" y="470.649" width="92.51" height="92.51" fill="#ffeb00" stroke="#000"/><rect x="151.385" y="512.902" width="67.217" height="67.217" fill="#06c" stroke="#000"/><rect x="723.756" y="171.028" width="46.856" height="46.856" fill="#06c" stroke="#000"/></svg>