<svg xmlns="http://www.w3.org/2000/svg" width="887.28" height="831.986" viewBox="0 0 887.28 831.986"><title>1T Législatives 2017 Cantal</title><path d="M137.327,404.369l-.088-.167-7.966-3.72-11.925-1.123-3.592,4.668-3.234-.343L89.4,422.524l-1.29.127-.685,5.242-2.733.494L94.917,445.1l4.508,15.932L115.652,476.9l-5.146,18.808L92.16,499.769,83.6,495.754l-3,1.211-17.748,7.591,12.044,23.85-2.939,16.075L89.539,558.7l3.912,8.914-14.195,8.133L78.1,578.9l.079,13.207,5.385,12.029,16.06,23.045,5.193,2.071,1.88,5.21,8.205,16.043,17.94,11.216-.168,12.459,3.792,8.356-2.127,7.95-2.6,8.9-9.264,2.461-1.235.3,2.939,15.836-3.656,28.829L110.5,759.671l-2.174,9.567,5.568,6.118L124.98,769.2l16.585,23.731-8.9,12.538,5.226,7.639-2.828,5.289-.1,9.241,4.835,2.4L150,836.94,160.739,849l8.866-6.174-4.2-5.106-4.031-15.653,12.674-9.774,15.844,1.912,9.942-8.324,3.274.231,2.987-.59,7.974-4.978,14.736,2.875,10.921-5.48,5.481,4.341,2.979,5.553-1.067,9.447,10.786,7.249,9.694-.59,10.547-7.455,7.989,4.508,3.019-1.179,5.162-.948,20.911,7.081,9.79-7.933,12.132,4.931,2.66-8.683,6.278,1.864,2.334-2.43,3.274-5.815-.223-10.037,7.663-18.624,12.443-9.742,2.031-5.632,9.822-6.676,13.43-9.8.35-3-4.97-3.114,1.84-2.677,1.434-7.328-.383-17.429,4.74-3.458,2.581-16.258,6.364-6.66,8.588,1.028,9.176-9.24-1.163-25.857,8.755-9.384-4.852-11.932,9.4-9.432,7.472-18.433,16.242,2.382,2.151-2.517,1.617-12.786,15.749-20.6L487.1,574.1l11.454-3.154,7.05-20.8-3.019-15.685.932-16.506,7.751-5.6.3-9.814L507.5,486.9,520.54,468.1l-1.139-6.46,3.171-9.336-1.354-3.473,14.3-21.412,3.3-8.93-12.57-13.908-11.168-5.863-9.5-1.322,2.119-11.734L501.7,377.6l-11.9,5.863-11.327-6.189-.391.016-5.226,4.142-9.893,1.37-7.3,9.464-.605,9.256-17.549,7.1-11.567,3.067-5.568,6.756-11.056-.375-22.2-1.179-5.48,3.441-5.72-2.58-7.966,4.763-18.68-.39,1.721-9.4,2.191-8.865-2.143-2.486-22.814,4.469-26.383-2.366-2.653-5.353,1.2-11.407-8.4-5.043-22.321,2.788-3.815-12.212-9.257,4.111-5.759,15.063,4.039,5.353-8.595,7.154-11.16,6.858-38.157,3.394-3.122-.454-3.338-9.073,4.843-4.15-.845-3.25-6.556-.343-4.859,8.125-8.961,4.15-6.54-.781-4.676-4.763-6.142,2.58-9.5-3.019Z" transform="translate(-62.159 -17.678)" fill="#ffeb00" stroke="#000"/><path d="M662.571,185.268l-11.2-20.026-5.122-15.884.111-3.545-2.907-11.654,1.585-5.711L638.849,130l-5.712-2.939-8.244-9.352-8.356-3.72-4.812,7.456-8.491-4.8-5.815-11.574L580.977,106.6l-8.619-9.288-17.365,9.519-3.1,5.728-3.114-1.012-12.507-.836-8.149-4.605-5.927-1.617-8.8,3.083-9.3,8.014-6.755-7.281-3.41-9.105L481.882,88.929l-1.211-13.112,6.811-8.834-1.06-5.632-9.694-.422-9.288,3.218L461.3,56.476l-8.9-2.923-9.256,1.808-2.955-22.607-9.766,13.271-6.078,2.286-9.551-1.434L403.427,35.112l-12.3,2.119-8.109,4.994,5.544-20.743L373.18,18.2l-8.7,3.736.6,5.911-3.8,10.348-2.709,1.2,1.275,8.6-3.187,4.2-3.114,22.328-3.211,5.648,20.281,15.541,3.211-.51,3.4,11.423L374.6,115.5l-5.066-2.613-5.05,3.967-12.474.08-5.122,3.672-1.514,6.317-8-12.65-18.17-1.648-2.5-3.171-9.966-8.8-12.873-1.028-5.193-4-1.928-6.134-8.524-4.835-13.064-1.4-4.453-.048-3.314,5.226,12.563,22.758-3.6,5.489.773,5.433-.128,16.322-8.762,9.726,4.779,8.357-3.456,8.85-9.161,3.823-16.107,3.64-6.731,11.575L216.85,205.151l-9.614.279-4.358-1.649-5.393,6.412-2.963,13.072-9.272,3.872-1.777,2.891-1.266,3.155.47,10.124-9.042,4.326-5.607,8.46-10.587,8.476.319,3.377-5.807,2.223-2.255-2.135,2.9,5.927-2.8,12.992,4.787,4.652,2.764,16.441,12.977,10.284,6.5.144,1.195,3.131-1.752,5.161-12.9,1.418-.637,12.778-8.771,9.614-12.657.813,6.189,18.791-6.142,11.463.351,9.957-4.477,12.571.087.159,9.934-1.155,9.5,3.019,6.142-2.581,4.676,4.764,6.539.781,8.962-4.15,4.859-8.126,6.556.343.844,3.25-4.843,4.151,3.338,9.073,3.123.454,38.156-3.394,11.16-6.859,8.595-7.153-4.038-5.353,5.759-15.064,9.256-4.11,3.816,12.212,22.32-2.788,8.4,5.042-1.2,11.408,2.652,5.353,26.383,2.365L351,401.344l2.142,2.485-2.19,8.866-1.721,9.4,18.68.39,7.966-4.764L381.6,420.3l5.481-3.441,22.2,1.179,11.057.39,5.568-6.771,11.566-3.066,17.549-7.1.606-9.256,7.3-9.464,9.894-1.37,5.226-4.142.39-.016,11.328,6.189,11.9-5.863,5.99,8.062-2.119,11.734,9.5,1.322,11.168,5.863,12.57,13.908-3.3,8.93-14.3,21.412,1.354,3.473-3.17,9.336,1.139,6.46-13.04,18.808,4.062,15.637-.294,9.814-7.751,5.6-.932,16.5,3.019,15.685,5.273,1.4,1.96-6.038,6.922-6.4.391-.812,2.58,8.834,9.368-.167,13.678,21.532-2.613,9.176,4.293,11.981-4.835,8.587-1.713,12.992,1.944,6.3,6.46.589,5.194-8.046,10.69-7.328,5.6,3.154,25.969-1.418,2.4-2.254,3.2-.143-2.788,22.184,5.449,3.72-1.506,8.994,5.743,7.95,6.5,25.3,6.891,14.1,5.567,3.083,6.142-.327,8.978-8.459,9.208,13.04.16,12.881-2.159,2.485-9.774-.374-1.29,3.051,1.179,3.114,8.794,4.421,2.8,5.943-1.354,9.742-5.48,8.324,5.145,14.889,2.239,16.011,4.883,8.571-1.4,9.177,9.336,8.34,1.449,6.317,5.027,4.11-.542,3.251,5.68,5.894,7.735,3.409,2.206-5.416-1.521-3,11.12-20.743,11.5-35.01,9.041-4.277,6.548,1.481-2.86-11.479-5.138-3.019.964-2.828,1.776-15.684,7.377-9.289,4.063-4.715-2.828-8.8,4.015-7.965L728.474,675.3l1.569-6.174,10.786-15.31,8.667-3.8-3.266-11.455,14.689,3,3.593.184.685-10.5-3.609-11.033,6.859-10.316L767.2,592.349l11.1-6.6,6.006-11.511,9.8,1.289,5.847,7.982,5.958,9.057,2.971,8.866,5.911,2.366,5.552,7.655,5.863,2.071,3.84-9.129,12.817-2.724,7.3-6.827,6.317-6.38-4.779-8.062L850.67,568.2l15.748-5.99-3.473-14.793,3.816-4.668-1.195-2.788,5.242-2.007,6.484-.032L875.1,544.09l3.2,5.4,12.443,3.083,10.412-12.538,9.041-.343,2.86-5.815,13.112-9.614,11.216,1.028,4.62-15.868-8.994-3.529-1.481-9.727,11.749-4.684,5.568-11.51-2.071-2.5-9.225,2.477-6.468-10.156-12.292,2.629,6.843-14.626-6.022-2.135-11.439,5.553-2.676-1.777-6.118-11.606L902.7,438.7l-2.4-12.9,8.293-21.2-2.088-5.058-14.2-4.477-.916-5.727-1.824-5.791,11.558-3.888,3.816,5.258,14.856,6.253,22.265-8.962-6.5-.621-1.6-6.317-12.961.23-11.08-6.675-1.275-.343-7.623-5.647-8.683,3.8L884.222,345.3l3.768-8.619-1.537-2.191-7.7-.159-4.557-18.9,1.107-9.814,5.465-8.03.884-16.457-17.127-5.9-6.038-2.66-3.529-19.389-6.8-6.811,3.936-18.791-1.156-6.532-3.25-.184-.605-3.2-8.03-5.52-16.059,1.585-.39,3.131-13.757,7.44,3.019-12.2-5.305-7.512-.454-6.1-10.468,7.3-9.208,1.665L773.3,208.76l-7.528-6.134-9.83,1.043-.749-6.436,8.42-4.015,6.285-1.29,4.294-8.85-8.635-4.541-6.134-7.822,5.075-3.689,9.662.964-1.4-22.4-5.3-3.887-4.779,2.254-5.465,11.853-12.434,3.362-4.652,4.684,1.744,13.128-5.99,7.623,1.7,2.86-15.358,8.324L713.5,198.34l-3.768,8.149-12.945-3.513-1.011-3.25L675.66,187.419Z" transform="translate(-62.159 -17.678)" fill="#06c" stroke="#000"/><text transform="translate(157.97 638.589)" font-size="169.065" font-family="DejaVuSansCondensed-Bold, DejaVu Sans" font-weight="700">1</text><text transform="translate(480.874 342.595)" font-size="169.065" font-family="DejaVuSansCondensed-Bold, DejaVu Sans" font-weight="700">2</text><rect x="259.736" y="425.698" width="124.424" height="124.424" fill="#06c" stroke="#000"/><rect x="240.118" y="204.386" width="124.424" height="124.424" fill="#ffeb00" stroke="#000"/></svg>