<svg xmlns="http://www.w3.org/2000/svg" width="616.114" height="899.943" viewBox="0 0 616.114 899.943"><title>1T Législatives 2017 Drôme</title><path d="M246.194,265.2l-2.642-9.81-3.9-2.856,1.529-16.018-7.81-4.146-3.95.587-5.352-8.813,4.777-.624.214-4.8L225.853,197.6l-6.306-3.168L205,202.98l-3.932-2.416-1.755-.978-1.15-4.936-5.963-4.728-7.045-1.1-.073,1.4L172.37,207.163l-.153,1.578.109,4.911,5.59,8.11,5.327,5.492,2.379,4.41.441,10.311-1.376,4.012.691,4.208,3.462,3.37,9.235,3.284,3.725,6.177-3.449,6.752-6.318,6.141-1.077,6.667,2.2,4.024.667,2.52-4.514,9.149,3,4.061,4.874,6.067.373,10.428.263,1.193,3.859,9.076,7.168,6.752,3.694,8.648,2.71,5.841-8.061,14.99-1.266,4.862-5.756,4.936-1.682,4.672,12.318,2.043,2.14,4.513,14.727-1.565,3-4.337,6.245-3.749,4.66.575-1.841-10.213,2.1-4.777,4.923-5.254.061-4.959,2.881-3.884,11.981.838.086-10.942-2.1-4.4-3.872.336,9.626-10.274-1.932-9.3-4.5-1.816-3.712-3.107-4.924.654-4.96,5.5-9.352.838-8.018-6.238-11.6,9.926-14.537-4.96,4.752-7.768,6.531-2.794,2.092-4.612,9.816-1.59,3.682-6.465,7.321,1.48,8.722-4.776.636-2.447-4.562-2.092-1.407-4.489,8.825-4.636,6.832-1.706,15.161,6.544,1.389-20.464-8.324.19-15.326,5.253Z" transform="translate(-90.076 -49.566)" fill="#ffeb00" stroke="#000"/><path d="M195.578,500.374l1.468-9.534L195.6,483.7l1.18-2.116,9.315-1.065,4.3.5,6.189-22.048.851-10.2-.061-.312,2.471.324,6.238-7.143,14.152-4.752,4.813.966,1.768-5.675-3.645-6.006-2.367.165,2.556-4.226,6.881-2.606,3.37-3.694,7.18-5.474,1.1-4.562.373-11.682-3.908-2.1-2.593-.214L241.54,377.247l-4.66-.575-6.238,3.762-3.009,4.336-14.715,1.565-2.153-4.525-12.3-2.043,3.608,13.437-2.343,6.354-3.523,3.487-3.144,6.727.1,7.455-3.633,3.046-7.193,1.339-1.578,6.807.636,9.388-6.819,1.908-4.208,1.8.374,4.649-1.945,1.467-.887,7.272-6.189,7.3-8.887,3.9-2.483,3.773-.379,1.756,4.311,8.519-5.1,8.122,2.422,12.042-.086,2.2.109,10.251,4.024,6.605,5,19.852.324,4.624-2.843,6.293,1.205,6.728-3.2,8.825-7.706,8.684-2.935,8.624-6.245,12.079,1.97,1.1-1.579,8.838-4.311,2.116L123.9,609.959l-2.33,4.159-.887,9.339-4.66.324L114.3,635.86l5.48,7.6,1.878,1.48-1.792,6.942-5.223,5.736-2.709,10.037.8,7.718,5.253,8.935.453,7.8-2.667,17.18-3.119,3.847-6.93,2.783-4.612,4.936L99,737.526l.691,5.878-7.957,18.812L90.578,780.24,92,790.454l.539,3.211,15.217,6.629,17.21.025.122-2.422,4.385-1.89-.691-4.911,4.373-8.782-.276-17.309,11.443,4.361,3.095-3.835,7.168-.275,4.195-2.666,5.492-15.706,3.511-3.248-2.93-3.271.887-2.153-9.81-5.737-1.443-.929,1.192-15.364-7.522-13.437,9.5-8.6,5.877,3.4,6.116-3.071,6.178-3.5,15.051-1.266,1.315-6.452-1.554-6.38.943-3.07,19.4,3,2.154-6.269,8.972-2.171,1.23-1.957,4.422,5.327,6.256,2.685,8.825-7.67-1.517-4.41-1.04-9.926-4.936-11.5-6.269-3.859L214.3,634.919l2.483-8.783,4.061-2.183,11.063-3.462,2.141-16.543,4.1-2.532,2.22.941.2,12.11,1.443,1.945,2.1-1.23,15.9-5.663L258,600.981l7.455-.6,4.275-8.875-6.128-1.651-2.929,3.07-10.44.893.251-7.382-3.058-6.654,3.987-9.315,9.113-9.045-5.737-7.492L242.9,556.31l-5.29-8.232-13.125-6.4.012-.324-6.856,1.419-2.544-5.993-4.263,1.908-.753-12.519-3.284-6.7,1.92-6.99-6.758-3.083-.287-6.666Z" transform="translate(-90.076 -49.566)" fill="#ffeb00" stroke="#000"/><path d="M352.312,828.343l-1.456,9.364,6.8,2.581.526,14.55-5.052,5.278-.929,2.22,9.3,7.2,3.987,3.223,17.235,4.673L398,878.31l1.193-12.758,4.207-.214,4.147.765,12.568,7.455L431.88,884l.165-2.471,7.467.013,9.224,3.247,10.427-6.74,10.856,6.141,4.085,2.856-.691,1.541-.991,4.85,2.783,9.511-1.767,17.382,7.118,2.14,9.816-1.669,6.092,3.975,4.263-2.232,1.364,9.737,4.776,1.48,1.016,9.174,2.7,3.523L533.49,949l4.587-1.48,1.817-4.477,16.14-6.752,4.765-11.577.012-.3,9.926.753,5.59-4.74-.215-2.483-8.519-8.923,5.951-11.082,2.018-1.541,7.559.6,4.049-2.9,3.786.575,3.951,8.783,6.666,3.272,4.7,5.664-3.976,11.369,7.3,1.431L626.972,927l2.141-12.605-19.174-2.869-1.015-2.232,4-13.81,11.241.379,1.468-1.731,4.777-1.638.36-2.532L625.994,878.2l2.293-12.544-4.409-10.868.837-7.395,6.44-7.406-5.736-7.131-14.991,6.391-.611-4.948-6.752-7.119.189-4.911,3.75-2.355-3.334-5.223-4.409-1.266-4.813-4.911-4.024,2.379,2.544-7.021,8.837-8.77.526-2.447-3.859-2.917-4.183,2.055-14.347.153-.642.11L571.177,791l-4.709-.789-6.819,2.893-4.752-1.327-1.6-7.021-8.281-5.2-9.211,3.609-5.376,5.186-7.467-10.1-5.052-.226-3.168-11.553-9.81-.373-4.66-1-1.89-4.514,5.865-4.323-.477-7.56-4.611-14.55-7.5-9.547,10.489-6.391,17.748,9.186,4.562-1.4,2.367-4.447,3.932.539,2.208-5.975-1.23-1.731-14.023-5.529-2.434-4.122-1.878-12.043,3.437-3.6-3.37-9.186-.752-1.743-.55-7.021,6.758-1.34,2.115,4.2,4.263,2.208,14.5-.214,20.115,8.47,5.566,4.074,2.208-.691,2.293-.967,17.969,8.073,7.333-6.654,4.458-16.868,3.56-3.155,9.388,2.018,6.892-1.878-9.449-13.247-9.7-10.415-6.593,1.149-9.224-7.657,4.8-17.057.348-1.242,3.511-2.532,2.354-8.85,4.1-1.945.612-6.091,4.966-10.4,4.71-.514,1.755-6.9-3.438-3.559-1.529-7.309.943-12.293,5.113-3.022,4.024,3.046,12.581.789,21.846,7.229,12.293-8.024,2.4-6.9,9.021,4.562,10.128.716,5.425-15.73,6.367-3.713,8.672-8.287-2.343-7.119-6.654-2.935-5.817-1.291L676.864,524.9,666.8,526.041l-9.853-11.492-9.565-1.981-7.229-10.19-4.238,5.223-14.489-1.841-3.823,2.422-7.045-1.994-1.627-5.479-4.324-1.389-3.437-8.287-1.419-6.214-2.043-.55-7.633-1.339-11.2-6.043-2.14-10.067-17.486-11.167-1.327,3.81,4.183,9.522-2.63,3.107-34.739-11.645-2.092-3.834-7.217-1.517-2.031-4.446,7.718-5.865,5.039-11.083-10.892-2.128,5.779-30.733-2.33-7.48,5.223-14.739,1.6-18.226-3.058-32.133,5.553-16.844,2.434-4.214-6.556-13,1.651-7.132-3.725-2.929.667-4.911-6.489-7.443.667-7.719,4.8-11.968,4.575-2.019,5,1L527,244.376l-6.593-4.122-5.076-.392-3.357,3.871L506.941,251l-6.152,10.99-6.808,2.771-5.492,5.254-7.443.7-6.532-7.419-.312,4.5,6.477,7.81-6.844,1.731-7.443-5.866-9.065-2.208-4.134-1.9-1.982-9.089-3.749,1.4-6.391,3.547-.313,2.434-7.633-2.593-.929-4.024-6.44-2.233-.918,2.171-6.843.8-1.04,2.129-2.973,1.841-1.364-1.254-.611-2.379-9.688-.978-1.052-4.6-6.654-3.094L392.43,247l-1.04,2.293,5.211,5.352.752,12.495-1.639,4.752-1.828,4.874-4.275,26.268,2.508.679-1.431,9.076-2.079,4.661-5.841,7.608-8.1,25.406-5.438,13.473-11.828-.214-5.963,6.758L330.2,359.552l-4.012,2.881-6.855-1.792-9.511-2.569-7.517-12.733-.251-7.345-4.324-2.532-.563-2.471-2.458-.691-1.077,2.33-19.375-6.244-7.131,6.642L259.58,333.7l2.092,4.4-.074,10.941-11.981-.838-2.893,3.884-.061,4.96-4.911,5.254-2.1,4.776,1.829,10.214,14.238,14.525,2.581.214,3.908,2.1-.373,11.681-1.1,4.563-7.179,5.473-3.371,3.695-6.88,2.605-2.556,4.226,2.366-.165,3.645,6.006-1.767,5.675-4.813-.966-14.152,4.752-6.239,7.144-2.471-.324.061.312-.85,10.2-6.189,22.042-4.288-.5-9.327,1.076-1.18,2.117,1.443,7.143-1.468,9.535,6.116,2.4.276,6.654,6.77,3.083-1.92,6.99,3.284,6.716.74,12.507,4.275-1.908,2.532,5.993,6.856-1.419v.324l13.119,6.4,5.29,8.232,11.9-2.379,5.725,7.492-9.1,9.045-4,9.315,3.058,6.654-.251,7.382,10.44-.893,2.93-3.058,6.14,1.639-4.275,8.874-7.455.6,2.006,8.538-15.889,5.663-2.1,1.23-1.443-1.945-.215-12.11-2.207-.942-4.1,2.532-2.141,16.544L220.8,624.045l-4.061,2.183-2.5,8.782,14.776,2.129L235.305,641l4.924,11.5,1.04,9.926,1.517,4.41-8.825,7.669-6.245-2.685-4.422-5.326-1.241,1.969-8.96,2.165L210.94,676.9l-19.4-3-.954,3.071,1.554,6.379-1.315,6.452-15.039,1.266-6.189,3.5-6.1,3.071-5.89-3.395-9.5,8.6,7.535,13.437-1.192,15.364,1.443.929,9.81,5.737-.887,2.153,2.93,3.272-3.511,3.247-5.5,15.706-4.183,2.666-7.18.276-3.083,3.834-11.442-4.36.262,17.308-4.372,8.782.7,4.911,21.492,1.089,4.648,5.474,4.673.085,7.785,8.972,4.5.887-.049,19.076-.251,6.116,4.434,8.122-.2,11.577.679,7,6.189,2.893,16.507-12.733,12.042-11.455,10.929-1.816-2.195,4.25,18.647-2.709,5.162-5,15-7.535,9.2-4.55-1.315-5.138-3.584-3.247-30.219-8.385-16.831,3.461.655-7.045-4.434-8.41,6.819-9.284-8.434-5.315-4.978.227,12.158-14.373.2-2.208,7.168-4.923,2.422-9.877-.838-5.04,4.349-9.2L245.8,731.87l3.358-3.7,3.8.189,5.854-7.321,2.366.288,2.294,4.207,4.74.349,9.125,8.361,6.531-3.107-.538,6.44-2.2,1.241,2.667,9.339,7.358,1.23,7.718,6.379,12.1-.8-.3,4.935-8.862,8.41-14.654,2.831-1.877,12.1-6.477,7.694,2.244,5.9-8.336,5.29-2.654,4.184-2.685,14.451,1.34,5.052,6.7-.238,7.633-4.465,6.416-4.1,16.164-7.456,8.281,17.474,5.186.11L331.1,829.6l20.782-14.623,1.933-6.917,6.856-3.394,1.241.538,2.079,4.287-1.406,6.88-2.38,6.655Z" transform="translate(-90.076 -49.566)" fill="#ffeb00" stroke="#000"/><path d="M294.773,332.289,293.7,334.62l-19.375-6.245-7.132,6.642-7.559-1.327-3.872.336,9.639-10.274-1.932-9.3-4.5-1.816-3.724-3.107-4.911.654-4.96,5.5-9.352.838L228,310.284l-11.608,9.927-14.538-4.96,4.752-7.768,6.544-2.8,2.092-4.611,9.816-1.59,3.67-6.465,7.332,1.48,8.722-4.777.624-2.446-4.55-2.092-1.42-4.489,8.838-4.648,6.819-1.694,15.167,6.544,1.376-20.464-8.311.19L248,264.879l-1.8.288-2.642-9.81-3.9-2.856,1.541-16.018-7.823-4.147-3.951.588-5.339-8.813,4.764-.624.215-4.8-3.2-21.118-6.305-3.169L205,202.95l-3.932-2.416-1.756-.979-1.149-4.935-5.963-4.728-7.046-1.1-2.4-3.773-6.367-2.948-.837-7.132.752-6.507-3.033-5.9.012-4.287,3.284-5.45-4.673-14.99-.826-15.3L174.8,113l.611-5.639-.2-2.22-.061-13.437-4.685-7.883,4.526-1.793,25.791-6.042-.1,7.719,10.477.6,12.623-9.223,13.058-9.272,10.379-4.336,4.978-.587,10.666-6.342,6.177-4.459,10.14,1.3L284.9,68.35l6.379.874,10.329-.654,3.285,3.976,4.562,13.32L312.393,95l.966,1.04,6.819-3.272L330.245,91.6l4.4-2.557,2.416-4.458,7.467-.7,1.78,1.376-4.226,9.424-4.4,28.238,9.81.141,6.245-8.171,4.924,7.082,7.271-1.242,3.932,11.6,9.162,11.29-12.293.539-5.541,4.825-.954,7.266,2.171,4.312,3.131,9.712,6.581,7.767.465,5,.716,7.156-3.535,3.247,2.972,6.545-.715,9.387-.716,5.963-6.666,10.929-5.8,5.052-3.547,11.517-8.9,2.042-2.294,3.933,1.97,1.406,4.073-2.581,8.563,7.884,4.311-2.4,5.015-11.131,17.082.887,5.565,2.092,1.731,1.981-1.04,2.306,5.211,5.351.753,12.483-1.639,4.764-1.829,4.875L389.59,303l2.507.679-1.431,9.076-2.079,4.661-5.841,7.6-8.085,25.418-5.449,13.461-11.828-.214-5.963,6.77L330.18,359.513l-4.012,2.881-6.844-1.792-9.523-2.569L302.285,345.3l-.238-7.358-4.337-2.52-.563-2.47Z" transform="translate(-90.076 -49.566)" fill="#ffeb00" stroke="#000"/><text transform="translate(271.068 538.931)" font-size="129.804" font-family="DejaVuSansCondensed-Bold, DejaVu Sans" font-weight="700">3</text><text transform="translate(154.353 166.294)" font-size="129.804" font-family="DejaVuSansCondensed-Bold, DejaVu Sans" font-weight="700">4</text><text transform="translate(57.286 609.91)" font-size="111.148" font-family="DejaVuSansCondensed-Bold, DejaVu Sans" font-weight="700">2</text><text transform="translate(111.933 234.857)" font-size="63.628" font-family="DejaVuSansCondensed-Bold, DejaVu Sans" font-weight="700">1</text><rect x="127.221" y="273.687" width="25.099" height="25.099" fill="#06c" stroke="#000"/><rect x="79.615" y="476.33" width="36.869" height="36.869" fill="silver" stroke="#000"/><rect x="241.73" y="589.686" width="117.559" height="117.559" fill="#06c" stroke="#000"/><rect x="218.723" y="215.605" width="62.068" height="62.068" fill="#06c" stroke="#000"/></svg>