<svg xmlns="http://www.w3.org/2000/svg" width="948.443" height="825.31" viewBox="0 0 948.443 825.31"><title>1T Législatives 2017 Puy-de-Dôme</title><path d="M471.5,436.367l-5.217,1.946-5.8-9.779-8.816-1.332,2.685,3.118-9.333-.042.426-8.021.641-8.635-4.987.042-1.9,1.311-5.106.412-2.26,3.055-2.469-2.916-5.678-.684,14.648-16.768-2.1-1.011-4.387-11.879-11.781,1.486-5.26-12.938-16.753-1.66-2.588-8.147,5.406-6.243,14.124-.844,2.218,8.35.6,2.6,5.26.558,12.045-3.187,6.85,2.5,31.834-5.657.488-.188,9.863-1.158,5.07,2.49,15.15,16.141,5.231,1.2,1.688-2.1,5.5,5.733.67,5.246-3.215,14.4-2.358,1.841L503,404.939l-1.375,7.7-13.092,8.893.558,5.657,4.946,6.863,9.193,7.031,8.788-.67,9.646-6.173,4.8,4.9-4.547,1.946,2.371,10.65-4.059,7.206-4.2,6.849-4.248,3.613-9.144-6.277-5.677,5.6-3.662.775-6.09-7.331-4.443-9.033-.544-12.847Z" transform="translate(-28.633 -12.362)" fill="#ffeb00" stroke="#000"/><path d="M535.841,178.837l-5.545-1.018-.328-4.82-5.119-.356-1.2,2.344-4.359-6.473-5,1.974-15.791-.7-.07,5.873L487,175.789l-19.1-4.317-5.657-6.048-3.118-2.469-7.233-.725-.83-11.39-5.043-13.79-2.9-.544-9.862,6.619-11.307,3.327-6.661-5.761-7.7,3.9-5.448.412-4.729-10.316-8.7-7.422-8.391-1.13-4.959,2.428L371,122.256l-5.377-16.377-1.891-19.8-5.133,2.274-16.468-4.687L339.21,79.8l4.9-3.215.516-6.047-4.275-14.194,1.855-5.79,4.771-3.675,7.408-3.257,1.569-2.47L352,33.744,360.1,25.8l-5.475-1.242-6.431-5.371-11.976.572-11.481-3.787-12.046,1.785L308.988,13,284.931,25.7l-.886,8.286,3.341,10.42-2.574,1.319-.983,11.474-4.1,7.547-14.02-2.086L255.573,52.29l-5.831.642-7.958-8.461-8.2-3.041-6.173,9.834,4.687,13.42L227.652,71.7l.3,5.629-12.095.432L205.4,82.3l-5.029,3-.83,11.634-3.634,4.506-2.929,11.02-1.312,2.316-4.471,10.693-4.47,3.857-5.706,1.172-7.993-2.93-12.939-6.919-6.228,3.529-9.989-11.25-5.426-2.658-1.6,3.83-2.064-.14-1.723,12.981-3.425,3.92.258,16.551.991,5.3-1.2,5.943,2.469,8.816,11.021,24.971,17.4,12L153.955,219.5,150.9,235.872l2.176,8.035,7.463,9.033-1.521,8.216-22.6,7.3-1.66,2.357,1.437,5.72-9.891,6.075.084,5.656-4.52,3.774-1.165,8.775,1.018,2.776,8.28,3.145-2.762,1.332-24.5,20.814-5.873.683-.216,8.817-5.566,10.03-5.518-.4-5.112-5.678-5.35-.146-2.434,3.675-10.525.231-.007,8.293,3.71,4.073-1.095,5.448-7.707.628-1.262,5.175-3.774,3.99-14.362-2.4L29.3,379.6l25.4,32.971,1.932,15.937,6.836,9.305,5.384-1.9,7.261,4.589,2.518,5.357,8.286,2.19,4.088,7.819,17.416,22.355-.934,11.118,4.108,2.832-1.339,5.573,2.434,5.217-6.187,3.976-2.2,4.548.021,5.4,6.933,8.594-4.338,7.261,1.172,4.5-4.116,1.974-16.419-1.172-2.518,4.771L82.9,565.942l-7.686,5.817-1.186,5.391,6.4,13.267,8.272,8.474L93.5,609.207l11.613,2.49,8.091-16.865,2.818-4.43,8.865-5.475,16.126-17.34L155.2,563.9l6.954-5.448,7.686-2.176,3.041-4.388,10.749-.941,1.115-2.518-4.1-3.7,16.454-3.585,1.319-2.6-2.588-5.2,9.96-5.287,16.852,9.263,5.091-2.671.489-2.846.041-17.124-5.056-6.961,2.957-7.9,2.916-.1,9.479-5.433,3.418-7.436-26.659-4.6-3.962-4.5-2.2-8.788,6.075-10,6.96-5.133,1.633-5.588,6.905-12.066,1.1-13.266,9.179-15,8.447,2.169,9.1-6.8,10.832-.384,5.231-5.517,2.385,4.457-3.347,19.809,19.006,8.021,11.962-7.059-1.89-17.737,13.65-5.043,1.66-8.4,14.166,3.815,9.563,6.829,8.593,1.987,8.593-7.2,5.991-5.719,7.994-2.156L367.513,373.7l12.046-6.591,13.008,6.117,5.462-1.256-2.588-8.147,5.392-6.242,14.124-.844,2.233,8.349.6,2.6,5.246.544,12.059-3.174,6.85,2.5,31.82-5.657.5-.188,9.863-1.158.746-17.109,7.931-.056,3.062-7.121,5.378-.147-4.172-20.6-4.6-4.29-1.311-2.657,3.69-11.237,2.531-1.541-6.2-7.4,4.534-10.588,2.741.112,3.187-4.429,7.463,1.6.97-5.392,1.018.733,3.432,4.143,11.02-.53,5.071,2.029,6.989-2.915,2.657-.9,3.92,3.885,16.336-4-.147,16.224,14.522-.37,11.474-1.255,2.532-14.48.872-2.142,11.62-2.643,2.274-8.594L616.3,251.39l.586-2.943,6.633,1.646,1.361-4.617,19.836,2.044,8.831-10.721,21.35-7.016-2.274-6.487-5.357,2.176,1.932-16.823-2.532-8.175,5.12-2.358-6.647-8.761-1.932-7.616-2.19-3.76-5.217,3-5.831-.446-6.689-6.048-2.33-5.531-10.106,6.473-11.746,1.9-8.161,8.607L588.97,194.8l.432-8.063-9.36-4.771-9.116-3.076.432-2.6-5.377,2.2-5.3-2.372-5.092,2.588-11.39-2.456Z" transform="translate(-28.633 -12.362)" fill="#ffeb00" stroke="#000"/><path d="M390.748,831.2l-17.612-10.776-11.481-1.884-9.807-17.548-4.485-13.909.1-3.09-2.546-10.2,1.388-5-5.42,1.346-5-2.574-7.219-8.188-7.316-3.258-4.213,6.529-7.435-4.185-5.092-10.135-14.4,1.332-7.546-8.147-15.206,8.336-2.713,5.029-2.727-.9-10.951-.726-7.135-4.045-5.19-1.4-7.707,2.685-8.147,7.017-5.915-6.361-2.985-7.987-10.546-8.99-1.06-11.481,5.963-7.722-.927-4.931-8.489-.369-8.133,2.8-5.377-6.717-7.792-2.546-8.1,1.583-2.588-19.795L158.384,696.6l-5.322,2-8.363-1.241-9.953-10.3-10.77,1.855-7.1,4.373,4.854-18.169-13.469-2.874-7.616,3.285L103.9,663.4l-2.9-6.243.342-5.573,5.211-10.246-2.065-5.057,1.8-5.231-1.736-8.4,1.883-2.176-1.339-8.733,8.09-16.851L116,590.443l8.865-5.475,16.127-17.326,14.193-3.7,6.955-5.448,7.686-2.169,3.041-4.4,10.748-.928,1.116-2.518-4.1-3.718,16.454-3.571,1.318-2.6-2.587-5.217,9.96-5.287,16.852,9.263,5.091-2.671.488-2.846.042-17.11-5.057-6.961,2.958-7.9,2.916-.112,9.479-5.433,3.417-7.422-26.658-4.6-3.962-4.506-2.2-8.789,6.075-10,6.961-5.12,1.632-5.6,6.906-12.06,1.1-13.28,9.193-15,8.432,2.177,9.1-6.815,10.832-.383,5.231-5.5,2.385,4.457-3.348,19.8,19.007,8.022,11.962-7.045-1.89-17.738,13.65-5.056,1.66-8.4,14.166,3.829,9.562,6.814,8.593,2,8.594-7.2,5.991-5.734L372.925,389l-5.433-15.269,12.046-6.577,13.008,6.117L398.008,372l16.753,1.674,5.246,12.931,11.78-1.471,4.4,11.864,2.086,1.018-14.647,16.754,5.678.684,2.469,2.915,2.26-3.054,5.119-.412,1.9-1.311,4.988-.042-1.074,16.677.544,7.889,4.889,1.513,1.814-1.946.041,10.246,2.016,1.6-9.332,2.03-.726,2.4-9.507,17.012-17.221,2.545-6,4.3,7.533,3.885,5.056-2.044,5.559,6.431,14.167,2.8,7.944-3.5-.4-8.579,1.1-2.685,2.887-.175,5.929,6.4.711,8.718-3.3,4.129-.147,8.622,4.415,7.086,2.63,15.582,5.176,14.32-3.46,8.258-4.861,3.341,6.319,16.894,10.588,6.786,19.892-12.917,7.931,11.481-.216.788-.9,5.789,3.529,17.193-4.561.412-4.834-.042-3.2,4.3-6.034-4.987-3.529,6.389,1.472,7.331-.628,5.119h-5.106l-2.315,8.091,5.1,8.307.07.412-9.005,6.542-2.469,5.371-12.98,6.864-10.651,9.688-2.972-.286-2.127,1.158,1.242,4.5,4.7-2.49,7.059,3.6,10.434-.327,3.788,3.857,4.875,2.044.4,2.643-1.2,4.959-2.657.175-.258,2.818,2.657.9,4.931-2.686,11.188-.383,3.773,2.887-7.135,9.221-1.1,11.335,7.149,4.987,8.259-2.427,5.029,2.371,2.469,7.645-4.771,2.86,4.834,9.534-1.946,10.923-6.4,9.249,14.822,12.631,2.176,5.2-2.6,2.372-4.3-3.174-12.331,6.39-3.676,4.429,2.315,4.917-17.709,1.012-7.289-2.832L469.69,782.9l-16.182-2.545-4.185,1.974L444.538,792.7l-10.888,2.944-4.073,4.1,1.528,11.5-5.246,6.675,1.486,2.5L413.9,827.712l-7.63,2.232-3.285,7.135L391.647,834Z" transform="translate(-28.633 -12.362)" fill="#f90" stroke="#000"/><path d="M511.743,469.428l-9.144-6.277-5.678,5.6-3.648.761-6.1-7.331-4.443-9.019-.544-12.862L471.5,436.366l-5.217,1.932-5.79-9.765-8.816-1.332,2.686,3.118-9.347-.042.53,7.889,4.889,1.513,1.814-1.96.056,10.26,2.016,1.6-9.347,2.03L444.252,454l-9.506,17.026-17.221,2.546-6.006,4.3,7.533,3.885,5.071-2.044,5.545,6.431,14.166,2.8,7.944-3.5-.383-8.579,1.1-2.686,2.888-.174,5.915,6.4.711,8.719-3.3,4.115-.147,8.635,4.429,7.073,2.616,15.6,5.175,14.319-3.445,8.259-4.862,3.341,6.319,16.893,10.574,6.787,19.907-12.918,7.931,11.481-.231.788-.886,5.79,3.53,17.193-4.562.412-4.848-.042-3.187,4.3-6.047-5-3.516,6.4,1.472,7.331-.628,5.119H483.2l-2.329,8.091,5.105,8.307.084.412-9,6.542-2.476,5.371L461.6,650.6l-10.651,9.688L447.991,660l-2.142,1.158,1.256,4.5,4.687-2.49,7.072,3.6,10.435-.327,3.773,3.857,4.89,2.043.383,2.644-1.2,4.959-2.658.175-.244,2.818,2.658.9,4.931-2.686,11.188-.383,3.759,2.887-7.135,9.221-1.1,11.335,7.163,4.987,8.244-2.427,5.043,2.371,2.455,7.631-4.771,2.873,4.848,9.535-1.946,10.923-6.4,9.249,14.807,12.631,2.177,5.2,1.646.433,2.476-10.707L532.2,746.4l6.361,4.29,7.875-1.019,16.209-7.477,2.5-4.22,2.386-11.634,2.413-1.569,5.42,1.527,6.061,5.9,6.55,12.032,6.486-14.808-.2-5.587,4.729,1.458,4.22-2.588,6.772,9.465,7.491,8.719,5.5-1.73,5.175,2.469,5.057-2.546,8.119,5.176,4.262-3.788,16.851,1.116,2.8-.711L667,735.481l9.4-10.749,12.953-6.214-.4-1.974,5.057-10.749-.9-1.974-2.469,3.362-19.551-1.13-10.065-4.213,3.613-6.333,11.878-7.373,7.722,3.662,1.486-5.091,13.789-2.1.872-2.685L692.985,670.4l1.884-1.541-.726-5.629,4.506-3.516-7.1-8.893-.015-11.091-5.056-5.956,2.859-7.6-1.269-2.546-10.488,3.127-21.1-7.7-1.583-6.731,1.618-10.337-.53-8.272,2.03-8.293-11.446-8.272-.732-2.832,4.8-7.1-1.758-8.105-5.734-6.089-8.321-2.574-2.657-19.237-2.7-5.07,1.172-8.489-9.032-11.132-11.09.816-3.286,4.485-4.931.942-2.03,5.231-.341,1.374-10.749-.655-6.431-5.378-16.893-.586-6.145-10.532-2.874-15.08,3.76-11.292.146-8.977-.125-.188-.726-2.658,9.444-9.493,4.96,1.891,8.572-7.534,2.887.3,6.934,5.217,2.873-.328,5.134,5.873L611.6,444.089l-2.427-7.331,7.275-8.579,14.536,1.569,4.171-4.171,1.213-26.443-5.545-2.113-8.788,1.346-3.076,7.945-4.443,3.92-6.417-4.1-14.18,3.488-4.9-2.588-8.488,2.3-2.218-5.447,3.6-10.379-1.416-8.035-5.761-9.061-.586-8.286-2.546-1.486-11.69,17.124-5.057,3.174-.1,3,7.791,17.479L559.5,411.53l-13.734,3.347.572,8.433-3.055,7.958L526.412,439.1l-4.534,1.96L524.25,451.7l-4.073,7.206-4.185,6.849Z" transform="translate(-28.633 -12.362)" fill="#f90" stroke="#000"/><path d="M863.177,510.392,853.14,495.884l-1.019-8.147L855.993,478l-3.174-6.7,2.315-4.359-7.644-3.39L840.257,448.3l-2.832-.217-3.027,4.834L823.21,440.684l1.974-4.074,1.6-1.332,2.874-4.973-5.629-6.989L807.363,416.9l-4.143-4.317,1.018-5.162,10.365-5.6,8.461-24.656-4.6-16.838.984-.913,3.8-4.3.8-5.531-4.889.8-2.818-7.533,11.006-.572,5.762-5.845,1.074-5.134,5.175-1.6-8.377-18.512-6.661-5.447-4.534-7.317-16.2-6.814-.084-.189-6.731-8.174L794.089,270.1l-6.745-4.443-16.293-3.634-4.248,3.718-3.627-19.321-7.345-11.774-7.317-14.906-7.6-7.888-6.263,5.419-13.762-.474-.914,2.685-2.559-.488-4.618.216-1.527-4.9-2.6-.774-7.847,1.6-.16,5.085-20.011.1-8.008,3.055,2.274,6.487-21.35,7.016-8.83,10.721L624.9,245.544l-1.36,4.617-6.634-1.646-.585,2.944-12.639,7.491-2.274,8.593-11.62,2.643-.872,2.142-2.532,14.48-11.46,1.255-14.536.37.147-16.224-16.308,4.032-3.912-3.9-2.658.9-7,2.916-5.071-2.03-11.02.53-3.432-4.143-1.011-.725-.984,5.377-7.449-1.6L498.518,278l-2.741-.1-4.534,10.574,6.187,7.4-2.518,1.541-3.7,11.237,1.319,2.672,4.589,4.275,4.185,20.6-5.377.161-3.063,7.114-7.944.056-.746,17.11,5.071,2.49,15.149,16.14,5.231,1.2,1.688-2.1,5.518,5.734.655,5.245-3.215,14.4-2.358,1.842-8.893-.67-1.374,7.7-13.092,8.894.558,5.656,4.945,6.864,9.193,7.03,8.788-.669,9.647-6.173,4.8,4.9,16.852-7.833,3.055-7.958-.572-8.433,13.734-3.348,3.062-4.129-7.8-17.465.112-3,5.056-3.174,11.69-17.124,2.532,1.486.586,8.286,5.761,9.061,1.43,8.035-3.613,10.365,2.218,5.461,8.5-2.3,4.9,2.588,14.166-3.488,6.431,4.1,4.443-3.92,3.063-7.944,8.8-1.347,5.532,2.114L635.207,425.6l-4.157,4.171L616.5,428.2l-7.261,8.572,2.427,7.345-10.909,15.854-5.134-5.873-2.887.328-6.919-5.217-2.888-.3-8.572,7.533-4.959-1.891-9.445,9.479.726,2.672.111.188-.139,8.977-3.76,11.292,2.86,15.08,6.145,10.532,16.893.586,6.445,5.378,10.748.655.328-1.374,2.03-5.231,4.945-.942,3.285-4.485,11.091-.816,9.032,11.132-1.172,8.489,2.686,5.071,2.671,19.236,8.307,2.574,5.747,6.075,1.744,8.105-4.8,7.115.733,2.832,11.446,8.272-2.016,8.293.516,8.272-1.6,10.337,1.569,6.731,21.113,7.7,10.462-3.132,1.27,2.56-2.86,7.6,5.057,5.957.028,11.09,7.087,8.893-4.5,3.516.725,5.629-1.883,1.541,7.4,11.523-.858,2.671-13.789,2.113-1.486,5.092-7.735-3.676-11.879,7.387-3.613,6.333,10.065,4.213,19.565,1.13,2.469-3.376.886,1.974L689,716.581l.383,1.974,3.348,14.034,8.844,7.519,15.61,3.459,4.548,3.5,5.134-2.086,2.859-5.029,7,16.482,4.129,7.5-1.9,4.729,3.516,9.444,16.021,15.965,5.657-.613,8.021-8.05,2.657-7.986,10.574-4.276,2.469-11.473L791,757.224l5.419-.6,1.744,2.113,6.019,5.734,5.406,1.43-3.118,7.546,4.576,1.6,7.233-.161,7.944,1.256,5.957,5.391,8.2-.725,1.743-1.758,10.379,5.42,2.288-1.758,5.315-5.831-1.214-11.2,2.518-10.937,8.635-5.789,7.1,4.645,2.873,4.89,8.008-2.344.6,14.18,4.688-2.985,4.484,6.975,12.9,5.19,13.552-1.4-3.118-10.776,1.4-11.76-2.455-8.349,4.834-13.636,5.07-2.658,4.046-7.847,2.686.775,11.187-7.317,15.394-5.447.014-.914-1.869-5.015,8.865-4.073-3.572-4.262,2.4-5.134-3.313-10.288,10.72-12.352-.969-7.519-6.675-4.29-4.2-.356-.488-2.246-3.731-8.949-7.178-25.054,4.771-10.518-5.845-5.873L949.2,596.59l-4.345-6.417L930.573,575.5l-15.679-5.943-7.7-8.09-4.6-1.932-2.4-8.022-11.7-1.715-7.833-4.346-1.9-4.47-1.758-7.875-7.289-7.931Z" transform="translate(-28.633 -12.362)" fill="#d00" stroke="#000"/><text transform="translate(673.446 504.757)" font-size="148.035" font-family="DejaVuSansCondensed-Bold, DejaVu Sans" font-weight="700">5</text><text transform="translate(491.486 640.632)" font-size="148.035" font-family="DejaVuSansCondensed-Bold, DejaVu Sans" font-weight="700">4</text><text transform="translate(247.845 625.21)" font-size="148.035" font-family="DejaVuSansCondensed-Bold, DejaVu Sans" font-weight="700">3</text><text transform="translate(228.345 273.616)" font-size="148.035" font-family="DejaVuSansCondensed-Bold, DejaVu Sans" font-weight="700">2</text><text transform="translate(451.692 393.403)" font-size="37.675" font-family="DejaVuSansCondensed-Bold, DejaVu Sans" font-weight="700">1</text><rect x="416.657" y="358.37" width="35.034" height="35.034" fill="#cc2443" stroke="#000"/><rect x="119.344" y="272.653" width="109.002" height="109.002" fill="#ff8080" stroke="#000"/><rect x="453.764" y="470.121" width="69.274" height="69.274" fill="#06c" stroke="#000"/><rect x="710.153" y="574.772" width="120.576" height="120.576" fill="#ffeb00" stroke="#000"/><rect x="288.83" y="434.819" width="69.274" height="69.274" fill="aqua" stroke="#000"/></svg>