<svg xmlns="http://www.w3.org/2000/svg" width="669.137" height="938.052" viewBox="0 0 669.137 938.052"><title>1T Législatives 2017 Loire</title><path d="M458.008,793.693l-5.615-5.07-4.981,5.151,2.3,4.709-2.3,5.342-2.3,5.439-4.576,4.451-7.759,5.482-26.021,10.435,2.4-4.5-4.65-3.153.376-2.823,3.53-3.684-14.481-3.67-8.637,1.407-7.487-4.967-2.645-7.5-1.209-5.7,7.112-5.357L376.344,780l5.181-6.993-1.511-2.55,16.942-1.887,8.187,2.329,2.793-.376,3.169-13.257,7.14,4.362,11.054-2.911,9.528-4.046,2.962,1.239,8.593-2.69,11.584,2.646,1.356,4.156,15.239,2.13.148,6.3,6.662,6.677,4.289-7.267,10.9-3.4.169-5.74,7.31,1.12,4.156,3.854,4.134,10.8-1.311,11.054-6.19,6.735.228,3.051,5.659,10.81-9.5,1.481-6.434,4.458-3.412-5.069-3.6,3.441-3.1-1.96,2.417-4.82-6.78.789,2.417-11.688-15.858-1.164Z" transform="translate(-27.755 -39.463)" fill="#ffeb00" stroke="#000"/><path d="M500.034,832.278,493.226,822l-6.043-.457-12.2,8.791-5.571-2.593-2.491,1.872L459.7,824.9l-6.3-13.139-8.26-2.521,2.3-5.438,2.3-5.328-2.3-4.723,4.982-5.151,5.615,5.07,12.9-2,15.843,1.164-2.417,11.688,6.78-.774-2.417,4.819,3.11,1.96,3.581-3.441,3.412,5.055,6.434-4.451,9.513-1.481,6.662,5.77L518.534,833.1l4.517,4.141,3.553,4.576-8.032,3.715-2.72-1.268-4.289,7.855-1.422-1.886-8.754-8.791Z" transform="translate(-27.755 -39.463)" fill="#ffeb00" stroke="#000"/><path d="M624.19,702.006l-.965-2.188-4.488-4.451-6.389-18-6.854-6.6-7.523,4.517-9.86-.272-10.332-10.317-14.62,1.886-16.094,6.463-4.709-3.582-5.814.347-.789-8.622-22.366.39-2.749,5.343,1.136,2.918-6.751,8.681L498.347,689.8l-13.662-10.1-1.711.044,4.592,10.678-3.353,7.826-2.7-1.091-7.17-3.08-1.069-7.583-8.895-.833-8.74,3.036-6-1.569-3.839-4.754-9.632,15.571,3.11,21.142-2.9,5.468-19.69-9.366-2.277,5.6-14.421-3.552-4,3.367,1.253,9.47,11.731,14.694,2.13,12.549,7.14,4.363,11.054-2.9,9.528-4.046,2.962,1.223,8.593-2.675,11.584,2.631,1.356,4.171,15.239,2.13.148,6.3,6.662,6.677,4.289-7.281,10.9-3.382.169-5.741,7.31,1.12,4.156,3.84,4.134,10.81-1.311,11.054-6.19,6.72.228,3.051,5.659,10.81,6.677,5.771-2.9,21.127,4.518,4.134,8.85-2.661L537.846,836l10.029,7.023,9.057.273,1.783,5.917,5.269,3.235,8.518-1.54,6.434-9.875,2.329-.42,6.072.833,16.551-7.251,2.867-27.65,3.2-5.077,5.769-2.145.723-12.063,4.119-4.621,14.045,1.253,6.581-5.181,4.546-10.3,1.724-12.129-2.66-1.15-4.1,4.061-5.615-8.983-5.026-.965-2.233-8.438,2.071-2.248L627.159,723.5l.774-12.078,6.794-5.962,2.314-5.541.722-.185,11.7-10.479,1.452-3.08-7.354-9.514-3.022-.774-7.73,5.314-5.829-1.01-.707,9.285,7.037,9.963Z" transform="translate(-27.755 -39.463)" fill="#ffeb00" stroke="#000"/><path d="M595.3,926.021,590.771,940.8l4.473,3.486,4.259,4.738v9.123l-12.836,8.29-14.893-2.793-11.569,4.473-3.943,4.76L544.906,968.5l-7.856,7.745-9.271.752-4.79-3.788-2.431-1.3-13.986-13.832-7.171-5.409-7.14-13.485-9.043-.634L465.4,949.049l-2.491,5.372-7.7-3.884-2.343,1.843L439.71,936.521l5.9-6.824,1.054-5.784,4.031-3.744-.907-4.649-8.755-2.565L428.1,900.207l19.875-16.927,2.911.331L438.605,862.8l-7.5-5.078-17.687-4.3-.287,5.844-2.446,1.422-5.122-1.076-3.684,4.436-11.356-.619-.516-13.514-8.534,2.881-8.047-12.123-2.992.258-8.135-4.215-16.065,6.676-12.594-8.445-11.731,2.491-11.054,4.289,7.7,9.919-1.3,6.028-21.474-1.916-7.067,5.858-.818,6.234-5.814-4.244-11.5,3.611-2.292,12.159-3.567,5.18-5.21-3.139-5.224-11.238-5.483-3.1-5.962,1.7-.722,2.992L235.04,876.6l-1.8,14.937-2.506-.03-1.223-4.8-7.6-19.934-5.984-.155-4.576-13.728-4.59-3.67-10.811,4.834-8.408-3.367L182,853.044,179.33,861.7l-10.089,6.537.59,11.2-8.173,7.627-2.188-4.849-3.353-16.4-3.295-11.385,1.482-12.41-2.609-8.836,5.107-14.406,5.357-2.808,4.274-8.29,2.837.818,11.828-7.73,16.249-5.741.015-.965-1.975-5.3,9.366-4.319-3.773-4.5,2.535-5.424-3.5-10.855L211.341,750.6l-1.025-7.929-7.052-4.532-4.436-.39-.516-2.373-3.942-9.44-7.583-26.485,5.041-11.112,2.734,3.758,14.1-4.046,22.41,7.2.361.044,11.9-2.387,8.548,3.308,9.469,7.944,3.066-.818,5.962-9.543,7.17-4.967.752-2.866-4.09-3.854,10.191-5.409-3.913-8.173,4.879.6,3.743-6.979L325.3,676.317l4.031-3.641,8.408,2.4,11.238,8.85,2.4-14.421,4.089-4.171,1.725-8.46-3.471-8.187.6-5.917-3.928-4.437-17.126-2.129,1.106-6.235,9.3-7.325.951-5.755,11.142-4.3,5.527-2.012,2.476,20.08,3.773,3.213,5.2-.2,2.114,5.026-9.7,11.187-1.039,2.918,3.817,8.489,13.183,7.855,1.6,1.857,9.985,14.606-.936,5.372-8.091-.214-4.694,2.609-5.394,2.675-2.359,5.542,5.166,7.774-.214,6.161.148,6.993,14-4.016,5.682,2.129,1.253,9.469,11.746,14.7,2.13,12.549-3.169,13.272-2.793.376-8.187-2.343-16.942,1.886,1.511,2.565L376.38,780.1l4.724,9.668-7.126,5.373,1.208,5.7,2.661,7.487,7.472,4.982,8.637-1.423,14.5,3.685-3.53,3.67-.376,2.822,4.65,3.154-2.418,4.517,26.036-10.435,7.745-5.5,4.591-4.451,8.261,2.52L459.7,825l7.237,4.708,2.476-1.872,5.571,2.594,12.2-8.791,6.057.457,6.809,10.28,1.341,9.152,8.755,8.807,1.422,1.871,4.3-7.855,2.7,1.268,8.048-3.7-3.567-4.591,8.851-2.674,6,1.451,10.015,7.023,9.056.273,1.783,5.917,5.269,3.228,8.533-1.526L579,841.135l2.313-.4,6.088.832,16.536-7.251,2.881-27.649L610,801.585l5.785-2.145.707-12.063,4.134-4.621,14.046,1.238,6.58-5.18,4.546-10.288,1.711-12.129,11.326,1.393L672.5,743.354l10.251,6.566,3.08,11.6-2.852,1.15,11.511,15.239-1.253,4.171.376,3.552,2.763,7.627.014,5.269L685.853,809.41l1.025,11.644,6.3,8.533,2.521,11.658-1.15,11.827-.648,5.151-18.895,3.441-1.687,6.433-12.425,4.488L657.6,876.66l-11.208-1.134-26.05,17.892,2.91,6.492-5.843,3.53L606.1,907.61l.767,9.057,3.7,4.76-.817,2.933-6.072-.53Z" transform="translate(-27.755 -39.463)" fill="#ffeb00" stroke="#000"/><path d="M476.07,165.644l-16.55-11.385-7.885,2.852-4.775,7.266-18.076,2.675-6.647,5-1.5,11.886L414.1,190.1l-1.975,8.725,3.324,4.982-.664,11.842-5.63,2.948.936,5.7-3.5,7.841-7.516,9.027-19.831.906-1.657,2.189,6.4,11.872,5.409,3.139,6.331,10.479,4.834,3.081,10.855-2.808.486-.118,2.807,12.248,1.054,2.609-7.458,14.635-6.477-6.072-11.57,2.992-3.213-4.724-13.986.148,2.631,9.616,6.853,5.011,10.508,3.051,8.188,4.157,5.6,7.413,1.754,5.976-4.171,4.436,11.326,10.28,6.1.892,15.21,9.977-5.3,10.45,5.409,2.314-14.392,10.678-5.482-1-9.064,1.039-5.122,3.294-3.471,11.267-9.152-1.6-5,11.4-10.605,6.4-2.608,5.785-.546,5.2-4.635,2.779-2.115-5.21-2.763-.531-3.051-.516-2.565-5.541,1.9-17.7-8.393-3.036-.243,3.021-5.858.435-4.09,7.826-8.445,2.314-4.879,6.81-5.946-6.537-4.606-10.346L299,376.558,286.721,387.3l-1.179-2.793-5.725-1.857-3.972-8.092-7.156-5.438-8.821-2.248-2,2.329-1.613,2.291-2.55-1.164.862-5.5-6.19-5.675-5.24-7.354-8.349-3.11-.243-3.006-10.317-5.933-18.165-2.188L195.1,343.4l-6.191-.921-2.358,5.814,5.976,16.02.752,5.815,13.109,11.356-7.943,15.04-8.475.575L175.9,382.151l-5.615.936-5.918,6.22,1.916,11.857,7.988,4.274,2.631,8.445-1.643,2.609-3.036-.472-3.051-2.4-1.585,2.579-8.563,2.248-7.789,8.894-5.755-1.356-5.055-7.221-2.837.8-3.537,7.9,4.274,10.906-5.814,5.512-4.916-3.273-14.237-.1-4.377-3.84,4.119-7.458-.317-11.805-9.027-7.339L78.019,398.693l-8.062-2.13-3.486-4.517-8.85-19.557-7.038-5.741L45.793,359l-17.111-7.2-.089-.2.17-15.5,6.478-6.647-1.688-9.167,4.878-7.583,20.354,6.721,5.372-3.007,2.852-8.821,3.021-.774,13.589,7.112,5.63-2.329,5.947-7.067,5.984-1.3,8.445-3.154.788-6.013,4.532-4.156.214-.185-2.963-.486-1.657-5.77-5.483-11.3-1.393-15.814-5.078-14.8,9.831-33.582L96.861,190.022,91,188.15l4.863-17.369-4.923-10.936-1.105-11.806,10.176-4.532L89.13,121.717,88,109.241l3.4-8.172L85.652,90.1,78.4,84.172l-2.549-12.02,5.616-2.388L96.781,73.9l3.124-16.956,26.861-4.422,11.5-1.407,5.5-10.8,5.815,1.614L157.451,40l2.645,1.724,3.14,12.13-.848,15.158L156.1,75.143l.089,9.285-4.621,11.209,12.108,5.947,4.79,3.655,11.96-2.1,18.15,3.021L203.206,109l-.677,9.094,10.663,17.936,18.482-1.96,5.932,2.189,2.291-2.145,11.7-8.121,6.359-6.809,4.738,1.555,10.044-4,12.683-6.6,18.047,16.109.471,3.007h.288l5.932,1.193,21.805,2.1,5.394-2.675-1.194-2.911.059-9.3,2.69,1.356,10.634-5.3,8.364,8.489,3.412,6.765.98-.678,11.776-8.909,8,3.324,2.358,8.474-5.328,7.082-2.962.214,2.837,8.408,18.305.891,4.923-11.3,7.885-4.517,5.615,2.823,2.866-.1,6.4-12.292,5.181,2.852,7.355-5,7.428,4.141,7.7-1.5,1.695-2.631-6.36-10.25,7.155-9.9,8.549-3.228-.2-6.072,11.688.148,9.4,11.415.766,3.53-16.352,6.75-.435,5.844,6.375,6.3,4.981,1.975,11.946,6.522,3.264,4.5-4.665,11.127-4.709,3.8L481.805,166.7Z" transform="translate(-27.755 -39.463)" fill="#f90" stroke="#000"/><path d="M509.017,647.887l-6.882-4.141L500.4,632.618l-3.515-4.458-11.931-5.932-7.6-2.13-.891-4.546-10.192-14.783,2.144-3.957-2.188-3.987-16.684-7.774,1.768-2.292-1.783-8.334,4.738-6.979-4.966-6.934,4.5-4.156,1.526-9.168,6.028-6.993,4.06-14.966,7.31-5.424-3.368-7.1-4.3-2.918-10.907,5.07-8.835-1.5-6.293-18.018,5.755-6.934,11.371-4.679-.516-18.268,2.343-2.086,5.313,3.382-4.753-12.984,1.385-2.535-4.031-4.105,2.838-.449,1.974-7.8,4.319-3.14-4.709-7.627,4.723-3.869,3.471-8.592-1.069-4.79-20.9-.907L434.86,400.3l-3.47-11.931-6.707-6.478-1.872-5.873-5.482-1.01-9.064,1.039-5.122,3.294-3.471,11.268-9.152-1.6-5,11.4-10.605,6.4-2.608,5.784-.546,5.2-4.635,2.778-2.115-5.21-2.763-.531-3.051-.515-2.565-5.542,1.9-17.7-8.394-3.036-.243,3.022-5.858.435-4.09,7.826-8.445,2.314-4.878,6.809-5.947-6.537-4.606-10.346-17.052-14.982-12.278,10.737-1.178-2.793-5.726-1.857-3.972-8.092-7.156-5.438-8.821-2.247-2,2.328-1.613,2.292-2.55-1.165.862-5.5-6.19-5.674-5.24-7.355-8.349-3.109-.243-3.007-10.317-5.932-18.165-2.189-10.965,5.844-6.191-.921-2.358,5.814,5.976,16.021.752,5.814,13.11,11.356-7.944,15.041-8.475.574L175.922,382.17l-5.615.936-5.918,6.22,1.916,11.857,7.988,4.274,2.631,8.445-1.643,2.609-3.036-.472-3.051-2.4-1.585,2.594-8.563,2.232-7.789,8.895L145.5,426l-5.055-7.222-2.837.8-3.537,7.9,4.274,10.906-5.814,5.512-4.938-3.294-14.237-.1-4.377-3.839,4.119-7.458-.317-11.805-9.027-7.34-25.733-11.37-8.061-2.13-3.486-4.517-5.468,1.687-1.135,5.424-6.087,6.176-11.628.619,2.977,7.958,5.165-.847-.847,5.844-4.016,4.547L44.4,424.4l4.864,17.8-8.939,26.036-10.951,5.932L28.3,479.628l4.377,4.547,17.6,6.779,5.947,7.4-3.036,5.239L51.5,505.015,49.416,509.3l11.82,12.94,3.2-5.106,2.992.213,7.642,16.109,8.077,3.582-2.447,4.62,3.353,7.067-4.09,10.287,1.076,8.622,10.6,15.328L98.48,598.58l7.7,8.379,1.872,8.32,2,4.724,8.275,4.591,12.365,1.812,2.55,8.475,4.849,2.041,8.136,8.548,16.565,6.278,15.085,15.5,4.591,6.78,3.213,8.091,6.175,6.2,2.734,3.758,14.09-4.061,22.424,7.2.361.059,11.9-2.388,8.548,3.309,9.469,7.929,3.066-.8,5.962-9.543,7.17-4.982.752-2.852-4.09-3.854,10.191-5.409-3.913-8.172,4.879.589,3.728-6.964,36.2,14.164,4.031-3.655,8.408,2.417,11.224,8.85L351.4,669.5l4.09-4.171,1.724-8.474-3.471-8.173.6-5.917-3.928-4.436L333.3,636.184l1.1-6.219,9.3-7.325.951-5.77,11.142-4.289,5.527-2.012,2.476,20.066,3.773,3.228,5.2-.214,2.115,5.041-9.7,11.186-1.039,2.911,3.817,8.5,13.184,7.841,1.6,1.872L392.73,685.6l-.936,5.379-8.106-.228-4.68,2.608-5.394,2.69-2.358,5.542,5.166,7.759-.214,6.176.147,6.978,14-4,5.682,2.115,4-3.353,14.421,3.551,2.278-5.6,19.7,9.359,2.9-5.468-3.11-21.127,9.632-15.571,3.832,4.753,6,1.57,8.74-3.051,8.909.832,1.054,7.6,7.184,3.081,2.69,1.09,3.368-7.826-4.606-10.692,1.725-.03,13.662,10.1,6.677-11.282,6.735-8.681-1.12-2.918,2.749-5.343,4.2-8.017Z" transform="translate(-27.755 -39.463)" fill="#ffeb00" stroke="#000"/><text transform="translate(170.672 250.639)" font-size="156.401" font-family="DejaVuSansCondensed-Bold, DejaVu Sans" font-weight="700">5</text><text transform="translate(187.442 520.033)" font-size="156.401" font-family="DejaVuSansCondensed-Bold, DejaVu Sans" font-weight="700">6</text><text transform="translate(220.781 780.897)" font-size="156.401" font-family="DejaVuSansCondensed-Bold, DejaVu Sans" font-weight="700">4</text><text transform="translate(495.698 744.965)" font-size="120.832" font-family="DejaVuSansCondensed-Bold, DejaVu Sans" font-weight="700">3</text><text transform="translate(382.132 769.479)" font-size="53.923" font-family="DejaVuSansCondensed-Bold, DejaVu Sans" font-weight="700">1</text><text transform="translate(433.657 778.371)" font-size="24.643" font-family="DejaVuSansCondensed-Bold, DejaVu Sans" font-weight="700">2</text><rect x="419.044" y="724.923" width="20.041" height="20.041" fill="#ff8080" stroke="#000"/><rect x="439.086" y="663.672" width="49.21" height="49.21" fill="aqua" stroke="#000"/><rect x="471.093" y="826.302" width="70.471" height="70.471" fill="#06c" stroke="#000"/><rect x="261.409" y="246.175" width="70.471" height="70.471" fill="#06c" stroke="#000"/><rect x="292.382" y="421.134" width="107.639" height="107.639" fill="#06c" stroke="#000"/><rect x="473.283" y="773.514" width="14.766" height="14.766" fill="#cc2443" stroke="#000"/></svg>