<svg xmlns="http://www.w3.org/2000/svg" width="843.404" height="683.815" viewBox="0 0 843.404 683.815"><title>1T Législatives 2017 Savoie</title><path d="M222.043,181.849l-4.985-6-.47-10.644-10.452-.609-2.306-1.327.572-2.6-4.154-3.251-.063-2.667,2.787-16.784-1.352-2.108L196.61,108.5l-.585-4.178-1.689-9.748,1.721-1.784-1.994-10.446L179.787,82l-2.393-4.369-4.89,6.364,3.905,12.636-1.677,7.976-6.013,20.55L164.6,137.988l-3.461,11.506-2.839,12.39-4.814,5.1-1.263,20.13-1.734,12.675.908,6.483-1.962,7.9,2.248,13.183-1.714,1.772-5.792,1.625,3.595,9.958-7.03,7.315-3.448,7.144-4.331,2.9-9.5-3.62-1.937.68-14.65-.521,1.689,9.119,2.952,10.218L98.809,287.789,98,293.047,100,298.108l.026,7.481-6.237,4.565-12.7,1.067-2.419,7.157-5.36,3.372L72.2,326.106l-2.248,4.553-4.565-1.365.171,7.626,7.315,10.6,4.452,5.157.547,4.566,13.088,12.1L91,374.476l2.146,1.46-1.429,4.477L96,382.376l.324,2.343-4.166-1.6-1.079,5.245,3.124,4.369,7.544,2.381.076,4.687,2.393,1.428,2.889,1.747,6.986,15.551L117.2,429.38l9.068,8.877-2.343,14.733,4.2,11.646,9.537,2.032,1.651-1.105,1.455-2.2,10.293-1.46,7.506,2.343,8.1,9.748,12.567,3.994.35-.026,10.268,3.309L192.7,485.9l10.63,2.331,6.115,5.4.21,8.16,1.86.94,8.877-4.724,6.795-14.435-9.253,2.267-2.095-4.75,1.3-10.643-.234-1.771,4.686-2.5,4.02-6.82,2.515-15.761-5.322-8.891-11.595-15.564-11.6,2.032-1.772-1.81-2.071,1.391-3.931-6.4,1.848-9.919-3.905-6.065-3.683,6.858-6.744-3.372L169,401.61l1.1-1.626.547-.5,6.039-20.924-5.073-13.6L169.9,355.38l6.947,3.061,7.729-1.473,4.934,8.5,9.639-3.321,1.912-10.293,6.477-4.23,2.445-7.169L206.144,328l7.316-1.016,3.359-4.217-1.13-10.725,3.956-1.562,1.6-4.033,9.672,20.588,4.489,2.171,9.71-24.956,4.775.845.521-16.009,2.42-.991,2.825-7.29-1.016-5.125,2.839.2,9.652,5.4,3.15,1.016,7.195-7.341,1.016-10.293,7.277-13.926,1.29-7.805,4.241-10.979-18.74-8.865-7.417,2.33.248-12.008-10.929-4.229.114-4.96,4.293-6.249-.883-10.071-12.129.978,2.54-13.793-8,1.715-7.481-3.163-1.327,5.011Z" transform="translate(-64.872 -76.716)" fill="#ffeb00" stroke="#000"/><path d="M445.591,293.607l-9.163-9.538-1.715-16.27,10.478.038,10.16-23.813,2.654-4.293.013-.134.978-2.184-2.839-3.8,12.3-12.192,2.267-7.614L464.6,209.8l16.161-13.119,14.5-13.431,2.393-1.225,4.1-12.777,6.5-8.548,2.99-6.324-2.514-4.1,4.908-8.2-1.848-4.6,4.629-2.717,6.757-15.082,12.7-5.233,8.471-13.976,2.668,4.6,9.081,4.763,12.834,2.9,1.353,5,6.261,4.775,1.193,2.394-3.384,3.918.845,7.811-17.736.336,4.775,9.672,4.617,17.946,6.921,8.236L575.7,171.1l4.662,1.721,3.8,11.71,7.779,6.375,1.353-2.095,12.281-.743,6.782-3.125,12.066-.076,1.886,5.182,13.716,17.127-.666,13.379,6.165,8.148-4.775,11.856,12.066,4.058,15.368-18.143,1.34-5.22,7.964-10.853,12.96-2.394,11.247-6.274,2.54,23.947,4.687,6.56-3.525,10.1,9.786,16.022,8.471,6.179,1.575,5.1,13.99,7.925,15.812.921,2.2,1.587.5,5.4-2.254,4.9,6.909,2.184-.064,7.094,9.92,3.943,18.1-5.594,5.41,5.931,12.078,6.2-.965,5.22-6.547,8.668-3.4,24.322L804.958,359l.61,2.68.012,2.743-2.381,4.934,2.445,13.418-1.652,8.065,6.884,11.545L808.3,412.972l11.7,6.09,15.876.483,2.731,4.331-5.334,8.845,1.8,4.985,15.513-.457,12.675,3.658-1.194,7.8.718,2.553,7.506,10.814-.718,5.233-15.863,1.6-7.042,3.9L831.419,468.7l-2.267,1.455-4.427,9.811-6.585,4.6-4.7,9.367-.857,13.183-5.246,12.141-5.455-.362-10.11-8.458-13.088-1.772-4.528-2.8-5.283.508-4.452-2.508-.781-23.579-7.8-6.179-6.82,2.236-3.029,4.591-9.526,5.334-21.483,3.671-3.308,4.229-7.716,2.083-6,5.385-1.455,5.036,3.277,7.233-2.889,4.566-7.741,7.493-5.258,1.092-10.763,7.874.648,10.542-4.909,6.248.458,5.385-5.989,15.006-6.985,3.7L651,575.176l-12.478,3.854-2.305,7.544,2.083,7.494-11.361-.3-5.061-1.327-5.41-5.531-2.356,1.156-5.169.679-3.5-3.969-4.464,2.693-3.239,9.824-23.242-.311-17.87,10.173-6.648-4.579L542.5,591.6l-2.108-10.528-28.951-8.51-1.721-12.231-7.8-6.1-2.509.159L496.367,541.8l-3.734-3.7-4.179-.311-4.934-5.57-1.289-.469,3.016-15.216L479.3,505.374l-1.181-5.074,2.159-4.592,9.887-17.837.508-5.074-3.308-.718-12.092-3.607-15.291-9.106,5.931-15.914,6.223-16.968-1.677-5.048,1.29-2.305,3.3-9.671,6.559-7.589,5.258-14.326-.845-4.318-5.5-4.033-7.728-9.423-7.506-4.2,6.153-11.881,5.7-8.6,2.032-7.95L458.5,320.3l1.2-5.22-3.03-4.426-1.473.025-11.062-10.891,3.486-3.93Z" transform="translate(-64.872 -76.716)" fill="#06c" stroke="#000"/><path d="M384.1,354.442l-9.862,5.385-6.287,4.827,1.353,2.279-7.455,7.354-12.313,5.4.927,1.733-18.479,8.833-5.195,10.218-11.97,8.732-6.223-7.824-2.915-3.511-16.631,7.271-2.433-.458-3.994-15.107-5.671-3.721-5.867-7.531-3.3,3.67-.013-7.976-3.124-7.207-10.37,4.356-.114-9.723-1.225-1.981-11.285,2.553-5.423,1.861.127,5.048-2.222,1.213-3.436,9.512-2.514,5.932,2.876,4.438-2.33,14.968-6.547,8.369-7.779,1.639-3.2,4.216,11.6,15.565.247-.128,29.777-11.386,4.553,2.769,5.8,8.9,10.173,3.276,1.264,10.135-1.937,3.62,22.371,12.555,2.788-2.255,4.343-2.514,7.468.6,7.417-.585,2.292,1.29.127,7.9,4.357-1.251,10.122-3.537,4.763,2.509,8.586,16.72L363.2,498.135l8,20.054-5.582,5.868-5.372.648,3.594,3.308,9.773,2.28-1.8,9.7-1.962,5.023-1.81,11.595-14.4,4.344-2.654,6.674-6.274,3.709.635,2.6-6.249,8.332,4.649,20.079-7.417,10.789,1.676,10.618,5.963,5.455-.1,7.836,10.446,8.211,1.562,10.694L346.1,681.861l9.392,2.642,4.242-2.305,6.464-8.224,14.459,6.3,7.7,10.751,12.307-4.636,5.061.743,5.595,5.741-2.172,10.192,8.807,9.119L426.832,717l12.79-2.515,8.56-5.88.731-2.528L465.57,722.1l5.137,15.056-5.246,9.265,17.279,6.236,5-1.714,7.665,2.305,7.836-1.366,9.85,8.122,18.333-3.086.895-10.516-3.784-15.489,15.488-14.186,8.312,6.483,5.061,1.194,12.478-4.3,3.03-7.056,6.807-7.093,7.246,2.991,12.738-1.353,8.878,8.891,2.781-4.579,8.039-.311,11.31-6.96,4.166-9.811,17.59-5.455,14.822,5.582,4.578-2.552,12.04-14.174,14.745,4.877,25.528,14.174,2.782,4.6,2.692-.133,22.2-8.782-4.985-12.377,3.683-7.182,26.157-3.841,1.993-1.81-1.2-2.407,4.566-2.731,1.391-7.639,5.893-5.334.768-7.506,12.846-3.3,6.064-5.086,13.025.431,8.668-5.931,5.22-.584,8.224,10.719,5.125-.609,4.127-9.615,15.019-15.291,7.95-1.156,4.864-6.465-2.254-13.3,2.33-7.6-7.156-11.488-2.293-10.58-3.264-4.318-.546-7.938,11.868-3.162,1.6-13.209,13.075-9.03.3-10.668,3.289-7.43,5.988-5.359,3.569-10.256-.921-2.565-9.71-4.864-7.677-7.64-19.857-8.573-15.863,1.6-7.043,3.9-15.253-4.115-2.254,1.454-4.426,9.8-6.586,4.617-4.711,9.366-.857,13.183-5.233,12.142-5.455-.362-10.11-8.459L778.7,508.619l-4.515-2.8-5.284.508-4.452-2.508-.781-23.579-7.8-6.178-6.82,2.235L746,480.887l-9.513,5.334L715,489.892l-3.308,4.229-7.729,2.083-5.988,5.385-1.46,5.036,3.289,7.233-2.889,4.566-7.741,7.493-5.258,1.092-10.777,7.875.661,10.541-4.909,6.249.458,5.385-6,15-6.973,3.7-5.347-.635-12.478,3.855-2.305,7.544,2.07,7.493-11.348-.3-5.073-1.327-5.411-5.531-2.343,1.156-5.169.68-3.512-3.969-4.452,2.692-3.251,9.824-23.242-.311-17.857,10.173-6.648-4.579-7.494-10.979-2.095-10.529L511.457,572.5l-1.721-12.218-7.792-6.1-2.509.159-3.048-12.586-3.721-3.7-4.192-.312-4.934-5.569-1.276-.47,3.016-15.215-5.944-11.164-1.181-5.074,2.146-4.591,9.9-17.838.508-5.074-3.309-.717-12.1-3.607-15.278-9.107,5.931-15.913,6.217-16.981-1.664-5.036,1.289-2.305,3.3-9.671,6.56-7.589,5.258-14.326-.845-4.318-5.5-4.032-7.729-9.424-7.506-4.2-4.814,1.353-4.331-3.112L440.865,359.8l-13.063.7-5.976-3.632,5.766-7.976-9.163-7.652-3.995,10.5-6.921,2.146-9.132-3.226-7.563.064Z" transform="translate(-64.872 -76.716)" fill="#ffeb00" stroke="#000"/><path d="M199.151,362.208,189.5,365.53l-4.934-8.5-7.728,1.473-6.948-3.061,1.715,9.589,5.087,13.6-6.052,20.924-.533.5-1.1,1.626,10.345.248,6.744,3.359,3.683-6.846,3.905,6.065-1.848,9.919,3.931,6.388,2.083-1.378,1.759,1.81,11.6-2.032,3.2-4.217,7.779-1.638,6.535-8.37,2.343-14.967-2.876-4.439,2.514-5.918,3.436-9.513,2.21-1.225-.114-5.049,5.411-1.861,11.3-2.552,1.226,1.981.1,9.722,10.371-4.356,3.137,7.208V382l3.308-3.67,5.855,7.519,5.684,3.721,3.994,15.107,2.433.458,16.631-7.259,2.915,3.5,6.223,7.823,11.97-8.732,5.195-10.217,18.479-8.833-.94-1.734,12.327-5.4,7.442-7.34-1.353-2.293,6.3-4.826,9.862-5.385,6.637-3.671,7.563-.076,9.132,3.238,6.921-2.159,3.995-10.49,9.163,7.652-5.766,7.963,5.976,3.645,13.063-.705,15.316,3.956,4.331,3.112,4.814-1.366,6.153-11.868,5.7-8.6,2.031-7.963-20.676-16.841,1.194-5.207-3.016-4.439-1.486.026L444.09,299.76l3.486-3.931-1.994-2.222-9.151-9.538-1.714-16.27-14.936,6.287-10.618-1.416-1.365,2.355-7.741-1.181-7.563,1.861,1.028-15.488-1.86-.953-7.519-3.855-.895,4.985-6.687,2.991-2.2,4.566-3.372-6.236,1.066-14.9,1.962-9.449-6.833-.717-2.966-3.67.533-7.068L358,224.078l.209-4.789-15.456-4.343-1.625,4.75-4.5,2.851-12.491-9.24-.3,20.118-.445,2.514-2.47.445-.571-7.131-10.319,1.46L298.2,224.325l-2.616.781-4.319,6.909L287.035,243l-1.289,7.8-7.278,13.939-1.016,10.281-7.195,7.341-3.15-1.016-9.658-5.4-2.839-.2,1.028,5.124-2.838,7.291-2.407.99-.533,16.009-4.776-.844-9.7,24.969L230.9,327.1l-9.671-20.574-1.6,4.019-3.957,1.562,1.131,10.726-3.36,4.217-7.315,1.016,3.841,12.452-2.457,7.17-6.464,4.229Z" transform="translate(-64.872 -76.716)" fill="#f90" stroke="#000"/><text transform="translate(505.129 344.524)" font-size="134.776" font-family="DejaVuSansCondensed-Bold, DejaVu Sans" font-weight="700">2</text><text transform="translate(331.22 573.996)" font-size="134.776" font-family="DejaVuSansCondensed-Bold, DejaVu Sans" font-weight="700">3</text><text transform="translate(232.01 259.494)" font-size="134.776" font-family="DejaVuSansCondensed-Bold, DejaVu Sans" font-weight="700">4</text><text transform="translate(91.62 222.523)" font-size="134.776" font-family="DejaVuSansCondensed-Bold, DejaVu Sans" font-weight="700">1</text><rect x="34.117" y="236.03" width="54.311" height="54.311" fill="#06c" stroke="#000"/><rect x="213.749" y="249.941" width="54.311" height="54.311" fill="#ff8080" stroke="#000"/><rect x="476.478" y="368.099" width="101.793" height="101.793" fill="#f0f0f0" stroke="#000"/><rect x="645.119" y="452.451" width="93.027" height="93.027" fill="#06c" stroke="#000"/></svg>