<svg xmlns="http://www.w3.org/2000/svg" width="969.409" height="950.689" viewBox="0 0 969.409 950.689"><title>Députés sortants des Pays de la Loire en 2017</title><path d="M275.056,551.807l-2.552,1.019-1.225-.614-2.248,3.777-2.45-.918-5.1,5-3.983,1.532-2.653-.614-1.225.614,0.2,2.757-0.31,1.532,3.675,4.185,4.7,3.064,10.517,3.267,0.817-4.185,11.536,4.492,4.594,3.267,1.124,2.349-1.735,1.225,2.45,1.735-1.225,3.47,0.51,1.735-0.307,1.941,3.675,1.225-1.535,3.577,7.148-.31,7.25-2.653,5-5.309,7.965-3.675,0.614-.715-4.8-9.9,0.2-4.084-2.45,1.225-2.859,2.45-6.025,7.861-3.47-.51,0.719-3.675,1.532-2.248,0.307-2.653-3.777-1.124-1.836-3.881L291.09,566.3,288.437,566l-6.126-9.6Z" transform="translate(-18.487 -25.919)" fill="#f4f4f4" stroke="#000"/><path d="M204.316,563.791l4.411-6.619,1.509-5.1,1.428,0.294,6.524-3.006,8.553-7.707,4.051,0.879,1.189-.1-1.166-2L233.4,541l1.258-2.375,3.244-3.809,14.29,1.261,3.868-1.836,4.061,0.8,3.127-2.963,0,0.072,0.807,7.227,3.1,4.891,4.237,3.95,0.725,2.81-0.882,1.157-2.2,3.783-2.483-.885-5.071,4.959-3.953,1.584-2.712-.666-1.242.693,0.245,2.748-0.333,1.47,3.715,4.188,4.7,3.038,10.468,3.306,0.814-4.182,11.618,4.541,4.558,3.208,1.085,2.32-1.7,1.281,2.4,1.758-1.143,3.43,0.435,1.712-0.248,1.973,3.689,1.179-1.526,3.646-4.636,2.885-3.385,2.264-9.36-2.715-1.068.144-5.074-.823-1.356,1.748-7.126-4.27,0.9-.7-0.983-2.058-3.963-.836-10.749.964-5.436-1.686-5.636-.108-3.911-3.911-4.094-.385-4.58-3.421-3.012-6.449-0.588-2.365-1.441.078-3.421-2.669Z" transform="translate(-18.487 -25.919)" fill="#ff8080" stroke="#000"/><path d="M259.423,623.742l-1.63-.412-6.155,2.895-3.943-3.7,7.25-7.9-7.063-.555-4.156-3.77-5.227-1.957,2.708-5.479,3.953-.477,7.011,0.418,7.753,3.2,4.545,1.222,3.009-6.449,1.356-1.748,5.074,0.823,1.068-.144,9.36,2.715,3.385-2.264,4.636-2.885,7.063-.291,7.312-2.7,5.018-5.276,7.893-3.679-1.212,3.934,2.473,6.616,0.614,5.606-10.759-.961-1.46,3.479-1.3,2.457,0.51,4.025-3.633,4.473-3.816,2.061-0.523,1.242,2.555,4.708-0.042,2.679,3.146,4.221-0.565,3.643-6.355,4.466-3.737-4.319-7.531-3.741-3.947.624-2.653.523-6.531,4.946-0.983-2.329,2.79-4.551-5.335-.748-1.875-1.83-0.99.885-1.117-.719-1.581-3.577Z" transform="translate(-18.487 -25.919)" fill="#ff8080" stroke="#000"/><path d="M304.407,582.136l-3.538-.493,0.7-3.646,1.6-2.257,0.265-2.692-3.8-1.134-1.813-3.868-6.769-1.761-2.643-.294-6.087-9.592-7.21-4.639-2.588,1.055-1.284-.634,0.885-1.157-0.725-2.81-4.237-3.95-3.1-4.891-0.807-7.227,0-.072,6.083-5.557-1.392-.34-2.741-9.488-3.692-2.179-1.215-2.6-5.42-1.689-1.186-2.623,6.381-2.882,0.627-1.281,0.4-16.865,0.418-1.369,1.411-.2,1.219,0.732,1.081,4.041,4.855,2.891,4.117,0.644,6.8-3.741,2.8,0.137,7.42,3.529,1.127-2.656,4.832-2.947,15.051-15.6,7.1,0.046,2.444,1.271,0.889,4.152-2.764,3.133-0.64,2.666,0.846,1.147,4.237,0.042,5.492-4.081,12.229,2.009-0.683,4.107,0.876,2.653,3.5,2.274,5.482,0.464,0.892,1.072,2.561-.954L355.3,490.8l-1.16-2.4,1.108-.814,2.653-.575,3.9,1.222,0.343,4.195,2.571,1.153,2.032,3.708,5.09,1.1,0.461,2.532-2.274,6.057,6.609,2.558,12.206,7.919,1.777,2.13-0.176,6.717-17.159-.327L362.1,532.411l5.2,6.06,0.758,2.594-4.5,5.574-4.038,1.4-4.7,5.453-1.47.738-10.141,7.122-1.758,1.343-4.871,6.658-6.622,4.848-4.783,4.865-4.956,5.557-4.77-9.955,0.242-4.071-2.519,1.242-2.826,2.454Z" transform="translate(-18.487 -25.919)" fill="#ff8080" stroke="#000"/><path d="M396.049,534.929l-6.26-.219-1.085.846-6.694,2.722-7.178.294-6.747,2.493-0.758-2.594-5.2-6.06,11.177-6.426,17.159,0.327,0.18-6.717-1.777-2.13-12.209-7.916-6.609-2.561,2.274-6.057-0.457-2.529-5.093-1.108-2.032-3.708-2.571-1.153-0.343-4.195-3.9-1.222-2.653.575-1.1.814,1.157,2.4-0.614,1.222-2.561.954-0.9-1.072-5.482-.461-3.5-2.277-0.876-2.653,0.683-4.107L329.855,480.4l-5.489,4.081-4.237-.042-0.849-1.147,0.64-2.666,2.764-3.133-0.889-4.152-2.444-1.271-7.1-.046-15.055,15.6-4.832,2.947-1.127,2.656-7.42-3.529-2.8-.137-6.8,3.741-4.117-.644-4.852-2.891-1.081-4.041L262.948,485l-1.415.2-0.418,1.369-0.4,16.865-0.624,1.281-6.384,2.882,1.189,2.623,5.417,1.689,1.215,2.6,3.692,2.179,2.744,9.488,1.392,0.34-6.087,5.557-3.127,2.963-4.061-.8-3.868,1.836-14.29-1.264-3.244,3.809-1.258,2.375-2.584-.569-10.082-10.164-1.232-8.236-10.755,3.156-0.49-2.3-6.956.48-2.588-1.245,1.431-6.733-1.98-6.658,1.232-5.381-2.676-4.891,3.656-1.934,0.9-8.24,2.728,0.814,2.653-.885,3.842-1.82,6.606-7.41-6.185-7.645-2.957-3.061-9.694,2.454-6.848-.974-1.1-5.381-3.885-1.558-1.248-6.982-8.37-.771L174.25,450l-6.064-3.852-2.362-1.565-13.679-3.568-3.479,2.228-2.313-2.019,1.284-.542-0.578-6.769,4.456-3.277,0.33-1.349,0.14-5.727-3.4-4.5,4.156-7.442,8.357-.415,1.268-5.508,1.2-.787,2.156-1.147,6.4,0.833,10.8-11.425,0.095,0.049,1.117,2.568-0.069,5.6,0.83,1.127,2.77,0.131L193.5,396.2l13.986-3.8,0.65,0.366,4.309-2.712,1.186-2.326,2.584-.291,4.362,0.529,2.6-1.17,2.32,1.65,9.38,2.359,4.074,0.5,5.926-3.336,4.9,2.026,0.8,1.029,5.119-.448,0.2-2.859,1.245-.715,5.485-1.473,7.018,1.029,4.623-4.93,1.735-.052,0.366-8.073,2.686-7.462,2.084-1.549,3.826,0.255,2.15-1.477,1.1-3.927,2.454-1.186,2.754,0.281,5.263-2.271,7.224-.435,5.064-5.142L313.256,349l2.5,1.045,4.032-.921,3.345-2.12-0.307-3.79-3.424-6.923,0.618-1.242,4.032-.023,2.372,1.287,9.461,0.059,2.12,1.7,1.581,0.039,1.039,0.99,3.855-1.369,7.622,11.422,6.691,2.267,0.787,0.238,25.346,7.407-0.4,5.655,3,3-1.444,5.335-3.881.121,0.346,4.081,5.646,3.855,5.2,1.869,5.486-1.2,0.065,4,4.234,6.289,1.464,0.915L403.82,395.7l0.673,2.744L402.86,403.7l2.329,3.395,2.787-.046,1.8,6.191-0.255,3.907,5.476,5.7-0.065,1.326,3.95-.118,5.7-.533,7.776,5.933,13.849,2.921,4.453,3.28,0.294,1.359-3.336,4.371-3.561,2.124-2.326,1.091-0.216,2.5-3.744-.83-5.423-.941-6.871.751-20.279-2.921-1.5,10.2,6.662,2.2,0.258,1.4-4.152,3.711,0.48,2.8,3.447,5.809,3.79,1.9,9.507,1.562,8.2-.987,1.157,0.748,7.828-1.653,5.188,2.218,3.96,4.218,12.784-.8,1.8,4.342-2.342,2.908-0.121,2.506,3.849,6.09,1.568,12.516,1.434,1.7,5.479,8.135-3.45,4.522-2.761.3-3.339,2.8-2.833,1.522-2.274,2.245-3.973-.647-6.132,2.819-5.414.3-8.847-2.13-4.038-.245-6.475,1.7-2.8.288-0.618-.663-8.508-.183-6.975,1.346-3.617,4.267Z" transform="translate(-18.487 -25.919)" fill="#ff8080" stroke="#000"/><path d="M48.479,568.195l-9.53-2.908-3.365-2.3-11.86-4.5,1.006-2.529,2.718-.879,2.806-.454,2.555,1.222,0.6-1.49-0.441-.885,3.323-5.636-0.01-2.918L34.555,537.8,29.05,529.3l-6.508-2.4-1.872-2.111,0.578-2.29,6.27-1.653,9.618-8.249,7.635-5.361,2.084,1.7,8.115-.1,0.268-1.385-6.015-3.613,2.1-4.969-3.149-4.43,2.414-6.332,2.591-.98,4.839-4.594,0.817,4.2,2.686,3.313,4.185,0.928,4.93-2.538,2.882-.18,3.136,2.963,11.049-2.686,0.751-8.442,3.6-6.194,0.66-7.132,0.291-.154,4.91,2.016,5.521-.369,1,0.974-1.555,3.672,4.78,2.852,7.625-5.528,5.1-1.673,2.855-.408,0.709,1.261-1.134,5.417,0.931,1.1,5.613,0.98,3.045-2.875,0.493-9.955,2.627-1.206,12.526-3.486,0.467-2.79-1.866-3.656,1.986-9.68,3.479-2.225,13.679,3.564,2.359,1.568L174.227,450l2.591,5.054,8.37,0.771,1.251,6.982,3.885,1.555,1.1,5.384,6.851,0.97,9.694-2.454,2.953,3.064,6.188,7.645-6.609,7.407-3.839,1.823-2.653.882-2.728-.814-1.235-2.45-2.741-.542-8.178-7.077-2.359,1.353-1.888,5.09-4.179.059,1.258,6.067,0.183,4.3-5.5,4.571-5.378,2.032-12.846-.438-1.039,1,4.136,3.208,6.074,2.333-2.777,6.358,1.973,1.777-0.062,1.392-2.79,4.7,2.215,1.535-2.222,4.917-4.594,2.806,0.274,1.326-8.3-.621-0.915-8.37-4.2-3.7-2.823,4.6-4.2-3.27-1.833,4.884-2.231-1.088-5.149-5.878-2.081,5.247,0.765,4.051L120.66,530.5l-2.927,4.767,0.555,2.656,1.294,2.653-0.961,4.907-2.757.124-1.941-2-4.6,4.9,0.01,1.4-2.689-2.751-2.539-.209-1.48,2.215-4.166.046-5.427,4.616-3.8,8.472,5.871,1.683-0.085,6.9-1.79,2.14-0.366,5.518-1.486,2.32-9.439-6.6-2.594-4.992-3.133-2.976L67,562.722l-5.584.849-3.591,2.192-0.356,1.346,1.908,3.7-0.856,1.108-7.919-1.836Z" transform="translate(-18.487 -25.919)" fill="#06c" stroke="#000"/><path d="M125.07,555.77l2.264,3.479,1.421-.095,7.469-4.071,11.02-2.6,8.537,0.405,7.753-3.47,2.2-.614,0.3,5.933,2.813-2.633,1.277-3.414,2.525,0.461-0.016,7.028,1.977-1.333,3.368,1.134,7.554,2.868,12.392,2.365,6.387,2.584,4.411-6.616,1.509-5.1,1.428,0.294,6.524-3.006,8.553-7.7,4.051,0.876,1.189-.1-1.166-2-10.086-10.164-1.232-8.236L208.73,525.19l-0.487-2.3-6.956.48-2.588-1.245,1.428-6.733-1.977-6.658,1.232-5.381-2.676-4.891,3.656-1.934,0.9-8.24-1.235-2.45-2.741-.542-8.178-7.077-2.359,1.353-1.888,5.09-4.179.056,1.258,6.07,0.183,4.3-5.5,4.571-5.378,2.032-12.846-.435-1.039,1,4.136,3.211,6.074,2.333-2.777,6.358,1.973,1.777-0.062,1.392-2.79,4.7,2.215,1.539-2.222,4.917-4.594,2.8,0.274,1.326-8.3-.618-0.915-8.37-4.2-3.7-2.823,4.6-4.2-3.27-1.833,4.884-2.231-1.091-5.149-5.878-2.081,5.25,0.765,4.051-7.981,2.049-2.927,4.767,0.555,2.653,1.294,2.653-0.964,4.907-2.754.124-1.941-2-4.6,4.9,0.01,1.4-2.689-2.751-2.539-.209-1.48,2.218-4.166.042-5.43,4.616-3.8,8.472,5.871,1.686L95,570.891l-1.79,2.14-0.366,5.521-1.486,2.32,2.329,1.042,6.792-1.99,5.92-5.982,5.577-1.157,1.931-3.633,6.511-2.705,1.545-3.921,3.225-.644Z" transform="translate(-18.487 -25.919)" fill="#ff8080" stroke="#000"/><path d="M166.287,647.494l-5.7-8.213-13.284-4.953-0.983-2.336-4.159.771-8.455-.944-7.436-3.868-9.942-1.117-7.919-3.071-0.617-1.186,4.152-3.963L113.854,615l6.6-1.97,5.554,0.892,1.807-2.156,1.421-2.352,2.326-12.127-0.418-5.724-6.194-9.749,3.368-2.382-0.16-9.916,0.64-1.287,10.964-2.718,19.926-3.355,3.1-2.637,0.944-.957,3.934,0.748,4.917,2.179,0.046-5.322,1.977-1.333,3.372,1.134,7.554,2.868,12.392,2.365,6.387,2.584,9.125,9.181,3.421,2.669,1.441-.075,0.588,2.362,3.012,6.449,4.58,3.421,4.094,0.385,3.911,3.911,5.636,0.108,5.436,1.686,10.749-.964,3.963,0.836,0.983,2.058-0.9.7,7.126,4.267-3.009,6.449-4.541-1.222-7.753-3.2-7.014-.418-3.953.477-2.708,5.479,5.231,1.957,4.152,3.774,7.063,0.552-7.25,7.9,3.943,3.7,6.155-2.891,1.63,0.408,6.374-.585,1.581,3.577,1.117,0.719,0.99-.885,1.875,1.83,5.335,0.748-2.79,4.545,0.983,2.336,6.531-4.946,2.653-.523,3.947-.624,7.531,3.741,3.737,4.319-0.444,1.32,3.414,5.786,0.526,4.1-4.6-.5-2.493,2.927,0.284,1.258,9.674,1.339,3.832,4.058,4.93,2.833-5.6,6.119-3.986.9-5.59,3.447,3,4.561-2.006,5.028-0.938,5.2,3.143,6.916-0.337,1.366,2.9,4.7,3.349,2.323,0.461,2.725-1.836,3.7L301.61,708l4.473,7.024,7.315,6.132,0.748,3.95-7.282,3.911-2.748-.618-2.61.938-0.614,5.244-8.174-2.035-6.364-3.2-2.424.709-8.576-2.947h-4.218l-2.365,1.539-7.416-6.253-8.184,2.2-2.548-1.225-1.8-3.395-0.069-6.286-2.542-3,0.634-1.192-2.029-3.47-8.178,2.1-2.212-1.709-2.725.51-9.569-1.594,1.457-2.3,0.4-4.084-1.591-2.235-11.278.039-6.446-2.98-5.054-4.767L198.1,683.6l0.526-2.705-5.048-1.277-1.121.722-3.025-3-4.218-9.285-2-2-2.274-.134-6.426-12.768-4.567-3.44Z" transform="translate(-18.487 -25.919)" fill="#ff8080" stroke="#000"/><path d="M302.254,645.1l-3.414-5.786,0.444-1.32,6.355-4.466,0.565-3.649-3.146-4.218,0.042-2.679-2.555-4.708,0.523-1.242,3.816-2.061,3.633-4.473-0.51-4.025,1.3-2.46,1.46-3.476,10.759,0.961-0.614-5.606-2.476-6.616,1.212-3.934,0.595-.709,4.956-5.557,4.78-4.861,6.626-4.852,4.871-6.658,1.758-1.343,10.141-7.122,1.473-.738,4.136,1.3,7.086-.814,5.172-.653,0.114,1.313,4.038,3.46,0.97,1.986,0.088,7.554,6.2,7.985,6.332,4.293,3.731-1.715,3.587-3.787,2.519,0.35,4.1,4.616-2.045,8.543,3.881,2.287-1.745,2.862,1.7,3.656-0.585,2.375,4.152,2.79-2.156,6.26-5.227,5.015-5.757,5.593-2.712.085-5.378,3.849,2.009,1.47L388.9,626.9l1.366,2.418-1.581,3.594-4.813,5,2.431,1.245,3.551-2.117,14.731,2.525,1.258,0.248,2.4,5.463,3.711,4.058,9.168,2.819-1.46,3.715,0.807,5.423-8.517,4.371L398.565,661.5l-3.492-4.015-2.084-1.575-3.63-4.185-5.162-1.96-5.378-6.4-1.33.448-1.4,2.228-2.519.529-1,2.444,0.853,4.933-3.329,5.41-0.392,1.245,1.192,0.5-0.65,2.457-5.345.173-5.136-3.983-2.571-.676-0.48,2.552-4.228-.154-3.682,4.149,2.509,5.009,0.425,4.159,0.363,1.372-3.159,6.06,4.554,3.159-0.363,4.084-1.865,1.977,0.258,3.881-2,1.875-1.228-.683-3.512,2.336-6.943,1.493-11.9,7.537-3.741-2.993,3.675-9.373-3.241-4.545-1.415-5.515,0.807-2.679,2.659-1.019-0.033-2.65-1.692-2.15L321.3,668.9l0.513-3.881-2.084-1.754-1.663-1.977-2.555-.49-1.117.333-4.93-2.833-3.832-4.058-9.674-1.339-0.284-1.258,2.5-2.927,4.6,0.51Z" transform="translate(-18.487 -25.919)" fill="#ff8080" stroke="#000"/><path d="M272.394,576.41l-10.474-3.3-4.7-3.04-3.715-4.191,0.329-1.473-0.246-2.745,1.241-.69,2.712,0.663,3.956-1.584,5.073-4.962,2.485,0.882,2.2-3.785,1.283,0.636,2.587-1.058,7.215,4.642,6.091,9.594,2.644,0.292,6.772,1.762,1.813,3.868,3.808,1.131-0.266,2.693L301.6,578l-0.7,3.647-0.131,1.643-1.686,1.823,0.634,1.865-1.732,1.791-6.808-3.437-2.4-1.759,1.7-1.283-1.088-2.319-4.555-3.212-11.624-4.543Z" transform="translate(-18.487 -25.919)" fill="#7f7" stroke="#000"/><path d="M292.384,597.293l1.527-3.65-3.69-1.179,0.249-1.98-0.431-1.715,1.139-3.431,6.808,3.437,1.732-1.791-0.634-1.865,1.686-1.823,0.131-1.643,3.539,0.5,5.961-7.856,2.83-2.455,2.52-1.244-0.243,4.075,4.774,9.961-0.594.708-7.9,3.68-5.02,5.28-7.321,2.705Z" transform="translate(-18.487 -25.919)" fill="#ff8080" stroke="#000"/><text transform="translate(170.08 631.831)" font-size="72" font-family="DejaVu Sans" font-weight="700">9</text><text transform="translate(306.873 597.818)" font-size="50.703" font-family="DejaVu Sans" font-weight="700">10</text><text transform="translate(273.389 525.838)" font-size="72" font-family="DejaVu Sans" font-weight="700">5</text><text transform="translate(273.389 424.025)" font-size="72" font-family="DejaVu Sans" font-weight="700">6</text><text transform="translate(48.195 522.581)" font-size="72" font-family="DejaVu Sans" font-weight="700">7</text><text transform="translate(149.477 517.097)" font-size="51.901" font-family="DejaVu Sans" font-weight="700">8</text><text transform="translate(256.811 600.595)" font-size="29.4" font-family="DejaVu Sans" font-weight="700">4</text><text transform="translate(252.311 544.345)" font-size="18.484" font-family="DejaVu Sans" font-weight="700">1</text><text transform="translate(289.478 560.566)" font-size="12.75" font-family="DejaVu Sans" font-weight="700">2</text><text transform="translate(204.144 559.412)" font-size="53.212" font-family="DejaVu Sans" font-weight="700">3</text><path d="M583.482,462.423l-4.59-3.264-0.356-4.254,1.343-2.408-2.369-3.326-4.371-3.13-2.718,3.231-1.349-.405-3.058,4.731-3.63-3.685-1.692-3.581-3.568-1.418-3.571-2.032,3.1-13.65-0.193-.2-3.479-4.038-3.7-1.5-3.636,1.774-7.616-.768,0.885-6.675-0.229-3.656,1.238-.359,0.5-3.793,1.111-5.352,2.166-2.313-1.431-.065-0.565-1.317,2.153-3.675-0.147-4.195,1.444-2.48,1.777-2.967-1.663-6.9,4.068-3.77,2.094-1.454,9.841,0.5,7.273-9.38,3.2,1.941,3.538-1.542,7.622,2.79,4.048-7.028-1.042-6.73,0.614-1.049,3.541,0.6,7.465,3.336,5.165,4.541,2.14,3.623,6.874-4.123,5.316,0.827,0.627,2.63-0.9,1.068-4.015.84,0.657,3.97-2.215,3.5-3.293,1.712-0.758,4.11,2.411,3.447-3.287,4.4,0.591,1.3,2.4,3.27-0.353,2.65-5.828,2.542-2.761.137-3.038,6.034-2.552,1,4.61,5.371-1.219,5.623,2.927,1.039,7.152-.817,2.447-5.224,0.549-4.326,2.352-1.689,11.334,1.493L623.365,418.6l-3.963.1-2.516,3.015,1.5,5.512,1.833,2.2,10.821,6.606L629,442.849l-1.947,1.575-3.979.111-2.411,4.336-1.268.363,0.722,5.646-5.267,6.547L616.7,466.6l-0.526.689-2.248,4.348-0.581,1.121,1.865,1.408-0.539,4.071,1.026,2.525-1.042.879-2.568-.631-2.209,3.264-2.728-.15-0.588,2.274-2.561-.49-7.335,4.623-8.374-.464-1.2-2.571-2.205-.235-0.114,2.052-2.643-.882,0.51,3.368-2.983,1.206L578.9,491.8l-4.669-3.822-1.967-.647,1.95-2.31,2.065-1.859,1.777-3.744,2.235-3.457,2.924-3.336,2.228-5.195-0.84-4.152Z" transform="translate(-18.487 -25.919)" fill="#ff8080" stroke="#000"/><path d="M503.586,543.224l-1.522-3.76,2.532-2.973,0.134-5.26,1.219-2.218-1.346-3.875-5.557-3.839,0.265-2.391,3.061,2.323,3.76,0.758,18.531,6.109,5,2.124,5.355-.885,7.436-2.708,4.041,0.288,5.871-3.323,4.522-7.442,0.732-1.189L560,510.675l3.048-6.126,0.565-5.508,3.7-5.8,3.045-2.372,1.95-3.558,1.967,0.647,4.669,3.822,0.745,1.212,2.983-1.206-0.506-3.368,2.643,0.882,0.114-2.052,2.205,0.235,1.2,2.571,8.37,0.464,7.338-4.623,2.561,0.49,0.585-2.274,2.728,0.15L612.125,481l2.568,0.631,1.042-.879-1.026-2.525,0.539-4.068-1.865-1.411,0.581-1.121,2.248-4.348,0.526-.689,4.969,1.323,7.635,4.79-5.067,4.365,3.888,3.764,1.45,5.358-0.448,2.767-4.313,3.447,8.2,1.6,0.376,1.392,5.178,2.8,2.382-1.081,11.468,7.854,1.8-1.591,1.761,3.548-5.979,7.063-0.581-.346-1.333,8.034,1.862,2-0.748,3.891-7.073,1.235-2.78-2.215-3.976-5.423-0.382-5.335-2.705.663-3.816,7.6-0.346,4.264,1.637,3.907,0.265,4.152-4.754,2.774-1.447-2.369,3.385-7.495-0.039-2.767-2.264-1.454-5.534-.467-0.529-1.294-1.225-.5-2.029,3.329L612,527.631l-0.735,2.248-2.215,1.095-3.064-1.833-1.2,1.908-0.487-1.271-3.934-.627,0.385,3.751-2.6.356-1.892-3.44,0.559-1.134-2.4-.608-2.819,1.96-1.307,9.377-5.191,1.634-4.9-.653-7.1,5.466-1.728-2.016-7.54-2.506-8.08.17-2.284,6.328-1.895,1.042-1.6-1.591-3.166,6.018-4.669,4.972,0.441,2.362-3.048,4.623-5.832,3.747,3.14,6.181,8.24,0.016-1.45,3.751-0.477,4.11,2.094,1.777-2.441,9.494,6.828,1.251,3.306-2.382,4.074,0.637,0.941,1.029-3.692,4.149-2.637,1.058-0.729,4.081-4.319,5.57,0.039,2.816,6.139,3.421-6.658,6.864-6.469,1.934-6.626-1.13-3.666,1.751-8.191.647-2.633-2.882,0.67-4.022-5.544.033-3.5-1.983L508.1,613.7l-3.787.787-2.483-.814-0.274-1.085,2.813,0.127,0.889-1.036,0.8-7.145-0.65-10.082-4.231-3.159,6.825-4.616-1.2-.608-0.229-4,1.568-2.238-1.826-4.969-1.062.34-13.023-2.8-1.013-4.156,0.49-2.623,2.369-1.147-0.3-5.639-3.822-1.81L494.493,552l2.653,0.732,3.512,4.012,8.292,6.1,6.211-2.257,2.035-3.381,0.307-5.316-0.193-.974-2.179-3.444-8.044-5.168-1.287-.51Z" transform="translate(-18.487 -25.919)" fill="#ff8080" stroke="#000"/><path d="M704.666,407.009l-1.254-.487-1.784,1.944-2.323,4.848-0.069,4.055-3.816-.506-1.846,1.735-3.617-1.5-3.176-4.5-4.081.853-5.417-1.212-0.983-.876,0.01-5.237-5.325-8.324-0.513-4.074,3.956-.451,5.3-4.747,0.248-2.784,2.79-.529-0.526-1.2-2.561.1-2.516-3.006-2.444-.784-9.553,8.508-5.521-1.434-8.6-4.551-5.956.742-6.828-1.49-4.848,2.682-4.081-.693,2.091-6.541-4.3-3.264,0.343-1.353-1.99-3.333,0.751-3.721-1.307-.15-0.631-2.722-7.122-4.492-1.408-.2,1.294,5.492,0.627,2.63-0.9,1.068-4.018.84,0.66,3.97-2.215,3.5-3.293,1.712-0.758,4.11,2.411,3.447-3.287,4.4,0.591,1.3,2.4,3.27-0.353,2.65-5.828,2.542-2.761.137-3.038,6.034-2.552,1,4.61,5.371-1.219,5.623,2.927,1.039,7.152-.817,2.447-5.224,0.549-4.326,2.352-1.689L624.9,407.9l-1.516,10.683-3.963.1-2.516,3.015,1.5,5.512,1.833,2.2,10.821,6.606-2.039,6.812-1.947,1.575-3.983.111-2.408,4.336-1.268.363,0.722,5.646-5.267,6.547,1.846,5.178,4.969,1.323,7.635,4.79-5.067,4.365,3.891,3.76,1.447,5.361-0.448,2.767-4.313,3.447,8.2,1.6,0.376,1.392,5.178,2.8,2.382-1.081,11.468,7.854,1.8-1.591L656,506.921l-5.979,7.063,4.113,3.966,2.741,5.015,2.013,5.018,4.424,4.956,8.677,6.116,1.215,0.68,8.671,6.23,7.2,4.322,4.051,5.9,3.649,2.032,4.865,3.159,1.333,3.636,11.088,9.471,6.247,0.755,8.423,2.111,3.146,1.532,5.24,3.545,5.868,2.476,4.241,3.336,3.809-.274,0.385-5.574-1.313-4.015,2.016-3.519,1.039-8.086,2.049-1.568,0.3-2.8-1.709-1.839,8.664-13.078,1.072-5.544,5.009-1.238,3.277-4.1-1.915-6.737,3.741-.526,7.851-7.73-3.725-1.669-0.134-4.159-4-1.055,7.524-7.331,1.163-3.947-1.183-11.1,2.633-3.251L785,483.636l1.137-.81,0.5-3.326,5.4-7.171,1.31-10.415-4.907.248-0.428-2.578-3.47-2.1,1.934-2.111,3.885-10.543,1.346-1.98,4.339-2.065-1.108-2.633,0.853-2.692-1.013-6.943-3.525-1.8-1.3.405-0.889,2.581-1.349-.189-0.732-3.96-4.466-.4-0.513,7.227-2.153,1.892-4.192.827-3.506,4.571-2.222-1.689-1.738-3.721-3.859-.644-1.3-3.97-1.4-.108-4.126,1.055-6.874-1.973-2.434,1.5-2.774-.722-5.015-5.025-6.737-2.205,0.843-2.026-4.848-7.828-4.384,4.4-1.794-3.849-7.119-.961-6.145-3.626-4.976,2.663Z" transform="translate(-18.487 -25.919)" fill="#06c" stroke="#000"/><path d="M623.838,536.824l1.447,2.369,4.754-2.774-0.265-4.152-1.637-3.907,0.346-4.264,3.816-7.6,2.705-.666,0.382,5.335,3.976,5.423,2.78,2.215,7.073-1.235,0.748-3.891-1.862-2,1.333-8.031L650.017,514l4.113,3.966,2.738,5.015L658.884,528l4.424,4.956,8.674,6.116,1.215,0.68,8.674,6.23,7.2,4.322,4.051,5.9,3.649,2.032,4.861,3.159,1.336,3.636,11.088,9.475,6.247,0.751,8.419,2.111,3.149,1.529,5.24,3.545,5.868,2.476,4.241,3.336,3.809-.274,1.219,0.2-1.1,1.993-3.64,2.973-1.656,3.417,0.17,1.382,3.381,2.32-0.853,5.479-2.715,4.819-2-.843-2.754,2.571L736.2,606l-8.53,7.972-6.116,11.709-0.2,2.826L720,632.3l0.5,1.3,2.62,0.862,0.278,1.366-2.29,6.515-2.48-2.63-6.531-.095-1.121-2.277-3.819-.595-3.473,3.7-0.722,2.764-0.408,8.066-7.429,4.306-2.15-1.487-0.34-2.643-2.052-1.627-2.548-.729-3.205,2.257-2.434-1.192-1.055-.925,3.283-4.561,7.178-6.439-0.1-2.806-4.14.843-8.08-2.79-1.376,3.581-4.463,2.637-9.481-4.875-4.93,1.977-1.307-2.111-2,1.748-2.653.448-0.983-.918-5.129,1.588-3.052,2.61-7.639,1.947-4.058-3.153-1.209.608-6.338,2.029-1.317-.222-0.1-1.339-2.493.882-1.317,7.939-2.183,1.741-4.959-2.342-5.263,1.856-4.2-.268-5.508,5.992-0.934-5.276,5.456-3.868,0.209-2.369-7.9-.4-6.479,2L575.5,652.551l1,1,0.016,5.557,3.5,4.286-0.99,2.584-4.035-.307-1.447,3.937-3.7,2.009-1.986,3.574-2.506-1.13-3.679,1.575-1.836-3.476-7.857-2.45-2.111-1.761,2-4.813,2.329-1.245-8.347-6.178-1.251-2.4,1.836-3.623,4.231-3.561,3.176-5.832-2.457-1.039-1.225-2.463-6.671-1.346-1.794-3.476,1.6-3.342-3.669-3.836,6.466-1.934,6.658-6.864-6.139-3.421-0.036-2.816,4.319-5.57,0.729-4.081,2.637-1.058,3.692-4.149-0.941-1.029-4.074-.637-3.31,2.382-6.828-1.248,2.441-9.5-2.091-1.777,0.477-4.107,1.454-3.754-8.24-.016-3.143-6.178,5.832-3.751,3.052-4.623-0.444-2.362,4.672-4.972,3.166-6.018,1.6,1.591,1.895-1.042,2.28-6.325,8.083-.173,7.54,2.506,1.728,2.019,7.1-5.469,4.9,0.653,5.191-1.634,1.307-9.377,2.816-1.96,2.4,0.608-0.559,1.134,1.892,3.44,2.6-.356-0.385-3.751,3.934,0.627,0.484,1.271,1.2-1.908,3.068,1.833,2.215-1.095,0.732-2.245,3.623-1.477,2.029-3.329,1.225,0.5,0.529,1.294,5.531,0.467,2.267,1.457,0.036,2.764Z" transform="translate(-18.487 -25.919)" fill="aqua" stroke="#000"/><path d="M555.01,678.962l-4.028.925-6.413-2.6-2.591,3.153,0.056,2.271-5.08-2.813-4.46,3.5-5.378-4.551-1.4-.248-3.466,2.222-2.806-.34-3.211-4.339-4.015-.542-2.32,3.362-3.483,2.061,0.961,0.964-1.294.49-1.9-2.042-1.4.046-3.483,2.277-3.777.569-2.068,3.342,0.258,2.584-1.3.461-6.433-2.375-2.744.193-2.594-6.355-3.777-1.634-5.548-4.933-1.627,2.169-5.1,1.673-5.054-6.6-2.486.555-4.44-3.388-3.845,7.184-9.775-.911-3.711-1.954-2.65.49-2.525-1.3-2.016-1.078-5.427-.281-4.832-2.222-3.881-1.326-1.973-1.973,8.517-4.371-0.807-5.423,1.46-3.715-9.168-2.819-3.711-4.058-2.4-5.463-1.258-.255-14.731-2.519-3.551,2.111-2.431-1.238,4.813-5,1.581-3.594-1.366-2.424,0.157-2.728-2.009-1.467,5.378-3.849,2.712-.085,5.757-5.593,5.227-5.015,2.676-.346,7.5,2.3,1.637,2.166,0.588,4.022,2.313-.2,1.647,1.918,5.329-3.852,1.33-.271,1.509,2.235,1.32-.307-0.052,6.874,1.16,0.82,6.309-3.231,1.748-2.235,5.4,0.745,3.541-.238,1.807-2.819,2.552-.31,2.937,2.124,7.792,1.134,0.069,2.653,2.411,4.538-0.761,2.565,1.238,0.49-0.765,3.656,4.117,3.319,4.414-6.234,2.787,0.2,5.655,3.95,2.774,0.095L490,638.533l0.915-2.316,3.871,0.141L496.9,637.8l2.245-1.264-5.025-6.279,0.082-1.385,3.28-2.483,2.872-4.7,0.6-2.705-1.114-2.463,1.96-2.839,2.483,0.817,3.787-.787,2.049,3.479,3.5,1.983,5.544-.029-0.67,4.018,2.633,2.882,8.191-.644,3.666-1.754,6.626,1.13,3.669,3.839-1.6,3.336,1.794,3.483,6.671,1.339,1.225,2.47,2.457,1.032-3.179,5.838-4.231,3.555-1.836,3.63,1.251,2.4,8.347,6.185-2.329,1.238-1.993,4.819,2.107,1.761,7.861,2.444,1.836,3.483,3.679-1.581,2.509,1.13-1.836,1.264-0.457,2.094-6.858,1.849Z" transform="translate(-18.487 -25.919)" fill="#26c4ec" stroke="#000"/><path d="M454.448,615.414l-2.548.31-1.81,2.819-3.541.238-5.4-.745-1.748,2.235-6.312,3.231-1.157-.82,0.052-6.874-1.32.307-1.509-2.235-1.33.271L422.5,618l-1.647-1.918-2.313.2-0.588-4.022-1.637-2.166-7.5-2.3-2.679.346,2.16-6.26-4.152-2.79,0.585-2.372-1.7-3.656,1.741-2.862-3.881-2.287,2.045-8.547-4.1-4.616-2.519-.346-3.587,3.787-3.734,1.715-6.332-4.293-6.2-7.985-0.085-7.554-0.97-1.986-4.038-3.46-0.114-1.313-5.172.653-7.086.814-4.136-1.3,4.7-5.453,4.038-1.4,4.5-5.574,6.747-2.493,7.178-.3,6.694-2.718,1.085-.846,6.26,0.219,6.351-2,3.617-4.267,6.975-1.346L421.5,527.5l0.621,0.663,2.8-.288,6.475-1.7,4.041,0.245,8.847,2.13,5.41-.3,6.136-2.819,3.973,0.647,2.271-2.248,2.833-1.519,3.342-2.8,2.761-.3,3.447-4.518-5.479-8.135,2.058-2.895,3.61-.4-0.163-14.594,2.751,0.359,1.545,3.865,1.095-2.467,2.444-.938,8.739,3.764,9.324,1.186,1.591,2.061,0.1,2.607,1.281-.533,6.4,2.591,6.789-.088,0.911-2.333,2.571-.8,3.594-1.013,0.307-1.362L521.852,492l-2.28-1.572,0.147-4.162,1.8-1.944,2.545,0.078,2.722-4.5,0.987,0.938,3.855-.134,6.648,4.6,5.966-1.431,3.6,1.248-0.853-4.776,3.816-1.7-2.787-4.855,2.509,0.32,2.228-1.307,3.839,0.9,5.018,3.992,3.721,2.189,4-.549,0.938,1.124,1.258,0.274,1.63,1.444,0.408,0.673-0.154.908,0.827,1.222-1.947,2.31-1.95,3.558-3.048,2.372-3.7,5.8-0.565,5.508-3.048,6.126-2.382,4.286-0.732,1.189-4.522,7.442-5.871,3.323-4.041-.288L535,529.329l-5.355.885-5-2.124-18.531-6.109-3.76-.758-3.061-2.323-0.265,2.391,5.557,3.839L505.932,529l-1.219,2.222-0.134,5.26-2.532,2.973,1.522,3.76,2.189-1.418,1.291,0.51,8.044,5.168,2.179,3.444,0.189,0.97-0.3,5.319-2.039,3.381-6.211,2.257-8.292-6.1-3.509-4.012-2.653-.732-4.532,5.025,3.822,1.807,0.3,5.642-2.365,1.147-0.493,2.623,1.013,4.156,13.023,2.8,1.065-.34,1.823,4.969-1.565,2.238,0.225,4,1.2,0.608-6.825,4.616,4.231,3.159,0.65,10.082-0.8,7.145-0.885,1.036-2.813-.127,0.271,1.085-1.957,2.839,1.114,2.463-0.608,2.705-2.872,4.7-3.28,2.48-0.082,1.385,5.025,6.286-2.241,1.258-2.117-1.447-3.871-.134-0.915,2.316-2.888-4.633-2.771-.088-5.659-3.956-2.784-.2-4.417,6.227-4.117-3.319,0.768-3.656-1.242-.49,0.761-2.561-2.411-4.541-0.069-2.65-7.792-1.134Z" transform="translate(-18.487 -25.919)" fill="#ff8080" stroke="#000"/><path d="M441.723,444.607l-0.219,2.5-3.744-.83-5.423-.941-6.874.751-20.276-2.921-1.5,10.2,6.658,2.2,0.258,1.4-4.152,3.711,0.477,2.8,3.45,5.809,3.787,1.9,9.507,1.562,8.2-.987,1.16,0.748,7.825-1.653,5.191,2.218,3.96,4.218,12.784-.8,1.8,4.342-2.342,2.908-0.121,2.506,3.849,6.09,1.568,12.516,1.431,1.7,2.058-2.895,3.61-.4-0.163-14.594,2.751,0.359,1.545,3.865,1.095-2.467,2.444-.938,8.739,3.764,9.324,1.186,1.594,2.061,0.095,2.607,1.281-.533,6.4,2.591,6.786-.088,0.915-2.333,2.571-.8,3.591-1.013,0.31-1.362-2.071-3.577-2.28-1.572,0.147-4.162,1.8-1.944,2.545,0.078,2.722-4.5,0.987,0.938,3.855-.134,6.648,4.6,5.966-1.431,3.6,1.248-0.853-4.776,3.816-1.7-2.787-4.855,2.509,0.32,2.228-1.307,3.839,0.9,5.018,3.992,3.721,2.189,4-.549,0.938,1.124,1.258,0.274,1.63,1.444,0.408,0.676-0.154.9,0.333,0.575L574.243,485l2.068-1.859,1.777-3.744,2.235-3.457,2.921-3.336,2.231-5.195-0.84-4.152-1.147-.84-4.587-3.264-0.359-4.254,1.343-2.408-2.369-3.326-4.371-3.13-2.718,3.231-1.349-.405-3.058,4.731-3.63-3.685-1.692-3.581-3.568-1.418-3.568-2.032,3.1-13.65-0.193-.2-3.479-4.038-3.7-1.5-3.633,1.774-7.619-.768,0.885-6.678-0.229-3.653,1.242-.359,0.5-3.793,1.111-5.352,2.166-2.313-1.431-.065-0.565-1.317,2.153-3.675-0.147-4.195,1.444-2.48,1.777-2.967-1.663-6.9,4.068-3.774-4.46-3.045-5.564.438-5.378-1.686-2.558,1.192-3.646-.415-2.385,1.019-2.643-.9-2.757-4.679-1.323-.448-5.273,1.575-1.64-3.728-6.234-2.535-1.2-2.424-5.371.66-1.206.555,0.124,6.606-5.714-2.4-9.249-2.646,0.042-1.388-0.777-2.79-6.175-3.509-3.855-4.293,0.062,2.643-1.323.108-3.9-3.587-2.552-.333-3.43,5.446,3.764,1.669,1.741,3.77-7.276,3.306-2.274-.389-3.659-.588-1.81-1.545-2.525-.493-1.513-2.274-3.555,1.513-2.715-.526-8.772-.742-0.154-.1-2.78-.742-2.013-2.058-13.016-1.572,0.634,3.463-0.856.807-6.805-1.728-3.561-2.382-4.224-.647-1.751-3.737-2.767-.627-1.591-2.375-6.449-3.091-1.052.761L386.5,348.5l0.807,2.522-2.385,8.044-0.4,5.652,3,3-1.444,5.338-3.881.118,0.346,4.081,5.646,3.859,5.2,1.869,5.486-1.2,0.062,4,4.237,6.286,1.46,0.918-0.827,2.705,0.673,2.744-1.634,5.257,2.329,3.395,2.79-.049,1.8,6.194-0.255,3.907,5.476,5.7-0.062,1.33,3.95-.118,5.7-.536,7.776,5.936,13.849,2.918,4.45,3.283,0.3,1.359-3.336,4.371-3.558,2.124Z" transform="translate(-18.487 -25.919)" fill="#06c" stroke="#000"/><text transform="translate(538.645 415.414)" font-size="72" font-family="DejaVu Sans" font-weight="700">1</text><text transform="translate(440.978 424.025)" font-size="72" font-family="DejaVu Sans" font-weight="700">7</text><text transform="translate(669.478 477.581)" font-size="72" font-family="DejaVu Sans" font-weight="700">3</text><text transform="translate(586.978 586.081)" font-size="72" font-family="DejaVu Sans" font-weight="700">4</text><text transform="translate(483.478 645.039)" font-size="56.44" font-family="DejaVu Sans" font-weight="700">5</text><text transform="translate(543.077 508.853)" font-size="44.421" font-family="DejaVu Sans" font-weight="700">2</text><text transform="translate(410.478 571.323)" font-size="72" font-family="DejaVu Sans" font-weight="700">6</text><path d="M522.884,256.426l-4.7-6.328-9.579,1.6-3.117-1.555L509.1,244.1l-1.758-2.245,0.284-3.953,1.506,0.245,1.6-.709,5.946-.242-0.056-4.744-1.362-2.97-11.232,1.947-4.538-3.12-4.976-6.42-2.362-1.3-2.591-4.986,2.653-.569,0.506-1.268-1.823-5.015,0.66-1.192,3.917,1.081,1.8-3.2-0.457-2.48,3.832-1.519,6.9-.565,7.469,3.434,2.424-.7,0.9-5.355L525,199.046l-2.248-3.744,2.463-5.263,2.48-1.438,1.535,2.294,4.041,1.379,0.536,4.058,3.352,2.467,0.114,1.424-0.47,1.48,4.832,1.7,1.232-.5-0.042-3.95-1.575-2.124,1.715-2.094,12.667,1.558,2.329-.774,1.438,2.111,2.784-.3L565.9,199.3l5.57,0.35-0.3-4.169-2.555-3.068,2.953-4.58,0.34-1.421-2.542-3.5-1.1-4.218-0.742-3.774,2.316-4.607,5.639-.069,4.473-3.532,3.038-3.179-0.382-2.888-1.833-2.294,0.078-4.345,2.856-2.568,3.656,1.238,0.787-1.085,2.777,3.234,5.639,1.075,8.916-4.433,2.071-1.353,0.715-2.245,3.146-.572,2.816-3.133,0.849-5.24,3.5-2.313,2.924-1.836,4.234-3.283,2.084-12.225,8.488,1.49,5.7-4.283,1.63,3.953,1.6-1.627-0.369-3.871,1.212-6.083-0.729-1.019,1.487-1.464-1.108-4.094,2.771-3.1L647.3,96.612l6.266-2.767-1.7-7.413-3.3-4.411-0.18-1.392,5.031-4.669,1.248-.637L658.5,76.66l0.624-5.786,3.5-4.152,2.754-.34,2.427,1.2,5.6-5.348L672.659,58.4l10.448-1.245,1.284-.343,2.813,2.793,0.523,2.578,1.467,4.692-0.931.843,1.5,2.235-0.225,5.374,3.084,2.5,8.217,2.006,7.753-.706,1.339-.212,1.006-2.457,2.6-.18,3.29,2.48-1.254,8.374-0.657.624L716,102.653l-1.023,2.254,0.781,2.548-1.542,1.882-2.568-.144-2.627,3.2-3.754-1.839-5.515.154-1.487,2.5-5.224,2.316,0.987,7.109,2.927,3.091-7.178-2.437-2.111,1.562-0.644,2.463,0.869,8.537,1.807,0.072,1.692,2.287,1.023,5.623-2.581,3.329-0.876,4,0.3,0.477-4.051,7.135,1.006,8.491,4.316,7.044-1.973,3.362,1.578,3.679-4.969,2.248-3.881,3.845-2,2.9-12.64,6.185-4.224,3.512-0.993.931,0.529,1.251,2.617,2.542-4.149,5.1-7.554,4.447-5.724-.68-2.254,5.387-4.237,1.179-1.483-4.914-3.715-3.76-5.453.069-2.79,7.759-4.927,2.653-3.692,2.111-2.761.506-0.621-1.081-4.783,1.343-6.818.621-3.813-1.349-3.721,1.522-2.032.781-1.036,3.61-6.737,6.959,2.686,4.179,0.34,6.776-8.635-1.928-3.76,3.888-1.157-.859,0.248-4.267-0.9-1.114-6.8,1.4-2.414,5.077-3.659-2.222-5.253.549-3.855,3.444-3.787,7.73,0.261,1.431,8.315,2.238-0.069,5.378-6.1,2.156L540.987,277.1l-2.578-.157-0.957,6.106,1.277,2.146-2.16,1.692-5.561,1.147,0.069-2.741-2.777-2.885,2.411-3.153-2.3-4.914-0.222-1.264-2.944-1.709L525.7,263Z" transform="translate(-18.487 -25.919)" fill="#ff8080" stroke="#000"/><path d="M585.929,356.075l1.042,6.733-4.048,7.024-7.622-2.79-3.538,1.542-3.2-1.941-7.273,9.38-9.841-.5-2.094,1.454-4.46-3.048-5.564.438-5.378-1.686-2.555,1.192-3.646-.415-2.388,1.019-2.64-.9L519.97,368.9l-1.323-.448-5.273,1.575-1.64-3.728-6.234-2.532-1.2-2.427-5.368.663-1.206.555,0.124,6.6-5.714-2.4-9.249-2.646,0.039-1.388-0.774-2.79-6.178-3.506-3.852-4.3,0.059,2.646-1.32.1-3.9-3.587-2.555-.33-3.427,5.443,3.764,1.669,1.741,3.774-7.276,3.3-2.277-.389-3.659-.585-1.807-1.549-2.525-.49-1.513-2.277-3.558,1.513-2.715-.526-8.769-.738-0.154-.1-2.784-.742-2.009-2.058-13.016-1.572,0.634,3.463-0.859.807-6.805-1.728-3.558-2.382-4.224-.647-1.754-3.737-2.764-.627-1.594-2.375-6.446-3.091,1.5-3.973,2.7,0.242,1.964-7.1,0.529-2.63-2.209-3.251,2.512-2.833,2.793,0.154,3.849-4.5-2.3-4.685,0.092-2.722,1.382-2.248,4.433-2.777,0.127-5.482,1.967-1.872,1.532-5.227L406.79,293.9l2.117-2.094-0.487-5.688,1.415-4.773,2.084-1.562,5.227-1.251,2.107-6.338,4.11-.983,4.028,0.569,3.966,1.287,2.744,0.611,5.142-.7,5.525-3.251,0.539,1.333,4.192,0.9,3.019,8.014,5.512,0.918,1.14-4.1,8.628-.8,2.257-1.859,2.93,1.924,1.013-.627,1.248-.653-0.441-2.79,3.728-8.932,1.376-2.421-4.887-1.79-1.718-6.6-0.042-.069,4.028,0.6,3.871-4.162,2.6-1.17,2.176-5.253,1.408-.271-3.783-3.7-1.418-3.966,2.725,0.288,1-1.019-2.947-4.561,0.6-1.291,7.011-.51,1.565-2.323,0.085-4.234,2.359,1.3,4.979,6.42,4.535,3.117L515.29,229.5l1.362,2.97,0.052,4.744-5.946.242-1.6.709-1.506-.245-0.284,3.953,1.758,2.245-3.607,6.047,3.117,1.555,9.576-1.6,4.7,6.328,2.806,6.577-0.457,8.37L528.2,273.1l0.219,1.264,2.3,4.914-2.426,3.127,2.777,2.885-0.069,2.741,5.561-1.147,2.16-1.7-1.277-2.143,0.957-6.106,2.578,0.157,10.739-6.211,6.113-2.124,0.069-5.378-8.315-2.238-0.261-1.431,3.787-7.73,3.855-3.444,5.253-.549,3.659,2.222,2.414-5.077,6.8-1.4,0.9,1.114-0.248,4.267,1.157,0.862,3.76-3.891,8.635,1.928-0.34-6.773-2.686-4.182,6.737-6.959,1.036-3.61,2.032-.781,3.721-1.522,3.813,1.349,6.818-.618,4.783-1.346,0.621,1.085,2.761-.51,3.692-2.111,4.927-2.653,2.79-7.759,5.453-.069,3.715,3.76,1.483,4.914,4.237-1.179,2.254-5.387,5.724,0.68,7.554-4.447,2.467,0.327,1.052,3.659,5.048,1.758,0.075,2.382,1.768,1.581-0.569,2.81L665.745,226l-0.258,1.431-0.193,4.3,3.577,2.339-0.729,2.79-1.376,5.276-2.476-1.261-9.546-1.019-3.287,2.519,0.9,0.876-1.189.869-8.158,3.47-3.862-1.875-2.813,2.627,1.673,4.852-1.019,8.4,8.1,2.715,0.131-.023-1.091,1.9,0.118,2.787,3.47,7.354-0.255,4.14,3.362,2.225,2.267,1.438L653,285.489l-4.809,4.616-3.849,1.294-2.307,2.078-2.872-.559-2.329,1.718-12.81.683-2.248,1.454-1.313,3.754-4.221,1.01,1.764,2.254,0.683,4.156-1.944,2.071,5.123,1.254,0.382,1.307,3.989,0.784L627.9,318.4l-1.98,3.47,0.843,3.767-10.288-.007,0.288,4.554-4.025-1.121-1.941,3.545-4.286,3.613,1.911,1.882,1.934,7.622,4.744,2.64,7.991-1.095,0.3,0.435,1.964,9.063,1.176,6.792-1.63,2.2-0.631-2.722-7.122-4.492-1.408-.2,1.294,5.492-5.316-.827-6.874,4.123-2.14-3.623-5.165-4.541-7.465-3.336-3.541-.6Z" transform="translate(-18.487 -25.919)" fill="#06c" stroke="#000"/><path d="M549.237,81.306l0.082-3.921-1.179-8.769-2.96-4.865-0.069,1.323-1.313-.157-2.734,2.816,0.016,2.617-1.215.526-2.682.536-1.562-1.977-3.8,1.072-2.3-1.317-2.1,1.849-0.68,2.787,5.378,4.819-11.265,5.845-2.365-.16-2.5-2.258-1.473-2.4,0.389-7.1-4.316.062-5.368,4.332-1.627-5.655,0.719-1.157-1.66-2.049-4.064-3.934-2.552-5.182-4.035-1.519-9.906,2.761-6.123-2.45-1.611-5.208-5.6-.631-2.731-.9-2.32,1.689-0.454,4.228L460.5,60.256l-8.106,2.414-2.463-1.647-13.581-9.386-0.6,2.111-2.016.774,0.748,1.209L432.4,57.607l-0.686,4.208,1.055,6.782,2.483,3.342-0.7,2.757,0.506,3.8-4.14,3.911-0.653,2.79,1.209,5.538-0.065,1.47-0.356.467,7.482,15.248-1.045.732-2.294,4.992,2.395,1.209-0.98,5.557,1.095,4.143,2.767,4.8-3.721,7.292-0.48.461-6.188,6.194-2.111,3.885-0.774,5.864-1.748,1.879,0.35,7.119,5.018,13.264-1.817,3.943,1.454,2.039,2.091,1.954-1.072,8.537,1.192,8.609,2.712,0.336,1.353,13.735,1.768,8.089,1.055,6.844L442,234.183l4.123,3.427,1.108,0.6-1.862,3.064-1.379,4.015,1.418,5.358-1.519,2.427,3.372,6.3,0.885,6.606-0.974,2.538-2.418,1.215,0.539,1.336,4.192,0.9,3.019,8.014,5.515,0.918,1.137-4.1,8.628-.8,2.257-1.859,2.934,1.924,1.01-.627,1.248-.653L474.8,272l3.728-8.932,1.376-2.421-4.887-1.79-1.715-6.6-0.042-.069,4.025,0.6,3.875-4.162,2.6-1.17,2.176-5.25,1.4-.271-3.783-3.7-1.415-3.966,2.725,0.288,1-1.019-2.947-4.561,0.608-1.291,7.008-.51,1.565-2.323,0.085-4.234-2.591-4.986,2.653-.569,0.506-1.268-1.823-5.015,0.66-1.192,3.917,1.081,1.8-3.2L496.836,203l3.832-1.522,6.9-.565,7.469,3.437,2.424-.7,0.9-5.355,6.668,0.784-2.248-3.744,2.463-5.26,2.48-1.441,1.535,2.294L533.3,192.3l0.536,4.058,3.352,2.467,0.114,1.424-0.47,1.48,4.832,1.7,1.232-.5-0.042-3.95-1.575-2.12,1.715-2.1,12.667,1.562,2.329-.777,1.438,2.111,2.784-.3,3.715,1.973,5.57,0.35-0.3-4.169-2.555-3.068,2.953-4.58,0.34-1.421-2.542-3.5-1.1-4.218-0.742-3.77,2.316-4.61,5.639-.069,4.473-3.532,3.038-3.179-0.382-2.888-1.833-2.294,0.078-4.345,2.856-2.568,3.656,1.238,0.787-1.085,2.777,3.234,5.639,1.075,8.916-4.433,2.071-1.353,0.715-2.245,3.146-.569,2.816-3.133,0.849-5.24,3.5-2.313,2.924-1.836,4.234-3.283,2.084-12.225,8.488,1.49,5.7-4.283,1.63,3.953,1.6-1.627-0.369-3.871,1.212-6.083-0.729-1.019,1.487-1.464-1.108-4.094,2.771-3.1-1.219-2.565,6.266-2.767-1.7-7.41-3.3-4.414-0.18-1.392,5.031-4.669,1.248-.637,3.839,1.336,0.624-5.786,3.5-4.152,2.754-.34,2.427,1.2,5.6-5.348-0.748-3.826L683.127,57.2l1.506-5.267,5.913-2.705,0.212-2.767-9.618-5.825-3.466-4.208-1.15-1.777-3.2-2.774-3.744.97-4.048-1.268-2-2-1.843,5L659.421,36.3l-0.862,1.183,4.861,5.064-2.156,3.764-4.875,3.107-0.882,5.538-3.816-.5-0.167-2.735-1.166-.712-5.24-.614-3.133-1.934-4.094,5.806-0.513,2.79-4.708,2.483,0.18,5.332-3.515-1.578L628.7,60.962l-2.124-1.255-4.887-2.084,0.372-2.421L620.5,53.667l-2.173,1.7-5.544-.386,0.274-.343-6.224-2.826-1.068.885-4.277.124-3.352,4.587-4.015-.225L589.5,54.369,586.907,59.1l-4.522,2.516L577.318,69.4l-1.343.337-1.738-1.964L572.186,71.1l-5.989-.8-0.307-.7-5.368,4.982Z" transform="translate(-18.487 -25.919)" fill="aqua" stroke="#000"/><text transform="translate(600.978 171.581)" font-size="72" font-family="DejaVu Sans" font-weight="700">1</text><text transform="translate(463.311 309.075)" font-size="72" font-family="DejaVu Sans" font-weight="700">2</text><text transform="translate(458.978 135.081)" font-size="72" font-family="DejaVu Sans" font-weight="700">3</text><path d="M784.4,155.146l2.967,1.918-0.1,2.516-1.166,2.493-2.757.954-0.719,6.861,2.895,4.368-2.385,3.532,0.16,2.545-1.5,5.309-2.205,1.663-8.184.36,1.768,3.77-5.7,4.267-5.753.425-1.846-2.248-2.78-.569-1.836,2.2-4.11.745,1.062,6.413,1.294,2.512,5.515-.634,4.136,0.872,0.516,5.6-1.062,4.11,2.3,0.581,3.176-3.8,3.839,3.055,2.362-.885,0.51,5.518,6.763,1.388,0.144,2.575,2.169,1.607-1.228.6-0.618,2.656-3.728,1.424,1.095,6.72,2.744,2.868,4.969-.51,1.026,3.708-8.089,5.417,2.114,2.793L781.586,252l3.058,5.577,1.163,1.4,0.591,1.637-0.2,1.764,0.444,0.405,1.565-1.382,0.34,4.306L789.493,266l0.7,1.45,1.97,0.49,0.921-.317,0.095,1.281-2.715.967-3.819-.268-3.728-1.683,1.634-2.28,0.448-1.31-1.222-.784-1.346-.01-3.646-.944-1.957.075-3.13-.673-2.4-1.758-1.418.265-5.747,1.019-4.9.529-2.519-3.512,0.934-.964-1.46-2.088,3.251-7.25-1.96.581-3.146,4.714-5.035-2.633-1.663,2.124-5.407.546-1.7-2.225-0.591-4.1-3.274-2.63,1.192-5.5-1.1.836-6.551-.415-0.853,1.091,1.82,3.584-2.075,1.653-4.234-3.822-2.679-.729-7.148,3.728-2.1-1.7-3.564,5.283-2.682-.977-9.736.506-3.715-4.339-3.849,1.49-8.364-.99-0.614-2.342,2.953-2.091-4.362,1.49-1.254-2.111-3.313-2.238-3.8.761-2.473-.964,0.729-2.79-3.577-2.339,0.193-4.3,0.258-1.431,4.522-3.591,0.569-2.81-1.768-1.581L669,215.6l-5.048-1.758L662.9,210.18l-2.463-.327,4.146-5.1-2.617-2.542-0.529-1.251,0.993-.931,4.224-3.512,12.64-6.185,2-2.9,3.881-3.845,4.969-2.248-1.578-3.679,1.973-3.362-4.316-7.044-1.006-8.491,4.051-7.132-0.3-.477,0.876-4,2.581-3.333L691.4,138.2l-1.692-2.287-1.807-.069-0.869-8.54,0.644-2.463,2.111-1.562,7.178,2.437-2.927-3.087-0.987-7.112,5.224-2.316,1.487-2.5,5.515-.154,3.754,1.839,2.627-3.2,2.568,0.144,1.542-1.882,1.349,2.875-0.477-1.268,8.132-4.025,0.536-2.568,6.537-.866,0.523,2.656,4.953,3.947,4.61-.082,5.7,0.2,0.644-1.294-2.235-3.535,3.577-6.1,4.561-1.7-0.029-.376,4.378,0.029,1.085-.987L761.9,86.4l2.846-1.532,1.095,0.751,7.648-1.575,0.748,1.091-1.768,1.934,2.816,4.561-2.068,1.536L772.984,95.9l-5.24.268-0.15.134,4.8,6.72,0.477,1.307-1.431,2.127,2.16,3.385,7.658-1.683,5.583-6.266,6.756,10.6-1.16.794,0.278,4.061-0.1.095-1.768,3.868-4.306-2.493-1.836,3.669-3.914,1.258-2.96,6.319,4.143,0.186,1.8,1.833,0.467-1.323,4.2,0.108,2.379,1.464,1.183-.748,0.451,4.247-2.006,6.939-3.757.745Z" transform="translate(-18.487 -25.919)" fill="#ff8080" stroke="#000"/><path d="M899.786,288.613l1.7-4.084,2.075-1.722,2.081-5.11,1.392,0.016,5.234,8.083,1.114-6.887-1.761-6.678,2.493-1.3,1.062-2.617,2.63-.748,0.98-2.653-5.42-.876-4.881-2.434-6.025,1.382-5.365-.879-2.878-3.12,0.591-1.3-1.1-2.64-2.061-1.934-5.561-1.232-2.7.552-4.574-6.328-8.56-3.646,0.657-2.186-3.424-.552-2.734-2.875-6.119-1.235-1.189-.7-0.078-4.058-3.2-2.614-2.734-.4-0.6-4.107,3.319-2.653,2.676-6.531-0.2-2.856,2.248-3.63,1.411-.232-1.072-2.49-2.287-1.588-3.711,1.081-4.842-.552-2.771-2.5-1.918,2.852-0.977-.647-1.8,2.107-7.041.621-7.152,10.661L824.721,219l-1.973-1.712-3.646,1.392-3.388-.549-1.8,2.1-0.317,4.149-1.359.314-2.254-1.63-8.161.823-5.891,5.6,4,1.019,3.417,6.132-2.96,4.639-7.073,2.61-0.6,1.183,1.552,2.215-1.846,2.2-0.885,7.011,0.056,1.313,2.568-.683,3.3,2.14,1.261-.451,2.13,1.643-4.234,7.253-6.129,2.143-3.819-.268-3.725-1.686-1.888.794-0.6,2.989-3.4,2.659-4.28.317,6.139,5.57,1.565,5.26-0.99,4.763,2.342,6.3-4.822,4.669,0.9,2.4,2.382,1.356,2.725-.34,2.7-3.2,2.78-.261,3.447-2.391-0.738-2.31,1.163-.689-1.114-2.362,0.742-2.519,3.8-1.291,2.627,3.1,7.148,3.76,6.276,0.454,2.63,0.614,1.075-2.45,4.234,0.127L825,299.972l5.675,1.019,1.3,5.476,0.35,2.872,3.767,1.418,4.352,12.163,2.4,1.026,8.684-12.689,7.276-5.649-0.2-.987,2.663-.885,4.126,1.036,4.051-1.268,1.977,1.794,2.767,0.2,0.7,1.225-1.487,3.715,8.926,6.835,3.692,1.928,4.809-3.257,2.885-.307,2.4-4.391,2.408-1.091,1.2-2.369-3.015-3-4.113-.735-1.176-2.525,0.186-2.865,7.067-.271-0.281-1.4,0.565-.516L900.8,291.1Z" transform="translate(-18.487 -25.919)" fill="#ff8080" stroke="#000"/><path d="M901.554,393.147l-2.744,3.107-1.379-.134-1.581-2.2-0.9-5.312-2.868-2.96,0.059-.189,3.764-4.211,4.068-.934,0.8-1.17-0.258-1.607,2.022-1.9,0.539-3.94,1.787-2.14,6.648-1.473,0.258-.075,6.6-5.646,6.211,1.892L926.047,362l-3.228-4.365,0.2-1.362,1.715-2.146,1.32-.382,2.558,1.01,0.255-1.356,5.822-7.116,1.8-2.009,2.061-6.319,3.136-2.379,2.62,1.019,1.614-3.881-0.1-4.2-4.077-3.551L943,321.1l-1.761-6.675,0.686-5.554,2.294-1.369,5.253-4.286L951.439,305l1.052,3.924,4.27,3.512,1-.977-1.745-6.8,0.467-8.243,1.15-2.538,8.011-2.868,0.885-1.137-0.774-4.133-5.9-11.549-8.2,5.133-4.058-1.072-1.251-2.493-2.731.016-12.255-6.969-3.47-4.466,0.092-1.424-5.7-.588-3.5,2.575-0.98,2.65-2.63.751-1.062,2.614-2.493,1.3,1.761,6.678-1.114,6.887-5.234-8.08-1.392-.02-2.081,5.11-2.075,1.722-1.7,4.084,1,2.5-1.843,5.371-0.565.516,0.281,1.4-7.067.271-0.189,2.865,1.179,2.522,4.113,0.738,3.012,3-1.2,2.365-2.408,1.091-2.4,4.391-2.885.307L886,319.2l-3.692-1.928-8.926-6.835,1.487-3.715-0.7-1.225-2.771-.2-1.973-1.794-4.051,1.268-4.126-1.036-2.666.885,0.206,0.99-7.279,5.649-8.681,12.689-2.4-1.026-4.352-12.163-3.77-1.418-0.346-2.872-1.3-5.472-5.675-1.019-5.234-4.737-4.234-.127-1.075,2.45-2.63-.614-6.276-.451-7.148-3.764-2.627-3.1-3.8,1.294-0.745,2.516,1.117,2.362-1.163.693,0.738,2.307-3.447,2.391-2.78.261-2.7,3.2-2.725.34-2.382-1.356-4.234,2.93,2.4,1.157-0.059,4.015,2.9,4.793,0.274,1.388-2.068,1.908-1.343-.092-5.9,13.3-3.669,2.287-0.3-2.712-8.23-1.9-1.686-2.31,0.343-2.829-2.049-2.022-1.016-.846-4.943.477-8.331,6.459-4.989,7.024,0.33,1.4,4.12,1.186,2.813,3.254-4.688,4.117,0.742,2.427-3.293,2.575,0.885,2.522,2,3.7-4.9,6.988-0.141,4.3-2.8.33-4.852-2.679-5.316,1.7-0.209,2.6-3.391,3.7-4.133.173-3.045-2.663-6.786,7.188-3.943-.777-5.178-13.9-5.387.438L681.949,373l-2.431,1.33-0.493-2.6-4.169-.666-1-2.62-5.505-4.192-1.686-1.852-5.015-.114-1.418,4.084-2.441,1.444-3.306,6.433-3.365,2.712-0.755,4.264,0.666,1.669,8.6,4.551,5.521,1.434,9.553-8.508,2.444,0.784,2.516,3.006,2.561-.1,0.526,1.2-2.79.529-0.248,2.784-5.3,4.747-3.956.451,0.513,4.074,5.325,8.324-0.01,5.237,0.983,0.876,5.417,1.212,4.081-.853,3.176,4.5,3.617,1.5,1.846-1.738,3.816,0.506,0.069-4.055,2.323-4.848,1.784-1.944,1.251,0.487,0.595,3.953,4.972-2.663,6.145,3.63,7.122,0.961,1.794,3.845,4.384-4.4,4.848,7.828-0.843,2.026,6.737,2.205,5.015,5.025,2.771,0.722,2.437-1.5,6.874,1.973,4.126-1.058,1.4,0.111,1.3,3.966,3.859,0.647,1.738,3.718,2.218,1.692,3.509-4.574,4.192-.823L782,432.427l0.51-7.224,4.466,0.4,0.735,3.96,1.349,0.186,0.889-2.581,1.3-.405,3.525,1.8,0.748-1.026,7.331-.581,4.525,5.436,12.97,1.588,4,3.813,0.725,2.568,10.935,4.616,4.041-3.581,2.653-.529-2.084-6.616-3.519-6.338-2.545-1.385-2.408-3.6,5.064-8.664,3.741,0.925,7.2,8.775,2.653,0.516,5.463-1.294,0.761-5.446,1.95-3.764,3.963-1.268,0.846,1.114,5.531-.235,5.09-4.724,2.5,0.944,5.417-1.333,3.992-3.715-0.222-1.9,7.021,0.761,2.568-1.2,6.243-5.694L902.722,394Z" transform="translate(-18.487 -25.919)" fill="#ffc0c0" stroke="#000"/><path d="M642.055,293.445l-2.872-.559-2.329,1.718-12.81.683-2.248,1.454-1.313,3.754-4.221,1.01,1.764,2.254,0.683,4.156-1.944,2.071,5.123,1.254,0.382,1.307,3.992,0.784,1.66,5.035-1.98,3.47,0.843,3.767L616.5,325.6l0.288,4.554-4.025-1.124-1.941,3.548-4.286,3.613,1.911,1.882,1.934,7.622,4.744,2.64,7.991-1.095,0.3,0.435,1.964,9.063,1.176,6.792-1.63,2.2,1.307,0.15-0.751,3.721,1.99,3.333-0.343,1.353,4.3,3.264-2.091,6.541,4.081,0.693,4.848-2.682,6.828,1.49,5.956-.742-0.666-1.669,0.755-4.264,3.365-2.712,3.306-6.433,2.441-1.447,1.418-4.084,5.018,0.118,1.683,1.852,5.505,4.192,1,2.62,4.169,0.666,0.493,2.6,2.431-1.33,5.842-7.756,5.387-.438,5.178,13.9,3.943,0.777,6.786-7.188,3.048,2.663,4.13-.176,3.391-3.7,0.209-2.6,5.316-1.7,4.852,2.679,2.8-.33,0.141-4.3,4.9-6.988-2-3.7L735,351.6l3.293-2.578L737.55,346.6l4.688-4.12-2.813-3.254-4.12-1.183-0.33-1.408,4.989-7.021,8.331-6.462,4.946-.477,1.013,0.846,2.049,2.022-0.34,2.829,1.683,2.31,8.23,1.9,0.307,2.712,3.669-2.287,5.9-13.3,1.343,0.092,2.068-1.908-0.274-1.388-2.9-4.8,0.059-4.015-2.4-1.157,4.234-2.927-0.892-2.4,4.822-4.669-2.342-6.3,0.987-4.763-1.565-5.26-6.139-5.57,4.28-.317,3.4-2.659,0.6-2.989,1.885-.794,1.634-2.277,0.448-1.31-1.222-.787-1.346-.01-3.646-.944-1.957.078-3.13-.673-2.4-1.758-1.418.265-5.747,1.019-4.9.529-2.519-3.512,0.934-.964-1.46-2.084,3.251-7.25-1.96.581-3.143,4.714-5.035-2.637-1.666,2.127-5.407.546-1.7-2.225-0.591-4.107-3.274-2.627,1.192-5.5-1.108.857-6.551-.415-0.853,1.091,1.82,3.584-2.075,1.65-4.234-3.819-2.679-.729-7.148,3.725-2.1-1.7-3.564,5.283-2.682-.98-9.736.51-3.715-4.342-3.849,1.49-8.364-.987-0.614-2.342,2.953-2.094-4.362,1.49-1.254-2.111L674.429,237l-3.8.765-2.476-.964-1.376,5.276-2.476-1.264-9.546-1.016-3.287,2.519,0.908,0.879-1.192.866-8.158,3.47-3.862-1.875-2.813,2.623,1.673,4.855-1.019,8.4,8.1,2.715,0.131-.026-1.091,1.9,0.118,2.79,3.47,7.354-0.252,4.136,3.359,2.228,2.267,1.438-0.092,1.356-4.809,4.616-3.845,1.294Z" transform="translate(-18.487 -25.919)" fill="#ff8080" stroke="#000"/><path d="M815.688,218.126l-1.8,2.1-0.32,4.149-1.359.314-2.251-1.63-8.161.823-5.891,5.6,4,1.019,3.417,6.132-2.963,4.639-7.07,2.61-0.6,1.183,1.552,2.215-1.846,2.2L791.5,256.5l0.059,1.313,2.568-.683,3.3,2.14,1.258-.451,2.133,1.643-4.234,7.253-3.414,1.176-0.095-1.284-0.921.317-1.97-.487-0.7-1.454-0.947-.288-0.34-4.309-1.565,1.385-0.448-.405,0.206-1.764-0.591-1.637-1.163-1.4-3.058-5.577,0.555-1.157-2.114-2.8,8.089-5.417-1.026-3.708-4.969.513-2.744-2.868-1.095-6.72L782,228.4l0.618-2.656,1.228-.6-2.169-1.607-0.144-2.575-6.763-1.388-0.51-5.515-2.365.885-3.836-3.052-3.176,3.8-2.3-.585,1.062-4.11-0.516-5.6L759,204.534l-5.515.631-1.294-2.509-1.062-6.413,4.11-.748,1.836-2.2,2.78,0.565,1.846,2.248,5.753-.425,5.7-4.27-1.768-3.767,8.181-.363,2.205-1.663,1.5-5.309-0.16-2.545,2.385-3.532-2.895-4.368,0.719-6.861,2.757-.954,1.166-2.5,0.1-2.512-2.967-1.918,2.274-11.608,3.754-.748,2.009-6.939-0.451-4.244-1.183.748-2.379-1.46-4.2-.108-0.47,1.323-1.8-1.836-4.143-.183,2.957-6.322,3.917-1.258,1.836-3.669,4.3,2.493,1.768-3.868,0.108-.095-0.278-4.058,1.16-.794-6.756-10.6-5.583,6.266-7.658,1.679-2.16-3.385,1.431-2.124-0.474-1.31-4.8-6.717,0.15-.134,5.24-.268,0.235-2.738,2.068-1.539-2.819-4.561,1.768-1.934L773.47,84.04l1.388-2.15-0.954-.928-3.045-4.038,2.385-.706,3.251,2.624,2.617-.212-0.931-2.65L778.75,73.2l5.45,0.621,0.833-.591,6.39-4.211,2.084,0.392,6.648-.67,3.4-2.042,0.3-1.477,1.134-.719,2,1.732,2.653-.425,3.989,0.686,4.672,2.774,2.718,0.542,4.574,4.574,2.519,0.977,0.777-.438,2.865,3.4,1.281,5.786,2.277,3.107,1.584,2.313-0.614,4.13-1.9,2,0.333,9.687,1.33,1.565,0.529,5.835,1.921,9.181-1.9,1.774,0.9,4.257,3.185,4.839,3.666,2.075,1.937-2.156,3.365,2.774,0.637,2.581,3.571,1.689,5.678-.271,3.532,2.189,4.332-2.973,3.953,5.642-2.228,1.614-0.938,2.633,5.038,6.629,4.927,0.876,1.735,2.385,0.212,4.4,2.63-.382,9,2.395,4.032-.062,5.391,0.755,2.588-.908,2.15,1.722,0.477,2.568,1.83-.412-1.83-7.985,3.012-2.826,2.7-.768,5.982,3.529,2.751,0.385,0.967,5.515,2.895,3.254,2.006,5.384,3.064,3.064,1.157,4.14,0.934,1.928,2.359-.01,1.81,3.744,4.636,2.944,1.078,0.846,10.683-5.985-0.039,2.623,3.806,1.431,4.616,4.865L963.2,196.9l1.114,0.869,5.577-.467,6.613,2,7.5,6.194-0.513,1.431,1.954,1.911-0.637,1.294-17.766,1.153,1.294,3.842-3.836,8.645-2.264,1.7-4.2.542-0.487,1.268,3.924,1.45,4.09-.676-0.552,8.367-2.581,1.1-8.374-.67-2.656.9,1.258,2.467-1.013,6.881,0.745,4.018,2.663,0.258,1.7,2.146,6.933-.477,0.64,5.642L963,262.8l-1.447,5.436-2.823,3.326,1.1,2.61-8.2,5.136-4.058-1.075-1.251-2.49-2.731.016-12.255-6.969-3.47-4.466,0.092-1.424-5.7-.591-3.5,2.575-5.42-.876-4.881-2.434-6.021,1.382-5.368-.879-2.878-3.12,0.591-1.3-1.1-2.64-2.061-1.937-5.561-1.232-2.7.555-4.577-6.328-8.56-3.649,0.657-2.186-3.424-.549-2.731-2.875-6.123-1.235-1.189-.7-0.078-4.058-3.2-2.614-2.734-.4-0.6-4.107,3.319-2.653,2.676-6.531-0.2-2.856,2.248-3.626,1.411-.232-1.072-2.49-2.287-1.588-3.711,1.081-4.842-.552-2.771-2.5-1.918,2.852-0.977-.644-1.8,2.107-7.044.621-7.152,10.661-1.986,1.624-1.977-1.715-3.646,1.392Z" transform="translate(-18.487 -25.919)" fill="#06c" stroke="#000"/><text transform="translate(787.978 167.081)" font-size="72" font-family="DejaVu Sans" font-weight="700">5</text><text transform="translate(679.311 167.081)" font-size="72" font-family="DejaVu Sans" font-weight="700">1</text><text transform="translate(801.311 262.116)" font-size="72" font-family="DejaVu Sans" font-weight="700">2</text><text transform="translate(773.311 358.864)" font-size="72" font-family="DejaVu Sans" font-weight="700">3</text><text transform="translate(649.736 302.361)" font-size="72" font-family="DejaVu Sans" font-weight="700">4</text><path d="M188.876,694.694l2.287,4.773-2.888,4.767,0.17,5.335,4.692,9.889-0.653,1.238-1.787,1.359-6.962,1.594L173.2,730.9l-4.188.542-1.294,2.552,0.418,4.78-0.83.931,3.051,3.822,1.111-.516,2.777-3.306,6.962,0.134,4.633,3.087,9.912,0.046,2.4,1.473,0.98,3.4,2.646,2.035,2.77,0.274,5.548,6.165,5.417,0.35,5.061,2.061-0.069,3.885,5.355-.882,6.557-4.685,3.633,9.586,0.428,2.731,2.209,1.66-0.245,9.533-0.732,1.173-2.751-.229-0.846-1.091,2.058,5.155,7.782,3.421,4.182,0.49,6.56-2.7,1.424-.059,3.842,4.172,0.6,5.515,6.753,7.286,1.7-.229,5.554-3.395,2.3-4.7,6.145-3.006,5.074,0.65,1.617,2.329,0,4.172-2.284,9.586,8.3-.549L297.5,813.6l4.842,2.565,0.3,1.366-1.82,2.075,0.755,2.686,3.287,2.47,3.656-1.833,4.489-7.109,5.2-.408,2.12,1.13,15.574-5.45,3.515,0.588,2.111-2.725,1.294-1.111,8.452-5.557,0.951,0.127,2.744-.408,5.165,1.614,3.492-2.45,3.927-.5,1.369-2.418,4.149-.951,0.941-.911L373.634,793l5.564,0.885,5.253-.242,0.542,2.653,2.656,0.555,3.427,4.185,6.472,2.953,3.149-4.633,4.152-1.1,2.15-3.548,1.264-.614,2.575,1.052,1-.849,5.45,1.16,3.43,4.2,0.317,4.045L429.8,796.6l5.342,0.088,0.555-1.313-1.947-3.6-3.12-2.578L427,785.551l-0.552-3.937-1.1-.742-1.111-.751-2.542.817-0.01-1.411,3.728-3.842-2.107-8.08,1.323-8.142-4.525-2.3-0.712-3.715-6.3-1.532-4.512,1.833-3.744,3.8-5.371-.885-0.931-2.5-1.317-.4-3.956-1.787-3.185-4.492-1.14.536-0.34,4.166-6.838,1.1-2.751-.663-3.737,6.025-4.032.026-1.957-1.947-3.868.817-2.414-1.137-1.235-1.019-1.212-.657-0.97-4.032,1.591-3.669-3.136-2.411-10.533-9.579-3.274-4.13,1.088-2.532,2.346-1.526-0.049-2.578,0.987-4.123,6.247-3.1,2.914-4.835,1.124-8.442-2.483.817-2.238-2.94L349.2,700.1l0.323-2.927-1.228-.683-3.512,2.336-6.943,1.493-11.892,7.531-3.744-2.986,3.675-9.373-3.241-4.545-1.415-5.518,0.807-2.672,2.66-1.019-0.033-2.65-1.692-2.156-1.676-8.053,0.513-3.881-2.084-1.754-1.663-1.977-2.555-.5-1.117.34-5.6,6.119-3.986.9-5.59,3.447,3,4.561-2.006,5.028-0.938,5.2,3.143,6.916-0.337,1.366,2.9,4.7,3.349,2.323,0.461,2.725-1.836,3.7L301.585,708l4.476,7.024,7.312,6.132,0.748,3.95-7.282,3.911-2.748-.618-2.61.938-0.614,5.24-8.178-2.029-6.364-3.2-2.424.709-8.576-2.947h-4.218l-2.362,1.539-7.42-6.253-8.184,2.2-2.548-1.225-1.8-3.395-0.069-6.286-2.542-3,0.634-1.192-2.026-3.47-8.181,2.1-2.212-1.709-2.725.51-9.569-1.594,1.457-2.3,0.4-4.084-1.594-2.235-11.278.039-6.446-2.98-5.051-4.767-1.516-5.41,0.526-2.705-5.048-1.277-1.121.722-0.813,3.8-4.224,3.045-0.245,2.519,2.842,2.6Z" transform="translate(-18.487 -25.919)" fill="#06c" stroke="#000"/><path d="M425.865,848.655l-2.588-.569-2.225-3.388-1.317-.327,1.457,3.79-0.862,2.5,0.663,2.692,0.787,1.15,2.359,1.441,2.026,5.162-0.644,2.705-2.512.911-0.673,2.63,0.408,1.238-2.323,1.026-4.152-2.666-1.9,1.526-1.179-.369-1.924,3.208,0.255,2.653,5.24,1.206-5.534,9.533-1.4-.033-8.514,2.284-3.463-2.911-8.409.614-2.581,2.813-1.081,5.054-0.124.428-4.237-.742-8.38,1.264,0.157,6.655-2.16,7.759-0.631.751-5.42,4.41-0.552-2.385-3.894.343-3.444,5.884,1.206,2.5-0.748,1.166L354.835,920l-4.688,2.382-1.4,2.3,1.833,5.067-0.849,3.9,2.463,1.157,0.31,1.333-0.908,2.15,1.614,1.607,1.137-.327,1.836,1.833,3.881-.209,0.4,2.591,1.826,1.761,3.427,1.62,3.254,5.417,2.267,9.468,5.378,2.525-1.179,1.581-5.316-1.48L363.274,949.5l-4.875-5.142-3.8-1.928-5.77-1,0.908,1.219,6.4,2.7-6.472-1.843-6.982.9-6.635-2.31-5.071,2.251-7-.7-1.712-2.137-2.79-9.52-6.547-11.134-3.649-2.251-6.89-1.568-2.094,1.379-3.78-.555-16.63-2.927-7.55-3.509,0.7-2.653-16.068-8.3-2.111-3.636,2.656-3.192-0.337-2.771,1.242-2.431,6.381-2.284,0.725-6.923-2.8-4.813,8.661-.683-3.862-8.71-0.049-5.378-10.719,2.117-7.655-1.418-2.516,1.111,1.1-4.868-1.483-2.143,1.784-4.933,1.163-3.741,2.519-3.019,4.76-1.869,4.224-3.662-0.575-2.659-2.137-1.728-13.843-5.45-4.038.2,1.7-3.721,2.133-1.7-1.094-3.509,0.8-2.617-1.326-2-1.767,1.686-2.463-.046L237.2,811.28l5.695-3.783,4.221-.454,4.123-3.842L253,799.352l7.55-2.967,6.753,7.292,1.7-.229,5.554-3.395,2.3-4.7L283,792.347l5.074,0.65,1.617,2.323,0,4.172-2.284,9.586,8.3-.549,1.794,5.048,4.842,2.571,0.3,1.359-1.82,2.075,0.755,2.686,3.287,2.47,3.656-1.833L313,815.795l5.2-.408,2.12,1.137,15.574-5.45,3.515,0.588,2.111-2.731,1.294-1.1,8.452-5.557,0.951,0.127,2.744-.408,5.165,1.607,3.492-2.444,3.927-.5,1.369-2.418,4.149-.951,0.941-.918-0.382-3.381,5.564,0.885,5.253-.242,0.542,2.653,2.656,0.555,3.427,4.185,6.472,2.947,3.149-4.626,4.152-1.1,2.15-3.541,1.264-.618,2.575,1.052,1-.849,5.45,1.16,3.43,4.2,0.317,4.051,8.756-7.116,5.342,0.088,0.555-1.307-1.947-3.6-3.12-2.584-3.623-3.643L426.44,781.6l-1.1-.748,3.248-2.29,4.214-3.483,2.734-.529,3.555,2.13,13.611,2.5,4.09-8.671-12.327-3.094-0.252-1.1,9.073-8.932,4.064,1.186,1.457,4,3.653,4.2-0.618,2.5-3.479,2,3.689,1.973,4.2,0.1,3.2,2.463-4.12,5.515-1.679,5.168,0.98,0.944-0.477,2.63,1.274,3.875-0.794,6.446,0.689,0.771-1.359,3.159-2.8.274-3.015,4.721,2.986,2.538,0.608,4.025-4.78,11.595-7.639,3.47-2.257-3.414-10.063-4.741-5.489,5.959-1.607,3.816,5.737,5.652-3.241,2.538-3.205,2.29Z" transform="translate(-18.487 -25.919)" fill="#ff8080" stroke="#000"/><path d="M180.9,665.92l-4.185,3.675-8.985,4.185-4.594,11.843-0.2,5.515-3.47,6.227-4.182,3.983,0.408,2.757-2.352-1.019-7.759,8.168-3.064,6.227,2.45,1.124-2.859,2.96-9.494,1.634,2.248,12.353,1.225,15.721,5,4.9,18.279,12.967L180.2,791.295l1.532,6.943,2.45,3.675h6.534L196.939,811l6.737,12.252,6.332,5.515,1.431,3.983,3.983,3.777,2.352,9.6,8.168,26.954,1.634,9.494,3.47,2.143,2.143-1.735,2.653-.307,3.577,2.143,2.45,3.368,1.431,2.248,8.782,6.332,2.757,0.1,2.653-3.166-0.307-2.757,1.225-2.45,6.433-2.248,0.719-6.943-2.859-4.806,8.674-.715-3.888-8.674v-5.4l-10.719,2.137-7.658-1.431-2.552,1.124,1.124-4.9-1.431-2.143,1.735-4.9,1.124-3.77,2.552-2.96,4.8-1.941,4.185-3.675-0.614-2.653-2.042-1.735-13.885-5.41-4.084.2,1.735-3.675,2.143-1.735-1.127-3.47,0.817-2.653-1.323-2.042-1.735,1.735-2.45-.1-0.918-4.391,5.717-3.777,4.185-.408,4.185-3.881,1.732-3.881,7.553-2.96-0.614-5.515-3.773-4.185-1.431.1-6.635,2.653-4.182-.408-7.759-3.47-2.042-5.208,0.817,1.124,2.757,0.2,0.715-1.13,0.307-9.488-2.248-1.735-0.408-2.653-3.675-9.6-6.534,4.7-5.309.817v-3.881l-5-2.042-5.41-.307-5.616-6.227-2.757-.307-2.653-2.042-0.915-3.368L195.717,743l-9.9-.095-4.594-3.068-6.943-.1L171.521,743l-1.124.51-3.064-3.777,0.817-.911-0.408-4.806,1.225-2.545,4.286-.618,10.517-7.25,6.943-1.532,1.735-1.326,0.715-1.326-4.7-9.9-0.2-5.309,2.859-4.7-2.248-4.8,1.127-2.45-2.859-2.552,0.307-2.552,4.185-3.064,0.817-3.777-2.96-2.96-4.286-9.292-1.941-2.042Zm-82.086.51-7.044,1.124,2.349,6.332-2.45,5.1v2.859l4.8,3.267,4.8,7.25,3.368,2.143,3.47-2.552,5.717,0.1,6.635,5.515,5.208,6.841,3.983,10.821,2.352,3.574,1.225,0.715,0.506-1.326,0.2-15.718-2.859-4.9-7.658-4.084-9.7-5.518-2.757-.1-1.225-2.349,0.614-5.1-0.817-1.019-2.552.715L109.639,679l3.777,1.836,1.124-.918-0.614-7.152-9.393-6.126ZM71.865,786.192l-2.143.2-2.143,1.836-2.548,1.225-0.31.614v0.715l0.408,2.143,0.31,0.618,1.019,1.941,2.859,2.042,0.408,2.143,2.653-.51,2.45,2.552,1.431,0.095,1.836,1.13,2.042-.51,2.957,2.96,4.394-2.251,1.225-1.735,6.224,1.326,1.735,1.225,0.307-.614L96.065,801.4,93,797.414l-2.143-1.735-1.634-1.225L86.976,791.7l-5.616-.307-2.552-3.368Z" transform="translate(-18.487 -25.919)" fill="#06c" stroke="#000"/><path d="M424.221,780.148l-2.538.817-0.01-1.411,3.728-3.842-2.111-8.086,1.326-8.135-4.525-2.3-0.712-3.721-6.3-1.526-4.515,1.833-3.744,3.8-5.374-.885-0.928-2.49-1.317-.4L393.249,752l-3.185-4.492-1.14.536-0.34,4.159-6.841,1.111-2.748-.663-3.737,6.025-4.032.026-1.957-1.947-3.871.817-2.411-1.143-1.235-1.016-1.212-.657-0.97-4.032,1.591-3.669-3.136-2.418-10.533-9.579-3.274-4.123,1.088-2.532,2.346-1.526L347.6,724.3l0.987-4.123,6.247-3.1,2.914-4.835,1.121-8.442-2.48.81-2.238-2.94-4.969-1.558,0.323-2.924,2-1.875-0.258-3.881,1.865-1.983,0.363-4.084-4.554-3.159,3.159-6.06-0.363-1.372-0.425-4.159-2.509-5,3.682-4.152,4.224,0.154,0.484-2.552,2.571,0.676,5.136,3.983,5.345-.167,0.65-2.457-1.192-.5,0.392-1.245,3.329-5.41L372.553,649l1-2.437,2.519-.536,1.4-2.228,1.33-.448,5.378,6.4,5.162,1.967,3.63,4.185,2.084,1.568,3.492,4.018,13.389,4.152,1.973,1.977,3.881,1.32,4.832,2.228,5.427,0.281,2.016,1.072,2.525,1.307,2.65-.5,3.711,1.954,9.772,0.918,3.849-7.191,4.44,3.395,2.486-.562,5.054,6.6,5.1-1.673,1.627-2.176,5.548,4.94,3.777,1.627,2.594,6.355-2.849,2.248,0.983,1.026,4.166-.644,1.1,3.829,3.545,0.748,0.441,2.764-3.656-.34-1.088.964,0.4,1.359,8.1,0.918-0.222,2.418,6.119,2.891,1.735,3.842,4.015,0.81-1.085,2.329-1.817,2.035,0.575,2.6-3.937,7.25,4.718,2.385,6.034,8.53,1.937,2.411,1.483,3.587,2.29,1.111,4.228,3.669,5.378,0.983,2.49,2.98,5.44-.007,3.042,5.155-4.626,2.9-1.349,5.041-1.264,2.578-0.389,5.744,1.892,5.283-3.646,2.068-1.673,3.8-5.593.32-5.175,8.416,4.545,2.3,0.99,2.986-8.762,3.241-4.505,4.505-4.848-4.887-6.459-1.6-2.97,5.8L494,806.357l-6.338.977-2.7,2.623-2.022-1.843-9.412-1.836-1.532-2.356-4.136-.67-1.8-2.055H465.3l-0.686-.777,0.794-6.446-1.277-3.875,0.477-2.63-0.98-.944,1.679-5.168,4.117-5.515-3.192-2.457-4.2-.108-3.689-1.973,3.476-2,0.621-2.5-3.656-4.2-1.457-4-4.061-1.186-9.073,8.932,0.252,1.1,12.323,3.094-4.09,8.677-13.611-2.5-3.555-2.124-2.734.529-4.214,3.476-3.248,2.29Z" transform="translate(-18.487 -25.919)" fill="#8040c0" stroke="#000"/><path d="M460.525,939.706l-1.294.595-10.919-.735-9.187,3.917-0.827-2.532-5.456,9.131-1.885,1.813,0.565,1.212-4.786,2.107-5.227-1.16-0.911-2.509-1.209.013-0.6,3.434-1.516,1.768-5.168-2.538-4.378-3.114-1.637,1.934-8.991,1.392,1.7,6.234-3.234,7.116-1.186.784,2.277,4.855-1.147.742-1.98-1.647-4.786-1.882-13.846-13.81-3.355-4.652-2.581.428-3.257-5.417-3.424-1.62-1.826-1.768-0.4-2.584-3.881.209-1.833-1.833-1.137.327-1.614-1.607,0.9-2.15-0.307-1.333-2.463-1.157,0.849-3.9-1.833-5.067,1.4-2.3,4.688-2.382,2.715,0.562,0.748-1.166-1.206-2.5,3.44-5.884,3.9-.343,0.552,2.385,5.42-4.41,0.631-.751,2.156-7.759-0.154-6.655,8.38-1.264,4.237,0.742,0.124-.428,1.081-5.054,2.581-2.813,8.409-.614,3.463,2.911,8.514-2.284,1.4,0.033,5.531-9.533-5.24-1.206-0.255-2.653,1.924-3.208,1.179,0.369,1.9-1.526,4.152,2.666,2.32-1.026-0.408-1.238,0.676-2.63,2.512-.911,0.64-2.705-2.022-5.162-2.359-1.441-0.787-1.15-0.663-2.692,0.862-2.5-1.457-3.79,1.317,0.327,2.225,3.388,2.588,0.569,3.319-5.57,3.2-2.284,3.244-2.545-5.737-5.649,1.607-3.822,5.489-5.959,10.063,4.741,2.257,3.421,7.639-3.476,4.78-11.595-0.611-4.025-2.986-2.532,3.019-4.728,2.793-.274,1.359-3.153h0.761l1.8,2.055,4.136,0.67,1.532,2.356,9.412,1.836,2.022,1.843,2.7-2.623,6.338-.977-1.072-2.476,2.97-5.8,6.459,1.6L507.2,804.6l4.505-4.505,8.762-3.241-0.99-2.986-4.545-2.3,5.175-8.416,5.593-.32,1.673-3.8,3.646-2.068,3.326,2.444,2.653-.777,0.761,2.525-0.722,3.829,2.614,4.084,1.183-.735,3.136,2.777,4.8,8.289-6.361,5.531,5.835,4.038L554,814.37,551,817.02l-0.189,3.943-2.826,2.686,0.444,2.6,3.881-1.565,2.79,0.608,5.3,6.554-3.662,5.871,2.9,2.718-0.618,2.382,1.532,2.169-3.13,4.11,1.872,6.446,2.672-.4,1.447,7.952,0.268,3.849-1.813,2.081-5.427-.02-3.894,1.372,0.987,2.215-1.575,3.388,2.784,2.49,2.447,3.208-0.843,6.789,2.934,2.751,0.49,4.149,2.228,3.47-2.111.925-1.235,5.116-4.61,2.79-0.719,7.88,2.519,3.185-2.186,3.254,4.819,2.532,2.744-9.1,2.705,0.173,5.352,4.185,2.669,0.614,0.931,2.476,5.381,0.751,3.287,2.509-5.407,9.03-0.644,1.251-5.231,1.99-6.776-1.447-1.431,5.214-3.133,2.806-4.946,2.094,0.075,3.943-1.869,2.094-2.375.791-5.61.5-6.962-3.607-2.712,2.891-2.568.448-1.379,2.15,0.814,2.483-2.186.869-6.73-.422-2.623-3.2-2.738-.327-1.683-2.2-7.495-2.744-1.2-2.444,2.61-2.852-0.337-1.326-7.358,2.169-1.679-2.209-2.578.876-2.189,3.489,1.032,2.571-1.14,2.525-3.891-.333,0.614-2.545-1.068-.758-1.558,1.977-4.6-1.709-2.382,3.963L477.6,955.8l-0.827-1.124-5.24,1.166-6.877-4.306,4.75-6.75,2.039-8.04,1.915-4.358-6.7,3.943-3.617-1.709Z" transform="translate(-18.487 -25.919)" fill="#ff8080" stroke="#000"/><text transform="translate(279.26 760.273)" font-size="72" font-family="DejaVu Sans" font-weight="700">1</text><text transform="translate(179.522 794.095)" font-size="61.02" font-family="DejaVu Sans" font-weight="700">3</text><text transform="translate(385.311 711.748)" font-size="72" font-family="DejaVu Sans" font-weight="700">4</text><text transform="translate(289.161 866.279)" font-size="72" font-family="DejaVu Sans" font-weight="700">2</text><text transform="translate(448.936 877.081)" font-size="72" font-family="DejaVu Sans" font-weight="700">5</text><path d="M469.021,506.523l-1.434-1.7L466.018,492.3l-3.849-6.09,0.121-2.506,2.342-2.908-1.8-4.342-12.784.8-3.96-4.218L440.9,470.82l-7.828,1.653-1.157-.748-8.2.987L414.2,471.15l-3.79-1.9-3.447-5.809-0.48-2.8,4.152-3.711-0.258-1.4-6.662-2.2,1.5-10.2,20.279,2.921,6.871-.751,5.423,0.941,3.744,0.83,0.216-2.5,2.326-1.091,3.561-2.124,3.336-4.371-0.294-1.359-4.453-3.28-13.849-2.921L424.6,423.49l-5.7.533-3.95.118,0.065-1.326-5.476-5.7,0.255-3.907-1.8-6.191-2.787.046-2.329-3.394,1.634-5.257-0.673-2.745,0.827-2.705-1.464-.915-4.234-6.289-0.065-4-5.485,1.2-5.2-1.869-5.646-3.855-0.346-4.081,3.881-.121,1.444-5.335-3-3,0.4-5.655L359.6,351.63l-0.787-.238-6.691-2.267L344.5,337.7l-3.855,1.369-1.039-.99-1.581-.039-2.12-1.7-9.461-.059-2.372-1.287-4.032.023-0.618,1.241,3.424,6.923,0.307,3.79-3.345,2.12-4.032.921-2.5-1.046-2.264,1.588-5.064,5.142-7.224.435-5.263,2.271-2.754-.281-2.454,1.186-1.1,3.927-2.15,1.477-3.826-.255-2.084,1.549-2.686,7.462-0.366,8.073-1.735.052-4.623,4.93-7.018-1.029-5.485,1.473-1.245.716-0.2,2.859-5.12.448-0.8-1.029-4.9-2.026-5.926,3.336-4.074-.5-9.38-2.359-2.32-1.65-2.6,1.17-4.362-.529-2.584.291-1.186,2.326-4.309,2.712-0.65-.366-13.986,3.8-5.838,6.443-2.771-.131-0.83-1.127,0.069-5.6-1.117-2.568-0.095-.049-10.8,11.425-6.4-.833-2.156,1.147-1.2.787-1.268,5.508-8.357.415-4.156,7.442,3.4,4.5-0.14,5.727-0.33,1.349-4.456,3.277,0.578,6.77-1.284.542,2.3,2.008-0.011.007-1.986,9.68,1.866,3.656-0.467,2.79-12.526,3.486-2.627,1.206-0.493,9.955-3.045,2.875-5.613-.98-0.931-1.1,1.134-5.417-0.709-1.261-2.855.408-5.1,1.673-7.625,5.528-4.78-2.852,1.555-3.672-1-.974-5.521.369-4.91-2.016-0.291.154-0.66,7.132-3.6,6.194-0.751,8.442-11.049,2.686-3.136-2.963-2.882.18-4.93,2.538L61.54,490l-2.686-3.313-0.817-4.2L53.2,487.084l-2.591.98L48.194,494.4l3.149,4.43-2.1,4.969,6.015,3.613-0.268,1.385-8.115.1-2.084-1.7-7.635,5.361-9.618,8.25-6.27,1.653-0.578,2.29,1.872,2.111,6.508,2.4,5.505,8.508,1.732,7.112,0.01,2.918-3.323,5.636,0.441,0.885-0.6,1.49-2.555-1.222-2.806.454-2.718.879L23.74,558.45l11.86,4.5,3.365,2.3,9.53,2.908,2.127,1.888,7.919,1.836,0.856-1.108-1.908-3.7,0.356-1.346,3.591-2.192,5.583-.849,9.2,3.571,3.133,2.976,2.594,4.992,9.436,6.594-0.01.016,2.329,1.042,6.792-1.99,5.92-5.982,5.577-1.157,1.931-3.633,6.511-2.705,1.545-3.921,3.225-.644-0.122-6.113,2.264,3.479,1.421-.095,7.469-4.071,11.02-2.6,8.537,0.405,7.753-3.47,2.2-.614,0.3,5.933,2.813-2.633,1.277-3.414,2.526,0.461-0.016,7.028,0.007,0L172.6,561.45l-4.917-2.179-3.934-.748-0.944.957-3.1,2.637-19.926,3.355-10.964,2.718-0.64,1.287,0.16,9.916-3.368,2.382,6.194,9.749,0.418,5.724-2.326,12.127-1.421,2.352-1.807,2.156-5.554-.892-6.6,1.97-1.908,3.617-4.152,3.963,0.617,1.186,7.919,3.071,9.942,1.117,7.436,3.868,8.455,0.944,4.159-.771,0.983,2.336,13.284,4.953,5.7,8.213,3.659,2.222,4.567,3.44,6.426,12.768,2.274,0.134,2,2,4.218,9.285,3.025,3,1.121-.722,5.048,1.277-0.526,2.705,1.513,5.41,5.054,4.767,6.446,2.98,11.278-.039L224,698.916,223.6,703l-1.457,2.3,9.569,1.594,2.725-.51,2.212,1.709,8.177-2.1,2.029,3.47-0.634,1.192,2.542,3,0.069,6.286,1.8,3.395,2.548,1.225,8.184-2.2,7.416,6.253,2.365-1.539h4.218l8.576,2.947,2.424-.709,6.364,3.2,8.174,2.035,0.614-5.244,2.61-.938,2.748,0.618,7.282-3.911-0.748-3.95-7.315-6.132-4.473-7.024,5.368,0.095,1.836-3.7-0.461-2.725-3.349-2.323-2.9-4.7,0.337-1.366-3.143-6.916,0.938-5.2,2.006-5.028-3-4.561,5.59-3.447,3.986-.9,5.577-6.1,1.114-.332,2.555,0.49,1.663,1.977,2.084,1.754-0.513,3.881,1.676,8.06,1.692,2.15,0.033,2.649-2.66,1.019-0.807,2.679,1.415,5.515,3.241,4.544-3.675,9.373,3.741,2.993,11.9-7.537,6.943-1.493,3.512-2.336,1.228,0.683,2-1.875-0.258-3.881,1.865-1.977,0.363-4.084-4.554-3.159,3.159-6.06-0.363-1.372-0.425-4.159-2.509-5.009,3.682-4.149,4.228,0.154,0.48-2.552,2.571,0.676,5.136,3.983,5.345-.173,0.65-2.457-1.192-.5,0.392-1.245,3.329-5.41-0.853-4.933,1-2.444,2.519-.529,1.4-2.228,1.33-.448,5.378,6.4,5.162,1.96,3.63,4.185,2.084,1.575,3.492,4.015,13.389,4.159,8.517-4.371-0.807-5.423,1.461-3.715-9.168-2.819-3.711-4.058-2.4-5.463-1.258-.248L389.87,637l-3.551,2.117-2.431-1.245,4.813-5,1.581-3.594-1.366-2.418,0.157-2.731-2.009-1.47,5.378-3.849,2.712-.085,5.757-5.593,5.227-5.015,2.156-6.26-4.152-2.79,0.585-2.375-1.7-3.656,1.745-2.862-3.881-2.287,2.045-8.543-4.1-4.617-2.519-.35-3.587,3.787-3.731,1.715-6.332-4.293-6.2-7.985-0.088-7.554-0.97-1.986-4.038-3.46-0.114-1.313-5.172.654-7.086.814-4.136-1.3-0.021-.009,4.7-5.453,4.038-1.4,4.5-5.574,6.773-2.493,7.178-.294,6.694-2.721,1.085-.846,6.26,0.219,6.379-2,3.617-4.267,6.975-1.346,8.508,0.183,0.618,0.663,2.8-.288,6.475-1.7,4.038,0.245,8.847,2.13,5.414-.3,6.132-2.819,3.973,0.647,2.274-2.245,2.833-1.522,3.339-2.8,2.761-.3,3.45-4.522Z" transform="translate(-18.487 -25.919)" fill="none" stroke="#000" stroke-width="4"/><path d="M788.034,459.549l-3.47-2.1,1.934-2.111,3.885-10.543,1.346-1.98,4.339-2.065-1.107-2.633,0.853-2.692-1.013-6.943-3.525-1.8-1.3.405-0.889,2.581-1.349-.189-0.732-3.96-4.466-.4-0.513,7.227-2.153,1.892-4.192.827-3.506,4.571-2.222-1.689-1.738-3.721-3.859-.644-1.3-3.97-1.4-.108-4.126,1.055-6.874-1.973-2.434,1.5-2.774-.722-5.015-5.025L733.7,422.14l0.843-2.026-4.848-7.828-4.384,4.4-1.794-3.849-7.119-.961-6.145-3.626-4.976,2.663-0.591-3.939-1.255-.487-1.784,1.944-2.323,4.848-0.069,4.055-3.816-.506-1.846,1.735-3.617-1.5-3.176-4.5-4.081.853-5.417-1.212-0.984-.876,0.01-5.237L671,397.768l-0.513-4.074,3.956-.451,5.3-4.747,0.248-2.784,2.79-.529-0.526-1.2-2.561.1-2.516-3.006-2.444-.784-9.553,8.508-5.521-1.434-8.6-4.551-5.956.742-6.828-1.49-4.848,2.682-4.081-.693,2.091-6.541-4.3-3.264,0.343-1.353-1.99-3.333,0.751-3.721-1.307-.15-0.631-2.721-7.122-4.492-1.408-.2,1.294,5.492,0.627,2.63-0.9,1.068-0.009,0,0.886-1.054-0.627-2.63-5.316-.827-6.874,4.123-2.14-3.623-5.165-4.541-7.465-3.336-3.542-.6-0.614,1.049,1.042,6.73L582.93,369.8l-7.622-2.79-3.538,1.542-3.2-1.941-7.273,9.38-9.841-.5-2.094,1.454-0.785.727,0.791-.734-4.46-3.045-5.564.438-5.378-1.686-2.558,1.192-3.646-.415-2.385,1.019-2.643-.9-2.757-4.679-1.323-.448-5.273,1.575-1.64-3.728-6.234-2.535-1.2-2.424-5.371.66-1.206.555,0.124,6.606-5.714-2.4-9.249-2.646,0.042-1.388-0.777-2.79-6.175-3.509-3.855-4.293,0.062,2.643-1.323.108-3.9-3.587-2.552-.333-3.43,5.446,3.764,1.669,1.741,3.77-7.276,3.306-2.274-.389-3.659-.588-1.81-1.545-2.526-.493-1.513-2.274-3.555,1.513-2.715-.526-8.772-.742-0.154-.1-2.78-.742-2.013-2.058L414.426,355.6l0.634,3.463-0.856.807-6.805-1.728-3.561-2.382-4.224-.647-1.751-3.737-2.767-.627-1.591-2.375-6.449-3.091-1.052.761,0.516,2.421,0.807,2.522-2.385,8.044-0.4,5.652,3,3-1.444,5.338-3.881.118,0.346,4.081,5.646,3.859,5.2,1.869,5.485-1.2,0.062,4,4.237,6.286,1.46,0.918-0.827,2.705L404.5,398.4l-1.634,5.257,2.329,3.395,2.79-.049,1.8,6.194-0.255,3.907,5.476,5.7-0.062,1.33,3.95-.118,5.7-.536,7.776,5.936,13.849,2.918,4.45,3.283,0.3,1.359-3.336,4.371-3.558,2.124-2.339,1.1-0.219,2.5-3.744-.83-5.423-.941-6.874.751L405.2,443.132l-1.5,10.2,6.658,2.2,0.258,1.4-4.152,3.711,0.477,2.8,3.45,5.809,3.787,1.9,9.507,1.562,8.2-.987,1.16,0.748,7.825-1.653,5.191,2.218,3.96,4.218,12.784-.8,1.8,4.342-2.342,2.908-0.121,2.506,3.849,6.09,1.568,12.516,1.431,1.7,0,0,5.474,8.128-3.447,4.518-2.761.3-3.342,2.8-2.833,1.519-2.271,2.248-3.973-.647-6.136,2.819-5.41.3-8.847-2.13-4.041-.245-6.475,1.7-2.8.288-0.621-.663-8.508-.183-6.975,1.346-3.617,4.267-6.351,2-6.26-.219-1.085.846-6.694,2.718-7.178.3-6.747,2.493-4.5,5.574-4.038,1.4-4.7,5.453,4.136,1.3,7.086-.814,5.172-.654,0.114,1.313,4.038,3.46,0.97,1.986,0.085,7.554,6.2,7.985L389,579.876l3.734-1.715,3.587-3.787,2.519,0.346,4.1,4.616-2.045,8.547,3.881,2.287-1.741,2.862,1.7,3.656-0.585,2.372,4.152,2.79-2.16,6.26,2.55-.33-2.549.33-5.227,5.015-5.757,5.593-2.712.085-5.378,3.849,2.009,1.467-0.157,2.728,1.366,2.424-1.581,3.594-4.812,5,2.431,1.238,3.551-2.111,14.731,2.519,1.258,0.255,2.4,5.463,3.711,4.058,9.168,2.819-1.46,3.715,0.807,5.423-8.517,4.371,1.973,1.973,3.881,1.326,4.832,2.222,5.427,0.281,2.016,1.078,2.526,1.3,2.65-.49,3.711,1.954,9.775,0.911,3.845-7.184,4.44,3.388,2.486-.555,5.054,6.6,5.1-1.673,1.627-2.169,5.547,4.933,3.777,1.634,2.594,6.354,2.744-.193,6.433,2.375,1.3-.461-0.258-2.584,2.068-3.342,3.777-.568,3.483-2.277,1.4-.046,1.9,2.042,1.294-.49-0.961-.964,3.483-2.061,2.32-3.362,4.015,0.542,3.211,4.339,2.806,0.34,3.466-2.222,1.4,0.248,5.378,4.551,4.46-3.5,5.08,2.813-0.056-2.271,2.591-3.153,6.413,2.6,4.028-.925,3.7,1.424,6.858-1.849,0.457-2.094,1.826-1.258,0.006,0,1.986-3.574,3.7-2.009,1.447-3.937,4.035,0.307,0.99-2.584-3.5-4.286-0.016-5.557-1-1,12.382-6.622,6.479-2,7.9,0.4-0.209,2.369-5.456,3.868,0.934,5.276,5.508-5.992,4.2,0.268,5.263-1.856,4.959,2.342,2.182-1.741,1.317-7.939,2.493-.882,0.1,1.339,1.317,0.222,6.338-2.029,1.209-.608,4.058,3.153,7.639-1.947,3.052-2.61,5.129-1.588,0.984,0.918,2.653-.448,2-1.748,1.307,2.11,4.93-1.977,9.481,4.875,4.463-2.637,1.376-3.581,8.08,2.79,4.14-.843,0.1,2.806-7.178,6.439-3.283,4.561,1.055,0.925,2.434,1.192,3.205-2.258,2.548,0.729,2.052,1.627,0.34,2.643,2.15,1.487,7.429-4.306,0.408-8.066,0.722-2.764,3.473-3.7,3.819,0.595,1.121,2.277,6.531,0.095,2.48,2.63,2.29-6.515-0.278-1.366-2.62-.862-0.5-1.3,1.349-3.8,0.2-2.826,6.116-11.709,8.531-7.972,4.894,6.289,2.754-2.571,2,0.843,2.715-4.819,0.853-5.479-3.381-2.32-0.17-1.382,1.656-3.417,3.64-2.973,1.1-1.993-1.219-.2,0-.01,0.385-5.574-1.313-4.015,2.016-3.519,1.039-8.086,2.049-1.568,0.3-2.8-1.709-1.839,8.664-13.078,1.072-5.544,5.009-1.238,3.277-4.1-1.914-6.737,3.741-.526,7.851-7.73-3.725-1.669-0.134-4.159-4-1.055,7.524-7.331,1.163-3.947-1.183-11.1,2.633-3.251,1.222-5.463,1.137-.81,0.5-3.326,5.4-7.171,1.31-10.415-4.907.248Z" transform="translate(-18.487 -25.919)" fill="none" stroke="#000" stroke-width="4"/><path d="M714.927,87.727l0.657-.624,1.254-8.373-3.29-2.48-2.6.18-1.006,2.457L708.6,79.1l-7.753.706L692.633,77.8l-3.084-2.5,0.225-5.374-1.5-2.235,0.931-.843-1.467-4.692-0.523-2.578-2.813-2.793-1.252.334,1.493-5.222,5.913-2.705,0.212-2.767L681.156,40.6l-3.466-4.208-1.15-1.777-3.2-2.774-3.744.97-4.048-1.268-2-2-1.843,5-2.271,1.728-0.862,1.183,4.861,5.064-2.156,3.764L656.4,49.385l-0.882,5.538-3.816-.5-0.167-2.735-1.166-.712-5.24-.614L642,48.427l-4.094,5.806-0.513,2.79-4.708,2.483,0.18,5.332-3.515-1.578-0.63-2.333L626.6,59.673l-4.887-2.084,0.372-2.421-1.568-1.536-2.173,1.7-5.544-.386,0.274-.343-6.224-2.826-1.068.885-4.277.124-3.352,4.587-4.015-.225-4.616-2.816-2.594,4.731L582.4,61.581l-5.067,7.785-1.343.336-1.738-1.964L572.2,71.065l-5.989-.8-0.307-.7-5.368,4.982-11.285,6.73,0.082-3.921-1.18-8.769-2.96-4.865-0.069,1.323-1.313-.157L541.078,67.7l0.016,2.617-1.215.526-2.682.536L535.635,69.4l-3.8,1.072-2.3-1.317-2.1,1.849-0.68,2.787,5.378,4.819-11.265,5.845-2.365-.16L516,82.039l-1.473-2.4,0.389-7.1L510.6,72.6l-5.368,4.332L503.6,71.278l0.719-1.157-1.66-2.049L498.6,64.139l-2.552-5.182-4.035-1.519L482.1,60.2l-6.123-2.45-1.611-5.208-5.6-.63-2.731-.9L463.72,52.7l-0.454,4.228-2.754,3.293-8.106,2.414-2.464-1.647L436.361,51.6l-0.6,2.111-2.016.774,0.748,1.209-2.075,1.875-0.686,4.208,1.055,6.782L435.27,71.9l-0.7,2.757,0.506,3.8-4.14,3.911-0.653,2.79L431.5,90.7l-0.065,1.47-0.356.467,7.482,15.247-1.046.732-2.294,4.992,2.395,1.209-0.98,5.557,1.095,4.143,2.767,4.8-3.721,7.292-0.48.461-6.188,6.194-2.111,3.885-0.774,5.864-1.748,1.879,0.35,7.119,5.018,13.264-1.817,3.943,1.454,2.039,2.091,1.954-1.072,8.537,1.192,8.609L435.4,200.7l1.353,13.735,1.768,8.089,1.055,6.844,2.444,4.783,4.123,3.427,1.107,0.6-1.862,3.065-1.379,4.015,1.418,5.358-1.519,2.427,3.372,6.3,0.885,6.606-0.974,2.538-2.406,1.209h0l-0.01.006h0l-5.513,3.244-5.142.7-2.744-.611-3.966-1.287-4.028-.568-4.11.983-2.107,6.338-5.227,1.251-2.084,1.562-1.415,4.773,0.487,5.688-2.117,2.094,1.117,2.522-1.532,5.227-1.967,1.872-0.127,5.482-4.433,2.777L398.481,314l-0.092,2.721,2.3,4.685-3.849,4.5-2.793-.154-2.512,2.833,2.209,3.251-0.529,2.63-1.964,7.1-2.7-.242-1.5,3.973,6.446,3.091,1.594,2.375,2.764,0.627,1.754,3.737,4.224,0.647,3.558,2.382,6.805,1.728,0.859-.807-0.634-3.463,13.016,1.572,2.009,2.058,2.784,0.742,0.154,0.1,8.769,0.738,2.715,0.526,3.558-1.513,1.513,2.277,2.526,0.49,1.807,1.549,3.659,0.585,2.277,0.389,7.276-3.3-1.741-3.774-3.764-1.669,3.427-5.443,2.555,0.33,3.9,3.587,1.32-.1-0.059-2.646,3.852,4.3,6.178,3.506,0.774,2.79-0.039,1.388,9.249,2.646,5.714,2.4-0.124-6.6,1.206-.555,5.368-.663,1.2,2.427,6.234,2.532,1.64,3.728,5.273-1.575,1.323,0.448,2.757,4.682,2.64,0.9,2.388-1.019,3.646,0.415,2.555-1.192,5.378,1.686,5.564-.438,4.46,3.048,2.094-1.454,9.841,0.5,7.273-9.38,3.2,1.941,3.538-1.542,7.622,2.79,4.048-7.024-1.042-6.733,0.6-1.039,3.542,0.6,7.465,3.336,5.165,4.541,2.14,3.623,6.874-4.123,5.316,0.827-1.294-5.492,1.408,0.2,7.122,4.492,0.63,2.721,1.63-2.2-1.176-6.792-1.964-9.063-0.3-.435-7.991,1.095-4.744-2.64-1.934-7.622-1.911-1.882,4.286-3.613,1.941-3.545,4.025,1.121-0.288-4.554,10.288,0.007-0.843-3.767,1.98-3.47-1.663-5.035-3.989-.784-0.382-1.307-5.123-1.254,1.944-2.071-0.683-4.156L616.26,301.5l4.221-1.01,1.313-3.754,2.248-1.454,12.81-.683,2.329-1.719,2.872,0.559,2.307-2.078,3.849-1.294,4.809-4.616,0.091-1.356-2.267-1.438-3.362-2.225,0.255-4.14-3.47-7.354-0.118-2.787,1.091-1.9-0.131.023-8.1-2.715,1.019-8.4-1.673-4.852,2.813-2.627,3.862,1.875,8.158-3.47,1.189-.869-0.9-.876,3.287-2.519,9.546,1.019,2.476,1.261,1.375-5.276,0.729-2.79-3.577-2.339,0.193-4.3,0.258-1.431,4.522-3.587,0.568-2.81-1.768-1.581-0.075-2.382-5.048-1.758-1.052-3.659-2.472-.359,4.149-5.1-2.617-2.542-0.529-1.251,0.993-.931,4.224-3.512,12.64-6.185,2-2.9,3.881-3.845,4.969-2.248-1.578-3.679,1.973-3.362-4.316-7.044-1.006-8.491,4.051-7.135-0.3-.477,0.876-4,2.581-3.329-1.023-5.623-1.692-2.287-1.807-.072-0.869-8.537,0.644-2.464,2.111-1.562,7.178,2.437-2.927-3.091-0.987-7.109,5.224-2.316,1.487-2.5,5.515-.154,3.754,1.839,2.627-3.2,2.568,0.144,1.542-1.882-0.781-2.548,1.023-2.254Z" transform="translate(-18.487 -25.919)" fill="none" stroke="#000" stroke-width="4"/><path d="M985.461,208.8l-1.954-1.911,0.513-1.431-7.5-6.194-6.613-2-5.577.467-1.114-.869-2.414-2.258-4.617-4.865-3.806-1.431,0.039-2.623-10.683,5.985-1.078-.846-4.636-2.944-1.81-3.744-2.359.01-0.934-1.928-1.157-4.14-3.064-3.064-2.006-5.384-2.895-3.254-0.967-5.515-2.751-.385-5.982-3.529-2.7.768-3.012,2.826,1.83,7.985-1.83.412-0.477-2.568-2.15-1.722-2.588.908-5.391-.755-4.032.062-9-2.395-2.63.382-0.212-4.4-1.735-2.385-4.927-.876-5.038-6.629,0.938-2.633,2.228-1.614-3.953-5.642-4.332,2.973-3.532-2.189-5.678.271-3.571-1.689-0.637-2.581-3.365-2.774-1.937,2.156-3.666-2.075-3.185-4.839-0.9-4.257,1.9-1.774-1.921-9.181-0.529-5.835-1.33-1.565L834.4,95.637l1.9-2,0.614-4.13-1.584-2.313-2.277-3.107L831.774,78.3l-2.865-3.4-0.777.438-2.519-.977-4.574-4.574-2.718-.542-4.672-2.774-3.989-.686-2.653.425-2-1.732-1.134.719-0.3,1.477-3.4,2.042-6.648.67-2.084-.392-6.39,4.211-0.833.591-5.45-.621L778.2,75.946l0.931,2.65-2.617.212-3.251-2.624-2.385.706,3.045,4.038,0.954,0.928-1.388,2.15,0,0-7.63,1.571-1.095-.751-2.846,1.532-2.29,7.955-1.085.987-4.378-.029,0.029,0.376-4.561,1.7-3.577,6.1,2.235,3.535-0.644,1.294-5.7-.2-4.61.082-4.953-3.947-0.523-2.656-6.537.866-0.536,2.568-8.132,4.025,0.477,1.268-1.349-2.875-1.542,1.882-2.568-.144-2.627,3.2-3.754-1.839-5.515.154-1.487,2.5-5.224,2.316,0.987,7.112,2.927,3.087-7.178-2.437-2.111,1.562-0.644,2.464,0.869,8.54,1.807,0.069,1.692,2.287,1.023,5.623-2.581,3.332-0.876,4,0.3,0.477-4.051,7.132,1.006,8.491,4.316,7.044-1.973,3.362,1.578,3.679-4.969,2.248-3.881,3.845-2,2.9-12.64,6.185-4.224,3.512-0.993.931,0.529,1.251,2.617,2.542-4.146,5.1,2.464,0.327,1.052,3.659,5.048,1.758,0.075,2.382,1.768,1.581-0.568,2.81-4.522,3.591-0.258,1.431-0.193,4.3L668.893,234l-0.725,2.775h0l-1.375,5.276-2.476-1.264-9.546-1.016-3.287,2.519,0.908,0.879-1.192.866-8.158,3.47-3.862-1.875-2.813,2.623,1.673,4.855-1.019,8.4,8.1,2.715,0.131-.026-1.091,1.9,0.118,2.79,3.47,7.354-0.252,4.136,3.359,2.228,2.267,1.438-0.092,1.356-4.809,4.616-3.845,1.294-2.3,2.1-2.872-.559-2.33,1.719-12.81.683-2.248,1.454-1.313,3.754-4.221,1.01,1.764,2.254,0.683,4.156-1.944,2.071,5.123,1.254,0.382,1.307,3.992,0.784,1.66,5.035-1.98,3.47,0.843,3.767-10.288-.007,0.288,4.554-4.025-1.124-1.941,3.548-4.286,3.613,1.911,1.882,1.934,7.622,4.744,2.64,7.991-1.095,0.3,0.435,1.964,9.063,1.176,6.792-1.63,2.2,1.307,0.15-0.751,3.721,1.99,3.333-0.343,1.353,4.3,3.264-2.091,6.541,4.081,0.693,4.848-2.682,6.828,1.49,5.935-.739,0.013,0.033,8.6,4.551,5.521,1.434,9.553-8.508,2.444,0.784,2.516,3.006,2.561-.1,0.526,1.2-2.79.529-0.248,2.784-5.3,4.747-3.956.451,0.513,4.074,5.325,8.324-0.01,5.237,0.983,0.876,5.417,1.212,4.081-.853,3.176,4.5,3.617,1.5,1.846-1.738,3.816,0.507,0.069-4.055,2.323-4.848,1.784-1.944L704.664,407l0.595,3.953,4.972-2.663,6.145,3.63,7.122,0.961,1.794,3.845,4.384-4.4,4.848,7.828-0.843,2.026,6.737,2.205,5.015,5.025,2.771,0.722,2.437-1.5,6.874,1.973,4.126-1.058,1.4,0.111,1.3,3.966,3.859,0.647,1.738,3.718,2.218,1.692,3.509-4.574,4.192-.823,2.153-1.895,0.51-7.224,4.466,0.4,0.735,3.96,1.349,0.186,0.889-2.581,1.3-.405,3.525,1.8,0.748-1.026,7.331-.581,4.525,5.436,12.97,1.588,4,3.813,0.725,2.568,10.935,4.617,4.041-3.581,2.653-.529-2.084-6.616-3.519-6.338L834.57,426.5l-2.408-3.6,5.064-8.664,3.741,0.925,7.2,8.775,2.653,0.516,5.463-1.294,0.761-5.446,1.95-3.764,3.963-1.268,0.846,1.114,5.531-.235,5.09-4.724,2.5,0.944,5.417-1.333,3.992-3.715-0.222-1.9,7.021,0.761,2.568-1.2,6.243-5.694,0.791-2.725-1.169-.852-2.744,3.107-1.379-.134-1.581-2.2-0.9-5.312-2.868-2.96,0.059-.189,3.764-4.211,4.068-.934,0.8-1.169-0.258-1.607,2.022-1.9,0.539-3.94,1.787-2.14,6.648-1.473,0.258-.075,6.6-5.646,6.211,1.892,1.467-2.257-3.228-4.365,0.2-1.362,1.715-2.146,1.32-.382,2.558,1.01,0.255-1.356,5.822-7.116,1.8-2.009,2.061-6.319,3.136-2.379,2.62,1.019,1.614-3.881-0.1-4.2-4.077-3.551,1.254-3.868-1.761-6.675,0.686-5.554,2.294-1.369,5.253-4.286,1.967,1.787,1.052,3.924,4.27,3.512,1-.977-1.745-6.8,0.467-8.243,1.15-2.538,8.011-2.868,0.885-1.137-0.774-4.133-5.9-11.549-1.134-2.633,2.823-3.326,1.447-5.436,1.33-4.107-0.64-5.642-6.933.477-1.7-2.146-2.663-.258-0.745-4.018,1.013-6.881-1.258-2.467,2.656-.9,8.374,0.67,2.581-1.1,0.552-8.367-4.09.676-3.924-1.451,0.487-1.268,4.2-.542,2.264-1.7,3.836-8.645-1.294-3.842,17.766-1.153Z" transform="translate(-18.487 -25.919)" fill="none" stroke="#000" stroke-width="4"/><polygon points="74.528 771.461 72.385 769.726 70.751 768.501 68.504 765.743 62.888 765.436 60.336 762.068 53.393 760.238 51.25 760.437 49.107 762.273 46.559 763.499 46.248 764.113 46.248 764.828 46.657 766.971 46.967 767.589 47.986 769.53 50.845 771.572 51.253 773.715 53.906 773.205 56.357 775.757 57.788 775.852 59.624 776.982 61.666 776.472 64.622 779.432 69.017 777.181 70.242 775.446 76.466 776.773 78.2 777.998 78.508 777.384 77.593 775.443 74.528 771.461" fill="none" stroke="#000" stroke-width="4"/><polygon points="115.269 692.243 115.471 676.525 112.613 671.625 104.955 667.541 95.251 662.023 92.494 661.921 91.269 659.572 91.883 654.472 91.066 653.453 88.515 654.169 91.168 653.045 94.944 654.881 96.068 653.963 95.454 646.811 86.061 640.685 80.347 640.476 73.303 641.6 75.652 647.932 73.202 653.035 73.202 655.894 78.004 659.161 82.804 666.41 86.172 668.554 89.642 666.002 95.359 666.103 101.995 671.618 107.202 678.459 111.185 689.28 113.537 692.854 114.762 693.57 115.269 692.243" fill="none" stroke="#000" stroke-width="4"/><path d="M578.28,923.587l-5.381-.751-0.931-2.476-2.669-.614-5.352-4.185-2.705-.173-2.744,9.1-4.819-2.532,2.186-3.254-2.519-3.185,0.719-7.88,4.61-2.79,1.235-5.116,2.111-.925-2.228-3.47-0.49-4.149-2.934-2.751,0.843-6.789-2.447-3.208-2.784-2.49,1.575-3.388-0.987-2.215,3.894-1.372,5.427,0.02,1.813-2.081-0.268-3.849-1.447-7.952-2.672.4-1.872-6.446,3.13-4.11-1.532-2.169,0.618-2.382-2.9-2.718,3.662-5.871-5.3-6.554-2.79-.608-3.881,1.565-0.444-2.6,2.826-2.686,0.189-3.943,3.006-2.65-5.763-5.41-5.835-4.038,6.361-5.531-4.8-8.289-3.136-2.777-1.183.735-2.614-4.084,0.722-3.829-0.761-2.525-2.653.777-3.326-2.444-3.646,2.068-1.673,3.8-5.593.32-5.159,8.39-0.006,0,5.175-8.416,5.593-.32,1.673-3.8,3.646-2.068-1.892-5.283,0.389-5.744,1.264-2.578,1.349-5.041,4.626-2.9-3.042-5.155-5.44.007-2.49-2.98-5.378-.983-4.228-3.669-2.29-1.111-1.483-3.587-1.937-2.411-6.034-8.53-4.718-2.385,3.937-7.25-0.575-2.6,1.817-2.035L506,710.318l-4.015-.81-1.735-3.842-6.119-2.891,0.222-2.418-8.1-.918-0.4-1.359,1.088-.964,3.656,0.34-0.441-2.764-3.545-.748-1.1-3.829-4.166.644-0.984-1.026,2.849-2.248-2.594-6.354-3.777-1.627-5.548-4.94-1.627,2.176-5.1,1.673-5.054-6.6-2.486.562-4.44-3.394-3.849,7.191-9.772-.918-3.711-1.954-2.65.5-2.525-1.307-2.016-1.072-5.427-.281L417.8,668.9l-3.881-1.32-1.973-1.977-13.389-4.152-3.492-4.018-2.084-1.568-3.63-4.185-5.162-1.967-5.378-6.4-1.33.448-1.4,2.228-2.519.536-1,2.437,0.853,4.94-3.329,5.41L369.7,660.56l1.193,0.5-0.65,2.457-5.345.167-5.136-3.983-2.571-.676-0.484,2.552-4.224-.154-3.682,4.152,2.509,5,0.425,4.159,0.363,1.372-3.159,6.06,4.554,3.159-0.363,4.084-1.865,1.983,0.258,3.881-1.98,1.857v0l-1.228-.683-3.512,2.336-6.943,1.493-11.892,7.531-3.744-2.986,3.675-9.373-3.241-4.544-1.415-5.518,0.807-2.672,2.659-1.019-0.033-2.65-1.692-2.156-1.676-8.053,0.513-3.881-2.084-1.754-1.663-1.977-2.555-.5-1.117.34-5.6,6.119-3.986.9-5.59,3.447,3,4.561-2.006,5.028-0.938,5.2,3.143,6.917-0.337,1.366,2.9,4.7,3.349,2.323,0.461,2.725-1.836,3.7-5.368-.095,4.476,7.024,7.312,6.132,0.748,3.95-7.282,3.911-2.748-.618-2.61.938-0.614,5.24-8.177-2.029-6.364-3.2-2.424.709-8.576-2.947h-4.218l-2.362,1.539-7.42-6.253-8.184,2.2-2.548-1.225-1.8-3.395-0.069-6.286-2.542-3,0.634-1.192-2.026-3.47-8.181,2.1-2.212-1.709-2.725.51-9.569-1.594,1.457-2.3,0.4-4.084-1.594-2.235-11.278.039-6.446-2.98-5.051-4.767-1.516-5.41,0.526-2.705-5.048-1.277-1.1.71v0l-2.96-2.96-4.286-9.292-1.941-2.042-2.359-.1-4.185,3.675-8.984,4.185-4.594,11.843-0.2,5.515-3.47,6.227-4.182,3.983,0.408,2.757-2.352-1.019L145.6,711.22l-3.065,6.227,2.45,1.124-2.859,2.96-9.494,1.634,2.248,12.353,1.225,15.721,5,4.9,18.279,12.967,20.828,22.154,1.532,6.943,2.45,3.675h6.534l6.227,9.086,6.737,12.252,6.332,5.515,1.431,3.983,3.983,3.777,2.352,9.6,8.168,26.954,1.634,9.494,3.47,2.143,2.143-1.735,2.653-.307,3.577,2.143,2.45,3.368,1.431,2.248,8.782,6.332,2.757,0.1,2.174-2.594-2.151,2.584,2.111,3.636,16.068,8.3-0.7,2.653,7.55,3.509,16.63,2.927,3.78,0.555,2.094-1.379,6.89,1.568,3.649,2.251,6.547,11.134,2.79,9.52L324,943.628l7,0.7,5.071-2.251,6.635,2.31,6.982-.9,6.472,1.843-6.4-2.7-0.908-1.219,5.77,1,3.8,1.928,4.875,5.142,6.844,15.169,5.316,1.48,1.179-1.581-5.378-2.526-2.263-9.449,2.56-.424,3.355,4.652L388.75,970.6l4.786,1.882,1.98,1.647,1.147-.742-2.277-4.855,1.186-.784,3.234-7.116-1.7-6.234,8.991-1.392,1.637-1.934,4.378,3.114,5.168,2.538,1.516-1.768,0.6-3.434,1.209-.013,0.911,2.509,5.227,1.16,4.786-2.107-0.565-1.212,1.885-1.813,5.456-9.131,0.827,2.532,9.187-3.917,10.919,0.735,1.294-.595,2.509-5.088,3.617,1.709,6.7-3.943-1.914,4.358-2.039,8.04-4.75,6.75,6.877,4.306,5.24-1.166,0.827,1.124,4.626-1.653,2.382-3.963,4.6,1.709,1.558-1.977,1.068,0.758-0.614,2.545,3.891,0.333,1.14-2.526-1.032-2.571,2.189-3.489,2.578-.876,1.679,2.209,7.358-2.169,0.337,1.326-2.61,2.852,1.2,2.444,7.495,2.744,1.683,2.2,2.738,0.327,2.623,3.2,6.73,0.422,2.186-.869-0.814-2.483,1.379-2.15,2.568-.448,2.712-2.891,6.962,3.607,5.61-.5,2.375-.791,1.869-2.094L554,947.035l4.946-2.094,3.133-2.806,1.431-5.214,6.776,1.447,5.231-1.99,0.644-1.251,5.407-9.03Z" transform="translate(-18.487 -25.919)" fill="none" stroke="#000" stroke-width="4"/><text transform="translate(54.513 326.081)" font-size="24" font-family="DejaVu Sans" font-weight="700">Loire-Atlantique</text><text transform="translate(609.513 665.581)" font-size="24" font-family="DejaVu Sans" font-weight="700">Maine-et-Loire</text><text transform="translate(277.181 138.596)" font-size="24" font-family="DejaVu Sans" font-weight="700">M<tspan x="21.492" y="0">a</tspan><tspan x="35.32" y="0">yenne</tspan></text><text transform="translate(827.284 88.093)" font-size="24" font-family="DejaVu Sans" font-weight="700">Sarthe</text><text transform="translate(89.306 904.581)" font-size="24" font-family="DejaVu Sans" font-weight="700"><tspan letter-spacing="-1">V</tspan><tspan x="15.398" y="0">endée</tspan></text></svg>