<svg xmlns="http://www.w3.org/2000/svg" width="962.224" height="760.037" viewBox="0 0 962.224 760.037"><title>Députés sortants de Maine-et-Loire en 2017</title><path d="M524.215,495.738l-9.98-7.1-0.774-9.248,2.919-5.235-5.149-7.231-9.5-6.8-5.909,7.025-2.934-.881-6.648,10.285-7.891-8.012-3.679-7.785-7.756-3.083-7.763-4.418,6.748-29.675-0.419-.433-7.564-8.779-8.033-3.267-7.905,3.857-16.556-1.669,1.925-14.511-0.5-7.948,2.692-.781,1.094-8.246,2.415-11.634,4.709-5.029L434.643,365l-1.229-2.863,4.681-7.991-0.32-9.12,3.14-5.391,3.864-6.449-3.615-15.008,8.843-8.2,4.553-3.161,21.394,1.087,15.811-20.392,6.954,4.219,7.692-3.352,16.571,6.066,8.8-15.278-2.266-14.632,1.335-2.28,7.7,1.314,16.23,7.252,11.229,9.873,4.653,7.877,14.944-8.964,11.556,1.8,1.364,5.718-1.953,2.323-8.729,1.826,1.428,8.63-4.816,7.607-7.16,3.722-1.648,8.935,5.242,7.493-7.145,9.56,1.286,2.827,5.228,7.11-0.767,5.76-12.671,5.526-6,.3-6.605,13.119-5.547,2.181,10.022,11.677-2.649,12.224L562.4,400.2l15.548-1.776,5.32-11.357,1.193-9.4,5.114-3.672,24.639,3.246-3.3,23.226-8.616.227-5.469,6.556,3.26,11.982,3.984,4.787,23.524,14.362-4.432,14.809-4.233,3.423-8.651.241-5.242,9.426-2.756.789,1.57,12.274-11.45,14.234,4.013,11.258-1.144,1.5-4.887,9.454-1.264,2.436,4.056,3.061-1.172,8.85,2.23,5.49-2.266,1.911L586.4,536.16l-4.8,7.1-5.931-.327-1.278,4.943-5.569-1.066-15.946,10.05-18.2-1.009-2.614-5.59-4.794-.512-0.248,4.46-5.746-1.918,1.108,7.323-6.485,2.621L514.26,559.6l-10.15-8.31-4.276-1.406,4.24-5.021,4.489-4.041,3.864-8.14,4.858-7.515,6.357-7.252,4.844-11.294-1.826-9.028Z" transform="translate(-25.417 -239.987)" fill="#ff8080" stroke="#000" stroke-width="2"/><path d="M350.518,671.4l-3.31-8.175,5.5-6.463L353,645.329l2.649-4.823-2.926-8.424-12.082-8.346,0.575-5.2,6.655,5.05,8.175,1.648,40.287,13.282,10.867,4.617,11.641-1.925,16.166-5.888,8.786,0.625,12.764-7.224,9.83-16.18,1.591-2.585,5.178-9.319,6.627-13.318,1.229-11.975,8.047-12.614,6.62-5.157,4.24-7.735,4.276,1.406,10.15,8.31,1.62,2.635,6.485-2.621-1.1-7.323,5.746,1.918,0.248-4.46,4.794,0.512,2.614,5.59,18.2,1.009,15.953-10.05,5.569,1.066,1.272-4.943,5.931,0.327,4.809-7.1,5.583,1.371,2.266-1.911-2.23-5.49,1.172-8.843-4.056-3.068,1.264-2.436,4.887-9.454,1.144-1.5,10.8,2.877,16.6,10.413L612.9,527.566l8.452,8.182,3.153,11.649-0.973,6.016-9.376,7.493,17.828,3.48,0.817,3.026,11.258,6.08,5.178-2.351,24.931,17.075,3.914-3.459,3.828,7.714-13,15.356-1.264-.753-2.9,17.466,4.049,4.34-1.627,8.459-15.377,2.685-6.045-4.816-8.644-11.79-0.831-11.6-5.881,1.442-8.3,16.521-0.753,9.269,3.558,8.495,0.575,9.028-10.335,6.03L612,657.454l7.359-16.294-0.085-6.016-4.922-3.161-12.032-1.016-1.151-2.813-2.664-1.094-4.411,7.238-7.87,3.2-1.6,4.887-4.816,2.38-6.662-3.984-2.614,4.148-1.058-2.763-8.552-1.364,0.838,8.154-5.647.774L552,642.254l1.215-2.465L548,638.469l-6.129,4.261-2.841,20.385-11.286,3.551L517.1,665.246l-15.427,11.883-3.757-4.382L481.521,667.3l-17.565.369-4.965,13.758-4.12,2.266-3.473-3.459-6.883,13.083-10.15,10.81,0.959,5.135-6.627,10.05-12.678,8.147,6.826,13.439,17.913,0.036-3.153,8.154-1.037,8.935,4.553,3.864-5.306,20.641,14.845,2.72,7.188-5.178,8.857,1.385,2.046,2.237-8.026,9.021-5.732,2.3-1.584,8.871-9.39,12.11,0.085,6.123,13.346,7.437-14.476,14.923-14.063,4.2-14.4-2.458-7.969,3.807-17.807,1.406-5.725-6.265,1.456-8.744-12.054.071-7.614-4.311-4.454-7.571-8.232,1.712-5.4-1.769-0.6-2.358,6.116,0.277,1.932-2.252,1.747-15.534L354.5,782.774l-9.2-6.868,14.838-10.036-2.607-1.321-0.5-8.694,3.409-4.865-3.971-10.8-2.308.739-28.312-6.094-2.2-9.034,1.066-5.7,5.149-2.493L329.2,705.341l-8.31-3.935,9.859-10.924,5.768,1.591,7.636,8.722,18.027,13.261,13.5-4.908,4.425-7.351,0.668-11.556-0.419-2.116-4.737-7.486L358.132,669.4l-2.8-1.108Z" transform="translate(-25.417 -239.987)" fill="#ff8080" stroke="#000" stroke-width="2"/><path d="M787.67,375.268l-2.727-1.058-3.878,4.226-5.05,10.541-0.149,8.815-8.3-1.1-4.013,3.772-7.863-3.26-6.9-9.781-8.871,1.854-11.776-2.635-2.138-1.9,0.021-11.386-11.578-18.1-1.115-8.857,8.6-.98,11.521-10.32,0.54-6.051,6.066-1.151-1.144-2.607-5.569.227-5.469-6.534-5.313-1.7L701.8,335.77l-12-3.118L671.1,322.757l-12.948,1.612-14.845-3.239-10.541,5.831-8.871-1.506,4.546-14.22-9.34-7.1,0.746-2.941-4.326-7.245,1.633-8.09-2.841-.327-1.371-5.917-15.484-9.766-3.061-.426,2.813,11.94,1.364,5.718-1.953,2.323-8.736,1.826,1.435,8.63-4.816,7.607-7.16,3.722-1.648,8.935,5.242,7.493-7.145,9.56,1.286,2.827,5.228,7.11-0.767,5.76-12.671,5.526-6,.3-6.605,13.119L548.712,374l10.022,11.677L556.085,397.9l6.364,2.259L578,398.387l5.32-11.357,1.193-9.4,5.114-3.672,24.639,3.246-3.3,23.226-8.616.227-5.469,6.556,3.26,11.982,3.984,4.787,23.524,14.362-4.432,14.809-4.233,3.423-8.658.241-5.235,9.426-2.756.789,1.57,12.274-11.45,14.234,4.013,11.258,10.8,2.877,16.6,10.413-11.017,9.489,8.459,8.175,3.146,11.656-0.973,6.016-9.376,7.493,17.828,3.48,0.817,3.026,11.258,6.08,5.178-2.351,24.931,17.075,3.914-3.459,3.828,7.714-13,15.356,8.942,8.623,5.959,10.9,4.375,10.91,9.617,10.775,18.865,13.3,2.642,1.477,18.851,13.545,15.662,9.4,8.807,12.82L770.524,704l10.576,6.868,2.9,7.905L808.1,739.362,821.685,741,840,745.591l6.84,3.331,11.393,7.707,12.757,5.384,9.219,7.252,8.282-.6,0.838-12.117-2.855-8.729,4.382-7.65,2.259-17.579,4.454-3.409,0.646-6.087-3.715-4,18.836-28.432,2.33-12.054,10.889-2.692L933.674,657l-4.162-14.646,8.133-1.144L954.712,624.4l-8.1-3.629-0.291-9.042-8.694-2.294L953.988,593.5l2.529-8.58L953.945,560.8l5.725-7.067,2.657-11.876,2.472-1.761,1.094-7.231,11.741-15.591,2.848-22.643-10.668.54-0.93-5.6-7.543-4.56,4.2-4.588,8.445-22.92,2.926-4.3,9.432-4.489-2.408-5.725,1.854-5.852-2.2-15.093-7.664-3.914L973.1,419l-1.932,5.611-2.934-.412-1.591-8.608-9.709-.867-1.115,15.711-4.681,4.112-9.113,1.8-7.621,9.937-4.83-3.672-3.779-8.09-8.389-1.4-2.827-8.63-3.047-.235-8.971,2.294-14.944-4.29-5.292,3.267-6.03-1.57-10.9-10.924-14.646-4.794,1.832-4.4-10.541-17.018-9.532,9.567-3.9-8.367-15.477-2.088-13.36-7.884-10.818,5.789Z" transform="translate(-25.417 -239.987)" fill="#06c" stroke="#000" stroke-width="2"/><path d="M611.949,657.489l3.146,5.149,10.335-6.03-0.575-9.028-3.558-8.495,0.753-9.269,8.3-16.514,5.881-1.449,0.831,11.6,8.644,11.79,6.045,4.816,15.377-2.685,1.627-8.459-4.049-4.34,2.9-17.459,1.264,0.746,8.942,8.623,5.952,10.9,4.382,10.91,9.617,10.775,18.858,13.3,2.642,1.477,18.858,13.545,15.662,9.4,8.807,12.82,7.934,4.418,10.569,6.868,2.9,7.905L808.1,739.4l13.58,1.633,18.3,4.588,6.847,3.324,11.393,7.707,12.757,5.384,9.219,7.252,8.282-.6,2.649,0.44-2.393,4.333-7.913,6.463-3.6,7.43,0.369,3,7.351,5.043-1.854,11.911-5.9,10.476-4.34-1.832-5.988,5.59-10.64-13.673L837.674,825.2l-13.3,25.456-0.433,6.144-2.934,8.253,1.087,2.827,5.7,1.875,0.6,2.969-4.979,14.163-5.391-5.718-14.2-.206-2.436-4.951-8.3-1.293-7.55,8.047-1.57,6.009-0.888,17.537-16.152,9.361-4.674-3.232-0.739-5.746-4.46-3.537-5.54-1.584-6.968,4.908-5.292-2.592-2.294-2.01,7.138-9.915,15.6-14-0.22-6.1-9,1.832-17.565-6.066-2.99,7.785-9.7,5.732-20.612-10.6-10.718,4.3-2.841-4.588-4.347,3.8-5.768.973-2.138-2-11.151,3.452-6.634,5.675L639.414,886.4l-8.822-6.854-2.628,1.321-13.779,4.411-2.863-.483-0.22-2.912-5.419,1.918-2.863,17.26-4.745,3.786-10.782-5.093-11.443,4.034-9.127-.582-11.975,13.026-2.031-11.471,11.861-8.41,0.455-5.149-17.167-.859-14.085,4.34-26.919,14.4,2.166,2.166,0.036,12.082,7.614,9.319-2.152,5.618-8.772-.668-3.146,8.559-8.047,4.368-4.318,7.77-5.448-2.458-8,3.423-3.992-7.558-17.082-5.327-4.588-3.828,4.34-10.462,5.064-2.706-18.147-13.431-2.72-5.228,3.992-7.877,9.2-7.742,6.9-12.678-5.341-2.259-2.664-5.356-14.5-2.926-3.9-7.558,3.48-7.266-7.976-8.339,14.056-4.2,14.476-14.923-13.346-7.437-0.078-6.123,9.39-12.11,1.584-8.871,5.732-2.3,8.026-9.021-2.046-2.237-8.857-1.385-7.2,5.178-14.845-2.713,5.306-20.648-4.546-3.864,1.037-8.928,3.161-8.161-17.913-.036-6.833-13.431,12.678-8.154,6.634-10.05-0.966-5.135,10.157-10.81,6.883-13.083,3.473,3.459,4.12-2.266,4.958-13.751,17.572-.376,16.393,5.448,3.757,4.389,15.427-11.89,10.647,1.421,11.286-3.551,2.841-20.385,6.123-4.261,5.22,1.321-1.215,2.465,4.112,7.479,5.647-.774-0.838-8.154,8.552,1.364,1.051,2.763,2.614-4.148,6.67,3.984,4.816-2.38,1.591-4.88,7.877-3.211,4.411-7.238,2.664,1.094,1.151,2.813,12.025,1.016,4.929,3.168,0.078,6.009Z" transform="translate(-25.417 -239.987)" fill="aqua" stroke="#000" stroke-width="2"/><path d="M462.315,966.5l-8.757,2.01-13.943-5.647-5.633,6.854,0.121,4.936-11.045-6.116-9.7,7.6-11.691-9.894-3.054-.54-7.536,4.83-6.1-.739L378,960.364l-8.729-1.179-5.043,7.309-7.571,4.482,2.088,2.1-2.813,1.066L351.8,969.7l-3.047.1-7.571,4.951-8.211,1.236-4.5,7.266,0.561,5.618-2.82,1L312.228,984.7l-5.966.419-5.64-13.815-8.211-3.551-12.06-10.725-3.537,4.716-11.095,3.637-10.988-14.348-5.405,1.207-9.653-7.365-8.36,15.619-21.251-1.982-8.069-4.248-5.76,1.066-5.49-2.827-4.382-2.344-11.8-.611-10.5-4.83-8.438-2.884-4.29-4.29,18.517-9.5-1.754-11.79,3.175-8.076-19.931-6.129-8.069-8.822-5.22-11.876-2.735-.554-32.026-5.476-7.721,4.588-5.285-2.692,10.462-10.86,3.438-7.813-2.969-5.27,0.341-5.931-4.368-3.189,11.691-8.367,5.9-.185,12.515-12.16,11.364-10.9,5.817-.753,16.315,5.008,3.558,4.709,1.278,8.744,5.029-.44,3.58,4.169,11.584-8.374,2.891-.59,3.281,4.858,2.869-.668-0.114,14.944,2.521,1.783,13.716-7.025,3.8-4.858,11.741,1.62,7.7-.518,3.928-6.129,5.547-.675,6.385,4.617,16.94,2.465,0.149,5.768,5.242,9.866-1.655,5.575,2.692,1.066-1.662,7.948,8.95,7.216,9.6-13.552,6.059,0.44,12.295,8.587,6.03,0.206,6.279,10.058,1.989-5.036,8.417,0.306,4.6,3.146,4.88-2.749-10.924-13.651,0.178-3.012,7.131-5.4L343.5,842l1.314-5.881-2.422-5.356,4.261-6.172,5.4,1.776,8.232-1.712,4.454,7.564,7.614,4.311,12.054-.064L382.95,845.2l5.725,6.265,17.807-1.4,7.969-3.814,14.4,2.458,7.976,8.346-3.473,7.252,3.9,7.571,14.5,2.912,2.664,5.37,5.341,2.244L452.856,895.1l-9.2,7.728-3.992,7.891,2.72,5.213,18.147,13.446-5.064,2.692-4.333,10.476,4.581,3.828,17.089,5.313,3.992,7.571,8-3.438,5.455,2.458-3.992,2.749-0.994,4.553-14.909,4.02Z" transform="translate(-25.417 -239.987)" fill="#26c4ec" stroke="#000" stroke-width="2"/><path d="M243.692,828.345l-5.54.675-3.935,6.129-7.7.518-11.734-1.62-3.8,4.858-13.723,7.025-2.514-1.783,0.114-14.944-2.869.668-3.281-4.858-2.891.59-11.584,8.374-3.58-4.169-5.029.44-1.278-8.744L160.79,816.8l-16.315-5.008-5.824.753,4.695-13.609-9.028-6.066,1.272-5.157-3.7-7.948,3.786-6.222-8.438-4.972,4.446-18.581-8.914-10.036-5.476-.753-7.8,8.232-8.118,3.729L87.61,741.825,74.129,724.466l-0.185-16.422-2.109-4.318L63.056,696.2l-0.248-2.855L51.564,694.77l-15.406,1.769-8.992-2.827L37.38,681.857l8.779-3.04L55.939,666.7l14.667-5.419,15.6-.646,14.554-5.909,2.358-1.839,13.609,0.476,13.808-4.34,7.863-9.276,15.164-2.926,18.5,0.4,1.35,1.442,6.087-.625,14.078-3.7,8.786,0.533L221.6,639.5l11.762-.653,13.339-6.129,8.637,1.406,4.936-4.887,6.158-3.3,7.266-6.08,6-.661,7.493-9.823-11.911-17.686,4.475-6.293,7.848-.859L287.247,552.8l5.98,0.781,3.36,8.4,2.38-5.363,5.313-2.038,19,8.182,20.271,2.578,3.459,4.482,0.213,5.668,2.784-1.158,13.914,5.633,14.76-.192,1.982-5.071,5.59-1.733,7.813-2.2,0.668-2.962-4.5-7.777-4.958-3.417,0.32-9.049,3.921-4.226,5.533,0.17,5.917-9.781,2.145,2.038,8.381-.291,14.454,10.008,12.97-3.111,7.82,2.713L444.878,534.7l8.3-3.686-6.059-10.555,5.455,0.7,4.844-2.841,8.346,1.967,10.91,8.679,8.09,4.759,8.694-1.193,2.038,2.443,2.735,0.6,3.544,3.14,0.888,1.463-0.334,1.975,1.8,2.657-4.233,5.021-4.24,7.735-6.627,5.157-8.04,12.614-1.229,11.975-6.627,13.318-5.178,9.319-1.591,2.585-9.83,16.18-12.764,7.224-8.786-.625-16.166,5.888-11.641,1.925L396.3,638.5,356.016,625.22l-8.175-1.648-6.655-5.05-0.575,5.2,12.082,8.346,2.926,8.417-2.649,4.83-0.291,11.435-5.5,6.463,3.31,8.175,4.759-3.083,2.806,1.108,17.487,11.236,4.737,7.486,0.412,2.109-0.661,11.563-4.432,7.351-13.5,4.908-18.027-13.261-7.628-8.722-5.768-1.591-9.852,10.924,8.31,3.928,0.653,12.266-5.142,2.493-1.073,5.7,2.2,9.034,28.312,6.094,2.315-.739,3.963,10.8-3.4,4.865,0.49,8.694,2.607,1.321-14.838,10.036,9.2,6.868,1.413,21.919-1.747,15.534-1.925,2.252-6.116-.277,0.59,2.358-4.255,6.172,2.422,5.356-1.321,5.881-6.244,10.214-7.131,5.391-0.178,3.012,10.924,13.666L335.97,877l-4.6-3.146-8.417-.291-1.989,5.036-6.279-10.072-6.023-.192-12.3-8.6-6.051-.433-9.6,13.538-8.95-7.216,1.669-7.948-2.7-1.066,1.655-5.569-5.242-9.873-0.149-5.76-16.94-2.465Z" transform="translate(-25.417 -239.987)" fill="#ff8080" stroke="#000" stroke-width="2"/><path d="M216.028,457.006l-0.476,5.434-8.14-1.8-11.79-2.046-14.944,1.633-44.08-6.35-3.267,22.182,14.476,4.78,0.561,3.04-9.028,8.069,1.037,6.087,7.5,12.629,8.232,4.141,20.669,3.4,17.835-2.145,2.521,1.627,17.011-3.594,11.286,4.823,8.608,9.17,27.793-1.733,3.921,9.439-5.093,6.322-0.263,5.448,8.367,13.24L272.175,588l3.111,3.7,4.475-6.293,7.848-.859-0.355-31.728,5.98,0.781,3.36,8.4,2.38-5.363,5.313-2.038,19,8.182,20.271,2.578,3.466,4.482,0.206,5.668,2.784-1.158,13.914,5.633,14.753-.192,1.989-5.071,5.59-1.733,7.806-2.2,0.675-2.962-4.5-7.777-4.958-3.417,0.32-9.049,3.921-4.226,5.533,0.17,5.917-9.781,2.145,2.038,8.381-.291,14.454,10.008,12.97-3.111,7.82,2.713-1.854-10.384,8.3-3.686-6.059-10.555,5.455,0.7,4.844-2.841,8.346,1.967,10.91,8.679,8.09,4.759,8.694-1.193,2.038,2.443,2.735,0.6,3.544,3.14,0.888,1.47-0.334,1.967,0.724,1.25,1.073,1.406,4.5-4.041,3.864-8.14,4.858-7.515,6.35-7.252,4.851-11.294-1.826-9.028-2.493-1.826-9.972-7.1-0.781-9.248,2.919-5.235-5.149-7.231-9.5-6.8-5.909,7.025-2.934-.881-6.648,10.285-7.891-8.012-3.679-7.785-7.756-3.083-7.756-4.418,6.74-29.675-0.419-.433-7.564-8.779-8.033-3.267-7.9,3.857-16.563-1.669,1.925-14.518-0.5-7.941,2.7-.781,1.087-8.246,2.415-11.634,4.709-5.029-3.111-.142-1.229-2.863,4.681-7.991-0.32-9.12,3.14-5.391,3.864-6.449-3.615-15.008,8.843-8.2-9.7-6.62-12.1.952-11.691-3.665-5.562,2.592-7.927-.9-5.185,2.216-5.746-1.967L386.125,292.4l-2.877-.973-11.464,3.423-3.566-8.1-13.552-5.512-2.607-5.27L340.383,277.4l-2.621,1.207,0.27,14.362-12.423-5.22L305.5,281.993l0.092-3.019-1.69-6.066-13.424-7.628-8.381-9.333,0.135,5.746-2.877.235-8.488-7.8-5.547-.724-7.458,11.84,8.182,3.629,3.786,8.2-15.818,7.188-4.943-.845-7.955-1.278-3.935-3.36-5.49-1.073L228.4,272.76l-7.728,3.289-5.9-1.144L195.7,273.293l-0.334-.213-6.045-1.612-4.375-4.475-28.3-3.417,1.378,7.529-1.861,1.754-14.8-3.757-7.742-5.178-9.184-1.406-3.807-8.125-6.016-1.364-3.459-5.164-14.021-6.719L94.853,242.8l1.122,5.263,1.754,5.483-5.185,17.487-0.859,12.288,6.513,6.513L95.06,301.44l-8.438.256,0.753,8.871,12.274,8.389,11.307,4.063,11.926-2.6,0.135,8.7,9.212,13.666,3.175,2-1.8,5.881,1.463,5.966-3.551,11.428,5.064,7.38,6.066-.107,3.914,13.467-0.554,8.495,11.9,12.387-0.135,2.891,8.587-.256,12.4-1.165,16.9,12.906L225.78,430.4l9.674,7.138,0.646,2.955-7.252,9.5-7.735,4.617Z" transform="translate(-25.417 -239.987)" fill="#06c" stroke="#000" stroke-width="2"/><text transform="translate(441.51 209.902)" font-size="156.53" font-family="DejaVu Sans" font-weight="700">1</text><text transform="translate(229.18 228.624)" font-size="156.53" font-family="DejaVu Sans" font-weight="700">7</text><text transform="translate(725.945 345.053)" font-size="156.53" font-family="DejaVu Sans" font-weight="700">3</text><text transform="translate(546.587 580.935)" font-size="156.53" font-family="DejaVu Sans" font-weight="700">4</text><text transform="translate(321.578 709.111)" font-size="122.702" font-family="DejaVu Sans" font-weight="700">5</text><text transform="translate(451.146 413.041)" font-size="96.573" font-family="DejaVu Sans" font-weight="700">2</text><text transform="translate(162.874 548.852)" font-size="156.53" font-family="DejaVu Sans" font-weight="700">6</text></svg>