<svg xmlns="http://www.w3.org/2000/svg" width="918.742" height="968.406" viewBox="0 0 918.742 968.406"><title>Députés sortants de Mayenne en 2017</title><path d="M392.3,650.217l-13.055-17.586-26.619,4.449-8.661-4.322,10.023-16.8-4.885-6.237,0.79-10.986,4.185,0.681,4.458-1.97,16.523-.672L374.9,583.588l-3.786-8.253L339.9,580.746l-12.61-8.67-13.827-17.84-6.564-3.6-7.2-13.854,7.372-1.58,1.407-3.523-5.066-13.936,1.834-3.314,10.885,3.005,4.993-8.888-1.271-6.891,10.649-4.222,19.174-1.57,20.754,9.542,6.736-1.934,2.487-14.88,18.53,2.179-6.246-10.4,6.846-14.626,6.891-3.995,4.267,6.374,11.23,3.831,1.489,11.276,9.315,6.855,0.318,3.958-1.307,4.113,13.428,4.73,3.423-1.389-0.118-10.976-4.376-5.9,4.767-5.819,35.2,4.33,6.473-2.152,3.995,5.865,7.735-.835,10.323,5.484,15.479,0.971-0.826-11.585-7.1-8.525,8.207-12.728,0.944-3.949-7.063-9.723-3.069-11.721-2.061-10.486,6.437-12.8,15.67-.191,12.429-9.814,8.443-8.834-1.062-8.025-5.093-6.374,0.218-12.075,7.935-7.136,10.159,3.441,2.188-3.014,7.717,8.988,15.67,2.987,24.776-12.32,5.756-3.759,1.988-6.237,8.743-1.589,7.826-8.706,2.361-14.562,9.733-6.428,8.126-5.1,11.766-9.124,5.792-33.973,23.587,4.14,15.851-11.9,4.531,10.985,4.449-4.521-1.026-10.758,3.368-16.9-2.025-2.833,4.131-4.067-3.078-11.376,7.7-8.607-3.386-7.127,17.413-7.69-4.73-20.6-9.179-12.256-0.5-3.868,13.981-12.973,3.468-1.77,10.667,3.713,1.734-16.078,9.723-11.539,7.654-.944,6.745,3.323,15.57-14.862L808.5,99.944l29.034-3.459,3.568-.953,7.817,7.762,1.452,7.163,4.076,13.037-2.587,2.342,4.158,6.21-0.626,14.934,8.57,6.954,22.833,5.574,21.544-1.961,3.722-.59,2.8-6.827,7.227-.5,9.142,6.891-3.486,23.269-1.825,1.734,3.023,41.381-2.842,6.264,2.17,7.081-4.285,5.229-7.136-.4-7.3,8.888-10.431-5.111-15.325.427-4.131,6.954-14.517,6.437,2.742,19.755,8.135,8.588-19.946-6.773-5.865,4.34-1.789,6.846,2.415,23.723,5.02,0.2,4.7,6.355,2.842,15.625-7.172,9.251-2.433,11.121,0.826,1.325-11.258,19.828,2.8,23.6,11.993,19.574-5.484,9.342,4.385,10.222-13.809,6.246-10.785,10.686-5.556,8.053-35.126,17.186-11.739,9.76-2.76,2.587,1.471,3.477,7.272,7.063-11.53,14.181L753.5,533.192,737.592,531.3l-6.264,14.971-11.775,3.278L715.431,535.9l-10.323-10.45-15.153.191L682.2,547.2l-13.691,7.372-10.259,5.865-7.671,1.407-1.725-3.005-13.291,3.731L616.618,564.3l-10.595-3.75-10.341,4.231-5.647,2.17-2.878,10.032-18.721,19.338,7.463,11.612,0.944,18.829-24-5.357L542.4,632.2l-3.214-2.388,0.69-11.857-2.506-3.1-18.893,3.9-6.709,14.109L501.6,626.7,487,628.228,476.288,637.8l-10.522,21.481,0.726,3.976,23.105,6.219-0.191,14.944-16.961,5.992L442.6,707.668l-7.163-.436L432.78,724.2l3.55,5.965-6,4.7-15.452,3.187,0.191-7.617-7.717-8.017,6.7-8.761-6.4-13.655-0.617-3.514-8.18-4.748,1.28-23.26Z" transform="translate(-13.56 -18.023)" fill="#ff8080" stroke="#000" stroke-width="2"/><path d="M567.491,927.129l2.9,18.711-11.249,19.52-21.181-7.753-9.832,4.285-8.888-5.393-20.209,26.065-27.345-1.389-5.819,4.04-12.392-8.47-15.461,1.216-14.944-4.685-7.1,3.314-10.132-1.153-6.637,2.833-7.335-2.506-7.662-13.01-3.677-1.244-14.653,4.376-4.558-10.359-17.322-7.036-3.341-6.745-14.916,1.843-3.35,1.543,0.345,18.348-15.879-6.673-25.7-7.354,0.109-3.858-2.152-7.753L261.935,928.1l-10.7-11.939,0.163,7.354-3.668.29-10.849-9.969-7.1-.917-9.524,15.125,10.459,4.639,4.839,10.486-20.218,9.179-6.328-1.081-10.168-1.625-5.02-4.3-7.018-1.362-4.2-6.328-9.887,4.2-7.544-1.462L140.8,938.339l-0.427-.281L132.635,936l-5.583-5.72-36.17-4.367,1.761,9.623-2.388,2.243-18.911-4.8-9.887-6.618-11.739-1.8-4.875-10.386-7.681-1.743-4.43-6.6L14.82,897.24l4.167-11.04,7.49,0.672,5.456-19.719,1.471-7.308-6.137-9.033,6.981-7.871,7.762,0.427L52.7,830.874l-6.4-13.019,0.254-7.563,3.84-6.246,12.32-7.717L63.072,781.1l5.465-5.2L72.8,761.367l-3.1-7.009,5.883-5.819-1.353-15.806,3.931-13.264,5.792-4.34,14.526-3.477,5.856-17.613,11.421-2.733,11.194,1.58,11.022,3.577,7.626,1.7,14.29-1.943,15.352-9.033,1.5,3.7,11.648,2.515,8.389,22.27,15.316,2.551,3.168-11.4,23.977-2.215,6.273-5.166,8.143,5.347,2.814-1.743,3.468-1.816-1.226-7.753,10.359-24.821,3.822-6.728L259.3,656.952l-4.775-18.339-0.118-.191,11.194,1.661,10.758-11.566,7.217-3.25,6.047-14.6,3.913-.754-10.513-10.268-3.94-11.022,7.572,0.8,2.778-2.833-8.189-12.674,1.68-3.586,19.483-1.416,4.349-6.455,0.236-11.766,6.555,3.6,13.836,17.84,12.6,8.661,31.213-5.4,3.786,8.253,0.145,13.183L358.6,597.5l-4.449,1.97-4.185-.681-0.79,10.986,4.885,6.237-10.023,16.8,8.661,4.322,26.61-4.449,13.055,17.586,7.8,18.276-1.271,23.26,8.18,4.748,0.608,3.514,6.4,13.655-6.743,8.689,7.717,8.017-0.191,7.617,15.452-3.187,6-4.712-3.55-5.956,2.66-16.968,7.163,0.436,29.842-17.259,16.986-5.9,0.191-14.944-23.105-6.219-0.726-3.976L476.3,637.888l10.713-9.569,14.6-1.526,10.168,6.173,6.709-14.109,18.893-3.9,2.506,3.1-0.69,11.857,3.214,2.4,10.45-10.813,24,5.357-0.944-18.82-7.463-11.621,18.721-19.338,2.878-10.032,5.647-2.17,10.341-4.231,10.595,3.75,18.947-1.716,13.291-3.74,1.725,3.014,7.671-1.416,10.259-5.865,13.691-7.372,7.753-21.562,15.153-.191,10.323,10.45,4.122,13.655,11.775-3.278,6.264-14.971,15.906,1.888,20.99-12.356,6.855,0.908L784.283,532l14.027,4.885,0.209,6.618,4.912,4.394-1.58,7.808-12.565,9.969-0.717,3.976L788.032,581.6l9.941,6.5-2.025,7.753-3.822,14.662-6.882-3.5-26.528-2.833-9.133,7,2.515,2.433-3.3,2.415-22.67,9.642-10.731-5.211-7.817,7.3,4.649,13.482-2.833,23.341,22.506,7.544,0.363-.064-3.032,5.293,0.327,7.744,9.642,20.436-0.708,11.5,9.342,6.183,6.3,3.995-0.254,3.767-13.364,12.829-10.695,3.6-6.41,5.774-7.98-1.553-6.473,4.775-35.6,1.9-6.246,4.04-3.649,10.431-11.73,2.806,4.9,6.264,1.9,11.548-5.4,5.756,14.235,3.486,1.062,3.632,11.085,2.179,4.621,13.991-5.5,9.642,2.342,10.468-28.589-.018,0.8,12.656L642,852.064l-5.393,9.851-11.911,10.041,5.311,5.229,5.374,21.181,13.183,7.335,22.207-3.042,0.826,1.207,5.456,25.184,3.268,18.875-4.531,6.119-1.752-7.563L654.246,934l-3.913-.545,3.6,15.262-14.771-2.3-19.1,11.458-5.947-10.068-14.353-12.62-20.745-9.269-9.841-1.68Z" transform="translate(-13.56 -18.023)" fill="#06c" stroke="#000" stroke-width="2"/><path d="M465.527,163.587l0.227-10.895-3.278-24.367-8.225-13.518-0.191,3.677-3.649-.436-7.6,7.826,0.045,7.272-3.377,1.462-7.454,1.489-4.34-5.493-10.568,2.978-6.4-3.659-5.847,5.139-1.888,7.744L417.928,156.2l-31.3,16.242-6.573-.445-6.936-6.274-4.094-6.682,1.081-19.719-11.993.173L343.192,151.53l-4.521-15.715,2-3.214-4.612-5.693-11.294-10.931-7.091-14.4-11.212-4.222-27.527,7.672-17.014-6.809-4.476-14.471L241.882,82l-7.59-2.5-6.446,4.694-1.262,11.748-7.654,9.151L196.406,111.8l-6.846-4.576L151.82,81.143l-1.671,5.865-5.6,2.152,2.079,3.359-5.765,5.211-1.907,11.693,2.932,18.847,6.9,9.288-1.934,7.662,1.407,10.568-11.5,10.867-1.816,7.753L138.3,189.8l-0.182,4.086-0.99,1.3,20.79,42.371-2.905,2.034-6.374,13.872,6.654,3.359-2.724,15.443,3.042,11.512,7.69,13.337-10.341,20.264-1.334,1.28-17.2,17.213-5.865,10.795-2.152,16.3-4.857,5.22,0.971,19.783,13.945,36.86-5.048,10.958,4.04,5.665,5.811,5.429L138.3,470.594l3.314,23.923,7.536,0.935,3.759,38.167,4.912,22.479,2.932,19.02,6.791,13.291L179,597.933l3.078,1.661L176.9,608.11l-3.831,11.158,3.94,14.889-4.222,6.745,9.369,17.513,2.46,18.357-2.705,7.054L175.2,687.2l1.5,3.713,11.648,2.506,8.389,22.27,15.325,2.551,3.16-11.4,23.977-2.215,6.273-5.166,8.153,5.347,2.806-1.743,3.468-1.816-1.226-7.753,10.359-24.821,3.822-6.728-13.582-4.975L254.5,638.632l-0.118-.191,11.185,1.661,10.767-11.566,7.217-3.25L289.6,610.7l3.9-.754L282.99,599.666l-3.931-11.022,7.572,0.8,2.769-2.833-8.189-12.674,1.688-3.586,19.474-1.416,4.349-6.455,0.236-11.766-7.2-13.854,7.372-1.58,1.407-3.523-5.066-13.936,1.834-3.314,10.885,3.005,4.993-8.888-1.271-6.882,10.649-4.231,19.174-1.57,20.754,9.551,6.736-1.943,2.487-14.88,18.53,2.179L392,480.444l6.846-14.617,6.891-4L410,468.2l11.23,3.831,1.489,11.276,9.315,6.855,0.318,3.958-1.307,4.113,13.428,4.73,3.423-1.389-0.118-10.976L443.4,484.7l4.767-5.829,35.2,4.34,6.473-2.161,3.995,5.865,7.735-.835,10.323,5.484,15.479,0.971-0.826-11.585-7.1-8.525,8.207-12.728,0.944-3.949-7.063-9.723-3.069-11.721-2.061-10.477,6.437-12.81,15.67-.191,12.429-9.814,8.443-8.834-1.062-8.025-5.093-6.374,0.218-12.075,7.935-7.136,10.159,3.441L573.73,359l7.717,8.988,15.67,2.987,24.776-12.32,5.756-3.759,1.988-6.237,8.743-1.58,7.826-8.706,2.361-14.562,9.733-6.428,8.126-5.1,11.766-9.124,5.792-33.973,23.587,4.14,15.851-11.9,4.531,10.985,4.449-4.521-1.026-10.758,3.368-16.9-2.025-2.833,4.131-4.067-3.078-11.376,7.7-8.607-3.386-7.127,17.413-7.69-4.73-20.591-9.179-12.266-0.5-3.868,13.981-12.973,3.468-1.77,10.667,3.713,1.734-16.078,9.723-11.539,7.654-.944,6.745,3.323,15.57-14.862-2.079-10.631,29.034-3.45,4.185-14.635L858.2,74.433l0.59-7.69L832.067,50.556l-9.632-11.693-3.2-4.939-8.879-7.708-10.4,2.7L788.707,25.39l-5.565-5.556-5.121,13.89-6.31,4.8-2.4,3.287,13.509,14.072-5.992,10.459-13.546,8.634-2.451,15.389-10.6-1.389-0.463-7.6L746.527,79.4l-14.562-1.707-8.706-5.375L711.882,88.451,710.457,96.2l-13.082,6.9,0.5,14.816-9.769-4.385-1.752-6.482-5.9-3.486L666.87,97.775l1.035-6.727-4.358-4.267-6.037,4.73L642.1,90.439l0.762-.953-17.3-7.853-2.969,2.46-11.884.345L601.4,97.184l-11.158-.626-12.829-7.826-7.209,13.146-12.565,6.991L543.562,130.5l-3.731.935L535,125.982l-5.7,9.242-16.641-2.233-0.853-1.952-14.916,13.845Z" transform="translate(-13.56 -18.023)" fill="aqua" stroke="#000" stroke-width="2"/><text transform="translate(647.119 468.448)" font-size="200.077" font-family="DejaVu Sans" font-weight="700">1</text><text transform="translate(264.565 850.524)" font-size="200.077" font-family="DejaVu Sans" font-weight="700">2</text><text transform="translate(252.524 367.02)" font-size="200.077" font-family="DejaVu Sans" font-weight="700">3</text></svg>