<svg xmlns="http://www.w3.org/2000/svg" width="976.451" height="625.928" viewBox="0 0 976.451 625.928"><title>Députés sortants de la Vendée en 2017</title><path d="M249.576,461.214l4.311,9-5.444,8.984,0.32,10.056,8.843,18.64-1.232,2.334-3.368,2.562-13.123,3-19.859,13.664-7.894,1.022-2.439,4.809,0.788,9.009-1.564,1.755,5.751,7.2,2.094-.973,5.234-6.232,13.123,0.253,8.732,5.819,18.683,0.086,4.52,2.777,1.847,6.41,4.988,3.836,5.222,0.517,10.456,11.62,10.21,0.659,9.539,3.886-0.129,7.322,10.093-1.663,12.359-8.831,6.848,18.067,0.807,5.148,4.163,3.128-0.462,17.969-1.379,2.211-5.185-.431-1.595-2.057,3.88,9.717,14.668,6.447,7.882,0.924,12.365-5.086,2.685-.111,7.242,7.863,1.133,10.394,12.728,13.732,3.2-.431,10.468-6.4,4.335-8.861L427,645.3l9.563,1.225,3.048,4.391-0.006,7.863-4.3,18.067,15.635-1.035,3.381,9.514,9.126,4.834,0.56,2.574-3.43,3.91L462,701.71l6.195,4.655,6.891-3.454,8.461-13.4,9.8-.77,4,2.131L526.7,680.6l6.626,1.108,3.978-5.136,2.439-2.094L555.673,664l1.792,0.24,5.173-.77,9.736,3.042,6.583-4.618,7.4-.936,2.58-4.557,7.821-1.792,1.774-1.718-0.721-6.386,10.487,1.669,9.9-.456,1.022,5,5.006,1.047,6.46,7.888,12.2,5.567,5.936-8.732,7.827-2.069,4.052-6.687,2.383-1.158,4.853,1.983,1.891-1.6,10.272,2.186,6.466,7.925,0.6,7.623,16.5-13.4,10.068,0.166,1.047-2.475-3.67-6.786-5.881-4.859-6.829-6.878-1.041-7.42-2.069-1.4-2.094-1.416-4.791,1.539-0.018-2.66,7.026-7.242-3.972-15.229,2.494-15.345-8.529-4.341-1.343-7L672.2,569.062l-8.5,3.454-7.057,7.168-10.123-1.669-1.755-4.7-2.482-.757-7.457-3.368-6-8.467-2.149,1.01-0.64,7.851-12.889,2.081-5.185-1.25-7.045,11.355-7.6.049-3.689-3.67-7.291,1.539-4.551-2.143-2.328-1.921-2.284-1.238-1.829-7.6,3-6.915-5.912-4.544-19.853-18.055-6.17-7.783,2.051-4.773,4.421-2.876-0.092-4.859,1.86-7.771,11.774-5.844,5.493-9.114,2.118-15.912-4.68,1.539-4.218-5.542-9.366-2.937,0.61-5.517-2.315-1.287-6.62,4.4-13.086,2.814L507.937,486l-7.057-5.628,6.928-17.667-6.109-8.566-2.666-10.4,1.521-5.037,5.013-1.921-0.062-4.994-3.19-4.064-3.159-15.179,0.967-7.316-3.929-3.307L493.06,398.2l-4.815-.936-2.106.64L475.59,409.438l-7.512,1.706-10.536,6.5,5.653,8.6-3.781,9.477-1.767,9.8,5.924,13.036-0.634,2.574,5.474,8.861,6.312,4.378,0.868,5.136-3.461,6.964-10.117-.179,8.436,13.24,13.781,11.558,1.41,7.445L471.914,525.9l-5.179-1.164-4.92,1.767-1.158,9.877-15.413-3.824-12-6.035-4.569,1.336-16.164-5.554h-7.95l-4.452,2.9L386.128,513.42,370.7,517.558l-4.8-2.309-3.393-6.4L362.377,497l-4.791-5.653,1.195-2.248-3.818-6.54-15.419,3.96-4.169-3.221-5.136.961-18.036-3,2.747-4.329,0.751-7.7-3.005-4.212-21.257.074-12.149-5.616-9.52-8.984-2.857-10.2,0.991-5.1-9.514-2.408-2.112,1.361-1.533,7.155-7.962,5.739-0.462,4.748,5.357,4.908Z" transform="translate(-14.564 -363.278)" fill="#06c" stroke="#000" stroke-width="2"/><path d="M696.257,751.4l-4.877-1.072-4.194-6.386-2.482-.616,2.746,7.143-1.626,4.7,1.25,5.074,1.484,2.168,4.446,2.716,3.818,9.73-1.213,5.1-4.735,1.718-1.268,4.957,0.77,2.334L686,790.907l-7.827-5.025-3.584,2.876-2.223-.7-3.627,6.047,0.48,5,9.877,2.272-10.431,17.969-2.635-.062-16.048,4.3-6.527-5.487-15.85,1.158-4.865,5.3-2.038,9.526-0.234.807-7.987-1.4-15.8,2.383,0.3,12.544-4.07,14.625-1.188,1.416-10.216,8.313-1.041-4.5-7.34.646-6.491,11.091,2.272,4.717-1.41,2.2-5.117-1.059-8.837,4.489-2.648,4.329,3.454,9.551-1.6,7.346,4.643,2.18,0.585,2.513-1.712,4.052,3.042,3.03,2.143-.616,3.461,3.454,7.316-.394,0.757,4.883,3.442,3.319,6.46,3.054,6.133,10.21,4.273,17.846,10.136,4.76-2.223,2.98-10.019-2.79-12.9-28.591-9.188-9.692-7.168-3.633-10.875-1.878,1.712,2.3,12.07,5.086-12.2-3.473-13.16,1.706-12.507-4.353-9.557,4.243-13.19-1.312L501,926.449l-5.259-17.944L483.4,887.519l-6.878-4.243-12.987-2.956-3.947,2.6-7.125-1.047-31.344-5.517-14.231-6.613,1.324-5-30.285-15.635-3.978-6.854,5.006-6.016-0.634-5.222,2.34-4.582,12.026-4.3,1.367-13.049-5.277-9.071,16.325-1.287-7.279-16.417-0.092-10.136-20.2,3.99L363.1,773.487l-4.742,2.094,2.075-9.175-2.8-4.04,3.362-9.3,2.192-7.051,4.748-5.69,8.972-3.522,7.962-6.9-1.084-5.013-4.027-3.257L353.669,711.36l-7.611.382,3.208-7.014,4.021-3.2-2.063-6.613,1.5-4.933-2.5-3.775-3.331,3.177-4.643-.086-1.6-8.338,10.733-7.131,7.956-.856,7.771-7.242,3.325-7.254,14.231-5.591L397.4,666.629l3.2-.431,10.468-6.4,4.335-8.861,11.583-5.665,9.563,1.225,3.048,4.378-0.006,7.863-4.3,18.067,15.635-1.035,3.381,9.514,9.126,4.846,0.56,2.562-3.43,3.91,1.423,5.062,6.195,4.655,6.891-3.454,8.461-13.4,9.8-.77,4,2.143,29.355-10.272,6.626,1.108,3.978-5.148,2.439-2.081,15.93-10.475,1.792,0.24,5.173-.77,9.736,3.03,6.583-4.606,7.4-.936,2.58-4.557,7.821-1.792,1.774-1.73-0.721-6.373,10.487,1.669,9.9-.456,1.022,5,5.006,1.047,6.46,7.888,12.2,5.554,5.936-8.72,7.827-2.081,4.052-6.675,2.383-1.164,4.853,1.983,1.891-1.6,10.272,2.186,6.466,7.925,0.6,7.636,16.5-13.412,10.068,0.166,1.047-2.463-3.67-6.786-5.881-4.871-6.829-6.866-1.041-7.42-2.069-1.41,6.121-4.317,7.944-6.564,5.154-1,6.7,4.015,25.654,4.7,7.71-16.343-23.234-5.832-0.474-2.069,17.1-16.836,7.661,2.235,2.746,7.543,6.884,7.913-1.164,4.717-6.558,3.775,6.952,3.719,7.919,0.191,6.023,4.643L770.645,624.5l-3.165,9.742,1.847,1.78-0.9,4.957,2.4,7.3-1.5,12.15,1.3,1.453-2.562,5.955-5.271.517-5.684,8.9,5.628,4.785,1.145,7.586-9.009,21.854-14.4,6.54-4.255-6.435-18.966-8.935-10.345,11.232-3.03,7.193L714.7,731.729l-6.109,4.785-6.041,4.317Z" transform="translate(-14.564 -363.278)" fill="#ff8080" stroke="#000" stroke-width="2"/><path d="M234.551,406.981l-7.888,6.928L209.728,421.8,201.07,444.12l-0.382,10.394-6.54,11.737-7.882,7.506,0.77,5.2-4.434-1.921-14.625,15.395L162.2,504.165l4.618,2.118-5.388,5.579-17.895,3.079,4.237,23.283,2.309,29.632,9.422,9.237,34.453,24.441,39.257,41.757,2.888,13.086,4.618,6.928h12.316l11.737,17.125,12.7,23.092L289.4,713.915l2.7,7.506,7.506,7.119,4.434,18.092,15.395,50.8,3.079,17.895,6.54,4.04,4.04-3.27,5-.579,6.743,4.04,4.618,6.349,2.7,4.237,16.552,11.934,5.2,0.191,5-5.967-0.579-5.2,2.309-4.618,12.125-4.237,1.355-13.086-5.388-9.058,16.349-1.349-7.328-16.349V772.225l-20.2,4.027-14.434-2.7-4.809,2.118,2.118-9.237-2.7-4.04,3.27-9.237,2.118-7.106,4.809-5.579,9.046-3.658,7.888-6.928-1.158-5-3.849-3.27-26.171-10.2-7.7.382,3.27-6.928,4.04-3.27-2.124-6.54,1.539-5-2.494-3.849-3.27,3.27-4.618-.191-1.73-8.276,10.776-7.119,7.888-.77,7.888-7.316,3.264-7.316,14.237-5.579-1.158-10.394-7.112-7.888-2.7.191-12.507,5-7.882-.77-14.625-6.54-3.849-9.816,1.539,2.118,5.2,0.382,1.349-2.131,0.579-17.882-4.237-3.27-0.77-5-6.928-18.092-12.316,8.855-10.007,1.539v-7.316l-9.428-3.849-10.2-.579-10.585-11.737-5.2-.579-5-3.849-1.724-6.349-4.618-2.7-18.665-.179-8.658-5.782-13.086-.191-5.2,6.158-2.118.961-5.776-7.119,1.539-1.718-0.77-9.058,2.309-4.8,8.079-1.164,19.822-13.664,13.086-2.888,3.27-2.5,1.349-2.5L248.8,489.158l-0.382-10.007,5.388-8.855-4.237-9.046,2.124-4.618-5.388-4.809,0.579-4.809,7.888-5.776,1.539-7.119-5.579-5.579-8.079-17.513L239,407.178Zm-154.717.961L66.557,410.06l4.427,11.934-4.618,9.619V437l9.052,6.158,9.046,13.664,6.349,4.04,6.54-4.809,10.776,0.191,12.507,10.394,9.816,12.895,7.506,20.4,4.434,6.737,2.309,1.349,0.954-2.5,0.382-29.625-5.388-9.237-14.434-7.7-18.289-10.4-5.2-.191-2.309-4.427,1.158-9.612-1.539-1.921-4.809,1.349,5-2.118,7.119,3.461,2.118-1.73-1.158-13.48L90.6,408.336Zm-50.8,225.73-4.04.375-4.04,3.461-4.8,2.309-0.585,1.158v1.349l0.77,4.04,0.585,1.164,1.921,3.658,5.388,3.849,0.77,4.04,5-.961,4.618,4.809,2.7,0.179,3.461,2.131,3.849-.961,5.573,5.579,8.282-4.243,2.309-3.27,11.731,2.5,3.27,2.309,0.579-1.158-1.724-3.658-5.776-7.506-4.04-3.27-3.079-2.309-4.237-5.2-10.585-.579-4.809-6.349Z" transform="translate(-14.564 -363.278)" fill="#06c" stroke="#000" stroke-width="2"/><path d="M693.16,622.28l-4.785,1.539-0.018-2.66,7.026-7.242-3.978-15.241,2.5-15.333L685.376,579l-1.343-7.014-11.866-2.876-8.51,3.454-7.057,7.155-10.13-1.669-1.749-4.692-2.482-.757-7.457-3.368-6-8.467-2.149,1.01-0.64,7.839-12.895,2.094-5.179-1.25-7.045,11.355-7.6.049-3.689-3.67-7.3,1.539-4.544-2.155-2.328-1.915-2.284-1.238-1.829-7.6,3-6.915-5.912-4.557L548.536,537.3l-6.17-7.771,2.051-4.773,4.421-2.876-0.092-4.859,1.86-7.771,11.774-5.844,5.493-9.114,2.112-15.912-4.674,1.527-4.218-5.542-9.366-2.937,0.61-5.511,3.769-3.534-0.486-7.316,3.516-3.738,0.684-7.7-8.584-5.955,5.955-11.423L556.5,423.67l-0.8-7.839-4.729-9.428,6.94-7.827,7.962,0.289,0.911-4.809,4.846,1.275,9.68,7.506,10.074-.314,1.225-4.631-2.248-.948,0.739-2.346,6.275-10.2-1.607-9.311,1.885-4.594,4.748-1.01,2.629-4.2,2.506-.844,10.136,12.063,9.73,3.707,6.842,7.888,3.929,2.956,6.583,7.574,25.235,7.827,3.719,3.725,7.316,2.488,9.108,4.2,10.228,0.53,3.8,2.02,4.76,2.463,4.994-.936,7,3.683,18.418,1.73,7.254-13.553,8.369,6.4,4.686-1.059,9.526,12.445,9.619-3.153,3.067-4.1,10.456,9.311,7.119,3.067,4.889,11.977-5.37,4.237,1.854,1.934,7.851-1.213,2.081,7.217,6.681,1.41,0.831,5.21-6.891-.64-2.051,1.816,0.751,2.562,15.265,1.73L824.9,476.51l11.534,5.45,3.27,7.242,7.568,1.527-2.044,4.391-3.424,3.836,1.084,4.908-7.42,13.664,8.892,4.5L855.736,538.1l3.652,4.544,2.8,6.762L866.5,551.5l7.968,6.915L884.6,560.27l4.692,5.616,10.253-.012,5.733,9.717-8.72,5.474-2.543,9.5-2.383,4.859L890.9,606.251l3.565,9.957-6.872,3.9-3.153,7.168-10.542.6-9.754,15.863,8.566,4.341,1.866,5.628-16.516,6.109-8.492,8.492-9.138-9.212-12.174-3.017-5.6,10.93,2.02,4.668-11.946,1.841-5.093,4.945-3.812-3.473-17.741-3.461-2.888-4.44-7.8-1.262-3.393-3.873h-1.435l-1.293-1.465,1.5-12.15-2.408-7.3,0.9-4.957-1.847-1.78,3.165-9.742,7.759-10.394-6.016-4.631-7.919-.2-6.952-3.719,6.552-3.775,1.17-4.717-6.891-7.913-2.746-7.543-7.654-2.235-17.1,16.836,0.474,2.069,23.227,5.832-7.71,16.355L721.129,615.8l-6.7-4-5.154,1-7.944,6.552-6.121,4.317Z" transform="translate(-14.564 -363.278)" fill="#8040c0" stroke="#000" stroke-width="2"/><path d="M761.586,923.019l-2.439,1.121-20.58-1.385-17.316,7.383-1.558-4.773-10.284,17.211-3.553,3.418,1.065,2.284L697.9,952.25l-9.852-2.186-1.718-4.729-2.278.025-1.139,6.472-2.857,3.332-9.742-4.785-8.252-5.868-3.085,3.645-16.947,2.623,3.2,11.749-6.1,13.412-2.235,1.478,4.292,9.151-2.162,1.4-3.732-3.1-9.021-3.547-26.1-26.029-6.324-8.769-4.865.807-6.139-10.21-6.453-3.054-3.442-3.332-0.757-4.871-7.316.394-3.454-3.454-2.143.616-3.042-3.03,1.706-4.052-0.579-2.513-4.643-2.18,1.6-7.346-3.454-9.551,2.648-4.329,8.837-4.489,5.117,1.059,1.41-2.2-2.272-4.717,6.484-11.091,7.346-.646,1.041,4.5,10.216-8.313,1.188-1.416,4.064-14.625-0.289-12.544,15.8-2.383,7.987,1.4,0.234-.807,2.038-9.526,4.865-5.3,15.85-1.158,6.527,5.487,16.048-4.3,2.635,0.062,10.425-17.969-9.877-2.272-0.48-5,3.627-6.047,2.223,0.7,3.584-2.876,7.827,5.025,4.372-1.934-0.77-2.334,1.275-4.957,4.735-1.718,1.207-5.1-3.812-9.73-4.446-2.716-1.484-2.168-1.25-5.074,1.626-4.7-2.746-7.143,2.482,0.616,4.194,6.386,4.877,1.072,6.256-10.5,6.035-4.3,6.115-4.8L703.818,721.2l3.03-7.2,10.345-11.232L736.16,711.7l4.255,6.447,14.4-6.552,9.009-21.854-1.152-7.586-5.628-4.773,5.69-8.911,5.265-.517,2.562-5.943h1.435l3.393,3.873,7.8,1.262,2.888,4.44,17.741,3.461,3.812,3.473,5.093-4.945,11.946-1.841-2.02-4.668,5.6-10.93,12.174,3.017,9.138,9.212,8.492-8.492,16.516-6.109-1.866-5.628-8.566-4.341,9.754-15.863,10.542-.6,3.153-7.168,6.872-3.9,6.269,4.606,5-1.465,1.435,4.76-1.361,7.217,4.926,7.7,2.229-1.385,5.912,5.234,9.046,15.622-11.99,10.425,11,7.611,10.862,10.2-5.665,4.994-0.357,7.432-5.327,5.062,0.837,4.908,7.316-2.95,5.259,1.145,9.994,12.353-6.9,11.066,5.474,5.123-1.164,4.489,2.888,4.089-5.9,7.747,3.528,12.15,5.037-.757,2.728,14.988,0.5,7.254-3.418,3.923-10.228-.037-7.34,2.586,1.86,4.175-2.968,6.386,5.246,4.692,4.612,6.047-1.589,12.8,5.53,5.185,0.924,7.821,4.2,6.54-3.978,1.743-2.328,9.643-8.689,5.259-1.355,14.853,4.748,6-4.12,6.133,9.083,4.773,5.173-17.15,5.1,0.326,10.087,7.888,5.031,1.158,1.755,4.668L983.5,892.7l6.195,4.729-10.191,17.02-1.213,2.358-9.859,3.75-12.771-2.728-2.7,9.828-5.905,5.29-9.323,3.947,0.142,7.432-3.522,3.947-4.477,1.49-10.573.948-13.122-6.8-5.111,5.45-4.84.844-2.6,4.052,1.533,4.68-4.12,1.638-12.685-.795-4.945-6.029-5.16-.616L865.087,949l-14.126-5.173-2.254-4.606,4.92-5.376-0.634-2.5-13.868,4.089-3.165-4.163-4.859,1.65-4.126,6.577,1.946,4.846-2.149,4.76-7.334-.628,1.158-4.8-2.014-1.429-2.937,3.725-8.676-3.221-4.489,7.47-8.72,3.116-1.558-2.118-9.877,2.2-12.962-8.116,8.953-12.722,3.843-15.155,3.609-8.215-12.636,7.432-6.817-3.221Z" transform="translate(-14.564 -363.278)" fill="#ff8080" stroke="#000" stroke-width="2"/><text transform="translate(440.215 270.394)" font-size="135.707" font-family="DejaVu Sans" font-weight="700">1</text><text transform="translate(252.225 334.142)" font-size="115.012" font-family="DejaVu Sans" font-weight="700">3</text><text transform="translate(640.102 178.933)" font-size="135.707" font-family="DejaVu Sans" font-weight="700">4</text><text transform="translate(458.878 470.197)" font-size="135.707" font-family="DejaVu Sans" font-weight="700">2</text><text transform="translate(760.024 490.556)" font-size="135.707" font-family="DejaVu Sans" font-weight="700">5</text></svg>