<svg xmlns="http://www.w3.org/2000/svg" width="964.041" height="967.702" viewBox="0 0 964.041 967.702"><title>Députés sortants de Sarthe en 2017</title><path d="M467.109,251.275l7.527,4.865-0.265,6.383-2.959,6.324-7,2.42-1.823,17.407,7.344,11.082-6.051,8.96,0.406,6.457-3.8,13.469-5.595,4.219-20.765.913,4.484,9.565L424.14,354.165l-14.6,1.078-4.683-5.7-7.054-1.442-4.658,5.587-10.427,1.89,2.694,16.271,3.282,6.374,13.992-1.608,10.494,2.213,1.31,14.207L411.8,403.46l5.827,1.475,8.057-9.648,9.739,7.75,5.993-2.246,1.293,14,17.158,3.523,0.365,6.532,5.5,4.078-3.116,1.517-1.567,6.739-9.458,3.614,2.777,17.05,6.963,7.278,12.607-1.293,2.6,9.408L456.02,486.979l5.363,7.087L459.974,497l7.758,14.149,2.951,3.556,1.5,4.153-0.514,4.476,1.127,1.028,3.97-3.506,0.862,10.925,2.4,0.738,1.774,3.68,5,1.244,2.337-.8,0.24,3.249-6.888,2.454-9.69-.679-9.458-4.269,4.144-5.786,1.136-3.324-3.1-1.989-3.415-.025-9.251-2.4-4.965.191-7.941-1.707-6.092-4.46-3.6.671-14.58,2.586L403.252,522.5l-6.391-8.911,2.371-2.445-3.705-5.3,8.247-18.393-4.973,1.475-7.982,11.961-12.773-6.681-4.219,5.388-13.718,1.384-4.318-5.645-1.5-10.411-8.306-6.673,3.025-13.942-2.8,2.122-16.619-1.053-2.163,2.768,4.617,9.093-5.264,4.194-10.743-9.7-6.8-1.849L291.1,479.345l-5.33-4.31-9.043,13.4-6.805-2.478-24.7,1.285L235.8,476.236l-9.764,3.78-21.22-2.511-1.558-5.943,7.493-5.305-11.066,3.78-3.183-5.355L188.1,459l-9.648,1.931-6.275-2.445,1.849-7.079-9.076-5.935,0.489-10.908,0.655-3.63,11.472-9.11L179,414.7l-4.484-4.012-0.191-6.043-12.806-4.46-2.669-9.284-6.25-.829,10.518-12.947-6.64-6.449-1.343-3.175,2.52-2.362,10.718-8.911,32.07-15.691,5.073-7.352,9.847-9.756,12.607-5.7-4-9.333,5.007-8.529-10.95-17.871-2.553-21.543,10.278-18.095L225,241.146,227.221,231l6.548-8.455-2.594-14.265-4.294-5.8L222.3,202.3l-2.2-21.667,1.633-6.25,5.355-3.962,18.211,6.183-7.427-7.833-2.5-18.045,13.254-5.877,3.772-6.349,13.992-.39,9.524,4.667,6.664-8.115,6.515,0.365,3.912-4.774,3.424,7.294-1.21-3.216,20.631-10.212,1.359-6.515,16.586-2.2,1.326,6.739,12.566,10.013,11.7-.207,14.456,0.5,1.633-3.282-5.67-8.969,9.076-15.467,11.571-4.318-0.074-.953,11.107,0.075,2.752-2.5,5.81-20.183,7.219-3.887,2.777,1.907,19.4-4,1.9,2.769-4.484,4.907,7.145,11.571-5.247,3.9-0.6,6.946-13.3.68-0.381.34,12.168,17.05,1.21,3.316-3.63,5.4,5.479,8.587,19.429-4.269,14.166-15.9,17.141,26.906-2.942,2.014,0.7,10.3-0.265.24-4.484,9.814-10.925-6.324-4.658,9.308-9.93,3.191-7.51,16.031,10.51,0.473,4.575,4.65,1.185-3.357,10.651,0.274,6.035,3.713,3-1.9,1.144,10.775-5.09,17.606-9.532,1.89Z" transform="translate(-14.36 -20.072)" fill="#ff8080" stroke="#000" stroke-width="2"/><path d="M759.857,589.894l4.31-10.361,5.264-4.368,5.28-12.964,3.531,0.041,13.279,20.507,2.827-17.473-4.468-16.943,6.324-3.307,2.694-6.64,6.673-1.9,2.487-6.731-13.751-2.221-12.384-6.175-15.285,3.506-13.611-2.23-7.3-7.916,1.5-3.3-2.793-6.7-5.23-4.907-14.108-3.125-6.847,1.4-11.6-16.056-21.717-9.251,1.666-5.545-8.687-1.4-6.938-7.294-15.525-3.133-3.017-1.774-0.2-10.295-8.115-6.631-6.938-1-1.525-10.419,8.421-6.731,6.788-16.57-0.514-7.245,5.7-9.209,3.581-.588-2.719-6.316-5.8-4.029-9.416,2.744-12.284-1.4-7.029-6.341-4.865,7.236-2.478-1.641-4.567,5.347L592.6,382.122l-18.145,27.047-5.048,4.12-5.007-4.343-9.251,3.531-8.6-1.393-4.575,5.338-0.8,10.527-3.448.8-5.719-4.136L511.306,425.7,496.361,439.9l10.138,2.586,8.67,15.558-7.51,11.77-17.945,6.623-1.517,3,3.937,5.62-4.683,5.587L485.2,508.437l0.141,3.332,6.515-1.732,8.363,5.429,3.2-1.144,5.4,4.169-10.743,18.4-15.55,5.438-9.69-.679-9.449-4.277-4.791,2.014-1.533,7.584-8.637,6.747-10.858.8,15.575,14.133L457.122,582l-2.511,12.085,5.943,15.981-12.235,11.845,2.271,6.1,6.043,3.44,6.913-.862,6.855-8.115,7.054-.663,8.745-6.067-1.873-5.86,2.951-1.749-2.827-5.993,1.881-6.391,9.648-3.274,6.664,7.858,18.136,9.541,15.923,1.152,6.673,1.558,2.727-6.217,10.743,0.323,13.279,12.019,14.4,2.586,3.29,13.892,0.887,7.286,9.557,3.6,11.041,30.86,6.1,2.6,22.032-32.194,18.459-14.332-0.514-2.5,6.755-2.246,10.469,2.628,10.278-3.216,5.015,4.551,7.021,0.514,1.782,3.108-3.772,9.425,22.645,17.34,9.367,4.891,12.2-8.264,7.319-.779,6.084-11.14,6.109-2.768,3.05-6.009-7.65-7.609-10.436-1.865-2.984-6.407,0.473-7.269,17.929-.688-0.713-3.556,1.434-1.31,4.683-13.627Z" transform="translate(-14.36 -20.072)" fill="#ff8080" stroke="#000" stroke-width="2"/><path d="M764.342,855.106l-6.963,7.883-3.5-.34-4.012-5.57-2.28-13.478-7.278-7.51,0.149-.481,9.549-10.684,10.32-2.371,2.023-2.967L761.7,815.51l5.131-4.816,1.367-10,4.534-5.429L789.6,791.53l0.655-.191L807,777.016l15.757,4.8,3.722-5.727-8.189-11.074,0.514-3.456,4.352-5.446,3.349-.97L833,757.7l0.647-3.44,14.771-18.053,4.575-5.1,5.23-16.031,7.958-6.035,6.648,2.586,4.095-9.847-0.265-10.651-10.344-9.01,3.183-9.814-4.468-16.935,1.741-14.091,5.819-3.473,13.328-10.875,4.99,4.534,2.669,9.955,10.834,8.911,2.545-2.478-4.426-17.249,1.185-20.913,2.918-6.44,20.325-7.278,2.246-2.885-1.964-10.486-14.961-29.3-20.813,13.022-10.295-2.719-3.175-6.324-6.93.041-31.092-17.68-8.8-11.331L831.4,524.7l-14.472-1.492-8.886,6.532-2.487,6.722-6.673,1.906L796.189,545l-6.324,3.307,4.468,16.943-2.827,17.473-13.279-20.5-3.531-.05-5.28,12.964-5.264,4.368-4.31,10.361,2.537,6.341L757.7,609.837l-1.434,1.31,0.713,3.564-17.929.688-0.481,7.269,2.992,6.4L752,630.941l7.642,7.609-3.042,6-6.109,2.768-6.084,11.14-7.319.779-12.2,8.264-9.367-4.891-22.645-17.34,3.772-9.425-1.782-3.108-7.029-.514-5.007-4.551-10.278,3.216-10.469-2.628-6.764,2.246,0.522,2.511-18.468,14.332-22.024,32.194-6.1-2.6-11.041-30.86-9.565-3.6-0.879-7.286-3.29-13.884-14.4-2.586L556.8,606.71l-10.743-.323-2.727,6.217-6.673-1.558L520.731,609.9l-18.136-9.549L495.93,592.5l-9.648,3.282-1.89,6.383,2.835,5.993-2.951,1.757,1.873,5.852L477.4,621.83l-7.054.663-6.855,8.115-6.913.862-6.043-3.44L439.8,635.465l6.1,2.934-0.149,10.187,7.352,12.16,0.7,3.523-5.247,4.841-3.407-.232-14.97,33.753-9.308,5.8-0.771-6.88-20.88-4.833-4.277-5.86,0.87-7.178-5.2-5.131-2.578-2.147-12.541,1.21L354.355,694,341.7,711.822l0.837,3.564,10.452,3.009,7.137,8.256L348.23,737.095l1.881,6.159-8.355,6.532,2.246,6.4,5.065,9.375-12.433,17.73-0.357,10.9-7.1.837-12.309-6.8-13.486,4.318-0.531,6.6-8.6,9.383-10.486.439-7.725-6.755-17.216,18.236-10-1.973L235.674,783.2l-13.668,1.11-14.821,19.678-6.167,3.373-1.252-6.606-10.577-1.691-2.537-6.648L172.686,781.78l-4.277-4.7-12.723-.29-3.6,10.361-6.192,3.664-8.389,16.321-8.538,6.88-1.915,10.817,1.691,4.236,21.817,11.547,14.008,3.639,24.237-21.584,6.2,1.989,6.383,7.626,6.5-.265,1.335,3.042-7.079,1.343-0.63,7.062L188.07,855.51l-10.038,1.144,1.3,10.336,13.511,21.12L192.819,901.4l2.5,2.221,13.743,3.075,10.353-2.163,8.057,11.422,9.176,3.8,4.683-4.41,9.682,1.285,0.174-10.287,5.893-12.3,4.526-4.932,3.175,1.235,1.509,10.03,12.616-6.755,15.591,9.209,18.07,2.437,4.551,9.756,11.124-11.157,12.3,19.86-2.139,5.139,17.092,5.595,12.723,12.749,7.029,1.832,6.183-3.813,17.44,5.007,10.469-2.685,3.547,0.282,3.307,10.063,9.789,1.641,4.41,9.433,5.628,4.294,8.9-11.6,10.635-2.089,5.462-4.808,1.293-18.327,11.331,1.011,1.865,10.046,3.424,0.473,2.254-6.548,3.3-1.028,8.944,4.575,1.9-2.6,18.6-1.475,11.48,13.793,32.907,4.029,10.154,9.673,1.84,6.515,27.743,11.712,10.253-9.085,6.731-1.343L609.743,959.4l-8.927-16.081-6.457-3.515-6.109-9.134L601.1,908.684l9.491,2.346,18.277,22.264,6.731,1.31,13.859-3.282,1.931-13.818,4.948-9.549,10.055-3.216,2.147,2.827,14.033-.6,12.914-11.986,6.341,2.4L715.568,894l10.129-9.425-0.564-4.833,17.813,1.931,6.515-3.042,15.84-14.447,2.006-6.913Z" transform="translate(-14.36 -20.072)" fill="#ffc0c0" stroke="#000" stroke-width="2"/><path d="M105.97,602.153l-7.286-1.418-5.91,4.36-32.5,1.732-5.7,3.689-3.332,9.524L40.529,622.6,45,628.321l1.732,10.543-4.932,5.255,13,3.183,0.97,3.316L65.9,652.607l4.211,12.773-5.023,8.8,2.139,9.557-26.1-.017,0.73,11.555-10.212-2.851-4.924,9L15.844,710.6l4.849,4.774L25.6,734.709l12.036,6.7,20.275-2.777,0.754,1.1,4.982,22.993,2.984,17.232-4.136,5.587,3.316,0.381L63.9,795.367l5.048,8.455-0.87,3.432,10.9,8.281-5.305,16.595,10.353,1.757,12.3-6.805,17.324,3.78,15.111-1.881-1.691-4.236,1.915-10.817,8.538-6.88,8.389-16.321,6.192-3.672,3.6-10.361,12.732,0.3,4.269,4.7,13.967,10.635,2.537,6.648,10.577,1.691,1.252,6.606L207.2,803.9l14.821-19.678,13.668-1.11,13.138,35.277,10,1.973,17.216-18.236,7.733,6.755,10.477-.448,8.6-9.375,0.531-6.6,13.486-4.318,12.309,6.8,7.1-.837,0.357-10.9,12.433-17.73-5.065-9.375-2.246-6.4,8.355-6.54-1.881-6.15,11.895-10.452-7.137-8.256-10.452-3-0.837-3.573,12.657-17.813,21.137-16.4,12.549-1.21,2.57,2.147,5.2,5.131-0.862,7.178,4.269,5.86,20.88,4.833,0.779,6.88,9.308-5.8,14.961-33.753,3.407,0.232,5.247-4.841-0.7-3.523-7.352-12.168,0.149-10.187-6.1-2.934,10.743-7.427-2.263-6.1,12.235-11.845L454.587,594l2.5-12.085-3.97-13.345-15.575-14.133,10.858-.8,8.637-6.747,1.533-7.584,4.783-2.014,4.144-5.778,1.136-3.324-3.1-2-3.415-.025-9.251-2.4-4.965.2-7.941-1.707-6.092-4.46-3.6.671-14.58,2.586L403.262,522.4l-6.391-8.911,2.371-2.445-3.705-5.288,8.247-18.393-4.973,1.475L390.837,500.8l-12.773-6.689-4.227,5.4-13.718,1.384L355.8,495.25l-1.5-10.419-8.306-6.664,3.025-13.942-2.811,2.173-16.619-1.053-2.163,2.768,4.617,9.093-5.264,4.186-10.743-9.69-6.8-1.849L291.1,479.3l-5.33-4.3-9.043,13.4-6.805-2.487-24.7,1.293L235.8,476.195l-9.764,3.78-21.22-2.5-1.558-5.943,7.493-5.313-11.066,3.78L196.5,464.64l-8.4-5.686-9.648,1.94-6.283-2.445-3.49,13.387-6.283-3.208-24.22-2.578-8.338,6.391,2.3,2.23-3.025,2.2-20.7,8.8-9.8-4.758-7.137,6.656,4.244,12.318L93.147,521.2l20.548,6.888,0.331-.066-2.768,4.833,0.3,7.079,8.8,18.658-0.638,10.494,8.521,5.653,5.752,3.647-0.232,3.44-12.2,11.712-9.756,3.282Z" transform="translate(-14.36 -20.072)" fill="#ff8080" stroke="#000" stroke-width="2"/><path d="M546.493,411.06l-4.575,5.338L541.1,426.925l-3.448.8-5.711-4.136-20.706,2.089-14.945,14.207,10.138,2.586,8.67,15.558-7.518,11.77-17.937,6.623-1.517,3,3.937,5.62-4.683,5.587-2.246,17.788,0.149,3.332,6.515-1.732,8.363,5.429,3.191-1.144,5.413,4.169-10.743,18.4-8.662,2.984-0.24-3.258-2.337.8-5-1.235-1.774-3.689-2.4-.73-0.862-10.933-3.97,3.515-1.136-1.028,0.522-4.476-1.5-4.153-2.951-3.564-7.758-14.149,1.409-2.934-5.363-7.1,20.523-13.743-2.6-9.408-12.607,1.3-6.963-7.278-2.777-17.05,9.458-3.614L462.6,430.4l3.116-1.525-5.5-4.078-0.365-6.532L442.69,414.74,441.4,400.749l-6,2.246-9.731-7.742-8.057,9.648-5.827-1.484,2.694-10.427-1.31-14.2-10.494-2.213-13.992,1.6-3.282-6.366L382.7,355.54l10.427-1.9,4.658-5.578,7.054,1.434,4.683,5.7,14.6-1.078L438.6,343.289l-4.484-9.557,20.756-.92,5.595-4.219,3.8-13.469-0.406-6.457,6.051-8.96-7.344-11.082,1.823-17.407,7-2.42,2.959-6.333,0.265-6.374-7.527-4.865,5.769-29.45,9.524-1.9,5.1-17.606L486.33,191.5l-3,1.9-6.035-3.705-10.651-.274-1.193,3.357-4.567-4.658-10.51-.464,7.5-16.039,9.938-3.191,4.658-9.308,10.917,6.324,4.484-9.814,0.274-.24-0.7-10.295,2.942-2.014-17.141-26.906-14.166,15.9-19.429,4.261-5.479-8.587,3.63-5.388-1.2-3.324-12.168-17.042,0.381-.34,13.3-.68,0.6-6.946,5.247-3.9L436.8,78.55l4.484-4.907-1.9-2.769L442.9,65.42l-2.42-2.354-7.725-10.245,6.051-1.79,8.247,6.656,6.64-.539-2.362-6.722,1.442-7.046L466.6,44.955l2.114-1.5L484.93,32.77l5.288,0.995,16.868-1.7,8.629-5.181,0.754-3.747,2.876-1.824,5.081,4.393,6.731-1.078,10.121,1.741,11.853,7.037,6.9,1.376,11.6,11.6,6.391,2.478,1.973-1.111,7.269,8.637,3.249,14.68,5.778,7.883,4.02,5.869L598.753,95.3l-4.816,5.081,0.845,24.577,3.373,3.97,1.343,14.8,4.874,23.292-4.824,4.5,2.3,10.8,8.081,12.276,9.3,5.264,4.915-5.47,8.538,7.037,1.616,6.548,9.06,4.286,14.406-.688,8.96,5.553,10.991-7.543,10.03,14.315L682.09,228l-2.379,6.681L692.493,251.5l12.5,2.221,4.4,6.051,0.539,11.157,6.673-.97,22.828,6.076,10.229-.157,13.677,1.915,6.565-2.3,5.454,4.368,1.21,6.515,4.642-1.044-4.642-20.258,7.642-7.17,6.847-1.948,15.177,8.952,6.979,0.978,2.454,13.992,7.344,8.256,5.09,13.66,7.775,7.775,2.934,10.5,2.371,4.891,5.984-.025,4.592,9.5,11.762,7.468,2.735,2.147,27.1-15.185-0.1,6.656,9.656,3.63,11.712,12.342,6.126,5.727,2.827,2.2,14.149-1.185,16.777,5.065,19.023,15.716-1.3,3.63,4.957,4.849-1.616,3.282L930.493,393.7l3.282,9.748-9.731,21.932-5.744,4.31-10.66,1.376-1.235,3.216,9.955,3.68,10.378-1.716-1.4,21.228-6.548,2.8-21.244-1.7-6.739,2.28L894,467.119l-2.57,17.457,1.89,10.2,6.755,0.655,4.318,5.446,17.589-1.21,1.624,14.315L920.232,524.4l-3.672,13.793-7.162,8.438,2.8,6.623-20.813,13.03-10.295-2.727-3.175-6.316-6.93.041L839.9,539.6l-8.8-11.331,0.232-3.614-14.472-1.5-8.886,6.532-13.751-2.221-12.384-6.175-15.277,3.506-13.619-2.23-7.3-7.916,1.5-3.3-2.793-6.7-5.23-4.915L725,496.611l-6.838,1.409-11.613-16.056-21.717-9.259,1.666-5.545-8.687-1.393-6.93-7.294-15.534-3.133-3.017-1.774-0.2-10.295-8.115-6.631-6.938-1-1.525-10.419,8.421-6.731,6.788-16.57-0.514-7.245,5.7-9.2,3.581-.588-2.719-6.316-5.8-4.029-9.416,2.744-12.284-1.4-7.029-6.349-4.865,7.236-2.478-1.633-4.559,5.347-17.871,1.575L574.369,409.1l-5.039,4.12-5.015-4.352-9.251,3.531Z" transform="translate(-14.36 -20.072)" fill="#06c" stroke="#000" stroke-width="2"/><text transform="translate(508.732 327.242)" font-size="182.671" font-family="DejaVu Sans" font-weight="700">5</text><text transform="translate(233.035 327.243)" font-size="182.671" font-family="DejaVu Sans" font-weight="700">1</text><text transform="translate(542.56 568.356)" font-size="182.671" font-family="DejaVu Sans" font-weight="700">2</text><text transform="translate(471.522 813.815)" font-size="182.671" font-family="DejaVu Sans" font-weight="700">3</text><text transform="translate(158.002 670.46)" font-size="182.671" font-family="DejaVu Sans" font-weight="700">4</text></svg>