<svg xmlns="http://www.w3.org/2000/svg" width="984.48" height="866.971" viewBox="0 0 984.48 866.971"><title>Députés sortants de la Loire-Atlantique en 2017</title><path d="M565.838,590.947l-5.522,2.206-2.652-1.329L552.8,600l-5.3-1.987-11.045,10.825-8.619,3.316-5.741-1.329-2.652,1.329,0.438,5.968-0.672,3.316,7.955,9.058,10.168,6.632L560.09,644.2l1.768-9.058,24.967,9.722,9.941,7.071,2.432,5.084-3.755,2.652,5.3,3.755-2.652,7.509,1.1,3.755-0.665,4.2,7.955,2.652-3.323,7.742,15.471-.672,15.69-5.741,10.825-11.49,17.238-7.955,1.329-1.548-10.387-21.431,0.438-8.838-5.3,2.652-6.187,5.3L629.241,656.57l-7.509-1.1,1.555-7.955,3.316-4.865,0.665-5.741-8.174-2.432-3.974-8.4-14.58-3.755-5.741-.665-13.258-20.774Z" transform="translate(-14.194 -120.791)" fill="#f4f4f4" stroke="#000" stroke-width="2"/><path d="M412.743,616.882l9.545-14.325,3.267-11.03,3.09,0.637,14.12-6.5,18.511-16.68,8.768,1.9,2.574-.226-2.524-4.334,5.593,1.237,2.722-5.14,7.021-8.245,30.927,2.729,8.372-3.974,8.789,1.732,6.766-6.413,0.007,0.155,1.747,15.64,6.717,10.585,9.171,8.548,1.57,6.081-1.909,2.5-4.766,8.188-5.374-1.916-10.974,10.733-8.555,3.429-5.869-1.442-2.687,1.5,0.53,5.946-0.721,3.182,8.039,9.065,10.168,6.576,22.654,7.156,1.761-9.051,25.144,9.828L596.8,651.9l2.347,5.02-3.684,2.772,5.2,3.8-2.475,7.424,0.94,3.7-0.537,4.271,7.983,2.553-3.3,7.891-10.033,6.243-7.325,4.9L565.662,694.6l-2.312.311-10.981-1.782-2.934,3.783-15.421-9.241,1.945-1.513-2.128-4.455-8.577-1.81-23.263,2.086-11.766-3.648-12.2-.233-8.464-8.464-8.86-.834-9.913-7.4-6.519-13.958L443,642.322l-3.118.17-7.4-5.777Z" transform="translate(-14.194 -120.791)" fill="#ff8080" stroke="#000" stroke-width="2"/><path d="M532,746.629l-3.528-.891L515.155,752l-8.534-8,15.69-17.09-15.287-1.2-8.994-8.16-11.313-4.235,5.862-11.858,8.555-1.032,15.174,0.9,16.779,6.915,9.835,2.645,6.512-13.958,2.934-3.783,10.981,1.782,2.312-.311,20.257,5.876,7.325-4.9,10.033-6.243,15.287-.629,15.824-5.848,10.861-11.419,17.083-7.961-2.623,8.513,5.353,14.318,1.329,12.133-23.284-2.079-3.161,7.53-2.807,5.317,1.1,8.711-7.863,9.68-8.259,4.461-1.131,2.687,5.529,10.189-0.092,5.8,6.809,9.135-1.223,7.884-13.753,9.666-8.089-9.348-16.3-8.1-8.541,1.35-5.741,1.131-14.134,10.7-2.128-5.041,6.038-9.85-11.546-1.619-4.058-3.96-2.142,1.916-2.418-1.555-3.422-7.742Z" transform="translate(-14.194 -120.791)" fill="#ff8080" stroke="#000" stroke-width="2"/><path d="M629.361,656.584l-7.658-1.068,1.513-7.891,3.458-4.886,0.573-5.826-8.23-2.453-3.924-8.372-14.651-3.811-5.72-.637-13.173-20.759-15.6-10.04-5.6,2.284-2.779-1.371,1.916-2.5-1.57-6.081-9.171-8.548-6.717-10.585-1.747-15.64-0.007-.155,13.166-12.027-3.012-.735-5.932-20.533-7.99-4.716-2.63-5.635-11.73-3.656-2.567-5.678,13.809-6.236,1.358-2.772,0.87-36.5,0.9-2.963,3.055-.438,2.637,1.584,2.34,8.746,10.507,6.258,8.909,1.393,14.721-8.1,6.06,0.3L600.8,464.17l2.439-5.748,10.458-6.378,32.575-33.763,15.372,0.1,5.289,2.75,1.923,8.987-5.982,6.781-1.386,5.77,1.831,2.482,9.171,0.092,11.886-8.831,26.465,4.348-1.478,8.888,1.895,5.741,7.573,4.921,11.864,1,1.93,2.319,5.543-2.065,1.337-2.645-2.51-5.2,2.4-1.761,5.741-1.245,8.435,2.645,0.742,9.079,5.565,2.5,4.4,8.025,11.016,2.39,1,5.48-4.921,13.109,14.3,5.536,26.416,17.139,3.847,4.61-0.382,14.538-37.135-.707-24.189,13.908,11.249,13.116,1.64,5.614-9.736,12.063-8.74,3.026-10.168,11.8-3.182,1.6L713.345,611.6l-3.8,2.906L699,628.917,684.666,639.41l-10.351,10.528-10.726,12.027-10.323-21.544,0.523-8.81-5.451,2.687-6.116,5.31Z" transform="translate(-14.194 -120.791)" fill="#ff8080" stroke="#000" stroke-width="2"/><path d="M827.694,554.419l-13.548-.474-2.347,1.831-14.488,5.89-15.534.637-14.6,5.395-1.64-5.614-11.249-13.116,24.189-13.908,37.135,0.707L816,521.229l-3.847-4.61-26.423-17.132-14.3-5.543,4.921-13.109-0.99-5.473-11.023-2.4-4.4-8.025-5.565-2.5-0.742-9.079-8.435-2.645-5.741,1.245-2.39,1.761,2.5,5.2-1.329,2.645-5.543,2.065-1.937-2.319-11.864-1-7.573-4.928-1.895-5.741,1.478-8.888-26.465-4.348-11.879,8.831-9.171-.092-1.838-2.482,1.386-5.77,5.982-6.781-1.923-8.987-5.289-2.75-15.364-.1-32.582,33.763L603.3,458.421l-2.439,5.748L584.8,456.533l-6.06-.3-14.721,8.1-8.909-1.393-10.5-6.258-2.34-8.746-2.637-1.584-3.061.438-0.9,2.963-0.87,36.5-1.35,2.772-13.816,6.236,2.574,5.678,11.723,3.656,2.63,5.635,7.99,4.716,5.94,20.533,3.012,0.735L540.329,548.24l-6.766,6.413-8.789-1.732-8.372,3.974-30.927-2.737-7.021,8.245-2.722,5.14-5.593-1.23-21.82-22-2.666-17.825-23.277,6.83-1.061-4.978-15.053,1.039-5.6-2.694,3.1-14.573-4.285-14.41,2.666-11.645-5.791-10.585,7.912-4.186,1.952-17.832,5.9,1.761,5.741-1.916,8.315-3.938,14.3-16.036-13.385-16.546-6.4-6.625-20.979,5.31-14.82-2.107L382.5,401.715l-8.407-3.373-2.7-15.11-18.115-1.669-5.607-10.938-13.123-8.336-5.112-3.387-29.605-7.721L292.3,356l-5.006-4.37,2.779-1.174-1.252-14.651,9.645-7.092,0.714-2.92,0.3-12.395-7.354-9.743,8.994-16.107,18.087-.9,2.743-11.921,2.595-1.7,4.667-2.482,13.852,1.8,23.369-24.726,0.2,0.106,2.418,5.558-0.148,12.119,1.8,2.439,6,0.283,12.635-13.943,30.27-8.223,1.407,0.792,9.326-5.869,2.567-5.034,5.593-.629,9.439,1.145,5.635-2.531,5.02,3.571,20.3,5.1,8.817,1.075,12.826-7.219,10.613,4.384,1.732,2.227,11.08-.969,0.438-6.187,2.694-1.548,11.872-3.189,15.188,2.227,10-10.669,3.755-.113,0.792-17.472,5.812-16.149,4.511-3.352,8.28,0.552,4.653-3.2,2.39-8.5,5.31-2.566,5.961,0.608,11.391-4.914,15.633-.94,10.959-11.129,4.9-3.437,5.416,2.263,8.725-1.994,7.24-4.589-0.665-8.2-7.41-14.983,1.337-2.687,8.725-.05,5.133,2.786,20.477,0.127,4.589,3.684,3.422,0.085,2.248,2.142,8.343-2.963,16.5,24.719,14.481,4.907,1.7,0.516,54.854,16.029-0.855,12.239,6.484,6.484-3.125,11.546-8.4.262,0.75,8.831,12.218,8.343,11.256,4.045,11.872-2.588,0.142,8.661,9.164,13.611,3.168,1.98-1.789,5.855,1.457,5.94-3.535,11.377,5.041,7.346,6.031-.1,3.9,13.4-0.552,8.456,11.851,12.338-0.142,2.871,8.548-.255,12.345-1.153,16.828,12.84,29.973,6.321,9.637,7.1,0.637,2.942-7.219,9.461-7.707,4.6-5.034,2.362-0.467,5.4-8.1-1.8-11.737-2.037-14.87,1.626-43.888-6.321-3.253,22.082,14.417,4.758,0.558,3.026-8.987,8.032,1.039,6.06,7.46,12.572,8.2,4.122,20.576,3.38,17.754-2.135,2.5,1.619,16.941-3.578,11.228,4.8,8.57,9.128,27.668-1.725,3.9,9.4-5.07,6.293-0.262,5.423,8.329,13.18,3.394,27.088,3.1,3.684,11.858,17.606-7.467,9.786-5.975.65-7.226,6.053-6.13,3.295-4.921,4.858-8.6-1.4-13.272,6.1-11.716.65-19.147-4.61-8.74-.53-14.014,3.684-6.066.622-1.337-1.435-18.412-.4-15.1,2.913L841.5,550.1Z" transform="translate(-14.194 -120.791)" fill="#ff8080" stroke="#000" stroke-width="2"/><path d="M75.479,626.413L54.853,620.12l-7.283-4.985L21.9,605.4l2.178-5.473,5.883-1.9,6.074-.983,5.529,2.645,1.308-3.224-0.955-1.916,7.191-12.2-0.021-6.314-3.747-15.393L33.429,542.23l-14.085-5.2-4.051-4.568,1.252-4.956,13.569-3.578L50.929,506.07l16.524-11.6,4.511,3.684,17.564-.219,0.58-3-13.017-7.82,4.554-10.754-6.816-9.588,5.225-13.7,5.607-2.121,10.472-9.941,1.768,9.086,5.812,7.17,9.058,2.008,10.67-5.494,6.236-.389,6.788,6.413,23.913-5.812L162,435.716l7.785-13.406,1.428-15.435,0.629-.332,10.627,4.363,11.949-.8,2.157,2.107-3.366,7.948,10.345,6.173,16.5-11.964,11.045-3.62,6.18-.884,1.534,2.729-2.453,11.723,2.015,2.376,12.147,2.121,6.59-6.222,1.068-21.544,5.685-2.609,27.109-7.545,1.011-6.038-4.037-7.912,4.3-20.951,7.53-4.815,29.605,7.714,5.1,3.394,13.13,8.336,5.607,10.938,18.115,1.669,2.708,15.11,8.407,3.366,2.376,11.653,14.827,2.1,20.979-5.31,6.392,6.632,13.392,16.546-14.3,16.029-8.308,3.945-5.741,1.909-5.9-1.761-2.673-5.3-5.932-1.174-17.7-15.315-5.1,2.927L370.674,445.6l-9.043.127,2.722,13.13,0.4,9.3-11.893,9.892-11.638,4.4-27.8-.947-2.248,2.171,8.951,6.943,13.144,5.048-6.01,13.759,4.271,3.847-0.134,3.012-6.038,10.175,4.794,3.323-4.808,10.641L315.4,546.5l0.594,2.871-17.967-1.343-1.98-18.115L286.95,521.9l-6.109,9.948-9.086-7.078-3.967,10.571-4.829-2.355-11.143-12.72-4.5,11.356,1.655,8.768-17.274,4.433-6.335,10.316,1.2,5.748,2.8,5.741-2.079,10.62-5.968.269-4.2-4.327L207.157,583.8l0.021,3.026-5.819-5.953-5.494-.453-3.2,4.794-9.015.1L171.9,595.308l-8.23,18.334,12.706,3.642-0.184,14.94-3.875,4.632L171.528,648.8l-3.217,5.02-20.427-14.276-5.614-10.8-6.781-6.441-19.918-7.728-12.084,1.838-7.771,4.745-0.771,2.913,4.129,8.011-1.852,2.4L80.082,630.5Z" transform="translate(-14.194 -120.791)" fill="#06c" stroke="#000" stroke-width="2"/><path d="M241.237,599.523l4.9,7.53,3.076-.2,16.164-8.81,23.849-5.635L307.7,593.28l16.779-7.509,4.751-1.329,0.643,12.84,6.088-5.7,2.765-7.389,5.466,1L344.157,600.4l4.278-2.885,7.29,2.453,16.348,6.208,26.819,5.119,13.823,5.593,9.545-14.318,3.267-11.037,3.09,0.637,14.12-6.5,18.511-16.672,8.768,1.895,2.574-.226-2.524-4.327-21.827-22-2.666-17.825-23.277,6.83-1.053-4.978L406.189,529.4l-5.6-2.694,3.09-14.573-4.278-14.41,2.666-11.645L396.276,475.5l7.912-4.186,1.952-17.832-2.673-5.3L397.535,447l-17.7-15.315-5.1,2.927-4.087,11.016-9.043.12,2.722,13.137,0.4,9.3-11.893,9.892-11.638,4.4-27.8-.94-2.248,2.164,8.951,6.95,13.144,5.048-6.01,13.759,4.271,3.847-0.134,3.012-6.038,10.168,4.794,3.33-4.808,10.641-9.941,6.066,0.594,2.871-17.967-1.337-1.98-18.115-9.093-8-6.109,9.948-9.086-7.078-3.967,10.571-4.829-2.362L251.787,520.3l-4.5,11.363,1.655,8.768-17.274,4.433-6.335,10.316,1.2,5.741,2.8,5.741-2.086,10.62-5.961.269-4.2-4.334-9.955,10.613,0.021,3.026-5.819-5.953-5.494-.453-3.2,4.8-9.015.092-11.751,9.991-8.223,18.334,12.706,3.648-0.184,14.933-3.875,4.632L171.5,648.828l-3.217,5.02,5.041,2.255,14.7-4.306,12.812-12.946,12.07-2.5,4.179-7.863,14.092-5.855,3.344-8.485,6.979-1.393Z" transform="translate(-14.194 -120.791)" fill="#ff8080" stroke="#000" stroke-width="2"/><path d="M330.441,798.033l-12.331-17.776L289.36,769.538l-2.128-5.056-9,1.669-18.3-2.043-16.093-8.372-21.516-2.418-17.139-6.646-1.336-2.566,8.987-8.577,4.129-7.827,14.29-4.264,12.02,1.93,3.91-4.666,3.076-5.091,5.034-26.246-0.9-12.388-13.406-21.1,7.29-5.155-0.347-21.459,1.386-2.786,23.729-5.883,43.124-7.261,6.71-5.706,2.043-2.072,8.513,1.619,10.641,4.716,0.1-11.518,4.278-2.885,7.3,2.453,16.348,6.208,26.819,5.119,13.823,5.593,19.748,19.869,7.4,5.777,3.118-.163,1.273,5.112,6.519,13.958,9.913,7.4,8.86,0.834,8.464,8.464,12.2,0.233L502,682l23.263-2.086,8.577,1.81,2.128,4.455-1.945,1.52,15.421,9.235-6.512,13.958-9.828-2.645-16.779-6.915-15.181-.9-8.555,1.032-5.862,11.858,11.32,4.235,8.987,8.167,15.287,1.195L506.628,744l8.534,8,13.321-6.258,3.528,0.884,13.795-1.266,3.422,7.742,2.418,1.555,2.142-1.916,4.058,3.96,11.546,1.619-6.038,9.835,2.128,5.056,14.134-10.7,5.741-1.131,8.541-1.35,16.3,8.1,8.089,9.348-0.962,2.857,7.389,12.522,1.138,8.881-9.963-1.089-5.395,6.335,0.615,2.722,20.936,2.9,8.294,8.782,10.669,6.13L638.9,840.748l-8.626,1.958-12.1,7.46,6.491,9.871-4.342,10.882L618.3,882.175l6.8,14.969-0.728,2.956,6.286,10.175L637.9,915.3l1,5.9-3.974,8-11.617-.2,9.68,15.2,15.831,13.272,1.619,8.548-15.761,8.464-5.946-1.337-5.65,2.029-1.329,11.348-17.691-4.4-13.774-6.929-5.246,1.534-18.561-6.378h-9.128l-5.119,3.33-16.051-13.533-17.712,4.751-5.515-2.652-3.9-7.346-0.148-13.6-5.5-6.491,1.372-2.581-4.391-7.509-17.7,4.546-4.787-3.7-5.9,1.1-20.71-3.45,3.154-4.971,0.856-8.838-3.443-4.837-24.408.085-13.95-6.448-10.938-10.316-3.274-11.709,1.138-5.855-10.924-2.765-2.425,1.563-6.547-6.491-9.128-20.095-4.334-4.32-4.921-.29-13.908-27.632-9.885-7.445Z" transform="translate(-14.194 -120.791)" fill="#ff8080" stroke="#000" stroke-width="2"/><path d="M624.7,792.85l-7.389-12.522,0.962-2.857,13.753-9.666,1.223-7.9-6.809-9.128,0.092-5.8L621,734.793l1.131-2.687,8.259-4.461,7.863-9.68-1.1-8.711,2.807-5.324,3.161-7.523,23.284,2.079-1.329-12.133-5.36-14.318,2.623-8.513,1.287-1.534,10.726-12.027L684.7,639.438l14.339-10.5,10.543-14.41,3.8-2.906,21.947-15.414,3.189-1.6,8.951,2.814,15.336-1.761L774,594.248l0.247,2.842,8.74,7.488,2.1,4.3,0.191,16.348,13.413,17.281,13.7,9.291,8.075-3.712,7.764-8.195,5.451,0.757,8.874,9.991-4.426,18.49,8.4,4.95-3.776,6.194,3.684,7.912-1.266,5.14,8.987,6.038-4.666,13.548-11.313,10.853-12.459,12.1-5.869.184-11.638,8.329,4.348,3.182-0.339,5.911,2.956,5.232-3.422,7.778-10.415,10.811,5.261,2.694,7.686-4.582,31.882,5.466,2.722,0.537,5.2,11.822,8.032,8.782,19.841,6.1-3.161,8.04,1.747,11.737-18.433,9.461-28.976-9-7.558-8.69-4.511-3.408-7.856-9.058-11.172-4.242L790.4,789.1l-2.878.969-3.019,4.822-5.451,1.145-2.164,5.289L778.737,812l-7.2,11.709-0.848,2.694,2.581,1.089-1.407,5.317-11.568.375-11.115-8.619L743.61,823.1l-1.039,5.522-9.15-.332-7.969,8.98,5.43,10.84,0.919,9,0.785,2.97L725.75,873.2l9.856,6.837-0.785,8.838-4.037,4.278,0.558,8.4-4.327,4.058-2.658-1.478-7.6,5.056-15.025,3.231-25.744,16.312-8.1-6.477,7.955-20.286-7.014-9.835L665.769,880.2l1.747-5.8,5.756-2.206-0.071-5.734-3.663-4.653-3.627-17.443,1.11-8.4-4.511-3.8-3.6-4.278-5.529-1.061-2.418.721-10.669-6.13L632,812.64l-20.936-2.9-0.615-2.722,5.4-6.335,9.956,1.1Z" transform="translate(-14.194 -120.791)" fill="#ff8080" stroke="#000" stroke-width="2"/><path d="M560.078,644.192l-22.668-7.151-10.164-6.579-8.04-9.071,0.712-3.188-0.532-5.941,2.686-1.494,5.87,1.435,8.563-3.429,10.979-10.74,5.377,1.908,4.755-8.191,2.776,1.376,5.6-2.289L581.6,600.884l13.181,20.763,5.722,0.632,14.657,3.814,3.925,8.371,8.241,2.448-0.576,5.828-3.466,4.9-1.512,7.893-0.284,3.556-3.649,3.944,1.373,4.037-3.749,3.876-14.734-7.438-5.2-3.807,3.677-2.776-2.354-5.019L587,644.955l-25.158-9.833Z" transform="translate(-14.194 -120.791)" fill="#7f7" stroke="#000" stroke-width="2"/><path d="M603.341,689.387l3.3-7.9-7.987-2.552,0.54-4.284-0.933-3.711,2.466-7.426,14.734,7.438,3.749-3.876-1.373-4.037,3.649-3.944,0.284-3.556,7.659,1.075,12.9-17,6.124-5.312,5.453-2.693-0.526,8.82,10.332,21.558-1.285,1.533-17.091,7.964-10.864,11.428-15.844,5.855Z" transform="translate(-14.194 -120.791)" fill="#ff8080" stroke="#000" stroke-width="2"/><text transform="translate(364.462 699.437)" font-size="155.823" font-family="DejaVu Sans" font-weight="700">9</text><text transform="translate(660.514 625.826)" font-size="109.732" font-family="DejaVu Sans" font-weight="700">10</text><text transform="translate(588.045 470.045)" font-size="155.823" font-family="DejaVu Sans" font-weight="700">5</text><text transform="translate(588.045 249.703)" font-size="155.823" font-family="DejaVu Sans" font-weight="700">6</text><text transform="translate(100.678 462.998)" font-size="155.823" font-family="DejaVu Sans" font-weight="700">7</text><text transform="translate(319.875 451.128)" font-size="112.326" font-family="DejaVu Sans" font-weight="700">8</text><text transform="translate(552.167 631.836)" font-size="63.628" font-family="DejaVu Sans" font-weight="700">4</text><text transform="translate(542.429 510.101)" font-size="40.003" font-family="DejaVu Sans" font-weight="700">1</text><text transform="translate(622.867 545.205)" font-size="27.594" font-family="DejaVu Sans" font-weight="700">2</text><text transform="translate(438.186 542.709)" font-size="115.163" font-family="DejaVu Sans" font-weight="700">3</text></svg>