<svg xmlns="http://www.w3.org/2000/svg" width="922.267" height="747.7" viewBox="0 0 922.267 747.7"><title>2T Législatives 2017 Savoie</title><path d="M197.1,270.99l-5.452-6.563-.513-11.64-11.432-.666-2.521-1.452.625-2.847-4.542-3.556-.07-2.916,3.049-18.356-1.48-2.305-5.479-29.911-.639-4.57-1.847-10.66,1.882-1.952-2.18-11.424-15.613-.382-2.617-4.778-5.348,6.959,4.271,13.82-1.834,8.723-6.577,22.473-4.5,14.035L130.5,235.606l-3.1,13.55-5.265,5.576-1.381,22.015-1.9,13.861.993,7.091-2.146,8.639,2.458,14.418-1.875,1.937-6.333,1.778,3.931,10.889-7.689,8-3.77,7.812-4.737,3.174L89.3,350.388l-2.118.744-16.022-.57L73,360.535l3.229,11.174-13.9,15.14-.882,5.75,2.181,5.535.028,8.181-6.82,4.993-13.89,1.167L40.3,420.3l-5.861,3.687-1.208,4.764-2.459,4.98-4.993-1.494.188,8.341,8,11.6,4.868,5.64.6,4.993,14.314,13.237.041,5.6,2.347,1.6-1.562,4.9,4.681,2.146.354,2.562-4.556-1.75-1.181,5.736,3.417,4.778,8.25,2.6.083,5.125,2.618,1.562,3.159,1.91,7.639,17.008,3.4,11.868,9.917,9.709-2.562,16.112,4.6,12.737,10.431,2.222,1.8-1.208,1.591-2.4,11.257-1.6,8.209,2.563,8.855,10.66,13.743,4.369.383-.028,11.229,3.618,3.118,5.063,11.625,2.548,6.688,5.9.229,8.924,2.035,1.028,9.708-5.167,7.431-15.786-10.119,2.48-2.292-5.2,1.424-11.639-.257-1.938,5.125-2.729,4.4-7.459,2.75-17.237-5.82-9.723L185.255,530.5l-12.682,2.222-1.938-1.979-2.264,1.521-4.3-7,2.021-10.848-4.271-6.632-4.028,7.5-7.375-3.688-11.327-.271,1.208-1.777.6-.542,6.6-22.883-5.549-14.869-1.875-10.486,7.6,3.347,8.452-1.611,5.4,9.292,10.542-3.632,2.091-11.257,7.083-4.626,2.674-7.841-4.2-13.618,8-1.111,3.674-4.612-1.236-11.729,4.327-1.709,1.75-4.41L206.8,429.766l4.911,2.375,10.618-27.293,5.223.924.569-17.508,2.646-1.083,3.09-7.973-1.111-5.6,3.1.215,10.556,5.9,3.445,1.111,7.869-8.028,1.111-11.258,7.959-15.229,1.41-8.536,4.638-12.007-20.494-9.695-8.111,2.549.27-13.133-11.951-4.625.124-5.424,4.695-6.834L236.41,277.6l-13.265,1.069,2.778-15.084-8.751,1.876L208.992,262l-1.452,5.48Z" transform="translate(-25.263 -156.1)" fill="#ffeb00" stroke="#000"/><path d="M441.577,393.211,431.556,382.78l-1.875-17.793,11.459.042,11.111-26.043,2.9-4.695.013-.146,1.07-2.389-3.1-4.153,13.445-13.334,2.48-8.326-6.688-4.382,17.675-14.348L495.9,272.525l2.618-1.341L503,257.211l7.1-9.347,3.271-6.917-2.75-4.48L516,227.5l-2.021-5.034,5.063-2.973L526.427,203l13.889-5.723,9.264-15.285,2.918,5.035,9.931,5.208,14.035,3.174,1.48,5.465,6.847,5.223,1.3,2.618L582.4,213l.924,8.542-19.4.368,5.222,10.577,5.049,19.626,7.57,9.007,2.1-1.882,5.1,1.882,4.153,12.806,8.508,6.973,1.479-2.292,13.431-.812,7.417-3.417,13.2-.084,2.063,5.667,15,18.73-.73,14.633,6.743,8.91L655,335.2l13.2,4.438L685.005,319.8l1.466-5.708,8.709-11.869,14.174-2.618,12.3-6.861,2.779,26.188,5.125,7.174L725.7,337.146l10.7,17.521,9.265,6.758L747.391,367l15.3,8.667,17.292,1.008,2.4,1.736.542,5.9-2.465,5.354,7.556,2.389-.07,7.757,10.848,4.313,19.793-6.118,5.917,6.486,13.209,6.785-1.056,5.709-7.16,9.479-3.715,26.6,8.805,11.653.666,2.931.014,3-2.6,5.4,2.674,14.674-1.806,8.82,7.528,12.626-2.82,11.584,12.793,6.66,17.362.527,2.986,4.737-5.833,9.674,1.965,5.451,16.966-.5,13.862,4-1.306,8.535.785,2.792,8.209,11.827-.785,5.722L887.9,584.928l-7.7,4.271-16.668-4.5-2.48,1.591-4.84,10.729-7.2,5.035L843.866,612.3l-.938,14.418-5.736,13.278-5.966-.4-11.056-9.25-14.314-1.938-4.951-3.062-5.779.555-4.868-2.743-.855-25.786-8.535-6.757-7.459,2.444L770.1,598.08l-10.417,5.834-23.494,4.014-3.618,4.626-8.438,2.278-6.563,5.889-1.59,5.507,3.584,7.91-3.16,4.993-8.466,8.2-5.75,1.195-11.771,8.611.709,11.528-5.368,6.834.5,5.889-6.549,16.411-7.639,4.041-5.848-.694-13.646,4.215-2.521,8.251,2.278,8.2-12.424-.327-5.535-1.451-5.917-6.049-2.577,1.264-5.652.743-3.827-4.34-4.882,2.944-3.542,10.744-25.418-.34-19.543,11.125-7.271-5.007L547.56,719.1l-2.306-11.514-31.661-9.307L511.711,684.9l-8.535-6.674-2.743.174-3.327-13.765-4.083-4.042-4.57-.34-5.4-6.091-1.409-.513,3.3-16.64-6.5-12.209-1.292-5.549,2.361-5.021,10.813-19.508.555-5.549-3.618-.785-13.223-3.944-16.723-9.959,6.486-17.4,6.806-18.556-1.834-5.521,1.41-2.521L473.8,519.91l7.174-8.3,5.75-15.667-.924-4.723-6.02-4.41-8.453-10.306-8.208-4.6,6.729-12.993,6.236-9.4,2.222-8.7L455.692,422.4,457,416.69l-3.313-4.84-1.611.028-12.1-11.911,3.813-4.3Z" transform="translate(-25.263 -156.1)" fill="#06c" stroke="#000"/><path d="M374.331,459.742l-10.785,5.889-6.875,5.278,1.479,2.494L350,481.445l-13.466,5.9,1.014,1.9-20.209,9.66-5.681,11.174-13.091,9.549-6.806-8.556-3.187-3.84-18.189,7.952-2.66-.5-4.368-16.522-6.2-4.07-6.416-8.236-3.612,4.014-.013-8.723-3.417-7.882-11.341,4.764-.125-10.633-1.34-2.166-12.341,2.791-5.93,2.035.139,5.521-2.431,1.327-3.757,10.4-2.75,6.486,3.146,4.854-2.549,16.369-7.16,9.153-8.507,1.792-3.5,4.611,12.681,17.022.271-.139L230.763,535l4.98,3.028,6.347,9.736,11.126,3.583,1.382,11.084-2.119,3.959,24.467,13.73,3.048-2.466,4.75-2.75,8.167.653,8.112-.639,2.506,1.41.139,8.64,4.765-1.369,11.07-3.868,5.208,2.743,9.39,18.286,17.375,16.126,8.751,21.931-6.1,6.418-5.875.708,3.931,3.618,10.688,2.493-1.965,10.6-2.146,5.493-1.979,12.681-15.751,4.751-2.9,7.3-6.862,4.055.694,2.848-6.833,9.111,5.083,21.96-8.111,11.8,1.834,11.612,6.521,5.966-.111,8.57,11.424,8.979,1.708,11.7-10.7,28.334,10.272,2.89,4.638-2.521,7.07-8.994,15.813,6.89,8.424,11.757,13.459-5.069,5.535.812,6.118,6.278L401.722,841l9.632,9.973,9.708,5.264,13.987-2.75,9.362-6.431.8-2.764,18.216,17.521,5.618,16.466-5.737,10.133,18.9,6.819,5.465-1.875,8.383,2.521,8.57-1.493,10.771,8.882,20.05-3.375.979-11.5-4.139-16.938,16.938-15.515,9.09,7.09,5.535,1.306,13.647-4.708,3.313-7.716,7.445-7.758,7.924,3.271,13.931-1.479,9.708,9.723,3.042-5.007,8.792-.341,12.368-7.611,4.556-10.73,19.237-5.965,16.209,6.1,5.007-2.791,13.168-15.5,16.125,5.334,27.919,15.5,3.041,5.035,2.945-.146,24.278-9.6-5.452-13.535,4.028-7.855,28.606-4.2,2.18-1.979-1.312-2.633,4.993-2.986,1.521-8.354,6.444-5.834.841-8.209,14.049-3.611,6.631-5.563,14.244.472,9.48-6.487,5.709-.639,8.993,11.723,5.605-.667,4.514-10.514L904,742.351l8.694-1.264,5.32-7.07-2.466-14.542,2.549-8.313L910.27,698.6l-2.506-11.57-3.57-4.723-.6-8.681,12.98-3.458,1.75-14.445,14.3-9.876.326-11.667,3.6-8.125,6.549-5.862,3.9-11.215-1.007-2.806-10.619-5.32-8.4-8.354-21.716-9.376-17.349,1.751-7.7,4.271-16.682-4.5-2.465,1.591-4.84,10.716-7.2,5.048-5.153,10.244-.937,14.417-5.723,13.278-5.965-.395-11.057-9.251-14.32-1.937-4.938-3.063-5.778.556-4.869-2.743-.854-25.786-8.536-6.758L773.435,593l-3.327,5.021-10.4,5.834-23.5,4.014-3.618,4.625-8.452,2.278-6.549,5.889-1.6,5.508,3.6,7.91-3.16,4.993-8.465,8.195-5.751,1.194-11.785,8.612.722,11.528-5.368,6.834.5,5.889-6.562,16.41L672.1,701.78l-5.848-.694L652.6,705.3l-2.521,8.25,2.265,8.195-12.411-.326-5.548-1.452-5.917-6.048-2.563,1.264-5.653.743-3.84-4.341-4.869,2.945-3.555,10.743-25.418-.34-19.529,11.125-7.271-5.007-8.2-12.007-2.291-11.515-31.675-9.32-1.882-13.361-8.522-6.674-2.743.173-3.334-13.764-4.07-4.042-4.584-.34-5.4-6.091-1.4-.514,3.3-16.639-6.5-12.209-1.292-5.549,2.348-5.021,10.826-19.508.556-5.549-3.619-.785-13.236-3.944-16.709-9.959,6.486-17.4,6.8-18.57-1.82-5.508,1.41-2.52,3.612-10.577,7.173-8.3,5.751-15.668-.925-4.722-6.02-4.41-8.452-10.306-8.209-4.6-5.265,1.48-4.736-3.4L436.408,465.6l-14.285.771-6.535-3.972,6.3-8.723-10.021-8.368L407.5,456.8l-7.569,2.348-9.987-3.528-8.271.069Z" transform="translate(-25.263 -156.1)" fill="#06c" stroke="#000"/><path d="M172.064,468.235l-10.556,3.632-5.4-9.292-8.452,1.611-7.6-3.347,1.875,10.487,5.563,14.868-6.619,22.883-.583.542-1.208,1.778,11.313.27,7.376,3.674,4.027-7.486,4.271,6.632-2.021,10.848,4.3,6.986,2.278-1.507,1.924,1.979,12.681-2.222,3.5-4.611,8.507-1.792,7.146-9.153,2.563-16.369-3.146-4.854,2.75-6.473,3.757-10.4,2.417-1.34-.124-5.521,5.917-2.035,12.355-2.792,1.34,2.167.112,10.632,11.341-4.763,3.431,7.882v8.736l3.618-4.014,6.4,8.223,6.216,4.07,4.368,16.522,2.66.5,18.189-7.938,3.187,3.827,6.806,8.555,13.091-9.549,5.681-11.174,20.209-9.66-1.027-1.9,13.48-5.9,8.139-8.028-1.479-2.507,6.889-5.278,10.785-5.89,7.257-4.014,8.272-.083,9.986,3.542,7.57-2.362,4.368-11.472,10.022,8.368-6.306,8.709,6.535,3.986,14.286-.771,16.751,4.327,4.736,3.4,5.264-1.494,6.73-12.98,6.236-9.4,2.222-8.709-22.612-18.417,1.305-5.695-3.3-4.854-1.625.028L439.936,399.94l3.812-4.3-2.18-2.43L431.56,382.78l-1.875-17.793-16.335,6.875-11.611-1.548-1.493,2.576L391.78,371.6l-8.271,2.035,1.125-16.938-2.035-1.042-8.222-4.215-.979,5.451-7.313,3.271-2.4,4.993L360,358.334l1.166-16.293,2.146-10.334-7.473-.784-3.244-4.014.584-7.73-7.389-2.007.228-5.236-16.9-4.751-1.778,5.195-4.923,3.118-13.661-10.105-.326,22-.486,2.751-2.7.486-.625-7.8-11.285,1.6-12.938-6.986-2.861.854-4.723,7.556-4.626,12.007-1.409,8.536-7.959,15.243L257.7,372.883l-7.869,8.028-3.445-1.111-10.563-5.9-3.1-.215,1.125,5.6-3.105,7.972-2.632,1.084-.583,17.507-5.222-.923-10.605,27.307-4.91-2.389-10.577-22.5-1.749,4.4-4.327,1.708,1.236,11.73-3.674,4.611-8,1.111,4.2,13.619-2.687,7.841-7.07,4.625Z" transform="translate(-25.263 -156.1)" fill="#f90" stroke="#000"/><text transform="translate(552.372 376.693)" font-size="147.394" font-family="DejaVuSansCondensed-Bold, DejaVu Sans" font-weight="700">2</text><text transform="translate(362.178 627.648)" font-size="147.394" font-family="DejaVuSansCondensed-Bold, DejaVu Sans" font-weight="700">3</text><text transform="translate(244.468 289.21)" font-size="147.394" font-family="DejaVuSansCondensed-Bold, DejaVu Sans" font-weight="700">4</text><text transform="translate(100.147 243.269)" font-size="147.394" font-family="DejaVuSansCondensed-Bold, DejaVu Sans" font-weight="700">1</text></svg>