<svg xmlns="http://www.w3.org/2000/svg" width="902.43" height="623.15" viewBox="0 0 902.43 623.15"><title>2T Législatives 2017 Haute-Loire</title><path d="M646.072,286.886l-.741,3.083-7.261,4.942-1.829,15.33-2.583-.045L632.4,305.27l-7.775-20.423-6.135-.159-4.707-14.076-4.707-3.763L598,271.791l-8.606-3.438-5.7,2.4-2.727,8.871-10.344,6.717.6,11.485,10.593,5.561.9,12.5,3.295,5.4-1.8,8.515,8.674,1.874,2.939,5.093-10.835,5.017-.121,5.976-5.886.484L571.013,361.5l-5.728,1-3.626-7.835-5.773-.695-11.719,8.251-5.652-.975-8.9,2.939-.9,3.007-.824,12.482,4.677,17.575,2.418,8.129,5.168-.12-.015,5.667-17.711,13.328.529,9.074,8.916-.136,1.4,2.773-.793,9.226-4.012,8.326,4.783,3.128,25.364-1.98,11.289-5.757,10.465,6.815.755,3.083-4.631,4.276-1.716,6.128,1.844,8.9-4.518,14.817,10.268,4.912-.385,8.515,4.518,3.884,11.425-2.8,2.863-8.251,10.82,6.286,7.806,17.265-2.124,8.779-3.914,4.617-5.757,1.92.619,2.924-.99,2.463-10.978.589-6.861,5.2-4.753-3.332-12.044-.091,1.564,5.372-2.493,7.292-3.9-.794-4.911.219-2.66-.808-2.048,2.758-2.433,3.347.174.853-5.093,5.788-1.42,1.148-.824,5.2,1.579,2.123-1.359,5.108,1.02,3.083,2.319,2.742-2.274,2.388-1.149,1.594-3.309,8.145-.325,4.277-4.412,3.967,5.017-.446,5.856,1,6.55,13.131,10.526,5.682-2.879,2.939,6.151,6.46,3.483,8.652-4.564,8.016,1.73,8.984-.2,3.869-5.818,9.384,4.911,10.11-7.042,5.032-.469,6.038,3.574,4.881-7.744,4.472,8.779,1.285,2.275,11.454,2.554,8.266,6.86,5.138,11.213-2.153,6.891,5.372,14.288,3.838,5.886,6.861,8.886-1.315,8.5,2.4,3.309-4.631,2.275-13.752L648,724.607l11.508.635,8.016,3.952,5.3-1.92,6.642-.461,13.192-6.89,6.113-.159,12.157,3.672,12.694.061,6.112-7.216,8.561-4.148,3.1-19.774,4.737-3.438-1.05-1.874,9.5-12.172,7.526-5.4,4.677-26.6,7.306-4.472,13.721,7.2,14.651-6.2,9.52-.09,4.443-3.854,8.485-1.919-.74-5.826-3.793-5.727-5.493-2.614-4.912-7.775,5.508-20.627,11.818-8.984,21.489,2.062,3.068-5.168,14.612-2.584,1.655-6.022-1.874-9.15-5.448-2.864-6.128.559-8.341-8.961-.869-8.931,5.508-2.025,2.358-8.16,2.7-1.148-2.319-10.964,7.865-4.382L870,517.253l8.055-3.793,1.624-8.87-17.416-11.908,2.568-14.832,13.668,4.443,8.561-1.224,11.795,9.5-1.08,11.734,5.516,7.336,3.589-2.04-3.053-5.122,1.08-2.773,11.795,1.344-.93-5.886-6.053-6.5-1.828-8.81,2.924-18.021,6.453-6.286,1.428-5.917,7.82-4.132,5.138-14.183-2.334-13.872,2.819-4.783,3.037-.793L937,405.828l-3.7-11.878-2.493-1.345-14.356-14.167-7.337-5.546-7.321-13.842-9.286-.635-18.27,10.76-2.554,5.508-7.9-3.982-2.388,1.874L847.9,356.33l6.052-7,1.08-5.946,4.133-3.838-.914-4.753-8.976-2.645L836,319.088l20.378-17.371,2.969.34-12.588-21.338-7.691-5.206L820.936,271.1l-.3,5.992-2.508,1.458-5.251-1.1-3.778,4.563-11.644-.634-.529-13.857-8.749,2.954-8.236-12.429-3.083.249-8.342-4.322-16.456,6.861-12.913-8.659-12.044,2.554-11.333,4.382,7.895,10.17-1.315,6.2-22.032-1.98-7.246,6.022-.824,6.393-5.961-4.368-11.8,3.7-2.349,12.482-3.673,5.311-5.327-3.233-5.372-11.523-5.621-3.173Z" transform="translate(-35.093 -218.626)" fill="#06c" stroke="#000"/><path d="M527.907,379.679l.808-12.482.9-3.007,8.916-2.939,5.637.975,11.719-8.251,5.772.695,3.642,7.835,5.712-1.02,7.971-13.238,5.886-.484.136-5.976,10.82-5.017-2.924-5.093-8.674-1.874,1.783-8.515-3.279-5.4-.914-12.5-10.593-5.561-8.38,7.82L560.6,300.66l-3.453-16.8-14.68,1.518-13.978-5.621-4.859-7.556-5.077,3.233-.65-15.361-8.674,2.539-3.113-5.3-7.692-5.048-9.354,6.272-2.727,11.862,1.314,12.127L481.9,288.85l-2.463,1.9-11.258-5.871-1.889,1.9-8.886.786-6.453-5.841-8.606-1.36-7.835.174-4.957-1.73,3.378-8.175-5.856-1.549-6.506-6.211-1.9-2.289-5.87.649-3.393,4.828-2.675,12.43-11.454,4.616-2.879,8.659-8.674,8.72-6.135.665-17.356-17.3-3.808-10.231,2.063-5.123-4.473-8.13-7.586-17.854-3.1,5.448-5.561,2.259-4.926-3.793-16.91-3.747-9.581-8.145-3.626-15.2-14.016,6.732-10.2,11.629-1.889,5.856-3.038.77-18.254-1.209-4.632,4.088-8.78-5.591-5.477,2.758-5.622-2.675-5.946,1.874-8.115-9.445-7.337-10.268-4.586,2.818-5.108-1.594.219,6.052L192.9,247.2l-7.087-13.033-6.581-6.393-5.856-1.67-2.63,1.715-2.569,12.6-2.712,4.571-17.56,8.1-8.545,1.1-6.876-4.647-8.591,11.394-2.675,11.6-1.783-.468-2.818,2.569-4.662-3.438L98.6,278.122l-3.982,4.8,2.509,5.327-19.184,1.08-7.9-3.067-5.236,2.878-17.53-2.757,5.033,3.672L53.654,311.3l-9.165-.914-4.813,3.5,5.8,7.42,8.2,4.307-4.072,8.394-5.977,1.224-8,3.778.741,6.083,9.339-.99,7.125,5.825,12.452-1.254,8.75-1.564,9.913-6.921.446,5.772,5.017,7.141-2.864,11.552L99.6,357.594l.386-2.969,15.217-1.489,7.631,5.236.559,3.023,3.083.189,1.1,6.18-3.733,17.84,6.438,6.452,3.347,18.406,5.743,2.523,16.229,5.592-.838,15.6-5.184,7.616-1.05,9.324,4.337,17.93,7.292.136,1.458,2.093-3.574,8.175,7.707,20.219,8.221-3.589,7.23,5.357,1.209.31,10.51,6.332,12.293-.219,1.534,5.992,6.151.589-21.1,8.516-14.106-5.946-3.62-4.972-10.963,3.687,1.738,5.493.869,5.417,13.457,4.246,1.979,4.8L173.285,555.8l2.274,12.218-3.128,8.674,5.788,10.994,2.538,1.7,10.866-5.267,5.7,2.025-6.491,13.872,11.659-2.508,6.151,9.649,8.749-2.35,1.965,2.357-5.3,10.919-11.145,4.458,1.405,9.21,8.531,3.347,7.306-3.914,1.081,15.112,7.48,5.606,11.039-3.6,6.165,10.9,1.859,13.9-3.438,10.639,5.712,8.485.015,9.46,10.548,16.1,3.914,23.581,10.139,11.689-.914,9.135,8.9,8.409,5.281,11.1,5.607,2.909,2.583-1.814,1.814-5.772,8.689-8.5,21.663-3.453,9.15,2.153,8.636-7.707,8.78,7.306,4.662-2.984-1.814-6.022,7.042-20.529-1.8-15.482,8.516-3.219,3.823,4.1,7.216-4.072,4.548,1.8,7.541.158,10.185,6.007,4.246,11.288,4.413,3.559-2.508,11.629-7.911,4.677,5.757,6.656,18.18-2.629,4.571-4.178,14.386,3.762,5.992-1.488,1.179-5.758,5.447,2.093,4.564,13.426,5.712,6.256,2.743,14.2,1.949-2.524,3.083.786,16.305,14.318,6.2,17.122,2.335,1.534,5.607-6.053,8.931-2.448,5.515,2.849-.5,5.886-7.156,9.928,6.1,6.786,14.847,2.954,6.211-10.238,2.758-1.443,11.2,4.707,2.713-1.534,1.284-8.84,8.652-3.143,7.23-2.788-.37-1.224-4.367-4.292.325-2.833,12.074-17.416,4.912-20.748.68-3.008,11.334-4.9,2.659,8.674,9.354,7.692,3.378-4.246-3.657-8.675,2.244-5.2,2.984.325,5.8,7.042,6.732-10,7.82,3.853,4.707-3.853-5.492-10.186-8.5-2.418-8.886,1.315-5.885-6.861-14.288-3.838-6.891-5.372-11.213,2.153-6.861-5.138-2.554-8.266-2.274-11.454-8.78-1.285,7.745-4.472-3.574-4.881.468-6.038,7.043-5.032-4.912-10.11,5.818-9.384.2-3.869-1.715-8.984,4.548-8-3.483-8.659-6.135-6.46,2.864-2.925-10.526-5.7-6.55-13.117-5.856-1.02-5.017.446,4.412-3.967.325-4.276,3.31-8.145,2.357-2.894,1.065-1.1-2.319-2.743-1.02-3.083,1.36-5.107-1.58-2.124.839-5.2,1.406-1.148,5.092-5.8-.174-.839,4.488-6.127,2.66.808,4.911-.219,3.9.793,2.494-7.291-1.564-5.373,12.044.106,4.753,3.317,6.875-5.2,10.963-.589,1-2.464L607.683,538l5.757-1.919,3.914-4.617,2.124-8.78-7.806-17.264-10.82-6.287-2.863,8.251-11.41,2.8-4.533-3.883.385-8.516-10.268-4.911,4.519-14.817-1.844-8.9,1.715-6.127,4.631-4.277-.755-3.083-10.465-6.815-11.288,5.773-25.365,1.964-4.783-3.128,4.012-8.311.794-9.241-1.4-2.758-8.916.121-.529-9.074,17.71-13.328.016-5.667-5.169.121-2.417-8.13Z" transform="translate(-35.093 -218.626)" fill="#06c" stroke="#000"/><text transform="translate(269.201 318.726)" font-size="160.362" font-family="DejaVuSansCondensed-Bold, DejaVu Sans" font-weight="700">1</text><text transform="translate(650.061 293.108)" font-size="160.362" font-family="DejaVuSansCondensed-Bold, DejaVu Sans" font-weight="700">2</text></svg>