<svg xmlns="http://www.w3.org/2000/svg" width="926.227" height="782.646" viewBox="0 0 926.227 782.646"><title>2T Législatives 2017 Haute-Savoie</title><path d="M118.016,786.072l-13.253,4.364-6.909-8.316L97.2,767.371l-14.484-.845-3.195-1.839.791-3.608-5.755-4.506-.088-3.7,3.863-23.258L76.46,726.7l-6.943-37.9-.81-5.79L66.367,669.5l2.384-2.473-2.763-14.477,7.991-13.719,5.535-.88,10.261-18.515,14.283,8.835,4.866,8.079,1.189,9.7,9.125.017.036-11.29,21.12-14.318,5.843-4.057,13.869,2.746-.519-6.222,3.265-5.245-6.5-21.137-3.766-5.879.615-6.979-.9-3.52,9.54-5.21,9.644,6.187,17.89.176,7.287-.273,4.4-5.914,6.89-1.909,15.365,10.464L226.659,572l-1.91,6.785,3.916,5.913,3.476-.941,1.408-7.084,6.477-1.373,3.027,17.618,7.717,6.82,9.812-2.578,3.318-.564-1.549-9.83,3.062-17.652,5.377-1.03,10.366-15.216.915-7.286,15.348-8.976,16.685-5.914-.414-6.979,5.536-8.835-.722-6.759,8.676.106,5.087-4.163,21.463,7.753-5.685,4.453.176,3.661,8.563,19.457,1.1,4.092,12.734,7.181,10.551-3.423,10.965.6,35.834,25.855,2.869,14.819-16.1,20.989,11.915,24.015-5.571,9.469-16.641-7.339-17.424,24.781-20.9,15.62-7.524-.686-8.906,16.606,14.5,2.957,5.79,9.451-1.029,7.145-6.38,9.126-.845,10.859,4.216,5.245-1.6,10.023L382.3,762.707l.722,4.039-.924,3.591-3.642.651L369.723,765l-7.084.537-12.189,13-1.029,11.088-13.578,3.987-5.641-21.3L323.514,756l-10.824.326-13.719-16.36-7.251-13.218-5.878-20.97-5.3-15.418L265.9,661.215l-3.01-2.059-1.047,22.4-1.5.035.827,2.869-7.542,1.681-.976-2.271,3.027-6.309-5.966-7.885-9.645,9.5-6.776-.361-.959,6.2-9.645-.449-5.192-4.294-5.394,8.043-4.656,4.673L194.2,695.483l-8.905-3.265-1.083,15.726,6.2,14.608,3.23,15.673-5.395,3.124-7.629-6.134-7.577,6.582-8.905,13.218-.467,3.336,16.263,4.329.176,3.521-14.863,8.6-21.454-2.649-2.526,8.923-11.088,2.385-10.366-4.382Z" transform="translate(-23.087 -138.497)" fill="#ffeb00" stroke="#000"/><path d="M143.836,772.221l-2.543,8.923-3.52,19.114,16.808-1.338,1.224,13.957-5.949,8.66-.141,6.855,15.128,5.861-.343,16.658,10.278-3.247,25.97,12.285,5.966-9.575,3.625-1.082,16.4,8.853,14.318-2.016.774,9.883,3.441-.634.616-3.476.4-27.9,17.327,12.8,6.239-3.934,2.236-6.6L293.5,842.3l-.29,6.635,9.381,2.543-.757,9.795,4.11,5.1,9.487.994-2.719,13.077-1.5,20.663,4.673,8.624,3.045-6.31,9.284-4.162,1.241-6.908,10.4,5.342,2.578,1.32-1.426,21.481,10.482-2.6,10.744,1.636,1.892-3.264,14.714,1.962,20.68-8.712,14.537.053,14.063-32.983,3.678-5.966.017-.185,1.356-3.027-3.934-5.263,17.037-16.9,3.143-10.534-8.475-5.57,22.4-18.164,20.09-18.629,3.317-1.7,5.685-17.688,9-11.863,4.144-8.747-3.484-5.685,6.8-11.344-2.561-6.379,6.415-3.784,9.363-20.9,17.6-7.234,11.739-19.386,3.283-7.375,11.519-9.319,7.067-20.4,11.563-13.147-12.409-8.44-10.437-19.545L547.4,602.545l-10.983-2.781-22.959-18.92-1.153-.176-29.858,31.724-3.212,6.741-7.234,17,2.922,6.529-5.3,9.5-11.361-8.281-10.314,2.851-16.685,11.106-12.478-10.331,2.376-4.523-16.641-7.34L387.1,660.432l-20.9,15.621-7.524-.687-8.906,16.606,14.5,2.957,5.79,9.451-1.029,7.146-6.38,9.126-.844,10.859,4.215,5.245-1.6,10.023,17.961,15.937.722,4.039-.924,3.591-3.643.651-8.729-5.984-7.085.536-12.188,13L349.5,789.635l-13.578,3.987-5.641-21.3L323.6,756.01l-10.824.325-13.719-16.359L291.8,726.758l-5.878-20.971-5.3-15.417-14.642-29.147-3.01-2.059-1.048,22.4-1.5.036.827,2.868-7.542,1.681-.977-2.27,3.028-6.31L249.8,669.68l-9.644,9.5-6.776-.361-.96,6.2-9.644-.449-5.192-4.294-5.4,8.043L207.532,693l-13.252,2.49-8.906-3.264-1.083,15.726,6.2,14.608,3.229,15.673-5.394,3.123-7.63-6.133-7.576,6.582-8.906,13.218-.466,3.335,16.263,4.33.176,3.52-14.863,8.6Z" transform="translate(-23.087 -138.497)" fill="#ffeb00" stroke="#000"/><path d="M433.14,346.55l1.32-14.573,3.476-6.706,14.317-4.866,8.528-10.041,19.852-9,6.724,7.268,8.166-6.529,7.736.633.484.177,4.709-4.779,5.21-16.826,16.342,1.6,7.717,10.279-3.915,9.592,1.5,3.124,5.175,10.058-5.5,13.72-.106,4.021,3.767-.07,7.885-7.5,10.762.273,5.641,21.481,17.442.141,5.738,9.521.378,7.5-6.081,8.87-2.737,14.063L562.2,397.644l-14.23,4.2-13.578-5.263-5.157,5.3-2.561,2.764-.185,11.176,16.157,28.891,22.124,20.522,10.058,2.094,10.278-1.787-4.127,6.275,5.985,9.469-1.065,7.445-2.834,8.923-5.359,3.423-7.031-.616-6.222-1.7-9.742,2.868-5.756,12-.361,3.731,7.524,7.92L547.3,549.833l3.3,6.635-22,14.573L517.7,574.517l-4.215,6.4-1.153-.176-29.877,31.724-3.212,6.741-7.215,17,2.922,6.529-5.316,9.5-11.342-8.281-10.331,2.851-16.677,11.123-12.478-10.349,2.358-4.523,5.571-9.469-11.9-24.015,16.1-20.989-2.87-14.819-35.851-25.855-10.965-.6-10.534,3.423-12.734-7.181-1.1-4.075-8.562-19.474-.177-3.644,5.677-4.47-21.455-7.753-5.1,4.18-8.676-.123.739,6.759-5.536,8.835.4,6.979-16.677,5.914-15.347,8.976-.924,7.286-10.366,15.216-5.36,1.047-3.079,17.653,1.566,9.83-3.317.546-9.812,2.578-7.718-6.8L240.13,575.38l-6.476,1.373-1.409,7.084-3.476.941-3.934-5.913,1.927-6.776-3.335,1.663L208.062,563.3l-6.89,1.892-4.4,5.913-7.3.273,3.317-5.72-13.094-5.315-1.321-3.406,11-13.834-.537-6.116.273-17.24-1.892-3.027-10.19-1.768,4.982-15.638,7.427-6.415,9.847,3.194,10.1-2.737-1.284-4.18,13.666-3.37,4.144,5.069,12.91,4.9.467,3.5,8.351,7.885,13.015-8.369,3.458-4.294-.035-.537,16.843-21.727,3.352-1.118,6.926-12.188,6.2-7.9,2.095-14.318,7.163-7.973,6.671-12.337-1.654-3.115,9.829-11.2,16.5-8.1,14.389,3.819-2.271,5.677,15.162,14.713,13.746-2.384,6.856,2.4.5-9.592L406,405.82l19.8-6.4,5-24.377.2-3.3-1.549-6.74,4.057-13.289.757-2.252Z" transform="translate(-23.087 -138.497)" fill="#06c" stroke="#000"/><path d="M329.394,370.768l-21.058,16.826L310,398.524l-9.742,10.621L283.4,416l-4.259,5.641-8.713,5.791-6.564.924-21.551-5.316-4.585-5.825-25.9-.361-5.966,3.591-.924,7.409-9.337,5.157-13.024-6.618-18.251-1.681-7.182,1.717-2.666,6.89-17.257,8.563-.916-4.488-8.113,4.435-6.187-.7-6.758.687-5.641-3.283-10.155,9.179-7.48,2.992-2.834.924-5.087,10.023,5.263,13.377L86.873,485.9l-17.741,1.734-7.7-1.223L48.143,469.278l-6.415-3.353-6.671,2.939.7,14.063L28.078,495.3l-2.49,18.937,4.144,7.067-4.946,11.29,1.751,11.722,2.217,9.847-5.1,8.677,3.8,8.184-.273,15.9,1.584,7.251,16.263,15.744L44.1,621.027l1.514,10.023L43.2,640.915l-4.742,4.655,4.505.466,3.317,6.054,19.765.484,8.008-13.719,5.536-.88,10.243-18.516,14.283,8.836,4.866,8.079,1.2,9.7,9.109.036.052-11.308,21.1-14.318,5.842-4.039,13.887,2.737-.537-6.222,3.264-5.245-6.494-21.137-3.749-5.879.615-6.979-.915-3.52,9.539-5.21,9.663,6.187,17.873.176,3.317-5.72-13.095-5.324-1.337-3.388,11-13.851-.519-6.1.273-17.239-1.91-3.027-10.173-1.769,4.981-15.638,7.41-6.415,9.848,3.194,10.12-2.736-1.3-4.18,13.685-3.371,4.144,5.069,12.91,4.884.466,3.52,8.352,7.885,13.015-8.369,3.458-4.294-.036-.536,16.843-21.728,3.353-1.118,6.926-12.188,6.2-7.9,2.077-14.336,7.181-7.955,6.671-12.338-1.654-3.115,9.829-11.2,16.483-8.1,14.405,3.8-2.288,5.685,15.18,14.714L379,415.783l6.856,2.4.484-9.592,19.624-2.8,19.8-6.4,4.981-24.376.22-3.3-1.549-6.741,4.057-13.288.758-2.253-1.065-2.869,1.32-14.591-5.605-4.62-4.541-24.148-1.654-3.194-6.8-1.241-2.666-6.415-10.763,2.376L391.83,292.59l-2.112,1.663.017,7.322,10.173,3.027.485,13.543L389.41,337.136l-13.543,10.481L355.38,357.5l-11.325.106-2.782,2.649Z" transform="translate(-23.087 -138.497)" fill="#06c" stroke="#000"/><path d="M770.219,360.683l13.129-22.9.827-7.524,8.836-6.908,4.761-10.244,10.674-10.04,6.785-25.283-.141-3.8-6.115-9.3-3.353,1.751L791.164,255.4l-6.653-13.253-16.122-9.037-3.537-10.569-7.085-1.91-9.161-15.963-2.543-13.939,8.2-7.032,7.2-.616,6.758-8.6,3.915-5.315-3.229-8.985,2.525-6.239-11.361.994-24.323-10.261L705.547,139l-3.934.237-54.764,2.377-14.283,2.094-4.162.2-34.241,5.483-18.05,3.7-23.241-10.816-20.231,11.053-3.458,14.749-4.849,5.949L500.39,186.538l-10.367,4.506-11.308.58-7.181,8.748-3.838,1.6-6.327,9.468-3.784.361-17.31-7.7L430.19,182.824l-4.163-2.455L413.5,178.187l-8.114,3.124L395.3,184.127l-8.255,7.823-10.534,10.692-5.966,13.473-8.387,12.928-5.93,18.146-6.636,3.731,5.263,4.109,2.613,9.848-.581,3.731-9.319,6.416.141,7.559L364.55,307.3l2.376,2.939,3.52,1.32,6.724-3.336,12.478-14.045,2.112-1.654,10.622,2.148,10.78-2.385,2.649,6.424,6.82,1.223,1.638,3.194,4.557,24.148,5.606,4.62,3.458-6.706,14.317-4.866,8.527-10.041,19.872-9,6.7,7.269,8.166-6.53,7.736.651.484.176,4.709-4.8,5.227-16.807,16.324,1.6,7.717,10.261-3.915,9.61,1.513,3.115,5.158,10.059-5.483,13.719-.124,4.039,3.766-.07,7.885-7.515,10.78.29,5.624,21.464,17.459.141,5.721,9.521.378,7.515,2.235,10.93-5.174,9.539,1.681,3.028,10.023,4.2,2.992,6.785,8.4-5.342,7.392-.686,6.081-16.641,9.073-5.623,10.19,2.077,9.883-4.418,7.9,6.442,17.275-4.541,3.115,1.769-.22,1.223,10.173,15.039,1.152,17.961,14.97,20.5,7.146-1.171,5.315,4.946L726.12,420.1l10.587,1.619,12.549-7.268,11.141-1.1,2.323-10.763,10.331-14.661,3.458-5.914L772.9,368.35Z" transform="translate(-23.087 -138.497)" fill="#ffeb00" stroke="#000"/><path d="M889.416,546.929,880.6,526.336l-9.829-4.945-1.32-10.816-10.551,1.6-9.382,11.634-16.139,8.73-11.466-8.783,5.93-17.873,7.1-8.58-3.713-21.824,6.054-9.645,2.975-18.594-33.257-4-13.42-5.984-14.59,3.141-4.259-5.861-9.2-3.8-5.086-17.309-11.124,1.1-12.549,7.269-10.587-1.62-10.085,10.912-5.315-4.946-7.146,1.171L688.676,406.8l-1.153-17.978L677.367,373.8l.2-1.223-3.115-1.769-17.275,4.541-7.9-6.459-9.883,4.418-10.19-2.06-9.073,5.606-6.081,16.659-7.375.686-8.422,5.342-2.974-6.785-10.041-4.2-1.663-3.027L588.732,376l-2.217-10.947-6.1,8.87-2.737,14.063-15.471,9.662L548,401.842l-13.578-5.263-5.174,5.3L526.7,404.64l-.2,11.177,16.157,28.891L564.8,465.229l10.041,2.094,10.3-1.786-4.127,6.275,5.966,9.468-1.048,7.445-2.833,8.924-5.377,3.423-7.031-.617-6.222-1.7-9.742,2.869-5.737,11.994-.361,3.732,7.515,7.92-8.817,24.561,3.317,6.636-22,14.573-10.895,3.476-4.215,6.4,22.942,18.921,10.983,2.8,14.643-3.141,10.454,19.563,12.39,8.421-11.563,13.148-7.066,20.4-11.519,9.32-3.283,7.392,3.7,6.363,12.6,6.6,17.777,4.021,1.874,6.926,8.677,6.617,1.654,3.336-4.673,5.43,1.153,10.815-24.578.484,6.617,13.4,6.4,24.851,9.592,11.431,2.666-2.384,6.459,2.384,5.28,16.21,10.763,8.836,1.874-2.9,17.02-1.012,9.4-4.329,16.72-.106,2.614,7.163L684.1,825.621l-.924,18.524,8.544,11.291-6.6,16.429,16.7,5.641,21.3-25.159,1.857-7.234,11.036-15.022,17.961-3.318,15.585-8.712,1.029-10.929,5.843-9.487.22-11.308-3.7-6.239-1.787-3.142,12.655-21.78,13.869-3.264,10.261,3.1,5.658,4.937,3.3,6.688,3.124-2.2,2.737-15.075,4.383-5.966,21.658,5.676,21.876-5.157,12.858-13.992,28.4-10.859,2.719-2.684L919.5,705.94l4.471-22.141,9.3-12.206,15.5-10.727-4.453-29.9-17.459-14.194.123-7.322,5.395-9.4-8.3-17.064-16.624-8.58-4.224-14.7Z" transform="translate(-23.087 -138.497)" fill="#ffeb00" stroke="#000"/><text transform="translate(251.21 533.341)" font-size="163.461" font-family="DejaVuSansCondensed-Bold, DejaVu Sans" font-weight="700">1</text><text transform="translate(376.39 633.604)" font-size="152.952" font-family="DejaVuSansCondensed-Bold, DejaVu Sans" font-weight="700">2</text><text transform="translate(376.392 408.825)" font-size="163.461" font-family="DejaVuSansCondensed-Bold, DejaVu Sans" font-weight="700">3</text><text transform="translate(28.142 463.368)" font-size="144.275" font-family="DejaVuSansCondensed-Bold, DejaVu Sans" font-weight="700">4</text><text transform="translate(563.87 187.552)" font-size="186.771" font-family="DejaVuSansCondensed-Bold, DejaVu Sans" font-weight="700">5</text><text transform="translate(627.671 487.163)" font-size="186.771" font-family="DejaVuSansCondensed-Bold, DejaVu Sans" font-weight="700">6</text></svg>