<svg xmlns="http://www.w3.org/2000/svg" width="662.985" height="968.447" viewBox="0 0 662.985 968.447"><title>2T Législatives 2017 Drôme</title><path d="M211.816,256.086l-2.843-10.558-4.193-3.074,1.646-17.238-8.405-4.463-4.252.632-5.76-9.484,5.141-.672.231-5.166-3.456-22.728-6.786-3.41-15.659,9.2-4.232-2.6-1.889-1.053-1.237-5.312-6.418-5.088-7.582-1.184-.079,1.507-13.677,18.232-.165,1.7.118,5.286,6.016,8.727,5.732,5.911L146.628,220l.474,11.1-1.481,4.318.744,4.528,3.726,3.627,9.939,3.535,4.009,6.648-3.713,7.266-6.8,6.609-1.158,7.174,2.363,4.332.717,2.711-4.857,9.847,3.225,4.37,5.246,6.53.4,11.222.283,1.284,4.153,9.768,7.714,7.266,3.976,9.307,2.916,6.286-8.675,16.133-1.363,5.232-6.194,5.312-1.81,5.029,13.256,2.2,2.3,4.857,15.849-1.684,3.225-4.667,6.721-4.035,5.015.619-1.981-10.992,2.264-5.141,5.3-5.654.066-5.337,3.1-4.18,12.894.9.093-11.775-2.264-4.733-4.167.362L232.5,319.11l-2.08-10.011-4.844-1.955-4-3.344-5.3.7-5.338,5.924-10.065.9-8.629-6.714L179.767,315.3l-15.646-5.338,5.114-8.359,7.03-3.008,2.251-4.963,10.564-1.711,3.963-6.957,7.879,1.592,9.386-5.14.685-2.633-4.91-2.251-1.514-4.831,9.5-4.99,7.352-1.836,16.317,7.043,1.494-22.024-8.958.2-16.494,5.654Z" transform="translate(-43.839 -24.062)" fill="#ffeb00" stroke="#000"/><path d="M157.343,509.186l1.58-10.262-1.553-7.688,1.27-2.278,10.024-1.145,4.627.54,6.661-23.729.915-10.979-.066-.335,2.66.348,6.714-7.688,15.23-5.114,5.18,1.04,1.9-6.108-3.922-6.463-2.547.177,2.751-4.548,7.405-2.8,3.626-3.976,7.727-5.891,1.186-4.91.4-12.571-4.206-2.264-2.79-.231-15.311-15.632-5.015-.619-6.714,4.048-3.238,4.667L176,386.456l-2.317-4.871-13.243-2.2,3.883,14.461-2.521,6.838-3.792,3.752-3.383,7.24.1,8.024-3.91,3.278-7.74,1.441-1.7,7.326.685,10.1-7.339,2.054-4.529,1.941.4,5-2.093,1.579-.955,7.827-6.66,7.852-9.564,4.193-2.672,4.061-.409,1.889,4.64,9.169-5.489,8.741,2.607,12.96-.093,2.363.118,11.032,4.331,7.108,5.384,21.365.349,4.976-3.061,6.773,1.3,7.24-3.442,9.5-8.293,9.347-3.16,9.28-6.72,13,2.12,1.184-1.7,9.511-4.64,2.278-12.3,3.047L77.692,631.6l-.954,10.051L71.723,642l-1.85,13,5.9,8.175,2.02,1.593-1.928,7.47-5.621,6.174-2.916,10.8.862,8.307,5.654,9.616.487,8.393-2.87,18.489-3.357,4.14-7.458,3-4.963,5.312L53.4,764.41l.744,6.325-8.563,20.247-1.244,19.4,1.527,10.992.58,3.456,16.376,7.135,18.522.026.132-2.606,4.719-2.034-.744-5.285,4.706-9.452-.3-18.627,12.314,4.693,3.331-4.127,7.714-.3,4.516-2.87,5.91-16.9,3.778-3.5-3.153-3.521.955-2.317-10.558-6.174-1.553-1L114.4,741.44l-8.1-14.461,10.222-9.255,6.326,3.653,6.582-3.3,6.648-3.765,16.2-1.362L153.7,706l-1.672-6.866,1.014-3.3,20.879,3.225,2.317-6.747,9.656-2.336,1.323-2.106,4.759,5.732,6.733,2.89,9.5-8.254-1.632-4.746-1.12-10.682-5.311-12.381-6.747-4.153-15.9-2.291,2.673-9.452,4.37-2.349,11.907-3.726,2.3-17.8,4.41-2.725,2.39,1.013.217,13.033,1.553,2.093,2.264-1.323,17.113-6.1-2.171-9.189,8.023-.645,4.6-9.55-6.595-1.778-3.153,3.305-11.236.96.27-7.944-3.291-7.161,4.292-10.025,9.807-9.735-6.174-8.062-12.789,2.56-5.693-8.86-14.126-6.891.013-.349-7.378,1.527-2.738-6.45-4.588,2.054-.81-13.474-3.534-7.214,2.066-7.523-7.273-3.318-.309-7.174Z" transform="translate(-43.839 -24.062)" fill="#ffeb00" stroke="#000"/><path d="M326.021,862.148l-1.567,10.077L331.767,875l.566,15.659-5.437,5.68-1,2.389,10.011,7.754,4.291,3.468,18.549,5.029,16.442.941,1.283-13.73,4.528-.23,4.463.823,13.526,8.023,12.664,11.235.178-2.659,8.036.014,9.926,3.5,11.222-7.254,11.683,6.609,4.4,3.074-.744,1.658-1.066,5.22,2.994,10.235-1.9,18.707,7.661,2.3,10.564-1.8,6.555,4.278,4.588-2.4,1.468,10.479,5.141,1.592,1.092,9.873,2.9,3.792L521.007,992l4.936-1.592,1.955-4.819,17.37-7.267,5.128-12.459.013-.322,10.683.81,6.015-5.1-.23-2.672-9.169-9.6,6.405-11.927,2.172-1.658,8.135.645,4.357-3.126,4.075.618,4.251,9.452,7.175,3.522,5.054,6.1-4.278,12.236,7.852,1.541,18.707,1.954,2.3-13.565-20.635-3.087-1.092-2.4,4.305-14.862,12.1.408,1.579-1.863,5.141-1.763.388-2.725L620.559,915.8l2.469-13.5-4.746-11.7.9-7.958,6.931-7.971L619.941,867l-16.133,6.879-.658-5.325-7.267-7.662.2-5.285,4.035-2.534-3.587-5.621-4.746-1.363-5.18-5.285-4.33,2.56,2.738-7.556,9.511-9.439.566-2.633-4.153-3.139-4.5,2.211L571,822.975l-.691.118-8.741-1.132-5.068-.849-7.339,3.113-5.114-1.428-1.725-7.556-8.912-5.6L523.5,813.53l-5.786,5.582-8.036-10.874L504.236,808l-3.409-12.433-10.557-.4-5.016-1.079-2.033-4.858,6.312-4.653-.514-8.136-4.963-15.658L475.98,750.5l11.288-6.878,19.1,9.886,4.91-1.507,2.547-4.785,4.232.579,2.376-6.43L519.11,739.5l-15.092-5.95-2.619-4.437-2.021-12.96,3.7-3.87L499.45,702.4l-.81-1.876-.592-7.556,7.273-1.442,2.277,4.515,4.588,2.377,15.606-.231L549.44,707.3l5.99,4.383,2.376-.743,2.468-1.04,19.338,8.688,7.892-7.161,4.8-18.154,3.831-3.4,10.1,2.172,7.417-2.02-10.169-14.257-10.44-11.21L585.95,665.8l-9.926-8.241,5.167-18.357.375-1.337,3.778-2.725,2.534-9.524,4.41-2.093.658-6.556,5.345-11.2,5.068-.552,1.889-7.432-3.7-3.83L599.9,586.1l1.014-13.23,5.5-3.251,4.33,3.277,13.54.85,23.511,7.78,13.23-8.636,2.586-7.431,9.709,4.91,10.9.77,5.838-16.929,6.852-4,9.333-8.918-2.522-7.662-7.161-3.159-6.26-1.389-15,6.5-10.827,1.224-10.6-12.368-10.294-2.132-7.78-10.966-4.561,5.621-15.593-1.981-4.114,2.606-7.582-2.145-1.751-5.9-4.654-1.494-3.7-8.919-1.527-6.687-2.2-.592-8.214-1.442-12.059-6.5-2.3-10.834-18.819-12.019-1.428,4.1,4.5,10.248-2.831,3.344-37.386-12.532-2.252-4.127-7.767-1.633-2.185-4.785,8.306-6.312,5.423-11.926-11.722-2.291,6.219-33.075-2.507-8.05,5.621-15.863,1.724-19.614-3.291-34.582,5.976-18.128,2.62-4.535-7.056-13.987,1.777-7.674-4.009-3.153.718-5.286-6.984-8.01.718-8.306L508.079,242,513,239.825l5.384,1.08-4.37-7.227-7.095-4.437-5.463-.421-3.613,4.166-5.411,7.82-6.621,11.828-7.326,2.981-5.911,5.654-8.01.757-7.03-7.984-.336,4.845,6.97,8.4-7.365,1.863-8.011-6.312-9.755-2.377-4.449-2.047-2.133-9.781-4.035,1.508-6.878,3.817-.336,2.62-8.215-2.791-1-4.331-6.931-2.4-.987,2.336-7.366.862-1.119,2.291-3.2,1.981-1.468-1.349-.658-2.56-10.426-1.053-1.132-4.95-7.161-3.33L369.2,236.5l-1.119,2.469,5.608,5.759.81,13.447-1.764,5.114-1.968,5.246-4.6,28.27,2.7.731-1.541,9.768-2.237,5.015-6.286,8.189-8.714,27.341-5.852,14.5-12.73-.23-6.417,7.273-22.859-11.762-4.318,3.1-7.379-1.929-10.235-2.764-8.089-13.7-.27-7.9-4.654-2.725-.606-2.659-2.646-.744-1.158,2.508-20.852-6.72-7.675,7.148-8.122-1.428,2.251,4.732-.079,11.775-12.894-.9-3.113,4.179-.066,5.338-5.285,5.654-2.265,5.141,1.968,10.992,15.323,15.632,2.778.23,4.206,2.264-.4,12.572-1.185,4.91-7.727,5.891-3.627,3.976L208.7,425l-2.751,4.548,2.547-.178,3.923,6.464-1.9,6.108-5.18-1.04-15.231,5.114-6.713,7.688-2.66-.349.066.336-.915,10.979-6.661,23.722-4.614-.54-10.038,1.159-1.27,2.277,1.553,7.688-1.58,10.262,6.582,2.587.3,7.161,7.286,3.318-2.066,7.523,3.534,7.227.8,13.46,4.6-2.053,2.725,6.45,7.378-1.527v.349l14.119,6.891,5.693,8.86,12.8-2.561,6.161,8.063-9.794,9.735-4.305,10.025,3.291,7.161-.27,7.944,11.235-.961,3.153-3.291,6.609,1.764-4.6,9.551-8.023.645,2.159,9.189-17.1,6.1-2.264,1.323-1.553-2.093-.231-13.033-2.376-1.013-4.41,2.725-2.3,17.8-11.907,3.726-4.37,2.349-2.685,9.452,15.9,2.291,6.76,4.153,5.3,12.381,1.119,10.682,1.632,4.746-9.5,8.254-6.721-2.89-4.759-5.733-1.336,2.12-9.642,2.33-2.318,6.747L153,695.938l-1.027,3.3,1.672,6.865-1.415,6.944-16.185,1.363-6.661,3.765-6.569,3.3-6.338-3.653-10.222,9.254,8.109,14.461-1.283,16.535,1.553,1,10.558,6.174-.955,2.317,3.153,3.521-3.778,3.5-5.924,16.9-4.5,2.869-7.727.3-3.317,4.127-12.315-4.693.283,18.628L85.4,822.168l.757,5.285,23.129,1.172,5,5.891,5.029.092,8.378,9.656,4.845.954-.053,20.53-.27,6.582,4.771,8.741-.217,12.46.731,7.536,6.661,3.114,17.764-13.7,12.96-12.328,11.762-1.955-2.363,4.575,20.069-2.916,5.555-5.384,16.146-8.109,9.9-4.9-1.414-5.529-3.858-3.5-32.522-9.023-18.114,3.725.7-7.582-4.772-9.051,7.339-9.991-9.077-5.72-5.357.243,13.085-15.468.217-2.376,7.714-5.3,2.607-10.63-.9-5.424,4.68-9.9,15.106-5.621,3.614-3.982,4.087.2,6.3-7.879,2.547.309,2.468,4.529,5.1.375,9.82,9,7.029-3.343-.579,6.931-2.363,1.336,2.87,10.05,7.918,1.323,8.307,6.866,13.025-.863-.322,5.312-9.537,9.051-15.771,3.047-2.02,13.026-6.97,8.28,2.415,6.352-8.972,5.693-2.856,4.5-2.889,15.553,1.441,5.437,7.214-.257,8.214-4.8,6.9-4.41,17.4-8.023L284.7,860.74l5.581.118,12.908,2.646,22.366-15.738,2.08-7.444,7.378-3.653,1.336.58,2.238,4.614-1.514,7.4-2.56,7.162Z" transform="translate(-43.839 -24.062)" fill="#ffeb00" stroke="#000"/><path d="M264.1,328.291l-1.158,2.508-20.852-6.721-7.675,7.149-8.135-1.429-4.167.362L232.484,319.1l-2.08-10.012-4.844-1.955-4.009-3.343-5.285.7-5.338,5.924-10.065.9-8.629-6.714-12.492,10.683L164.1,309.954l5.114-8.36,7.043-3.007,2.251-4.963,10.564-1.712,3.949-6.957,7.892,1.593,9.386-5.141.672-2.633-4.9-2.251-1.528-4.831,9.511-5,7.339-1.823,16.323,7.042,1.481-22.023-8.945.2-16.494,5.654-1.942.309L208.971,245.5l-4.192-3.074,1.658-17.239-8.419-4.462-4.252.632-5.746-9.485,5.128-.671.23-5.167L189.936,183.3l-6.786-3.409-15.672,9.2-4.232-2.6-1.889-1.052-1.237-5.312-6.417-5.088-7.583-1.185-2.586-4.061-6.852-3.173-.9-7.674.81-7-3.264-6.352.013-4.614,3.534-5.864-5.029-16.133-.889-16.468,4.022-10.222.658-6.069-.217-2.389-.066-14.461-5.042-8.484,4.871-1.929,27.757-6.5-.1,8.307,11.275.645,13.585-9.925,14.053-9.979,11.169-4.666,5.358-.632,11.479-6.826,6.648-4.8,10.913,1.4,6.161,18.252,6.865.941,11.117-.7,3.534,4.279,4.91,14.335,3.159,9.834,1.04,1.119,7.339-3.521,10.834-1.258,4.733-2.751,2.6-4.8,8.036-.757,1.915,1.481L315.008,72.58l-4.732,30.389,10.557.151,6.72-8.793,5.3,7.622,7.826-1.336,4.232,12.479,9.86,12.151-13.23.579-5.963,5.193-1.027,7.82,2.337,4.64,3.369,10.453,7.083,8.359.5,5.384.769,7.7-3.8,3.495,3.2,7.043-.769,10.1-.77,6.418-7.174,11.762-6.246,5.436-3.818,12.394-9.576,2.2-2.469,4.232,2.12,1.514,4.384-2.778,9.215,8.484,4.64-2.586,5.4-11.98,18.383.955,5.99,2.251,1.863,2.132-1.12,2.482,5.609,5.759.809,13.434-1.763,5.127-1.968,5.246-4.6,28.27,2.7.731-1.54,9.768-2.238,5.015-6.285,8.175-8.7,27.355L344.209,362.3l-12.73-.23-6.417,7.286L302.2,357.589l-4.318,3.1-7.365-1.929L280.271,356l-8.09-13.7-.256-7.918-4.667-2.712-.6-2.659Z" transform="translate(-43.839 -24.062)" fill="#06c" stroke="#000"/><text transform="translate(291.689 579.962)" font-size="139.696" font-family="DejaVuSansCondensed-Bold, DejaVu Sans" font-weight="700">3</text><text transform="translate(166.076 178.927)" font-size="139.696" font-family="DejaVuSansCondensed-Bold, DejaVu Sans" font-weight="700">4</text><text transform="translate(61.613 656.35)" font-size="119.618" font-family="DejaVuSansCondensed-Bold, DejaVu Sans" font-weight="700">2</text><text transform="translate(120.426 252.715)" font-size="68.476" font-family="DejaVuSansCondensed-Bold, DejaVu Sans" font-weight="700">1</text></svg>