<svg xmlns="http://www.w3.org/2000/svg" width="915.309" height="832.014" viewBox="0 0 915.309 832.014"><title>2T Législatives 2017 Ain</title><path d="M387.288,413.226l-9.337-7.376,1.444-8.888-15.133.12-.031,2.88-7.668,3.217-.553,1.915-3.067,3.172-2.072,3.725-4.571-.1-2.177-5.334-7.376-2.409-3.007-3.509-3.082,3.584,1.055,11.423-7.556,3.187-4.863-2.731-10.563-11.3-5.378,3.434-4,8.708-8.939-2.132-11.543-14.184-8.124,3.479-8.708-2.027-4.832,9.949-13.8-12.583-6.254-10.81-.457-3.007,5.3-6.942,17.856-.89,1.041-2.85L258.28,361.07l-15.559-2.132-12.307,2.027-8.228-4.81-4.848-8.064-2.88-5.364,1.683-5.842,7.249-8.573.748-9.277-16.817-7.189-2.1-8.827,11.393-5,5.73-12.276-10.713-13.518-8.386-8.267-14-3.112-4.4,6.284-11-5.378-7.376-10.07-9.1,1.669-1.533-4.81-21.68-10.766,1.041-12.987-6.18-3.927.307-13.339,1.81-9.291.171-10.182.689-3.695,1-2.6,12.71-15.485.06-16.57v-1.167l.464-6.344,7.451-10.167,1.683-4.459,2.529-7.727,1.272-1.654,7.466.464-.352,6.09,4.4,2.775,5.761-2.439,4.907-6.9,6.194-.905,16.63,5.087,2.686-1.257,2.327,9.807,25.756,14.932,10.608-1.414,15.119-10.78,11.281,4.032,13.4-7.668,1.488-5.887,2.963-.719,14.7,3.554L305.554,115l7.218,5.768,15.283,3.329,1.489,2.79-2.042,2.072,5.813,9.658-1.781,5.461,4.032,4.279,1.3,12.171,6.119.016,7.347,9.747,7.466-1.444,5.259,6.913,11.064,3.037,23.453,1.683,7.1,16.435-7.653,4.923L395.84,207.8l2.865,1.04-8.587.464.733,2.977,5.843,1.87,15.866,9.718,8.91.292,12.067,9.875,6.853,5.872-8.14,8.52-1.024,2.821,7.586,4.78.232,5.9-1.459,5.716,6.3,6.777,11.222,5.147.441,5.992,1.488,15.762.015.816,3.912,5.214,4.264-31.09,4.2-4.474,8.648,30.028,11.034-2.648,6.808-5.1,6.426,7.511-5.581,20.385-4.78,2.483-.846,12.6,8.663,8.872,2.588,1.826,15.418-2.731,1.915-1.855,5.566,5.394.321,5.977-5.73,11.438-5.581,3.008L498.381,396.34l-2.895,1.376-2.454-2.042-4.136-3.4-2.394,1.489.569,5.932,8.154,4.032,1.317,12.187-3.584,4.571L489.2,424.7l4.474,3.756-9.672,23.19-10.421,11.745,2.805,12.553-1.713,2.73-6.426.09-5.671-1.3-2.147,4.848-2.633.427-4.474,18.395,2.364,9.029-1.361,2.865-8.663,3.284-1.93,6.007-4.354,14.775,1.406,5.349-2.327,4.586-4.967,3.463-9.089-.523-.733,8.812-8-3.928L413,556.295l-6.412-3.434-8.214,14.992-.935,12.7-2.791,8.872-4.4,4.541-5.3,3.067-2.379,6.007L375.478,592.9l-1.347-15.545-10.652-5.888,4.017-11.5-1.226-2.895-1.713-5.828L361.9,546.69l-5.932,6.119-13.122,6.665-8.969-1.122-5.364-13.368-8.895-2.237-7.279-10.226,1.07-15.807,2.992.247,2.267-5.813,4.952-3.7,26.213-8.357,2.805-11.453-2.76-15.006,2.147-5.933-2.866-8.842,7.451-3.359,1.81-5.147,6.105-1.443,11.909,4.017,8.341-2.776,10.856,1.429,2.977-7.084-2.851-4.78,1.841-2.1-4.078-3.448-2.132-7.923Z" transform="translate(-28.255 -114.028)" fill="#06c" stroke="#000"/><path d="M397.1,643.33l-.523-7.848-4.952,3.157-6.037-.15L367.218,655.7l-7.615-2.88,1.87-5.6-3.389-14.288-2.671-4.877-5.521-1.3-5.611,5.858-1.99,5.745-8.8,2.925-6.269-6.7-9.044-.03-4.032-8.341-8.872-1.609-5.229-11.116-5.461-1.257-5.8,5.992-8.91.935-33.708,2.514-3.172,7.2,1.392,5.3-5.768-1.578-2.177,2.072-10.211,21.739-1.9-2.281-16.906-3.277-6.576,6.344-18.365-9.9-6.7-9.307-2.618-1.81-9.426,1.152-7.683,5.184-6.4-3.8,4.294-8.109-1.736-8.94,1.9-12.313-5.61-2.162-14.828,2.266-9.306-5.476-7.309,5.521-20.819,6.134-.03-15.455-2.963-12.066-6.1-1.108L78.4,584.231l-4.4.322-6.18-.613-18.993,1.548-8.341,2.177-.322.891.689,5.857,3.217,20.663-2.835,8.52-1.085,1.915L28.768,636.194l.509,8.6,8.311,3.553,10.593,2.237,7.989-3.756,2.731,1.152,7,13.062,11.939,2.513,1.856,10.1L75.5,684.34l.688,1.593,27.949-15.119,2.528,5.349,11.5,3.374.569,8.94,5.477-3.314,1.989,15.695,16.031,5.379-5.378,15.081,6.733,5.872,6.328,16.817-1.84,21.1,3.553,5.132,11.484-4.571,6.133.217,7.743-1.93,4.235,3.2,6.358,1.407,7.975-1.781,5.274-2.117,9.845,4.122,7.833-3.62,5.6,1.122,7.637-3.509,5.3,2.058,21.889-1.736,5.409-1.406,5.088,13.735,2.91-1-.785-9.1,5.64-2.027,14.6,6.426,8.678,1.242,6.411,6.792,5.8,2.162,6.516,11.281,2.334,8.267,5.843.479,15.358,2.334,10.084-7.773,9.815-6.329,7.159-4.616,15.1-22.629,7.541-30.978,7.406-9.262,10.406-5.947,3.232-8.46,3.4-5.9,8.91-2.057,14.685,11.984,16.758,11.677,7.6,8.065,1.01,6.329,10.024,8.034,1.257,2.312,9.4.673,5.963-7.249,11.939-1.331-5.963-17.9,2.424-5.7-1.347-2.866,4.488-.366-6.074-6.621-7.743-4.6-2.349,1.871-3.523-4.766-20.849-11.715-9.119-6.942-5.768-1.81-5.057-11.191-7.5-8.813-2.806-8.064-2.9-.553-12.65-7.324-2.656-1.653-5.378,3.2Z" transform="translate(-28.255 -114.028)" fill="#06c" stroke="#000"/><path d="M733.06,497.1l-5.454-2.851-5.671,2.5.6,11.955L716,519.223l-2.116,16.1,3.523,6.007-4.205,9.6,1.489,9.965,1.885,8.371-4.354,7.376,3.246,6.957-.232,13.518,1.347,6.164L730.41,616.66l-.786,9.441,1.287,8.521-2.057,8.386-4.032,3.957,3.83.4-5.768,7.5,4.6,14.887-1.96,9.4-7.1,24.208-4.847,15.119L709.5,732.022l-3.344,14.595-5.671,6.007L699,776.339l-2.042,14.931,1.069,7.638-2.311,9.306,2.656,15.531-2.028,2.087-6.822,1.915,4.249,11.73-8.3,8.617-4.062,8.416-5.088,3.419-11.206-4.264-2.282.8-17.259-.613,1.99,10.742,3.494,12.037-14.992,16.308-.935,6.194,2.334,5.963.045,8.812-7.361,5.379L615.2,922.544l-2.865,8.431-6.3,3.972-1.317,5.132-2.648,5.363-5.379-1.608-5.625-11.05-6.666-9.807-1.593-14.946-14.685-10.945,11.341-4.691,6.254,5.768,8.371-3.71-1.347-6.119-7.787-30.657-5.6-8.064-2.7-9.352L569.286,829.5l.441-1.623-6.68-11.6,8.565-8.386,4.032,2.334,1.272-35.668,7.743,5.438,6.329.292,15.036,11.371,5.2,7.892,4.6-11.685L608.68,766.83l7.743.336,6.792,4.264-1.272-11.468,13.241,6.119,11.064-2.895,2.671,8.857-2.409,5.3,6.778,4.81,13.5-4.413-1.242-4.048,15.224-8.573.382-6.209,6.411-7.249-2.221-.763.583-8.6,3.389-28.666-7.757-14.184.6-2.409,1.092-4.384,4.72-32.145-.441-10.728-1.317-4.631-2.76-15.358-7.586-4.75-.4-3.142-.8-15.4-1.153-9.441-12.829-25.51-2.267-3.89.045-1.039,3.449-37.831-3.539-8.91-3.755-13.951,3.591-12.142,3.277-17.647,10.532-14.685,1.459-17.917-4.519-4.518-14.992-3.943-.92-3.785-7.376-4.077,6.164-23.452,12.187,4.541,9.059,1.391,12.067-3.037,2.394-5.476-4.205-11.087,7.437-16.675,5.1-3.583,11.572,4.967,14.962-5,2.731-1.392,2.3-8.588-1.99-8.954,15.5.015,8.924-8.446,2.866,5.423,7.347-6.314,8.827-13.585,9.262,2.469,4.279-8.169,1.915-15.164,4.429-4.122,9.935,4.152,21.373-37.786,5.716-11.378,18.6-12.306,11.221-11.147L869.5,213.021l4.938-5.626,2.191,1.167,21.306,7.324,5.73,7.788,8.828,3.583,17,14.872,8.812,3.022,3.606,5.349,1.122,3.022-1.085,3.053L936.105,267.9l-5.3,8.094-5.671,2.925-1.653,6.239L915,299.768l-3.344,8.8.217,11.423L901.005,329.6l8.692,17.647,2.6,1.855,1.533,9.471-4.219,8.2-7.907,5.3-9.748-7.7-11.236,4.863-5.423-2.88-9.538,11.895-2.895-1.07-5.013-3.815-11.34,4.982-8.738,8.506-5.8,1.975-.7,2.992-11.648,2.222L817.7,405.5l-4.556,3.9-.337.979,18.807,11.162-1.9,9.134-5.147,2.439-5.611,14.745-5.491,10.547,1.137,5.8-6.635,5.746-6.9,3.77-5.259-.613-5.745.6-4.795-2.791-8.634,7.8-6.358,2.544-2.409.778-4.324,8.535,4.474,11.356-2.072,9.247-15.082,1.474-6.545-1.04Z" transform="translate(-28.255 -114.028)" fill="#ffeb00" stroke="#000"/><path d="M105.327,267.507l1.024,8.8-.785,15.4L99.1,304.844l-5.274,11.378L89.729,337.5l-6.374,10.054-3.59,9.979-1.683,15.082-4.736,7.817-1.84,4.691-1.489,4.047-1.75,11.618-.262,6.007-7.13,10.054-.569,12.276,1.347,4.615,5.993,7.377,6.867,6.59-4.2,15.837-5.394,7.6-9.807,12.171-3.157,10.167-4.414,5.409-7.712,8.52,1.01,8.2,4.219,3.172,3.508,10.563-1.713,5.715L34.482,547.642l3.846,11.206.494,6.808-1.392,9.568,2.993,12.463,8.355-2.192,18.994-1.549,6.164.614,4.413-.322,8.738,2.79,6.1,1.092L96.154,600.2l.03,15.44,20.834-6.119L124.312,604l9.306,5.476L148.46,607.2l5.6,2.162-1.9,12.328,1.736,8.925-4.279,8.109,6.4,3.815,7.668-5.2,9.44-1.137,2.6,1.81,6.7,9.307,18.365,9.89,6.576-6.329,16.906,3.261,1.9,2.3L236.4,634.7l2.177-2.087,5.76,1.579-1.376-5.289,3.157-7.2,33.708-2.529,8.91-.935,5.813-5.977,5.461,1.257,5.229,11.117,8.857,1.608,4.031,8.341,9.045.015,6.269,6.718,8.812-2.925,1.975-5.745,5.611-5.872,5.536,1.316,2.655,4.863,5.932-1.257,2.072-8.738L377.1,612.786l1.766-2.544,3.606-7.264-7.085-10.136L374.036,577.3l-10.652-5.888L367.4,559.9l-1.226-2.88-1.713-5.828-2.671-4.556-5.918,6.105-13.136,6.68-8.955-1.122L328.4,544.927l-8.887-2.237-7.293-10.227,1.084-15.806,2.977.232,2.282-5.8,4.953-3.7,26.213-8.356,2.8-11.453-2.76-15.007,2.146-5.932-2.865-8.843,7.436-3.358,1.81-5.147,6.119-1.444,11.895,4.017,8.355-2.775,10.855,1.429,2.963-7.085-2.836-4.78,1.84-2.1-4.077-3.449-2.132-7.922-4.092-11.94-9.321-7.376,1.429-8.887-15.134.1-.03,2.9-7.668,3.2-.553,1.915-3.068,3.187L350.792,412l-4.586-.09-2.177-5.334-7.376-2.409-2.992-3.509-3.1,3.569,1.055,11.423-7.556,3.187L319.2,416.12l-10.548-11.311-5.393,3.434-4,8.722-8.924-2.131L278.789,400.65l-8.125,3.479-8.707-2.043-4.847,9.965-13.8-12.6-6.254-10.81-.457-3.007,5.3-6.928,17.856-.905,1.04-2.85-2.618-13.869-15.559-2.132-12.307,2.027-8.228-4.81-4.848-8.08-2.88-5.349,1.683-5.857,7.249-8.566.748-9.291-16.817-7.189-2.1-8.813,11.393-5.012,5.73-12.276-10.713-13.5-8.386-8.267-14-3.112-4.384,6.269-11.02-5.363-7.376-10.085-9.1,1.683-1.533-4.825-21.68-10.757,1.041-13-6.164-3.913-9.089,16.585-5.229,8.506-4.556,7.145Z" transform="translate(-28.255 -114.028)" fill="#ffeb00" stroke="#000"/><path d="M390.213,593.889l-5.3,3.082-2.379,5.992-3.591,7.279-1.78,2.529-11.065,10.166-2.072,8.753-5.917,1.257,3.389,14.288-1.87,5.6,7.615,2.88,18.35-17.214,6.052.15,4.952-3.157.509,7.847,12.508-.381,5.378-3.2,2.671,1.653,12.635,7.324,2.9.554L436,657.349l7.5,8.812,5.057,11.191,5.768,1.811,9.119,6.942,20.849,11.715,3.523,4.765,2.349-1.87,7.743,4.6,6.074,6.62-4.488.352,1.347,2.88-2.424,5.7,5.963,17.9L492.431,740.1l-5.963,7.249-9.4-.674.306,3.1-8.521,2.424-1.256,2.85,1.107,12.306,10.577,11,5.042,8.094,8.491,7.189,14.992,22.809,9,8.109,12.313,12.022,6.209,14.318,11.618,1.7,4.518,3.553,2.409,8.461,8.723,3.344,3.217,5.244-2.88,5.259-3.112.247-5.843-10.712-5.828-1.093-1.361,9.232,3.2,5.364,3.157,9.336,7.668-1.347,7.653,4.676-.352,2.992,11.341-4.706,6.255,5.768,8.371-3.71-1.347-6.119-7.788-30.657-5.6-8.065-2.7-9.351-7.376-10.757.441-1.623-6.68-11.6,8.566-8.386,4.032,2.334,1.272-35.669,7.743,5.439,6.344.292L606.02,791.7l5.214,7.892L615.82,787.9l-7.144-21.014,7.743.336,6.792,4.249-1.272-11.468,13.241,6.119,11.065-2.88,2.685,8.858-2.423,5.3,6.792,4.811,13.488-4.414-1.242-4.047,15.224-8.573.381-6.224,6.427-7.249-2.237-.763.584-8.588,3.389-28.667-7.758-14.2.6-2.394,1.092-4.384,4.721-32.145-.442-10.728-1.316-4.631-2.761-15.373-7.586-4.735-.4-3.142-.8-15.4-1.152-9.456-12.83-25.5-2.266-3.89.044-1.04,3.449-37.83-3.538-8.925-3.755-13.937,3.591-12.141,3.276-17.662L672.016,461.5l1.458-17.917-4.5-4.519-15.006-3.927-.905-3.8-7.392-4.077,6.18-23.437,12.171,4.526,9.06,1.391,12.081-3.022,2.379-5.476-4.2-11.087,7.451-16.675,5.087-3.583,11.573,4.967,14.962-5.012,2.73-1.376,2.3-8.588-1.99-8.955-5.072-1.07-33.223-5.027-20.572,4.2-5.409,2.835-5.857-18.1,1.915-12.8-2.806-12.7-19.068-2.634-.8-4.54-9.44-7.391-14.745-.816,2.866-8.648-2.349-7.945-5.476,5.858-3.741,5.3-12.126,3.815-4.354,11.895-.658,3.875-4.28,10.623-6.763,4.952-14.363-.232-1.975,5.7L542.97,344.348l-17.752,4.182.307,5.992-5.716,11.439-5.581,2.992-15.911,27.38-2.895,1.376-2.454-2.042-4.136-3.4-2.394,1.489.569,5.932,8.154,4.017,1.317,12.2-3.584,4.57-3.755,4.2,4.474,3.755-9.672,23.191-10.421,11.76,2.806,12.553-1.721,2.73-6.411.09-5.671-1.3-2.147,4.848-2.634.426-4.474,18.381,2.365,9.044L454.271,513l-8.678,3.3-1.915,6.007-4.354,14.76,1.406,5.363-2.326,4.586-4.967,3.464-9.089-.524-.734,8.8-8-3.927-2.671,1.444-6.411-3.419-8.214,14.992-.936,12.7-2.79,8.858Z" transform="translate(-28.255 -114.028)" fill="#06c" stroke="#000"/><text transform="translate(252.069 232.673)" font-size="158.772" font-family="DejaVuSansCondensed-Bold, DejaVu Sans" font-weight="700">1</text><text transform="translate(107.602 412.638)" font-size="158.772" font-family="DejaVuSansCondensed-Bold, DejaVu Sans" font-weight="700">4</text><text transform="translate(472.555 499.685)" font-size="158.772" font-family="DejaVuSansCondensed-Bold, DejaVu Sans" font-weight="700">5</text><text transform="translate(262.233 640.491)" font-size="120.635" font-family="DejaVuSansCondensed-Bold, DejaVu Sans" font-weight="700">2</text><text transform="translate(690.471 343.323)" font-size="104.169" font-family="DejaVuSansCondensed-Bold, DejaVu Sans" font-weight="700">3</text></svg>