<svg xmlns="http://www.w3.org/2000/svg" width="855.431" height="802.121" viewBox="0 0 855.431 802.121"><title>2T Législatives 2017 Cantal</title><path d="M134.649,414.488l-.084-.161-7.68-3.587-11.5-1.082-3.463,4.5-3.118-.331L88.449,431.989l-1.244.123-.66,5.053-2.634.477,9.853,16.111,4.346,15.359,15.643,15.3-4.961,18.132-17.685,3.916-8.256-3.87-2.895,1.167-17.11,7.318,11.611,22.993-2.834,15.5L88.58,563.271l3.771,8.593-13.685,7.841-1.114,3.041.077,12.733,5.192,11.6L98.3,629.292l5.007,2,1.813,5.022,7.91,15.466,17.294,10.813-.161,12.011,3.656,8.056-2.051,7.664-2.5,8.578-8.932,2.373-1.19.284,2.833,15.267-3.524,27.792-9.669,12.4-2.1,9.223,5.368,5.9,10.69-5.937,15.988,22.878-8.578,12.087,5.038,7.364-2.726,5.1-.092,8.908,4.661,2.311,9.83,6.659,10.352,11.626,8.547-5.952-4.047-4.922-3.885-15.091,12.218-9.422,15.274,1.843,9.584-8.025,3.157.222,2.879-.568,7.687-4.8,14.207,2.772,10.529-5.283,5.283,4.185,2.873,5.353-1.029,9.107,10.4,6.989,9.346-.569,10.167-7.187,7.7,4.346,2.91-1.137,4.977-.914,20.158,6.827,9.439-7.648,11.7,4.754,2.564-8.371,6.052,1.8,2.25-2.342,3.157-5.606-.215-9.677,7.387-17.954,12-9.393,1.958-5.429,9.468-6.435,12.948-9.446.338-2.895-4.792-3,1.774-2.58,1.382-7.065-.368-16.8,4.569-3.333,2.488-15.674,6.136-6.42,8.278.991,8.847-8.908-1.121-24.928,8.439-9.046-4.676-11.5,9.061-9.092,7.2-17.771,15.658,2.3L450.147,607l1.559-12.326,15.182-19.859,4.961,3.3,11.043-3.041,6.8-20.051-2.91-15.121.9-15.912,7.473-5.4.284-9.461-3.917-15.075,12.572-18.132-1.1-6.228,3.057-9-1.306-3.348,13.785-20.642L521.7,428.1l-12.118-13.408-10.766-5.652-9.162-1.275L491.7,396.45l-5.775-7.772-11.474,5.652-10.92-5.967-.376.016-5.038,3.993-9.538,1.321-7.035,9.123-.583,8.924-16.918,6.842-11.151,2.957-5.368,6.512-10.659-.361-21.4-1.136-5.283,3.317-5.514-2.488-7.68,4.593-18.008-.377,1.659-9.061,2.112-8.548-2.066-2.4L318.689,415.9l-25.435-2.28-2.557-5.161,1.16-11-8.1-4.861-21.518,2.687-3.678-11.772-8.924,3.962L244.09,402l3.894,5.161-8.287,6.9-10.759,6.612-36.784,3.272-3.011-.438-3.218-8.747,4.669-4-.814-3.133-6.32-.331-4.684,7.834-8.64,4-6.305-.753-4.507-4.593L153.4,416.27l-9.162-2.91Z" transform="translate(-62.159 -41.678)" fill="#06c" stroke="#000"/><path d="M641.013,203.263l-10.8-19.306-4.938-15.313.108-3.418-2.8-11.235,1.528-5.506-5.967,1.5-5.506-2.833-7.948-9.016-8.056-3.586L592,141.734l-8.187-4.623L578.2,125.953l-15.851,1.467-8.309-8.955L537.3,127.642l-2.988,5.522-3-.976-12.057-.806-7.856-4.439-5.714-1.559-8.486,2.973-8.97,7.725-6.512-7.019-3.287-8.778-11.611-9.9-1.167-12.64,6.565-8.517L471.2,83.8l-9.346-.407L452.9,86.5l-5.921-7.4L438.4,76.282l-8.924,1.743-2.848-21.8-9.416,12.8-5.859,2.2-9.208-1.383L391.184,58.5l-11.858,2.042-7.817,4.816,5.344-20L362.024,42.2l-8.386,3.6.576,5.7-3.663,9.976-2.611,1.152,1.228,8.294L346.1,74.969l-3,21.525L340,101.939l19.552,14.983,3.1-.492,3.279,11.013-2.534,8.562-4.884-2.519-4.869,3.825-12.026.076-4.938,3.541-1.459,6.09-7.71-12.195-17.517-1.59-2.412-3.056-9.607-8.486-12.41-.991-5.007-3.855-1.858-5.913-8.218-4.662-12.594-1.352-4.293-.046-3.195,5.038,12.111,21.94-3.471,5.292.744,5.237-.122,15.736-8.448,9.376,4.608,8.056-3.332,8.533-8.832,3.686-15.528,3.509-6.489,11.158-10.321,20-9.269.268-4.2-1.589-5.2,6.182-2.856,12.6-8.939,3.732-1.713,2.788-1.221,3.041.453,9.76-8.716,4.171-5.406,8.155-10.206,8.171.307,3.257-5.6,2.142-2.173-2.058,2.8,5.714-2.7,12.525,4.616,4.485,2.664,15.85,12.511,9.915,6.266.138,1.152,3.018-1.689,4.976-12.441,1.367-.615,12.318-8.455,9.269-12.2.783,5.966,18.116-5.92,11.051.337,9.6L134.542,414.3l.085.154,9.576-1.114,9.162,2.911,5.921-2.488,4.507,4.592,6.305.753,8.64-4,4.684-7.833,6.32.33.814,3.134-4.669,4,3.218,8.747,3.011.437,36.785-3.271,10.759-6.613,8.286-6.9-3.894-5.16,5.552-14.522,8.924-3.963,3.678,11.773,21.518-2.688,8.1,4.861-1.16,11,2.557,5.16,25.435,2.281,21.994-4.308,2.066,2.4-2.112,8.547-1.659,9.062,18.008.376,7.68-4.592,5.514,2.488,5.283-3.318,21.4,1.137,10.659.376,5.368-6.527,11.151-2.957,16.918-6.842.583-8.924,7.035-9.123,9.538-1.321,5.038-3.993.376-.016,10.92,5.967,11.474-5.652,5.775,7.772-2.043,11.312,9.162,1.275,10.766,5.652,12.118,13.408-3.179,8.609L504.7,457.325l1.306,3.348-3.057,9,1.1,6.227-12.572,18.132,3.917,15.075-.284,9.461-7.473,5.4-.9,15.912L489.65,555l5.084,1.352,1.889-5.822,6.674-6.166.376-.783,2.488,8.516,9.031-.161L528.378,572.7l-2.519,8.847L530,593.092l-4.661,8.278L523.686,613.9l1.874,6.075,6.227.568,5.007-7.756,10.306-7.065,5.4,3.041,25.035-1.367,2.312-2.173,3.087-.139-2.688,21.387,5.253,3.587-1.451,8.67,5.537,7.664,6.266,24.39,6.643,13.593,5.367,2.972,5.921-.315,8.655-8.155,8.878,12.571.153,12.418-2.081,2.4-9.422-.361-1.244,2.942,1.136,3,8.478,4.262,2.7,5.729-1.306,9.392-5.283,8.025L629.41,753.6l2.158,15.436,4.707,8.263-1.352,8.847,9,8.04,1.4,6.09,4.846,3.963-.522,3.133,5.475,5.683,7.457,3.287,2.127-5.222-1.466-2.9,10.72-20,11.082-33.752,8.716-4.123,6.313,1.428-2.757-11.066-4.954-2.911.929-2.726L695,719.957,702.111,711l3.917-4.547-2.726-8.478,3.871-7.679-2.627-14.622,1.514-5.952,10.4-14.76,8.355-3.663-3.148-11.043,14.161,2.895,3.463.177.66-10.121-3.478-10.637,6.612-9.945-1.2-16.918,10.7-6.358,5.791-11.1,9.444,1.242,5.637,7.7,5.744,8.732,2.864,8.547,5.7,2.281,5.353,7.38,5.652,2,3.7-8.8,12.357-2.626,7.034-6.581,6.09-6.152-4.607-7.772-.991-11.773,15.182-5.775-3.348-14.26,3.679-4.5-1.152-2.687,5.053-1.936,6.251-.031-2.112,5.952,3.087,5.207,12,2.972,10.037-12.087,8.716-.331,2.757-5.606,12.641-9.269,10.812.991,4.455-15.3-8.671-3.4-1.428-9.377,11.327-4.516,5.368-11.1-2-2.411-8.893,2.388-6.236-9.792-11.849,2.535,6.6-14.1-5.8-2.058-11.028,5.353-2.58-1.713-5.9-11.189,3.2-8.8-2.312-12.433,8-20.443-2.013-4.876-13.692-4.316L861.6,400l-1.759-5.583,11.143-3.747,3.678,5.068,14.323,6.029,21.464-8.64-6.267-.6-1.543-6.09-12.5.223-10.682-6.436-1.228-.33-7.35-5.445-8.37,3.663L854.7,357.543l3.632-8.309-1.482-2.112-7.426-.153-4.392-18.224,1.067-9.461,5.268-7.741.852-15.865L835.7,290l-5.821-2.565-3.4-18.692-6.558-6.566,3.794-18.116-1.114-6.3-3.133-.177-.584-3.087-7.741-5.322L795.663,230.7l-.376,3.018-13.262,7.173,2.91-11.757-5.114-7.242-.438-5.882-10.091,7.034-8.878,1.605-12.656,1.259L740.5,220,731.024,221l-.721-6.2,8.117-3.871,6.059-1.244,4.139-8.532-8.324-4.378-5.913-7.541,4.892-3.556,9.315.929-1.352-21.594-5.115-3.748-4.607,2.174-5.268,11.427-11.988,3.24-4.484,4.516,1.682,12.656-5.776,7.349,1.636,2.757-14.806,8.025-8.4,2.457-3.633,7.857L674,220.334l-.975-3.133-19.391-11.865Z" transform="translate(-62.159 -41.678)" fill="#06c" stroke="#000"/><text transform="translate(152.315 615.652)" font-size="162.988" font-family="DejaVuSansCondensed-Bold, DejaVu Sans" font-weight="700">1</text><text transform="translate(463.614 330.298)" font-size="162.988" font-family="DejaVuSansCondensed-Bold, DejaVu Sans" font-weight="700">2</text></svg>