<svg xmlns="http://www.w3.org/2000/svg" width="900.007" height="939.144" viewBox="0 0 900.007 939.144"><title>2T Législatives 2017 Isère</title><path d="M585.48,537.765l-7.5,20.217-3.41,3.863-3.4-1.663,1.84,13.991-1.506,7.594,9.644,4.36,4.576-1.433,1.46,3.928,5.048-5.6-2.868-10.292,1.231-2.442,3.2-6.187,4.642.753,1.983-.628,4.465-2.75,4.656,6.292,7.43,2.455,2.318-1.205-1.754-9.958,4.439-2.389,7.4,2.592,1.073-.164,8.963-10.678,2.737-2.494,1.519-4.576-4.242-2.874.176-2.586,2.023-1.611,6.494,4.027,1.866-1.788-.523-6.979,1.251,2.324,10.14,2.658,2.456-.982,1.544-5.047,4.119-12.315L658.2,504.324l-8.963-5.755-2.023-4.871-2.239,3.954-4.478.255-2.913-13.133-4.72,2.724-3.424,7.686-2.082,2.94-2.317-4.105-12.76-1.663-8.223,6.239-6.639,10.4-1.728,9.886,2.533,7.274-10.023.334-.131,7.607Z" transform="translate(-30.4 -18.457)" fill="#ffeb00" stroke="#000"/><path d="M565.047,638.064l6.613-10.973-2.023-4.36,1.6-9.768-6.383-4.773-7.777-1.637,6.089-13.781,14.488.969,2.979,3.477,6.546-8.616,5.048-5.591-2.867-10.292,1.23-2.442,3.2-6.187,4.641.74,1.984-.629,4.465-2.736,4.655,6.278,7.431,2.468,2.318-1.217-1.755-9.958,4.439-2.377-.36,7.392,4.9,9.375,2.226,4.642,4.668,1.1,2.508,4.243-8.773,6.71L621.6,589.6l-1.787,3.045,6.586,10.475,2.587,9.139,4.72-1.263,22.069,14.167L660.7,623.2l-1.355,10.573,2.775,7.326-2.278,1.421,3.889,2.291-2.351,4.792-7.031,3.9-5.434,15.255-6.953,8.4,9.336,6.75-3.312,4.119-7.608,2.108L636,705.314l-4.092,3.326-9.591-12.452-6.37,8.157-10.56,1.408-4.079,3.8-2.724,13.807-10.691-1.2-6.357-14.92-2.265,4.452-6.684,4.412-3.863,5.6-9.447-2.121-3.019-5.755-.7-2.547L562,700.326l-.936-8.105,3.8-21.415,5.971-8.53,6.893-13.939-.51-.268Z" transform="translate(-30.4 -18.457)" fill="#ffeb00" stroke="#000"/><path d="M501.8,531.624l-2.775-4.576-3.987.629-2.842-4.491.511-10.5,13.631-15.817-1.048-4.439,4.492-9.447,6.664,4.131,2.992,18.286,9.513,12.6.91.419,8.59,10.8,2.645,5.65,10.063,16.262,1.663-.164,18.364,9.192,1.827,14-1.5,7.594,9.644,4.347,4.563-1.42,1.473,3.915-6.56,8.616-2.966-3.477-14.488-.969.956-21.709-1.715-3.365-8.871.039,2.586,5.768-10.292,1.689-9.205-5.5-.334-.537-.137-6.265-7.569,2.043-2.186-1.6L525.6,558l-5.833-5.355,1.689-7.876-2.094,1.623-7.136-3.581-5.637-8.949Z" transform="translate(-30.4 -18.457)" fill="#ffeb00" stroke="#000"/><path d="M704.9,599.9l2.723-4.308,15.739-8.989,2.023-1.728-1.231-13.12,7.261-15.9,14.324-7.162,7.058-17.736,7.431,1.519,4.746,6.148,7.7-1.263,8.275,7.247,2.75-.19,6.252-14.37,10.318-3.477,1.729,10.947,6.147,5.623-.092,8.079,10.757,8.466,1.61,11.012-10.089,26.724,9.683,2.724,4.373-2.39,6.665-8.465,14.907,6.481,7.941,11.084,12.688-4.773,5.218.753,5.768,5.932-2.24,10.5-17.428,15.8,7.811,29.055-12.93,3.621-5.86,18.167-.484,10.986-3.208,4.256.131,8.262,6.252,5.316,23.261,7.457,23.759-5.892,10.77-.131,2.494,4.91-3.607,7.4-.118,5.539,6.8,11.66-2.416,10.436,3.45,4.2,15.641,4.858-2.239,13.578,2.108,13.363-1.827,8.019,2.16,7.687-3.659,4.157-.845,5.408,2.724,15.948-10.6,5.074-9.4-5.316-8.386-13.86-5.447-.95-15.294,3.85L868.8,835.106l-11.012.432L839.6,830.052l-4.295,3.463-10.573,1.715-6.547-4.628L802.9,827.276l-9.63,13.336-8.812,5.728-22.711,17.6-14.626-17.481-7.8,2.2-7.111,11.713-13.493,1.381-16.5,11.038,6.4,6.357,9.349,4.268,1.381,7.687-15.091,7.751-1.138,9.153-7.483-2.992-10.076,8.334-9.67-4.065-5.047,1.892-4.269,6.5-20.858-3.339-3.877-3.8-7.764-2.592,1.263,13.513-5.846,9.244-4.209,13.015-5.487,5.676-14.92,6.482-10.77,1.2-10.534-12.3-10.253-2.121-7.726-10.908-4.549,5.6-15.51-1.984-4.092,2.593-7.542-2.134-1.741-5.86-4.616-1.5-3.679-8.865-1.519-6.665-2.2-.589-8.171-1.434-11.994-6.468L497.7,893.662,478.977,881.72l-1.433,4.066,4.477,10.193-2.8,3.326L442.033,886.84l-2.24-4.105-7.738-1.624-2.16-4.759,8.249-6.279,5.408-11.856-11.673-2.291,6.187-32.885-2.495-8.02,5.6-15.778,1.715-19.51-3.286-34.4,5.944-18.018,2.619-4.523-7.031-13.913,1.774-7.633-4-3.136.726-5.257-6.953-7.968.714-8.262,5.152-12.812,4.884-2.161,5.356,1.074,7.784,1.25-8.334-23.2.615-32.6,7.62-17.684.092-.445,11.228-24.885,4.576-21.637,4.668-9.9,13.631-2.75L495,527.605l3.987-.642,2.776,4.589,4.76,2.226,5.65,8.95,7.123,3.581,2.108-1.623-1.689,7.876,5.82,5.355.819,5.329,2.173,1.6,7.581-2.043.132,6.265.346.55,9.193,5.487,10.291-1.676-2.586-5.781,8.871-.039,1.715,3.378L563.72,583.1l-.615,9.605L557,606.482l7.784,1.637,6.383,4.772-1.6,9.768,2.023,4.361-6.613,10.959L577.128,648l.51.268-6.894,13.939-5.97,8.517-3.8,21.429.936,8.1-6.443,10.947.7,2.546,3,5.755,9.447,2.121,3.876-5.61,6.685-4.4,2.265-4.452,6.356,14.921,10.678,1.205,2.724-13.808,4.079-3.8,10.56-1.421,6.384-8.157,9.578,12.465,4.1-3.326,4.361-15.189,7.62-2.095,3.3-4.131L641.87,677.1l6.953-8.4,5.434-15.255,7.031-3.9,2.35-4.792,2.763-.373,10.239-13.068,14.8-12.733.138-2.79,6.383-8.249,7.444-2.481Z" transform="translate(-30.4 -18.457)" fill="#ff8080" stroke="#000"/><path d="M824.914,435.378l5.538-.668,5.755-6.049-8.249-20.676-16.38-15.2-8.852-17.238-4.91-2.586-10.436,3.647-4.491,1.29-.131-8.145-2.364-1.329-7.646.6-7.7-.615L760.571,371l-2.874,2.324-23.065-12.943,2-3.732-1.3-10.448-10.475-3.379-6-9.178-4.681-2.855-30.712,11.739-.255.131,5.5,9.166-2.592,16.25-4.145,7.031-4.832,2.56.243,1.839-1.342,10.973,2.16,4.884,9.539-2.324-7.018,14.881-9.14,4.871-1.918-.982-.216-8.4-6.3-5.565-10.973-2.416-2.927-4.759-10.586-3.424-.373.039-12.944-4.118-8.347-10.05-7.739-2.415-10.612,1.5-1.5,2.278-1.7,1.139-9.833-2.108L581.259,361.5l2.415-15.175-9.336-9.153-3.22-11.189-8.655,10.384-6.894.137-8.145,4.131-2.3-9.689L533.8,326l-3.942-5.919-6.186-1.368-1.827-9.578L510.964,298.8l-4.17-.845L506.139,300l-14.475-1.892-5.218,9.683,5.525,12.622-2.082.347-7.07,3.391L467.7,341.541l-2.775,17.545,1.329,2.213,4.91-1.532.19-.137,24.42-1.421-.164.6-2.7,11.484,11.549,17.441,7.85-1.381,5.807,5,5.7-5.355,4.641,2.147,21.7-7.444,3.123,23.019L550.4,408.1l-5.944,11.876.092,13.12-1.139,5.139,6.776,7.687,5.258-.753,16.249,8.975-3.96,18.849,1.178,2.508-6.186,7.247-1.1-.714-9.094,12.583-6.252,4.629-1.636,7.66-5.231,8.373-9.566,3.169,8.59,10.8,2.645,5.65,10.063,16.263L552.8,551l21.749,10.868,3.411-3.876,7.5-20.2,2.593-3.692.131-7.608,10.023-.334-2.533-7.274,1.728-9.885,6.639-10.41,8.223-6.226,12.76,1.65,2.317,4.105,2.082-2.927,3.424-7.7,4.72-2.724,2.9,13.133,4.492-.242,2.239-3.961,2.01,4.871,8.976,5.755,10.769,11.863-4.118,12.315-1.545,5.047-2.455.969-10.141-2.644-1.25-2.338.523,6.992-1.866,1.775-6.508-4.027-2.01,1.611-.176,2.592,4.242,2.868-1.532,4.589-2.737,2.481-8.949,10.678-1.073.177-7.4-2.593-.36,7.392,4.9,9.375,2.226,4.642,4.655,1.1,2.508,4.243-8.772,6.71-5.513-.524-1.8,3.045,6.6,10.475,2.586,9.139,4.72-1.25,22.069,14.154,4.923-1.957-1.355,10.573,2.763,7.326-2.265,1.421,3.889,2.291,2.763-.373,10.239-13.068,14.8-12.734.15-2.789,6.37-8.249,7.444-2.481-.576-5.232,2.723-4.308,15.739-8.988,2.023-1.729-1.231-13.12,7.248-15.9L745.74,548.7l7.058-17.735,7.431,1.519,4.746,6.147,7.7-1.263,8.276,7.247,2.75-.19,6.252-14.37,10.318-3.477,7.647-11.123-4.793-20.714,6.442-8.59-.654-2.671,6.468-3.837,2.737-6.867,14.848-4.479,1.866-11.954,2.023-5.179,1.852-10.01-10.075-2.35Z" transform="translate(-30.4 -18.457)" fill="#ffeb00" stroke="#000"/><path d="M322.333,93.649l-6.265,4.039-8.584,5.539-8.838,6.8-13.44-2.056-5.114-.406-2.042-7.234-5.69-9.873-5.086-1.892-5.612-5.957-7.594-1.074-12.774-5.624-4.936,1.774.687,7.968-2.547.87-4.452-12.02-5.755,20.931-2.252,1.519-15.372-5.284.295,7.8,5.42,12.5,13.467.3-2.036,10.7,2.586,10.5,17.9,1.506,3.928,3.326,7,10.828,7.189,3.634-2.927,12.38-3.954,15.68-1.486,18.743,3.136,1.7,1.034,1.767,3.286,4.2,5.31.026,2.363,4.806,4.118-.2.361,2.056,4.229,3.437,12.413,1.853,25.14,3.221,2.278,5.028-6.52,8.884,3.528,2.109,7.1,5.879,3.758,8.746,14.344-.307,3.634,8.8,6.305,6.907,12.478-.845,7.739-11.549,21.932,3.634L396.8,248.11l-1.231-4.923L379.347,240.9l4.079-8.642,19.091,2.875,5.087-2.2-10.665-8.465-.845-5.447,3.731-13.284,14.718,3.81,7.811,2.815L422.236,215,416.8,219.7,418.236,230l12.747-2.01,4.76,2.121,5.2-1.1,6.816-11.712,3.423-2.508,12.034,15.778,17.493,4.707,8.773-6.115,9.165,5.513,4.656,2.239,8.747-5.821,3.915-6.8-5.82-8.57-1.408-13.08-12.851-9.579.307-2.619-6.7-4.105-6.711,1.192-2.763-8.171-2.8-4.694,1.191-8.078,5.1.955,5.113,9.376,2.723-.217,2.521-4.615-2.816-4.59-7.633-2.913-2.109-7.4-3.954-3.11L467.2,152.583l-5.434-12.531-10.776-10.521-7.876-7.1-13.12-19.961-7.418-6.292L418.146,89.1,408.9,79.467,407.92,68.7l1.1-2.494,7.457-2.121-.268-2.71-1.1-2.024L406.336,52.3l-.884-5.526L398.8,39.721,384.135,29.5,371.283,19l-7.8,1.813-2.979,5.166-2.815,7.4-9.12,5.2-6.468,8.1L335.491,73.8Z" transform="translate(-30.4 -18.457)" fill="#ffeb00" stroke="#000"/><path d="M203.186,467.471l-11.051.7-6.828-.936-6.128-18.155-10.855-1.394-6.625,4.773-11.4,6.789-5.329.628-11.123,4.642-13.978,9.925-13.5,9.873-11.228-.642.118-8.262L67.646,481.88,62.8,483.8l-10.546-9.12L41.5,463.863l-.765-10.194.117-1.545,1.277-4.733,2.428.386,3.366-3.391-.668-4.871L38.035,430.5l.576-4.576,15.7-1.329,11.11-14.449,2.573-9.218,1-3.646,5.716,1.532,1.126,2.854,13.12,4.256,16.5-1.434,4.681-2.2,2.134-4.616,4.858-.255,5.394.177L126,393.542l7.863-1.853,5.31,1.165-4.564-8.236-2.547-11.293-3.542-11.4,1.153-2.56,10.789-5.139,10.331.2,2.16.2,16.23,3.339,25.316,3.66-.654-15.87,4.229-9.512-3.019-4.616,7.916-1.395-4.72-12.157.51-5.342,4.256-2.855-.066-2.684-3.888-3.718,5.931-2.364,10.128-8.131,10.194-3.208-1.4,4.36,7.3,11.012,6.855,4.793,11.136-5.552-3.234-7.1,2.147-4.511,4.76-2.213L250.1,283.43l7.595.15,4.4-2.534,4.229,2.508,4.884-.334-.334,2.592,7.784.138,5.329.4,4.321,2.927-.386,5.231,5.231.969,11.15-7.6,3.581-6.946,1.931,1.827,13.258-.884-.053.4,4.21,9.7-2.94,4.242,4.184,4.884,7.778,3.476-4.6,2.75.432,10.383-2.953,4.505L344.94,323.5l4.465-3.057,6.854,4.734,2.671,4.936,13.644-15.68,7.876-4.668,16.812,9.421,2.1,5.153,8.079-7.431,2.684-7.516,11.608.537,12.694.969,5.729-5.114,7.66-.681.137.079L455.9,295.05l.576-5.2,3.411,4.171,7.7,2.39,5.624,5.178.092-2.507,10.01,1.1,8.3-2.134-5.217,9.683,5.512,12.622-2.082.347-7.07,3.4-15.1,17.376-2.789,17.559,1.329,2.213,4.91-1.546.191-.131,24.433-1.433-.177.6-2.7,11.5-9.5,5.408-7.045-2.658-4.425,2.573-.511,5.355-5.14,5.512,5.611,5.166-.4,13.172-.642.884-3.692,3.673-12.891,2.265-2.521,7.379-3.823,3.679,1.663,5.074-4.805,1.25-5.866-13.951-16.1,13.042-1.754,1.25-.347.524-15.869-.387-6.763,32.021,2.186-.013,1.814,3.954,1.813,4.95-1.06,5.165,4.871,6.076,10.252.471.983,1.035-4.76,10.37-7.47-.74-3.424,6.344-19.451-7.7-2.213,1.486-3.581.792-7.542.655-.641.949-11.039,4.681-8.628,18.914-3.391,3.961-2.468,13.028-.092.642-12.413,2.9-3.286,9.349-1.866-1.061L316.5,551.591l-4.844,6.429-1.205-4.884-10.1-3.693-6.383,5.087-5.257.727-2.724-7.457-9.808-12.086-4.2-12.412-7.8,1.329-5.257-7.582-6.684,8.747-10.5-.138,4.694-30.24,4.537-10.089-1.905-1.473-7.994.753-2.592,4.773-4.7,2.737L223,493.369l-7.287,3.5-1.034-1.113-3.156-9.781-4.884-14.259Z" transform="translate(-30.4 -18.457)" fill="#ffeb00" stroke="#000"/><path d="M231.253,305.14l-7.313-11.012,1.408-4.36-10.194,3.221-10.128,8.118-5.932,2.363,3.889,3.719.066,2.7-4.256,2.842-.511,5.342L203,330.227l-7.915,1.4,3.019,4.616-4.23,9.512.655,15.87-25.317-3.66-16.229-3.339-2.161-.2-10.331-.2L129.7,359.354l-1.165,2.56,3.542,11.405,2.56,11.293,4.563,8.236-5.309-1.165-7.864,1.853-3.476,4.053-5.4-.164-4.857.242-2.135,4.628-4.68,2.2-16.5,1.421L75.85,401.66l-1.113-2.854-5.716-1.532-1,3.646-2.573,9.219-11.11,14.448-15.7,1.33,1.021-10.5-2.239-10.357-5.6-7.594-.91-10.344,9.362-9.657-.012-4.681-2.455-6.776-.334-3.155,1.113-3.719,6.6-1.087,3.961,2.291,1.984-.667,1.021-2.174-.726-9.414,10.638-7.031,1.2-.668,6.854-3.863L76.191,328l9.447-4.5,2.187-2.586L96.7,310.58l5.833-8.57.537-2.593L99.943,295.3,82.9,288.366l-8.826-10.907-2.605-5.408-4.209-5.578-15.189-6.946L49.827,254.5l18.744-1.84,9.859,1.571,11.2,6.213,4.976,2.711,1.231-11.379,11.738-6.16,1.048-2.56,2.75.164,2.036.026,9.421-4.092,10.462.766,3.143-1.29,21.6-4.438,14.907,7.673.295-.36,1.6-8.132-6.842-3.679,7.444-3.1,17.428,6.737,5.3-5.847-3.954-7.1.373-7.968,2.318-4.91,9.3-5.512-2.239-5.33,14.181-12.838,5.368-.819,4.629,5.395-4.145,6.187.871,5.178-8.105,6.587-1.663,4.91.078,5.591,3.221,4.334-.9,11.025-3.411,9.833,5.1-6.317,2.7.68L240.2,253.334l-2.416,7.777,2.252-1.034,6.7,3.044,1.971,4.721-5.591,4.5,4.936,8.76,2.121,2.3,2.789,7.123-4.746,2.213-2.147,4.524,3.22,7.1L238.154,309.9Z" transform="translate(-30.4 -18.457)" fill="#ffeb00" stroke="#000"/><path d="M343.984,675.63,343,671.322l-6.894-2.39-1,2.324-7.312.845-1.114,2.291-3.181,1.971-1.473-1.342-.642-2.547-10.37-1.047-1.139-4.923-7.11-3.313-2.351-4.773-1.852-2.121-5.958-2.239-18.285-.949-5.369,11.915-4.615,2.573-9.166-8.439-4.36,2.763-2.108-1.5,2.455-4.223,9.525-2.187,3.8-12.327,6.213-5.408,7.136-11.7.779-6.383.753-10.05-3.169-7,3.784-3.476-.765-7.66-.511-5.356-7.045-8.314-3.339-10.4-2.337-4.616,1.021-7.777,5.932-5.166L286.1,547.8l2.71,7.457,5.257-.727,6.4-5.087,10.089,3.693,1.217,4.884,4.845-6.429,10.128-3.916,1.866,1.061,3.287-9.349,12.465-2.887.092-.642,2.482-13.028,3.391-3.961,8.616-18.927,11.051-4.681.641-.949,7.542-.642,3.569-.792,2.225-1.486L403.4,499.08l3.424-6.344,7.483.753,4.746-10.37-.982-1.035-10.253-.484-4.871-6.076,1.073-5.152-1.813-4.949-1.827-3.955-2.187.013,6.763-32.02,15.87.373.346-.524,1.755-1.238,16.1-13.054,5.879,13.951,4.793-1.238-1.663-5.074,3.823-3.679,2.521-7.392,12.9-2.252,3.68-3.679.641-.871.4-13.172-5.6-5.179,5.126-5.513.51-5.342,4.439-2.586,7.031,2.658,9.5-5.407,11.562,17.441,7.849-1.382,5.807,5,5.7-5.355,4.642,2.134,21.684-7.431,3.136,23.006-2.9,4.386-5.944,11.876.105,13.12-1.139,5.14,6.776,7.686,5.257-.766,16.25,8.989-3.961,18.835,1.179,2.521-6.186,7.247-1.114-.714-9.094,12.584-6.252,4.628-1.636,7.66-5.231,8.36-9.565,3.182-.911-.432-9.5-12.583-3-18.286-6.651-4.131-4.5,9.447,1.06,4.439L492.8,512.664l-.51,10.488,2.841,4.5-4.334,3.273-13.631,2.75-4.668,9.9-4.576,21.651L456.693,590.1l-.092.445-7.62,17.683-.616,32.6,8.334,23.2-7.784-1.25-4.346-7.176-7.045-4.425-5.434-.42L428.5,654.9l-5.382,7.784-6.6,11.752-7.274,2.979-5.892,5.61-7.968.753-6.979-7.941-.347,4.818,6.933,8.361-7.326,1.852-7.954-6.278-9.716-2.364-4.426-2.035-2.108-9.729-4.027,1.5-6.828,3.784-.334,2.606Z" transform="translate(-30.4 -18.457)" fill="#f90" stroke="#000"/><path d="M329.174,322.267l2.953-4.5-.432-10.384,4.6-2.749-7.777-3.477-4.17-4.871,2.926-4.256-4.209-9.689.053-.406-13.258.884-1.932-1.826-3.581,6.946L293.2,295.529l-5.231-.969.4-5.231-4.334-2.927-5.329-.4-7.784-.137.334-2.593-4.884.334-4.223-2.507-4.412,2.533-7.6-.15-2.121-2.291-4.936-8.76,5.578-4.5-1.957-4.72L240,260.15l-2.252,1.047,2.429-7.784L221.847,236.5l-2.71-.668-5.087,6.305,3.411-9.834.884-11.025-3.208-4.334-.092-5.578,1.676-4.923,8.1-6.586-.871-5.179,4.145-6.187-4.642-5.382,9.958-8.786-1.545-8.033,15.078-5.42,4.9,2.252,4.91-1.768,2.789,3.8-3.954,15.68-1.5,18.744,3.136,1.7,1.034,1.768,3.286,4.2,5.31.027,2.377,4.8,4.118-.2.347,2.056,4.242,3.437,12.413,1.853,25.127,3.221,2.278,5.029-6.52,8.884,3.542,2.095,7.1,5.892,3.745,8.747,14.344-.308,3.634,8.8,6.318,6.907,12.465-.857,7.751-11.536,21.92,3.633,4.779-11.608-1.218-4.923-16.23-2.291,4.092-8.642,19.077,2.874,5.087-2.2-10.665-8.465-.845-5.447,3.745-13.3,14.7,3.81,7.811,2.829L422.275,215l-5.421,4.694,1.421,10.292,12.747-2,4.76,2.121,5.205-1.1L447.8,217.3l3.424-2.507,12.046,15.765,17.48,4.72,8.773-6.115,9.166,5.513,4.655,2.239,8.747-5.82,3.928-6.8,4.923,9.67.177,7.863,7.541,10.946,4.59,5.31.564,4.72,13.493,12.465.039,5.3,2.2,1.506-1.46,4.615,4.4,2.01.347,2.416-4.295-1.65-1.114,5.421,3.208,4.491,7.784,2.468.079,4.819,2.468,1.473,2.978,1.8,7.189,16.046-8.655,10.383-6.894.138-8.145,4.118-2.3-9.683-11.32-4.962-3.942-5.906L523.7,318.7l-1.84-9.591L510.979,298.79l-4.17-.858-.655,2.043L491.679,298.1l-8.289,2.121-10.01-1.1-.092,2.521-5.624-5.179-7.7-2.389-3.411-4.171-.589,5.192-7.954,10.128-.131-.079-7.661.681-5.728,5.113-12.708-.969-11.6-.536-2.684,7.529-8.079,7.417-2.1-5.152-16.812-9.414-7.876,4.668L359,330.144l-2.684-4.937-6.842-4.72-4.465,3.057Z" transform="translate(-30.4 -18.457)" fill="#ffeb00" stroke="#000"/><text transform="translate(572.866 525.127)" font-size="57.731" font-family="DejaVuSansCondensed-Bold, DejaVu Sans" font-weight="700">1</text><text transform="translate(546.57 666.326)" font-size="92.706" font-family="DejaVuSansCondensed-Bold, DejaVu Sans" font-weight="700">2</text><text transform="translate(497.598 538.204)" font-size="28.453" font-family="DejaVuSansCondensed-Bold, DejaVu Sans" font-weight="700">3</text><text transform="translate(548.742 831.504)" font-size="138.95" font-family="DejaVuSansCondensed-Bold, DejaVu Sans" font-weight="700">4</text><text transform="translate(640.854 489.435)" font-size="138.95" font-family="DejaVuSansCondensed-Bold, DejaVu Sans" font-weight="700">5</text><text transform="translate(317.084 600.662)" font-size="138.95" font-family="DejaVuSansCondensed-Bold, DejaVu Sans" font-weight="700">9</text><text transform="translate(222.565 443.661)" font-size="138.95" font-family="DejaVuSansCondensed-Bold, DejaVu Sans" font-weight="700">7</text><text transform="translate(92.77 301.438)" font-size="89.75" font-family="DejaVuSansCondensed-Bold, DejaVu Sans" font-weight="700">8</text><text transform="translate(276.566 178.267)" font-size="138.95" font-family="DejaVuSansCondensed-Bold, DejaVu Sans" font-weight="700">6</text><text transform="translate(380.844 270.106)" font-size="69.325" font-family="DejaVuSansCondensed-Bold, DejaVu Sans" font-weight="700">10</text></svg>