<svg xmlns="http://www.w3.org/2000/svg" width="955.34" height="831.31" viewBox="0 0 955.34 831.31"><title>2T Législatives 2017 Puy-de-Dôme</title><path d="M454.275,498.449l-5.255,1.96-5.845-9.849-8.881-1.342,2.705,3.14-9.4-.042.428-8.079.646-8.7-5.023.042-1.918,1.321-5.143.414-2.276,3.078-2.487-2.937-5.72-.689,14.754-16.89-2.115-1.019-4.419-11.965-11.867,1.5-5.3-13.033-16.876-1.672-2.606-8.206,5.445-6.288,14.227-.85,2.234,8.41.6,2.62,5.3.562,12.134-3.21,6.9,2.522,32.066-5.7.491-.19,9.935-1.166,5.107,2.508,15.26,16.258,5.27,1.208,1.7-2.115,5.543,5.775.675,5.284-3.239,14.5-2.375,1.855L486,466.792l-1.384,7.757-13.188,8.958.563,5.7,4.981,6.914,9.26,7.082,8.852-.675,9.717-6.218,4.833,4.94-4.58,1.96,2.389,10.728-4.089,7.258-4.229,6.9-4.279,3.639-9.211-6.323-5.719,5.641-3.689.78-6.133-7.384-4.476-9.1-.548-12.941Z" transform="translate(-8.185 -71.362)" fill="#ffeb00" stroke="#000"/><path d="M519.081,239.044l-5.586-1.025-.33-4.855-5.157-.358-1.208,2.36-4.391-6.52-5.038,1.989-15.906-.7-.07,5.916-11.515.126-19.236-4.349-5.7-6.091-3.141-2.487-7.285-.731-.837-11.473-5.079-13.89-2.923-.548-9.935,6.668-11.388,3.351-6.71-5.8-7.756,3.927-5.488.415-4.763-10.391-8.768-7.476-8.452-1.138-5,2.445-4.391-6.351-5.417-16.5-1.9-19.939-5.171,2.29-16.588-4.721-2.937-3.9,4.939-3.239.52-6.091-4.307-14.3,1.869-5.831,4.806-3.7,7.461-3.28,1.581-2.488L333.9,92.9l8.164-8-5.515-1.251-6.478-5.41L318,78.808,306.44,74.993l-12.134,1.8L290.576,72,266.344,84.787l-.892,8.346,3.365,10.5-2.593,1.328-.99,11.558-4.131,7.6-14.122-2.1-10.209-10.44-5.873.646-8.017-8.522-8.262-3.063-6.218,9.906,4.721,13.518-4.475,7.067.3,5.67-12.183.436L186.229,141.8l-5.066,3.021-.836,11.719-3.661,4.539-2.95,11.1-1.321,2.333-4.5,10.77-4.5,3.886-5.747,1.18L149.59,187.4l-13.033-6.969-6.274,3.555-10.061-11.333-5.466-2.676-1.609,3.857-2.08-.141-1.735,13.075-3.45,3.949.26,16.672,1,5.34-1.209,5.985,2.487,8.881,11.1,25.152,17.529,12.092L134.414,280l-3.077,16.5,2.192,8.093,7.517,9.1-1.531,8.276-22.764,7.356-1.672,2.375,1.447,5.761-9.962,6.119.084,5.7-4.553,3.8-1.173,8.838,1.026,2.8,8.34,3.169-2.783,1.342L82.824,390.183l-5.916.688-.217,8.881-5.607,10.1-5.557-.4-5.15-5.719-5.389-.148-2.452,3.7-10.6.232-.006,8.354,3.737,4.1-1.1,5.487L36.8,426.1l-1.272,5.213-3.8,4.019L17.26,432.913l-8.41,8.354,25.588,33.211,1.946,16.054,6.885,9.372,5.424-1.918,7.314,4.623,2.536,5.4,8.346,2.206,4.118,7.876L88.55,540.6l-.941,11.2,4.138,2.853L90.4,560.269l2.452,5.256-6.232,4L84.4,574.11l.021,5.445,6.983,8.656-4.37,7.314,1.181,4.532-4.145,1.988-16.539-1.181-2.537,4.806-2.15,23.3-7.742,5.86-1.194,5.431,6.45,13.363,8.332,8.536,4.827,10.391,11.7,2.508,8.15-16.988,2.838-4.462,8.93-5.515,16.244-17.466,14.3-3.716,7-5.487,7.742-2.193,3.063-4.419,10.827-.949,1.124-2.536-4.131-3.731,16.573-3.611,1.329-2.62-2.607-5.241,10.033-5.326,16.974,9.33,5.129-2.69.492-2.867.042-17.248-5.094-7.012,2.979-7.96,2.937-.1,9.548-5.473,3.443-7.49-26.853-4.637-3.99-4.531-2.22-8.853,6.119-10.075,7.011-5.171,1.645-5.628,6.955-12.154,1.11-13.363L222.1,469.77l8.508,2.185,9.169-6.85,10.911-.386,5.269-5.558,2.4,4.49L254.989,483.6l19.145,8.08,12.05-7.11-1.9-17.867,13.749-5.08,1.672-8.466L313.97,457l9.632,6.878,8.656,2,8.656-7.257,6.035-5.761L355,450.694l-5.473-15.372,12.134-6.639,13.1,6.161,5.5-1.264-2.606-8.206,5.431-6.289,14.227-.85,2.248,8.41.605,2.621,5.283.548,12.148-3.2,6.9,2.522,32.051-5.7.506-.19,9.935-1.166.752-17.234,7.988-.057,3.084-7.173,5.417-.147-4.2-20.747-4.637-4.321-1.321-2.677,3.717-11.319,2.55-1.552-6.246-7.454,4.567-10.666,2.761.113,3.211-4.462L492.151,336l.977-5.431,1.026.738,3.456,4.173,11.1-.534,5.108,2.045,7.04-2.937,2.676-.907,3.949,3.914,16.454-4.032-.147,16.341L558.418,349l11.557-1.264,2.551-14.586.878-2.157,11.705-2.663,2.29-8.655,12.731-7.546.59-2.965,6.681,1.659,1.371-4.651,19.981,2.058,8.894-10.8,21.506-7.068-2.29-6.534-5.4,2.192,1.946-16.946-2.55-8.234,5.157-2.375-6.7-8.825-1.946-7.672-2.206-3.787-5.255,3.021-5.874-.449-6.737-6.092-2.347-5.571-10.18,6.519-11.831,1.918-8.22,8.67-22.132,8.93.436-8.122L563.6,242.2l-9.183-3.1.436-2.62-5.417,2.22-5.34-2.389-5.128,2.606L527.5,236.444Z" transform="translate(-8.185 -71.362)" fill="#ff8080" stroke="#000"/><path d="M372.931,896.156,355.191,885.3l-11.565-1.9-9.878-17.677-4.517-14.01.1-3.112-2.565-10.279,1.4-5.037-5.458,1.356-5.038-2.593-7.271-8.248-7.37-3.281-4.244,6.576-7.489-4.215-5.129-10.209-14.5,1.342-7.6-8.206-15.316,8.395-2.733,5.066-2.747-.906-11.03-.731-7.188-4.075-5.227-1.412-7.763,2.705-8.207,7.067-5.958-6.407-3.007-8.045-10.623-9.056-1.067-11.564,6.006-7.778-.934-4.967-8.55-.372-8.192,2.824-5.417-6.766-7.848-2.564-8.164,1.6-2.606-19.939-8.614,11.691-5.36,2.016-8.424-1.251-10.026-10.377-10.848,1.869-7.152,4.406,4.89-18.3-13.567-2.895-7.672,3.309,3.274-12.21-2.923-6.289.344-5.613,5.249-10.321-2.08-5.094,1.813-5.269-1.75-8.466,1.9-2.192-1.349-8.8,8.15-16.975,2.838-4.475,8.93-5.515,16.243-17.452,14.3-3.731,7-5.487,7.743-2.185,3.063-4.433,10.827-.935,1.123-2.536-4.131-3.745,16.574-3.6,1.328-2.621-2.606-5.255,10.032-5.326,16.975,9.331,5.128-2.691.492-2.867.042-17.234-5.093-7.012,2.979-7.96,2.937-.112,9.548-5.473,3.442-7.476L196.205,544.7l-3.991-4.539-2.22-8.853,6.119-10.075,7.012-5.157,1.644-5.641,6.956-12.148,1.11-13.377,9.26-15.105L230.589,472l9.168-6.864,10.911-.387,5.269-5.543,2.4,4.489-3.372,19.94,19.145,8.079,12.049-7.1-1.9-17.866,13.749-5.094,1.672-8.466,14.27,3.857,9.632,6.864,8.656,2.016,8.655-7.257,6.035-5.776,8.052-2.157-5.473-15.379,12.133-6.625,13.1,6.161,5.5-1.278,16.875,1.686,5.284,13.026,11.866-1.483L418.7,458.8l2.1,1.026L406.049,476.7l5.72.689,2.487,2.937,2.276-3.077,5.157-.415,1.918-1.321,5.024-.042-1.082,16.8.548,7.946,4.925,1.524,1.826-1.96.042,10.321,2.031,1.616-9.4,2.044-.73,2.417-9.576,17.136-17.347,2.564-6.049,4.335,7.588,3.914,5.093-2.059,5.6,6.478,14.269,2.824,8-3.527-.4-8.642,1.11-2.705,2.909-.175,5.971,6.449.717,8.783-3.323,4.159-.148,8.684,4.447,7.138,2.649,15.7,5.213,14.424-3.484,8.319-4.9,3.365L451.5,630.35l10.665,6.836L482.2,624.174l7.988,11.564-.218.794-.906,5.832,3.555,17.318-4.595.415-4.869-.042-3.225,4.335-6.077-5.024L470.3,665.8l1.483,7.384-.633,5.157h-5.143l-2.332,8.15,5.143,8.367.07.415-9.07,6.59-2.487,5.41-13.076,6.914-10.728,9.758-2.993-.288-2.143,1.166,1.251,4.539,4.735-2.508,7.11,3.625,10.511-.33,3.815,3.885,4.911,2.059.4,2.663-1.208,5-2.677.176-.26,2.838,2.677.907,4.967-2.7,11.269-.387,3.8,2.909-7.187,9.288L471.4,768.2l7.2,5.024,8.319-2.445,5.066,2.389,2.487,7.7-4.806,2.88,4.869,9.6-1.96,11-6.45,9.316,14.93,12.723,2.192,5.241-2.621,2.389-4.335-3.2-12.421,6.436-3.7,4.461,2.333,4.954-17.839,1.019-7.342-2.853-4.868,2.663-16.3-2.564-4.216,1.988-4.819,10.454-10.967,2.965-4.1,4.131,1.539,11.579-5.284,6.723,1.5,2.523-13.546,7.341-7.686,2.249-3.309,7.187-11.417-3.1Z" transform="translate(-8.185 -71.362)" fill="#f90" stroke="#000"/><path d="M494.807,531.751l-9.21-6.323-5.72,5.642-3.674.765-6.148-7.384-4.475-9.084-.548-12.956-10.757-3.963-5.255,1.946-5.831-9.836-8.881-1.342,2.7,3.141-9.415-.042.534,7.946,4.925,1.525,1.827-1.975.056,10.335,2.031,1.616-9.415,2.045-.731,2.4-9.576,17.15L399.9,535.923l-6.05,4.335,7.588,3.914,5.108-2.059,5.585,6.478,14.27,2.824,8-3.527-.386-8.642,1.11-2.7,2.908-.176,5.958,6.45.717,8.782-3.323,4.146-.148,8.7,4.462,7.124,2.634,15.709,5.213,14.424-3.47,8.319-4.9,3.365,6.366,17.016,10.651,6.837,20.051-13.012,7.989,11.564-.232.794-.893,5.832,3.555,17.318-4.594.415-4.883-.042-3.211,4.335-6.091-5.037-3.542,6.449,1.483,7.385-.633,5.157h-5.142l-2.347,8.149,5.143,8.368.084.414-9.07,6.591-2.494,5.41L444.3,714.238,433.57,724l-2.979-.289-2.157,1.167,1.264,4.538,4.722-2.508,7.124,3.625,10.51-.33,3.8,3.885,4.925,2.059.386,2.663-1.208,5-2.677.176-.245,2.839,2.676.906,4.967-2.7,11.27-.386,3.786,2.908-7.187,9.289-1.11,11.416,7.215,5.024,8.305-2.445,5.079,2.389,2.473,7.686-4.805,2.894,4.883,9.605-1.961,11-6.449,9.316,14.915,12.723,2.192,5.241,1.658.436,2.5-10.784,7.974-10.6,6.407,4.321,7.932-1.026,16.328-7.532,2.522-4.25,2.4-11.719,2.431-1.581,5.459,1.539L565,796.432l6.6,12.12,6.534-14.916-.2-5.628,4.763,1.469,4.251-2.607,6.822,9.534,7.545,8.782,5.544-1.742,5.213,2.487,5.093-2.564,8.178,5.213,4.293-3.815,16.975,1.124,2.824-.717,1.77-5.431,9.471-10.827,13.047-6.259-.4-1.989,5.093-10.827-.907-1.988-2.487,3.386L655.322,770.1l-10.138-4.243,3.64-6.38,11.964-7.426,7.778,3.688,1.5-5.128,13.89-2.115.879-2.705-7.462-11.606,1.9-1.553-.73-5.67,4.538-3.541-7.152-8.958-.014-11.171-5.094-6,2.881-7.659-1.279-2.564-10.565,3.149L640.6,682.461,639,675.681l1.63-10.412-.534-8.333,2.044-8.354-11.529-8.332-.737-2.852,4.833-7.153-1.77-8.164-5.776-6.133-8.381-2.593-2.677-19.377-2.719-5.107,1.18-8.55-9.1-11.214-11.171.822-3.309,4.518-4.967.949-2.045,5.269-.344,1.384-10.827-.66-6.478-5.417-17.016-.59-6.19-10.609-2.894-15.19,3.787-11.375.147-9.042-.126-.189-.731-2.677,9.513-9.562,5,1.9,8.635-7.588,2.909.3,6.983,5.255,2.895-.33,5.171,5.916,10.988-15.97-2.445-7.384,7.328-8.642,14.642,1.581,4.2-4.2,1.223-26.635-5.585-2.129-8.853,1.356-3.1,8-4.476,3.949-6.463-4.131-14.284,3.512-4.939-2.606-8.55,2.319-2.234-5.487,3.625-10.455-1.426-8.093-5.8-9.127-.59-8.346-2.565-1.5-11.775,17.249-5.094,3.2-.1,3.021,7.848,17.607-3.077,4.145L529.073,476.8l.576,8.494-3.077,8.017-16.989,7.89-4.567,1.974,2.389,10.714-4.1,7.258-4.215,6.9Z" transform="translate(-8.185 -71.362)" fill="#f90" stroke="#000"/><path d="M848.8,573.014,838.69,558.4l-1.026-8.206,3.9-9.808-3.2-6.752,2.333-4.391-7.7-3.415-7.285-15.358-2.853-.218-3.049,4.869L808.542,502.8l1.988-4.1,1.609-1.342,2.894-5.01-5.669-7.04-16.785-6.463-4.173-4.349,1.026-5.2,10.44-5.642,8.523-24.836-4.637-16.96.99-.92,3.829-4.335.808-5.572-4.925.808-2.838-7.588,11.086-.575,5.8-5.888,1.082-5.171L824.807,391l-8.438-18.646-6.71-5.488-4.567-7.37-16.314-6.864-.084-.189-6.78-8.235-2.705-13.243-6.794-4.476L756,322.833l-4.279,3.745-3.653-19.462-7.4-11.859L733.3,280.243l-7.658-7.946-6.309,5.459-13.862-.478-.92,2.7-2.579-.492-4.651.218-1.538-4.939-2.621-.78-7.9,1.609-.161,5.121-20.157.1-8.066,3.077,2.29,6.534L637.661,297.5l-8.895,10.8-19.981-2.059-1.37,4.651-6.682-1.658-.59,2.965-12.73,7.545-2.291,8.656-11.7,2.663-.878,2.157-2.55,14.585-11.544,1.265-14.641.372.147-16.342-16.426,4.061-3.941-3.927-2.677.906-7.054,2.937-5.108-2.045-11.1.534-3.457-4.173-1.019-.731-.991,5.417-7.5-1.609-3.189,4.463-2.761-.1-4.567,10.651,6.232,7.454-2.536,1.553-3.731,11.319,1.328,2.691,4.623,4.306,4.215,20.747-5.416.162-3.085,7.166-8,.057-.752,17.234,5.108,2.508,15.26,16.258,5.269,1.208,1.7-2.115,5.558,5.775.66,5.284-3.239,14.5-2.374,1.855-8.958-.675-1.385,7.757-13.187,8.958.562,5.7,4.981,6.913,9.26,7.082,8.853-.675,9.716-6.217,4.834,4.939,16.974-7.89,3.077-8.017-.575-8.494,13.833-3.372,3.085-4.159L538.184,451.7l.112-3.021,5.094-3.2,11.775-17.249,2.55,1.5.59,8.346,5.8,9.127,1.441,8.093-3.64,10.441,2.235,5.5,8.564-2.319,4.939,2.607,14.269-3.513,6.478,4.131,4.476-3.948,3.084-8,8.867-1.355,5.571,2.128L619.17,487.6l-4.187,4.2-14.656-1.581-7.314,8.635,2.445,7.4L584.47,522.225,579.3,516.31l-2.908.33-6.97-5.255-2.909-.3-8.634,7.588-5-1.9-9.513,9.548.73,2.691.113.19-.141,9.042-3.787,11.375,2.88,15.189,6.19,10.609,17.016.59,6.492,5.417,10.827.66.33-1.384,2.045-5.269,4.981-.949,3.309-4.517,11.171-.822,9.1,11.213-1.181,8.55,2.705,5.108,2.691,19.377,8.367,2.592L633,622.1l1.757,8.163-4.834,7.167.738,2.852,11.529,8.333-2.03,8.354.519,8.332-1.615,10.412,1.58,6.78,21.267,7.757,10.539-3.155,1.278,2.579-2.88,7.658,5.093,6,.029,11.171,7.138,8.958L678.571,727l.731,5.67-1.9,1.553,7.454,11.606L684,748.518l-13.89,2.129-1.5,5.128-7.791-3.7-11.965,7.44-3.64,6.38,10.139,4.243,19.707,1.139,2.487-3.4.892,1.988L673.358,780.7l.386,1.989,3.372,14.136,8.909,7.574,15.723,3.484,4.581,3.527,5.171-2.1,2.88-5.065,7.054,16.6,4.16,7.559-1.919,4.763,3.542,9.513,16.138,16.082,5.7-.618,8.079-8.108L759.809,842l10.651-4.307,2.487-11.557,3.154-4.49,5.459-.6,1.757,2.129,6.063,5.775,5.445,1.44-3.141,7.6,4.609,1.609,7.286-.162,8,1.265,6,5.431,8.263-.731,1.756-1.77,10.454,5.458,2.305-1.77,5.353-5.874-1.222-11.276,2.536-11.016,8.7-5.832,7.152,4.68,2.895,4.925,8.065-2.361.605,14.283,4.721-3.006,4.518,7.025,13,5.228,13.651-1.412-3.141-10.855,1.412-11.845-2.473-8.41L911,797.832l5.108-2.677,4.075-7.9,2.705.781,11.269-7.371,15.506-5.487.014-.92-1.883-5.051,8.93-4.1-3.6-4.293,2.417-5.171L952.2,745.273,963,732.83l-.977-7.574-6.723-4.32-4.23-.359-.491-2.262L946.82,709.3l-7.229-25.236,4.8-10.595-5.887-5.915-3.063-7.715-4.377-6.463-14.382-14.782-15.794-5.986-7.756-8.15-4.637-1.946-2.417-8.08L874.294,612.7l-7.89-4.377-1.918-4.5-1.771-7.933-7.341-7.988Z" transform="translate(-8.185 -71.362)" fill="#d00" stroke="#000"/><text transform="translate(678.343 508.427)" font-size="149.113" font-family="DejaVuSansCondensed-Bold, DejaVu Sans" font-weight="700">5</text><text transform="translate(495.058 645.29)" font-size="149.113" font-family="DejaVuSansCondensed-Bold, DejaVu Sans" font-weight="700">4</text><text transform="translate(249.643 629.757)" font-size="149.113" font-family="DejaVuSansCondensed-Bold, DejaVu Sans" font-weight="700">3</text><text transform="translate(230.003 275.603)" font-size="149.113" font-family="DejaVuSansCondensed-Bold, DejaVu Sans" font-weight="700">2</text><text transform="translate(454.974 396.263)" font-size="37.95" font-family="DejaVuSansCondensed-Bold, DejaVu Sans" font-weight="700">1</text></svg>