<svg xmlns="http://www.w3.org/2000/svg" width="580.968" height="879.934" viewBox="0 0 580.968 879.934"><title>2T Législatives 2017 Ardèche</title><path d="M435.32,850.84l-3.956-3.709-5.348-.273-1.532-4.968-3.356-3.836L408,839.679l-10.276-2.757-2.344-7.466,1.924-7.426-4.722-.9-3.969,3.237-1.391-4.582,2.756-10.129,3.251-4.023-1.859-4.9,6.22-5.135,5.241-1.212,1.652-4.861,10.942-7.672,2.963-4.516L415.06,766.98l-13.253-3.9-2.4-4.615,2.564-1.013,3.9-15.844,6.493-5.1,8.052-1.252-.9-8.038,9.584-4.722-7.9-6.526,5.967-14.166,7.859-1.952,10.862,7.792,4.7-12.607-1.258-10.862,1.8-2.078,2.878-4.242-6.247-7.713,1.817-.765-.452-3.876,2.564-7.832,13.033-2.458,2.757-15.9,3.437-4.216-2.731-3.983,2.018-16.05-1.818-1.9-4.829,1.106-2.377-4.855.3-4.862,4.861-1.511,4.589,2.157,4.642-5.774-.453-.093-7.259-6.06,6.493-7.166-2.185-7.506-6.28-8.571-13.1-1.285-6.247,3.483-8.012.013-1.652,2.118-2.317-1.365L423.97,554.272l-.134-.506-8.011-9.311-2.265-6.493-7.325-2.637-7.632.952-7.52,7.1-7.625.665-4.855-2.031,2.224-1.325-3.6-12.008,6.8-18.807L369.938,502.2l-9.537-9.61-5.174-.832-1.991-1.992-4.163-2.184-4.748,1.252,2.551-10.4-7.958-7.113,11.328-23.988-3.616-4.616-5.308-.406-.573,7.919-4.888,2.1-13.047-8.025-.653-2.6-11.315,15.284-7.805-.652-4.589,5.967L285.9,460l-2.171,1.366-4.382-2.664-5,.885-2.7-2.171-6.06-4.162-1.718-4.568-1.379-7.912-11.2-7.053-6.959-14.259-4.436-.167.353-5.128-4.762-5.541.726-5.021,2.744-17.429,4.176-3.044-.939-1.651,8.391-10.729,6.633-4.762,4.11-23.443,6.453-3.943,12.081,6.347,12.914-5.461,8.391-.08,3.916-3.4,7.493-1.705-.653-5.135-3.357-5.035,2.564-1.039,1.285-10.862,7.326-3.383,3.15,7.492,7.872.327,5.348,6.154,11.122-1.339,7.833,2.744,9.87,4.082,13.745,1.872,7.26,14.878,2.716-.014,10.483,8.418,2.458,4.855,7.325,2.951,4.056,6.839,4.6,2.784,22.058-.925,5.84.013,1.273-3.343,9.583-4,12.88-.913L474.7,356.9l6.234.326,9.277,3.563,2.524-1.831,10.223-9.264,7.206,8.145,8.219,1.285,8.325-6.553,7.438,7.519,7.086,3.463,4.722,12.747,6.061,5.022,3.449,7.113-3.743,15.53,4.409-2.837,11,6.727,10.209.352.48,2.591,11.488-4.382,7.312,1.531,8.285-2.77,10.85,15.764-3.41,7.312.093,8.119-3.943,3.316-7.832,1.459-1.731,7.425.692,10.223-7.412,2.071-4.582,1.965.406,5.074-2.118,1.585-.972,7.932-6.726,7.945-9.69,4.229-2.691,4.123-.413,1.9,4.7,9.277-5.554,8.858,2.63,13.1-.079,2.4.119,11.149,4.382,7.192,5.448,21.618.353,5.035-3.1,6.853,1.312,7.339-3.483,9.6L563.76,607.5l-3.2,9.391-6.8,13.166,2.144,1.185-1.718,9.637-4.709,2.291-12.447,3.1-2.525,4.529-.966,10.156-5.088.367L526.6,674.468l5.96,8.271,2.058,1.612L532.65,691.9l-5.674,6.246-2.951,10.943.86,8.4,5.733,9.731.493,8.478-2.917,18.72-3.4,4.189-7.533,3.017-5.021,5.388-2.3,18.148.739,6.4-8.665,20.5-1.252,19.614,1.546,11.135.586,3.5,1.458,27.678-.466,2.8-1.771,16.543-9.377-11.574-9.078,5.54-6.32-10.329-3.669-.56-13.986-7.112-2.418,1.105L450,866.585l-6.527-12.294,1.212-2.511.753-1.286Z" transform="translate(-56.092 -18.625)" fill="#ff8080" stroke="#000"/><path d="M465.7,117.044l-13.459-2.537-10.456,4.056-3.563,4.3L427.954,118.9l-7.1,7.012-8.378.666-4.329-3.41,3.276,10.47-1.611,5.321-2.677.7-2.485,4.216L406.7,156.1l-4.515,12.5-6.907,3.643-1.252,5.215L388.334,183l-2.577,15.883,1.6,7.766,5.348,5.734.819,5.188-10.4-1.185-.952,2.444,2.677,4.515-3.163,1.8-4.855-6.466.939-10.343-10.383-8.378-7.559,1.079L347.8,197.116l-2.264,13.073,15.351,10.5-1.445,7.819-7.1,3.343-7.426-2.651-6.919,3.863,2.045,9.664-2.391,1.012-2.072,7.193-4.861,1.784.766,7.872,7.352,7.9,5.408-.493,4.8,2.524,1.652,8.065-1.458,5.308-12.88,2.278-2.7,4.555-18.94-1.818-10.417,7.919L299.439,315l4.329,6.853,4.842,2.3,2.551-1.025,1.285-10.876,7.326-3.383,3.15,7.506,7.872.326,5.348,6.141,11.122-1.339,7.832,2.744,9.884,4.1,13.732,1.871,7.259,14.865,2.717-.013,10.483,8.431,2.457,4.841,7.326,2.964,4.056,6.84,4.615,2.784,22.051-.939,5.841.013,1.272-3.343,9.583-3.983,12.894-.926,5.475-4.815,6.233.313,9.277,3.577,2.524-1.845L503,349.734l7.206,8.145,8.218,1.272,8.338-6.54,7.426,7.519,7.085,3.463,4.722,12.734,6.061,5.034,3.449,7.113-3.736,15.531,4.409-2.838,10.989,6.727,10.209.34.479,2.59,11.489-4.369,7.325,1.525,8.271-2.757L615.8,420.974l3.837-3.8,2.551-6.92-3.929-14.632,1.832-5.088,6.253-5.361,1.392-5.294,8.764-16.337-2.95-6.36-4.023-9.4-7.805-7.359-4.189-9.87-.3-1.3-.407-11.355-5.307-6.62-3.264-4.422,4.916-9.963-.726-2.73-2.378-4.4,1.158-7.246,6.879-6.686,3.756-7.359-4.043-6.713-10.056-3.577-3.783-3.669-.753-4.582,1.513-4.383-.493-11.215-2.591-4.8-5.788-5.994-6.086-8.831-.134-5.334.167-1.732L603.653,189.2l.08-1.512-2.617-4.122-6.933-3.2-.912-7.765.819-7.087-3.3-6.427.013-4.668,3.589-5.934-5.1-16.337-.9-16.649,4.083-10.356.652-6.127-.219-2.431-.067-14.618-5.088-8.6-10.729-9.264L566.079,53.09l-.792-10.37.133-1.572,1.3-4.815,2.471.406,3.423-3.463-.692-4.942-9.364-9.171-17.076,3.11-1.531,5.814L532.734,32.13l-2.99,3.7L519.614,34.8l-23.529,16.17,2.617,5.867-5.281,3.19-10.209,3.756.679,8.192,3.357,4.3-.739,2.664-5.5-.479-7.519,2.058L469.38,93.873l4.043,3.151,3.862,4.269v8.244Z" transform="translate(-56.092 -18.625)" fill="#ff8080" stroke="#000"/><path d="M344.347,488.824l2.564-10.4-7.958-7.1,11.328-24-3.616-4.6-5.308-.413-.573,7.919-4.888,2.118L322.849,444.3l-.666-2.6-11.3,15.284-7.8-.653-4.589,5.967-12.554-2.291-2.171,1.352-4.382-2.65-5,.885-2.7-2.171-6.06-4.176-1.718-4.568-1.379-7.912-11.2-7.039-6.972-14.259-4.423-.18.353-5.115-4.775-5.54.74-5.035-7.533,3.656-5.4,6.361-11.189-.054-10.716-3.237-5.388.14-11.628,6.074-5.854.406-4.668,1.692-7.066-3.483-10.143-.56-5.761,5.268-2,12.121-2.917,4.1,4.842,8.991-4.149,3.4-6.893-3.4-5.934,8.8-5.115-6.193-2.63-.287-1.978,4.582,3.223,7.646-2.977,3.742-8.245-6.793-2.344-7.632-9.99,4.316-.6,2.65-4.329,18.288L88.216,489.544l-.286,2.5,3.849,3.782.326,1.066-6.373,2.457-7.626,2.771-1.132,7.805-2.391,1.339-9.869-4.149L62.283,508.4l-5.475,9.018,7.426,3.5.846,2.631-7.9,13.633-.039,5.5,3.836,3.929-.14,8.185,7.858.193.586,2.618L61.97,568.843l7.765,17.4,5.335,5.968.559,6.1L74.7,619.8l7.073,3.45.8,2.591-.872,12.187,6.753,3.983-.926,5.295,3.81,7.012,14.272-.792,6.866,15.151,2.7,12.814,7.713,14.1-1.392,2.33,2.417,1.286,3.237,10.482.206,21.838,6.194,11.774,9.584,5.022,4.968,5.688,7.492.286,4.708,9.87-4.3,9.976,9.61,4.855,7.726,7.7-5.088,8.831-7.439-1.545-2.225,1.419.766,7.545,5.228,4.642-.52,4.875,2.851,6.647-1.938,4.242-1.366,17.469-8.791,5.421,6.986,8.638,1.925,1.285,4.915-2.251,7.752-7.012,17-3.863,3.151,2.417,4.735.713,5.075-6.18,8.458,10.9.679,8.4,10.669.952,9.224-4.422,4.855,14.245,16.87,8.465,10,11.055,6.28,5.514L281.2,898l8.418-5.788,8.624-16.13-.352-18.094,7.765.153,9.051-5.475,6.307-8.418-1.978-4.708,25.141-1.445,9.55-5.474,4.855,2.171,3.823,7.372-.507,5.4-5.581,18.521.966,8.038,5.8,5.088,16.091-1.2,2.057,5.034,2.717-.08,7.246-11.435-2.524.926,1.312-29.576,2.418-4.875,5.321-1.119-2.345-7.466,1.925-7.439-4.722-.886-3.969,3.224-1.392-4.582,2.757-10.123,3.25-4.023-1.858-4.9,6.234-5.134,5.228-1.226,1.652-4.862,10.942-7.659,2.963-4.515-3.33-10.356L401.8,763.024l-2.4-4.6,2.564-1.025,3.9-15.844,6.493-5.1,8.052-1.238-.9-8.052,9.583-4.722-7.9-6.526,5.967-14.166,7.859-1.951,10.863,7.8,4.694-12.607-1.252-10.876,1.8-2.071L454,677.805l-6.247-7.725,1.832-.753-.466-3.889,2.564-7.832,13.033-2.444,2.757-15.9,3.45-4.229-2.744-3.969L470.2,615l-1.818-1.9-4.828,1.105-2.378-4.855.313-4.855,4.855-1.512,4.588,2.158,4.642-5.774-.453-.093-7.246-6.06,6.481-7.18-2.185-7.506-6.28-8.571-13.1-1.272-6.247,3.484H438.53l-1.652,2.131-2.318-1.366-10.589-18.727-.119-.493-8.025-9.324-2.251-6.48-7.34-2.637-7.632.939-7.5,7.112-7.632.666-4.842-2.031,2.224-1.325-3.6-12.008,6.793-18.807-14.085-7.672-9.537-9.61-5.162-.833-2-1.991-4.162-2.184Z" transform="translate(-56.092 -18.625)" fill="#06c" stroke="#000"/><text transform="translate(389.985 261.885)" font-size="141.347" font-family="DejaVuSansCondensed-Bold, DejaVu Sans" font-weight="700">2</text><text transform="translate(380.659 498.664)" font-size="141.347" font-family="DejaVuSansCondensed-Bold, DejaVu Sans" font-weight="700">1</text><text transform="translate(146.076 644.918)" font-size="141.347" font-family="DejaVuSansCondensed-Bold, DejaVu Sans" font-weight="700">3</text></svg>