<svg xmlns="http://www.w3.org/2000/svg" width="663.948" height="930.774" viewBox="0 0 663.948 930.774"><title>2T Législatives 2017 Loire</title><path d="M581.738,782.839l-5.571-5.03-4.943,5.111,2.281,4.672-2.281,5.3-2.282,5.4-4.54,4.416-7.7,5.44L530.884,818.5l2.384-4.468-4.614-3.129.373-2.8,3.5-3.656L518.162,800.8l-8.57,1.4-7.429-4.928-2.625-7.444-1.2-5.652,7.056-5.316-4.687-9.608,5.141-6.939-1.5-2.53,16.81-1.871,8.123,2.31,2.772-.373L535.2,746.7l7.085,4.328,10.968-2.888,9.454-4.014,2.939,1.228,8.526-2.669,11.5,2.625,1.345,4.125,15.121,2.113.146,6.251,6.61,6.625,4.256-7.21,10.814-3.371.168-5.7,7.253,1.112,4.124,3.824,4.1,10.712-1.3,10.968-6.142,6.683.227,3.027L638,795.2l-9.425,1.469-6.383,4.424-3.386-5.031-3.568,3.415-3.072-1.945,2.4-4.782-6.728.782,2.4-11.6-15.735-1.156Z" transform="translate(-154.823 -34.463)" fill="#ff8080" stroke="#000"/><path d="M623.438,821.125l-6.756-10.2-6-.453-12.109,8.723-5.527-2.574-2.472,1.858-7.165-4.672-6.252-13.038-8.2-2.5,2.281-5.4,2.281-5.287-2.281-4.687,4.943-5.111,5.571,5.031,12.8-1.982,15.721,1.156-2.4,11.6,6.727-.767-2.4,4.782,3.085,1.945,3.554-3.415,3.385,5.016,6.384-4.416,9.439-1.47,6.611,5.725-2.873,20.949,4.482,4.109,3.525,4.541-7.97,3.685-2.7-1.258-4.256,7.795-1.411-1.872-8.686-8.723Z" transform="translate(-154.823 -34.463)" fill="#ffeb00" stroke="#000"/><path d="M746.629,691.865l-.958-2.172-4.453-4.416-6.339-17.863-6.8-6.552-7.466,4.482-9.783-.27-10.251-10.237-14.507,1.872L670.1,663.121l-4.672-3.553-5.769.343-.783-8.555-22.192.388-2.727,5.3,1.126,2.9-6.7,8.613-6.624,11.2-13.557-10.024-1.7.043,4.555,10.595-3.326,7.765-2.683-1.082-7.115-3.056-1.06-7.524-8.826-.826-8.672,3.012-5.952-1.558-3.809-4.716-9.557,15.45,3.085,20.978-2.873,5.425-19.537-9.293-2.26,5.557-14.309-3.524-3.97,3.341,1.243,9.4,11.64,14.58,2.113,12.452,7.085,4.329,10.968-2.874,9.454-4.014,2.939,1.213,8.526-2.654,11.5,2.611,1.345,4.138,15.121,2.113.146,6.252,6.61,6.624,4.256-7.224,10.814-3.356.168-5.7,7.253,1.111,4.124,3.809,4.1,10.727-1.3,10.967-6.142,6.669.227,3.027L638,795.238l6.625,5.726-2.874,20.963,4.483,4.1,8.782-2.64,5.937,1.426,9.951,6.968,8.987.271,1.769,5.871,5.228,3.21,8.452-1.528,6.384-9.8,2.311-.417,6.024.826,16.423-7.195,2.844-27.434,3.173-5.038,5.725-2.128.717-11.97,4.087-4.585,13.937,1.243,6.529-5.14,4.511-10.222,1.711-12.036-2.639-1.14-4.073,4.029-5.572-8.913-4.986-.958-2.216-8.372,2.055-2.23-2.713-14.939.768-11.984,6.742-5.915,2.295-5.5.717-.183,11.611-10.4,1.441-3.057-7.3-9.44-3-.767-7.67,5.272-5.783-1-.7,9.213,6.983,9.885Z" transform="translate(-154.823 -34.463)" fill="#ffeb00" stroke="#000"/><path d="M717.966,914.139l-4.5,14.667,4.439,3.459,4.226,4.7v9.052L709.4,954.245l-14.777-2.772-11.479,4.438-3.912,4.724-11.268-4.343-7.795,7.685-9.2.745-4.752-3.758-2.413-1.287-13.878-13.724-7.114-5.367-7.086-13.381-8.972-.629-17.68,10.412-2.471,5.33-7.641-3.853-2.325,1.828-13.052-15.735,5.857-6.771,1.045-5.739,4-3.715-.9-4.614-8.687-2.544-12.839-12.65,19.72-16.795,2.888.329L562.486,851.41l-7.444-5.038-17.548-4.27-.285,5.8-2.428,1.411-5.082-1.068-3.656,4.4-11.267-.614-.512-13.41-8.467,2.859-7.985-12.028-2.969.255-8.072-4.182-15.94,6.624-12.5-8.379-11.64,2.472L435.727,830.5l7.641,9.842-1.287,5.981-21.307-1.9-7.012,5.812-.812,6.186-5.769-4.211-11.414,3.583-2.274,12.064L389.954,873l-5.169-3.115L379.6,858.729l-5.44-3.071-5.916,1.682-.716,2.968-7.027,4.8-1.784,14.821-2.486-.03-1.214-4.767-7.539-19.779-5.937-.153L337,841.575l-4.555-3.641-10.726,4.8-8.343-3.341-5.5,2.34-2.654,8.584-10.01,6.486.585,11.114-8.109,7.568-2.172-4.811L282.191,854.4l-3.268-11.3,1.469-12.313-2.588-8.767,5.067-14.295,5.316-2.786,4.241-8.226,2.815.812,11.735-7.67,16.123-5.7.015-.958-1.96-5.257,9.294-4.285-3.744-4.467,2.515-5.382-3.473-10.771,11.238-12.964-1.016-7.867-7-4.5-4.4-.387-.512-2.355-3.911-9.367-7.524-26.279,5-11.026,2.713,3.729,14-4.014,22.235,7.144.359.043,11.808-2.369,8.482,3.283,9.4,7.883,3.042-.812,5.915-9.469,7.115-4.928.745-2.844-4.058-3.825,10.113-5.367-3.883-8.109,4.84.6,3.715-6.925,35.9,14.054,4-3.613,8.342,2.384,11.151,8.782,2.384-14.31,4.058-4.138,1.711-8.394-3.444-8.124.6-5.871-3.9-4.4-16.993-2.113,1.1-6.186,9.228-7.268.943-5.711,11.056-4.27,5.484-2,2.457,19.925,3.744,3.188,5.155-.2,2.1,4.987-9.622,11.1-1.031,2.895,3.788,8.423,13.081,7.795,1.586,1.842,9.908,14.492-.929,5.331-8.029-.212-4.658,2.588-5.352,2.654-2.34,5.5,5.126,7.714-.212,6.113.146,6.939,13.893-3.985,5.638,2.113,1.242,9.4,11.656,14.58,2.113,12.453-3.144,13.169-2.772.373-8.123-2.325-16.811,1.871,1.5,2.545-5.14,6.939,4.687,9.593-7.07,5.33,1.2,5.653,2.639,7.428,7.415,4.943,8.569-1.411,14.382,3.656-3.5,3.641-.373,2.8,4.614,3.129-2.4,4.482,25.833-10.354,7.685-5.454,4.556-4.416,8.2,2.5,6.245,13.037,7.181,4.673,2.457-1.858,5.527,2.574,12.109-8.723,6.011.453,6.755,10.2,1.331,9.082,8.687,8.738,1.411,1.857,4.27-7.794,2.683,1.257,7.985-3.67-3.539-4.556,8.782-2.654,5.951,1.441,9.937,6.968,8.987.271,1.769,5.871,5.227,3.2,8.467-1.514,6.384-9.812,2.3-.4,6.04.826,16.408-7.195,2.858-27.435,3.159-5.038,5.74-2.128.7-11.969,4.1-4.585,13.937,1.229,6.529-5.141,4.511-10.207,1.7-12.035,11.238,1.382,13.556-14.324,10.171,6.515,3.056,11.508-2.829,1.141,11.421,15.121-1.243,4.138.373,3.525,2.742,7.567.014,5.229-10.456,10.8,1.016,11.553,6.252,8.467,2.5,11.568-1.141,11.735-.644,5.111-18.747,3.414-1.674,6.384-12.329,4.453-3.268,4.043-11.122-1.126-25.847,17.753,2.888,6.442-5.8,3.5-11.224,4.139.76,8.986,3.671,4.723-.812,2.911-6.025-.527Z" transform="translate(-154.823 -34.463)" fill="#06c" stroke="#000"/><path d="M599.66,159.668l-16.422-11.3-7.824,2.83-4.737,7.21-17.936,2.654-6.6,4.957-1.484,11.794-6.486,6.113-1.959,8.657,3.3,4.944-.658,11.75-5.586,2.925.929,5.652-3.473,7.78-7.459,8.957-19.676.9-1.645,2.172,6.354,11.779,5.367,3.115,6.281,10.4,4.8,3.056,10.77-2.785.483-.117,2.786,12.152,1.045,2.589-7.4,14.521L526,286.348l-11.48,2.969-3.187-4.687-13.879.146,2.611,9.542,6.8,4.972,10.427,3.028,8.123,4.124,5.558,7.355,1.74,5.93-4.139,4.4,11.239,10.2,6.054.885,15.091,9.9L555.7,355.482l5.367,2.3-14.28,10.594-5.44-.987-8.994,1.031-5.082,3.269-3.444,11.179-9.081-1.586-4.957,11.311-10.522,6.355-2.589,5.739-.541,5.155-4.6,2.757-2.1-5.169L486.7,406.9l-3.028-.512-2.544-5.5,1.886-17.563-8.328-3.012-.241,3-5.813.431-4.058,7.766-8.38,2.3-4.84,6.756-5.9-6.486-4.57-10.266-16.92-14.865L411.782,379.6l-1.17-2.771-5.681-1.843-3.941-8.028-7.1-5.4-8.753-2.231-1.981,2.311-1.6,2.274-2.529-1.156.855-5.454-6.142-5.631-5.2-7.3-8.284-3.085-.242-2.984-10.237-5.886-18.024-2.171-10.879,5.8-6.143-.914-2.34,5.769,5.93,15.9.746,5.769,13.008,11.267-7.882,14.924-8.409.57-13.966-14.835-5.572.928-5.871,6.172,1.9,11.764L300.2,397.6l2.61,8.38-1.63,2.588-3.013-.468-3.027-2.383-1.572,2.559-8.5,2.23-7.729,8.825-5.711-1.346-5.016-7.165-2.815.8-3.509,7.838,4.241,10.822-5.769,5.469-4.878-3.248-14.126-.1-4.344-3.81,4.088-7.4-.315-11.714-8.957-7.283L204.7,390.907l-8-2.113-3.459-4.482-8.781-19.406-6.983-5.7-4.753-7.685-16.978-7.143-.088-.2.168-15.384,6.427-6.6-1.674-9.1,4.84-7.524,20.2,6.668,5.33-2.983,2.83-8.753,3-.767,13.483,7.056,5.586-2.311,5.9-7.012,5.937-1.287,8.379-3.129.783-5.966,4.5-4.124.212-.183-2.94-.483-1.645-5.725-5.44-11.209-1.382-15.692L225.107,235l9.754-33.32L223.4,183.856,217.583,182l4.826-17.234-4.885-10.851-1.1-11.714,10.1-4.5-10.8-21.622L214.6,103.7,217.97,95.6l-5.7-10.88-7.195-5.886L202.55,66.9l5.572-2.369,15.194,4.1,3.1-16.825,26.652-4.387,11.413-1.4,5.455-10.712,5.769,1.6L283.515,35l2.625,1.711,3.115,12.035-.841,15.041L282.17,69.87l.088,9.213-4.585,11.122,12.014,5.9,4.753,3.627,11.867-2.084,18.009,3,4.6,2.815-.672,9.023,10.58,17.8,18.339-1.945,5.886,2.172,2.273-2.128,11.612-8.057,6.31-6.757,4.7,1.543,9.966-3.97,12.584-6.545L428.4,120.578l.468,2.983h.285l5.886,1.185,21.636,2.083,5.352-2.654-1.184-2.888.058-9.228,2.669,1.346,10.551-5.257,8.3,8.423,3.386,6.712.972-.672,11.685-8.84,7.94,3.3,2.34,8.409-5.286,7.027-2.94.212,2.815,8.343,18.163.884,4.885-11.209,7.824-4.482,5.571,2.8,2.845-.1,6.354-12.2,5.14,2.83,7.3-4.958,7.371,4.11,7.641-1.485,1.681-2.61L571.8,104.47l7.1-9.827,8.482-3.2-.2-6.025,11.6.146L608.1,96.888l.761,3.5-16.225,6.7-.432,5.8,6.325,6.252,4.943,1.959,11.853,6.471,3.239,4.468-4.629,11.041-4.673,3.773-3.912,13.863Z" transform="translate(-154.823 -34.463)" fill="#f90" stroke="#000"/><path d="M632.351,638.166l-6.829-4.109L623.8,623.016l-3.488-4.424-11.838-5.886-7.539-2.113-.885-4.512-10.112-14.667,2.128-3.927-2.172-3.955-16.554-7.714,1.754-2.274-1.769-8.27,4.7-6.924-4.927-6.881,4.467-4.124,1.514-9.1,5.981-6.939,4.029-14.85,7.253-5.382L593,504.037l-4.27-2.9-10.822,5.031-8.766-1.485L562.9,486.81l5.711-6.881,11.282-4.643-.511-18.126,2.325-2.069,5.271,3.356-4.716-12.884,1.374-2.515-4-4.073,2.815-.446,1.959-7.743,4.285-3.116-4.672-7.567,4.687-3.839,3.443-8.526-1.06-4.753-20.737-.9L558.77,392.5l-3.444-11.838-6.654-6.427-1.857-5.828-5.44-1-8.994,1.031-5.082,3.269-3.444,11.18-9.081-1.587-4.957,11.312L499.3,398.964l-2.589,5.739-.541,5.155-4.6,2.757-2.1-5.169-2.741-.527-3.028-.512-2.544-5.5,1.886-17.563-8.328-3.013-.241,3-5.813.431-4.058,7.766-8.38,2.3-4.84,6.756-5.9-6.486-4.57-10.265-16.92-14.866-12.181,10.653-1.17-2.771L404.957,375l-3.941-8.028-7.1-5.4-8.753-2.23-1.981,2.31-1.6,2.274-2.53-1.156.856-5.454-6.142-5.63-5.2-7.3-8.284-3.086-.242-2.983L349.8,332.439l-18.024-2.171-10.88,5.8-6.142-.914-2.34,5.77,5.93,15.9.746,5.769L332.1,373.855l-7.883,14.923-8.408.571-13.966-14.836-5.572.929-5.871,6.171,1.9,11.765,7.926,4.241,2.61,8.379-1.63,2.589-3.013-.469-3.027-2.383-1.572,2.573-8.5,2.216-7.728,8.825L271.659,418l-5.016-7.166-2.815.8-3.509,7.839L264.56,430.3l-5.769,5.469-4.9-3.268-14.127-.1-4.343-3.809,4.087-7.4-.314-11.713-8.957-7.283-25.533-11.282-8-2.113-3.458-4.482-5.426,1.674-1.126,5.382-6.039,6.127-11.538.614,2.954,7.9,5.125-.841-.841,5.8-3.985,4.511-1.03.944,4.825,17.666L167.3,459.917,156.431,465.8l-1.067,5.41,4.343,4.512,17.468,6.727,5.9,7.341-3.013,5.2-1.674,1.411-2.07,4.255,11.729,12.84,3.173-5.067,2.969.212,7.582,15.983,8.014,3.554-2.427,4.585,3.327,7.012-4.058,10.207,1.067,8.555,10.522,15.209L225,589.242l7.641,8.314,1.858,8.255,1.981,4.687,8.211,4.555,12.27,1.8,2.53,8.408,4.811,2.026,8.072,8.481L288.813,642l14.968,15.384,4.555,6.727,3.188,8.029,6.127,6.156,2.713,3.729,13.98-4.029,22.25,7.144.359.058,11.808-2.369,8.482,3.283,9.4,7.868,3.041-.8,5.916-9.469,7.115-4.943.745-2.83-4.058-3.824,10.113-5.367-3.883-8.109,4.84.585,3.7-6.91,35.916,14.054,4-3.627,8.343,2.4,11.136,8.782,2.4-14.309,4.058-4.139,1.711-8.408-3.444-8.109.6-5.872-3.9-4.4L458,626.554l1.1-6.171,9.228-7.269.943-5.725,11.056-4.255,5.484-2,2.457,19.911,3.744,3.2,5.155-.212,2.1,5-9.622,11.1-1.031,2.889,3.788,8.438,13.081,7.78,1.586,1.857,9.908,14.478-.929,5.337L508,680.691l-4.643,2.589L498,685.949l-2.34,5.5,5.125,7.7-.212,6.127.147,6.925,13.892-3.971,5.638,2.1L524.22,707l14.31,3.525,2.259-5.557,19.552,9.286,2.873-5.426-3.086-20.963,9.557-15.45,3.8,4.717,5.952,1.557,8.672-3.027,8.84.826L598,684.026l7.129,3.056,2.669,1.082,3.342-7.765-4.57-10.609,1.711-.03,13.556,10.025,6.625-11.195,6.682-8.613-1.111-2.9,2.728-5.3,4.167-7.955Z" transform="translate(-154.823 -34.463)" fill="#ffeb00" stroke="#000"/><text transform="translate(169.349 248.695)" font-size="155.186" font-family="DejaVuSansCondensed-Bold, DejaVu Sans" font-weight="700">5</text><text transform="translate(185.992 515.998)" font-size="155.186" font-family="DejaVuSansCondensed-Bold, DejaVu Sans" font-weight="700">6</text><text transform="translate(219.072 774.836)" font-size="155.186" font-family="DejaVuSansCondensed-Bold, DejaVu Sans" font-weight="700">4</text><text transform="translate(491.855 739.182)" font-size="119.893" font-family="DejaVuSansCondensed-Bold, DejaVu Sans" font-weight="700">3</text><text transform="translate(379.172 763.506)" font-size="53.504" font-family="DejaVuSansCondensed-Bold, DejaVu Sans" font-weight="700">1</text><text transform="translate(430.293 772.33)" font-size="24.452" font-family="DejaVuSansCondensed-Bold, DejaVu Sans" font-weight="700">2</text></svg>