<svg xmlns="http://www.w3.org/2000/svg" width="697.401" height="930.112" viewBox="0 0 697.401 930.112"><title>2T Législatives 2017 Rhône</title><path d="M525.8,629.136l-7.052-1.558-4.338-4.015,7.918-5.289,3.271-9.155,6.05-12.822,5.44-.559,2.658,2.5,1.816,8.062,3.468,2.766,5.922-1.761,2.054-2.1,4,.487,1.7,2.821L551.065,623.3l8.6,5.51,10.783,2.832,2.868,4.71,4.6.1,3.4-3.123,4.68,3.159-5.293,7.663-2.647,2.412-1.373,10.378-11.148,2.055.737,10.7-13.184-7.073L551.311,658l-1.292-6.7-4.268-16.266q.71-3.486,1.42-6.973l-1.28-1.233-6.529-3.289Z" transform="translate(-111.365 -15.46)" fill="#ffeb00" stroke="#000"/><path d="M553,605.209l-2.054,2.1-5.922,1.76L541.56,606.3l-1.816-8.065-2.658-2.5-5.44.559-6.128-11.73,1.664-2.85,10.551-2.353,2.685,2.276,9.06-10.559,14.075-9.527,3.426,5.126-16.813,14.977,4.689,5.775,13.3,6.079-2.5,5.985.014,7.347.148,2.931-1.046,7.361-6.217,11-7.5-4.836,7.635-14.771-1.7-2.821Z" transform="translate(-111.365 -15.46)" fill="#ffeb00" stroke="#000"/><path d="M558.564,628.13l6.217-11,1.046-7.362,8.15-.269,1.554,4.777L580,616.792l.869,8.094,11.141,5.952-.692,13.515,9.951,6.02-.022,3.62-3.5.839-19.7-8.274,2.647-2.415,5.293-7.66-4.676-3.159-3.4,3.123-4.6-.1-2.871-4.714Z" transform="translate(-111.365 -15.46)" fill="#ffeb00" stroke="#000"/><path d="M565.665,599.49l.015,7.347.147,2.931,8.15-.269,1.555,4.78L580,616.795l.87,8.1,11.14,5.952-.692,13.511,9.951,6.024,3.988-14.111,5.068-14.5-16.954-3-4.9-9.154-8.648-10.762,1.411-13.821-6.718.659-6.353,7.821Z" transform="translate(-111.365 -15.46)" fill="#ffeb00" stroke="#000"/><path d="M481.813,473.252l-2.38-21.67,5.118-4.107.385-.107,20.569-22.055-.107-3.83,9.555-4.491,3.266,1.378,8.375,15.621L540.873,437l2.219,12.079-5.019,12.776.823,1.888,33.426-18.074,3.025,6.4L589.1,456.1l.681,10.692,6.549-3.964,2.38,18.772,19.174,6.433-6.433,18.037-2.765,7.668-14.575,1.279-8.339,12.231-2.013,5.682.993,1.359.546,18.387-.554.331,10.029,20.1-7.3,8.159-6.568,2.425-6.8.662-6.416,7.9-13.421-6.137-4.715-5.834,16.955-15.1L563.044,560l-14.208,9.592L539.7,580.25l-2.711-2.291-4.106-9.242-9.02-5.574-2.416-6.675-2.4,6.782-6.379,2.863-2.112-18.681-16.212-20.74-8.053,1.432-1.208-15.5-5.574,2.782-9.609,6.066-11.112,2.345-1.3-18.959.787-3.427,16.686-12.079,5.172-4.42,1.744-9.734Z" transform="translate(-111.365 -15.46)" fill="#ffeb00" stroke="#000"/><path d="M610.328,621.759l-16.954-2.991-4.9-9.158-8.648-10.758,1.411-13.822,6.525-2.426,7.234-8.073.958.52,2.942,6.437,16.837,6.63-1.534,10.808,12.019,12.841-1.892,14.488Z" transform="translate(-111.365 -15.46)" fill="#ffeb00" stroke="#000"/><path d="M601.269,650.373l3.991-14.111,5.068-14.5,13.994,4.493,1.893-14.487L614.2,598.923l1.531-10.8-16.838-6.633-2.938-6.434-.961-.52-9.93-19.923.552-.331-.53-18.214-.98-1.348,1.981-5.623,8.249-12.116,14.451-1.26,2.717-7.6,7.977,6.957,7.5,19.93-2.19,24.991,4.212,6.084,13.608-5.42,7.273.262,9.173-2.282,5.041,3.777-24.592,38.45-3.893,29.93,2.549,19.426-19.891,8.817Z" transform="translate(-111.365 -15.46)" fill="#ffeb00" stroke="#000"/><path d="M171.239,414.907l-7.39-1.082L150.1,401.361l5.064-5.386-2.147-7.256-6.8-9.018-9.941-5.047-12.759-3.686-8.321-6.084-3.176-11.676,16.964-.179,3.9,5.717,14.047-3.632,7.865,7.39,9.055-17.787-1.262-3.149L159.16,326.7l-.59.125-13.179,3.408-5.87-3.722-7.667-12.723-6.586-3.811-7.775-14.414,2.031-2.676L143.6,291.8l9.108-10.978,4.25-9.5-1.137-6.934,6.854-3.561.805-14.378-4.035-6.066,2.4-10.576,7.918-7.48,1.834-14.449,8.07-6.066,21.93-3.231,5.816-8.839,9.555-3.463,20.1,13.841L244,201.383l4.787-16.982,5.717-4.6,5.646-13.51,22.628-16.776,9.242-2.29-.349-13.752,15.22,15.031,7.623,12.178-2.012,15.1-3.114,5.905,1.78,6.415-5.046,4.3,18.154,20.686,5.449,4.751,1.36,10.942L344.4,249.787l1.1,7.113-7.65,20.391-.161.679-3.248,19.541-9.9,13.144-5.78,3.1.18,7.337,13.993,4.178,4.661,5.431,6.1,14.906L342.1,352l2.424-.313,9.4,4.214,2.568,6.621,17.912,1.011L385.7,372.9l10.87,1.262,15.585-2.747.993,3.248,6.469,1.941-.51,12.741-7.184.125-6.326,7.972,4.653,9.224L416,410.755l13-5.78,1.665.733.3,1.244-2.845,15.085-2.694,8.473-2.4.608-10.36,3.114,6.87,16.373-1.1,2.568-.573,10.96-1.082,7.023,6.871,8.089,2.094,14.011,2.791,2.165,1.923,6.084,5.351,3.543,2.693,1.029-2.049,2.057,3.83,13.752,9.3,5.467,9.3-3.534,11.112-2.345,9.609-6.084,5.574-2.782,1.208,15.5,8.053-1.413L510.64,547.43l2.111,18.664,6.38-2.863,2.4-6.782,2.416,6.674,9.019,5.574,4.107,9.243-10.638,2.38-1.691,2.881,6.183,11.828-1.628,2.988-15.551,9.609-8.213-6.782-4.527-4.947-2.049-16.687-15.765,3.284L474,572.41l-9.959,2.783-10.853,4.2-10.244-2.6-16.5,1.709-13.233,14.414L402.8,611.661l-6.55,5.029-18.073-.77-4.715-10.1-12.078-8.768-2.416,7.256-15.184,17.124L325.7,613.674l3.212-10.173-1.852-3.194-7.257-.931-4-6.182-13.421,3.1-6.254-2.362,11.238-14.486-.421-3.722-3.7-10.611-11.587-9.072-3.266-6.621-14.665-10.522-5.278-9.332-6.836,2.38-3.516-.976-11.739,8.2L223.624,528l-5.717-9.26,5.735-4.715,4.213-10.414-1.3-5.816-25.375-1.1-14.172-11.73L182.8,470.475l-8.142-7.882-2.273-7.131,17.474-12.982-6.567-2.792L189.722,427Z" transform="translate(-111.365 -15.46)" fill="#06c" stroke="#000"/><path d="M412.652,434.2l10.36-3.1,2.4-.627L428.1,422l2.845-15.067-.295-1.262-1.664-.733-13,5.78-5.752-4.089-4.653-9.224,6.326-7.954,7.184-.143.51-12.723-6.469-1.959-.992-3.231-15.586,2.747-10.87-1.279L374.4,363.5l-17.912-1.011-2.568-6.62-9.4-4.215-2.424.331,1.592-6.415-6.1-14.906-4.661-5.431-13.993-4.178-.179-7.337,5.779-3.077,9.9-13.144,3.249-19.558.16-.662,7.65-20.408-1.1-7.113-13.314-21.008-1.36-10.943-5.448-4.751-18.155-20.686,5.046-4.294-1.78-6.415,3.114-5.905,2.013-15.1-7.624-12.177-15.219-15.013.348,13.751-9.242,2.273-22.628,16.794-3.946-5.467-14.5-7.936-6.066-2.4-7.722-7.65.528-7.077,19.836-8.214-.913-4.285-11.408-13.842-14.208-.188-1.413-6.469,4.106-13.035-4.6-9.493,2.058-1.941,6.674-20.776L228.015,49l1.816-10.763,6.344-9.26-.958-3.651,14.208-.349,1.923-7.095,6.55,3.776,2.9,6.987,14.244-3.176,13.126,12.777,9.905-4.017,11.792,22.94,25.866-3.444,6.433-4.017,1.343-10.54,7.265-12.177,9.171,1.324,1.306,3.176.993,14.3L372.6,55.43l24.381,4.294,2.532-7L395.81,42.3l14.262-12.427,2.237-10.468,11.041-1.87,8.6,7.184L443.535,16l10.379,2.416.349,8.58,7.113,10.639,3.212.179.161,16.588-5.315,2.38-5.449-4.528-3.9,5.646-6.469-1.539L446.2,70.5l5.467,5.135,11.2-.573,2.792,2.515,8.964,4.751L486.4,94.467l-2.416,6.254-9.877-1.083,1.154,6.344,10.746,12.123-7.5,6.379-3.283,9.941,2.183,13.752,3.561,5.386,16.355,6.522,9.592-2.424,9.367-1.521,3.58.456,1.611,5.521,7.166,8.822,8.214,7.865-5.02,18.959-6.45,9.09-11.73,14.557-3.776,12.159-5.279,6.469-9.242,10.191,1.226,9.806,5.046,3.776,4.178,12.651-2.031,6.836-14.8,15.049,4.58,13.4.609,8.141L492.5,331.335l3.579,14.906-.384,1.047.823,7.023,3.848,24.694-3.391,10.209-1.3,2.273L482.07,404.281l.608,10.271,9.94,4.268,12.669,2.657.126,3.848L484.844,447.38l-.4.089-5.118,4.125,2.38,21.652.125,1.977-1.726,9.735-5.189,4.42-16.687,12.061-.787,3.445,1.306,18.959-9.314,3.534-9.3-5.467-3.829-13.752,2.049-2.057-2.675-1.029-5.368-3.543-1.923-6.066-2.783-2.183L423.5,479.269l-6.854-8.089,1.065-7.023.573-10.96,1.1-2.55Z" transform="translate(-111.365 -15.46)" fill="#06c" stroke="#000"/><path d="M488.515,708l-10.254-3.113,2.586-17.268L466.531,679.6l-1.726-1.324-6.854,1.431L439.5,700.939l-8.58,5.717-6.55,16.57L411.13,710.852l-28.621-1.343-9.153,11,5.539,4.93-2.6,10.656-9.5,15.112-.4,3.579,3.481.931-5.556,4.268-3.812,9.824-9.52,3.865-1.19,7.113-10.119,9.922,3.131,17.617-19.54,7.847-5.718-4.348-7.058.42-.958-10.468-27.155.474,5.1-9.735-10.4-6.853-8.357-5.046-2.111-13.493-4.268-5.413-14.486-7.2-9.224-2.6-1.083-5.5L225.172,728.46l2.6-4.805-2.658-4.84-20.256-9.439,2.147-2.783-2.165-10.119L210.6,688l-6.03-8.419,5.466-5.046,1.853-11.131,7.318-8.49,4.93-18.172,8.875-6.586-4.089-8.616L223.7,618l-13.241,6.156-10.728-1.817-7.641-21.875,6.988-8.42,13.8-5.681-.626-22.18,2.846-2.532,6.45,4.106-5.771-15.765,1.682-3.078-4.894-4.983,3.445-.546,2.4-9.475,5.244-3.812,22.734,11.166,11.739-8.2,3.516.994,6.836-2.4,5.278,9.332,14.665,10.54,3.266,6.6,11.587,9.073,3.7,10.611.421,3.722-11.238,14.486,6.254,2.361,13.421-3.1,4,6.2,7.256.912,1.852,3.194-3.212,10.174,18.082,7.757L359,604.424l2.416-7.265,12.078,8.768,4.715,10.1,18.074.77,6.55-5.029,10.413-18.753L426.483,578.6l16.481-1.709,10.245,2.6,10.853-4.178,9.958-2.792,9.189,10.084,15.764-3.284,2.049,16.687,4.528,4.965-13.735.609-12.409-7.355-11.31,3.176-.107,5.538,2.532,1.119L484.8,601.06l7.588,16.337.179,3.427,6.236,2.442-18.834,13.546-.769,3.194,6.951,10.325,27.433-3.7,6.343,6.415-1.279,3.516,20.445,17.582,2.746,5.923,8.858,2.746-2.362,6.89-18.887,17.787-.51,7.265-2.237,1.065.384,3.632L518.326,730.1,511.3,732.2l-8.563,10.253-3.56-.912-3.248-10.468,2.2-8.106Z" transform="translate(-111.365 -15.46)" fill="#ffeb00" stroke="#000"/><path d="M566.516,894.681l-12.91,6.155-8.286,11.641-9.367,5.261-1.646.931-14.539,9.609.992,12.865-1.395,2.971-2.711.912-5.413-3.131-9.019,1.485-13.976-18.5,3.462-1.378-3.722-14.1-12.463-7.954-16.588,17.528-13.752-1.709-3.229-1.4-4.966,4.948-6.818-10.925-6.1-1.172-2.711-10.226,2.5-2.747-3.3-18.28.93-14.664,8.267-7.22,2.791-6.747.895-.223,14.208-12.7,1.763-3.758-8.93-11.551-3.686-.939-9.368,6.469-7.094-1.244-.841,11.274,8.544,12.1-11.184,3.132-1.172-2.658-5.431-5.412-7.757-21.858-8.339-8.017-9.126,5.5-11.989-.348L360.49,806.086l-17.734,2.273-3.15-17.6,10.138-9.922,1.191-7.113,9.5-3.883,3.829-9.825,5.556-4.249-3.5-.939.4-3.58,9.5-15.1,2.6-10.674-5.52-4.93,9.153-11,28.6,1.342,13.242,12.356,6.55-16.57,8.6-5.717L457.9,679.744l6.871-1.431,1.709,1.324,14.315,8.008-2.568,17.268,10.254,3.114,9.555,14.941-2.2,8.125,3.248,10.468,3.56.912,8.563-10.253,10.629,13.054,10.012,1.3,4.348,3.615,4.715-.546.591-1.941,9.314-4.894,1.575,6.853,10.03,3.078L573,749l3.579-6.8,2.049-22.9,23.209-2.747,6.272,7.5-2.952,17.268,18.96-6.97,1.244-12.249,9.752-11.237,1.8-14.924,14.155.957,12.706,6.531,5.815-4.786,10.638,3.918,4.313,5.539,10.907,2.478,11.515,1.414,21.16,9.457,3.06,7.283-12.705,7.534-3.176,6.692-.493,10.906,5.4,9.7-7.238,7.99-23.817-9.225-10.173,4.25,9.351,5.028-2.184,11.113-.4.492L665.37,772.723l-29.516,6.066-4.3,1.763-14.3-1.065-12.874,5.61-2.783-.036-3.776-.224-1.413,3.5-16.042,8.419-1.682,15.533-6.8-3.686-15.309-8.491-13.474-2.147-25.617,2.514,3.061,6.871,20.757,9.493,5.752,7.623,3.561,7.39,12.061,14.906,23.3,9.476,4.268,5.628-.734,3.543-7.971,11.712L569.42,891.237Z" transform="translate(-111.365 -15.46)" fill="#ffeb00" stroke="#000"/><path d="M519.48,657.14l1.267-3.462-6.29-6.364L487.275,651l-6.88-10.242.748-3.163,18.674-13.416-6.18-2.435-.176-3.4-7.509-16.179-14.134,2.966-2.517-1.091.1-5.49,11.2-3.16,12.292,7.288,13.619-.615,8.132,6.7,15.409-9.516-4.444,9.862-3.268,9.155-7.921,5.286,4.338,4.018,7.052,1.558,13.563-5.6,6.526,3.289q.324,1.444.65,2.888l-.787,5.318,4.268,16.266,1.292,6.7,1.779,4.623,13.188,7.069,2.643,9.619-4.46,8.143-1.569,5.1-4.563,28.193-1.057,7.193-12.481,12.6-2.537,6.916-.586,1.916-4.682.533-4.306-3.583-9.929-1.281L512.239,732.1l6.956-2.088,8.674-10.551-.383-3.619,2.21-1.05.5-7.192,18.708-17.638,2.338-6.816-8.782-2.721-2.7-5.852Z" transform="translate(-111.365 -15.46)" fill="#f90" stroke="#000"/><path d="M688,557.9l-6.307,2.532-9.539,2.129-7.6-1.691-24.793,38.813L635.831,629.9l2.567,19.6-5.35,2.362,6.71,7.184,1.629,9.135-4.25,4.51,1.3,8.473,20.024.7,4.491-2.568,1.065,5.368-3.632,5.118-3.928,9.806,7.372,3.794,5.816-4.769,10.657,3.919,4.294,5.52L695.5,710.53l11.515,1.414,21.16,9.457,19.4-17.545,7.319-1.1L768.5,690.749l-2.111-10.979,20.605-7.408,6.693,3.078,6.71-2.416,3.812,5.19,3.981-16.919-9.824-4.966-9.556-14.8-5.386-4.545-24.444-2.057-3.543-14.352,2.791-14.628-18.422-.4L732.4,588.456l-.4-10.656,21.026,7.221,3.077-2.076,7.847-28.6-6.469,1.682L731.3,558.1l-6.343-2.461-9.127,4.2-6.693-1.342-9.367,4.33Z" transform="translate(-111.365 -15.46)" fill="#ffeb00" stroke="#000"/><path d="M565.536,658.987l.74,10.7,2.644,9.614-4.461,8.147-1.569,5.1-4.563,28.194-1.057,7.188-12.481,12.605-2.537,6.912,9.235-4.854,1.555,6.8,9.933,3.027,10.466-3.7L577,742l2.021-22.682,22.984-2.714,6.209,7.421-2.924,17.109,18.789-6.9,1.226-12.138,9.671-11.134,1.772-14.788,14.03.954,5.258,2.714,3.9-9.7,3.6-5.065-1.057-5.325-4.448,2.545-19.842-.685-1.275-8.414,4.2-4.461-1.608-9.048-6.648-7.112-14.591,6.477-17-8.665L601.25,654l-3.5.839-19.7-8.274-1.369,10.379-3.5.877-.408.021Z" transform="translate(-111.365 -15.46)" fill="#ffeb00" stroke="#000"/><text transform="translate(228.242 206.636)" font-size="189.892" font-family="DejaVuSansCondensed-Bold, DejaVu Sans" font-weight="700">9</text><text transform="translate(117.561 471.694)" font-size="189.892" font-family="DejaVuSansCondensed-Bold, DejaVu Sans" font-weight="700">8</text><text transform="translate(270.033 657.183)" font-size="62.863" font-family="DejaVuSansCondensed-Bold, DejaVu Sans" font-weight="700">10</text><text transform="translate(277.526 786.313)" font-size="91.463" font-family="DejaVuSansCondensed-Bold, DejaVu Sans" font-weight="700">11</text><text transform="translate(549.973 594.04)" font-size="52.657" font-family="DejaVuSansCondensed-Bold, DejaVu Sans" font-weight="700">13</text><text transform="translate(467.455 657.184)" font-size="17.127" font-family="DejaVuSansCondensed-Bold, DejaVu Sans" font-weight="700">14</text><text transform="translate(482.289 548.253)" font-size="36.608" font-family="DejaVuSansCondensed-Bold, DejaVu Sans" font-weight="700">7</text><text transform="translate(497.07 602.245)" font-size="13.865" font-family="DejaVuSansCondensed-Bold, DejaVu Sans" font-weight="700">6</text><text transform="translate(456.793 589.022)" font-size="17.406" font-family="DejaVuSansCondensed-Bold, DejaVu Sans" font-weight="700">4</text><text transform="translate(454.301 607.237)" font-size="14.703" font-family="DejaVuSansCondensed-Bold, DejaVu Sans" font-weight="700">3</text><text transform="translate(430.151 583.819)" font-size="14.703" font-family="DejaVuSansCondensed-Bold, DejaVu Sans" font-weight="700">2</text><text transform="translate(422.836 604.487)" font-size="14.703" font-family="DejaVuSansCondensed-Bold, DejaVu Sans" font-weight="700">1</text><text transform="translate(383.852 603.415)" font-size="14.703" font-family="DejaVuSansCondensed-Bold, DejaVu Sans" font-weight="700">12</text><text transform="translate(381.162 472.157)" font-size="63.199" font-family="DejaVuSansCondensed-Bold, DejaVu Sans" font-weight="700">5</text></svg>