<svg xmlns="http://www.w3.org/2000/svg" width="929.763" height="681.735" viewBox="0 0 929.763 681.735"><title>2T Législatives 2017 Allier</title><path d="M403.713,331.494l-7.851-.569-12.213-5.816-5.013,1.208-2.087,4.8-2.591.335-8.547-5.645.664-5.43-2.1-5.051-14.014-8.471-.386-.145-6.112-8.952L327.572,287.5l-8.7-13.149,5.31,1.15,18.029-5.607,6.738-4.558,7.769,1.334,3.111-4.406-1.448-7.5-7.516-13.085,22.46-14.508.923-10.14,4.791-2.541-13.559-20.633-6.79-3.805-.392-10.974-2.357-.519-1.024,2.188-4.457-6.309L331.984,164.3l-1.517-5.088,1.308-5.171-6.454-4.729,6.777-3.678-3.136-12.163,1.3-4.912,7.371,2.124,6.606-16.385-11.979-7.484-.582-12.346,16.493-14.337,2.731-7.371,9.962-4.419,6.436-4.456-.879-5.127,4.172-3.306L378.143,53l4.7,1.593,6.776.4,3.977-8.806,10.74.373,8.976,5.076,10.493-2.257,6.151,5.076,2.421-1.207,2.94,17.334,6.53,11.776L460,98.063l11.385,3.6,13.11,4.457,9.628,13.547,1.207,1.567,9.754,13.522,19.888,9.57,6.334-3.445,5.765-5.373,1.4-5.064,2.516-.714,13.73-8.06,4.716-6.467,7.756.753.209-.133,7.889-.581,3.47,10.209,7.27,11.283,16.139,2.826,4.754-2.8,5.1-1.777,5.778-9.109,1.9-7.838,5.025-2.01,13.2,2.977,10.532-.878-2.345,7.655.986,5.158,9.432,3.976,2.269,4.571.013,7.939-3.78,3.718.063,5.2-2.421,1.125,4.842,2.516,2.257,5,14.95.582,1.915-1.694.088-5.285L694.8,139.26l7.472-1.789,4.533,6.309,2.693.025,3.47-4.052,3-4.223-5.879-12.2-.645-13.212,11.373,5.1,4.355-5.494,2.074,4.608,8.06-6.656L725.722,88.8,733.6,78.245l5.133,8.718,10.645-1.492,3.964,3.458-3.566,6.713,8.016,13.1-.025,13.086,7.244,2.541,2.32,12.915,9.286,4.311-1.384,7.744,13.838,8.578,1.839,5.114.133,2.333,2.68,5.247,2.4,7.528,3.837,3.6,4.027,3.679-.246,2.744-5.26,9.419,3.294,4.121,8.034,1.309,2.4,15.569.765,6.2.31,12.283-3.616,4.57-.866,5.171,4.924,6.41,7.5,2.655,7.769-2.2,4.04,3.306,1.567,4.962,7.4.79,4.482,6,4.829-.714,13.566-8.6,4.988,5.929-3.306,4.349,2.629,4.2.418.113,5.013-1.864,4.665,2.06-1.827,13.357,2.6,4.615L894.7,299l3.344-3.547,2.244-4.911,7.27-3.42,9.545,4.039,12.827.259-3.148,9.21,6.915.62-7.592,10.791.727,7.977-6.941,7.618,2.244,4.867-4.507,1.4-5.184,5.385-7.333,2L901,325.912l-9.077-9.381-4.185,3.293-2.035,7.63-5.026-1.207-3.034,7.282,3.237,6.891-.456,5.183-5.74,7.459-14.014,6.929-2.693.209-2.282-4.9-5.361-8.293-9.394,3.59-3.2-9.223-4.855-1.9-5.841,5.114-9.729-4.039-8.913,4.937-3.028-7.244-9.868,2.744-4.627-2.643,2.434-10.114-4.286-2.681.74-2.579-2.693.531-2.618,4.817-8.047,1.448-12.036,6.422-2.225,5,2.01,4.57-2.048,1.568-10.677-7.2-2.408.727-1.4,4.937-7.8-1.087-5.3-9.2-7.618,1.479-7.6-10.386-9.818,7.851-1.928,7.346L702.958,343l4.482,12.579L704.848,371l-4.69,1.972-7.928-1.41-4.886,2.295L675.27,368.19l.133,2.244-7.409,4.52-3.394,6.865.815,5.076,3.484,3.755,2.111-1.385,12.5,15.557,7,4.558,6.777,3.755-.272,13.408,3.913,7.124,9.57,14.147,2.459.557,2.567.385-3.028,7.257,1.631,2.1-5.765,8.275-7.1,3.122-1.1,7.8-7.295,1.385-.063,13.1,4.924-1.151,4.134,2.769,4.356,14.286-2.01,1.777-10.93,6.22-5.171.146-6.789,4.077-5.791,5.025-9.8.481-6.075-4.027-2.333.828-9.3,8.875-3.628,3.692-7.321,2.345L636.671,532l3.357-6.878-.891-12.788,2.37-4.419-17.32,1.618-4.3-2.528-7.554-28.832L595.949,469.6l-2.6-.132-3.951,5.126-7.814-.828-1.188-2.408-5.715,8.78,2.023,7.2-3.173,4.109-11.878,2.282-6.48-2.964,4.065,18.446-3.484,7.1-9.52,7.826-2.768,9.349-4.065,4.532-9.64,2.864L517.733,535.3l-4.64,2.01-7.5,10.387-9.393-9.186-5.184-.392-.063-6.9-3.818-1.941-8.692-4.627-2.927-4.938-2.3,1.36-7.889-6.682,3.6-15.077-7.1-10.67-9.09-4.21,1.271-7.163-3.9-6.359-4.545,6.025-2.6.17-5.544-5.221-6.151-11.189-2.073-1.4-7.049,2.257-4.324-2.421-.8-5.4,3.616-13.225,10.2-11.037,3.16-9.431-5.1-5.753,1.915-4.652-4.842-6.189-4.457-3.028-.284-5.4-2.048-1.751-10.689-.17-7.226-3.458,1.9-12.814,2.6-4.456-.9-5.089-.347-4.7L398.5,351.419l3.806-14.767,4.988-1.195Z" transform="translate(-26.844 -45.678)" fill="#d00" stroke="#000"/><path d="M241.22,119.22l6.606-8.085,7.8-.878.923-13.174,13.863-7.011,2.086,1.385,4.987,12.3,6.075,5.2,1.827,4.887,4.349-2.718,4.381,1.707,4.3-2.756,5.727-8.692,18.307-1.4,4.924,5.658,4.874,1.189,11.979,7.484-6.606,16.385-7.383-2.124-1.3,4.912,3.135,12.163-6.777,3.678,6.454,4.729-1.308,5.171,1.517,5.088,18.484,10.14,4.444,6.309,1.024-2.188,2.358.519.392,10.974,6.8,3.805L379.014,214.5l-4.778,2.541-.936,10.14-22.46,14.508,7.516,13.085,1.448,7.5-3.11,4.406-7.769-1.334-6.739,4.558-18.028,5.607-5.3-1.15,8.692,13.149,15.9,10.259,6.1,8.951.386.146,14.014,8.471,2.1,5.051-.664,5.43,8.559,5.645,2.592-.335,2.073-4.8,5.013-1.208,12.226,5.816,7.839.569,3.691,3.989-4.987,1.195-3.818,14.767L404.6,362.6l.348,4.69.916,5.1-2.6,4.456-1.915,12.8,7.225,3.458,10.7.183,2.048,1.751.285,5.405,4.444,3.028,4.854,6.189-1.928,4.652,5.115,5.753L430.92,429.5l-10.2,11.025-3.616,13.237.815,5.4,4.324,2.421,7.036-2.257,2.086,1.4,6.138,11.189,5.544,5.209,2.605-.158,4.545-6.025,3.913,6.36-1.283,7.162,9.1,4.21,7.087,10.67-3.6,15.077,7.889,6.669,2.308-1.346,2.927,4.937,8.679,4.627,3.818,1.941.063,6.9-2.446-.184-11.113,9.445,3.394,4-5.866,9.052,3.578,12.643-3.085,4.432,1.207.777-1.087,4.324,4.64,1.435-2.889,4.336,2.345,7.125-6.011,4.014,2.137,10.076-6.556-.657-.752-10.323-4.571-12.5-2.629-.493-8.939,6L442.2,594.668l-6.037-5.221-6.985,3.534-4.924.373-4.286-9.349-7.9-6.727-7.592-1.024-4.507,2.2-3.951-5.714L391.152,557.9l-1.726-17.94-4.64,2.073-14.925-4.248-2.642-3.521,4.444-2.914.467-5.481L368.256,513l1.681-5.234,4.324-3.344,6.713-2.952,1.423-2.238-3.591-6.713,7.346-7.2-4.963-1.125-5.828-4.868-10.854.531-10.418-3.445-10.9,1.618-3.357-4.311-21.815,11.5-.8,7.516,3.034,9.432-2.332,1.2-.9,10.4-3.717,6.827-12.694-1.89-9.2-9.381-5.272.569-7.212-7.668-7.434-2.756-5.595,8.913,4.248,12.163-4.027,6.359.272,5.1-10.961.392-9.482,4.109-4.571,2.718-.752,10.545-3.288,4.083-2.655,10-1.188,2.086-4.052,9.691-4.052,3.508-5.171,1.05-7.244-2.643-11.726-6.284-5.645,3.2-9.053-10.2-4.924-2.409-3.338-24.337-9.318-1.467-7.162-6.706-.107-7.188-3.528-6.669-3.527-27.783.6-.689-14.716-8.212L134.533,464.2l.967-5.114.392-2.681-5.418-5.841-14.608-6.726-5.133,1.284-4.027,6.852-2.491-.62-3.091-9.8,2.712-9.5L86.37,415.367l-1.119-.309-8.307,14.975-2.364,1.195-4.45-9.482-12.725-1.41-10.57-7.371-1.593-4.924-5.12-1.087,3.072-4.122.949-6.953,7.332-7.15,7.472.026-.379-2.567-2.718-7.3-10.165,1.84L39.5,376.2l-7.528-1.125-1.157-2.333-3.42-17.422,1.947-1.681-1.776-5.064,1.245-2.421-1.41-5.31,3.351-18.832,11.176-18.781,6.2,5.4,5.569-3.875,1.214-6.517-2.51-4.615,4.975-9.21,9.173-9.5,9.14-5.247,8.5.114,16.411-1.972,7.074-4.027,5.436.543,4.412,3.306,13.029-4.273,6.732-4.829,7.308,1.194.019,5.272,1.972,1.751,5.133-1.011,3.142-4.235,5.12-.468,6.189,7.63L187.6,253.982l18.548-10.146,1.194-2.383-4.083-6.8,1.429-7.567L199.372,209.6l-7.825.569-3.5-9.494-4.836-2.087,10.9-5.916-2.181-7.359,6.3-8.11-1.726-7.719-14.033-4.614,1.915-5.31,19.129-7.852.467,5.209,9.078,4.7,4.1-9.52.145-2.667-5.48-5.544.986-7.864,2.554-.778,10.67,1.063,4.349-6.581,11.619-5.69Z" transform="translate(-26.844 -45.678)" fill="#ffeb00" stroke="#000"/><path d="M675.6,524.955l-9.792.481-6.087-4.027-2.32.828-9.312,8.875-3.616,3.679-7.32,2.345-.4-5.127,3.369-6.878-.9-12.788,2.371-4.431-17.308,1.618-4.3-2.516-7.567-28.832L596.036,469.6l-2.6-.133-3.963,5.127-7.8-.841-1.2-2.408-5.7,8.793,2.023,7.2-3.186,4.109-11.865,2.282-6.48-2.965,4.052,18.446-3.471,7.1-9.532,7.826-2.756,9.35-4.065,4.532-9.653,2.864-12.023-5.6-4.64,2.023-7.5,10.386-9.381-9.185-5.2-.392-2.447-.183-11.113,9.444,3.395,4-5.867,9.052,3.578,12.643-3.072,4.431,1.195.765-1.088,4.336,4.64,1.435-2.888,4.336,2.345,7.125-6.012,4.014L475.9,609.6l2.826,2.238,5.126,5.493,17.308,3.9,10.361-.114.063-5.323,14.312.632,4.532-1.789,3.951,5.866,1.087-2.124,4.64.323.3,4.368,5.026.923,7.605-2.27,10.31,2.226,4.627-2.333,4.792,2.149,4.873-2.01-.385,2.358L585.5,626.9l8.484,4.324-.392,7.32,19.925-8.035,7.4-7.813,10.632-1.726,9.173-5.866,2.1,5.013,6.075,5.481,5.272.417,4.741-2.731,1.985,3.407,1.739,6.9,6.024,7.952-4.64,2.137,2.295,7.422-1.739,15.247,4.855-1.985,7.244-2.769,18.137-.088.145-4.609,7.124-1.447,2.346.7,1.4,4.444,4.172-.2,2.32.443.84-2.421,12.473.417,5.676-4.9,6.878,7.137,6.631,13.509,6.657,10.677,3.293,17.5,3.85-3.37,14.767,3.306,6.113,4.015,2.421,11.916,6.112,7.408.146-13.3,5.557-5.7-1.454-7.864,4.2-6.5,17.447,5.765,4.609-2.58,2.459-7.567,2.579-.663,11.657,6.1,4.842-2.01,5.1-6.062,5.127-1.1,7.244-2.706.677-5.158,3.9-3.565.17-.171-2.528-.417L858.33,667.6l-4.716-9.691-1.2-13.609L848.066,631.6,856.5,602.8l-9.912-15.419-5.026-1.593,4.16-14.9-4.223-9.381-.936-10.14,8.718-3.875L839.956,528.8l-.986-10.715,2.914-7-4.912-9.419-6.22-5.088-2.2-10.286,4.817-2.035,13.149,3.534,2.68-14.533,23.042-3.793,9.855-1.22,4.716-9.261,4.987,1.4,6.764-1.656-3.717-6.967,5.026-6.448,15.93-2.383,8.717-5.8v-1.5l.632-10.677,10.8-1.049,7.851,2.111,11.2-7.383-5.493-.133-4.678-.8.935-17.175L948,385.2l-5.2-11.492-2.307-9.887,5.594-7.63-1.8-6.878-.272-2.484,6.011-4.235L946.8,333.32l7.2-2.743.866-2.5-3.629-6.9,2.162-4.843-1.517-4.791-10.557-7.086-2.541-4.356-4.937,1.22-7.6,10.79.739,7.966-6.953,7.629,2.256,4.868-4.507,1.4-5.183,5.386-7.346,2-4.109-15.373-9.077-9.382-4.172,3.288-2.036,7.642-5.025-1.207-3.035,7.27,3.237,6.9-.455,5.183-5.74,7.46-14.015,6.928-2.693.209-2.282-4.9-5.373-8.293-9.394,3.577-3.186-9.21-4.868-1.9-5.828,5.1-9.729-4.027-8.913,4.937-3.034-7.257-9.867,2.756-4.628-2.643,2.447-10.127-4.3-2.667.74-2.579-2.68.518-2.63,4.829-8.048,1.448-12.023,6.422-2.238,4.988,2.023,4.583-2.048,1.567-10.677-7.212-2.408.739-1.4,4.937-7.8-1.087-5.3-9.2-7.618,1.48-7.617-10.387-9.805,7.852-1.941,7.345-4.6,1.195,4.482,12.592-2.605,15.419-4.69,1.972-7.915-1.41-4.886,2.3-12.087-5.664.133,2.244-7.4,4.52-3.395,6.865.816,5.076,3.47,3.742,2.124-1.372,12.485,15.557,7.011,4.558,6.776,3.755-.272,13.408,3.913,7.124,9.559,14.147,2.471.544,2.567.392-3.028,7.257,1.618,2.086-5.752,8.287-7.1,3.123-1.1,7.788-7.295,1.4-.076,13.1,4.924-1.15,4.147,2.756,4.349,14.3-2.01,1.776-10.93,6.221-5.171.133-6.789,4.083Z" transform="translate(-26.844 -45.678)" fill="#ffeb00" stroke="#000"/><text transform="translate(720.252 447.438)" font-size="134.165" font-family="DejaVuSansCondensed-Bold, DejaVu Sans" font-weight="700">3</text><text transform="translate(489.256 286.254)" font-size="134.165" font-family="DejaVuSansCondensed-Bold, DejaVu Sans" font-weight="700">1</text><text transform="translate(171.549 365.449)" font-size="134.165" font-family="DejaVuSansCondensed-Bold, DejaVu Sans" font-weight="700">2</text></svg>