<svg xmlns="http://www.w3.org/2000/svg" width="1937.224" height="2429.879" viewBox="0 0 1937.224 2429.879"><title>1T Législatives 2017 Yvelines</title><path d="M1637.254,1377.05l-36.515-40.623-9.406-7.327-60.474,51.168-35.426-22.969-5.8-22.3,33.179-65.352-69.125-52.141,88.471,9.154,49.676-6.505,8.651,14.318,41.261,18.056,25.216-112.245,21.577-25.249,6.488,9.54,21.98-1.274,29.927-16.464,3.3,25,42.182,26.389,12.541-.285,10.814-35.878,19.934-15.156,7.394,26.674-1.76,9.64,26.1,22.851-7.359,6.4,13.462,23.421-8.835,17.067-4.392,6.656-35.927-.067-35.107-14.318-8.518,20.152,11.367,5.717-3.336,9.338-10.931,3.772-22.232-2.683-15.157-6.2-19.717,48.017,8.383,3.32-9.891,91.221-32.843,13.362-23.941-3.705Z" transform="translate(-95.109 -135.922)" fill="#ffeb00" stroke="#000" stroke-width="3"/><path d="M1372.51,1724.749l-39.65,30.178-39.2-28.367-12.507-22.935,25.736-59.182,6.672-8.165,13.329-27.579-8.8-20.689,5.466-32.844-10.779-6.673-0.135-25.282-84.415-17.067,7.9-48.536,24.36,6.488,39.517-30.63,38.31,30.111,34.806-3.973,4.056,35.442,19.749,16.48,42.534-30.262-2.3-61.747,9.791-8.031,48.436-54.153,35.426,22.969,60.474-51.168,9.406,7.327,36.515,40.623,25.148,10.5,23.908,3.705,32.878-13.362L1729,1286.7l-8.35-3.32,19.682-48.016,15.157,6.2,22.265,2.683,10.9-3.772,3.336-9.338-11.367-5.717,8.518-20.152,35.107,14.318,35.927,0.067,4.392-6.656,8.835-17.067-13.462-23.421,7.394-6.4,38.31-4.627,22.817,53.4-7.427,9.791,48.821-4.426L1986,1238.516l2.2,24.477,35.14,9.707,6.019,10.814-0.2,20.638,1.576,12.608-10.646,6.84-37.69,2.448-17.185-16.313-25.013-1.576-7.527,9.489,12.022,33.4-7.343,35.627-35.359-12.608-33.431,18.945-25.836-.57L1812,1415.174l-0.168,13.01-9.69,22.5-42.734-15.894-32.459,12.742-10.446,7.41,24.88,44.076-6.907,24.7,6.555,12.507-32.575,52.073,1.643,24.377-21.125-15.056-17.973,47.262-30.547-13.06-8.031,7.645-26.908.419-24.36.017-8.115,22.868-12.189,1.761-9.926,5.834-11.753,56.03-4.527,22.918-34.219-7.276-3.991,22.5-46.173-16.833-12.959,6.136-14.77-19.532Z" transform="translate(-95.109 -135.922)" fill="#ffeb00" stroke="#000" stroke-width="3"/><path d="M1764.538,1032.436l-22-6.455-0.688,33.514-19.784-6.254-24.7-12.926-28.92-26.171-25.283-5.667,24.5-63.089-8.315-8.483-35.559-18.492-10.714-5L1583.571,932.8l-23.84-11.1-42.014-18.643-54.22-33.2-40.89-33.531-25.484,25.936-44.277-8.467-9.523,52.795,19.414,44.395,29.675,22.315L1390.835,986l-19.062,32.793,22.952,41.142-4.576,23.12,3.2-.168-7.93,49.274,48.553,83.207,19.649,2.146,5.08-48.368,9.791-7.41,60.474,7.846,24.8-53.918,32.055-2.113,12.306-15.122,16.6,5.08,28,24.058,24.16,12.725,21.544-25.249,6.488,9.54,22-1.274,29.927-16.464,3.268,25,42.182,26.389,12.541-.285,10.83-35.878,19.934-15.156-6.488-31.67,10.311-36.767,24.36-3.99-23.4-40.623,8.282-22.265-8.35-24.343-45.686-.419-18.861-12.842L1794,979.238l-22.985,43.708Z" transform="translate(-95.109 -135.922)" fill="#ffeb00" stroke="#000" stroke-width="3"/><path d="M1826.873,900.106l-23.253-7.377-15.357,32.793-27.7-53.3-19.649,12.591-7.863-7.41-14.87,14.586-9.036,20.32-32.811,5.4-17,19.213,8.315,8.483-24.5,63.089,25.316,5.667,28.887,26.171,24.7,12.926,19.817,6.254L1742.56,1026l21.98,6.455,6.623-9.456,22.952-43.708-18.241-45.25,18.861,12.842,45.686,0.419,19.649-36.716,27.379-57.321,12.222-12.272,65.234-36.247-3.471-38.812,13.462-17.989-14.117-43.473-39.785-4.862-37.1,37.588-17.521,23.79,1.275,46.306-46.557,13.228-22-26.959-19.2,15.005,24.88,6.572,24.428,46.306Z" transform="translate(-95.109 -135.922)" fill="#ffeb00" stroke="#000" stroke-width="3"/><path d="M1784.539,674.476l-12.574,3.839-1.341,38.292-29.507,42.685-15.425,50.229,22.5,4.007,17.453,11.82-17.805,14.619,12.709,32.24,27.7,53.3,15.39-32.793,23.22,7.377,2.3-38.695-24.428-46.306-24.88-6.572,19.2-15.005,22,26.959,46.557-13.228-1.308-46.306,17.553-23.79,37.1-37.588,39.785,4.862,17.789-20.4-0.587-34.285L1896.818,636.3l12.306-24.444,0.135-14.133-13.026-1.324-63.071-5.264-32.223,35.526Z" transform="translate(-95.109 -135.922)" fill="#ffeb00" stroke="#000" stroke-width="3"/><path d="M1584.729,661.516l-26.943,45.233-35.14,17.5L1488.4,706.465l21.057,40.22L1488.88,759.36l-26.036-29.088-39.03-2.113-9.59-62.468-21.712,3.169-0.653-5.415,24.36-46.809L1458,584.345l15.777,49.341,2.583,47.832,11.786-2.28,49.341-64.681,19.281,0.4-1.744-9.489,25.416-1.425,8.147,9.942,13.294-36.867,50.028-59.786,38.142-12.172,93.35-3.873,62.486,11.149,33.983,17.47,21.477,31.083,7.763,36.767-12.994-1.324-63.106-5.264-32.223,35.526L1784.4,674.476l-12.574,3.839-1.341,38.292-29.507,42.685-15.425,50.229,22.5,4.007,17.453,11.82-17.805,14.619,12.709,32.24L1740.8,884.8l-7.863-7.41-14.905,14.586-9.036,20.32-32.776,5.4-17.034,19.213-35.559-18.492-10.714-5L1583.438,932.8l-23.84-11.1-42.014-18.643-54.252-33.2-6.707-10.7,14.05-20.94,32.291-19.465,19.381-32.642,12.054,3.755,31.855-16.061,12.642-22.784,23.873-9.791,21.342-58.914,17.185-19.616-52.425-40.74Z" transform="translate(-95.109 -135.922)" fill="#ffeb00" stroke="#000" stroke-width="3"/><path d="M1645.3,453.457l-18.04-24.561-44.394,24.025-49.744,4.342-7.007,10.579L1486.5,428.778l-6.807-6.958-32.256-41.344-25.7,6.555-35.627-14.837-24.948,5.281-5.264-10.327-23.153-2.75L1313.4,377.576l-62.77-75.009,3.956-15.978-13.782-8.282-62.115,58.243-3.856,49.458-33.079,5.6-17,14.9-6.086.57-19.381-10.6-0.168,24.226,33.33,77.339,27.211-9.322,13.026-5.348,138.968-48.352,23.22,0.7L1316.6,532l25.635,4.208,10.278,37.186,5.331,49.542,34.018,40.438,24.36-46.809L1458,584.278l15.777,49.341,2.583,47.832,11.786-2.28,49.373-64.681,19.246,0.4-1.711-9.489,25.384-1.425,8.147,9.942,13.329-36.867,50.028-59.786,38.107-12.172,93.383-3.873-14.57-22.1,12.959-52.04-13.747-37.135-33.111,35.627-57-21.208Z" transform="translate(-95.109 -135.922)" fill="#f90" stroke="#000" stroke-width="3"/><path d="M850.652,277.587l-38.51-1.744-8.87-6.555-21.309,20.588-73.836-44.261-25.9,22.583-99.8,50.3-61.11,32.374-3.152,2.8-7.243,60.724-33.732,6.622L437.063,398.13l-23.572,43.423-68.085,52.225,48.989,28.786,49.877-14.116,35.275,17.235,73.382-17.771L586.694,525.1l16.278,8.819,7.628-6.153,23.437,46.792,5.331-2.4-0.135,1.71L661.6,604.6l60.507,14.888,7.628-22.231,41.678,8.316,10.779-5.818,15.877-20.018,6.152-36.314,47.816,39.8,27.7,2.079,57.071-4.661,15.693-6.421,36.146-4.828,26.691-16.849,26.591-22.583,66.039-23.371,24.393-8.5-33.363-77.339,0.168-24.226,19.414,10.6,7.9-23.539-7.8-36.264L1098.925,333.8l35.039-91.187-59.567-27.68-1.961-17.235-42.266-27.747-20.369.989-46.725,15.81,7.108,22.633-12.674,30.48-12.189,1.274-46.273.318-28.032-20.823-19.934,31.083Z" transform="translate(-95.109 -135.922)" fill="#ffeb00" stroke="#000" stroke-width="3"/><path d="M1015.356,552.557l-26.691,16.849-36.146,4.828-15.693,6.421-57.071,4.661-27.663-2.079-47.849-39.8-6.119,36.314-15.91,20.018-10.779,5.818-41.678-8.316L722.128,619.5l-60.507-14.888-22.365-30.731,0.168-1.71-5.364,2.4-23.437-46.792-7.628,6.153-16.278-8.819L552.95,507.928,479.568,525.7l-35.275-17.235-49.877,14.116-48.989-28.786,68.085-52.225,23.572-43.423,40.154,22.885,33.7-6.622,7.243-60.724,3.168-2.8,61.076-32.374,99.8-50.3,25.9-22.583,8.8-33.078-23.873-24.31L651.484,161.5l-60.054-9.121-65.554,28-14.5,10.395-13.647-25.433-11.618-22.265-24.125,3.873-54.823,22.5-28.552,24.41L343.335,186.2l-62.383,15.257L269.1,157.563l-15.658-16.413,6.355,24.36-23.605,70.968-41.562,27.831-24.98-7.444-37.2-36.364L97.3,257.6l9.891,8.131-7.73,24.377,19.968,32.642,3.839,37.773,34.939,29L171.206,404l-7.562,19.314,15.742,15.609-23.353,54.588-23.02,8.5,22.752,53.063,18.309-16.732,38.711-.4,34.771-16.7L261.4,541.157l12.155,0.52L216.12,589.341l14.57,48.352,24.528-2.4-23.472,47.262h0.688l24.125,28.7-8.518,23.4L262.475,755.2l22.365-11.618,37.923,12.054,5.667,12.122,2.816,10.294,6.639,18.71L323.45,812.255l62.535,60.557L342.563,941.4,373.8,972.248l1.76-11.317,31.051,12.557,26.976,24.226-14.117,49.492,23.188,4.359,20.5,15.324-0.988,12.96L430.7,1101.962l21.544,47.044-0.653,11.25-26.757,20.487-5.986,89.008,26.221,43.791-11.551,22.784,4.879,16.011,50.4,10.193,48.921,43.456-5.6,33.38-6.052,15.592-12.926,2.632-62.05,84.3-5.147,8.064,17.185,5.3-30.68,18.827-0.755,30.966,72.141,28.552,22.432,7.075,21.309-9.221-7.276-21.862,36.179-9.271,20.889-45.1,48.989,12.926,41.529-26.489L713.2,1541l34.554,2.062,9,8.551,3.471-11.954-8.031-85.5-90.182-26.976,49.373-55.008,48.956-.117-9.1-23.472-29.96-25.114,1.173-12.708,15.257-20.387,37.923-3.018,14.637-20.89-9.758-42.1,10.411-3.588-59.6-5.013,3.539-8.668,1.609-37.1,20.369-14.284-7.359-62.519,21.225-61.9-6.152-23.857,27.379-16.648,4.259-44.781,5.567-10.361,20.99,9.489,3.371-10.629,21.712-4.443,5.432-9.724-9.623-5.549,54.789-62.485,31.4,17.553,14.838,20.554,51.672,0.5,32.944,35.342,22.1-8.433,15.558,28.015,46.86-2.582L1156.82,924.1l20.924,9.406,20.47-15.072-4.576-37.5,24.393,4.225,9.59-7.9,21.712-44.227-20.957-14.77-23.873-45.4-25.533-.151,43.522-46.424,41.058,18.777,26.792-43.808,62.283-45.4-5.215-24.746,10.446-8.047-5.3-49.542-10.278-37.186-25.668-4.208,18.309-96.267-23.22-.7L1172.732,483.5l-13.061,5.348-27.176,9.322-24.36,8.5-66.073,23.371Z" transform="translate(-95.109 -135.922)" fill="#f90" stroke="#000" stroke-width="3"/><path d="M1148.139,1217.309l-72.929-5.449,15.222-45.485-46.86,5.432-44.177-13.932-16.113,17.553-2.916-11.468-11.786.352-19.029,13.865-24.5-25.7,8.583-7.477,1.341-44.931-17.789-7.477-11.434,2.012-30.512-34.889-52.292,12.122-17.654-31.2-34.671-9.372-21.192,61.9,7.343,62.519-20.369,14.284-1.576,37.1-3.539,8.668,59.6,5.013-10.411,3.588,9.758,42.1-14.637,20.89-37.923,3.018-15.257,20.387-1.207,12.708,29.96,25.114,9.138,23.472-48.956.117-49.408,55.008,90.215,26.976,8.031,85.5-3.471,11.954-9.036-8.551-34.554-2.062-25.316.654-41.494,26.489-48.989-12.926-20.889,45.1-36.179,9.271,7.243,21.862-21.309,9.221-22.4-7.075L491.2,1668.618l-8.684,60.171,12.054,13.06,37.622,34.889,50.681-3.655-5.835,24.042,26.624,25.366-4.979,21.963,18.174,15.693,1.275,24.511,22.13,29.44,39.1-19.314,21.544,6.052-18.794,8.014,14.6,13.379,5.8-10.763,58.712,4.728,7.394,22.382-40.019,83.14,20.537,13.966-2.515,12.172,73.214,18.811,23.253-10.059,32.944,14.989,8.618,35.426L917.526,2143l22.5-4.191-27.144,100.861,1.341,52.157,31.435,55.879-7.143,24.192,24.041,27.227-6.488,20.286,17.185,16.8,3.672,23.12,20.721,7.36,59.668-4.158,11.334,34.42,20.069,42.434,34.386,8.282,20.369,14.8,25.115-.62,11.586,2.448,50.565-.973,14.082-21.041,24.076-7.662,5.6-36.1-13.915-21.309,0.72-38.829,15.945-20.337,24.428-8.584,2.884-53.683,46.173-103.711,27.244-16.363,9.406,6.052,23.74-6.2-2.884-25-34.738-1.593-69.293-51.135,9.523-49.207,61.262,4.845,42.114,23.036,8.215-9.355,85.755-2.867,10.779-77.021,34.251-40.17-6.639-34.956,4.844-24.947,49.124-11.652,6.807-34.822-37.035-34.2-2.48-1.962-14.318-18.693-2.683-35.912-35.927-2.431-21.342-43.1-46.205-16.833-12.926,6.136-14.77-19.532-50.061-9.54-39.617,30.178-39.2-28.367-12.541-22.935,25.736-59.182,6.707-8.165,13.329-27.579-8.835-20.689,5.5-32.844-10.779-6.673-0.135-25.282-84.415-17.067,7.863-48.536,24.393,6.488,39.517-30.63,11.618-24.779,7.595-31.452,29.139-10.16,0.268-21.762-11.586-2.716-26.908-52.862,11.719-43.674-65.3-41.729-40.706-26.322-11.921,3.588,0.788,11.434-22.13.754,2.028,4.208-24.948-2.766-7.963,24.092Z" transform="translate(-95.109 -135.922)" fill="#ffeb00" stroke="#000" stroke-width="3"/><path d="M1598.476,1098.24l-12.775,15.491-31.888,1.827-24.628,53.784-61.076-7.293-9.1,7.293-5.466,48.3,88.4,9.1,50.1-6.371,8.215,13.664,41.025,18.224,25.484-112.111-23.673-12.759-28.267-23.706Zm-144.919,119.4-19.162-1.827H1432.6l-39.2-.905-32.811,40.1-38.275-9.121-11.854,43.758,26.423,52.862,11.854,2.733v21.879l-29.172,10.026-8.182,31.9-10.931,24.612,38.275,30.077,34.6-4.543,3.672,35.543,20.034,16.413,42.837-30.077-2.716-61.982,10.059-7.293,48.3-54.689-5.466-21.879,32.811-65.637Z" transform="translate(-95.109 -135.922)" fill="#ffeb00" stroke="#000" stroke-width="3"/><path d="M917.245,1092.573l-11.434,2.012L875.3,1059.7l-52.292,12.122-17.654-31.2-34.671-9.372-6.119-23.857,27.379-16.648,4.259-44.781,5.567-10.361,20.99,9.489,3.371-10.629,21.712-4.443,5.4-9.724-9.59-5.549,54.789-62.485,31.4,17.553,14.838,20.554,51.672,0.5,32.944,35.342,22.1-8.433,15.558,28.015,46.825-2.582,43.054-19.163,20.924,9.406,20.47-15.072-4.576-37.5,24.393,4.225,9.59-7.9,21.712-44.227-20.957-14.77-23.908-45.4-25.5-.151,43.522-46.424,41.058,18.777,26.792-43.808,62.25-45.4-5.18-24.746,10.446-8.047,34.051,40.438,0.653,5.415,21.712-3.169,9.59,62.468,39.03,2.113,26.036,29.088,20.572-12.675-21.057-40.22,34.251,17.788,35.14-17.5,26.943-45.233,4.326-39.533,52.425,40.74-17.185,19.616-21.342,58.914-23.873,9.791-12.642,22.784-31.855,16.061-12.054-3.755L1503.2,818.776l-32.291,19.465-14.05,20.94,6.707,10.7L1422.7,836.346l-25.5,25.936-44.245-8.467-9.523,52.795,19.414,44.395,29.64,22.315-1.543,12.692-19.062,32.793,22.952,41.142-4.576,23.12,3.2-.168-7.93,49.274,48.553,83.207-1.375.151-39.4-.8-32.643,39.868-38.762-8.551-65.267-41.729-40.706-26.322-11.954,3.588,0.788,11.434-22.13.754,2.063,4.208-24.98-2.766-7.93,24.092-3.6-1.978-72.964-5.449,15.257-45.485-46.86,5.432-44.177-13.932-16.113,17.553-2.916-11.468-11.819.352-19,13.865-24.528-25.7,8.618-7.477,1.341-44.931Z" transform="translate(-95.109 -135.922)" fill="#ffeb00" stroke="#000" stroke-width="3"/><text transform="translate(705.593 307.332)" font-size="72" font-family="DejaVu Sans" font-weight="700">8</text><text transform="translate(509.593 675.332)" font-size="72" font-family="DejaVu Sans" font-weight="700">9</text><text transform="translate(1444.133 404.332)" font-size="72" font-family="DejaVu Sans" font-weight="700">7</text><text transform="translate(1582.841 550.902)" font-size="72" font-family="DejaVu Sans" font-weight="700">6</text><text transform="translate(1747.67 539.2)" font-size="72" font-family="DejaVu Sans" font-weight="700">5</text><text transform="translate(1739.26 732.748)" font-size="72" font-family="DejaVu Sans" font-weight="700">4</text><text transform="translate(1534.369 962.318)" font-size="72" font-family="DejaVu Sans" font-weight="700">3</text><text transform="translate(1469.593 1391.332)" font-size="72" font-family="DejaVu Sans" font-weight="700">2</text><text transform="translate(1600.593 1072.262)" font-size="72" font-family="DejaVu Sans" font-weight="700">1</text><text transform="translate(1243.593 1294.998)" font-size="72" font-family="DejaVu Sans" font-weight="700">11</text><text transform="translate(848.023 1563.998)" font-size="72" font-family="DejaVu Sans" font-weight="700">10</text><text transform="translate(1166.097 803.668)" font-size="72" font-family="DejaVu Sans" font-weight="700">12</text><rect x="853.154" y="1633.487" width="196.23" height="196.23" fill="blue" stroke="#000" stroke-width="3"/><rect x="842.626" y="490.317" width="196.23" height="196.23" fill="#06c" stroke="#000" stroke-width="3"/><rect x="782.626" y="154.872" width="196.23" height="196.23" fill="#06c" stroke="#000" stroke-width="3"/><rect x="1264.321" y="1399.926" width="173.479" height="173.479" fill="#06c" stroke="#000" stroke-width="3"/><rect x="1282.413" y="1113.124" width="94.275" height="94.275" fill="#06c" stroke="#000" stroke-width="3"/><rect x="1526.978" y="1126.65" width="83.062" height="83.062" fill="#06c" stroke="#000" stroke-width="3"/><rect x="1323.988" y="803.668" width="155.968" height="155.968" fill="#06c" stroke="#000" stroke-width="3"/><rect x="1490.731" y="628.048" width="129.287" height="129.287" fill="#06c" stroke="#000" stroke-width="3"/><rect x="1689.696" y="576.385" width="77.967" height="77.967" fill="#06c" stroke="#000" stroke-width="3"/><rect x="1591.6" y="785.935" width="77.967" height="77.967" fill="#06c" stroke="#000" stroke-width="3"/><rect x="1272.833" y="314.436" width="125.792" height="125.792" fill="aqua" stroke="#000" stroke-width="3"/><rect x="1009.826" y="830.516" width="196.23" height="196.23" fill="#06c" stroke="#000" stroke-width="3"/></svg>