<svg xmlns="http://www.w3.org/2000/svg" width="2887.729" height="3743.264" viewBox="0 0 2887.729 3743.264"><title>1T Législatives 2017 Seine-et-Marne</title><path d="M988.5,2261.111l31.335-17.369,6.052-24.125-24.528-45.233,6.975-50.3-9.2.134-35.862,33.531-34.386-13.9-4.091-24.394-54.068-13.211-25.081-.905,0.268,49.877-21.745,30.53,16.966,15.223,9.891,33.581-5.7,74.439-58.88,26.892,40.438,27.127,9.858,22.835L824.1,2404.892l-31.787,27.328-52.46,37.638-24.763,6.3L683.1,2458.424l-21.024-32.592-45.753-23.874-29.575-6.119-35.207-12.809L538.733,2361.8l4.091-24.377,34.6-36.18,5.9-23.019-39.718-18.609L514.1,2278.984l-4.326,24.159-46.205,71.605,25.115,1.09-29.34,95.027,22.917,5.449,5.532,23.036,11.719,0.352-4.326,52.811-4.259,26.07-19.582,15.709,8.618,86.342-15.626,7.863-4.224,6.673,15.19,14.67,0.855,19.666,1.543,68.085,30.447,8.148,73.734,98.1,5.8,21.359,63.29,40.774,49.476-123.914,8.618-60.607-1.308-12.205,53.28-29.608,27.412-40.12,36.8-47.765-36.683-82.369,9-22.684,17.218,9.154,44.73,18.073,14.7-31.536,20.789,44.244,3.168-7.9-3.807-8.048,47.965-33.615,23.773-2.532,17.621-30.278,51.7-1.744,7.628-23.975-29.372-39.8-23.4-9.439,3.336-25.1,19.313-11.752-2.916-21.862,21.092-10.143-11.987-77.557Z" transform="translate(-196.523 -208.197)" fill="#f90" stroke="#000" stroke-width="3"/><path d="M345.883,3466.918l-18.073-15.089-10.83,4.761-23.388-9.506-22.265-30.228-3.991-10.529,1.609-121.248-44.865-80L206.073,3186.3l-7.495-37.722,22.13,10.629,46.373-15.408,34.286,9.741-8.651-48.369,26.792-36.163-28.032-17.956,27.7-23.522,23.873,4.342-2-24.427,80.876-32.642-21.376-29.641,30.263-24.058,50.648,7.159,37.99-34.084,62.635,9.774,5.8,21.359,63.29,40.774,49.476-123.914,8.618-60.607-1.308-12.205,53.28-29.608,27.412-40.12,36.8-47.765L788.772,2569.5l9-22.684,17.218,9.154,44.73,18.073,14.7-31.536,20.756,44.244,3.2-7.9,19.348,17.805,38.31,8.517,115.883-20.722,9.959,3.672-3.168,10.126,34.906,6.639,15.658,19.683,8.031,54.052,35.627,17.352,9.138,22.533,21.509,11.249,45.9-2.515,10.83,86.275-35.174-3.236-6.422,8.7-5.5,23.539-33.111,14.871-84.9,9.406-12.155,15.039,58.327-.872,9.1,8.4,4.879,58.713,5.935,38.393,38.795,32.022,14.87,32.122-20.572,55.695-181.989-20.94,26.321,109.294,24.561-2.5,12.994-32.19,45.117-17.486,20.6,27.747,1.828,34.571,22.852,37.521-2.063,23.019-10.863,3.856,63.29,20.789,5.634,23.153,47.094-5.147,36.447,30.832,41.126,13.765,39.617-46.692,45.065,28.3L1511.8,3166.2l-16.9-19.079,42.266-59.383,15.49-16.48,0.033,71.823,21.477,9.355,0.988,12.121,58.294,69.242-7.495-36.549,48.788-9.422,42.937-23.589,11.066,35.141-1.676,49.291,16.833,6.354,29.2,24.88-18.409,15.86,24.041,40.841-12.339,36.431,46.993,14.167,9.555,82.469-36.867,3.571-49.273,99.151-16.933,47.145-22,11.467-20.2-9.942-42.9,20.856-1.744,34.3-38.543,6.22-51.252,50.917,3.856,57.371-89.914,14.7-72.041,11-10.311,1.643-40.305,50.3-73.617,47.681-45.8-6.656-7.276-22.03,2.364-60.255,24.8-26.791,1.24-12.088-29.675-14.72-21.61,10.126-22.952-7.662-19.162,14.922-24.26-2.951-21.778,10.227-45.317-18.291,44.277,53.515,2.331,23.237-81.144,30.63-39.466,46.759-77.053-1.291L880.8,3949.446l-7.007.47L811.61,3881.53l-87.667,26.506-65.554.134L640.283,3874.6l-81.932,1.09-39.13,44.965,1.173,11.9-110.719-14.435-46.105,12.96-7.7,8.249-32.643-7.8,3.891-22.214,41.746-25.031,27.277-38.426-0.62-22.483,28.232-36.867,57.236,30.027,21.292-31.217-15.022-59.769,16.278-44.965,12.155-3.387,6.707-17.989-13.882-58.109-8.147-.017,3.084-46.675-19.884-7.645-2.851-35.543-54.588-1.66-16.313-19.213-2.028-24.913-19.062-16.564Z" transform="translate(-196.523 -208.197)" fill="#ffeb00" stroke="#000" stroke-width="3"/><path d="M956.063,2605.155l-38.31-8.517L898.4,2578.833,894.6,2570.8l47.965-33.632,23.773-2.532,17.621-30.278,51.7-1.744,7.628-23.975-29.372-39.8-23.4-9.439,3.336-25.1,19.348-11.752-2.951-21.862,21.092-10.143-11.954-77.557-30.915-21.9,31.335-17.369,6.052-24.125-24.528-45.233,6.975-50.3-9.2.134,12.574-67.146,45.8-27.8,13.814-29.641-9.422-20.873,13.061-10.948,44.865,21.762,42.937-45.367,11.334-6.1,24.125,8.718,21.913,16.648,24.813,3.957,5.215,11.467-28.267,24.947,77.925-37.437,25.048,6.354,5.047-18.978,23.153,4.761,27.211-20.705,32.643,5.717,30.06-59.434,11.467-2.783,37.923,82.872,18.693-8.383,19.313,6.153-7.763,47.866-14.285,19.582,18.894,31.033,45.182-21.9,23.54,9.338,13.681,21.561,61.295-1.04,11.534,0.905-10.966,20.135,17.938,42.333,44.965-24.109,60.054,23.555-1.072,55.108-2.431,32.542-12.875,1.006-27.379,41.78-86.443,17.855-21.292,14.7-9.306,23.79-18.726,100.945-38.963,32.693-35.694,14.234-15.626,49.408,3.923,12.339,25.283,4.325-5.9,44.4,34.487-7.712,58.159,19.733,48.133,84.565,6.119,35.593,44.144-23.136,20.822,73.047,53.767,30.647,43.741-6.824,15.693,13.479,0.988,25.785,37.522,80.541-18.106,16.967-1.961,80.692,44.394,10.964,58.679-9.758,13.949,25.332-19.246,15.726-27.964,55.578-9.455-7.813-2.028-22.918-24.628,1.241-20.437-12.758-34.487,11.6-42.769-8.618-29.64,70.231,7.595,45.753-61.7,80.592-16.833-6.354,1.676-49.291-11.066-35.141-42.953,23.589-48.753,9.422,7.495,36.549-58.294-69.258-0.988-12.1-21.477-9.355-0.033-71.823-15.525,16.464-42.249,59.383,16.9,19.1-79.771,168.007-45.082-28.3-39.583,46.692-41.126-13.765-36.447-30.832-47.094,5.147-5.634-23.153-63.29-20.789,10.863-3.856,2.063-23.019L1143.6,3204.67l-1.795-34.571-20.6-27.747-45.117,17.486-12.994,32.19-24.561,2.5-26.321-109.294,181.989,20.94,20.572-55.695-14.87-32.122-38.795-32.039-5.935-38.376-4.879-58.729-9.1-8.4-58.327.889,12.155-15.039,84.9-9.406,33.111-14.888,5.466-23.522,6.455-8.7,35.174,3.236-10.83-86.275-45.9,2.532-21.509-11.249-9.138-22.533-35.627-17.352-8.047-54.069-15.626-19.666-34.906-6.639L1081.7,2588l-9.959-3.672Z" transform="translate(-196.523 -208.197)" fill="aqua" stroke="#000" stroke-width="3"/><path d="M2576.9,2989.017l-13.329,20.052-24.225.235-15.877,3.957-33.263-14.033-12.022-.52-2.884,11.6-68.2-31.636-3.856,12.054-23.4-.62-52.46,49.341-60.808-19.2-29.724,9.892-24.88,12.658-26.489-19.347-21.913,4.694-9.826-24.008-22.7-11.635-10.931,21.158-55.9,17.587-12.374-19.783-43.121,14.821-13.949-25.332-58.679,9.758-44.394-10.964,1.961-80.692,18.106-16.967-37.522-80.541-0.988-25.785-15.693-13.479-43.741,6.824-53.733-30.647-20.857-73.047-44.11,23.136-6.152-35.593-48.133-84.565-58.159-19.733-34.487,7.712,5.9-44.4-25.283-4.325-3.923-12.339,15.626-49.408,35.694-14.234,38.963-32.693,18.726-100.945,9.306-23.79,21.292-14.7,86.443-17.855,27.379-41.78,12.875-1.006,2.431-32.542,1.072-55.108-60.054-23.555-44.965,24.109-17.938-42.333,10.966-20.135-11.534-.905-61.295,1.04-13.681-21.561-23.54-9.338-45.182,21.9-18.894-31.033,14.285-19.582,7.763-47.866-19.313-6.153-18.693,8.383-37.923-82.872-7.075-24.813-103.176-5.817-44.177,26.372-26.591-26.657-26.1-2.129,13.814-63.809,40.338-31.72,25.449-60.926,3.336-17.57-30.647-17.788-47.128-3.521-14.183-49.089-39.583-32.609,15.222-36.1,27.379-24.829-24.528-29.491-17.066-48.385-47.9-57.019-12.507-35.509,31.855-36.163,43.741-5.633,1.676,1.559,23.472-9.69,49.408,5.583,21.577-11.937,21.024,12.323,16.733,4.242,26.624,41.025,20.756,12.926,34.118-51.621L1439.13,1267l37.487-4.862,26.556,13.63-2.128,39.55,33.23,13.01,4.576,11.233-5.734,58.646,11.954-3.286,2.231,84.616,8.182,7.511,38.762-14.033,24.948,2.766,16.933,33.883,24.813-3.621L1687.26,1543l51.973,51.52,16.43,6.555,37.958-5.834,32.459,20.6,7.495,37.839,22.465,13.094,2.783,12.675,44.8,9.271,12.054-1.61,0.168-12.172L1972.592,1662l28.584-108.925,24.6,3.923,13.161,20.991,38.342-28.719-29.992-40.371-3.019-50.3,64.01-3.873,6.522-115.866-4.024.972,10.9-42.953-8.383-20.554-8.483-10.411-46.038,12.44-45.182-12.926-1.24-25.92-35.275-66.777,2.3-23.321,34.638-1.744-9.338-7.477,1.795-23.757,46.038-32.609-16.8-18.442,20.136-62.066,34.219-19.18,14.285-36.951,69.845-73.9,71.018,37.655-19.348,45.921-0.336,20.454,23.22,6.1,50.4,15.106,31.736,18.66,43.809-13.731,29.759,18.392,29.071,9.087,19.2-18.207,28.552-59.97,42.434,50.011,78.093-43.758,14.218-34.889,19.162,75.545-12.022,50.883,26.388,29.222,3.436,52.426,11.131,7.108,47.145-15.592L2694,1159.369l23.873,10.227,36.046-14.552,13.563,22.214,58.779,20.253-17.066,49.24,41.159,17.922,20.437-45.485,37.17-5.13,15.089,63.172-15.005,36.3,4.879,38.829-15.593,11.283L2882.3,1336.6l-11.534-5.046-63.794,33.548-36.279-4.56-32.811-18.123L2711.95,1371l3.4,12.407,33.732,17.034,48.854,3.521,4.392,50.229-1.107,12.339-33.766,14.838-21.376-11.987-24.6,1.425-31.888,83.978,4.912,24.042,24.5,8.014,47.849-16.112,20.621,14.972,0.52,37.5,14.67,20.3,61.127-3.1-1.609,37.052,1.023,22.281-0.336,65.268,26.691,28.367-12.926,1.878-4.224,38.141-35.359,16.581-34.454,38.845,8.651,21.058-8.97,9.54,40.27,49.089-19.162,62.4,63.626-10.8,38.142-35.375,63.894,11.685,38.023-10.009-35.895,36.85,6.187,11.384,49.308,13.228,35.862,36.918,0.2,12.49-116.974,42.92-7.394,10.193,24.041,44.244-57.171,8.081-17,31.351-40.371,27.747-8.684,9.623,41.746,77.44-1.543,31.284-22.465,5.264-54.488,42.584-35.242.436-55.175-18.408-21.945,20.387,48.168,58.578,24.98,58.075-0.653,24.7-35.039-1.861-41.562,17.805-48.721,29.759,32.776,36.951-1.24,25,22.064,30.53L2707,2761.092l-18.442,17.654-9.455,36.13,46.926,14.553-17.117,21.9,39.063,0.034,0.452,24.058-15.055,70-36.114-3.2-37.3-28.887-24.225.671-22.533,26.892-5.935,60.339-18.794,12.926,0.52-24.628Z" transform="translate(-196.523 -208.197)" fill="#06c" stroke="#000" stroke-width="3"/><path d="M1976.945,1172.746l2.331-23.321,34.638-1.744-9.371-7.477,1.795-23.757,46.038-32.609L2035.61,1065.4l20.136-62.066,34.219-19.18L2104.25,947.2l69.845-73.9,70.985,37.655-19.313,45.921-0.352,20.454,23.22,6.1,50.4,15.106,31.771,18.66,43.809-13.731,29.724,18.392,29.071,9.087,19.213-18.207,28.519-59.97-2.1-53.582-18.526-50.414-52.007,32.492-35.426,10.227-10.714-6.086-12.339-21.627,6.739-15.626-19.1-49.525-14.082-46-45.385-9.506-5.08-44.076-10.779,4.124-3.839-11.8-34.638-12.591-4.191-21.527-21.409-23.84-67.985-25.349L2109.062,579.9l-11.686,22.952-36.734,4.376-12.674-5.9L2018.8,606.61l8.147,23.572-6.739,37.3,13.094,20.169-43.625,14.67-8.935-9.456-35.559,16.061-14.469,20.806-77.021,5.013-1.86,12.909-62.57,22.483L1770.4,752.7l-47.212-14.787L1705.4,755.739l2.448,36.448-6.588,16.9,34.554,49.944-19.934,44.395-18.761,16.447-24.6-26.54-36.247-6.2-3.739-11.753-3.891,2.18L1598.852,896.6l0.553,11.9-29.96,6.069-14.67,16.162-37.454-13.027-19.784,12.138-3.772,38.343-20.924,11.25-1.576,11.7L1448.18,994.3l-74.556-18.274-39.75,32.022-8.248-3.5-26,24.545-19.784-15.978-11.467,5.617-42.986-41.662,2.984,11.082-15.81,15.776,15.122,70.2,11.618,3.739-21.225,41.545-8.45,53.851-34.352,9.271-35.174,22.265,5.567,12.49,5.215,23.84-8.383,22.918,28.652,39.583,43.774-5.633,1.643,1.559,23.472-9.69,49.441,5.583,21.544-11.937,21.057,12.323,16.7,4.242,26.657,41.025,20.721,12.926,34.118-51.621,8.618-35.543,37.487-4.862,26.556,13.63-2.163,39.55,33.263,13.01,4.543,11.233-5.734,58.646,11.954-3.286,2.231,84.615,8.215,7.511,38.746-14.033,24.98,2.766,16.933,33.883,24.813-3.621,26.321,36.951,51.973,51.52,16.43,6.555,37.958-5.834,32.459,20.6,7.495,37.839,22.432,13.094,2.783,12.675,44.83,9.271,12.054-1.61,0.168-12.172,56.751-12.943,28.552-108.925,24.6,3.923,13.194,20.991,38.31-28.719-29.96-40.371-3.019-50.3,63.978-3.873,6.555-115.866-4.056.972,10.9-42.953-8.35-20.554-8.518-10.411-46,12.44-45.182-12.926-1.24-25.92Z" transform="translate(-196.523 -208.197)" fill="#06c" stroke="#000" stroke-width="3"/><path d="M1138.084,599.467l-22.332,3.839-18.509,12.021-0.821,46.977-2.749,28.317-15.089.184-55.376-24.042,6.707-10.478-16.346-32.324-20.689,2.8-73.65-16.128-7.007-10.193,6.874-35.861-33.079-34.336,12.875-2.716,15.357-35.157,58.915-28.4-4.359-53.432,52.744-59.5,26.423,75.679,63.978-9.623,60.607-47.061-42.014-29.591,49.273,1.459-10.478-21.829,19.213-5.7,43.422-28,40.741,46.876,23.673,8.148,24.109-7.125,27.6,56.2,39.331-4.828,45.033-27.361,12.054,5.566,16.246-31.435,56.164,26.758L1541,352.78l9.991,7.544,11.586-3.2,8.082-34.956,22.365,8.047,30.948-17.788,10.143,6.354,7.9,53.5,33.531,9.322,10.21-44.781,29-17.151,21.98-7.8,43.942,15.089,9.59-6.807,78.5,12.859-23.153-39.952-1.04-23.287,38.578-59.216,18.442,18.274,87.264,21.108,16.9-6.589,5.9,7.326,36.967,1.861,28.988,22.768,37.035,3-23.388,53.6,7.143,19.28,22.784,13.278,34.286,55.745-2.1,22.784,24.293,23.371-0.135,12.306-23.673,9.053-10.779,49.089-32.776,19.3-1.207,23.79-11.686,22.952-36.7,4.376-12.674-5.9-29.2,5.281,8.182,23.572-6.774,37.3,13.094,20.169-43.625,14.67-8.9-9.456-35.559,16.061-14.5,20.806-77.021,5.013-1.828,12.909-62.6,22.483L1770.433,752.7l-47.212-14.787-17.789,17.822,2.448,36.448-6.588,16.9,34.554,49.944-19.934,44.395-18.761,16.447-24.6-26.54-36.214-6.2-3.772-11.753-3.891,2.18L1598.92,896.6l0.553,11.9-29.992,6.069-14.67,16.162-37.454-13.027-19.749,12.138L1493.8,968.19l-20.924,11.25-1.576,11.7-23.085,3.152-74.556-18.274-39.75,32.022-8.248-3.5-26,24.545-19.784-15.978-11.434,5.617-43.021-41.662-2.616-9.69-8.115-57.573-29.34,13.58-9.658,1.962-8.415-36.348,20.572-33.212,1.609-78.027,26.524,11.551-16.346-96.251,25.836-12.742-52.844-43.02L1142.6,620.374l2.816-11.417Z" transform="translate(-196.523 -208.197)" fill="#ffeb00" stroke="#000" stroke-width="3"/><path d="M1021.381,1022.091l-34.638-4.074L968.77,998.854l-37.522-6.2,12.642,40.421,4.879,47.429,22,25.148,59.232-9.54,17.721,1.945-12.541,1.358-0.385,49.944-5.231,35.191L984.7,1165.688l1.023,39.483-31.2.017L917.35,1224.3l-49.441-3.588,7.562-45.653-8.383-46.709-2.851,2.347-18.626-12.122-3.739-21.175,14.05-54.387-31.57-24.41-44.865,35.979-35.174-38.125L694.4,1003.75l-8.215-8.567,8.147-56.768,25.449-16.346-0.487-22.5-16.045-12.44-9.991-40.522-63.39-97.827-1.207-12.993,24.8-7.192L663.7,704.72l-10.21-50.5-10.714-4.694-14.25-41.075-31.57,9.758-5.935-10.562-30.715-7.058-8.082-35.275,24.109,4.543L621.514,551l15.777-45.384,25.5-26.121,36.8-2.4-54.656-45.87L689.8,354.054l39.617-33.648,9.49-24.209,22.365,1.794,34.519-52.66,18.341,32.81,25.5-2.029,67.817,54.957,34.386,34.688-2.548,22.5-2.783,11.585,32.358,10.7,4.359,53.432-58.915,28.4-15.357,35.157-12.875,2.716,33.079,34.336-6.874,35.861,7.007,10.193,73.65,16.128,20.689-2.8,16.346,32.324-6.707,10.478,55.376,24.042,15.089-.184,2.749-28.317,0.821-46.977,18.509-12.021,22.332-3.839,7.276,9.573-2.816,11.417,30.06,16.916,52.812,43.02-25.8,12.742,16.313,96.251L1189.5,777.834l-1.643,78.027-20.572,33.212,8.415,36.348-22.2,28.87-66.61-9.741-20.689,2.465-22.7,3.336-13.614,71.941Z" transform="translate(-196.523 -208.197)" fill="#ffeb00" stroke="#000" stroke-width="3"/><path d="M875.1,1589.2l-36.079,9.59-14.737-20.622,9.2-18.006-19.313-12.909,0.42-20.37,20.5-22.449-57.036-46.709,0.923-12.524,19.616-14.133-17.185-32.207-1.711-.838,2.749-62.284,25.416-42.987,50.632-5.516-51.637-48.821-20.756-44.294,24.36-7.058,53.767-56.332,2.884-2.347,8.383,46.709-7.562,45.653,49.441,3.588,37.135-19.113,31.2-.017-0.988-39.483,44.83,18.861,5.264-35.191,0.385-49.944,12.507-1.358-17.721-1.945-59.2,9.54-22-25.148-4.912-47.429-12.607-40.421,37.522,6.2,17.938,19.163,34.671,4.074,8.483,0.218,13.6-71.941,22.7-3.336,20.689-2.465,66.61,9.741,22.2-28.87,9.69-1.962,29.34-13.58,8.115,57.573,2.616,9.69,2.984,11.082-15.81,15.776,15.122,70.2,11.586,3.739-21.192,41.545-8.45,53.851-34.352,9.271-35.207,22.265,5.567,12.49,5.231,23.84-8.383,22.918,28.652,39.583-31.82,36.163,12.474,35.509-33.951,6.606-19.162-26.657-11.2-.62-7.83,36.381-35.14,9.523-13.915,19.113,17.1,61.06L1036,1485.606l-40.538,16.38-9.926,7.93,10.646,49.19L971,1603.2l-44.73,2.314-31.051,15.575Z" transform="translate(-196.523 -208.197)" fill="#ffeb00" stroke="#000" stroke-width="3"/><path d="M664.662,1825.125l-21.61-9.54,14.905-26.255-8.248-7.461L636,1758.482l-1.676-6.572,30.412-52.66,35.391-33.145-17.15-46.122,29.239-25.081-4.979-36.951,42.8-2.079-20.756-45.837-38.142,3.688-9.69-8.618,28.988-70.549-18.04-15.072,12.273-32.777-10.446-5.13,8.718-25.718,12.674-3.789,64.111,45.9,1.711,0.838,17.185,32.207L779,1445.152l-0.923,12.524,57.036,46.709-20.5,22.449-0.42,20.37,19.313,12.909-9.2,18.006,14.737,20.622,36.079-9.59,20.169,31.871,31.016-15.575,44.73-2.314,25.216-44.093-10.679-49.19,9.926-7.93,40.573-16.38,11.753-4.778L1030.7,1419.7l13.915-19.113,35.14-9.523,7.83-36.381,11.2,0.62,19.2,26.657,33.951-6.606,47.9,57.019,17.066,48.385,24.528,29.491-27.379,24.829-15.222,36.1,39.583,32.609,14.183,49.089,47.128,3.521,30.647,17.788-3.336,17.57-25.449,60.926-40.338,31.72-13.814,63.809,26.1,2.129L1300.127,1877l44.177-26.372,103.176,5.817,7.075,24.813-11.467,2.783-30.06,59.434-32.608-5.717-27.244,20.705-23.153-4.761-5.047,18.978-25.048-6.354L1222,2003.762l28.267-24.947-5.215-11.467-24.813-3.957-21.913-16.648-24.125-8.718-11.334,6.1-42.9,45.367-44.9-21.762-13.061,10.948,9.422,20.873-13.814,29.641-45.8,27.8-12.574,67.146-35.862,33.531-34.386-13.9-4.091-24.394-54.068-13.211-23.572-24.8-23.02,3.638-19.029-13.379L786.251,2067l-3.236-50.062-38.142-30.966-12.439,2.113-5.868,11.467-60.675-14.1-19.313,10.931-47.9-5.13-14.285-16.7L549.119,1945.9l33.983-54.89,23.54-3.6,20.47,13.228,23.437-25.886,23.321-3.37Z" transform="translate(-196.523 -208.197)" fill="#ffeb00" stroke="#000" stroke-width="3"/><path d="M633.88,1161.228l6.32-47.9-27.545-25.2,17.553-18.509,48.4-18.526-1.341-25,14.77-20.236,2.364-2.079,49.912,12.708,35.174,38.125,44.865-35.979,31.536,24.41-14.017,54.387,3.739,21.175,18.626,12.122-53.767,56.332-24.393,7.058,20.756,44.294,51.637,48.821-50.6,5.516-25.416,42.987-2.749,62.284-64.111-45.9-12.709,3.789-23.572-75.26-30.848-72.058,21.509-10.629,11.954-33.179Z" transform="translate(-196.523 -208.197)" fill="#ffeb00" stroke="#000" stroke-width="3"/><path d="M543.7,2259.6l-24.328,1.643-8.684-37.588,57.472-51.084,2.616-44.68-40.438-23.4-21.577-55.41,9.69-7.746,47.748-7.276,4.427-38.292,13.681-21.141,14.285,16.7,47.9,5.13L665.8,1985.52l60.675,14.1,5.868-11.467,12.439-2.113,38.142,30.966,3.236,50.062,18.961,4.627,19.029,13.379,23.02-3.638,23.572,24.8-25.081-.905,0.268,49.877-21.745,30.53,16.966,15.223,9.891,33.581-5.7,74.439-58.88,26.892L826.9,2363l9.858,22.835-12.642,19.045L792.333,2432.2l-52.46,37.638-24.763,6.3-31.988-17.738L662.1,2425.815l-45.769-23.874-29.54-6.119-35.207-12.809-12.842-21.225,4.124-24.377,34.6-36.18,5.9-23.019Z" transform="translate(-196.523 -208.197)" fill="#ffeb00" stroke="#000" stroke-width="3"/><rect x="2059.438" y="1779.687" width="169.785" height="169.785" fill="#ffeb00" stroke="#000" stroke-width="3"/><rect x="1053.438" y="2125.508" width="169.785" height="169.785" fill="silver" stroke="#000" stroke-width="3"/><rect x="573.438" y="2953.12" width="169.785" height="169.785" fill="#06c" stroke="#000" stroke-width="3"/><rect x="645.469" y="2183.528" width="121.098" height="121.098" fill="#06c" stroke="#000" stroke-width="3"/><rect x="443.105" y="1971.528" width="121.098" height="121.098" fill="#ff8080" stroke="#000" stroke-width="3"/><rect x="751.625" y="1517.283" width="121.098" height="121.098" fill="#06c" stroke="#000" stroke-width="3"/><rect x="1525.61" y="1083.324" width="196.23" height="196.23" fill="silver" stroke="#000" stroke-width="3"/><rect x="1484.595" y="264.481" width="196.23" height="196.23" fill="#06c" stroke="#000" stroke-width="3"/><rect x="700.595" y="505.504" width="196.23" height="196.23" fill="silver" stroke="#000" stroke-width="3"/><rect x="656.877" y="1114.258" width="135.68" height="135.68" fill="#06c" stroke="#000" stroke-width="3"/><rect x="493.534" y="1002.137" width="71.448" height="71.448" fill="#d00" stroke="#000" stroke-width="3"/><text transform="translate(1990.054 1913.855)" font-size="72" font-family="DejaVu Sans" font-weight="700">4</text><text transform="translate(1124.447 2410.124)" font-size="72" font-family="DejaVu Sans" font-weight="700">3</text><text transform="translate(644.951 3217.106)" font-size="72" font-family="DejaVu Sans" font-weight="700">2</text><text transform="translate(444.936 2383.508)" font-size="72" font-family="DejaVu Sans" font-weight="700">1</text><text transform="translate(437.221 1904.619)" font-size="72" font-family="DejaVu Sans" font-weight="700">11</text><text transform="translate(599.056 1593.614)" font-size="72" font-family="DejaVu Sans" font-weight="700">9</text><text transform="translate(1516.027 975.519)" font-size="72" font-family="DejaVu Sans" font-weight="700">5</text><text transform="translate(1337.151 418.114)" font-size="72" font-family="DejaVu Sans" font-weight="700">6</text><text transform="translate(599.056 555.074)" font-size="72" font-family="DejaVu Sans" font-weight="700">7</text><text transform="translate(485.407 940.998)" font-size="72" font-family="DejaVu Sans" font-weight="700">10</text><text transform="translate(795.62 1108.732)" font-size="72" font-family="DejaVu Sans" font-weight="700">8</text></svg>