<svg xmlns="http://www.w3.org/2000/svg" width="1763.68" height="1960.368" viewBox="0 0 1763.68 1960.368"><title>1T Législatives 2017 Essonne</title><path d="M1594.151,830.559l-11.984-16.446-11.391-3.4-72.534,5.488-7.773.5-45.65,15.439-28.107-57.635-22.637-13.873-25.442,6.928,32.047-24.166-18.84-47.648-12.057-4.642L1356.7,712.735l-38.129,2.231-8.474,9.771-25.065-6.316-7.486-66.757,34.3-10.382,8.782-23.536,21.161-14,41.89,23.644,37.391-48.205,23.158-31.579,11.569,6.406,30.3-24.742,38.615,43.707,48.115,48.818,1.8,1.26,39.3,39.713,12.164,32.029-21.269,99.74L1601.83,804Z" transform="translate(-110.37 -16.002)" fill="#ffc0c0" stroke="#000" stroke-width="3"/><path d="M517.544,1265.215l-95.443-1.8-0.179,11.7-23.861-.482-12.609,18.315,1.5,12.073,22.951,5.617,23.539,26.91-46.366,33.616-9.1,10.272,8.078,78.911-39.874,54.837-25.5-5.9-48.756,13.874-27.766,74.435,27.159,4.9,27.231,61.043-30.923,27.5-13.2,67.017,30.923,46.33-17.8,19.313,2.514,36.326L224.38,1882.2l7.062,23.183,45.456,57.957,39.393,6.474,40.053,5.029,52-13.125,37.575,9.773,21.7-16,3.281-20.882,91.841,3.852,42.835-48.862,26.2-1.658-8.222,40.838,134.442-5.9,0.838-16.6-21.185-22.916,2.229-24.289,37.717,7.276,4.778-9.291,28.069,4.958,3.476-40,64.057-83.584L898,1771.265l45.17,27.392,38.215-.8-21.773,53.892,26.821,3.763-8.078,67.5,25.572-11.984,37.61-54.034,59.6,23.308,22.4-8.186,32.259-74.845,12.537-5.742,31.974-5.029,5.331,25.43,64.538,63.432,9.968,6.4,21.418-9.737,5.921,10.29,76.45-26.107,9.826-21.667-19.152-19.973-7.972-40.124,23.5,11.306,49.326-16.389,36.5,10.361-9.237-51.449,28.532-38.466-29.852-19.082,29.46-25.02,25.393,4.6-2.085-25.983,86.026-34.721-22.772-31.511,32.224-25.59,53.874,7.633,40.375-36.272,66.661,10.4-78.429-104.341-32.386-8.667-1.641-72.42-0.91-20.936-16.157-15.586,4.493-7.1,16.621-8.364-9.2-91.84,20.865-16.727,4.53-27.712,4.6-56.192-12.5-.374-5.884-24.5-24.342-5.813L1675.437,952.6l-26.715-1.141,49.113-76.165,4.637-25.7,31.386-20.579-25.911,1.73L1631.568,854,1601.5,829.27l-0.409-26.357-7.669,26.268-11.84-16.3-11.289-3.352-71.92,5.421-7.669.517-45.242,15.283-27.89-57.119-22.4-13.749-25.252,6.866,31.8-23.95-18.671-47.222-11.949-4.6-13,21.435-37.789,2.211-8.4,9.683-24.84-6.26-1.535,12.465-57.672,19.259-3.37,12.091-5.118,62.487,29.336,69.388-12.857,18.243,37.823,63.789-41.141-3.21-8.044,63.61-37.717,11.895-44.992,74.667-48.721.606-30.4-19.6-12.75,3.424-1.319,51.894-18.314,35.113,15.319,11.056,6.169,19.224-17.94,16.834,23.539,28.23-20.437,15.194-15.23,34.863-34.31,3.014L963.525,1345.3l-79.036-111.4-42.978-33.384-6.278,25.055-77.147-2.746-34.1-23.682-26.09,8.56-22.7,34.436-24.342,8.9-7.419-11.431,12.286-37.967-4.1-40.552-48.059-23.611,10.932-51.644L577.652,1069.5l-50.4,13.179L494.3,1154.045l1.783,38.484,23.754,33.687Z" transform="translate(-110.37 -16.002)" fill="#06c" stroke="#000" stroke-width="3"/><path d="M951.424,767.9l-56.085,25.715-38.3,9.683-82-1.926-38.413,13.714-15.639-26.464-3.067-13.25-46.152-23.593-26.643,4.226L621.3,764.623l-18.386-17.262-25.733,2.6-15.319-1.926-24.377-20.365-36.147,11.235-24.771-46.7-52.215,12.412-5.19,26.518,7.062,37.182-36.432,42.728-11.466,81.925-91.216,3.049-8.738,9.951-44.8-24.5-65.163-5.154-10.129,52.34,73.705,54.391,36.985,1.694,3.067,26.589-25.287,6.6-10-6.42-28.979,17.387-49.113,110.315-3.067,57.1-25.983,9.13-16.96,21.632-0.766,41.3,14.8,22.684,22.363,15.425,9.274,43.905,23.095,6.669-14.731,22.077,4.53,52.786-34.578,37.4,10.129,4.476,1.82,30.459,47.935-9.416,35.916,7.954,39.643,20.473,48.756-13.874,25.5,5.9,39.874-54.819-8.078-78.929,9.06-10.272,46.4-33.615-23.539-26.91-22.951-5.617-1.535-12.073,12.643-18.3,23.861,0.464,0.179-11.7,95.443,1.8,2.264-39.019L496.2,1192.617l-1.783-38.484,32.956-71.368,50.4-13.179,36.844,16.335-10.967,51.644,48.059,23.611,4.1,40.552L643.542,1239.7l7.419,11.431,24.342-8.9,22.666-34.436,26.09-8.56,34.131,23.682,77.11,2.764,6.313-25.073,42.978,33.384,79.036,111.4,23.861-22.719,34.275-3.014,15.23-34.863,20.437-15.194-23.5-28.23,17.94-16.834-6.169-19.224-15.319-11.056,18.314-35.113,1.284-51.894,12.75-3.424,30.442,19.6,48.721-.606,44.957-74.667,37.717-11.895,8.078-63.61,41.106,3.21-37.789-63.789,12.857-18.243-29.353-69.388,5.118-62.487,3.37-12.091,57.672-19.259,1.57-12.465-7.419-66.143-24.895-8.4-51.27-.179-4.1,2.871-95.5-26.518-2.373,25.715-24.449,7.865-17.208-16.888-34.062-.25-14.178,34.578-56.316,3.3,17.208,35.292-17.977,20.6Z" transform="translate(-110.37 -16.002)" fill="#ffeb00" stroke="#000" stroke-width="3"/><path d="M720.985,788.591l-3.067-13.268-46.152-23.575-26.643,4.226L621.3,764.588l-18.386-17.262-25.7,2.6L561.859,748l-24.377-20.365L501.37,738.873l-24.806-46.7,7.24-37.039-39.393-36.38-2.638-2.087-15.195-19.884-2.889-38.2L385.474,556l-22.7-45.849,4.245-23.932,36.4,7.739,4.815-24.378,12.5-59.616,10.558-6.188,12.966-1.873,8.631-24.325,25.911-.018,28.622-.446L515.963,369l32.492,13.874L567.573,332.6l22.47,16.014L628.01,358.6l-22.47,32.331,0.8,26.375,24.734,2.978,21.6-16.264,0.91-13.339,51.751-9.737,22.844,7.579,8.292,22.505,20.865,11.306,7.419,2.015,12.857-3.834,58.8,30.994,11.039-2.479,35.488-33.116-11.039-31.9-0.072-23.558,13.2-42.032L950.5,321.4l27.588-25.466,37.86,2.871,19.705-47.1,71.476,24.574-0.357,28.051,23.717,9.38,18.743,47.1,11.146,6.6,5.3-10.646,31.726,17.78-4.637,4.119,23.38,34.935,7.491,41.5,10.094-.838-13.447,68.961-33.028-24.86L1172.491,462l-24.52,34.293-27.731,27.641-2.817,22.791-13.588,72.884-2.336,25.715-24.486,7.865L1059.839,636.3l-34.062-.25L1011.6,670.626l-56.353,3.3,17.245,35.292-17.977,20.6-3.139,38.109-56.1,25.7-38.3,9.683-82-1.926L736.6,815.092Z" transform="translate(-110.37 -16.002)" fill="#ffeb00" stroke="#000" stroke-width="3"/><path d="M831.745,108.224L794.17,94.8,758.61,114.965l-27.481-.606-32.671,24.164-0.213,13.838-10.273,23.932L642.48,159.388l-34.525,13.553-11.111,7.9,26.5,46.865-7.382,26.268,6.973,13.3-34.65,55.389,1.783,25.929L628,358.583l-22.47,32.331,0.838,26.375,24.734,2.978L652.659,404l0.945-13.339,51.751-9.737,22.844,7.579,8.292,22.505,20.865,11.306,7.382,2.015,12.857-3.834,58.83,30.994,11.039-2.479L882.917,415.9l-11-31.9-0.072-23.558,13.2-42.032-44.617-41.533,1.82-26.839,26.34-9.4,24.895-30.994,2.085-36.166L870.1,177.185l59.009-52.447,30.62,57.868,96.227-20.615,24.163-29.424-19.884-34.311L1042.15,82.33,991.4,80.03l-45.349-19.1L935.456,26.994l-6.028-6.527,1.711,13.411L919.78,41.153l-40.09,2.6L861.412,26.405l-26.606-1.676L826.8,34.823l12.787,35.542Z" transform="translate(-110.37 -16.002)" fill="#ffeb00" stroke="#000" stroke-width="3"/><path d="M1035.65,251.709l-19.705,47.1-37.86-2.871L950.5,321.4l-65.483-2.978-44.583-41.533,1.783-26.839,26.375-9.4,24.877-30.994,2.085-36.166L870.086,177.2l59.046-52.447,30.62,57.868,96.227-20.615,10.236,24.716,13.3,1.641,49.185-21.1,4.565,39.625,25.43-4.1,19.117-72.919,8.257-7.49,18.19,10.094,25.572,28.372,35.631,9.38-21.845,28.836,9.13,36.593-13.161,21.4,26.018,5.243-6.134,52.572-62.006,59.634-31.689-17.78-5.3,10.646-11.18-6.6-18.706-47.1-23.717-9.38,0.32-28.051Z" transform="translate(-110.37 -16.002)" fill="#ffeb00" stroke="#000" stroke-width="3"/><path d="M1309.583,244.112l-0.731-30.744-1.57-72.741-41.907,29.585-21.882,28.836,9.167,36.593-13.161,21.4,26.018,5.243-6.134,52.572-62.006,59.634-4.637,4.119,23.38,34.935,7.491,41.5,10.094-.838,35.631-12.893,24.307,56.174-12.465,23.522,6.687,11.538,8.631,6.973,32.386-60.508,48.2-48.577L1349.568,390.7l10.593-33.455,28.106-39.607,10.665-36.415,25.43-27.695-8.542-32.9-64.432,23.79Z" transform="translate(-110.37 -16.002)" fill="#ffeb00" stroke="#000" stroke-width="3"/><path d="M1632.539,401.9l-66.624,39.589-10.236-8.328-24.486-38.448-23.343,13.179-49.185-63.165-25.644,2.336-44.689-29.389L1399,281.258l25.43-27.695,55.034-25.091,13.2-5.35,7.134,18.974,21.934,23.2-3.442-25.929,34.025-22.381,26.963-2.408,6.33-.125,24.163-5.921,67.248-22.327,29.782,89.415,21.7,24.413-7.1,5.8-44.369,43.174-3.8,26.286,11.4,6.723-38.7,35.88Z" transform="translate(-110.37 -16.002)" fill="#ffeb00" stroke="#000" stroke-width="3"/><path d="M1343.412,604.34l20.794-52.75,41.23-96.691-28.284-24.431-27.516-39.732,10.593-33.455,28.106-39.607,44.689,29.389,25.644-2.336,49.185,63.165,23.38-13.179,24.486,38.448,10.2,8.328,66.624-39.589,13.41,16,38.7-35.88-11.4-6.723,3.8-26.286,44.369-43.174,11.074,19.759,34.9,5.332,12.323,37.663,59.812-11.984,22.951,10.147,9.789,49.237-24.84,3.584-24.93,27.552-21.738-14.07-25.073,3.834-36.112,58.385,37.486,30.477-14.515,22.487-4.743,40.731-50.789,7.739-10.308,8.257,22.951,58.92,43.013,24.895-2.782,47.507-61.131,54.355,9.237,39.982-76.378,23.254-30.067-24.734-0.409-26.375,2.961-9.38,21.044-98.849L1613.089,662.8l-38.912-39.358-1.82-1.248-47.685-48.381-38.252-43.316-30.067,24.52-11.431-6.348-22.986,31.3-37.057,47.775Z" transform="translate(-110.37 -16.002)" fill="#ffeb00" stroke="#000" stroke-width="3"/><path d="M1203.529,643.233l-4.1,2.871-95.5-26.518L1117.52,546.7l2.817-22.791,27.731-27.641,24.52-34.293,14.766,36.362,33.028,24.86,13.41-68.961,35.631-12.893,24.307,56.174-12.43,23.522,6.653,11.538,8.666,6.973L1329,479.044l48.2-48.577,28.247,24.431-41.213,96.691-20.828,52.75-20.972,13.874-8.7,23.326-33.99,10.29-24.895-8.4Z" transform="translate(-110.37 -16.002)" fill="#ffeb00" stroke="#000" stroke-width="3"/><rect x="1159.955" y="1192.575" width="180.597" height="180.597" fill="#f90" stroke="#000" stroke-width="3"/><rect x="791.508" y="846.682" width="180.597" height="180.597" fill="#d00" stroke="#000" stroke-width="3"/><rect x="795.231" y="403.916" width="180.597" height="180.597" fill="#06c" stroke="#000" stroke-width="3"/><rect x="1313.917" y="410.119" width="98.01" height="98.01" fill="#06c" stroke="#000" stroke-width="3"/><rect x="1391.953" y="648.454" width="98.01" height="98.01" fill="#d00" stroke="#000" stroke-width="3"/><rect x="603.839" y="256.017" width="98.01" height="98.01" fill="#06c" stroke="#000" stroke-width="3"/><rect x="806.307" y="183.573" width="87.924" height="87.924" fill="aqua" stroke="#000" stroke-width="3"/><rect x="1146.11" y="322.195" width="87.924" height="87.924" fill="#06c" stroke="#000" stroke-width="3"/><rect x="1452.916" y="253.884" width="87.924" height="87.924" fill="#8040c0" stroke="#000" stroke-width="3"/><text transform="translate(1046.677 259.909)" font-size="76.585" font-family="DejaVu Sans" font-weight="700">6</text><text transform="translate(1187.083 308.807)" font-size="76.585" font-family="DejaVu Sans" font-weight="700">7</text><text transform="translate(1357.803 313.093)" font-size="76.585" font-family="DejaVu Sans" font-weight="700">8</text><text transform="translate(1451.585 517.4)" font-size="76.585" font-family="DejaVu Sans" font-weight="700">9</text><text transform="translate(1333.87 702.043)" font-size="76.585" font-family="DejaVu Sans" font-weight="700">1</text><text transform="translate(969.747 1477.82)" font-size="76.585" font-family="DejaVu Sans" font-weight="700">2</text><text transform="translate(662.336 991.41)" font-size="76.585" font-family="DejaVu Sans" font-weight="700">3</text><text transform="translate(680.773 593.127)" font-size="76.585" font-family="DejaVu Sans" font-weight="700">4</text><text transform="translate(547.104 244.662)" font-size="76.585" font-family="DejaVu Sans" font-weight="700">5</text><text transform="translate(1021.732 588.053)" font-size="76.585" font-family="DejaVu Sans" font-weight="700">10</text><rect x="1123.361" y="531.179" width="78.556" height="78.556" fill="#d00" stroke="#000" stroke-width="3"/></svg>