<svg xmlns="http://www.w3.org/2000/svg" width="1079.974" height="1909.576" viewBox="0 0 1079.974 1909.576"><title>1T Législatives 2017 Hauts-de-Seine</title><path d="M851.41,221.36l-34.087,16.351-14.137.391-70.4,81.98-35.758,37.263,0.737,47.893-48.465,19.2L599.99,298.7l59.516-61.188,94.537-77.779L867.279,79.111,999.786,37l117.24,26.032,131.618,55.256,6.052,85.955L1212.058,280.2l-36.436,35.291-24.646-16.667-106.867,50.708-65.4-60.585-25.354-85.292-55.225-18.88-9.14,40.787Z" transform="translate(-176.251 -35.448)" fill="#ffeb00" stroke="#000" stroke-width="3"/><path d="M855.235,394.79l5.33,27.357,56.64-2.153L961.816,456.7l17.675-11.683,149.385-89.447,34.343-16.516,12.466-23.577-24.646-16.667-106.867,50.708-65.4-60.585L953.384,203.64l-55.225-18.88-9.109,40.787-37.669-4.171-34.087,16.365-14.122.377L697.012,357.362l0.737,47.908,111.9-45.68L899.71,245.029l34.253,75.2Z" transform="translate(-176.251 -35.448)" fill="#ffeb00" stroke="#000" stroke-width="3"/><path d="M755.2,494.084l-46.282,27.266-33.078-7.663-12.226-42.894-14.258-46.357,160.346-64.891,90.065-114.561,34.221,75.2-78.742,74.6,5.33,27.357,56.64-2.153L961.832,456.7l-74.783,33.5-78.125,76.756Z" transform="translate(-176.251 -35.448)" fill="#ffeb00" stroke="#000" stroke-width="3"/><path d="M310.813,512.512l27.96-28.019,148.994-82.838L599.979,298.732l49.309,125.732,14.258,46.357,12.226,42.894L618.137,624.949l59.7,45.2-13.641,72.8-34.313,83.184L504.615,815.619,488.234,794.57l60.1-47.08-19.965-48.977Z" transform="translate(-176.251 -35.448)" fill="#ffeb00" stroke="#000" stroke-width="3"/><path d="M961.8,456.729l-74.783,33.484,75.866,109.953,42.608-34.855,11.112-1.476,55.692-37.022,91.255-54.321-34.7-116.91L979.459,445.03Z" transform="translate(-176.251 -35.448)" fill="#ffeb00" stroke="#000" stroke-width="3"/><path d="M713.966,716.159l-49.761,26.725,13.641-72.8-59.667-45.2,57.634-111.233L708.86,521.3l46.313-27.251L808.8,566.939l78.156-76.756,75.866,109.953L942.5,624.346l-5.269,36.6-113.041-13.9-26.664,50.287L743.218,679.2Z" transform="translate(-176.251 -35.448)" fill="#ffeb00" stroke="#000" stroke-width="3"/><path d="M295.381,1012.61l4.08-27.161,70.6-39.838,15.914-52.048L257.077,926.671l-53.584-92.82,19-50.844-19.136-55.632,44.9-83.907,62.483-130.987,217.6,185.971,19.965,48.977-60.1,47.08,16.381,21.048L629.85,826.067l-8.236,50.708-0.994,158.1-32.957,70.3-106.476-24.15-105.572-7.212,36.344-61.142Z" transform="translate(-176.251 -35.448)" fill="#ffeb00" stroke="#000" stroke-width="3"/><path d="M387.793,1361.156l111.565-10.118,36.9,41.781,5.028,55.948,80.248,22.178,13.731,24.692,47.23-36.872,11.669-89.056,92.1-115.675-21.56,1.9-1.853-20.22-28.575,8.476-6.232-6.1,20.853-20.506-31.286-11.864,12.255-14.936-25.023-20.2-25.73,1.46-15.493-30.187-32.957-47.743-10-59.2-32.942,70.3-106.505-24.15-105.572-7.212,36.344-61.142-116.623-.09,4.08-27.161,70.6-39.838,15.914-52.048L257.063,926.672l-55.692,9.094-23.578,84.012,14.755,72.374,16.938,60.962-4.08,22.027,59.667,52.2,87.566-10.584,52.11,122.013Z" transform="translate(-176.251 -35.448)" fill="#ffeb00" stroke="#000" stroke-width="3"/><path d="M620.664,1034.908l10,59.2,50.784-17.811,83.861,47.847,74.874-78.728-43.165-8.717-23.758-64.3,7.8-26.454L771.3,945.6l-14.589-6.806L722.564,926.1,707.418,906.1,621.7,876.836Z" transform="translate(-176.251 -35.448)" fill="#06c" stroke="#000" stroke-width="3"/><path d="M778.224,1196.353l117.27,17.089,31.814,1.264,75.776-32.039,55.315-61.549-67.54-27.733-58.583-38.031L898.7,1097.315l-31.165.587-1.505-30.1,16.532-11.141L868.951,1038.7l-28.757,6.715-74.874,78.728L681.459,1076.3l-50.784,17.8,32.957,47.757,15.493,30.187,25.73-1.46,25.023,20.2-12.255,14.936,31.286,11.864-20.853,20.506,6.232,6.1,28.575-8.476,1.853,20.2,21.56-1.882Z" transform="translate(-176.251 -35.448)" fill="#ffeb00" stroke="#000" stroke-width="3"/><path d="M1006.879,1371.951l63.988-81.016-4.758-49.248-14.258-2.047-114.68,3.749-9.816-28.682,75.776-32.039,55.315-61.549,72.661,24.436,105.015,34.132-4.411,11.277-16.08,27.763-16.909,33.68-39.763-.858-4.683,31.076,25.414,10.69,18.022-11.443-11.141,42.052L1156.8,1440.577l-21.937-10.178L1105.9,1467.09l-36.2-4.246-35.728-80.082Z" transform="translate(-176.251 -35.448)" fill="#ffeb00" stroke="#000" stroke-width="3"/><path d="M937.14,1243.388l-9.816-28.666-31.783-1.264-117.27-17.089L786.3,1254l-92.067,115.69-11.7,89.056-47.2,36.857-0.406,47.2,12.933,14.018,48.811-15.7,13.7,24.692,112.423,0.934,112.543-78.833,13.58-5.842,120.764-19.181-35.7-80.082-27.085-10.84,63.988-81.016-4.727-49.248-14.288-2.063Z" transform="translate(-176.251 -35.448)" fill="#f90" stroke="#000" stroke-width="3"/><path d="M1062.842,1858.152L957.149,1903.47l-28.546-3.523-22.056-53.1,51.988-63.2-42.758-73.714-38.844-34.192-109-4.924-97.367-41.057L647.8,1556.837l48.811-15.7,13.7,24.692,112.423,0.934,112.543-78.833,13.58-5.842,120.764-19.181,36.2,4.246,29-36.692,21.906,10.178,40.38,52.244-33.319,96.253-22.885,33.906-34.4,104.639,61.79,50.151-41.027,156.658-54.638,8.808Z" transform="translate(-176.251 -35.448)" fill="#ffeb00" stroke="#000" stroke-width="3"/><text transform="translate(751.093 149.312)" font-size="164.348" font-family="DejaVu Sans" font-weight="700">1</text><text transform="translate(758.401 401.895)" font-size="89.486" font-family="DejaVu Sans" font-weight="700">2</text><text transform="translate(883.191 447.231)" font-size="116.181" font-family="DejaVu Sans" font-weight="700">5</text><text transform="translate(614.253 466.564)" font-size="101.446" font-family="DejaVu Sans" font-weight="700">3</text><text transform="translate(548.409 612.537)" font-size="123.021" font-family="DejaVu Sans" font-weight="700">6</text><text transform="translate(376.358 740.71)" font-size="164.348" font-family="DejaVu Sans" font-weight="700">4</text><text transform="translate(170.258 813.753)" font-size="164.348" font-family="DejaVu Sans" font-weight="700">7</text><text transform="translate(88.019 1158.21)" font-size="164.348" font-family="DejaVu Sans" font-weight="700">8</text><text transform="translate(450.607 971.362)" font-size="137.532" font-family="DejaVu Sans" font-weight="700">9</text><text transform="translate(595.234 1157.142)" font-size="109.043" font-family="DejaVu Sans" font-weight="700">10</text><text transform="translate(509.224 1470.718)" font-size="164.348" font-family="DejaVu Sans" font-weight="700">12</text><text transform="translate(869.876 1203.605)" font-size="107.031" font-family="DejaVu Sans" font-weight="700">11</text><text transform="translate(758.401 1580.221)" font-size="164.348" font-family="DejaVu Sans" font-weight="700">13</text><rect x="892.095" y="73.873" width="136.222" height="136.222" fill="#d00" stroke="#000" stroke-width="3"/><rect x="258.265" y="844.208" width="136.222" height="136.222" fill="#06c" stroke="#000" stroke-width="3"/><rect x="244.687" y="1085.671" width="213.987" height="213.987" fill="#06c" stroke="#000" stroke-width="3"/><rect x="614.881" y="1199.04" width="136.222" height="136.222" fill="#06c" stroke="#000" stroke-width="3"/><rect x="783.077" y="1594.344" width="136.222" height="136.222" fill="#06c" stroke="#000" stroke-width="3"/><rect x="897.202" y="1267.151" width="89.449" height="89.449" fill="#d00" stroke="#000" stroke-width="3"/><rect x="736.142" y="1068.573" width="73.749" height="73.749" fill="aqua" stroke="#000" stroke-width="3"/><rect x="521.745" y="966.379" width="73.749" height="73.749" fill="#adc1fd" stroke="#000" stroke-width="3"/><rect x="264.138" y="407.653" width="165.119" height="165.119" fill="#06c" stroke="#000" stroke-width="3"/><rect x="663.928" y="508.928" width="73.749" height="73.749" fill="#06c" stroke="#000" stroke-width="3"/><rect x="790.546" y="427.388" width="78.354" height="78.354" fill="#06c" stroke="#000" stroke-width="3"/><rect x="535.898" y="376.382" width="78.354" height="78.354" fill="#06c" stroke="#000" stroke-width="3"/><rect x="767.515" y="279.942" width="43.253" height="43.253" fill="#06c" stroke="#000" stroke-width="3"/></svg>