<svg xmlns="http://www.w3.org/2000/svg" width="1844.887" height="999.116" viewBox="0 0 1844.887 999.116"><title>1T Législatives 2017 Paris</title><path d="M651.166,1393.124L602.9,1274.212l22.541-45.479,27.683-11.847,190.565-52.848,17.962-13.318,58.874,25.189,16.81,4.17,6.473,18.4,64.463,12.09-8.6,100.643,47.348,15.467-24.588,67.957-5.719,15.915L975.06,1501.7l-39.224-40.426-48.947-20.392-90.894-43.2Z" transform="translate(-67.056 -946.935)" fill="#ffeb00" stroke="#000" stroke-width="3"/><path d="M915.049,1665.41l0.269-9.122-38.007-59.168,2.649-77.756-37.152,8.994-47.974,36.511-12.039-35.731-32.827-2.022,0.372-23.642-67.982-5.667-33.685,33.313-86.148-76.63,43.995-48.447,44.648-12.9,144.791,4.593,90.921,43.2,48.92,20.392,39.249,40.426,148.847,89.577,12.32,14.418-33.16,59.769-75.184,32.61-71.756-16.785Z" transform="translate(-67.056 -946.935)" fill="#ffeb00" stroke="#000" stroke-width="3"/><path d="M833.774,1119.276l12.4-66.089,90.421,22.682,9.991-41.027,11.194-36.358-36.857,1.6-18.115-41.078L865.271,961.5l-76.054,8.1-121.3,72.229-25.036,16.746,24.805,29.859,3.2,0.154,45.569,52.2,26.34,19.318,14.686,19.19,2.572,8.226,83.628-23.462Z" transform="translate(-67.056 -946.935)" fill="#ffeb00" stroke="#000" stroke-width="3"/><path d="M302.684,1268.622l50.916,68.635,28.363-.653L374.785,1356l22.464,42.678,20.239,0.1,20.136-13.19,33.005,3.749,26.379-46.144,39.2,17.514,5.053,36.857,38.532,37.381,26.712-28.912,44.648-12.9-48.267-118.911,22.516-45.453,27.71-11.847,106.937-29.411-2.572-8.226-14.686-19.19-26.34-19.318-45.569-52.2-3.2-.154-24.805-29.859-49.023,32.482-14.764,1.919-56.7,46.375-27.006,32.187-6.973,48.7-150.293-18.486Z" transform="translate(-67.056 -946.935)" fill="#ffeb00" stroke="#000" stroke-width="3"/><path d="M1016.714,1410.6l5.719-15.915,24.588-67.957-47.348-15.467,12.613-150.088,67.316-8.021,46.951,1.676,30.613,2.648,10.822,16.2,1.523,58.541,15.262,15.39,34.733,48.92-99.07,51.377,34.336,133.879-34.311-8.8-34.336-20.136-18.167-20.865Z" transform="translate(-67.056 -946.935)" fill="#ffeb00" stroke="#000" stroke-width="3"/><path d="M1260.614,1500.815l16.016,41.053,109.009,27.441-5.847-36.575-29.885-62.136,26.34-4.324,30.652-22.234-11.091-19.266-4.043-26.891-11.373-21.441-29.987-56.174-32.059-38.558-34.336,23.143-19.791-24.562-44.724,16.222-70.515,36.806,35,8.021,49.317,89.73,18.485-9.966,44.071,67.317Z" transform="translate(-67.056 -946.935)" fill="#ffeb00" stroke="#000" stroke-width="3"/><path d="M975.06,1501.749l41.654-91.15,51.249,21.339,18.167,20.865,34.336,20.136,34.311,8.8-34.336-133.879,28.58-14.571,35,8.021,49.317,89.73,18.485-9.991,44.071,67.342-35.334,12.448,16.016,41.053-12.192,61.739-81.556,57.837-58.938-70.131Z" transform="translate(-67.056 -946.935)" fill="#ffeb00" stroke="#000" stroke-width="3"/><path d="M1462.232,1833.243l-44.751-48.268-99.619,40.579-135-164.083,81.581-57.837,12.192-61.713,109.009,27.416-2.38-19.637,57.748-7.343-1.676-25.317,69.312-20.418,7.049,59.59-2.75,29.885-13.266,78.652-24.243,63.811,23.142,6.767,56.788-22.963-7.868-53.091-9.173-20.737,7.816-17.36,11.667-8.341,17.82,28.81,96.268,11.9,6-41.1,19.791,0.154,2.444-19.637,42.92,1.471-0.678,15.147,10.644-2.648,146.174,65.488,11.142,53.194-31.278,40.183-8.648,51.85,2.725,42.153-18.588,53.795-26.507,24.217-65.936-9.39-94.425-7.177-55.164-62.366-69.364-14.763Z" transform="translate(-67.056 -946.935)" fill="#ffeb00" stroke="#000" stroke-width="3"/><path d="M956.126,1681.325l-8.494,72.716,64.566,26.84,47.1-19.714,83.283,159.887,175.278-95.5-181.6-219.81-33.185,59.769-75.184,32.61Z" transform="translate(-67.056 -946.935)" fill="#ffeb00" stroke="#000" stroke-width="3"/><path d="M649.414,1832.04l71.411-89.679,90.2,40.874-23.935,36.55,12.268,3.928,3.876,6.243,32.877,9.543,37.778,9.889,39.249-5.4,26.084-5.3,14.444-20.136-6.051-64.541,64.566,26.84,47.1-19.74,83.283,159.913-20.008,10.989-58.643,4.9-26.29-25.816-31.088,16.861-16.489,5.245-32.187-2.072-78.089-6.268,5.847-15.019L746,1864.47Z" transform="translate(-67.056 -946.935)" fill="#ffeb00" stroke="#000" stroke-width="3"/><path d="M764.731,1584.546l60.473,37.049-104.34,120.754,90.177,40.874-23.935,36.55,12.268,3.928,3.876,6.243,70.655,19.446,39.249-5.4,26.084-5.271,14.444-20.162-6.025-64.541,8.469-72.716-41.079-15.915,0.269-9.122L877.282,1597.1l2.674-77.756-37.152,8.994-47.974,36.511Z" transform="translate(-67.056 -946.935)" fill="#f90" stroke="#000" stroke-width="3"/><path d="M764.731,1584.546l60.473,37.049-104.34,120.754-12.537-4.529-19.586-33.556-16.593-45.748-29.91,12.588L630.226,1629l-26.532,2.226L538.052,1590.3,493.1,1548.726l69.44-94.272,86.148,76.656,33.685-33.326,68.008,5.667-0.4,23.642,32.827,2.047,12.039,35.731Z" transform="translate(-67.056 -946.935)" fill="#ffeb00" stroke="#000" stroke-width="3"/><path d="M395.625,1801.158l-1.971-40,21.94-14.84-18.089-23.885-38.226,8.942,133.8-182.621,44.955,41.552,65.641,40.925,26.532-2.2,12,42.076,29.935-12.563,16.593,45.748,19.586,33.53,12.537,4.529-71.436,89.679-89.807-36.857L481.708,1744.6l-44.623,55.791Z" transform="translate(-67.056 -946.935)" fill="#ffeb00" stroke="#000" stroke-width="3"/><path d="M270.279,1634.272l31.561,85.534,57.416,11.565,203.269-276.906,17.322-19.56-38.559-37.355-5.053-36.882-39.2-17.488L470.67,1389.3l-33.032-3.749L417.5,1398.764l-20.239-.1L374.8,1355.984l7.19-19.394-28.388.653-50.916-68.66-72.217-24.115-39.005,49.1L125.3,1329.119l-45.62,110.6-10.938,67.432,113.986,38.93,20.136,26.558,64.758,25.906,12.973,0.5Z" transform="translate(-67.056 -946.935)" fill="#ffeb00" stroke="#000" stroke-width="3"/><path d="M1349.934,1470.559l26.34-4.324,30.64-22.209-11.066-19.292-4.043-26.891-41.348-77.577-32.059-38.558-34.336,23.143-19.816-24.562,17.962-5.719,11.463-8.968,12.588-1.523,14.865-7.049,27.53,1.279,35.1-1.625,57.94-20.52,31.458-14.712,19.458,61.342,16.016,213.81-69.312,20.418L1441,1542.34l-57.748,7.343-3.467-16.913Z" transform="translate(-67.056 -946.935)" fill="#ff8080" stroke="#000" stroke-width="3"/><path d="M1263.236,1084.7l-43.47-35.731-27.237-2.648-21.39-7.791,9.671-13.612-11.8-14.124-0.18-54.844,108.664-7.5,44.021,13.164,33.032,28.439,11.719,28.439,16.2,77.654,12.717,64.912,78.012,60.4-31.458,14.712-57.965,20.52-35.078,1.625-27.557-1.279-14.865,7.024-12.588,1.548-11.463,8.968-62.66,21.94-34.733-48.946,13.062-9.492,2.277-31.931-8.021-17.565,41.373-36.255,24.243-15.889,19.419-8.52,0.025-15.1Z" transform="translate(-67.056 -946.935)" fill="#ffeb00" stroke="#000" stroke-width="3"/><path d="M1192.093,1188.563l8.047,17.565-2.277,31.931-13.087,9.492-15.262-15.39-1.523-58.515-10.822-16.2-77.552-4.324-66.984,9.3,0.6-21.019L1028,1110.052l-1.126-29.756,11.642-40.784-8.341-82.157,105.286-.946,33.377-.473,0.18,54.844,11.8,14.124-9.671,13.612,21.39,7.791,27.237,2.648,43.47,35.731,13.919,28.081-0.025,15.121-19.394,8.52Z" transform="translate(-67.056 -946.935)" fill="#ffeb00" stroke="#000" stroke-width="3"/><path d="M833.774,1119.276l9.915,44.776,17.962-13.292,58.874,25.164,16.785,4.17,6.473,18.41,64.463,12.09,4.349-48.178,0.6-21.045,14.764-31.356-1.1-29.756L1038.5,1039.5l-8.367-82.183-127.329,1.651,18.115,41.078,36.857-1.573-11.194,36.358-9.991,41-90.421-22.682Z" transform="translate(-67.056 -946.935)" fill="#06c" stroke="#000" stroke-width="3"/><rect x="864.114" y="609.55" width="88.478" height="88.478" fill="#06c" stroke="#000" stroke-width="3"/><rect x="1016.399" y="541.717" width="77.958" height="77.958" fill="#ff8080" stroke="#000" stroke-width="3"/><rect x="1096.934" y="807.133" width="77.958" height="77.958" fill="#d00" stroke="#000" stroke-width="3"/><rect x="1514.655" y="742.019" width="139.6" height="139.6" fill="#06c" stroke="#000" stroke-width="3"/><rect x="1339.844" y="419.472" width="71.962" height="71.962" fill="#d00" stroke="#000" stroke-width="3"/><rect x="1236.805" y="471.86" width="48.664" height="48.664" fill="#d00" stroke="#000" stroke-width="3"/><rect x="1217.979" y="115.463" width="71.962" height="71.962" fill="#d00" stroke="#000" stroke-width="3"/><rect x="1079.821" y="126.325" width="71.962" height="71.962" fill="#d00" stroke="#000" stroke-width="3"/><rect x="686.079" y="140.14" width="71.962" height="71.962" fill="aqua" stroke="#000" stroke-width="3"/><rect x="531.477" y="176.121" width="71.962" height="71.962" fill="#06c" stroke="#000" stroke-width="3"/><rect x="257.237" y="484.191" width="123.844" height="123.844" fill="#06c" stroke="#000" stroke-width="3"/><rect x="585.501" y="593.702" width="96.031" height="96.031" fill="#06c" stroke="#000" stroke-width="3"/><rect x="509.867" y="742.019" width="96.031" height="96.031" fill="#06c" stroke="#000" stroke-width="3"/><text transform="translate(733.271 370.529)" font-size="111.896" font-family="DejaVu Sans" font-weight="700">1</text><text transform="translate(602.408 536.424)" font-size="111.896" font-family="DejaVu Sans" font-weight="700">2</text><text transform="translate(704.458 127.908)" font-size="111.896" font-family="DejaVu Sans" font-weight="700">3</text><text transform="translate(441.979 354.288)" font-size="111.896" font-family="DejaVu Sans" font-weight="700">4</text><text transform="translate(80.415 491.506)" font-size="111.896" font-family="DejaVu Sans" font-weight="700">14</text><text transform="translate(458.897 621.258)" font-size="82.697" font-family="DejaVu Sans" font-weight="700">12</text><text transform="translate(376.434 756.783)" font-size="111.896" font-family="DejaVu Sans" font-weight="700">13</text><text transform="translate(738.18 855.456)" font-size="111.896" font-family="DejaVu Sans" font-weight="700">11</text><text transform="translate(828.938 966.446)" font-size="78.716" font-family="DejaVu Sans" font-weight="700">10</text><text transform="translate(1027.754 839.633)" font-size="111.896" font-family="DejaVu Sans" font-weight="700">9</text><text transform="translate(1100.345 629.762)" font-size="111.896" font-family="DejaVu Sans" font-weight="700">7</text><text transform="translate(1193.309 463.533)" font-size="111.896" font-family="DejaVu Sans" font-weight="700">6</text><text transform="translate(1291.747 410.364)" font-size="102.959" font-family="DejaVu Sans" font-weight="700">15</text><text transform="translate(1172.243 297.604)" font-size="111.896" font-family="DejaVu Sans" font-weight="700">16</text><text transform="translate(990.415 344.72)" font-size="111.896" font-family="DejaVu Sans" font-weight="700">5</text><text transform="translate(811.528 213.684)" font-size="111.896" font-family="DejaVu Sans" font-weight="700">18</text><text transform="translate(966.512 113.22)" font-size="111.896" font-family="DejaVu Sans" font-weight="700">17</text><text transform="translate(1273.946 780.276)" font-size="111.896" font-family="DejaVu Sans" font-weight="700">8</text><rect x="979.965" y="401.985" width="61.549" height="61.549" fill="#ff8080" stroke="#000" stroke-width="3"/><rect x="932.617" y="853.725" width="77.958" height="77.958" fill="#d00" stroke="#000" stroke-width="3"/><rect x="766.719" y="698.028" width="64.365" height="64.365" fill="#06c" stroke="#000" stroke-width="3"/><rect x="894.989" y="38.215" width="61.549" height="61.549" fill="#ff8080" stroke="#000" stroke-width="3"/></svg>