<svg xmlns="http://www.w3.org/2000/svg" width="1256.696" height="651.395" viewBox="0 0 1256.696 651.395"><title>Députés sortants de Bretagne en 2017</title><path d="M586.855,238.234l-2.678-4.571-5.15-1.6-0.168-3.383,0.083-6.693,6.677-6.417,2.869-4.32,5.226-1.137,4.988-7.77-1.649-3.666-3.971-3.526-0.623,1.042-0.969-.727,0.775-2.265-0.8-3.911,3.631-1.839,0.823-2.58-3.072-4.292-1.97-3.507,0.01-2.678,1.82-2.7,1.188,0.26,2.634,0.226,5.686,3.51,2.684-.194,4.721-2.5,3.212,4.3,8.993-3.142,1.468-1.887,0.114-2.58,3.892-.762,1.083,0.893,0.629,4.155,1.239,0.661,2.745,0.524,3.587-1.944,4.565,3.005,2.745-.2,2.538,6.071,15.245,6.481-2.014,3.571,1.4,3.939-0.762,1.172,3.151,0.3-2.344,2.367,2.125,2.551,5.925,9.9,2.271,1.769,1.115,0.273-2.56-2.837,2.7-4.775-1.89-9.781,3.3-1,3.256,4.346,4.514,0.626,2.948-.959,2.44,3.075,2.09,6.16,1.572,5.439-1,2.659-3.491,4.254-5.509-.54-1.172,6.782-3.99,3.755-5.493-.686-3.86,1.655-2.255,5.194,0.511,4.162-1.382,2.478-1.331,1.121-3.405-1.868-9.333-.492-3.641,3.453-1.261-.5-1.665-6.49,1.544-3.695L640.5,234.3l-2.738.057-3.558,1.944-2.065-1.754-3.38,2.1L628.1,234.26l3.116-4.235-0.94-2.468-2.684-5.5-2.634,2.977-6.2,3.059-1.28,3.968-1.925,1.973-7.608,2.5-3.777-3.688-3.669,6.9-6.89-2.834-4.1,1.649Z" transform="translate(-4.833 -52.689)" fill="#ff8080" stroke="#000"/><path d="M756.775,309.065l-4.435-2.684-0.4-2.649,1.21-6.09-4.251-2.989-0.394-2.525L745.152,288l0.108-2.665,3.911,0.127,1.048-3.641,2.065-1.661,2.56-7.856,8.04-7.7,5.512,3.853,4.914-7.961,0.578,0.073-3.65-8.393,4.041-.7,6.56-4.959-0.432-2.884-2.64.067-1.353-7.665-5.038.286-5.791-3.1,2.742-6.156,2.1-1.738,0.823-5.413-6.725,1.528-3.221-2.541-0.661-1.22,3.367-4.225,1.652-3.79-0.658-1.22-2.4-.14L760.74,206.7l-5.451.016-6.487,2.236-1.153-.769-4.088-8.59-1.325-.384-4.581,5.146-3.606,1.773-1.334,2.383-4.155.2-3.183-6.023-5.975-3.577-1.719,2.043-3.539,6.706-6.557,2.29-4.7-2.935-6.916,1.121-0.94-5.315-2.551-4.787-7.113-3.755,6.474-5.057,7.758-9.632,7.192-8.663,5.667-.6,7.808-3.618,7.615-6.8,1.007-4.7-4.832-1L723.21,151.8l13.409-3.231,4.562,2.506,1.156,5.356,2-1.56-1.687-1.792,5.2-.6,2.2-3.4,10.413-4.162,5.169-4.667,0.864-4.038,2.888-2.443,1.684,3.132-0.734,3.158,3.377,2.113,4.368-.292-6.89,10.258,1,1.464-5,5.08-3.361,3.193,3.625,0.476,1.007,2.011,2.4,0.6,2.938-4.5,2.656-.851L777.6,159l-0.181-1.417,7-6.061,4.5,0.324-3.158,3.412,3.263,4.679-0.365,3.774,4.416,1.9,1.417,7.075,3.085,0.505-0.226,7.418,2.106-.638-0.054-1.363,3.485-5.674-0.146-5.81,2.151,0.813-0.353,9.626,1.706,1.785,3.593-.1,2.811-4.289-3.507-3.863,5.245-7.9,1.337-.394,2.294,3.418,3.539,1.919-0.6,2.815,0.28,1.674,8.263,8.841,3.717,1.515,5.534-.839,3.425,2.443-1.449,4.975,1.731,3.161,2.039,0.88,1.3-3.714,3.965-3.12,3.348-3,1.264-1.2,1.163,3.405,1.957,2.408-1.4,1.458,2.354,0.365-0.435,2.268,4.038-.111,0.457,4.26-3.209,3.4-3.911,1.3,3.764,0.048-0.524,2.275,2.329,0.81-1.9,1.544,0.048,5.118-2.144-.47,0.318,0.766-0.81.359-0.206,1.614-1.563-.353-0.1,1.125,2.074-.1,0.461-1.785,1.757-.067,1.236-.737,1.239-.1-1.051-.94-0.022-4.594,3.656-.041-0.985-4.32,2.173-1.709,2.58,3.984,3.507-.883-1.944-.022-2.24-1.576,1.97-6.341,3.968-5,0.543,0.2,1.769,2.2-0.191,2.792,1.833,2.135,1.976,6.757-0.035,2.8-3.05,2.751-0.051,1.407,3.774,7.287-4.841,1.922-1.026,2.637,1.391,2.462-0.076,2.792-3.513,4.244-2.63.229-0.918,6.766,3.774,4.063-0.848,3.771,0.816,1.118-0.7,2.63,2.888,2.859-2.376.861-0.283,2.478-1.566,3.539-0.2,4.181,3.9,5.1,0.464,2.621-0.947.943-3.774,1.309-5.159-.089,3.091,9.756-2.459,7.046,1.763,3.377-2.58.486-2.4-3.374-4.038.832-1.248.623-1.607,2.249-0.616,4.044-2.649.648-8.822-4.158-2.03-3.561-6.3,2.757,0.219,2.805-2.186,3.485-6.9.486,0.235,2.589,2.58,0.982-2.316,4.648,0.546,1.274-4.714-3.075-7.021.2-0.74-1.2-6.693,4.368-2.583,2.818-0.842,8.021,1.709,3.653-0.067,1.331-2.09,1.493-2.656.054-3.272-2.256-3.806,1.115-2.383-.511-3.135,2.827-1.919-1.97L781,326.706l-2.621.2-7.577-3.367-3.958.794-0.3-7.621-2.58-4.578-3.339,2.325Z" transform="translate(-4.833 -52.689)" fill="#ff8080" stroke="#000"/><path d="M676.553,398.561l0.267-3.148-2.4-.778,0.454-4.009-1.169-2.506,4.222-10.127,0.848-4.066-0.88-2.633,1.086-2.452-1.245-1.76,1.191-2.03L675,360l-2.618.254-7.043,5.3-0.457,2.551-6.611-1.652-5.321,1.064-0.874-1.067-2.853,7.834-3.58,4.082-0.772-7.7-1.461-2.138,0.575-2.4-0.975-2.151-6.868-9.689-10.639,2.167-7.6-3.927-3.647-5.594-3.926.375-10.226-3.2-5.324.959-4.292,3.243-5.477.245,0.473-3.927-3.625-1.538-1.881-6.83,0.6-2.8-3.974.438-1.49-2.313-2.719-.076-2.306-1.493-4.076.515-1.855-1.9,2.449-4.781,2.592-.962,1.15-2.519-0.772-5.454-2.649,0-1.14-2.468-5.283-.461,0.712-2.1-1.061-1.728,1.363-2.411-1.477-3.869,0.057-4.209-3.027-4.546L559,291.209l2.608-.467,4.368-4.448-3.383-4.317-0.025-2.669,3.215-4.533,9.419-7.847,0.483-2.449-2.243-.492-0.413-3.923-2.478.6-0.727-2.757,2.516-6.725,0.321-2.113,2.881-1.954,0.07-3.4,1.8-2.043-1.407-2.316,1.372-5.181,1.646-2.116,5.15,1.6,2.678,4.571,2.653,0.3,4.1-1.649,6.89,2.834,3.669-6.9,3.777,3.688,7.608-2.5,1.925-1.973,1.28-3.968,6.2-3.059,2.634-2.977,2.684,5.5,0.94,2.468-3.116,4.235,0.664,2.392,3.38-2.1,2.065,1.754,3.558-1.944,2.738-.057,3.679,1.642-1.544,3.695,1.665,6.49,1.261,0.5,3.641-3.453,9.333,0.492,3.405,1.868,1.331-1.121,1.382-2.478-0.515-4.162,2.259-5.194,3.86-1.655,5.493,0.686,3.99-3.755,1.172-6.782,5.508,0.54,3.491-4.254,1-2.659-1.572-5.439-2.09-6.16-2.44-3.075-0.4-4.663,0.966-.867,7.113,3.755,2.551,4.787,0.94,5.315,6.916-1.121,4.7,2.935,6.557-2.29,3.539-6.706,1.719-2.043,5.975,3.577,3.183,6.023,4.155-.2,1.334-2.383,3.606-1.773,4.581-5.146,1.325,0.384,4.088,8.59,1.153,0.769,6.487-2.236,5.451-.016,1.868,1.617,2.4,0.14,0.658,1.22-1.652,3.79-3.367,4.225,0.661,1.22,3.221,2.541,6.725-1.528-0.823,5.413-2.1,1.738-2.742,6.156,5.791,3.1,5.038-.286,1.353,7.665,2.64-.067,0.432,2.884-6.56,4.959-4.041.7,3.65,8.393-0.578-.073-4.914,7.961-5.512-3.853-8.04,7.7-2.56,7.853-2.065,1.665-1.048,3.641-3.911-.124-0.108,2.665,3.355,4.127,0.394,2.525,4.251,2.986-1.21,6.093,0.4,2.649,4.435,2.684,3.831,5.413,3.339-2.325,2.58,4.578,0.3,7.621,3.958-.794,7.573,3.367,2.624-.2,4.994,1.843,1.919,1.97,3.135-2.827,2.383,0.515,2.484,3.078-1.611,13.25-1.433,2.379-4.66,2.7-0.1,1.391,2.646,3.094-1.121.816-2.751-.159L783.5,352.5l-5,2.316-1.093,4.679-8.009-.149-1.49,3.841-2.071,1.722-4.562-2.449-2.846,6.106-1.239-.931-3.072-4.368-0.292-2.627-0.311-4.263-6.49-5.5-2.008-5.258-3.71-2.109-7.059.3-3.774,3.755-6.63-.537-0.766,2.7-12.408.394,5.108,7.7,0.137,2.71-1.614,3.675-3.742,5.864-3.218,2.665-1.385,2.151,0.839,7.789-2.6.769-1.68,2.148-3.968-.2-0.454,1.3-3.069,4.632-8.393,7.341-5.378-.159-0.82-1.128-2.564,3.046Z" transform="translate(-4.833 -52.689)" fill="#06c" stroke="#000"/><path d="M496.143,147.938l-2.78.178-5.029-.184-2.071-3.1-2.681-4.606-0.648-4.044-3.018-2.659,0.01-2.64-1.582-5.8L472.32,127.4l-1.893,3.612,2.735,7.932-3.088,6.417,0.327,4.1-5.918-.064-4.015-.254-4.746-2.414-1.239.511,5.966-7.306-0.426-1.347-3.977-.9-2.7-4.81,0.947-4.028,3.99-3.86-4.117.613-4.794,2.646-2.688-.381-2.516-7.691-5.8-3.641-2.935.6-0.534.705-2.668-.55-4.5,3.272-0.083,11.382,1.547,2.189,1.414,0.191,1.077,1.919-1.541,3.17-1.8,1.639-7.961.724-1.534-6.382-6.08.943,0.454,4.314-4.266,2.608-2.008,2.5-1.185,2.211,2.526,14.912,1.4,2.316,2.456,1.026-0.2,5.334L413,172.669l2.011,2.03,4.2-.349,3.825,1.887,1.347-.464,2.392,5.1-3.7,5.982,4.781,1.9,2.44-1.14,5.1,6.315,3.926,1.239-5.439,4.571-6.843,9.136-3.488,2.452-1.754,1.852,0.638,3.923-0.839,2.513,1.846,1.773-0.41,1.261,1.255,0.149,0.753,2.414,3.637,0.727-0.054,1.309,2.688,2.678,3.895-.3L436.283,232l-4.27,3.634-5.057,2.4-3.707,4.216-0.391,8.275-0.791.788,0.241,2.672-1.468,2.217,14.184,4.644,0.33,2.767L432.96,273l1.776,1.989,2.182,11.068,2.589,0.1,3.062-2.977,2.4,1.372-2.522.959-4,7.024-2.646-.311-0.194,2.707,6.188,2.621,1.928,1.963,1.366-.216-2.147,4.648-0.178,3.936,1.169,2.37-5.007.832-1.02,3.9-2.516,1.106-0.6,5.515,3.993,7.322,5.045,2.125,0.346,2.741,0.438,2.637-1.258.451-5.067-1.63-6.363,1.436,0.492,1.735,3.113,2.465,5.6,0.537,9.683-1.846,4.39-1.2,2.78,2.745,5.28,0.2,1.166-.718,0.318-2.662,6.22,5.5-4.282,5.293,1.153,2.5,4.336,3.418,3.685-3.86,3.8,0.626,4.174-3.688,6.76-1.331,3.361-2.243,3.383,5.3L496.956,352,499,353.374l0.753-2.592,3.971,0.076,2.437,1,1.9,3.545,3.691,1.309,0.388-1.274,4.53-2.208,3.907-.477,7.233,3.186-0.883-3.825,3.615-3.888,2.491-.991,3.777,1.137,1.156,0.727,3.459-2.157L545,348.4l3-2.719,1.773-3.663-1.728-2.179,0.14-2.805,1.668-3.853,2.608-.94,1.331-2.338,4.8,0.483,0.75,1.026,1.274,0.162,2.259-2.986,1.28,0.051,2.449-4.781,2.592-.962,1.15-2.519-0.772-5.454-2.649,0-1.14-2.465-5.283-.464,0.712-2.1-1.051-1.721,1.363-2.411-1.477-3.869,0.057-4.209-3.027-4.546L559,291.209l2.608-.467,4.368-4.448-3.383-4.317-0.025-2.669,3.215-4.533,9.419-7.847,0.483-2.449-2.243-.492-0.413-3.923-2.478.6-0.727-2.757,2.516-6.725,0.321-2.113,2.881-1.954,0.07-3.4,1.8-2.043-1.407-2.316,1.372-5.181,1.646-2.116-0.168-3.383,0.083-6.693,6.677-6.417,2.869-4.32,5.226-1.137,4.988-7.77-1.649-3.666-3.971-3.526-0.623,1.042-0.969-.727,0.775-2.265-0.8-3.911,3.631-1.839,0.823-2.58-3.072-4.292-1.97-3.507,0.01-2.678,1.82-2.7,1.188,0.26,2.634,0.229,5.686,3.507,2.684-.194-0.473-1.337,1.655-3.872-3.209-4.416,0.2-1.407,2.456-.4,0.864-7.014-0.171-6.69-8.234-2.9-2.773,2.624-1.325.1-3.507-3.806-1.455,2.2-2.551-2.78-5.759-2.865-1.461-5.038-1.344-.1-2.011-3.466-1.258.486-1.823.194-3.256-1.166-0.21-2.109-10.22,4.142-1.3,2.408,0.14,2.735,0.788,1.121,5.064,1.182,3.085-4,3.533,1.811-1.261,3.558-4.743,2.157-0.143,2.335-1.579,2.227-2.754.016-3.393,2.37-3.834-1.811-0.245-2.665-2.113-1.118-1.982,3.155-2.313,1.077-3.307-6.036-1.607,2.068-5.194-.416-2.935,2.437-1.144-2.3-4.727-1.623,0.886,5.509-3.847,7.421-3.062-2.278-2.262-4.435,0.889-4.854-2.735-.289-3.116-2.665-3.987-.991-2.262-3.428-5.858,6.023Z" transform="translate(-4.833 -52.689)" fill="#ff8080" stroke="#000"/><path d="M565.291,53.763l-7.148,6.452L551,61.607l-7.246,4.864-4.27.5-1.391,3.971-1.391-.5-2.98,2.58-2.58,5.067,0.7,2.478-6.951,8.641,0.5,5.461-1.887-3.275-2.383.893,7.345-8.638,1.985-6.156-1.391-4.962-3.177,1.684,2.284-6.55-2.681-6.652-2.681-.4-3.872,3.774-5.362,9.727-1.391.1-2.78-3.078-4.168,3.475-6.751-1.684L494.4,76.5l-1.391-.2-3.774,3.479-2.481-.5-0.7,1.191L480.1,82.659l-0.2,4.069-13.9,2.084-0.4-1.391,3.574-7.545-7.745,1.785-5.956-8.933L452.8,74.415l-0.1,3.177-1.49-1.985-3.475,2.284-0.4-3.272,2.383-1.89-0.794-.492-5.756,3.574,0.991,4.568-3.475-2.186-1.391.1-2.186,5.261,4.069,2.58-6.055,5.464-3.672-1.687-2.78,3.078-1.785,6.849,1.191,5.461,4.168-.492,4.368,5.559-1.191,6.751,2.98-.6,5.756,3.672,2.481,7.745,2.681,0.3,4.864-2.58,4.069-.6-3.971,3.774-0.991,4.069,2.78,4.765,3.971,0.991,0.4,1.29-5.956,7.345,1.191-.492,4.765,2.383,4.069,0.2,5.858,0.1-0.3-4.069,3.078-6.452-2.78-7.942,1.985-3.574,5.956-2.383,1.588,5.861v2.58l2.98,2.681,0.7,4.069,2.681,4.568,2.084,3.177,4.962,0.1,2.78-.1,5.658-1.391,5.858-6.055,2.186,3.479,4.069,0.991,3.078,2.681,2.78,0.3-0.893,4.765L521,157.227l3.078,2.287,3.872-7.449-0.893-5.461,4.765,1.588,1.093,2.284,2.98-2.383,5.162,0.4,1.588-2.081,3.374,6.052,2.284-1.093,1.985-3.177,2.084,1.191,0.3,2.58,3.774,1.887,3.374-2.383h2.78l1.588-2.284,0.1-2.284,4.765-2.186,1.29-3.574-3.574-1.785-3.078,3.971-5.064-1.191-0.794-1.1-0.1-2.78,1.29-2.383,10.226-4.168,0.2,2.186,3.275,1.093,1.785-.2,1.29-.5,1.985,3.479,1.391,0.1,1.391,5.067,5.756,2.875,2.58,2.78,1.49-2.186,3.475,3.774,1.29-.1,2.78-2.58,8.24,2.878,0.2,6.652-0.893,7.049-2.383.4-0.2,1.391,3.177,4.463-1.687,3.876,0.5,1.287,4.765-2.478,3.177,4.27,8.933-3.078,1.49-1.89,0.1-2.58,3.971-.794,0.991,0.893,0.7,4.168,1.191,0.6,2.78,0.6,3.574-1.985-2.681-.492-1.49-2.383,2.284-5.067-0.7-2.58-1.985-10.423-0.991-5.064-1.29.2-4.368-4.86-2.084-3.177-2.383,1.093-3.774-.794-2.58-9.432-8.835-4.168-1.985-3.774-3.774-1.687-0.893-2.58,3.774-3.872-2.383-2.084,3.475-5.956-3.774-.6-1.985-3.475,0.1-2.684-2.186,3.876-8.539.1-7.049-1.887-3.078-3.872,4.765-1.785-8.933-.794-0.6-1.684,9.927-5.162,0.6-1.29-1.687-2.284,0.1-4.069-2.58-.991-6.751,1.687-5.162-1.785L561.8,83.876,559.417,94.9l-2.186,1.785,0.794,4.168-0.794,1.191-3.574.7-1.391,2.084-1.191-5.261,2.481-1.391,4.069-3.971,0.6-8.736,7.446-10.413-7.643.486,4.27-7.049-1.49-3.872-1.29-.7,2.383-1.287,2.681,2.186L562,60.542l-3.475.3Zm20.947,7.843-1.49,1.985-2.98.1-0.3,1.391,3.574,1.191-0.2,1.588-3.872-.991,0.991,5.956,0.991,0.4,0.794-1.687,0.6,1.687,1.588-.794-0.3-2.98,0.893-1.191-0.4-1.493,0.4-3.374,2.084,0.4,0.3-2.186h-2.675v0ZM430.873,85.331l-1.191.794-2.78.3-0.2,2.875,0.6,1.29,1.093-1.785,2.084,0.492,1.687-1.191,0.6-1.287-0.5-1.29Z" transform="translate(-4.833 -52.689)" fill="#ff8080" stroke="#000"/><text transform="translate(622.834 170.382)" font-size="48" font-family="DejaVu Sans" font-weight="700">1</text><text transform="translate(786.833 203.096)" font-size="48" font-family="DejaVu Sans" font-weight="700">2</text><text transform="translate(651.824 260.88)" font-size="48" font-family="DejaVu Sans" font-weight="700">3</text><text transform="translate(485.604 193.944)" font-size="48" font-family="DejaVu Sans" font-weight="700">4</text><text transform="translate(509.271 80.591)" font-size="48" font-family="DejaVu Sans" font-weight="700">5</text><path d="M295.122,362.447l-1.477,1.982-2,3.434-4.276,2.993,1.382,2.319-0.191,8.1-2.4,6.128-1.064,8.164-1.042.893-4.022-.321-5.048,4.5,3.6,5.1-6.7.861-3.412-1.874-2.64.232,5.731,5.74,2.249,7.99-2.484-.638-5.445-6.033-5.15,4.228-2.173-1.731-3.587,1.747-1.5-2.224-1.728,2-1.125,5.283,5.763,3.259-0.146,4.05,1.207,2.433-1.607,4.775,5.15,1.36,2.322,3.247,0.826,1.226-0.14.245,3.93,5.283-0.572,3.752,2.681,4.565,5.375-.68-0.53-5.359,1.947-6.319,2.271,0.222-0.041-1.833,3.72-.337,1.788-2.182,0-5.915-2.668-.928,2.732-.816-0.276-3.078-1.6-.75,2.344,0.619,1.893-1.725-3.98-3.6,0.3-2.935,1.258,2.764,4.193,2.408,0.534,3.5-0.81,3.993-3.05,1.128,0.044,2.9,3.409,0.07,3.434-3.914-2.942,4.441,6.82,3.329-1,.067-1.76-1-4.994-2.243-2.729.152-0.276,1.855-2.325,2.522-3.393.083-0.362,1.96-1.954-.064-1.236,5,0.543,5.048,3.656,2.735,3.228-1.553-2.481,2.09,0.724,1.773,4.552,2.589-2.411-.753-1.1,1.938,1.849,2.754,2.5,0.1,0.362,3.507,2.287,0.311,1.652-1.519L293.851,468l-0.87-3.923,1.585,2.97,2.208-1.671-1.468,2.074,6.728,5.293L291.7,469.2l12.24,5.928,17.841-3.069-1.982-2.748-2.167-8.539L322,457.549l-3.212.375-1.509-2.98,2.672,1.223,1.1-5.667,1.125,5.334,5.022-.165,2.29-3.666-0.832-6.751,3.383-1.973,1.4-3.806-2.189-1.464-4.079.54-4.123-3.377-3.7,1.56,1.14-5.3-2.23-5.013,1.912-6.319,3.609,0.181,4.028-18.946-5.756-3.494,2.068-1.477,3.876-.1,2.967-2.437,6.757-2.506,12.135-10.372-1.6-2.122-5.162,1.341-2.163-4.965,0.613-1.229,1.595-1.931-0.6-6.5-2.2-.845-0.835-2.24-5.156-1.134-0.626-3.987-2.113-1.674,1.35-2.341-0.438-1.283-4.26-.114-13.542,4.114-2.662-.705-1.89-6.055-4.708-1.642-5.083.578-1.41.159-0.4,1.366,0.156,8.345Z" transform="translate(-4.833 -52.689)" fill="#ff8080" stroke="#000"/><path d="M168.633,236.016l0.572,1.147-1.414,0-2.564-3.221-2.757-.149-9.333,6.156,2.135,7.316,6.15,7.11,1.522-2.1,5.5-1.379,1.086,4.8,3.078,1.188,3.174-.623,3.078-2.846,1.909,2.367,0.426,4.362,3.574-1.264,2.85,0.143,3.812-1.808,5.362,1.194,1.02-5.464-3.294-2.4-3.126-4.4,0.683-2.36-1.283-2.3,4.2-3.39,1.14-5.318,2.36-1.226,0.038-4-3.784,1.436-4.031-.642-2.773-4.273-1.055-.88-1.15.74-3.872,5.613-1.182-2.008-1.471,1.655-2.322-.318-2.306,2.63-1.28.038-0.75,2.357-1.207-.429Z" transform="translate(-4.833 -52.689)" fill="#ff8080" stroke="#000"/><path d="M201.852,173.088l-1.49,2.186,0.6,1.191-7.148,5.756-1.093-.2-2.383,1.391-5.261,6.55-7.049-.794,0.2,2.481-1.687-.893-4.667-1.985-0.3,2.084,1.191,3.669-4.168,4.864-4.864-9.829-5.362-1.391-1.785-.5-2.481,1.29,0.893-2.58-2.186-4.962-7.745-2.478-4.864,2.383-3.672.3-0.7.991-1.687-2.186-3.177,2.58-1.391-1.687-4.168.5-0.6,8.539-0.794-1.391-3.672-1.89-2.481.991-5.162,4.962-0.7,4.168-2.383,1.49-0.893,4.168-0.794,1.191-1.391.889-1.49,6.353,1.191,5.362,1.687,2.186-1.49.7,4.069,3.081,7.246-1.493,1.49-.991,1.687,1.093-9.035,1.89-2.084,3.971,0.7-3.275-1.093-.3-1.093,1.191-3.872,6.951-0.3,1.391,1.191,0.6-2.284,3.374-2.383,7.942,2.186,3.479,2.383,0.2,0.893,7.745,3.275,3.774-0.2,3.081-3.672,2.78-2.98-1.687-0.4,2.878,8.736-.991,2.481-1.29-1.985,1.687L112.2,267.7l-1.391.2-4.168-.794-2.878,1.391,3.374,4.27-1.887,4.765,1.29,0.3-0.4,1.391,2.284,1.391,7.049-1.391,7.049,0.2,3.475-2.58,0.3-5.461,5.261-1.785,7.148,3.774,3.971,0.794,2.98,2.681,1.391-.3,3.872-.2,14.394-9.133,5.461,0.991,7.345-6.55,3.078-1.49-0.4-4.368-1.985-2.383-3.078,2.878-3.177.6-3.078-1.191-0.991-4.765-5.559,1.391-1.49,2.084-6.156-7.148-2.186-7.246,9.333-6.156,2.78,0.1,2.58,3.177h1.391l-0.6-1.093,2.78-2.58,1.191,0.5,0.794-2.383h1.191l2.383-2.681,2.284,0.3,1.49-1.588,1.191,1.985,3.872-5.658,1.093-.7,1.093,0.893,2.78,4.27L194.7,229l3.872-1.391,9.232-2.084,2.383,1.391,3.078,2.186,3.774-.893,4.864-2.383,1.093-2.383-2.878-7.643,0.893-5.461-2.481-5.858-1.588-6.951-2.186-3.672,1.785-2.186-1.687-1.191,0.4-.893,0.5-6.951-2.284-3.272,0.1-.3-6.156-3.574ZM55.325,250.918l-1.29,1.493,1.887,3.374,1.49-2.284Z" transform="translate(-4.833 -52.689)" fill="#ffc0c0" stroke="#000"/><path d="M309.264,107.568l-4.368,2.481-0.2.7,0.3,0.7,0.7,0.3,2.681,0.991h1.391l0.991-1.093,1.29-.2,1.093,0.889,2.878,0.2,1.093,1.687,0.794-1.191-0.5-2.084-2.58-1.093-1.985-2.084ZM318.5,117.5l-3.672,6.655-0.794-5.861-0.991.2-2.284,5.064-5.362.794-1.093,2.58-3.872,1.191-0.7,5.559,5.559,0.5-0.794.4-6.055-.2-1.29.893,2.681,5.162-0.3,1.093-0.991-2.681-5.756-6.353-2.78.4-0.6,1.29-0.7-2.78-4.168-.2-5.559-.2-7.942,2.287,0.893,8.339,2.481,7.843-1.687,1.887-3.971-.889,6.353,10.623-2.878,8.933-3.275,2.481,0.893,2.681-0.6,8.244,0.794,1.588,2.681,0.4,3.872-1.191,0.4-2.684,1.887-1.985,3.872-.889,6.255,4.86,7.545-3.774,5.261,0.4-0.5,6.951-2.284,6.751,0.4,1.391,2.58,1.093,5.362-.1,1.191,0.794,0.2,4.27-1.687,6.849,3.275,2.084,10.324,0.991-0.6,5.362,2.98,6.055-0.794,2.084-3.872-1.493-2.98,2.684-2.58-1.1-2.58.794-0.5,3.774-2.481-.3-9.333-8.539-2.78-.4-1.785-7.246-5.162-1.588-5.559,2.878-8.139,2.58-1.391-1.391-2.186.2-5.658,3.574-4.765-2.287L263.8,212.4l-2.481-3.275-1.391-.3-1.093,2.58-2.284,1.49-0.2,1.391-1.49,2.186,2.186,6.156-2.878,2.186,0.5,1.29,4.568,2.58,0.2,5.464,1.687,2.081-3.574,5.559,2.383,2.58,6.652,8.736-0.5,2.481,3.971,0.794,6.353,5.362,2.084,1.785,5.559,0.893,6.652-4.765,3.574,7.446,3.774,1.49,0.893,2.481,2.481-2.186,0.5-.3,12.408-3.374,9.629,2.78,1.391-.5,1.191-2.58,3.574-6.849,6.55-7.345,0.4-.3,8.835-4.467,10.623-3.374,6.055-3.374,4.962,1.191,0.893-2.58,7.545-2.58,5.461-2.878,8.24,0.2,6.055-2.684,2.78,0.1,4.667-5.162,5.064-.4,3.672-3.475,0.794,1.093,2.681-.1,1.687,3.774,2.681,0.5,0.1-2.186,3.177-1.391,0.4-1.191-1.785-1.785,0.794-2.58-0.6-3.876,1.687-1.887L427,208.829l6.849-9.133,5.461-4.568-3.872-1.191-5.162-6.353-2.383,1.191-4.864-1.887,3.774-6.055-2.383-5.064-1.391.5-3.774-1.89-4.27.3L413,172.691l-1.093-1.1,0.2-5.362-2.383-.991-1.391-2.383-2.58-14.893,1.191-2.186,1.49-2.878,3.971-3.177-4.27-3.078,3.374-5.064-3.672-.6-6.255,3.374-2.681-1.887-3.374.794-5.559-6.452-6.951-.893-4.168-.492-4.467,2.875-3.374-.4-1.985-4.066-2.383.6-4.168-3.475,1.687,7.843-4.168-4.864-5.362,10.127,1.785,11.316-1.887-.893-0.6-4.568-1.985.6,4.168,17.173,9.727,0.5-9.829,1.093-3.078,4.765,2.58,4.368-2.084-1.49-3.574,1.391,2.98-2.284-0.794-1.29,1.191-2.186v-4.368l-0.893-1.29-5.261-2.98-2.186-1.191-2.284-1.887-1.687-3.971-0.5-2.684,4.27-1.588-0.4-1.887-8.139-1.093-1.985,6.353-3.672,1.391-2.284,1.588,1.093,3.876-1.093,6.951,1.887,3.672,1.29,0.6-0.794,1.093,1.887,5.362-5.162-8.04,0.893-8.339-1.785-3.669,1.391-4.069-0.3-5.756-4.368-3.078,1.49-3.872-2.481-3.374-0.1-2.78,2.383-7.246Z" transform="translate(-4.833 -52.689)" fill="#ff8080" stroke="#000"/><path d="M271.045,133.28l-6.652,1.985-6.849,7.243-2.58,3.774,5.858,0.7,1.588,1.785-6.751,1.191-3.275-.3,1.887-2.681-5.559,2.58-8.139.4-0.6,1.785-6.255,1.785,1.785,1.588-2.084,1.391-2.681-.889-1.191-1.1-0.2-1.191,2.186-1.093-2.481-1.093,4.069-2.287,2.284-4.86-4.27-1.785-1.49-1.979-1.785,2.684-1.785-.991,0.2-2.78-5.658-.4-12.9,8.24-9.829,1.191,1.191,2.383,8.539,4.568-9.333-1.588-0.7,2.383L196,153.04l-6.055,5.858-12.608,1.89-0.893-4.168-4.467,1.687-3.574-3.078,0.5,5.064-6.452-.3-0.7,5.956,3.971-.3-2.284,2.684,5.858,1.684,5.064,2.186,0.3,2.481,4.864-.2,6.255,6.849-2.58-.794-4.568-4.962-4.069.1L173.668,173l-1.588-.1-4.568-2.284-2.878,1.687-1.391-1.785-8.933,2.084,2.58-3.275-3.078-2.383-2.481,1.191,0.2,7.446-1.391,3.774,4.27,0.889,2.58,4.864,8.24,0.4,11.417,4.069,1.391-.4,7.049,0.794,5.261-6.55,2.383-1.391,1.093,0.2,7.148-5.756-0.6-1.191,1.49-2.186,5.559,2.383,6.156,3.574-0.1.3,2.284,3.275-0.5,6.951-0.4.893,1.687,1.191-1.785,2.186,2.186,3.672,1.588,6.951,2.481,5.861-0.893,5.461,2.878,7.643-1.093,2.383-4.864,2.383-3.774.889L210.2,226.9l-2.383-1.391-9.232,2.081-0.1,3.971-2.383,1.191-1.093,5.362-4.168,3.374,1.29,2.287-0.7,2.383,3.078,4.368,3.275,2.383,2.878-.3,4.568,2.78,4.568-2.98h2.284l1.29-.991,1.29-.3,1.093-2.481,5.261-.7,5.162-3.774,3.971-1.093,9.53-7.745,1.191-1.687,1.093,0.3-11.814,11.119,2.681,0.7,3.475,4.467,2.58,6.652-0.3,1.391-5.461,4.568-0.991,2.58,1.191,4.069,2.481,0.89,6.55-1.684-1.588-5.067,3.971-.2,0.3-1.29,1.191-3.971,4.568-2.98,0.991-4.168L251,246.846l1.391-3.971,2.78,0.4,2.383-1.49,3.574-5.559-1.687-2.084-0.2-5.461-4.568-2.58-0.5-1.29,2.878-2.186-2.186-6.156,1.49-2.186,0.2-1.391,2.284-1.49,1.093-2.58,1.391,0.3,2.481,3.272-3.275,4.467,4.765,2.284,5.658-3.574,2.186-.2,1.391,1.391,8.139-2.58,5.559-2.878L293.4,212.9l1.785,7.246,2.78,0.4,9.333,8.539,2.481,0.3,0.5-3.774,2.58-.794,2.58,1.093,2.98-2.681,3.872,1.49,0.794-2.081-2.98-6.055,0.6-5.362-10.324-.991-3.275-2.084,1.687-6.846-0.2-4.273-1.191-.794-5.362.1-2.58-1.093-0.4-1.391,2.284-6.751,0.5-6.951-5.261-.4-7.545,3.774-6.255-4.864-3.872.893-1.887,1.985-0.4,2.681-3.872,1.191-2.681-.4-0.794-1.588,0.6-8.24-0.893-2.681,3.275-2.481,2.878-8.933-6.353-10.626,3.971,0.893,1.687-1.887-2.481-7.843ZM156.981,186.192l1.391,1.985,5.362,1.391L168.6,199.4l4.168-4.86-1.191-3.672-2.98-2.878-4.069-1.191-5.559-.5Z" transform="translate(-4.833 -52.689)" fill="#ff8080" stroke="#000"/><path d="M25.343,217.763l-0.7.4,0.794,1.191-0.3.7-0.991.991-1.391.6-2.78-.492-3.475,1.191-1.391,2.383L9.256,227.7l-1.887,3.078,0.1,0.6,0.7,0.2,1.49-.1,6.849-2.383,0.7-.2,1.391,0.5,0.991,0.991-0.3,1.391-3.672,2.284-1.785,2.084,3.374,0.6,0.794-1.093,2.78-.794,2.383-3.475,5.559-.3,2.878-3.177,2.78-.3,0.991-1.093-0.1-.7-0.6-.4-2.878-.1-1.887-.991,0.7-4.066H28.513l-1.191-1.785Zm386.571,3.177-3.672,3.475-5.064.4-4.667,5.162-2.78-.1-6.055,2.681-8.24-.2-5.461,2.878-7.545,2.58-0.893,2.58-4.962-1.191-6.055,3.374L345.9,245.956l-8.835,4.467-0.4.3-6.55,7.345-3.574,6.846-1.191,2.58-1.391.492-9.629-2.78-12.408,3.374-0.5.3-2.481,2.186-0.893-2.481-3.774-1.49-3.574-7.449-6.652,4.765-5.559-.889-2.084-1.785-6.353-5.362-3.971-.794,0.5-2.481-6.652-8.736-2.383-2.58-2.383,1.49-2.78-.4-1.391,3.971,0.794,4.168-0.991,4.168-4.568,2.98-1.191,3.971-0.3,1.29-3.971.2,1.588,5.067h2.084l-2.681,1.887-5.559,1.588,3.672,1.785-10.722,4.273,3.971,1.887-4.667,1.093-4.568,5.559,7.345-1.49,4.467,2.481,2.878-3.478,2.681-.4L246.022,281l2.681-.2-2.084,1.687-8.139,3.971,3.078,2.284,3.475-.492,2.98,3.971L249,287.651l6.156-1.191-4.765,2.58,1.29,3.672,10.82,0.3,3.475,0.6-3.971,1.887-1.887-1.391-6.055,2.78-1.49-1.985-9.133,5.655-3.574-.89-0.794,1.287,2.58,1.493,5.658,3.374,3.177,4.864,5.956-2.78,2.878,4.27,13.4,1.093,1.49-.7-0.4,1.29,4.864,1.985,10.324-5.756-3.177,3.177-0.3,2.98-2.383,9.035,1.391-10.521-6.951,3.078-5.162-3.374-14.3-.794,0.991,3.177-1.687-1.985-1.687-5.756-2.98,2.878-3.574.89v-1.684l-2.78-2.481-4.168.1,3.475-1.785-6.751-4.861-1.985.492,0.794-1.588,0.1-4.168,2.78-.3,2.084,2.186,1.29-4.069-11.814-1.49-8.638,4.765-3.872-.3-3.971,3.475-4.667.991-6.951-.6L200.55,295.6l-9.829-.6-3.475,2.481-8.04,2.383-3.872-5.956,4.962-6.055-2.878-.6-4.168,7.843-3.177,3.475-4.467-4.27-1.093-4.168,2.186-1.785,1.49-7.049,2.084-3.774,0.6-2.383-2.084.6-4.069,1.29-6.055,6.156,2.98,12.31,0.3,2.287-2.78,3.078-4.568.991-1.985-4.667-2.98,2.481-5.559.4,4.069,1.985-1.785,8.037,3.177-2.186,4.368,2.78,4.168,0.794,6.452-2.58,3.672,3.672,0.1,3.574-7.942,2.681,2.481,1.391,3.275,12.805-0.4,7.243-1.985,1.985L166,345.528l2.681-.794,0.991-4.168,4.069-3.971,3.177-7.942,3.774-4.168L179.5,321.8l1.191-2.481,1.29-.7,8.437-.893,5.461,1.687,1.887,2.084,2.78-.2,5.162,2.186,7.545,2.284,2.383,4.568,9.53-.2,1.985,1.588,0.991-.7,1.29,0.1,0.893,2.383,2.383,0.991,2.186,4.765,1.191,3.872-1.191,3.672,0.5,2.58,5.162,1.287,0.7,1.191,0.2,2.287,0.7,5.461-3.971,3.574v6.751l-3.672,5.064,0.2,1.29,6.255,2.98,1.093,2.58,3.774,2.78,6.55-3.177,2.186-1.29,0.6-2.681,3.971-.4,7.246-3.475,9.333-1.687,4.368,2.58,7.246-3.669,4.368-2.98,1.985-3.475,1.49-1.985,3.574-4.368-0.2-8.339,0.4-1.29,1.391-.2,5.162-.6,4.667,1.687,1.887,6.052,2.681,0.7,13.5-4.168,4.27,0.2,0.5,1.287-1.391,2.287,2.084,1.684,0.7,3.971,5.162,1.191,0.794,2.186,2.186,0.893,0.6,6.449-1.588,1.985-0.6,1.191,2.186,4.962,5.162-1.29,1.588,2.084-12.11,10.324,0.3,2.78,2.383,1.391,5.461-.492,3.872,0.991,1.588,2.284,4.069-.2,8.933-6.255,1.887-5.162,3.574,0.7v2.58l1.391,0.2-0.5-3.971,1.29-2.481,6.452-5.162,6.751-1.785L387,374.614l0.893-2.681-0.7-4.069,3.275-2.383-0.991-2.186,3.275-4.368-0.3-2.681,3.672-1.687,0.893-2.478,6.55,0.2,4.962-1.887,8.736-5.956,15.188-6.055-0.5-1.687,6.353-1.391,5.064,1.588,1.191-.5-0.4-2.58-0.3-2.78-5.064-2.084-4.069-7.345,0.7-5.559,2.481-1.1,0.991-3.872,5.064-.794L442.78,307.9l0.2-3.971,2.084-4.667-1.391.3-1.887-1.985-6.156-2.681,0.2-2.684,2.58,0.3,4.069-7.052,2.481-.89-2.383-1.391-3.078,2.98-2.58-.1-2.186-11.119-1.785-1.985,2.383-9.333-0.3-2.78-14.2-4.667,1.49-2.186-0.3-2.681,0.794-.794,0.4-8.244,3.774-4.27,5.064-2.383,4.27-3.672-1.093-2.383-3.971.4-2.681-2.681,0.1-1.391L425,225.2l-0.7-2.383-1.29-.2-3.177,1.391-0.1,2.186-2.681-.5-1.687-3.774-2.681.1Zm-181.77,24.124-9.333,5.559-2.084-.2-1.29.7-1.687,2.481-9.927,5.162-3.672,4.962-4.667,3.177L192.322,281.3l2.084,0.5,12.11-6.849,2.681,0.1-2.878,1.588-4.069,5.559,11.814-.6,1.887-3.672-0.4-4.168,7.148-4.765-3.475,5.362,1.985,0.1,6.255-5.956,1.49-1.684-3.475,8.736,8.736-1.391-1.985-1.985,1.093-2.681-1.191-4.069,0.991-2.58,5.461-4.568,0.3-1.391-2.58-6.652-3.475-4.467Z" transform="translate(-4.833 -52.689)" fill="#ff8080" stroke="#000"/><path d="M216.942,368.855l-4.27,1.1-4.069,1.191-5.658-.5-4.568,3.177-6.951.7-2.78-.3-5.756,4.069-4.168-.893-8.24.5-3.672,4.066-5.362-1.49-3.971.794-10.423,4.667-1.887-1.287-0.991,1.287-9.432-1.287-0.991,4.27-11.417-1.687-0.3,1.191,0.1,1.391,2.084,4.962-0.991.991-8.437,1.49,3.872,2.186,8.04,3.272,8.638,0.3,3.078,1.391,5.559-2.78,2.98,4.568,5.162,1.191,1.391-.1,2.284,3.374,6.255,2.681,4.568-4.667,1.687,0.5,1.588-2.186,0.6-7.745-1.687-.7,2.084,0.3,1.588-.991,1.29-.5,8.539,0.3,0.2,0.6-10.922,1.1-1.391,9.727,9.829,3.872,7.345,6.452,2.681-.1,11.217,10.127,2.681,4.962,3.275,4.368,6.751,13.009,1.985,4.962,7.246-2.78-4.765,4.467-0.7,3.872,1.985,6.452,1.29,5.658-0.6,7.345-8.139,4.368-0.1,1.391,1.887,1.887,0.6,5.461,12.211,0.1,6.849-1.093,3.672,3.177,3.971-3.275,0.2,1.29-2.186,1.985,3.672,0.893,10.623-1.191,3.872-1.1-1.985-5.858,0.893-.794,2.186,4.467,4.467,2.383,5.362-4.67-0.5-2.383,2.284-.3,1.191-8.24-6.055-1.687-2.78-5.858-5.461-6.353,3.971,3.078,3.971-7.942,3.177,2.383,1.49,7.345-0.794,6.849,0.794-.2,1.29-3.774,2.98-2.084,7.246-4.069,2.98,1.29-0.2-4.368-2.481-2.084,0.1-2.481-4.864-4.568-3.574,1.391-4.27-1.093-1.588-5.064,0.6-3.774-3.971-5.258,0.1-.2-0.794-1.29-2.284-3.177-5.162-1.391,1.588-4.765-1.191-2.481,0.1-4.069-5.756-3.177,1.191-5.362,1.687-1.985,1.49,2.284,3.574-1.785,2.186,1.687,5.162-4.168,5.461,6.052,2.481,0.6-2.284-7.942L265.8,405l2.681-.3,3.374,1.89,6.751-.794-3.574-5.162,5.064-4.467,3.971,0.3,1.093-.893,0.991-8.139,2.383-6.156,0.2-8.04-1.391-2.383-7.246,3.672-4.368-2.58-9.333,1.684-7.246,3.478-3.971.4-0.6,2.681-2.186,1.29-6.55,3.177-3.774-2.78-1.093-2.58-6.255-2.98-2.58.991-5.461-3.475-1.687.3,0.893,6.951-3.177-7.643Zm-136.3,26.9-0.794,1.391,1.093,1.1,0.7-.893,1.985,0.6,1.687,2.681,1.191,0.2,1.191-.3-2.084-.4-0.4-2.98-0.893.4-1.093-.89H82.029Z" transform="translate(-4.833 -52.689)" fill="#ff8080" stroke="#000"/><path d="M474.585,468.643l-3.374-2.167-7.742,2.929,0.251,5.181-2.36,4.756-4.092.33-3.526,4.238-1.379.086-4.857-2.614-2.694-3.008-0.086-3.882-1.007-.184-1.906-3.164-2.643-.159-0.543-3.726L437.9,470.9l3.215,1.944,1.366,3.472-3.45,3.11-0.683,5.728,1.395,0.286,0.48,3.053,2.932,1.966-1.356,1.766,2.128,0.762-2.376,4.816,0.692,1.544-1.464,4.406,0.8,2.284-1.785,2.786-7.916-2.116L420,506.059l-1.43.178-8.46-2.519,2.106-6.255-3.383,4.994-4.235-.727-2.456,2.087-12.014-8.809-0.171-2.014,4.025-4.063,1.957,1.483-0.016-3.482,7.8-2.344,4.168,0.867,1.636,0.079,2.722-3.135-3.517,2.217-5.54-1.1-3.907,1.553-1.776.673-0.048-3.907-2.7,5.839-7.681,5.75-2.56-6.328-0.372-4.349-1.966-2.662,1.271-3.266-1.045-.712,0.645-1.356-1.887,1.538,1.29,0.635-2.271,2.6,3.183,3.736,0.318,3.177-2.954.585,2.884,0.788,2.1,6.935-6.131,3.536-6.859-.842-3.631,1.442-2.1-.429L366,496.373l-6.827-.886-3.9,1.226-1.341-4-11.56-12.519L342,477.488l1.928-1.979,0.518-2.792L347.687,470l-5.886,3.641-2.637-.68-0.842-1.112,2.132-1.668-0.254-1.372-1.788-2.128-3.907-1.363-1.731-3.78-2.217-1.7-1.626-3.656,0.565-4.162-0.832-6.751,3.383-1.973,1.4-3.806-2.189-1.464-4.079.54-4.123-3.374-3.7,1.56,1.14-5.3-2.23-5.013,1.912-6.322,3.609,0.181,4.028-18.946-5.756-3.491,2.068-1.477,3.876-.1,2.967-2.44,6.757-2.506,0.368,2.761,2.37,1.391,5.451-.53,3.838,0.988,1.569,2.287,4.114-.194,8.9-6.284,1.941-5.105,3.577,0.727v2.548l1.369,0.235-0.483-4.057,1.3-2.427,6.449-5.2L385.2,376.7l1.823-2.068,6.731-.759,3.52,1.935-2.379,3.507,0.928,5.6-0.9,1.109,0.594,1.3,7.268,4.025,3.695,15.083,3.215,4.66,2.151,8.158,5.146,1.207,2.421-.921,2.087-1.82,4.114,0.127,2.176,1.347,2.062-1.868,5.467-.521,2.252,1.636,4.044,0.651,3.58,4.123,5.423-.3,3.282,3.98,1.452,6.477,3.215,2.116,1.1-.823,0.718-4.041L465.7,429.6l6.452-4.841,1.283-.467,1.226,2.449,1.363,0.1,0.562,2.532,2.189,1.388,0.01,2.586-2.109,3.577,3.5,6.026-1.039,2.633-3.895,1.283-1.369,5.035,2.417,7.834-0.4,6.833,1.487,2.125Z" transform="translate(-4.833 -52.689)" fill="#ff8080" stroke="#000"/><text transform="translate(283.893 367.715)" font-size="48" font-family="DejaVu Sans" font-weight="700">1</text><text transform="translate(320.833 265.048)" font-size="48" font-family="DejaVu Sans" font-weight="700">6</text><text transform="translate(333.5 157.048)" font-size="48" font-family="DejaVu Sans" font-weight="700">4</text><text transform="translate(226.833 149.136)" font-size="48" font-family="DejaVu Sans" font-weight="700">5</text><text transform="translate(120.5 182.382)" font-size="48" font-family="DejaVu Sans" font-weight="700">3</text><text transform="translate(167.933 198.229)" font-size="24.037" font-family="DejaVu Sans" font-weight="700">2</text><text transform="translate(210.769 378.049)" font-size="48" font-family="DejaVu Sans" font-weight="700">7</text><text transform="translate(366.5 402.715)" font-size="48" font-family="DejaVu Sans" font-weight="700">8</text><path d="M197.484,266.9l-17.234,1.751L166,272.9l-15.865,9.286L126.75,292.4l-39.063-13.75L50.25,262.4V245.474L44,220.939s-13.333-8.2-16-8.2-20.631,5.025-20.631,5.025L5.333,223.2v27.721l24.333,21.819,40.667,35,41.333,29,108.333,25,14.5,13.277" transform="translate(-4.833 -52.689)" fill="none" stroke="#000" stroke-dasharray="4"/><path d="M939.613,373.191l-1.528,3.567-2.653,3.161,0.673,1.226v7.094l-3.444-1.15-4.27,2.805-4-.6-2.541-3.078-2.522.731-2.043,3.695,0.283,4.127-1.858,2.116-0.33,4.073,0.588,2.611L914,407.03l-0.654,5.194,5.305,0.861,3,2.408-1.15,3.841,1.121,2.465,3.564-1.887,1.023-8.132,1.312-2.446,1.264-.559,2.052,1.858,1.42,2.173,2.468,0.991,1.147,2.4,2.6,0.4-0.184,11.979,0.369,1.3,3.561,1.709,2.065-6.131,3.745,0.28,1.706,2,2.182,4.857,3.59-1.858,0.721-1.147L954.718,426l2.98-2.561,4.9-2.354,1.258-5.242,1.76-2.157-1.226-.715-1.544-5.47-0.076-3.984,1.7-2.049,2.545-6.465,5.051-4.181,0.3-1.3-2.786-2.834,1.8-1.97,1.4-5.038-1.258-3.51-9.213,1.912-3.224-4.428-2.732-.47-2.383-1.449-0.28-1.372-0.127-2.792-4.038,1.064-1,1.391-2.2.356-0.737.762-0.3,1.194-2.818.159Z" transform="translate(-4.833 -52.689)" fill="#ff8080" stroke="#000"/><path d="M910.984,276.821l-2.249,1.722-3.838-1.614-4.162.778L896.18,274.4l-0.241-6.506,2.478-4.546,2.255-1.614,0.537-2.611,5.966,3.291,5.315-.029,3.066,2.287,0.889,4.019,3.4-2.535,13.8-3.539,4.962-4.559-4.832-2.907-0.686-2.63,1.042-.959,4.225-.226,4.962,4.9-0.534,3.374,3.672,0.874,1.5,2.087,1.223-.391,0.337,2.8-1.121,2.57,1.07,0.918,10.779,2.592-0.01.146-3.615,2.027-9.387-.121-3.005,6.185,0.489,1.309-3.374,1.665,0.5,2.408-5,1.468-1.074,6.522,2.167,3.212,0.067,2.691,1.226,0.54-1.261,3.869-4.235,3.332-7.945.21,0.769,3.113-3.3,6.585,3.952,4.041,0.727,2.64-0.8,2.583,2.335,3.107L928.8,332.5l1.433,2.294-1.884,1.925,1.14,3.205,4.292-1.839,2.951,2.214,5.528-7.38,3.9-.661,1.414-3.606,6.671,4.953,1.318-.454,0.651-2.637,7.173,2.646,1.973-6.3-1.093-3.914,0.467-5.34-1.194-.632,1.68-3.364,2.309-1.226,2.23,1.207,3.9-.121,0.346-1.747,1.3-2.4,3.755-1.763,3.564-4.187,4.114-.111,8.244-.111-0.931,2.532-2.58.813-1.229,2.4,5.254,6.109-0.086,1.363,0.191,1.379,3.965,0.991,2.913,2.846,8.107-1.2,0.746-1.169,2.22,2.97,3.637,0.893,1.585-5.35,6.652-1.538,2.1-3.507,8.171-1.163,8.272,8.885,3.9,0.375-1.039,2.545-3.266,2.462-3.482-1.951-1.226.553-8.777,7.853,0.632,1.055L1028.8,335.3l-0.553,4.168,0.928,5.35-2.627.607-1.007,2.087-0.511,1.194-2.351.346-1.627,4.94-3.282-2.481-2.627-.4-0.648,2.675-8.275,3.993-2.716-.292L999.951,359l-1.4-6.687-4.838,4.432,1,3.831-0.8,2.525-2.614-.172-1.248,2.252-3.825-.029-2.669-4.349-2.71-.191-4.772,4.219-1.407,7.443-0.254,2.344-2.891,1.56-9.213,1.912-3.224-4.428-2.732-.47-2.383-1.449-0.28-1.372-0.127-2.792-4.038,1.064-1,1.391-2.2.356-1.045-1.121-0.365-3.4-0.559-1.788,1.369-2.669,1.611-5.035-1.315-.089-7.456,3.342-3.256-4.225-6.071-.089-0.127-2.519-2.5-2.614,0.785-1.039-0.886-2.449-3.494,1.312-2.472-.966-1.105-2.4-0.083-6.582-4.009-.1-0.543-3.971L922,330.243l-3.479-2.262-3.857-9.819-0.2-1.245-3.8-2.853-10.166.839-3.228-2.713,2.916-1.658-0.216-1.191-2.541-4.727,1.08-2.462,3.059-1.82,0.5-1.3-1.452-2.249,1.442-1.579,4.921-1.785,2.5-7.63,7.332-3.351-1.792-5.1Z" transform="translate(-4.833 -52.689)" fill="#ff8080" stroke="#000"/><path d="M900.615,296.775l1.452,2.249-0.5,1.3-3.059,1.823-1.08,2.459,2.541,4.727,0.216,1.191-2.916,1.658,3.228,2.713,10.166-.835,3.8,2.849,0.2,1.248,3.857,9.816L922,330.235l-7.192,3.745,0.543,3.971,4.009,0.1,0.083,6.582,1.105,2.4L923.017,348l3.494-1.312,0.886,2.449-0.785,1.036,2.5,2.614,0.127,2.519,6.071,0.089,1.226,1.652-1.407,1.029-3.491,4.9,4.428,0.016,0.588,3.726-1.846,1.951L933.1,368.1l-5.845.743,0.991-1.372,0.623-2.777-3.593-4.273-1.252-.416-3.882,3.145-3.939.1-2.224,1.382-2.522.187-0.581-1.169-0.359-1.28-4.857-1.833-2.6-2.986,3.564-5.486-3.59-3.927-0.658-2.491-0.184-2.465-2.392.2-6.236,2.748-1.588-3.8-2.742.546-1.982,1.728,0.032,5.27-1.163.673-1.919,9.06,1.906,1.862,2.726,0.254,3.479-2.256,9.054-2.459,0.41,1.175-2.357,2.872L899,363.384l-0.813,2.211-4.791,1.385-6.722.88-1.217-3.971-6.392,1.976-1.677,1.9,2.44,4.775-0.515,1.274,9.244,10.966-5.083,1.7-2.91,2.875-4.057.7-2.208,1.464-6.693.877-1.763-4.988,6.334-6.306-5.982-1.512-2.357,3.478-9.981,5.324-7.977-2.551-1.395.28-1.493,2.417-2.4-3.11-3.971.28L834.38,384.1l-4.088-.464-0.445-1.029-1.105.743-6.322-1.833-1.935-1.8-5.264-.68-2.411.14-3.323,3.561-3.561-2.805-11,1.674-3.4,2.249-0.117,3.974-5.588.3-0.229-3.879,2.109-4.711-1.207-2.3-0.591-2.824-0.143-5.477-8.358-9.47,1.09-4.679,5-2.316,3.374,2.294,2.751,0.159,1.121-.816-2.646-3.094,0.1-1.391,4.66-2.7,1.433-2.379,1.611-13.25-2.484-3.078,3.806-1.118,3.272,2.256,2.656-.054,2.087-1.493,0.067-1.331-1.709-3.653,0.839-8.021,2.586-2.818,6.69-4.368,0.743,1.2,7.021-.2,4.714,3.072-0.546-1.274,2.316-4.648-2.58-.978-0.235-2.592,6.9-.486,2.186-3.485-0.219-2.805,6.3-2.757,2.033,3.561,8.819,4.158,2.653-.648,0.616-4.044,1.607-2.249,1.248-.623,4.038-.832,2.4,3.374,2.58-.486-1.763-3.377L867,284.448l-3.091-9.756,5.159,0.089,3.774-1.309,0.943-.943-0.461-2.621-3.9-5.1,0.2-4.184,1.566-3.539,0.283-2.475,2.376-.861-2.888-2.859,0.7-2.627-0.816-1.121,0.848-3.771-3.774-4.063,0.918-6.766,2.63-.229,3.51-4.244,0.079-2.792-1.395-2.462,1.029-2.637,4.841-1.922-0.213,1.36,3.939-.667,1.048,0.893,1.055-2.529-1.366-3.8,1.236-.6,5.21,1.5,4.193,4.994,0.511,0.985,3.263,0.127,3.7-1.607,1.039-2.37,4.025-3.625,2.961,6.131,2.44,1.061,13.8-6.284,1.391,0.054,2.7,6.414,2.773,3.047-0.359,2.767,2.1,1.544,1.267-.2,1.325-1.874,4.152,3.234,6.42-5.15,5.191,1.115,1.992-1.671,3.145,1.391-1.051,7.513-2.576,1.163-2.392,5.032-0.079,2.834-2.853,2.907,1.811,5.267-1.607,2.135,0.689,2.465,1.935,1.671-0.915,3.914-2.4,1.388,0.162,1.391-1.223.391-1.506-2.087-3.669-.874,0.534-3.374-4.962-4.9-4.225.229-1.045.956,0.689,2.63,4.832,2.91-4.962,4.555-13.8,3.539-3.4,2.535-0.889-4.015-3.066-2.29-5.315.032-5.966-3.291-0.537,2.608-2.252,1.617-2.481,4.543,0.241,6.506,4.555,3.307,4.162-.778,3.838,1.614,2.249-1.722,4.034,0.5,1.792,5.1-7.332,3.348-2.5,7.634L902.06,295.2Z" transform="translate(-4.833 -52.689)" fill="#ff8080" stroke="#000"/><path d="M988.22,477.919l1.083-.864,1.464-8.113,3.253-4.349,2.541-1.63,3.234-2.6-5.7-3.622,1.353-2.332-2-3.478-3.745-1.588-4.708,2.58-3.736-1.785-2.637.388-1.982-4.479-1.214-.235,0.549-1.337-1.334-2.513-6.423-5.5,3.364-3.475-0.06-2.5-4,1.185-5.356-.21-0.7-1.2,0.813-4.1-4.568-2.691-2.98,2.561,1.506,3.583-0.721,1.147-3.59,1.858-2.182-4.857-1.706-2-3.745-.28-2.065,6.131-3.558-1.712L938.3,428.6l0.184-11.979-2.6-.4-1.147-2.4-2.468-.991-1.42-2.173L928.8,408.8l-1.264.559L926.22,411.8l-1.023,8.132-3.564,1.887-1.121-2.465,1.15-3.841-3-2.408-5.305-.861,0.654-5.194,1.973-3.463-0.588-2.611-4.984-2.017L908.6,395.25l-3.774-.477-1.592-.264-0.743-1.178,1.1-4.038-1.252-2.487-5.213.6-4.565-3.085-4.015.483-5.083,1.7-2.91,2.872-4.057.7-2.208,1.464-6.693.874-1.763-4.984,6.334-6.306-5.982-1.512-2.357,3.478-9.981,5.324-7.977-2.551-1.395.28-1.493,2.417-2.4-3.11-3.971.28-2.246-1.611-4.088-.464-0.445-1.032-1.105.746-6.322-1.833-1.935-1.8-5.264-.68-2.411.14-3.323,3.561-0.909,1.07,0.111,4.187-5.375,4.34-13.793-.064-1.96,1.973-6.376,6.719L779.225,405l-0.511,1.283,1.6,3.682-2.919,2.862-0.063,4.13,13.32-3.158,6.42,2.456,1.242-.629,5.07,2.271,3.869,3.679,8.139-1.563,2.211,1.69,4.3,6.408,0.734,1.172,2.313,0.75,1.769,2.865,1.785,6.55,5.159,6.544-1.341,1.954,0.508,2.3-3.155,2.735-2.681.7-2.919,4.438,0.067,4.244,4.066,5.775-2.792,6.29,3.85,2.246,6.986-3.475,3.949-6.8,1.013,4.692-0.81,2.487,1.213,5.267,3.622,1.773-2.9,5.743-6.4,3.126-0.457,5.172-0.2,2.7-3.926,3.545-2.154,1.614-3.965.156L824.9,505.21l-3.707.654-0.95,3.72,10.845-.477,1.642,4.857,5.416-.311,0.667,5.2-13.393.982-0.229,2.383-4.892,2.4-0.175,2.573,2.684,3.145-1.337,6.747,0.381,4.1,5.083,2.6,0.168,4.085-1.925,3.6-0.556,3.79,4.7,1.522-0.057,1.315-2.37.95,0.21,1.3,1.658,1.4,4.044-7.233,8.123-.4,1.236-5.359,1.163-.766,2.1-1.115,6.223,0.81,10.5-11.109,0.089,0.051,1.09,2.494-0.067,5.448,0.807,1.1,2.691,0.127,5.677-6.268,13.6-3.691,0.632,0.353,4.19-2.637,1.15-2.262,2.513-.283,4.241,0.515,2.532-1.137,2.255,1.6,9.12,2.3,3.961,0.48,5.766-3.243,4.768,1.973,0.778,1,4.975-.435,0.2-2.78,1.21-.693,5.331-1.436,6.827,1,4.5-4.8,1.687-.048,0.356-7.85,2.611-7.256,2.024-1.509,3.72,0.248,2.093-1.436,1.07-3.815,2.386-1.153,2.678,0.27,5.121-2.208,7.021-.422,4.924-5,2.2-1.541,2.43,1.013,3.923-.893,3.253-2.065-0.3-3.685-3.329-6.732-3.529-.988Z" transform="translate(-4.833 -52.689)" fill="#ff8080" stroke="#000"/><path d="M1099.892,418.558l-3.92-.553-3.993.956-2.052,6.166-5.083,1.214-2.024,1.519-1.379,4.641,0.477,5.531-2.062,2.04,1.086,2.449-1.49,5.083-1.909,1.82-0.124,5.331-4.314,2.7-1.344,2.186-0.089,2.646,2.24,4.556-3.742,4.371-2.713-.146-2.446,2.751,2.148,3.161-0.511,2.561-1.912,6.9-2.621-.235-1.458,3.863-1.02.743,0.5,2.354,0.785,2.449-2.319,7.821-24.645-7.2L1033.19,496l-6.506-2.2-7.411-11.1-3.752,1.331-1.007-.966-1.538-.038-2.065-1.655-9.2-.057-2.306-1.252-3.92.022-0.6,1.207-3.529-.991-3.129-2.376,1.083-.867,1.464-8.113,3.253-4.349,2.541-1.63,3.234-2.6-5.7-3.622,1.353-2.332-2-3.478-3.745-1.585L985,451.914l-3.736-1.785-2.637.388-1.982-4.479-1.214-.235,0.549-1.337-1.334-2.513-6.423-5.5,3.364-3.475-0.06-2.5-4,1.185-5.356-.21-0.7-1.2,0.813-4.1-4.568-2.691,4.9-2.354,1.258-5.238,1.76-2.16-1.226-.715-1.544-5.474-0.076-3.98,1.7-2.049,2.541-6.465,5.051-4.184,0.3-1.3-2.786-2.834,1.8-1.97,1.4-5.038-1.258-3.51,2.894-1.56,0.254-2.344,1.4-7.443,4.772-4.219,2.71,0.191,2.669,4.349,3.825,0.029,1.248-2.252,2.614,0.172,0.8-2.525-1-3.831,4.838-4.435,1.4,6.69,3.545-1.512,2.716,0.292,8.279-3.993,0.645-2.678,2.627,0.4,3.282,2.481,1.627-4.94,2.351-.346,0.511-1.194,1.01-2.09,2.624-.6-0.924-5.353,0.549-4.165,1.925-1.989-0.632-1.055,8.777-7.853,1.226-.553,3.482,1.951,3.266-2.462,1.039-2.548-3.9-.372-8.272-8.885,8.545-2.967,2.319,1.395,10.661,1.023,4.257-6.954,0.985,0.048,4.365,5.2,4.393,3,4.7-2.167,2.3,3.313,1.35-.108,2.827-2.8,5.073,1.795,4.073,0.01,0.41-4.168,6.039-3.237,0.34,6.922,4.88,12.9-1.763,3.834,1.41,1.982,2.036,1.9-1.045,8.3,1.163,8.371,2.63,0.33,1.315,13.355,1.719,7.866,1.026,6.655,2.376,4.651,4.009,3.332,1.08,0.581-1.814,2.98-1.341,3.9,1.379,5.21-1.477,2.36,3.278,6.128,0.861,6.423-0.947,2.468-2.351,1.182-5.369,3.161-5,.68-2.669-.594Z" transform="translate(-4.833 -52.689)" fill="#06c" stroke="#000"/><path d="M992.7,215.085l-1.56-7.723-5.286-8.958-0.667.184-0.537-4-3.606-3.99,1.6-5.089,1.661-2.1L982.5,178.5l-3.853-.727,0.845-6.776-1.779-3.523-2.481-1.28-3.078-2.287-1.36-4.746-17.958,4.787-8.177,1.763-4.946,2.383,0.318,4.1-3.2,2.294,0.7,5.318,2.151,5.013,5.359,0.5,1.553,5.245,1.947,2.008-2.719.718-1.528,5.2-4.108.705,2.494,3.031-0.225,11.824-3.93,5.944-0.94,5.613,4.152,3.234,6.42-5.15,5.191,1.115,1.992-1.674,3.145,1.391-1.051,7.513-2.576,1.159-2.392,5.035-0.079,2.834-2.856,2.907,1.814,5.267-1.607,2.135,0.689,2.462,1.935,1.674-0.915,3.914-2.4,1.388,0.162,1.391,0.337,2.8-1.121,2.57,1.07,0.918,10.779,2.592-0.013.146-3.612,2.027-9.387-.121-3.008,6.185,0.492,1.309-3.374,1.665,0.5,2.408-5,1.468-1.074,6.522,2.167,3.212,0.067,2.691,1.229,0.54L937.995,303l-4.235,3.332-7.945.21,0.769,3.113-3.3,6.585,3.952,4.041,0.727,2.64-0.8,2.583,2.338,3.107-0.667,3.914,1.433,2.294-1.884,1.925,1.14,3.205,4.292-1.839,2.951,2.214,5.528-7.38,3.9-.661,1.414-3.606,6.671,4.953,1.318-.454,0.651-2.637,7.173,2.646,1.973-6.3-1.093-3.914,0.464-5.34L963.568,317l1.684-3.364,2.309-1.226,2.227,1.207,3.9-.121,0.346-1.747,1.3-2.4,3.758-1.763,3.564-4.187,4.114-.111,8.244-.111-0.931,2.532-2.58.813-1.226,2.4,5.254,6.109-0.086,1.363,0.191,1.379,3.965,0.991,2.913,2.846,8.107-1.2,0.743-1.169,2.224,2.97,3.637,0.893,1.585-5.35,6.652-1.538,2.1-3.507,8.171-1.163,8.545-2.967,2.319,1.395,10.658,1.026,4.257-6.957,0.988,0.048,4.365,5.2,4.393,3,4.7-2.167,2.3,3.313,1.35-.108,2.824-2.8,5.077,1.795,4.069,0.01,0.413-4.168,6.039-3.237,1.7-1.827,0.753-5.7,2.052-3.777,6.017-6.023,0.467-.448,3.615-7.09-2.688-4.664-1.064-4.031,0.953-5.4-2.328-1.175,2.23-4.854,1.017-.712-7.275-14.826,0.346-.454,0.06-1.43-1.172-5.385,0.635-2.713,4.025-3.8-0.492-3.7,0.677-2.681-2.414-3.25-1.026-6.595,0.667-4.092,2.017-1.823-0.727-1.175-8.38-1.785-4.343-3.574-4.022-.035-3.653,1.661-4.39-2.691-1.287-2.376-5.842.569-2.243-1.134-2.761-4.374-0.369,1.264-6.544.594-4.46-2.456-0.13-.01-6.322,4.063,0.909,3.818-2.557,6.185-2.325-.143-3.336,3.93-5.077,1.061-0.823-1.023-1.8,1.706-0.515,3.926-1.763-1.89-1.21.569-1.912,3.793,0.527,2.757-7.672,5.642-2.17.975-4.435-1.747-7.659-.483-3.4-4,1.245-2.338-1.569-2.052-3.377-1.944-0.943.937-2.316-1.039-2.306.861-3.021-1.979Z" transform="translate(-4.833 -52.689)" fill="aqua" stroke="#000"/><path d="M897.06,124.347l-7.745,5.956-4.168-.6-1.093.889-3.177,2.287-2.383-.2L877.3,130.8l-1.49,1.785-2.481-1.093-0.991-3.374-0.794,3.669-4.667.3-0.794,1.49,5.461,1.687-6.156,1.684-0.6-2.681-3.078,1.785-3.774-.2,2.081,3.672-3.177,5.658-6.156,3.574-3.177.2-0.4,1.785,2.186,2.78-2.681.794,0.1,1.785,2.58,0.2,2.084,2.98-1.093,2.58,0.991,2.58,2.98-.4-2.383,3.876-0.1,2.78,3.971-2.287-1.29,3.774,1.1,1.687,3.272-1.687,3.374,2.084,2.98-1.29,0.3,1.785-1.493.991,2.78,2.681,0.3,1.191-1.493.1-5.756-4.168-1.785.7L862.5,184.1l-1.588,3.475,4.069,0.4,0.5,2.681-2.287,5.362,5.756-1.1,3.971-4.962,0.6,0.2,1.785,2.186-0.2,2.78,1.785,2.186,1.985,6.751v2.78l-3.078,2.78v1.391l3.774,7.246-0.3,1.391,3.971-.7,1.093,0.893,0.991-2.481-1.29-3.872,1.191-.6,5.162,1.493,4.27,5.064,0.5,0.991,3.275,0.1,3.669-1.588,0.991-2.383,4.069-3.672,2.98,6.156,2.383,1.093,13.8-6.255h1.391l2.681,6.452,2.78,2.98-0.3,2.78,2.084,1.588,1.287-.2,1.29-1.887,0.991-5.658,3.872-5.858,0.2-11.913-2.478-2.98,4.168-.7,1.49-5.261,2.78-.7-1.985-1.985-1.588-5.261-5.362-.5-2.084-4.962-0.7-5.362,3.177-2.284-0.3-4.069,4.861-2.383-26.9,3.275-0.2-.4-6.055-1.093-8.24-1.588-6.452-2.684-3.177-3.374-3.672-7.745,1.687-5.461,0.7-4.27,6.849-5.067-2.98-5.956Zm-72.668,28.689-2.878,2.481-2.78-.3-3.774,1.493-0.3,1.391,6.951,10.026-0.7,2.878,0.3,1.684,8.24,8.835,3.774,1.49,5.559-.889,3.374,2.478-1.391,4.962,1.687,3.177,2.081,0.893,1.29-3.672,3.971-3.177,3.275-2.98-1.887-2.186,5.162-2.481-0.3-2.98-1.985.6-0.991-2.081-1.785.4-2.98-5.956,1.391-1.191-2.98.4-0.991-2.878,1.29-1.687-0.893-2.186,0.3-1.29-1.191-.794-4.069-.2,0.3-3.971-1.191-.7-5.461-.794-2.084,1.49-2.481.7Z" transform="translate(-4.833 -52.689)" fill="#06c" stroke="#000"/><path d="M904.818,394.752l-1.592-.264-0.743-1.178,1.1-4.038-1.248-2.487-5.213.607-4.565-3.088-4.015.483L879.3,373.82l0.515-1.277-2.443-4.772,1.68-1.9,6.392-1.976,1.217,3.971,6.722-.883,4.791-1.382,0.813-2.211,0.419-2.322,2.357-2.872-0.41-1.175-9.054,2.459-3.479,2.256-2.726-.254-1.906-1.862,1.919-9.06,1.163-.673-0.032-5.273,1.982-1.728,2.742-.543,1.588,3.8,6.236-2.748,2.392-.2,0.184,2.465,0.658,2.491,3.59,3.927-3.564,5.486,2.6,2.986,4.857,1.833,0.356,1.28,0.584,1.169,2.522-.187,2.224-1.382,3.936-.108,3.885-3.142,1.252,0.416,3.593,4.273-0.623,2.777-0.991,1.369,5.845-.74,1.709,0.562,1.846-1.954-0.588-3.723-4.428-.016,3.491-4.9,1.407-1.029,2.036,2.58,7.456-3.345,1.315,0.092-1.611,5.035-1.369,2.669,0.559,1.788,0.365,3.4,1.045,1.121-0.737.762-0.3,1.194-2.821.159-2.859.677-1.528,3.567-2.653,3.161,0.673,1.226v7.094l-3.444-1.15-4.27,2.805-4-.6-2.541-3.081-2.522.734-2.043,3.695,0.283,4.127-1.858,2.116-0.33,4.073-4.981-2.017-1.808-3.711Z" transform="translate(-4.833 -52.689)" fill="#ff8080" stroke="#000"/><text transform="translate(994.963 231.048)" font-size="48" font-family="DejaVu Sans" font-weight="700">6</text><text transform="translate(874.707 155.086)" font-size="48" font-family="DejaVu Sans" font-weight="700">7</text><text transform="translate(833.834 293.382)" font-size="48" font-family="DejaVu Sans" font-weight="700">3</text><text transform="translate(1014.5 371.049)" font-size="48" font-family="DejaVu Sans" font-weight="700">5</text><text transform="translate(872.5 424.382)" font-size="48" font-family="DejaVu Sans" font-weight="700">4</text><text transform="translate(897.5 334.556)" font-size="26.7" font-family="DejaVu Sans" font-weight="700">8</text><text transform="translate(934.167 354.263)" font-size="35.036" font-family="DejaVu Sans" font-weight="700">1</text><text transform="translate(963.334 303.695)" font-size="48" font-family="DejaVu Sans" font-weight="700">2</text><path d="M654.437,520.941l-3.078,2.287-2.878,5.956-6.353-.1-0.991,3.971,4.069,3.774-5.261,4.066-0.5,3.672L630.713,541l-6.751-.6-1.588,5.067L619.3,547.15l-2.878,10.127-1.887,2.084-6.353,3.078-3.275,2.284-2.58-.492-2.186-.6-1.29,2.284-0.893,4.765,4.27,9.333,1.391-8.437,0.7,5.461,2.58-4.467,0.7,3.574-2.878,2.287,2.084,2.58,2.284-3.574,1.985,3.275,3.374,2.084,0.7-.7v-9.232l6.751,3.275,1.191-2.383-2.681-2.09,3.177-2.78-0.3-1.887-2.284.2,1.985-1.785,7.843,2.383,5.064-1.985,5.362,1.391,2.58-.991,1.191-2.478-0.991-2.481,4.467,0.7,1.191-4.168,3.275,8.638,1.29-3.078,1.684,5.261-10.521-4.168-0.4,1.887,12.408,7.942-1.191-2.383,3.872,1.093,1.191,2.481-0.6,3.374,0.991,5.162-3.275,5.559-0.6,4.667L658.3,596.5l-2.875,1.588-0.7-.893-3.475,2.684-7.046-1.191,0.5-2.98-2.383-1.887-3.475,1.49,0.5,3.872-1.887-1.684-0.7-5.261-4.168-.4,1.985,5.956-3.078,1.391,0.1-4.568-3.672,2.383-2.58-1.49,0.2,3.078-0.991.794-2.186-.893,0.7-4.568-3.774,2.081,0.7-5.064-1.887,1.887-0.6-3.971-4.368,2.98-0.991-2.58-4.069,1.985,1.588,3.574-2.878.1,1.887,2.878,5.756-.794-3.971,2.186,1.391,1.49,2.186-1.785,6.156,3.275,3.177,4.568,1.49,0.2,1.391,8.139,8.736,4.463,2.681-.6,2.58,1.191,3.971-3.876,8.237-1.287,6.156-2.98,4.168,0.6,8.835,3.971,4.27-9.927,6.353,1.287,1.687,1.985,1.29,2.383h1.49l6.751-4.765,5.658,0.1,5.461,1.49,1.391-.2,2.084-3.672,2.383-1.191h5.261l4.27,3.081,8.933,2.478,6.846,5.162,0.794,0.991,4.864,0.492,2.681,0.4,3.876-3.774,4.568,2.383,5.658-3.971-5.064-6.353-2.383-9.232-3.275-2.58-2.681-.794-0.893.991-2.186-2.284,3.774-5.658,3.672-.2,1.985-2.98,1.287,0.2,0.794-3.872-3.774-.6-0.6-1.093,1.785-3.574-0.4-3.971-1.588-.991-1.588-1.588-2.58.893-3.774-1.391-4.069.893-0.991-.991,0.1-3.876-3.272-2.58-4.962,1.49-3.971-.4-2.78,4.67-3.672-.3L712.3,567.1l0.5,7.052-3.672-.3-4.765,1.493-4.667.3-1.887-1.391,0.893-2.383-1.588-1.985,0.7-1.985-2.284-6.156-3.177-2.287,0.6-3.872L689.867,553l-0.893-1.1,0.893-4.066-1.093-.7-4.168-.6-7.246,3.971-3.669-1.785-2.481-2.875-0.3.2-2.084-1.391-3.672,1.887-3.374-2.383-0.893-.991,0.4-1.191,4.765-4.463,1.391-3.876-0.7-1.093-9.727-4.864-0.4-5.258Zm-26.008,50.532-2.084,3.374-1.985-1.1,0.794,2.084-1.191,1.887-1.588,9.133,0.5,3.478,0.5-.4v-2.186l2.186-.1-1.191-2.78,0.991-4.765,0.4-.7,0.5-.5,0.6-.3,5.461,0.4-1.191-1.391-3.078-.991Zm11.713,0.5-0.5,3.177-3.374,2.58,0.7,1.785-1.687,1.093,0.5,2.084,0.6,0.3,3.177-4.467,2.681-2.383-0.1-1.391-1.29-1.687Z" transform="translate(-4.833 -52.689)" fill="#ffc0c0" stroke="#000"/><path d="M582.267,468.03L578,471.6l-1.887,3.774-0.794,5.559-1.887,1.89-4.568-1.391-0.4,1.391-4.27.4-3.672,4.168-6.055,3.475-0.893,2.58-3.177,7.345-5.658,5.756-5.559-1.785-1.29-2.186-3.872.5-3.672-.893,0.3-3.574-3.374-5.461-6.452-.6-12.11,9.829-1.29,4.864-2.284-1.391-2.878,8.835-2.383,1.588-1.391,3.872-3.475-.3,0.4,2.681-3.774-2.284-0.6,3.971,1.391,3.672-4.568,2.681,1.588,1.985,3.475-1.785,7.643,0.3,1.588,1.687,5.064,1.093,1.985,5.064-2.58.3-4.765-2.287-4.864-3.272-1.687,1.093-3.078.6-2.58-.893-2.186,3.374,1.191,1.588,2.78-3.177,9.727,1.29,8.933,4.069,17.173,14.492,0.6-2.98-0.7-6.951,3.872-4.864-4.368-4.962,5.362,2.383,5.162-2.186,2.186-.4,4.765,0.991v1.391l-2.383.893-1.687,2.186-5.362-.2-2.186,1.588-3.574,3.872,0.4,1.29-0.5,1.29,0.893,5.362-1.49,2.287,3.574,7.64,10.324,6.951,4.864,10.226,0.5,8.539,0.991,5.362-1.49,3.774-1.391,2.284-3.672,1.887,1.49,2.284,0.5,6.751,2.481,7.942L549.3,623.8l4.168-.3,6.55,2.084,1.29-.2-1.985-3.669-5.956-5.956-0.7-2.684,0.3-2.78-2.084-1.588-1.687-6.652,1.093-12.31,3.672-6.255-3.672.893v-9.629l6.751,6.452,3.078,2.383-3.475-.7,1.985,5.461,8.736-3.374,2.78,1.687,0.794-3.475,2.78-.4v-3.475l5.261,8.037-1.687-9.133,1.191-.4,0.2-.1,3.774,7.745,1.985,1.687,2.383-1.29-0.7-6.751,1.687,1.785-0.2,1.391,4.368,3.177,1.887,6.849,2.78-4.069,2.084,3.574,6.156,0.2-5.658-8.04-5.858-5.162,3.774-3.774-4.667-3.374,4.568-3.177-2.186-8.04-2.383.2,0.3-4.67-2.98-4.066L591,550.237l0.991,1.985,2.186,3.374-0.3,2.58,2.383,0.794-0.893.991,1.191,3.574,3.672-.893,2.084,1.588,2.58,0.5,3.275-2.284,6.353-3.078,1.887-2.084,2.878-10.127,3.078-1.687,1.588-5.064-7.446-1.191-0.794-1.1,2.383-7.345-3.078-2.681,0.2-1.391,3.475-2.084-0.794-6.951,0.893-5.261-2.084-1.887-7.942-2.186-1.29-.2-1.49,2.284,2.98,2.681-0.5,1.29-2.681.5-2.481-.991-3.774,1.588-2.481-.89,1.985-2.084-1.093-2.58,0.893-5.461-0.7-8.339,3.872-1.191,1.785-6.751,1.985-1.985-8.04-2.78-3.078-8.736,0.6-2.58-0.893-.991Zm5.261,185.938-0.5.2-0.1.7,0.2,1.391,1.985,0.7,2.98,2.98,4.069,1.093,0.794,1.985,1.985,1.887-1.391-4.568,3.177-3.374-3.374.7-4.168-.794Zm-68.4,5.461-1.29.492-0.893,5.559-1.985,1.785-0.4,5.559,2.383,6.652,4.467,5.162-3.078,4.467,6.849,6.55,7.843,0.4,5.064-2.287,4.168,3.374,2.681-.2,3.672,2.084,5.559-.2,5.064,2.58,1.391,0.2,1.191-.6L564,699.224l4.667-9.927-3.574-1.887-7.049.4-4.467-3.177-1.391.1-6.452-4.368-3.971-11.516-2.681.7-6.55-1.687-3.078-2.478h-2.681l-0.893,1.093-0.2-2.78-3.872-1.093Zm101.853,15.388L619.1,676.9h-2.78l-1.588-1.1,0.2,3.374,0.6,1.29,1.687,1.191,4.667-2.878,0.2-3.475Z" transform="translate(-4.833 -52.689)" fill="#06c" stroke="#000"/><path d="M568.846,481.445l-2.6-4.721,0.149-11.309-2.424-1.455-5.616-.842-3.545-2.357,2.338-1.423,4.222,2.684,2.316-1.287,0.146-10.833-2.249-1.309L565,442.778l-0.032-2.707-3.768-.832-2.618-2.913-3.672.81-1.064-.766-5.41-4.7-2.6-5.1,0.753-7.186,1.941-1.925-0.124-5.734,0.956-1.07-3.59-5.674-0.222-2.627-3.18-2.545-4,.121,1.715-3.641-0.623-2.649,3.12-4.374,4.479-3.123,4.73-1.973,2.074,3.7,5.391,4.314,4.165,0.594,7.056,4.632,4.235-.165,2.446,1.341,4.222-8.009,2.7-.184,1.96-1.868-2.233-1.658-0.2-2.789-3.574-4.295,1.134-2.341,2.363,0.381L583.649,374l2.3-1.02,1.884,3.641,7.637-2.243,4.231,3.2,2.163-.591,0.746-4.965,1.855-1.827,1.233,0.422,4.276-7.834,2.259-2.945,1.951,1.773,3.11-4.1,0.6-4.969,7.6,3.927,10.639-2.163L643,363.985l0.975,2.151-0.562,2.389,1.449,2.141,0.772,7.7,3.58-4.082,2.853-7.834,0.874,1.067,5.321-1.064,6.611,1.652,0.457-2.551,7.043-5.3L674.99,360l3.92,5.048-1.191,2.03,1.242,1.76-1.083,2.452,0.88,2.633-0.848,4.063-4.222,10.127,1.169,2.506-0.454,4.009,2.4,0.778-0.267,3.148,1.347,1.82,1.175,8.177-1.849,1.792,1.468,2.081-0.559,3.977,1.229,2.414,4.562,1.992,0.442,5.207-1.156,1.493,1.35,0.032,0.3,1.315-4.165,3.269-1.976,6.185-0.874,6.766,1.036,2.576,4.765-2.614,2.713,0.1,3.539,1.674,4.629,4.752-6.712,5.149-2.271,3.625,2.167,6.2,2.472,3.113,2.275-1.2,4.127,0.051,2.64,3.088,2.716,0.5-0.756,3.523-2.081,1.792,1.747,6.573,0.584,1.248,2.716,0.346,2.452,3.259-0.213,2.732-2.4,3.329,4.635,1.846-2.227,5.89,4.711,4-1.947,3.2,1.706,2.23-1.287,5.461,4.282,3.52-0.451,2.417-3.933,3.221,0.553,3.847,2.449,1.239,9.146,1.1,2.516,4.638,0.152,2.561-4.87,7.449,1.741,3.418-1.09.854-3.749-1.1L703.5,554.525l-4.835,6.56,3.609,1.8-4.457,5.048-2.259-6.239-3.212-2.265,0.581-3.869-2.992-2.611-0.924-1.042,0.931-4.047-1.179-.74-4.142-.537-7.214,3.9-3.676-1.792-2.5-2.846-0.26.178-2.084-1.344-3.7,1.919-3.326-2.449-0.966-.928,0.454-1.258,4.781-4.486,1.328-3.774-0.7-1.14-9.683-4.9-0.467-5.229-2.176-1.483-3.008,2.256-2.881,5.972-6.347-.089-1.064,3.98,4.095,3.8-5.28,4.012-0.457,3.685-8.755-3.587-6.728-.6L616.51,539.2l-0.743-1.061,2.322-7.345-3.075-2.694,0.273-1.369,3.44-2.151-0.845-6.893,0.912-5.3-2.039-1.874-7.932-2.163-1.353-.172-1.487,2.2,2.983,2.722-0.508,1.267-2.608.489-2.548-.969-3.7,1.531-2.491-.826,1.916-2.068-1.071-2.6,0.947-5.489-0.734-8.355,3.9-1.166,1.76-6.741,1.995-1.982-8.012-2.8-3.148-8.723,0.632-2.583-0.861-1.007-12.164-3.024L578,471.624l-1.89,3.764-0.775,5.553-1.9,1.887Z" transform="translate(-4.833 -52.689)" fill="#ff8080" stroke="#000"/><path d="M827.108,560.355l-0.21-1.3,2.37-.95,0.054-1.315-4.7-1.522,0.556-3.793,1.925-3.6-0.168-4.085-5.083-2.6-0.381-4.108,1.337-6.744-2.684-3.145,0.175-2.576,4.892-2.4,0.229-2.383,13.393-.978-0.667-5.2-5.416.311-1.642-4.861-10.845.48,0.95-3.72,3.707-.654,0.346-2.538,3.965-.159,2.154-1.614,3.923-3.545,0.2-2.7,0.454-5.169,6.4-3.129,2.9-5.74-3.622-1.776-1.213-5.264,0.81-2.487-1.013-4.7-3.949,6.808-6.986,3.472-3.85-2.246,2.792-6.287-4.066-5.778-0.067-4.244L827,453.677l2.681-.7,3.155-2.735-0.508-2.3,1.337-1.957-5.159-6.541-1.785-6.55-1.769-2.862-2.313-.753L821.9,428.1l-4.3-6.4-2.211-1.693-8.139,1.566-3.872-3.682-5.067-2.268-1.242.629-6.42-2.459-13.32,3.161,0.063-4.13,2.919-2.865-1.6-3.682,0.511-1.28,1.957-4.015,6.376-6.716,1.96-1.973,13.793,0.06,5.372-4.34-0.108-4.184,0.909-1.07-3.561-2.805-11,1.674-3.393,2.249-0.117,3.974-5.588.3-0.229-3.879,2.109-4.711-1.207-2.3-0.591-2.824-0.143-5.477-8.358-9.47-8.009-.149-1.493,3.841-2.068,1.722-4.562-2.449-2.846,6.106-1.242-.931-3.069-4.368-0.292-2.627-0.311-4.263-6.49-5.5-2.011-5.261-3.71-2.109-7.056.3-3.774,3.755-6.63-.537-0.766,2.7-12.408.394,5.108,7.7,0.137,2.71-1.617,3.675-3.739,5.867-3.218,2.662-1.388,2.151,0.842,7.789-2.6.772-1.684,2.144-3.968-.2-0.451,1.3-3.069,4.632-8.4,7.341-5.375-.159-0.82-1.128-2.564,3.046,1.175,8.18-1.849,1.788,1.468,2.081-0.559,3.977,1.229,2.414,4.562,1.992,0.442,5.21-1.156,1.49,1.35,0.032,0.3,1.315-4.165,3.269-1.979,6.188-0.87,6.766,1.036,2.573,4.765-2.614,2.713,0.1,3.539,1.674,4.629,4.756-6.712,5.146-2.271,3.625,2.167,6.2,2.472,3.113,2.275-1.2,4.123,0.054,2.643,3.085,2.716,0.5-0.756,3.523-2.084,1.792,1.75,6.576,0.584,1.245,2.716,0.349,2.452,3.256-0.213,2.732-2.4,3.329,4.632,1.846-2.224,5.89,4.711,4-1.951,3.2,1.709,2.23-1.287,5.461,4.282,3.523-0.451,2.414-3.933,3.221,0.553,3.847,2.446,1.242,9.149,1.1,2.516,4.638,0.152,2.561-4.87,7.453,1.741,3.415-1.09.854-3.749-1.1-12.815,3.838-4.835,6.557,3.609,1.8-4.457,5.048-0.67,1.919,1.617,1.989-0.966,2.392,1.951,1.385,4.629-.276,4.733-1.48,3.736,0.283-0.5-7.043,4.759-2.017,3.669,0.314,2.729-4.635,4.044,0.413,4.927-1.522,3.243,2.592-0.067,3.9,1.029,0.921,4.038-.912,3.774,1.458,2.6-.94,1.572,1.6,1.547,0.975,0.413,3.968-1.741,3.622,0.6,1.055,3.736,0.569-0.807,3.9-1.242-.187-2.055,2.983-3.663.162-3.777,5.731,2.179,2.227,0.978-1,2.668,0.8,3.212,2.624,2.4,9.2,5.089,6.344-5.664,4.038-4.565-2.383-3.9,3.7-2.614-.359-0.677,1.07-5.477-.737L729.6,620.3l-7.144-4.365-2.608,2.376,2.884,7.037-2.074,5.149,0.978,4.082,3.3,2.519,3.475-2.386,2.754,0.369,2.348-6.16,2.519-.953,4.7-4.463,0.794,4.079,2.611,3.224,4.069,0.9L753,629.247l2.8-.178,3.05,2.881,10.744-2.608,0.731-8.209,3.5-6.023,0.642-6.935,0.283-.152,4.775,1.96,5.369-.356,0.969,0.947-1.512,3.571L789,616.918l7.415-5.375,4.962-1.627,2.776-.4,0.689,1.226-1.1,5.267,0.905,1.067,5.458,0.95,2.961-2.792,0.48-9.68,2.554-1.172,12.18-3.393,0.454-2.713-1.814-3.555,1.931-9.413-2.249-1.963,1.245-.527-0.559-6.582,4.333-3.186,0.318-1.312,0.137-5.569-3.3-4.378Z" transform="translate(-4.833 -52.689)" fill="#ffc0c0" stroke="#000"/><path d="M503.84,495.925l-6.652,6.452-3.872-1.093-3.971,1.191-1.588,3.574-0.5,2.681,1.985,0.2,2.58,8.139,5.956-2.081-1.191-7.942,1.985,4.667,4.765-4.168,0.794-3.177,2.878,0.893,0.5-2.284-2.78-2.58,0.7-3.672Zm-27.993,8.638-1.588,3.475-4.168-.5-2.186,1.89-5.461-.1,0.2,1.391-4.962,4.168-8.139,4.168,0.5,2.684,11.614,13.4,2.58,0.4,4.765-2.681,3.574,1.191,1.191-.794,5.461,0.4,2.383-1.191,3.574-4.273,0.6-4.066,2.878-2.383,1.785-4.962-1.785-6.055-1.887-.3-2.284-4.467-1.093.7Zm-26.011,48.445-3.374,1.093v2.084l1.887,2.186,3.374,2.58,1.985,0.794,0.7,1.191,2.78,0.794,2.878,2.081h0.7l3.475-.991,2.284-1.588,1.588,1.29,1.391,0.3,1.588,1.49,1.391-5.362-4.168-3.774-4.27-.4L451.929,553l-2.093.006h0Z" transform="translate(-4.833 -52.689)" fill="#ff8080" stroke="#000"/><path d="M583.659,374l-0.121,3.825-2.363-.384-1.134,2.344,3.574,4.292,0.2,2.792,2.233,1.658-1.96,1.868-2.7.184-4.222,8.009-2.446-1.341-4.235.165-7.056-4.632-4.165-.594-5.391-4.314-2.074-3.7-4.73,1.973-4.479,3.123-3.12,4.374,0.623,2.649-1.715,3.641,4-.121,3.18,2.541,0.222,2.63,3.59,5.674-0.956,1.07,0.124,5.734-1.941,1.925-0.753,7.183,2.6,5.1,5.41,4.7,1.064,0.769,3.672-.81,2.618,2.913,3.768,0.829,0.032,2.71-3.412,5.817,2.249,1.309-0.146,10.83-2.316,1.29-4.222-2.684-2.338,1.423,3.545,2.357,5.616,0.842,2.424,1.455-0.149,11.309,2.6,4.721-0.426,1.344-4.193.464-3.723,4.155-6.042,3.472-0.858,2.522-3.24,7.37-5.582,5.794-5.629-1.83-1.239-2.176-3.9.549-3.653-.886,0.289-3.6-3.367-5.48-6.493-.575-12.129,9.8-2.751-2.494,0.4-2.669,4.308-1.287-5.159.753-1.588-.791-6.633,6.5-3.942-1.061-3.946,1.2-1.588,3.5-2.176-1.719-5.912-12.65,1.283-4.063-0.788-2.8-0.216-2.208L479,485.069l1.236,2.411-0.743,2.44-3.609.712,2.681,0.575,3.7,7.256-1.039,2.112,2.233,0.756,1.4,3.056-0.384,1.541-1.105.721-7.481-2.112-1.639,3.555-4.184-.534-2.125,1.849-5.531-.044,0.286,1.328-5,4.241-8.186,4.117-1.477-4.006-5.184-6.706L442,501.493l1.2-2.545,2.3,0.511-2.954-1.68,2.78-5.553-1.941-.168,0.82-2-3.364-2.02,0.184-2.379-1.391-.918,0.038-4.829,3.961-4.174,0.092-1.42,1.007,0.181,0.086,3.885,2.694,3.005L452.368,484l1.379-.089,3.526-4.238,4.092-.327,2.36-4.756-0.251-5.181,7.742-2.929,3.374,2.167,2.783,0.054-1.487-2.125,0.4-6.833-2.417-7.834,1.369-5.035,3.895-1.283,1.039-2.637-3.5-6.026,2.109-3.574-0.01-2.586-2.189-1.391-0.562-2.532-1.363-.1-1.226-2.449-1.283.47-6.452,4.838-5.315,1.026-0.718,4.038-1.1.826-3.215-2.116L453.9,426.9l-3.282-3.98-5.423.3-3.58-4.123-4.044-.651-2.252-1.639-5.467.521-2.062,1.868-2.176-1.347-4.114-.127-2.087,1.82-2.421.921-5.146-1.2-2.151-8.161-3.215-4.66-3.695-15.083-7.268-4.022-0.594-1.3,0.9-1.109-0.928-5.607,2.379-3.507-3.52-1.938-6.731.762,0.883-2.653-0.753-4.092,3.323-2.443-0.988-2.186,3.243-4.289-0.3-2.748,3.688-1.668L397,352.081l6.6,0.219,4.937-1.919,8.787-5.975,15.1-5.982,3.113,2.468,5.6,0.537,9.683-1.846,4.39-1.2,2.78,2.745,5.28,0.2,1.166-.715,0.318-2.662,6.22,5.5-4.282,5.293,1.153,2.5,4.336,3.421,3.685-3.86,3.8,0.623,4.174-3.685,6.76-1.334,3.361-2.24,3.383,5.3L496.963,352l2.043,1.372,0.753-2.589,3.971,0.073,2.437,1.007,1.9,3.545,3.691,1.309,0.388-1.274,4.53-2.211,3.907-.473,7.233,3.186-0.883-3.825,3.615-3.891,2.491-.991,3.777,1.134,1.156,0.727,3.459-2.154,3.577,1.449,3-2.722,1.773-3.663-1.728-2.176,0.14-2.805,1.668-3.853,2.608-.943L553.8,329.9l4.8,0.48,0.75,1.026,1.274,0.162,2.259-2.983,1.28,0.048,1.855,1.9,4.076-.515,2.306,1.493,2.719,0.076,1.49,2.313,3.974-.438-0.6,2.8,1.881,6.827,3.625,1.541-0.473,3.927,5.477-.245,4.292-3.243,5.324-.959,10.226,3.2,3.926-.375,3.647,5.6-0.6,4.965-3.11,4.1-1.951-1.769-2.259,2.942-4.276,7.834-1.233-.422-1.855,1.83-0.746,4.962-2.163.594-4.231-3.2-7.637,2.243-1.884-3.641Z" transform="translate(-4.833 -52.689)" fill="#ffc0c0" stroke="#000"/><text transform="translate(485.604 382.715)" font-size="48" font-family="DejaVu Sans" font-weight="700">6</text><text transform="translate(611.298 411.715)" font-size="48" font-family="DejaVu Sans" font-weight="700">3</text><text transform="translate(742.798 440.715)" font-size="48" font-family="DejaVu Sans" font-weight="700">4</text><text transform="translate(660.798 547.215)" font-size="48" font-family="DejaVu Sans" font-weight="700">1</text><text transform="translate(550.875 494.119)" font-size="48" font-family="DejaVu Sans" font-weight="700">2</text><text transform="translate(459.208 478.372)" font-size="26.7" font-family="DejaVu Sans" font-weight="700">5</text><polyline points="502.18 452.569 498.872 453.806 498.203 455.691" fill="none" stroke="#000"/><polyline points="496.779 459.623 493.333 464.377 488.167 466.359 482.63 475.549 480.167 481.549 479.167 487.715 476.667 494.119 475.34 502.715 468.333 517.846 459.624 529.443" fill="none" stroke="#000" stroke-dasharray="4.185 4.185"/><polyline points="458.368 531.116 457.167 532.715 455.328 531.928" fill="none" stroke="#000"/><polyline points="451.771 530.406 444.706 527.382 434.333 521.049 428.833 508.549 430 494.119 436.833 480.049 442.722 469.773" fill="none" stroke="#000" stroke-dasharray="3.87 3.87"/><line x1="443.684" y1="468.094" x2="444.678" y2="466.359" fill="none" stroke="#000"/><polyline points="597.479 511.542 592.583 512.882 591.917 518.785 593.121 522.715 593.583 526.715 595.667 530.297 599.167 535.049 601.917 539.049 599.333 544.049 596.917 587.715 601.917 594.215 617.54 610.215 626.491 622.538 601.561 639.215 568.167 647.715 558.167 650.049 542.667 649.328 512.333 644.549 494.833 635.882 488.333 620.049 491.667 597.049 482.63 534.09 482.427 478.372 486.301 470.861" fill="none" stroke="#000" stroke-dasharray="4"/><path d="M874.7,220.594l4.841-1.922-3.774-7.287,0.051-1.407,3.05-2.751,0.035-2.8-1.976-6.757-1.833-2.135,0.191-2.792-1.769-2.2-0.543-.2-3.968,5-1.97,6.341,2.24,1.576,1.944,0.022-3.507.883-2.58-3.984-2.173,1.709,0.985,4.32-3.656.041,0.022,4.594,1.051,0.94-1.239.1-1.236.737-1.757.067-0.461,1.785-2.074.1,0.1-1.125,1.563,0.353,0.206-1.614,0.81-.359-0.318-.766,2.144,0.47-0.048-5.118,1.9-1.544-2.329-.81,0.524-2.275-3.764-.048,3.911-1.3,3.208-3.4-0.457-4.26-4.038.111,0.435-2.268-2.354-.365,1.4-1.458-1.957-2.408-1.163-3.405-1.264,1.2-3.348,3-3.965,3.12-1.3,3.714-2.039-.88-1.731-3.161L842.166,185l-3.425-2.443-5.534.839-3.717-1.515-8.263-8.841-0.28-1.674,0.6-2.815-3.539-1.919-2.294-3.418-1.337.394-5.245,7.9,3.507,3.863-2.811,4.289-3.593.1-1.706-1.785,0.353-9.626-2.151-.813,0.146,5.81-3.485,5.674,0.054,1.363-2.106.638,0.226-7.418-3.085-.505-1.417-7.075-4.416-1.9,0.365-3.774-3.263-4.679,3.158-3.412-4.5-.324-7,6.061,0.181,1.417-1.141.626-2.656.851-2.938,4.5-2.4-.6-1.007-2.011-3.625-.477,3.361-3.193,5-5.08-1-1.464,6.89-10.258-4.368.292-3.377-2.113,0.734-3.158-1.684-3.132L766.5,136.63l-0.864,4.038-5.169,4.667L750.053,149.5l-2.2,3.4-5.2.6,1.687,1.792-2,1.56-1.156-5.356-4.562-2.506-13.409,3.231,0.851,2.614,4.832,1-1.007,4.7-7.615,6.8-7.808,3.618-5.667.6L699.6,180.2l-7.758,9.632-6.474,5.057,7.113,3.755,0,0.005-7.106-3.751-0.966.867,0.4,4.663,2.44,3.075,2.09,6.16,1.573,5.439,0,0.007-1.57-5.429-2.09-6.16-2.44-3.075-2.948.959-4.514-.626-3.256-4.346-3.3,1,1.89,9.781-2.7,4.775,2.56,2.837-1.115-.273-2.271-1.769-5.925-9.9-2.125-2.551,2.344-2.367-3.151-.3,0.762-1.172-1.4-3.939,2.014-3.571-15.245-6.481-2.538-6.071-2.745.2-4.565-3.005-0.471.255,0.443-.246-2.681-.492-1.49-2.383,2.284-5.067-0.7-2.58-1.985-10.423-0.991-5.064-1.29.2-4.368-4.86-2.084-3.177-2.383,1.093-3.774-.794-2.58-9.432-8.835-4.168-1.985-3.774-3.774-1.687-0.893-2.58,3.774-3.872-2.383-2.084,3.475-5.956-3.774-.6-1.985-3.475,0.1-2.684-2.186,3.876-8.539.1-7.049-1.887-3.078-3.872,4.765-1.785-8.933-.794-0.6-1.684,9.927-5.162,0.6-1.29-1.687-2.284,0.1-4.069-2.58-.991L572.223,81.6l-5.162-1.785L561.8,84.286l-2.383,11.02-2.186,1.785,0.794,4.168-0.794,1.191-3.574.7-1.391,2.084-1.191-5.261,2.481-1.391,4.069-3.971,0.6-8.736,7.446-10.413-7.643.486,4.27-7.049-1.49-3.872-1.29-.7,2.383-1.287,2.681,2.186L562,60.953l-3.475.3,6.766-7.078-7.148,6.452L551,62.017l-7.246,4.864-4.27.5-1.391,3.971-1.391-.5-2.98,2.58-2.58,5.067,0.7,2.478-6.951,8.641,0.5,5.461L523.491,91.8l-2.383.893,7.345-8.638,1.985-6.156-1.391-4.962-3.177,1.684,2.284-6.55-2.681-6.652-2.681-.4L518.92,64.8l-5.362,9.727-1.391.1-2.78-3.078-4.168,3.475-6.751-1.684L494.4,76.907l-1.391-.2-3.774,3.479-2.481-.5-0.7,1.191L480.1,83.069l-0.2,4.069-13.9,2.084-0.4-1.391,3.574-7.545-7.745,1.785-5.956-8.933L452.8,74.826,452.7,78l-1.49-1.985L447.736,78.3l-0.4-3.272,2.383-1.89-0.794-.492-5.756,3.574,0.991,4.568L440.687,78.6l-1.391.1-2.186,5.261,4.069,2.58L435.124,92l-3.672-1.687-2.78,3.078-1.785,6.849,1.191,5.461,4.168-.492,4.368,5.559-1.191,6.751,2.98-.6,3.723,2.375-3.752-2.356-2.935.6-0.534.705-2.668-.55-4.5,3.272-0.083,11.382,1.547,2.189,1.414,0.191,1.077,1.919-1.541,3.17-1.8,1.639-7.961.724-1.534-6.382-6.08.943,0.454,4.314-4.266,2.608-2.008,2.5-1.185,2.211,2.526,14.912,1.4,2.316,2.456,1.026-0.2,5.334L413,173.079l2.011,2.03,4.2-.349,3.825,1.887,1.347-.464,2.392,5.1-3.7,5.982,4.781,1.9,2.44-1.14,5.1,6.315,3.926,1.239-5.439,4.571-6.843,9.136-3.488,2.452-1.754,1.852,0.638,3.923-0.839,2.513,1.846,1.773-0.41,1.261,1.255,0.149,0.753,2.414,3.637,0.727-0.054,1.309,2.688,2.678,3.895-.3,1.083,2.386-4.27,3.634-5.057,2.4-3.707,4.216-0.391,8.275-0.791.788,0.241,2.672-1.468,2.217,14.184,4.644,0.33,2.767-2.4,9.378,1.776,1.989,2.182,11.068,2.589,0.1,3.062-2.977,2.4,1.372-2.522.959-4,7.024-2.646-.311-0.194,2.707,6.188,2.621,1.928,1.963,1.366-.216-2.147,4.648-0.178,3.936,1.169,2.37-5.006.832-1.02,3.9-2.516,1.106-0.6,5.515,3.993,7.322,5.045,2.125,0.346,2.741,0.438,2.637-1.258.451-5.067-1.63-6.363,1.436,0.492,1.735,3.113,2.465,5.6,0.537,9.683-1.846,4.39-1.2,2.78,2.745,5.28,0.2,1.166-.718,0.318-2.662,6.22,5.5-4.282,5.293,1.153,2.5,4.336,3.418,3.685-3.86,3.8,0.626,4.174-3.688,6.76-1.331,3.361-2.243,3.383,5.3-0.381,2.551L499,353.785l0.753-2.592,3.971,0.076,2.437,1,1.9,3.545,3.691,1.309,0.388-1.274,4.53-2.208,3.907-.477,7.233,3.186-0.883-3.825,3.615-3.888,2.491-.991,3.777,1.137,1.156,0.727,3.459-2.157L545,348.807l3-2.719,1.773-3.663-1.728-2.179,0.14-2.805,1.668-3.853,2.608-.94,1.331-2.338,4.8,0.483,0.75,1.026,1.274,0.162,2.259-2.986,1.28,0.051,0.009,0.007,1.855,1.9,4.076-.515,2.306,1.493L575.12,332l1.49,2.313,3.974-.438-0.6,2.8,1.881,6.83,3.625,1.538-0.473,3.927,5.477-.245,4.292-3.243,5.324-.959,10.226,3.2,3.926-.375,3.647,5.594,7.6,3.927,10.639-2.167,6.868,9.689,0.975,2.151-0.575,2.4,1.461,2.138,0.772,7.7,3.58-4.082,2.853-7.834,0.874,1.067,5.321-1.064,6.611,1.652,0.457-2.551,7.043-5.3,2.618-.254,3.92,5.048-1.191,2.03,1.245,1.76L677.89,371.7l0.88,2.633-0.848,4.066L673.7,388.529l1.169,2.506-0.454,4.009,2.4,0.778-0.267,3.148,1.328,1.855,2.564-3.046,0.82,1.128,5.378,0.159,8.393-7.341,3.069-4.632,0.454-1.3,3.968,0.2,1.68-2.148,2.6-.769-0.839-7.789,1.385-2.151,3.218-2.665,3.742-5.864,1.614-3.675-0.137-2.71-5.108-7.7,12.408-.394,0.766-2.7,6.63,0.537,3.774-3.755,7.059-.3,3.71,2.109,2.008,5.258,6.49,5.5,0.311,4.263,0.292,2.627,3.072,4.368,1.239,0.931,2.846-6.106,4.562,2.449,2.071-1.722,1.49-3.841,8.009,0.149,1.093-4.679,5-2.316,3.374,2.294,2.751,0.159,1.121-.816-2.646-3.094,0.1-1.391,4.66-2.7,1.433-2.379,1.611-13.25-2.484-3.116,3.806-1.115,3.272,2.256,2.656-.054,2.09-1.493,0.067-1.331-1.709-3.653,0.842-8.021,2.583-2.818,6.693-4.368,0.74,1.2,7.021-.2L826.2,312.1l-0.546-1.274,2.316-4.648-2.58-.982-0.235-2.589,6.9-.486,2.186-3.485-0.219-2.805,6.3-2.757,2.03,3.561,8.822,4.158,2.649-.648,0.616-4.044,1.607-2.249,1.248-.623,4.038-.832,2.4,3.374,2.58-.486L864.55,291.9l2.459-7.046-3.091-9.756,5.159,0.089,3.774-1.309,0.947-.943-0.464-2.621-3.9-5.1,0.2-4.181L871.2,257.5l0.283-2.478,2.376-.861-2.888-2.859,0.7-2.63-0.816-1.118,0.848-3.771-3.774-4.063,0.918-6.766,2.63-.229,3.513-4.244,0.076-2.792-1.391-2.462Z" transform="translate(-4.833 -52.689)" fill="none" stroke="#000" stroke-width="4"/><polygon points="576.141 14.592 577.132 20.548 578.123 20.945 578.918 19.258 579.515 20.945 581.103 20.151 580.805 17.171 581.697 15.98 581.3 14.487 581.697 11.113 583.781 11.51 584.08 9.325 581.405 9.325 581.405 9.328 579.915 11.313 576.935 11.412 576.637 12.803 580.21 13.995 580.014 15.583 576.141 14.592" fill="none" stroke="#000" stroke-width="4"/><polygon points="423.562 36.527 425.646 37.02 427.333 35.828 427.93 34.542 427.434 33.252 426.04 33.052 424.849 33.846 422.069 34.148 421.872 37.023 422.469 38.313 423.562 36.527" fill="none" stroke="#000" stroke-width="4"/><polygon points="49.202 200.133 51.089 203.506 52.579 201.222 50.492 198.64 49.202 200.133" fill="none" stroke="#000" stroke-width="4"/><polygon points="300.86 59.463 303.541 60.455 304.933 60.455 305.924 59.362 307.214 59.165 308.307 60.054 311.185 60.251 312.278 61.938 313.072 60.747 312.576 58.663 309.997 57.57 308.011 55.486 304.431 55.289 300.063 57.77 299.866 58.466 300.165 59.165 300.86 59.463" fill="none" stroke="#000" stroke-width="4"/><polygon points="227.3 213.135 228.291 210.556 233.752 205.987 234.05 204.596 231.471 197.944 227.995 193.477 225.311 192.785 215.978 198.344 213.894 198.147 212.604 198.843 210.917 201.324 200.99 206.486 197.318 211.448 192.651 214.625 187.489 229.019 189.573 229.514 201.683 222.665 204.364 222.764 201.486 224.352 197.416 229.911 209.23 229.314 211.117 225.642 210.72 221.474 217.868 216.709 214.393 222.071 216.378 222.167 222.633 216.21 224.123 214.527 220.648 223.263 229.384 221.871 227.398 219.886 228.491 217.205 227.3 213.135" fill="none" stroke="#000" stroke-width="4"/><polygon points="29.833 173.13 26.955 173.032 25.068 172.041 25.764 167.974 23.68 167.974 22.489 166.189 20.51 165.484 19.814 165.881 20.608 167.072 20.31 167.768 19.318 168.759 17.927 169.356 15.147 168.864 11.672 170.055 10.281 172.438 4.423 175.418 2.536 178.496 2.634 179.093 3.33 179.29 4.82 179.192 11.669 176.809 12.365 176.612 13.756 177.108 14.747 178.099 14.449 179.49 10.776 181.774 8.991 183.858 12.365 184.455 13.159 183.363 15.938 182.568 18.321 179.093 23.88 178.791 26.758 175.614 29.538 175.316 30.529 174.223 30.431 173.527 29.833 173.13" fill="none" stroke="#000" stroke-width="4"/><polygon points="80.372 344.875 79.479 345.272 78.387 344.382 77.195 344.382 75.804 343.48 75.01 344.871 76.103 345.967 76.798 345.075 78.784 345.672 80.471 348.353 81.662 348.55 82.853 348.251 80.769 347.854 80.372 344.875" fill="none" stroke="#000" stroke-width="4"/><path d="M479.135,446l1.039-2.633-3.5-6.026,2.109-3.577-0.009-2.586-2.189-1.388-0.562-2.532-1.363-.1-1.226-2.449-1.283.467-6.452,4.841-5.315,1.023-0.718,4.041-1.1.823-3.215-2.116-1.452-6.477-3.282-3.98-5.423.3-3.58-4.123-4.044-.651-2.252-1.636-5.467.521-2.062,1.868-2.176-1.347-4.114-.127-2.087,1.82-2.421.921-5.146-1.207L409.7,411.5l-3.215-4.66-3.695-15.083-7.268-4.025-0.594-1.3,0.9-1.109-0.928-5.6,2.379-3.507-3.52-1.935-6.731.759-1.513,1.716L387,375.025l0.893-2.681-0.7-4.069,3.275-2.383-0.991-2.186,3.275-4.368-0.3-2.681,3.672-1.687,0.893-2.478,6.55,0.2,4.962-1.887,8.736-5.956,15.188-6.055-0.5-1.687,6.353-1.391,5.064,1.588,1.191-.5-0.4-2.58-0.3-2.78-5.064-2.084-4.069-7.345,0.7-5.559,2.481-1.1,0.991-3.872,5.064-.794-1.191-2.383,0.2-3.971,2.084-4.667-1.391.3-1.887-1.985-6.156-2.681,0.2-2.684,2.58,0.3,4.069-7.052,2.481-.89-2.383-1.391-3.078,2.98-2.58-.1-2.186-11.119-1.785-1.985,2.383-9.333-0.3-2.78-14.2-4.667,1.49-2.186-0.3-2.681,0.794-.794,0.4-8.244,3.774-4.27,5.064-2.383,4.27-3.672-1.093-2.383-3.971.4-2.681-2.681,0.1-1.391-3.672-.7-0.7-2.383-1.271-.194,0.394-1.182-1.785-1.785,0.794-2.58-0.6-3.876,1.687-1.887L427,209.24l6.849-9.133,5.461-4.568-3.872-1.191-5.162-6.354-2.383,1.191L423.03,187.3l3.774-6.055-2.383-5.064-1.391.5-3.774-1.89-4.27.3L413,173.1l-1.093-1.1,0.2-5.362-2.383-.991-1.391-2.383-2.58-14.893,1.191-2.186,1.49-2.878,3.971-3.177-4.27-3.078,3.374-5.064-3.672-.6-6.255,3.374-2.681-1.887-3.374.794-5.559-6.452-6.951-.893-4.168-.492-4.467,2.875-3.374-.4-1.985-4.066-2.383.6-4.168-3.475,1.687,7.843-4.168-4.864-5.362,10.127,1.785,11.316-1.887-.893-0.6-4.568-1.985.6,4.168,17.173,9.727,0.5L356.01,159.7l-3.078,4.765,2.58,4.368-2.084-1.49-3.574,1.391,2.98-2.284-0.794-1.29,1.191-2.186V158.6l-0.893-1.29-5.261-2.98-2.186-1.191-2.284-1.887-1.687-3.971-0.5-2.684,4.27-1.588-0.4-1.887-8.139-1.093-1.985,6.354-3.672,1.391-2.284,1.588,1.093,3.876-1.093,6.951,1.887,3.672,1.29,0.6-0.794,1.093,1.887,5.362-5.162-8.04,0.893-8.339-1.785-3.669,1.391-4.069-0.3-5.756-4.368-3.078,1.49-3.872-2.481-3.374-0.1-2.78,2.383-7.246-5.953-2.786-3.672,6.655L314.03,118.7l-0.991.2-2.284,5.064-5.362.794-1.093,2.58-3.872,1.191-0.7,5.559,5.559,0.5-0.794.4-6.055-.2-1.29.893,2.681,5.162-0.3,1.093-0.991-2.681-5.756-6.353-2.78.4-0.6,1.29-0.7-2.78-4.168-.2-5.559-.2-7.942,2.287v0l-6.652,1.985-6.849,7.243-2.58,3.774,5.858,0.7,1.588,1.785-6.751,1.191-3.275-.3,1.887-2.681-5.559,2.58-8.139.4-0.6,1.785-6.255,1.785,1.785,1.588-2.084,1.391-2.681-.89-1.191-1.1-0.2-1.191,2.186-1.093-2.481-1.093,4.069-2.287,2.284-4.86-4.27-1.785-1.49-1.979-1.785,2.684-1.785-.991,0.2-2.78-5.658-.4-12.9,8.24-9.829,1.191,1.191,2.383,8.539,4.568-9.333-1.588-0.7,2.383L196,153.45l-6.055,5.858-12.608,1.89-0.893-4.168-4.467,1.687-3.574-3.078,0.5,5.064-6.452-.3-0.7,5.956,3.971-.3-2.284,2.684,5.858,1.684,5.064,2.186,0.3,2.481,4.864-.2,6.255,6.849-2.58-.794-4.568-4.962-4.069.1-0.893-2.681-1.588-.1-4.568-2.284-2.878,1.687-1.391-1.785-8.933,2.084,2.58-3.275-3.078-2.383-2.481,1.191,0.2,7.446-1.391,3.774,4.27,0.889,2.58,4.864,8.24,0.4,11.417,4.069,1.385-.4,0.2,2.476-1.687-.893-4.667-1.985-0.3,2.084,0,0L168.6,188.4l-4.069-1.191-5.559-.5-1.985-.108,1.387,1.979-1.784-.5-2.481,1.29L155,186.8l-2.186-4.962-7.745-2.478-4.864,2.383-3.672.3-0.7.991-1.687-2.186-3.177,2.58-1.391-1.687-4.168.5-0.6,8.539-0.794-1.391-3.672-1.89-2.481.991-5.162,4.962-0.7,4.168-2.383,1.49-0.893,4.168-0.794,1.191-1.391.889-1.49,6.354,1.191,5.362,1.687,2.186-1.49.7,4.069,3.081,7.246-1.493,1.49-.991,1.687,1.093-9.035,1.89-2.084,3.971,0.7-3.275-1.093-.3-1.093,1.191-3.872,6.951-0.3,1.391,1.191,0.6-2.284,3.374-2.383,7.942,2.186,3.479,2.383,0.2,0.893,7.745,3.275,3.774-0.2,3.081-3.672,2.78-2.98-1.687-0.4,2.878,8.736-.991,2.481-1.29-1.985,1.687,0.794,1.093-1.391.2-4.168-.794-2.878,1.391,3.374,4.27-1.887,4.765,1.29,0.3-0.4,1.391,2.284,1.391,7.049-1.391,7.049,0.2,3.475-2.58,0.3-5.461,5.261-1.785,7.148,3.774,3.971,0.794,2.98,2.681,1.391-.3,3.872-.2,14.394-9.133,5.461,0.991,7.345-6.55,3.078-1.49-0.03-.335,0.03,0.31,3.574-1.264,2.85,0.143,3.812-1.808,5.362,1.194,1.02-5.464,2.856-.34,4.568,2.78,4.568-2.98h2.284l1.29-.991,1.29-.3,1.093-2.481,5.261-.7,5.162-3.774,3.971-1.093,9.53-7.745,1.191-1.687,1.093,0.3-11.814,11.119,2.681,0.7,3.475,4.466,2.58,6.652-0.3,1.391-5.461,4.568-0.991,2.58,1.191,4.069,2.481,0.89,6.55-1.684v0h2.075l-2.681,1.887-5.559,1.588,3.672,1.785-10.721,4.273,3.971,1.887-4.667,1.093-4.568,5.559,7.345-1.49,4.466,2.481,2.878-3.478,2.681-.4,4.765-2.875,2.681-.2-2.084,1.687-8.139,3.971,3.078,2.284,3.475-.492,2.98,3.971L249,288.062l6.156-1.191-4.765,2.58,1.29,3.672,10.82,0.3,3.475,0.6L262.01,295.9l-1.887-1.391-6.055,2.78-1.49-1.985-9.133,5.655-3.574-.89-0.794,1.287,2.58,1.493,5.658,3.374,3.177,4.864,5.956-2.78,2.878,4.27,13.4,1.093,1.49-.7-0.4,1.29,4.864,1.985L289.01,310.5l-3.177,3.177-0.3,2.98-2.383,9.035,1.391-10.521-6.951,3.078-5.162-3.374-14.3-.794,0.991,3.177-1.687-1.985-1.687-5.756-2.98,2.878-3.574.89v-1.684l-2.78-2.481-4.168.1,3.475-1.785-6.751-4.86-1.985.492,0.794-1.588,0.1-4.168,2.78-.3,2.084,2.186,1.29-4.069-11.814-1.49-8.638,4.765-3.872-.3-3.971,3.475-4.667.991-6.951-.6-3.574-5.956-9.829-.6-3.475,2.481-8.04,2.383-3.872-5.956,4.962-6.055-2.878-.6-4.168,7.843-3.177,3.475-4.467-4.27-1.093-4.168,2.186-1.785,1.49-7.049,2.084-3.774,0.6-2.383-2.084.6-4.069,1.29-6.055,6.156,2.98,12.31,0.3,2.287-2.78,3.078-4.568.991-1.985-4.667-2.98,2.481-5.559.4,4.069,1.985-1.785,8.037,3.177-2.186,4.368,2.78,4.168,0.794,6.452-2.58,3.672,3.672,0.1,3.574-7.942,2.681,2.481,1.391,3.275,12.805-0.4,7.243-1.985,1.985L166,345.939l2.681-.794,0.991-4.168,4.069-3.971,3.177-7.942L180.7,324.9l-1.191-2.681,1.191-2.481,1.29-.7,8.437-.893,5.461,1.687,1.887,2.084,2.78-.2,5.162,2.186,7.545,2.284,2.383,4.568,9.53-.2,1.985,1.588,0.991-.7,1.29,0.1,0.893,2.383,2.383,0.991,2.186,4.765,1.191,3.872-1.191,3.672,0.5,2.58,5.162,1.287,0.7,1.191,0.2,2.287,0.7,5.461-3.971,3.574v6.751l-3.672,5.064,0.2,1.29,6.255,2.98h0l-6.237-2.971-2.58.991-5.461-3.475-1.687.3,0.893,6.951-3.177-7.643-5.762-4.581-4.27,1.1-4.069,1.191-5.658-.5-4.568,3.177-6.951.7-2.78-.3L182.89,378.7l-4.168-.893-8.24.5-3.672,4.066-5.362-1.49-3.971.794-10.423,4.667-1.887-1.287-0.991,1.287-9.432-1.287-0.991,4.27-11.417-1.687-0.3,1.191,0.1,1.391,2.084,4.962-0.991.991-8.437,1.49,3.872,2.186,8.04,3.272,8.638,0.3,3.078,1.391,5.559-2.78,2.98,4.568,5.162,1.191,1.391-.1,2.284,3.374,6.255,2.681,4.568-4.667,1.687,0.5,1.588-2.186,0.6-7.745-1.687-.7,2.084,0.3,1.588-.991,1.29-.5,8.539,0.3,0.2,0.6-10.922,1.1-1.391,9.727,9.829,3.872,7.345,6.452,2.681-.1,11.217,10.127,2.681,4.962,3.275,4.368,6.751,13.009,1.985,4.962,7.246-2.78-4.765,4.467-0.7,3.872,1.985,6.452,1.29,5.658-0.6,7.345-8.139,4.368-0.1,1.391,1.887,1.887,0.6,5.461,12.211,0.1,6.849-1.093,3.672,3.177,3.971-3.275,0.2,1.29-2.186,1.985,3.672,0.893,10.623-1.191,3.872-1.1-1.985-5.858,0.893-.794,2.186,4.466,4.467,2.383,5.362-4.67-0.5-2.383,2.284-.3,1.191-8.24-6.055-1.687-2.78-5.858-5.461-6.353,3.971,3.078,3.971-7.942,3.177,2.383,1.49,7.345-0.794,6.849,0.794-.2,1.29-3.774,2.98-2.084,7.246-4.069,2.98,1.29-0.2-4.368-2.481-2.084,0.1-2.481-4.864-4.568-3.574,1.391-4.27-1.093-1.547-4.932,2.6,4.43,5.375-.68-0.531-5.359,1.947-6.319,2.271,0.222-0.041-1.833,3.72-.337,1.789-2.182,0-5.915-2.668-.928,2.732-.816-0.276-3.078-1.6-.75,2.344,0.62,1.893-1.725-3.98-3.6,0.3-2.935,1.258,2.764,4.193,2.408,0.534,3.5-0.81,3.993-3.05,1.128,0.044,2.9,3.409,0.07,3.434-3.914-2.942,4.441,6.82,3.329-1,.067-1.76-1-4.994-2.243-2.729.152-0.276,1.855-2.325,2.522-3.393.083-0.362,1.96-1.954-.064-1.236,5,0.543,5.048,3.656,2.735L283.6,455.5l-2.481,2.09,0.724,1.773,4.552,2.589-2.411-.753-1.1,1.938,1.849,2.754,2.5,0.1L287.6,469.5l2.287,0.311,1.652-1.519,2.316,0.117-0.87-3.923,1.585,2.97,2.208-1.671-1.468,2.074,6.728,5.293L291.7,469.606l12.24,5.928,17.841-3.069-1.982-2.748-2.167-8.539L322,457.96l-3.212.375-1.509-2.98,2.672,1.223,1.1-5.667,1.125,5.334,5.022-.165,2.29-3.666,0,0.014-0.565,4.161,1.626,3.656,2.217,1.7,1.731,3.78,3.907,1.363,1.788,2.128,0.254,1.372-2.132,1.668,0.842,1.112,2.637,0.68,5.886-3.641-3.243,2.719-0.518,2.792L342,477.9l0.381,2.707,11.56,12.519,1.341,4,3.9-1.226L366,496.784l0.975,2.071,2.1,0.429,3.631-1.442,6.859,0.842,6.131-3.536-2.1-6.935-2.884-.788,2.954-.585-0.318-3.177-3.183-3.736,2.271-2.6-1.29-.635,1.887-1.538-0.645,1.356,1.045,0.712-1.271,3.266,1.966,2.662,0.372,4.349,2.56,6.328,7.681-5.75,2.7-5.839,0.048,3.907,1.776-.673,3.907-1.553,5.54,1.1,3.517-2.217-2.722,3.135-1.636-.079L403.715,485l-7.8,2.344,0.016,3.482-1.957-1.484-4.025,4.063,0.172,2.014,12.014,8.809,2.456-2.087,4.235,0.728,3.383-4.994-2.106,6.255,8.46,2.519,1.43-.178,11.875,0.648,7.916,2.116,1.785-2.786-0.8-2.284,1.464-4.406-0.692-1.544,2.376-4.816-2.128-.762,1.356-1.766-2.932-1.966-0.48-3.053-1.395-.286,0.683-5.728,3.45-3.11-1.366-3.472-3.215-1.944,0.731-3.641,0.543,3.726,2.643,0.159,1.906,3.164,1.007,0.184,0.086,3.882,2.694,3.008,4.857,2.615,1.379-.086,3.526-4.238,4.092-.33,2.36-4.756-0.251-5.181,7.742-2.929,3.374,2.167,2.789,0.058-1.487-2.125,0.4-6.833-2.417-7.834,1.369-5.035Z" transform="translate(-4.833 -52.689)" fill="none" stroke="#000" stroke-width="4"/><path d="M1119.2,406.891l-3.278-6.128,1.477-2.36-1.379-5.21,1.341-3.9,1.814-2.98-1.08-.581-4.009-3.332-2.376-4.651-1.026-6.655-1.719-7.866-1.315-13.355-2.63-.33-1.163-8.371,1.045-8.3-2.036-1.9-1.41-1.982,1.763-3.834-4.88-12.9-0.338-6.891,0.031-.017,1.7-1.827,0.753-5.7,2.052-3.777,6.017-6.023,0.467-.448,3.615-7.09-2.687-4.664-1.064-4.031,0.953-5.4L1107.5,265.2l2.23-4.854,1.017-.712-7.275-14.826,0.346-.454,0.06-1.43-1.172-5.385,0.635-2.713,4.025-3.8-0.492-3.7,0.677-2.681-2.414-3.25-1.026-6.595,0.667-4.092,2.017-1.823-0.728-1.175-8.38-1.785-4.343-3.574-4.022-.035-3.653,1.661-4.39-2.691-1.287-2.376-5.842.569-2.243-1.134-2.76-4.374-0.369,1.264-6.544.594-4.46-2.456-0.13-.009-6.322,4.063,0.909,3.818-2.557,6.185-2.325-.143-3.336,3.93-5.076,1.061-0.823-1.023-1.8,1.706-0.515,3.926-1.763-1.89-1.21.569-1.912,3.793,0.527,2.757-7.672,5.642-2.17.975-4.435-1.747-7.659-.483-3.4-4,1.245-2.338-1.569-2.052-3.377-1.944-0.943.937-2.316-1.039-2.306.861-3.021-1.979-1.114.544-1.56-7.723-5.286-8.958-0.667.184-0.537-4-3.606-3.99,1.6-5.089,1.661-2.1-1.817-4.908-3.853-.727,0.845-6.776-1.779-3.523-2.481-1.28-3.078-2.287-1.36-4.746-17.958,4.787-8.177,1.763-0.416.2,0.344-.169-26.9,3.275-0.2-.4-6.055-1.093-8.24-1.588-6.452-2.684-3.177-3.374-3.672-7.745,1.687-5.461,0.7-4.27,6.849-5.067-2.98-5.956,0.924-7.033-7.745,5.956-4.168-.6-1.093.889-3.177,2.287-2.383-.2L877.3,131.21,875.814,133l-2.481-1.093-0.991-3.374-0.794,3.669-4.667.3-0.794,1.49,5.461,1.687-6.156,1.684-0.6-2.681-3.078,1.785-3.774-.2,2.081,3.672-3.177,5.658-6.156,3.574-3.177.2-0.4,1.785,2.186,2.78-2.681.794,0.1,1.785,2.58,0.2,2.084,2.98-1.093,2.58,0.991,2.58,2.98-.4-2.383,3.876-0.1,2.78,3.971-2.287-1.29,3.774,1.1,1.687,3.272-1.687,3.374,2.084,2.98-1.29,0.3,1.785-1.493.991,2.78,2.681,0.3,1.191-1.493.1-5.756-4.168-1.785.7,4.466,7.843-1.588,3.475,4.069,0.4,0.5,2.681-2.287,5.362,5.756-1.1,3.971-4.962,0.6,0.2,1.785,2.186-0.2,2.78,1.785,2.186,1.985,6.751v2.78l-3.078,2.78v1.391l3.774,7.246-0.16.747,0.116-.738-4.841,1.922-1.029,2.637,1.395,2.462-0.079,2.792-3.51,4.244-2.63.229-0.918,6.766,3.774,4.063-0.848,3.771,0.816,1.121-0.7,2.627,2.888,2.859-2.376.861-0.283,2.475-1.566,3.539-0.2,4.184,3.9,5.1,0.461,2.621-0.943.943-3.774,1.309L863.9,275.1,867,284.859l-2.459,7.046,1.763,3.377-2.58.486-2.4-3.374-4.038.832-1.248.623-1.607,2.249-0.616,4.044-2.653.648-8.819-4.158-2.033-3.561-6.3,2.757,0.219,2.8-2.186,3.485-6.9.486,0.235,2.592,2.58,0.978-2.316,4.648,0.546,1.274-4.714-3.072-7.021.2-0.743-1.2-6.69,4.368-2.586,2.818-0.839,8.021,1.709,3.653-0.067,1.331-2.087,1.493-2.656.054-3.272-2.256-3.806,1.118L795.9,331.7l-1.611,13.25-1.433,2.379-4.66,2.7-0.1,1.391,2.646,3.094-1.121.816-2.751-.159-3.374-2.294-5,2.316-1.09,4.679,8.358,9.47,0.143,5.477,0.591,2.824,1.207,2.3-2.109,4.711,0.229,3.879,5.588-.3,0.117-3.974,3.4-2.249,11-1.674,3.558,2.827-0.909,1.07,0.111,4.187-5.375,4.34-13.793-.064-1.96,1.973-6.376,6.719-1.957,4.012-0.512,1.283,1.6,3.682-2.919,2.862-0.064,4.13,13.32-3.158,6.42,2.456,1.242-.629,5.07,2.271,3.869,3.679,8.139-1.563,2.211,1.69,4.3,6.408,0.734,1.172,2.313,0.75,1.769,2.865,1.785,6.55,5.159,6.544-1.341,1.954,0.508,2.3-3.155,2.735-2.681.7-2.919,4.438,0.067,4.244,4.066,5.775-2.792,6.29,3.85,2.246,6.986-3.475,3.949-6.8,1.013,4.692-0.81,2.487,1.214,5.267,3.622,1.773-2.9,5.743-6.4,3.126-0.457,5.172-0.2,2.7-3.926,3.545-2.154,1.614-3.965.156-0.346,2.538-3.707.654L820.24,510l10.845-.477,1.642,4.857,5.416-.311,0.667,5.2-13.393.982-0.229,2.383-4.892,2.4-0.175,2.573,2.684,3.145L821.47,537.5l0.381,4.1,5.083,2.6,0.168,4.085-1.925,3.6-0.556,3.79,4.7,1.522-0.057,1.315-2.37.95,0.21,1.3,1.658,1.4,4.044-7.233,8.123-.4,1.236-5.359,1.163-.766,2.1-1.115,6.223,0.81,10.5-11.109,0.089,0.051,1.09,2.494-0.067,5.448,0.807,1.1,2.691,0.127,5.677-6.268,13.6-3.691,0.632,0.353,4.19-2.637,1.15-2.262,2.513-.283,4.241,0.515,2.532-1.137,2.255,1.6,9.12,2.3,3.961,0.48,5.766-3.243,4.768,1.973,0.778,1,4.975-.435,0.2-2.78,1.21-.693,5.331-1.436,6.827,1,4.495-4.8,1.687-.048,0.356-7.85,2.611-7.256,2.024-1.509,3.72,0.248,2.094-1.436,1.07-3.815,2.386-1.153,2.678,0.27,5.121-2.208,7.021-.423,4.924-5,2.2-1.541,2.43,1.013,3.923-.893,3.253-2.065-0.3-3.685-3.327-6.728,0.023,0.006,0.6-1.207,3.92-.022,2.306,1.252,9.2,0.057,2.065,1.655,1.538,0.038,1.007,0.966,3.752-1.331,7.411,11.1,6.506,2.2,0.766,0.232,24.645,7.2,2.319-7.821-0.785-2.449-0.5-2.354,1.02-.743,1.458-3.863,2.621,0.235,1.912-6.9,0.511-2.561-2.148-3.161,2.446-2.751,2.713,0.146,3.742-4.371-2.24-4.556,0.089-2.646,1.344-2.186,4.314-2.7,0.124-5.331,1.909-1.82,1.49-5.083-1.086-2.449,2.062-2.04-0.477-5.531,1.379-4.641,2.024-1.519,5.083-1.214,2.052-6.166,3.993-.956,3.92,0.553,3.829,1.242,2.669,0.594,5-.68,5.369-3.161,2.351-1.182,0.947-2.468Z" transform="translate(-4.833 -52.689)" fill="none" stroke="#000" stroke-width="4"/><polygon points="816.084 118.726 816.382 120.409 824.623 129.244 828.397 130.734 833.956 129.844 837.33 132.322 835.938 137.284 837.625 140.461 839.706 141.354 840.996 137.681 844.967 134.504 848.242 131.525 846.355 129.339 851.517 126.858 851.215 123.878 849.23 124.476 848.239 122.395 846.453 122.792 843.474 116.835 844.865 115.644 841.885 116.041 840.894 113.163 842.184 111.476 841.291 109.291 841.593 108.001 840.402 107.207 836.332 107.01 836.631 103.039 835.439 102.343 829.979 101.549 827.895 103.039 825.414 103.734 819.559 100.758 816.681 103.239 813.901 102.937 810.127 104.43 809.829 105.822 816.779 115.847 816.084 118.726" fill="none" stroke="#000" stroke-width="4"/><polygon points="630.943 530.409 631.54 530.708 634.717 526.241 637.398 523.859 637.3 522.467 636.01 520.78 635.308 519.691 634.812 522.868 631.439 525.447 632.134 527.232 630.447 528.325 630.943 530.409" fill="none" stroke="#000" stroke-width="4"/><polygon points="617.54 534.577 618.036 538.056 618.532 537.658 618.532 535.473 620.717 535.374 619.526 532.595 620.517 527.83 620.914 527.134 621.41 526.638 622.007 526.34 627.468 526.737 626.276 525.346 623.198 524.354 623.595 519.195 621.511 522.569 619.526 521.473 620.32 523.557 619.129 525.444 617.54 534.577" fill="none" stroke="#000" stroke-width="4"/><polygon points="592.523 605.367 588.356 604.573 582.695 601.689 582.199 601.886 582.101 602.582 582.298 603.973 584.283 604.669 587.263 607.648 591.332 608.741 592.126 610.727 594.112 612.614 592.72 608.046 595.897 604.672 592.523 605.367" fill="none" stroke="#000" stroke-width="4"/><polygon points="553.214 635.528 548.748 632.351 547.356 632.45 540.905 628.082 536.934 616.566 534.252 617.262 527.702 615.575 524.624 613.097 521.943 613.097 521.05 614.19 520.853 611.41 516.98 610.317 514.296 607.15 513.006 607.642 512.114 613.202 510.128 614.987 509.731 620.546 512.114 627.198 516.58 632.36 513.502 636.827 520.351 643.377 528.194 643.775 533.258 641.487 537.426 644.861 540.107 644.664 543.78 646.748 549.339 646.551 554.403 649.131 555.794 649.328 556.985 648.73 559.171 646.945 563.837 637.018 560.264 635.131 553.214 635.528" fill="none" stroke="#000" stroke-width="4"/><polygon points="614.262 624.622 611.482 624.622 609.894 623.526 610.091 626.9 610.688 628.189 612.375 629.381 617.042 626.503 617.239 623.027 616.149 622.538 614.262 624.622" fill="none" stroke="#000" stroke-width="4"/><path d="M824.9,505.621l0.346-2.538,3.965-.159,2.154-1.614,3.923-3.545,0.2-2.7,0.454-5.169,6.4-3.129,2.9-5.74-3.622-1.776-1.213-5.264,0.81-2.487-1.013-4.7-3.949,6.808-6.986,3.472-3.85-2.246,2.792-6.287-4.066-5.778-0.067-4.244L827,454.088l2.681-.7,3.155-2.735-0.508-2.3,1.337-1.957-5.159-6.541-1.785-6.55-1.769-2.862-2.313-.753-0.734-1.172-4.3-6.4-2.211-1.693-8.139,1.566-3.872-3.682-5.067-2.268-1.242.629-6.42-2.459-13.32,3.161,0.063-4.13,2.919-2.865-1.6-3.682,0.512-1.28,1.957-4.015,6.376-6.716,1.96-1.973,13.793,0.06,5.372-4.34-0.108-4.184,0.909-1.07-3.561-2.805-11,1.674-3.393,2.249-0.118,3.974-5.588.3-0.229-3.879,2.109-4.711-1.207-2.3-0.591-2.824-0.143-5.477L777.4,359.9l-8.009-.149-1.493,3.841-2.068,1.722-4.562-2.449-2.846,6.106-1.242-.931-3.069-4.368-0.292-2.627-0.311-4.263-6.49-5.5-2.011-5.261-3.71-2.109-7.056.3-3.774,3.755-6.63-.537-0.766,2.7-12.408.394,5.108,7.7,0.137,2.71-1.617,3.675-3.739,5.867-3.218,2.662-1.388,2.151,0.842,7.789-2.6.772-1.684,2.144-3.968-.2-0.451,1.3-3.069,4.632-8.4,7.341-5.375-.159-0.82-1.128-2.542,3.021-1.346-1.819,0.267-3.148-2.4-.778,0.454-4.009-1.169-2.506L677.91,378.4l0.848-4.063-0.88-2.633,1.083-2.452-1.242-1.76,1.191-2.03-3.92-5.048-2.618.251-7.043,5.3-0.458,2.551-6.611-1.652-5.321,1.064-0.874-1.067-2.853,7.834-3.58,4.082-0.772-7.7-1.449-2.141,0.562-2.389L643,364.4l-6.868-9.686-10.639,2.163-7.593-3.922,0-.014-3.647-5.6-3.926.375-10.226-3.2-5.324.959-4.292,3.243-5.477.245,0.473-3.927-3.625-1.541-1.881-6.827,0.6-2.8-3.974.438L575.117,332l-2.719-.076-2.306-1.493-4.076.515-1.855-1.9L562.88,329l-2.259,2.983-1.274-.162-0.75-1.026-4.8-.48-1.331,2.335-2.608.943-1.668,3.853-0.14,2.805,1.728,2.176-1.773,3.663-3,2.722-3.577-1.449-3.459,2.154-1.156-.727-3.777-1.134-2.491.991-3.615,3.891,0.883,3.825-7.233-3.186-3.907.473-4.53,2.211-0.388,1.274-3.691-1.309-1.9-3.545-2.437-1.007-3.971-.073-0.753,2.589-2.043-1.372,0.381-2.551-3.383-5.3-3.361,2.24-6.76,1.334-4.174,3.685-3.8-.623-3.685,3.86-4.336-3.421-1.153-2.5,4.282-5.292-6.22-5.5-0.318,2.662-1.166.715-5.28-.2-2.78-2.745-4.39,1.2-9.683,1.846-5.6-.537-3.113-2.468-15.1,5.982-8.787,5.975-4.937,1.919-6.6-.219-0.883,2.475-3.688,1.668,0.3,2.748-3.243,4.289,0.988,2.186-3.323,2.443,0.753,4.092-0.883,2.653,6.731-.762,3.52,1.938-2.379,3.507,0.928,5.607-0.9,1.109,0.594,1.3,7.268,4.022,3.695,15.083,3.215,4.66,2.151,8.161,5.146,1.2,2.421-.921,2.087-1.82,4.114,0.127,2.176,1.347,2.062-1.868,5.467-.521,2.252,1.639,4.044,0.651,3.58,4.123,5.423-.3,3.282,3.98,1.452,6.477,3.215,2.116,1.1-.826,0.718-4.038,5.315-1.026,6.452-4.838,1.283-.47,1.226,2.449,1.363,0.1,0.562,2.532,2.189,1.391,0.009,2.586-2.109,3.574,3.5,6.026-1.039,2.637-3.895,1.283-1.369,5.035,2.417,7.834-0.4,6.833,1.487,2.125-2.783-.054-3.374-2.167-7.742,2.929,0.251,5.181-2.36,4.756-4.092.327-3.526,4.238-1.379.089L447.51,481.8l-2.694-3.005-0.086-3.885-1.007-.181-0.092,1.42-3.961,4.174-0.038,4.829,1.391,0.918-0.184,2.379,3.364,2.02-0.82,2,1.941,0.168-2.78,5.553,2.954,1.68-2.3-.511L442,501.9l0.845,6.843,5.184,6.706,1.477,4.006,3-1.507-2.967,1.52,0.5,2.684,11.614,13.4,2.58,0.4,4.765-2.681,3.574,1.191,1.191-.794,5.461,0.4,2.383-1.191,3.574-4.273,0.6-4.066,2.878-2.383,1.785-4.962-1.785-6.055-1.887-.3-2.284-4.466-1.093.7-7.516-2.089,0.015-.033,7.481,2.112,1.106-.721,0.384-1.541-1.4-3.056-2.233-.756,1.039-2.112-3.7-7.256-2.681-.575,3.609-.712,0.743-2.44L479,485.48,479.957,483l0.216,2.208,0.788,2.8-1.283,4.063,5.912,12.65,2.176,1.719,0.024-.052-0.033.075-0.5,2.681,1.985,0.2,2.58,8.139,5.956-2.081-1.191-7.942,1.985,4.667,4.765-4.168,0.794-3.177,2.878,0.893,0.5-2.284-2.78-2.58,0.7-3.672-1.585-.8-0.42.407,0.455-.446,1.588,0.791,5.159-.753-4.308,1.287-0.4,2.669,2.751,2.494,0.041,0-1.29,4.864-2.284-1.391-2.878,8.835-2.383,1.588-1.391,3.872-3.475-.3,0.4,2.681-3.774-2.284-0.6,3.971,1.391,3.672-4.568,2.681,1.588,1.985,3.475-1.785,7.643,0.3,1.588,1.687,5.064,1.093,1.985,5.064-2.58.3-4.765-2.287-4.864-3.272-1.687,1.093-3.078.6-2.58-.893-2.186,3.374,1.191,1.588,2.78-3.177,9.727,1.29L510.095,542,527.268,556.5l0.6-2.98-0.7-6.951,3.872-4.864-4.368-4.962,5.362,2.383,5.162-2.186,2.186-.4,4.765,0.991v1.391l-2.383.893L540.08,542l-5.362-.2-2.186,1.588-3.574,3.872,0.4,1.29-0.5,1.29,0.893,5.362-1.49,2.287,3.574,7.64,10.324,6.951,4.864,10.226,0.5,8.539,0.991,5.362-1.49,3.774-1.391,2.284-3.672,1.887,1.49,2.284,0.5,6.751,2.481,7.942,2.878,3.078,4.168-.3L560.021,626l1.29-.2-1.985-3.669-5.956-5.956-0.7-2.684,0.3-2.78-2.084-1.588L549.2,602.47l1.093-12.31,3.672-6.255-3.672.893v-9.629l6.751,6.452L560.122,584l-3.475-.7,1.985,5.461,8.736-3.374,2.78,1.687,0.794-3.475,2.78-.4v-3.475l5.261,8.037-1.687-9.133,1.191-.4,0.2-.1,3.774,7.745,1.985,1.687,2.383-1.29-0.7-6.751,1.687,1.785-0.2,1.391,4.368,3.177,1.887,6.849,2.78-4.069,2.084,3.574,6.156,0.2-5.658-8.04-5.858-5.162,3.774-3.774-4.667-3.374,4.568-3.177-2.186-8.04-2.383.2,0.3-4.67-2.98-4.066L591,550.648l0.991,1.985,2.186,3.374-0.3,2.58,2.383,0.794-0.893.991,1.191,3.574,3.672-.893,2.079,1.584-2.171-.593-1.29,2.284-0.893,4.765,4.269,9.333,1.391-8.437,0.7,5.461,2.58-4.466,0.7,3.574-2.878,2.287,2.084,2.58,2.284-3.574,1.985,3.275,3.374,2.084,0.7-.7v-9.232l6.751,3.275,1.191-2.383-2.681-2.09,3.177-2.78-0.3-1.887-2.284.2,1.985-1.785,7.843,2.383,5.064-1.985,5.362,1.391,2.58-.991,1.191-2.478-0.991-2.481,4.467,0.7,1.191-4.168,3.275,8.638,1.29-3.078,1.684,5.261-10.521-4.168-0.4,1.887,12.408,7.942-1.191-2.383,3.872,1.093,1.191,2.481-0.6,3.374,0.991,5.162-3.275,5.559-0.6,4.667,0.492,2.284-2.875,1.588-0.7-.893-3.475,2.684-7.046-1.191,0.5-2.98-2.383-1.887-3.475,1.49,0.5,3.872-1.887-1.684-0.7-5.261-4.168-.4,1.985,5.956L631.5,599.6l0.1-4.568-3.672,2.383-2.58-1.49,0.2,3.078-0.991.794-2.186-.893,0.7-4.568-3.774,2.081,0.7-5.064-1.887,1.887-0.6-3.971-4.368,2.98-0.991-2.58-4.069,1.985,1.588,3.574-2.878.1,1.887,2.878,5.756-.794-3.971,2.186,1.391,1.49,2.186-1.785,6.156,3.275,3.177,4.568,1.49,0.2,1.391,8.139,8.736,4.463,2.681-.6,2.58,1.191,3.971-3.875,8.237-1.287,6.156-2.98,4.168,0.6,8.835,3.971,4.27-9.927,6.354,1.287,1.687,1.985,1.29,2.383h1.49l6.751-4.765,5.658,0.1,5.461,1.49,1.391-.2,2.084-3.672,2.383-1.191h5.261l4.27,3.081,8.933,2.478,6.846,5.162,0.794,0.991,4.864,0.492,1.854,0.275-1.81-.248-0.677,1.07-5.477-.737-5.68,3.695-7.144-4.365-2.608,2.376,2.884,7.037-2.074,5.149,0.978,4.082,3.3,2.519,3.475-2.386,2.754,0.369,2.348-6.16,2.519-.953,4.7-4.463L741.53,628l2.611,3.224,4.069,0.9L753,629.657l2.8-.178,3.05,2.881,10.744-2.608,0.731-8.209,3.5-6.023,0.642-6.935,0.283-.152,4.775,1.96,5.369-.356,0.969,0.947-1.512,3.571L789,617.328l7.415-5.375,4.962-1.627,2.776-.4,0.689,1.226-1.1,5.267,0.905,1.067,5.458,0.95,2.961-2.792,0.48-9.68L816.1,604.8l12.18-3.393,0.454-2.713-1.814-3.555,1.931-9.413-2.249-1.963,1.245-.527-0.559-6.582,4.333-3.186,0.318-1.312,0.137-5.569-3.3-4.378-1.661-1.439-0.21-1.3,2.37-.95,0.054-1.315-4.7-1.522,0.556-3.793,1.925-3.6-0.168-4.085-5.083-2.6-0.381-4.108,1.337-6.744-2.684-3.145,0.175-2.576,4.892-2.4,0.229-2.383,13.393-.978-0.667-5.2-5.416.311-1.642-4.861L820.24,510l0.95-3.72Z" transform="translate(-4.833 -52.689)" fill="none" stroke="#000" stroke-width="4"/><polygon points="459.205 504.497 447.095 500.723 445.002 500.729 441.628 501.822 441.628 503.906 443.515 506.091 446.889 508.671 448.874 509.465 449.57 510.656 452.35 511.45 455.228 513.531 455.924 513.531 459.399 512.54 461.683 510.952 463.271 512.241 464.663 512.54 466.251 514.03 467.642 508.668 463.475 504.894 459.205 504.497" fill="none" stroke="#000" stroke-width="4"/><text transform="translate(631.667 47.215)" font-size="21" font-family="DejaVu Sans" font-weight="700">Côtes-d’Armor</text><text transform="translate(43.032 89.203)" font-size="21" font-family="DejaVu Sans" font-weight="700">Finistère</text><text transform="translate(1115.223 277.829)" font-size="21" font-family="DejaVu Sans" font-weight="700">Ille-et<tspan x="62.477" y="0" letter-spacing="-1">-</tspan><tspan x="68.793" y="0">V</tspan><tspan x="83.047" y="0">ilaine</tspan></text><text transform="translate(668.23 612.614)" font-size="21" font-family="DejaVu Sans" font-weight="700">Morbihan</text></svg>