<svg xmlns="http://www.w3.org/2000/svg" width="749.312" height="957.529" viewBox="0 0 749.312 957.529"><title>Députés sortants d&amp;apos;Ille-et-Vilaine en 2017</title><path d="M392.277,570.634l-3.332,7.778-5.784,6.892,1.468,2.674v15.467l-7.508-2.507-9.309,6.116-8.714-1.309-5.541-6.712-5.5,1.593-4.454,8.056,0.616,9-4.052,4.613-0.72,8.88,1.281,5.694-4.3,7.55L335,655.741l11.567,1.877,6.539,5.25-2.507,8.374,2.445,5.375,7.772-4.114,2.23-17.732,2.861-5.334,2.757-1.219,4.475,4.052,3.1,4.738,5.382,2.161,2.5,5.236,5.666,0.88-0.4,26.12,0.8,2.826,7.764,3.727,4.5-13.368,8.167,0.61,3.719,4.357,4.759,10.591,7.827-4.052,1.572-2.5-3.283-7.813,6.5-5.583,10.674-5.133,2.743-11.429,3.837-4.7-2.674-1.558-3.366-11.927-0.166-8.686,3.7-4.468L452,618.2l11.013-9.115,0.644-2.84-6.075-6.179,3.92-4.294,3.048-10.986-2.743-7.654-20.087,4.17-7.031-9.655-5.957-1.025-5.195-3.158-0.61-2.992-0.277-6.089-8.8,2.321-2.175,3.034-4.786.776-1.607,1.662-0.658,2.6-6.144.346Z" transform="translate(-37.428 -25.79)" fill="#ff8080" stroke="#000" stroke-width="2"/><path d="M329.855,360.51l-4.9,3.754-8.367-3.519-9.074,1.7-9.933-7.211-0.526-14.186,5.4-9.912,4.918-3.519,1.171-5.694L321.55,329.1l11.588-.062,6.684,4.987,1.939,8.762,7.411-5.527,30.1-7.716,10.819-9.94-10.535-6.338-1.5-5.735,2.272-2.092,9.212-.492,10.819,10.688-1.164,7.356,8.007,1.9,3.276,4.551,2.667-.852,0.734,6.1-2.445,5.6,2.334,2,23.5,5.652-0.021.319-7.882,4.419L408.9,352.42l-6.552,13.486,1.067,2.854-7.356,3.629,1.081,5.25-10.9,3.2-2.341,14.22,4.724,7,0.145,5.867,2.674,1.177-2.75,8.437-9.233,7.266-17.323.457,1.676,6.788-7.2,14.359,8.617,8.81,1.586,5.756-1.746,5.631,5.091,6.774-1.455,8.533,3.124,5-4.107,4.2,2.487,6.989,9.358-4.01L386,498.923l12.052-16.09,8.506-1.441,3.082-7.862,14.546,10.8,2.874-.991,1.42-5.749,15.64,5.77,4.3-13.728-2.383-8.533,1.018-11.644-2.6-1.378,3.664-7.335,5.036-2.674,4.863,2.632,8.513-.263,0.755-3.81,2.833-5.223,8.187-3.844,7.772-9.129,8.97-.242,17.974-.242-2.03,5.52-5.624,1.773-2.681,5.236,11.456,13.32-0.187,2.972,0.416,3.006,8.644,2.161,6.352,6.206,17.677-2.611,1.628-2.549,4.841,6.476,7.931,1.946,3.457-11.664,14.5-3.353,4.571-7.647L601.79,436.2l18.037,19.374,8.513,0.817-2.265,5.548-7.121,5.368-7.592-4.253-2.674,1.205-19.138,17.122,1.378,2.3-4.2,4.336-1.205,9.088,2.023,11.664-5.728,1.323-2.2,4.551-1.115,2.6-5.126.755-3.547,10.771-7.155-5.41-5.728-.866-1.413,5.832L537.5,537.039l-5.922-.637-7.737,3.3-3.054-14.58-10.549,9.663,2.189,8.353-1.752,5.506-5.7-.374-2.722,4.911-8.339-.062-5.818-9.483-5.909-.416-10.4,9.2-3.068,16.229-0.554,5.112-6.3,3.4-20.087,4.17-7.031-9.655-5.957-1.025-5.195-3.158-0.61-2.992-0.277-6.089-8.8,2.321-2.175,3.034-4.786.776-2.279-2.445-0.8-7.418-1.219-3.9,2.986-5.818,3.512-10.979-2.868-.194L390.01,541.07l-7.1-9.212-13.237-.194L369.4,526.17l-5.451-5.7,1.711-2.265-1.932-5.34-7.619,2.861-5.389-2.106-2.41-5.23-0.18-14.352-8.741-.222-1.184-8.658,15.682-8.167L346.3,472.06l-8.409-21.41-0.43-2.715-8.284-6.22-22.165,1.828-7.037-5.915,6.359-3.615-0.471-2.6-5.541-10.307,2.355-5.368,6.67-3.969,1.081-2.833-3.165-4.9,3.145-3.443,10.729-3.893,5.451-16.637,15.987-7.307-3.907-11.117Z" transform="translate(-37.428 -25.79)" fill="#ff8080" stroke="#000" stroke-width="2"/><path d="M307.246,404.016l3.165,4.9-1.081,2.833-6.67,3.976-2.355,5.361,5.541,10.307,0.471,2.6-6.359,3.615L307,443.525l22.165-1.822,8.284,6.213,0.43,2.722,8.409,21.4,7.585,4.932-15.682,8.167,1.184,8.658,8.741,0.222,0.18,14.352,2.41,5.23,5.389,2.106,7.619-2.861,1.932,5.34-1.711,2.258,5.451,5.7,0.277,5.493,13.237,0.194,2.674,3.6-3.068,2.244-7.612,10.674,9.655,0.035,1.281,8.125-4.024,4.253-3.726-1.226-12.745,1.621,2.161-2.992,1.358-6.054-7.834-9.316-2.729-.907-8.464,6.857-8.589.229-4.849,3.013-5.5.409-1.268-2.549-0.783-2.792-10.591-4-5.673-6.511,7.772-11.962-7.827-8.561-1.434-5.43-0.4-5.375-5.216.43-13.6,5.991-3.463-8.284-5.978,1.191-4.322,3.768,0.069,11.491-2.535,1.468-4.184,19.754,4.156,4.059,5.943,0.554,7.585-4.918,19.741-5.361,0.894,2.563-5.14,6.262-0.914,5.063-1.773,4.821-10.445,3.02-14.657,1.919-2.653-8.658-13.936,4.308L256.6,558.81l5.32,10.411L260.8,572l20.156,23.911-11.083,3.713-6.345,6.269-8.845,1.517-4.814,3.193-14.594,1.912-3.844-10.875,13.811-13.749-13.043-3.3-5.14,7.584-21.763,11.609L187.9,598.223l-3.041.61-3.255,5.271-5.223-6.781-8.658.61-4.9-3.512-8.914-1.011-0.97-2.244-2.41,1.621-13.784-4-4.218-3.927-11.477-1.482-5.257.3-7.245,7.764-7.765-6.116L76.8,588.982l-7.4,4.9-0.256,8.665-12.184.644-0.5-8.457,4.6-10.272-2.632-5.015-1.288-6.158-0.312-11.941L38.6,540.7l2.376-10.2,10.9-5.049,7.356,5,6,0.346,2.445-1.78-5.77-6.746,0.222-3.034,10.161-5.895,3.124-5.188,3.512-28.891-5.417-6.712,8.3-2.438,7.134,4.918,5.791-.118,4.551-3.255,0.145-2.9L95.7,460.792l1.829-17.49,5.638-6.144,14.587-9.524,1.621,2.625,15.308-.43,10.279,6.7-1.191-2.778,5.049-10.134-5.624-2.133-0.513-5.652,15.051-1.06,4.765-7.6-0.478-6.116,13.728-6.012,4.433,7.764,19.228,9.067,5.784-1.413,1.344-8.818,3.5-4.9,2.722-1.357,8.8-1.815,5.23,7.356,5.624-1.06-3.844-7.363,5.361-15.363L227.2,355.868l11.249,0.194,8.229-2.854,2.057-2.057-1-5.714-8.513-11.11,0.436-9.122,3.415-7.716,0.616-5.4,5.181-1.877-6.3-6.234,1.531-5.728-1.78-2.445,1.849-8.222-8.229-8.859,2-14.754,5.735-.5,7.654-9.254,0.173-6.088-3.041-5.368,2.244-5.749,10.556-4.191L260.8,235.79l8.589-1.455,2.286,1.946,2.3-5.513L271,222.477l2.694-1.3,11.36,3.276L294.2,235.34l1.115,2.147,7.114,0.277,8.063-3.5,2.265-5.167,8.776-7.9,6.456,13.368,5.32,2.314,30.082-13.7,3.034,0.118,5.888,13.985,6.047,6.643-0.783,6.033,4.579,3.366,2.764-.43L387.8,248.8l9.053,7.051,14-11.228,11.318,2.431,4.343-3.643,6.857,3.034-2.293,16.381-5.617,2.535-5.216,10.972-0.173,6.178-6.22,6.338,3.948,11.484-3.5,4.655,1.5,5.375,4.218,3.643-2,8.533-5.223,3.027,0.353,3.034-2.667.852L407.2,324.9l-8-1.9,1.164-7.356-10.819-10.688-9.212.5-2.279,2.085,1.5,5.735,10.535,6.345-10.819,9.933-30.1,7.716-7.411,5.527-1.939-8.755-6.684-4.994-11.588.069-13.008-7.176-1.171,5.687-4.911,3.526-5.41,9.9,0.526,14.186,9.933,7.211,9.074-1.7,8.367,3.519,4.9-3.754,8.8,1.095,3.907,11.124-15.987,7.3-5.451,16.645L310.4,400.573Z" transform="translate(-37.428 -25.79)" fill="#ff8080" stroke="#000" stroke-width="2"/><path d="M498.26,798.982l2.362-1.884,3.193-17.691,7.093-9.483,5.541-3.553L523.5,760.7l-12.433-7.9,2.951-5.084-4.364-7.584-8.167-3.463L491.223,742.3l-8.146-3.893-5.749.845-4.322-9.766-2.646-.512,1.2-2.916-2.909-5.479-14.005-11.99,7.335-7.578-0.131-5.444-8.72,2.584-11.678-.457-1.524-2.625,1.773-8.949-9.96-5.867-6.5,5.583,3.283,7.813-1.572,2.5-7.827,4.052-4.759-10.591-3.719-4.357-8.167-.61-4.5,13.368-7.758-3.733-0.81-2.819,0.4-26.12-5.666-.88-2.5-5.236-5.382-2.161-3.1-4.738-4.475-4.052-2.757,1.219-2.861,5.334-2.23,17.732-7.772,4.114-2.445-5.375,2.507-8.374-6.539-5.25-11.567-1.877,1.427-11.325,4.3-7.55-1.281-5.694-10.868-4.4-3.941-8.09-8.229-1.039-3.47-.575-1.621-2.57,2.4-8.8-2.729-5.424-11.366,1.316-9.954-6.726-8.755,1.053-11.083,3.713-6.345,6.262-8.845,1.524-4.814,3.193-14.594,1.9-3.844-10.868,13.811-13.749-13.043-3.3-5.14,7.584L205.287,603.84l-17.392-5.562-3.041.61-3.255,5.271-5.223-6.781-8.658.61-4.9-3.512-8.914-1.011-0.97-2.251-2.41,1.628-13.784-4-4.218-3.934-11.477-1.482-5.257.3-7.245,7.764-1.981,2.334,0.242,9.129-11.72,9.462-30.075-.139-4.274,4.3-13.9,14.65-4.267,8.748-1.115,2.8,3.5,8.028-6.366,6.241-0.138,9,29.043-6.885,14,5.354,2.708-1.371L95.252,668.1l8.436,8.021,17.746-3.408,4.821,3.685,9.372,13.971,1.6,2.556,5.043,1.635,3.858,6.248,3.893,14.283,11.249,14.269-2.923,4.261,1.108,5.015-6.878,5.964-5.846,1.531-6.366,9.676,0.145,9.254,8.866,12.592-6.088,13.714,8.4,4.9,15.232-7.578,8.61-14.837,2.21,10.23-1.766,5.424,2.646,11.484,7.9,3.865-6.317,12.523-13.95,6.816-1,11.276-0.436,5.895-8.561,7.73-4.7,3.519-8.644.339-0.755,5.534-8.083,1.427L132,868.026l23.647-1.039,3.581,10.591,11.81-.679,1.455,11.346-29.2,2.14-0.5,5.195-10.667,5.236-0.381,5.61,5.853,6.857L134.678,928l0.831,8.949,11.083,5.666,0.367,8.908-4.2,7.855-1.212,8.263,10.258,3.318-0.125,2.868-5.167,2.071,0.457,2.833,3.616,3.048L159.406,966l17.711-.88,2.694-11.685,2.535-1.669,4.572-2.431,13.569,1.766,22.9-24.222,0.194,0.111,2.376,5.437-0.145,11.879,1.759,2.389,5.867,0.277,12.378-13.666,29.66-8.049,1.378,0.769,9.136-5.749,2.507-4.932,5.479-.616,9.247,1.122,5.52-2.48,4.918,3.5,19.886,5.008,8.637,1.046,12.572-7.072,10.4,4.3,1.7,2.175,10.847-.949,0.43-6.061,2.639-1.51,11.623-3.131,14.885,2.189,9.8-10.459,3.678-.1,0.776-17.116,5.694-15.82,4.412-3.29,8.111,0.54,4.565-3.131,2.334-8.319,5.2-2.514,5.839,0.589,11.166-4.814,15.308-.921,10.736-10.9,4.807-3.359,5.3,2.209,8.554-1.946,7.093-4.5-0.658-8.035L512.73,806.3l-7.7-2.154Z" transform="translate(-37.428 -25.79)" fill="#ff8080" stroke="#000" stroke-width="2"/><path d="M741.749,669.553l-8.547-1.205-8.707,2.085-4.475,13.444-11.082,2.646-4.412,3.311-3.006,10.12,1.039,12.059-4.5,4.447,2.369,5.34-3.249,11.082-4.163,3.969-0.27,11.623-9.406,5.887-2.93,4.765-0.194,5.77,4.883,9.933-8.159,9.531-5.915-.319-5.334,6,4.683,6.892-1.115,5.583-4.17,15.038-5.714-.512-3.179,8.423-2.223,1.621,1.087,5.133,1.711,5.34-5.056,17.053-53.736-15.7-1.669-.506-14.185-4.807-16.16-24.208-8.18,2.9-2.2-2.106-3.353-.083-4.5-3.609-20.059-.125-5.029-2.729-8.547.049-1.316,2.632-7.7-2.161-6.823-5.181,2.362-1.891,3.193-17.691,7.093-9.483,5.541-3.553,7.051-5.673-12.433-7.9,2.951-5.084-4.364-7.584-8.167-3.457-10.265,5.617-8.146-3.893-5.749.845-4.322-9.766-2.646-.512,1.2-2.916-2.909-5.479L454.65,708.57l7.335-7.578-0.131-5.444-8.72,2.584-11.678-.457-1.524-2.625L441.7,686.1l-9.96-5.867,10.674-5.133,2.743-11.422,3.837-4.71-2.674-1.558-3.366-11.935-0.166-8.679,3.706-4.468,5.541-14.1,11.013-9.122,0.644-2.833-6.075-6.179,3.92-4.294,3.048-10.986-2.743-7.654,6.31-3.4,0.554-5.112,3.062-16.229,10.4-9.2,5.909,0.416,5.818,9.483,8.339,0.062,2.722-4.911,5.7,0.374,1.752-5.506-2.189-8.353,10.549-9.669,3.062,14.587,7.73-3.3,5.922,0.637,18.051-8.707,1.406-5.839,5.728,0.873,7.155,5.41,3.547-10.771,5.126-.755,1.115-2.6,2.2-4.558,5.721-1.316-2.016-11.671,1.2-9.081,4.2-4.336-1.378-2.3,19.138-17.122,2.674-1.205,7.592,4.253,7.121-5.368,2.265-5.555-8.513-.81-18.037-19.374,18.632-6.47,5.056,3.041,23.246,2.231L658,419.851l2.147,0.1,9.517,11.346,9.579,6.532,10.244-4.724,5.008,7.225,2.944-.235,6.165-6.109,11.062,3.914,8.88,0.021,0.894-9.088,13.167-7.058,0.741,15.093,10.639,28.122-3.844,8.36,3.075,4.322,4.44,4.142-2.279,18.1,2.535,18.252,5.735,0.72,2.868,29.119,3.747,17.15,2.237,14.511,5.181,10.14,8.741,7.266,2.355,1.267-3.955,6.5-2.923,8.513,3.006,11.36-3.221,5.146,7.148,13.361,1.877,14.005-2.064,5.382-5.126,2.577-11.706,6.892-10.9,1.482-5.818-1.3Z" transform="translate(-37.428 -25.79)" fill="#06c" stroke="#000" stroke-width="2"/><path d="M508.033,225.9l-3.4-16.838-11.526-19.533-1.455.4-1.171-8.721-7.862-8.7,3.5-11.1,3.623-4.585-3.962-10.7-8.4-1.586,1.842-14.774-3.879-7.682-5.41-2.792-6.712-4.987-2.964-10.348L421.1,114.4l-17.829,3.844-10.785,5.195,0.692,8.942-6.982,5,1.531,11.6,4.689,10.93L404.1,161l3.387,11.436,4.246,4.378-5.929,1.565-3.332,11.339-8.956,1.538,5.437,6.608-0.492,25.781-8.568,12.96-2.05,12.239,9.053,7.051,14-11.228,11.318,2.431,4.343-3.65,6.857,3.034-2.293,16.381-5.617,2.528-5.216,10.979-0.173,6.178-6.227,6.338,3.955,11.484-3.5,4.655,1.5,5.368,4.218,3.65-2,8.533L412.84,325.6l0.353,3.034,0.734,6.1-2.445,5.6,2.334,2,23.5,5.652-0.028.319-7.876,4.419-20.468-.263-6.56,13.486,1.074,2.854L396.1,372.43l1.081,5.25-10.9,3.2-2.341,14.22,4.724,7,0.145,5.867,2.681,1.177-2.75,8.437-9.233,7.266-17.323.457,1.676,6.788-7.2,14.359,8.617,8.81,1.586,5.756-1.746,5.631,5.1,6.774-1.455,8.533,3.124,5-4.107,4.2,2.487,6.989,9.358-4.01,6.435,4.828,12.052-16.09,8.506-1.441,3.082-7.862,14.546,10.8,2.874-.991,1.42-5.749,15.64,5.77,4.3-13.728-2.383-8.533,1.011-11.644-2.6-1.378,3.671-7.335,5.036-2.674,4.855,2.632,8.513-.263,0.755-3.81,2.826-5.223,8.194-3.844,7.772-9.129,8.97-.242,17.974-.242-2.03,5.52-5.624,1.773-2.674,5.236,11.456,13.32-0.187,2.972,0.416,3.006,8.644,2.161,6.352,6.206,17.677-2.611,1.621-2.549,4.849,6.476,7.931,1.946,3.457-11.664,14.5-3.353,4.571-7.647,17.815-2.535,18.632-6.47,5.056,3.041,23.238,2.237,9.282-15.169,2.154,0.1,9.517,11.346,9.579,6.532,10.244-4.724,5.015,7.225,2.944-.235,6.158-6.109,11.069,3.914,8.873,0.021,0.9-9.088,13.167-7.058,3.706-3.983,1.642-12.433,4.475-8.236,13.119-13.133,1.018-.977,7.882-15.46-5.86-10.168-2.321-8.79,2.078-11.782-5.077-2.563,4.863-10.584,2.217-1.552L749.56,289.823l0.755-.991,0.131-3.117-2.556-11.741,1.385-5.915,8.776-8.291-1.074-8.063,1.475-5.846-5.264-7.086-2.237-14.379,1.455-8.921,4.4-3.976-1.586-2.563-18.272-3.893-9.469-7.792-8.769-.076-7.966,3.623-9.573-5.867-2.805-5.181-12.738,1.24-4.89-2.473-6.019-9.538-0.8,2.757-14.269,1.3-9.725-5.354-0.284-.021-13.784,8.859,1.981,8.326-5.576,13.486-5.07-.312-7.273,8.568L608.847,218.9l-1.794-2.23-3.934,3.719L602,228.945l-3.844-4.121-2.639,1.24-4.17,8.27,1.15,6.012-16.727,12.3-4.731,2.127-9.669-3.81-16.7-1.053-7.411-8.728,2.715-5.1-3.422-4.475-7.363-4.239-2.057,2.043-5.049-2.265-5.029,1.877-6.587-4.315Z" transform="translate(-37.428 -25.79)" fill="aqua" stroke="#000" stroke-width="2"/><path d="M299.5,28.056L282.609,41.043l-9.088-1.3-2.383,1.939-6.927,4.987-5.195-.43-2.6-4.114-3.249,3.893-5.41-2.383L245.6,36.278l-1.732,8-10.175.658-1.732,3.249,11.907,3.678-13.424,3.671-1.3-5.846-6.712,3.893-8.229-.43,4.537,8.007-6.927,12.336-13.424,7.792-6.927.43L190.6,85.609l4.765,6.061L189.516,93.4l0.215,3.893,5.624,0.43,4.544,6.5-2.383,5.624,2.161,5.624,6.5-.866-5.195,8.45-0.215,6.061,8.658-4.987-2.812,8.229,2.39,3.678,7.134-3.678,7.356,4.544,6.5-2.812,0.658,3.893-3.255,2.161,6.061,5.846,0.658,2.6-3.255.215L218.3,139.713l-3.893,1.524,9.739,17.1-3.463,7.578,8.873,0.866,1.081,5.846-4.987,11.692,12.551-2.39,8.658-10.819,1.3,0.43,3.893,4.765-0.43,6.061,3.893,4.765,4.329,14.719v6.061l-6.712,6.061v3.034l8.229,15.8-0.651,3.034,8.658-1.517,2.383,1.946,2.161-5.41-2.812-8.443,2.6-1.3,11.256,3.255,9.309,11.041,1.081,2.161,7.141,0.215,8-3.463,2.161-5.195,8.873-8.007,6.5,13.424,5.195,2.383L363.3,223.288h3.034l5.846,14.068,6.061,6.5-0.651,6.061,4.544,3.463,2.805-.43,2.812-4.114,2.161-12.336,8.443-12.773,0.43-25.975-5.4-6.5,9.088-1.517,3.249-11.47,6.061-1.517-4.329-4.329-3.463-11.47L392.3,159.869l-4.544-10.819-1.517-11.692,6.927-4.98-0.651-8.873,10.6-5.195-58.661,7.141-0.43-.866-13.2-2.383-17.967-3.463-14.068-5.853-6.927-7.356-8.007-16.887,3.678-11.907,1.517-9.309,14.934-11.048-6.5-12.987ZM141.051,90.61l-6.276,5.41-6.061-.658-8.229,3.255-0.651,3.034,15.155,21.86-1.517,6.276,0.651,3.671,17.967,19.263,8.229,3.249,12.121-1.939,7.356,5.4-3.034,10.819,3.678,6.927,4.537,1.946,2.812-8.007,8.658-6.927,7.141-6.5-4.114-4.765,11.256-5.41-0.658-6.5-4.329,1.3-2.161-4.537-3.893.866-6.5-12.987,3.034-2.6-6.5.866-2.161-6.276,2.812-3.678-1.946-4.765,0.658-2.812-2.6-1.732-8.873-.43,0.651-8.658-2.6-1.517L163.77,92.335l-4.544,3.249-5.41,1.517Z" transform="translate(-37.428 -25.79)" fill="#06c" stroke="#000" stroke-width="2"/><path d="M316.41,617.645l-3.47-.575-1.621-2.57,2.4-8.8-2.722-5.424L299.627,601.6l-9.954-6.733-8.755,1.053-20.156-23.911,1.122-2.784-5.327-10.4,3.664-4.149,13.936-4.308,2.653,8.658,14.657-1.926,10.445-3.013,1.773-4.821L304.6,544.2l5.14-6.262-0.894-2.563-19.741,5.361-7.585,4.918-5.943-.554-4.156-4.059,4.184-19.754,2.535-1.468-0.069-11.5,4.322-3.768,5.978-1.185,3.463,8.284,13.6-5.991,5.216-.43,0.4,5.375,1.434,5.43,7.827,8.561-7.772,11.962,5.673,6.511,10.591,4,0.776,2.792,1.274,2.549,5.5-.409,4.849-3.013,8.582-.235,8.471-6.85,2.729,0.907,7.834,9.316-1.358,6.054-2.161,2.986,12.745-1.614,3.726,1.226,4.024-4.26-1.281-8.118-9.656-.035,7.612-10.674,3.068-2.244,4.44,5.624,16.257-7.294,2.868,0.2-3.512,10.979L402.6,550.77l1.219,3.9,0.8,7.418,2.279,2.445-1.607,1.662-0.651,2.6-6.151.346-6.234,1.475-3.332,7.778-5.784,6.892,1.468,2.674v15.467l-7.508-2.507-9.309,6.116-8.714-1.309-5.541-6.719-5.5,1.6-4.454,8.056,0.616,9-4.052,4.613-0.72,8.88-10.861-4.4-3.941-8.09Z" transform="translate(-37.428 -25.79)" fill="#ff8080" stroke="#000" stroke-width="2"/><text transform="translate(486.072 349.799)" font-size="104.659" font-family="DejaVu Sans" font-weight="700">6</text><text transform="translate(223.868 184.173)" font-size="104.659" font-family="DejaVu Sans" font-weight="700">7</text><text transform="translate(134.748 485.712)" font-size="104.659" font-family="DejaVu Sans" font-weight="700">3</text><text transform="translate(528.672 655.057)" font-size="104.659" font-family="DejaVu Sans" font-weight="700">5</text><text transform="translate(219.053 771.343)" font-size="104.659" font-family="DejaVu Sans" font-weight="700">4</text><text transform="translate(273.566 575.487)" font-size="58.216" font-family="DejaVu Sans" font-weight="700">8</text><text transform="translate(353.512 618.457)" font-size="76.393" font-family="DejaVu Sans" font-weight="700">1</text><text transform="translate(417.109 508.197)" font-size="104.659" font-family="DejaVu Sans" font-weight="700">2</text></svg>