<svg xmlns="http://www.w3.org/2000/svg" width="971.33" height="821.193" viewBox="0 0 971.33 821.193"><title>Députés sortants du Finistère en 2017</title><path d="M610.268,685.774l-3.015,4.046-4.079,7.009-8.728,6.108,2.821,4.733-0.389,16.535-4.9,12.508L589.8,753.379l-2.127,1.822-8.209-.655-10.3,9.182,7.34,10.414L562.824,775.9l-6.964-3.826-5.388.473,11.7,11.717,4.591,16.308-5.071-1.3-11.114-12.313-10.511,8.63-4.435-3.534-7.321,3.566-3.067-4.539-3.527,4.091-2.3,10.783,11.762,6.653-0.3,8.268,2.464,4.967-3.281,9.746,10.511,2.775,4.74,6.627,1.686,2.5-0.285.5,8.021,10.783-1.167,7.658,5.473,9.318,10.971-1.388-1.083-10.939,3.975-12.9,4.636,0.454-0.084-3.742,7.593-.687L588.7,842.1l0.007-12.074-5.447-1.893,5.576-1.667-0.564-6.283-3.262-1.53,4.785,1.264,3.865-3.521-8.125-7.34,0.616-5.991,2.568,5.641,8.559,4.915,1.089,7.139-1.654,8.151-6.225,2.3,0.091,5.927,6.958,0.142,7.009-7.989-6,9.065,13.922,6.8-2.043.136-3.592-2.043-10.193-4.578-5.57.311-0.564,3.787-4.746,5.149-6.925.169-0.739,4-3.988-.13-2.522,10.206,1.109,10.3,7.463,5.583,6.588-3.171-5.064,4.267,1.478,3.618,9.292,5.285-4.922-1.537-2.237,3.955,3.774,5.622,5.1,0.214,0.739,7.159,4.669,0.636,3.372-3.1,4.727,0.24-1.777-8.008,3.236,6.063,4.507-3.411-3,4.234,13.734,10.8-21.093-7.249,24.984,12.1,36.415-6.264-4.046-5.609-4.422-17.43,8.922-6.569-6.555.765-3.08-6.082,5.453,2.5L663.2,865.5l2.3,10.887,10.252-.337,4.675-7.483-1.7-13.779,6.906-4.027L688.495,843l-4.468-2.989-8.326,1.1-8.417-6.893-7.561,3.184,2.328-10.822L657.5,816.347l3.9-12.9,7.366,0.37,8.222-38.672-11.749-7.132L669.463,755l7.911-.214,6.056-4.974,13.792-5.116,24.77-21.171-3.275-4.332-10.537,2.736-4.416-10.135,1.251-2.51,3.255-3.942-1.232-13.26-4.481-1.725-1.705-4.571-10.524-2.315-1.277-8.138-4.312-3.417,2.756-4.779-0.895-2.62-8.7-.234-27.642,8.4-5.434-1.439-3.858-12.359-9.61-3.353-10.375,1.18-2.879.324-0.817,2.788,0.318,17.034Z" transform="translate(-17.766 -164.511)" fill="#ff8080" stroke="#000" stroke-width="2"/><path d="M352.086,427.708l1.167,2.341-2.886-.007-5.233-6.575-5.628-.3-19.051,12.566,4.357,14.933,12.553,14.512,3.106-4.286,11.231-2.814,2.218,9.8L360.2,470.3l6.478-1.271,6.283-5.81,3.9,4.831,0.869,8.9,7.295-2.581,5.816,0.292,7.781-3.69,10.945,2.438,2.082-11.153-6.724-4.889-6.381-8.981,1.394-4.818-2.62-4.695,8.572-6.919,2.328-10.855,4.818-2.5,0.078-8.164-7.723,2.931-8.229-1.31L391.5,403.34l-2.153-1.8L387,403.055l-7.9,11.458-2.412-4.1-3,3.378-4.74-.648-4.708,5.369-2.613.078-1.53,4.811-2.464-.875Z" transform="translate(-17.766 -164.511)" fill="#ff8080" stroke="#000" stroke-width="2"/><path d="M419.892,299.262l-3.041,4.461,1.219,2.432L403.48,317.9l-2.231-.4-4.863,2.84-10.738,13.371-14.388-1.621,0.4,5.064-3.443-1.822-9.525-4.053-0.609,4.254,2.432,7.489-8.507,9.927-9.927-20.062-10.945-2.84-3.644-1.012-5.064,2.633,1.822-5.265-4.461-10.128-15.808-5.058-9.927,4.863-7.5.609-1.42,2.023-3.443-4.461-6.484,5.265-2.84-3.443-8.507,1.012-1.219,17.43-1.621-2.84-7.5-3.858-5.064,2.023-10.537,10.128-1.42,8.507-4.863,3.041-1.822,8.507-1.621,2.432-2.84,1.816-3.041,12.968,2.432,10.945,3.443,4.461-3.041,1.42,8.306,6.29,14.791-3.048,3.041-2.023,3.443,2.231-18.441,3.858-4.254,8.105,1.42-6.685-2.231-.609L229,404.618l-7.9,14.187-0.609,2.84,2.432,1.219-4.662,6.886-4.863,16.211,4.461,7.1,4.863,0.4,1.822,15.808,6.685,7.7-0.4,6.29-7.5,5.674-6.082-3.443-0.811,5.875,17.832-2.023,5.064-2.633-4.053,3.443,1.621,2.231-2.84.4-8.507-1.621-5.875,2.84,6.886,8.715-3.852,9.726,2.633,0.616-0.811,2.84,4.662,2.84,14.388-2.84,14.389,0.4,7.094-5.265,0.609-11.146,10.738-3.644,14.59,7.7,8.105,1.621,6.082,5.473,2.84-.609,7.9-.4L345.31,491.4l11.146,2.023,14.992-13.371,6.283-3.041-0.811-8.916-4.053-4.863-6.283,5.875-6.484,1.219-6.283-2.432-2.023-9.726L340.447,461l-3.041,4.254-12.566-14.59-4.461-14.791,19.051-12.566,5.674,0.2L350.368,430h2.84l-1.219-2.231,5.674-5.265,2.432,1.012,1.621-4.863h2.432l4.863-5.473,4.662,0.609,3.041-3.242,2.432,4.053,7.9-11.548,2.231-1.42,2.231,1.822,5.674,8.715,8.105,1.219,7.9-2.84,18.843-4.254,4.863,2.84,6.283,4.461,7.7-1.822,9.927-4.863,2.231-4.863-5.875-15.6,1.822-11.146-5.064-11.957-3.242-14.187-4.461-7.5,3.644-4.461-3.443-2.432,0.811-1.822,1.012-14.187-4.662-6.679,0.2-.616-12.566-7.295ZM120.807,458.126l-2.633,3.048,3.852,6.886,3.041-4.662Z" transform="translate(-17.766 -164.511)" fill="#ffc0c0" stroke="#000" stroke-width="2"/><path d="M639.136,165.525l-8.916,5.064-0.4,1.42,0.609,1.427,1.42,0.609,5.473,2.023h2.84l2.023-2.231,2.633-.4,2.231,1.816,5.875,0.4,2.231,3.443,1.621-2.432-1.012-4.254-5.265-2.231-4.053-4.254Zm18.843,20.263-7.5,13.584-1.621-11.963-2.023.4-4.662,10.336-10.945,1.621L629,205.034l-7.9,2.432-1.42,11.347,11.347,1.012-1.621.811-12.359-.4-2.633,1.822,5.473,10.537-0.609,2.231-2.023-5.473L605.5,216.381l-5.674.811-1.219,2.633-1.42-5.674-8.507-.4-11.347-.4-16.211,4.669,1.822,17.021,5.064,16.01-3.443,3.852-8.105-1.816,12.968,21.683L563.556,293l-6.685,5.064,1.822,5.473-1.219,16.827L559.1,323.6l5.473,0.811,7.9-2.432,0.811-5.479,3.852-4.053,7.9-1.816,12.767,9.921,15.4-7.7,10.738,0.811-1.012,14.187L618.27,341.63l0.811,2.84,5.265,2.231,10.945-.2,2.432,1.621,0.4,8.715-3.443,13.98,6.685,4.254,21.074,2.023-1.219,10.945L667.3,400.4l-1.621,4.254-7.9-3.048-6.082,5.479-5.265-2.237-5.265,1.621-1.012,7.7-5.064-.609-19.051-17.43-5.674-.811-3.644-14.791-10.537-3.242-11.347,5.875-16.613,5.265-2.84-2.84-4.461.4-11.548,7.295-9.726-4.669,6.685-9.11-5.064-6.685-2.84-.609-2.231,5.265-4.662,3.041-0.4,2.84-3.041,4.461,4.461,12.566-5.875,4.461,1.012,2.633,9.324,5.265,0.4,11.153,3.443,4.247-7.295,11.347,4.863,5.265,13.578,17.832L551,467.651l8.105,1.621,12.968,10.945,4.254,3.644,11.347,1.822,13.578-9.726,7.295,15.2,7.7,3.041,1.822,5.064,5.064-4.461,1.012-.609,25.327-6.886,19.654,5.674,2.84-1.012L674.4,486.7l7.295-13.98,13.371-14.992,0.811-.609L713.906,448l21.683-6.886,12.359-6.886,10.128,2.432L759.9,431.4l15.4-5.265,11.146-5.875,16.82,0.4,12.359-5.479,5.674,0.2,9.525-10.537,10.336-.811,7.5-7.094,1.621,2.231,5.473-.2,3.443,7.7,5.473,1.012,0.2-4.461,6.484-2.84,0.811-2.432-3.644-3.644,1.621-5.265-1.219-7.911,3.443-3.852,7.094-5.064,13.98-18.642,11.146-9.324-7.9-2.432L886.14,328.849l-4.863,2.432-9.927-3.852,7.7-12.359-4.863-10.336-2.84,1.012-7.7-3.858-8.715.616-4.053-4.053-2.231-2.237,0.4-10.945-4.863-2.023-2.84-4.863-5.265-30.4,2.432-4.461,3.041-5.875,8.105-6.484-8.715-6.283,6.886-10.336-7.5-1.219-12.767,6.886-5.473-3.852-6.886,1.621-11.347-13.169-14.187-1.822-8.507-1.005-9.117,5.868-6.886-.811-4.053-8.3-4.863,1.219-8.507-7.094,3.443,16.01-8.507-9.927-10.945,20.672,3.644,23.1-3.852-1.822-1.219-9.324-4.053,1.219,8.507,35.054,19.855,1.012-20.062,2.231-6.283,9.726,5.265,8.916-4.254-3.041-7.295,2.84,6.082-4.662-1.621-2.633,2.432-4.461v-8.916l-1.822-2.633-10.738-6.082-4.461-2.432L707.2,253.86l-3.443-8.105-1.012-5.479,8.715-3.242-0.811-3.852-16.613-2.231-4.053,12.968-7.5,2.84L677.822,250l2.231,7.911L677.822,272.1l3.852,7.5,2.633,1.219-1.621,2.231,3.852,10.945L676,277.579l1.822-17.021-3.644-7.489,2.84-8.306-0.609-11.749-8.916-6.283,3.041-7.9-5.064-6.886-0.2-5.674,4.863-14.791Z" transform="translate(-17.766 -164.511)" fill="#ff8080" stroke="#000" stroke-width="2"/><path d="M561.124,218.009l-13.578,4.053-13.98,14.784-5.265,7.7,11.957,1.42,3.242,3.644-13.779,2.432-6.685-.616,3.852-5.473-11.347,5.265-16.613.811-1.219,3.644-12.767,3.644,3.644,3.242-4.254,2.84-5.473-1.816-2.432-2.237-0.4-2.432,4.461-2.231-5.064-2.231,8.306-4.669,4.662-9.921-8.715-3.644-3.041-4.04-3.644,5.479-3.644-2.023,0.4-5.674-11.548-.811-26.339,16.82L411.8,248.407l2.432,4.863,17.43,9.324-19.051-3.242-1.42,4.863-3.242-5.875L395.589,270.3l-25.736,3.858-1.822-8.507-9.117,3.443-7.295-6.283,1.012,10.336-13.169-.609-1.42,12.158,8.105-.616-4.662,5.479,11.957,3.437,10.336,4.461,0.609,5.064,9.927-.4,12.767,13.98-5.265-1.621-9.324-10.128-8.306.2-1.822-5.473-3.242-.2-9.324-4.662-5.875,3.443-2.84-3.644-18.234,4.254,5.265-6.685-6.283-4.863-5.064,2.432,0.4,15.2-2.84,7.7,8.715,1.816,5.265,9.927,16.82,0.811,23.3,8.306,2.84-.811,14.388,1.621L396.4,320.349l4.863-2.84,2.231,0.4,14.59-11.749-1.219-2.432,3.041-4.461,11.347,4.863,12.566,7.295-0.2.609,4.662,6.685-1.012,14.187-0.811,1.822,3.443,2.432-3.644,4.461,4.461,7.5,3.242,14.187,5.064,11.963L457.2,386.416l5.875,15.6-2.231,4.863-9.927,4.863-7.7,1.816-6.283-4.461-4.863-2.84-18.843,4.247-0.2,8.105-4.863,2.432-2.231,10.945-8.507,6.886,2.633,4.669-1.42,4.863,6.283,8.916,6.685,4.863,5.875-.616,9.324,5.674,9.324-6.082h4.662l2.633-2.023,2.633-.609,2.231-5.064,10.738-1.42,10.537-7.7,8.105-2.231L497.118,426.3l2.432-3.443,2.231,0.609-24.115,22.695,5.473,1.42,7.094,9.117,5.265,13.578-0.609,2.84-11.146,9.324-2.023,5.265,2.432,8.306,5.064,1.816,13.371-3.437-3.242-10.342,8.105-.4,0.609-2.633,2.432-8.105,9.324-6.082,2.023-8.507-1.621-8.507,2.84-8.105,5.674,0.811,4.863-3.041,7.295-11.347-3.443-4.254-0.4-11.146-9.324-5.265-1.012-2.633,5.875-4.461L528.119,387.8l3.041-4.461,0.4-2.84,4.662-3.041,2.231-5.265,2.84,0.616,5.064,6.679-6.685,9.117,9.726,4.662,11.548-7.295,4.461-.4,2.84,2.84,16.613-5.265,11.347-5.875,10.537,3.242,3.644,14.791,5.674,0.811,19.051,17.43,5.064,0.616,1.012-7.7,5.265-1.621,5.265,2.231L657.8,401.6l7.9,3.041,1.621-4.247-6.082-12.359,1.219-10.945-21.074-2.023-6.685-4.254,3.443-13.973-0.4-8.721-2.432-1.621-10.945.2-5.265-2.231-0.811-2.84,4.662-13.779,1.012-14.187-10.738-.811-15.4,7.7-12.767-9.927-7.9,1.822-3.852,4.053L572.5,321.97l-7.9,2.432-5.473-.811-1.621-3.242,1.219-16.82-1.822-5.473,6.685-5.064,5.875-18.234-12.968-21.69,8.105,1.822,3.443-3.852-5.064-16.01ZM328.3,326.01l2.84,4.053,10.945,2.84,9.927,20.062,8.507-9.921-2.432-7.5-6.082-5.875-8.306-2.432-11.347-1.012Z" transform="translate(-17.766 -164.511)" fill="#ff8080" stroke="#000" stroke-width="2"/><path d="M59.609,390.45l-1.42.811,1.621,2.432-0.609,1.42-2.023,2.023-2.84,1.219-5.674-1.005-7.094,2.432-2.84,4.863-11.957,6.082-3.852,6.283,0.2,1.219,1.42,0.4,3.041-.2,13.98-4.863,1.42-.4,2.84,1.012,2.023,2.023-0.609,2.84-7.5,4.662L36.1,427.955l6.886,1.219,1.621-2.231,5.674-1.621,4.863-7.094,11.347-.616,5.875-6.484,5.674-.609,2.023-2.231-0.2-1.42-1.219-.811-5.875-.2-3.852-2.023,1.42-8.3H66.08l-2.432-3.644Zm789.052,6.484-7.5,7.094-10.336.811L821.3,415.375l-5.674-.195-12.359,5.473-16.82-.4L775.3,426.126l-15.4,5.265-1.822,5.265-10.128-2.432L735.6,441.111,713.912,448l-18.033,9.117-0.811.609L681.7,472.716,674.4,486.689l-2.432,5.265-2.84,1.005-19.654-5.674-25.327,6.886-1.012.609-5.064,4.461-1.822-5.064-7.7-3.041-7.295-15.206-13.578,9.726-11.347-1.816-4.254-3.644-12.968-10.945L551,467.632l1.012-5.064-13.578-17.832-4.863-5.265-4.863,3.041-5.674-.811-2.84,8.105,1.621,8.507-2.023,8.507L510.47,472.9l-2.432,8.105-0.609,2.633-8.105.4,3.242,10.342h4.254l-5.473,3.852L490,501.48l7.5,3.644-21.884,8.721,8.105,3.852-9.525,2.231-9.324,11.347,14.992-3.041,9.117,5.064,5.875-7.1,5.473-.811,9.726-5.868,5.473-.4-4.254,3.443-16.613,8.105,6.283,4.662,7.094-1.005,6.082,8.105,2.023-9.324,12.566-2.432-9.726,5.265,2.633,7.5,22.085,0.609,7.094,1.219-8.105,3.852-3.852-2.84-12.359,5.674-3.041-4.053L504.79,559.436l-7.295-1.816-1.621,2.626,5.265,3.047,11.548,6.886,6.484,9.927,12.158-5.674,5.875,8.715,27.357,2.231,3.041-1.42-0.811,2.633,9.927,4.053,21.074-11.749-6.484,6.484-0.609,6.082L585.836,609.9l2.84-21.476-14.187,6.283-10.537-6.886L534.773,586.2l2.023,6.484-3.443-4.053-3.443-11.749-6.082,5.875-7.295,1.816v-3.437l-5.674-5.064-8.507.2,7.094-3.644-13.779-9.921-4.053,1.005,1.621-3.242,0.2-8.507,5.674-.609,4.254,4.461L506,547.511l-24.115-3.041L464.251,554.2l-7.9-.609-8.105,7.094-9.525,2.023-14.187-1.219-7.295-12.158-20.062-1.219-7.094,5.064-16.412,4.863-7.9-12.158,10.128-12.359-5.875-1.219-8.507,16.01-6.484,7.094-9.117-8.715-2.231-8.507,4.461-3.644,3.041-14.388,4.254-7.7,1.219-4.863L352.4,508.8l-8.306,2.633L331.732,524l6.082,25.126,0.609,4.668-5.674,6.283-9.324,2.023-4.053-9.525-6.082,5.064-11.347.811,8.306,4.053-3.644,16.405,6.484-4.461,8.916,5.674,8.507,1.621,13.169-5.265,7.5,7.5,0.2,7.295-16.211,5.473,5.064,2.84,6.685,26.138L346.108,640.5l-4.053,4.053,4.662,6.685,5.473-1.621,2.023-8.507,8.306-8.105L369,616.8l7.7-8.507-2.432-5.473,2.432-5.064,2.633-1.42,17.222-1.822,11.146,3.443,3.852,4.254,5.674-.4,10.537,4.461,15.4,4.662,4.863,9.324,19.453-.4,4.053,3.242,2.023-1.42,2.633,0.195,1.822,4.863,4.863,2.023,4.461,9.726,2.432,7.9-2.432,7.5,1.012,5.265,10.537,2.626,1.42,2.432,0.4,4.668,1.42,11.146-8.105,7.295V701.09l-7.5,10.336,0.4,2.633,12.767,6.082,2.231,5.265,7.7,5.674L523,724.6l4.461-2.633,1.219-5.473,8.105-.811,14.791-7.094,19.051-3.443,8.916,5.265,14.791-7.489,8.916-6.082,4.053-7.094,3.041-4.053,7.295-8.916-0.4-17.021,0.811-2.633,2.84-.4,10.537-1.219,9.525,3.443L644.8,671.3l5.473,1.426,27.558-8.507,8.715,0.4,1.012,2.626-2.84,4.668,4.254,3.437,1.42,8.105,10.537,2.432,1.621,4.461,4.461,1.822,1.219,13.163-3.242,4.053-1.219,2.432,4.461,10.128,10.537-2.633,3.242,4.254-24.718,21.074,0.609,5.674,4.863,2.84,11.146-1.005,7.9,2.023,3.242,4.662,8.306-.4L751.6,745.663l3.852-10.537,7.295,1.42v5.265l2.84,0.4-1.012-8.105,2.633-5.064,13.169-10.537,13.779-3.644,3.644-4.254,1.822-5.473-1.42-8.306,6.685-4.863-2.023-4.461,6.685-8.916-0.609-5.473,7.5-3.443,1.822-5.058,13.371,0.4,10.128-3.852,17.832-12.158,31-12.359-1.012-3.443,12.968-2.84,10.336,3.242,2.432-1.012-0.811-5.265-0.609-5.674L903.557,617.4l-8.306-14.992,1.42-11.347,5.064-2.237,2.023-7.9,10.336-1.621-2.432-4.863,0.4-8.105,4.254-9.525-2.84.609-3.852-4.053-12.566-5.473,0.4-5.479,5.265,0.616,8.306-14.395,5.064-1.816-4.863-2.84-6.283,6.082-5.265-.2-4.461-22.695-3.644-4.053,4.863-19.051-0.609-5.674-28.978-9.525L869.9,464.4l-0.609-5.473,1.621-1.621,0.811-16.827,7.7-8.715,10.336-4.863,8.715-7.5-2.231-4.863-8.105.811-5.473-5.473,0.2-2.84-7.5-1.42-1.42-4.863-2.633-.4-6.484,2.84-0.2,4.461-5.473-1.012-3.443-7.7-5.473.195ZM477.64,446.175L458.59,457.523l-4.254-.4-2.633,1.42L448.26,463.6,428,474.142l-7.5,10.128-9.525,6.484-10.537,29.38,4.254,1.012,24.718-13.98,5.473,0.2-5.875,3.242L420.7,521.957l24.115-1.219,3.852-7.5-0.811-8.507,14.59-9.726-7.094,10.945,4.053,0.195,12.767-12.158,3.041-3.437-7.094,17.831,17.832-2.84-4.053-4.053,2.231-5.473-2.432-8.306,2.023-5.265,11.146-9.324,0.609-2.84-5.265-13.578-7.094-9.117Z" transform="translate(-17.766 -164.511)" fill="#ff8080" stroke="#000" stroke-width="2"/><path d="M450.692,698.853l-8.715,2.237-8.306,2.432-11.548-1.012-9.324,6.484-14.187,1.42-5.674-.609-11.749,8.306-8.507-1.822L355.86,717.3l-7.5,8.3-10.945-3.041-8.105,1.621-21.275,9.525-3.852-2.626-2.023,2.626-19.252-2.626-2.023,8.715-23.3-3.443-0.609,2.432,0.2,2.84,4.254,10.128-2.023,2.023-17.222,3.041,7.9,4.461,16.412,6.679,17.631,0.616,6.283,2.84,11.347-5.674,6.082,9.324,10.537,2.432,2.84-.195,4.662,6.886,12.767,5.473,9.324-9.525,3.443,1.012,3.242-4.461,1.219-15.808-3.443-1.42,4.254,0.609,3.242-2.023,2.633-1.012,17.43,0.609,0.4,1.219L358.1,761.094l-2.84,19.855,20.062,7.9,14.992,13.169,5.473-.2,22.9,20.672,5.473,10.128,6.685,8.916,13.779,26.553,4.053,10.128,14.791-5.674-9.726,9.117-1.42,7.9,4.053,13.169L459,914.284l-1.219,14.992-16.613,8.916-0.2,2.84,3.852,3.852,1.219,11.146,24.925,0.2L484.948,954l7.5,6.484,8.105-6.685,0.4,2.633-4.461,4.053,7.5,1.822,21.683-2.432,7.9-2.237-4.053-11.957,1.822-1.621,4.461,9.117,9.117,4.863,10.945-9.532-1.012-4.863,4.662-.609,2.432-16.82-12.359-3.443-5.674-11.957-11.146-12.968,8.105,6.283,8.105-16.211,6.484,4.863,3.041,14.992-1.621,13.98,1.621-.4,2.633-7.7,6.082-4.254,14.791-8.306,6.082,2.633-0.4-8.916-5.064-4.254,0.2-5.064-9.927-9.324L565.6,879l-8.715-2.231-3.242-10.336,1.219-7.7L546.761,848l0.2-.4-1.621-2.633-4.662-6.484-10.537-2.84,3.242-9.726-2.432-5.064,0.2-8.306L519.4,806.062l2.432-10.945,3.443-4.053,3.041,4.662,7.295-3.644,4.461,3.443,10.537-8.507,11.146,12.353,5.064,1.219-4.662-16.211L550.412,772.63l5.473-.616,6.886,3.858,13.779-1.621-7.295-10.537,10.336-9.117,8.105,0.609,2.231-1.822,2.023-16.613,4.863-12.566,0.4-16.412-2.84-4.863-14.791,7.5-8.916-5.265L551.618,708.6l-14.791,7.1-8.105.811-1.219,5.473-4.461,2.633L509.672,731.1l-7.7-5.674-2.231-5.265-12.767-6.082-5.265,2.023-11.146-7.094-3.443.609,1.822,14.187-6.484-15.6ZM172.473,753.768l-1.621,2.84,2.231,2.237,1.42-1.822,4.053,1.219L182,763.714l2.432,0.4,2.432-.609-4.254-.811-0.811-6.082-1.822.811-2.231-1.816h-2.432Z" transform="translate(-17.766 -164.511)" fill="#ff8080" stroke="#000" stroke-width="2"/><path d="M976.582,902.535l-6.886-4.422-15.8,5.978,0.512,10.576-4.818,9.707-8.352.674-7.2,8.65-2.814.175-9.914-5.337-5.5-6.141-0.175-7.924-2.055-.376-3.891-6.458-5.395-.324-1.109-7.606-1.491,7.431,6.562,3.968,2.788,7.087L904,924.543l-1.394,11.691,2.847,0.584,0.979,6.231,5.985,4.014-2.769,3.605L914,952.224l-4.85,9.83,1.413,3.151L907.57,974.2l1.628,4.662-3.644,5.687-16.159-4.319-24.238-1.323-2.918.363-17.267-5.142,4.3-12.767-6.906,10.193-8.644-1.485-5.012,4.26-24.523-17.981-0.35-4.111,8.216-8.293,3.994,3.028-0.032-7.107,15.912-4.785,8.507,1.77,3.339,0.162,5.557-6.4-7.178,4.526-11.308-2.25-7.976,3.171-3.625,1.374-0.1-7.975-5.512,11.918-15.679,11.736L792.728,940.2l-0.759-8.877-4.014-5.434,2.594-6.666-2.133-1.452L789.732,915l-3.852,3.138,2.633,1.3-4.636,5.3,6.5,7.626,0.648,6.484-6.03,1.193,5.888,1.608,4.28,14.155-12.515,7.217-14-1.718-7.412,2.944-4.292-.875-1.991-4.228-13.935-1.809-7.956,2.5-2.736-8.163-23.6-25.554-0.778-5.524,3.936-4.04,1.057-5.7,6.62-5.551-12.015,7.431-5.382-1.388-1.718-2.269,4.351-3.4-0.519-2.8-3.651-4.344-7.976-2.782-3.534-7.716-4.526-3.469-3.32-7.463,1.154-8.494-1.7-13.779,6.906-4.027,2.866-7.768-4.468-2.989-8.326,1.1-8.417-6.886-7.561,3.184,2.328-10.822-4.552-10.232,3.9-12.9,7.366,0.37L677,765.175l-11.749-7.126,4.221-3.015,7.911-.214,6.056-4.98,13.792-5.116,0.752,5.635,4.837,2.84,11.127-1.083,7.833,2.016,3.2,4.668,8.4-.4,18.169-12.826,3.962-10.42,7.3,1.485v5.2l2.795,0.48-0.986-8.28,2.659-4.954,13.163-10.608,13.695-3.618,3.722-4.221,13.74-1.55,7.185,3.949-4.857,7.159,1.893,11.438-1.835,2.263,1.213,2.652,14.836,8.216,7.541,30.787,6.562,9.512,4.39,16.651,10.5,2.464,4.941-1.88,4.26-3.715,8.4,0.259,4.442,2.749,4.208-3.813,11.159-1.063,4.6,3.339,8.254,1.329,7.308,8.416,11.069-.609,6.7,8.125,2.963,13.221,6.562,4.319,2.237-1.679,1.466-8.248,10.848-2.088,13.169-9.882,2.62-.953,2.5,5,2.782,0.214,1.148,5.168,4.468,2.834,0.019,5.278-4.306,7.3,7.146,12.3-2.12,5.375-7.95,2.62-2.795,10.278,4.934,15.99-0.817,13.948,3.035,4.338Z" transform="translate(-17.766 -164.511)" fill="#ff8080" stroke="#000" stroke-width="2"/><text transform="translate(579.45 639.564)" font-size="97.975" font-family="DejaVu Sans" font-weight="700">1</text><text transform="translate(654.85 430.004)" font-size="97.975" font-family="DejaVu Sans" font-weight="700">6</text><text transform="translate(680.706 209.559)" font-size="97.975" font-family="DejaVu Sans" font-weight="700">4</text><text transform="translate(462.982 193.408)" font-size="97.975" font-family="DejaVu Sans" font-weight="700">5</text><text transform="translate(245.94 261.271)" font-size="97.975" font-family="DejaVu Sans" font-weight="700">3</text><text transform="translate(342.757 293.617)" font-size="49.064" font-family="DejaVu Sans" font-weight="700">2</text><text transform="translate(430.194 660.655)" font-size="97.975" font-family="DejaVu Sans" font-weight="700">7</text><text transform="translate(748.064 711.004)" font-size="97.975" font-family="DejaVu Sans" font-weight="700">8</text><path d="M410.976,490.754L375.8,494.328,346.711,503l-32.383,18.953L266.6,542.806,186.861,514.74l-76.414-33.169V447.013L97.69,396.934s-27.215-16.741-32.658-16.741S22.921,390.45,22.921,390.45l-4.155,11.094v56.582l49.668,44.536,83.007,71.44L235.809,633.3l221.125,51.029,29.6,27.1" transform="translate(-17.766 -164.511)" fill="none" stroke="#000" stroke-width="2" stroke-dasharray="4"/></svg>