<svg xmlns="http://www.w3.org/2000/svg" width="967.959" height="818.344" viewBox="0 0 967.959 818.344"><title>Députés sortants du Finistère en 2017</title><path d="M614.359,679.492l-3,4.032-4.064,6.985-8.7,6.087,2.811,4.717-0.388,16.477-4.885,12.465-2.165,16.607-2.119,1.816-8.18-.653-10.268,9.15,7.315,10.378L567.079,769.3l-6.94-3.813-5.37.472,11.657,11.676L571,793.889l-5.053-1.3L554.873,780.32l-10.474,8.6-4.42-3.522-7.3,3.554-3.056-4.523-3.515,4.077-2.287,10.746,11.721,6.63-0.3,8.239,2.455,4.95-3.27,9.712,10.474,2.765,4.723,6.6,1.68,2.494-0.284.5,7.993,10.746-1.163,7.631,5.454,9.286,10.933-1.383-1.079-10.9,3.961-12.852,4.62,0.452-0.084-3.729,7.567-.685,3.638-4.439,0.007-12.032-5.428-1.887L593,819.691l-0.562-6.261-3.25-1.525,4.769,1.26,3.851-3.509-8.1-7.315,0.614-5.971,2.559,5.622,8.529,4.9L602.5,814l-1.648,8.122-6.2,2.294,0.091,5.906,6.933,0.142,6.985-7.961-5.983,9.033,13.873,6.772-2.035.136-3.58-2.035-10.158-4.562-5.551.31-0.562,3.774-4.73,5.131-6.9.168L582.3,845.22l-3.974-.129-2.514,10.171,1.1,10.268,7.437,5.564,6.565-3.16-5.047,4.252,1.473,3.606,9.26,5.266-4.9-1.531-2.229,3.942,3.761,5.6,5.085,0.213,0.737,7.134,4.652,0.633,3.36-3.089,4.711,0.239-1.77-7.98,3.224,6.042,4.491-3.4-2.985,4.22,13.686,10.765-21.02-7.224,24.9,12.058,36.289-6.242-4.032-5.589-4.407-17.369,8.891-6.546-6.533.762-3.069-6.061,5.434,2.488,2.236-11.528,2.287,10.849,10.216-.336,4.659-7.457-1.693-13.731,6.882-4.013,2.856-7.741-4.452-2.979-8.3,1.1-8.387-6.869-7.534,3.173,2.32-10.785-4.536-10.2,3.89-12.852,7.34,0.368,8.193-38.537-11.709-7.108,4.207-3,7.883-.213,6.035-4.956,13.744-5.1,24.684-21.1-3.263-4.317-10.5,2.727-4.4-10.1,1.247-2.5,3.244-3.929-1.228-13.214-4.465-1.719-1.7-4.556L694.142,677.2l-1.273-8.109-4.3-3.405,2.746-4.762-0.892-2.61-8.665-.233-27.546,8.368-5.415-1.434-3.845-12.316-9.576-3.341L625.04,650.53l-2.869.323-0.814,2.778,0.317,16.975Z" transform="translate(-23.913 -160.038)" fill="#ff8080" stroke="#000" stroke-width="2"/><path d="M357.074,422.324l1.163,2.333-2.875-.007-5.215-6.552-5.609-.3-18.984,12.523L329.9,445.2l12.51,14.461,3.1-4.271,11.192-2.8,2.21,9.77,6.261,2.417,6.455-1.267,6.261-5.79,3.884,4.814,0.866,8.872,7.269-2.572,5.8,0.291,7.754-3.677,10.907,2.43,2.074-11.114-6.7-4.872-6.358-8.949,1.389-4.8-2.61-4.678,8.542-6.895,2.32-10.817,4.8-2.494,0.077-8.135-7.7,2.921-8.2-1.305-5.641-8.691-2.145-1.79-2.339,1.506-7.877,11.418-2.4-4.084-2.992,3.367-4.723-.646-4.691,5.35-2.6.077-1.525,4.795-2.455-.872Z" transform="translate(-23.913 -160.038)" fill="#ff8080" stroke="#000" stroke-width="2"/><path d="M424.644,294.324l-3.03,4.446,1.215,2.423L408.29,312.9l-2.223-.4-4.846,2.83-10.7,13.324-14.338-1.615,0.4,5.047-3.431-1.816-9.492-4.039-0.607,4.239,2.423,7.463L357,347.827,347.1,327.835,336.2,325,332.565,324l-5.047,2.623,1.816-5.247-4.446-10.093-15.753-5.04-9.893,4.846-7.47.607-1.415,2.016-3.431-4.446-6.462,5.247-2.83-3.431-8.478,1.008-1.215,17.369-1.615-2.83-7.47-3.845L253.81,324.8l-10.5,10.093-1.415,8.478-4.846,3.03-1.816,8.478-1.615,2.423-2.83,1.809-3.03,12.923,2.423,10.907,3.431,4.446-3.03,1.415,8.277,6.268,14.739-3.037,3.03-2.016,3.431,2.223-18.377,3.845-4.239,8.077,1.415-6.662-2.223-.607-2.223,2.423-7.877,14.138-0.607,2.83,2.423,1.215-4.646,6.862-4.846,16.154,4.446,7.076,4.846,0.4,1.816,15.753,6.662,7.676-0.4,6.268-7.47,5.654L222.7,479.91l-0.808,5.854,17.77-2.016,5.047-2.623-4.039,3.431,1.615,2.223-2.83.4-8.478-1.615-5.854,2.83,6.862,8.685-3.838,9.693,2.623,0.614-0.808,2.83,4.646,2.83,14.338-2.83,14.339,0.4,7.069-5.247,0.607-11.108,10.7-3.632,14.539,7.676,8.077,1.615,6.061,5.454,2.83-.607,7.877-.4,29.278-18.577,11.108,2.016,14.939-13.324,6.261-3.03-0.808-8.885-4.039-4.846-6.261,5.854-6.462,1.215-6.261-2.423-2.016-9.693-11.308,2.83-3.03,4.239L329.923,445.2l-4.446-14.739,18.984-12.523,5.654,0.2,5.247,6.462h2.83l-1.215-2.223,5.654-5.247,2.423,1.008,1.615-4.846h2.423l4.846-5.454,4.646,0.607,3.03-3.231,2.423,4.039,7.877-11.508,2.223-1.415,2.223,1.816,5.654,8.684,8.077,1.215,7.877-2.83,18.778-4.239,4.846,2.83,6.261,4.446,7.676-1.816,9.893-4.846,2.223-4.846L461.792,381.2l1.816-11.108-5.047-11.915-3.231-14.138-4.446-7.47,3.632-4.446-3.431-2.423,0.808-1.816,1.008-14.138-4.646-6.656,0.2-.614-12.523-7.269ZM126.6,452.635l-2.623,3.037,3.838,6.862,3.03-4.646Z" transform="translate(-23.913 -160.038)" fill="#ffc0c0" stroke="#000" stroke-width="2"/><path d="M643.126,161.052l-8.885,5.047-0.4,1.415,0.607,1.422,1.415,0.607,5.454,2.016h2.83l2.016-2.223,2.623-.4,2.223,1.809,5.854,0.4,2.223,3.431,1.615-2.423-1.008-4.239-5.247-2.223-4.039-4.239ZM661.9,181.245l-7.47,13.537-1.615-11.922-2.016.4-4.646,10.3-10.907,1.615-2.223,5.247-7.877,2.423-1.415,11.308,11.308,1.008-1.615.808-12.316-.4-2.623,1.816,5.454,10.5-0.607,2.223-2.016-5.454-11.709-12.923-5.654.808-1.215,2.623-1.415-5.654-8.478-.4-11.308-.4-16.154,4.652,1.816,16.962,5.047,15.954-3.431,3.838L560.74,248.3l12.923,21.608-5.854,18.17-6.662,5.047,1.816,5.454-1.215,16.768,1.615,3.231,5.454,0.808,7.877-2.423,0.808-5.46,3.838-4.039,7.877-1.809,12.723,9.886,15.346-7.676,10.7,0.808-1.008,14.138-4.646,13.731,0.808,2.83,5.247,2.223,10.907-.2,2.423,1.615,0.4,8.684-3.431,13.931,6.662,4.239,21,2.016-1.215,10.907,6.061,12.316-1.615,4.239-7.877-3.037-6.061,5.46L650.4,399.54l-5.247,1.615-1.008,7.676-5.047-.607L620.11,390.855l-5.654-.808-3.632-14.739-10.5-3.231-11.308,5.854-16.555,5.247-2.83-2.83-4.446.4-11.508,7.269-9.693-4.652,6.662-9.079-5.047-6.662-2.83-.607-2.223,5.247L535.9,375.3l-0.4,2.83-3.03,4.446,4.446,12.523-5.854,4.446,1.008,2.623,9.292,5.247,0.4,11.114,3.431,4.232-7.269,11.308,4.846,5.247,13.531,17.77-1.008,5.047,8.077,1.615,12.923,10.907,4.239,3.632L591.84,480.1l13.531-9.693,7.269,15.146,7.676,3.03,1.816,5.046,5.047-4.446,1.008-.607,25.239-6.862,19.585,5.654,2.83-1.008,2.423-5.247,7.269-13.931,13.324-14.939,0.808-.607,17.97-9.085,21.608-6.862,12.316-6.862,10.093,2.423L763.469,426l15.346-5.247,11.108-5.854,16.762,0.4L819,409.839l5.654,0.2,9.492-10.5,10.3-.808,7.47-7.069,1.615,2.223,5.454-.2,3.431,7.676,5.454,1.008,0.2-4.446,6.462-2.83,0.808-2.423-3.632-3.632,1.615-5.247-1.215-7.883,3.431-3.838,7.069-5.047,13.931-18.577,11.108-9.292-7.877-2.423-10.5-12.923-4.846,2.423-9.893-3.838,7.676-12.316-4.846-10.3-2.83,1.008-7.676-3.845-8.684.614-4.039-4.039-2.223-2.229,0.4-10.907-4.846-2.016-2.83-4.846-5.247-30.292,2.423-4.446,3.03-5.854,8.077-6.462-8.684-6.261,6.862-10.3-7.47-1.215L830.9,215.55l-5.454-3.838-6.862,1.615L807.279,200.2l-14.138-1.816-8.478-1-9.085,5.848-6.862-.808-4.039-8.271-4.846,1.215-8.478-7.069,3.431,15.954-8.478-9.893-10.907,20.6,3.632,23.017-3.838-1.816-1.215-9.292-4.039,1.215,8.478,34.932,19.786,1.008-19.992,2.223-6.261,9.693,5.247,8.885-4.239-3.03-7.269,2.83,6.061-4.646-1.615-2.623,2.423-4.446v-8.885l-1.816-2.623-10.7-6.061-4.446-2.423-4.646-3.838L707.517,241l-1.008-5.46,8.684-3.231-0.808-3.838-16.555-2.223-4.039,12.923-7.47,2.83-4.646,3.231,2.223,7.883-2.223,14.138,3.838,7.47,2.623,1.215-1.615,2.223,3.838,10.907-10.5-16.355,1.816-16.962-3.632-7.463,2.83-8.277L680.268,228.3l-8.885-6.261,3.03-7.877-5.047-6.862-0.2-5.654,4.846-14.739Z" transform="translate(-23.913 -160.038)" fill="#ff8080" stroke="#000" stroke-width="2"/><path d="M565.386,213.353l-13.531,4.039-13.931,14.733-5.247,7.676,11.915,1.415,3.231,3.632-13.731,2.423-6.662-.614,3.838-5.454L519.96,246.45l-16.555.808-1.215,3.632-12.723,3.632,3.632,3.231-4.239,2.83-5.454-1.809-2.423-2.229-0.4-2.423,4.446-2.223-5.047-2.223,8.277-4.652,4.646-9.886L484.22,231.5l-3.03-4.026-3.632,5.46-3.632-2.016,0.4-5.654-11.508-.808-26.247,16.762-19.992,2.423L419,248.492l17.369,9.292-18.984-3.231-1.415,4.846-3.231-5.854L400.426,265.46,374.779,269.3l-1.816-8.478-9.085,3.431L356.609,258l1.008,10.3-13.124-.607L343.078,279.8l8.077-.614-4.646,5.46,11.915,3.425,10.3,4.446,0.607,5.047,9.893-.4L391.948,311.1l-5.247-1.615-9.292-10.093-8.277.2-1.816-5.454-3.231-.2-9.292-4.646-5.854,3.431-2.83-3.632-18.17,4.239,5.247-6.662-6.261-4.846-5.047,2.423,0.4,15.146-2.83,7.676,8.684,1.809,5.247,9.893,16.762,0.808,23.223,8.277,2.83-.808,14.338,1.615,10.7-13.324,4.846-2.83,2.223,0.4L422.841,301.2l-1.215-2.423,3.03-4.446,11.308,4.846,12.523,7.269-0.2.607,4.646,6.662-1.008,14.138-0.808,1.816,3.431,2.423-3.632,4.446,4.446,7.47,3.231,14.138,5.047,11.922-1.816,11.108,5.854,15.547-2.223,4.846-9.893,4.846-7.676,1.809-6.261-4.446-4.846-2.83L418,405.18l-0.2,8.077-4.846,2.423-2.223,10.907-8.478,6.862,2.623,4.652-1.415,4.846,6.261,8.885,6.662,4.846,5.854-.614,9.292,5.654,9.292-6.061h4.646l2.623-2.016,2.623-.607,2.223-5.047,10.7-1.415,10.5-7.676,8.077-2.223L501.6,420.921l2.423-3.431,2.223,0.607-24.031,22.616,5.454,1.415,7.069,9.085,5.247,13.531-0.607,2.83-11.108,9.292-2.016,5.247,2.423,8.277,5.047,1.809,13.324-3.425-3.231-10.306,8.077-.4,0.607-2.623,2.423-8.077,9.292-6.061,2.016-8.478-1.615-8.478,2.83-8.077,5.654,0.808,4.846-3.03,7.269-11.308-3.431-4.239-0.4-11.108-9.292-5.247-1.008-2.623,5.854-4.446L532.5,382.558l3.03-4.446,0.4-2.83,4.646-3.03,2.223-5.247,2.83,0.614,5.047,6.656-6.662,9.085,9.693,4.646,11.508-7.269,4.446-.4,2.83,2.83,16.555-5.247,11.308-5.854,10.5,3.231,3.632,14.739,5.654,0.808,18.984,17.369,5.047,0.614,1.008-7.676,5.247-1.615,5.247,2.223,6.061-5.454,7.877,3.03,1.615-4.232-6.061-12.316,1.215-10.907-21-2.016-6.662-4.239,3.431-13.925-0.4-8.691-2.423-1.615-10.907.2-5.247-2.223-0.808-2.83L627,322.807l1.008-14.138-10.7-.808-15.346,7.676-12.723-9.893-7.877,1.816-3.838,4.039-0.808,5.454-7.877,2.423-5.454-.808-1.615-3.231,1.215-16.762-1.816-5.454,6.662-5.047,5.854-18.17-12.923-21.614,8.077,1.816,3.431-3.838-5.047-15.954ZM333.373,320.979l2.83,4.039,10.907,2.83L357,347.84l8.478-9.886-2.423-7.47L357,324.629l-8.277-2.423L337.411,321.2Z" transform="translate(-23.913 -160.038)" fill="#ff8080" stroke="#000" stroke-width="2"/><path d="M65.614,385.195L64.2,386l1.615,2.423-0.607,1.415-2.016,2.016-2.83,1.215-5.654-1-7.069,2.423-2.83,4.846L32.892,405.4l-3.838,6.261,0.2,1.215,1.415,0.4,3.03-.2,13.931-4.846,1.415-.4,2.83,1.008,2.016,2.016-0.607,2.83-7.47,4.646-3.631,4.239,6.862,1.215,1.615-2.223,5.654-1.615,4.846-7.069,11.308-.614,5.854-6.462,5.654-.607,2.016-2.223-0.2-1.415-1.215-.808-5.854-.2-3.838-2.016L76.3,390.26H72.063l-2.423-3.632Zm786.308,6.462-7.47,7.069-10.3.808-9.492,10.5-5.654-.194-12.316,5.454-16.762-.4-11.108,5.854-15.346,5.247-1.816,5.247-10.093-2.423L739.25,435.68l-21.608,6.862-17.97,9.085-0.808.607L685.54,467.174,678.271,481.1l-2.423,5.247-2.83,1-19.585-5.654-25.239,6.862-1.008.607-5.047,4.446-1.816-5.047-7.676-3.03-7.269-15.153-13.531,9.693-11.308-1.809-4.239-3.632-12.923-10.907-8.077-1.615,1.008-5.047-13.531-17.77-4.846-5.247-4.846,3.03-5.654-.808-2.83,8.077,1.615,8.478L524.2,461.3l-9.292,6.061-2.423,8.077-0.607,2.623-8.077.4,3.231,10.306h4.239l-5.454,3.838-11.308,3.231,7.47,3.632-21.808,8.691L488.246,512l-9.492,2.223-9.292,11.308L484.4,522.5l9.085,5.047,5.854-7.075,5.454-.808,9.693-5.848,5.454-.4-4.239,3.431-16.555,8.077,6.261,4.646,7.069-1,6.061,8.077,2.016-9.292,12.523-2.423-9.693,5.247,2.623,7.47,22.008,0.607,7.069,1.215-8.077,3.838-3.838-2.83-12.316,5.654-3.03-4.039-18.577,11.5-7.269-1.809-1.615,2.617,5.247,3.037,11.508,6.862,6.462,9.893,12.116-5.654,5.854,8.684,27.262,2.223,3.03-1.415-0.808,2.623,9.893,4.039,21-11.709-6.462,6.462-0.607,6.061-4.846,18.377,2.83-21.4L578.7,588.744l-10.5-6.862-29.078-1.615,2.016,6.462-3.431-4.039-3.431-11.709-6.061,5.854-7.269,1.809V575.22l-5.654-5.047-8.478.2,7.069-3.632-13.731-9.887-4.039,1,1.615-3.231,0.2-8.478,5.654-.607,4.239,4.446,2.623-8.277-24.031-3.03-17.569,9.693-7.877-.607-8.077,7.069-9.492,2.016-14.138-1.215L422,543.519,402,542.3l-7.069,5.047L378.579,552.2,370.7,540.081,380.8,527.765l-5.854-1.215L366.464,542.5,360,549.573l-9.085-8.684-2.223-8.478,4.446-3.632,3.03-14.338,4.239-7.676,1.215-4.846-4.239,1.215-8.277,2.623-12.316,12.523,6.061,25.039,0.607,4.652-5.654,6.261-9.292,2.016-4.039-9.492-6.061,5.047-11.308.808,8.277,4.039L311.752,573l6.462-4.446,8.885,5.654,8.478,1.615,13.124-5.247,7.47,7.47,0.2,7.269-16.154,5.454,5.047,2.83,6.662,26.047-0.808,14.733-4.039,4.039,4.646,6.662,5.454-1.615,2.016-8.478,8.277-8.077,6.462-16.154,7.676-8.478-2.423-5.454,2.423-5.047,2.623-1.415,17.162-1.816,11.108,3.431,3.838,4.239,5.654-.4,10.5,4.446,15.346,4.646,4.846,9.292,19.385-.4,4.039,3.231,2.016-1.415,2.623,0.194,1.816,4.846,4.846,2.016,4.446,9.693,2.423,7.877-2.423,7.47,1.008,5.247,10.5,2.617,1.415,2.423,0.4,4.652,1.415,11.108-8.077,7.269v13.731l-7.47,10.3,0.4,2.623,12.723,6.061,2.223,5.247,7.676,5.654,13.324-6.462,4.446-2.623,1.215-5.454,8.077-.808,14.739-7.069,18.984-3.431,8.885,5.247,14.739-7.463,8.885-6.061,4.039-7.069,3.03-4.039,7.269-8.885-0.4-16.962,0.808-2.623,2.83-.4,10.5-1.215,9.492,3.431,3.838,12.31,5.454,1.421,27.462-8.478,8.684,0.4,1.008,2.617-2.83,4.652,4.239,3.425,1.415,8.077,10.5,2.423,1.615,4.446,4.446,1.816,1.215,13.117-3.231,4.039-1.215,2.423,4.446,10.093,10.5-2.623,3.231,4.239-24.632,21,0.607,5.654,4.846,2.83,11.108-1,7.877,2.016,3.231,4.646,8.277-.4,18.17-12.723,3.838-10.5,7.269,1.415v5.247l2.83,0.4-1.008-8.077,2.623-5.047,13.124-10.5,13.731-3.632,3.632-4.239,1.816-5.454-1.415-8.277,6.662-4.846-2.016-4.446,6.662-8.885-0.607-5.454,7.47-3.431,1.816-5.04,13.324,0.4,10.093-3.838,17.77-12.116L893.7,630.538l-1.008-3.431,12.923-2.83,10.3,3.231,2.423-1.008-0.808-5.247-0.607-5.654-10.3-4.239-8.277-14.939,1.415-11.308,5.047-2.229,2.016-7.877,10.3-1.615-2.423-4.846,0.4-8.077,4.239-9.492-2.83.607-3.838-4.039-12.523-5.454,0.4-5.46,5.247,0.614,8.277-14.345,5.047-1.809-4.846-2.83-6.261,6.061-5.247-.2-4.446-22.616-3.632-4.039,4.846-18.984-0.607-5.654-28.877-9.492,3.03-4.446-0.607-5.454,1.615-1.615,0.808-16.768,7.676-8.684,10.3-4.846,8.684-7.47-2.223-4.846-8.077.808-5.454-5.454,0.2-2.83-7.47-1.415-1.415-4.846-2.623-.4-6.462,2.83-0.2,4.446-5.454-1.008-3.431-7.676-5.454.194Zm-369.73,49.07-18.984,11.308-4.239-.4-2.623,1.415-3.431,5.047-20.193,10.5-7.47,10.093-9.492,6.462-10.5,29.278,4.239,1.008L434.13,501.5l5.454,0.2-5.854,3.231-8.277,11.308,24.031-1.215,3.838-7.47-0.808-8.478,14.539-9.693L459.983,500.3l4.039,0.194,12.723-12.116,3.03-3.425-7.069,17.769,17.77-2.83-4.039-4.039,2.223-5.454-2.423-8.277,2.016-5.247,11.108-9.292,0.607-2.83-5.247-13.531-7.069-9.085Z" transform="translate(-23.913 -160.038)" fill="#ffeb00" stroke="#000" stroke-width="2"/><path d="M455.337,692.525l-8.684,2.229-8.277,2.423-11.508-1.008-9.292,6.462-14.138,1.415-5.654-.607-11.709,8.277L377.6,709.9l-16.762,1.008-7.47,8.271-10.907-3.03-8.077,1.615-21.2,9.492-3.838-2.617-2.016,2.617-19.185-2.617-2.016,8.684L262.9,729.893l-0.607,2.423,0.2,2.83,4.239,10.093-2.016,2.016-17.162,3.03,7.877,4.446,16.355,6.656L289.356,762l6.261,2.83,11.308-5.654,6.061,9.292,10.5,2.423,2.83-.194,4.646,6.862,12.723,5.454,9.292-9.492,3.431,1.008,3.231-4.446,1.215-15.753-3.431-1.415,4.239,0.607,3.231-2.016,2.623-1.008,17.369,0.607,0.4,1.215L363.07,754.55l-2.83,19.786,19.992,7.877,14.939,13.124,5.454-.2,22.816,20.6,5.454,10.093,6.662,8.885,13.731,26.46,4.039,10.093,14.739-5.654-9.693,9.085-1.415,7.877L461,895.7l2.623,11.508-1.215,14.939-16.555,8.885-0.2,2.83,3.838,3.838,1.215,11.108,24.839,0.2,13.931-2.223,7.47,6.462,8.077-6.662,0.4,2.623-4.446,4.039,7.47,1.816,21.608-2.423,7.877-2.229-4.039-11.915,1.816-1.615,4.446,9.085,9.085,4.846,10.907-9.5-1.008-4.846,4.646-.607,2.423-16.762-12.316-3.431-5.654-11.915-11.108-12.923,8.077,6.261,8.077-16.154,6.462,4.846,3.03,14.939-1.615,13.931,1.615-.4,2.623-7.676,6.061-4.239,14.739-8.277,6.061,2.623-0.4-8.885-5.047-4.239,0.2-5.047-9.893-9.292-7.269,2.83-8.684-2.223-3.231-10.3,1.215-7.676-8.077-10.694,0.2-.4-1.615-2.623-4.646-6.462-10.5-2.83,3.231-9.693-2.423-5.047,0.2-8.277-11.709-6.462,2.423-10.907,3.431-4.039,3.03,4.646,7.269-3.632,4.446,3.431,10.5-8.478,11.108,12.31,5.047,1.215-4.646-16.154L554.71,766.045l5.454-.614,6.862,3.845,13.731-1.615-7.269-10.5,10.3-9.085,8.077,0.607,2.223-1.816,2.016-16.555,4.846-12.523,0.4-16.355-2.83-4.846-14.739,7.47-8.885-5.247-18.984,3.425-14.739,7.075-8.077.808-1.215,5.454-4.446,2.623-13.324,6.462L506.436,719l-2.223-5.247L491.49,707.7l-5.247,2.016-11.108-7.069-3.431.607,1.816,14.138-6.462-15.547ZM178.086,747.249l-1.615,2.83,2.223,2.229,1.415-1.816,4.039,1.215,3.431,5.454,2.423,0.4,2.423-.607-4.239-.808-0.808-6.061-1.816.808-2.223-1.809h-2.423Z" transform="translate(-23.913 -160.038)" fill="#ff8080" stroke="#000" stroke-width="2"/><path d="M979.4,895.5l-6.862-4.407-15.747,5.958,0.511,10.539-4.8,9.673-8.323.672L937,926.554l-2.8.174-9.88-5.318-5.479-6.119-0.175-7.9-2.048-.375-3.877-6.436-5.376-.323-1.1-7.579-1.486,7.405,6.539,3.955,2.778,7.063-7.017,6.326-1.389,11.65,2.837,0.582,0.976,6.21,5.964,4-2.759,3.593,4.329,1.551-4.833,9.8,1.409,3.141-2.979,8.962,1.622,4.646-3.632,5.667-16.1-4.3-24.154-1.318-2.908.362-17.207-5.124,4.284-12.723-6.882,10.158-8.613-1.48-4.995,4.245L807.6,949.125l-0.349-4.1,8.187-8.264,3.98,3.017-0.032-7.082,15.857-4.769,8.478,1.764,3.328,0.162,5.538-6.378-7.153,4.51-11.269-2.242-7.948,3.16-3.612,1.37-0.1-7.948-5.492,11.877-15.624,11.7-5.208-12.872-0.756-8.846-4-5.415,2.585-6.643-2.126-1.447,1.312-2.759-3.838,3.128,2.623,1.292-4.62,5.279,6.475,7.6,0.646,6.462-6.009,1.189,5.867,1.6,4.265,14.106-12.471,7.192-13.951-1.712-7.386,2.933-4.278-.872-1.984-4.213-13.886-1.8-7.928,2.494L734,944.46,710.483,919l-0.775-5.505,3.922-4.026,1.053-5.68,6.6-5.531-11.973,7.405-5.363-1.383-1.712-2.261,4.336-3.393-0.517-2.791-3.638-4.329-7.948-2.772-3.522-7.689-4.51-3.457-3.308-7.437,1.15-8.465-1.693-13.731,6.882-4.013,2.856-7.741-4.452-2.979-8.3,1.1-8.387-6.862-7.534,3.173,2.32-10.785-4.536-10.2,3.89-12.859,7.34,0.368,8.193-38.537-11.709-7.1,4.207-3,7.883-.213,6.035-4.963,13.744-5.1,0.75,5.615,4.82,2.83,11.088-1.079,7.806,2.009,3.192,4.652,8.368-.394,18.106-12.781,3.948-10.384,7.276,1.48v5.182l2.785,0.478-0.982-8.251,2.649-4.937,13.117-10.571,13.647-3.606,3.709-4.207,13.692-1.544,7.16,3.935-4.84,7.134,1.887,11.4-1.829,2.255,1.208,2.643,14.784,8.187,7.515,30.68,6.539,9.479,4.375,16.594,10.468,2.455,4.924-1.874,4.245-3.7,8.368,0.258,4.426,2.74,4.194-3.8,11.121-1.06,4.581,3.328,8.226,1.325,7.282,8.387,11.03-.607,6.675,8.1,2.953,13.175,6.539,4.3,2.229-1.673,1.46-8.219,10.81-2.081,13.124-9.848,2.61-.95,2.494,4.982,2.772,0.213,1.144,5.15,4.452,2.824,0.019,5.26-4.291,7.276,7.121,12.258-2.113,5.357-7.922,2.61-2.785,10.242,4.917,15.935-0.814,13.9,3.024,4.323Z" transform="translate(-23.913 -160.038)" fill="#ff8080" stroke="#000" stroke-width="2"/><text transform="translate(577.437 637.341)" font-size="97.635" font-family="DejaVu Sans" font-weight="700">1</text><text transform="translate(652.576 428.511)" font-size="97.635" font-family="DejaVu Sans" font-weight="700">6</text><text transform="translate(678.341 208.833)" font-size="97.635" font-family="DejaVu Sans" font-weight="700">4</text><text transform="translate(461.375 192.738)" font-size="97.635" font-family="DejaVu Sans" font-weight="700">5</text><text transform="translate(245.087 260.364)" font-size="97.635" font-family="DejaVu Sans" font-weight="700">3</text><text transform="translate(341.568 292.599)" font-size="48.894" font-family="DejaVu Sans" font-weight="700">2</text><text transform="translate(428.7 658.362)" font-size="97.635" font-family="DejaVu Sans" font-weight="700">7</text><text transform="translate(745.464 708.535)" font-size="97.635" font-family="DejaVu Sans" font-weight="700">8</text><path d="M415.759,485.15L380.7,488.712l-28.985,8.645-32.27,18.888-47.566,20.777-79.457-27.968L116.276,476V441.561l-12.713-49.9s-27.121-16.682-32.545-16.682-41.964,10.221-41.964,10.221L24.913,396.25v56.386l49.5,44.382,82.718,71.192L241.2,627.2l220.356,50.851,29.494,27.006" transform="translate(-23.913 -160.038)" fill="none" stroke="#000" stroke-width="2" stroke-dasharray="4"/></svg>