<svg xmlns="http://www.w3.org/2000/svg" width="983.494" height="802.801" viewBox="0 0 983.494 802.801"><title>Députés sortants du Morbihan en 2017</title><path d="M585.048,589.206l-6.588,4.9L572.3,606.85l-13.6-.211-2.121,8.5,8.71,8.077-11.259,8.7-1.061,7.86-18.7-7.649-14.448-1.278-3.4,10.844-6.588,3.6-6.16,21.675-4.039,4.46-13.6,6.588-7.01,4.888-5.521-1.054-4.678-1.278-2.76,4.888-1.911,10.2L473.3,715.64l2.978-18.058,1.489,11.687,5.521-9.559,1.489,7.649-6.16,4.9,4.46,5.521,4.888-7.649,4.249,7.01,7.221,4.46,1.489-1.489V700.349l14.448,7.01,2.55-5.1-5.738-4.473,6.8-5.949-0.639-4.039-4.888.422L517.7,684.4l16.787,5.1,10.838-4.249,11.477,2.978,5.521-2.121,2.55-5.3-2.121-5.31,9.559,1.489,2.55-8.92,7.01,18.486,2.76-6.588,3.6,11.259-22.518-8.92-0.85,4.039,26.557,17-2.55-5.1,8.288,2.339,2.55,5.31-1.278,7.221,2.121,11.048-7.01,11.9-1.278,9.988,1.054,4.888-6.153,3.4-1.5-1.911-7.438,5.745-15.08-2.55,1.061-6.377-5.1-4.039-7.438,3.189,1.061,8.288-4.039-3.6-1.489-11.259-8.92-.85,4.249,12.748-6.588,2.978,0.211-9.777-7.86,5.1-5.521-3.189,0.422,6.588-2.121,1.7-4.678-1.911,1.489-9.777-8.077,4.454,1.489-10.838-4.039,4.039-1.278-8.5-9.349,6.377-2.121-5.521-8.71,4.249,3.4,7.649-6.16.2,4.039,6.16,12.32-1.7-8.5,4.678,2.978,3.189,4.678-3.821,13.176,7.01,6.8,9.777,3.189,0.422,2.978,17.419,18.7,9.553,5.738-1.278,5.521,2.55,8.5-8.295,17.63-2.754,13.176-6.377,8.92,1.278,18.908,8.5,9.138-21.247,13.6,2.754,3.61,4.249,2.76,5.1h3.189l14.448-10.2,12.109,0.211,11.687,3.189,2.978-.422,4.46-7.86,5.1-2.55h11.259l9.138,6.595,19.119,5.3,14.652,11.048,1.7,2.121,10.409,1.054,5.738,0.85,8.295-8.077,9.777,5.1,12.109-8.5-10.838-13.6-5.1-19.758-7.01-5.521-5.738-1.7-1.911,2.121L771.8,739.22l8.077-12.109,7.86-.422,4.249-6.377,2.754,0.422,1.7-8.288-8.077-1.278-1.278-2.339,3.821-7.649-0.85-8.5-3.4-2.121-3.4-3.4-5.521,1.911-8.077-2.978L760.945,688l-2.121-2.121,0.2-8.295-7-5.521-10.62,3.189-8.5-.85-5.949,9.994-7.86-.646L708.9,688l1.061,15.094-7.86-.646-10.2,3.2-9.988.639-4.039-2.978,1.911-5.1-3.4-4.249,1.489-4.249-4.888-13.176-6.8-4.9,1.278-8.288-6.588-5.521-1.911-2.345,1.911-8.7-2.339-1.5-8.92-1.278-15.509,8.5-7.853-3.821-5.31-6.153-0.639.422-4.46-2.978-7.86,4.039-7.221-5.1-1.911-2.121,0.85-2.55,10.2-9.553,2.978-8.295-1.489-2.339-20.819-10.409-0.85-11.253ZM529.384,697.358l-4.46,7.221-4.249-2.345,1.7,4.46-2.55,4.039-3.4,19.547,1.061,7.445,1.061-.85V732.2l4.678-.211-2.55-5.949,2.121-10.2,0.85-1.489,1.061-1.061,1.278-.639,11.687,0.85-2.55-2.978-6.588-2.121Zm25.068,1.061-1.061,6.8-7.221,5.521,1.489,3.821-3.61,2.339,1.061,4.46L546.388,722l6.8-9.559,5.738-5.1-0.211-2.978-2.76-3.61Z" transform="translate(-11.271 -176.5)" fill="#ffc0c0" stroke="#000" stroke-width="2"/><path d="M430.588,475.962l-9.138,7.649-4.039,8.077-1.7,11.9-4.039,4.045-9.777-2.978-0.85,2.978-9.138.85-7.86,8.92L371.09,524.84l-1.911,5.521-6.8,15.719L350.271,558.4l-11.9-3.821-2.76-4.678-8.288,1.061-7.86-1.911L320.1,541.4l-7.221-11.687-13.809-1.278-25.918,21.036-2.76,10.409-4.888-2.978-6.16,18.908-5.1,3.4L251.27,587.5l-7.438-.639,0.85,5.738-8.077-4.888-1.278,8.5,2.978,7.86-9.777,5.738,3.4,4.249,7.438-3.821,16.358,0.639,3.4,3.61,10.838,2.339,4.249,10.838-5.521.646-10.2-4.9-10.409-7-3.61,2.339-6.588,1.278-5.521-1.911-4.678,7.221,2.55,3.4,5.949-6.8L257,624.7l19.119,8.71,36.756,31.017,1.278-6.377-1.489-14.876,8.288-10.409-9.349-10.62,11.477,5.1,11.048-4.678,4.678-.85,10.2,2.121v2.978l-5.1,1.911L340.3,633.4l-11.477-.422-4.678,3.4-7.649,8.288,0.85,2.76-1.061,2.76,1.911,11.477-3.189,4.9,7.649,16.352,22.1,14.876,10.409,21.886,1.061,18.276,2.121,11.477-3.189,8.077-2.978,4.888-7.86,4.039,3.189,4.888,1.061,14.448,5.31,17,6.16,6.588,8.92-.639,14.02,4.46,2.76-.422-4.249-7.853-12.748-12.748-1.489-5.745,0.639-5.949-4.46-3.4-3.61-14.237,2.339-26.346,7.86-13.387L362.156,725V704.388L376.6,718.2l6.588,5.1-7.438-1.489L380,733.494l18.7-7.221,5.949,3.61,1.7-7.438,5.949-.85v-7.438l11.259,17.2-3.61-19.547,2.55-.85,0.422-.2L431,727.335l4.249,3.61,5.1-2.76-1.489-14.448,3.61,3.821-0.422,2.978,9.349,6.8,4.039,14.659,5.949-8.71,4.46,7.649,13.176,0.422-12.109-17.208L454.371,713.1l8.077-8.077L452.46,697.8l9.777-6.8-4.678-17.208-5.1.422,0.639-9.994-6.377-8.7,2.55-3.61,2.121,4.249,4.678,7.221-0.639,5.521,5.1,1.7-1.911,2.121,2.55,7.649,7.86-1.911,4.46,3.4,5.521,1.061,7.01-4.888,13.6-6.588,4.039-4.46,6.16-21.675,6.588-3.61,3.4-10.838-15.937-2.55-1.7-2.345,5.1-15.719-6.588-5.738,0.422-2.978,7.438-4.46-1.7-14.876,1.911-11.259-4.46-4.039-17-4.678-2.76-.422-3.189,4.888,6.377,5.738-1.061,2.76-5.738,1.061-5.31-2.121-8.077,3.4-5.31-1.9,4.249-4.46-2.339-5.521,1.911-11.687L464.556,536.1l8.288-2.55,3.821-14.448,4.249-4.249L463.706,508.9l-6.588-18.7,1.278-5.521-1.911-2.121Zm11.259,397.953-1.061.422-0.211,1.489L441,878.8l4.249,1.489,6.377,6.377,8.71,2.339,1.7,4.249,4.249,4.039L463.3,887.52l6.8-7.221-7.221,1.489-8.92-1.7ZM295.457,885.6l-2.76,1.054-1.911,11.9-4.249,3.821-0.85,11.9,5.1,14.237,9.559,11.048-6.588,9.559,14.659,14.02,16.787,0.85,10.838-4.9,8.92,7.221,5.738-.422,7.86,4.46,11.9-.422,10.838,5.521,2.978,0.422,2.55-1.278,4.678-3.821,9.988-21.247-7.649-4.039-15.087.85-9.559-6.8-2.978.211L352.406,930.4l-8.5-24.646-5.738,1.489-14.02-3.61-6.588-5.3h-5.738l-1.911,2.339-0.422-5.949-8.288-2.339Zm217.99,32.934L509.409,923H503.46l-3.4-2.345,0.422,7.221,1.278,2.76,3.61,2.55,9.988-6.16,0.422-7.438Z" transform="translate(-11.271 -176.5)" fill="#06c" stroke="#000" stroke-width="2"/><path d="M401.862,504.674l-5.555-10.1,0.32-24.2-5.188-3.114-12.021-1.8-7.588-5.045,5-3.046,9.036,5.745,4.957-2.754,0.313-23.184-4.814-2.8,7.3-12.449-0.068-5.793-8.064-1.782-5.6-6.235-7.86,1.734-2.278-1.639-11.579-10.056-5.562-10.906,1.611-15.38,4.154-4.12-0.265-12.272,2.046-2.291-7.683-12.143L352,335.412l-6.806-5.446-8.567.259,3.672-7.792-1.333-5.67,6.677-9.362,9.587-6.683,10.124-4.222,4.44,7.914,11.538,9.233,8.914,1.271,15.1,9.913,9.063-.354,5.235,2.869,9.036-17.14,5.786-.394,4.2-4-4.78-3.549-0.435-5.969L425.8,287.1l2.427-5.011,5.058,0.816,0.258-8.186,4.922-2.182,4.032,7.792,16.345-4.8,9.056,6.84,4.63-1.264,1.6-10.627,3.971-3.91,2.638,0.9,9.152-16.766,4.834-6.3L498.9,248.2l6.656-8.784,1.278-10.634,16.27,8.4,22.77-4.63,14.7,20.73,2.087,4.6-1.2,5.113,3.1,4.583,1.652,16.481,7.663-8.737,6.106-16.766,1.87,2.284,11.388-2.278,14.149,3.536,0.979-5.459L623.435,245.3l5.6-.537,8.39,10.8-2.55,4.344,2.658,3.767-2.318,5.249,1.883,5.636-1.815,8.7-9.036,21.675,2.5,5.364-0.972,8.581,5.147,1.666-0.571,6.738,2.883,3.9,2.516,17.5-3.957,3.835,3.141,4.454-1.2,8.512,2.631,5.167,9.763,4.263,0.945,11.143-2.475,3.2,2.889,0.068,0.632,2.815-8.914,7-4.229,13.238-1.87,14.482,2.216,5.514,10.2-5.6,5.806,0.2,7.574,3.583,9.906,10.171-14.366,11.021L651.59,459.5l4.637,13.272,5.29,6.663,4.868-2.577,8.832,0.109,5.65,6.609,5.813,1.074-1.618,7.54-4.453,3.835,3.739,14.067,1.251,2.672,5.813,0.741,5.249,6.976-0.455,5.847-5.133,7.125,9.92,3.95-4.766,12.605,10.083,8.56-4.168,6.853,3.651,4.773-2.754,11.687,9.165,7.533-0.965,5.174-8.417,6.894L704,609.718l5.242,2.652,19.574,2.359,5.385,9.927,0.326,5.48-10.423,15.943,3.726,7.316-2.332,1.829-8.023-2.353-27.427,8.213L679.7,675.124l7.724,3.848-9.539,10.8-4.834-13.353-6.874-4.848,1.244-8.281-6.4-5.589-1.978-2.23,1.992-8.662-2.522-1.584-8.866-1.149-15.441,8.356-7.867-3.835-5.358-6.092-0.558.381-4.46-2.876-7.914,4.107-7.119-5.242-2.067-1.985,0.972-2.692,10.233-9.6,2.842-8.077-1.5-2.441-20.723-10.491-1-11.191-4.657-3.175-6.439,4.827-6.167,12.782-13.584-.19-2.278,8.519,8.764,8.125-11.3,8.587-0.979,7.887-18.738-7.676-14.4-1.278-16.039-2.529-1.591-2.271,4.97-15.719-6.581-5.766,0.585-2.931,7.363-4.6-1.808-14.754,1.951-11.341-4.365-4.012-16.977-4.63-2.9-.367-3.182,4.7,6.384,5.827-1.088,2.713-5.582,1.047L475.6,574.1l-7.914,3.277-5.33-1.768,4.1-4.426-2.291-5.575,2.026-11.749-1.57-17.881,8.356-2.5,3.767-14.428,4.27-4.243-17.147-5.983-6.738-18.67,1.353-5.528-1.843-2.155L430.609,476l-9.152,7.656-4.045,8.057L415.753,503.6l-4.066,4.039Z" transform="translate(-11.271 -176.5)" fill="#ff8080" stroke="#000" stroke-width="2"/><path d="M954.608,673.562l-0.449-2.781,5.072-2.033,0.116-2.815-10.063-3.257,1.19-8.118,4.12-7.71-0.36-8.744-10.878-5.555-0.816-8.791,2.862-14.434-5.745-6.731,0.374-5.514,10.471-5.14,0.489-5.1,28.665-2.094-1.428-11.137-11.592.666-3.515-10.4L939.908,564.9l2.033-7.962,7.934-1.4,0.741-5.432,8.485-.34,4.61-3.454,8.4-7.588,0.435-5.786,0.972-11.062,13.7-6.7,6.2-12.286-7.751-3.8-2.6-11.266L984.8,482.5l-2.169-10.049-8.451,14.57-14.951,7.431-8.24-4.807,5.976-13.455-8.7-12.367-0.143-9.083,6.248-9.5,5.738-1.5,6.751-5.854-1.088-4.922,2.862-4.188-11.042-14-3.821-14.02-3.787-6.126-4.95-1.611-1.57-2.509-9.2-13.707-4.732-3.624-17.419,3.352-8.288-7.88L892.981,363.8l-2.658,1.346-13.741-5.262-28.508,6.765,0.136-8.839,6.248-6.133-3.434-7.88,1.095-2.74,4.188-8.594,13.646-14.373,4.2-4.222L903.669,314l11.5-9.288-0.231-8.954,1.945-2.291-7.622-6-23.552,3.583-7.261,4.814-0.251,8.505-11.959.632-0.489-8.3,4.515-10.083-2.584-4.922-1.265-6.044-0.306-11.721-17.888-20.268-17.14-.32-3.2,8.22-4.426,3.685L813.691,250,807.6,263.064l-2.658-1.992-6.568-9.349-0.626-5.623-0.666-9.124-13.89-11.769-4.3-11.259-7.941-4.515-15.1.632-8.077,8.036-14.19-1.149-1.639,5.779-26.557.843,10.933,16.474,0.292,5.8-3.461,7.866-8,12.558-6.887,5.7-2.971,4.6,1.8,16.671-5.555,1.652-3.6,4.589-8.492-.422-0.965,2.774-6.568,9.913-17.97,15.712-11.5-.34-1.754-2.414-5.487,6.52,2.516,17.508-3.957,3.828,3.141,4.454-1.2,8.512,2.631,5.167,9.763,4.263,0.945,11.15-2.475,3.189,2.889,0.068,0.632,2.815-8.914,7-4.236,13.244-1.863,14.482,2.216,5.507,10.2-5.6,5.806,0.2,7.574,3.583,9.906,10.178L656.4,451.8l-4.861,7.758,4.637,13.272,5.29,6.663,4.868-2.577,8.825,0.116,5.657,6.6,5.813,1.074-1.618,7.54-4.46,3.835,3.746,14.074,1.251,2.665,5.813,0.748,5.249,6.969-0.455,5.847-5.133,7.125,9.913,3.95-4.759,12.605,10.083,8.567-4.175,6.847,3.658,4.773-2.754,11.687,9.165,7.54-0.965,5.167-8.417,6.894,1.183,8.234,5.235,2.658,19.581,2.353,5.385,9.927,0.326,5.48L724.06,646.142l3.726,7.309-2.332,1.829-8.023-2.345L690,661.148l-10.348,14.033,7.724,3.848-9.539,10.8-1.435,4.107,3.461,4.256-2.067,5.12,4.175,2.964,9.906-.591,10.13-3.168,8,0.605-1.074-15.073,10.185-4.317,7.853,0.673,5.84-9.92,8.655,0.884,10.545-3.257,6.942,5.548-0.143,8.356,2.2,1.972,8.642-1.951,8.077,3.121,5.568-2.013,3.365,3.434,3.311,2.087,0.884,8.492-3.726,7.751,1.292,2.257,8,1.217-1.727,8.349-2.658-.4-4.4,6.384-7.839.347-8.084,12.266,4.664,4.766,2.094-2.135,5.711,1.713,6.874,5.616,5.126,19.69,10.892,13.578L794.954,791.2l-9.77-5.1-8.342,7.914-5.6-.768-1.448,2.291-11.721-1.577-12.157,7.907-15.291-9.342-5.582,5.086,6.173,15.06-4.44,11.021,2.094,8.737,7.057,5.392,7.438-5.106,5.895,0.789,5.025-13.183,5.392-2.04,10.069-9.553,1.7,8.73,5.589,6.9,8.71,1.924,10.26-5.276,6-.381,6.527,6.167,22.994-5.582,1.564-17.569,7.486-12.891,1.373-14.842,0.605-.326,10.219,4.2,11.49-.761,2.074,2.026-3.236,7.642,9.947,5.935,15.869-11.5,10.62-3.481,5.942-.85,1.475,2.624-2.359,11.273,1.938,2.284L918.213,797l6.337-5.977,1.027-20.717,5.466-2.509,26.068-7.261,0.972-5.806-3.882-7.608,4.134-20.146-4.814-4.2,2.665-1.129-1.2-14.088,9.274-6.819,0.68-2.808,0.292-11.919-7.071-9.369Z" transform="translate(-11.271 -176.5)" fill="#ffeb00" stroke="#000" stroke-width="2"/><path d="M262.734,535.664L248.5,549.473l-8.288-2.339-8.5,2.55-3.4,7.649-1.061,5.738,4.249,0.422,5.521,17.419,12.748-4.454-2.55-17,4.249,9.988,10.2-8.92,1.7-6.8,6.16,1.911,1.061-4.888-5.949-5.521,1.489-7.86Zm-59.913,18.486-3.4,7.438-8.92-1.061-4.678,4.045-11.687-.211,0.422,2.978-10.62,8.92-17.419,8.92,1.061,5.745,24.857,28.685,5.521,0.85,10.2-5.738,7.649,2.55,2.55-1.7,11.687,0.85,5.1-2.55,7.649-9.144,1.278-8.7,6.16-5.1,3.821-10.62-3.821-12.959-4.039-.639-4.888-9.559-2.339,1.489Zm-55.67,103.685-7.221,2.339v4.46l4.039,4.678,7.221,5.521,4.249,1.7,1.489,2.55,5.949,1.7,6.16,4.454h1.489l7.438-2.121,4.888-3.4,3.4,2.76,2.978,0.639,3.4,3.189,2.978-11.477-8.92-8.077-9.138-.85-25.918-8.077-4.48.013h0Z" transform="translate(-11.271 -176.5)" fill="#ffeb00" stroke="#000" stroke-width="2"/><path d="M433.566,274.725l-0.258,8.186-5.058-.822-2.427,5.018,7.649,9.186,0.435,5.977,4.78,3.549-4.2,4-5.786.394-9.036,17.14-5.235-2.869-9.063.354-15.1-9.913-8.914-1.271-11.538-9.233-4.44-7.914-10.124,4.222-9.587,6.683-6.677,9.362,1.333,5.67-3.672,7.792,8.567-.259,6.806,5.439,0.476,5.63,7.683,12.143-2.046,2.291,0.265,12.272-4.154,4.12-1.611,15.372,5.562,10.906L369.778,408.2l2.278,1.645,7.86-1.734,5.6,6.235,8.064,1.774,0.068,5.8-7.3,12.449,4.814,2.8-0.313,23.178-4.957,2.76-9.036-5.745-5,3.046,7.588,5.045,12.021,1.8,5.188,3.114-0.32,24.2,5.555,10.1-0.911,2.876-8.975.993-7.968,8.893L371.1,524.867l-1.836,5.4-6.935,15.774-11.946,12.4-12.048-3.916-2.652-4.657-8.349,1.176-7.819-1.9,0.619-7.7-7.207-11.728-13.9-1.231-25.959,20.982-5.888-5.337,0.85-5.711,9.219-2.754-11.042,1.611-3.4-1.693-14.2,13.911-8.438-2.271-8.444,2.57-3.4,7.492-4.657-3.678-12.653-27.074,2.747-8.7-1.686-5.99-0.462-4.725-2.053,5.31,2.645,5.16-1.591,5.222-7.724,1.523,5.738,1.231,7.914,15.529-2.223,4.521,4.78,1.618,3.005,6.54-0.823,3.3-2.366,1.543-16.012-4.521L199.4,561.7l-8.954-1.142-4.549,3.957-11.837-.1,0.612,2.842-10.695,9.077-17.521,8.812L143.3,576.58l-11.1-14.353-1.808-14.645,2.563-5.446,4.916,1.095-6.323-3.6,5.949-11.885-4.154-.36,1.754-4.283-7.2-4.324,0.394-5.093-2.978-1.965,0.082-10.335,8.478-8.934,0.2-3.039,2.155,0.388,0.184,8.315,5.766,6.432,10.4,5.6,2.951-.19,7.547-9.07,8.757-.7,5.052-10.178-0.537-11.089,16.569-6.269,7.221,4.637,5.956,0.116L202.9,472.86l0.857-14.625-5.174-16.766,2.93-10.777,8.336-2.747,2.223-5.643-7.492-12.9,4.515-7.649-0.02-5.535-4.684-2.978-1.2-5.419-2.917-.225-2.624-5.242-2.747,1.006L181.093,393.72l-11.375,2.2-1.537,8.642-2.346,1.768-6.881-4.528-3.107-13.863-7.023-8.519-11.606.639-7.663-8.825-8.655-1.394-4.821-3.508-11.7,1.115-4.412,4-4.657-2.883-8.8-.272-4.467,3.9-5.181,1.972-11.014-2.577-4.6-17.466-6.881-9.974-7.907-32.282L30.9,303.246l-1.271-2.781,1.924-2.373-1.985-12,5.092-7.506-7.533-4.147L12.715,276.07l1.89-5.677-1.611-8.757,7.112-5.228-2.115-4.678,6.942-9.179L24.28,236.67l7.894-3.57,1.89-5.3L48.2,228.273l10.566-4.107,18.806-12.789,32.309-12.8,6.663,5.283,11.987,1.149,20.723-3.95,9.4-2.577,5.949,5.874,11.3,0.422,2.5-1.53,0.68-5.7,13.313,11.762-9.165,11.327,2.468,5.351,9.281,7.323,7.887-8.261,8.138,1.332,8.934-7.887L234.4,215.64l7.193-4.793,7.241,11.334-0.816,5.459,4.372,2.937L254,225.036l8.5,0.156,5.215,2.155,4.066,7.588,7.9,2.8,0.83-2.726,9.7-4.732,8.363-1.013,15.481,6.819-1.89-8.186,7.737-8.329,5.33-2.121,8.084,2.427,2.475,1.557,7.4-4.61,7.656,3.1,6.418-5.827,3.794-7.839-3.7-4.657,0.3-6,3.569-8.247,5.582-2.019,2.849-5,10.273,1.027,1.6,2.2,2.726,0.347,4.834-6.384,2.74,0.1,3.971,4.066,8.723-1.1,4.936,3.2,5.82,0.163,3.189,4.95,8.506-.938-1.292,5.99,4.025,14.611,7.758,3.3-1.013,8.4,11.721-.524,9.186-6.942,11.4-2.053,21.886,6.84,8.4-.8,7.805,11.98-1.278,10.627-6.656,8.784-4.175-3.787-4.834,6.3-9.152,16.766-2.638-.9-3.971,3.916-1.6,10.62-4.63,1.271-9.056-6.84-16.345,4.8-4.032-7.792Z" transform="translate(-11.271 -176.5)" fill="#ffc0c0" stroke="#000" stroke-width="2"/><text transform="translate(222.779 229.637)" font-size="102.732" font-family="DejaVu Sans" font-weight="700">6</text><text transform="translate(491.796 291.703)" font-size="102.732" font-family="DejaVu Sans" font-weight="700">3</text><text transform="translate(773.237 353.771)" font-size="102.732" font-family="DejaVu Sans" font-weight="700">4</text><text transform="translate(597.737 581.707)" font-size="102.732" font-family="DejaVu Sans" font-weight="700">1</text><text transform="translate(362.476 468.067)" font-size="102.732" font-family="DejaVu Sans" font-weight="700">2</text><text transform="translate(166.285 434.365)" font-size="57.144" font-family="DejaVu Sans" font-weight="700">5</text><line x1="258.255" y1="379.139" x2="256.382" y2="379.84" fill="none" stroke="#000" stroke-width="2"/><polyline points="253.048 381.087 251.175 381.788 250.505 383.673" fill="none" stroke="#000" stroke-width="2"/><polyline points="249.19 387.378 246.811 394.078 239.32 404.412 228.262 408.653 216.413 428.322 211.14 441.164 209 454.362 203.649 468.067 200.81 486.466 185.814 518.849 164.296 547.502" fill="none" stroke="#000" stroke-width="2" stroke-dasharray="3.932 3.932"/><polyline points="163.116 549.074 161.915 550.673 160.076 549.886" fill="none" stroke="#000" stroke-width="2"/><polyline points="156.43 548.325 135.247 539.258 113.046 525.703 101.274 498.95 103.771 468.067 118.396 437.953 133.206 412.109" fill="none" stroke="#000" stroke-width="2" stroke-dasharray="3.966 3.966"/><line x1="134.192" y1="410.388" x2="135.186" y2="408.653" fill="none" stroke="#000" stroke-width="2"/><polyline points="462.218 505.356 451.74 508.225 450.313 520.858 452.89 529.271 453.88 537.832 458.339 545.498 465.83 555.667 471.715 564.228 466.186 574.929 461.014 668.387 471.715 682.298 505.154 716.542 524.31 742.915 470.955 778.609 399.482 796.801 378.08 801.795 344.906 800.252 279.985 790.024 242.531 771.475 228.619 737.588 235.753 688.362 216.413 553.616 215.978 434.364 224.269 418.289" fill="none" stroke="#000" stroke-width="2" stroke-dasharray="4"/></svg>