<svg xmlns="http://www.w3.org/2000/svg" width="962.561" height="704.876" viewBox="0 0 962.561 704.876"><title>Députés sortants des Côtes-d&amp;apos;Armor en 2017</title><path d="M392.861,641.376l-5.427-9.264L377,628.861,376.657,622l0.167-13.564,13.532-13,5.813-8.755,10.59-2.3,10.107-15.747-3.341-7.429-8.047-7.146-1.262,2.112-1.963-1.474,1.571-4.59-1.622-7.925,7.358-3.728,1.667-5.228-6.225-8.7-3.991-7.107,0.019-5.427,3.689-5.472,2.408,0.528,5.337,0.457,11.524,7.114,5.44-.393,9.567-5.073,6.509,8.717,18.225-6.367,2.974-3.824,0.232-5.228,7.886-1.545,2.2,1.809,1.275,8.421,2.511,1.339,5.562,1.062,7.268-3.94,9.251,6.09,5.562-.406,5.144,12.3,30.9,13.133-4.082,7.236,2.839,7.983L541.7,558.31l6.386,0.618-4.751,4.8,4.307,5.17,12.006,20.067,4.6,3.586,2.26,0.554-5.189-5.749,5.472-9.676-3.831-19.822,6.7-2.021,6.6,8.807,9.148,1.268,5.974-1.944,4.944,6.232,4.236,12.483,3.187,11.022-2.034,5.388-7.075,8.62-11.163-1.095L581.1,620.357l-8.086,7.61-11.131-1.391-7.822,3.354-4.571,10.526,1.037,8.434-2.8,5.021-2.7,2.273-6.9-3.786-18.914-1-7.378,7-2.556-1.017L505.9,644.229l3.129-7.487-7.455-3.328-5.549.116-7.21,3.94-4.185-3.554-6.85,4.255-1.346-4.848,6.315-8.582-1.906-5-5.44-11.144-5.337,6.032-12.56,6.2-2.595,8.041-3.9,4L435.6,637.939l-7.655-7.474-7.436,13.976L406.542,638.7l-8.3,3.341Z" transform="translate(-24.838 -266.797)" fill="#ff8080" stroke="#000" stroke-width="2"/><path d="M737.213,784.92l-8.987-5.44-0.811-5.369,2.453-12.341-8.614-6.058-0.8-5.118-6.8-8.363,0.219-5.4,7.925,0.257,2.124-7.378,4.185-3.367,5.189-15.921,16.294-15.6,11.169,7.809,9.959-16.133,1.172,0.148-7.4-17.009,8.189-1.41,13.294-10.049-0.875-5.845-5.35.135-2.742-15.534-10.21.579-11.736-6.283,5.556-12.476,4.262-3.521,1.667-10.97-13.629,3.1-6.528-5.15-1.339-2.472,6.824-8.562,3.348-7.68-1.333-2.472-4.867-.283-3.779-3.277-11.047.032-13.146,4.532-2.337-1.558-8.285-17.408-2.685-.779-9.283,10.429-7.307,3.592-2.7,4.828-8.421.412-6.451-12.206-12.11-7.249-3.483,4.14-7.172,13.59L637.53,584.46l-9.515-5.949L614,580.784l-1.906-10.77-5.17-9.7L592.51,552.7l13.12-10.249,15.721-19.52,14.575-17.556,11.485-1.21,15.824-7.333,15.431-13.771,2.041-9.528-9.792-2.021-1.725-5.3,27.174-6.547,9.245,5.079,2.343,10.854,4.056-3.161-3.419-3.631,10.539-1.21,4.461-6.888,21.1-8.434,10.474-9.457,1.751-8.182,5.852-4.951,3.412,6.348-1.487,6.4,6.843,4.281,8.852-.592-13.964,20.788,2.028,2.968-10.14,10.294-6.811,6.47,7.345,0.966,2.041,4.075,4.867,1.217,5.955-9.11,5.382-1.725,2.311-1.268-0.367-2.871,14.176-12.283,9.122,0.657-6.4,6.914,6.612,9.483-0.74,7.648,8.949,3.856,2.871,14.337,6.251,1.024-0.457,15.032,4.268-1.294-0.109-2.762,7.062-11.5-0.3-11.775,4.358,1.648-0.715,19.507,3.457,3.618,7.281-.193,5.7-8.691-7.107-7.828,10.629-16.011,2.71-.8,4.648,6.927,7.172,3.888-1.217,5.7,0.567,3.393,16.745,17.916,7.532,3.071,11.215-1.7,6.94,4.951-2.936,10.082,3.509,6.406,4.133,1.783,2.633-7.526,8.034-6.322,6.785-6.077,2.562-2.427,2.356,6.9,3.966,4.88-2.833,2.955,4.77,0.74-0.882,4.6,8.182-.225,0.927,8.633-6.5,6.882-7.925,2.627,7.629,0.1-1.062,4.609,4.719,1.642-3.85,3.129,0.1,10.371-4.345-.953,0.644,1.551-1.642.728-0.418,3.27-3.167-.715-0.2,2.279,4.2-.193,0.933-3.618,3.56-.135,2.5-1.494,2.511-.206-2.131-1.906-0.045-9.309,7.41-.084-2-8.755,4.4-3.464,5.228,8.073,7.107-1.79-3.94-.045-4.539-3.193,3.991-12.85,8.041-10.133,1.1,0.412,3.586,4.455-0.386,5.659,3.715,4.326,4,13.693-0.071,5.678-6.18,5.575-0.1,2.852L986,600.9l-9.811,3.895-2.079,5.343,2.82,4.989-0.154,5.659-7.12,8.6-5.331.463-1.861,13.713,7.648,8.234L968.4,659.44l1.654,2.266-1.423,5.331,5.852,5.794-4.815,1.745L969.09,679.6l-3.174,7.172-0.4,8.472,7.906,10.326,0.94,5.311-1.918,1.912-7.648,2.652-10.455-.18,6.264,19.77-4.983,14.279,3.573,6.843-5.228.985-4.861-6.837-8.182,1.687-2.53,1.262-3.258,4.558-1.249,8.2-5.369,1.313-17.878-8.427-4.114-7.217-12.766,5.588,0.444,5.685-4.429,7.062-13.989.985,0.476,5.247,5.228,1.989-4.693,9.419,1.107,2.582L868.351,784l-14.227.4-1.5-2.44-13.564,8.852-5.234,5.71-1.706,16.256,3.464,7.4-0.135,2.7-4.236,3.026-5.382.11-6.631-4.571-7.712,2.26-4.828-1.037-6.354,5.73-3.888-3.991-10.12-3.734-5.311.4-15.354-6.824-8.022,1.609-0.618-15.444-5.228-9.277L745,795.845Z" transform="translate(-24.838 -266.797)" fill="#ff8080" stroke="#000" stroke-width="2"/><path d="M574.639,966.286l0.541-6.38-4.873-1.577,0.921-8.125-2.369-5.079,8.556-20.524,1.719-8.241-1.783-5.337,2.2-4.97-2.524-3.567,2.414-4.114-7.944-10.23-5.3.515L551.92,899.391l-0.927,5.169-13.4-3.348-10.783,2.157-1.77-2.163-5.781,15.876-7.255,8.272-1.564-15.605-2.961-4.332,1.165-4.861-1.976-4.358L492.75,876.562l-21.56,4.391L455.785,873l-7.391-11.337-7.957.76-20.723-6.476-10.79,1.944-8.7,6.573-11.1.5L390.087,857l-7.345-3.116L378.93,840.04l1.223-5.672-8.054.888-3.019-4.687-5.511-.154L358.9,827.39l-8.26,1.043-3.76-3.843,4.964-9.689,5.253-1.951,2.33-5.105-1.564-11.054-5.369-.006-2.311-5-10.706-.934,1.442-4.249-2.15-3.5,2.762-4.886-2.994-7.841,0.116-8.53-6.135-9.213,3.9-3.895,5.286-.946,8.852-9.013-6.856-8.749-0.051-5.408,6.515-9.187,19.088-15.9,0.979-4.964-4.545-1-0.837-7.951-5.021,1.223-1.474-5.588,5.1-13.629,0.65-4.281,5.839-3.959,0.142-6.888,3.657-4.14-2.852-4.693,2.781-10.5L377,628.874l10.436,3.251,5.427,9.264,5.376,0.618,8.3-3.341,13.964,5.743,7.436-13.976,7.655,7.474,15.418-5.073,3.9-4,2.595-8.041,12.56-6.2,5.337-6.032,5.44,11.144,1.906,5-6.315,8.582,1.346,4.848,6.85-4.255,4.185,3.554,7.21-3.94,5.549-.116,7.455,3.328L505.9,644.2l3.373,13.152,2.556,1.017,7.378-7,18.914,1,6.9,3.786,2.7-2.273,2.8-5.021-1.043-8.434,4.577-10.526,7.822-3.354,11.131,1.391,8.086-7.61,2.375-13.745,11.163,1.095,7.075-8.62,2.034-5.388-3.187-11.022-4.236-12.483-4.944-6.232-0.8-9.451,1.957-1.758,14.414,7.61,5.17,9.7,1.906,10.77,14.015-2.273,9.515,5.949,13.288-4.642,7.172-13.59,3.483-4.14,12.11,7.249,6.451,12.206,8.421-.412,2.7-4.828,7.307-3.592,9.283-10.429,2.685,0.779,8.285,17.408,2.337,1.558,13.146-4.532,11.047-.032,3.786,3.277,4.861,0.283,1.333,2.472-3.348,7.68-6.824,8.562,1.339,2.472,6.528,5.15,13.629-3.1-1.667,10.97-4.262,3.521-5.556,12.476,11.736,6.283,10.21-.579,2.742,15.534,5.35-.135L786,658.2l-13.294,10.049-8.189,1.41,7.4,17.009-1.172-.148-9.959,16.133-11.169-7.809-16.294,15.6-5.189,15.914-4.185,3.373-2.124,7.378-7.925-.251-0.219,5.4,6.8,8.363,0.8,5.118,8.614,6.052-2.453,12.348,0.811,5.369,8.987,5.44L745,795.915l6.766-4.712,5.228,9.277,0.618,15.444,8.022-1.609,15.348,6.824,5.318-.4,10.12,3.734,3.888,3.991,6.354-5.73,4.828,1.043,5.034,6.238-3.264,26.852-2.9,4.822-9.444,5.479-0.206,2.82,5.363,6.27-2.273,1.655-5.575-.322-6.837-4.648-10.127,4.693-2.215,9.483-16.23-.3-3.019,7.783-4.2,3.489-9.245-4.964L740.581,905.5l-2.511-1.886-6.225-8.852-0.592-5.324-0.631-8.639-13.152-11.15L713.4,858.992l-7.519-4.275-14.3.6-7.648,7.61-13.436-1.088-1.551,5.472-25.146.8,10.352,15.6,0.277,5.492-3.27,7.448-7.584,11.884-6.521,5.4-2.807,4.358,1.7,15.786-5.26,1.558-3.406,4.352-8.041-.4-0.921,2.627L612.1,951.6l-17.009,14.878-10.9-.322-1.661-2.285-5.2,6.174Z" transform="translate(-24.838 -266.797)" fill="#06c" stroke="#000" stroke-width="2"/><path d="M209.03,458.388l-5.633.361-10.191-.373-4.2-6.283-5.433-9.335-1.313-8.2-6.116-5.388,0.019-5.35-3.206-11.762-12.206,4.7-3.837,7.32,5.543,16.075-6.257,13,0.663,8.311-11.994-.129-8.137-.515-9.618-4.893-2.511,1.037,12.09-14.807-0.863-2.73-8.06-1.828-5.466-9.747,1.918-8.163,8.086-7.822-8.343,1.242-9.715,5.363-5.446-.773-5.1-15.586-11.749-7.378-5.949,1.217-1.082,1.429-5.408-1.114L70.4,402.907l-0.167,23.067,3.135,4.436,2.865,0.386,2.182,3.888L75.3,441.109l-3.657,3.322L55.507,445.9,52.4,432.965l-12.322,1.912L41,443.619,32.351,448.9l-4.069,5.06-2.4,4.481L31,488.665l2.845,4.693,4.976,2.079-0.4,10.809,2.112,2.26,4.075,4.114,8.517-.708,7.751,3.824,2.73-.94,4.848,10.326-7.506,12.122,9.689,3.85,4.944-2.311,10.326,12.8,7.957,2.511-11.022,9.264L68.976,581.872l-7.069,4.97L58.353,590.6l1.294,7.951-1.7,5.092,3.74,3.592-0.83,2.556,2.543,0.3,1.526,4.893,7.371,1.474-0.109,2.652,5.446,5.427,7.893-.618,2.2,4.835-8.652,7.365-10.249,4.867-7.513,8.543L60.516,666.3l-1.6,1.6,0.489,5.414L56.428,677.8l28.745,9.412,0.67,5.607-4.854,19,3.6,4.03,4.423,22.429,5.247,0.2,6.206-6.032,4.867,2.781-5.112,1.944-8.112,14.234-5.363-.631-0.393,5.485,12.541,5.311,3.908,3.978,2.768-.438-4.352,9.419-0.361,7.977,2.369,4.8L93.079,789l-2.067,7.912-5.1,2.241L84.69,810.33l8.092,14.839,10.223,4.307,0.7,5.556,0.888,5.343-2.549.914-10.268-3.3L78.883,840.9l1,3.515,6.309,5L97.54,850.5l19.622-3.74,8.9-2.434,5.633,5.562,10.7,0.4,2.363-1.455,0.644-5.395L158,854.577,149.326,865.3l2.337,5.066,8.788,6.927,7.468-7.822,7.706,1.268,8.459-7.474,13.7-2.7,6.811-4.545,6.856,10.732-0.773,5.169,4.14,2.787,1.526-5.253,8.047,0.154,4.938,2.034,3.85,7.185,7.481,2.652,0.785-2.582,9.18-4.474,7.919-.966,14.659,6.457-1.79-7.751,7.326-7.88,5.047-2.009,7.655,2.3,2.343,1.474,7.011-4.371,7.249,2.936,6.077-5.511,3.592-7.423-3.5-4.416,0.283-5.685,3.38-7.809,5.286-1.906,2.7-4.738,9.727,0.978L337.1,830.2l2.582,0.328,4.577-6.052,2.595,0.1,4.964-9.689,5.253-1.951,2.33-5.105-1.564-11.054-5.369-.006-2.311-5-10.706-.94,1.442-4.249-2.131-3.488,2.762-4.886-2.994-7.841,0.116-8.53-6.135-9.213,3.9-3.895,5.286-.946,8.852-9.013-6.856-8.749-0.051-5.408,6.515-9.187,19.088-15.9,0.979-4.964-4.545-1-0.837-7.951-5.021,1.223-1.474-5.588,5.1-13.629,0.65-4.281,5.839-3.959,0.142-6.888,3.657-4.14-2.852-4.693,2.781-10.5L377,628.874l-0.341-6.856,0.167-13.564,13.532-13,5.813-8.755,10.59-2.3,10.107-15.747-3.341-7.429-8.047-7.146-1.262,2.112-1.963-1.474,1.571-4.59-1.622-7.925,7.358-3.728,1.667-5.228-6.225-8.7-3.991-7.107L401.031,512l3.689-5.472,2.408,0.528,5.337,0.463,11.524,7.107,5.44-.393-0.959-2.71,3.354-7.848-6.5-8.949,0.412-2.852,4.976-.8,1.751-14.215L432.113,463.3l-16.687-5.878-5.62,5.318-2.685.212-7.107-7.712-2.949,4.461-5.17-5.633-11.672-5.807-2.961-10.21-2.723-.212-4.075-7.024-2.549.985-3.7.393-6.6-2.363-0.425-4.275-20.71,8.395-2.633,4.88,0.283,5.543,1.6,2.273,10.262,2.395,6.251-8.1,7.159,3.67-2.556,7.21-9.612,4.371-0.29,4.732-3.2,4.513-5.582.032-6.876,4.8-7.77-3.67-0.5-5.4-4.281-2.266-4.017,6.393-4.687,2.182-6.7-12.232-3.258,4.191-10.526-.843-5.949,4.938-2.318-4.654-9.579-3.29,1.8,11.163-7.8,15.039-6.206-4.616-4.584-8.987,1.8-9.837-5.543-.586-6.315-5.4-8.079-2.009-4.584-6.946-11.871,12.206Z" transform="translate(-24.838 -266.797)" fill="#ff8080" stroke="#000" stroke-width="2"/><path d="M349.162,267.539l-14.485,13.075-14.485,2.82-14.685,9.856-8.652,1-2.82,8.047-2.82-1-6.039,5.228-5.228,10.268,1.41,5.021-14.086,17.511,1,11.067-3.824-6.637-4.828,1.809,14.884-17.5,4.024-12.476-2.82-10.056-6.438,3.412L273.9,295.7l-5.433-13.481-5.433-.8-7.848,7.648L244.322,308.78l-2.82.193-5.633-6.238-8.446,7.043-13.68-3.412-8.247,7.243-2.82-.4-7.648,7.049-5.028-1-1.41,2.414L176.52,326.1l-0.4,8.247-28.165,4.223-0.8-2.82,7.243-15.29-15.7,3.618-12.071-18.1-5.433,3.419-0.2,6.438-3.019-4.024-7.043,4.629-0.8-6.631,4.828-3.831-1.609-1-11.665,7.243,2.009,9.257-7.043-4.429-2.82.193L89.4,327.9l8.247,5.228L85.373,344.2l-7.442-3.419L72.3,347.021,68.68,360.9l2.414,11.067,8.446-1,8.852,11.266-2.414,13.68,6.039-1.21,11.665,7.442,5.028,15.7,5.433,0.612L124,413.227l8.247-1.21-8.047,7.648-2.009,8.247,5.633,9.657,8.047,2.009,0.8,2.614-12.071,14.884,2.414-1,9.657,4.828,8.247,0.4,11.871,0.2-0.605-8.247,6.238-13.075-5.633-16.095,4.024-7.243,12.071-4.828,3.219,11.878v5.228l6.039,5.433,1.41,8.247,5.433,9.257,4.223,6.438,10.056,0.193,5.633-.193,11.466-2.82,11.871-12.27,4.429,7.049,8.247,2.009,6.238,5.433,5.633,0.612-1.809,9.657,4.429,9.045,6.238,4.635,7.848-15.1-1.809-11.067,9.657,3.219,2.215,4.629,6.039-4.828,10.461,0.8,3.219-4.217,6.837,12.264,4.629-2.215,4.024-6.438,4.223,2.414,0.605,5.228,7.648,3.824,6.837-4.828h5.633l3.219-4.629,0.2-4.629,9.657-4.429,2.614-7.243-7.243-3.618-6.238,8.047-10.262-2.414-1.609-2.221-0.2-5.633,2.614-4.828,20.723-8.446,0.4,4.429,6.637,2.215,3.618-.4,2.614-1,4.024,7.049,2.82,0.193,2.82,10.268,11.665,5.826,5.228,5.633,3.019-4.429,7.043,7.648,2.614-.193,5.633-5.228,16.7,5.833,0.4,13.481-1.809,14.285-4.828.8-0.4,2.82,6.438,9.045-3.419,7.854,1,2.607,9.657-5.021,6.438,8.652,18.1-6.238,3.019-3.831,0.2-5.228,8.047-1.609,2.009,1.809,1.41,8.446,2.414,1.21,5.633,1.21,7.243-4.024-5.433-1-3.019-4.828,4.629-10.268-1.41-5.228-4.024-21.122-2.009-10.262-2.614.4-8.852-9.85-4.223-6.438-4.828,2.215-7.648-1.609-5.228-19.114-17.9-8.446-4.024-7.648L419.341,403l-1.809-5.228,7.648-7.848-4.828-4.223,7.043-12.071-7.648-1.21-4.024-7.043,0.2-5.44-4.429,7.854-17.3.193L379.9,364.158l-6.238-7.848,9.657-3.618-18.1-1.609-1.21-3.412,20.118-10.461,1.21-2.614-3.419-4.629,0.2-8.247-5.228-2.009-13.68,3.419-10.461-3.618-10.661,9.052L337.259,350.9l-4.429,3.618,1.609,8.446-1.609,2.414-7.243,1.41-2.82,4.223-2.414-10.661,5.028-2.82,8.247-8.047,1.21-17.7,15.09-21.1-15.489.985,8.652-14.285-3.019-7.848-2.614-1.416,4.828-2.607,5.433,4.429-5.228-8.652-7.043.605Zm42.451,15.895-3.019,4.024-6.039.2-0.605,2.82,7.243,2.414-0.4,3.219-7.848-2.009,2.009,12.071,2.009,0.8,1.609-3.419,1.21,3.419L391,305.368l-0.605-6.039,1.809-2.414-0.8-3.026,0.8-6.837,4.223,0.8,0.605-4.429h-5.421v0.006ZM76.759,331.512l-2.414,1.609-5.633.612-0.4,5.826,1.21,2.614,2.215-3.618,4.223,1,3.419-2.414,1.21-2.607-1-2.614Z" transform="translate(-24.838 -266.797)" fill="#ffeb00" stroke="#000" stroke-width="2"/><text transform="translate(450.734 343.851)" font-size="97.274" font-family="DejaVu Sans" font-weight="700">1</text><text transform="translate(783.085 410.149)" font-size="97.274" font-family="DejaVu Sans" font-weight="700">2</text><text transform="translate(509.484 527.252)" font-size="97.274" font-family="DejaVu Sans" font-weight="700">3</text><text transform="translate(172.631 391.602)" font-size="97.274" font-family="DejaVu Sans" font-weight="700">4</text><text transform="translate(220.593 161.888)" font-size="97.274" font-family="DejaVu Sans" font-weight="700">5</text></svg>