<svg xmlns="http://www.w3.org/2000/svg" width="975.664" height="714.463" viewBox="0 0 975.664 714.463"><title>Députés sortants des Côtes-d&amp;apos;Armor en 2017</title><path d="M382.882,650.815l-5.5-9.39-10.578-3.3-0.346-6.95,0.17-13.75,13.717-13.182,5.893-8.875,10.735-2.336,10.245-15.962-3.387-7.531-8.157-7.243-1.279,2.14-1.99-1.494L394,558.294l-1.645-8.033,7.459-3.778,1.69-5.3-6.31-8.816-4.046-7.2,0.02-5.5,3.739-5.547,2.441,0.535,5.41,0.463,11.681,7.211,5.514-.4,9.7-5.142,6.6,8.836,18.474-6.454,3.015-3.876,0.235-5.3,7.994-1.566,2.225,1.834,1.292,8.536,2.545,1.357,5.638,1.077,7.367-3.994,9.377,6.173,5.638-.411,5.214,12.471,31.317,13.312-4.137,7.335,2.878,8.092-1.566,2.408,6.473,0.627-4.816,4.862,4.366,5.24,12.17,20.341,4.666,3.635,2.291,0.561-5.26-5.827,5.547-9.808L555.3,566.152l6.787-2.049,6.689,8.927,9.273,1.285,6.056-1.971,5.012,6.317,4.294,12.653,3.23,11.172-2.062,5.462-7.172,8.738-11.316-1.109-2.408,13.932-8.2,7.713-11.283-1.41-7.929,3.4-4.633,10.67,1.051,8.549-2.839,5.09-2.734,2.3-7-3.837-19.172-1.011-7.478,7.093-2.591-1.031-3.419-13.332,3.171-7.589-7.557-3.374-5.625.117-7.309,3.994-4.242-3.6-6.943,4.314-1.364-4.914,6.4-8.7-1.932-5.07-5.514-11.3-5.41,6.115-12.731,6.284-2.63,8.151-3.954,4.052L426.2,647.331l-7.759-7.576L410.9,653.922,396.75,648.1l-8.418,3.387Z" transform="translate(-9.85 -271.134)" fill="#ff8080" stroke="#000" stroke-width="2"/><path d="M731.933,796.318l-9.11-5.514L722,785.361l2.486-12.51-8.731-6.141-0.809-5.188-6.891-8.477,0.222-5.475,8.033,0.261,2.153-7.478,4.242-3.413,5.26-16.138,16.516-15.812,11.322,7.916,10.1-16.353,1.188,0.15-7.5-17.241,8.3-1.429,13.476-10.187-0.887-5.925-5.423.137-2.78-15.746-10.35.587-11.9-6.369,5.632-12.647,4.32-3.57,1.69-11.12-13.815,3.139-6.617-5.22-1.357-2.506,6.917-8.679,3.393-7.785-1.351-2.506-4.933-.287-3.831-3.322-11.2.033-13.325,4.594-2.369-1.579-8.4-17.645-2.721-.79-9.41,10.572-7.407,3.641-2.741,4.894-8.536.418-6.539-12.373-12.275-7.348-3.53,4.2-7.27,13.776-13.469,4.705-9.645-6.03-14.206,2.3-1.932-10.917-5.24-9.834-14.611-7.713,13.3-10.389,15.936-19.786,14.774-17.8,11.642-1.227,16.04-7.433,15.642-13.958,2.069-9.658-9.926-2.049-1.749-5.371,27.545-6.637,9.371,5.149,2.375,11,4.111-3.2-3.465-3.68,10.682-1.227,4.522-6.983,21.391-8.549,10.617-9.586,1.775-8.294,5.932-5.018,3.459,6.434-1.507,6.486,6.937,4.34,8.973-.6L761.546,473.97l2.056,3.008-10.278,10.435-6.9,6.558,7.446,0.979,2.069,4.131,4.933,1.233,6.036-9.234,5.455-1.749,2.343-1.285-0.372-2.911L788.7,472.684l9.247,0.666-6.486,7.009,6.7,9.612-0.75,7.752,9.071,3.909,2.911,14.533,6.336,1.038-0.463,15.237,4.326-1.312-0.111-2.8,7.159-11.655-0.3-11.935,4.418,1.671-0.724,19.773,3.5,3.667,7.381-.2,5.775-8.81-7.2-7.935,10.774-16.229,2.747-.809,4.711,7.022,7.27,3.942-1.233,5.782,0.574,3.439,16.973,18.161,7.635,3.113,11.368-1.723,7.035,5.018-2.976,10.219,3.557,6.493,4.189,1.808,2.669-7.629,8.144-6.408,6.878-6.16,2.6-2.46,2.388,7,4.02,4.946-2.871,3,4.835,0.75-0.894,4.659,8.294-.228,0.94,8.751-6.591,6.976-8.033,2.662,7.733,0.1-1.077,4.672,4.783,1.664-3.9,3.171,0.1,10.513-4.4-.966,0.653,1.573-1.664.737-0.424,3.315-3.211-.724-0.2,2.31,4.261-.2,0.946-3.667,3.609-.137,2.539-1.514,2.545-.209-2.16-1.932-0.046-9.436,7.511-.085-2.023-8.875,4.463-3.511,5.3,8.183,7.2-1.814-3.994-.046-4.6-3.237,4.046-13.025,8.151-10.271L971.739,552l3.635,4.516-0.392,5.736,3.765,4.385,4.059,13.88-0.072,5.756-6.265,5.651-0.1,2.891,7.752,14.97-9.945,3.948-2.108,5.416,2.858,5.057-0.157,5.736-7.217,8.718-5.4.47-1.886,13.9,7.752,8.346-1.742,7.746,1.677,2.3-1.442,5.4,5.932,5.873-4.881,1.768-0.581,5.09-3.217,7.27-0.4,8.588,8.013,10.467,0.953,5.384-1.945,1.938-7.752,2.688-10.6-.183,6.349,20.04-5.051,14.474,3.622,6.937-5.3,1-4.927-6.93-8.294,1.71-2.565,1.279-3.3,4.62-1.266,8.307-5.442,1.331-18.122-8.542-4.17-7.315-12.94,5.664,0.45,5.762-4.49,7.159-14.18,1,0.483,5.318,5.3,2.017-4.757,9.547,1.122,2.617-9.684-6.317-14.422.4-1.52-2.473-13.75,8.973-5.305,5.788-1.729,16.477,3.511,7.5-0.137,2.734-4.294,3.067-5.455.111-6.721-4.633-7.818,2.291-4.894-1.051-6.441,5.808-3.942-4.046-10.258-3.785-5.384.4-15.564-6.917-8.131,1.631-0.627-15.655-5.3-9.4-6.858,4.777Z" transform="translate(-9.85 -271.134)" fill="#ff8080" stroke="#000" stroke-width="2"/><path d="M567.141,980.159l0.548-6.467-4.94-1.6,0.933-8.236-2.4-5.149,8.673-20.8,1.742-8.353-1.808-5.41,2.232-5.038-2.558-3.615,2.447-4.17-8.053-10.369-5.377.522-14.467,10.878-0.94,5.24-13.58-3.393-10.93,2.186-1.795-2.193-5.86,16.092-7.355,8.385-1.586-15.818-3-4.392,1.181-4.927-2-4.418-14.108-19.9-21.854,4.451L446.664,885.6,439.173,874.1l-8.066.77L410.1,868.309l-10.937,1.971-8.816,6.663-11.25.5,0.972-8.066-7.446-3.158-3.863-14.03,1.24-5.749-8.164.9-3.06-4.751-5.586-.157-4.738-3.067-8.372,1.057-3.811-3.9,5.031-9.821,5.325-1.977,2.362-5.175-1.586-11.2-5.442-.006-2.343-5.07-10.852-.946,1.462-4.307-2.179-3.55,2.8-4.953-3.034-7.948,0.117-8.647-6.219-9.338,3.954-3.948,5.358-.959L340,749.542l-6.95-8.868-0.052-5.482,6.6-9.312,19.349-16.118,0.992-5.031-4.607-1.011-0.848-8.059-5.09,1.24-1.494-5.664,5.168-13.815,0.659-4.34,5.919-4.013,0.144-6.983,3.707-4.2-2.891-4.757,2.819-10.643,3.38-4.346,10.578,3.3,5.5,9.39,5.449,0.627,8.418-3.387,14.154,5.821,7.537-14.167L426.2,647.3l15.629-5.142,3.954-4.052,2.63-8.151,12.731-6.284,5.41-6.115,5.514,11.3L474,633.92l-6.4,8.7,1.364,4.914,6.943-4.314,4.242,3.6,7.309-3.994,5.625-.117,7.557,3.374-3.171,7.589L500.886,667l2.591,1.031,7.478-7.093,19.172,1.011,7,3.837,2.734-2.3,2.839-5.09-1.057-8.549,4.64-10.67,7.929-3.4,11.283,1.41,8.2-7.713,2.408-13.932,11.316,1.109,7.172-8.738,2.062-5.462-3.23-11.172-4.294-12.653-5.012-6.317-0.816-9.58,1.984-1.782,14.611,7.713,5.24,9.834,1.932,10.917,14.206-2.3,9.645,6.03,13.469-4.705,7.27-13.776,3.53-4.2,12.275,7.348,6.539,12.373,8.536-.418,2.741-4.894,7.407-3.641,9.41-10.572,2.721,0.79,8.4,17.645,2.369,1.579L728.9,586.08l11.2-.033,3.837,3.322,4.927,0.287,1.351,2.506-3.393,7.785-6.917,8.679,1.357,2.506,6.617,5.22,13.815-3.139L760,624.333l-4.32,3.57-5.632,12.647,11.9,6.369,10.35-.587,2.78,15.746,5.423-.137,0.887,5.925L767.91,678.053l-8.3,1.429,7.5,17.241-1.188-.15-10.1,16.353L744.5,705.01l-16.516,15.812-5.26,16.131-4.242,3.419-2.153,7.478L708.3,747.6l-0.222,5.475,6.891,8.477,0.809,5.188,8.731,6.134-2.486,12.516,0.822,5.442,9.11,5.514,7.87,11.12,6.858-4.777,5.3,9.4,0.627,15.655,8.131-1.631L776.3,833.03l5.39-.4,10.258,3.785,3.942,4.046,6.441-5.808,4.894,1.057,5.1,6.323-3.308,27.219-2.943,4.888-9.573,5.553-0.209,2.858,5.436,6.356-2.3,1.677-5.651-.326-6.93-4.711L776.576,890.3l-2.245,9.612-16.451-.307-3.06,7.889-4.255,3.537L741.194,906l-5.847,12.542L732.8,916.63l-6.31-8.973-0.6-5.4-0.639-8.757L711.92,882.2,707.8,871.4l-7.622-4.333-14.5.607-7.752,7.713-13.619-1.1-1.573,5.547-25.489.809,10.493,15.812,0.281,5.567-3.315,7.55-7.687,12.046-6.61,5.475-2.845,4.418,1.723,16-5.331,1.579L620.5,953.5l-8.151-.4-0.933,2.663-6.3,9.514-17.241,15.081-11.048-.326-1.684-2.316-5.266,6.258Z" transform="translate(-9.85 -271.134)" fill="#06c" stroke="#000" stroke-width="2"/><path d="M196.542,465.33l-5.71.365-10.33-.379-4.255-6.369-5.508-9.462-1.331-8.307-6.2-5.462,0.02-5.423-3.25-11.922-12.373,4.764-3.889,7.42,5.619,16.295-6.343,13.182,0.672,8.425-12.157-.13-8.248-.522-9.749-4.96-2.545,1.051,12.255-15.009-0.874-2.767-8.17-1.853-5.54-9.88,1.945-8.275,8.2-7.929-8.457,1.259-9.847,5.436-5.521-.783-5.168-15.8-11.909-7.478-6.03,1.233-1.1,1.449-5.482-1.129-9.24,6.721-0.17,23.381,3.178,4.5,2.9,0.392,2.212,3.942-3.165,6.513-3.707,3.367L40.924,452.67l-3.152-13.11L25.282,441.5l0.933,8.862-8.764,5.358-4.124,5.129-2.434,4.542,5.188,30.631,2.884,4.757,5.044,2.108-0.4,10.956,2.14,2.291,4.131,4.17,8.633-.718,7.857,3.876,2.767-.953,4.914,10.467-7.609,12.288,9.821,3.9,5.012-2.343L71.739,559.8,79.8,562.34l-11.172,9.39L54.577,590.5l-7.165,5.038-3.6,3.8,1.312,8.059L43.4,612.562l3.791,3.641-0.842,2.591,2.578,0.307,1.547,4.96,7.472,1.494-0.111,2.688,5.521,5.5,8-.627,2.225,4.9-8.77,7.465L54.42,650.417l-7.615,8.66-0.8,17-1.625,1.618,0.5,5.488-3.015,4.555L71,697.278l0.679,5.684-4.92,19.264L70.4,726.31l4.483,22.735,5.318,0.2,6.291-6.115,4.933,2.819-5.181,1.971-8.222,14.428-5.436-.64-0.4,5.56L84.9,772.655l3.961,4.033,2.806-.444-4.411,9.547-0.365,8.085,2.4,4.868-10.284,1.71-2.095,8.02-5.168,2.271-1.24,11.329,8.2,15.042,10.363,4.366,0.711,5.631,0.9,5.416-2.584.927L77.69,850.109l-13.071,2.95,1.011,3.563,6.4,5.064,11.5,1.1L103.421,859l9.018-2.467,5.71,5.638,10.846,0.4,2.395-1.475,0.653-5.469,12.777,11.3-8.8,10.872,2.369,5.136,8.907,7.022,7.57-7.929,7.811,1.286,8.575-7.576L185.142,873l6.9-4.607L199,879.272l-0.783,5.24,4.2,2.826,1.547-5.325,8.157,0.157,5.005,2.062,3.9,7.283L228.6,894.2l0.8-2.617,9.306-4.535,8.027-.979,14.859,6.545-1.814-7.857,7.426-7.987,5.116-2.036,7.759,2.336,2.375,1.494,7.106-4.431,7.348,2.976,6.16-5.586L306.708,864l-3.55-4.476,0.287-5.762,3.426-7.916,5.358-1.932,2.734-4.8,9.86,0.992,1.54,2.108,2.617,0.333,4.64-6.134,2.63,0.1,5.031-9.821,5.325-1.977,2.362-5.175-1.586-11.2-5.442-.006-2.343-5.064-10.852-.953,1.462-4.307-2.16-3.536,2.8-4.953-3.034-7.948,0.117-8.647-6.219-9.338,3.954-3.948,5.358-.959L340,749.542l-6.95-8.868-0.052-5.482,6.6-9.312,19.349-16.118,0.992-5.031-4.607-1.011-0.848-8.059-5.09,1.24-1.494-5.664,5.168-13.815,0.659-4.34,5.919-4.013,0.144-6.983,3.707-4.2-2.891-4.757,2.819-10.643,3.38-4.346-0.346-6.95,0.17-13.75,13.717-13.182,5.893-8.875,10.735-2.336,10.245-15.962-3.387-7.531-8.157-7.243-1.279,2.14-1.99-1.494L394,558.307l-1.645-8.033,7.459-3.778,1.69-5.3-6.31-8.816-4.046-7.2,0.02-5.5,3.739-5.547,2.441,0.535,5.41,0.47,11.681,7.2,5.514-.4-0.972-2.747,3.4-7.955-6.591-9.071,0.418-2.891,5.044-.816,1.775-14.409-0.352-13.743-16.915-5.958-5.7,5.39-2.721.215-7.2-7.818-2.989,4.522-5.24-5.71-11.831-5.886-3-10.35-2.76-.215-4.131-7.12-2.584,1-3.746.4-6.689-2.395-0.431-4.333-20.993,8.509-2.669,4.946,0.287,5.619,1.618,2.3,10.4,2.428,6.336-8.209,7.257,3.72-2.591,7.309-9.743,4.431-0.294,4.8-3.243,4.574-5.658.033-6.969,4.868-7.876-3.72-0.5-5.475-4.34-2.3-4.072,6.48-4.751,2.212-6.793-12.4-3.3,4.248-10.67-.855-6.03,5.005-2.349-4.718-9.71-3.335,1.821,11.316-7.9,15.244L247.7,484.4l-4.646-9.11,1.827-9.971-5.619-.594-6.4-5.475-8.19-2.036-4.646-7.041-12.033,12.373Z" transform="translate(-9.85 -271.134)" fill="#ff8080" stroke="#000" stroke-width="2"/><path d="M338.586,271.876L323.9,285.13l-14.683,2.858-14.885,9.991L285.565,299l-2.858,8.157-2.858-1.018-6.121,5.3-5.3,10.408,1.429,5.09-14.278,17.75L256.6,355.9l-3.876-6.728-4.894,1.834,15.087-17.743,4.079-12.647-2.858-10.193-6.526,3.459,4.692-13.456-5.508-13.665-5.508-.816-7.955,7.752L232.316,313.68l-2.858.2-5.71-6.323-8.562,7.139-13.867-3.459-8.359,7.341-2.858-.4-7.752,7.146-5.1-1.018-1.429,2.447-12.236,4.49-0.4,8.359-28.55,4.281-0.816-2.858,7.341-15.5-15.909,3.667-12.236-18.35-5.508,3.465-0.2,6.526-3.06-4.079L97.1,321.439l-0.816-6.721,4.894-3.883-1.631-1.011-11.825,7.341,2.036,9.384-7.139-4.49-2.858.2-4.49,10.807,8.359,5.3L71.2,349.584l-7.544-3.465-5.71,6.323-3.667,14.069,2.447,11.218,8.562-1.011,8.973,11.42L71.812,402l6.121-1.227,11.825,7.544,5.1,15.909,5.508,0.62,9.991-5.3,8.359-1.227-8.157,7.752-2.036,8.359,5.71,9.788,8.157,2.036,0.816,2.649L110.966,464l2.447-1.011,9.788,4.894,8.359,0.4,12.033,0.2-0.613-8.359,6.323-13.254-5.71-16.314,4.079-7.341,12.236-4.894,3.263,12.04v5.3l6.121,5.508,1.429,8.359,5.508,9.384,4.281,6.526,10.193,0.2,5.71-.2,11.622-2.858,12.033-12.438,4.49,7.146,8.359,2.036,6.323,5.508,5.71,0.62-1.834,9.788,4.49,9.169,6.323,4.7,7.955-15.3-1.834-11.218,9.788,3.263,2.245,4.692,6.121-4.894,10.6,0.816,3.263-4.274L299,474.623l4.692-2.245,4.079-6.526,4.281,2.447,0.613,5.3,7.752,3.876,6.93-4.894h5.71l3.263-4.692,0.2-4.692,9.788-4.49,2.649-7.341-7.341-3.667-6.323,8.157-10.4-2.447-1.631-2.251-0.2-5.71,2.649-4.894,21.006-8.562,0.4,4.49,6.728,2.245,3.667-.4,2.649-1.018,4.079,7.146,2.858,0.2,2.858,10.408,11.825,5.906,5.3,5.71,3.06-4.49,7.139,7.752,2.649-.2,5.71-5.3,16.928,5.912,0.4,13.665-1.834,14.48-4.894.816-0.4,2.858,6.526,9.169L418.9,519.3l1.018,2.643,9.788-5.09,6.526,8.77,18.35-6.323,3.06-3.883,0.2-5.3,8.157-1.631,2.036,1.834,1.429,8.562,2.447,1.227,5.71,1.227,7.341-4.079-5.508-1.011-3.06-4.894,4.692-10.408-1.429-5.3-4.079-21.411-2.036-10.4-2.649.4-8.973-9.984-4.281-6.526-4.894,2.245L445,448.337l-5.3-19.375L421.554,420.4l-4.079-7.752-7.752-3.465-1.834-5.3,7.752-7.955-4.894-4.281,7.139-12.236-7.752-1.227-4.079-7.139,0.2-5.514-4.49,7.961-17.541.2-14.48-3.876-6.323-7.955,9.788-3.667-18.35-1.631-1.227-3.459,20.393-10.6,1.227-2.649-3.465-4.692,0.2-8.359-5.3-2.036-13.867,3.465-10.6-3.667-10.807,9.175-4.894,22.637-4.49,3.667,1.631,8.562-1.631,2.447-7.341,1.429-2.858,4.281-2.447-10.807,5.1-2.858,8.359-8.157,1.227-17.946,15.3-21.391-15.7,1,8.77-14.48-3.06-7.955-2.649-1.436,4.894-2.643,5.508,4.49-5.3-8.77-7.139.613Zm43.03,16.112-3.06,4.079-6.121.2-0.613,2.858,7.341,2.447-0.4,3.263L370.8,298.8l2.036,12.236,2.036,0.816,1.631-3.465,1.227,3.465L381,310.221l-0.613-6.121,1.834-2.447-0.816-3.067,0.816-6.93,4.281,0.816,0.613-4.49h-5.495v0.007ZM62.466,336.722l-2.447,1.631-5.71.62-0.4,5.906,1.227,2.649,2.245-3.667,4.281,1.011,3.465-2.447,1.227-2.643-1.018-2.649Z" transform="translate(-9.85 -271.134)" fill="#ff8080" stroke="#000" stroke-width="2"/><text transform="translate(456.868 348.533)" font-size="98.602" font-family="DejaVu Sans" font-weight="700">1</text><text transform="translate(793.755 415.733)" font-size="98.602" font-family="DejaVu Sans" font-weight="700">2</text><text transform="translate(516.419 534.434)" font-size="98.602" font-family="DejaVu Sans" font-weight="700">3</text><text transform="translate(174.97 396.934)" font-size="98.602" font-family="DejaVu Sans" font-weight="700">4</text><text transform="translate(223.586 164.086)" font-size="98.602" font-family="DejaVu Sans" font-weight="700">5</text></svg>