<svg xmlns="http://www.w3.org/2000/svg" width="985.936" height="804.795" viewBox="0 0 985.936 804.795"><title>Députés sortants du Morbihan en 2017</title><path d="M578.625,605.221l-6.6,4.907-6.175,12.78-13.632-.211-2.127,8.52,8.731,8.1-11.287,8.725-1.063,7.879-18.744-7.668-14.484-1.281-3.408,10.871-6.6,3.613-6.175,21.729L493,687.653l-13.632,6.6-7.027,4.9-5.535-1.057-4.689-1.281-2.767,4.9-1.915,10.224L466.6,731.97l2.985-18.1,1.493,11.717L476.61,716l1.493,7.668-6.175,4.907,4.471,5.535,4.9-7.668,4.26,7.027,7.239,4.471,1.493-1.493V716.64l14.484,7.027,2.556-5.112-5.752-4.485,6.816-5.964-0.641-4.049-4.9.423,4.26-3.831,16.829,5.112,10.865-4.26,11.505,2.985,5.535-2.127,2.556-5.317-2.127-5.323,9.583,1.493,2.556-8.943,7.027,18.533,2.767-6.6,3.612,11.287-22.574-8.943-0.852,4.049,26.623,17.04-2.556-5.112,8.309,2.345,2.556,5.323-1.281,7.239,2.127,11.076-7.027,11.928-1.281,10.013,1.056,4.9-6.168,3.408-1.5-1.915L571.8,774.6l-15.118-2.556,1.063-6.393-5.112-4.049-7.457,3.2,1.063,8.309-4.049-3.613L540.694,758.2l-8.943-.852,4.26,12.78-6.6,2.985,0.211-9.8-7.879,5.112-5.535-3.2,0.423,6.6-2.127,1.7-4.689-1.915,1.493-9.8-8.1,4.465,1.493-10.865-4.049,4.049-1.281-8.52L490,757.345l-2.127-5.535-8.731,4.26,3.408,7.668-6.175.2,4.049,6.175,12.351-1.7-8.52,4.689,2.985,3.2,4.689-3.831,13.209,7.027,6.816,9.8,3.2,0.423,2.985,17.463,18.744,9.577,5.753-1.281,5.535,2.556,8.52-8.315,17.674-2.761,13.209-6.393,8.943,1.281,18.955,8.52,9.161-21.3,13.632,2.761,3.619,4.26,2.767,5.112h3.2l14.484-10.224,12.139,0.211,11.717,3.2,2.985-.423,4.471-7.879,5.112-2.556h11.287l9.161,6.611,19.167,5.317,14.688,11.076,1.7,2.127,10.435,1.057,5.753,0.852,8.315-8.1,9.8,5.112,12.139-8.52-10.865-13.632-5.112-19.807-7.027-5.535-5.753-1.7-1.915,2.127-4.689-4.9,8.1-12.139,7.879-.423,4.26-6.393,2.76,0.423,1.7-8.309-8.1-1.281-1.281-2.345,3.831-7.668-0.852-8.52-3.408-2.127-3.408-3.408-5.535,1.915-8.1-2.985-8.731,1.915-2.127-2.127,0.2-8.315-7.02-5.535-10.647,3.2-8.52-.852-5.964,10.019L713.008,700l-10.224,4.26,1.063,15.131-7.879-.647-10.224,3.2-10.013.641-4.049-2.985,1.915-5.112-3.408-4.26,1.493-4.26-4.9-13.209-6.816-4.907,1.281-8.309-6.6-5.535-1.915-2.351,1.915-8.725-2.345-1.5-8.943-1.281-15.547,8.52-7.872-3.831-5.323-6.169-0.641.423-4.471-2.985-7.879,4.049-7.239-5.112-1.915-2.127,0.852-2.556,10.224-9.577,2.985-8.315-1.493-2.345L584.166,619.7l-0.852-11.281Zm-55.8,108.421-4.471,7.239-4.26-2.351L515.8,723l-2.556,4.049-3.408,19.6,1.063,7.463,1.063-.852v-4.689l4.689-.211-2.556-5.964,2.127-10.224,0.852-1.493,1.063-1.063,1.281-.641,11.717,0.852-2.556-2.985-6.6-2.127Zm25.13,1.063-1.063,6.816-7.239,5.535,1.493,3.831-3.619,2.345,1.063,4.471,1.281,0.641,6.816-9.583,5.753-5.112-0.211-2.985-2.767-3.619Z" transform="translate(-3.423 -191.489)" fill="#ffc0c0" stroke="#000" stroke-width="2"/><path d="M423.78,491.694l-9.161,7.668-4.049,8.1-1.7,11.928-4.049,4.055-9.8-2.985-0.852,2.985-9.161.852-7.879,8.943-12.991,7.457-1.915,5.535L355.4,561.987l-12.139,12.351-11.928-3.831-2.767-4.689-8.309,1.063-7.879-1.915,0.641-7.668-7.239-11.717L291.939,544.3l-25.982,21.089-2.767,10.435-4.9-2.985-6.175,18.955L247,595.2l-2.985,8.309-7.457-.641,0.852,5.753-8.1-4.9-1.281,8.52,2.985,7.879-9.8,5.753,3.408,4.26,7.457-3.831,16.4,0.641,3.408,3.619,10.865,2.345,4.26,10.865-5.535.647-10.224-4.907-10.435-7.021-3.619,2.345-6.6,1.281-5.535-1.915-4.689,7.239,2.556,3.408,5.964-6.816,20.871,2.767,19.167,8.731,36.847,31.094,1.281-6.393-1.493-14.913,8.309-10.435L304.5,638.237l11.505,5.112,11.076-4.689,4.689-.852L342,639.934v2.985l-5.112,1.915-3.619,4.689-11.505-.423-4.689,3.408-7.668,8.309,0.852,2.767-1.063,2.767,1.915,11.505-3.2,4.907,7.668,16.393,22.152,14.913,10.435,21.94,1.063,18.321,2.127,11.505-3.2,8.1-2.985,4.9-7.879,4.049,3.2,4.9,1.063,14.484,5.323,17.04,6.175,6.6,8.943-.641,14.055,4.471,2.767-.423-4.26-7.873-12.78-12.78-1.493-5.759,0.641-5.964-4.471-3.408-3.619-14.273,2.345-26.412,7.879-13.421-7.879,1.915V720.689l14.484,13.843,6.6,5.112-7.457-1.493,4.26,11.717,18.744-7.239,5.964,3.619,1.7-7.457,5.964-.852v-7.457l11.287,17.245-3.619-19.6,2.556-.852,0.423-.2,8.1,16.617,4.26,3.619,5.112-2.767-1.493-14.484,3.619,3.831-0.423,2.985,9.372,6.816,4.049,14.7,5.964-8.731,4.471,7.668,13.209,0.423L460.191,740.5,447.623,729.42l8.1-8.1-10.013-7.239,9.8-6.816-4.689-17.251-5.112.423,0.641-10.019-6.393-8.725,2.556-3.619,2.127,4.26,4.689,7.239-0.641,5.535,5.112,1.7-1.915,2.127,2.556,7.668,7.879-1.915,4.471,3.408,5.535,1.063,7.027-4.9,13.632-6.6,4.049-4.471,6.175-21.729,6.6-3.619,3.408-10.865-15.977-2.556-1.7-2.351,5.112-15.759-6.6-5.753,0.423-2.985,7.457-4.471-1.7-14.913,1.915-11.287-4.471-4.049-17.04-4.689-2.767-.423-3.2,4.9,6.393,5.753-1.063,2.767-5.753,1.063-5.323-2.127-8.1,3.408L455.5,591.6l4.26-4.471-2.345-5.535,1.915-11.717-1.493-17.892,8.309-2.556,3.831-14.484,4.26-4.26-17.251-5.964-6.6-18.744,1.281-5.535-1.915-2.127Zm11.287,398.944-1.063.423-0.211,1.493,0.423,2.985,4.26,1.493,6.393,6.393,8.731,2.345,1.7,4.26,4.26,4.049-2.985-9.8,6.816-7.239-7.239,1.493-8.943-1.7ZM288.313,902.355l-2.767,1.057-1.915,11.928-4.26,3.831L278.518,931.1l5.112,14.273,9.583,11.076-6.6,9.583,14.7,14.055,16.829,0.852L329,976.029l8.943,7.239,5.753-.423,7.879,4.471,11.928-.423,10.865,5.535,2.985,0.423,2.556-1.281,4.689-3.831,10.013-21.3-7.668-4.049-15.125.852-9.583-6.816-2.985.211L345.4,947.266l-8.52-24.708-5.753,1.493-14.055-3.619-6.6-5.317h-5.753l-1.915,2.345-0.423-5.964-8.309-2.345Zm218.533,33.016-4.049,4.471h-5.964l-3.408-2.351,0.423,7.239,1.281,2.767,3.619,2.556,10.013-6.175,0.423-7.457Z" transform="translate(-3.423 -191.489)" fill="#06c" stroke="#000" stroke-width="2"/><path d="M394.983,520.478l-5.569-10.129,0.32-24.265-5.2-3.122-12.051-1.806-7.607-5.057,5.016-3.054,9.058,5.759,4.969-2.761,0.313-23.242-4.826-2.808,7.32-12.48-0.068-5.807-8.084-1.786-5.616-6.25-7.879,1.738-2.283-1.643L351.19,413.685l-5.575-10.933,1.615-15.418,4.164-4.131-0.266-12.3,2.052-2.3-7.7-12.173L345,350.794l-6.823-5.46-8.588.259,3.681-7.811-1.336-5.684,6.693-9.386,9.611-6.7,10.149-4.233,4.451,7.934L374.4,328.97l8.936,1.275,15.138,9.938,9.086-.354,5.248,2.876,9.058-17.183,5.8-.4,4.205-4.008-4.792-3.558-0.436-5.984-7.668-9.215,2.433-5.023,5.071,0.818,0.259-8.206,4.935-2.188,4.042,7.811,16.385-4.812,9.079,6.857,4.642-1.268,1.6-10.653,3.981-3.919,2.645,0.906,9.174-16.808,4.846-6.318,4.185,3.8,6.673-8.806,1.281-10.66,16.311,8.425,22.827-4.642,14.736,20.782,2.093,4.614-1.206,5.126,3.108,4.594,1.656,16.522,7.682-8.758,6.121-16.808,1.874,2.29,11.417-2.283,14.184,3.544L602,271.826l15.111-11.369,5.616-.538,8.411,10.83-2.556,4.355,2.665,3.776-2.324,5.262,1.888,5.65-1.82,8.718-9.058,21.729,2.508,5.378-0.975,8.6,5.16,1.67-0.573,6.755,2.89,3.906,2.522,17.544-3.967,3.844,3.149,4.465-1.2,8.534,2.638,5.18,9.788,4.274,0.947,11.171-2.481,3.2,2.9,0.068,0.634,2.822-8.936,7.014-4.24,13.271-1.874,14.518,2.222,5.528,10.224-5.61,5.821,0.2,7.593,3.592,9.931,10.2-14.4,11.048-4.873,7.777,4.649,13.3,5.3,6.679,4.88-2.583,8.854,0.109,5.664,6.625,5.828,1.077-1.622,7.559-4.464,3.844,3.749,14.1,1.254,2.679,5.828,0.743,5.262,6.993-0.457,5.862-5.146,7.143,9.945,3.96-4.778,12.637,10.108,8.581-4.178,6.87,3.66,4.785-2.76,11.717,9.188,7.552-0.968,5.187-8.438,6.911,1.186,8.254,5.255,2.658,19.623,2.365,5.4,9.951,0.327,5.494-10.449,15.983,3.735,7.334-2.338,1.833-8.043-2.358-27.5,8.234-10.374,14.075,7.743,3.858-9.563,10.83-4.846-13.386-6.891-4.86,1.247-8.3-6.421-5.6-1.983-2.236,2-8.683-2.529-1.588-8.888-1.152L627.9,668.607l-7.886-3.844-5.371-6.107-0.559.382-4.471-2.883-7.934,4.117-7.136-5.255-2.072-1.99,0.975-2.7,10.258-9.624,2.849-8.1-1.5-2.447-20.775-10.517-1-11.219-4.669-3.183-6.455,4.839-6.182,12.814-13.618-.191-2.283,8.54,8.786,8.145L547.531,648,546.55,655.9l-18.785-7.7-14.436-1.281-16.079-2.536-1.595-2.276,4.982-15.759-6.6-5.78,0.586-2.938,7.382-4.614-1.813-14.79,1.956-11.369-4.376-4.022L480.755,578.2l-2.9-.368-3.19,4.71,6.4,5.841-1.091,2.719-5.6,1.05-5.466-2.079-7.934,3.285-5.344-1.772,4.11-4.437-2.3-5.589,2.031-11.778L457.9,551.856l8.377-2.5,3.776-14.464,4.28-4.253-17.19-6-6.755-18.716,1.356-5.541-1.847-2.161-26.1-6.489-9.174,7.675-4.055,8.077L408.908,519.4l-4.076,4.049Z" transform="translate(-3.423 -191.489)" fill="#ff8080" stroke="#000" stroke-width="2"/><path d="M949.106,689.786L948.656,687l5.085-2.038,0.116-2.822-10.088-3.265,1.193-8.138,4.13-7.729-0.361-8.765-10.906-5.569-0.818-8.813,2.869-14.47-5.759-6.748,0.375-5.528,10.5-5.153,0.491-5.112,28.736-2.1-1.431-11.165-11.621.668-3.524-10.429-23.27,1.029,2.038-7.982,7.954-1.4,0.743-5.446,8.506-.341,4.621-3.462,8.418-7.607,0.436-5.8,0.975-11.09,13.734-6.714,6.216-12.316-7.77-3.81-2.6-11.294,1.738-5.337L977.2,488.177l-8.472,14.607-14.988,7.45-8.261-4.819,5.991-13.489-8.724-12.4-0.143-9.106,6.264-9.522,5.753-1.506,6.768-5.869L960.3,448.59l2.869-4.2L952.1,430.357,948.267,416.3l-3.8-6.141-4.962-1.615-1.574-2.515-9.222-13.741-4.744-3.633-17.463,3.36-8.309-7.9-10.871-4.867-2.665,1.35-13.775-5.275-28.579,6.782,0.136-8.861,6.264-6.148-3.442-7.9,1.1-2.747,4.2-8.615,13.68-14.409,4.205-4.233,29.595,0.129,11.526-9.311-0.232-8.977,1.949-2.3-7.641-6.018-23.61,3.592-7.279,4.826-0.252,8.527-11.989.634-0.491-8.322,4.526-10.108-2.59-4.935-1.268-6.059-0.307-11.751-17.933-20.318-17.183-.32-3.2,8.24-4.437,3.694-9.788-5.255-6.107,13.1-2.665-2-6.584-9.372-0.627-5.637-0.668-9.147-13.925-11.8-4.314-11.287-7.961-4.526-15.138.634-8.1,8.056-14.225-1.152-1.643,5.793-26.623.845,10.96,16.515,0.293,5.814-3.469,7.886-8.022,12.589-6.9,5.712-2.979,4.614,1.806,16.713-5.569,1.656-3.612,4.6-8.513-.423-0.968,2.781-6.584,9.938-18.015,15.751-11.532-.341-1.758-2.42-5.5,6.536,2.522,17.551-3.967,3.837,3.149,4.465-1.2,8.534,2.638,5.18,9.788,4.274,0.947,11.178-2.481,3.2,2.9,0.068,0.634,2.822-8.936,7.014L630.637,428l-1.867,14.518,2.222,5.521,10.224-5.61,5.821,0.2,7.593,3.592,9.931,10.2-14.4,11.042-4.873,7.777,4.649,13.3,5.3,6.679,4.88-2.583,8.847,0.116,5.671,6.618,5.828,1.077-1.622,7.559-4.471,3.844,3.756,14.109,1.254,2.672,5.828,0.75,5.262,6.987-0.457,5.862-5.146,7.143,9.938,3.96-4.771,12.637,10.108,8.588-4.185,6.864,3.667,4.785-2.76,11.717,9.188,7.559-0.968,5.18-8.438,6.911,1.186,8.254,5.248,2.665,19.63,2.358,5.4,9.951,0.327,5.494L717.984,662.3l3.735,7.327-2.338,1.833-8.043-2.351-27.5,8.234L673.469,691.41l7.743,3.858-9.563,10.83-1.438,4.117,3.469,4.267-2.072,5.132,4.185,2.972,9.931-.593,10.156-3.176,8.016,0.607-1.077-15.111,10.21-4.328,7.872,0.675,5.855-9.944,8.677,0.886L746,688.335l6.959,5.562-0.143,8.377,2.208,1.976,8.663-1.956,8.1,3.128,5.582-2.018,3.374,3.442,3.319,2.093,0.886,8.513-3.735,7.77,1.3,2.263,8.016,1.22-1.731,8.37-2.665-.4-4.41,6.4-7.859.348-8.1,12.3,4.676,4.778,2.1-2.14,5.725,1.718,6.891,5.63,5.139,19.739,10.919,13.612-12.153,8.663-9.795-5.112-8.363,7.934-5.61-.77-1.452,2.3-11.751-1.581L739.9,818.411l-15.329-9.365-5.6,5.1,6.189,15.1L720.71,840.29l2.1,8.758,7.075,5.405,7.457-5.119,5.909,0.791,5.037-13.216,5.405-2.045,10.094-9.577,1.7,8.752,5.6,6.918,8.731,1.929L790.11,837.6l6.012-.382,6.543,6.182,23.051-5.6,1.568-17.612,7.5-12.923,1.377-14.879,0.607-.327,10.244,4.205,11.519-.763,2.079,2.031-3.244,7.661,9.972,5.95,15.909-11.533,10.647-3.49,5.957-.852,1.479,2.631-2.365,11.3,1.943,2.29,11.71,2.038,6.353-5.991L920,786.771l5.48-2.515,26.132-7.279,0.975-5.821-3.892-7.627,4.144-20.2-4.826-4.212,2.672-1.132-1.2-14.123,9.3-6.836,0.682-2.815,0.293-11.948-7.089-9.392Z" transform="translate(-3.423 -191.489)" fill="#ffc0c0" stroke="#000" stroke-width="2"/><path d="M255.508,551.545l-14.273,13.843-8.309-2.345-8.52,2.556L221,573.267l-1.063,5.753,4.26,0.423,5.535,17.463,12.78-4.465-2.556-17.04,4.26,10.013,10.224-8.943,1.7-6.816,6.175,1.915,1.063-4.9-5.964-5.535,1.493-7.879Zm-60.062,18.533-3.408,7.457-8.943-1.063-4.689,4.055-11.717-.211,0.423,2.985-10.647,8.943L139,601.185l1.063,5.759L164.985,635.7l5.535,0.852,10.224-5.753,7.668,2.556,2.556-1.7,11.717,0.852,5.112-2.556,7.668-9.167,1.281-8.725,6.175-5.112,3.831-10.647-3.831-12.991-4.049-.641-4.9-9.583-2.345,1.493ZM139.637,674.021l-7.239,2.345v4.471l4.049,4.689,7.239,5.535,4.26,1.7,1.493,2.556,5.964,1.7,6.175,4.465h1.493l7.457-2.127,4.9-3.408,3.408,2.767,2.985,0.641,3.408,3.2,2.985-11.505-8.943-8.1-9.161-.852-25.982-8.1-4.491.013h0Z" transform="translate(-3.423 -191.489)" fill="#ff8080" stroke="#000" stroke-width="2"/><path d="M426.766,289.955l-0.259,8.206-5.071-.825L419,302.367l7.668,9.208,0.436,5.991,4.792,3.558-4.205,4.008-5.8.4-9.058,17.183-5.248-2.876-9.086.354-15.138-9.938-8.936-1.275-11.567-9.256-4.451-7.934-10.149,4.233-9.611,6.7-6.693,9.386,1.336,5.684-3.681,7.811,8.588-.259,6.823,5.453,0.477,5.644,7.7,12.173-2.052,2.3,0.266,12.3-4.164,4.131-1.615,15.411,5.575,10.933,11.608,10.074,2.283,1.649,7.879-1.738,5.616,6.25,8.084,1.779,0.068,5.814-7.32,12.48,4.826,2.808-0.313,23.236-4.969,2.767-9.058-5.759L364.9,476.1l7.607,5.057,12.051,1.806,5.2,3.122-0.32,24.265L395,520.478l-0.913,2.883-9,1-7.988,8.915-12.964,7.45-1.84,5.412-6.952,15.813-11.976,12.432-12.078-3.926-2.658-4.669-8.37,1.179-7.838-1.9,0.62-7.722-7.225-11.757-13.932-1.234-26.023,21.034-5.9-5.35,0.852-5.726,9.242-2.761-11.069,1.615-3.408-1.7-14.232,13.946-8.459-2.276-8.465,2.576-3.408,7.511-4.669-3.688L203.666,542.39l2.754-8.718-1.69-6-0.463-4.737-2.058,5.323,2.651,5.173-1.595,5.235-7.743,1.527,5.753,1.234,7.934,15.568-2.229,4.532,4.792,1.622,3.013,6.557-0.825,3.306-2.372,1.547-16.052-4.532-3.517,7.627-8.977-1.145-4.56,3.967-11.867-.1,0.613,2.849-10.721,9.1-17.565,8.834-3.169-8.595-11.124-14.389-1.813-14.681,2.57-5.46,4.928,1.1-6.339-3.606,5.964-11.914-4.164-.361,1.758-4.294-7.218-4.335,0.4-5.105-2.985-1.97,0.082-10.36,8.5-8.956,0.2-3.047,2.161,0.389,0.184,8.336,5.78,6.448,10.422,5.616,2.958-.191,7.566-9.092,8.779-.7,5.064-10.2L168.9,494.664l16.611-6.284,7.239,4.649,5.971,0.116-3.19-4.56,0.859-14.661L191.2,457.116l2.938-10.8,8.356-2.754,2.229-5.657-7.511-12.93,4.526-7.668-0.02-5.548-4.7-2.985-1.206-5.432-2.924-.225-2.631-5.255-2.754,1.009-13.843,10.381-11.4,2.2-1.54,8.663-2.352,1.772-6.9-4.54-3.115-13.9-7.041-8.54-11.635.641L122,386.7l-8.677-1.4-4.833-3.517L96.759,382.9l-4.423,4.008-4.669-2.89-8.827-.272-4.478,3.906-5.194,1.976-11.042-2.583-4.614-17.51-6.9-10-7.927-32.362-15.595-8.629-1.275-2.788,1.929-2.379-1.99-12.03,5.105-7.525-7.552-4.158L4.866,291.3l1.895-5.691-1.615-8.779,7.129-5.241-2.12-4.689,6.959-9.2-0.654-5.9,7.913-3.579,1.895-5.31,14.17,0.47,10.592-4.117L69.884,226.45l32.389-12.834,6.68,5.3,12.017,1.152,20.775-3.96,9.42-2.583,5.964,5.889,11.328,0.423,2.5-1.533,0.682-5.712,13.346,11.791L175.8,235.734l2.474,5.364,9.3,7.341,7.907-8.282,8.159,1.336,8.956-7.906,14.5-2.863,7.211-4.805,7.259,11.362-0.818,5.473,4.383,2.945,1.615-5.555,8.52,0.157,5.228,2.161,4.076,7.607,7.92,2.808,0.832-2.733,9.72-4.744,8.384-1.015,15.52,6.836-1.895-8.206,7.757-8.349,5.344-2.127,8.1,2.433,2.481,1.561,7.422-4.621,7.675,3.108,6.434-5.841,3.8-7.859-3.708-4.669,0.3-6.018,3.578-8.268,5.6-2.024,2.856-5.01,10.3,1.029,1.609,2.2,2.733,0.348,4.846-6.4,2.747,0.1,3.981,4.076,8.745-1.1,4.948,3.2,5.834,0.163,3.2,4.962,8.527-.941-1.3,6,4.035,14.647,7.777,3.306-1.015,8.425,11.751-.525,9.208-6.959,11.423-2.058,21.94,6.857,8.424-.8,7.825,12.01-1.281,10.653-6.673,8.806-4.185-3.8-4.846,6.312-9.174,16.808-2.645-.906-3.981,3.926-1.6,10.647-4.642,1.275-9.079-6.857-16.385,4.812L431.7,287.74Z" transform="translate(-3.423 -191.489)" fill="#ffc0c0" stroke="#000" stroke-width="2"/><text transform="translate(223.329 230.205)" font-size="102.988" font-family="DejaVu Sans" font-weight="700">6</text><text transform="translate(493.016 292.427)" font-size="102.988" font-family="DejaVu Sans" font-weight="700">3</text><text transform="translate(775.159 354.649)" font-size="102.988" font-family="DejaVu Sans" font-weight="700">4</text><text transform="translate(599.221 583.153)" font-size="102.988" font-family="DejaVu Sans" font-weight="700">1</text><text transform="translate(363.373 469.23)" font-size="102.988" font-family="DejaVu Sans" font-weight="700">2</text><text transform="translate(166.695 435.445)" font-size="57.287" font-family="DejaVu Sans" font-weight="700">5</text><line x1="258.894" y1="380.081" x2="257.021" y2="380.782" fill="none" stroke="#000" stroke-width="2"/><polyline points="253.67 382.036 251.797 382.736 251.128 384.621" fill="none" stroke="#000" stroke-width="2"/><polyline points="249.809 388.336 247.422 395.057 239.913 405.416 228.827 409.669 216.949 429.387 211.663 442.26 209.517 455.491 204.153 469.23 201.307 487.675 186.273 520.139 164.699 548.867" fill="none" stroke="#000" stroke-width="2" stroke-dasharray="3.942 3.942"/><polyline points="163.515 550.443 162.314 552.042 160.476 551.255" fill="none" stroke="#000" stroke-width="2"/><polyline points="156.82 549.691 135.58 540.599 113.324 527.01 101.523 500.191 104.026 469.23 118.688 439.042 133.536 413.129" fill="none" stroke="#000" stroke-width="2" stroke-dasharray="3.976 3.976"/><line x1="134.525" y1="411.404" x2="135.519" y2="409.669" fill="none" stroke="#000" stroke-width="2"/><polyline points="463.366 506.612 452.861 509.488 451.431 522.153 454.014 530.586 455.007 539.169 459.477 546.854 466.986 557.048 472.887 565.631 467.344 576.359 462.159 670.049 472.887 683.995 506.409 718.324 525.612 744.763 472.124 780.546 400.473 798.784 379.018 803.79 345.761 802.243 280.679 791.989 243.131 773.394 229.185 739.423 236.337 690.074 216.949 554.992 216.513 435.443 224.824 419.328" fill="none" stroke="#000" stroke-width="2" stroke-dasharray="4"/></svg>