<svg xmlns="http://www.w3.org/2000/svg" width="937.999" height="998.7" viewBox="0 0 937.999 998.7"><title>1T Législatives 2017 Ardennes</title><path d="M23.246,772.08l3.873,14.157L27.56,793.4l4.082,5.624-1.3,7.119,14.623,0.916,6.516,3.342,4.379,0.048,14.31-.41h5.978l19.227-2.378,16.511,2.435,16.463,0.876-1.679,2.459,8.412,15.643,8.445-4.274,5.6,3.849,12.928,1.832,1.462,2.194,3.423-.466,7.263,16.624L184.46,859.2l13.948,2.507-4.146,3.744,1.583,2.282,12.269,21.292,17.291,0.2,5.93,3.728,0.836,6.918,6.95-.313,6.139-4.186,8.838-3.423,13.386-4.772,4.033-5.857,12.317,6.773,19.837-3.7-2.507-10.381-9.055-11.433-4.957-13.4,5.882-.836,0.474-5.905,6.982-.418,3.182-5.978,3.406,0.787,8.4-11.007,1.334-6.87-8.019-5.889,3.262-6.147,1.02-5.825-3.544-5.166,7.689-10.694,0.675-18.592,5.664-4.146,2.884-10,19.54-24.184-4.772-3.126,3.655-5.359-2.981-12.6,3.31,0.137,5.432-8.155,3.278-.458-0.74-6.5,5.054-8.292,19.13-4.082,4.516-12.622-0.989-10.124,8.878-4.451,6.307,1.848L392.45,642.6l4-12.453,9.5-8.139-2.844-5.753,9.272-5.9,10.831-2.234,6.187,3.608,4.475,9.513,9.352,5.97,15.209-1.277-4.017,18.825,8.613,12.9,7.03-12.47,10.638-2.29,10.139,2.676,4.853-4.853-2.057-6.548,2.177-2.651,0.313,3.407,16.117,4.371,1.462,2.041,6.846-1.7,4.8-5.094,19.99,6.709,13.964-1.221L570.9,626.815l-3.592-9.208-5.792-3.19,3.969-5.255-0.611-17.837,3.455-.755,10.028-4.041-10.172-22.939,5.447-9.216-13.04-.49,5.994-8.476,3.655-18.954,3.688-6.179,0.74-14.052-3.045-7.143,2.731-1.808,3.182-.659,1.864-6.275-4.33-12.2-0.836-.884-3.72-14.117,3.849-18.054,4.065-5.648-1.84-2.973-3.889-9,0.579-6.669-0.49-11.481-3.126-5.367-3.029.7L557.248,388.1l-18.913-1-7.36-4.162-9.1-4.949-3.406,1.165-2.844,6.444,2.177,10.461-2.434,2.635-0.594-6.862-12.084-12.237-3.752,4.933-0.836,1.751-2.258,20.761-4.877-.249-4.13,2.37-0.233,3.126,1.711,5-0.611,3.471-4.113-1.567-0.989-3.608-8.268-1.262-2.137,4.8,4.395,3.23,0.048,3.085,10.534,2.009,4.491-.072,1.189,2.185-4.33,1.494,1.414,6.532-14.47.522-0.908,18.648-2.7,4.516L458.548,480.53,448.062,483.9l1.173-3.286-5.648-4.025-6.026-1.816-4.178-8.332-7.705,5.463-13.547.7-12.679,16.848-9.762,3.72-4.579-3.479,1.35-4.226,5.913-19.773-5.447-8.87,9.384-13.024-10.469-.964-8.035-11.3-16.615-3.985,0.86-5.351-8.613-2.483-2.258-13.088,5.842-11.787-5.134-3.061-2.371-3.64-6.01-16.688-6.653-.643-7.938-5.97-5.182,4.154-8.05,6.829-3.2,24.883-9.449-1.583-4.516-2.507,3.559-10.212-6.54-12.5,3.519-25.47-9.167-18.881-4.13-.169-6.917-2.667-3.029-10.887,19.508-39.892,10.486-12.309-18.262,12.349-16.993,6.548-11.08.707,3.246-1.6,0.892-17.8L257.821,246.9l-0.313-3.608,2.169-2.836,10.534-1.494,2.153-2.9-2.193-2.78-7.3-.5-5.223-5.166-21.5,1.575-9.666-11.16L215.6,216.281l-5.9-4.443-13.731,4.684-22.047.169-17.186,6.54-0.627,1.985-8.147,23.734L146.3,267.333l2.981,6.195,7.85,1.39,2.258,5.656,12.839-.2-3.849,43.17-0.755,6.661-10.469,8.766-2.4,13.337-4.516,4.475-5.978,27.269,3.23,1.173,5.15,12.5-2.9,6.275-8.79,5.512-2.467,2.563L143.916,421l6.982-1.856,11.971,7.89,3.31,10.276L155,446.52l-1.992,16.873-1.51,4.017-13.828,4.829-9.416,7.464-4.789,15.233,0.611,2.491-13.964,5.255-9.4,3.431-4.612,4.21,1.631,9.288-13.434-.08L81.32,537.607l1.494,10.822-5.19,9.513-1.069,8.71-13.45,4.314-16.728-7.143-14.293,1.069L30,561.863l-3.527-.37L23.88,575.04l-8.364,5.68,3.575,6.13L30.027,601.04l8.91,4.516,2.619,2.37-2.844,6.516,1.743,14.181,9.529,3.961L38.326,649.665,32,652.727l1,6.862,10.686,2.033,5.528,4.4-0.378,18-0.41,3.439-9.449-2.676-3.294,12.839-10.34.418L25.4,711.724l0.514,12.06-0.08,3.471L26.307,737.8l16.431,26.578-3.246-1.35-9.714,1.631Z" transform="translate(-13.515 2.872)" fill="#06c" stroke="#000" stroke-width="3"/><path d="M466.529,148.984l1.3,17.443-1.647,6.829,5.792,8.967-18.174.161-23.742,9.441-25.453,1.6-13.6,5.15-4,7.946-5.9,4.033-14.141,1.7L355.572,230.2l-8.774,4.789-21.549-.337-23.212,10.565-18.158-9.858L270.2,233.29l2.177,2.78-2.137,2.9L259.7,240.465l-2.169,2.836,0.313,3.608,5.777,16.937-0.876,17.8-3.246,1.607,11.08-.715,16.993-6.548,18.262-12.349L295.35,275.946l-19.508,39.892,3.029,10.887,6.9,2.667,4.146,0.169,9.167,18.881-3.519,25.47,6.524,12.5-3.544,10.212,4.516,2.507,9.449,1.583,3.2-24.883,8.05-6.829,5.166-4.154,7.954,5.97,6.653,0.643,6.01,16.688,2.371,3.64,5.134,3.061-5.842,11.787,2.258,13.088,8.6,2.483-0.843,5.351,16.615,3.985,8.035,11.3,10.469,0.964-9.384,13.024,5.447,8.87-5.913,19.773-1.35,4.226,4.579,3.479,9.746-3.72,12.694-16.848,13.547-.7,7.705-5.463,4.178,8.332,6.026,1.816,5.648,4.025-1.173,3.286,10.486-3.375,13.305-19.259,2.7-4.516,0.908-18.648,14.47-.522-1.414-6.532,4.314-1.494-1.173-2.185-4.508.072-10.517-2.009-0.048-3.085-4.395-3.23,2.137-4.8,8.268,1.262,0.989,3.608,4.113,1.567,0.611-3.471-1.711-5,0.233-3.126,4.13-2.37,4.861,0.249,2.273-20.761,0.836-1.751,3.752-4.933,12.084,12.237,0.594,6.862,2.434-2.635L515.643,385.6l2.844-6.444,3.391-1.165L531,382.943l7.36,4.162,18.913,1,9.384,16.551,3.029-.7,3.109,5.367,10.028-1.478,3.262-5.97-4.516-5.6,12.646-25.823-4.33-21.283-5.913-3.672-2.4-6.862-2.434-14.5,7.095-7.5,14.294-30.379L602.1,271.7l-4.443-10.357-13.844-12.5-9.039-16.157-21.4-5.664-15.659-4.387-0.627-11.152,3.816-14.157,7.095-2.1,6.637-8.951L558,153.307l13.434-17.338-2.073-6.781-6.227-3.816-0.08-7.448-5.978-3.969,1.052-4.9,12.55-4.724L571.565,90.4l3.294-1.053-3.471-9.738,6.765-7.713,6.588,2.033,2.523,6.99,3.23,1.832,2.869-2.322-2.258-29.415,5.945-9.2,12.18-8.372-0.2-3.72-7.327-1.51L595.05,15.209l-29.5-1.84L559.489,0,545.63,17.676l-15.6,10.372-9.915,4.194-6.291,16.792-3.375.386,0.233,10.156L486,72.038l-1.221,3.23-7.264,1.438L463.259,106.53l3.391,10.557,6.95-1.679-0.41,17.178-3.953,9.714Z" transform="translate(-13.515 2.872)" fill="#06c" stroke="#000" stroke-width="3"/><path d="M353.169,692.281L358.223,684l19.147-4.09,4.516-12.622L380.9,657.161l8.878-4.451,6.307,1.848-3.624-11.915,4.017-12.453,9.481-8.139-2.829-5.753,9.272-5.9,10.814-2.234,6.195,3.608,4.46,9.513,9.368,5.97,15.209-1.277-4.033,18.833,8.613,12.887,7.046-12.47,10.622-2.29,10.156,2.676,4.853-4.853-2.057-6.556,2.177-2.651,0.3,3.407,16.117,4.371,1.462,2.041,6.846-1.7,4.821-5.094,19.974,6.709,13.98-1.221L570.9,626.847l-3.592-9.208-5.777-3.19,3.953-5.255-0.611-17.837,3.471-.755,10.028-4.041L568.2,563.623l5.447-9.208-13.056-.5,6.01-8.476,3.655-18.954,3.672-6.179,0.755-14.052-3.045-7.143,2.716-1.808,3.2-.659,1.864-6.275-4.33-12.2-0.836-.884-3.736-14.117,3.856-18.054,4.05-5.648-1.824-2.973-3.889-9,0.562-6.661-0.49-11.489,10.028-1.478,3.262-5.97,9.023-4.154L603.5,403.2l7.095-.924,5.882,3.519,10.292-3.085,6.886,1.9,2.844-4.885,5.037,0.7,2.523-6.853,6.154-3.591,24.449,0.337,7.03,6.926,8.974,14.984,21.8,9.89,15.161,9,14.125-3.342,4.724,5.295,19.283,34.7-1.205,10.188,14.045,8.46,5.5-8.846,6.259,2.619,3.126,6.154,0.531,17.371,16.583-1.679,6.243,2.306,6.154-2.234,4.788,5.552,10.557-1.245,10.308,3.6,15.13-9.513,8.284,7.2,0.458,3.64,0.707,0.121,2.965,3.961,22.264,19.163,9.2,10.726-8.2,6.58-10.7,18.142,6.862,19,4.788-2.274,12.381-4.154,4.612-13.41,31.889,14.51-8.1,12L938.133,609.5l-10.735.595-6.074,3.487-8.629-5.737-21.733,33.014,2.467,3.744-18.72,7.231-5.006,8.693-9.778,2.467-7.473-15.675L840.778,641.5l-0.217-7.215-13.811-4.138-8.742,5.134-9.842-1.631-6.323,2.676-6.187,3.68-5.961-3.182-4.788-10.461-4.974-13.241-17.684-3.672-5.809,4.483-3.527,10.445,5.006,17.282-3.406,7.175-8.412-2.619-4.363,17.266,5.5,8.139-5.351,13.217-2.965.8-5.552,12.212-10.139,1.35-1.84,2.876L731.4,721.028l3.672,0.329,3.174,6.106-1.085,10.726,8.774,10.477,3.326-.908,1.51,1.157,4.788,4.122-6.154,16.2,3.607,13.8,6.058,7.48-3.889,5.359-6.846,1.711-10.139,9.722,2.852,6.259,10.574,9.264-3.64,13.112-6.966,8.026L721.619,842l-4.186,5.656,1.173,7.006-19.6,24.963,0.956,3.423,0.594,6.621,5.994,10.292-5.334,4.941,0.3,3.479,7.488,12.02,10.187,3.487,1.88,3.792-6.62,6.685,1,9.754L705.1,947.08l-6.966-1.9L688.044,949.1l-8.445,5.889,0.836,3.35-21.765,12.212-5.319,9.232-6.323,3.238-0.3-3.535-18.222-10.839,6.749-11.554-13.9-3.2-16.182,6.388-9.24-4.62,4.161,5.624-13.932,19.669,3.856,5.841-0.707,7-26.868-9.135,1.848-8.131-6.557,1.036-5.552-7.649-15.3,7.906-13.7-2.82-17.355,3.182-10.308-10.541-7.44.659-9.633-.828,0.032-3.294-9.6-2.756-6.154,3.985L455.5,978.423l-10.534,2.442-8.742,6.307-13.731-3.857-7.2-23.758-3.182-9.995-8.943-5.222-1.84-6.821,5.945-8.533-15.314-7.368-13.916.233-10.783,9.232-17.435,4.732-15.756,1.173-6.058.056-20.006,4.989L303,945.665l-0.474-.956-4-5.849-10.469-1.784-4.724-5.11-6.668-1.366L276.5,929.42l-12.036-11.248-10.388-26.193,13.386-4.772,4.033-5.857,12.317,6.773,19.837-3.7-2.507-10.381L292.1,862.6l-4.974-13.4,5.882-.836,0.474-5.905,7-.418,3.174-5.978,3.406,0.787,8.412-11.007,1.317-6.87-8.019-5.889,3.262-6.147,1.02-5.825-3.544-5.166,7.705-10.694,0.675-18.592,5.648-4.146,2.884-10,19.556-24.184-4.788-3.126,3.655-5.359-2.981-12.6,3.31,0.137,5.447-8.155,3.262-.458Z" transform="translate(-13.515 2.872)" fill="#06c" stroke="#000" stroke-width="3"/><text transform="translate(394.696 322.795)" font-size="84.084" font-family="DejaVu Sans" font-weight="700">2</text><text transform="translate(203.518 627.6)" font-size="84.084" font-family="DejaVu Sans" font-weight="700">1</text><text transform="translate(521.989 784.089)" font-size="84.084" font-family="DejaVu Sans" font-weight="700">3</text><rect x="257.053" y="483.956" width="83.565" height="83.565" fill="#ffeb00" stroke="#000" stroke-width="3"/><rect x="460.256" y="256.229" width="83.565" height="83.565" fill="#ffeb00" stroke="#000" stroke-width="3"/><rect x="585.887" y="706.306" width="83.565" height="83.565" fill="silver" stroke="#000" stroke-width="3"/></svg>