<svg xmlns="http://www.w3.org/2000/svg" width="734.834" height="967.989" viewBox="0 0 734.834 967.989"><title>1T Législatives 2017 Haute-Marne</title><path d="M210.971,723.116l-7.192-3.776,0.388-13.3-4.967-6.335-7.839-19.127-6.539-5.287-11.615,2.66-10.3,20.611-13.174-9.628L147.1,684.2l1.953-5.178,7.519-3.987,11.193-16.106-5.246-10.112-6.417-6.172-14.643-1.769-5.049,2.246-5.382-2.307L123,638.469l-1.2-5.362,5.647-10.445,7.417-4.512-8.546-8.084-2.381-8.424-23.074,3.076-17.12-3.967-9.091-9.805,2.695-1.32-0.49-8.9L85.6,568.874l-7.546-4.647-10.962-18-17.6-4.5L47.656,539.9l19.27-5.811,8.145-2.273,1.143-5.552L74.445,523.9,86.3,515.963l4.334-10.9,5.225,3.28,12.228,0.483,14.378,5.042,16.242,4.954,11.227-1.381-0.612-10.7L155,508.886l20.025-6.267,7.879-.925,8.8,10.377,19.631-13.106,9.859,14.97,0.81,9.016,3.524,4.892,15.229-6.893,10.921,1.5,7-5.192,3.722-14.248-6.287-13.078,11.458-4.981-3.709-10.7-3.8-3.8,5.382-.919-3.613-3.987-1.354-10.88,4.756-2.572,7.043,5.457,20.4-.2,22.3,8.111,1.871-4.872,7.043-1.674,6.512-9.3,8.308-2.851,5.451,1.98,8.519-1.218,2.98-4.532,2.912,0.238,1.579,5.906-5.519,17.549,13.385,10.826,19.508,5.627,4.811,7.219,2.8,0.912,1.885-2.252,1.7,6.4,8.07-15.732,4.436-3.845,7.444,4.484-2.844,5.164L410.4,488.1l-0.864,8.812,6.662-6.382,29.075-8.825,3.545,4.668,5.77,0.143,18.991-7.975,11.458,1.912,7.485-4.8,1.871-8.54,7.853-4.171-2.15-3.715-16.256-9.642-0.667-2.668,7.587-3.872,3.151-8.41-1.368-8.778,5.144-2.524,8.084-1.354,2.749,0.354,17.079,8.131,18.5-1.021,1.837-2.1,6.369-14.085,10.152-11.683,6.859-11.112,2.232-2.15L582.4,378.043l3.654-6.92,13.439-15.691,24.374,20.243-2.511,12.01L616.4,398.409,636.9,409.99l6.634-4.484,13.33,12.364,7.893,14.63,3.219,4.124,0.544,7.478-18.059.027-11.336,9.54,1.238,2.763,2.538,7.26-1.436,7.7,0.667,6.607-5.464,7.247,0.449,5.151-8.2,6.519-3.443,7.145,9,9.621-13.16,3.81-5.872,6.784-3.524,11.186,10.418,10.465,2.858,0.129-0.422-8.567,2.3-1.735,18.964,7.3,2.409-1.769,2.313,8.764,7.574,5.035,4.573,7.7-0.388.606,0.558,5.845,11.112-3.253,13.554,15.126,2.66,1.293,4.627-3.123L694.8,589l5.662,10.057,0.122,5.845,4.838,6.24-0.694,5.26L696,627.372l5.743,21.863,9.757,4.947,5.8-8.587,10.683-2.334,3.545-7.315,3.43-6.58,1.646,5.246,2.817-.231,0.4,3.32-2.5,1.449,2.4,11.254,3.151,4.811,2.885-.116,11.724,17.134,3.375,13.9-2.368,6.3L756.57,694.5l-8.186-.708-10.234-4.178-1.823,2.143-1.8,5.478-13.439,24.129,1.62,8.369,2.232,6.417-13.248,3.987-5.24.483L707.8,732.9l-16.7-.64L686,729.772l-4.5,6.634-5.328,2.409,2.484,16.446-1.409,5.314-3.375,4.015-5.09,1.123L666.8,765l-8.308-2.681-8.893-1.552-7.348,9.1-5.185,28.96,3.266,3.253L639,806.75l13.527,0.34,2.287,1.6,0.292,5.328-0.851,8.941,1.783,5.308-11.432,9.5-0.5,3,4.11,4.5-6.178,2.13-0.571,8.941,5.212,7.158,0.347,11.8-2.912,4.681-10.526,1.619L631.9,879.36l-4.586.816-3.749,6.342-13.718.36-8.186,2.926-5.382-1.592-5.368,3.048L584.242,875l-0.932-8.866-7.295-5.083-2.116-.272-21.291,28.45-11.737-.177-2.123-2.1-13.792-6.865-7.764,8.431-11.507,2.8-8.812.265-7.5-4.45-8.546,2.409L476.48,907.2l3.837,4.246-10.3,10.227-7.457,12.752-0.49,14.425-4.8,1.5-5.811,9.513-7.764-4.287,0.823-5.872-3.43-4.7-2.62-1.375-5.784-1.17-4.212,4.1-5.579-.048-14.909,13.718-1.558,8.519-5.355-.054-7.179,4.171-9.663-18.059,11.03-21.121-9.1,3.45-3.43,1.232-4.559-10.363-10.22-10.982-13.3-6.825-8.662-3.375,2.858-23.544-10.5,2.409-1.13,5.682-8.478,12.3-9.247,7.512-5.9-.864-0.292-2.177-5.478.592-2.912-5.158-8.662-.68L290,897.011l-8.424-1.892-5.464-2.286-3.334-4.92,5.451-16.548-14.459.585,1.075-11.67-2.273-1.9-14.555,8.206-1.1,5.872-4.729,3.654L227.526,877.8l1.62-2.491-9.757-10.88,1.395-5.294L225,855.374l0.143-8.084,4.1-7.111-4.11-3.225-2.287,1.729,2.647-8.084-3.524-16.9-7.308-3.518-4.185,3.354-8.295,1.238L202.426,812l-4.865-2.552,3.654-5.457-2.987-3.389,14.541-7.43,7.111-3.443,17.766-11.948,4.654-13.915-5.328-4.749-0.375.571-1.436-4.5L230.214,754l-2.831-.919-3.974-7.165,0.476-11.745-4.756-10.846Z" transform="translate(-27.582 -6.955)" fill="#ffeb00" stroke="#000" stroke-width="3"/><path d="M409.593,496.95l6.648-6.382,29.089-8.825,3.538,4.675,5.784,0.143,18.991-7.975,11.445,1.919,7.485-4.811,1.871-8.533,7.866-4.178-2.15-3.715L483.9,449.625l-0.667-2.668,7.587-3.872,3.151-8.41-1.368-8.778,5.144-2.524,8.07-1.354,2.763,0.354,17.079,8.131,18.488-1.021,1.844-2.1,6.369-14.085L562.5,401.613l6.859-11.112,2.245-2.15,10.846-10.261,3.641-6.92-1.674-5.811-30.089-38.833-6.063-13.412,2.021-5.525-11.255-2.878-4.423-3.824-14.4-.014-3.246,4.681-5.212-.252-9.288,11-10.288,5.022-5.144-10.064,3.014-7.941-2.2-7.8,14.072-16.276-19.7-3.171-8.676-7.444,9.22-.919,21.611-19.488,13.248-5.178-3.123-3.845-5.3,2.456-5.519-2.021-1.007-2.783-2.674-5.376-5.981-.17-11.418-9.717-3.219-8.39,1.225-8.921L477.755,200l-1.783-2.518-12,1.116-4.6-4.056-0.4.265-11.112-5-12.8-23.863-6.076.762-6.5-6.526-5.73,6.634-3.818-1.919-0.987-2.769-8.56-.531-25.169-14.371-4.144,3.756-5.607-2.021-2.987-7.58-7.152-2.695,1.341-5.342-14.031-9.152-4.45-7.165-7.444,4.375-5.022-2.436-5.24-6.614-4.28-8.227-5.314-5.934,0.919-7.716-14.323,2.4-14.1-2.586-6.314-16.855-1.565-15-2.858-.5L264.761,74.863l-15.337,1.9-5.858-6.478,4.586-13.833-5.5-10.118-1.075-10.6,10.554-8.37-2.1-10.71-10.989-3.824-5.225-2.851-14.739.49-6.09,5.627-2.735,5.192-16-12.33-8.2,8.349-8.281,2.837-8.519,7.784-7.431.231-4.77-4.5-13.513-1.776-1.939-5.076-12.52,2.109-1.558,5.457-8.084.939L114.084,37.35l-0.32,4.021,0.422,0.054L134.4,39.262l19.9,4.056-1.674,3.355,6.662,5.185L158.8,66.732l1.729,5.811,2.871,0.932-1.9,2.2-14.3.191L131.366,88.254l-19.76,4.273,1.327,14.875,3.178,8.274,8.158-2.164,2.177,2.035-5.185,10.676,8.295,21.944-5.593.837-1.993-2.028-35.4-8.961-23.2,5.273L57.7,141.315l-2.735,5.015,3.545,10.792-3.892,7.628-1.912.143-4.981,6.43,0.708,8.764-4.28,14,1.143,5.791-15.406,2.15,5.185,10.009,22.033,10.887,1.769,7.383,6.43,8.934-4.477,7.274,8.056,2.082,8.158,11.758-3.695,2.715,0.946,4.294,2.354,1.776,5.131-2.824L99.206,268.1l7.825,4.1-3.246,18.331,11.6,7.927,10.567,1.177,15.072,9.608,8.981,0.5,4.042,4.369-15.759,14.317,6.389,9.5,0.586,8.574,5.41-.64,8.8,5.838L154.9,362.759l9.5,15.2-7.457,8.873-1.1,5.859,0.694,1.742-1.449,5.471,4.77,9.859-9.22,6.382,2.177,5.532,13.357,6.124-0.068,9.05-3.484,4.852-0.122.109L157.269,452.7l1.007,2.817-5.784,6.777-1.3,5.77,1.034,8.717L159,485.954l-12.439,10.84,2.749,10.023,5.675,2.143,20.025-6.267,7.866-.925,8.8,10.377,19.631-13.106,9.859,14.97,0.81,9.009,3.524,4.9,15.229-6.893,10.935,1.5,7-5.192,3.722-14.248L256.1,490.009l11.445-4.981-3.695-10.7-3.818-3.8,5.4-.919-3.626-3.987-1.341-10.88,4.743-2.579,7.056,5.464,20.386-.2,22.3,8.111,1.871-4.879,7.043-1.667,6.525-9.3,8.308-2.851,5.436,1.98,8.519-1.218,2.98-4.532,2.926,0.238,1.565,5.906-5.5,17.549,13.37,10.826,19.522,5.627,4.811,7.219,2.79,0.912L397,489.09l1.714,6.4,8.07-15.732,4.436-3.845,7.431,4.484-2.831,5.164-5.436,2.6Z" transform="translate(-27.582 -6.955)" fill="#06c" stroke="#000" stroke-width="3"/><text transform="translate(390.057 703.83)" font-size="106.815" font-family="DejaVu Sans" font-weight="700">1</text><text transform="translate(227.446 307.723)" font-size="106.815" font-family="DejaVu Sans" font-weight="700">2</text><rect x="476.986" y="613.334" width="90.496" height="90.496" fill="#06c" stroke="#000" stroke-width="3"/><rect x="310.835" y="220.79" width="90.496" height="90.496" fill="silver" stroke="#000" stroke-width="3"/></svg>