<svg xmlns="http://www.w3.org/2000/svg" width="971.212" height="806.371" viewBox="0 0 971.212 806.371"><title>1T Législatives 2017 Marne</title><path d="M351.306,190.429l-15.7-19.094-5.844-8.447-8.551,11.237-8.593,2.311-21.177,10.2-2.235,11.938,3.061-.312,2.221,8.94,13.625,6.767-3.727,8.871,6.157,0.187,14.479-5.358,18.22-.222,1.694,2.624,1.492,2.45-8.822,7.767-1.083,12.188-4.81,4.151,1.874,1.763,0.708,9.447,4.782,11.286,0.028,9.461-2.492,1.916,10.925,0.583,7.933,3.359,6.2-3.616,2.492,1.256,5.928-5.539-2.533-10.62,4.539-3.616,14.326,23.509-2.714,2.964,1.638,3.311-5.351,2.631-0.6,2.249-0.146,3.123,5.136,1.742,6.1-6.559,4.31,6.3-1.61,2.45,2.18,0.868,2.79-.805,2.131,3.706,3.241,3,5.934,1.6,6.1-.208,4.067,5.567,8.121,5.768,0.513-16.589-6.289-12.9,0.014-8.989,10.4-5.65,12.6,7.107,5.462-1.465,0.43-2.742,7.371-2.651,2.36-4.97,17.193-7,4.623,3.686,2.714-1.236,4.2,7.781,4.852-3.255,2.728-11.515,7.579-5.136,0.271-4.47-3.894-6.608,15.048-4.276,17.748,3.491,11.55-4.782L556.05,236.4l-10.613-18.393-1.368-1.971,3.581-3.234-12.05-2.166-8.863-8.954-6.275-14.361-2.957.4-1.263-1.895-11.168-1.583-4.838-3.325-7.3,3.693L485.675,171.1l1.451-2.124-14.222-.757-14.264-2.1-16.61,2.054h-5.164l-12.362.354-3.783-.042-5.629-2.887-12.633-.791-4.567,7.663-1.846,11.848L395.1,206.261,381.672,207.7,379,199.459l-12.73-10.425Z" transform="translate(-16.819 -160.335)" fill="#f0f0f0" stroke="#000" stroke-width="3"/><path d="M195.947,397.13l-3.269-4.033-5.081-1.18-17.151,5.136-17.894-2.311-1.964,1.43-0.757,2.013,13.451,8.787,5.692,9.946-6.455,10.2,11.675-2.159L179.1,428.7l5.948-1.645,15.173,9.329-0.812,2.471,4.72,6.219,7.968-1.825L216.249,447l2.416,0.569L238.988,458l5.99-1.02,3.415-.333,5.9,0.9,3.894,4.7,8.621,2.763,12.244-2.1-8.01-4.026-1.083-2.846,0.638-6.066,4.039-4.553-1.381-2.714,8.405-6.552,8.447-4.775,2.075,0.257,1.409-4.97,2.777-.187,12.119,0.1,0.215-9.044-2.749-13.382,3.241-7.871,17.637-19.594,7.364,3.526,1.589,8.315,3.089,3.227,3.241-8.322-4.394-11.119,19.656-6,7.663-14.826-1.95-2.11,14.721-5.275,2.971-5.032-1.936-2.256,2.443-5.442-1.437-2.617,2.915-3.026-0.713-12.646,2.728-.1L394.853,323l4.65-4.248,0.854-4.921,3.158-3.061-3.255-3-2.131-3.706L393.153,304l1.61-2.45-4.31-6.3-6.1,6.559-5.136-1.742,0.743-5.372,5.351-2.631-1.638-3.311,2.714-2.964-14.326-23.509-4.539,3.616,2.533,10.62-5.928,5.539-2.492-1.256-6.2,3.616-7.933-3.359-10.925-.59,2.492-1.909-0.028-9.461-4.782-11.286-0.708-9.454-1.874-1.756,4.81-4.151,1.083-12.188,8.822-7.767-1.492-2.45-1.694-2.631-18.22.229L310.506,223l-6.157-.187,3.727-8.877-13.625-6.76-2.221-8.94-3.061.312-5.06,3.4,6.157,9.9-1.86,5.692-2.047,2.207-10.925-4.817-5.317-6.094-12.2-1.659-5.844,1.749-7.823,3.5-1.409-2.513-11.633,7.427-6.712-.486-3.172.507,0.555,7.823-3.442,3.075L204.38,229.6l-11.39,4.942L189.645,236l-10.752,2.027-3.755,5.06-8.975,2.887-2.971,11.5-2.478,1.714,2.9,4.949,7.482,4.345,1.8,3.9-4.324,7.371,7.947,8.315-5.831,5.941,8.85,19.99,2.818,0.59,1.166,2.721-6.51,12.619-8.565,1.388,1.964,7.781,4.567,3.6,8.322,1.555,3.116,7.684,9.148-7.121,4.241,5.393-4.192,7.9,5.275,10.474,11.418,4.782,8.746-3.3,6.2,0.861-1.451,17.3-5.379,1.485-13.3,8.877-8.093,3.463Z" transform="translate(-16.819 -160.335)" fill="#ffeb00" stroke="#000" stroke-width="3"/><path d="M492.06,449.02l3.283,3.713-13.57,16.61-8.988,4.262-7.066,20.163,4.255,7.677-1.007,2.929-0.271,1.61-23.835-1.8-10.55,4.963-5.56-2.54-2.672.944-9.689-4.824-7.67,5.053-2.957-4.512-5.6-.729-4.31-3.727-2.158,1.881-5.122,31.914-6.087.368-5.761,7.149-3.089-.014-6.073-6.816L362.314,517.6l-17.526,3.221-2.631,1.145-3.283,5.254L333.9,524l-8.176-.472-6.33,1.1-8.76,1.652-5.122-3.1-11.168,4.789-5.018,11.022-4.976,3.6-11.89-2.707-8.163,3.533,1.18,12.154,3.825,8.273,17.269,2.735,5.99,2.665,3.359,4.852,5.136,1.624-1.166,2.721,2.589,1.43,5.573,1.909,11.14-3.547,6.413,16.9-14.59,5.226-13.695-7.177-0.854,2.749,6.754,5.358-1.11,2.672-3.755-4.262-8.163-2.52-2.832.028-1.083,5.608,0.34,5.671,13.528,18.692,6.982,5.5,3.345,11.6,6.9,9.377-5.379,2.374-3.984-4.3-9.814,1.971-8.35,10.772-0.5,1.916,5.8,1.93,5.275,7.42,14.34,11.383-0.34,3.047-5.678,2.284-11.578,2.374-2.575,8.544-3,.035-7.663-8.85-3-.166-5.178,1.333-0.666,2.6,4.734,5.705-5.206,1.208-7.184-4-0.84-2.3L253.972,694.8l-14.208-3.29-5.06,3.526-6.233-.444-14.236-5.976,12.445,11.661,0.694,5.719-5.289,9.4-3.172,8.634,1.694,2.561-3.144,6.58-9.3-7.371-3.63,4.838-5.733-.458L196.7,728l0.583-11.654-11.425-1.416-1.8,2.388,1.312,8.364-10.224,5.9-2.464,5.053L179.8,741l4.512,7.288,1.312,5.99-3.741,4.644-15.194-2.11-8.121,4.054L170.827,776l-2.318,8.5,11.105,0.875,6.455,4.865-5.032,13.826-7.933,9.12,0.638,12.244-14.624,6.74-0.014.2-5.331,24.009,4.748,3.006,2.131-1.874,9.058,6.8-2.1,4.99,5.928,0.291,3.373,4.484,0.042,14.819,6.8,9.752-6.844,6.164-4.921,11.064-15.346-1.09-4.477-6.684-5.06.493-4.477,3.866-2.034,1.534-6.941-12.979-5.831,1.374-1.6-17.3L117.7,886.27l-1.354-8.093-4.449-6.851-8.537-8.794-11.723-3.144-1.479-2.714,8.53-8.773-9.044,2.388-15.194-2.776-9.086,8.419L50.221,858.5l4.553-14.854-9.585-11.688,2.145-2.27-2.061-5.011,8.2-9.245L61.9,811.5,62.9,802.41l3.075-.437-6.358-6.767,0.1-15.527-0.243-5.3,0.4-8.822-14.562.729-3.5-4.831-0.125-8.919-4.921-3.568L25.386,752.81l-5.831-1.9-1.18-5.719,7.593-19.99,5.858-.34,5.095,2.853,8.024-3.533,0.271-2.943-1.041-11.952-11.633-.84-8.024-4.054-0.812-2.957,6.184-6.8,7.809,4.31,8.635,1.09,15.187-7.982,2.742,1.208,3.581,6.434,3.713-2.686-1.166-9.238,3.581-8.634-3.609-15.034,0.951-4.845-3.241-8.211,4.921-1.2,7.878-3.325,3.387-17.449,7.337-12.8,4.38-6.226,11.119-2.589,11.362,1.374,3.387-4.595,1.194-18.331,11.168-5.06,4.637-1.832-0.625-5.567-5.136-6.622,6.754-4.685,10.793-.514,2.728-17.727,8.266-16.408,14.937-1.479,7.413-9.349-8.377-19.15-7.906-3.644-5.247,3.04-5.761-1.527-8.635,2.881-1.277,2.645-14.153-.444-3.241-4.338,1.479-18.435,1.576-.583,7.156-3.373,2.888-7.309,14.59-.486,4.1-8.01-4.026-4.31-7.17-19.136-3.928-7.732-5.247.729-2.658-5.06,6.143-6.136-0.2-5.823,5.706-6.413,0.042-5.837L163.267,407l5.692,9.946-6.455,10.2,11.675-2.159,4.907,3.734,5.948-1.645,15.173,9.329-0.812,2.471,4.72,6.219,7.968-1.825,4.151,3.755,2.416,0.569,20.323,10.432,5.99-1.02,3.415-.333,5.9,0.9,3.894,4.7,8.621,2.763,12.244-2.1-8.01-4.026-1.083-2.846L270.58,450l4.039-4.553-1.381-2.714,8.405-6.552,8.447-4.775,2.075,0.257,1.409-4.97,2.777-.187,12.119,0.1,0.215-9.044-2.749-13.382,3.241-7.871,17.637-19.594,7.364,3.526,1.589,8.315,3.089,3.227,3.241-8.322L337.7,372.344l19.656-6,7.663-14.826-1.95-2.11,14.721-5.268,2.971-5.039-1.936-2.256,2.443-5.442-1.437-2.617,2.915-3.026-0.7-12.675,2.728-.1L394.853,323l-3.089,2.971,4.5,6.5-4.067,5.858-2.1,8.822,3.186,5.837,8.038-4.151,7.052,4.893-0.1,7.753,2.158,2.645,15.659-1.215,6.885-12.82,10.356-9.322-0.444-1.721,4.053-6.393,2.7-6.524,3.512-4.824,4.706,2.221-0.146,2.728-4.255,9.939,1.978,1.985,9.814,11.307,5.858,1.222,3.741,4.442,3.026,3.568,2.617,5.553,4.227-7.323,13.472-6.656,1.208-2.846-6.129-10.432,3.512-5.053,9.842,7.163,3.956-4.685,17.241-5.157,4.435,4.019,2.617,5.643L528.985,366.1l5.49,2.575,1.368,2.8L533.47,373.5l3.866,4.192,7.809-3.484,6.045,5.914,8.836-1.236,4.449-7.774,14.832-9.6-0.056-6.066,5.15,2.457,14.791,17.616-6.913,4.546,3.387,10.7-11.14,4.345L567.633,407l-16.755-13.375-16.741,14.34-1.479,2.8,2.575,5.775-13.084,8.94-0.5-.736-16.374,1.3-4.123-.861-3.616,3.338L494.5,438Z" transform="translate(-16.819 -160.335)" fill="#ffeb00" stroke="#000" stroke-width="3"/><path d="M579.245,355.442l0.056,6.066-14.832,9.6-4.449,7.774-8.836,1.236-6.045-5.914-7.809,3.484-3.866-4.192,2.374-2.027-1.368-2.8-5.49-2.575,5.886-27.146-2.617-5.643-4.435-4.019-17.241,5.157-3.956,4.685-9.842-7.163-3.512,5.053,6.129,10.432-1.208,2.846-13.472,6.656-4.227,7.323-2.617-5.553-3.026-3.568-3.741-4.442-5.858-1.222-9.814-11.307-1.978-1.985,4.255-9.939,0.146-2.728-4.706-2.221-3.512,4.824-2.7,6.524-4.053,6.393,0.444,1.721L432.967,350.1l-6.885,12.82-15.659,1.215-2.158-2.645,0.1-7.753-7.052-4.893-8.038,4.151-3.186-5.837,2.1-8.822,4.067-5.858-4.5-6.5,7.739-7.219,0.854-4.921,3.158-3.061,5.928,1.6,6.115-.208,4.067,5.567,8.107,5.768-0.2-5.213,0.722-11.376-6.289-12.9,0.014-8.989,10.4-5.65,12.619,7.107,5.448-1.465,0.43-2.742,7.385-2.658,2.346-4.963,17.193-7,4.637,3.686,2.714-1.236,4.2,7.781,4.852-3.255,2.714-11.522,7.593-5.129,0.257-4.47-3.88-6.608,15.034-4.276,17.748,3.491,11.564-4.782,10.807-4.963,14.937,0.173,5.108,3.221,0.729,5.976,6-.278,5.3-3.616,7.635-2.957,8.961,22.627,10.411,9.717,0.125,1.02,5.761,1.18,4.081,4.408,9.058,1.548,3.442,5.053,0.424,0.826,4.31-3.137,17.283-4.31,5.247-.049,13.612-1.013,15.062-4.1,9.3-7.968,12.036-.2,13.229,6.365-5.15,7.371,1.589,5.893,7.739,4.512,2.742,8.634,6.219,20.524,11.876,3.332,7.538-5.449,9.107-2.11,6.233-11.237,5.317-3.443,8.294,2.374-0.028,2.853,8.322,0.715,6.427-.569,8.919,9.107,14.978-2.749,11.848,2.436,13.216-6.83,4.782,6.6,5.678-.888-1.611,7.024,23.21,7.892,0.624-6.046-3.346-5.046,12.036-16.991-3.6-4.859,8,3.991,13.965-5.518,12.022,2.763-5.845,9.981,15.742,9.363,0.27,3.054,11.716,1.2,3.97,14.264,8.419,8.044-7.892,9.384-9.107,2.277-12.175,10.071,6.656,14.069,6.469,15.131,6.032,19.448,2.159,3.963,3.658,5.372,6.858,14.4,0.84,12.834,3.6,23.953,1.111,5.226-3.186,8.405-20.608,26.181,0.757,0.4,25.543-12.306,14.9,10.911,0.215,1.784,1.111,9-3.5,8.35,0.028,5.56-14.305,2.2-7.08,9.155,20.379,3.436,4.608,4.06-4.025,17.789-9.911,7.85-0.757,7.94-9.384-.25-13.938,7.337-9.474.75L937,593.153l-10.55,7.871-17.734-2.887-8.69,3.061L878.69,612.81,866.4,614.982l-8.406-3.679-22.433,12.272-2.86-.451L831.574,611.1l-11.564-9.585,0.555-3.006L812,596.727l-10.87,5.421-6.045.208-6.871-27.535,1.277-8.586-5.164-3.616-6.316-2.867-1.992-.875L771.694,539.7l-3.227-14.146-6.587-5.06-11.918.5-10.842,5.657-9.759-7.017-6.51-13.521-14.465,8.072-1.749.347-5.872-.132-11.2-9.738L681.1,507.03l-11.7.534-4.907,6.726,0.937-8.634-3,.389-5.518,6.906-8.474-3.012L632.244,518.5l-8.822,8.294-3.04.34-3.63-4.886-9.329,7.309-1.235.729,9.12,16.262,5.532,1.152,7.239,10.245,13.625,9.71-0.5,9.939-19.657,8.385-10.835,5.511-5.83-1.756-5.275,3.04-6.247-6.115-6.032.146-1.909,6.608,3.914,5.046-20.851,22.9-6.129-1.416-15.02,3.727-2.742-1.534-7.482,4.741-3.741-8.017,9.4-5.608-0.042-7.441-7.184-17.068L538,580.013l5.178-3.45,6.469-10.675,1.881-2.228-1.548-2.485-14.6-9.717,6.51-8.739-12.785-4.9-4.581-6.927-8.294-1.992-6.885-5.351-0.694,2.86-2.658-2.374-6.656-.687,0.638-4.949-3.228-4.574-4.8.9-7.24-7.538-8.593,1.589-7.156-4.414,1.007-2.936-4.255-7.67,7.066-20.163,8.975-4.269,13.583-16.6-3.283-3.713L494.494,438l3.04-9.481,3.609-3.338,4.137,0.861,16.374-1.3,0.5,0.736,13.084-8.94-2.589-5.775,1.492-2.8,16.741-14.34L567.638,407l16.894-11.89,11.133-4.345-3.373-10.7,6.9-4.546L584.4,357.9Z" transform="translate(-16.819 -160.335)" fill="#06c" stroke="#000" stroke-width="3"/><path d="M288.643,913.616L288.5,907.89l16.957,1.1,0.541-.146,8.246,2.221,5.872-23.28,1.749-.083,4.484-3.679,17.824,2.263,5.206-16.575,5.06-7.073,4.408,2.992,3.811-2.582-1.936-2.339,4.109-17.727,10.314-10.668,16.811,3.783,8.322-1.166,10.939-9.7,2.79-5.351-0.979-8.405,8.176-12.424,4.921,2.013,25.348,11.376,15.742-16.262,11.661-3.332,11.55,3.63,21.2,1.52,5.948-12.841,3.061,4.491,8.149,3.963,20.455-5.344,8.322,2.429,9.461,11.668-2.048,11.529L570.9,823.2l-5.317,10.606,2.131,5.3-5.747,5.837,2.943,4.963,0.9,2.159,2.616,4.9,1.152,5.775-9.655,12.14,9.384,12.854,11.12,3.463,25.244,27.215,18.22,11.834,2.686,0.875,20.968,5,18.8,7.871,9.3-8.107,5.761,2.568,4.706,13.924,5.934,1.8,3.061-.507,8.218-13.007,7.593-5.393,6.032,0.194,5.761-.9,1.25-2.7,28.562-1.381-3.727,8.385,8.815,4.137,0.6,2.52,8.607-.347,2.727,4.907,2.79-5.115L778.108,947l23.669-5.372,36.114,9.134,2.033,2.068,5.719-.854-8.461-22.384,5.275-10.89-2.207-2.075-8.336,2.207-3.242-8.433-1.34-15.18,20.142-4.359,16.145-12.633,14.59-.194,1.937-2.249-2.915-.951-1.777-5.928,0.513-15.173-6.8-5.289,1.722-3.415-20.309-4.144-20.608,2.207-0.43-.055,0.313-4.1,5.462-12.285,8.246-.958,1.589-5.56,12.771-2.159,1.964,5.178,13.8,1.811,4.852,4.588,7.58-.236,8.69-7.94,8.447-2.894,8.363-8.516,16.339,12.577,2.777-5.3,6.212-5.74,15.048-.5,5.33,2.908,1.3-5.629,9.3-7.267-4.2-10.314,7.92,2.894,1.95-2.11-5.8-10.668,1.8-17.838-11.592-.583-4.852-3.214-0.43-2.561L936.922,739l-2.7-2.1L926.1,724.568l-0.652-5.622-5.65-1.6-18.546-4.1L901,712.581l-1.707-2.395,3.727-7.76-4.484-7.337,8.35-9.433,6.3-5.733,12.917-5.692,1.111-6.816-5.192-2.624-3.158-10.627-6.483-5.907,0.5-2.936,5.886-14.139-1.749-5.532-3.853-2.714L914.475,621l2.492-5.567,7.143-5.955,2.388-8.5-17.72-2.887-8.7,3.061L878.75,612.764l-12.292,2.172-8.406-3.679-22.433,12.272-2.86-.451-1.124-12.029-11.564-9.578,0.541-3.012-8.552-1.777-10.87,5.421-6.06.208-6.871-27.535,1.291-8.579-5.178-3.616-6.3-2.867-1.992-.875-4.325-19.178-3.227-14.146-6.587-5.06-11.918.5-10.842,5.657-9.759-7.017-6.51-13.521-14.465,8.079-1.749.34-5.872-.132-11.21-9.738-8.474,2.367-11.688.534-4.907,6.726,0.924-8.634-2.985.389-5.518,6.906-8.474-3.012-16.186,8.558-8.822,8.294-3.04.34-3.63-4.886-9.342,7.309-1.235.729,9.135,16.262,5.532,1.152,7.239,10.245,13.625,9.71-0.513,9.939-19.642,8.385-10.835,5.511-5.83-1.756-5.275,3.04-6.247-6.115-6.032.146-1.922,6.615,3.929,5.039-20.851,22.9-6.129-1.416-15.02,3.727-2.749-1.534-7.468,4.741-3.755-8.01,9.4-5.615-0.042-7.441-7.184-17.068,2.457-8.732,5.164-3.45,6.483-10.675,1.881-2.228-1.548-2.485-14.61-9.717,6.518-8.739-12.785-4.9-4.581-6.927-8.294-1.992-6.9-5.351-0.68,2.86L506.053,524l-6.656-.687,0.638-4.949-3.228-4.574-4.81.9-7.24-7.538-8.579,1.589-7.156-4.414-0.285,1.61-23.821-1.8L434.36,509.1l-5.546-2.54-2.686.944-9.689-4.824-7.663,5.053-2.971-4.512-5.6-.729-4.3-3.727-2.158,1.881-5.136,31.914-6.073.361-5.775,7.156-3.075-.014-6.087-6.823-5.247-15.687-17.526,3.221-2.617,1.145-3.3,5.247-4.963-3.221-8.19-.472-6.316,1.09-8.76,1.659-5.136-3.11-11.168,4.8-5,11.022-4.976,3.6-11.9-2.707-8.163,3.526,1.18,12.154,3.825,8.28,17.269,2.735,6,2.665,3.359,4.852,5.136,1.624-1.18,2.721,2.589,1.43,5.573,1.909,11.14-3.547,6.413,16.9L311.068,600.3l-13.695-7.177-0.868,2.749,6.767,5.358-1.124,2.672-3.755-4.262-8.163-2.52-2.832.021-1.083,5.615,0.354,5.664,13.514,18.7,6.982,5.5,3.359,11.6,6.885,9.377-5.365,2.374-3.984-4.3-9.814,1.971-8.364,10.772-0.5,1.916,5.817,1.93,5.261,7.42L314.8,687.06l-0.34,3.047L308.8,692.39l-11.591,2.374-2.561,8.544-3,.035-7.663-8.85-3-.173-5.192,1.34-0.652,2.6,4.734,5.705-5.206,1.208-7.2-4-0.826-2.3-12.619-4.123-14.208-3.29-5.06,3.526-6.233-.444-14.25-5.976,12.459,11.661,0.68,5.719-5.275,9.4-3.172,8.634,1.68,2.561-3.13,6.58-9.315-7.371-3.63,4.838-5.733-.458-2.1-2.179,0.6-11.661L185.9,714.879l-1.8,2.388,1.326,8.364-10.238,5.9-2.457,5.053,7.128,4.373,4.5,7.288,1.326,5.99-3.755,4.644-15.187-2.11-8.121,4.054,12.244,15.131-2.3,8.5,11.105,0.875,6.441,4.865-5.018,13.826-7.947,9.12,0.638,12.244-14.61,6.74-0.014.2-5.331,24.009,4.734,3.006,2.131-1.874,9.058,6.8-2.089,4.99,5.914,0.291,3.387,4.484,0.042,14.819,6.8,9.752-6.857,6.164-4.921,11.064-15.332-1.09-1.381,8.5,2.061,14.874,6.531,8.1,8.773,0.548,3.616-.576,14.18-2.284,10.411,3.811,15.006-2.638,13.785,3.8,6.754,5.2,4.678-2.1,6.969,0.958,5.914,0.687,17.463,11.4,5.081-2.207,10.425-6.552,8.065-16.505-3.442-.007-0.638-12.008,2.888-11.612Z" transform="translate(-16.819 -160.335)" fill="aqua" stroke="#000" stroke-width="3"/><text transform="translate(380.125 109.315)" font-size="108.958" font-family="DejaVu Sans" font-weight="700">1</text><text transform="translate(209.625 196.786)" font-size="108.958" font-family="DejaVu Sans" font-weight="700">2</text><text transform="translate(162.209 466.543)" font-size="108.958" font-family="DejaVu Sans" font-weight="700">3</text><text transform="translate(695.9 283.548)" font-size="108.958" font-family="DejaVu Sans" font-weight="700">4</text><text transform="translate(512.286 589.236)" font-size="108.958" font-family="DejaVu Sans" font-weight="700">5</text><rect x="428.298" y="32.844" width="49.182" height="49.182" fill="#06c" stroke="#000" stroke-width="3"/><rect x="287.561" y="138.602" width="49.182" height="49.182" fill="#06c" stroke="#000" stroke-width="3"/><rect x="776.343" y="202.917" width="77.352" height="77.352" fill="silver" stroke="#000" stroke-width="3"/><rect x="617.461" y="506.76" width="82.475" height="82.475" fill="silver" stroke="#000" stroke-width="3"/><rect x="364.571" y="236.131" width="82.475" height="82.475" fill="silver" stroke="#000" stroke-width="3"/></svg>