<svg xmlns="http://www.w3.org/2000/svg" width="967.313" height="781.729" viewBox="0 0 967.313 781.729"><title>1T Législatives 2017 Aube</title><path d="M484.991,198.815l-5.436-2.223-9.031,13.723,1.081,9.284-3.082,5.911-12.082,10.718-9.192,1.288-18.568-4.178-11.393,11.783L412.75,264.7l2.139,2.584-4.209,2.852-4.868-3.3-5.589,7.8-5.75,18.308-19.688-2.5-4.953,4.063-1.932.092-6.5,25.714-9.092-2.453-0.6.161-18.729-1.211,0.161,6.325,5.673,2.706-3.189,12.826,0.705,13.263,3.818,0.008-8.924,18.231-11.515,7.237-5.612,2.438-12.128,35.9,3.082,8.579,5.244,3.764,3.94-4.508,5.313,2.085,4.538,4.309,2.576-1.786,5.122,3.4,0.107,25.867,5.213,3.925L325.51,471.83l4.37,10.335,10.388,6.509,2.338,8.679,9.016,1.97,7.743-5.62,17.94,19.335,33.38-22.2,9.407,13.731,5.873,7.812,12.221,12.19,10.258,11.738,3.174,6.77L462.9,557.933l9.744,5.129,3.641,9.453,2.484,2.476-0.345,4.769-0.345,1.985,1.288,2.683,0.207,2.9-2.967,1.948,1.855,3.2-1.855,1.388,12.834,13.34,9.629-3.12,8.4,8.725,4.339-4.73,17.1,8.065,9.346,0.606,3.6-8.464-14.137-10.818,1.809-2.43,6.9-1.541-4.355-8.4,2.009-13.186,9.238-13.1,11.768,5.727,5.405,8.748,11.592-6.493,7.605,10.841,17.717,8.786,6.409,7.536,9.461,9.031,15.931-3.327,5.213,4.132,2.407,8.464,9.077-3.082,3.657,6.011,7.2,2.829,10.135,12.075,6.754-.721,1.993,2.783-4.224,12.78,0.345,13.47,5.344,10.473,4.285-2.208,5.812-.606,6.931,6.509,5.627-1.457,5.812,4.255-4.179,4.561-2.154,8.863,1.756,2.545-3.711,9.261-8.985,3.718L683.8,716.846l3.672,5.512-2.829,9.453,8,2.116-0.391,5.014,14.437,4.424,1.35,1.894L722.02,768.32l12.849,2.814,8.012,9.614-1.449,2.453-10.181,12-11.17,5.589-7.26,31.747,11.109,1.4,13.762,4.654,10.81,6,0.223,0.007-0.406,16.568,2.339,2.415,8.449,0.759,6.3,2.408,8,10.664,3.365,0.3,9.492,0.383,2.86-5.934,15.54-15.648,12.88-2.109,6.218,2.062,5.827-2.906,3.358,6.862,16.714-.337,16.529,9.422,14.858-7.651,5.543,2.568,3.036-1.487-0.567-10.028,9.852-13.355-8.5-5.236L878.07,814.036l-19.826-5.075-2.078-2.047,21.727-6.547,9.161-2.561,1.3-6.256-1.993-2.668,13.34-8.939,4.9-12.282,5.888,3.7,13.762,0.544,16.2,5.681,18.316,5.581,12.65-1.556-0.69-12.052-3.082-11.293,14-12.213-7.621-10.335-1.181-9.821,1.48-6.5,6.5-7.636-1.134-3.174,5.888-12.266,0.138-.123,3.941-5.466,0.062-10.2-15.05-6.9-2.453-6.233,10.388-7.191L977.246,649.1l1.618-6.164-0.782-1.963,1.257-6.6,8.4-10-10.718-17.127,5.152-12.474-9.913-6.578-6.1.721-0.66-9.66-7.2-10.7,17.756-16.131-4.554-4.922-10.12-.56L944.41,536.113,932.5,534.787l-13.071-8.932,3.672-20.654-8.832-4.615-19.619-2-5.781,3.182-2.668-2-1.066-4.83,4.179-3.067-9.208-13.248-9.062-2.346,5.029-8.2-7.245-10.066L866.84,449.7l-24.825-12.267-5.842-11.278,17.372-2.423-1.288-6.524,4.807-15.778-0.8-9.875,5.612-7.245,2.169-.161,4.385-8.594-4.009-12.159-3.013-5.42-9.507.383-0.66-2.783L841.5,351l4.117-9.261-31.533,1.526-1.4,2.982-6.348.989-6.677-.222-8.387,5.965-9.062,14.367-3.381.56-6.555-1.986-5.2-15.379-6.363-2.837-10.273,8.955-20.785-8.7-23.153-5.52-2.967-.966L683.417,328.4l-27.883-30.061-12.282-3.826-10.381-14.2,10.679-13.409-1.273-6.379-2.89-5.413-0.989-2.392-3.251-5.474,6.333-6.448-2.354-5.857,5.888-11.715-6.547-10.3,2.246-12.734-10.434-12.888-9.208-2.683-22.578,5.9-9-4.378-3.4-4.968-6.555,14.191L556.12,193.7l-12.773-4.01-12.864,3.68-17.4,17.963Z" transform="translate(-23.912 -178.159)" fill="#ffeb00" stroke="#000" stroke-width="3"/><path d="M241.446,717.292l4.224,9.215-0.238,6.616-9.645,9.4-3.342-.43-4.025-9.2-2.17,9.422-15.126,6.056-5.359-19.895-5.857-8.418L193.293,704l-11.047-7.222-19.289,13.01-12.236-9.813,22.34-21.313,7.9-14.743-5.988-5.934-5.029,1.756-3.082-5.612L168,651.059,182.928,634.2l-0.552-3.228,13.922,2.66,26.741,2.583L222.38,631.9l-3.22-3.826,13.57-9.959,10.051-1.142L263.642,606.4l-1.211-9.813,5.827-2.653-0.552,9.292,4.178,4.853,9.177-7.191,9.614-6.731,13.608,10.381,2.967,6.156,15.44-2.921,0.751-1.894,4.792-8.978,14.359-9.077,6.708,1.6,12.52,20.516,2.844-1.549,10.465,7.237,9.3-1.464,5.3-2.009,4.239,13.57,9.253,8.433,8.265-5.443,6.2,0.813,9-4.14,14.858-5.091,5.689-2.913,0.521-5.942,5.612-3.043-0.153-6.417,15.87-.82,3.5-1.863-0.107-2.607,4.1-2.791,12.834,13.34,9.614-3.12,8.4,8.725,4.355-4.73,17.089,8.065,9.361,0.606,3.58-8.464L527.694,597.5l1.809-2.422,6.9-1.541-4.355-8.4,1.993-13.186,9.238-13.1,11.768,5.727,5.405,8.748,11.607-6.493,7.605,10.841,17.717,8.786,6.409,7.529,9.445,9.039,15.931-3.327,5.229,4.132,2.407,8.464,9.062-3.082,3.657,6.011,7.215,2.829,10.12,12.075,6.77-.721,1.978,2.783-4.209,12.78,0.345,13.47,5.344,10.473,4.27-2.208,5.827-.606L694.1,672.6l5.642-1.457,5.812,4.255-4.179,4.561-2.154,8.863,1.756,2.545-3.726,9.261-8.97,3.718-4.493,12.542,3.672,5.5-2.844,9.461,8.012,2.116-0.391,5.014,14.421,4.424,1.364,1.894,13.984,23.061,12.849,2.814,8.012,9.614-1.465,2.453-10.181,12-11.155,5.589-7.275,31.747,11.109,1.4,13.777,4.654,10.81,6,0.223,0.007L748.3,861.216l2.323,2.415,8.464,0.759,6.3,2.408,7.981,10.664,3.381,0.3,4.684,15.716,8.135,5.52,2.952,12.987-4.953,3.534-13.623-2.055-9.775,3.45-13.654-1.656-31.625,11.531-5.765-3.082-14.152-8.587-41.614,11.262-25.906-5.712L626.8,928.8l-4.148,5.405,1.824,10.036-5.643,12.274-15.739,1.84L588.065,951.9,573.529,934.31l1.35-22.831-15.648-.606-4.309,4.684,0.031,3.358,5.988,3.136,0.974,13.348-3.68,5.374L548.49,942.4l-0.782-13.317-11.024-5.98-16.652,15.648,0.031,6.624-6.018-.521-6.831,5.834-5.5,3.4-12.412-.176-1.257-12.589-1.9-2.622L467.34,937l-3.94,15.2-5.8,3.09-8.234-5.259-5.313,3.573-6.394-1.656-6.425-11.715-12.98,11.538-2.89.345L403.6,946.967l-8.924,3.312-14.957-2.438-5.2,6.371-2.906-1.556-5.781,3.043-6.172-2.024-1.1-.721,5.451-8.755,2.123-20.286,5.543-16.015-6.815-15.617-5.2-7.989-6.471-.43-2.422,2.247L349.7,902.2l-12.159,4.876,1.763-6.217-9.43-.8-6.647-19.7,15-2.323,5.2,3.32-0.376-13.1-14.5-12.742-3-5.827-7.337-.843-6.632-7.49,4.355-4.04-1.5-15.065-18.07-22.1,0.9-9.223,3.68-4.776-2.607-6.056-21.321-25.507-10.4,6.739-8.027-5.888-0.552-6.547,9.614-13.087-5.911-15.1-18.9-6.494Z" transform="translate(-23.912 -178.159)" fill="#ffeb00" stroke="#000" stroke-width="3"/><path d="M130.334,571.718l0.8-14.467-8.28-5.957L104.6,526.907,98.94,523.12l-13.578.084-2.653-5.075-0.207-.215L69.24,519.693,57.157,531.461l-3.251-.82-8.2-14.559L46.224,502.6l3.956-18.392-0.123-6.317-10.273-.008,4.508-5.758L31.957,468.3l2.484-9.484,4.853-4.638,1.02-13.439L34.5,432.715l0.33-6.57-8.609-9.714,12.8-7.828,10.933-4.669,9.192,0.475,0.176-6.493-6.57-15.256-12.65-15.4,5.765-5.359,14.513,4.845,9.253-.123,14.329-11.193,5.9-1.4,0.406-8.219L79.3,325.46l2.292-2.53,10.6-7.3L96.67,307.4l15.019-2.124-6.3-11.638,1.932-2.683,30.759-11.285-0.061-3.289,4.93,7.567,1.48,8.939,9.422-1.311,1.756,19.113,6.455-1.518,7.667,14.337,2.247-1.694,4.945-4.27,5.574-.544,4.953,7.383-1.525,9.384,2.277,16.437,7.214,8.947,9.69,0.6,3.994-.636,15.678-2.515,11.484,4.2,16.591-2.906,15.211,4.194,7.46,5.742,5.167-2.323,7.7,1.058,6.532,0.759,19.289,12.6-12.128,35.9,3.067,8.579,5.259,3.772,3.925-4.516,5.328,2.085,4.524,4.309,2.591-1.786,5.122,3.4L332,457.517l5.213,3.925-11.592,10.442,4.355,10.335,10.4,6.509,2.323,8.679,9.016,1.97,7.759-5.62,17.94,19.335,33.38-22.2L420.2,504.62l5.873,7.812,12.221,12.19,10.243,11.738,3.189,6.77L463,557.988l9.744,5.129,3.641,9.461,2.484,2.469-0.36,4.769-0.345,1.985,1.288,2.683,0.222,2.9-2.982,1.948,1.855,3.2-5.926,4.178,0.092,2.607-3.5,1.863-15.87.82,0.161,6.417-5.627,3.043-0.506,5.942-5.7,2.913L426.811,625.4l-9,4.14-6.187-.813-8.265,5.443-9.269-8.433-4.224-13.562-5.313,2-9.284,1.464-10.48-7.237-2.844,1.549-12.52-20.516-6.708-1.6-14.359,9.077-4.792,8.978-0.751,1.894-15.44,2.921-2.967-6.156-13.755-10.4-9.614,6.731-9.177,7.191L267.7,603.22l0.537-9.3-5.827,2.653,1.211,9.813-20.861,10.565-10.036,1.15-13.578,9.959,3.235,3.826,0.659,4.316-26.756-2.583-13.907-2.66L176.778,618l-21.29-10.089-1.725-2.967,5-12.351-15.87-12.075,0.567-10.059Z" transform="translate(-23.912 -178.159)" fill="#f90" stroke="#000" stroke-width="3"/><text transform="translate(455.768 649.119)" font-size="120.35" font-family="DejaVu Sans" font-weight="700">2</text><text transform="translate(605.09 333.201)" font-size="120.35" font-family="DejaVu Sans" font-weight="700">1</text><text transform="translate(117.105 328.024)" font-size="120.35" font-family="DejaVu Sans" font-weight="700">3</text><rect x="727.635" y="369.696" width="92.491" height="92.491" fill="silver" stroke="#000" stroke-width="3"/><rect x="361.571" y="471.659" width="92.491" height="92.491" fill="#06c" stroke="#000" stroke-width="3"/><rect x="727.635" y="271.076" width="92.491" height="92.491" fill="#06c" stroke="#000" stroke-width="3"/><rect x="194.28" y="310.253" width="92.491" height="92.491" fill="#06c" stroke="#000" stroke-width="3"/></svg>