<svg xmlns="http://www.w3.org/2000/svg" width="778.525" height="865.095" viewBox="0 0 778.525 865.095"><title>Députés soretants de l&amp;apos;Essonne en 2017</title><path d="M765.58,385.019l-5.245-7.2-4.986-1.488-31.746,2.4-3.4.221-19.98,6.757-12.3-25.225-9.908-6.072-11.135,3.032L680.9,346.87l-8.246-20.854-5.277-2.032-5.726,9.466-16.688.977-3.709,4.276-10.97-2.764-3.276-29.218,15.011-4.544,3.844-10.3,9.262-6.127L673.461,296.1,689.826,275l10.136-13.822,5.064,2.8,13.262-10.829,16.9,19.129,21.059,21.366,0.787,0.551,17.2,17.381,5.324,14.018-9.309,43.654-1.307,4.143Z" transform="translate(-110.782 -26.424)" fill="#ffc0c0" stroke="#000"/><path d="M290.436,577.622l-42.15-.8-0.079,5.166-10.538-.213-5.568,8.088,0.661,5.332,10.136,2.481,10.4,11.884L232.818,624.41l-4.017,4.536,3.568,34.849L214.76,688.013,203.5,685.406l-21.532,6.127L169.7,724.406l11.994,2.166,12.026,26.958-13.656,12.144-5.828,29.6L187.9,815.73l-7.86,8.529,1.11,16.042-20.177,9.8,3.119,10.238,20.074,25.6,17.4,2.859,17.688,2.221,22.965-5.8,16.594,4.316,9.585-7.064,1.449-9.222,40.559,1.7,18.917-21.579,11.569-.732-3.631,18.035,59.373-2.607L397,860.73l-9.356-10.12,0.984-10.726,16.657,3.213,2.11-4.1,12.4,2.19,1.535-17.665,28.289-36.913,8.845,14.5L478.4,813.2l16.877-.355-9.616,23.8,11.845,1.662-3.568,29.809,11.293-5.292,16.609-23.863,26.32,10.293,9.891-3.615L572.3,812.588l5.536-2.536,14.121-2.221,2.354,11.23,28.5,28.013,4.4,2.827,9.459-4.3,2.615,4.544,33.762-11.53,4.34-9.569-8.458-8.821-3.521-17.72,10.38,4.993,21.784-7.238,16.121,4.576-4.079-22.721,12.6-16.988L709.038,756.7l13.01-11.049,11.214,2.032-0.921-11.475,37.991-15.334-10.057-13.916,14.231-11.3,23.792,3.371,17.83-16.019,29.439,4.591-34.636-46.08-14.3-3.827L795.9,605.714l-0.4-9.246-7.135-6.883,1.984-3.135,7.34-3.694L793.628,542.2l9.215-7.387,2-12.238,2.032-24.816-5.521-.165-2.6-10.821-10.75-2.567,13.782-44.638-11.8-.5,21.689-33.636,2.048-11.349,13.861-9.088-11.443.764-33.73,10.27L769.137,385.1l-0.181-11.64-3.387,11.6-5.229-7.2-4.986-1.48-31.762,2.394-3.387.228-19.98,6.749-12.317-25.225-9.891-6.072-11.152,3.032,14.042-10.577-8.246-20.854-5.277-2.032-5.741,9.466-16.688.977-3.709,4.276-10.97-2.764-0.678,5.505-25.469,8.505-1.488,5.34-2.26,27.6,12.955,30.643-5.678,8.057,16.7,28.171-18.169-1.418-3.552,28.092-16.657,5.253L566.115,514.7l-21.516.268-13.427-8.655-5.631,1.512-0.583,22.918-8.088,15.507,6.765,4.883,2.725,8.49-7.923,7.434,10.4,12.467-9.025,6.71-6.726,15.4-15.152,1.331-10.538,10.033-34.9-49.2-18.98-14.743-2.773,11.065-34.07-1.213-15.058-10.459-11.522,3.78L360.06,567.431l-10.75,3.93-3.276-5.048,5.426-16.767-1.811-17.909L328.425,521.21l4.828-22.807-16.271-7.214-22.257,5.82-14.554,31.518,0.787,17,10.49,14.877Z" transform="translate(-110.782 -26.424)" fill="#06c" stroke="#000"/><path d="M482.048,358l-24.769,11.356-16.916,4.276-36.212-.851-16.964,6.056-6.906-11.687-1.355-5.852-20.382-10.419-11.766,1.866-10.522,3.8-8.12-7.623-11.364,1.15-6.765-.851-10.765-8.994-15.963,4.962-10.939-20.626-23.059,5.481-2.292,11.711,3.119,16.42-16.089,18.87-5.064,36.18-40.283,1.347-3.859,4.395-19.783-10.821-28.777-2.276-4.473,23.115,32.55,24.02,16.334,0.748,1.355,11.742-11.167,2.914-4.418-2.835-12.8,7.679-21.689,48.718-1.355,25.217-11.475,4.032-7.49,9.553-0.338,18.24,6.536,10.018,9.876,6.812,4.1,19.389,10.2,2.945-6.506,9.75,2,23.311-15.27,16.515,4.473,1.977,0.8,13.451,21.169-4.158,15.862,3.513,17.507,9.041,21.532-6.127,11.262,2.607,17.609-24.209-3.568-34.857,4-4.536,20.492-14.845-10.4-11.884-10.136-2.481-0.678-5.332,5.584-8.08,10.538,0.2,0.079-5.166,42.15,0.8,1-17.231-10.49-14.877-0.787-17,14.554-31.518,22.257-5.82,16.271,7.214-4.843,22.807,21.224,10.427,1.811,17.909-5.418,16.767,3.276,5.048,10.75-3.93,10.01-15.208,11.522-3.78,15.073,10.459,34.053,1.221,2.788-11.073,18.98,14.743,34.9,49.2L497.974,603l15.137-1.331,6.726-15.4,9.025-6.71-10.38-12.467,7.923-7.434-2.725-8.49-6.765-4.883L525,530.778l0.567-22.918,5.631-1.512L544.645,515l21.516-.268,19.854-32.975,16.657-5.253,3.568-28.092,18.153,1.418L607.7,421.664l5.678-8.057-12.963-30.643,2.26-27.6,1.488-5.34,25.469-8.505,0.693-5.505-3.276-29.21L616.06,303.1l-22.642-.079-1.811,1.268-42.173-11.711-1.048,11.356-10.8,3.473-7.6-7.458-15.042-.11-6.261,15.271-24.87,1.457,7.6,15.586-7.939,9.1Z" transform="translate(-110.782 -26.424)" fill="#ff8080" stroke="#000"/><path d="M380.28,367.134l-1.355-5.859-20.382-10.411-11.766,1.866-10.522,3.8-8.12-7.623-11.349,1.15-6.78-.851-10.765-8.994-15.948,4.962-10.955-20.626,3.2-16.357-17.4-16.066-1.165-.921-6.71-8.781-1.276-16.869-16.877-1.142-10.025-20.248,1.875-10.569,16.074,3.418,2.127-10.766,5.521-26.328,4.663-2.733,5.726-.827,3.812-10.742,11.443-.008,12.64-.2,3.772-3.583,14.349,6.127,8.443-22.2,9.923,7.072,16.767,4.41L329.3,191.518l0.355,11.648,10.923,1.315,9.538-7.182,0.4-5.891,22.854-4.3,10.089,3.347,3.662,9.939,9.215,4.993,3.276,0.89,5.678-1.693,25.965,13.688,4.875-1.095L451.8,202.552l-4.875-14.089-0.032-10.4,5.828-18.562,28.919,1.315,12.183-11.246,16.72,1.268,8.7-20.8,31.565,10.852-0.158,12.388,10.474,4.143,8.277,20.8,4.922,2.914,2.339-4.7,14.011,7.852L588.63,186.1l10.325,15.428,3.308,18.326,4.458-.37-5.938,30.455L586.2,238.961,579.676,222.9l-10.829,15.145L556.6,250.254l-1.244,10.065-6,32.187-1.032,11.356-10.813,3.473-7.584-7.458-15.042-.11-6.261,15.271-24.887,1.457,7.616,15.586-7.939,9.1-1.386,16.83L457.25,369.355l-16.916,4.276-36.212-.851-16.948,6.056Z" transform="translate(-110.782 -26.424)" fill="#06c" stroke="#000"/><path d="M429.195,66.668L412.6,60.738l-15.7,8.907-12.136-.268L370.332,80.049l-0.094,6.111L365.7,96.729l-20.091-7.466-15.247,5.985-4.907,3.489,11.7,20.7-3.26,11.6,3.079,5.875-15.3,24.461,0.787,11.451,16.751,4.41-9.923,14.278,0.37,11.648,10.923,1.315,9.521-7.182,0.417-5.891,22.854-4.3,10.089,3.347,3.662,9.939,9.215,4.993,3.26,0.89,5.678-1.693,25.981,13.688,4.875-1.095,15.657-14.625-4.859-14.089-0.032-10.4,5.828-18.562-19.7-18.342,0.8-11.853,11.632-4.15,10.994-13.688,0.921-15.972-11.246,1.638,26.06-23.162,13.523,25.556,42.5-9.1,10.671-12.995L530.1,62.266l-7.986-7.033L499.7,54.217l-20.027-8.435L475,30.795l-2.662-2.882,0.756,5.922-5.016,3.213-17.7,1.15L442.3,30.535l-11.75-.74-3.536,4.458,5.647,15.7Z" transform="translate(-110.782 -26.424)" fill="#ff8080" stroke="#000"/><path d="M519.244,130.034l-8.7,20.8-16.72-1.268-12.183,11.246L452.719,159.5,433.03,141.154l0.787-11.853,11.648-4.15,10.986-13.688,0.921-15.972L446.127,97.13,472.2,73.968l13.523,25.556,42.5-9.1,4.52,10.915,5.875,0.725,21.721-9.317,2.016,17.5,11.231-1.811,8.443-32.2,3.646-3.308,8.033,4.458L605,89.908l15.736,4.143-9.647,12.735,4.032,16.161-5.812,9.451,11.49,2.315-2.709,23.217-27.383,26.336-13.995-7.852-2.339,4.7-4.938-2.914-8.261-20.8L550.7,153.258l0.141-12.388Z" transform="translate(-110.782 -26.424)" fill="#ff8080" stroke="#000"/><path d="M640.219,126.679L639.9,113.1,639.2,80.978,620.7,94.043l-9.664,12.735,4.048,16.161-5.812,9.451,11.49,2.315-2.709,23.217-27.383,26.336-2.048,1.819L598.943,201.5l3.308,18.326,4.458-.37,15.736-5.694,10.735,24.808-5.5,10.388,2.953,5.1,3.812,3.079,14.3-26.722,21.287-21.453-12.152-17.547,4.678-14.774,12.412-17.492,4.71-16.082,11.231-12.231-3.772-14.53-28.454,10.506Z" transform="translate(-110.782 -26.424)" fill="#00c000" stroke="#000"/><path d="M782.844,196.362l-29.423,17.484-4.52-3.678-10.813-16.98-10.309,5.82-21.721-27.895-11.325,1.032L675,159.166l4.71-16.082,11.231-12.231,24.3-11.081,5.828-2.363,3.15,8.379,9.687,10.246-1.52-11.451,15.026-9.884,11.907-1.063,2.8-.055,10.671-2.615,29.7-9.86L815.638,140.6l9.585,10.781-3.134,2.56L802.494,173l-1.678,11.608,5.033,2.969-17.09,15.845Z" transform="translate(-110.782 -26.424)" fill="#8040c0" stroke="#000"/><path d="M655.158,285.764l9.183-23.3,18.208-42.7-12.491-10.789-12.152-17.547,4.678-14.774L675,159.165l19.736,12.979,11.325-1.032,21.721,27.895,10.325-5.82,10.813,16.98,4.5,3.678,29.423-17.484,5.922,7.064,17.09-15.845-5.033-2.969L802.5,173,822.1,153.936l4.89,8.726,15.413,2.355,5.442,16.633,26.414-5.292,10.136,4.481,4.323,21.744-10.97,1.583-11.01,12.168-9.6-6.214-11.073,1.693L830.114,237.6l16.555,13.459-6.41,9.931-2.095,17.988-22.43,3.418-4.552,3.646,10.136,26.02,19,10.994-1.229,20.98-27,24,4.079,17.657-33.73,10.27-13.278-10.923-0.181-11.648,1.307-4.143,9.293-43.654-5.324-14.018L757.07,294.2l-0.8-.551-21.059-21.366-16.893-19.129L705.036,263.98l-5.048-2.8L689.837,275l-16.365,21.1Z" transform="translate(-110.782 -26.424)" fill="#ff8080" stroke="#000"/><path d="M593.383,302.941l-1.811,1.268L549.4,292.5l6-32.187,1.244-10.065,12.247-12.207,10.829-15.145,6.521,16.058,14.586,10.979,5.922-30.455,15.736-5.694,10.735,24.808-5.489,10.388,2.938,5.1,3.827,3.079,14.3-26.722,21.287-21.453,12.475,10.789-18.2,42.7-9.2,23.3-9.262,6.127-3.844,10.3-15.011,4.544-10.994-3.709Z" transform="translate(-110.782 -26.424)" fill="#ff8080" stroke="#000"/><path d="M714.563,336.766h7.172V314.148l-7.359,1.688V309.7l7.313-1.687h7.734v28.758h7.172V343H714.563v-6.234Z" transform="translate(-110.782 -26.424)"/><path d="M565.445,689.367H579.3V696H556.422v-6.633l11.484-11.273a11.931,11.931,0,0,0,2.285-3.023,6.783,6.783,0,0,0,.738-3.07,5.378,5.378,0,0,0-1.488-3.961,5.315,5.315,0,0,0-3.949-1.5,11.313,11.313,0,0,0-4.16.9,24.867,24.867,0,0,0-4.84,2.684v-7.687a35.662,35.662,0,0,1,5.426-1.535,27.25,27.25,0,0,1,5.262-.527q5.648,0,8.777,2.766a9.754,9.754,0,0,1,3.129,7.711,11.121,11.121,0,0,1-1.324,5.332,31.258,31.258,0,0,1-5.59,6.621Z" transform="translate(-110.782 -26.424)"/><path d="M393.133,445.133a8.79,8.79,0,0,1,4.828,3.176,9.456,9.456,0,0,1,1.664,5.754q0,5.2-3.586,7.91t-10.477,2.707a27.654,27.654,0,0,1-4.852-.434,29.068,29.068,0,0,1-4.828-1.3v-6.961a21.465,21.465,0,0,0,4.523,1.91,16.035,16.035,0,0,0,4.43.645,8.342,8.342,0,0,0,4.945-1.242,4.587,4.587,0,0,0-.047-7.184,9.072,9.072,0,0,0-5.2-1.23H381.3V443.07h3.422A7.875,7.875,0,0,0,389.266,442a4.166,4.166,0,0,0,.047-6.363,6.715,6.715,0,0,0-4.125-1.1,16.465,16.465,0,0,0-3.961.492,20.47,20.47,0,0,0-3.984,1.453v-6.609a34.193,34.193,0,0,1,4.77-1.125,29.413,29.413,0,0,1,4.629-.375q6.141,0,9.188,2.238a7.818,7.818,0,0,1,3.047,6.738,8.213,8.213,0,0,1-1.453,5.027A7.733,7.733,0,0,1,393.133,445.133Z" transform="translate(-110.782 -26.424)"/><path d="M420.555,251.008h9.023v22.078h4.5v6.539h-4.5V286h-7.664v-6.375H407.945v-7.734Zm1.359,7.43-8.906,14.648h8.906V258.438Z" transform="translate(-110.782 -26.424)"/><path d="M586.313,287.516h7.172V264.9l-7.359,1.688v-6.141l7.313-1.687h7.734v28.758h7.172v6.234H586.313v-6.234Z" transform="translate(-110.782 -26.424)"/><path d="M639.281,276.289q0,8.7-3.375,13.418a12.09,12.09,0,0,1-19.172,0q-3.375-4.723-3.375-13.418,0-8.719,3.375-13.441a12.09,12.09,0,0,1,19.172,0Q639.281,267.57,639.281,276.289Zm-8.109-.07q0-6.562-1.113-9.246a3.929,3.929,0,0,0-7.453,0q-1.113,2.684-1.113,9.246,0,6.633,1.113,9.352a3.905,3.905,0,0,0,7.441,0Q631.172,282.852,631.172,276.219Z" transform="translate(-110.782 -26.424)"/><path d="M775.813,267.727v-6.469a20.094,20.094,0,0,0,3.715,1.512,12.748,12.748,0,0,0,3.5.5,7.248,7.248,0,0,0,5.66-2.238q2.027-2.238,2.379-6.645a10.874,10.874,0,0,1-14.379-.785,11.485,11.485,0,0,1-2.965-8.238,12.423,12.423,0,0,1,3.3-9.047,11.789,11.789,0,0,1,8.859-3.4,11.122,11.122,0,0,1,9.539,4.617q3.375,4.617,3.375,13.055,0,8.672-3.949,13.629a13.079,13.079,0,0,1-10.816,4.957,24.091,24.091,0,0,1-4.254-.363A22.853,22.853,0,0,1,775.813,267.727Zm10.031-16.852a3.667,3.667,0,0,0,3.211-1.535,10.351,10.351,0,0,0,0-9.2,4.106,4.106,0,0,0-6.422,0,10.351,10.351,0,0,0,0,9.2A3.667,3.667,0,0,0,785.844,250.875Z" transform="translate(-110.782 -26.424)"/><path d="M745.617,158.367a8.485,8.485,0,0,1-4.336-2.953,8.208,8.208,0,0,1-1.453-4.969,8.043,8.043,0,0,1,2.977-6.75q2.977-2.32,8.742-2.32,5.719,0,8.684,2.309a8.049,8.049,0,0,1,2.965,6.762,8.161,8.161,0,0,1-1.465,4.969,8.551,8.551,0,0,1-4.324,2.953,9.075,9.075,0,0,1,4.84,3.2,9.184,9.184,0,0,1,1.629,5.59q0,5.2-3.105,7.863t-9.223,2.66q-6.141,0-9.281-2.66t-3.141-7.863A8.457,8.457,0,0,1,745.617,158.367Zm5.93,2.977a4.437,4.437,0,0,0-3.516,1.383,7.027,7.027,0,0,0,0,7.91,4.457,4.457,0,0,0,3.516,1.371A4.361,4.361,0,0,0,755,170.637a7.1,7.1,0,0,0,0-7.922A4.361,4.361,0,0,0,751.547,161.344Zm-4.031-9.984a4.551,4.551,0,0,0,1.043,3.211,3.873,3.873,0,0,0,2.988,1.125,3.774,3.774,0,0,0,2.93-1.125,5.5,5.5,0,0,0,0-6.41,3.8,3.8,0,0,0-2.93-1.113,3.873,3.873,0,0,0-2.988,1.125A4.515,4.515,0,0,0,747.516,151.359Z" transform="translate(-110.782 -26.424)"/><path d="M380.57,107.508h20.2v6.633H387.063v5.414a13.834,13.834,0,0,1,1.852-.434,12.114,12.114,0,0,1,1.945-.152q5.766,0,8.977,3.2t3.211,8.918q0,5.672-3.492,8.883t-9.7,3.211a24.716,24.716,0,0,1-5.3-.574,26.5,26.5,0,0,1-5.227-1.746v-7.1a24.482,24.482,0,0,0,4.887,2.461,13.011,13.011,0,0,0,4.348.82,6.5,6.5,0,0,0,4.652-1.605,6.427,6.427,0,0,0,0-8.707,6.53,6.53,0,0,0-4.652-1.594,15.242,15.242,0,0,0-3.727.5,24.5,24.5,0,0,0-4.266,1.559V107.508Z" transform="translate(-110.782 -26.424)"/><path d="M581.664,111.922v6.469a19.572,19.572,0,0,0-3.762-1.559,12.591,12.591,0,0,0-3.457-.5,7.248,7.248,0,0,0-5.66,2.238q-2.027,2.238-2.355,6.645a9.775,9.775,0,0,1,3.012-1.723,10.538,10.538,0,0,1,3.527-.574,10.249,10.249,0,0,1,7.816,3.141,11.494,11.494,0,0,1,2.965,8.227,12.325,12.325,0,0,1-3.316,9.012,11.881,11.881,0,0,1-8.895,3.387,11.077,11.077,0,0,1-9.5-4.605q-3.363-4.605-3.363-13.066,0-8.672,3.938-13.629a13.021,13.021,0,0,1,10.781-4.957A23.1,23.1,0,0,1,581.664,111.922Zm-10.031,16.8a3.637,3.637,0,0,0-3.2,1.535,10.478,10.478,0,0,0,0,9.211,4.126,4.126,0,0,0,6.422,0,10.478,10.478,0,0,0,0-9.211A3.661,3.661,0,0,0,571.633,128.727Z" transform="translate(-110.782 -26.424)"/><path d="M633.213,145.008h23.742v5.086L644.674,180h-7.922l11.625-28.359H633.213v-6.633Z" transform="translate(-110.782 -26.424)"/></svg>