<svg xmlns="http://www.w3.org/2000/svg" width="1342.279" height="728.549" viewBox="0 0 1342.279 728.549"><title>Députés sortants de Paris en 2017</title><path d="M424.941,324.589l-35.123-86.525,16.4-33.094,20.151-8.624,138.67-38.456L578.11,148.2l42.841,18.33,12.228,3.035,4.71,13.387,46.909,8.8-6.256,73.236L713,276.242,695.1,325.693l-4.162,11.571-30.311,66.328L632.089,374.18l-35.62-14.839L530.33,327.9Z" transform="translate(0 0.001)" fill="#06c" stroke="#000" stroke-width="2"/><path d="M616.963,522.727l0.2-6.638L589.5,473.034l1.927-56.581L564.394,423l-34.91,26.567-8.76-26-23.888-1.471,0.27-17.2-49.468-4.129-24.512,24.241-62.688-55.762,32.014-35.254,32.489-9.384L530.3,327.947l66.161,31.437,35.6,14.839,28.561,29.417,108.313,65.183,8.965,10.492L753.769,522.81l-54.71,23.729-52.215-12.214Z" transform="translate(0 0.001)" fill="#06c" stroke="#000" stroke-width="2"/><path d="M557.821,125.316l9.021-48.092,65.8,16.5,7.271-29.854,8.146-26.457-26.82,1.164L608.053,8.691,580.74,10.506,525.4,16.4l-88.27,52.56L418.909,81.145l18.05,21.728,2.327,0.112,33.16,37.982,19.167,14.057L502.3,168.988l1.872,5.986L565.025,157.9Z" transform="translate(0 0.001)" fill="#ff8080" stroke="#000" stroke-width="2"/><path d="M171.358,233.992l37.05,49.944,20.639-.475-5.223,14.113,16.345,31.055L254.9,328.7l14.652-9.6,24.021,2.731,19.2-33.578L341.292,301l3.677,26.82,28.039,27.2,19.438-21.039,32.489-9.384-35.123-86.529L406.2,204.993l20.164-8.621,77.816-21.4-1.872-5.986-10.686-13.964-19.172-14.058-33.16-37.982-2.327-.112-18.05-21.726L383.236,104.78l-10.743,1.4-41.258,33.746-19.652,23.418-5.074,35.44L197.144,185.333Z" transform="translate(0 0.001)" fill="#06c" stroke="#000" stroke-width="2"/><path d="M690.942,337.306l4.161-11.581L713,276.274l-34.454-11.255L687.72,155.8l48.985-5.837,34.165,1.219,22.276,1.927,7.875,11.785,1.108,42.6,11.106,11.2,25.274,35.6-72.09,37.383L791.405,389.1l-24.967-6.4-24.986-14.657-13.22-15.18Z" transform="translate(0 0.001)" fill="#ff8080" stroke="#000" stroke-width="2"/><path d="M868.423,402.954l11.655,29.873L959.4,452.795l-4.255-26.615L933.4,380.964l19.167-3.147,22.3-16.179L966.8,347.619l-2.942-19.568-8.276-15.6-21.821-40.877-23.329-28.058-24.986,16.841-14.4-17.874-32.545,11.8-51.312,26.783,25.47,5.837L848.542,352.2l13.451-7.252,32.07,48.985Z" transform="translate(0 0.001)" fill="#00c000" stroke="#000" stroke-width="2"/><path d="M660.631,403.634l30.311-66.328,37.293,15.528,13.219,15.183,24.986,14.652,24.967,6.4-24.986-97.421,20.8-10.6,25.47,5.837,35.887,65.295,13.451-7.271,32.07,49-25.712,9.058,11.655,29.873-8.873,44.931-59.346,42.087-42.888-51.033Z" transform="translate(0 0.001)" fill="#ff8080" stroke="#000" stroke-width="2"/><path d="M1015.136,644.854l-32.567-35.123-72.488,29.533-98.24-119.4L871.2,477.777l8.872-44.907L959.4,452.82l-1.732-14.294,42.022-5.343-1.222-18.419,50.437-14.858,5.13,43.362-2,21.746-9.654,57.233-17.641,46.434,16.84,4.924L1082.9,556.9l-5.725-38.633-6.675-15.09,5.688-12.633,8.49-6.069,12.967,20.964,70.052,8.657,4.366-29.911,14.4,0.112L1188.245,470l31.232,1.07-0.493,11.022,7.746-1.927L1333.1,527.822l8.108,38.708-22.761,29.24-6.293,37.73,1.983,30.674-13.526,39.145-19.289,17.622-47.98-6.833-68.711-5.222L1124.487,663.5l-50.472-10.74Z" transform="translate(0 0.001)" fill="#ff8080" stroke="#000" stroke-width="2"/><path d="M646.854,534.307l-6.185,52.914,46.984,19.531,34.277-14.346,60.6,116.346,127.552-69.488L777.939,479.308,753.791,522.8l-54.71,23.729Z" transform="translate(0 0.001)" fill="#ff8080" stroke="#000" stroke-width="2"/><path d="M423.669,643.979l51.964-65.258,65.636,29.743-17.417,26.6,8.927,2.858,2.82,4.543,23.924,6.944,27.49,7.2,28.561-3.928,18.981-3.854,10.514-14.663-4.4-46.965,46.984,19.531,34.27-14.366,60.6,116.365-14.559,8-42.673,3.565L706.16,701.508l-22.622,12.269-12,3.817-23.422-1.508-56.823-4.561,4.255-10.929-101.6-33.02Z" transform="translate(0 0.001)" fill="#ffc0c0" stroke="#000" stroke-width="2"/><path d="M507.579,463.883l44.005,26.959-75.926,87.87,65.62,29.743-17.417,26.6,8.927,2.858,2.82,4.543,51.414,14.15,28.561-3.928,18.981-3.835,10.51-14.671-4.384-46.965,6.163-52.914-29.892-11.581,0.2-6.638-27.676-43.055,1.945-56.581L564.4,422.982l-34.91,26.569Z" transform="translate(0 0.001)" fill="#ff8080" stroke="#000" stroke-width="2"/><path d="M507.579,463.883l44.005,26.959-75.926,87.87-9.123-3.3-14.252-24.418L440.209,517.7l-21.765,9.16L409.7,496.227l-19.307,1.62-47.765-29.78-32.713-30.255,50.53-68.6,62.688,55.781,24.512-24.25,49.488,4.124-0.289,17.2,23.888,1.489,8.76,26Z" transform="translate(0 0.001)" fill="#06c" stroke="#000" stroke-width="2"/><path d="M238.99,621.507l-1.434-29.11,15.965-10.8-13.163-17.38-27.816,6.507,97.365-132.889,32.713,30.236,47.765,29.78,19.307-1.6,8.732,30.618,21.783-9.142,12.074,33.29,14.252,24.4,9.123,3.3-51.987,65.252-65.351-26.82-56.693-36.8-32.471,40.6Z" transform="translate(0 0.001)" fill="#06c" stroke="#000" stroke-width="2"/><path d="M147.778,500.064l22.966,62.241,41.78,8.415,147.914-201.5,12.6-14.234L344.98,327.8,341.3,300.965,312.78,288.239,293.593,321.8l-24.037-2.728-14.647,9.623-14.727-.074-16.347-31.056,5.232-14.113-20.657.475-37.051-49.962-52.55-17.548L90.426,252.145l-48.147,25.87-33.2,80.478L1.122,407.564,84.069,435.89l14.652,19.326,47.122,18.848,9.44,0.363Z" transform="translate(0 0.001)" fill="#06c" stroke="#000" stroke-width="2"/><path d="M933.419,380.938l19.167-3.147,22.3-16.161-8.052-14.038-2.942-19.568L933.8,271.573l-23.335-28.058-24.986,16.841-14.414-17.874,13.071-4.161,8.341-6.526,9.16-1.108,10.817-5.13,20.033,0.931,25.545-1.182,42.162-14.932,22.888-10.71,14.159,44.637L1048.9,399.886l-50.437,14.858,1.219,18.423L957.66,438.51,955.137,426.2Z" transform="translate(0 0.001)" fill="#ff8080" stroke="#000" stroke-width="2"/><path d="M870.331,100.154l-31.632-26-19.82-1.927-15.565-5.669,7.038-9.9-8.583-10.279-0.131-39.91,79.073-5.455,32.033,9.579,24.036,20.7,8.527,20.7,11.785,56.507,9.254,47.235,56.768,43.949-22.891,10.706-42.18,14.932-25.525,1.182-20.053-.931-10.817,5.111-9.16,1.126-8.341,6.526-45.6,15.966-25.274-35.617,9.5-6.907,1.657-23.236-5.836-12.781,30.114-26.383L866.349,137.8l14.131-6.2,0.018-10.985Z" transform="translate(0 0.001)" fill="#ff8080" stroke="#000" stroke-width="2"/><path d="M818.562,175.735l5.856,12.781-1.657,23.236-9.523,6.912-11.106-11.2-1.108-42.58L793.149,153.1l-56.433-3.147-48.747,6.764,0.438-15.3L699.15,118.6l-0.819-21.653L706.8,67.268,700.734,7.484l76.615-.689,24.288-.344,0.132,39.913,8.583,10.277-7.038,9.9,15.565,5.669,19.82,1.927,31.632,26,10.129,20.434-0.018,11-14.113,6.2Z" transform="translate(0 0.001)" fill="#ff8080" stroke="#000" stroke-width="2"/><path d="M557.821,125.316l7.215,32.582,13.071-9.672,42.841,18.311,12.214,3.035,4.71,13.4,46.909,8.8,3.165-35.058,0.438-15.314,10.743-22.817-0.8-21.653,8.47-29.666-6.089-59.8-92.655,1.2,13.182,29.892,26.82-1.145L639.91,63.864,632.639,93.7l-65.8-16.5Z" transform="translate(0 0.001)" fill="#f6e1b9" stroke="#000" stroke-width="2"/><text transform="translate(487.508 271.49)" font-size="81.424" font-family="DejaVu Sans" font-weight="700" style="isolation:isolate">1</text><text transform="translate(435.775 389.102)" font-size="81.424" font-family="DejaVu Sans" font-weight="700" style="isolation:isolate">2</text><text transform="translate(496.879 127.648)" font-size="81.424" font-family="DejaVu Sans" font-weight="700" style="isolation:isolate">3</text><text transform="translate(319.034 256.566)" font-size="81.424" font-family="DejaVu Sans" font-weight="700" style="isolation:isolate">4</text><text transform="translate(122.974 410.308)" font-size="81.424" font-family="DejaVu Sans" font-weight="700" style="isolation:isolate">14</text><text transform="translate(391.704 487.981)" font-size="81.424" font-family="DejaVu Sans" font-weight="700" style="isolation:isolate">12</text><text transform="translate(284.573 566.547)" font-size="81.424" font-family="DejaVu Sans" font-weight="700" style="isolation:isolate">13</text><text transform="translate(519.381 583.869)" font-size="81.424" font-family="DejaVu Sans" font-weight="700" style="isolation:isolate">11</text><text transform="translate(640.672 694.755)" font-size="81.424" font-family="DejaVu Sans" font-weight="700" style="isolation:isolate">10</text><text transform="translate(758.524 622.975)" font-size="81.424" font-family="DejaVu Sans" font-weight="700" style="isolation:isolate">9</text><text transform="translate(798.112 457.021)" font-size="81.424" font-family="DejaVu Sans" font-weight="700" style="isolation:isolate">7</text><text transform="translate(937.391 297.37)" font-size="74.921" font-family="DejaVu Sans" font-weight="700" style="isolation:isolate">15</text><text transform="translate(850.43 215.318)" font-size="81.424" font-family="DejaVu Sans" font-weight="700" style="isolation:isolate">16</text><text transform="translate(718.117 249.602)" font-size="81.424" font-family="DejaVu Sans" font-weight="700" style="isolation:isolate">5</text><text transform="translate(587.946 154.25)" font-size="81.424" font-family="DejaVu Sans" font-weight="700" style="isolation:isolate">18</text><text transform="translate(709.549 130.681)" font-size="81.424" font-family="DejaVu Sans" font-weight="700" style="isolation:isolate">17</text><text transform="translate(924.438 566.547)" font-size="81.424" font-family="DejaVu Sans" font-weight="700" style="isolation:isolate">8</text><text transform="translate(861.112 341.521)" font-size="81.424" font-family="DejaVu Sans" font-weight="700" style="isolation:isolate">6</text></svg>