<svg xmlns="http://www.w3.org/2000/svg" width="943.805" height="701.344" viewBox="0 0 943.805 701.344"><title>Députés sortants de Nouvelle-Calédonie en 2017</title><path d="M527.523,53.781V13.5c-22.309.48-40.908,17.51-64.9,15.873-1.009,20.74-16.261,35.567-12.163,57.5-3.175,13.375,15.64,4.756,23.41,7.186h53.643Q527.526,73.935,527.523,53.781ZM737.857,223.664c0.277-30.473-7.931-58.774-17.375-87.106-17.934-10.514-30.6-27.409-54.7-21.472-14.944-4.744-12.619,7.764-12.17,18.4V204.21c14.317,11.788,27.532,29.87,48.555,25.754C712.817,227.675,732.1,233.754,737.857,223.664ZM939.535,362.408c1.637-29.3,2.061-58.639,3.033-87.962-20.082-4.061-41.492-7.7-60.116,3.747-11.837,2.246-17.75,8.8-15.738,21.066q-1.938,25.905-3.882,51.8c13.757,15.67,34.331,17.295,53.853,13.492C924.3,363.872,931.955,363.417,939.535,362.408ZM695.3,655.087v-46.2c-23.349-4.357-46.967-6.328-70.527-8.595,8.5,23.762,10.739,51.85,26.452,71.158,16.47,3.69,49.385,50.561,43.844,9.432q0.247-12.892.231-25.791h0Z" transform="translate(-47.334 -4.57)" fill="aqua" stroke="#000" stroke-width="3"/><path d="M812.087,699.772q18.688-.018,37.382-0.025c-0.252-18.9,4.085-38.465-.609-56.886-16.359-32.682-59.851-19.313-77.275-54.517C733.311,582.636,723.331,538.719,690.8,524c-28.314-23.047-68.951-21.909-87.119-57.052-10.428-22.783-40.5-3.63-53.36-17.35-24.6-34.116-51.718-73.953-95.425-82.566-34.337-.91-36.681-47.115-52.376-70.36q-11.5-26.117-22.992-52.234c-35.61-.252-73.67,3.439-104.973-17.208-12.539-33.685-10.687-72.531-27.182-104.278-28.431-1.1-57.845-2.91-68.674-32.11-33.574-6.922-66.883-16.655-101.122-21.977-15.406-6.442-26.659-7.284-23.33,12.723,2,26.327-20.672,65.191,14.188,76.555,16.612,20.248,12.766,53.9,36.232,73.731,7.18,10.336,12.729,23.447,27.7,20.5,24.228,2.67,63.653,6.694,63.358,38.3-3.187,15.468,5.882,22.53,19.743,26.289q37.939,17.286,75.872,34.558c5.876,29.852,2.246,60.756,8.786,90.343,22.832,21.675,54.148,31.377,84.769,43.32,17.393,8.761,33.229,22.505,50.819,29.778,20.143,0.1,42.3-7.814,60.885,1.428-2.51,35.174,40.969,34.392,61.426,55.384,14.618,8.822,28.3,20.358,43.479,27.545,30.024,3.015,60.633,2.99,90,10.287,7.955,30.535,3.039,63.217,4.374,94.723,38.705-2.332,77.423-4.522,116.2-4.553h0Z" transform="translate(-47.334 -4.57)" fill="aqua" stroke="#000" stroke-width="3"/><path d="M458.093,6.615l-27,31.5-10.5,64.5s15,30,18.749,43.5,71.246,91.5,71.246,91.5l94.5,66,161.992,55.5,143.993,54,61.5-28.542V290.1l16.5-136.493-58.5-88.827L746.078,54.045,600.585,13.5Z" transform="translate(-47.334 -4.57)" fill="none" stroke="#000" stroke-width="4" stroke-dasharray="12"/><text transform="translate(760.966 216.32)" font-size="100.5" font-family="DejaVu Sans" font-weight="700">1</text><text transform="translate(605.879 653.984)" font-size="44.587" font-family="DejaVu Sans" font-weight="700">1</text><text transform="translate(324.966 447.32)" font-size="100.5" font-family="DejaVu Sans" font-weight="700">2</text></svg>