<svg xmlns="http://www.w3.org/2000/svg" width="313.661" height="699.451" viewBox="0 0 313.661 699.451"><title>Députés sortants de Saint-Pierre-et-Miquelon en 2017</title><path d="M126.548,36.542c-18.055,21.248-55.1,15.514-61.178,46.043-11.632,13.7-9.743,30,4.445,38.13,13.583,26.488,8.7,56,3.63,83.126,8.2,24.773-3.351,65.955,28.787,76.208,13.136,23.642,22.653,51.335,34.243,76.745,11.069,36.426,16.44,75.088,11.547,113.034-23.416,17.1-6.339,51.282-33.427,64.771-25.673,5.466-38.283,25.4-53.76,43.954-8.133,6.124-.058,31.933,2.646,30.734,14.173-21.606,49.646-1.2,32.18,23.5C91.359,648.395,94.147,670,109.993,653c4.388,8.507,17.387,4.13,14.751,19.618,0.421,18.534,24.152-11.274,30.334-15.751,17.3-20.743,40.8-36.137,63.34-50.635,20.98-18.508,48.81-38.325,42.307-70.474,0.9-15.956-13.141-29.529-12.273-44.48-17.987,13.952-26.436-27.435-46.963-6.513-14.025-4.714-29.224-16.656-41.739-26.346-10.08-34.916-4.219-72.92,9.038-106.1,19.2-13.452-4.251-43.812-13.9-17.8-23.126,22.464-27.972-30.3-38.8-42.56,17.334-11.084,46.164,19.244,64.608-2.057,9.759,6.523,9.964,29.508-8.107,35.663,15.23,8.438,31.907-14.457,43.549-22.932,10.111-22.658,13.4-47.91,25.5-69.869,2.6-23.6,2-58.269-29.361-60.91-27.172-5.045-52.434-19.176-69.032-41.387-18.387-22.274-54.134,6.523-59.026-30.392C81.3,80.812,110.366,81.911,117.147,64.74,132.677,61.657,131.709,48.905,126.548,36.542Zm227.6,564.511c-17.7-1.962-15.935,19.87,2.083,9.175C363.4,608.039,360.27,600.632,354.147,601.053Zm-4.124,17.066c-29.45,3.178-47.468,23.837-62.756,46.99-7.76,17.182-20.449,36.878-28.6,49.062,14.315,1.22,15.94,4.4,17.776,17.076,15.219,13.915,8.728-21.164,27.077-13.368C316,710.8,319,704.233,319.052,723.314c4.861,3.362,18.955-.279,21.191,3.093-2.336-12.6,35.937-2.867,28.84-23.553-16.135-6.7-13.315-25.3-17.224-38.993C372.922,655.512,367.372,626.957,350.022,618.119Z" transform="translate(-56.8 -35.597)" fill="#ffd1dc" stroke="#333"/><text transform="translate(167.363 410.371)" font-size="156.406" font-family="DejaVu Sans" font-weight="700">1</text></svg>