<svg xmlns="http://www.w3.org/2000/svg" width="610.267" height="728.509" viewBox="0 0 610.267 728.509"><title>Députés sortants de Martinique en 2017</title><path d="M488.813,463.537l-24.888-5.1-9.45-12.06-2.91-18.383L437.7,417.4,422.2,415.031l-19.87,6.226-8.159,13.519-24.009,20.5-10.378,18.467,0.014,15.3-14.231-5.381-2.9-20.505-14.405-14.531,6.637-19.34-4.76-14.733-4.125-3.064-18.614,8.5,2.478-41.073-6.344-13.351-0.251-5.193,34.8-9.01,12.612-8.417,14.335-1.493-0.377-19.919,4.006-3.28L326.049,289.4l-25.3-4.739-33.235-15.327L246.4,253.67l-9.317-12.9,8.361-3.678,20.533-13.219,14.154-3.238,3.6-9.185,34.555,13.5,10.525-.356,10.267-.4,11.495-10.608,9.869-2.519,5.493-8.871,15.173-2.206L400.1,182.809l8.138,6.672L415.049,214l7.1,6.916,17.469-25.384,18.551-10.015,20.512,2L523.123,160.1l15.4,3.287,7.649,7.3-1.836,15.152-4.7,2.024-13.407-8.34-9.5,3.552,3.224,14.231-6.714,13.358,0.838,10.2-3.978,2.722-15.85-1.193L484.9,209.854l-14.538-6.777-15.822-1.033-3.894,3.636-8.263,12.486,4.983,8.6-6.023,12.9,10.078,11.362L465.5,247.4l-2.143,4.627-4.879,9.234,2.624,4.453,18.781-7.475,4.753,1.745,5.653,14.405,9.464,4.529-4.215,8.871-4.439,2.778-20.128,5.674-5.793,8.682-13.547,5.018-6.344,14.056,12.444,16.192,6.616,8.033,5.186-.077,19.9-15.717,24.867,4.376,13.449-6.547,2.743,4.439-3.42,9.82-11.614,8.605-10.329-.872-3.392,3.594,15.173,13.728-4.8,25.063,30.381,6.3-0.942,9.457,8.633,13.226L548.416,434.2l6.7,8.424,18.132-2.764,7.2,6.114-1.033,4.711-27.973,13.163-20.205,4.495-19.961,16.192Z" transform="translate(-26.279 -7.961)" fill="#fc3" stroke="#000"/><path d="M177.7,16.164l-34.171-7.7-25.6,2.254-19.6,3.818-35.2,19.1-8.787,5.611L40.533,61.641,26.79,96.286l3.05,26.431,18.649,32.07L62.9,159.77l10.287,18.376,25.963,25.74,3.818,15.061-3.72,9.771-6.121,30.492-0.824,10.036,23.911,45.861,19.933,29.25,3.7,9.75,13.721,7.594,11.711,16.722,24.023,8.591,17.19,11.439,21.824,29.871,12.437-29-0.628-26.5L217.563,325.57l-6.442-30.849,2.589-9.883,15.92-17.316,9.262-1.633,8.145,6.763,0.4,5.262-8.389,13.254,2.827,26.186,25.942,18.9,16.708,20.47,19.012,8.815-0.251-5.193,34.8-9.01,12.612-8.41,14.335-1.493-0.377-19.919,4.006-3.28-42.616-28.852-25.3-4.739-33.235-15.327L246.4,253.656l-9.317-12.9,8.361-3.678,20.533-13.219,14.154-3.238,3.6-9.185,34.555,13.5,10.525-.356,10.267-.4,11.495-10.608,9.869-2.527,5.493-8.871,15.173-2.206L400.1,182.788l-12.43-21.838L363.8,141.61l-10.846-28.071-9.89,2.715-9.645-3.427-4.341-14.566L317.066,89.4l-0.237-5.088-13.617-4.69-6.393-7.705L288,77.3l-9.939-2.01L263.228,61.4l-14.719-4.3L237.321,46.922l-10.036-2.736L216.613,32.258Z" transform="translate(-26.279 -7.961)" fill="#fc3" stroke="#000"/><path d="M303.066,422.869l1.131,10.469-4.488,2.561-20.889-2.736-8.585-5.974-41.911,1.165,12.437-29-0.628-26.5L217.569,325.6l-6.442-30.849,2.589-9.883,15.92-17.316,9.262-1.633,8.145,6.763,0.4,5.269L239.059,291.2l2.827,26.186,25.942,18.9,16.708,20.477,19.012,8.808,6.344,13.351-2.478,41.073Z" transform="translate(-26.279 -7.961)" fill="#ffc0c0" stroke="#000"/><path d="M278.345,648.475l-9.911-3.42-7.761-13.686-18.118-9.206,1.214-20.819L233.748,589.66l1.452-15.152-17.337-10.232,3.238-15.431,11.593-17.358,15.264-14.657,5.227,0.817,10.448,0.007,20.345-23.22,19.214,5.981-0.084,14.322,14.14,6.756,36.271-.2,3.176-4.195,10.713-14.587,8.9,3.022-11.481-16.59-5.032.1-0.014-15.3,10.378-18.467,24.009-20.5,8.159-13.519,19.87-6.226,15.494,2.366,13.868,10.595,2.91,18.383,9.45,12.06,24.888,5.1,22.459,21.015,19.961-16.192,20.205-4.495L579.4,450.716l3.49,9.785-5.416,8.975,2.855,4.39,11.858,10.615,14.014-5.374,2.352,2.8-8.41,19.584,8.557,18.991-4.418,9.492,10.364-.286,0.468,10.092L603.5,548.433l-1.452,10.05,14.538,2.847,1.27,20.352,1.075,5.06,9.248,3.922,2.715,4.4,5.109,14.6-5,8.871-9.785-.4-3.085,4.16,12.884,15.375-10.246,11.565-5.109,20.324L601.2,691.118l-14.489-.454-3.727,3.476,4.892,9.282,9.136,4.858-3.057,4.39-10.616-.181-12.444,17.5-9.157,5.151-5.332.824-10.65-.837-4.516-2.729-10.72-12.2-2.659-4.69-10.546-16.178,18.914-27.5-6.568-13.805,2.212-6.714,8.3,7.782,6.477-1.619,0.112-11.551,9.08,0.8,2.54-14.105-5.3-7.852-10.532-.656-35.245,30.569-11.216-11.048-6.372-7.656,1.535-9.98-10.078-1.242-23.737,10.232-30.583-4.474L413.7,622.191l-14.629,3.734L386.2,605.845l-3.064,10.036-12.179,9.408L328.98,610.019l-15.271,3.895-18.028,10.643L290.97,639.5l-8.019,6.393Z" transform="translate(-26.279 -7.961)" fill="#fc3" stroke="#000"/><text transform="translate(363.721 302.039)" font-size="72" font-family="DejaVu Sans" font-weight="700">1</text><text transform="translate(418.721 560.039)" font-size="72" font-family="DejaVu Sans" font-weight="700">4</text><text transform="translate(222.721 402.039)" font-size="72" font-family="DejaVu Sans" font-weight="700">3</text><text transform="translate(93.721 144.039)" font-size="72" font-family="DejaVu Sans" font-weight="700">2</text></svg>