<svg xmlns="http://www.w3.org/2000/svg" width="566.607" height="690.039" viewBox="0 0 566.607 690.039"><title>Députés sortants de Guyane en 2017</title><path d="M335.447,509.139L333.5,509l-0.687-1.15,0.028-3.374-1.964-3.557-0.063-2.708-4.532-1.291-1.712-1.073-4.721-7.442-0.042-.688,3.016-6.012-1.466-6.594,0.47-3.332,0.73-1.129,5.654-3.7,0.561-1.207-0.807-1.859,0.077-2.693-2.68-3.009-0.161-1.3,1.985-3.563,0.835-3.255,3.62-3.045,1.466-2.28,0.372-3.36-0.863-3.942,2.631-3,0.295-.617-0.442-1.284-1.782-.989-1.326.063-3.129,2.455-1.866-.786-0.533-.421-0.274-.624,1.6-5.05-1.136-9.463-0.73-1.9-6.552-7.744-1.6-3.711-4.7-2.371-4.265-6.1,0.288-1.312,0.61-.28,3.332-.14,1.214-.582,1.27-2.336,5.8-5.7,3.928-.954L326.532,383l0.337-3.36-1.256-1.578-2.974-1.508,0.694-1.9,7.232-3.76,2.659-3.072,3.942-.912,3.339-3.3,3.079,1.01,2.168-3.332,7.569-3,1.915-2.778,0.344-2.623,0.765-1.094,2.609,0.042,1.929-.617,0.554-.379,0.4-.554,1.592-3-0.365-4.581,4.721-2.245-0.456-2.532,1.578-3.725,1.606-1.263,1.978-.344,2.182-2.49,3.227-1,0.2-2.6,3.388-2.175-0.126-.666,3.248-.014,0.828-.961-0.687-3.963,0.765-2.616-0.645-1.873,0.484-4.026-0.547-2.651-1.824-1.915,1.333-2.189,0.772-3.311v-0.687l-0.708-1.9-2.9-2.869-1.873-2.834-0.7-6.068-1.136-1.642-0.253-.61,0.084-.659,2.02-5.079,0.379-.554,1.1-.779,2.5-1L384.494,273l2.574,0.2,0.877-2.483,2.132-1.515-0.477-1.936,2.245-2.406-0.21-2.708,0.309-.6,2.006-.1,2.5-5.471,2.392-1.1,2.245-4.139-0.6-2.616,1.368-2.294,1.508-1.361,1.95,0.189,1.613-2.1,1.235-.547,0.772-3.171,0.386-.561,4.335-4.258,1.677-4.377,2.6-.442,0.512-.435,1.136-1.67-0.231-1.333,2.574-.687,1.221-1.613,0.056-1.333,1.3-.281,0.26,0.631,2.525,0.961,3.318-.68,3.578,1.9,1.985,0.358,1.655,2.132,4.567,2.975,3.956,0.947,1.627,1.193,3.907,0.842h0.659l0.561-.344,1.361-2.364,0.877-1.866,0.231-.645,0.765-4,3.648-6.419-0.365-2.68,1.34-3.809,0.54,0.175,0.638,1.908,3.332,0.33,2.8,1.838,2.3-1.312,0.091-.687-1.669-3.367-0.316-3.991,0.772-3.248-0.175-2.006L467.7,199.6l-0.722-1.852-2.546-.631-0.722-1.88,0.372-.491,2.2,1.4,1.235-.414,0.547-1.838-0.982-2.441,3.115-4.3,3.655-1.543,1.5-1.3,0.231-1.263,2.1-1.536-0.4-1.256,0.449-.491,5.633-1.648,1.985,1.677,1.908,0.225,0.821,1.754,3.837,3.718-0.519,1.227,0.288,1.284,2.56,2.139,2.175,3.325,1.157,1.648,4.5,1.038,3.108,4.293,0.631,1.894,1.9,0.21,1.929,1.866,1.171,0.7,2.539,3.171,0.645,0.2,1.7-.835,4.279,2.027,2.259,2.511,2.5,1.017,3.037,2.722,6.362,3.879,6.475,5.78,15.278,5.647,4.5-1.1,4.623,0.8,2.02,0.1,4.938,3.353,2.35,3.241,2.35,1.129,0.828,1.817,1.452,1.389,2.785,7.562,2.147,13.966-0.281,2.651,1.445,3.767,3.753,3.795-1.129,4.356,3.037,3.528,5.2,3.129,2.371-1.115,0.982,0.793-0.449,1.227-2.189,1.508-2.28,4.146-0.091.68,0.386,3.36,0.175,0.659,1.887,5.093,4.777,6.524,0.814,2.56,3.023,2.588,0.442,1.284-0.414,1.284,1.782,0.933,1.894,1.929,1.431,2.231,2.68-.014-1.515,1.361-1.4,3.086-0.582,8.151-2,10.712-1.522,4.5-3.451,3.234-13.8,7.078-5.163,4.377-0.477.477-0.687,1.171-0.295,8.783-2.869,6.173-0.393.554-4.076,3.542-0.779,1.887-5.675,4.791-3.227,5.142-1.873.757-0.891,1.024-3.227-.442-0.07.688,1.606,1.108-0.112.68-1.8.835-2.616.33-0.863,1.845,1.263,4.531-0.9,3.928-2.574.779-3.325.056-3.493,3.149-1.291,3.872-1.382,2.329-0.175.659-0.14,2.715-0.751,1.887,0.372,3.283-5.4,6.075-4.749,8.228-2.9,5.387-2.378,1.038-0.084,2.539-3.227,3.416-1.066,3.893-2.75,2.96L511.8,479.088,509,482.9l-1.438,3.066-1.894,1.922-0.982,3.893-3.528,4.1-3.648,5.731-0.47.484-1.859.659-1.5-2.16-1.957-.224-2.715,2.967-2.918,1.719-2.238,5.626,0.547,4.034-0.428.526-1.3-.372-1.8.73-2.006-.007-1.908,4.966,0.856,1.024-0.119.652-1.978.323-0.6.316-0.358.568-0.028.666,0.337,0.575,1.564,1.15-0.807,2.553,0.21,1.319,2.806,2.883,0.288,1.291-4.9,9.645-1.684,2.1-1.726,7.183-0.281.617-1.9,3.6-1.529,1.312-0.456,3.311,1.136,1.656,1.887,0.323-0.2.638-2.525,3.171-2-.021-0.414-.54-1.445,1.347-1.838.61-4.279,7.716-5.191,10.29-1.9,9.119-1.192,2.441-1.768,2.056-2.132,4.994-1.691,2.118-2.062,5.731-0.449.5-2.645.267-0.547.4-1.073,1.725v0.68l1.831,1.929-0.484,3.143,2.673,2.041,0.863,2.574-1.845,3.493,0.386,1.213-0.575.365-1.929-.561-2.168,2.5,1.726,3.648-0.295,1.319-2.336,1.319-2.89,2.841-3.108,4.391-3.339.372-0.617.28-0.442.47-0.119,1.319,1.368,1.48,0.2,0.652-0.281.61-0.519.435-3.276.73-0.561.393-1.3,1.557-0.379,2.666-1.9,2.785,0.056,2.013-1.087,3.206-1.7,1.059-2.645.463-0.645.2-3.746,1.536-0.589.337-1,.912-0.694,1.88-3.788,1.417-6.411,3.655-1.34-.077-0.582,1.2-4.146,1.964-6.44,1.943-0.386,1.27-2.532.744-0.056,2.589-2.925,1.508-0.9,2.553-1.922,1.782-0.47,2.666-3.388,5.794-5.275-.463-1.726,2.645-5.913,1.171-1.8.87-2.427-1.761-2.315-.288-8.249-2.448-1.515-1.319-2.125-3.367-1.62-1.157-9.912-.533-2.448,1.024-1.978-.288-4.405,1.319-5.2.624-1.571,1.27-1.319.309-2.96-1.438-1.34.028-3.234,3.43-1.319.238-2.364-.709,1.059-1.719,0.161-2.687,2.315-.905,0.786-1.045,0.281-3.346,1.859,0.056,0.6-.3,2.813-1.866,0.3-.589-0.105-.659-0.4-.547-0.589-.337-4.012-.561-0.554-.393-0.989-2.49-3.507-3.178-3.276-.814-1.592-1.284-1.143-1.671-0.765-3.3,2.441-1.108,0.722-1.144,1.207-.6,0.9-5.163,4.609-3.942,2.427-5.584,2.925-1.621-0.912-.9-5.219-1.242-4.546-5.8-4.791-2.224-0.428-4.04-2.175-2.553,0.919-1.8,1.712-1.094,1.515-1.186,0.449-2.672-0.231-3.36-3.662-1.606-1.95-3.521,1.606-2.056,4.517-1.319,0.982-.912,0.253-.632-0.049-.673-2.034-1.761-0.253-.632-0.056-.68-0.035-2.034,1.564-2.189L294.6,607.6l-0.877-3.234,0.231-3.374,1-.821,4.609-.842,0.26-1.929-1.929-2.757,0.246-1.277,7.471-9.568,5.71-3.557,0.028-2.006-1.48-3.788,0.084-2.034,0.224-.638,2.9-3.739,0.673-1.929,3.437-3.234,0.891-4.637,0.877-1.831,9.077-4.482,1.908-4.265,0.491-.463,3.086-1.354,2,0.077,0.407-.54,0.267-2.715-0.828-2.574-0.168-4.082,0.54-6.79,5.471-9.393,0.659-4.714-1.073-3.942-4.09-3.57Z" transform="translate(-47.852 -26.43)" fill="#ffc0c0" stroke="#000"/><path d="M263.147,61.431L252.87,57.9l-10.564-4.637-3.3-.435-6.222-4.153-8.474-4.328-9.112-5.935-2.631-.7L203.122,32.3l-6.468-2.006-3.346-.6-10.852-.231-7.73-2.518-2.574.533-3.381-.238-0.554,1.929-7.576,13.4L159.932,46.5l1.691,4.9-0.084,5.415,0.519,3.318-1.143,5.338L159.49,69.28l-3.837,2.715-1.543,3.023-3.262,2.406-5.612,7.7L140.4,89.8l-1.747,2.918-0.744,2.61-2.189,3.451-0.4.54-5.212,4.3-1.992,3.556-2.469,1.052-2.6,3.066-2.652.428-3.009,2.694-4.314,1.922L110,119.014l-1.27,2.42-4.125,4.518-5.135,9.568-2.154,2.638-0.856,3.248-2.42,1.186-1.221,1.62,0.084,2.027-0.9,1.81-0.484.477-3.381,2.252-2.56.863-0.575.379-0.891.99-0.246.638,0.028,3.4-0.68,2.638-1.228,3.178-1.971,2.75,0.2,4.068L78.982,172l0.68,3.311L78.926,180l-5.878,6.3-0.842,1.691,0.182,0.659,1.627,1.059,0.4,3.3v11.462l1.312,5.948-1.01,7.379,0.042,0.68,1.347,2.336,0.582,0.351,0.666,0.119,2.687-.182,1.817,1.852-1.024,3.893,1.178,2.378,0.421,3.29-1.81,1.9-0.645,2.631,0.744,1.9,2.574,3.094,0.947,1.8-0.575,4.707L82.3,253.073l-0.295.61-4.16,5.289,3.094,11.16-1.487,5.9,1.48,4.49-1.354,7.4,0.077,0.666L80.6,289.4l3.009-1.515,0.631-.175,0.645,0.14,2.49,1.08,0.561,0.379,0.484,0.477L89.2,290.9l0.428,1.284-0.049.68L88.7,296.178l-0.393,4.076,0.007,0.687,0.309,3.4,1.592,2.981,0.147,1.333-1.838,7.281-0.589,4.026,0.14,0.673,1.5,3.795,3.886,0.835,3.4,2.189,1.375,1.515,2.518,0.912L101.6,330.9l0.07,2.055-4.04,4.447-0.386,2,0.379,1.312-1.8,5.822-0.168,3.29,3.037,1.3,3.809,4.763,2.918,6.1,2.42,8.426,0.723,1.15,1.866,1.95,4.868,2.308-0.105,3.283,2.609,5.514,1.655,1.108,5.331,0.821,1.7,1.031,0.365,1.291-0.2.659-1.733,2.084-0.112.68,0.042,2.048,0.687,1.15,1.789,0.891,4.63-.884,6,0.975,1.936,1.831,2.076,4.959,1.634,2.168,1.249,3.872,2.013,1.8,0.919,1.8v1.347l-1.312,3.114,1.017,3.178,5.191,3.128,0.561,1.221-0.182,2.027,0.231,0.638,0.582,0.344,3.339,0.126,1.866-2.715,1.3-.33,1.249,0.463,0.484,0.47,2.687,5.429,1.319,1.55,0.112,0.673-0.793,3.984-2.385,2.378-1.15,2.427-0.716,4.005,1.41,2.245-1.4,3.8,0.028,6.8-1.55,2.147-0.68,2.553,0.154,1.34,1.15,1.669-1.066,2.406-0.4.547-2.841,1.824-2.125,2.637-0.505.442-1.712.849,0.9,3.206-1.333,2.329-0.73,4.693,0.253,2.02-0.091.673-0.365,1.319-0.891,1.824-0.505.449-0.61.274-2.006.259h-0.673l-1.754-.954-3.164,2.483-1.389,2.287-2.315,1.375-2.757,3.844-0.687,1.908-1.627,1.192-2.069,3.472-2.518.744-1.129,1.677-1.866,5.044,0.407,1.9-2.224,1.382,0.316,1.291,1.08,0.715-1.171,1.557,0.042,0.652,0.449,0.477,1.27,0.4,2.813-1.375,1.424,2.2,0.94,3.206-0.94,2.5v0.68l0.877,2.371-2.427.968-0.821,1.733,1.831,2.771,2.21,4.945,0.147,0.673-0.007.68-0.3,1.319-2.055,1.648,1.15,3.83,2.834,1.6-0.2.645-1.866.491-0.54,1.242,0.491,1.256-0.477.477,0.126,1.95-0.288.61-2.427,2.189,0.568,2.6-1.368,4.531,0.042,0.688,0.617,1.922,1.655,2.048-0.526,2.651-0.239.638-0.7,1.157-0.54.407-2.532.723,0.891,5.219-1.515,2.2-0.182,2.672-1.382,2.329-1.143.715-0.687,1.859-1.319.211-0.337.582-1.557,1.3-0.814,1.7-1.943.526-1,.9-1.5,5.156,0.239,1.936-1.052.8-0.337,1.992-0.337.582-4.91,4.56-1.95,2.75,0.091,2.61-2.9,8.214-2.834,2.722,0.119,3.367-1.171,3.128L94.9,639.3,94.036,641l-1.319.147-0.73,2.553-0.309,1.186-1.845.659-0.582,2.589-1.789.94-3.62,4.875-0.54.407-3.781,1.227-4.665-.561-1.347.07-0.575.358L70.9,658.959l-2.462,2.287-0.947,1.8-1.361,5.191,0.6,5.261-2.68.133-1.031.863-1.235-.435-0.365-1.207-1.74-.947-2.427-1.017-2.588-.463-3.753.772-0.274,1.284-1.831,1.747,1.263,0.393,0.715,1.108,1.171,0.561,5.177-1.045,3.262,0.652,0.47,0.47,0.807,1.066L61.2,679.351v0.673l0.435,1.284,0.414,0.526,2.441,1.08,0.673,1.122-0.288.575-4.51,1.179-0.589.316,0.14,0.638,0.5,0.449,3.437,2.013,0.624,0.232,3.318,0.091,0.919,0.961,0.652,2.532,2.462,1.031,1.459,2.848,5.086,1.648,2.925-1.6,1.333-.077,1.052,0.73-0.231,1.985,0.442,0.491,3.325-.119,1.5-1.347h0.673l1.873,0.238,2.448-1.108,0.659-.112,0.533,0.428,0.428,1.2-0.954,1.775-0.231,1.985,1.277,1.473,2.525,0.666,0.077,2.589,0.533,0.421,0.666,0.056,3.942-.73,5.086,1.754,3.318,0.512,3.577-1.656,4.588,0.652,3.585-1.789,4.293-3.072,0.645,3.949,0.239,0.645,1.389,1.424-0.077,1.347,1.052,1.55,1.3,0.063,1.333,1.41,2.406,1.038,3.094-1.2,3.606,1.775,0.477-.3,0.288-1.971,2.869-2.792,1.08-5.955,3.213-4.321,0.6-.238,2.308,1.319,5.9,1.038,1.578-1.277,1.424-2.308,2.217-1.347,3.241,0.344,1.81-2,3.942-.182,1.368-3.711-0.631-3.97,1.171-3.648,3.22,0.632,0.477,1.894,1.031,0.624,3.732-2.61,0.547-4.686,0.652-1.157,3.3-.021,1.08-.8,1.375,1.312,1.964,0.259,1.207-.533,3.746-1.3,0.168-.659-0.6-1.192-2.588-.533-0.449-1.15,3.655-1.585,1.171-2.364,2.2-1.536,1.936-.442,0.828-1.052,3.086-1.248,2.56,0.751,1.992-.1,0.084,0.926-1.389,1.291,2.434,0.323,2.027,1.782-0.119,1.277L212.7,674.35l0.126,1.964-1.929.505-0.344.582,0.961,1.691,1.894,0.477,0.863-1.024,3.9,0.715,1.873-.484,1.824,2.68,3.718-1.1,2.42,1.122-0.224,1.985,0.708,1.038,6.594,0.68,2.546-.666,3.809,2.651,1.207-.561,1.326,0.147,1.88,0.645,2.56,2.133,0.421-.526,2.455,0.68,2.168-1.494,2.638,0.344,4-.456,2.406,1.227,2-.049,2.217-1.564,1.438-2.3,1.985-1.88,0.575-.351,3.339-.33,0.589-.316,1.971-2.715,1.943-.442,3.009-1.5,0.533-.428,1.684-2.139L283.9,672.6l0.33-.575,0.6-.288,2.6-.666,0.617,0.259,0.491,0.456,0.8,1.859,1.3-.267,0.94-1,0.323,0.575,2.441-1.108,0.722-1.144,1.207-.6,0.9-5.163L301.784,661l2.427-5.584,2.925-1.621-0.912-.9-5.219-1.242-4.546-5.8-4.791-2.224-0.428-4.04-2.175-2.553,0.919-1.8,1.712-1.094,1.515-1.186,0.449-2.672-0.231-3.36-3.662-1.606-1.95-3.521,1.606-2.056,4.517-1.319,0.982-.912,0.253-.632-0.049-.673-2.034-1.761-0.253-.632-0.056-.68-0.035-2.034,1.564-2.189,0.288-1.319-0.877-3.234,0.231-3.374,1-.821,4.609-.842,0.26-1.929-1.929-2.757,0.246-1.277,7.471-9.568,5.71-3.557,0.028-2.006-1.48-3.788,0.084-2.034,0.224-.638,2.9-3.739,0.673-1.929,3.437-3.234,0.891-4.637,0.877-1.831,9.077-4.482,1.908-4.265,0.491-.463,3.086-1.354,2,0.077,0.407-.54,0.267-2.715-0.828-2.574L335.195,536l0.54-6.79,5.471-9.393,0.659-4.714-1.073-3.942-4.09-3.57-1.284,1.571-1.95-.133-0.687-1.15,0.028-3.374-1.964-3.563-0.063-2.7-4.532-1.291-1.712-1.073-4.721-7.45-0.042-.68,3.016-6.012-1.466-6.594,0.47-3.332,0.73-1.129,5.654-3.7,0.561-1.207-0.807-1.859,0.077-2.7-2.68-3-0.161-1.3,1.985-3.563,0.835-3.262,3.62-3.037,1.466-2.28,0.372-3.36-0.863-3.942,2.631-3,0.295-.617-0.442-1.284-1.782-.989-1.326.056-3.129,2.462-1.866-.786-0.533-.421-0.274-.632,1.6-5.044-1.136-9.463-0.73-1.9-6.552-7.737-1.6-3.711-4.7-2.371-4.265-6.1,0.288-1.312,0.61-.28,3.332-.14,1.214-.582,1.27-2.336,5.8-5.7,3.928-.954,1.284-1.585,0.337-3.36-1.256-1.578-2.974-1.508,0.694-1.9,7.232-3.76,2.659-3.072,3.942-.912,3.339-3.3,3.079,1.01,2.168-3.332,7.569-3,1.915-2.778,0.344-2.623,0.765-1.094,2.609,0.035,1.929-.617,0.554-.372,0.4-.554,1.592-3-0.365-4.581,4.721-2.252-0.456-2.525,1.578-3.725,1.606-1.263,1.978-.344,2.182-2.49,3.227-1,0.2-2.6,3.388-2.175-0.126-.666,3.248-.014,0.828-.961-0.687-3.963,0.765-2.616-0.645-1.873,0.484-4.026-0.547-2.651-1.824-1.922,1.333-2.182,0.772-3.311V299.5l-0.708-1.9-2.9-2.869-1.873-2.834-0.7-6.075-1.136-1.634-0.253-.61,0.084-.659,2.02-5.079,0.379-.554,1.1-.779,2.5-1,0.884-2.469,2.574,0.189,0.877-2.483,2.132-1.515-0.477-1.936,2.245-2.406-0.21-2.708,0.309-.6,2.006-.1,2.5-5.471,2.392-1.1,2.245-4.139-0.6-2.616,1.368-2.294,1.508-1.361,1.95,0.189,1.613-2.1,1.235-.547,0.772-3.171,0.386-.561,4.335-4.265,1.677-4.377,2.6-.435,0.512-.442,1.136-1.662-0.231-1.333,2.574-.687,1.221-1.613,0.056-1.333,1.3-.281,0.26,0.631,2.525,0.961,3.318-.68,3.578,1.894,1.985,0.365,1.655,2.132,4.567,2.953,3.956,0.947,1.627,1.193,3.907,0.842H452.5l0.561-.344,1.361-2.364,0.877-1.873,0.231-.638,0.765-4,3.648-6.419-0.365-2.687,1.34-3.809,0.54,0.182,0.638,1.908,3.332,0.33,2.8,1.838,2.3-1.319,0.091-.68-1.669-3.367-0.316-3.991,0.772-3.248-0.175-2.006-1.557-1.031-0.722-1.845-2.546-.631-0.722-1.88,0.372-.491,2.2,1.4,1.235-.414,0.547-1.838-0.982-2.441,3.115-4.3,3.655-1.543,1.5-1.3,0.231-1.263-2.336,1.193L470.39,182.4l-2.855-2.932-2.631-3.977-2.125-1.683-0.547-1.256-7.611-5.64-11.939-12.128-3.781-2.876-1.992-.105-0.47-.435,0.105-1.291-1.143-1.522-1.171.091-2.013-.274-6.138-5.324-4.118-2.364-0.316-.582,0.68-1.817-2.182-1.564-4.945-5.577-0.484-.463-10.669-7.211-8.951-8.263-2.96-4.5-4.854-3.6-2.553-.87-0.975-.961-0.631-2.61L380.5,99.6l-1.214-2.434-2.939-1.691L375.333,93.7l-9.252-6.79-1.27-2.322-3.571-1.88-1.943.267-1.915-.659-4.686-.6-0.638.168-0.386.512,0.021,0.659,1.319,2.385-0.168.61-0.589.007-3.549-4.083-10.62-2.364-8.341-4.665-3-2.743-6.959-2.623-17.425-5.212-2.939-2.483-3.234.933-0.638,1.059,1.059,0.737,2.694,0.225,1.845,0.835,2.048,1.782,0.884,1.81-2.876-2.6-1.8-.9-6.713.617-0.673-.056L288.9,65.036l-5.331-.947-7.758-2.427-10.789-1Z" transform="translate(-47.852 -26.43)" fill="#ffd1dc" stroke="#000"/><text transform="translate(162.753 253.172)" font-size="72" font-family="DejaVu Sans" font-weight="700">2</text><text transform="translate(380.242 392.665)" font-size="72" font-family="DejaVu Sans" font-weight="700">1</text></svg>