<svg xmlns="http://www.w3.org/2000/svg" width="505.479" height="673.463" viewBox="0 0 505.479 673.463"><title>Députés sortants de Mayotte en 2017</title><path d="M47.133,35.226l-3.328.665-12.659,14,1.335,2.664L47.8,57.881l5.327,10.66L71.117,55.882l-0.664-2.675ZM181.718,69.2l-17.987,5.327,1.335,6.668L150.407,93.855l-4.663,18.657-9.326,8.661-12.659-1.329,2,17.328-17.322,17.981-17.322-3.328-1.335,1.329L76.456,193.12l17.987,2.011,5.327,10.66L73.787,233.114v6.656l44.64-22.638,49.967-5.333,11.989,14.664,43.976,25.313,59.293,15.317,25.983,2.653,45.969,3.34,69.953-20.656-23.314-17.993-16.658-6-4-4.657,2-11.989-4,4-15.988-8-24.649-1.329-23.32-.665-17.987-16.663-14.659,27.323H271.663l-6-11.325-6-.665-14.659,5.992-14.659-7.985-6-2.011,5.327-17.317-8-16.663,5.327-11.325-22.655-11.325L197.03,126.51,169.712,101.2l-10.66-5.327,20.656-15.329ZM511.51,265.748l-17.322,25.977-12.659,21.321-17.987-5.327L486.191,323.7l22.649,38.648,4.663-17.328L531.49,327.04l1.335-18.657,0.664-.665,2-6L524.833,278.4Z" transform="translate(-30.545 -34.691)" fill="#ffc0c0" stroke="#333"/><path d="M387.449,498.506l-14.925,10.66-16.981,7.076L348.505,533.4l3.283,11.9,12.489,13.188-29.737-2.476-18.026,23.382,4,16.783-2.38,5.6-11.9,1.618-4.532,11.16L323.8,648.733l34.315,17.68-0.863,5.992-10.007,8.417-19.384,1.573-14.63,10.3-4.208-18.458-8.241-9.218-12.421-2.686-8.5,9.371,0.6,6.344,0.7,4.646,0.324,6.3-16.1,18.623-12.239-1.931-11.637-14.2-15.84,8.82-4.81-24.416-12.029-1.92-16.135,18.134-4.765-3.76,8.5-42.55-2.158-12.359-5.782-2.5-25.023,16.084-23.694-8.894L165.731,624.6l11.592-13.358,5.873-24-3.146-11.694L156.91,573.8,145.8,559.776l-19.435-37.348,18.339-1.42,31.788,2.959,3.652,18.424,7.173,23.1,28.511,11.427,8.258,9.03,1.034-.119,18.549,5.8,18.742-4.39,14.352-21.411-1.857-6.276-27.562-51.569-11.609-5.327-1.71-3.618-14.755-10.814-21.423-31.237-21.8-11.1-7.718-10.439L171.859,430l10.155-8.11,30.129-9.348L188.09,404.36l-8.474-7.1,8.457-29.641-10.195-14.852-0.954-12.37,5.475-8.809,16.629-3.016-1.437-5.492-23.246-1.908L170,309.917l10.331-14.13,2.1-12.2-7.349-9.218-10.95,6.332L147.551,271.8l-12.2,3.459L107.244,249.2l-18.43,2.454-15.079-11.9,44.765-22.6,49.933-5.282,12.029,14.721,43.9,25.205,59.06,14.954,26.352,2.863,46.02,3.419,69.635-20.951,0.948,17.958L420.105,288l-4.646-4.447,0.659-15.118-11.489,21.133,10.177,3.771,8.337,10.649-3.4,2.641-21.576,14.165-13.841,20.855-15.437,11.461-3.112,18.526-10.768,6.9-0.454.21-7.491,8.985,1.511,11.734-14.005,10.626-1.869,5.634,5.628,1.965,11.347,3.606,2.312,12.114,13.693,20.446,11.949,3.43,2.7,12.233,17.839,0.721Z" transform="translate(-30.545 -34.691)" fill="#ff8080" stroke="#333"/><text transform="translate(90.456 163.388)" font-size="107.951" font-family="DejaVu Sans" font-weight="700">1</text><text transform="translate(219.127 382.388)" font-size="107.951" font-family="DejaVu Sans" font-weight="700">2</text></svg>