<svg xmlns="http://www.w3.org/2000/svg" width="862.371" height="709.018" viewBox="0 0 862.371 709.018"><title>Députés sortants de Guadeloupeen 2017</title><path d="M377.7,176.074l-27.576,4.652-13.963-1.789-10.03,3.578-6.087,7.521-10.385-1.074-6.087,3.223-6.8,7.881-0.36,20.77-11.1,13.968,1.435,6.447-5.372,4.3,2.863,32.589L282.092,281l21.13,34.378,1.789-4.3,6.447-2.5,9.31-11.1,52.644-21.484,9.31-4.3V258.084l1.435-3.223,6.447-1.435-0.714-6.087-3.223-1.435,0.36-3.578,12.534-16.832,9.67,3.938,16.117-6.447-4.658-20.415-13.968-.354L398.485,190.4l-6.092,3.578ZM546.015,532.4l-13.6,3.583-16.477,23.633-6.8,2.149-3.223,21.13-3.938,5.733-12.179,7.161-1.435,3.223,6.807,41.9,5.372,9.31,20.055,13.608,23.639,8.236h10.385l9.67-3.943,10.385-1.429,12.894-6.447,18.621-16.832,12.179-7.161L624.452,623l1.435-14.323-3.938-13.963L598.31,573.948l-10.385-21.484-27.931-15.757Z" transform="translate(-28.253 -19.03)" fill="#ffc0c0" stroke="#000"/><path d="M359.438,19.577L342.966,37.843l-15.4,8.95-5.732,9.31-9.67,4.652L294.974,78.308l-4.3,13.248L302.5,132.381l7.161,7.521,9.67,4.3,3.223-1.429,11.1,12.534L331.5,175l4.658,3.944,13.963,1.789L377.7,176.08l14.683,17.906,6.092-3.578,8.236,11.819,13.968,0.354L425.336,223l-16.117,6.447-9.67-3.938-12.534,16.832-0.36,3.578,3.223,1.435,0.714,6.087-6.447,1.435-1.435,3.223V271.7L373.4,276l-52.644,21.484-9.31,11.1-6.447,2.5-1.789,4.3,3.578,4.658,13.608,1.074,6.8,7.521,34.378,7.876,17.192-2.863,12.179-7.161,17.546-1.789,10.03-2.149,5.012-5.372,12.534-5.018,10.385-.354,13.608-11.1,40.11-10.03,6.447,2.863,24.353-3.583,40.465-11.1,57.3,5.732,16.832,4.3-11.459-8.236-17.906-2.509-32.229-15.4-7.161-7.876-11.459-22.919-19.341-15.4-32.583-13.608L492.3,199.37l-7.161,1.429-34.378-9.67L426.77,159.614l-5.012-13.608,0.354-7.161,6.807-29.725-5.732-23.993-7.161-22.919-8.236-7.161-19.7-14.323-5.372-8.956-13.963-2.5-5.732-8.956Zm448,163.3-6.8,1.429-3.223,4.3h-3.583l-8.6,5.732L771.268,201.5l-1.789-.354-3.223,3.938h-1.789l-6.8,5.732-6.8,2.863-7.161.714-3.944,6.087-10.385,2.149-7.161,8.236-0.714,8.95,2.863,1.074,21.13-9.67,24.713-6.087,20.41-15.4,16.832-6.447,6.087-3.938-3.578-12.179ZM707.165,361.217l-15.757,1.074-1.429.714,1.429,2.863,8.6,2.509,10.385-2.149,1.429-2.863Z" transform="translate(-28.253 -19.03)" fill="#ffc0c0" stroke="#000"/><path d="M94.434,172.137l-8.6,5.727L71.87,178.938,59.7,186.454,51.1,197.2l-3.223,13.608-8.95,6.447-1.074,3.223,2.509,6.447-5.018,9.67L34.269,254.5,28.9,263.456l2.869,2.5,4.658,24.353,15.4,19.7,2.509,13.968-3.938,13.963,4.3,9.31,12.174,6.8,7.161,0.714,12.894-4.658,12.534,4.3,5.372,12.894,1.429,13.968,4.3,5.372,0.714,13.968,6.8,1.789,5.732,15.757,10.025-1.789,20.055,5.012,8.236,6.092,2.509,6.447,6.087,7.881,20.415,3.223,19.7,7.161,18.266-10.025L242.7,438.22l10.025-9.31,9.67-3.583L262.037,415.3l7.516-10.745L256.3,394.526l0.354-10.025-5.372-3.938-2.5-6.8-1.435-6.8,4.3-5.372-0.36-3.583-7.161-7.876-1.789-6.8,0.36-3.583,5.012-9.31L244.485,313.6l4.3-13.608,2.863-2.149,16.472,3.938,3.223-1.789,11.819,11.459,2.863-6.447-3.938-5.732L280.3,284.952l2.149-17.906-1.435-6.8-6.447-3.223v-6.8l-6.8-1.435L253.8,252.008l-8.236,11.819-3.223,1.789-3.223,1.074-3.583-.714-4.658-7.516-8.236,6.447-3.583-9.31-10.385,2.869-0.354-6.447,5.012-5.012,6.087,0.714,7.161-11.819,4.3-3.938-2.509-2.149-8.95.354-10.745,1.789-15.757-7.876-5.372-8.956-21.13-.714-27.576-15.4-13.963-3.223-14.323-16.117Zm152.554,7.876-5.012.714-4.658,7.881,3.938-1.435,3.583,0.714,5.372-.354,1.435-1.074v-3.578Z" transform="translate(-28.253 -19.03)" fill="#ffc0c0" stroke="#000"/><path d="M54.684,347.255L53.25,358l7.161,6.8,0.714,7.161-2.5,21.13,7.521,11.459L63.28,418.514l1.069,25.067,6.092,2.509-3.223,31.16,4.658,9.67,13.248,15.757,4.658,24.353L112.7,552.458l6.087,2.863,6.447,12.179L128.1,588.27l10.025,2.509,20.415-5.372,9.31-10.385,6.8,1.435,8.59-6.447,17.552,0.36,9.67-3.943,7.876-14.683,0.714-3.583,40.825-34.378L274.2,485.132l-3.578-13.608,1.429-28.651-3.938-13.608-5.732-3.938-9.67,3.583-10.025,9.31-13.608,3.938L210.81,452.183l-19.7-7.161L170.7,441.8l-6.087-7.881L162.1,427.47l-8.236-6.092-20.055-5.012-10.025,1.789L118.056,402.4l-6.8-1.789-0.714-13.968-4.3-5.372L104.814,367.3,99.441,354.4l-12.534-4.3-12.894,4.658-7.161-.714ZM258.448,657.74l-2.863,6.447-1.435.36-3.223-3.583-1.429.715-1.789,3.223,1.074,6.8-2.149,2.863L234.1,676l-5.372,4.3-0.714,1.789,4.3,2.509,6.8,2.5,3.938-5.733,10.385,1.789,1.429-8.6,8.6-5.733-1.789-3.223,0.36-5.372-2.149-2.5h-1.435v0.011Zm-60.165,12.888-6.087,6.087-4.658,2.509L183.954,691.4l15.757,8.6,4.658-2.863,6.8-10.385,4.658-.715,1.074-2.863-7.521-3.938-1.074-5.012-1.435-1.075Z" transform="translate(-28.253 -19.03)" fill="#ff8080" stroke="#000"/><path d="M259.877,513.783L286.024,565S302,627,302,630s5,57.1,5,57.1L281.377,726,169,721l-21-56-9.877-74.221" transform="translate(-28.253 -19.03)" fill="none" stroke="#000" stroke-width="4" stroke-dasharray="12"/><path d="M303.21,315.392L316,368.379,407,418s92,30,107,42,90,36.565,99,53.783S639,575,640,583s1,51-1,60-59,44.1-59,44.1L481,700l-99-70L327,509,286.024,402l4.652-96L282,283v-5.875l-1.75-20.5L281.377,240l3.938-5.195" transform="translate(-28.253 -19.03)" fill="none" stroke="#000" stroke-width="4" stroke-dasharray="12"/><path d="M475.528,296.847l129.557,50.408,60,80.839s124.494,1.5,133.493,0,58.5-80.839,58.5-80.839l31.5-112.449-19.5-102.2-101.556-31.5-135.432,1.5-143.725,52.5L475.528,198.1" transform="translate(-28.253 -19.03)" fill="none" stroke="#000" stroke-width="4" stroke-dasharray="12"/><text transform="translate(495.872 226.698)" font-size="72" font-family="DejaVu Sans" font-weight="700">2</text><text transform="translate(278.747 262.071)" font-size="72" font-family="DejaVu Sans" font-weight="700">1</text><text transform="translate(109.87 340.068)" font-size="72" font-family="DejaVu Sans" font-weight="700">3</text><text transform="translate(117.855 571.749)" font-size="72" font-family="DejaVu Sans" font-weight="700">4</text></svg>